G75*
%MOIN*%
%OFA0B0*%
%FSLAX25Y25*%
%IPPOS*%
%LPD*%
%AMOC8*
5,1,8,0,0,1.08239X$1,22.5*
%
%ADD10C,0.59855*%
%ADD11R,0.03950X0.04343*%
%ADD12R,0.05524X0.03950*%
%ADD13R,0.03950X0.05524*%
%ADD14R,0.04737X0.05367*%
%ADD15R,0.08674X0.05918*%
%ADD16R,0.22847X0.11981*%
%ADD17C,0.08200*%
%ADD18C,0.04762*%
D10*
X0079937Y0127181D03*
D11*
X0118441Y0083874D03*
X0125921Y0083874D03*
X0122181Y0075606D03*
X0083677Y0040567D03*
X0076197Y0040567D03*
X0079937Y0048835D03*
X0037870Y0068126D03*
X0030390Y0068126D03*
X0034130Y0059858D03*
D12*
X0040567Y0088205D03*
X0040567Y0095291D03*
X0024819Y0095291D03*
X0024819Y0088205D03*
X0095685Y0032299D03*
X0095685Y0025213D03*
X0115370Y0088205D03*
X0115370Y0095291D03*
X0131118Y0095291D03*
X0131118Y0088205D03*
D13*
X0126787Y0107496D03*
X0119701Y0107496D03*
X0103165Y0040567D03*
X0096079Y0040567D03*
X0083480Y0024819D03*
X0076394Y0024819D03*
X0036236Y0111433D03*
X0029150Y0111433D03*
D14*
X0071116Y0093402D03*
X0077027Y0093356D03*
X0082847Y0093356D03*
X0088818Y0093356D03*
X0088780Y0058644D03*
X0082885Y0058681D03*
X0077027Y0058681D03*
X0071131Y0058681D03*
D15*
X0065107Y0076000D03*
X0094812Y0076000D03*
D16*
X0079937Y0076000D03*
D17*
X0032693Y0032693D03*
X0032693Y0042693D03*
X0115370Y0119307D03*
X0115370Y0129307D03*
X0127181Y0062693D03*
X0127181Y0052693D03*
X0127181Y0042693D03*
X0127181Y0032693D03*
D18*
X0052378Y0044504D03*
X0044504Y0052378D03*
X0044504Y0079937D03*
X0052378Y0095685D03*
M02*
