G75*
%MOIN*%
%OFA0B0*%
%FSLAX25Y25*%
%IPPOS*%
%LPD*%
%AMOC8*
5,1,8,0,0,1.08239X$1,22.5*
%
%ADD10C,0.07400*%
%ADD11C,0.00394*%
%ADD12C,0.01969*%
%ADD13C,0.04000*%
%ADD14C,0.01181*%
D10*
X0032399Y0032539D03*
X0032399Y0042539D03*
X0032399Y0052539D03*
X0032399Y0062539D03*
X0032399Y0072539D03*
X0032399Y0082539D03*
X0127177Y0072539D03*
X0127177Y0062539D03*
X0127177Y0052539D03*
X0127177Y0042539D03*
X0127177Y0032539D03*
D11*
X0050392Y0002344D02*
X0002377Y0002344D01*
X0002603Y0002118D02*
X0002118Y0002603D01*
X0001724Y0003165D01*
X0001434Y0003787D01*
X0001257Y0004450D01*
X0001197Y0005134D01*
X0001197Y0053819D01*
X0003686Y0046816D01*
X0008906Y0036742D01*
X0015449Y0027472D01*
X0023194Y0019180D01*
X0031995Y0012019D01*
X0031995Y0012019D01*
X0041690Y0006124D01*
X0052097Y0001603D01*
X0052097Y0001603D01*
X0053548Y0001197D01*
X0005134Y0001197D01*
X0004450Y0001257D01*
X0003787Y0001434D01*
X0003165Y0001724D01*
X0002603Y0002118D01*
X0002841Y0001952D02*
X0051295Y0001952D01*
X0052254Y0001559D02*
X0003519Y0001559D01*
X0002025Y0002736D02*
X0049489Y0002736D01*
X0048586Y0003128D02*
X0001750Y0003128D01*
X0001559Y0003520D02*
X0047684Y0003520D01*
X0046781Y0003913D02*
X0001401Y0003913D01*
X0001296Y0004305D02*
X0045878Y0004305D01*
X0044975Y0004697D02*
X0001235Y0004697D01*
X0001201Y0005089D02*
X0044072Y0005089D01*
X0043169Y0005481D02*
X0001197Y0005481D01*
X0001197Y0005874D02*
X0042266Y0005874D01*
X0041690Y0006124D02*
X0041690Y0006124D01*
X0041456Y0006266D02*
X0001197Y0006266D01*
X0001197Y0006658D02*
X0040811Y0006658D01*
X0040166Y0007050D02*
X0001197Y0007050D01*
X0001197Y0007442D02*
X0039521Y0007442D01*
X0038876Y0007835D02*
X0001197Y0007835D01*
X0001197Y0008227D02*
X0038231Y0008227D01*
X0037586Y0008619D02*
X0001197Y0008619D01*
X0001197Y0009011D02*
X0036941Y0009011D01*
X0036297Y0009404D02*
X0001197Y0009404D01*
X0001197Y0009796D02*
X0035652Y0009796D01*
X0035007Y0010188D02*
X0001197Y0010188D01*
X0001197Y0010580D02*
X0034362Y0010580D01*
X0033717Y0010972D02*
X0001197Y0010972D01*
X0001197Y0011365D02*
X0033072Y0011365D01*
X0032427Y0011757D02*
X0001197Y0011757D01*
X0001197Y0012149D02*
X0031836Y0012149D01*
X0031354Y0012541D02*
X0001197Y0012541D01*
X0001197Y0012933D02*
X0030872Y0012933D01*
X0030389Y0013326D02*
X0001197Y0013326D01*
X0001197Y0013718D02*
X0029907Y0013718D01*
X0029425Y0014110D02*
X0001197Y0014110D01*
X0001197Y0014502D02*
X0028943Y0014502D01*
X0028461Y0014895D02*
X0001197Y0014895D01*
X0001197Y0015287D02*
X0027979Y0015287D01*
X0027497Y0015679D02*
X0001197Y0015679D01*
X0001197Y0016071D02*
X0027015Y0016071D01*
X0026533Y0016463D02*
X0001197Y0016463D01*
X0001197Y0016856D02*
X0026051Y0016856D01*
X0025568Y0017248D02*
X0001197Y0017248D01*
X0001197Y0017640D02*
X0025086Y0017640D01*
X0024604Y0018032D02*
X0001197Y0018032D01*
X0001197Y0018424D02*
X0024122Y0018424D01*
X0023640Y0018817D02*
X0001197Y0018817D01*
X0001197Y0019209D02*
X0023167Y0019209D01*
X0023194Y0019180D02*
X0023194Y0019180D01*
X0022800Y0019601D02*
X0001197Y0019601D01*
X0001197Y0019993D02*
X0022434Y0019993D01*
X0022068Y0020385D02*
X0001197Y0020385D01*
X0001197Y0020778D02*
X0021701Y0020778D01*
X0021335Y0021170D02*
X0001197Y0021170D01*
X0001197Y0021562D02*
X0020969Y0021562D01*
X0020602Y0021954D02*
X0001197Y0021954D01*
X0001197Y0022347D02*
X0020236Y0022347D01*
X0019870Y0022739D02*
X0001197Y0022739D01*
X0001197Y0023131D02*
X0019504Y0023131D01*
X0019137Y0023523D02*
X0001197Y0023523D01*
X0001197Y0023915D02*
X0018771Y0023915D01*
X0018405Y0024308D02*
X0001197Y0024308D01*
X0001197Y0024700D02*
X0018038Y0024700D01*
X0017672Y0025092D02*
X0001197Y0025092D01*
X0001197Y0025484D02*
X0017306Y0025484D01*
X0016939Y0025876D02*
X0001197Y0025876D01*
X0001197Y0026269D02*
X0016573Y0026269D01*
X0016207Y0026661D02*
X0001197Y0026661D01*
X0001197Y0027053D02*
X0015841Y0027053D01*
X0015474Y0027445D02*
X0001197Y0027445D01*
X0001197Y0027837D02*
X0015191Y0027837D01*
X0015449Y0027472D02*
X0015449Y0027472D01*
X0014914Y0028230D02*
X0001197Y0028230D01*
X0001197Y0028622D02*
X0014638Y0028622D01*
X0014361Y0029014D02*
X0001197Y0029014D01*
X0001197Y0029406D02*
X0014084Y0029406D01*
X0013807Y0029799D02*
X0001197Y0029799D01*
X0001197Y0030191D02*
X0013530Y0030191D01*
X0013253Y0030583D02*
X0001197Y0030583D01*
X0001197Y0030975D02*
X0012976Y0030975D01*
X0012700Y0031367D02*
X0001197Y0031367D01*
X0001197Y0031760D02*
X0012423Y0031760D01*
X0012146Y0032152D02*
X0001197Y0032152D01*
X0001197Y0032544D02*
X0011869Y0032544D01*
X0011592Y0032936D02*
X0001197Y0032936D01*
X0001197Y0033328D02*
X0011315Y0033328D01*
X0011038Y0033721D02*
X0001197Y0033721D01*
X0001197Y0034113D02*
X0010762Y0034113D01*
X0010485Y0034505D02*
X0001197Y0034505D01*
X0001197Y0034897D02*
X0010208Y0034897D01*
X0009931Y0035290D02*
X0001197Y0035290D01*
X0001197Y0035682D02*
X0009654Y0035682D01*
X0009377Y0036074D02*
X0001197Y0036074D01*
X0001197Y0036466D02*
X0009101Y0036466D01*
X0008906Y0036742D02*
X0008906Y0036742D01*
X0008846Y0036858D02*
X0001197Y0036858D01*
X0001197Y0037251D02*
X0008642Y0037251D01*
X0008439Y0037643D02*
X0001197Y0037643D01*
X0001197Y0038035D02*
X0008236Y0038035D01*
X0008033Y0038427D02*
X0001197Y0038427D01*
X0001197Y0038819D02*
X0007829Y0038819D01*
X0007626Y0039212D02*
X0001197Y0039212D01*
X0001197Y0039604D02*
X0007423Y0039604D01*
X0007220Y0039996D02*
X0001197Y0039996D01*
X0001197Y0040388D02*
X0007016Y0040388D01*
X0006813Y0040780D02*
X0001197Y0040780D01*
X0001197Y0041173D02*
X0006610Y0041173D01*
X0006407Y0041565D02*
X0001197Y0041565D01*
X0001197Y0041957D02*
X0006204Y0041957D01*
X0006000Y0042349D02*
X0001197Y0042349D01*
X0001197Y0042742D02*
X0005797Y0042742D01*
X0005594Y0043134D02*
X0001197Y0043134D01*
X0001197Y0043526D02*
X0005391Y0043526D01*
X0005187Y0043918D02*
X0001197Y0043918D01*
X0001197Y0044310D02*
X0004984Y0044310D01*
X0004781Y0044703D02*
X0001197Y0044703D01*
X0001197Y0045095D02*
X0004578Y0045095D01*
X0004374Y0045487D02*
X0001197Y0045487D01*
X0001197Y0045879D02*
X0004171Y0045879D01*
X0003968Y0046271D02*
X0001197Y0046271D01*
X0001197Y0046664D02*
X0003765Y0046664D01*
X0003686Y0046816D02*
X0003686Y0046816D01*
X0003601Y0047056D02*
X0001197Y0047056D01*
X0001197Y0047448D02*
X0003461Y0047448D01*
X0003322Y0047840D02*
X0001197Y0047840D01*
X0001197Y0048233D02*
X0003182Y0048233D01*
X0003043Y0048625D02*
X0001197Y0048625D01*
X0001197Y0049017D02*
X0002904Y0049017D01*
X0002764Y0049409D02*
X0001197Y0049409D01*
X0001197Y0049801D02*
X0002625Y0049801D01*
X0002485Y0050194D02*
X0001197Y0050194D01*
X0001197Y0050586D02*
X0002346Y0050586D01*
X0002207Y0050978D02*
X0001197Y0050978D01*
X0001197Y0051370D02*
X0002067Y0051370D01*
X0001928Y0051762D02*
X0001197Y0051762D01*
X0001197Y0052155D02*
X0001788Y0052155D01*
X0001649Y0052547D02*
X0001197Y0052547D01*
X0001197Y0052939D02*
X0001510Y0052939D01*
X0001370Y0053331D02*
X0001197Y0053331D01*
X0001197Y0053723D02*
X0001231Y0053723D01*
X0009559Y0056469D02*
X0029403Y0056469D01*
X0029625Y0056691D02*
X0028248Y0055313D01*
X0027502Y0053513D01*
X0027502Y0051565D01*
X0028248Y0049766D01*
X0029625Y0048388D01*
X0031425Y0047643D01*
X0033373Y0047643D01*
X0035173Y0048388D01*
X0036550Y0049766D01*
X0036892Y0050591D01*
X0041795Y0050591D01*
X0053128Y0039258D01*
X0053118Y0039234D01*
X0053118Y0037963D01*
X0053605Y0036788D01*
X0054504Y0035888D01*
X0055679Y0035402D01*
X0056951Y0035402D01*
X0058126Y0035888D01*
X0059025Y0036788D01*
X0059512Y0037963D01*
X0059512Y0039234D01*
X0059025Y0040409D01*
X0058126Y0041309D01*
X0056951Y0041795D01*
X0055679Y0041795D01*
X0055656Y0041786D01*
X0044323Y0053118D01*
X0043276Y0054165D01*
X0037026Y0054165D01*
X0036550Y0055313D01*
X0035173Y0056691D01*
X0033373Y0057436D01*
X0031425Y0057436D01*
X0029625Y0056691D01*
X0030037Y0056861D02*
X0009420Y0056861D01*
X0009280Y0057253D02*
X0030984Y0057253D01*
X0031417Y0057646D02*
X0009141Y0057646D01*
X0009002Y0058038D02*
X0030471Y0058038D01*
X0029625Y0058388D02*
X0031425Y0057643D01*
X0033373Y0057643D01*
X0035173Y0058388D01*
X0036550Y0059766D01*
X0036827Y0060433D01*
X0039827Y0060433D01*
X0053128Y0047132D01*
X0053118Y0047108D01*
X0053118Y0045837D01*
X0053605Y0044662D01*
X0054504Y0043762D01*
X0055679Y0043276D01*
X0056951Y0043276D01*
X0058126Y0043762D01*
X0059025Y0044662D01*
X0059512Y0045837D01*
X0059512Y0047108D01*
X0059025Y0048283D01*
X0058126Y0049183D01*
X0056951Y0049669D01*
X0055679Y0049669D01*
X0055656Y0049660D01*
X0042354Y0062961D01*
X0041307Y0064008D01*
X0037091Y0064008D01*
X0036550Y0065313D01*
X0035173Y0066691D01*
X0033373Y0067436D01*
X0031425Y0067436D01*
X0029625Y0066691D01*
X0028248Y0065313D01*
X0027502Y0063513D01*
X0027502Y0061565D01*
X0028248Y0059766D01*
X0029625Y0058388D01*
X0029583Y0058430D02*
X0008862Y0058430D01*
X0008723Y0058822D02*
X0029191Y0058822D01*
X0028799Y0059214D02*
X0008584Y0059214D01*
X0008444Y0059607D02*
X0028406Y0059607D01*
X0028151Y0059999D02*
X0008323Y0059999D01*
X0008348Y0059879D02*
X0006283Y0069813D01*
X0005591Y0079937D01*
X0006283Y0090061D01*
X0008348Y0099995D01*
X0011746Y0109557D01*
X0016414Y0118566D01*
X0022266Y0126856D01*
X0029192Y0134272D01*
X0037063Y0140676D01*
X0045733Y0145948D01*
X0055040Y0149991D01*
X0055058Y0149996D01*
X0053742Y0148679D01*
X0050051Y0143156D01*
X0047509Y0137018D01*
X0046213Y0130503D01*
X0046213Y0123860D01*
X0047509Y0117344D01*
X0050051Y0111207D01*
X0053742Y0105683D01*
X0058439Y0100986D01*
X0063962Y0097295D01*
X0070100Y0094753D01*
X0074240Y0093929D01*
X0043439Y0093929D01*
X0031953Y0105415D01*
X0031953Y0106163D01*
X0031466Y0107338D01*
X0030567Y0108238D01*
X0029392Y0108724D01*
X0028120Y0108724D01*
X0026945Y0108238D01*
X0026046Y0107338D01*
X0025559Y0106163D01*
X0025559Y0104892D01*
X0026046Y0103717D01*
X0026945Y0102817D01*
X0028120Y0102331D01*
X0028868Y0102331D01*
X0041632Y0089567D01*
X0130906Y0089567D01*
X0130906Y0076213D01*
X0130429Y0076213D01*
X0129950Y0076691D01*
X0128151Y0077436D01*
X0126203Y0077436D01*
X0124403Y0076691D01*
X0123025Y0075313D01*
X0122280Y0073513D01*
X0122280Y0071565D01*
X0122666Y0070633D01*
X0106756Y0054722D01*
X0106756Y0054982D01*
X0106269Y0056157D01*
X0105370Y0057057D01*
X0104195Y0057543D01*
X0102923Y0057543D01*
X0102900Y0057534D01*
X0077787Y0082646D01*
X0076740Y0083693D01*
X0037221Y0083693D01*
X0036550Y0085313D01*
X0035173Y0086691D01*
X0033373Y0087436D01*
X0031425Y0087436D01*
X0029625Y0086691D01*
X0028248Y0085313D01*
X0027502Y0083513D01*
X0027502Y0081565D01*
X0028248Y0079766D01*
X0029625Y0078388D01*
X0031425Y0077643D01*
X0033373Y0077643D01*
X0035173Y0078388D01*
X0036550Y0079766D01*
X0036696Y0080118D01*
X0075260Y0080118D01*
X0100372Y0055006D01*
X0100362Y0054982D01*
X0100362Y0053711D01*
X0100826Y0052591D01*
X0090845Y0052591D01*
X0089567Y0051313D01*
X0056427Y0018173D01*
X0055679Y0018173D01*
X0054504Y0017687D01*
X0053605Y0016787D01*
X0053118Y0015612D01*
X0053118Y0014340D01*
X0053605Y0013166D01*
X0054504Y0012266D01*
X0055679Y0011780D01*
X0056951Y0011780D01*
X0058126Y0012266D01*
X0059025Y0013166D01*
X0059512Y0014340D01*
X0059512Y0015089D01*
X0092651Y0048228D01*
X0097441Y0048228D01*
X0097441Y0033064D01*
X0096912Y0032535D01*
X0096425Y0031360D01*
X0096425Y0030089D01*
X0096912Y0028914D01*
X0097811Y0028014D01*
X0098239Y0027837D01*
X0097496Y0027529D01*
X0096597Y0026630D01*
X0096110Y0025455D01*
X0096110Y0024183D01*
X0096597Y0023008D01*
X0097496Y0022109D01*
X0098671Y0021622D01*
X0099943Y0021622D01*
X0101118Y0022109D01*
X0102017Y0023008D01*
X0102027Y0023031D01*
X0127523Y0023031D01*
X0122811Y0019198D01*
X0114141Y0013926D01*
X0104834Y0009883D01*
X0095063Y0007146D01*
X0085011Y0005764D01*
X0074863Y0005764D01*
X0064811Y0007146D01*
X0055040Y0009883D01*
X0045733Y0013926D01*
X0037063Y0019198D01*
X0029192Y0025602D01*
X0022266Y0033018D01*
X0016414Y0041308D01*
X0011746Y0050317D01*
X0008348Y0059879D01*
X0008241Y0060391D02*
X0027988Y0060391D01*
X0027826Y0060783D02*
X0008159Y0060783D01*
X0008078Y0061176D02*
X0027664Y0061176D01*
X0027502Y0061568D02*
X0007996Y0061568D01*
X0007915Y0061960D02*
X0027502Y0061960D01*
X0027502Y0062352D02*
X0007833Y0062352D01*
X0007752Y0062744D02*
X0027502Y0062744D01*
X0027502Y0063137D02*
X0007670Y0063137D01*
X0007589Y0063529D02*
X0027508Y0063529D01*
X0027671Y0063921D02*
X0007507Y0063921D01*
X0007426Y0064313D02*
X0027833Y0064313D01*
X0027996Y0064705D02*
X0007344Y0064705D01*
X0007263Y0065098D02*
X0028158Y0065098D01*
X0028424Y0065490D02*
X0007181Y0065490D01*
X0007100Y0065882D02*
X0028816Y0065882D01*
X0029209Y0066274D02*
X0007018Y0066274D01*
X0006937Y0066666D02*
X0029601Y0066666D01*
X0030514Y0067059D02*
X0006855Y0067059D01*
X0006774Y0067451D02*
X0087927Y0067451D01*
X0088319Y0067059D02*
X0034284Y0067059D01*
X0033857Y0067843D02*
X0087535Y0067843D01*
X0087142Y0068235D02*
X0034804Y0068235D01*
X0035173Y0068388D02*
X0036550Y0069766D01*
X0037296Y0071565D01*
X0037296Y0073513D01*
X0036550Y0075313D01*
X0035173Y0076691D01*
X0033373Y0077436D01*
X0031425Y0077436D01*
X0029625Y0076691D01*
X0028248Y0075313D01*
X0027502Y0073513D01*
X0027502Y0071565D01*
X0028248Y0069766D01*
X0029625Y0068388D01*
X0031425Y0067643D01*
X0033373Y0067643D01*
X0035173Y0068388D01*
X0035412Y0068628D02*
X0086750Y0068628D01*
X0086358Y0069020D02*
X0035805Y0069020D01*
X0036197Y0069412D02*
X0085966Y0069412D01*
X0085574Y0069804D02*
X0036566Y0069804D01*
X0036729Y0070196D02*
X0085181Y0070196D01*
X0084789Y0070589D02*
X0036891Y0070589D01*
X0037054Y0070981D02*
X0084397Y0070981D01*
X0084005Y0071373D02*
X0037216Y0071373D01*
X0037296Y0071765D02*
X0083612Y0071765D01*
X0083220Y0072157D02*
X0037296Y0072157D01*
X0037296Y0072550D02*
X0082828Y0072550D01*
X0082436Y0072942D02*
X0037296Y0072942D01*
X0037296Y0073334D02*
X0082044Y0073334D01*
X0081651Y0073726D02*
X0037208Y0073726D01*
X0037045Y0074119D02*
X0081259Y0074119D01*
X0080867Y0074511D02*
X0036883Y0074511D01*
X0036720Y0074903D02*
X0080475Y0074903D01*
X0080083Y0075295D02*
X0036558Y0075295D01*
X0036176Y0075687D02*
X0079690Y0075687D01*
X0079298Y0076080D02*
X0035784Y0076080D01*
X0035392Y0076472D02*
X0078906Y0076472D01*
X0078514Y0076864D02*
X0034754Y0076864D01*
X0033808Y0077256D02*
X0078122Y0077256D01*
X0077729Y0077648D02*
X0033387Y0077648D01*
X0034334Y0078041D02*
X0077337Y0078041D01*
X0076945Y0078433D02*
X0035218Y0078433D01*
X0035610Y0078825D02*
X0076553Y0078825D01*
X0076160Y0079217D02*
X0036002Y0079217D01*
X0036394Y0079609D02*
X0075768Y0079609D01*
X0075376Y0080002D02*
X0036648Y0080002D01*
X0037126Y0083924D02*
X0130906Y0083924D01*
X0130906Y0084316D02*
X0036963Y0084316D01*
X0036801Y0084708D02*
X0130906Y0084708D01*
X0130906Y0085100D02*
X0036638Y0085100D01*
X0036371Y0085493D02*
X0130906Y0085493D01*
X0130906Y0085885D02*
X0035979Y0085885D01*
X0035586Y0086277D02*
X0130906Y0086277D01*
X0130906Y0086669D02*
X0035194Y0086669D01*
X0034278Y0087062D02*
X0130906Y0087062D01*
X0130906Y0087454D02*
X0006105Y0087454D01*
X0006132Y0087846D02*
X0130906Y0087846D01*
X0130906Y0088238D02*
X0006158Y0088238D01*
X0006185Y0088630D02*
X0130906Y0088630D01*
X0130906Y0089023D02*
X0006212Y0089023D01*
X0006239Y0089415D02*
X0130906Y0089415D01*
X0135268Y0089415D02*
X0141142Y0089415D01*
X0141142Y0089807D02*
X0135268Y0089807D01*
X0135268Y0090199D02*
X0141142Y0090199D01*
X0141142Y0090591D02*
X0135268Y0090591D01*
X0135268Y0090984D02*
X0141142Y0090984D01*
X0141142Y0091376D02*
X0135268Y0091376D01*
X0135268Y0091768D02*
X0141142Y0091768D01*
X0141142Y0092160D02*
X0135268Y0092160D01*
X0135268Y0092552D02*
X0141142Y0092552D01*
X0141142Y0092945D02*
X0135268Y0092945D01*
X0135268Y0093337D02*
X0141142Y0093337D01*
X0141142Y0093729D02*
X0135268Y0093729D01*
X0135268Y0094121D02*
X0141142Y0094121D01*
X0141142Y0094514D02*
X0135268Y0094514D01*
X0135268Y0094906D02*
X0141142Y0094906D01*
X0141142Y0095298D02*
X0135268Y0095298D01*
X0135268Y0095690D02*
X0141142Y0095690D01*
X0141142Y0096082D02*
X0135268Y0096082D01*
X0135268Y0096475D02*
X0141142Y0096475D01*
X0141142Y0096867D02*
X0135268Y0096867D01*
X0135268Y0097259D02*
X0141142Y0097259D01*
X0141142Y0097651D02*
X0135268Y0097651D01*
X0135268Y0098043D02*
X0141142Y0098043D01*
X0141142Y0098436D02*
X0135268Y0098436D01*
X0135268Y0098828D02*
X0141142Y0098828D01*
X0141142Y0099220D02*
X0135268Y0099220D01*
X0135268Y0099612D02*
X0141142Y0099612D01*
X0141142Y0100005D02*
X0135268Y0100005D01*
X0135268Y0100397D02*
X0141142Y0100397D01*
X0141142Y0100789D02*
X0135268Y0100789D01*
X0135268Y0101181D02*
X0141142Y0101181D01*
X0141142Y0101573D02*
X0135268Y0101573D01*
X0135268Y0101966D02*
X0141142Y0101966D01*
X0141142Y0102358D02*
X0135268Y0102358D01*
X0135268Y0102750D02*
X0141142Y0102750D01*
X0141142Y0103142D02*
X0135268Y0103142D01*
X0135268Y0103534D02*
X0141142Y0103534D01*
X0141142Y0103927D02*
X0135268Y0103927D01*
X0135268Y0104319D02*
X0141142Y0104319D01*
X0141142Y0104711D02*
X0135268Y0104711D01*
X0135268Y0105103D02*
X0141142Y0105103D01*
X0141142Y0105495D02*
X0135268Y0105495D01*
X0135268Y0105888D02*
X0141142Y0105888D01*
X0141142Y0106280D02*
X0135268Y0106280D01*
X0135268Y0106672D02*
X0141142Y0106672D01*
X0141142Y0107064D02*
X0135268Y0107064D01*
X0135268Y0107457D02*
X0141142Y0107457D01*
X0141142Y0107849D02*
X0135268Y0107849D01*
X0135268Y0108241D02*
X0141142Y0108241D01*
X0141142Y0108633D02*
X0135268Y0108633D01*
X0135268Y0109025D02*
X0141142Y0109025D01*
X0141142Y0109418D02*
X0135592Y0109418D01*
X0135797Y0109622D02*
X0136283Y0110797D01*
X0136283Y0112069D01*
X0135797Y0113244D01*
X0134897Y0114143D01*
X0133723Y0114630D01*
X0132451Y0114630D01*
X0131276Y0114143D01*
X0130376Y0113244D01*
X0129890Y0112069D01*
X0129890Y0110797D01*
X0130376Y0109622D01*
X0130906Y0109093D01*
X0130906Y0093929D01*
X0085634Y0093929D01*
X0089774Y0094753D01*
X0095912Y0097295D01*
X0101435Y0100986D01*
X0106132Y0105683D01*
X0109823Y0111207D01*
X0112365Y0117344D01*
X0113661Y0123860D01*
X0113661Y0130503D01*
X0112365Y0137018D01*
X0109823Y0143156D01*
X0106132Y0148679D01*
X0104816Y0149996D01*
X0104834Y0149991D01*
X0114141Y0145948D01*
X0122811Y0140676D01*
X0130682Y0134272D01*
X0137608Y0126856D01*
X0143460Y0118566D01*
X0148128Y0109557D01*
X0151527Y0099995D01*
X0153591Y0090061D01*
X0154283Y0079937D01*
X0153591Y0069813D01*
X0151527Y0059879D01*
X0148128Y0050317D01*
X0144717Y0043733D01*
X0144717Y0114142D01*
X0143670Y0115189D01*
X0136274Y0122585D01*
X0136283Y0122608D01*
X0136283Y0123880D01*
X0135797Y0125055D01*
X0134897Y0125954D01*
X0133723Y0126441D01*
X0132451Y0126441D01*
X0131276Y0125954D01*
X0130376Y0125055D01*
X0129890Y0123880D01*
X0129890Y0122608D01*
X0130376Y0121433D01*
X0131276Y0120534D01*
X0132451Y0120047D01*
X0133723Y0120047D01*
X0133746Y0120057D01*
X0141142Y0112661D01*
X0141142Y0043149D01*
X0131920Y0031293D01*
X0131953Y0031393D01*
X0132073Y0032154D01*
X0132073Y0032343D01*
X0127374Y0032343D01*
X0127374Y0032736D01*
X0132073Y0032736D01*
X0132073Y0032925D01*
X0131953Y0033686D01*
X0131715Y0034419D01*
X0131365Y0035106D01*
X0130912Y0035729D01*
X0130367Y0036274D01*
X0129743Y0036728D01*
X0129056Y0037077D01*
X0128323Y0037316D01*
X0127562Y0037436D01*
X0127373Y0037436D01*
X0127373Y0032736D01*
X0126980Y0032736D01*
X0126980Y0032343D01*
X0122280Y0032343D01*
X0122280Y0032154D01*
X0122400Y0031393D01*
X0122639Y0030660D01*
X0122988Y0029973D01*
X0123442Y0029349D01*
X0123987Y0028804D01*
X0124610Y0028351D01*
X0125297Y0028001D01*
X0126030Y0027763D01*
X0126791Y0027643D01*
X0126980Y0027643D01*
X0126980Y0032342D01*
X0127373Y0032342D01*
X0127373Y0027643D01*
X0127562Y0027643D01*
X0128323Y0027763D01*
X0129056Y0028001D01*
X0129560Y0028258D01*
X0128275Y0026606D01*
X0102027Y0026606D01*
X0102017Y0026630D01*
X0101118Y0027529D01*
X0100690Y0027706D01*
X0101433Y0028014D01*
X0102332Y0028914D01*
X0102819Y0030089D01*
X0102819Y0031360D01*
X0102332Y0032535D01*
X0101803Y0033064D01*
X0101803Y0048228D01*
X0106431Y0048228D01*
X0122678Y0064476D01*
X0122280Y0063513D01*
X0122280Y0061565D01*
X0123025Y0059766D01*
X0124403Y0058388D01*
X0126203Y0057643D01*
X0128151Y0057643D01*
X0129950Y0058388D01*
X0131328Y0059766D01*
X0132073Y0061565D01*
X0132073Y0063513D01*
X0131328Y0065313D01*
X0129950Y0066691D01*
X0128151Y0067436D01*
X0126203Y0067436D01*
X0125240Y0067038D01*
X0125950Y0067747D01*
X0126203Y0067643D01*
X0128151Y0067643D01*
X0129950Y0068388D01*
X0131328Y0069766D01*
X0132073Y0071565D01*
X0132073Y0071850D01*
X0133990Y0071850D01*
X0135268Y0073128D01*
X0135268Y0109093D01*
X0135797Y0109622D01*
X0135874Y0109810D02*
X0141142Y0109810D01*
X0141142Y0110202D02*
X0136037Y0110202D01*
X0136199Y0110594D02*
X0141142Y0110594D01*
X0141142Y0110986D02*
X0136283Y0110986D01*
X0136283Y0111379D02*
X0141142Y0111379D01*
X0141142Y0111771D02*
X0136283Y0111771D01*
X0136244Y0112163D02*
X0141142Y0112163D01*
X0141142Y0112555D02*
X0136082Y0112555D01*
X0135920Y0112948D02*
X0140855Y0112948D01*
X0140463Y0113340D02*
X0135701Y0113340D01*
X0135309Y0113732D02*
X0140071Y0113732D01*
X0139679Y0114124D02*
X0134917Y0114124D01*
X0133997Y0114516D02*
X0139287Y0114516D01*
X0138894Y0114909D02*
X0111357Y0114909D01*
X0111519Y0115301D02*
X0138502Y0115301D01*
X0138110Y0115693D02*
X0111682Y0115693D01*
X0111844Y0116085D02*
X0137718Y0116085D01*
X0137325Y0116477D02*
X0112006Y0116477D01*
X0112169Y0116870D02*
X0136933Y0116870D01*
X0136541Y0117262D02*
X0112331Y0117262D01*
X0112427Y0117654D02*
X0136149Y0117654D01*
X0135757Y0118046D02*
X0112505Y0118046D01*
X0112583Y0118438D02*
X0135364Y0118438D01*
X0134972Y0118831D02*
X0112661Y0118831D01*
X0112739Y0119223D02*
X0134580Y0119223D01*
X0134188Y0119615D02*
X0112817Y0119615D01*
X0112895Y0120007D02*
X0133796Y0120007D01*
X0131600Y0120400D02*
X0112973Y0120400D01*
X0113051Y0120792D02*
X0131018Y0120792D01*
X0130626Y0121184D02*
X0113129Y0121184D01*
X0113207Y0121576D02*
X0130317Y0121576D01*
X0130155Y0121968D02*
X0113285Y0121968D01*
X0113363Y0122361D02*
X0129992Y0122361D01*
X0129890Y0122753D02*
X0113441Y0122753D01*
X0113519Y0123145D02*
X0129890Y0123145D01*
X0129890Y0123537D02*
X0113597Y0123537D01*
X0113661Y0123929D02*
X0129910Y0123929D01*
X0130073Y0124322D02*
X0113661Y0124322D01*
X0113661Y0124714D02*
X0130235Y0124714D01*
X0130428Y0125106D02*
X0113661Y0125106D01*
X0113661Y0125498D02*
X0130820Y0125498D01*
X0131212Y0125891D02*
X0113661Y0125891D01*
X0113661Y0126283D02*
X0132069Y0126283D01*
X0134104Y0126283D02*
X0138013Y0126283D01*
X0137736Y0126675D02*
X0113661Y0126675D01*
X0113661Y0127067D02*
X0137411Y0127067D01*
X0137045Y0127459D02*
X0113661Y0127459D01*
X0113661Y0127852D02*
X0136679Y0127852D01*
X0136312Y0128244D02*
X0113661Y0128244D01*
X0113661Y0128636D02*
X0135946Y0128636D01*
X0135580Y0129028D02*
X0113661Y0129028D01*
X0113661Y0129420D02*
X0135214Y0129420D01*
X0134847Y0129813D02*
X0113661Y0129813D01*
X0113661Y0130205D02*
X0134481Y0130205D01*
X0134115Y0130597D02*
X0113643Y0130597D01*
X0113565Y0130989D02*
X0133748Y0130989D01*
X0133382Y0131381D02*
X0113487Y0131381D01*
X0113409Y0131774D02*
X0133016Y0131774D01*
X0132649Y0132166D02*
X0113331Y0132166D01*
X0113253Y0132558D02*
X0132283Y0132558D01*
X0131917Y0132950D02*
X0113175Y0132950D01*
X0113097Y0133343D02*
X0131551Y0133343D01*
X0131184Y0133735D02*
X0113019Y0133735D01*
X0112940Y0134127D02*
X0130818Y0134127D01*
X0130379Y0134519D02*
X0112862Y0134519D01*
X0112784Y0134911D02*
X0129897Y0134911D01*
X0129414Y0135304D02*
X0112706Y0135304D01*
X0112628Y0135696D02*
X0128932Y0135696D01*
X0128450Y0136088D02*
X0112550Y0136088D01*
X0112472Y0136480D02*
X0127968Y0136480D01*
X0127486Y0136872D02*
X0112394Y0136872D01*
X0112263Y0137265D02*
X0127004Y0137265D01*
X0126522Y0137657D02*
X0112101Y0137657D01*
X0111938Y0138049D02*
X0126040Y0138049D01*
X0125558Y0138441D02*
X0111776Y0138441D01*
X0111613Y0138834D02*
X0125076Y0138834D01*
X0124594Y0139226D02*
X0111451Y0139226D01*
X0111289Y0139618D02*
X0124111Y0139618D01*
X0123629Y0140010D02*
X0111126Y0140010D01*
X0110964Y0140402D02*
X0123147Y0140402D01*
X0122616Y0140795D02*
X0110801Y0140795D01*
X0110639Y0141187D02*
X0121971Y0141187D01*
X0121326Y0141579D02*
X0110476Y0141579D01*
X0110314Y0141971D02*
X0120681Y0141971D01*
X0120036Y0142363D02*
X0110151Y0142363D01*
X0109989Y0142756D02*
X0119391Y0142756D01*
X0118746Y0143148D02*
X0109826Y0143148D01*
X0109566Y0143540D02*
X0118101Y0143540D01*
X0117456Y0143932D02*
X0109304Y0143932D01*
X0109042Y0144324D02*
X0116811Y0144324D01*
X0116166Y0144717D02*
X0108780Y0144717D01*
X0108518Y0145109D02*
X0115521Y0145109D01*
X0114876Y0145501D02*
X0108256Y0145501D01*
X0107994Y0145893D02*
X0114231Y0145893D01*
X0113364Y0146286D02*
X0107732Y0146286D01*
X0107470Y0146678D02*
X0112461Y0146678D01*
X0111558Y0147070D02*
X0107208Y0147070D01*
X0106946Y0147462D02*
X0110655Y0147462D01*
X0109753Y0147854D02*
X0106684Y0147854D01*
X0106421Y0148247D02*
X0108850Y0148247D01*
X0107947Y0148639D02*
X0106159Y0148639D01*
X0105781Y0149031D02*
X0107044Y0149031D01*
X0106141Y0149423D02*
X0105388Y0149423D01*
X0105238Y0149815D02*
X0104996Y0149815D01*
X0111893Y0156483D02*
X0158255Y0156483D01*
X0158150Y0156709D02*
X0158440Y0156087D01*
X0158617Y0155424D01*
X0158677Y0154740D01*
X0158677Y0106055D01*
X0156188Y0113058D01*
X0150968Y0123132D01*
X0144425Y0132402D01*
X0136680Y0140694D01*
X0127879Y0147855D01*
X0118184Y0153750D01*
X0107777Y0158271D01*
X0106326Y0158677D01*
X0154740Y0158677D01*
X0155424Y0158617D01*
X0156087Y0158440D01*
X0156709Y0158150D01*
X0157271Y0157756D01*
X0157756Y0157271D01*
X0158150Y0156709D01*
X0158033Y0156875D02*
X0110990Y0156875D01*
X0110087Y0157267D02*
X0157758Y0157267D01*
X0157367Y0157660D02*
X0109184Y0157660D01*
X0108281Y0158052D02*
X0156848Y0158052D01*
X0156070Y0158444D02*
X0107158Y0158444D01*
X0107777Y0158271D02*
X0107777Y0158271D01*
X0112796Y0156091D02*
X0158438Y0156091D01*
X0158544Y0155699D02*
X0113698Y0155699D01*
X0114601Y0155306D02*
X0158628Y0155306D01*
X0158662Y0154914D02*
X0115504Y0154914D01*
X0116407Y0154522D02*
X0158677Y0154522D01*
X0158677Y0154130D02*
X0117310Y0154130D01*
X0118205Y0153738D02*
X0158677Y0153738D01*
X0158677Y0153345D02*
X0118850Y0153345D01*
X0119495Y0152953D02*
X0158677Y0152953D01*
X0158677Y0152561D02*
X0120140Y0152561D01*
X0120785Y0152169D02*
X0158677Y0152169D01*
X0158677Y0151777D02*
X0121430Y0151777D01*
X0122075Y0151384D02*
X0158677Y0151384D01*
X0158677Y0150992D02*
X0122720Y0150992D01*
X0123365Y0150600D02*
X0158677Y0150600D01*
X0158677Y0150208D02*
X0124010Y0150208D01*
X0124655Y0149815D02*
X0158677Y0149815D01*
X0158677Y0149423D02*
X0125300Y0149423D01*
X0125945Y0149031D02*
X0158677Y0149031D01*
X0158677Y0148639D02*
X0126589Y0148639D01*
X0127234Y0148247D02*
X0158677Y0148247D01*
X0158677Y0147854D02*
X0127879Y0147854D01*
X0128361Y0147462D02*
X0158677Y0147462D01*
X0158677Y0147070D02*
X0128843Y0147070D01*
X0129326Y0146678D02*
X0158677Y0146678D01*
X0158677Y0146286D02*
X0129808Y0146286D01*
X0130290Y0145893D02*
X0158677Y0145893D01*
X0158677Y0145501D02*
X0130772Y0145501D01*
X0131254Y0145109D02*
X0158677Y0145109D01*
X0158677Y0144717D02*
X0131736Y0144717D01*
X0132218Y0144324D02*
X0158677Y0144324D01*
X0158677Y0143932D02*
X0132700Y0143932D01*
X0133182Y0143540D02*
X0158677Y0143540D01*
X0158677Y0143148D02*
X0133664Y0143148D01*
X0134146Y0142756D02*
X0158677Y0142756D01*
X0158677Y0142363D02*
X0134629Y0142363D01*
X0135111Y0141971D02*
X0158677Y0141971D01*
X0158677Y0141579D02*
X0135593Y0141579D01*
X0136075Y0141187D02*
X0158677Y0141187D01*
X0158677Y0140795D02*
X0136557Y0140795D01*
X0136680Y0140694D02*
X0136680Y0140694D01*
X0136953Y0140402D02*
X0158677Y0140402D01*
X0158677Y0140010D02*
X0137319Y0140010D01*
X0137685Y0139618D02*
X0158677Y0139618D01*
X0158677Y0139226D02*
X0138052Y0139226D01*
X0138418Y0138834D02*
X0158677Y0138834D01*
X0158677Y0138441D02*
X0138784Y0138441D01*
X0139151Y0138049D02*
X0158677Y0138049D01*
X0158677Y0137657D02*
X0139517Y0137657D01*
X0139883Y0137265D02*
X0158677Y0137265D01*
X0158677Y0136872D02*
X0140250Y0136872D01*
X0140616Y0136480D02*
X0158677Y0136480D01*
X0158677Y0136088D02*
X0140982Y0136088D01*
X0141348Y0135696D02*
X0158677Y0135696D01*
X0158677Y0135304D02*
X0141715Y0135304D01*
X0142081Y0134911D02*
X0158677Y0134911D01*
X0158677Y0134519D02*
X0142447Y0134519D01*
X0142814Y0134127D02*
X0158677Y0134127D01*
X0158677Y0133735D02*
X0143180Y0133735D01*
X0143546Y0133343D02*
X0158677Y0133343D01*
X0158677Y0132950D02*
X0143913Y0132950D01*
X0144279Y0132558D02*
X0158677Y0132558D01*
X0158677Y0132166D02*
X0144591Y0132166D01*
X0144425Y0132402D02*
X0144425Y0132402D01*
X0144868Y0131774D02*
X0158677Y0131774D01*
X0158677Y0131381D02*
X0145145Y0131381D01*
X0145422Y0130989D02*
X0158677Y0130989D01*
X0158677Y0130597D02*
X0145699Y0130597D01*
X0145976Y0130205D02*
X0158677Y0130205D01*
X0158677Y0129813D02*
X0146252Y0129813D01*
X0146529Y0129420D02*
X0158677Y0129420D01*
X0158677Y0129028D02*
X0146806Y0129028D01*
X0147083Y0128636D02*
X0158677Y0128636D01*
X0158677Y0128244D02*
X0147360Y0128244D01*
X0147637Y0127852D02*
X0158677Y0127852D01*
X0158677Y0127459D02*
X0147914Y0127459D01*
X0148190Y0127067D02*
X0158677Y0127067D01*
X0158677Y0126675D02*
X0148467Y0126675D01*
X0148744Y0126283D02*
X0158677Y0126283D01*
X0158677Y0125891D02*
X0149021Y0125891D01*
X0149298Y0125498D02*
X0158677Y0125498D01*
X0158677Y0125106D02*
X0149575Y0125106D01*
X0149852Y0124714D02*
X0158677Y0124714D01*
X0158677Y0124322D02*
X0150128Y0124322D01*
X0150405Y0123929D02*
X0158677Y0123929D01*
X0158677Y0123537D02*
X0150682Y0123537D01*
X0150959Y0123145D02*
X0158677Y0123145D01*
X0158677Y0122753D02*
X0151165Y0122753D01*
X0151368Y0122361D02*
X0158677Y0122361D01*
X0158677Y0121968D02*
X0151571Y0121968D01*
X0151774Y0121576D02*
X0158677Y0121576D01*
X0158677Y0121184D02*
X0151978Y0121184D01*
X0152181Y0120792D02*
X0158677Y0120792D01*
X0158677Y0120400D02*
X0152384Y0120400D01*
X0152587Y0120007D02*
X0158677Y0120007D01*
X0158677Y0119615D02*
X0152790Y0119615D01*
X0152994Y0119223D02*
X0158677Y0119223D01*
X0158677Y0118831D02*
X0153197Y0118831D01*
X0153400Y0118438D02*
X0158677Y0118438D01*
X0158677Y0118046D02*
X0153603Y0118046D01*
X0153807Y0117654D02*
X0158677Y0117654D01*
X0158677Y0117262D02*
X0154010Y0117262D01*
X0154213Y0116870D02*
X0158677Y0116870D01*
X0158677Y0116477D02*
X0154416Y0116477D01*
X0154620Y0116085D02*
X0158677Y0116085D01*
X0158677Y0115693D02*
X0154823Y0115693D01*
X0155026Y0115301D02*
X0158677Y0115301D01*
X0158677Y0114909D02*
X0155229Y0114909D01*
X0155432Y0114516D02*
X0158677Y0114516D01*
X0158677Y0114124D02*
X0155636Y0114124D01*
X0155839Y0113732D02*
X0158677Y0113732D01*
X0158677Y0113340D02*
X0156042Y0113340D01*
X0156227Y0112948D02*
X0158677Y0112948D01*
X0158677Y0112555D02*
X0156367Y0112555D01*
X0156506Y0112163D02*
X0158677Y0112163D01*
X0158677Y0111771D02*
X0156646Y0111771D01*
X0156785Y0111379D02*
X0158677Y0111379D01*
X0158677Y0110986D02*
X0156924Y0110986D01*
X0157064Y0110594D02*
X0158677Y0110594D01*
X0158677Y0110202D02*
X0157203Y0110202D01*
X0157343Y0109810D02*
X0158677Y0109810D01*
X0158677Y0109418D02*
X0157482Y0109418D01*
X0157621Y0109025D02*
X0158677Y0109025D01*
X0158677Y0108633D02*
X0157761Y0108633D01*
X0157900Y0108241D02*
X0158677Y0108241D01*
X0158677Y0107849D02*
X0158040Y0107849D01*
X0158179Y0107457D02*
X0158677Y0107457D01*
X0158677Y0107064D02*
X0158318Y0107064D01*
X0158458Y0106672D02*
X0158677Y0106672D01*
X0158677Y0106280D02*
X0158597Y0106280D01*
X0150408Y0103142D02*
X0144717Y0103142D01*
X0144717Y0102750D02*
X0150548Y0102750D01*
X0150687Y0102358D02*
X0144717Y0102358D01*
X0144717Y0101966D02*
X0150826Y0101966D01*
X0150966Y0101573D02*
X0144717Y0101573D01*
X0144717Y0101181D02*
X0151105Y0101181D01*
X0151244Y0100789D02*
X0144717Y0100789D01*
X0144717Y0100397D02*
X0151384Y0100397D01*
X0151523Y0100005D02*
X0144717Y0100005D01*
X0144717Y0099612D02*
X0151606Y0099612D01*
X0151688Y0099220D02*
X0144717Y0099220D01*
X0144717Y0098828D02*
X0151769Y0098828D01*
X0151851Y0098436D02*
X0144717Y0098436D01*
X0144717Y0098043D02*
X0151932Y0098043D01*
X0152014Y0097651D02*
X0144717Y0097651D01*
X0144717Y0097259D02*
X0152095Y0097259D01*
X0152177Y0096867D02*
X0144717Y0096867D01*
X0144717Y0096475D02*
X0152258Y0096475D01*
X0152340Y0096082D02*
X0144717Y0096082D01*
X0144717Y0095690D02*
X0152421Y0095690D01*
X0152503Y0095298D02*
X0144717Y0095298D01*
X0144717Y0094906D02*
X0152584Y0094906D01*
X0152666Y0094514D02*
X0144717Y0094514D01*
X0144717Y0094121D02*
X0152747Y0094121D01*
X0152829Y0093729D02*
X0144717Y0093729D01*
X0144717Y0093337D02*
X0152910Y0093337D01*
X0152992Y0092945D02*
X0144717Y0092945D01*
X0144717Y0092552D02*
X0153073Y0092552D01*
X0153155Y0092160D02*
X0144717Y0092160D01*
X0144717Y0091768D02*
X0153236Y0091768D01*
X0153318Y0091376D02*
X0144717Y0091376D01*
X0144717Y0090984D02*
X0153399Y0090984D01*
X0153481Y0090591D02*
X0144717Y0090591D01*
X0144717Y0090199D02*
X0153562Y0090199D01*
X0153608Y0089807D02*
X0144717Y0089807D01*
X0144717Y0089415D02*
X0153635Y0089415D01*
X0153662Y0089023D02*
X0144717Y0089023D01*
X0144717Y0088630D02*
X0153689Y0088630D01*
X0153716Y0088238D02*
X0144717Y0088238D01*
X0144717Y0087846D02*
X0153742Y0087846D01*
X0153769Y0087454D02*
X0144717Y0087454D01*
X0144717Y0087062D02*
X0153796Y0087062D01*
X0153823Y0086669D02*
X0144717Y0086669D01*
X0144717Y0086277D02*
X0153850Y0086277D01*
X0153877Y0085885D02*
X0144717Y0085885D01*
X0144717Y0085493D02*
X0153903Y0085493D01*
X0153930Y0085100D02*
X0144717Y0085100D01*
X0144717Y0084708D02*
X0153957Y0084708D01*
X0153984Y0084316D02*
X0144717Y0084316D01*
X0144717Y0083924D02*
X0154011Y0083924D01*
X0154038Y0083532D02*
X0144717Y0083532D01*
X0144717Y0083139D02*
X0154064Y0083139D01*
X0154091Y0082747D02*
X0144717Y0082747D01*
X0144717Y0082355D02*
X0154118Y0082355D01*
X0154145Y0081963D02*
X0144717Y0081963D01*
X0144717Y0081571D02*
X0154172Y0081571D01*
X0154199Y0081178D02*
X0144717Y0081178D01*
X0144717Y0080786D02*
X0154225Y0080786D01*
X0154252Y0080394D02*
X0144717Y0080394D01*
X0144717Y0080002D02*
X0154279Y0080002D01*
X0154261Y0079609D02*
X0144717Y0079609D01*
X0144717Y0079217D02*
X0154234Y0079217D01*
X0154207Y0078825D02*
X0144717Y0078825D01*
X0144717Y0078433D02*
X0154181Y0078433D01*
X0154154Y0078041D02*
X0144717Y0078041D01*
X0144717Y0077648D02*
X0154127Y0077648D01*
X0154100Y0077256D02*
X0144717Y0077256D01*
X0144717Y0076864D02*
X0154073Y0076864D01*
X0154046Y0076472D02*
X0144717Y0076472D01*
X0144717Y0076080D02*
X0154020Y0076080D01*
X0153993Y0075687D02*
X0144717Y0075687D01*
X0144717Y0075295D02*
X0153966Y0075295D01*
X0153939Y0074903D02*
X0144717Y0074903D01*
X0144717Y0074511D02*
X0153912Y0074511D01*
X0153885Y0074119D02*
X0144717Y0074119D01*
X0144717Y0073726D02*
X0153859Y0073726D01*
X0153832Y0073334D02*
X0144717Y0073334D01*
X0144717Y0072942D02*
X0153805Y0072942D01*
X0153778Y0072550D02*
X0144717Y0072550D01*
X0144717Y0072157D02*
X0153751Y0072157D01*
X0153725Y0071765D02*
X0144717Y0071765D01*
X0144717Y0071373D02*
X0153698Y0071373D01*
X0153671Y0070981D02*
X0144717Y0070981D01*
X0144717Y0070589D02*
X0153644Y0070589D01*
X0153617Y0070196D02*
X0144717Y0070196D01*
X0144717Y0069804D02*
X0153589Y0069804D01*
X0153591Y0069813D02*
X0153591Y0069813D01*
X0153508Y0069412D02*
X0144717Y0069412D01*
X0144717Y0069020D02*
X0153426Y0069020D01*
X0153345Y0068628D02*
X0144717Y0068628D01*
X0144717Y0068235D02*
X0153263Y0068235D01*
X0153182Y0067843D02*
X0144717Y0067843D01*
X0144717Y0067451D02*
X0153100Y0067451D01*
X0153019Y0067059D02*
X0144717Y0067059D01*
X0144717Y0066666D02*
X0152937Y0066666D01*
X0152856Y0066274D02*
X0144717Y0066274D01*
X0144717Y0065882D02*
X0152774Y0065882D01*
X0152693Y0065490D02*
X0144717Y0065490D01*
X0144717Y0065098D02*
X0152611Y0065098D01*
X0152530Y0064705D02*
X0144717Y0064705D01*
X0144717Y0064313D02*
X0152448Y0064313D01*
X0152367Y0063921D02*
X0144717Y0063921D01*
X0144717Y0063529D02*
X0152285Y0063529D01*
X0152204Y0063137D02*
X0144717Y0063137D01*
X0144717Y0062744D02*
X0152122Y0062744D01*
X0152041Y0062352D02*
X0144717Y0062352D01*
X0144717Y0061960D02*
X0151959Y0061960D01*
X0151878Y0061568D02*
X0144717Y0061568D01*
X0144717Y0061176D02*
X0151796Y0061176D01*
X0151715Y0060783D02*
X0144717Y0060783D01*
X0144717Y0060391D02*
X0151633Y0060391D01*
X0151552Y0059999D02*
X0144717Y0059999D01*
X0144717Y0059607D02*
X0151430Y0059607D01*
X0151290Y0059214D02*
X0144717Y0059214D01*
X0144717Y0058822D02*
X0151151Y0058822D01*
X0151012Y0058430D02*
X0144717Y0058430D01*
X0144717Y0058038D02*
X0150872Y0058038D01*
X0150733Y0057646D02*
X0144717Y0057646D01*
X0144717Y0057253D02*
X0150594Y0057253D01*
X0150454Y0056861D02*
X0144717Y0056861D01*
X0144717Y0056469D02*
X0150315Y0056469D01*
X0150175Y0056077D02*
X0144717Y0056077D01*
X0144717Y0055685D02*
X0150036Y0055685D01*
X0149897Y0055292D02*
X0144717Y0055292D01*
X0144717Y0054900D02*
X0149757Y0054900D01*
X0149618Y0054508D02*
X0144717Y0054508D01*
X0144717Y0054116D02*
X0149478Y0054116D01*
X0149339Y0053723D02*
X0144717Y0053723D01*
X0144717Y0053331D02*
X0149200Y0053331D01*
X0149060Y0052939D02*
X0144717Y0052939D01*
X0144717Y0052547D02*
X0148921Y0052547D01*
X0148781Y0052155D02*
X0144717Y0052155D01*
X0144717Y0051762D02*
X0148642Y0051762D01*
X0148503Y0051370D02*
X0144717Y0051370D01*
X0144717Y0050978D02*
X0148363Y0050978D01*
X0148224Y0050586D02*
X0144717Y0050586D01*
X0144717Y0050194D02*
X0148064Y0050194D01*
X0147861Y0049801D02*
X0144717Y0049801D01*
X0144717Y0049409D02*
X0147658Y0049409D01*
X0147455Y0049017D02*
X0144717Y0049017D01*
X0144717Y0048625D02*
X0147251Y0048625D01*
X0147048Y0048233D02*
X0144717Y0048233D01*
X0144717Y0047840D02*
X0146845Y0047840D01*
X0146642Y0047448D02*
X0144717Y0047448D01*
X0144717Y0047056D02*
X0146439Y0047056D01*
X0146235Y0046664D02*
X0144717Y0046664D01*
X0144717Y0046271D02*
X0146032Y0046271D01*
X0145829Y0045879D02*
X0144717Y0045879D01*
X0144717Y0045487D02*
X0145626Y0045487D01*
X0145422Y0045095D02*
X0144717Y0045095D01*
X0144717Y0044703D02*
X0145219Y0044703D01*
X0145016Y0044310D02*
X0144717Y0044310D01*
X0144717Y0043918D02*
X0144813Y0043918D01*
X0141142Y0043918D02*
X0131906Y0043918D01*
X0132068Y0043526D02*
X0141142Y0043526D01*
X0141130Y0043134D02*
X0132073Y0043134D01*
X0132073Y0043513D02*
X0132073Y0041565D01*
X0139910Y0041565D01*
X0140215Y0041957D02*
X0132073Y0041957D01*
X0132073Y0041565D02*
X0131328Y0039766D01*
X0129950Y0038388D01*
X0128151Y0037643D01*
X0136859Y0037643D01*
X0136554Y0037251D02*
X0128523Y0037251D01*
X0128151Y0037643D02*
X0126203Y0037643D01*
X0124403Y0038388D01*
X0123025Y0039766D01*
X0122280Y0041565D01*
X0101803Y0041565D01*
X0101803Y0041957D02*
X0122280Y0041957D01*
X0122280Y0041565D02*
X0122280Y0043513D01*
X0123025Y0045313D01*
X0124403Y0046691D01*
X0126203Y0047436D01*
X0128151Y0047436D01*
X0129950Y0046691D01*
X0131328Y0045313D01*
X0132073Y0043513D01*
X0132073Y0042742D02*
X0140825Y0042742D01*
X0140520Y0042349D02*
X0132073Y0042349D01*
X0131911Y0041173D02*
X0139605Y0041173D01*
X0139300Y0040780D02*
X0131748Y0040780D01*
X0131586Y0040388D02*
X0138995Y0040388D01*
X0138690Y0039996D02*
X0131423Y0039996D01*
X0131166Y0039604D02*
X0138385Y0039604D01*
X0138080Y0039212D02*
X0130774Y0039212D01*
X0130382Y0038819D02*
X0137775Y0038819D01*
X0137469Y0038427D02*
X0129990Y0038427D01*
X0129098Y0038035D02*
X0137164Y0038035D01*
X0136249Y0036858D02*
X0129486Y0036858D01*
X0130103Y0036466D02*
X0135944Y0036466D01*
X0135639Y0036074D02*
X0130567Y0036074D01*
X0130946Y0035682D02*
X0135334Y0035682D01*
X0135029Y0035290D02*
X0131231Y0035290D01*
X0131471Y0034897D02*
X0134724Y0034897D01*
X0134419Y0034505D02*
X0131671Y0034505D01*
X0131814Y0034113D02*
X0134114Y0034113D01*
X0133809Y0033721D02*
X0131942Y0033721D01*
X0132010Y0033328D02*
X0133504Y0033328D01*
X0133199Y0032936D02*
X0132072Y0032936D01*
X0132073Y0032152D02*
X0132589Y0032152D01*
X0132894Y0032544D02*
X0127374Y0032544D01*
X0127373Y0032152D02*
X0126980Y0032152D01*
X0126980Y0032544D02*
X0102323Y0032544D01*
X0102491Y0032152D02*
X0122280Y0032152D01*
X0122342Y0031760D02*
X0102653Y0031760D01*
X0102816Y0031367D02*
X0122409Y0031367D01*
X0122536Y0030975D02*
X0102819Y0030975D01*
X0102819Y0030583D02*
X0122678Y0030583D01*
X0122877Y0030191D02*
X0102819Y0030191D01*
X0102699Y0029799D02*
X0123115Y0029799D01*
X0123400Y0029406D02*
X0102536Y0029406D01*
X0102374Y0029014D02*
X0123777Y0029014D01*
X0124237Y0028622D02*
X0102041Y0028622D01*
X0101648Y0028230D02*
X0124849Y0028230D01*
X0125801Y0027837D02*
X0101006Y0027837D01*
X0101202Y0027445D02*
X0128928Y0027445D01*
X0128623Y0027053D02*
X0101594Y0027053D01*
X0101986Y0026661D02*
X0128318Y0026661D01*
X0128552Y0027837D02*
X0129233Y0027837D01*
X0129505Y0028230D02*
X0129538Y0028230D01*
X0127373Y0028230D02*
X0126980Y0028230D01*
X0126980Y0028622D02*
X0127373Y0028622D01*
X0127373Y0029014D02*
X0126980Y0029014D01*
X0126980Y0029406D02*
X0127373Y0029406D01*
X0127373Y0029799D02*
X0126980Y0029799D01*
X0126980Y0030191D02*
X0127373Y0030191D01*
X0127373Y0030583D02*
X0126980Y0030583D01*
X0126980Y0030975D02*
X0127373Y0030975D01*
X0127373Y0031367D02*
X0126980Y0031367D01*
X0126980Y0031760D02*
X0127373Y0031760D01*
X0126980Y0032736D02*
X0122280Y0032736D01*
X0122280Y0032925D01*
X0122400Y0033686D01*
X0122639Y0034419D01*
X0122988Y0035106D01*
X0123442Y0035729D01*
X0123987Y0036274D01*
X0124610Y0036728D01*
X0125297Y0037077D01*
X0126030Y0037316D01*
X0126791Y0037436D01*
X0126980Y0037436D01*
X0126980Y0032736D01*
X0126980Y0032936D02*
X0127373Y0032936D01*
X0127373Y0033328D02*
X0126980Y0033328D01*
X0126980Y0033721D02*
X0127373Y0033721D01*
X0127373Y0034113D02*
X0126980Y0034113D01*
X0126980Y0034505D02*
X0127373Y0034505D01*
X0127373Y0034897D02*
X0126980Y0034897D01*
X0126980Y0035290D02*
X0127373Y0035290D01*
X0127373Y0035682D02*
X0126980Y0035682D01*
X0126980Y0036074D02*
X0127373Y0036074D01*
X0127373Y0036466D02*
X0126980Y0036466D01*
X0126980Y0036858D02*
X0127373Y0036858D01*
X0127373Y0037251D02*
X0126980Y0037251D01*
X0126202Y0037643D02*
X0101803Y0037643D01*
X0101803Y0038035D02*
X0125255Y0038035D01*
X0125830Y0037251D02*
X0101803Y0037251D01*
X0101803Y0036858D02*
X0124867Y0036858D01*
X0124250Y0036466D02*
X0101803Y0036466D01*
X0101803Y0036074D02*
X0123786Y0036074D01*
X0123407Y0035682D02*
X0101803Y0035682D01*
X0101803Y0035290D02*
X0123122Y0035290D01*
X0122882Y0034897D02*
X0101803Y0034897D01*
X0101803Y0034505D02*
X0122682Y0034505D01*
X0122539Y0034113D02*
X0101803Y0034113D01*
X0101803Y0033721D02*
X0122412Y0033721D01*
X0122344Y0033328D02*
X0101803Y0033328D01*
X0101931Y0032936D02*
X0122282Y0032936D01*
X0126980Y0027837D02*
X0127373Y0027837D01*
X0127163Y0022739D02*
X0101748Y0022739D01*
X0101356Y0022347D02*
X0126681Y0022347D01*
X0126199Y0021954D02*
X0100745Y0021954D01*
X0097869Y0021954D02*
X0066377Y0021954D01*
X0065985Y0021562D02*
X0125717Y0021562D01*
X0125235Y0021170D02*
X0065593Y0021170D01*
X0065201Y0020778D02*
X0124753Y0020778D01*
X0124271Y0020385D02*
X0064809Y0020385D01*
X0064416Y0019993D02*
X0123788Y0019993D01*
X0123306Y0019601D02*
X0064024Y0019601D01*
X0063632Y0019209D02*
X0122824Y0019209D01*
X0122184Y0018817D02*
X0063240Y0018817D01*
X0062848Y0018424D02*
X0121539Y0018424D01*
X0120894Y0018032D02*
X0062455Y0018032D01*
X0062063Y0017640D02*
X0120249Y0017640D01*
X0119604Y0017248D02*
X0061671Y0017248D01*
X0061279Y0016856D02*
X0118959Y0016856D01*
X0118314Y0016463D02*
X0060886Y0016463D01*
X0060494Y0016071D02*
X0117669Y0016071D01*
X0117024Y0015679D02*
X0060102Y0015679D01*
X0059710Y0015287D02*
X0116379Y0015287D01*
X0115734Y0014895D02*
X0059512Y0014895D01*
X0059512Y0014502D02*
X0115089Y0014502D01*
X0114444Y0014110D02*
X0059416Y0014110D01*
X0059254Y0013718D02*
X0113662Y0013718D01*
X0112759Y0013326D02*
X0059091Y0013326D01*
X0058793Y0012933D02*
X0111856Y0012933D01*
X0110953Y0012541D02*
X0058401Y0012541D01*
X0057843Y0012149D02*
X0110050Y0012149D01*
X0109148Y0011757D02*
X0050727Y0011757D01*
X0051629Y0011365D02*
X0108245Y0011365D01*
X0107342Y0010972D02*
X0052532Y0010972D01*
X0053435Y0010580D02*
X0106439Y0010580D01*
X0105536Y0010188D02*
X0054338Y0010188D01*
X0055352Y0009796D02*
X0104522Y0009796D01*
X0103122Y0009404D02*
X0056752Y0009404D01*
X0058152Y0009011D02*
X0101722Y0009011D01*
X0100322Y0008619D02*
X0059552Y0008619D01*
X0060951Y0008227D02*
X0098923Y0008227D01*
X0097523Y0007835D02*
X0062351Y0007835D01*
X0063751Y0007442D02*
X0096123Y0007442D01*
X0094370Y0007050D02*
X0065504Y0007050D01*
X0068358Y0006658D02*
X0091516Y0006658D01*
X0088663Y0006266D02*
X0071211Y0006266D01*
X0074065Y0005874D02*
X0085809Y0005874D01*
X0097258Y0022347D02*
X0066770Y0022347D01*
X0067162Y0022739D02*
X0096866Y0022739D01*
X0096546Y0023131D02*
X0067554Y0023131D01*
X0067946Y0023523D02*
X0096384Y0023523D01*
X0096221Y0023915D02*
X0068338Y0023915D01*
X0068731Y0024308D02*
X0096110Y0024308D01*
X0096110Y0024700D02*
X0069123Y0024700D01*
X0069515Y0025092D02*
X0096110Y0025092D01*
X0096122Y0025484D02*
X0069907Y0025484D01*
X0070300Y0025876D02*
X0096285Y0025876D01*
X0096447Y0026269D02*
X0070692Y0026269D01*
X0071084Y0026661D02*
X0096628Y0026661D01*
X0097020Y0027053D02*
X0071476Y0027053D01*
X0071868Y0027445D02*
X0097412Y0027445D01*
X0097596Y0028230D02*
X0072653Y0028230D01*
X0073045Y0028622D02*
X0097203Y0028622D01*
X0096870Y0029014D02*
X0073437Y0029014D01*
X0073829Y0029406D02*
X0096708Y0029406D01*
X0096545Y0029799D02*
X0074222Y0029799D01*
X0074614Y0030191D02*
X0096425Y0030191D01*
X0096425Y0030583D02*
X0075006Y0030583D01*
X0075398Y0030975D02*
X0096425Y0030975D01*
X0096428Y0031367D02*
X0075791Y0031367D01*
X0076183Y0031760D02*
X0096591Y0031760D01*
X0096753Y0032152D02*
X0076575Y0032152D01*
X0076967Y0032544D02*
X0096921Y0032544D01*
X0097313Y0032936D02*
X0077359Y0032936D01*
X0077752Y0033328D02*
X0097441Y0033328D01*
X0097441Y0033721D02*
X0078144Y0033721D01*
X0078536Y0034113D02*
X0097441Y0034113D01*
X0097441Y0034505D02*
X0078928Y0034505D01*
X0079320Y0034897D02*
X0097441Y0034897D01*
X0097441Y0035290D02*
X0079713Y0035290D01*
X0080105Y0035682D02*
X0097441Y0035682D01*
X0097441Y0036074D02*
X0080497Y0036074D01*
X0080889Y0036466D02*
X0097441Y0036466D01*
X0097441Y0036858D02*
X0081281Y0036858D01*
X0081674Y0037251D02*
X0097441Y0037251D01*
X0097441Y0037643D02*
X0082066Y0037643D01*
X0082458Y0038035D02*
X0097441Y0038035D01*
X0097441Y0038427D02*
X0082850Y0038427D01*
X0083243Y0038819D02*
X0097441Y0038819D01*
X0097441Y0039212D02*
X0083635Y0039212D01*
X0084027Y0039604D02*
X0097441Y0039604D01*
X0097441Y0039996D02*
X0084419Y0039996D01*
X0084811Y0040388D02*
X0097441Y0040388D01*
X0097441Y0040780D02*
X0085204Y0040780D01*
X0085596Y0041173D02*
X0097441Y0041173D01*
X0097441Y0041565D02*
X0085988Y0041565D01*
X0086380Y0041957D02*
X0097441Y0041957D01*
X0097441Y0042349D02*
X0086772Y0042349D01*
X0087165Y0042742D02*
X0097441Y0042742D01*
X0097441Y0043134D02*
X0087557Y0043134D01*
X0087949Y0043526D02*
X0097441Y0043526D01*
X0097441Y0043918D02*
X0088341Y0043918D01*
X0088734Y0044310D02*
X0097441Y0044310D01*
X0097441Y0044703D02*
X0089126Y0044703D01*
X0089518Y0045095D02*
X0097441Y0045095D01*
X0097441Y0045487D02*
X0089910Y0045487D01*
X0090302Y0045879D02*
X0097441Y0045879D01*
X0097441Y0046271D02*
X0090695Y0046271D01*
X0091087Y0046664D02*
X0097441Y0046664D01*
X0097441Y0047056D02*
X0091479Y0047056D01*
X0091871Y0047448D02*
X0097441Y0047448D01*
X0097441Y0047840D02*
X0092263Y0047840D01*
X0089232Y0050978D02*
X0054337Y0050978D01*
X0053945Y0051370D02*
X0089624Y0051370D01*
X0090016Y0051762D02*
X0053553Y0051762D01*
X0053161Y0052155D02*
X0090409Y0052155D01*
X0090801Y0052547D02*
X0052768Y0052547D01*
X0052376Y0052939D02*
X0100682Y0052939D01*
X0100519Y0053331D02*
X0051984Y0053331D01*
X0051592Y0053723D02*
X0100362Y0053723D01*
X0100362Y0054116D02*
X0051199Y0054116D01*
X0050807Y0054508D02*
X0100362Y0054508D01*
X0100362Y0054900D02*
X0050415Y0054900D01*
X0050023Y0055292D02*
X0100085Y0055292D01*
X0099693Y0055685D02*
X0049631Y0055685D01*
X0049238Y0056077D02*
X0099301Y0056077D01*
X0098909Y0056469D02*
X0048846Y0056469D01*
X0048454Y0056861D02*
X0098517Y0056861D01*
X0098124Y0057253D02*
X0048062Y0057253D01*
X0047670Y0057646D02*
X0097732Y0057646D01*
X0097340Y0058038D02*
X0047277Y0058038D01*
X0046885Y0058430D02*
X0096948Y0058430D01*
X0096555Y0058822D02*
X0046493Y0058822D01*
X0046101Y0059214D02*
X0096163Y0059214D01*
X0095771Y0059607D02*
X0045708Y0059607D01*
X0045316Y0059999D02*
X0095379Y0059999D01*
X0094987Y0060391D02*
X0044924Y0060391D01*
X0044532Y0060783D02*
X0094594Y0060783D01*
X0094202Y0061176D02*
X0044140Y0061176D01*
X0043747Y0061568D02*
X0093810Y0061568D01*
X0093418Y0061960D02*
X0043355Y0061960D01*
X0042963Y0062352D02*
X0093026Y0062352D01*
X0092633Y0062744D02*
X0042571Y0062744D01*
X0042179Y0063137D02*
X0092241Y0063137D01*
X0091849Y0063529D02*
X0041786Y0063529D01*
X0041394Y0063921D02*
X0091457Y0063921D01*
X0091065Y0064313D02*
X0036964Y0064313D01*
X0036802Y0064705D02*
X0090672Y0064705D01*
X0090280Y0065098D02*
X0036640Y0065098D01*
X0036374Y0065490D02*
X0089888Y0065490D01*
X0089496Y0065882D02*
X0035981Y0065882D01*
X0035589Y0066274D02*
X0089103Y0066274D01*
X0088711Y0066666D02*
X0035197Y0066666D01*
X0030941Y0067843D02*
X0006692Y0067843D01*
X0006611Y0068235D02*
X0029994Y0068235D01*
X0029386Y0068628D02*
X0006529Y0068628D01*
X0006448Y0069020D02*
X0028993Y0069020D01*
X0028601Y0069412D02*
X0006366Y0069412D01*
X0006285Y0069804D02*
X0028232Y0069804D01*
X0028069Y0070196D02*
X0006257Y0070196D01*
X0006230Y0070589D02*
X0027907Y0070589D01*
X0027744Y0070981D02*
X0006203Y0070981D01*
X0006176Y0071373D02*
X0027582Y0071373D01*
X0027502Y0071765D02*
X0006150Y0071765D01*
X0006123Y0072157D02*
X0027502Y0072157D01*
X0027502Y0072550D02*
X0006096Y0072550D01*
X0006069Y0072942D02*
X0027502Y0072942D01*
X0027502Y0073334D02*
X0006042Y0073334D01*
X0006015Y0073726D02*
X0027590Y0073726D01*
X0027753Y0074119D02*
X0005989Y0074119D01*
X0005962Y0074511D02*
X0027915Y0074511D01*
X0028078Y0074903D02*
X0005935Y0074903D01*
X0005908Y0075295D02*
X0028240Y0075295D01*
X0028622Y0075687D02*
X0005881Y0075687D01*
X0005854Y0076080D02*
X0029014Y0076080D01*
X0029406Y0076472D02*
X0005828Y0076472D01*
X0005801Y0076864D02*
X0030043Y0076864D01*
X0030990Y0077256D02*
X0005774Y0077256D01*
X0005747Y0077648D02*
X0031411Y0077648D01*
X0030464Y0078041D02*
X0005720Y0078041D01*
X0005693Y0078433D02*
X0029580Y0078433D01*
X0029188Y0078825D02*
X0005667Y0078825D01*
X0005640Y0079217D02*
X0028796Y0079217D01*
X0028404Y0079609D02*
X0005613Y0079609D01*
X0005595Y0080002D02*
X0028150Y0080002D01*
X0027987Y0080394D02*
X0005622Y0080394D01*
X0005649Y0080786D02*
X0027825Y0080786D01*
X0027662Y0081178D02*
X0005675Y0081178D01*
X0005702Y0081571D02*
X0027502Y0081571D01*
X0027502Y0081963D02*
X0005729Y0081963D01*
X0005756Y0082355D02*
X0027502Y0082355D01*
X0027502Y0082747D02*
X0005783Y0082747D01*
X0005810Y0083139D02*
X0027502Y0083139D01*
X0027510Y0083532D02*
X0005836Y0083532D01*
X0005863Y0083924D02*
X0027672Y0083924D01*
X0027835Y0084316D02*
X0005890Y0084316D01*
X0005917Y0084708D02*
X0027997Y0084708D01*
X0028159Y0085100D02*
X0005944Y0085100D01*
X0005971Y0085493D02*
X0028427Y0085493D01*
X0028819Y0085885D02*
X0005997Y0085885D01*
X0006024Y0086277D02*
X0029211Y0086277D01*
X0029604Y0086669D02*
X0006051Y0086669D01*
X0006078Y0087062D02*
X0030520Y0087062D01*
X0037470Y0093729D02*
X0007045Y0093729D01*
X0006964Y0093337D02*
X0037862Y0093337D01*
X0038254Y0092945D02*
X0006882Y0092945D01*
X0006801Y0092552D02*
X0038646Y0092552D01*
X0039039Y0092160D02*
X0006719Y0092160D01*
X0006638Y0091768D02*
X0039431Y0091768D01*
X0039823Y0091376D02*
X0006556Y0091376D01*
X0006475Y0090984D02*
X0040215Y0090984D01*
X0040607Y0090591D02*
X0006393Y0090591D01*
X0006312Y0090199D02*
X0041000Y0090199D01*
X0041392Y0089807D02*
X0006266Y0089807D01*
X0007127Y0094121D02*
X0037078Y0094121D01*
X0036685Y0094514D02*
X0007208Y0094514D01*
X0007290Y0094906D02*
X0036293Y0094906D01*
X0035901Y0095298D02*
X0007371Y0095298D01*
X0007453Y0095690D02*
X0035509Y0095690D01*
X0035117Y0096082D02*
X0007534Y0096082D01*
X0007616Y0096475D02*
X0034724Y0096475D01*
X0034332Y0096867D02*
X0007697Y0096867D01*
X0007779Y0097259D02*
X0033940Y0097259D01*
X0033548Y0097651D02*
X0007860Y0097651D01*
X0007942Y0098043D02*
X0033155Y0098043D01*
X0032763Y0098436D02*
X0008023Y0098436D01*
X0008105Y0098828D02*
X0032371Y0098828D01*
X0031979Y0099220D02*
X0008186Y0099220D01*
X0008268Y0099612D02*
X0031587Y0099612D01*
X0031194Y0100005D02*
X0008351Y0100005D01*
X0008490Y0100397D02*
X0030802Y0100397D01*
X0030410Y0100789D02*
X0008630Y0100789D01*
X0008769Y0101181D02*
X0030018Y0101181D01*
X0029626Y0101573D02*
X0008908Y0101573D01*
X0009048Y0101966D02*
X0029233Y0101966D01*
X0028055Y0102358D02*
X0009187Y0102358D01*
X0009326Y0102750D02*
X0027108Y0102750D01*
X0026620Y0103142D02*
X0009466Y0103142D01*
X0009605Y0103534D02*
X0026228Y0103534D01*
X0025959Y0103927D02*
X0009745Y0103927D01*
X0009884Y0104319D02*
X0025796Y0104319D01*
X0025634Y0104711D02*
X0010023Y0104711D01*
X0010163Y0105103D02*
X0025559Y0105103D01*
X0025559Y0105495D02*
X0010302Y0105495D01*
X0010442Y0105888D02*
X0025559Y0105888D01*
X0025607Y0106280D02*
X0010581Y0106280D01*
X0010720Y0106672D02*
X0025770Y0106672D01*
X0025932Y0107064D02*
X0010860Y0107064D01*
X0010999Y0107457D02*
X0026164Y0107457D01*
X0026556Y0107849D02*
X0011139Y0107849D01*
X0011278Y0108241D02*
X0026953Y0108241D01*
X0027900Y0108633D02*
X0011417Y0108633D01*
X0011557Y0109025D02*
X0051508Y0109025D01*
X0051770Y0108633D02*
X0029612Y0108633D01*
X0030559Y0108241D02*
X0052032Y0108241D01*
X0052294Y0107849D02*
X0030956Y0107849D01*
X0031348Y0107457D02*
X0052557Y0107457D01*
X0052819Y0107064D02*
X0031580Y0107064D01*
X0031742Y0106672D02*
X0053081Y0106672D01*
X0053343Y0106280D02*
X0031905Y0106280D01*
X0031953Y0105888D02*
X0053605Y0105888D01*
X0053929Y0105495D02*
X0031953Y0105495D01*
X0032265Y0105103D02*
X0054321Y0105103D01*
X0054714Y0104711D02*
X0032657Y0104711D01*
X0033049Y0104319D02*
X0055106Y0104319D01*
X0055498Y0103927D02*
X0033441Y0103927D01*
X0033834Y0103534D02*
X0055890Y0103534D01*
X0056282Y0103142D02*
X0034226Y0103142D01*
X0034618Y0102750D02*
X0056675Y0102750D01*
X0057067Y0102358D02*
X0035010Y0102358D01*
X0035402Y0101966D02*
X0057459Y0101966D01*
X0057851Y0101573D02*
X0035795Y0101573D01*
X0036187Y0101181D02*
X0058243Y0101181D01*
X0058733Y0100789D02*
X0036579Y0100789D01*
X0036971Y0100397D02*
X0059320Y0100397D01*
X0059907Y0100005D02*
X0037363Y0100005D01*
X0037756Y0099612D02*
X0060494Y0099612D01*
X0061081Y0099220D02*
X0038148Y0099220D01*
X0038540Y0098828D02*
X0061668Y0098828D01*
X0062255Y0098436D02*
X0038932Y0098436D01*
X0039325Y0098043D02*
X0062842Y0098043D01*
X0063429Y0097651D02*
X0039717Y0097651D01*
X0040109Y0097259D02*
X0064049Y0097259D01*
X0064996Y0096867D02*
X0040501Y0096867D01*
X0040893Y0096475D02*
X0065943Y0096475D01*
X0066890Y0096082D02*
X0041286Y0096082D01*
X0041678Y0095690D02*
X0067837Y0095690D01*
X0068784Y0095298D02*
X0042070Y0095298D01*
X0042462Y0094906D02*
X0069730Y0094906D01*
X0071302Y0094514D02*
X0042854Y0094514D01*
X0043247Y0094121D02*
X0073274Y0094121D01*
X0076902Y0083532D02*
X0130906Y0083532D01*
X0130906Y0083139D02*
X0077294Y0083139D01*
X0077686Y0082747D02*
X0130906Y0082747D01*
X0130906Y0082355D02*
X0078078Y0082355D01*
X0078470Y0081963D02*
X0130906Y0081963D01*
X0130906Y0081571D02*
X0078863Y0081571D01*
X0079255Y0081178D02*
X0130906Y0081178D01*
X0130906Y0080786D02*
X0079647Y0080786D01*
X0080039Y0080394D02*
X0130906Y0080394D01*
X0130906Y0080002D02*
X0080432Y0080002D01*
X0080824Y0079609D02*
X0130906Y0079609D01*
X0130906Y0079217D02*
X0081216Y0079217D01*
X0081608Y0078825D02*
X0130906Y0078825D01*
X0130906Y0078433D02*
X0082000Y0078433D01*
X0082393Y0078041D02*
X0130906Y0078041D01*
X0130906Y0077648D02*
X0082785Y0077648D01*
X0083177Y0077256D02*
X0125768Y0077256D01*
X0124821Y0076864D02*
X0083569Y0076864D01*
X0083961Y0076472D02*
X0124184Y0076472D01*
X0123792Y0076080D02*
X0084354Y0076080D01*
X0084746Y0075687D02*
X0123399Y0075687D01*
X0123018Y0075295D02*
X0085138Y0075295D01*
X0085530Y0074903D02*
X0122855Y0074903D01*
X0122693Y0074511D02*
X0085923Y0074511D01*
X0086315Y0074119D02*
X0122530Y0074119D01*
X0122368Y0073726D02*
X0086707Y0073726D01*
X0087099Y0073334D02*
X0122280Y0073334D01*
X0122280Y0072942D02*
X0087491Y0072942D01*
X0087884Y0072550D02*
X0122280Y0072550D01*
X0122280Y0072157D02*
X0088276Y0072157D01*
X0088668Y0071765D02*
X0122280Y0071765D01*
X0122359Y0071373D02*
X0089060Y0071373D01*
X0089452Y0070981D02*
X0122522Y0070981D01*
X0122622Y0070589D02*
X0089845Y0070589D01*
X0090237Y0070196D02*
X0122230Y0070196D01*
X0121838Y0069804D02*
X0090629Y0069804D01*
X0091021Y0069412D02*
X0121446Y0069412D01*
X0121053Y0069020D02*
X0091413Y0069020D01*
X0091806Y0068628D02*
X0120661Y0068628D01*
X0120269Y0068235D02*
X0092198Y0068235D01*
X0092590Y0067843D02*
X0119877Y0067843D01*
X0119485Y0067451D02*
X0092982Y0067451D01*
X0093375Y0067059D02*
X0119092Y0067059D01*
X0118700Y0066666D02*
X0093767Y0066666D01*
X0094159Y0066274D02*
X0118308Y0066274D01*
X0117916Y0065882D02*
X0094551Y0065882D01*
X0094943Y0065490D02*
X0117523Y0065490D01*
X0117131Y0065098D02*
X0095336Y0065098D01*
X0095728Y0064705D02*
X0116739Y0064705D01*
X0116347Y0064313D02*
X0096120Y0064313D01*
X0096512Y0063921D02*
X0115955Y0063921D01*
X0115562Y0063529D02*
X0096904Y0063529D01*
X0097297Y0063137D02*
X0115170Y0063137D01*
X0114778Y0062744D02*
X0097689Y0062744D01*
X0098081Y0062352D02*
X0114386Y0062352D01*
X0113994Y0061960D02*
X0098473Y0061960D01*
X0098866Y0061568D02*
X0113601Y0061568D01*
X0113209Y0061176D02*
X0099258Y0061176D01*
X0099650Y0060783D02*
X0112817Y0060783D01*
X0112425Y0060391D02*
X0100042Y0060391D01*
X0100434Y0059999D02*
X0112032Y0059999D01*
X0111640Y0059607D02*
X0100827Y0059607D01*
X0101219Y0059214D02*
X0111248Y0059214D01*
X0110856Y0058822D02*
X0101611Y0058822D01*
X0102003Y0058430D02*
X0110464Y0058430D01*
X0110071Y0058038D02*
X0102395Y0058038D01*
X0102788Y0057646D02*
X0109679Y0057646D01*
X0109287Y0057253D02*
X0104895Y0057253D01*
X0105565Y0056861D02*
X0108895Y0056861D01*
X0108503Y0056469D02*
X0105958Y0056469D01*
X0106303Y0056077D02*
X0108110Y0056077D01*
X0107718Y0055685D02*
X0106465Y0055685D01*
X0106627Y0055292D02*
X0107326Y0055292D01*
X0106934Y0054900D02*
X0106756Y0054900D01*
X0109965Y0051762D02*
X0122280Y0051762D01*
X0122280Y0051565D02*
X0123025Y0049766D01*
X0124403Y0048388D01*
X0126203Y0047643D01*
X0128151Y0047643D01*
X0129950Y0048388D01*
X0131328Y0049766D01*
X0132073Y0051565D01*
X0132073Y0053513D01*
X0131328Y0055313D01*
X0129950Y0056691D01*
X0128151Y0057436D01*
X0126203Y0057436D01*
X0124403Y0056691D01*
X0123025Y0055313D01*
X0122280Y0053513D01*
X0122280Y0051565D01*
X0122361Y0051370D02*
X0109573Y0051370D01*
X0109181Y0050978D02*
X0122523Y0050978D01*
X0122685Y0050586D02*
X0108788Y0050586D01*
X0108396Y0050194D02*
X0122848Y0050194D01*
X0123010Y0049801D02*
X0108004Y0049801D01*
X0107612Y0049409D02*
X0123382Y0049409D01*
X0123774Y0049017D02*
X0107220Y0049017D01*
X0106827Y0048625D02*
X0124166Y0048625D01*
X0124778Y0048233D02*
X0106435Y0048233D01*
X0101803Y0047840D02*
X0125725Y0047840D01*
X0125284Y0047056D02*
X0101803Y0047056D01*
X0101803Y0047448D02*
X0141142Y0047448D01*
X0141142Y0047056D02*
X0129069Y0047056D01*
X0128628Y0047840D02*
X0141142Y0047840D01*
X0141142Y0048233D02*
X0129575Y0048233D01*
X0130187Y0048625D02*
X0141142Y0048625D01*
X0141142Y0049017D02*
X0130579Y0049017D01*
X0130972Y0049409D02*
X0141142Y0049409D01*
X0141142Y0049801D02*
X0131343Y0049801D01*
X0131505Y0050194D02*
X0141142Y0050194D01*
X0141142Y0050586D02*
X0131668Y0050586D01*
X0131830Y0050978D02*
X0141142Y0050978D01*
X0141142Y0051370D02*
X0131993Y0051370D01*
X0132073Y0051762D02*
X0141142Y0051762D01*
X0141142Y0052155D02*
X0132073Y0052155D01*
X0132073Y0052547D02*
X0141142Y0052547D01*
X0141142Y0052939D02*
X0132073Y0052939D01*
X0132073Y0053331D02*
X0141142Y0053331D01*
X0141142Y0053723D02*
X0131986Y0053723D01*
X0131824Y0054116D02*
X0141142Y0054116D01*
X0141142Y0054508D02*
X0131662Y0054508D01*
X0131499Y0054900D02*
X0141142Y0054900D01*
X0141142Y0055292D02*
X0131337Y0055292D01*
X0130957Y0055685D02*
X0141142Y0055685D01*
X0141142Y0056077D02*
X0130564Y0056077D01*
X0130172Y0056469D02*
X0141142Y0056469D01*
X0141142Y0056861D02*
X0129539Y0056861D01*
X0128592Y0057253D02*
X0141142Y0057253D01*
X0141142Y0057646D02*
X0128158Y0057646D01*
X0129105Y0058038D02*
X0141142Y0058038D01*
X0141142Y0058430D02*
X0129992Y0058430D01*
X0130385Y0058822D02*
X0141142Y0058822D01*
X0141142Y0059214D02*
X0130777Y0059214D01*
X0131169Y0059607D02*
X0141142Y0059607D01*
X0141142Y0059999D02*
X0131425Y0059999D01*
X0131587Y0060391D02*
X0141142Y0060391D01*
X0141142Y0060783D02*
X0131750Y0060783D01*
X0131912Y0061176D02*
X0141142Y0061176D01*
X0141142Y0061568D02*
X0132073Y0061568D01*
X0132073Y0061960D02*
X0141142Y0061960D01*
X0141142Y0062352D02*
X0132073Y0062352D01*
X0132073Y0062744D02*
X0141142Y0062744D01*
X0141142Y0063137D02*
X0132073Y0063137D01*
X0132067Y0063529D02*
X0141142Y0063529D01*
X0141142Y0063921D02*
X0131905Y0063921D01*
X0131742Y0064313D02*
X0141142Y0064313D01*
X0141142Y0064705D02*
X0131580Y0064705D01*
X0131417Y0065098D02*
X0141142Y0065098D01*
X0141142Y0065490D02*
X0131151Y0065490D01*
X0130759Y0065882D02*
X0141142Y0065882D01*
X0141142Y0066274D02*
X0130367Y0066274D01*
X0129975Y0066666D02*
X0141142Y0066666D01*
X0141142Y0067059D02*
X0129062Y0067059D01*
X0128635Y0067843D02*
X0141142Y0067843D01*
X0141142Y0067451D02*
X0125654Y0067451D01*
X0125291Y0067059D02*
X0125261Y0067059D01*
X0122611Y0064313D02*
X0122516Y0064313D01*
X0122449Y0063921D02*
X0122124Y0063921D01*
X0122286Y0063529D02*
X0121731Y0063529D01*
X0121339Y0063137D02*
X0122280Y0063137D01*
X0122280Y0062744D02*
X0120947Y0062744D01*
X0120555Y0062352D02*
X0122280Y0062352D01*
X0122280Y0061960D02*
X0120163Y0061960D01*
X0119770Y0061568D02*
X0122280Y0061568D01*
X0122441Y0061176D02*
X0119378Y0061176D01*
X0118986Y0060783D02*
X0122604Y0060783D01*
X0122766Y0060391D02*
X0118594Y0060391D01*
X0118202Y0059999D02*
X0122929Y0059999D01*
X0123184Y0059607D02*
X0117809Y0059607D01*
X0117417Y0059214D02*
X0123576Y0059214D01*
X0123969Y0058822D02*
X0117025Y0058822D01*
X0116633Y0058430D02*
X0124361Y0058430D01*
X0125248Y0058038D02*
X0116240Y0058038D01*
X0115848Y0057646D02*
X0126195Y0057646D01*
X0125761Y0057253D02*
X0115456Y0057253D01*
X0115064Y0056861D02*
X0124814Y0056861D01*
X0124181Y0056469D02*
X0114672Y0056469D01*
X0114279Y0056077D02*
X0123789Y0056077D01*
X0123397Y0055685D02*
X0113887Y0055685D01*
X0113495Y0055292D02*
X0123017Y0055292D01*
X0122854Y0054900D02*
X0113103Y0054900D01*
X0112711Y0054508D02*
X0122692Y0054508D01*
X0122529Y0054116D02*
X0112318Y0054116D01*
X0111926Y0053723D02*
X0122367Y0053723D01*
X0122280Y0053331D02*
X0111534Y0053331D01*
X0111142Y0052939D02*
X0122280Y0052939D01*
X0122280Y0052547D02*
X0110750Y0052547D01*
X0110357Y0052155D02*
X0122280Y0052155D01*
X0124376Y0046664D02*
X0101803Y0046664D01*
X0101803Y0046271D02*
X0123984Y0046271D01*
X0123591Y0045879D02*
X0101803Y0045879D01*
X0101803Y0045487D02*
X0123199Y0045487D01*
X0122935Y0045095D02*
X0101803Y0045095D01*
X0101803Y0044703D02*
X0122772Y0044703D01*
X0122610Y0044310D02*
X0101803Y0044310D01*
X0101803Y0043918D02*
X0122447Y0043918D01*
X0122285Y0043526D02*
X0101803Y0043526D01*
X0101803Y0043134D02*
X0122280Y0043134D01*
X0122280Y0042742D02*
X0101803Y0042742D01*
X0101803Y0042349D02*
X0122280Y0042349D01*
X0122442Y0041173D02*
X0101803Y0041173D01*
X0101803Y0040780D02*
X0122605Y0040780D01*
X0122767Y0040388D02*
X0101803Y0040388D01*
X0101803Y0039996D02*
X0122930Y0039996D01*
X0123187Y0039604D02*
X0101803Y0039604D01*
X0101803Y0039212D02*
X0123579Y0039212D01*
X0123971Y0038819D02*
X0101803Y0038819D01*
X0101803Y0038427D02*
X0124364Y0038427D01*
X0130762Y0045879D02*
X0141142Y0045879D01*
X0141142Y0045487D02*
X0131154Y0045487D01*
X0131418Y0045095D02*
X0141142Y0045095D01*
X0141142Y0044703D02*
X0131581Y0044703D01*
X0131743Y0044310D02*
X0141142Y0044310D01*
X0141142Y0046271D02*
X0130370Y0046271D01*
X0129977Y0046664D02*
X0141142Y0046664D01*
X0151841Y0038427D02*
X0158677Y0038427D01*
X0158677Y0038035D02*
X0151638Y0038035D01*
X0151435Y0037643D02*
X0158677Y0037643D01*
X0158677Y0037251D02*
X0151232Y0037251D01*
X0151028Y0036858D02*
X0158677Y0036858D01*
X0158677Y0036466D02*
X0150773Y0036466D01*
X0150968Y0036742D02*
X0156188Y0046816D01*
X0158677Y0053819D01*
X0158677Y0001197D01*
X0106326Y0001197D01*
X0107777Y0001603D01*
X0118184Y0006124D01*
X0127879Y0012019D01*
X0136680Y0019180D01*
X0144425Y0027472D01*
X0150968Y0036742D01*
X0150497Y0036074D02*
X0158677Y0036074D01*
X0158677Y0035682D02*
X0150220Y0035682D01*
X0149943Y0035290D02*
X0158677Y0035290D01*
X0158677Y0034897D02*
X0149666Y0034897D01*
X0149389Y0034505D02*
X0158677Y0034505D01*
X0158677Y0034113D02*
X0149112Y0034113D01*
X0148836Y0033721D02*
X0158677Y0033721D01*
X0158677Y0033328D02*
X0148559Y0033328D01*
X0148282Y0032936D02*
X0158677Y0032936D01*
X0158677Y0032544D02*
X0148005Y0032544D01*
X0147728Y0032152D02*
X0158677Y0032152D01*
X0158677Y0031760D02*
X0147451Y0031760D01*
X0147174Y0031367D02*
X0158677Y0031367D01*
X0158677Y0030975D02*
X0146898Y0030975D01*
X0146621Y0030583D02*
X0158677Y0030583D01*
X0158677Y0030191D02*
X0146344Y0030191D01*
X0146067Y0029799D02*
X0158677Y0029799D01*
X0158677Y0029406D02*
X0145790Y0029406D01*
X0145513Y0029014D02*
X0158677Y0029014D01*
X0158677Y0028622D02*
X0145236Y0028622D01*
X0144960Y0028230D02*
X0158677Y0028230D01*
X0158677Y0027837D02*
X0144683Y0027837D01*
X0144400Y0027445D02*
X0158677Y0027445D01*
X0158677Y0027053D02*
X0144033Y0027053D01*
X0143667Y0026661D02*
X0158677Y0026661D01*
X0158677Y0026269D02*
X0143301Y0026269D01*
X0142934Y0025876D02*
X0158677Y0025876D01*
X0158677Y0025484D02*
X0142568Y0025484D01*
X0142202Y0025092D02*
X0158677Y0025092D01*
X0158677Y0024700D02*
X0141836Y0024700D01*
X0141469Y0024308D02*
X0158677Y0024308D01*
X0158677Y0023915D02*
X0141103Y0023915D01*
X0140737Y0023523D02*
X0158677Y0023523D01*
X0158677Y0023131D02*
X0140370Y0023131D01*
X0140004Y0022739D02*
X0158677Y0022739D01*
X0158677Y0022347D02*
X0139638Y0022347D01*
X0139271Y0021954D02*
X0158677Y0021954D01*
X0158677Y0021562D02*
X0138905Y0021562D01*
X0138539Y0021170D02*
X0158677Y0021170D01*
X0158677Y0020778D02*
X0138173Y0020778D01*
X0137806Y0020385D02*
X0158677Y0020385D01*
X0158677Y0019993D02*
X0137440Y0019993D01*
X0137074Y0019601D02*
X0158677Y0019601D01*
X0158677Y0019209D02*
X0136707Y0019209D01*
X0136680Y0019180D02*
X0136680Y0019180D01*
X0136234Y0018817D02*
X0158677Y0018817D01*
X0158677Y0018424D02*
X0135752Y0018424D01*
X0135270Y0018032D02*
X0158677Y0018032D01*
X0158677Y0017640D02*
X0134788Y0017640D01*
X0134306Y0017248D02*
X0158677Y0017248D01*
X0158677Y0016856D02*
X0133823Y0016856D01*
X0133341Y0016463D02*
X0158677Y0016463D01*
X0158677Y0016071D02*
X0132859Y0016071D01*
X0132377Y0015679D02*
X0158677Y0015679D01*
X0158677Y0015287D02*
X0131895Y0015287D01*
X0131413Y0014895D02*
X0158677Y0014895D01*
X0158677Y0014502D02*
X0130931Y0014502D01*
X0130449Y0014110D02*
X0158677Y0014110D01*
X0158677Y0013718D02*
X0129967Y0013718D01*
X0129485Y0013326D02*
X0158677Y0013326D01*
X0158677Y0012933D02*
X0129002Y0012933D01*
X0128520Y0012541D02*
X0158677Y0012541D01*
X0158677Y0012149D02*
X0128038Y0012149D01*
X0127447Y0011757D02*
X0158677Y0011757D01*
X0158677Y0011365D02*
X0126802Y0011365D01*
X0126157Y0010972D02*
X0158677Y0010972D01*
X0158677Y0010580D02*
X0125512Y0010580D01*
X0124867Y0010188D02*
X0158677Y0010188D01*
X0158677Y0009796D02*
X0124222Y0009796D01*
X0123577Y0009404D02*
X0158677Y0009404D01*
X0158677Y0009011D02*
X0122932Y0009011D01*
X0122288Y0008619D02*
X0158677Y0008619D01*
X0158677Y0008227D02*
X0121643Y0008227D01*
X0120998Y0007835D02*
X0158677Y0007835D01*
X0158677Y0007442D02*
X0120353Y0007442D01*
X0119708Y0007050D02*
X0158677Y0007050D01*
X0158677Y0006658D02*
X0119063Y0006658D01*
X0118418Y0006266D02*
X0158677Y0006266D01*
X0158677Y0005874D02*
X0117608Y0005874D01*
X0116705Y0005481D02*
X0158677Y0005481D01*
X0158677Y0005089D02*
X0115802Y0005089D01*
X0114899Y0004697D02*
X0158677Y0004697D01*
X0158677Y0004305D02*
X0113996Y0004305D01*
X0113093Y0003913D02*
X0158677Y0003913D01*
X0158677Y0003520D02*
X0112191Y0003520D01*
X0111288Y0003128D02*
X0158677Y0003128D01*
X0158677Y0002736D02*
X0110385Y0002736D01*
X0109482Y0002344D02*
X0158677Y0002344D01*
X0158677Y0001952D02*
X0108579Y0001952D01*
X0107777Y0001603D02*
X0107777Y0001603D01*
X0107620Y0001559D02*
X0158677Y0001559D01*
X0131979Y0031367D02*
X0131945Y0031367D01*
X0132011Y0031760D02*
X0132284Y0031760D01*
X0152045Y0038819D02*
X0158677Y0038819D01*
X0158677Y0039212D02*
X0152248Y0039212D01*
X0152451Y0039604D02*
X0158677Y0039604D01*
X0158677Y0039996D02*
X0152654Y0039996D01*
X0152858Y0040388D02*
X0158677Y0040388D01*
X0158677Y0040780D02*
X0153061Y0040780D01*
X0153264Y0041173D02*
X0158677Y0041173D01*
X0158677Y0041565D02*
X0153467Y0041565D01*
X0153670Y0041957D02*
X0158677Y0041957D01*
X0158677Y0042349D02*
X0153874Y0042349D01*
X0154077Y0042742D02*
X0158677Y0042742D01*
X0158677Y0043134D02*
X0154280Y0043134D01*
X0154483Y0043526D02*
X0158677Y0043526D01*
X0158677Y0043918D02*
X0154687Y0043918D01*
X0154890Y0044310D02*
X0158677Y0044310D01*
X0158677Y0044703D02*
X0155093Y0044703D01*
X0155296Y0045095D02*
X0158677Y0045095D01*
X0158677Y0045487D02*
X0155499Y0045487D01*
X0155703Y0045879D02*
X0158677Y0045879D01*
X0158677Y0046271D02*
X0155906Y0046271D01*
X0156109Y0046664D02*
X0158677Y0046664D01*
X0158677Y0047056D02*
X0156273Y0047056D01*
X0156413Y0047448D02*
X0158677Y0047448D01*
X0158677Y0047840D02*
X0156552Y0047840D01*
X0156692Y0048233D02*
X0158677Y0048233D01*
X0158677Y0048625D02*
X0156831Y0048625D01*
X0156970Y0049017D02*
X0158677Y0049017D01*
X0158677Y0049409D02*
X0157110Y0049409D01*
X0157249Y0049801D02*
X0158677Y0049801D01*
X0158677Y0050194D02*
X0157389Y0050194D01*
X0157528Y0050586D02*
X0158677Y0050586D01*
X0158677Y0050978D02*
X0157667Y0050978D01*
X0157807Y0051370D02*
X0158677Y0051370D01*
X0158677Y0051762D02*
X0157946Y0051762D01*
X0158086Y0052155D02*
X0158677Y0052155D01*
X0158677Y0052547D02*
X0158225Y0052547D01*
X0158364Y0052939D02*
X0158677Y0052939D01*
X0158677Y0053331D02*
X0158504Y0053331D01*
X0158643Y0053723D02*
X0158677Y0053723D01*
X0141142Y0068235D02*
X0129582Y0068235D01*
X0130190Y0068628D02*
X0141142Y0068628D01*
X0141142Y0069020D02*
X0130582Y0069020D01*
X0130974Y0069412D02*
X0141142Y0069412D01*
X0141142Y0069804D02*
X0131344Y0069804D01*
X0131506Y0070196D02*
X0141142Y0070196D01*
X0141142Y0070589D02*
X0131669Y0070589D01*
X0131831Y0070981D02*
X0141142Y0070981D01*
X0141142Y0071373D02*
X0131994Y0071373D01*
X0132073Y0071765D02*
X0141142Y0071765D01*
X0141142Y0072157D02*
X0134297Y0072157D01*
X0134689Y0072550D02*
X0141142Y0072550D01*
X0141142Y0072942D02*
X0135082Y0072942D01*
X0135268Y0073334D02*
X0141142Y0073334D01*
X0141142Y0073726D02*
X0135268Y0073726D01*
X0135268Y0074119D02*
X0141142Y0074119D01*
X0141142Y0074511D02*
X0135268Y0074511D01*
X0135268Y0074903D02*
X0141142Y0074903D01*
X0141142Y0075295D02*
X0135268Y0075295D01*
X0135268Y0075687D02*
X0141142Y0075687D01*
X0141142Y0076080D02*
X0135268Y0076080D01*
X0135268Y0076472D02*
X0141142Y0076472D01*
X0141142Y0076864D02*
X0135268Y0076864D01*
X0135268Y0077256D02*
X0141142Y0077256D01*
X0141142Y0077648D02*
X0135268Y0077648D01*
X0135268Y0078041D02*
X0141142Y0078041D01*
X0141142Y0078433D02*
X0135268Y0078433D01*
X0135268Y0078825D02*
X0141142Y0078825D01*
X0141142Y0079217D02*
X0135268Y0079217D01*
X0135268Y0079609D02*
X0141142Y0079609D01*
X0141142Y0080002D02*
X0135268Y0080002D01*
X0135268Y0080394D02*
X0141142Y0080394D01*
X0141142Y0080786D02*
X0135268Y0080786D01*
X0135268Y0081178D02*
X0141142Y0081178D01*
X0141142Y0081571D02*
X0135268Y0081571D01*
X0135268Y0081963D02*
X0141142Y0081963D01*
X0141142Y0082355D02*
X0135268Y0082355D01*
X0135268Y0082747D02*
X0141142Y0082747D01*
X0141142Y0083139D02*
X0135268Y0083139D01*
X0135268Y0083532D02*
X0141142Y0083532D01*
X0141142Y0083924D02*
X0135268Y0083924D01*
X0135268Y0084316D02*
X0141142Y0084316D01*
X0141142Y0084708D02*
X0135268Y0084708D01*
X0135268Y0085100D02*
X0141142Y0085100D01*
X0141142Y0085493D02*
X0135268Y0085493D01*
X0135268Y0085885D02*
X0141142Y0085885D01*
X0141142Y0086277D02*
X0135268Y0086277D01*
X0135268Y0086669D02*
X0141142Y0086669D01*
X0141142Y0087062D02*
X0135268Y0087062D01*
X0135268Y0087454D02*
X0141142Y0087454D01*
X0141142Y0087846D02*
X0135268Y0087846D01*
X0135268Y0088238D02*
X0141142Y0088238D01*
X0141142Y0088630D02*
X0135268Y0088630D01*
X0135268Y0089023D02*
X0141142Y0089023D01*
X0130906Y0094121D02*
X0086600Y0094121D01*
X0088572Y0094514D02*
X0130906Y0094514D01*
X0130906Y0094906D02*
X0090144Y0094906D01*
X0091090Y0095298D02*
X0130906Y0095298D01*
X0130906Y0095690D02*
X0092037Y0095690D01*
X0092984Y0096082D02*
X0130906Y0096082D01*
X0130906Y0096475D02*
X0093931Y0096475D01*
X0094878Y0096867D02*
X0130906Y0096867D01*
X0130906Y0097259D02*
X0095825Y0097259D01*
X0096445Y0097651D02*
X0130906Y0097651D01*
X0130906Y0098043D02*
X0097032Y0098043D01*
X0097619Y0098436D02*
X0130906Y0098436D01*
X0130906Y0098828D02*
X0098206Y0098828D01*
X0098793Y0099220D02*
X0130906Y0099220D01*
X0130906Y0099612D02*
X0099380Y0099612D01*
X0099967Y0100005D02*
X0130906Y0100005D01*
X0130906Y0100397D02*
X0100554Y0100397D01*
X0101141Y0100789D02*
X0130906Y0100789D01*
X0130906Y0101181D02*
X0101631Y0101181D01*
X0102023Y0101573D02*
X0130906Y0101573D01*
X0130906Y0101966D02*
X0102415Y0101966D01*
X0102807Y0102358D02*
X0130906Y0102358D01*
X0130906Y0102750D02*
X0103199Y0102750D01*
X0103592Y0103142D02*
X0130906Y0103142D01*
X0130906Y0103534D02*
X0103984Y0103534D01*
X0104376Y0103927D02*
X0130906Y0103927D01*
X0130906Y0104319D02*
X0104768Y0104319D01*
X0105160Y0104711D02*
X0130906Y0104711D01*
X0130906Y0105103D02*
X0105553Y0105103D01*
X0105945Y0105495D02*
X0130906Y0105495D01*
X0130906Y0105888D02*
X0106269Y0105888D01*
X0106531Y0106280D02*
X0130906Y0106280D01*
X0130906Y0106672D02*
X0106793Y0106672D01*
X0107055Y0107064D02*
X0130906Y0107064D01*
X0130906Y0107457D02*
X0107317Y0107457D01*
X0107580Y0107849D02*
X0130906Y0107849D01*
X0130906Y0108241D02*
X0107842Y0108241D01*
X0108104Y0108633D02*
X0130906Y0108633D01*
X0130906Y0109025D02*
X0108366Y0109025D01*
X0108628Y0109418D02*
X0130581Y0109418D01*
X0130299Y0109810D02*
X0108890Y0109810D01*
X0109152Y0110202D02*
X0130136Y0110202D01*
X0129974Y0110594D02*
X0109414Y0110594D01*
X0109676Y0110986D02*
X0129890Y0110986D01*
X0129890Y0111379D02*
X0109894Y0111379D01*
X0110057Y0111771D02*
X0129890Y0111771D01*
X0129929Y0112163D02*
X0110219Y0112163D01*
X0110382Y0112555D02*
X0130091Y0112555D01*
X0130254Y0112948D02*
X0110544Y0112948D01*
X0110707Y0113340D02*
X0130472Y0113340D01*
X0130864Y0113732D02*
X0110869Y0113732D01*
X0111032Y0114124D02*
X0131257Y0114124D01*
X0132177Y0114516D02*
X0111194Y0114516D01*
X0134961Y0125891D02*
X0138290Y0125891D01*
X0138567Y0125498D02*
X0135353Y0125498D01*
X0135746Y0125106D02*
X0138844Y0125106D01*
X0139121Y0124714D02*
X0135938Y0124714D01*
X0136101Y0124322D02*
X0139397Y0124322D01*
X0139674Y0123929D02*
X0136263Y0123929D01*
X0136283Y0123537D02*
X0139951Y0123537D01*
X0140228Y0123145D02*
X0136283Y0123145D01*
X0136283Y0122753D02*
X0140505Y0122753D01*
X0140782Y0122361D02*
X0136498Y0122361D01*
X0136890Y0121968D02*
X0141059Y0121968D01*
X0141335Y0121576D02*
X0137282Y0121576D01*
X0137674Y0121184D02*
X0141612Y0121184D01*
X0141889Y0120792D02*
X0138067Y0120792D01*
X0138459Y0120400D02*
X0142166Y0120400D01*
X0142443Y0120007D02*
X0138851Y0120007D01*
X0139243Y0119615D02*
X0142720Y0119615D01*
X0142997Y0119223D02*
X0139636Y0119223D01*
X0140028Y0118831D02*
X0143273Y0118831D01*
X0143526Y0118438D02*
X0140420Y0118438D01*
X0140812Y0118046D02*
X0143729Y0118046D01*
X0143933Y0117654D02*
X0141204Y0117654D01*
X0141597Y0117262D02*
X0144136Y0117262D01*
X0144339Y0116870D02*
X0141989Y0116870D01*
X0142381Y0116477D02*
X0144542Y0116477D01*
X0144746Y0116085D02*
X0142773Y0116085D01*
X0143165Y0115693D02*
X0144949Y0115693D01*
X0145152Y0115301D02*
X0143558Y0115301D01*
X0143950Y0114909D02*
X0145355Y0114909D01*
X0145559Y0114516D02*
X0144342Y0114516D01*
X0144717Y0114124D02*
X0145762Y0114124D01*
X0145965Y0113732D02*
X0144717Y0113732D01*
X0144717Y0113340D02*
X0146168Y0113340D01*
X0146371Y0112948D02*
X0144717Y0112948D01*
X0144717Y0112555D02*
X0146575Y0112555D01*
X0146778Y0112163D02*
X0144717Y0112163D01*
X0144717Y0111771D02*
X0146981Y0111771D01*
X0147184Y0111379D02*
X0144717Y0111379D01*
X0144717Y0110986D02*
X0147388Y0110986D01*
X0147591Y0110594D02*
X0144717Y0110594D01*
X0144717Y0110202D02*
X0147794Y0110202D01*
X0147997Y0109810D02*
X0144717Y0109810D01*
X0144717Y0109418D02*
X0148178Y0109418D01*
X0148317Y0109025D02*
X0144717Y0109025D01*
X0144717Y0108633D02*
X0148457Y0108633D01*
X0148596Y0108241D02*
X0144717Y0108241D01*
X0144717Y0107849D02*
X0148735Y0107849D01*
X0148875Y0107457D02*
X0144717Y0107457D01*
X0144717Y0107064D02*
X0149014Y0107064D01*
X0149154Y0106672D02*
X0144717Y0106672D01*
X0144717Y0106280D02*
X0149293Y0106280D01*
X0149432Y0105888D02*
X0144717Y0105888D01*
X0144717Y0105495D02*
X0149572Y0105495D01*
X0149711Y0105103D02*
X0144717Y0105103D01*
X0144717Y0104711D02*
X0149851Y0104711D01*
X0149990Y0104319D02*
X0144717Y0104319D01*
X0144717Y0103927D02*
X0150129Y0103927D01*
X0150269Y0103534D02*
X0144717Y0103534D01*
X0130906Y0077256D02*
X0128585Y0077256D01*
X0129532Y0076864D02*
X0130906Y0076864D01*
X0130906Y0076472D02*
X0130169Y0076472D01*
X0088840Y0050586D02*
X0054729Y0050586D01*
X0055122Y0050194D02*
X0088448Y0050194D01*
X0088055Y0049801D02*
X0055514Y0049801D01*
X0057579Y0049409D02*
X0087663Y0049409D01*
X0087271Y0049017D02*
X0058291Y0049017D01*
X0058684Y0048625D02*
X0086879Y0048625D01*
X0086487Y0048233D02*
X0059046Y0048233D01*
X0059209Y0047840D02*
X0086094Y0047840D01*
X0085702Y0047448D02*
X0059371Y0047448D01*
X0059512Y0047056D02*
X0085310Y0047056D01*
X0084918Y0046664D02*
X0059512Y0046664D01*
X0059512Y0046271D02*
X0084526Y0046271D01*
X0084133Y0045879D02*
X0059512Y0045879D01*
X0059367Y0045487D02*
X0083741Y0045487D01*
X0083349Y0045095D02*
X0059205Y0045095D01*
X0059042Y0044703D02*
X0082957Y0044703D01*
X0082564Y0044310D02*
X0058674Y0044310D01*
X0058282Y0043918D02*
X0082172Y0043918D01*
X0081780Y0043526D02*
X0057555Y0043526D01*
X0057507Y0041565D02*
X0079819Y0041565D01*
X0080211Y0041957D02*
X0055484Y0041957D01*
X0055092Y0042349D02*
X0080603Y0042349D01*
X0080996Y0042742D02*
X0054700Y0042742D01*
X0054307Y0043134D02*
X0081388Y0043134D01*
X0079427Y0041173D02*
X0058262Y0041173D01*
X0058654Y0040780D02*
X0079035Y0040780D01*
X0078642Y0040388D02*
X0059034Y0040388D01*
X0059196Y0039996D02*
X0078250Y0039996D01*
X0077858Y0039604D02*
X0059359Y0039604D01*
X0059512Y0039212D02*
X0077466Y0039212D01*
X0077073Y0038819D02*
X0059512Y0038819D01*
X0059512Y0038427D02*
X0076681Y0038427D01*
X0076289Y0038035D02*
X0059512Y0038035D01*
X0059379Y0037643D02*
X0075897Y0037643D01*
X0075505Y0037251D02*
X0059217Y0037251D01*
X0059054Y0036858D02*
X0075112Y0036858D01*
X0074720Y0036466D02*
X0058704Y0036466D01*
X0058312Y0036074D02*
X0074328Y0036074D01*
X0073936Y0035682D02*
X0057627Y0035682D01*
X0055003Y0035682D02*
X0036182Y0035682D01*
X0036550Y0035313D02*
X0035173Y0036691D01*
X0033373Y0037436D01*
X0031425Y0037436D01*
X0029625Y0036691D01*
X0028248Y0035313D01*
X0027502Y0033513D01*
X0027502Y0031565D01*
X0028248Y0029766D01*
X0029625Y0028388D01*
X0031425Y0027643D01*
X0033373Y0027643D01*
X0035173Y0028388D01*
X0036550Y0029766D01*
X0037296Y0031565D01*
X0037296Y0033513D01*
X0036550Y0035313D01*
X0036560Y0035290D02*
X0073544Y0035290D01*
X0073151Y0034897D02*
X0036723Y0034897D01*
X0036885Y0034505D02*
X0072759Y0034505D01*
X0072367Y0034113D02*
X0037047Y0034113D01*
X0037210Y0033721D02*
X0071975Y0033721D01*
X0071583Y0033328D02*
X0037296Y0033328D01*
X0037296Y0032936D02*
X0071190Y0032936D01*
X0070798Y0032544D02*
X0037296Y0032544D01*
X0037296Y0032152D02*
X0070406Y0032152D01*
X0070014Y0031760D02*
X0037296Y0031760D01*
X0037214Y0031367D02*
X0069621Y0031367D01*
X0069229Y0030975D02*
X0037051Y0030975D01*
X0036889Y0030583D02*
X0068837Y0030583D01*
X0068445Y0030191D02*
X0036726Y0030191D01*
X0036564Y0029799D02*
X0068053Y0029799D01*
X0067660Y0029406D02*
X0036191Y0029406D01*
X0035799Y0029014D02*
X0067268Y0029014D01*
X0066876Y0028622D02*
X0035407Y0028622D01*
X0034791Y0028230D02*
X0066484Y0028230D01*
X0066092Y0027837D02*
X0033844Y0027837D01*
X0030954Y0027837D02*
X0027104Y0027837D01*
X0027470Y0027445D02*
X0065699Y0027445D01*
X0065307Y0027053D02*
X0027836Y0027053D01*
X0028203Y0026661D02*
X0064915Y0026661D01*
X0064523Y0026269D02*
X0028569Y0026269D01*
X0028935Y0025876D02*
X0064130Y0025876D01*
X0063738Y0025484D02*
X0029336Y0025484D01*
X0029818Y0025092D02*
X0063346Y0025092D01*
X0062954Y0024700D02*
X0030300Y0024700D01*
X0030783Y0024308D02*
X0062562Y0024308D01*
X0062169Y0023915D02*
X0031265Y0023915D01*
X0031747Y0023523D02*
X0061777Y0023523D01*
X0061385Y0023131D02*
X0032229Y0023131D01*
X0032711Y0022739D02*
X0060993Y0022739D01*
X0060601Y0022347D02*
X0033193Y0022347D01*
X0033675Y0021954D02*
X0060208Y0021954D01*
X0059816Y0021562D02*
X0034157Y0021562D01*
X0034639Y0021170D02*
X0059424Y0021170D01*
X0059032Y0020778D02*
X0035121Y0020778D01*
X0035603Y0020385D02*
X0058640Y0020385D01*
X0058247Y0019993D02*
X0036086Y0019993D01*
X0036568Y0019601D02*
X0057855Y0019601D01*
X0057463Y0019209D02*
X0037050Y0019209D01*
X0037690Y0018817D02*
X0057071Y0018817D01*
X0056678Y0018424D02*
X0038335Y0018424D01*
X0038980Y0018032D02*
X0055339Y0018032D01*
X0054458Y0017640D02*
X0039625Y0017640D01*
X0040270Y0017248D02*
X0054065Y0017248D01*
X0053673Y0016856D02*
X0040915Y0016856D01*
X0041560Y0016463D02*
X0053471Y0016463D01*
X0053308Y0016071D02*
X0042205Y0016071D01*
X0042850Y0015679D02*
X0053146Y0015679D01*
X0053118Y0015287D02*
X0043495Y0015287D01*
X0044140Y0014895D02*
X0053118Y0014895D01*
X0053118Y0014502D02*
X0044785Y0014502D01*
X0045430Y0014110D02*
X0053214Y0014110D01*
X0053376Y0013718D02*
X0046212Y0013718D01*
X0047115Y0013326D02*
X0053538Y0013326D01*
X0053837Y0012933D02*
X0048018Y0012933D01*
X0048921Y0012541D02*
X0054229Y0012541D01*
X0054787Y0012149D02*
X0049824Y0012149D01*
X0030007Y0028230D02*
X0026737Y0028230D01*
X0026371Y0028622D02*
X0029391Y0028622D01*
X0028999Y0029014D02*
X0026005Y0029014D01*
X0025639Y0029406D02*
X0028607Y0029406D01*
X0028234Y0029799D02*
X0025272Y0029799D01*
X0024906Y0030191D02*
X0028071Y0030191D01*
X0027909Y0030583D02*
X0024540Y0030583D01*
X0024173Y0030975D02*
X0027747Y0030975D01*
X0027584Y0031367D02*
X0023807Y0031367D01*
X0023441Y0031760D02*
X0027502Y0031760D01*
X0027502Y0032152D02*
X0023074Y0032152D01*
X0022708Y0032544D02*
X0027502Y0032544D01*
X0027502Y0032936D02*
X0022342Y0032936D01*
X0022046Y0033328D02*
X0027502Y0033328D01*
X0027588Y0033721D02*
X0021770Y0033721D01*
X0021493Y0034113D02*
X0027750Y0034113D01*
X0027913Y0034505D02*
X0021216Y0034505D01*
X0020939Y0034897D02*
X0028075Y0034897D01*
X0028238Y0035290D02*
X0020662Y0035290D01*
X0020385Y0035682D02*
X0028616Y0035682D01*
X0029008Y0036074D02*
X0020108Y0036074D01*
X0019832Y0036466D02*
X0029401Y0036466D01*
X0030030Y0036858D02*
X0019555Y0036858D01*
X0019278Y0037251D02*
X0030977Y0037251D01*
X0031424Y0037643D02*
X0019001Y0037643D01*
X0018724Y0038035D02*
X0030477Y0038035D01*
X0029625Y0038388D02*
X0031425Y0037643D01*
X0033373Y0037643D01*
X0035173Y0038388D01*
X0036550Y0039766D01*
X0037296Y0041565D01*
X0037296Y0043513D01*
X0036550Y0045313D01*
X0035173Y0046691D01*
X0033373Y0047436D01*
X0031425Y0047436D01*
X0029625Y0046691D01*
X0028248Y0045313D01*
X0027502Y0043513D01*
X0027502Y0041565D01*
X0016281Y0041565D01*
X0016077Y0041957D02*
X0027502Y0041957D01*
X0027502Y0041565D02*
X0028248Y0039766D01*
X0029625Y0038388D01*
X0029586Y0038427D02*
X0018447Y0038427D01*
X0018170Y0038819D02*
X0029194Y0038819D01*
X0028801Y0039212D02*
X0017894Y0039212D01*
X0017617Y0039604D02*
X0028409Y0039604D01*
X0028152Y0039996D02*
X0017340Y0039996D01*
X0017063Y0040388D02*
X0027990Y0040388D01*
X0027827Y0040780D02*
X0016786Y0040780D01*
X0016509Y0041173D02*
X0027665Y0041173D01*
X0027502Y0042349D02*
X0015874Y0042349D01*
X0015671Y0042742D02*
X0027502Y0042742D01*
X0027502Y0043134D02*
X0015468Y0043134D01*
X0015265Y0043526D02*
X0027507Y0043526D01*
X0027670Y0043918D02*
X0015061Y0043918D01*
X0014858Y0044310D02*
X0027832Y0044310D01*
X0027995Y0044703D02*
X0014655Y0044703D01*
X0014452Y0045095D02*
X0028157Y0045095D01*
X0028421Y0045487D02*
X0014248Y0045487D01*
X0014045Y0045879D02*
X0028814Y0045879D01*
X0029206Y0046271D02*
X0013842Y0046271D01*
X0013639Y0046664D02*
X0029598Y0046664D01*
X0030507Y0047056D02*
X0013436Y0047056D01*
X0013232Y0047448D02*
X0044937Y0047448D01*
X0044545Y0047840D02*
X0033851Y0047840D01*
X0034291Y0047056D02*
X0045330Y0047056D01*
X0045722Y0046664D02*
X0035200Y0046664D01*
X0035592Y0046271D02*
X0046114Y0046271D01*
X0046506Y0045879D02*
X0035984Y0045879D01*
X0036376Y0045487D02*
X0046899Y0045487D01*
X0047291Y0045095D02*
X0036641Y0045095D01*
X0036803Y0044703D02*
X0047683Y0044703D01*
X0048075Y0044310D02*
X0036966Y0044310D01*
X0037128Y0043918D02*
X0048467Y0043918D01*
X0048860Y0043526D02*
X0037291Y0043526D01*
X0037296Y0043134D02*
X0049252Y0043134D01*
X0049644Y0042742D02*
X0037296Y0042742D01*
X0037296Y0042349D02*
X0050036Y0042349D01*
X0050428Y0041957D02*
X0037296Y0041957D01*
X0037296Y0041565D02*
X0050821Y0041565D01*
X0051213Y0041173D02*
X0037133Y0041173D01*
X0036971Y0040780D02*
X0051605Y0040780D01*
X0051997Y0040388D02*
X0036808Y0040388D01*
X0036646Y0039996D02*
X0052390Y0039996D01*
X0052782Y0039604D02*
X0036389Y0039604D01*
X0035996Y0039212D02*
X0053118Y0039212D01*
X0053118Y0038819D02*
X0035604Y0038819D01*
X0035212Y0038427D02*
X0053118Y0038427D01*
X0053118Y0038035D02*
X0034321Y0038035D01*
X0033821Y0037251D02*
X0053413Y0037251D01*
X0053251Y0037643D02*
X0033374Y0037643D01*
X0034768Y0036858D02*
X0053575Y0036858D01*
X0053926Y0036466D02*
X0035397Y0036466D01*
X0035790Y0036074D02*
X0054318Y0036074D01*
X0053915Y0043526D02*
X0055075Y0043526D01*
X0054348Y0043918D02*
X0053523Y0043918D01*
X0053131Y0044310D02*
X0053956Y0044310D01*
X0053588Y0044703D02*
X0052739Y0044703D01*
X0052346Y0045095D02*
X0053425Y0045095D01*
X0053263Y0045487D02*
X0051954Y0045487D01*
X0051562Y0045879D02*
X0053118Y0045879D01*
X0053118Y0046271D02*
X0051170Y0046271D01*
X0050777Y0046664D02*
X0053118Y0046664D01*
X0053118Y0047056D02*
X0050385Y0047056D01*
X0049993Y0047448D02*
X0052812Y0047448D01*
X0052419Y0047840D02*
X0049601Y0047840D01*
X0049209Y0048233D02*
X0052027Y0048233D01*
X0051635Y0048625D02*
X0048816Y0048625D01*
X0048424Y0049017D02*
X0051243Y0049017D01*
X0050850Y0049409D02*
X0048032Y0049409D01*
X0047640Y0049801D02*
X0050458Y0049801D01*
X0050066Y0050194D02*
X0047248Y0050194D01*
X0046855Y0050586D02*
X0049674Y0050586D01*
X0049282Y0050978D02*
X0046463Y0050978D01*
X0046071Y0051370D02*
X0048889Y0051370D01*
X0048497Y0051762D02*
X0045679Y0051762D01*
X0045286Y0052155D02*
X0048105Y0052155D01*
X0047713Y0052547D02*
X0044894Y0052547D01*
X0044502Y0052939D02*
X0047321Y0052939D01*
X0046928Y0053331D02*
X0044110Y0053331D01*
X0043718Y0053723D02*
X0046536Y0053723D01*
X0046144Y0054116D02*
X0043325Y0054116D01*
X0044575Y0055685D02*
X0036179Y0055685D01*
X0036559Y0055292D02*
X0044967Y0055292D01*
X0045359Y0054900D02*
X0036721Y0054900D01*
X0036884Y0054508D02*
X0045752Y0054508D01*
X0044183Y0056077D02*
X0035787Y0056077D01*
X0035395Y0056469D02*
X0043791Y0056469D01*
X0043398Y0056861D02*
X0034761Y0056861D01*
X0033814Y0057253D02*
X0043006Y0057253D01*
X0042614Y0057646D02*
X0033380Y0057646D01*
X0034327Y0058038D02*
X0042222Y0058038D01*
X0041830Y0058430D02*
X0035215Y0058430D01*
X0035607Y0058822D02*
X0041437Y0058822D01*
X0041045Y0059214D02*
X0035999Y0059214D01*
X0036391Y0059607D02*
X0040653Y0059607D01*
X0040261Y0059999D02*
X0036647Y0059999D01*
X0036809Y0060391D02*
X0039869Y0060391D01*
X0041800Y0050586D02*
X0036890Y0050586D01*
X0036728Y0050194D02*
X0042192Y0050194D01*
X0042584Y0049801D02*
X0036565Y0049801D01*
X0036194Y0049409D02*
X0042976Y0049409D01*
X0043369Y0049017D02*
X0035802Y0049017D01*
X0035409Y0048625D02*
X0043761Y0048625D01*
X0044153Y0048233D02*
X0034797Y0048233D01*
X0030947Y0047840D02*
X0013029Y0047840D01*
X0012826Y0048233D02*
X0030000Y0048233D01*
X0029388Y0048625D02*
X0012623Y0048625D01*
X0012419Y0049017D02*
X0028996Y0049017D01*
X0028604Y0049409D02*
X0012216Y0049409D01*
X0012013Y0049801D02*
X0028233Y0049801D01*
X0028070Y0050194D02*
X0011810Y0050194D01*
X0011650Y0050586D02*
X0027908Y0050586D01*
X0027745Y0050978D02*
X0011511Y0050978D01*
X0011371Y0051370D02*
X0027583Y0051370D01*
X0027502Y0051762D02*
X0011232Y0051762D01*
X0011093Y0052155D02*
X0027502Y0052155D01*
X0027502Y0052547D02*
X0010953Y0052547D01*
X0010814Y0052939D02*
X0027502Y0052939D01*
X0027502Y0053331D02*
X0010674Y0053331D01*
X0010535Y0053723D02*
X0027589Y0053723D01*
X0027752Y0054116D02*
X0010396Y0054116D01*
X0010256Y0054508D02*
X0027914Y0054508D01*
X0028077Y0054900D02*
X0010117Y0054900D01*
X0009977Y0055292D02*
X0028239Y0055292D01*
X0028619Y0055685D02*
X0009838Y0055685D01*
X0009699Y0056077D02*
X0029011Y0056077D01*
X0072261Y0027837D02*
X0098238Y0027837D01*
X0051246Y0109418D02*
X0011696Y0109418D01*
X0011877Y0109810D02*
X0050984Y0109810D01*
X0050722Y0110202D02*
X0012080Y0110202D01*
X0012283Y0110594D02*
X0050460Y0110594D01*
X0050198Y0110986D02*
X0012486Y0110986D01*
X0012690Y0111379D02*
X0049980Y0111379D01*
X0049817Y0111771D02*
X0012893Y0111771D01*
X0013096Y0112163D02*
X0049655Y0112163D01*
X0049492Y0112555D02*
X0013299Y0112555D01*
X0013503Y0112948D02*
X0049330Y0112948D01*
X0049167Y0113340D02*
X0013706Y0113340D01*
X0013909Y0113732D02*
X0049005Y0113732D01*
X0048842Y0114124D02*
X0014112Y0114124D01*
X0014315Y0114516D02*
X0048680Y0114516D01*
X0048517Y0114909D02*
X0014519Y0114909D01*
X0014722Y0115301D02*
X0048355Y0115301D01*
X0048192Y0115693D02*
X0014925Y0115693D01*
X0015128Y0116085D02*
X0048030Y0116085D01*
X0047868Y0116477D02*
X0015332Y0116477D01*
X0015535Y0116870D02*
X0047705Y0116870D01*
X0047543Y0117262D02*
X0015738Y0117262D01*
X0015941Y0117654D02*
X0047447Y0117654D01*
X0047369Y0118046D02*
X0016145Y0118046D01*
X0016348Y0118438D02*
X0047291Y0118438D01*
X0047213Y0118831D02*
X0016601Y0118831D01*
X0016877Y0119223D02*
X0047135Y0119223D01*
X0047057Y0119615D02*
X0017154Y0119615D01*
X0017431Y0120007D02*
X0046979Y0120007D01*
X0046901Y0120400D02*
X0017708Y0120400D01*
X0017985Y0120792D02*
X0046823Y0120792D01*
X0046745Y0121184D02*
X0018262Y0121184D01*
X0018539Y0121576D02*
X0046667Y0121576D01*
X0046589Y0121968D02*
X0018815Y0121968D01*
X0019092Y0122361D02*
X0046511Y0122361D01*
X0046433Y0122753D02*
X0019369Y0122753D01*
X0019646Y0123145D02*
X0046355Y0123145D01*
X0046277Y0123537D02*
X0019923Y0123537D01*
X0020200Y0123929D02*
X0046213Y0123929D01*
X0046213Y0124322D02*
X0020477Y0124322D01*
X0020753Y0124714D02*
X0046213Y0124714D01*
X0046213Y0125106D02*
X0021030Y0125106D01*
X0021307Y0125498D02*
X0046213Y0125498D01*
X0046213Y0125891D02*
X0021584Y0125891D01*
X0021861Y0126283D02*
X0046213Y0126283D01*
X0046213Y0126675D02*
X0022138Y0126675D01*
X0022463Y0127067D02*
X0046213Y0127067D01*
X0046213Y0127459D02*
X0022829Y0127459D01*
X0023195Y0127852D02*
X0046213Y0127852D01*
X0046213Y0128244D02*
X0023562Y0128244D01*
X0023928Y0128636D02*
X0046213Y0128636D01*
X0046213Y0129028D02*
X0024294Y0129028D01*
X0024660Y0129420D02*
X0046213Y0129420D01*
X0046213Y0129813D02*
X0025027Y0129813D01*
X0025393Y0130205D02*
X0046213Y0130205D01*
X0046231Y0130597D02*
X0025759Y0130597D01*
X0026126Y0130989D02*
X0046309Y0130989D01*
X0046387Y0131381D02*
X0026492Y0131381D01*
X0026858Y0131774D02*
X0046465Y0131774D01*
X0046543Y0132166D02*
X0027225Y0132166D01*
X0027591Y0132558D02*
X0046621Y0132558D01*
X0046699Y0132950D02*
X0027957Y0132950D01*
X0028323Y0133343D02*
X0046777Y0133343D01*
X0046856Y0133735D02*
X0028690Y0133735D01*
X0029056Y0134127D02*
X0046934Y0134127D01*
X0047012Y0134519D02*
X0029495Y0134519D01*
X0029977Y0134911D02*
X0047090Y0134911D01*
X0047168Y0135304D02*
X0030460Y0135304D01*
X0030942Y0135696D02*
X0047246Y0135696D01*
X0047324Y0136088D02*
X0031424Y0136088D01*
X0031906Y0136480D02*
X0047402Y0136480D01*
X0047480Y0136872D02*
X0032388Y0136872D01*
X0032870Y0137265D02*
X0047611Y0137265D01*
X0047773Y0137657D02*
X0033352Y0137657D01*
X0033834Y0138049D02*
X0047936Y0138049D01*
X0048098Y0138441D02*
X0034316Y0138441D01*
X0034798Y0138834D02*
X0048261Y0138834D01*
X0048423Y0139226D02*
X0035280Y0139226D01*
X0035763Y0139618D02*
X0048585Y0139618D01*
X0048748Y0140010D02*
X0036245Y0140010D01*
X0036727Y0140402D02*
X0048910Y0140402D01*
X0049073Y0140795D02*
X0037258Y0140795D01*
X0037903Y0141187D02*
X0049235Y0141187D01*
X0049398Y0141579D02*
X0038548Y0141579D01*
X0039193Y0141971D02*
X0049560Y0141971D01*
X0049723Y0142363D02*
X0039838Y0142363D01*
X0040483Y0142756D02*
X0049885Y0142756D01*
X0050048Y0143148D02*
X0041128Y0143148D01*
X0041773Y0143540D02*
X0050308Y0143540D01*
X0050570Y0143932D02*
X0042418Y0143932D01*
X0043063Y0144324D02*
X0050832Y0144324D01*
X0051094Y0144717D02*
X0043708Y0144717D01*
X0044353Y0145109D02*
X0051356Y0145109D01*
X0051618Y0145501D02*
X0044998Y0145501D01*
X0045643Y0145893D02*
X0051880Y0145893D01*
X0052142Y0146286D02*
X0046510Y0146286D01*
X0047413Y0146678D02*
X0052404Y0146678D01*
X0052666Y0147070D02*
X0048316Y0147070D01*
X0049219Y0147462D02*
X0052928Y0147462D01*
X0053190Y0147854D02*
X0050121Y0147854D01*
X0051024Y0148247D02*
X0053453Y0148247D01*
X0053715Y0148639D02*
X0051927Y0148639D01*
X0052830Y0149031D02*
X0054093Y0149031D01*
X0053733Y0149423D02*
X0054486Y0149423D01*
X0054636Y0149815D02*
X0054878Y0149815D01*
X0047981Y0156483D02*
X0001197Y0156483D01*
X0001197Y0156091D02*
X0047078Y0156091D01*
X0046176Y0155699D02*
X0001197Y0155699D01*
X0001197Y0155306D02*
X0045273Y0155306D01*
X0044370Y0154914D02*
X0001197Y0154914D01*
X0001197Y0154522D02*
X0043467Y0154522D01*
X0042564Y0154130D02*
X0001197Y0154130D01*
X0001197Y0153738D02*
X0041669Y0153738D01*
X0041690Y0153750D02*
X0031995Y0147855D01*
X0023194Y0140694D01*
X0015449Y0132402D01*
X0015449Y0132402D01*
X0008906Y0123132D01*
X0003686Y0113058D01*
X0001197Y0106055D01*
X0001197Y0158677D01*
X0053548Y0158677D01*
X0052097Y0158271D01*
X0041690Y0153750D01*
X0041690Y0153750D01*
X0041024Y0153345D02*
X0001197Y0153345D01*
X0001197Y0152953D02*
X0040379Y0152953D01*
X0039734Y0152561D02*
X0001197Y0152561D01*
X0001197Y0152169D02*
X0039089Y0152169D01*
X0038444Y0151777D02*
X0001197Y0151777D01*
X0001197Y0151384D02*
X0037799Y0151384D01*
X0037154Y0150992D02*
X0001197Y0150992D01*
X0001197Y0150600D02*
X0036509Y0150600D01*
X0035864Y0150208D02*
X0001197Y0150208D01*
X0001197Y0149815D02*
X0035219Y0149815D01*
X0034574Y0149423D02*
X0001197Y0149423D01*
X0001197Y0149031D02*
X0033930Y0149031D01*
X0033285Y0148639D02*
X0001197Y0148639D01*
X0001197Y0148247D02*
X0032640Y0148247D01*
X0031995Y0147855D02*
X0031995Y0147855D01*
X0031995Y0147854D02*
X0001197Y0147854D01*
X0001197Y0147462D02*
X0031513Y0147462D01*
X0031031Y0147070D02*
X0001197Y0147070D01*
X0001197Y0146678D02*
X0030549Y0146678D01*
X0030066Y0146286D02*
X0001197Y0146286D01*
X0001197Y0145893D02*
X0029584Y0145893D01*
X0029102Y0145501D02*
X0001197Y0145501D01*
X0001197Y0145109D02*
X0028620Y0145109D01*
X0028138Y0144717D02*
X0001197Y0144717D01*
X0001197Y0144324D02*
X0027656Y0144324D01*
X0027174Y0143932D02*
X0001197Y0143932D01*
X0001197Y0143540D02*
X0026692Y0143540D01*
X0026210Y0143148D02*
X0001197Y0143148D01*
X0001197Y0142756D02*
X0025728Y0142756D01*
X0025245Y0142363D02*
X0001197Y0142363D01*
X0001197Y0141971D02*
X0024763Y0141971D01*
X0024281Y0141579D02*
X0001197Y0141579D01*
X0001197Y0141187D02*
X0023799Y0141187D01*
X0023317Y0140795D02*
X0001197Y0140795D01*
X0001197Y0140402D02*
X0022921Y0140402D01*
X0023194Y0140694D02*
X0023194Y0140694D01*
X0023194Y0140694D01*
X0022555Y0140010D02*
X0001197Y0140010D01*
X0001197Y0139618D02*
X0022189Y0139618D01*
X0021822Y0139226D02*
X0001197Y0139226D01*
X0001197Y0138834D02*
X0021456Y0138834D01*
X0021090Y0138441D02*
X0001197Y0138441D01*
X0001197Y0138049D02*
X0020723Y0138049D01*
X0020357Y0137657D02*
X0001197Y0137657D01*
X0001197Y0137265D02*
X0019991Y0137265D01*
X0019624Y0136872D02*
X0001197Y0136872D01*
X0001197Y0136480D02*
X0019258Y0136480D01*
X0018892Y0136088D02*
X0001197Y0136088D01*
X0001197Y0135696D02*
X0018526Y0135696D01*
X0018159Y0135304D02*
X0001197Y0135304D01*
X0001197Y0134911D02*
X0017793Y0134911D01*
X0017427Y0134519D02*
X0001197Y0134519D01*
X0001197Y0134127D02*
X0017060Y0134127D01*
X0016694Y0133735D02*
X0001197Y0133735D01*
X0001197Y0133343D02*
X0016328Y0133343D01*
X0015961Y0132950D02*
X0001197Y0132950D01*
X0001197Y0132558D02*
X0015595Y0132558D01*
X0015283Y0132166D02*
X0001197Y0132166D01*
X0001197Y0131774D02*
X0015006Y0131774D01*
X0014729Y0131381D02*
X0001197Y0131381D01*
X0001197Y0130989D02*
X0014452Y0130989D01*
X0014175Y0130597D02*
X0001197Y0130597D01*
X0001197Y0130205D02*
X0013898Y0130205D01*
X0013622Y0129813D02*
X0001197Y0129813D01*
X0001197Y0129420D02*
X0013345Y0129420D01*
X0013068Y0129028D02*
X0001197Y0129028D01*
X0001197Y0128636D02*
X0012791Y0128636D01*
X0012514Y0128244D02*
X0001197Y0128244D01*
X0001197Y0127852D02*
X0012237Y0127852D01*
X0011960Y0127459D02*
X0001197Y0127459D01*
X0001197Y0127067D02*
X0011684Y0127067D01*
X0011407Y0126675D02*
X0001197Y0126675D01*
X0001197Y0126283D02*
X0011130Y0126283D01*
X0010853Y0125891D02*
X0001197Y0125891D01*
X0001197Y0125498D02*
X0010576Y0125498D01*
X0010299Y0125106D02*
X0001197Y0125106D01*
X0001197Y0124714D02*
X0010022Y0124714D01*
X0009746Y0124322D02*
X0001197Y0124322D01*
X0001197Y0123929D02*
X0009469Y0123929D01*
X0009192Y0123537D02*
X0001197Y0123537D01*
X0001197Y0123145D02*
X0008915Y0123145D01*
X0008906Y0123132D02*
X0008906Y0123132D01*
X0008709Y0122753D02*
X0001197Y0122753D01*
X0001197Y0122361D02*
X0008506Y0122361D01*
X0008303Y0121968D02*
X0001197Y0121968D01*
X0001197Y0121576D02*
X0008100Y0121576D01*
X0007896Y0121184D02*
X0001197Y0121184D01*
X0001197Y0120792D02*
X0007693Y0120792D01*
X0007490Y0120400D02*
X0001197Y0120400D01*
X0001197Y0120007D02*
X0007287Y0120007D01*
X0007084Y0119615D02*
X0001197Y0119615D01*
X0001197Y0119223D02*
X0006880Y0119223D01*
X0006677Y0118831D02*
X0001197Y0118831D01*
X0001197Y0118438D02*
X0006474Y0118438D01*
X0006271Y0118046D02*
X0001197Y0118046D01*
X0001197Y0117654D02*
X0006067Y0117654D01*
X0005864Y0117262D02*
X0001197Y0117262D01*
X0001197Y0116870D02*
X0005661Y0116870D01*
X0005458Y0116477D02*
X0001197Y0116477D01*
X0001197Y0116085D02*
X0005254Y0116085D01*
X0005051Y0115693D02*
X0001197Y0115693D01*
X0001197Y0115301D02*
X0004848Y0115301D01*
X0004645Y0114909D02*
X0001197Y0114909D01*
X0001197Y0114516D02*
X0004442Y0114516D01*
X0004238Y0114124D02*
X0001197Y0114124D01*
X0001197Y0113732D02*
X0004035Y0113732D01*
X0003832Y0113340D02*
X0001197Y0113340D01*
X0001197Y0112948D02*
X0003647Y0112948D01*
X0003686Y0113058D02*
X0003686Y0113058D01*
X0003507Y0112555D02*
X0001197Y0112555D01*
X0001197Y0112163D02*
X0003368Y0112163D01*
X0003228Y0111771D02*
X0001197Y0111771D01*
X0001197Y0111379D02*
X0003089Y0111379D01*
X0002950Y0110986D02*
X0001197Y0110986D01*
X0001197Y0110594D02*
X0002810Y0110594D01*
X0002671Y0110202D02*
X0001197Y0110202D01*
X0001197Y0109810D02*
X0002531Y0109810D01*
X0002392Y0109418D02*
X0001197Y0109418D01*
X0001197Y0109025D02*
X0002253Y0109025D01*
X0002113Y0108633D02*
X0001197Y0108633D01*
X0001197Y0108241D02*
X0001974Y0108241D01*
X0001834Y0107849D02*
X0001197Y0107849D01*
X0001197Y0107457D02*
X0001695Y0107457D01*
X0001556Y0107064D02*
X0001197Y0107064D01*
X0001197Y0106672D02*
X0001416Y0106672D01*
X0001277Y0106280D02*
X0001197Y0106280D01*
X0001197Y0156875D02*
X0048884Y0156875D01*
X0049787Y0157267D02*
X0001197Y0157267D01*
X0001197Y0157660D02*
X0050690Y0157660D01*
X0051593Y0158052D02*
X0001197Y0158052D01*
X0001197Y0158444D02*
X0052716Y0158444D01*
X0052097Y0158271D02*
X0052097Y0158271D01*
D12*
X0028756Y0105528D02*
X0042535Y0091748D01*
X0133087Y0091748D01*
X0133087Y0111433D01*
X0133087Y0091748D02*
X0133087Y0074031D01*
X0127181Y0074031D01*
X0127177Y0072539D01*
X0127181Y0072063D01*
X0105528Y0050409D01*
X0099622Y0050409D01*
X0099622Y0030724D01*
X0099622Y0050409D02*
X0091748Y0050409D01*
X0056315Y0014976D01*
D13*
X0056315Y0014976D03*
X0056315Y0038598D03*
X0056315Y0046472D03*
X0099622Y0030724D03*
X0099307Y0024819D03*
X0103559Y0054346D03*
X0133087Y0111433D03*
X0133087Y0123244D03*
X0028756Y0105528D03*
D14*
X0032399Y0082539D02*
X0034661Y0081906D01*
X0076000Y0081906D01*
X0103559Y0054346D01*
X0099307Y0024819D02*
X0129150Y0024819D01*
X0142929Y0042535D01*
X0142929Y0113402D01*
X0133087Y0123244D01*
X0056315Y0046472D02*
X0040567Y0062220D01*
X0034661Y0062220D01*
X0032399Y0062539D01*
X0032399Y0052539D02*
X0034661Y0052378D01*
X0042535Y0052378D01*
X0056315Y0038598D01*
M02*
