G75*
%MOIN*%
%OFA0B0*%
%FSLAX25Y25*%
%IPPOS*%
%LPD*%
%AMOC8*
5,1,8,0,0,1.08239X$1,22.5*
%
%ADD10C,0.00100*%
%ADD11C,0.07400*%
%ADD12C,0.01969*%
%ADD13C,0.03600*%
%ADD14C,0.02000*%
%ADD15C,0.01181*%
D10*
X0005833Y0014785D02*
X0005650Y0014969D01*
X0005650Y0015336D01*
X0005833Y0015519D01*
X0006200Y0015519D01*
X0006200Y0015152D01*
X0006567Y0014785D02*
X0005833Y0014785D01*
X0006567Y0014785D02*
X0006751Y0014969D01*
X0006751Y0015336D01*
X0006567Y0015519D01*
X0006751Y0015890D02*
X0005650Y0016624D01*
X0006751Y0016624D01*
X0006751Y0016995D02*
X0006751Y0017546D01*
X0006567Y0017729D01*
X0005833Y0017729D01*
X0005650Y0017546D01*
X0005650Y0016995D01*
X0006751Y0016995D01*
X0006751Y0015890D02*
X0005650Y0015890D01*
X0005833Y0023089D02*
X0005650Y0023272D01*
X0005650Y0023639D01*
X0005833Y0023823D01*
X0006200Y0023823D01*
X0006200Y0023456D01*
X0006567Y0023089D02*
X0005833Y0023089D01*
X0006567Y0023089D02*
X0006751Y0023272D01*
X0006751Y0023639D01*
X0006567Y0023823D01*
X0006751Y0024194D02*
X0006751Y0024744D01*
X0006567Y0024928D01*
X0006200Y0024928D01*
X0006017Y0024744D01*
X0006017Y0024194D01*
X0005650Y0024194D02*
X0006751Y0024194D01*
X0006751Y0025299D02*
X0006751Y0025666D01*
X0006751Y0025482D02*
X0005650Y0025482D01*
X0005650Y0025299D02*
X0005650Y0025666D01*
X0005833Y0026035D02*
X0005650Y0026219D01*
X0005650Y0026586D01*
X0005833Y0026769D01*
X0006567Y0026769D01*
X0006751Y0026586D01*
X0006751Y0026219D01*
X0006567Y0026035D01*
X0005833Y0026035D01*
X0005650Y0027140D02*
X0005650Y0027874D01*
X0005650Y0027507D02*
X0006751Y0027507D01*
X0006384Y0027140D01*
X0006567Y0028245D02*
X0006751Y0028429D01*
X0006751Y0028795D01*
X0006567Y0028979D01*
X0006384Y0028979D01*
X0006200Y0028795D01*
X0006017Y0028979D01*
X0005833Y0028979D01*
X0005650Y0028795D01*
X0005650Y0028429D01*
X0005833Y0028245D01*
X0006200Y0028612D02*
X0006200Y0028795D01*
X0005833Y0033089D02*
X0005650Y0033272D01*
X0005650Y0033639D01*
X0005833Y0033823D01*
X0006200Y0033823D01*
X0006200Y0033456D01*
X0006567Y0033089D02*
X0005833Y0033089D01*
X0006567Y0033089D02*
X0006751Y0033272D01*
X0006751Y0033639D01*
X0006567Y0033823D01*
X0006751Y0034194D02*
X0006751Y0034744D01*
X0006567Y0034928D01*
X0006200Y0034928D01*
X0006017Y0034744D01*
X0006017Y0034194D01*
X0005650Y0034194D02*
X0006751Y0034194D01*
X0006751Y0035299D02*
X0006751Y0035666D01*
X0006751Y0035482D02*
X0005650Y0035482D01*
X0005650Y0035299D02*
X0005650Y0035666D01*
X0005833Y0036035D02*
X0005650Y0036219D01*
X0005650Y0036586D01*
X0005833Y0036769D01*
X0006567Y0036769D01*
X0006751Y0036586D01*
X0006751Y0036219D01*
X0006567Y0036035D01*
X0005833Y0036035D01*
X0005650Y0037140D02*
X0005650Y0037874D01*
X0005650Y0037507D02*
X0006751Y0037507D01*
X0006384Y0037140D01*
X0006567Y0038245D02*
X0006751Y0038429D01*
X0006751Y0038795D01*
X0006567Y0038979D01*
X0006384Y0038979D01*
X0005650Y0038245D01*
X0005650Y0038979D01*
X0005833Y0044339D02*
X0005650Y0044522D01*
X0005650Y0044889D01*
X0005833Y0045073D01*
X0006200Y0045073D01*
X0006200Y0044706D01*
X0006567Y0044339D02*
X0005833Y0044339D01*
X0006567Y0044339D02*
X0006751Y0044522D01*
X0006751Y0044889D01*
X0006567Y0045073D01*
X0006751Y0045444D02*
X0006751Y0045994D01*
X0006567Y0046178D01*
X0006200Y0046178D01*
X0006017Y0045994D01*
X0006017Y0045444D01*
X0005650Y0045444D02*
X0006751Y0045444D01*
X0006751Y0046549D02*
X0006751Y0046916D01*
X0006751Y0046732D02*
X0005650Y0046732D01*
X0005650Y0046549D02*
X0005650Y0046916D01*
X0005833Y0047285D02*
X0005650Y0047469D01*
X0005650Y0047836D01*
X0005833Y0048019D01*
X0006567Y0048019D01*
X0006751Y0047836D01*
X0006751Y0047469D01*
X0006567Y0047285D01*
X0005833Y0047285D01*
X0005650Y0048390D02*
X0005650Y0049124D01*
X0005650Y0048757D02*
X0006751Y0048757D01*
X0006384Y0048390D01*
X0006200Y0049495D02*
X0006200Y0050229D01*
X0005650Y0050045D02*
X0006751Y0050045D01*
X0006200Y0049495D01*
X0005833Y0054339D02*
X0005650Y0054522D01*
X0005650Y0054889D01*
X0005833Y0055073D01*
X0006200Y0055073D01*
X0006200Y0054706D01*
X0006567Y0054339D02*
X0005833Y0054339D01*
X0006567Y0054339D02*
X0006751Y0054522D01*
X0006751Y0054889D01*
X0006567Y0055073D01*
X0006751Y0055444D02*
X0006751Y0055994D01*
X0006567Y0056178D01*
X0006200Y0056178D01*
X0006017Y0055994D01*
X0006017Y0055444D01*
X0005650Y0055444D02*
X0006751Y0055444D01*
X0006751Y0056549D02*
X0006751Y0056916D01*
X0006751Y0056732D02*
X0005650Y0056732D01*
X0005650Y0056549D02*
X0005650Y0056916D01*
X0005833Y0057285D02*
X0005650Y0057469D01*
X0005650Y0057836D01*
X0005833Y0058019D01*
X0006567Y0058019D01*
X0006751Y0057836D01*
X0006751Y0057469D01*
X0006567Y0057285D01*
X0005833Y0057285D01*
X0005650Y0058390D02*
X0005650Y0059124D01*
X0005650Y0058757D02*
X0006751Y0058757D01*
X0006384Y0058390D01*
X0006200Y0059495D02*
X0005833Y0059495D01*
X0005650Y0059679D01*
X0005650Y0060045D01*
X0005833Y0060229D01*
X0006017Y0060229D01*
X0006200Y0060045D01*
X0006200Y0059495D01*
X0006567Y0059862D01*
X0006751Y0060229D01*
X0006567Y0064339D02*
X0005833Y0064339D01*
X0005650Y0064522D01*
X0005650Y0064889D01*
X0005833Y0065073D01*
X0006200Y0065073D01*
X0006200Y0064706D01*
X0006567Y0065073D02*
X0006751Y0064889D01*
X0006751Y0064522D01*
X0006567Y0064339D01*
X0006751Y0065444D02*
X0006751Y0065994D01*
X0006567Y0066178D01*
X0006200Y0066178D01*
X0006017Y0065994D01*
X0006017Y0065444D01*
X0005650Y0065444D02*
X0006751Y0065444D01*
X0006751Y0066549D02*
X0006751Y0066916D01*
X0006751Y0066732D02*
X0005650Y0066732D01*
X0005650Y0066549D02*
X0005650Y0066916D01*
X0005833Y0067285D02*
X0005650Y0067469D01*
X0005650Y0067836D01*
X0005833Y0068019D01*
X0006567Y0068019D01*
X0006751Y0067836D01*
X0006751Y0067469D01*
X0006567Y0067285D01*
X0005833Y0067285D01*
X0005833Y0068390D02*
X0006567Y0069124D01*
X0005833Y0069124D01*
X0005650Y0068941D01*
X0005650Y0068574D01*
X0005833Y0068390D01*
X0006567Y0068390D01*
X0006751Y0068574D01*
X0006751Y0068941D01*
X0006567Y0069124D01*
X0006751Y0069495D02*
X0006200Y0069495D01*
X0006384Y0069862D01*
X0006384Y0070045D01*
X0006200Y0070229D01*
X0005833Y0070229D01*
X0005650Y0070045D01*
X0005650Y0069679D01*
X0005833Y0069495D01*
X0006751Y0069495D02*
X0006751Y0070229D01*
X0006567Y0074339D02*
X0005833Y0074339D01*
X0005650Y0074522D01*
X0005650Y0074889D01*
X0005833Y0075073D01*
X0006200Y0075073D01*
X0006200Y0074706D01*
X0006567Y0075073D02*
X0006751Y0074889D01*
X0006751Y0074522D01*
X0006567Y0074339D01*
X0006751Y0075444D02*
X0005650Y0075444D01*
X0006017Y0075444D02*
X0006017Y0075994D01*
X0006200Y0076178D01*
X0006567Y0076178D01*
X0006751Y0075994D01*
X0006751Y0075444D01*
X0006751Y0076549D02*
X0006751Y0076916D01*
X0006751Y0076732D02*
X0005650Y0076732D01*
X0005650Y0076549D02*
X0005650Y0076916D01*
X0005833Y0077285D02*
X0005650Y0077469D01*
X0005650Y0077836D01*
X0005833Y0078019D01*
X0006567Y0078019D01*
X0006751Y0077836D01*
X0006751Y0077469D01*
X0006567Y0077285D01*
X0005833Y0077285D01*
X0005833Y0078390D02*
X0006567Y0079124D01*
X0005833Y0079124D01*
X0005650Y0078941D01*
X0005650Y0078574D01*
X0005833Y0078390D01*
X0006567Y0078390D01*
X0006751Y0078574D01*
X0006751Y0078941D01*
X0006567Y0079124D01*
X0006200Y0079495D02*
X0006200Y0080229D01*
X0005650Y0080045D02*
X0006751Y0080045D01*
X0006200Y0079495D01*
X0112600Y0038979D02*
X0112600Y0038245D01*
X0113701Y0038245D01*
X0113701Y0038979D01*
X0113150Y0038612D02*
X0113150Y0038245D01*
X0113150Y0037874D02*
X0112967Y0037691D01*
X0112967Y0037140D01*
X0112600Y0037140D02*
X0113701Y0037140D01*
X0113701Y0037691D01*
X0113517Y0037874D01*
X0113150Y0037874D01*
X0112967Y0037507D02*
X0112600Y0037874D01*
X0112783Y0036769D02*
X0113701Y0036769D01*
X0113701Y0036035D02*
X0112783Y0036035D01*
X0112600Y0036219D01*
X0112600Y0036586D01*
X0112783Y0036769D01*
X0112783Y0035664D02*
X0112600Y0035481D01*
X0112600Y0035114D01*
X0112783Y0034930D01*
X0113150Y0035114D02*
X0113150Y0035481D01*
X0112967Y0035664D01*
X0112783Y0035664D01*
X0113150Y0035114D02*
X0113334Y0034930D01*
X0113517Y0034930D01*
X0113701Y0035114D01*
X0113701Y0035481D01*
X0113517Y0035664D01*
X0114400Y0035664D02*
X0115134Y0035664D01*
X0115501Y0035297D01*
X0115134Y0034930D01*
X0114400Y0034930D01*
X0114583Y0034559D02*
X0114400Y0034376D01*
X0114400Y0033825D01*
X0115501Y0033825D01*
X0115501Y0034376D01*
X0115317Y0034559D01*
X0115134Y0034559D01*
X0114950Y0034376D01*
X0114950Y0033825D01*
X0114767Y0033454D02*
X0115501Y0033454D01*
X0115501Y0032720D02*
X0114767Y0032720D01*
X0114400Y0033087D01*
X0114767Y0033454D01*
X0114950Y0034376D02*
X0114767Y0034559D01*
X0114583Y0034559D01*
X0114950Y0034930D02*
X0114950Y0035664D01*
X0115501Y0036035D02*
X0115501Y0036769D01*
X0115501Y0036402D02*
X0114400Y0036402D01*
X0113701Y0034559D02*
X0113701Y0033825D01*
X0112600Y0033825D01*
X0112600Y0034559D01*
X0113150Y0034192D02*
X0113150Y0033825D01*
X0112600Y0033454D02*
X0113701Y0033454D01*
X0113334Y0033087D01*
X0113701Y0032720D01*
X0112600Y0032720D01*
X0114350Y0026926D02*
X0115451Y0026926D01*
X0115451Y0026192D02*
X0114350Y0026926D01*
X0114350Y0026192D02*
X0115451Y0026192D01*
X0115451Y0025822D02*
X0115451Y0025455D01*
X0115451Y0025638D02*
X0114350Y0025638D01*
X0114350Y0025455D02*
X0114350Y0025822D01*
X0114717Y0025084D02*
X0115451Y0025084D01*
X0115451Y0024350D02*
X0114717Y0024350D01*
X0114350Y0024717D01*
X0114717Y0025084D01*
X0114583Y0016479D02*
X0115317Y0016479D01*
X0115501Y0016296D01*
X0115501Y0015745D01*
X0114400Y0015745D01*
X0114400Y0016296D01*
X0114583Y0016479D01*
X0114400Y0015374D02*
X0115501Y0015374D01*
X0115501Y0014640D02*
X0114400Y0014640D01*
X0114583Y0014269D02*
X0114950Y0014269D01*
X0114950Y0013902D01*
X0114583Y0013535D02*
X0114400Y0013719D01*
X0114400Y0014086D01*
X0114583Y0014269D01*
X0114583Y0013535D02*
X0115317Y0013535D01*
X0115501Y0013719D01*
X0115501Y0014086D01*
X0115317Y0014269D01*
X0115501Y0014640D02*
X0114400Y0015374D01*
X0114767Y0043680D02*
X0114400Y0044047D01*
X0114767Y0044414D01*
X0115501Y0044414D01*
X0115501Y0044785D02*
X0114400Y0044785D01*
X0114400Y0045336D01*
X0114583Y0045519D01*
X0114767Y0045519D01*
X0114950Y0045336D01*
X0114950Y0044785D01*
X0114950Y0045336D02*
X0115134Y0045519D01*
X0115317Y0045519D01*
X0115501Y0045336D01*
X0115501Y0044785D01*
X0115501Y0043680D02*
X0114767Y0043680D01*
X0114950Y0045890D02*
X0114950Y0046624D01*
X0115134Y0046624D02*
X0114400Y0046624D01*
X0114400Y0045890D02*
X0115134Y0045890D01*
X0115501Y0046257D01*
X0115134Y0046624D01*
X0115501Y0046995D02*
X0115501Y0047729D01*
X0115501Y0047362D02*
X0114400Y0047362D01*
X0114767Y0054785D02*
X0114400Y0055152D01*
X0114767Y0055519D01*
X0115501Y0055519D01*
X0115317Y0055890D02*
X0114583Y0055890D01*
X0114400Y0056074D01*
X0114400Y0056441D01*
X0114583Y0056624D01*
X0114583Y0056995D02*
X0114400Y0057179D01*
X0114400Y0057546D01*
X0114583Y0057729D01*
X0114583Y0056995D02*
X0115317Y0056995D01*
X0115501Y0057179D01*
X0115501Y0057546D01*
X0115317Y0057729D01*
X0115317Y0056624D02*
X0115501Y0056441D01*
X0115501Y0056074D01*
X0115317Y0055890D01*
X0115501Y0054785D02*
X0114767Y0054785D01*
D11*
X0106800Y0056800D03*
X0106800Y0046800D03*
X0106800Y0036800D03*
X0106800Y0026800D03*
X0106800Y0016800D03*
X0106800Y0066800D03*
X0106800Y0076800D03*
X0106800Y0086800D03*
X0016800Y0086800D03*
X0016800Y0076800D03*
X0016800Y0066800D03*
X0016800Y0056800D03*
X0016800Y0046800D03*
X0016800Y0036800D03*
X0016800Y0026800D03*
X0016800Y0016800D03*
D12*
X0009300Y0013050D02*
X0010550Y0094300D01*
X0013050Y0096800D01*
X0036800Y0096800D01*
X0036800Y0100550D01*
X0036800Y0096800D02*
X0036800Y0064300D01*
X0056800Y0099300D02*
X0046800Y0109300D01*
X0016800Y0109300D01*
X0056800Y0099300D02*
X0099300Y0099300D01*
X0099300Y0114300D01*
X0099300Y0086800D02*
X0099300Y0064300D01*
X0106800Y0056800D01*
X0086800Y0036800D01*
X0086800Y0029300D01*
X0099300Y0036800D02*
X0080550Y0009300D01*
X0013050Y0009300D01*
X0009300Y0013050D01*
X0099300Y0036800D02*
X0106800Y0036800D01*
D13*
X0086800Y0029300D03*
X0086800Y0046800D03*
X0086800Y0054300D03*
X0056800Y0099300D03*
X0036800Y0100550D03*
X0016800Y0109300D03*
X0036800Y0064300D03*
X0099300Y0114300D03*
D14*
X0099300Y0099300D02*
X0099300Y0086800D01*
D15*
X0086800Y0054300D02*
X0039300Y0054300D01*
X0016800Y0076800D01*
X0016800Y0066800D02*
X0036800Y0046800D01*
X0086800Y0046800D01*
M02*
