%
M48
M72
T01C0.02400
T02C0.04000
T03C0.59055
%
T01
X56315Y14976
X56315Y38598
X56315Y46472
X99622Y30724
X99307Y24819
X103559Y54346
X133087Y111433
X133087Y123244
X28756Y105528
T02
X32399Y32539
X32399Y42539
X32399Y52539
X32399Y62539
X32399Y72539
X32399Y82539
X127177Y72539
X127177Y62539
X127177Y52539
X127177Y42539
X127177Y32539
T03
X79937Y127181
M30
