G75*
%MOIN*%
%OFA0B0*%
%FSLAX25Y25*%
%IPPOS*%
%LPD*%
%AMOC8*
5,1,8,0,0,1.08239X$1,22.5*
%
%ADD10C,0.01600*%
%ADD11C,0.00800*%
%ADD12C,0.00100*%
%ADD13C,0.00600*%
%ADD14C,0.00500*%
%ADD15C,0.00400*%
%ADD16C,0.00200*%
%ADD17C,0.00000*%
D10*
X0003056Y0065655D02*
X0003075Y0067201D01*
X0003132Y0068746D01*
X0003227Y0070289D01*
X0003359Y0071829D01*
X0003530Y0073366D01*
X0003738Y0074898D01*
X0003983Y0076424D01*
X0004266Y0077944D01*
X0004587Y0079457D01*
X0004944Y0080961D01*
X0005338Y0082456D01*
X0005768Y0083941D01*
X0006235Y0085414D01*
X0006738Y0086876D01*
X0007277Y0088326D01*
X0007851Y0089761D01*
X0008460Y0091182D01*
X0009104Y0092588D01*
X0009782Y0093977D01*
X0010494Y0095349D01*
X0011239Y0096704D01*
X0012018Y0098039D01*
X0012829Y0099356D01*
X0013672Y0100651D01*
X0014547Y0101926D01*
X0015452Y0103179D01*
X0016388Y0104410D01*
X0017355Y0105617D01*
X0018350Y0106800D01*
X0019374Y0107958D01*
X0020426Y0109091D01*
X0021506Y0110197D01*
X0022612Y0111277D01*
X0023745Y0112329D01*
X0024903Y0113353D01*
X0026086Y0114348D01*
X0027293Y0115315D01*
X0028524Y0116251D01*
X0029777Y0117156D01*
X0031052Y0118031D01*
X0032347Y0118874D01*
X0033664Y0119685D01*
X0034999Y0120464D01*
X0036354Y0121209D01*
X0037726Y0121921D01*
X0039115Y0122599D01*
X0040521Y0123243D01*
X0041942Y0123852D01*
X0043377Y0124426D01*
X0044827Y0124965D01*
X0046289Y0125468D01*
X0047762Y0125935D01*
X0049247Y0126365D01*
X0050742Y0126759D01*
X0052246Y0127116D01*
X0053759Y0127437D01*
X0055279Y0127720D01*
X0056805Y0127965D01*
X0058337Y0128173D01*
X0059874Y0128344D01*
X0061414Y0128476D01*
X0062957Y0128571D01*
X0064502Y0128628D01*
X0066048Y0128647D01*
X0067594Y0128628D01*
X0069139Y0128571D01*
X0070682Y0128476D01*
X0072222Y0128344D01*
X0073759Y0128173D01*
X0075291Y0127965D01*
X0076817Y0127720D01*
X0078337Y0127437D01*
X0079850Y0127116D01*
X0081354Y0126759D01*
X0082849Y0126365D01*
X0084334Y0125935D01*
X0085807Y0125468D01*
X0087269Y0124965D01*
X0088719Y0124426D01*
X0090154Y0123852D01*
X0091575Y0123243D01*
X0092981Y0122599D01*
X0094370Y0121921D01*
X0095742Y0121209D01*
X0097097Y0120464D01*
X0098432Y0119685D01*
X0099749Y0118874D01*
X0101044Y0118031D01*
X0102319Y0117156D01*
X0103572Y0116251D01*
X0104803Y0115315D01*
X0106010Y0114348D01*
X0107193Y0113353D01*
X0108351Y0112329D01*
X0109484Y0111277D01*
X0110590Y0110197D01*
X0111670Y0109091D01*
X0112722Y0107958D01*
X0113746Y0106800D01*
X0114741Y0105617D01*
X0115708Y0104410D01*
X0116644Y0103179D01*
X0117549Y0101926D01*
X0118424Y0100651D01*
X0119267Y0099356D01*
X0120078Y0098039D01*
X0120857Y0096704D01*
X0121602Y0095349D01*
X0122314Y0093977D01*
X0122992Y0092588D01*
X0123636Y0091182D01*
X0124245Y0089761D01*
X0124819Y0088326D01*
X0125358Y0086876D01*
X0125861Y0085414D01*
X0126328Y0083941D01*
X0126758Y0082456D01*
X0127152Y0080961D01*
X0127509Y0079457D01*
X0127830Y0077944D01*
X0128113Y0076424D01*
X0128358Y0074898D01*
X0128566Y0073366D01*
X0128737Y0071829D01*
X0128869Y0070289D01*
X0128964Y0068746D01*
X0129021Y0067201D01*
X0129040Y0065655D01*
X0129021Y0064109D01*
X0128964Y0062564D01*
X0128869Y0061021D01*
X0128737Y0059481D01*
X0128566Y0057944D01*
X0128358Y0056412D01*
X0128113Y0054886D01*
X0127830Y0053366D01*
X0127509Y0051853D01*
X0127152Y0050349D01*
X0126758Y0048854D01*
X0126328Y0047369D01*
X0125861Y0045896D01*
X0125358Y0044434D01*
X0124819Y0042984D01*
X0124245Y0041549D01*
X0123636Y0040128D01*
X0122992Y0038722D01*
X0122314Y0037333D01*
X0121602Y0035961D01*
X0120857Y0034606D01*
X0120078Y0033271D01*
X0119267Y0031954D01*
X0118424Y0030659D01*
X0117549Y0029384D01*
X0116644Y0028131D01*
X0115708Y0026900D01*
X0114741Y0025693D01*
X0113746Y0024510D01*
X0112722Y0023352D01*
X0111670Y0022219D01*
X0110590Y0021113D01*
X0109484Y0020033D01*
X0108351Y0018981D01*
X0107193Y0017957D01*
X0106010Y0016962D01*
X0104803Y0015995D01*
X0103572Y0015059D01*
X0102319Y0014154D01*
X0101044Y0013279D01*
X0099749Y0012436D01*
X0098432Y0011625D01*
X0097097Y0010846D01*
X0095742Y0010101D01*
X0094370Y0009389D01*
X0092981Y0008711D01*
X0091575Y0008067D01*
X0090154Y0007458D01*
X0088719Y0006884D01*
X0087269Y0006345D01*
X0085807Y0005842D01*
X0084334Y0005375D01*
X0082849Y0004945D01*
X0081354Y0004551D01*
X0079850Y0004194D01*
X0078337Y0003873D01*
X0076817Y0003590D01*
X0075291Y0003345D01*
X0073759Y0003137D01*
X0072222Y0002966D01*
X0070682Y0002834D01*
X0069139Y0002739D01*
X0067594Y0002682D01*
X0066048Y0002663D01*
X0064502Y0002682D01*
X0062957Y0002739D01*
X0061414Y0002834D01*
X0059874Y0002966D01*
X0058337Y0003137D01*
X0056805Y0003345D01*
X0055279Y0003590D01*
X0053759Y0003873D01*
X0052246Y0004194D01*
X0050742Y0004551D01*
X0049247Y0004945D01*
X0047762Y0005375D01*
X0046289Y0005842D01*
X0044827Y0006345D01*
X0043377Y0006884D01*
X0041942Y0007458D01*
X0040521Y0008067D01*
X0039115Y0008711D01*
X0037726Y0009389D01*
X0036354Y0010101D01*
X0034999Y0010846D01*
X0033664Y0011625D01*
X0032347Y0012436D01*
X0031052Y0013279D01*
X0029777Y0014154D01*
X0028524Y0015059D01*
X0027293Y0015995D01*
X0026086Y0016962D01*
X0024903Y0017957D01*
X0023745Y0018981D01*
X0022612Y0020033D01*
X0021506Y0021113D01*
X0020426Y0022219D01*
X0019374Y0023352D01*
X0018350Y0024510D01*
X0017355Y0025693D01*
X0016388Y0026900D01*
X0015452Y0028131D01*
X0014547Y0029384D01*
X0013672Y0030659D01*
X0012829Y0031954D01*
X0012018Y0033271D01*
X0011239Y0034606D01*
X0010494Y0035961D01*
X0009782Y0037333D01*
X0009104Y0038722D01*
X0008460Y0040128D01*
X0007851Y0041549D01*
X0007277Y0042984D01*
X0006738Y0044434D01*
X0006235Y0045896D01*
X0005768Y0047369D01*
X0005338Y0048854D01*
X0004944Y0050349D01*
X0004587Y0051853D01*
X0004266Y0053366D01*
X0003983Y0054886D01*
X0003738Y0056412D01*
X0003530Y0057944D01*
X0003359Y0059481D01*
X0003227Y0061021D01*
X0003132Y0062564D01*
X0003075Y0064109D01*
X0003056Y0065655D01*
D11*
X0027308Y0052437D02*
X0027308Y0049287D01*
X0027308Y0052437D02*
X0029670Y0052437D01*
X0035969Y0052437D02*
X0038331Y0052437D01*
X0038331Y0049287D01*
X0046412Y0023839D02*
X0046412Y0020690D01*
X0046412Y0023839D02*
X0048774Y0023839D01*
X0055073Y0023839D02*
X0057436Y0023839D01*
X0057436Y0020690D01*
X0077298Y0020842D02*
X0077298Y0023992D01*
X0079660Y0023992D01*
X0085959Y0023992D02*
X0088321Y0023992D01*
X0088321Y0020842D01*
X0092987Y0049208D02*
X0092987Y0052358D01*
X0095349Y0052358D01*
X0101648Y0052358D02*
X0104010Y0052358D01*
X0104010Y0049208D01*
D12*
X0097522Y0056652D02*
X0097522Y0058153D01*
X0096772Y0057403D01*
X0097773Y0057403D01*
X0096299Y0057903D02*
X0096299Y0056902D01*
X0096049Y0056652D01*
X0095549Y0056652D01*
X0095299Y0056902D01*
X0095299Y0057903D01*
X0095549Y0058153D01*
X0096049Y0058153D01*
X0096299Y0057903D01*
X0095799Y0057152D02*
X0096299Y0056652D01*
X0097323Y0064459D02*
X0098323Y0064459D01*
X0098796Y0064709D02*
X0098796Y0066210D01*
X0099797Y0066210D02*
X0099797Y0064709D01*
X0099296Y0065209D01*
X0098796Y0064709D01*
X0100269Y0064709D02*
X0100269Y0066210D01*
X0100269Y0065460D02*
X0101270Y0065460D01*
X0101270Y0066210D02*
X0101270Y0064709D01*
X0101742Y0064709D02*
X0102243Y0064709D01*
X0101992Y0064709D02*
X0101992Y0066210D01*
X0101742Y0066210D02*
X0102243Y0066210D01*
X0102724Y0066210D02*
X0103725Y0066210D01*
X0104198Y0066210D02*
X0104198Y0064709D01*
X0105199Y0064709D01*
X0104698Y0065460D02*
X0104198Y0065460D01*
X0104198Y0066210D02*
X0105199Y0066210D01*
X0103225Y0066210D02*
X0103225Y0064709D01*
X0096850Y0064709D02*
X0096350Y0065209D01*
X0096600Y0065209D02*
X0095849Y0065209D01*
X0095849Y0064709D02*
X0095849Y0066210D01*
X0096600Y0066210D01*
X0096850Y0065960D01*
X0096850Y0065460D01*
X0096600Y0065209D01*
X0098651Y0077222D02*
X0098651Y0078723D01*
X0099401Y0078723D01*
X0099652Y0078473D01*
X0099652Y0077973D01*
X0099401Y0077722D01*
X0098651Y0077722D01*
X0099151Y0077722D02*
X0099652Y0077222D01*
X0100124Y0077222D02*
X0100124Y0078723D01*
X0100875Y0078723D01*
X0101125Y0078473D01*
X0101125Y0077973D01*
X0100875Y0077722D01*
X0100124Y0077722D01*
X0101597Y0077222D02*
X0102348Y0077222D01*
X0102598Y0077472D01*
X0102598Y0078473D01*
X0102348Y0078723D01*
X0101597Y0078723D01*
X0101597Y0077222D01*
X0103071Y0076972D02*
X0104071Y0076972D01*
X0104544Y0077222D02*
X0105044Y0077722D01*
X0105545Y0077222D01*
X0105545Y0078723D01*
X0104544Y0078723D02*
X0104544Y0077222D01*
X0092352Y0084700D02*
X0091351Y0084700D01*
X0091351Y0086201D01*
X0092352Y0086201D01*
X0091852Y0085450D02*
X0091351Y0085450D01*
X0090879Y0084950D02*
X0090879Y0086201D01*
X0089878Y0086201D02*
X0089878Y0084950D01*
X0090128Y0084700D01*
X0090629Y0084700D01*
X0090879Y0084950D01*
X0089406Y0084700D02*
X0088405Y0084700D01*
X0088405Y0086201D01*
X0087933Y0085951D02*
X0087933Y0085700D01*
X0087682Y0085450D01*
X0086932Y0085450D01*
X0087682Y0085450D02*
X0087933Y0085200D01*
X0087933Y0084950D01*
X0087682Y0084700D01*
X0086932Y0084700D01*
X0086932Y0086201D01*
X0087682Y0086201D01*
X0087933Y0085951D01*
X0086459Y0084449D02*
X0085458Y0084449D01*
X0084986Y0084700D02*
X0084486Y0085200D01*
X0084736Y0085200D02*
X0083985Y0085200D01*
X0083985Y0084700D02*
X0083985Y0086201D01*
X0084736Y0086201D01*
X0084986Y0085951D01*
X0084986Y0085450D01*
X0084736Y0085200D01*
X0084591Y0097203D02*
X0084090Y0097704D01*
X0084341Y0097704D02*
X0083590Y0097704D01*
X0083590Y0097203D02*
X0083590Y0098704D01*
X0084341Y0098704D01*
X0084591Y0098454D01*
X0084591Y0097954D01*
X0084341Y0097704D01*
X0085063Y0097704D02*
X0085814Y0097704D01*
X0086064Y0097954D01*
X0086064Y0098454D01*
X0085814Y0098704D01*
X0085063Y0098704D01*
X0085063Y0097203D01*
X0086536Y0097203D02*
X0087287Y0097203D01*
X0087537Y0097453D01*
X0087537Y0098454D01*
X0087287Y0098704D01*
X0086536Y0098704D01*
X0086536Y0097203D01*
X0088010Y0096953D02*
X0089010Y0096953D01*
X0089483Y0097203D02*
X0090234Y0097203D01*
X0090484Y0097453D01*
X0090484Y0097704D01*
X0090234Y0097954D01*
X0089483Y0097954D01*
X0089483Y0098704D02*
X0089483Y0097203D01*
X0090234Y0097954D02*
X0090484Y0098204D01*
X0090484Y0098454D01*
X0090234Y0098704D01*
X0089483Y0098704D01*
X0089399Y0098965D02*
X0088648Y0098965D01*
X0088648Y0100467D01*
X0089399Y0100467D01*
X0089649Y0100216D01*
X0089649Y0099966D01*
X0089399Y0099716D01*
X0088648Y0099716D01*
X0088176Y0099716D02*
X0087675Y0099716D01*
X0088176Y0099716D02*
X0088176Y0099216D01*
X0087926Y0098965D01*
X0087425Y0098965D01*
X0087175Y0099216D01*
X0087175Y0100216D01*
X0087425Y0100467D01*
X0087926Y0100467D01*
X0088176Y0100216D01*
X0089399Y0099716D02*
X0089649Y0099466D01*
X0089649Y0099216D01*
X0089399Y0098965D01*
X0086702Y0098965D02*
X0086202Y0099466D01*
X0086452Y0099466D02*
X0085702Y0099466D01*
X0085702Y0098965D02*
X0085702Y0100467D01*
X0086452Y0100467D01*
X0086702Y0100216D01*
X0086702Y0099716D01*
X0086452Y0099466D01*
X0100143Y0096970D02*
X0100143Y0095469D01*
X0100143Y0095969D02*
X0100894Y0095969D01*
X0101144Y0096220D01*
X0101144Y0096720D01*
X0100894Y0096970D01*
X0100143Y0096970D01*
X0100644Y0095969D02*
X0101144Y0095469D01*
X0101617Y0095719D02*
X0101617Y0096720D01*
X0101867Y0096970D01*
X0102367Y0096970D01*
X0102618Y0096720D01*
X0102618Y0096220D02*
X0102117Y0096220D01*
X0102618Y0096220D02*
X0102618Y0095719D01*
X0102367Y0095469D01*
X0101867Y0095469D01*
X0101617Y0095719D01*
X0103090Y0095469D02*
X0103590Y0095969D01*
X0104091Y0095469D01*
X0104091Y0096970D01*
X0103090Y0096970D02*
X0103090Y0095469D01*
X0038527Y0089518D02*
X0038277Y0089768D01*
X0037776Y0089768D01*
X0037526Y0089518D01*
X0037526Y0088517D01*
X0037776Y0088267D01*
X0038277Y0088267D01*
X0038527Y0088517D01*
X0038527Y0089017D01*
X0038026Y0089017D01*
X0037054Y0088016D02*
X0036053Y0088016D01*
X0035580Y0088517D02*
X0035580Y0089518D01*
X0035330Y0089768D01*
X0034580Y0089768D01*
X0034580Y0088267D01*
X0035330Y0088267D01*
X0035580Y0088517D01*
X0034107Y0089017D02*
X0034107Y0089518D01*
X0033857Y0089768D01*
X0033106Y0089768D01*
X0033106Y0088267D01*
X0032634Y0088267D02*
X0032133Y0088767D01*
X0032384Y0088767D02*
X0031633Y0088767D01*
X0031633Y0088267D02*
X0031633Y0089768D01*
X0032384Y0089768D01*
X0032634Y0089518D01*
X0032634Y0089017D01*
X0032384Y0088767D01*
X0033106Y0088767D02*
X0033857Y0088767D01*
X0034107Y0089017D01*
X0034048Y0078675D02*
X0034048Y0077174D01*
X0035049Y0077174D01*
X0035521Y0077174D02*
X0036522Y0077174D01*
X0036995Y0077174D02*
X0036995Y0078675D01*
X0037995Y0077174D01*
X0037995Y0078675D01*
X0036522Y0078675D02*
X0035521Y0078675D01*
X0035521Y0077174D01*
X0035521Y0077925D02*
X0036022Y0077925D01*
X0035049Y0078675D02*
X0034048Y0078675D01*
X0033576Y0078425D02*
X0033325Y0078675D01*
X0032575Y0078675D01*
X0032575Y0077174D01*
X0032575Y0077674D02*
X0033325Y0077674D01*
X0033576Y0077925D01*
X0033576Y0078425D01*
X0034048Y0077925D02*
X0034548Y0077925D01*
X0033576Y0077174D02*
X0033075Y0077674D01*
X0032102Y0077424D02*
X0032102Y0077925D01*
X0031602Y0077925D01*
X0032102Y0078425D02*
X0031852Y0078675D01*
X0031352Y0078675D01*
X0031102Y0078425D01*
X0031102Y0077424D01*
X0031352Y0077174D01*
X0031852Y0077174D01*
X0032102Y0077424D01*
X0030629Y0076924D02*
X0029628Y0076924D01*
X0029156Y0077174D02*
X0028655Y0077674D01*
X0028906Y0077674D02*
X0028155Y0077674D01*
X0028155Y0077174D02*
X0028155Y0078675D01*
X0028906Y0078675D01*
X0029156Y0078425D01*
X0029156Y0077925D01*
X0028906Y0077674D01*
X0023712Y0074592D02*
X0023712Y0073592D01*
X0023462Y0073341D01*
X0022711Y0073341D01*
X0022711Y0074843D01*
X0023462Y0074843D01*
X0023712Y0074592D01*
X0022239Y0074843D02*
X0021238Y0074843D01*
X0021238Y0073341D01*
X0022239Y0073341D01*
X0021738Y0074092D02*
X0021238Y0074092D01*
X0020766Y0074092D02*
X0020515Y0073842D01*
X0019765Y0073842D01*
X0020265Y0073842D02*
X0020766Y0073341D01*
X0020766Y0074092D02*
X0020766Y0074592D01*
X0020515Y0074843D01*
X0019765Y0074843D01*
X0019765Y0073341D01*
X0019292Y0073091D02*
X0018291Y0073091D01*
X0017819Y0073341D02*
X0017319Y0073842D01*
X0017569Y0073842D02*
X0016818Y0073842D01*
X0016818Y0073341D02*
X0016818Y0074843D01*
X0017569Y0074843D01*
X0017819Y0074592D01*
X0017819Y0074092D01*
X0017569Y0073842D01*
X0017603Y0084618D02*
X0017102Y0085119D01*
X0017352Y0085119D02*
X0016602Y0085119D01*
X0016602Y0084618D02*
X0016602Y0086119D01*
X0017352Y0086119D01*
X0017603Y0085869D01*
X0017603Y0085369D01*
X0017352Y0085119D01*
X0018075Y0085119D02*
X0018826Y0085119D01*
X0019076Y0085369D01*
X0019076Y0085869D01*
X0018826Y0086119D01*
X0018075Y0086119D01*
X0018075Y0084618D01*
X0019548Y0084618D02*
X0019548Y0086119D01*
X0020299Y0086119D01*
X0020549Y0085869D01*
X0020549Y0084868D01*
X0020299Y0084618D01*
X0019548Y0084618D01*
X0021021Y0084368D02*
X0022022Y0084368D01*
X0022495Y0084618D02*
X0022495Y0086119D01*
X0023245Y0086119D01*
X0023496Y0085869D01*
X0023496Y0085369D01*
X0023245Y0085119D01*
X0022495Y0085119D01*
X0022995Y0085119D02*
X0023496Y0084618D01*
X0022346Y0086765D02*
X0021845Y0087266D01*
X0022096Y0087266D02*
X0021345Y0087266D01*
X0021345Y0086765D02*
X0021345Y0088267D01*
X0022096Y0088267D01*
X0022346Y0088016D01*
X0022346Y0087516D01*
X0022096Y0087266D01*
X0020873Y0087516D02*
X0020372Y0087516D01*
X0020873Y0087516D02*
X0020873Y0087016D01*
X0020622Y0086765D01*
X0020122Y0086765D01*
X0019872Y0087016D01*
X0019872Y0088016D01*
X0020122Y0088267D01*
X0020622Y0088267D01*
X0020873Y0088016D01*
X0019399Y0088016D02*
X0019399Y0087516D01*
X0019149Y0087266D01*
X0018398Y0087266D01*
X0018398Y0086765D02*
X0018398Y0088267D01*
X0019149Y0088267D01*
X0019399Y0088016D01*
X0018899Y0087266D02*
X0019399Y0086765D01*
X0032999Y0106800D02*
X0032999Y0108301D01*
X0033750Y0108301D01*
X0034000Y0108051D01*
X0034000Y0107550D01*
X0033750Y0107300D01*
X0032999Y0107300D01*
X0033500Y0107300D02*
X0034000Y0106800D01*
X0034473Y0107050D02*
X0034723Y0106800D01*
X0035223Y0106800D01*
X0035473Y0107050D01*
X0035473Y0107550D01*
X0034973Y0107550D01*
X0034473Y0108051D02*
X0034473Y0107050D01*
X0034473Y0108051D02*
X0034723Y0108301D01*
X0035223Y0108301D01*
X0035473Y0108051D01*
X0035946Y0108051D02*
X0035946Y0107050D01*
X0036196Y0106800D01*
X0036696Y0106800D01*
X0036947Y0107050D01*
X0036947Y0107550D01*
X0036446Y0107550D01*
X0035946Y0108051D02*
X0036196Y0108301D01*
X0036696Y0108301D01*
X0036947Y0108051D01*
X0031593Y0058232D02*
X0031593Y0056731D01*
X0031093Y0056731D02*
X0032094Y0056731D01*
X0031093Y0057732D02*
X0031593Y0058232D01*
X0030620Y0057982D02*
X0030620Y0056981D01*
X0030370Y0056731D01*
X0029870Y0056731D01*
X0029619Y0056981D01*
X0029619Y0057982D01*
X0029870Y0058232D01*
X0030370Y0058232D01*
X0030620Y0057982D01*
X0030120Y0057231D02*
X0030620Y0056731D01*
X0048974Y0029635D02*
X0049474Y0029635D01*
X0049725Y0029384D01*
X0049725Y0028384D01*
X0049474Y0028133D01*
X0048974Y0028133D01*
X0048724Y0028384D01*
X0048724Y0029384D01*
X0048974Y0029635D01*
X0049224Y0028634D02*
X0049725Y0028133D01*
X0050197Y0028133D02*
X0051198Y0029134D01*
X0051198Y0029384D01*
X0050948Y0029635D01*
X0050447Y0029635D01*
X0050197Y0029384D01*
X0050197Y0028133D02*
X0051198Y0028133D01*
X0079610Y0028536D02*
X0079860Y0028286D01*
X0080360Y0028286D01*
X0080610Y0028536D01*
X0080610Y0029537D01*
X0080360Y0029787D01*
X0079860Y0029787D01*
X0079610Y0029537D01*
X0079610Y0028536D01*
X0080110Y0028786D02*
X0080610Y0028286D01*
X0081083Y0028536D02*
X0081333Y0028286D01*
X0081833Y0028286D01*
X0082084Y0028536D01*
X0082084Y0028786D01*
X0081833Y0029036D01*
X0081583Y0029036D01*
X0081833Y0029036D02*
X0082084Y0029287D01*
X0082084Y0029537D01*
X0081833Y0029787D01*
X0081333Y0029787D01*
X0081083Y0029537D01*
D13*
X0101440Y0067147D02*
X0103802Y0067147D01*
X0103802Y0071871D02*
X0101440Y0071871D01*
X0101786Y0079660D02*
X0104148Y0079660D01*
X0104148Y0084384D02*
X0101786Y0084384D01*
X0101912Y0089807D02*
X0104275Y0089807D01*
X0104275Y0094531D02*
X0101912Y0094531D01*
X0088252Y0101403D02*
X0085890Y0101403D01*
X0085890Y0106128D02*
X0088252Y0106128D01*
X0087721Y0096265D02*
X0085359Y0096265D01*
X0085359Y0091541D02*
X0087721Y0091541D01*
X0088116Y0083762D02*
X0085754Y0083762D01*
X0085754Y0079037D02*
X0088116Y0079037D01*
X0036599Y0079612D02*
X0034237Y0079612D01*
X0034237Y0084336D02*
X0036599Y0084336D01*
X0037130Y0090704D02*
X0034768Y0090704D01*
X0034768Y0095429D02*
X0037130Y0095429D01*
X0037130Y0101137D02*
X0034768Y0101137D01*
X0034768Y0105862D02*
X0037130Y0105862D01*
X0020949Y0093928D02*
X0018587Y0093928D01*
X0018587Y0089203D02*
X0020949Y0089203D01*
X0020733Y0083680D02*
X0018371Y0083680D01*
X0018371Y0078956D02*
X0020733Y0078956D01*
X0020949Y0072404D02*
X0018587Y0072404D01*
X0018587Y0067679D02*
X0020949Y0067679D01*
D14*
X0007417Y0041671D02*
X0006666Y0040920D01*
X0007417Y0041671D02*
X0007417Y0042421D01*
X0006666Y0043172D01*
X0002913Y0043172D01*
X0002913Y0042421D02*
X0002913Y0043923D01*
X0003663Y0045524D02*
X0002913Y0046275D01*
X0002913Y0047776D01*
X0003663Y0048527D01*
X0004414Y0048527D01*
X0007417Y0045524D01*
X0007417Y0048527D01*
X0048521Y0051115D02*
X0048521Y0078671D01*
X0050088Y0080239D01*
X0075744Y0080239D01*
X0075744Y0051115D01*
X0048521Y0051115D01*
X0049560Y0065655D02*
X0049564Y0065963D01*
X0049575Y0066271D01*
X0049594Y0066578D01*
X0049620Y0066885D01*
X0049654Y0067191D01*
X0049696Y0067497D01*
X0049745Y0067801D01*
X0049801Y0068104D01*
X0049865Y0068405D01*
X0049936Y0068705D01*
X0050015Y0069003D01*
X0050100Y0069298D01*
X0050193Y0069592D01*
X0050294Y0069883D01*
X0050401Y0070172D01*
X0050515Y0070458D01*
X0050637Y0070741D01*
X0050765Y0071021D01*
X0050900Y0071298D01*
X0051042Y0071572D01*
X0051191Y0071841D01*
X0051346Y0072108D01*
X0051507Y0072370D01*
X0051675Y0072628D01*
X0051849Y0072882D01*
X0052030Y0073132D01*
X0052216Y0073377D01*
X0052409Y0073617D01*
X0052607Y0073853D01*
X0052811Y0074084D01*
X0053021Y0074309D01*
X0053236Y0074530D01*
X0053457Y0074745D01*
X0053682Y0074955D01*
X0053913Y0075159D01*
X0054149Y0075357D01*
X0054389Y0075550D01*
X0054634Y0075736D01*
X0054884Y0075917D01*
X0055138Y0076091D01*
X0055396Y0076259D01*
X0055658Y0076420D01*
X0055925Y0076575D01*
X0056194Y0076724D01*
X0056468Y0076866D01*
X0056745Y0077001D01*
X0057025Y0077129D01*
X0057308Y0077251D01*
X0057594Y0077365D01*
X0057883Y0077472D01*
X0058174Y0077573D01*
X0058468Y0077666D01*
X0058763Y0077751D01*
X0059061Y0077830D01*
X0059361Y0077901D01*
X0059662Y0077965D01*
X0059965Y0078021D01*
X0060269Y0078070D01*
X0060575Y0078112D01*
X0060881Y0078146D01*
X0061188Y0078172D01*
X0061495Y0078191D01*
X0061803Y0078202D01*
X0062111Y0078206D01*
X0062419Y0078202D01*
X0062727Y0078191D01*
X0063034Y0078172D01*
X0063341Y0078146D01*
X0063647Y0078112D01*
X0063953Y0078070D01*
X0064257Y0078021D01*
X0064560Y0077965D01*
X0064861Y0077901D01*
X0065161Y0077830D01*
X0065459Y0077751D01*
X0065754Y0077666D01*
X0066048Y0077573D01*
X0066339Y0077472D01*
X0066628Y0077365D01*
X0066914Y0077251D01*
X0067197Y0077129D01*
X0067477Y0077001D01*
X0067754Y0076866D01*
X0068028Y0076724D01*
X0068297Y0076575D01*
X0068564Y0076420D01*
X0068826Y0076259D01*
X0069084Y0076091D01*
X0069338Y0075917D01*
X0069588Y0075736D01*
X0069833Y0075550D01*
X0070073Y0075357D01*
X0070309Y0075159D01*
X0070540Y0074955D01*
X0070765Y0074745D01*
X0070986Y0074530D01*
X0071201Y0074309D01*
X0071411Y0074084D01*
X0071615Y0073853D01*
X0071813Y0073617D01*
X0072006Y0073377D01*
X0072192Y0073132D01*
X0072373Y0072882D01*
X0072547Y0072628D01*
X0072715Y0072370D01*
X0072876Y0072108D01*
X0073031Y0071841D01*
X0073180Y0071572D01*
X0073322Y0071298D01*
X0073457Y0071021D01*
X0073585Y0070741D01*
X0073707Y0070458D01*
X0073821Y0070172D01*
X0073928Y0069883D01*
X0074029Y0069592D01*
X0074122Y0069298D01*
X0074207Y0069003D01*
X0074286Y0068705D01*
X0074357Y0068405D01*
X0074421Y0068104D01*
X0074477Y0067801D01*
X0074526Y0067497D01*
X0074568Y0067191D01*
X0074602Y0066885D01*
X0074628Y0066578D01*
X0074647Y0066271D01*
X0074658Y0065963D01*
X0074662Y0065655D01*
X0074658Y0065347D01*
X0074647Y0065039D01*
X0074628Y0064732D01*
X0074602Y0064425D01*
X0074568Y0064119D01*
X0074526Y0063813D01*
X0074477Y0063509D01*
X0074421Y0063206D01*
X0074357Y0062905D01*
X0074286Y0062605D01*
X0074207Y0062307D01*
X0074122Y0062012D01*
X0074029Y0061718D01*
X0073928Y0061427D01*
X0073821Y0061138D01*
X0073707Y0060852D01*
X0073585Y0060569D01*
X0073457Y0060289D01*
X0073322Y0060012D01*
X0073180Y0059738D01*
X0073031Y0059469D01*
X0072876Y0059202D01*
X0072715Y0058940D01*
X0072547Y0058682D01*
X0072373Y0058428D01*
X0072192Y0058178D01*
X0072006Y0057933D01*
X0071813Y0057693D01*
X0071615Y0057457D01*
X0071411Y0057226D01*
X0071201Y0057001D01*
X0070986Y0056780D01*
X0070765Y0056565D01*
X0070540Y0056355D01*
X0070309Y0056151D01*
X0070073Y0055953D01*
X0069833Y0055760D01*
X0069588Y0055574D01*
X0069338Y0055393D01*
X0069084Y0055219D01*
X0068826Y0055051D01*
X0068564Y0054890D01*
X0068297Y0054735D01*
X0068028Y0054586D01*
X0067754Y0054444D01*
X0067477Y0054309D01*
X0067197Y0054181D01*
X0066914Y0054059D01*
X0066628Y0053945D01*
X0066339Y0053838D01*
X0066048Y0053737D01*
X0065754Y0053644D01*
X0065459Y0053559D01*
X0065161Y0053480D01*
X0064861Y0053409D01*
X0064560Y0053345D01*
X0064257Y0053289D01*
X0063953Y0053240D01*
X0063647Y0053198D01*
X0063341Y0053164D01*
X0063034Y0053138D01*
X0062727Y0053119D01*
X0062419Y0053108D01*
X0062111Y0053104D01*
X0061803Y0053108D01*
X0061495Y0053119D01*
X0061188Y0053138D01*
X0060881Y0053164D01*
X0060575Y0053198D01*
X0060269Y0053240D01*
X0059965Y0053289D01*
X0059662Y0053345D01*
X0059361Y0053409D01*
X0059061Y0053480D01*
X0058763Y0053559D01*
X0058468Y0053644D01*
X0058174Y0053737D01*
X0057883Y0053838D01*
X0057594Y0053945D01*
X0057308Y0054059D01*
X0057025Y0054181D01*
X0056745Y0054309D01*
X0056468Y0054444D01*
X0056194Y0054586D01*
X0055925Y0054735D01*
X0055658Y0054890D01*
X0055396Y0055051D01*
X0055138Y0055219D01*
X0054884Y0055393D01*
X0054634Y0055574D01*
X0054389Y0055760D01*
X0054149Y0055953D01*
X0053913Y0056151D01*
X0053682Y0056355D01*
X0053457Y0056565D01*
X0053236Y0056780D01*
X0053021Y0057001D01*
X0052811Y0057226D01*
X0052607Y0057457D01*
X0052409Y0057693D01*
X0052216Y0057933D01*
X0052030Y0058178D01*
X0051849Y0058428D01*
X0051675Y0058682D01*
X0051507Y0058940D01*
X0051346Y0059202D01*
X0051191Y0059469D01*
X0051042Y0059738D01*
X0050900Y0060012D01*
X0050765Y0060289D01*
X0050637Y0060569D01*
X0050515Y0060852D01*
X0050401Y0061138D01*
X0050294Y0061427D01*
X0050193Y0061718D01*
X0050100Y0062012D01*
X0050015Y0062307D01*
X0049936Y0062605D01*
X0049865Y0062905D01*
X0049801Y0063206D01*
X0049745Y0063509D01*
X0049696Y0063813D01*
X0049654Y0064119D01*
X0049620Y0064425D01*
X0049594Y0064732D01*
X0049575Y0065039D01*
X0049564Y0065347D01*
X0049560Y0065655D01*
X0048640Y0065704D02*
X0048644Y0066033D01*
X0048656Y0066363D01*
X0048676Y0066691D01*
X0048705Y0067020D01*
X0048741Y0067347D01*
X0048785Y0067673D01*
X0048838Y0067999D01*
X0048898Y0068323D01*
X0048966Y0068645D01*
X0049042Y0068965D01*
X0049126Y0069284D01*
X0049218Y0069600D01*
X0049317Y0069914D01*
X0049425Y0070226D01*
X0049539Y0070535D01*
X0049662Y0070840D01*
X0049791Y0071143D01*
X0049929Y0071443D01*
X0050073Y0071739D01*
X0050225Y0072031D01*
X0050384Y0072320D01*
X0050550Y0072604D01*
X0050722Y0072885D01*
X0050902Y0073161D01*
X0051088Y0073432D01*
X0051281Y0073699D01*
X0051481Y0073962D01*
X0051687Y0074219D01*
X0051899Y0074471D01*
X0052117Y0074718D01*
X0052341Y0074959D01*
X0052571Y0075195D01*
X0052807Y0075425D01*
X0053048Y0075649D01*
X0053295Y0075867D01*
X0053547Y0076079D01*
X0053804Y0076285D01*
X0054067Y0076485D01*
X0054334Y0076678D01*
X0054605Y0076864D01*
X0054881Y0077044D01*
X0055162Y0077216D01*
X0055446Y0077382D01*
X0055735Y0077541D01*
X0056027Y0077693D01*
X0056323Y0077837D01*
X0056623Y0077975D01*
X0056926Y0078104D01*
X0057231Y0078227D01*
X0057540Y0078341D01*
X0057852Y0078449D01*
X0058166Y0078548D01*
X0058482Y0078640D01*
X0058801Y0078724D01*
X0059121Y0078800D01*
X0059443Y0078868D01*
X0059767Y0078928D01*
X0060093Y0078981D01*
X0060419Y0079025D01*
X0060746Y0079061D01*
X0061075Y0079090D01*
X0061403Y0079110D01*
X0061733Y0079122D01*
X0062062Y0079126D01*
X0062391Y0079122D01*
X0062721Y0079110D01*
X0063049Y0079090D01*
X0063378Y0079061D01*
X0063705Y0079025D01*
X0064031Y0078981D01*
X0064357Y0078928D01*
X0064681Y0078868D01*
X0065003Y0078800D01*
X0065323Y0078724D01*
X0065642Y0078640D01*
X0065958Y0078548D01*
X0066272Y0078449D01*
X0066584Y0078341D01*
X0066893Y0078227D01*
X0067198Y0078104D01*
X0067501Y0077975D01*
X0067801Y0077837D01*
X0068097Y0077693D01*
X0068389Y0077541D01*
X0068678Y0077382D01*
X0068962Y0077216D01*
X0069243Y0077044D01*
X0069519Y0076864D01*
X0069790Y0076678D01*
X0070057Y0076485D01*
X0070320Y0076285D01*
X0070577Y0076079D01*
X0070829Y0075867D01*
X0071076Y0075649D01*
X0071317Y0075425D01*
X0071553Y0075195D01*
X0071783Y0074959D01*
X0072007Y0074718D01*
X0072225Y0074471D01*
X0072437Y0074219D01*
X0072643Y0073962D01*
X0072843Y0073699D01*
X0073036Y0073432D01*
X0073222Y0073161D01*
X0073402Y0072885D01*
X0073574Y0072604D01*
X0073740Y0072320D01*
X0073899Y0072031D01*
X0074051Y0071739D01*
X0074195Y0071443D01*
X0074333Y0071143D01*
X0074462Y0070840D01*
X0074585Y0070535D01*
X0074699Y0070226D01*
X0074807Y0069914D01*
X0074906Y0069600D01*
X0074998Y0069284D01*
X0075082Y0068965D01*
X0075158Y0068645D01*
X0075226Y0068323D01*
X0075286Y0067999D01*
X0075339Y0067673D01*
X0075383Y0067347D01*
X0075419Y0067020D01*
X0075448Y0066691D01*
X0075468Y0066363D01*
X0075480Y0066033D01*
X0075484Y0065704D01*
X0075480Y0065375D01*
X0075468Y0065045D01*
X0075448Y0064717D01*
X0075419Y0064388D01*
X0075383Y0064061D01*
X0075339Y0063735D01*
X0075286Y0063409D01*
X0075226Y0063085D01*
X0075158Y0062763D01*
X0075082Y0062443D01*
X0074998Y0062124D01*
X0074906Y0061808D01*
X0074807Y0061494D01*
X0074699Y0061182D01*
X0074585Y0060873D01*
X0074462Y0060568D01*
X0074333Y0060265D01*
X0074195Y0059965D01*
X0074051Y0059669D01*
X0073899Y0059377D01*
X0073740Y0059088D01*
X0073574Y0058804D01*
X0073402Y0058523D01*
X0073222Y0058247D01*
X0073036Y0057976D01*
X0072843Y0057709D01*
X0072643Y0057446D01*
X0072437Y0057189D01*
X0072225Y0056937D01*
X0072007Y0056690D01*
X0071783Y0056449D01*
X0071553Y0056213D01*
X0071317Y0055983D01*
X0071076Y0055759D01*
X0070829Y0055541D01*
X0070577Y0055329D01*
X0070320Y0055123D01*
X0070057Y0054923D01*
X0069790Y0054730D01*
X0069519Y0054544D01*
X0069243Y0054364D01*
X0068962Y0054192D01*
X0068678Y0054026D01*
X0068389Y0053867D01*
X0068097Y0053715D01*
X0067801Y0053571D01*
X0067501Y0053433D01*
X0067198Y0053304D01*
X0066893Y0053181D01*
X0066584Y0053067D01*
X0066272Y0052959D01*
X0065958Y0052860D01*
X0065642Y0052768D01*
X0065323Y0052684D01*
X0065003Y0052608D01*
X0064681Y0052540D01*
X0064357Y0052480D01*
X0064031Y0052427D01*
X0063705Y0052383D01*
X0063378Y0052347D01*
X0063049Y0052318D01*
X0062721Y0052298D01*
X0062391Y0052286D01*
X0062062Y0052282D01*
X0061733Y0052286D01*
X0061403Y0052298D01*
X0061075Y0052318D01*
X0060746Y0052347D01*
X0060419Y0052383D01*
X0060093Y0052427D01*
X0059767Y0052480D01*
X0059443Y0052540D01*
X0059121Y0052608D01*
X0058801Y0052684D01*
X0058482Y0052768D01*
X0058166Y0052860D01*
X0057852Y0052959D01*
X0057540Y0053067D01*
X0057231Y0053181D01*
X0056926Y0053304D01*
X0056623Y0053433D01*
X0056323Y0053571D01*
X0056027Y0053715D01*
X0055735Y0053867D01*
X0055446Y0054026D01*
X0055162Y0054192D01*
X0054881Y0054364D01*
X0054605Y0054544D01*
X0054334Y0054730D01*
X0054067Y0054923D01*
X0053804Y0055123D01*
X0053547Y0055329D01*
X0053295Y0055541D01*
X0053048Y0055759D01*
X0052807Y0055983D01*
X0052571Y0056213D01*
X0052341Y0056449D01*
X0052117Y0056690D01*
X0051899Y0056937D01*
X0051687Y0057189D01*
X0051481Y0057446D01*
X0051281Y0057709D01*
X0051088Y0057976D01*
X0050902Y0058247D01*
X0050722Y0058523D01*
X0050550Y0058804D01*
X0050384Y0059088D01*
X0050225Y0059377D01*
X0050073Y0059669D01*
X0049929Y0059965D01*
X0049791Y0060265D01*
X0049662Y0060568D01*
X0049539Y0060873D01*
X0049425Y0061182D01*
X0049317Y0061494D01*
X0049218Y0061808D01*
X0049126Y0062124D01*
X0049042Y0062443D01*
X0048966Y0062763D01*
X0048898Y0063085D01*
X0048838Y0063409D01*
X0048785Y0063735D01*
X0048741Y0064061D01*
X0048705Y0064388D01*
X0048676Y0064717D01*
X0048656Y0065045D01*
X0048644Y0065375D01*
X0048640Y0065704D01*
X0076119Y0060923D02*
X0076119Y0070573D01*
X0105275Y0047025D02*
X0109779Y0047025D01*
X0109779Y0045524D02*
X0109779Y0048527D01*
X0106776Y0045524D02*
X0105275Y0047025D01*
X0105275Y0043923D02*
X0105275Y0042421D01*
X0105275Y0043172D02*
X0109028Y0043172D01*
X0109779Y0042421D01*
X0109779Y0041671D01*
X0109028Y0040920D01*
D15*
X0067670Y0090465D02*
X0064600Y0090465D01*
X0063066Y0091232D02*
X0059997Y0091232D01*
X0059997Y0095836D01*
X0063066Y0095836D01*
X0061531Y0093534D02*
X0059997Y0093534D01*
X0058462Y0091232D02*
X0055393Y0091232D01*
X0055393Y0095836D01*
X0058462Y0095836D01*
X0056927Y0093534D02*
X0055393Y0093534D01*
X0053858Y0093534D02*
X0053858Y0095069D01*
X0053091Y0095836D01*
X0050789Y0095836D01*
X0050789Y0091232D01*
X0050789Y0092767D02*
X0053091Y0092767D01*
X0053858Y0093534D01*
X0052323Y0092767D02*
X0053858Y0091232D01*
X0049254Y0092000D02*
X0048487Y0091232D01*
X0046952Y0091232D01*
X0046185Y0092000D01*
X0046185Y0095069D01*
X0046952Y0095836D01*
X0048487Y0095836D01*
X0049254Y0095069D01*
X0069204Y0095836D02*
X0069204Y0091232D01*
X0072274Y0091232D01*
X0073808Y0091232D02*
X0076878Y0091232D01*
X0078412Y0091232D02*
X0080714Y0091232D01*
X0081482Y0092000D01*
X0081482Y0095069D01*
X0080714Y0095836D01*
X0078412Y0095836D01*
X0078412Y0091232D01*
X0075343Y0093534D02*
X0073808Y0093534D01*
X0073808Y0095836D02*
X0073808Y0091232D01*
X0073808Y0095836D02*
X0076878Y0095836D01*
X0083016Y0094302D02*
X0084551Y0095836D01*
X0084551Y0091232D01*
X0086085Y0091232D02*
X0083016Y0091232D01*
D16*
X0071757Y0077749D02*
X0071759Y0077821D01*
X0071765Y0077893D01*
X0071775Y0077965D01*
X0071789Y0078035D01*
X0071806Y0078105D01*
X0071828Y0078174D01*
X0071853Y0078242D01*
X0071882Y0078308D01*
X0071915Y0078372D01*
X0071951Y0078435D01*
X0071990Y0078495D01*
X0072033Y0078554D01*
X0072079Y0078609D01*
X0072128Y0078662D01*
X0072180Y0078713D01*
X0072234Y0078760D01*
X0072291Y0078805D01*
X0072350Y0078846D01*
X0072412Y0078883D01*
X0072475Y0078918D01*
X0072541Y0078949D01*
X0072608Y0078976D01*
X0072676Y0078999D01*
X0072745Y0079019D01*
X0072816Y0079035D01*
X0072887Y0079047D01*
X0072959Y0079055D01*
X0073031Y0079059D01*
X0073103Y0079059D01*
X0073175Y0079055D01*
X0073247Y0079047D01*
X0073318Y0079035D01*
X0073389Y0079019D01*
X0073458Y0078999D01*
X0073526Y0078976D01*
X0073593Y0078949D01*
X0073659Y0078918D01*
X0073722Y0078883D01*
X0073784Y0078846D01*
X0073843Y0078805D01*
X0073900Y0078760D01*
X0073954Y0078713D01*
X0074006Y0078662D01*
X0074055Y0078609D01*
X0074101Y0078554D01*
X0074144Y0078495D01*
X0074183Y0078435D01*
X0074219Y0078372D01*
X0074252Y0078308D01*
X0074281Y0078242D01*
X0074306Y0078174D01*
X0074328Y0078105D01*
X0074345Y0078035D01*
X0074359Y0077965D01*
X0074369Y0077893D01*
X0074375Y0077821D01*
X0074377Y0077749D01*
X0074375Y0077677D01*
X0074369Y0077605D01*
X0074359Y0077533D01*
X0074345Y0077463D01*
X0074328Y0077393D01*
X0074306Y0077324D01*
X0074281Y0077256D01*
X0074252Y0077190D01*
X0074219Y0077126D01*
X0074183Y0077063D01*
X0074144Y0077003D01*
X0074101Y0076944D01*
X0074055Y0076889D01*
X0074006Y0076836D01*
X0073954Y0076785D01*
X0073900Y0076738D01*
X0073843Y0076693D01*
X0073784Y0076652D01*
X0073722Y0076615D01*
X0073659Y0076580D01*
X0073593Y0076549D01*
X0073526Y0076522D01*
X0073458Y0076499D01*
X0073389Y0076479D01*
X0073318Y0076463D01*
X0073247Y0076451D01*
X0073175Y0076443D01*
X0073103Y0076439D01*
X0073031Y0076439D01*
X0072959Y0076443D01*
X0072887Y0076451D01*
X0072816Y0076463D01*
X0072745Y0076479D01*
X0072676Y0076499D01*
X0072608Y0076522D01*
X0072541Y0076549D01*
X0072475Y0076580D01*
X0072412Y0076615D01*
X0072350Y0076652D01*
X0072291Y0076693D01*
X0072234Y0076738D01*
X0072180Y0076785D01*
X0072128Y0076836D01*
X0072079Y0076889D01*
X0072033Y0076944D01*
X0071990Y0077003D01*
X0071951Y0077063D01*
X0071915Y0077126D01*
X0071882Y0077190D01*
X0071853Y0077256D01*
X0071828Y0077324D01*
X0071806Y0077393D01*
X0071789Y0077463D01*
X0071775Y0077533D01*
X0071765Y0077605D01*
X0071759Y0077677D01*
X0071757Y0077749D01*
X0066297Y0069908D02*
X0066297Y0066020D01*
X0062411Y0066020D01*
X0062411Y0069886D01*
X0062433Y0069908D02*
X0066297Y0069908D01*
X0065576Y0068907D02*
X0064986Y0068907D01*
X0064691Y0068612D01*
X0064059Y0068612D02*
X0063764Y0068907D01*
X0062879Y0068907D01*
X0062879Y0067137D01*
X0063764Y0067137D01*
X0064059Y0067432D01*
X0064059Y0068612D01*
X0064691Y0067432D02*
X0064986Y0067137D01*
X0065576Y0067137D01*
X0065871Y0067432D01*
X0065871Y0067727D01*
X0065576Y0068022D01*
X0065281Y0068022D01*
X0065576Y0068022D02*
X0065871Y0068317D01*
X0065871Y0068612D01*
X0065576Y0068907D01*
X0066261Y0065333D02*
X0066261Y0061468D01*
X0062433Y0061468D01*
X0062433Y0065333D01*
X0066261Y0065333D01*
X0065621Y0064270D02*
X0064736Y0063385D01*
X0065916Y0063385D01*
X0065621Y0062500D02*
X0065621Y0064270D01*
X0064103Y0063975D02*
X0064103Y0062795D01*
X0063808Y0062500D01*
X0062923Y0062500D01*
X0062923Y0064270D01*
X0063808Y0064270D01*
X0064103Y0063975D01*
X0062433Y0065333D02*
X0062415Y0065333D01*
X0061825Y0065351D02*
X0061825Y0061486D01*
X0057996Y0061486D01*
X0057996Y0065351D01*
X0061825Y0065351D01*
X0061853Y0066042D02*
X0058010Y0066042D01*
X0058010Y0069886D01*
X0061853Y0069886D01*
X0061853Y0066042D01*
X0061462Y0067137D02*
X0060282Y0067137D01*
X0061462Y0068317D01*
X0061462Y0068612D01*
X0061167Y0068907D01*
X0060577Y0068907D01*
X0060282Y0068612D01*
X0059649Y0068612D02*
X0059649Y0067432D01*
X0059354Y0067137D01*
X0058469Y0067137D01*
X0058469Y0068907D01*
X0059354Y0068907D01*
X0059649Y0068612D01*
X0058010Y0069886D02*
X0057967Y0069886D01*
X0057978Y0065351D02*
X0057996Y0065351D01*
X0058514Y0064226D02*
X0059399Y0064226D01*
X0059694Y0063931D01*
X0059694Y0062751D01*
X0059399Y0062456D01*
X0058514Y0062456D01*
X0058514Y0064226D01*
X0060326Y0063636D02*
X0060916Y0064226D01*
X0060916Y0062456D01*
X0060326Y0062456D02*
X0061506Y0062456D01*
X0049876Y0053568D02*
X0049878Y0053640D01*
X0049884Y0053712D01*
X0049894Y0053784D01*
X0049908Y0053854D01*
X0049925Y0053924D01*
X0049947Y0053993D01*
X0049972Y0054061D01*
X0050001Y0054127D01*
X0050034Y0054191D01*
X0050070Y0054254D01*
X0050109Y0054314D01*
X0050152Y0054373D01*
X0050198Y0054428D01*
X0050247Y0054481D01*
X0050299Y0054532D01*
X0050353Y0054579D01*
X0050410Y0054624D01*
X0050469Y0054665D01*
X0050531Y0054702D01*
X0050594Y0054737D01*
X0050660Y0054768D01*
X0050727Y0054795D01*
X0050795Y0054818D01*
X0050864Y0054838D01*
X0050935Y0054854D01*
X0051006Y0054866D01*
X0051078Y0054874D01*
X0051150Y0054878D01*
X0051222Y0054878D01*
X0051294Y0054874D01*
X0051366Y0054866D01*
X0051437Y0054854D01*
X0051508Y0054838D01*
X0051577Y0054818D01*
X0051645Y0054795D01*
X0051712Y0054768D01*
X0051778Y0054737D01*
X0051841Y0054702D01*
X0051903Y0054665D01*
X0051962Y0054624D01*
X0052019Y0054579D01*
X0052073Y0054532D01*
X0052125Y0054481D01*
X0052174Y0054428D01*
X0052220Y0054373D01*
X0052263Y0054314D01*
X0052302Y0054254D01*
X0052338Y0054191D01*
X0052371Y0054127D01*
X0052400Y0054061D01*
X0052425Y0053993D01*
X0052447Y0053924D01*
X0052464Y0053854D01*
X0052478Y0053784D01*
X0052488Y0053712D01*
X0052494Y0053640D01*
X0052496Y0053568D01*
X0052494Y0053496D01*
X0052488Y0053424D01*
X0052478Y0053352D01*
X0052464Y0053282D01*
X0052447Y0053212D01*
X0052425Y0053143D01*
X0052400Y0053075D01*
X0052371Y0053009D01*
X0052338Y0052945D01*
X0052302Y0052882D01*
X0052263Y0052822D01*
X0052220Y0052763D01*
X0052174Y0052708D01*
X0052125Y0052655D01*
X0052073Y0052604D01*
X0052019Y0052557D01*
X0051962Y0052512D01*
X0051903Y0052471D01*
X0051841Y0052434D01*
X0051778Y0052399D01*
X0051712Y0052368D01*
X0051645Y0052341D01*
X0051577Y0052318D01*
X0051508Y0052298D01*
X0051437Y0052282D01*
X0051366Y0052270D01*
X0051294Y0052262D01*
X0051222Y0052258D01*
X0051150Y0052258D01*
X0051078Y0052262D01*
X0051006Y0052270D01*
X0050935Y0052282D01*
X0050864Y0052298D01*
X0050795Y0052318D01*
X0050727Y0052341D01*
X0050660Y0052368D01*
X0050594Y0052399D01*
X0050531Y0052434D01*
X0050469Y0052471D01*
X0050410Y0052512D01*
X0050353Y0052557D01*
X0050299Y0052604D01*
X0050247Y0052655D01*
X0050198Y0052708D01*
X0050152Y0052763D01*
X0050109Y0052822D01*
X0050070Y0052882D01*
X0050034Y0052945D01*
X0050001Y0053009D01*
X0049972Y0053075D01*
X0049947Y0053143D01*
X0049925Y0053212D01*
X0049908Y0053282D01*
X0049894Y0053352D01*
X0049884Y0053424D01*
X0049878Y0053496D01*
X0049876Y0053568D01*
X0071753Y0053571D02*
X0071755Y0053643D01*
X0071761Y0053715D01*
X0071771Y0053787D01*
X0071785Y0053857D01*
X0071802Y0053927D01*
X0071824Y0053996D01*
X0071849Y0054064D01*
X0071878Y0054130D01*
X0071911Y0054194D01*
X0071947Y0054257D01*
X0071986Y0054317D01*
X0072029Y0054376D01*
X0072075Y0054431D01*
X0072124Y0054484D01*
X0072176Y0054535D01*
X0072230Y0054582D01*
X0072287Y0054627D01*
X0072346Y0054668D01*
X0072408Y0054705D01*
X0072471Y0054740D01*
X0072537Y0054771D01*
X0072604Y0054798D01*
X0072672Y0054821D01*
X0072741Y0054841D01*
X0072812Y0054857D01*
X0072883Y0054869D01*
X0072955Y0054877D01*
X0073027Y0054881D01*
X0073099Y0054881D01*
X0073171Y0054877D01*
X0073243Y0054869D01*
X0073314Y0054857D01*
X0073385Y0054841D01*
X0073454Y0054821D01*
X0073522Y0054798D01*
X0073589Y0054771D01*
X0073655Y0054740D01*
X0073718Y0054705D01*
X0073780Y0054668D01*
X0073839Y0054627D01*
X0073896Y0054582D01*
X0073950Y0054535D01*
X0074002Y0054484D01*
X0074051Y0054431D01*
X0074097Y0054376D01*
X0074140Y0054317D01*
X0074179Y0054257D01*
X0074215Y0054194D01*
X0074248Y0054130D01*
X0074277Y0054064D01*
X0074302Y0053996D01*
X0074324Y0053927D01*
X0074341Y0053857D01*
X0074355Y0053787D01*
X0074365Y0053715D01*
X0074371Y0053643D01*
X0074373Y0053571D01*
X0074371Y0053499D01*
X0074365Y0053427D01*
X0074355Y0053355D01*
X0074341Y0053285D01*
X0074324Y0053215D01*
X0074302Y0053146D01*
X0074277Y0053078D01*
X0074248Y0053012D01*
X0074215Y0052948D01*
X0074179Y0052885D01*
X0074140Y0052825D01*
X0074097Y0052766D01*
X0074051Y0052711D01*
X0074002Y0052658D01*
X0073950Y0052607D01*
X0073896Y0052560D01*
X0073839Y0052515D01*
X0073780Y0052474D01*
X0073718Y0052437D01*
X0073655Y0052402D01*
X0073589Y0052371D01*
X0073522Y0052344D01*
X0073454Y0052321D01*
X0073385Y0052301D01*
X0073314Y0052285D01*
X0073243Y0052273D01*
X0073171Y0052265D01*
X0073099Y0052261D01*
X0073027Y0052261D01*
X0072955Y0052265D01*
X0072883Y0052273D01*
X0072812Y0052285D01*
X0072741Y0052301D01*
X0072672Y0052321D01*
X0072604Y0052344D01*
X0072537Y0052371D01*
X0072471Y0052402D01*
X0072408Y0052437D01*
X0072346Y0052474D01*
X0072287Y0052515D01*
X0072230Y0052560D01*
X0072176Y0052607D01*
X0072124Y0052658D01*
X0072075Y0052711D01*
X0072029Y0052766D01*
X0071986Y0052825D01*
X0071947Y0052885D01*
X0071911Y0052948D01*
X0071878Y0053012D01*
X0071849Y0053078D01*
X0071824Y0053146D01*
X0071802Y0053215D01*
X0071785Y0053285D01*
X0071771Y0053355D01*
X0071761Y0053427D01*
X0071755Y0053499D01*
X0071753Y0053571D01*
X0049906Y0077770D02*
X0049908Y0077842D01*
X0049914Y0077914D01*
X0049924Y0077986D01*
X0049938Y0078056D01*
X0049955Y0078126D01*
X0049977Y0078195D01*
X0050002Y0078263D01*
X0050031Y0078329D01*
X0050064Y0078393D01*
X0050100Y0078456D01*
X0050139Y0078516D01*
X0050182Y0078575D01*
X0050228Y0078630D01*
X0050277Y0078683D01*
X0050329Y0078734D01*
X0050383Y0078781D01*
X0050440Y0078826D01*
X0050499Y0078867D01*
X0050561Y0078904D01*
X0050624Y0078939D01*
X0050690Y0078970D01*
X0050757Y0078997D01*
X0050825Y0079020D01*
X0050894Y0079040D01*
X0050965Y0079056D01*
X0051036Y0079068D01*
X0051108Y0079076D01*
X0051180Y0079080D01*
X0051252Y0079080D01*
X0051324Y0079076D01*
X0051396Y0079068D01*
X0051467Y0079056D01*
X0051538Y0079040D01*
X0051607Y0079020D01*
X0051675Y0078997D01*
X0051742Y0078970D01*
X0051808Y0078939D01*
X0051871Y0078904D01*
X0051933Y0078867D01*
X0051992Y0078826D01*
X0052049Y0078781D01*
X0052103Y0078734D01*
X0052155Y0078683D01*
X0052204Y0078630D01*
X0052250Y0078575D01*
X0052293Y0078516D01*
X0052332Y0078456D01*
X0052368Y0078393D01*
X0052401Y0078329D01*
X0052430Y0078263D01*
X0052455Y0078195D01*
X0052477Y0078126D01*
X0052494Y0078056D01*
X0052508Y0077986D01*
X0052518Y0077914D01*
X0052524Y0077842D01*
X0052526Y0077770D01*
X0052524Y0077698D01*
X0052518Y0077626D01*
X0052508Y0077554D01*
X0052494Y0077484D01*
X0052477Y0077414D01*
X0052455Y0077345D01*
X0052430Y0077277D01*
X0052401Y0077211D01*
X0052368Y0077147D01*
X0052332Y0077084D01*
X0052293Y0077024D01*
X0052250Y0076965D01*
X0052204Y0076910D01*
X0052155Y0076857D01*
X0052103Y0076806D01*
X0052049Y0076759D01*
X0051992Y0076714D01*
X0051933Y0076673D01*
X0051871Y0076636D01*
X0051808Y0076601D01*
X0051742Y0076570D01*
X0051675Y0076543D01*
X0051607Y0076520D01*
X0051538Y0076500D01*
X0051467Y0076484D01*
X0051396Y0076472D01*
X0051324Y0076464D01*
X0051252Y0076460D01*
X0051180Y0076460D01*
X0051108Y0076464D01*
X0051036Y0076472D01*
X0050965Y0076484D01*
X0050894Y0076500D01*
X0050825Y0076520D01*
X0050757Y0076543D01*
X0050690Y0076570D01*
X0050624Y0076601D01*
X0050561Y0076636D01*
X0050499Y0076673D01*
X0050440Y0076714D01*
X0050383Y0076759D01*
X0050329Y0076806D01*
X0050277Y0076857D01*
X0050228Y0076910D01*
X0050182Y0076965D01*
X0050139Y0077024D01*
X0050100Y0077084D01*
X0050064Y0077147D01*
X0050031Y0077211D01*
X0050002Y0077277D01*
X0049977Y0077345D01*
X0049955Y0077414D01*
X0049938Y0077484D01*
X0049924Y0077554D01*
X0049914Y0077626D01*
X0049908Y0077698D01*
X0049906Y0077770D01*
D17*
X0052111Y0065655D02*
X0072111Y0065655D01*
X0062111Y0075655D02*
X0062111Y0055655D01*
M02*
