%
M48
M72
T01C0.02362
T02C0.02400
T03C0.04000
%
T01
X34138Y66600
X39138Y71600
X61638Y99100
X69138Y91600
T02
X34138Y41600
X24138Y46600
X29138Y71600
X29138Y86600
X24138Y86600
X19138Y86600
X44138Y99100
X79138Y99100
X91638Y89100
X89138Y76600
X99138Y76600
X101638Y64100
X106638Y46600
X84138Y46600
X86638Y21600
X79138Y21600
X56638Y21600
X44138Y16600
X111638Y94100
T03
X117229Y85970
X117229Y75970
X117229Y65970
X117229Y55970
X117229Y45970
X14867Y45970
X14867Y55970
M30
