G75*
%MOIN*%
%OFA0B0*%
%FSLAX25Y25*%
%IPPOS*%
%LPD*%
%AMOC8*
5,1,8,0,0,1.08239X$1,22.5*
%
%ADD10C,0.07400*%
%ADD11C,0.01600*%
%ADD12C,0.01181*%
%ADD13C,0.04000*%
%ADD14C,0.01969*%
%ADD15C,0.03962*%
%ADD16C,0.01200*%
D10*
X0043965Y0036800D03*
X0043965Y0046800D03*
X0146328Y0046800D03*
X0146328Y0036800D03*
X0146328Y0056800D03*
X0146328Y0066800D03*
X0146328Y0076800D03*
D11*
X0001800Y0076258D02*
X0001800Y0001800D01*
X0190550Y0001800D01*
X0190550Y0087042D01*
X0188414Y0075845D01*
X0184677Y0064344D01*
X0179529Y0053403D01*
X0173049Y0043193D01*
X0165341Y0033875D01*
X0165341Y0033875D01*
X0156526Y0025597D01*
X0156526Y0025597D01*
X0146743Y0018489D01*
X0136146Y0012664D01*
X0136146Y0012664D01*
X0124903Y0008212D01*
X0124903Y0008212D01*
X0113190Y0005205D01*
X0113190Y0005205D01*
X0101193Y0003689D01*
X0089100Y0003689D01*
X0077103Y0005205D01*
X0077103Y0005205D01*
X0065390Y0008212D01*
X0065390Y0008212D01*
X0054147Y0012664D01*
X0054147Y0012664D01*
X0043550Y0018489D01*
X0043550Y0018489D01*
X0033767Y0025597D01*
X0033767Y0025597D01*
X0024952Y0033875D01*
X0024952Y0033875D01*
X0024952Y0033875D01*
X0017244Y0043193D01*
X0017244Y0043193D01*
X0010764Y0053403D01*
X0010764Y0053403D01*
X0005616Y0064344D01*
X0005616Y0064344D01*
X0001879Y0075845D01*
X0001800Y0076258D01*
X0001879Y0075845D02*
X0001879Y0075845D01*
X0001800Y0075164D02*
X0002100Y0075164D01*
X0001800Y0073566D02*
X0002619Y0073566D01*
X0003139Y0071967D02*
X0001800Y0071967D01*
X0001800Y0070369D02*
X0003658Y0070369D01*
X0004178Y0068770D02*
X0001800Y0068770D01*
X0001800Y0067172D02*
X0004697Y0067172D01*
X0005216Y0065573D02*
X0001800Y0065573D01*
X0001800Y0063975D02*
X0005790Y0063975D01*
X0006542Y0062376D02*
X0001800Y0062376D01*
X0001800Y0060778D02*
X0007294Y0060778D01*
X0008046Y0059179D02*
X0001800Y0059179D01*
X0001800Y0057581D02*
X0008798Y0057581D01*
X0009551Y0055982D02*
X0001800Y0055982D01*
X0001800Y0054384D02*
X0010303Y0054384D01*
X0011156Y0052785D02*
X0001800Y0052785D01*
X0001800Y0051187D02*
X0012171Y0051187D01*
X0013185Y0049588D02*
X0001800Y0049588D01*
X0001800Y0047990D02*
X0014200Y0047990D01*
X0015214Y0046391D02*
X0001800Y0046391D01*
X0001800Y0044793D02*
X0016229Y0044793D01*
X0017243Y0043194D02*
X0001800Y0043194D01*
X0001800Y0041596D02*
X0018565Y0041596D01*
X0019887Y0039997D02*
X0001800Y0039997D01*
X0001800Y0038399D02*
X0021210Y0038399D01*
X0022532Y0036800D02*
X0001800Y0036800D01*
X0001800Y0035201D02*
X0023855Y0035201D01*
X0025242Y0033603D02*
X0001800Y0033603D01*
X0001800Y0032004D02*
X0026944Y0032004D01*
X0028646Y0030406D02*
X0001800Y0030406D01*
X0001800Y0028807D02*
X0030348Y0028807D01*
X0032051Y0027209D02*
X0001800Y0027209D01*
X0001800Y0025610D02*
X0033753Y0025610D01*
X0035949Y0024012D02*
X0001800Y0024012D01*
X0001800Y0022413D02*
X0038149Y0022413D01*
X0040349Y0020815D02*
X0001800Y0020815D01*
X0001800Y0019216D02*
X0042549Y0019216D01*
X0045135Y0017618D02*
X0001800Y0017618D01*
X0001800Y0016019D02*
X0048043Y0016019D01*
X0050951Y0014421D02*
X0001800Y0014421D01*
X0001800Y0012822D02*
X0053858Y0012822D01*
X0057784Y0011224D02*
X0001800Y0011224D01*
X0001800Y0009625D02*
X0061821Y0009625D01*
X0066112Y0008027D02*
X0001800Y0008027D01*
X0001800Y0006428D02*
X0072338Y0006428D01*
X0080072Y0004830D02*
X0001800Y0004830D01*
X0001800Y0003231D02*
X0190550Y0003231D01*
X0190550Y0004830D02*
X0110221Y0004830D01*
X0117955Y0006428D02*
X0190550Y0006428D01*
X0190550Y0008027D02*
X0124181Y0008027D01*
X0128472Y0009625D02*
X0190550Y0009625D01*
X0190550Y0011224D02*
X0132509Y0011224D01*
X0136434Y0012822D02*
X0190550Y0012822D01*
X0190550Y0014421D02*
X0139342Y0014421D01*
X0142250Y0016019D02*
X0190550Y0016019D01*
X0190550Y0017618D02*
X0145158Y0017618D01*
X0147743Y0019216D02*
X0190550Y0019216D01*
X0190550Y0020815D02*
X0149944Y0020815D01*
X0152144Y0022413D02*
X0190550Y0022413D01*
X0190550Y0024012D02*
X0154344Y0024012D01*
X0156540Y0025610D02*
X0190550Y0025610D01*
X0190550Y0027209D02*
X0158242Y0027209D01*
X0159944Y0028807D02*
X0190550Y0028807D01*
X0190550Y0030406D02*
X0161647Y0030406D01*
X0163349Y0032004D02*
X0190550Y0032004D01*
X0190550Y0033603D02*
X0165051Y0033603D01*
X0166438Y0035201D02*
X0190550Y0035201D01*
X0190550Y0036800D02*
X0167761Y0036800D01*
X0169083Y0038399D02*
X0190550Y0038399D01*
X0190550Y0039997D02*
X0170405Y0039997D01*
X0171728Y0041596D02*
X0190550Y0041596D01*
X0190550Y0043194D02*
X0173050Y0043194D01*
X0174064Y0044793D02*
X0190550Y0044793D01*
X0190550Y0046391D02*
X0175079Y0046391D01*
X0176093Y0047990D02*
X0190550Y0047990D01*
X0190550Y0049588D02*
X0177108Y0049588D01*
X0178122Y0051187D02*
X0190550Y0051187D01*
X0190550Y0052785D02*
X0179137Y0052785D01*
X0179990Y0054384D02*
X0190550Y0054384D01*
X0190550Y0055982D02*
X0180742Y0055982D01*
X0181495Y0057581D02*
X0190550Y0057581D01*
X0190550Y0059179D02*
X0182247Y0059179D01*
X0182999Y0060778D02*
X0190550Y0060778D01*
X0190550Y0062376D02*
X0183751Y0062376D01*
X0184503Y0063975D02*
X0190550Y0063975D01*
X0190550Y0065573D02*
X0185077Y0065573D01*
X0185596Y0067172D02*
X0190550Y0067172D01*
X0190550Y0068770D02*
X0186115Y0068770D01*
X0186635Y0070369D02*
X0190550Y0070369D01*
X0190550Y0071967D02*
X0187154Y0071967D01*
X0187673Y0073566D02*
X0190550Y0073566D01*
X0190550Y0075164D02*
X0188193Y0075164D01*
X0188589Y0076763D02*
X0190550Y0076763D01*
X0190550Y0078361D02*
X0188894Y0078361D01*
X0189199Y0079960D02*
X0190550Y0079960D01*
X0190550Y0081558D02*
X0189504Y0081558D01*
X0189809Y0083157D02*
X0190550Y0083157D01*
X0190550Y0084755D02*
X0190114Y0084755D01*
X0190419Y0086354D02*
X0190550Y0086354D01*
X0179751Y0087952D02*
X0166700Y0087952D01*
X0166700Y0086354D02*
X0179446Y0086354D01*
X0179141Y0084755D02*
X0166700Y0084755D01*
X0166700Y0083157D02*
X0178836Y0083157D01*
X0178531Y0081558D02*
X0166700Y0081558D01*
X0166700Y0079960D02*
X0178226Y0079960D01*
X0177953Y0078531D02*
X0174636Y0068320D01*
X0170064Y0058606D01*
X0164312Y0049541D01*
X0157468Y0041268D01*
X0151828Y0035971D01*
X0151828Y0037894D01*
X0150990Y0039915D01*
X0149443Y0041463D01*
X0148629Y0041800D01*
X0149443Y0042137D01*
X0150990Y0043684D01*
X0151828Y0045706D01*
X0151828Y0047894D01*
X0150990Y0049915D01*
X0149443Y0051463D01*
X0148629Y0051800D01*
X0149443Y0052137D01*
X0150990Y0053684D01*
X0151828Y0055706D01*
X0151828Y0057894D01*
X0150990Y0059915D01*
X0149443Y0061463D01*
X0148629Y0061800D01*
X0149443Y0062137D01*
X0150990Y0063684D01*
X0151828Y0065706D01*
X0151828Y0067894D01*
X0150990Y0069915D01*
X0149443Y0071463D01*
X0148629Y0071800D01*
X0149443Y0072137D01*
X0150990Y0073684D01*
X0151828Y0075706D01*
X0151828Y0077894D01*
X0150990Y0079915D01*
X0149443Y0081463D01*
X0147422Y0082300D01*
X0145234Y0082300D01*
X0143212Y0081463D01*
X0141665Y0079915D01*
X0140828Y0077894D01*
X0140828Y0075706D01*
X0141665Y0073684D01*
X0143212Y0072137D01*
X0144026Y0071800D01*
X0143212Y0071463D01*
X0141665Y0069915D01*
X0140828Y0067894D01*
X0140828Y0065706D01*
X0141665Y0063684D01*
X0143212Y0062137D01*
X0144026Y0061800D01*
X0143212Y0061463D01*
X0141665Y0059915D01*
X0141365Y0059191D01*
X0110290Y0059191D01*
X0048100Y0121381D01*
X0048100Y0122556D01*
X0047521Y0123953D01*
X0046453Y0125021D01*
X0045056Y0125600D01*
X0043544Y0125600D01*
X0042147Y0125021D01*
X0041700Y0124574D01*
X0041700Y0140519D01*
X0042552Y0140519D01*
X0043942Y0141095D01*
X0045005Y0142158D01*
X0045581Y0143548D01*
X0045581Y0145052D01*
X0045005Y0146442D01*
X0043942Y0147505D01*
X0042552Y0148081D01*
X0041048Y0148081D01*
X0039658Y0147505D01*
X0038595Y0146442D01*
X0038019Y0145052D01*
X0038019Y0143913D01*
X0037941Y0143835D01*
X0037941Y0143835D01*
X0037265Y0143159D01*
X0036900Y0142277D01*
X0036900Y0061323D01*
X0037265Y0060441D01*
X0037941Y0059765D01*
X0045651Y0052055D01*
X0045059Y0052300D01*
X0042871Y0052300D01*
X0040850Y0051463D01*
X0039303Y0049915D01*
X0038465Y0047894D01*
X0038465Y0045706D01*
X0039303Y0043684D01*
X0040850Y0042137D01*
X0041664Y0041800D01*
X0041083Y0041504D01*
X0040382Y0040995D01*
X0039770Y0040383D01*
X0039261Y0039683D01*
X0038868Y0038911D01*
X0038601Y0038088D01*
X0038465Y0037233D01*
X0038465Y0037000D01*
X0043765Y0037000D01*
X0043765Y0036600D01*
X0038465Y0036600D01*
X0038465Y0036367D01*
X0038539Y0035902D01*
X0032825Y0041268D01*
X0025981Y0049541D01*
X0020228Y0058606D01*
X0015657Y0068320D01*
X0012339Y0078531D01*
X0010328Y0089077D01*
X0009654Y0099792D01*
X0010328Y0110507D01*
X0012339Y0121053D01*
X0015657Y0131264D01*
X0020228Y0140979D01*
X0025981Y0150044D01*
X0032825Y0158316D01*
X0040651Y0165666D01*
X0049337Y0171976D01*
X0058745Y0177148D01*
X0068728Y0181101D01*
X0079127Y0183771D01*
X0089778Y0185116D01*
X0100515Y0185116D01*
X0111166Y0183771D01*
X0121565Y0181101D01*
X0131548Y0177148D01*
X0140956Y0171976D01*
X0149642Y0165666D01*
X0157468Y0158316D01*
X0164312Y0150044D01*
X0170064Y0140979D01*
X0174636Y0131264D01*
X0177953Y0121053D01*
X0179965Y0110507D01*
X0180639Y0099792D01*
X0179965Y0089077D01*
X0177953Y0078531D01*
X0177898Y0078361D02*
X0166700Y0078361D01*
X0166700Y0076763D02*
X0177379Y0076763D01*
X0176860Y0075164D02*
X0166700Y0075164D01*
X0166700Y0073566D02*
X0176340Y0073566D01*
X0175821Y0071967D02*
X0166700Y0071967D01*
X0166700Y0070369D02*
X0175301Y0070369D01*
X0174782Y0068770D02*
X0166700Y0068770D01*
X0166700Y0067172D02*
X0174095Y0067172D01*
X0173343Y0065573D02*
X0166700Y0065573D01*
X0166700Y0064747D02*
X0166700Y0112277D01*
X0166335Y0113159D01*
X0165659Y0113835D01*
X0160659Y0118835D01*
X0159777Y0119200D01*
X0154747Y0119200D01*
X0153942Y0120005D01*
X0152552Y0120581D01*
X0151048Y0120581D01*
X0149658Y0120005D01*
X0148595Y0118942D01*
X0148019Y0117552D01*
X0148019Y0116048D01*
X0148595Y0114658D01*
X0149658Y0113595D01*
X0151048Y0113019D01*
X0152552Y0113019D01*
X0153942Y0113595D01*
X0154747Y0114400D01*
X0158306Y0114400D01*
X0161900Y0110806D01*
X0161900Y0064747D01*
X0161095Y0063942D01*
X0160519Y0062552D01*
X0160519Y0061048D01*
X0161095Y0059658D01*
X0162158Y0058595D01*
X0163548Y0058019D01*
X0165052Y0058019D01*
X0166442Y0058595D01*
X0167505Y0059658D01*
X0168081Y0061048D01*
X0168081Y0062552D01*
X0167505Y0063942D01*
X0166700Y0064747D01*
X0167473Y0063975D02*
X0172591Y0063975D01*
X0171839Y0062376D02*
X0168081Y0062376D01*
X0167969Y0060778D02*
X0171087Y0060778D01*
X0170334Y0059179D02*
X0167026Y0059179D01*
X0168400Y0055982D02*
X0151828Y0055982D01*
X0151828Y0057581D02*
X0169414Y0057581D01*
X0167385Y0054384D02*
X0151280Y0054384D01*
X0150091Y0052785D02*
X0166371Y0052785D01*
X0165356Y0051187D02*
X0149719Y0051187D01*
X0151126Y0049588D02*
X0164342Y0049588D01*
X0163028Y0047990D02*
X0151788Y0047990D01*
X0151828Y0046391D02*
X0161706Y0046391D01*
X0160384Y0044793D02*
X0151449Y0044793D01*
X0150500Y0043194D02*
X0159061Y0043194D01*
X0157739Y0041596D02*
X0149122Y0041596D01*
X0150909Y0039997D02*
X0156114Y0039997D01*
X0154412Y0038399D02*
X0151619Y0038399D01*
X0151828Y0036800D02*
X0152710Y0036800D01*
X0146037Y0031300D02*
X0140956Y0027608D01*
X0131548Y0022436D01*
X0121565Y0018484D01*
X0111166Y0015814D01*
X0100515Y0014468D01*
X0089778Y0014468D01*
X0079127Y0015814D01*
X0068728Y0018484D01*
X0058745Y0022436D01*
X0049337Y0027608D01*
X0044256Y0031300D01*
X0044398Y0031300D01*
X0045253Y0031435D01*
X0046077Y0031703D01*
X0046848Y0032096D01*
X0047548Y0032605D01*
X0048161Y0033217D01*
X0048669Y0033917D01*
X0049062Y0034689D01*
X0049330Y0035512D01*
X0049465Y0036367D01*
X0049465Y0036600D01*
X0044165Y0036600D01*
X0044165Y0037000D01*
X0049465Y0037000D01*
X0049465Y0037233D01*
X0049330Y0038088D01*
X0049062Y0038911D01*
X0048669Y0039683D01*
X0048161Y0040383D01*
X0047548Y0040995D01*
X0046848Y0041504D01*
X0046267Y0041800D01*
X0047081Y0042137D01*
X0048628Y0043684D01*
X0049465Y0045706D01*
X0049465Y0047894D01*
X0049220Y0048486D01*
X0058019Y0039687D01*
X0058019Y0038548D01*
X0058595Y0037158D01*
X0059658Y0036095D01*
X0061048Y0035519D01*
X0062552Y0035519D01*
X0063942Y0036095D01*
X0065005Y0037158D01*
X0065581Y0038548D01*
X0065581Y0040052D01*
X0065005Y0041442D01*
X0063942Y0042505D01*
X0062552Y0043081D01*
X0061413Y0043081D01*
X0041700Y0062794D01*
X0041700Y0111526D01*
X0042147Y0111079D01*
X0043544Y0110500D01*
X0044797Y0110500D01*
X0112625Y0045094D01*
X0112946Y0044773D01*
X0112967Y0044765D01*
X0112983Y0044749D01*
X0113405Y0044583D01*
X0113824Y0044409D01*
X0113847Y0044409D01*
X0113868Y0044401D01*
X0114321Y0044409D01*
X0141365Y0044409D01*
X0141665Y0043684D01*
X0143212Y0042137D01*
X0144026Y0041800D01*
X0143212Y0041463D01*
X0141665Y0039915D01*
X0140828Y0037894D01*
X0140828Y0035706D01*
X0141665Y0033684D01*
X0143212Y0032137D01*
X0145234Y0031300D01*
X0146037Y0031300D01*
X0144807Y0030406D02*
X0045486Y0030406D01*
X0046668Y0032004D02*
X0143533Y0032004D01*
X0141746Y0033603D02*
X0048441Y0033603D01*
X0049229Y0035201D02*
X0141037Y0035201D01*
X0140828Y0036800D02*
X0064647Y0036800D01*
X0065519Y0038399D02*
X0141037Y0038399D01*
X0141746Y0039997D02*
X0065581Y0039997D01*
X0064852Y0041596D02*
X0086630Y0041596D01*
X0087147Y0041079D02*
X0088544Y0040500D01*
X0090056Y0040500D01*
X0091453Y0041079D01*
X0092521Y0042147D01*
X0093100Y0043544D01*
X0093100Y0045056D01*
X0092521Y0046453D01*
X0091453Y0047521D01*
X0090056Y0048100D01*
X0089438Y0048100D01*
X0053100Y0084438D01*
X0053100Y0085056D01*
X0052521Y0086453D01*
X0051453Y0087521D01*
X0050056Y0088100D01*
X0048544Y0088100D01*
X0047147Y0087521D01*
X0046079Y0086453D01*
X0045500Y0085056D01*
X0045500Y0083544D01*
X0046079Y0082147D01*
X0047147Y0081079D01*
X0048544Y0080500D01*
X0049162Y0080500D01*
X0085500Y0044162D01*
X0085500Y0043544D01*
X0086079Y0042147D01*
X0087147Y0041079D01*
X0085645Y0043194D02*
X0061300Y0043194D01*
X0059702Y0044793D02*
X0084870Y0044793D01*
X0083271Y0046391D02*
X0058103Y0046391D01*
X0056505Y0047990D02*
X0081673Y0047990D01*
X0080074Y0049588D02*
X0054906Y0049588D01*
X0053307Y0051187D02*
X0078476Y0051187D01*
X0076877Y0052785D02*
X0051709Y0052785D01*
X0050110Y0054384D02*
X0075279Y0054384D01*
X0073680Y0055982D02*
X0048512Y0055982D01*
X0046913Y0057581D02*
X0072082Y0057581D01*
X0070483Y0059179D02*
X0045315Y0059179D01*
X0043716Y0060778D02*
X0068885Y0060778D01*
X0067286Y0062376D02*
X0042118Y0062376D01*
X0041700Y0063975D02*
X0065688Y0063975D01*
X0064089Y0065573D02*
X0041700Y0065573D01*
X0041700Y0067172D02*
X0062491Y0067172D01*
X0060892Y0068770D02*
X0041700Y0068770D01*
X0041700Y0070369D02*
X0059294Y0070369D01*
X0057695Y0071967D02*
X0041700Y0071967D01*
X0041700Y0073566D02*
X0056097Y0073566D01*
X0054498Y0075164D02*
X0041700Y0075164D01*
X0041700Y0076763D02*
X0052900Y0076763D01*
X0051301Y0078361D02*
X0041700Y0078361D01*
X0041700Y0079960D02*
X0049703Y0079960D01*
X0046668Y0081558D02*
X0041700Y0081558D01*
X0041700Y0083157D02*
X0045660Y0083157D01*
X0045500Y0084755D02*
X0041700Y0084755D01*
X0041700Y0086354D02*
X0046038Y0086354D01*
X0048188Y0087952D02*
X0041700Y0087952D01*
X0041700Y0089551D02*
X0066522Y0089551D01*
X0068180Y0087952D02*
X0050412Y0087952D01*
X0052562Y0086354D02*
X0069837Y0086354D01*
X0071495Y0084755D02*
X0053100Y0084755D01*
X0054381Y0083157D02*
X0073153Y0083157D01*
X0074810Y0081558D02*
X0055979Y0081558D01*
X0057578Y0079960D02*
X0076468Y0079960D01*
X0078126Y0078361D02*
X0059176Y0078361D01*
X0060775Y0076763D02*
X0079784Y0076763D01*
X0081441Y0075164D02*
X0062373Y0075164D01*
X0063972Y0073566D02*
X0083099Y0073566D01*
X0084757Y0071967D02*
X0065570Y0071967D01*
X0067169Y0070369D02*
X0086414Y0070369D01*
X0088072Y0068770D02*
X0068767Y0068770D01*
X0070366Y0067172D02*
X0089730Y0067172D01*
X0091388Y0065573D02*
X0071964Y0065573D01*
X0073563Y0063975D02*
X0093045Y0063975D01*
X0094703Y0062376D02*
X0075161Y0062376D01*
X0076760Y0060778D02*
X0096361Y0060778D01*
X0098018Y0059179D02*
X0078358Y0059179D01*
X0079957Y0057581D02*
X0099676Y0057581D01*
X0101334Y0055982D02*
X0081555Y0055982D01*
X0083154Y0054384D02*
X0102992Y0054384D01*
X0104649Y0052785D02*
X0084752Y0052785D01*
X0086351Y0051187D02*
X0106307Y0051187D01*
X0107965Y0049588D02*
X0087949Y0049588D01*
X0090322Y0047990D02*
X0109622Y0047990D01*
X0111280Y0046391D02*
X0092547Y0046391D01*
X0093100Y0044793D02*
X0112927Y0044793D01*
X0115265Y0049191D02*
X0109853Y0054409D01*
X0141365Y0054409D01*
X0141665Y0053684D01*
X0143212Y0052137D01*
X0144026Y0051800D01*
X0143212Y0051463D01*
X0141665Y0049915D01*
X0141365Y0049191D01*
X0115265Y0049191D01*
X0114853Y0049588D02*
X0141529Y0049588D01*
X0142936Y0051187D02*
X0113195Y0051187D01*
X0111537Y0052785D02*
X0142564Y0052785D01*
X0141375Y0054384D02*
X0109879Y0054384D01*
X0108703Y0060778D02*
X0142527Y0060778D01*
X0142973Y0062376D02*
X0107105Y0062376D01*
X0105506Y0063975D02*
X0141545Y0063975D01*
X0140883Y0065573D02*
X0103908Y0065573D01*
X0102309Y0067172D02*
X0140828Y0067172D01*
X0141191Y0068770D02*
X0100711Y0068770D01*
X0099112Y0070369D02*
X0142118Y0070369D01*
X0143623Y0071967D02*
X0097513Y0071967D01*
X0095915Y0073566D02*
X0141784Y0073566D01*
X0141052Y0075164D02*
X0094316Y0075164D01*
X0092718Y0076763D02*
X0140828Y0076763D01*
X0141021Y0078361D02*
X0091119Y0078361D01*
X0089521Y0079960D02*
X0141709Y0079960D01*
X0143443Y0081558D02*
X0087922Y0081558D01*
X0086324Y0083157D02*
X0161900Y0083157D01*
X0161900Y0084755D02*
X0084725Y0084755D01*
X0083127Y0086354D02*
X0161900Y0086354D01*
X0161900Y0087952D02*
X0081528Y0087952D01*
X0079930Y0089551D02*
X0161900Y0089551D01*
X0161900Y0091149D02*
X0078331Y0091149D01*
X0076733Y0092748D02*
X0161900Y0092748D01*
X0161900Y0094346D02*
X0075134Y0094346D01*
X0073536Y0095945D02*
X0161900Y0095945D01*
X0161900Y0097543D02*
X0071937Y0097543D01*
X0070339Y0099142D02*
X0161900Y0099142D01*
X0161900Y0100740D02*
X0068740Y0100740D01*
X0067142Y0102339D02*
X0161900Y0102339D01*
X0161900Y0103937D02*
X0096785Y0103937D01*
X0096442Y0103595D02*
X0097505Y0104658D01*
X0098081Y0106048D01*
X0098081Y0107552D01*
X0097505Y0108942D01*
X0096700Y0109747D01*
X0096700Y0116353D01*
X0097505Y0117158D01*
X0098081Y0118548D01*
X0098081Y0120052D01*
X0097505Y0121442D01*
X0096442Y0122505D01*
X0095052Y0123081D01*
X0093548Y0123081D01*
X0092158Y0122505D01*
X0091095Y0121442D01*
X0090519Y0120052D01*
X0090519Y0118548D01*
X0091095Y0117158D01*
X0091900Y0116353D01*
X0091900Y0109747D01*
X0091095Y0108942D01*
X0090519Y0107552D01*
X0090519Y0106048D01*
X0091095Y0104658D01*
X0092158Y0103595D01*
X0093548Y0103019D01*
X0095052Y0103019D01*
X0096442Y0103595D01*
X0097869Y0105536D02*
X0161900Y0105536D01*
X0161900Y0107134D02*
X0098081Y0107134D01*
X0097592Y0108733D02*
X0161900Y0108733D01*
X0161900Y0110332D02*
X0096700Y0110332D01*
X0096700Y0111930D02*
X0160776Y0111930D01*
X0159177Y0113529D02*
X0153782Y0113529D01*
X0149817Y0113529D02*
X0096700Y0113529D01*
X0096700Y0115127D02*
X0148400Y0115127D01*
X0148019Y0116726D02*
X0097073Y0116726D01*
X0097988Y0118324D02*
X0148339Y0118324D01*
X0149575Y0119923D02*
X0098081Y0119923D01*
X0097426Y0121521D02*
X0177801Y0121521D01*
X0178169Y0119923D02*
X0154025Y0119923D01*
X0161170Y0118324D02*
X0178474Y0118324D01*
X0178779Y0116726D02*
X0162769Y0116726D01*
X0164367Y0115127D02*
X0179084Y0115127D01*
X0179389Y0113529D02*
X0165966Y0113529D01*
X0166700Y0111930D02*
X0179694Y0111930D01*
X0179976Y0110332D02*
X0166700Y0110332D01*
X0166700Y0108733D02*
X0180077Y0108733D01*
X0180177Y0107134D02*
X0166700Y0107134D01*
X0166700Y0105536D02*
X0180278Y0105536D01*
X0180379Y0103937D02*
X0166700Y0103937D01*
X0166700Y0102339D02*
X0180479Y0102339D01*
X0180580Y0100740D02*
X0166700Y0100740D01*
X0166700Y0099142D02*
X0180598Y0099142D01*
X0180498Y0097543D02*
X0166700Y0097543D01*
X0166700Y0095945D02*
X0180397Y0095945D01*
X0180297Y0094346D02*
X0166700Y0094346D01*
X0166700Y0092748D02*
X0180196Y0092748D01*
X0180096Y0091149D02*
X0166700Y0091149D01*
X0166700Y0089551D02*
X0179995Y0089551D01*
X0179965Y0089077D02*
X0179965Y0089077D01*
X0161900Y0081558D02*
X0149212Y0081558D01*
X0150946Y0079960D02*
X0161900Y0079960D01*
X0161900Y0078361D02*
X0151634Y0078361D01*
X0151828Y0076763D02*
X0161900Y0076763D01*
X0161900Y0075164D02*
X0151603Y0075164D01*
X0150871Y0073566D02*
X0161900Y0073566D01*
X0161900Y0071967D02*
X0149032Y0071967D01*
X0150537Y0070369D02*
X0161900Y0070369D01*
X0161900Y0068770D02*
X0151465Y0068770D01*
X0151828Y0067172D02*
X0161900Y0067172D01*
X0161900Y0065573D02*
X0151773Y0065573D01*
X0151110Y0063975D02*
X0161127Y0063975D01*
X0160519Y0062376D02*
X0149682Y0062376D01*
X0150128Y0060778D02*
X0160631Y0060778D01*
X0161574Y0059179D02*
X0151295Y0059179D01*
X0142155Y0043194D02*
X0092955Y0043194D01*
X0091970Y0041596D02*
X0143533Y0041596D01*
X0142607Y0028807D02*
X0047686Y0028807D01*
X0050063Y0027209D02*
X0140230Y0027209D01*
X0137322Y0025610D02*
X0052971Y0025610D01*
X0055879Y0024012D02*
X0134414Y0024012D01*
X0131491Y0022413D02*
X0058802Y0022413D01*
X0062839Y0020815D02*
X0127453Y0020815D01*
X0123416Y0019216D02*
X0066877Y0019216D01*
X0072099Y0017618D02*
X0118194Y0017618D01*
X0111968Y0016019D02*
X0078325Y0016019D01*
X0058953Y0036800D02*
X0044165Y0036800D01*
X0043765Y0036800D02*
X0037583Y0036800D01*
X0038702Y0038399D02*
X0035881Y0038399D01*
X0034179Y0039997D02*
X0039490Y0039997D01*
X0041262Y0041596D02*
X0032554Y0041596D01*
X0031232Y0043194D02*
X0039793Y0043194D01*
X0038844Y0044793D02*
X0029909Y0044793D01*
X0028587Y0046391D02*
X0038465Y0046391D01*
X0038505Y0047990D02*
X0027264Y0047990D01*
X0025951Y0049588D02*
X0039167Y0049588D01*
X0040574Y0051187D02*
X0024937Y0051187D01*
X0023922Y0052785D02*
X0044921Y0052785D01*
X0043322Y0054384D02*
X0022908Y0054384D01*
X0021893Y0055982D02*
X0041724Y0055982D01*
X0040125Y0057581D02*
X0020879Y0057581D01*
X0019959Y0059179D02*
X0038527Y0059179D01*
X0037126Y0060778D02*
X0019206Y0060778D01*
X0018454Y0062376D02*
X0036900Y0062376D01*
X0036900Y0063975D02*
X0017702Y0063975D01*
X0016950Y0065573D02*
X0036900Y0065573D01*
X0036900Y0067172D02*
X0016198Y0067172D01*
X0015511Y0068770D02*
X0036900Y0068770D01*
X0036900Y0070369D02*
X0014992Y0070369D01*
X0014472Y0071967D02*
X0036900Y0071967D01*
X0036900Y0073566D02*
X0013953Y0073566D01*
X0013433Y0075164D02*
X0036900Y0075164D01*
X0036900Y0076763D02*
X0012914Y0076763D01*
X0012395Y0078361D02*
X0036900Y0078361D01*
X0036900Y0079960D02*
X0012067Y0079960D01*
X0011762Y0081558D02*
X0036900Y0081558D01*
X0036900Y0083157D02*
X0011457Y0083157D01*
X0011152Y0084755D02*
X0036900Y0084755D01*
X0036900Y0086354D02*
X0010847Y0086354D01*
X0010542Y0087952D02*
X0036900Y0087952D01*
X0036900Y0089551D02*
X0010298Y0089551D01*
X0010197Y0091149D02*
X0036900Y0091149D01*
X0036900Y0092748D02*
X0010097Y0092748D01*
X0009996Y0094346D02*
X0036900Y0094346D01*
X0036900Y0095945D02*
X0009896Y0095945D01*
X0009795Y0097543D02*
X0036900Y0097543D01*
X0036900Y0099142D02*
X0009694Y0099142D01*
X0009713Y0100740D02*
X0036900Y0100740D01*
X0036900Y0102339D02*
X0009814Y0102339D01*
X0009914Y0103937D02*
X0036900Y0103937D01*
X0036900Y0105536D02*
X0010015Y0105536D01*
X0010116Y0107134D02*
X0036900Y0107134D01*
X0036900Y0108733D02*
X0010216Y0108733D01*
X0010317Y0110332D02*
X0036900Y0110332D01*
X0036900Y0111930D02*
X0010599Y0111930D01*
X0010904Y0113529D02*
X0036900Y0113529D01*
X0036900Y0115127D02*
X0011209Y0115127D01*
X0011514Y0116726D02*
X0036900Y0116726D01*
X0036900Y0118324D02*
X0011819Y0118324D01*
X0012124Y0119923D02*
X0036900Y0119923D01*
X0036900Y0121521D02*
X0012491Y0121521D01*
X0013011Y0123120D02*
X0036900Y0123120D01*
X0036900Y0124718D02*
X0013530Y0124718D01*
X0014050Y0126317D02*
X0036900Y0126317D01*
X0036900Y0127915D02*
X0014569Y0127915D01*
X0015088Y0129514D02*
X0036900Y0129514D01*
X0036900Y0131112D02*
X0015608Y0131112D01*
X0016338Y0132711D02*
X0036900Y0132711D01*
X0036900Y0134309D02*
X0017090Y0134309D01*
X0017842Y0135908D02*
X0036900Y0135908D01*
X0036900Y0137506D02*
X0018594Y0137506D01*
X0019347Y0139105D02*
X0036900Y0139105D01*
X0036900Y0140703D02*
X0020099Y0140703D01*
X0021068Y0142302D02*
X0036910Y0142302D01*
X0038006Y0143900D02*
X0022083Y0143900D01*
X0023097Y0145499D02*
X0038204Y0145499D01*
X0039250Y0147097D02*
X0024111Y0147097D01*
X0025126Y0148696D02*
X0165167Y0148696D01*
X0166181Y0147097D02*
X0044350Y0147097D01*
X0045396Y0145499D02*
X0167196Y0145499D01*
X0168210Y0143900D02*
X0045581Y0143900D01*
X0045065Y0142302D02*
X0169225Y0142302D01*
X0170194Y0140703D02*
X0042997Y0140703D01*
X0041700Y0139105D02*
X0170946Y0139105D01*
X0171698Y0137506D02*
X0041700Y0137506D01*
X0041700Y0135908D02*
X0172451Y0135908D01*
X0173203Y0134309D02*
X0041700Y0134309D01*
X0041700Y0132711D02*
X0173955Y0132711D01*
X0174685Y0131112D02*
X0041700Y0131112D01*
X0041700Y0129514D02*
X0175204Y0129514D01*
X0175724Y0127915D02*
X0041700Y0127915D01*
X0041700Y0126317D02*
X0176243Y0126317D01*
X0176763Y0124718D02*
X0046756Y0124718D01*
X0047866Y0123120D02*
X0177282Y0123120D01*
X0186538Y0129514D02*
X0190550Y0129514D01*
X0190550Y0131112D02*
X0186018Y0131112D01*
X0185499Y0132711D02*
X0190550Y0132711D01*
X0190550Y0134309D02*
X0184980Y0134309D01*
X0184677Y0135240D02*
X0184677Y0135240D01*
X0179529Y0146182D01*
X0173049Y0156392D01*
X0165341Y0165709D01*
X0156526Y0173987D01*
X0146743Y0181095D01*
X0136146Y0186921D01*
X0130136Y0189300D01*
X0190550Y0189300D01*
X0190550Y0112542D01*
X0188414Y0123739D01*
X0188414Y0123739D01*
X0184677Y0135240D01*
X0184363Y0135908D02*
X0190550Y0135908D01*
X0190550Y0137506D02*
X0183611Y0137506D01*
X0182859Y0139105D02*
X0190550Y0139105D01*
X0190550Y0140703D02*
X0182106Y0140703D01*
X0181354Y0142302D02*
X0190550Y0142302D01*
X0190550Y0143900D02*
X0180602Y0143900D01*
X0179850Y0145499D02*
X0190550Y0145499D01*
X0190550Y0147097D02*
X0178947Y0147097D01*
X0179529Y0146182D02*
X0179529Y0146182D01*
X0177933Y0148696D02*
X0190550Y0148696D01*
X0190550Y0150294D02*
X0176919Y0150294D01*
X0175904Y0151893D02*
X0190550Y0151893D01*
X0190550Y0153491D02*
X0174890Y0153491D01*
X0173875Y0155090D02*
X0190550Y0155090D01*
X0190550Y0156688D02*
X0172804Y0156688D01*
X0173049Y0156392D02*
X0173049Y0156392D01*
X0171481Y0158287D02*
X0190550Y0158287D01*
X0190550Y0159885D02*
X0170159Y0159885D01*
X0168836Y0161484D02*
X0190550Y0161484D01*
X0190550Y0163082D02*
X0167514Y0163082D01*
X0166192Y0164681D02*
X0190550Y0164681D01*
X0190550Y0166279D02*
X0164734Y0166279D01*
X0165341Y0165709D02*
X0165341Y0165709D01*
X0163031Y0167878D02*
X0190550Y0167878D01*
X0190550Y0169476D02*
X0161329Y0169476D01*
X0159627Y0171075D02*
X0190550Y0171075D01*
X0190550Y0172673D02*
X0157925Y0172673D01*
X0156134Y0174272D02*
X0190550Y0174272D01*
X0190550Y0175870D02*
X0153934Y0175870D01*
X0151733Y0177469D02*
X0190550Y0177469D01*
X0190550Y0179068D02*
X0149533Y0179068D01*
X0147333Y0180666D02*
X0190550Y0180666D01*
X0190550Y0182265D02*
X0144615Y0182265D01*
X0141707Y0183863D02*
X0190550Y0183863D01*
X0190550Y0185462D02*
X0138800Y0185462D01*
X0135793Y0187060D02*
X0190550Y0187060D01*
X0190550Y0188659D02*
X0131756Y0188659D01*
X0126700Y0179068D02*
X0063592Y0179068D01*
X0067630Y0180666D02*
X0122663Y0180666D01*
X0117032Y0182265D02*
X0073261Y0182265D01*
X0079858Y0183863D02*
X0110435Y0183863D01*
X0130738Y0177469D02*
X0059555Y0177469D01*
X0056421Y0175870D02*
X0133872Y0175870D01*
X0136780Y0174272D02*
X0053513Y0174272D01*
X0050605Y0172673D02*
X0139687Y0172673D01*
X0142196Y0171075D02*
X0048097Y0171075D01*
X0045897Y0169476D02*
X0144396Y0169476D01*
X0146597Y0167878D02*
X0043696Y0167878D01*
X0041496Y0166279D02*
X0148797Y0166279D01*
X0150690Y0164681D02*
X0039603Y0164681D01*
X0037900Y0163082D02*
X0152392Y0163082D01*
X0154095Y0161484D02*
X0036198Y0161484D01*
X0034496Y0159885D02*
X0155797Y0159885D01*
X0157492Y0158287D02*
X0032801Y0158287D01*
X0031478Y0156688D02*
X0158815Y0156688D01*
X0160137Y0155090D02*
X0030156Y0155090D01*
X0028833Y0153491D02*
X0161459Y0153491D01*
X0162782Y0151893D02*
X0027511Y0151893D01*
X0026189Y0150294D02*
X0164104Y0150294D01*
X0187057Y0127915D02*
X0190550Y0127915D01*
X0190550Y0126317D02*
X0187577Y0126317D01*
X0188096Y0124718D02*
X0190550Y0124718D01*
X0190550Y0123120D02*
X0188532Y0123120D01*
X0188837Y0121521D02*
X0190550Y0121521D01*
X0190550Y0119923D02*
X0189142Y0119923D01*
X0189447Y0118324D02*
X0190550Y0118324D01*
X0190550Y0116726D02*
X0189752Y0116726D01*
X0190057Y0115127D02*
X0190550Y0115127D01*
X0190550Y0113529D02*
X0190362Y0113529D01*
X0091900Y0113529D02*
X0055952Y0113529D01*
X0054354Y0115127D02*
X0091900Y0115127D01*
X0091527Y0116726D02*
X0052755Y0116726D01*
X0051157Y0118324D02*
X0090612Y0118324D01*
X0090519Y0119923D02*
X0049558Y0119923D01*
X0048100Y0121521D02*
X0091174Y0121521D01*
X0091900Y0111930D02*
X0057551Y0111930D01*
X0059149Y0110332D02*
X0091900Y0110332D01*
X0091008Y0108733D02*
X0060748Y0108733D01*
X0062346Y0107134D02*
X0090519Y0107134D01*
X0090731Y0105536D02*
X0063945Y0105536D01*
X0065543Y0103937D02*
X0091815Y0103937D01*
X0066654Y0096066D02*
X0048100Y0113957D01*
X0048100Y0114619D01*
X0066654Y0096066D01*
X0065176Y0097543D02*
X0065121Y0097543D01*
X0063577Y0099142D02*
X0063463Y0099142D01*
X0061979Y0100740D02*
X0061806Y0100740D01*
X0060380Y0102339D02*
X0060148Y0102339D01*
X0058782Y0103937D02*
X0058490Y0103937D01*
X0057183Y0105536D02*
X0056833Y0105536D01*
X0055585Y0107134D02*
X0055175Y0107134D01*
X0053986Y0108733D02*
X0053517Y0108733D01*
X0052388Y0110332D02*
X0051859Y0110332D01*
X0050789Y0111930D02*
X0050202Y0111930D01*
X0049191Y0113529D02*
X0048544Y0113529D01*
X0044972Y0110332D02*
X0041700Y0110332D01*
X0041700Y0108733D02*
X0046629Y0108733D01*
X0048287Y0107134D02*
X0041700Y0107134D01*
X0041700Y0105536D02*
X0049945Y0105536D01*
X0051602Y0103937D02*
X0041700Y0103937D01*
X0041700Y0102339D02*
X0053260Y0102339D01*
X0054918Y0100740D02*
X0041700Y0100740D01*
X0041700Y0099142D02*
X0056576Y0099142D01*
X0058233Y0097543D02*
X0041700Y0097543D01*
X0041700Y0095945D02*
X0059891Y0095945D01*
X0061549Y0094346D02*
X0041700Y0094346D01*
X0041700Y0092748D02*
X0063206Y0092748D01*
X0064864Y0091149D02*
X0041700Y0091149D01*
X0041700Y0117074D02*
X0041700Y0119026D01*
X0042147Y0118579D01*
X0043423Y0118050D01*
X0042147Y0117521D01*
X0041700Y0117074D01*
X0041700Y0118324D02*
X0042762Y0118324D01*
X0041844Y0124718D02*
X0041700Y0124718D01*
X0014389Y0151893D02*
X0001800Y0151893D01*
X0001800Y0153491D02*
X0015403Y0153491D01*
X0016418Y0155090D02*
X0001800Y0155090D01*
X0001800Y0156688D02*
X0017489Y0156688D01*
X0017244Y0156392D02*
X0017244Y0156392D01*
X0024952Y0165709D01*
X0024952Y0165709D01*
X0033767Y0173987D01*
X0033767Y0173987D01*
X0043550Y0181095D01*
X0043550Y0181095D01*
X0054147Y0186921D01*
X0060157Y0189300D01*
X0001800Y0189300D01*
X0001800Y0123326D01*
X0001879Y0123739D01*
X0001879Y0123739D01*
X0005616Y0135240D01*
X0005616Y0135240D01*
X0010764Y0146182D01*
X0010764Y0146182D01*
X0017244Y0156392D01*
X0018812Y0158287D02*
X0001800Y0158287D01*
X0001800Y0159885D02*
X0020134Y0159885D01*
X0021457Y0161484D02*
X0001800Y0161484D01*
X0001800Y0163082D02*
X0022779Y0163082D01*
X0024101Y0164681D02*
X0001800Y0164681D01*
X0001800Y0166279D02*
X0025559Y0166279D01*
X0027262Y0167878D02*
X0001800Y0167878D01*
X0001800Y0169476D02*
X0028964Y0169476D01*
X0030666Y0171075D02*
X0001800Y0171075D01*
X0001800Y0172673D02*
X0032368Y0172673D01*
X0034159Y0174272D02*
X0001800Y0174272D01*
X0001800Y0175870D02*
X0036359Y0175870D01*
X0038560Y0177469D02*
X0001800Y0177469D01*
X0001800Y0179068D02*
X0040760Y0179068D01*
X0042960Y0180666D02*
X0001800Y0180666D01*
X0001800Y0182265D02*
X0045678Y0182265D01*
X0048585Y0183863D02*
X0001800Y0183863D01*
X0001800Y0185462D02*
X0051493Y0185462D01*
X0054147Y0186921D02*
X0054147Y0186921D01*
X0054499Y0187060D02*
X0001800Y0187060D01*
X0001800Y0188659D02*
X0058537Y0188659D01*
X0013374Y0150294D02*
X0001800Y0150294D01*
X0001800Y0148696D02*
X0012360Y0148696D01*
X0011346Y0147097D02*
X0001800Y0147097D01*
X0001800Y0145499D02*
X0010443Y0145499D01*
X0009691Y0143900D02*
X0001800Y0143900D01*
X0001800Y0142302D02*
X0008939Y0142302D01*
X0008186Y0140703D02*
X0001800Y0140703D01*
X0001800Y0139105D02*
X0007434Y0139105D01*
X0006682Y0137506D02*
X0001800Y0137506D01*
X0001800Y0135908D02*
X0005930Y0135908D01*
X0005313Y0134309D02*
X0001800Y0134309D01*
X0001800Y0132711D02*
X0004794Y0132711D01*
X0004274Y0131112D02*
X0001800Y0131112D01*
X0001800Y0129514D02*
X0003755Y0129514D01*
X0003236Y0127915D02*
X0001800Y0127915D01*
X0001800Y0126317D02*
X0002716Y0126317D01*
X0002197Y0124718D02*
X0001800Y0124718D01*
X0049426Y0047990D02*
X0049716Y0047990D01*
X0049465Y0046391D02*
X0051315Y0046391D01*
X0052913Y0044793D02*
X0049087Y0044793D01*
X0048138Y0043194D02*
X0054512Y0043194D01*
X0056110Y0041596D02*
X0046668Y0041596D01*
X0048441Y0039997D02*
X0057709Y0039997D01*
X0058081Y0038399D02*
X0049229Y0038399D01*
D12*
X0109300Y0056800D02*
X0146328Y0056800D01*
X0146328Y0046800D02*
X0114300Y0046800D01*
X0044300Y0114300D01*
X0044300Y0121800D02*
X0109300Y0056800D01*
D13*
X0089300Y0044300D03*
X0049300Y0084300D03*
X0044300Y0114300D03*
X0044300Y0121800D03*
D14*
X0049300Y0084300D02*
X0089300Y0044300D01*
D15*
X0061800Y0039300D03*
X0094300Y0106800D03*
X0094300Y0119300D03*
X0041800Y0144300D03*
X0151800Y0116800D03*
X0164300Y0061800D03*
D16*
X0164300Y0111800D01*
X0159300Y0116800D01*
X0151800Y0116800D01*
X0094300Y0119300D02*
X0094300Y0106800D01*
X0041800Y0144300D02*
X0039300Y0141800D01*
X0039300Y0061800D01*
X0061800Y0039300D01*
M02*
