G75*
%MOIN*%
%OFA0B0*%
%FSLAX25Y25*%
%IPPOS*%
%LPD*%
%AMOC8*
5,1,8,0,0,1.08239X$1,22.5*
%
%ADD10C,0.07400*%
%ADD11C,0.01200*%
%ADD12C,0.03962*%
%ADD13C,0.01181*%
%ADD14C,0.04000*%
%ADD15C,0.01969*%
%ADD16C,0.02000*%
D10*
X0014867Y0045970D03*
X0014867Y0055970D03*
X0117229Y0055970D03*
X0117229Y0065970D03*
X0117229Y0075970D03*
X0117229Y0085970D03*
X0117229Y0045970D03*
D11*
X0001638Y0043090D02*
X0001638Y0001600D01*
X0042328Y0001600D01*
X0041061Y0001991D01*
X0041061Y0001991D01*
X0031852Y0006426D01*
X0031852Y0006426D01*
X0023406Y0012184D01*
X0023406Y0012184D01*
X0015913Y0019137D01*
X0015913Y0019137D01*
X0015913Y0019137D01*
X0009540Y0027128D01*
X0009540Y0027128D01*
X0004429Y0035981D01*
X0001638Y0043090D01*
X0001638Y0042555D02*
X0001848Y0042555D01*
X0001638Y0041357D02*
X0002319Y0041357D01*
X0002789Y0040158D02*
X0001638Y0040158D01*
X0001638Y0038960D02*
X0003259Y0038960D01*
X0003730Y0037761D02*
X0001638Y0037761D01*
X0001638Y0036563D02*
X0004200Y0036563D01*
X0004429Y0035981D02*
X0004429Y0035981D01*
X0004785Y0035364D02*
X0001638Y0035364D01*
X0001638Y0034166D02*
X0005477Y0034166D01*
X0006169Y0032967D02*
X0001638Y0032967D01*
X0001638Y0031769D02*
X0006860Y0031769D01*
X0007552Y0030570D02*
X0001638Y0030570D01*
X0001638Y0029372D02*
X0008244Y0029372D01*
X0008936Y0028173D02*
X0001638Y0028173D01*
X0001638Y0026975D02*
X0009662Y0026975D01*
X0010618Y0025776D02*
X0001638Y0025776D01*
X0001638Y0024578D02*
X0011574Y0024578D01*
X0012529Y0023379D02*
X0001638Y0023379D01*
X0001638Y0022181D02*
X0013485Y0022181D01*
X0014441Y0020982D02*
X0001638Y0020982D01*
X0001638Y0019784D02*
X0015397Y0019784D01*
X0016507Y0018585D02*
X0001638Y0018585D01*
X0001638Y0017387D02*
X0017799Y0017387D01*
X0019091Y0016188D02*
X0001638Y0016188D01*
X0001638Y0014990D02*
X0020382Y0014990D01*
X0021674Y0013791D02*
X0001638Y0013791D01*
X0001638Y0012593D02*
X0022966Y0012593D01*
X0024565Y0011394D02*
X0001638Y0011394D01*
X0001638Y0010196D02*
X0026323Y0010196D01*
X0028080Y0008997D02*
X0001638Y0008997D01*
X0001638Y0007799D02*
X0029838Y0007799D01*
X0031596Y0006600D02*
X0001638Y0006600D01*
X0001638Y0005401D02*
X0033979Y0005401D01*
X0036467Y0004203D02*
X0001638Y0004203D01*
X0001638Y0003004D02*
X0038956Y0003004D01*
X0041660Y0001806D02*
X0001638Y0001806D01*
X0023830Y0026483D02*
X0018463Y0033212D01*
X0014159Y0040667D01*
X0014138Y0040719D01*
X0014450Y0040670D01*
X0014467Y0040670D01*
X0014467Y0045570D01*
X0015267Y0045570D01*
X0015267Y0040670D01*
X0015284Y0040670D01*
X0016108Y0040801D01*
X0016901Y0041058D01*
X0017644Y0041437D01*
X0018319Y0041927D01*
X0018909Y0042517D01*
X0019400Y0043192D01*
X0019778Y0043936D01*
X0020036Y0044729D01*
X0020047Y0044797D01*
X0020279Y0044565D01*
X0021161Y0044200D01*
X0021164Y0044200D01*
X0021986Y0043379D01*
X0023382Y0042800D01*
X0024894Y0042800D01*
X0026291Y0043379D01*
X0027357Y0044444D01*
X0027561Y0044240D01*
X0030338Y0041462D01*
X0030338Y0040844D01*
X0030917Y0039447D01*
X0031986Y0038379D01*
X0033382Y0037800D01*
X0034894Y0037800D01*
X0036291Y0038379D01*
X0037360Y0039447D01*
X0037938Y0040844D01*
X0037938Y0042356D01*
X0037360Y0043753D01*
X0036291Y0044821D01*
X0034894Y0045400D01*
X0034276Y0045400D01*
X0031923Y0047753D01*
X0031923Y0063468D01*
X0031996Y0063395D01*
X0033386Y0062819D01*
X0034890Y0062819D01*
X0036280Y0063395D01*
X0037344Y0064458D01*
X0037919Y0065848D01*
X0037919Y0066421D01*
X0039317Y0067819D01*
X0039890Y0067819D01*
X0041280Y0068395D01*
X0041354Y0068468D01*
X0041354Y0033546D01*
X0041778Y0032523D01*
X0042561Y0031740D01*
X0052838Y0021462D01*
X0052838Y0020844D01*
X0053417Y0019447D01*
X0053874Y0018991D01*
X0047122Y0018991D01*
X0046291Y0019821D01*
X0044894Y0020400D01*
X0043382Y0020400D01*
X0041986Y0019821D01*
X0040917Y0018753D01*
X0040338Y0017356D01*
X0040338Y0015844D01*
X0040917Y0014447D01*
X0041753Y0013611D01*
X0037252Y0015779D01*
X0030140Y0020628D01*
X0023830Y0026483D01*
X0023437Y0026975D02*
X0047326Y0026975D01*
X0046128Y0028173D02*
X0022481Y0028173D01*
X0021526Y0029372D02*
X0044929Y0029372D01*
X0043731Y0030570D02*
X0020570Y0030570D01*
X0019614Y0031769D02*
X0042532Y0031769D01*
X0041594Y0032967D02*
X0018658Y0032967D01*
X0017912Y0034166D02*
X0041354Y0034166D01*
X0041354Y0035364D02*
X0017220Y0035364D01*
X0016529Y0036563D02*
X0041354Y0036563D01*
X0041354Y0037761D02*
X0015837Y0037761D01*
X0015145Y0038960D02*
X0031404Y0038960D01*
X0030622Y0040158D02*
X0014453Y0040158D01*
X0014467Y0041357D02*
X0015267Y0041357D01*
X0015267Y0042555D02*
X0014467Y0042555D01*
X0014467Y0043754D02*
X0015267Y0043754D01*
X0015267Y0044952D02*
X0014467Y0044952D01*
X0017487Y0041357D02*
X0030338Y0041357D01*
X0029245Y0042555D02*
X0018937Y0042555D01*
X0019686Y0043754D02*
X0021610Y0043754D01*
X0021638Y0046600D02*
X0024138Y0046600D01*
X0021638Y0046600D02*
X0021638Y0084100D01*
X0019238Y0082800D02*
X0019238Y0059377D01*
X0017982Y0060633D01*
X0015961Y0061470D01*
X0013773Y0061470D01*
X0011751Y0060633D01*
X0010204Y0059086D01*
X0009367Y0057064D01*
X0009367Y0055898D01*
X0009099Y0057071D01*
X0008456Y0065655D01*
X0009099Y0074239D01*
X0011014Y0082631D01*
X0014159Y0090643D01*
X0018463Y0098098D01*
X0023830Y0104828D01*
X0030140Y0110682D01*
X0037252Y0115531D01*
X0045007Y0119266D01*
X0053232Y0121803D01*
X0061744Y0123086D01*
X0070352Y0123086D01*
X0078863Y0121803D01*
X0087089Y0119266D01*
X0094844Y0115531D01*
X0101956Y0110682D01*
X0108266Y0104828D01*
X0113633Y0098098D01*
X0114477Y0096635D01*
X0113791Y0097321D01*
X0112394Y0097900D01*
X0110882Y0097900D01*
X0109486Y0097321D01*
X0108655Y0096491D01*
X0091163Y0096491D01*
X0090284Y0096127D01*
X0089612Y0095454D01*
X0082112Y0087954D01*
X0081748Y0087076D01*
X0081748Y0049583D01*
X0081529Y0049365D01*
X0081529Y0096117D01*
X0082360Y0096947D01*
X0082938Y0098344D01*
X0082938Y0099856D01*
X0082360Y0101253D01*
X0081291Y0102321D01*
X0079894Y0102900D01*
X0078382Y0102900D01*
X0076986Y0102321D01*
X0076529Y0101865D01*
X0076529Y0104576D01*
X0076165Y0105454D01*
X0075492Y0106127D01*
X0074614Y0106491D01*
X0041163Y0106491D01*
X0040284Y0106127D01*
X0039612Y0105454D01*
X0024558Y0090400D01*
X0023382Y0090400D01*
X0021986Y0089821D01*
X0021638Y0089474D01*
X0021291Y0089821D01*
X0019894Y0090400D01*
X0018382Y0090400D01*
X0016986Y0089821D01*
X0015917Y0088753D01*
X0015338Y0087356D01*
X0015338Y0085844D01*
X0015917Y0084447D01*
X0016986Y0083379D01*
X0018382Y0082800D01*
X0019238Y0082800D01*
X0019238Y0082106D02*
X0010895Y0082106D01*
X0010621Y0080908D02*
X0019238Y0080908D01*
X0019238Y0079709D02*
X0010347Y0079709D01*
X0010074Y0078511D02*
X0019238Y0078511D01*
X0019238Y0077312D02*
X0009800Y0077312D01*
X0009527Y0076114D02*
X0019238Y0076114D01*
X0019238Y0074915D02*
X0009253Y0074915D01*
X0009060Y0073717D02*
X0019238Y0073717D01*
X0019238Y0072518D02*
X0008970Y0072518D01*
X0008880Y0071320D02*
X0019238Y0071320D01*
X0019238Y0070121D02*
X0008790Y0070121D01*
X0008700Y0068923D02*
X0019238Y0068923D01*
X0019238Y0067724D02*
X0008611Y0067724D01*
X0008521Y0066526D02*
X0019238Y0066526D01*
X0019238Y0065327D02*
X0008480Y0065327D01*
X0008570Y0064129D02*
X0019238Y0064129D01*
X0019238Y0062930D02*
X0008660Y0062930D01*
X0008750Y0061732D02*
X0019238Y0061732D01*
X0019238Y0060533D02*
X0018082Y0060533D01*
X0024038Y0060533D02*
X0026354Y0060533D01*
X0026354Y0059334D02*
X0024038Y0059334D01*
X0024038Y0058136D02*
X0026354Y0058136D01*
X0026354Y0056937D02*
X0024038Y0056937D01*
X0024038Y0055739D02*
X0026354Y0055739D01*
X0026354Y0054540D02*
X0024038Y0054540D01*
X0024038Y0053342D02*
X0026354Y0053342D01*
X0026354Y0052143D02*
X0024038Y0052143D01*
X0024038Y0050945D02*
X0026354Y0050945D01*
X0026291Y0049821D02*
X0024894Y0050400D01*
X0024038Y0050400D01*
X0024038Y0082800D01*
X0024894Y0082800D01*
X0026291Y0083379D01*
X0026638Y0083726D01*
X0026986Y0083379D01*
X0028382Y0082800D01*
X0029894Y0082800D01*
X0031291Y0083379D01*
X0031728Y0083816D01*
X0041354Y0083816D01*
X0041354Y0074732D01*
X0041280Y0074805D01*
X0039890Y0075381D01*
X0038386Y0075381D01*
X0036996Y0074805D01*
X0035933Y0073742D01*
X0035357Y0072352D01*
X0035357Y0071779D01*
X0033960Y0070381D01*
X0033386Y0070381D01*
X0032614Y0070061D01*
X0032938Y0070844D01*
X0032938Y0072356D01*
X0032360Y0073753D01*
X0031291Y0074821D01*
X0029894Y0075400D01*
X0028382Y0075400D01*
X0026986Y0074821D01*
X0025917Y0073753D01*
X0025338Y0072356D01*
X0025338Y0070844D01*
X0025917Y0069447D01*
X0026354Y0069010D01*
X0026354Y0049758D01*
X0026291Y0049821D01*
X0031923Y0049746D02*
X0041354Y0049746D01*
X0041354Y0048548D02*
X0031923Y0048548D01*
X0032326Y0047349D02*
X0041354Y0047349D01*
X0041354Y0046151D02*
X0033525Y0046151D01*
X0035975Y0044952D02*
X0041354Y0044952D01*
X0041354Y0043754D02*
X0037358Y0043754D01*
X0037856Y0042555D02*
X0041354Y0042555D01*
X0041354Y0041357D02*
X0037938Y0041357D01*
X0037654Y0040158D02*
X0041354Y0040158D01*
X0041354Y0038960D02*
X0036872Y0038960D01*
X0028047Y0043754D02*
X0026666Y0043754D01*
X0031923Y0050945D02*
X0041354Y0050945D01*
X0041354Y0052143D02*
X0031923Y0052143D01*
X0031923Y0053342D02*
X0041354Y0053342D01*
X0041354Y0054540D02*
X0031923Y0054540D01*
X0031923Y0055739D02*
X0041354Y0055739D01*
X0041354Y0056937D02*
X0031923Y0056937D01*
X0031923Y0058136D02*
X0041354Y0058136D01*
X0041354Y0059334D02*
X0031923Y0059334D01*
X0031923Y0060533D02*
X0041354Y0060533D01*
X0041354Y0061732D02*
X0031923Y0061732D01*
X0031923Y0062930D02*
X0033118Y0062930D01*
X0035159Y0062930D02*
X0041354Y0062930D01*
X0041354Y0064129D02*
X0037014Y0064129D01*
X0037704Y0065327D02*
X0041354Y0065327D01*
X0041354Y0066526D02*
X0038024Y0066526D01*
X0039222Y0067724D02*
X0041354Y0067724D01*
X0046923Y0067724D02*
X0059248Y0067724D01*
X0059248Y0066526D02*
X0046923Y0066526D01*
X0046923Y0065327D02*
X0059248Y0065327D01*
X0059248Y0064129D02*
X0046923Y0064129D01*
X0046923Y0062930D02*
X0059248Y0062930D01*
X0059248Y0061732D02*
X0046923Y0061732D01*
X0046923Y0060533D02*
X0059248Y0060533D01*
X0059248Y0059334D02*
X0046923Y0059334D01*
X0046923Y0058136D02*
X0059248Y0058136D01*
X0059248Y0056937D02*
X0046923Y0056937D01*
X0046923Y0055739D02*
X0059248Y0055739D01*
X0059248Y0054540D02*
X0046923Y0054540D01*
X0046923Y0053342D02*
X0059248Y0053342D01*
X0059248Y0052143D02*
X0046923Y0052143D01*
X0046923Y0050945D02*
X0059248Y0050945D01*
X0059248Y0049746D02*
X0046923Y0049746D01*
X0046923Y0048548D02*
X0059248Y0048548D01*
X0059248Y0047349D02*
X0046923Y0047349D01*
X0046923Y0046151D02*
X0059248Y0046151D01*
X0059248Y0044952D02*
X0046923Y0044952D01*
X0046923Y0043754D02*
X0059248Y0043754D01*
X0059248Y0042555D02*
X0046923Y0042555D01*
X0046923Y0041357D02*
X0059248Y0041357D01*
X0059248Y0040158D02*
X0046923Y0040158D01*
X0046923Y0038960D02*
X0059248Y0038960D01*
X0059248Y0037761D02*
X0046923Y0037761D01*
X0046923Y0036563D02*
X0059248Y0036563D01*
X0059248Y0035364D02*
X0046923Y0035364D01*
X0046923Y0035253D02*
X0046923Y0087154D01*
X0046499Y0088177D01*
X0045715Y0088960D01*
X0044692Y0089384D01*
X0031728Y0089384D01*
X0031291Y0089821D01*
X0030902Y0089983D01*
X0040338Y0099419D01*
X0040338Y0098344D01*
X0040917Y0096947D01*
X0041986Y0095879D01*
X0043382Y0095300D01*
X0044558Y0095300D01*
X0059248Y0080610D01*
X0059248Y0024365D01*
X0058791Y0024821D01*
X0057394Y0025400D01*
X0056776Y0025400D01*
X0046923Y0035253D01*
X0048010Y0034166D02*
X0059248Y0034166D01*
X0059248Y0032967D02*
X0049209Y0032967D01*
X0050407Y0031769D02*
X0059248Y0031769D01*
X0059248Y0030570D02*
X0051606Y0030570D01*
X0052804Y0029372D02*
X0059248Y0029372D01*
X0059248Y0028173D02*
X0054003Y0028173D01*
X0055201Y0026975D02*
X0059248Y0026975D01*
X0059248Y0025776D02*
X0056400Y0025776D01*
X0059035Y0024578D02*
X0059248Y0024578D01*
X0064029Y0024578D02*
X0071748Y0024578D01*
X0071748Y0025776D02*
X0064029Y0025776D01*
X0064029Y0026975D02*
X0071748Y0026975D01*
X0071748Y0028173D02*
X0064029Y0028173D01*
X0064029Y0029372D02*
X0071748Y0029372D01*
X0071748Y0030570D02*
X0064029Y0030570D01*
X0064029Y0031769D02*
X0071748Y0031769D01*
X0071748Y0032967D02*
X0064029Y0032967D01*
X0064029Y0034166D02*
X0071748Y0034166D01*
X0071748Y0035364D02*
X0064029Y0035364D01*
X0064029Y0036563D02*
X0071748Y0036563D01*
X0071748Y0037761D02*
X0064029Y0037761D01*
X0064029Y0038960D02*
X0071748Y0038960D01*
X0071748Y0040158D02*
X0064029Y0040158D01*
X0064029Y0041357D02*
X0071748Y0041357D01*
X0071748Y0042555D02*
X0064029Y0042555D01*
X0064029Y0043754D02*
X0071748Y0043754D01*
X0071748Y0044952D02*
X0064029Y0044952D01*
X0064029Y0046151D02*
X0071748Y0046151D01*
X0071748Y0047349D02*
X0064029Y0047349D01*
X0064029Y0048548D02*
X0071748Y0048548D01*
X0071748Y0049746D02*
X0064029Y0049746D01*
X0064029Y0050945D02*
X0071748Y0050945D01*
X0071748Y0052143D02*
X0064029Y0052143D01*
X0064029Y0053342D02*
X0071748Y0053342D01*
X0071748Y0054540D02*
X0064029Y0054540D01*
X0064029Y0055739D02*
X0071748Y0055739D01*
X0071748Y0056937D02*
X0064029Y0056937D01*
X0064029Y0058136D02*
X0071748Y0058136D01*
X0071748Y0059334D02*
X0064029Y0059334D01*
X0064029Y0060533D02*
X0071748Y0060533D01*
X0071748Y0061732D02*
X0064029Y0061732D01*
X0064029Y0062930D02*
X0071748Y0062930D01*
X0071748Y0064129D02*
X0064029Y0064129D01*
X0064029Y0065327D02*
X0071748Y0065327D01*
X0071748Y0066526D02*
X0064029Y0066526D01*
X0064029Y0067724D02*
X0071748Y0067724D01*
X0071748Y0068923D02*
X0064029Y0068923D01*
X0064029Y0070121D02*
X0071748Y0070121D01*
X0071748Y0071320D02*
X0064029Y0071320D01*
X0064029Y0072518D02*
X0071748Y0072518D01*
X0071748Y0073717D02*
X0064029Y0073717D01*
X0064029Y0074915D02*
X0071748Y0074915D01*
X0071748Y0076114D02*
X0064029Y0076114D01*
X0064029Y0077312D02*
X0071748Y0077312D01*
X0071748Y0078511D02*
X0064029Y0078511D01*
X0064029Y0079709D02*
X0071748Y0079709D01*
X0071748Y0080908D02*
X0064029Y0080908D01*
X0064029Y0082076D02*
X0063665Y0082954D01*
X0047938Y0098681D01*
X0047938Y0099856D01*
X0047360Y0101253D01*
X0046903Y0101709D01*
X0058900Y0101709D01*
X0058433Y0101242D01*
X0057857Y0099852D01*
X0057857Y0098348D01*
X0058433Y0096958D01*
X0059496Y0095895D01*
X0060886Y0095319D01*
X0062025Y0095319D01*
X0065357Y0091987D01*
X0065357Y0090848D01*
X0065933Y0089458D01*
X0066996Y0088395D01*
X0068386Y0087819D01*
X0069890Y0087819D01*
X0071280Y0088395D01*
X0071748Y0088862D01*
X0071748Y0021124D01*
X0072112Y0020246D01*
X0077112Y0015246D01*
X0077784Y0014573D01*
X0078663Y0014209D01*
X0091585Y0014209D01*
X0087089Y0012044D01*
X0078863Y0009507D01*
X0070352Y0008224D01*
X0061744Y0008224D01*
X0053232Y0009507D01*
X0045007Y0012044D01*
X0043437Y0012800D01*
X0044894Y0012800D01*
X0046291Y0013379D01*
X0047122Y0014209D01*
X0061163Y0014209D01*
X0062114Y0014209D01*
X0062992Y0014573D01*
X0063665Y0015246D01*
X0064029Y0016124D01*
X0064029Y0082076D01*
X0064016Y0082106D02*
X0071748Y0082106D01*
X0071748Y0083305D02*
X0063314Y0083305D01*
X0062116Y0084503D02*
X0071748Y0084503D01*
X0071748Y0085702D02*
X0060917Y0085702D01*
X0059719Y0086900D02*
X0071748Y0086900D01*
X0071748Y0088099D02*
X0070566Y0088099D01*
X0067711Y0088099D02*
X0058520Y0088099D01*
X0057322Y0089297D02*
X0066094Y0089297D01*
X0065503Y0090496D02*
X0056123Y0090496D01*
X0054925Y0091694D02*
X0065357Y0091694D01*
X0064451Y0092893D02*
X0053726Y0092893D01*
X0052528Y0094091D02*
X0063253Y0094091D01*
X0062054Y0095290D02*
X0051329Y0095290D01*
X0050131Y0096488D02*
X0058903Y0096488D01*
X0058131Y0097687D02*
X0048932Y0097687D01*
X0047938Y0098885D02*
X0057857Y0098885D01*
X0057953Y0100084D02*
X0047844Y0100084D01*
X0047330Y0101282D02*
X0058473Y0101282D01*
X0061638Y0099100D02*
X0069138Y0091600D01*
X0071748Y0094338D02*
X0071280Y0094805D01*
X0069890Y0095381D01*
X0068751Y0095381D01*
X0065419Y0098713D01*
X0065419Y0099852D01*
X0064844Y0101242D01*
X0064376Y0101709D01*
X0071748Y0101709D01*
X0071748Y0094338D01*
X0071748Y0095290D02*
X0070111Y0095290D01*
X0071748Y0096488D02*
X0067644Y0096488D01*
X0066446Y0097687D02*
X0071748Y0097687D01*
X0071748Y0098885D02*
X0065419Y0098885D01*
X0065323Y0100084D02*
X0071748Y0100084D01*
X0071748Y0101282D02*
X0064803Y0101282D01*
X0075543Y0106076D02*
X0106920Y0106076D01*
X0108212Y0104878D02*
X0076404Y0104878D01*
X0076529Y0103679D02*
X0109182Y0103679D01*
X0110137Y0102481D02*
X0080906Y0102481D01*
X0082330Y0101282D02*
X0111093Y0101282D01*
X0112049Y0100084D02*
X0082844Y0100084D01*
X0082938Y0098885D02*
X0113005Y0098885D01*
X0112909Y0097687D02*
X0113870Y0097687D01*
X0115270Y0095261D02*
X0117459Y0091470D01*
X0116135Y0091470D01*
X0114113Y0090633D01*
X0113744Y0090263D01*
X0113665Y0090454D01*
X0113402Y0090717D01*
X0113791Y0090879D01*
X0114860Y0091947D01*
X0115438Y0093344D01*
X0115438Y0094856D01*
X0115270Y0095261D01*
X0115438Y0094091D02*
X0115946Y0094091D01*
X0116638Y0092893D02*
X0115251Y0092893D01*
X0114607Y0091694D02*
X0117330Y0091694D01*
X0113976Y0090496D02*
X0113623Y0090496D01*
X0108874Y0091491D02*
X0094622Y0091491D01*
X0094403Y0091709D01*
X0108655Y0091709D01*
X0108874Y0091491D01*
X0108670Y0091694D02*
X0094418Y0091694D01*
X0094622Y0086709D02*
X0109248Y0086709D01*
X0109248Y0083991D01*
X0098663Y0083991D01*
X0097784Y0083627D01*
X0097112Y0082954D01*
X0092521Y0078363D01*
X0092360Y0078753D01*
X0091291Y0079821D01*
X0089894Y0080400D01*
X0088382Y0080400D01*
X0086986Y0079821D01*
X0086529Y0079365D01*
X0086529Y0085610D01*
X0088256Y0087337D01*
X0088417Y0086947D01*
X0089486Y0085879D01*
X0090882Y0085300D01*
X0092394Y0085300D01*
X0093791Y0085879D01*
X0094622Y0086709D01*
X0093364Y0085702D02*
X0109248Y0085702D01*
X0109248Y0084503D02*
X0086529Y0084503D01*
X0086529Y0083305D02*
X0097462Y0083305D01*
X0096264Y0082106D02*
X0086529Y0082106D01*
X0086529Y0080908D02*
X0095065Y0080908D01*
X0093867Y0079709D02*
X0091403Y0079709D01*
X0092460Y0078511D02*
X0092668Y0078511D01*
X0096529Y0073835D02*
X0096986Y0073379D01*
X0098382Y0072800D01*
X0099558Y0072800D01*
X0109248Y0063110D01*
X0109248Y0051124D01*
X0109612Y0050246D01*
X0112041Y0047817D01*
X0111729Y0047064D01*
X0111729Y0044876D01*
X0112566Y0042855D01*
X0114113Y0041307D01*
X0116135Y0040470D01*
X0117823Y0040470D01*
X0113633Y0033212D01*
X0108266Y0026483D01*
X0101956Y0020628D01*
X0096529Y0016928D01*
X0096529Y0073835D01*
X0096529Y0073717D02*
X0096648Y0073717D01*
X0096529Y0072518D02*
X0099839Y0072518D01*
X0101038Y0071320D02*
X0096529Y0071320D01*
X0096529Y0070121D02*
X0102236Y0070121D01*
X0103435Y0068923D02*
X0096529Y0068923D01*
X0096529Y0067724D02*
X0100458Y0067724D01*
X0100882Y0067900D02*
X0099486Y0067321D01*
X0098417Y0066253D01*
X0097838Y0064856D01*
X0097838Y0063344D01*
X0098417Y0061947D01*
X0099248Y0061117D01*
X0099248Y0051124D01*
X0099612Y0050246D01*
X0100284Y0049573D01*
X0102838Y0047019D01*
X0102838Y0045844D01*
X0103417Y0044447D01*
X0104486Y0043379D01*
X0105882Y0042800D01*
X0107394Y0042800D01*
X0108791Y0043379D01*
X0109860Y0044447D01*
X0110438Y0045844D01*
X0110438Y0047356D01*
X0109860Y0048753D01*
X0108791Y0049821D01*
X0107394Y0050400D01*
X0106219Y0050400D01*
X0104029Y0052590D01*
X0104029Y0061117D01*
X0104860Y0061947D01*
X0105438Y0063344D01*
X0105438Y0064856D01*
X0104860Y0066253D01*
X0103791Y0067321D01*
X0102394Y0067900D01*
X0100882Y0067900D01*
X0098690Y0066526D02*
X0096529Y0066526D01*
X0096529Y0065327D02*
X0098033Y0065327D01*
X0097838Y0064129D02*
X0096529Y0064129D01*
X0096529Y0062930D02*
X0098010Y0062930D01*
X0098633Y0061732D02*
X0096529Y0061732D01*
X0096529Y0060533D02*
X0099248Y0060533D01*
X0099248Y0059334D02*
X0096529Y0059334D01*
X0096529Y0058136D02*
X0099248Y0058136D01*
X0099248Y0056937D02*
X0096529Y0056937D01*
X0096529Y0055739D02*
X0099248Y0055739D01*
X0099248Y0054540D02*
X0096529Y0054540D01*
X0096529Y0053342D02*
X0099248Y0053342D01*
X0099248Y0052143D02*
X0096529Y0052143D01*
X0096529Y0050945D02*
X0099322Y0050945D01*
X0100111Y0049746D02*
X0096529Y0049746D01*
X0096529Y0048548D02*
X0101310Y0048548D01*
X0102508Y0047349D02*
X0096529Y0047349D01*
X0096529Y0046151D02*
X0102838Y0046151D01*
X0103208Y0044952D02*
X0096529Y0044952D01*
X0096529Y0043754D02*
X0104110Y0043754D01*
X0109166Y0043754D02*
X0112194Y0043754D01*
X0111729Y0044952D02*
X0110069Y0044952D01*
X0110438Y0046151D02*
X0111729Y0046151D01*
X0111847Y0047349D02*
X0110438Y0047349D01*
X0109945Y0048548D02*
X0111310Y0048548D01*
X0110111Y0049746D02*
X0108866Y0049746D01*
X0109322Y0050945D02*
X0105674Y0050945D01*
X0104476Y0052143D02*
X0109248Y0052143D01*
X0109248Y0053342D02*
X0104029Y0053342D01*
X0104029Y0054540D02*
X0109248Y0054540D01*
X0109248Y0055739D02*
X0104029Y0055739D01*
X0104029Y0056937D02*
X0109248Y0056937D01*
X0109248Y0058136D02*
X0104029Y0058136D01*
X0104029Y0059334D02*
X0109248Y0059334D01*
X0109248Y0060533D02*
X0104029Y0060533D01*
X0104644Y0061732D02*
X0109248Y0061732D01*
X0109248Y0062930D02*
X0105267Y0062930D01*
X0105438Y0064129D02*
X0108229Y0064129D01*
X0107030Y0065327D02*
X0105243Y0065327D01*
X0105832Y0066526D02*
X0104587Y0066526D01*
X0104633Y0067724D02*
X0102819Y0067724D01*
X0107799Y0071320D02*
X0108538Y0071320D01*
X0108998Y0070121D02*
X0109736Y0070121D01*
X0110196Y0068923D02*
X0110935Y0068923D01*
X0111395Y0067724D02*
X0112002Y0067724D01*
X0112041Y0067817D02*
X0111824Y0067295D01*
X0102938Y0076181D01*
X0102938Y0077356D01*
X0102360Y0078753D01*
X0101903Y0079209D01*
X0106748Y0079209D01*
X0106748Y0073624D01*
X0107112Y0072746D01*
X0112041Y0067817D01*
X0107339Y0072518D02*
X0106601Y0072518D01*
X0106748Y0073717D02*
X0105402Y0073717D01*
X0104204Y0074915D02*
X0106748Y0074915D01*
X0106748Y0076114D02*
X0103005Y0076114D01*
X0102938Y0077312D02*
X0106748Y0077312D01*
X0106748Y0078511D02*
X0102460Y0078511D01*
X0111529Y0078329D02*
X0111529Y0075090D01*
X0111729Y0074890D01*
X0111729Y0077064D01*
X0112041Y0077817D01*
X0111529Y0078329D01*
X0111529Y0077312D02*
X0111832Y0077312D01*
X0111729Y0076114D02*
X0111529Y0076114D01*
X0111704Y0074915D02*
X0111729Y0074915D01*
X0119530Y0070970D02*
X0120344Y0071307D01*
X0121892Y0072855D01*
X0122729Y0074876D01*
X0122729Y0075412D01*
X0122997Y0074239D01*
X0123640Y0065655D01*
X0122997Y0057071D01*
X0122729Y0055898D01*
X0122729Y0057064D01*
X0121892Y0059086D01*
X0120344Y0060633D01*
X0119530Y0060970D01*
X0120344Y0061307D01*
X0121892Y0062855D01*
X0122729Y0064876D01*
X0122729Y0067064D01*
X0121892Y0069086D01*
X0120344Y0070633D01*
X0119530Y0070970D01*
X0120357Y0071320D02*
X0123215Y0071320D01*
X0123126Y0072518D02*
X0121555Y0072518D01*
X0122249Y0073717D02*
X0123036Y0073717D01*
X0122842Y0074915D02*
X0122729Y0074915D01*
X0121890Y0079087D02*
X0121190Y0082153D01*
X0120344Y0081307D01*
X0119530Y0080970D01*
X0120344Y0080633D01*
X0121890Y0079087D01*
X0121748Y0079709D02*
X0121268Y0079709D01*
X0121474Y0080908D02*
X0119681Y0080908D01*
X0121143Y0082106D02*
X0121201Y0082106D01*
X0130505Y0088099D02*
X0131638Y0088099D01*
X0131638Y0089297D02*
X0130034Y0089297D01*
X0129564Y0090496D02*
X0131638Y0090496D01*
X0131638Y0091694D02*
X0129094Y0091694D01*
X0128623Y0092893D02*
X0131638Y0092893D01*
X0131638Y0094091D02*
X0128153Y0094091D01*
X0127682Y0095290D02*
X0131638Y0095290D01*
X0131638Y0096488D02*
X0126998Y0096488D01*
X0127667Y0095329D02*
X0122556Y0104182D01*
X0116183Y0112174D01*
X0108690Y0119126D01*
X0108690Y0119126D01*
X0100244Y0124884D01*
X0091034Y0129320D01*
X0083641Y0131600D01*
X0131638Y0131600D01*
X0131638Y0084776D01*
X0131401Y0085814D01*
X0127667Y0095329D01*
X0126306Y0097687D02*
X0131638Y0097687D01*
X0131638Y0098885D02*
X0125614Y0098885D01*
X0124922Y0100084D02*
X0131638Y0100084D01*
X0131638Y0101282D02*
X0124230Y0101282D01*
X0123538Y0102481D02*
X0131638Y0102481D01*
X0131638Y0103679D02*
X0122846Y0103679D01*
X0122556Y0104182D02*
X0122556Y0104182D01*
X0122001Y0104878D02*
X0131638Y0104878D01*
X0131638Y0106076D02*
X0121045Y0106076D01*
X0120089Y0107275D02*
X0131638Y0107275D01*
X0131638Y0108473D02*
X0119133Y0108473D01*
X0118178Y0109672D02*
X0131638Y0109672D01*
X0131638Y0110870D02*
X0117222Y0110870D01*
X0116266Y0112069D02*
X0131638Y0112069D01*
X0131638Y0113268D02*
X0115004Y0113268D01*
X0116183Y0112174D02*
X0116183Y0112174D01*
X0113712Y0114466D02*
X0131638Y0114466D01*
X0131638Y0115665D02*
X0112420Y0115665D01*
X0111129Y0116863D02*
X0131638Y0116863D01*
X0131638Y0118062D02*
X0109837Y0118062D01*
X0108493Y0119260D02*
X0131638Y0119260D01*
X0131638Y0120459D02*
X0106735Y0120459D01*
X0104977Y0121657D02*
X0131638Y0121657D01*
X0131638Y0122856D02*
X0103220Y0122856D01*
X0101462Y0124054D02*
X0131638Y0124054D01*
X0131638Y0125253D02*
X0099479Y0125253D01*
X0100244Y0124884D02*
X0100244Y0124884D01*
X0096991Y0126451D02*
X0131638Y0126451D01*
X0131638Y0127650D02*
X0094502Y0127650D01*
X0092013Y0128848D02*
X0131638Y0128848D01*
X0131638Y0130047D02*
X0088677Y0130047D01*
X0091034Y0129320D02*
X0091034Y0129320D01*
X0084791Y0131245D02*
X0131638Y0131245D01*
X0105628Y0107275D02*
X0026467Y0107275D01*
X0025176Y0106076D02*
X0040234Y0106076D01*
X0039036Y0104878D02*
X0023884Y0104878D01*
X0022914Y0103679D02*
X0037837Y0103679D01*
X0036638Y0102481D02*
X0021958Y0102481D01*
X0021002Y0101282D02*
X0035440Y0101282D01*
X0034241Y0100084D02*
X0020047Y0100084D01*
X0019091Y0098885D02*
X0033043Y0098885D01*
X0031844Y0097687D02*
X0018226Y0097687D01*
X0017534Y0096488D02*
X0030646Y0096488D01*
X0029447Y0095290D02*
X0016842Y0095290D01*
X0016150Y0094091D02*
X0028249Y0094091D01*
X0027050Y0092893D02*
X0015458Y0092893D01*
X0014766Y0091694D02*
X0025852Y0091694D01*
X0024653Y0090496D02*
X0014101Y0090496D01*
X0013631Y0089297D02*
X0016462Y0089297D01*
X0015646Y0088099D02*
X0013160Y0088099D01*
X0012690Y0086900D02*
X0015338Y0086900D01*
X0015397Y0085702D02*
X0012220Y0085702D01*
X0011749Y0084503D02*
X0015894Y0084503D01*
X0017164Y0083305D02*
X0011279Y0083305D01*
X0003002Y0091694D02*
X0001638Y0091694D01*
X0001638Y0090496D02*
X0002532Y0090496D01*
X0002061Y0089297D02*
X0001638Y0089297D01*
X0001638Y0088220D02*
X0001638Y0131600D01*
X0048454Y0131600D01*
X0041061Y0129320D01*
X0031852Y0124884D01*
X0031852Y0124884D01*
X0023406Y0119126D01*
X0015913Y0112174D01*
X0015913Y0112174D01*
X0009540Y0104182D01*
X0004429Y0095329D01*
X0001638Y0088220D01*
X0001638Y0092893D02*
X0003472Y0092893D01*
X0003943Y0094091D02*
X0001638Y0094091D01*
X0001638Y0095290D02*
X0004413Y0095290D01*
X0004429Y0095329D02*
X0004429Y0095329D01*
X0005098Y0096488D02*
X0001638Y0096488D01*
X0001638Y0097687D02*
X0005790Y0097687D01*
X0006482Y0098885D02*
X0001638Y0098885D01*
X0001638Y0100084D02*
X0007174Y0100084D01*
X0007866Y0101282D02*
X0001638Y0101282D01*
X0001638Y0102481D02*
X0008558Y0102481D01*
X0009250Y0103679D02*
X0001638Y0103679D01*
X0001638Y0104878D02*
X0010095Y0104878D01*
X0009540Y0104182D02*
X0009540Y0104182D01*
X0011050Y0106076D02*
X0001638Y0106076D01*
X0001638Y0107275D02*
X0012006Y0107275D01*
X0012962Y0108473D02*
X0001638Y0108473D01*
X0001638Y0109672D02*
X0013918Y0109672D01*
X0014874Y0110870D02*
X0001638Y0110870D01*
X0001638Y0112069D02*
X0015829Y0112069D01*
X0017092Y0113268D02*
X0001638Y0113268D01*
X0001638Y0114466D02*
X0018383Y0114466D01*
X0019675Y0115665D02*
X0001638Y0115665D01*
X0001638Y0116863D02*
X0020967Y0116863D01*
X0022259Y0118062D02*
X0001638Y0118062D01*
X0001638Y0119260D02*
X0023602Y0119260D01*
X0023406Y0119126D02*
X0023406Y0119126D01*
X0025360Y0120459D02*
X0001638Y0120459D01*
X0001638Y0121657D02*
X0027118Y0121657D01*
X0028876Y0122856D02*
X0001638Y0122856D01*
X0001638Y0124054D02*
X0030634Y0124054D01*
X0032616Y0125253D02*
X0001638Y0125253D01*
X0001638Y0126451D02*
X0035105Y0126451D01*
X0037594Y0127650D02*
X0001638Y0127650D01*
X0001638Y0128848D02*
X0040082Y0128848D01*
X0041061Y0129320D02*
X0041061Y0129320D01*
X0043419Y0130047D02*
X0001638Y0130047D01*
X0001638Y0131245D02*
X0047304Y0131245D01*
X0052758Y0121657D02*
X0079337Y0121657D01*
X0083223Y0120459D02*
X0048873Y0120459D01*
X0044994Y0119260D02*
X0087101Y0119260D01*
X0089590Y0118062D02*
X0042506Y0118062D01*
X0040017Y0116863D02*
X0092079Y0116863D01*
X0094567Y0115665D02*
X0037528Y0115665D01*
X0035689Y0114466D02*
X0096406Y0114466D01*
X0098164Y0113268D02*
X0033931Y0113268D01*
X0032173Y0112069D02*
X0099922Y0112069D01*
X0101680Y0110870D02*
X0030415Y0110870D01*
X0029051Y0109672D02*
X0103045Y0109672D01*
X0104337Y0108473D02*
X0027759Y0108473D01*
X0038606Y0097687D02*
X0040611Y0097687D01*
X0040338Y0098885D02*
X0039804Y0098885D01*
X0041376Y0096488D02*
X0037407Y0096488D01*
X0036209Y0095290D02*
X0044568Y0095290D01*
X0045766Y0094091D02*
X0035010Y0094091D01*
X0033812Y0092893D02*
X0046965Y0092893D01*
X0048163Y0091694D02*
X0032613Y0091694D01*
X0031415Y0090496D02*
X0049362Y0090496D01*
X0050560Y0089297D02*
X0044902Y0089297D01*
X0046531Y0088099D02*
X0051759Y0088099D01*
X0052957Y0086900D02*
X0046923Y0086900D01*
X0046923Y0085702D02*
X0054156Y0085702D01*
X0055354Y0084503D02*
X0046923Y0084503D01*
X0046923Y0083305D02*
X0056553Y0083305D01*
X0057751Y0082106D02*
X0046923Y0082106D01*
X0046923Y0080908D02*
X0058950Y0080908D01*
X0059248Y0079709D02*
X0046923Y0079709D01*
X0046923Y0078511D02*
X0059248Y0078511D01*
X0059248Y0077312D02*
X0046923Y0077312D01*
X0046923Y0076114D02*
X0059248Y0076114D01*
X0059248Y0074915D02*
X0046923Y0074915D01*
X0046923Y0073717D02*
X0059248Y0073717D01*
X0059248Y0072518D02*
X0046923Y0072518D01*
X0046923Y0071320D02*
X0059248Y0071320D01*
X0059248Y0070121D02*
X0046923Y0070121D01*
X0046923Y0068923D02*
X0059248Y0068923D01*
X0076529Y0068923D02*
X0076748Y0068923D01*
X0076748Y0070121D02*
X0076529Y0070121D01*
X0076529Y0071320D02*
X0076748Y0071320D01*
X0076748Y0072518D02*
X0076529Y0072518D01*
X0076529Y0073717D02*
X0076748Y0073717D01*
X0076748Y0074915D02*
X0076529Y0074915D01*
X0076529Y0076114D02*
X0076748Y0076114D01*
X0076748Y0077312D02*
X0076529Y0077312D01*
X0076529Y0078511D02*
X0076748Y0078511D01*
X0076748Y0079709D02*
X0076529Y0079709D01*
X0076529Y0080908D02*
X0076748Y0080908D01*
X0076748Y0082106D02*
X0076529Y0082106D01*
X0076529Y0083305D02*
X0076748Y0083305D01*
X0076748Y0084503D02*
X0076529Y0084503D01*
X0076529Y0085702D02*
X0076748Y0085702D01*
X0076748Y0086900D02*
X0076529Y0086900D01*
X0076529Y0088099D02*
X0076748Y0088099D01*
X0076748Y0089297D02*
X0076529Y0089297D01*
X0076529Y0090496D02*
X0076748Y0090496D01*
X0076748Y0091694D02*
X0076529Y0091694D01*
X0076529Y0092893D02*
X0076748Y0092893D01*
X0076748Y0094091D02*
X0076529Y0094091D01*
X0076529Y0095290D02*
X0076748Y0095290D01*
X0076748Y0096117D02*
X0076748Y0024583D01*
X0076529Y0024365D01*
X0076529Y0096335D01*
X0076748Y0096117D01*
X0081529Y0095290D02*
X0089447Y0095290D01*
X0088249Y0094091D02*
X0081529Y0094091D01*
X0081529Y0092893D02*
X0087050Y0092893D01*
X0085852Y0091694D02*
X0081529Y0091694D01*
X0081529Y0090496D02*
X0084653Y0090496D01*
X0083455Y0089297D02*
X0081529Y0089297D01*
X0081529Y0088099D02*
X0082256Y0088099D01*
X0081748Y0086900D02*
X0081529Y0086900D01*
X0081529Y0085702D02*
X0081748Y0085702D01*
X0081748Y0084503D02*
X0081529Y0084503D01*
X0081529Y0083305D02*
X0081748Y0083305D01*
X0081748Y0082106D02*
X0081529Y0082106D01*
X0081529Y0080908D02*
X0081748Y0080908D01*
X0081748Y0079709D02*
X0081529Y0079709D01*
X0081529Y0078511D02*
X0081748Y0078511D01*
X0081748Y0077312D02*
X0081529Y0077312D01*
X0081529Y0076114D02*
X0081748Y0076114D01*
X0081748Y0074915D02*
X0081529Y0074915D01*
X0081529Y0073717D02*
X0081748Y0073717D01*
X0081748Y0072518D02*
X0081529Y0072518D01*
X0081529Y0071320D02*
X0081748Y0071320D01*
X0081748Y0070121D02*
X0081529Y0070121D01*
X0081529Y0068923D02*
X0081748Y0068923D01*
X0081748Y0067724D02*
X0081529Y0067724D01*
X0081529Y0066526D02*
X0081748Y0066526D01*
X0081748Y0065327D02*
X0081529Y0065327D01*
X0081529Y0064129D02*
X0081748Y0064129D01*
X0081748Y0062930D02*
X0081529Y0062930D01*
X0081529Y0061732D02*
X0081748Y0061732D01*
X0081748Y0060533D02*
X0081529Y0060533D01*
X0081529Y0059334D02*
X0081748Y0059334D01*
X0081748Y0058136D02*
X0081529Y0058136D01*
X0081529Y0056937D02*
X0081748Y0056937D01*
X0081748Y0055739D02*
X0081529Y0055739D01*
X0081529Y0054540D02*
X0081748Y0054540D01*
X0081748Y0053342D02*
X0081529Y0053342D01*
X0081529Y0052143D02*
X0081748Y0052143D01*
X0081748Y0050945D02*
X0081529Y0050945D01*
X0081529Y0049746D02*
X0081748Y0049746D01*
X0076748Y0049746D02*
X0076529Y0049746D01*
X0076529Y0048548D02*
X0076748Y0048548D01*
X0076748Y0047349D02*
X0076529Y0047349D01*
X0076529Y0046151D02*
X0076748Y0046151D01*
X0076748Y0044952D02*
X0076529Y0044952D01*
X0076529Y0043754D02*
X0076748Y0043754D01*
X0076748Y0042555D02*
X0076529Y0042555D01*
X0076529Y0041357D02*
X0076748Y0041357D01*
X0076748Y0040158D02*
X0076529Y0040158D01*
X0076529Y0038960D02*
X0076748Y0038960D01*
X0076748Y0037761D02*
X0076529Y0037761D01*
X0076529Y0036563D02*
X0076748Y0036563D01*
X0076748Y0035364D02*
X0076529Y0035364D01*
X0076529Y0034166D02*
X0076748Y0034166D01*
X0076748Y0032967D02*
X0076529Y0032967D01*
X0076529Y0031769D02*
X0076748Y0031769D01*
X0076748Y0030570D02*
X0076529Y0030570D01*
X0076529Y0029372D02*
X0076748Y0029372D01*
X0076748Y0028173D02*
X0076529Y0028173D01*
X0076529Y0026975D02*
X0076748Y0026975D01*
X0076748Y0025776D02*
X0076529Y0025776D01*
X0076529Y0024578D02*
X0076742Y0024578D01*
X0081529Y0024583D02*
X0082360Y0023753D01*
X0082888Y0022477D01*
X0083417Y0023753D01*
X0084486Y0024821D01*
X0085882Y0025400D01*
X0086354Y0025400D01*
X0086354Y0043442D01*
X0086291Y0043379D01*
X0084894Y0042800D01*
X0083382Y0042800D01*
X0081986Y0043379D01*
X0081529Y0043835D01*
X0081529Y0024583D01*
X0081535Y0024578D02*
X0084242Y0024578D01*
X0083262Y0023379D02*
X0082514Y0023379D01*
X0081529Y0025776D02*
X0086354Y0025776D01*
X0086354Y0026975D02*
X0081529Y0026975D01*
X0081529Y0028173D02*
X0086354Y0028173D01*
X0086354Y0029372D02*
X0081529Y0029372D01*
X0081529Y0030570D02*
X0086354Y0030570D01*
X0086354Y0031769D02*
X0081529Y0031769D01*
X0081529Y0032967D02*
X0086354Y0032967D01*
X0086354Y0034166D02*
X0081529Y0034166D01*
X0081529Y0035364D02*
X0086354Y0035364D01*
X0086354Y0036563D02*
X0081529Y0036563D01*
X0081529Y0037761D02*
X0086354Y0037761D01*
X0086354Y0038960D02*
X0081529Y0038960D01*
X0081529Y0040158D02*
X0086354Y0040158D01*
X0086354Y0041357D02*
X0081529Y0041357D01*
X0081529Y0042555D02*
X0086354Y0042555D01*
X0081610Y0043754D02*
X0081529Y0043754D01*
X0076748Y0050945D02*
X0076529Y0050945D01*
X0076529Y0052143D02*
X0076748Y0052143D01*
X0076748Y0053342D02*
X0076529Y0053342D01*
X0076529Y0054540D02*
X0076748Y0054540D01*
X0076748Y0055739D02*
X0076529Y0055739D01*
X0076529Y0056937D02*
X0076748Y0056937D01*
X0076748Y0058136D02*
X0076529Y0058136D01*
X0076529Y0059334D02*
X0076748Y0059334D01*
X0076748Y0060533D02*
X0076529Y0060533D01*
X0076529Y0061732D02*
X0076748Y0061732D01*
X0076748Y0062930D02*
X0076529Y0062930D01*
X0076529Y0064129D02*
X0076748Y0064129D01*
X0076748Y0065327D02*
X0076529Y0065327D01*
X0076529Y0066526D02*
X0076748Y0066526D01*
X0076748Y0067724D02*
X0076529Y0067724D01*
X0086529Y0079709D02*
X0086874Y0079709D01*
X0086621Y0085702D02*
X0089913Y0085702D01*
X0088464Y0086900D02*
X0087819Y0086900D01*
X0091158Y0096488D02*
X0081901Y0096488D01*
X0082666Y0097687D02*
X0110368Y0097687D01*
X0130975Y0086900D02*
X0131638Y0086900D01*
X0131638Y0085702D02*
X0131427Y0085702D01*
X0123305Y0070121D02*
X0120856Y0070121D01*
X0121959Y0068923D02*
X0123395Y0068923D01*
X0123485Y0067724D02*
X0122455Y0067724D01*
X0122729Y0066526D02*
X0123575Y0066526D01*
X0123615Y0065327D02*
X0122729Y0065327D01*
X0122419Y0064129D02*
X0123525Y0064129D01*
X0123436Y0062930D02*
X0121923Y0062930D01*
X0120768Y0061732D02*
X0123346Y0061732D01*
X0123256Y0060533D02*
X0120444Y0060533D01*
X0121643Y0059334D02*
X0123166Y0059334D01*
X0123076Y0058136D02*
X0122285Y0058136D01*
X0122729Y0056937D02*
X0122966Y0056937D01*
X0122997Y0057071D02*
X0122997Y0057071D01*
X0122209Y0053622D02*
X0121307Y0049670D01*
X0120344Y0050633D01*
X0119530Y0050970D01*
X0120344Y0051307D01*
X0121892Y0052855D01*
X0122209Y0053622D01*
X0122145Y0053342D02*
X0122093Y0053342D01*
X0121872Y0052143D02*
X0121180Y0052143D01*
X0121598Y0050945D02*
X0119591Y0050945D01*
X0121231Y0049746D02*
X0121325Y0049746D01*
X0114064Y0041357D02*
X0096529Y0041357D01*
X0096529Y0042555D02*
X0112865Y0042555D01*
X0116951Y0038960D02*
X0096529Y0038960D01*
X0096529Y0040158D02*
X0117643Y0040158D01*
X0116259Y0037761D02*
X0096529Y0037761D01*
X0096529Y0036563D02*
X0115567Y0036563D01*
X0114875Y0035364D02*
X0096529Y0035364D01*
X0096529Y0034166D02*
X0114183Y0034166D01*
X0113437Y0032967D02*
X0096529Y0032967D01*
X0096529Y0031769D02*
X0112481Y0031769D01*
X0111526Y0030570D02*
X0096529Y0030570D01*
X0096529Y0029372D02*
X0110570Y0029372D01*
X0109614Y0028173D02*
X0096529Y0028173D01*
X0096529Y0026975D02*
X0108658Y0026975D01*
X0107505Y0025776D02*
X0096529Y0025776D01*
X0096529Y0024578D02*
X0106213Y0024578D01*
X0104921Y0023379D02*
X0096529Y0023379D01*
X0096529Y0022181D02*
X0103629Y0022181D01*
X0102338Y0020982D02*
X0096529Y0020982D01*
X0096529Y0019784D02*
X0100718Y0019784D01*
X0098960Y0018585D02*
X0096529Y0018585D01*
X0096529Y0017387D02*
X0097202Y0017387D01*
X0091748Y0018991D02*
X0091748Y0023124D01*
X0091499Y0022523D01*
X0090715Y0021740D01*
X0090715Y0021740D01*
X0090438Y0021462D01*
X0090438Y0020844D01*
X0089860Y0019447D01*
X0089403Y0018991D01*
X0091748Y0018991D01*
X0091748Y0019784D02*
X0089999Y0019784D01*
X0090438Y0020982D02*
X0091748Y0020982D01*
X0091748Y0022181D02*
X0091156Y0022181D01*
X0083874Y0018991D02*
X0081903Y0018991D01*
X0082360Y0019447D01*
X0082888Y0020723D01*
X0083417Y0019447D01*
X0083874Y0018991D01*
X0083278Y0019784D02*
X0082499Y0019784D01*
X0077368Y0014990D02*
X0063409Y0014990D01*
X0064029Y0016188D02*
X0076169Y0016188D01*
X0074971Y0017387D02*
X0064029Y0017387D01*
X0064029Y0018585D02*
X0073772Y0018585D01*
X0072574Y0019784D02*
X0064029Y0019784D01*
X0064029Y0020982D02*
X0071807Y0020982D01*
X0071748Y0022181D02*
X0064029Y0022181D01*
X0064029Y0023379D02*
X0071748Y0023379D01*
X0081096Y0010196D02*
X0051000Y0010196D01*
X0047114Y0011394D02*
X0084981Y0011394D01*
X0088227Y0012593D02*
X0043868Y0012593D01*
X0041573Y0013791D02*
X0041379Y0013791D01*
X0040692Y0014990D02*
X0038891Y0014990D01*
X0040338Y0016188D02*
X0036651Y0016188D01*
X0034894Y0017387D02*
X0040351Y0017387D01*
X0040847Y0018585D02*
X0033136Y0018585D01*
X0031378Y0019784D02*
X0041948Y0019784D01*
X0046329Y0019784D02*
X0053278Y0019784D01*
X0052838Y0020982D02*
X0029758Y0020982D01*
X0028466Y0022181D02*
X0052120Y0022181D01*
X0050922Y0023379D02*
X0027174Y0023379D01*
X0025883Y0024578D02*
X0049723Y0024578D01*
X0048525Y0025776D02*
X0024591Y0025776D01*
X0019238Y0048970D02*
X0018909Y0049423D01*
X0018319Y0050013D01*
X0017644Y0050503D01*
X0016925Y0050870D01*
X0017982Y0051307D01*
X0019238Y0052564D01*
X0019238Y0048970D01*
X0019238Y0049746D02*
X0018586Y0049746D01*
X0019238Y0050945D02*
X0017107Y0050945D01*
X0018818Y0052143D02*
X0019238Y0052143D01*
X0012808Y0050870D02*
X0012089Y0050503D01*
X0011414Y0050013D01*
X0010841Y0049440D01*
X0009886Y0053622D01*
X0010204Y0052855D01*
X0011751Y0051307D01*
X0012808Y0050870D01*
X0012626Y0050945D02*
X0010497Y0050945D01*
X0010224Y0052143D02*
X0010915Y0052143D01*
X0010002Y0053342D02*
X0009950Y0053342D01*
X0009367Y0056937D02*
X0009129Y0056937D01*
X0009019Y0058136D02*
X0009811Y0058136D01*
X0010453Y0059334D02*
X0008929Y0059334D01*
X0008839Y0060533D02*
X0011651Y0060533D01*
X0011148Y0049746D02*
X0010771Y0049746D01*
X0024038Y0061732D02*
X0026354Y0061732D01*
X0026354Y0062930D02*
X0024038Y0062930D01*
X0024038Y0064129D02*
X0026354Y0064129D01*
X0026354Y0065327D02*
X0024038Y0065327D01*
X0024038Y0066526D02*
X0026354Y0066526D01*
X0026354Y0067724D02*
X0024038Y0067724D01*
X0024038Y0068923D02*
X0026354Y0068923D01*
X0025638Y0070121D02*
X0024038Y0070121D01*
X0024038Y0071320D02*
X0025338Y0071320D01*
X0025406Y0072518D02*
X0024038Y0072518D01*
X0024038Y0073717D02*
X0025902Y0073717D01*
X0027212Y0074915D02*
X0024038Y0074915D01*
X0024038Y0076114D02*
X0041354Y0076114D01*
X0041354Y0077312D02*
X0024038Y0077312D01*
X0024038Y0078511D02*
X0041354Y0078511D01*
X0041354Y0079709D02*
X0024038Y0079709D01*
X0024038Y0080908D02*
X0041354Y0080908D01*
X0041354Y0082106D02*
X0024038Y0082106D01*
X0026113Y0083305D02*
X0027164Y0083305D01*
X0031113Y0083305D02*
X0041354Y0083305D01*
X0041354Y0074915D02*
X0041015Y0074915D01*
X0037261Y0074915D02*
X0031065Y0074915D01*
X0032375Y0073717D02*
X0035922Y0073717D01*
X0035426Y0072518D02*
X0032871Y0072518D01*
X0032938Y0071320D02*
X0034898Y0071320D01*
X0032759Y0070121D02*
X0032639Y0070121D01*
X0076529Y0102481D02*
X0077371Y0102481D01*
X0071882Y0122856D02*
X0060214Y0122856D01*
X0114029Y0061392D02*
X0114113Y0061307D01*
X0114928Y0060970D01*
X0114113Y0060633D01*
X0114029Y0060548D01*
X0114029Y0061392D01*
X0131638Y0046534D02*
X0131638Y0001600D01*
X0089768Y0001600D01*
X0091034Y0001991D01*
X0100244Y0006426D01*
X0108690Y0012184D01*
X0116183Y0019137D01*
X0122556Y0027128D01*
X0127667Y0035981D01*
X0131401Y0045496D01*
X0131638Y0046534D01*
X0131638Y0046151D02*
X0131551Y0046151D01*
X0131638Y0044952D02*
X0131188Y0044952D01*
X0131638Y0043754D02*
X0130718Y0043754D01*
X0130247Y0042555D02*
X0131638Y0042555D01*
X0131638Y0041357D02*
X0129777Y0041357D01*
X0129306Y0040158D02*
X0131638Y0040158D01*
X0131638Y0038960D02*
X0128836Y0038960D01*
X0128366Y0037761D02*
X0131638Y0037761D01*
X0131638Y0036563D02*
X0127895Y0036563D01*
X0127311Y0035364D02*
X0131638Y0035364D01*
X0131638Y0034166D02*
X0126619Y0034166D01*
X0125927Y0032967D02*
X0131638Y0032967D01*
X0131638Y0031769D02*
X0125235Y0031769D01*
X0124543Y0030570D02*
X0131638Y0030570D01*
X0131638Y0029372D02*
X0123851Y0029372D01*
X0123159Y0028173D02*
X0131638Y0028173D01*
X0131638Y0026975D02*
X0122433Y0026975D01*
X0121478Y0025776D02*
X0131638Y0025776D01*
X0131638Y0024578D02*
X0120522Y0024578D01*
X0119566Y0023379D02*
X0131638Y0023379D01*
X0131638Y0022181D02*
X0118610Y0022181D01*
X0117654Y0020982D02*
X0131638Y0020982D01*
X0131638Y0019784D02*
X0116699Y0019784D01*
X0116183Y0019137D02*
X0116183Y0019137D01*
X0115588Y0018585D02*
X0131638Y0018585D01*
X0131638Y0017387D02*
X0114297Y0017387D01*
X0113005Y0016188D02*
X0131638Y0016188D01*
X0131638Y0014990D02*
X0111713Y0014990D01*
X0110422Y0013791D02*
X0131638Y0013791D01*
X0131638Y0012593D02*
X0109130Y0012593D01*
X0108690Y0012184D02*
X0108690Y0012184D01*
X0107531Y0011394D02*
X0131638Y0011394D01*
X0131638Y0010196D02*
X0105773Y0010196D01*
X0104015Y0008997D02*
X0131638Y0008997D01*
X0131638Y0007799D02*
X0102257Y0007799D01*
X0100499Y0006600D02*
X0131638Y0006600D01*
X0131638Y0005401D02*
X0098117Y0005401D01*
X0095628Y0004203D02*
X0131638Y0004203D01*
X0131638Y0003004D02*
X0093139Y0003004D01*
X0091034Y0001991D02*
X0091034Y0001991D01*
X0090435Y0001806D02*
X0131638Y0001806D01*
X0090716Y0013791D02*
X0046703Y0013791D01*
X0056615Y0008997D02*
X0075480Y0008997D01*
D12*
X0034138Y0066600D03*
X0039138Y0071600D03*
X0061638Y0099100D03*
X0069138Y0091600D03*
D13*
X0061638Y0081600D02*
X0044138Y0099100D01*
X0041638Y0104100D02*
X0074138Y0104100D01*
X0074138Y0021600D01*
X0079138Y0016600D01*
X0094138Y0016600D01*
X0094138Y0076600D01*
X0099138Y0081600D01*
X0109138Y0081600D01*
X0109138Y0074100D01*
X0116638Y0066600D01*
X0117229Y0065970D01*
X0111638Y0064100D02*
X0111638Y0051600D01*
X0116638Y0046600D01*
X0117229Y0045970D01*
X0106638Y0046600D02*
X0101638Y0051600D01*
X0101638Y0064100D01*
X0111638Y0064100D02*
X0099138Y0076600D01*
X0111638Y0081600D02*
X0111638Y0089100D01*
X0091638Y0089100D01*
X0091638Y0094100D02*
X0111638Y0094100D01*
X0111638Y0081600D02*
X0116638Y0076600D01*
X0117229Y0075970D01*
X0091638Y0094100D02*
X0084138Y0086600D01*
X0084138Y0046600D01*
X0079138Y0021600D02*
X0079138Y0099100D01*
X0061638Y0081600D02*
X0061638Y0016600D01*
X0044138Y0016600D01*
X0021638Y0084100D02*
X0019138Y0086600D01*
X0024138Y0086600D02*
X0041638Y0104100D01*
D14*
X0044138Y0099100D03*
X0029138Y0086600D03*
X0024138Y0086600D03*
X0019138Y0086600D03*
X0029138Y0071600D03*
X0024138Y0046600D03*
X0034138Y0041600D03*
X0056638Y0021600D03*
X0044138Y0016600D03*
X0079138Y0021600D03*
X0086638Y0021600D03*
X0084138Y0046600D03*
X0101638Y0064100D03*
X0099138Y0076600D03*
X0089138Y0076600D03*
X0091638Y0089100D03*
X0079138Y0099100D03*
X0111638Y0094100D03*
X0106638Y0046600D03*
D15*
X0089138Y0024100D02*
X0089138Y0076600D01*
X0044138Y0086600D02*
X0044138Y0034100D01*
X0056638Y0021600D01*
X0034138Y0041600D02*
X0029138Y0046600D01*
X0029138Y0071600D01*
X0029138Y0086600D02*
X0044138Y0086600D01*
X0089138Y0024100D02*
X0086638Y0021600D01*
D16*
X0039138Y0071600D02*
X0034138Y0066600D01*
M02*
