G75*
%MOIN*%
%OFA0B0*%
%FSLAX25Y25*%
%IPPOS*%
%LPD*%
%AMOC8*
5,1,8,0,0,1.08239X$1,22.5*
%
%ADD10R,0.05118X0.05906*%
%ADD11R,0.03937X0.04567*%
%ADD12R,0.07874X0.05118*%
%ADD13R,0.22047X0.11181*%
%ADD14R,0.02480X0.03268*%
%ADD15C,0.07400*%
%ADD16R,0.04724X0.04724*%
%ADD17R,0.07008X0.02835*%
%ADD18R,0.03543X0.03150*%
%ADD19R,0.03150X0.03543*%
%ADD20R,0.05118X0.06299*%
%ADD21R,0.06299X0.05118*%
%ADD22C,0.00669*%
%ADD23R,0.09843X0.03937*%
%ADD24R,0.02165X0.04724*%
%ADD25C,0.01969*%
%ADD26C,0.04000*%
%ADD27C,0.01600*%
%ADD28C,0.01000*%
%ADD29C,0.00500*%
D10*
X0174102Y0123124D03*
X0181582Y0123124D03*
X0201976Y0128124D03*
X0209456Y0128124D03*
X0208472Y0154187D03*
X0200992Y0154187D03*
X0200992Y0184187D03*
X0208472Y0184187D03*
X0042842Y0136313D03*
X0035362Y0136313D03*
D11*
X0298682Y0172932D03*
X0304577Y0172932D03*
X0310436Y0172932D03*
X0316331Y0172894D03*
X0316369Y0207606D03*
X0310398Y0207606D03*
X0304577Y0207606D03*
X0298667Y0207652D03*
D12*
X0292657Y0190250D03*
X0322363Y0190250D03*
D13*
X0307488Y0190250D03*
D14*
X0280441Y0042179D03*
X0271386Y0042179D03*
D15*
X0305576Y0059005D03*
X0323376Y0059005D03*
X0323376Y0084605D03*
X0305576Y0084605D03*
X0249732Y0204187D03*
X0239732Y0204187D03*
X0229732Y0204187D03*
X0204732Y0204187D03*
X0194732Y0204187D03*
X0184732Y0204187D03*
X0154732Y0204187D03*
X0144732Y0204187D03*
X0134732Y0204187D03*
X0114732Y0204187D03*
X0104732Y0204187D03*
X0054732Y0204187D03*
X0044732Y0204187D03*
D16*
X0075598Y0204187D03*
X0083866Y0204187D03*
D17*
X0234109Y0050723D03*
X0234109Y0045723D03*
X0234109Y0040723D03*
X0234109Y0035723D03*
X0254134Y0035723D03*
X0254134Y0040723D03*
X0254134Y0045723D03*
X0254134Y0050723D03*
D18*
X0206425Y0042967D03*
X0198157Y0046707D03*
X0198157Y0039226D03*
D19*
X0237055Y0147809D03*
X0244535Y0147809D03*
X0240795Y0156077D03*
X0272055Y0147809D03*
X0279535Y0147809D03*
X0275795Y0156077D03*
X0307055Y0147809D03*
X0314535Y0147809D03*
X0310795Y0156077D03*
X0173472Y0190624D03*
X0165992Y0190624D03*
X0169732Y0182356D03*
X0125972Y0185624D03*
X0118492Y0185624D03*
X0122232Y0177356D03*
D20*
X0103472Y0184187D03*
X0095992Y0184187D03*
X0088472Y0159561D03*
X0080992Y0159561D03*
X0117921Y0088439D03*
X0125401Y0088439D03*
X0125401Y0073439D03*
X0117921Y0073439D03*
X0117921Y0058439D03*
X0125401Y0058439D03*
X0166563Y0057435D03*
X0174043Y0057435D03*
X0174338Y0073439D03*
X0166858Y0073439D03*
X0166858Y0088439D03*
X0174338Y0088439D03*
X0206110Y0083242D03*
X0213590Y0083242D03*
X0213590Y0068242D03*
X0206110Y0068242D03*
X0270047Y0083242D03*
X0277527Y0083242D03*
X0279535Y0111746D03*
X0272055Y0111746D03*
X0244535Y0111746D03*
X0237055Y0111746D03*
X0307055Y0111746D03*
X0314535Y0111746D03*
D21*
X0320795Y0128006D03*
X0320795Y0135486D03*
X0300795Y0135486D03*
X0300795Y0128006D03*
X0285795Y0128006D03*
X0285795Y0135486D03*
X0265795Y0135486D03*
X0265795Y0128006D03*
X0250795Y0128006D03*
X0250795Y0135486D03*
X0230795Y0135486D03*
X0230795Y0128006D03*
X0179122Y0140171D03*
X0179122Y0147652D03*
X0159732Y0165447D03*
X0159732Y0172927D03*
X0242567Y0068931D03*
X0242567Y0061451D03*
D22*
X0041406Y0072475D02*
X0032232Y0072475D01*
X0041406Y0072475D02*
X0041406Y0069207D01*
X0032232Y0069207D01*
X0032232Y0072475D01*
X0032232Y0069875D02*
X0041406Y0069875D01*
X0041406Y0070543D02*
X0032232Y0070543D01*
X0032232Y0071211D02*
X0041406Y0071211D01*
X0041406Y0071879D02*
X0032232Y0071879D01*
D23*
X0036819Y0078715D03*
X0036819Y0086589D03*
X0036819Y0094463D03*
X0036819Y0102337D03*
X0036819Y0110211D03*
X0036819Y0118085D03*
X0036819Y0125585D03*
X0101386Y0125585D03*
X0101386Y0118085D03*
X0101386Y0110211D03*
X0101386Y0102337D03*
X0101386Y0094463D03*
X0101386Y0086589D03*
X0101386Y0078715D03*
X0101386Y0070841D03*
D24*
X0053472Y0149443D03*
X0045992Y0149443D03*
X0045992Y0159680D03*
X0049732Y0159680D03*
X0053472Y0159680D03*
X0200992Y0164069D03*
X0204732Y0164069D03*
X0208472Y0164069D03*
X0208472Y0174306D03*
X0200992Y0174306D03*
D25*
X0200982Y0175437D01*
X0200982Y0184187D01*
X0200992Y0184187D01*
X0201897Y0184699D01*
X0201897Y0191589D01*
X0195992Y0193557D02*
X0183197Y0193557D01*
X0179752Y0197002D01*
X0174338Y0191589D01*
X0173472Y0190624D01*
X0174338Y0190604D01*
X0169417Y0185683D01*
X0152685Y0185683D01*
X0134968Y0203400D01*
X0134732Y0204187D01*
X0126110Y0199463D02*
X0123157Y0199463D01*
X0118236Y0204384D01*
X0115283Y0204384D01*
X0114732Y0204187D01*
X0126110Y0199463D02*
X0126110Y0185683D01*
X0125972Y0185624D01*
X0125126Y0184699D01*
X0124141Y0184699D01*
X0124141Y0183715D01*
X0122173Y0181746D01*
X0122173Y0177809D01*
X0122232Y0177356D01*
X0123157Y0176825D01*
X0130047Y0176825D01*
X0149732Y0157140D01*
X0191071Y0157140D01*
X0194023Y0160093D01*
X0189102Y0153203D02*
X0196976Y0145329D01*
X0213708Y0145329D01*
X0253078Y0184699D01*
X0254063Y0193557D02*
X0222567Y0193557D01*
X0215677Y0186667D01*
X0222567Y0193557D02*
X0207803Y0193557D01*
X0203866Y0197494D01*
X0199929Y0197494D01*
X0195992Y0193557D01*
X0184181Y0201431D02*
X0184181Y0203400D01*
X0184732Y0204187D01*
X0184181Y0201431D02*
X0179752Y0197002D01*
X0165992Y0190624D02*
X0165480Y0191589D01*
X0155638Y0201431D01*
X0155638Y0203400D01*
X0154732Y0204187D01*
X0169417Y0185683D02*
X0169417Y0182730D01*
X0169732Y0182356D01*
X0160559Y0179778D02*
X0160559Y0173872D01*
X0159732Y0172927D01*
X0133984Y0153203D02*
X0189102Y0153203D01*
X0208787Y0135486D02*
X0208787Y0128597D01*
X0209456Y0128124D01*
X0244535Y0147809D02*
X0245204Y0147297D01*
X0251110Y0141392D01*
X0251110Y0135486D01*
X0250795Y0135486D01*
X0279653Y0147297D02*
X0279535Y0147809D01*
X0279653Y0147297D02*
X0285559Y0141392D01*
X0285559Y0135486D01*
X0285795Y0135486D01*
X0314535Y0147809D02*
X0315086Y0147297D01*
X0320992Y0141392D01*
X0320992Y0135486D01*
X0320795Y0135486D01*
X0311149Y0156156D02*
X0310795Y0156077D01*
X0311149Y0156156D02*
X0311149Y0172888D01*
X0310436Y0172932D01*
X0305244Y0172888D02*
X0305244Y0170919D01*
X0298354Y0164030D01*
X0284575Y0164030D01*
X0276700Y0156156D01*
X0275795Y0156077D01*
X0258000Y0172888D02*
X0298354Y0172888D01*
X0298682Y0172932D01*
X0304577Y0172932D02*
X0305244Y0172888D01*
X0288512Y0197494D02*
X0258000Y0197494D01*
X0254063Y0193557D01*
X0258000Y0172888D02*
X0241267Y0156156D01*
X0240795Y0156077D01*
X0174102Y0123124D02*
X0173354Y0123675D01*
X0155638Y0141392D01*
X0053275Y0141392D01*
X0046386Y0148282D01*
X0045401Y0148282D01*
X0045992Y0149443D01*
X0045401Y0149266D01*
X0040480Y0149266D01*
X0036543Y0145329D02*
X0043433Y0138439D01*
X0043433Y0136471D01*
X0042842Y0136313D01*
X0044417Y0136471D01*
X0063118Y0136471D01*
X0064102Y0135486D01*
X0074929Y0109896D02*
X0090677Y0125644D01*
X0100519Y0125644D01*
X0101386Y0125585D01*
X0074929Y0109896D02*
X0071976Y0109896D01*
X0037527Y0109896D01*
X0036819Y0110211D01*
X0036543Y0145329D02*
X0034575Y0145329D01*
X0034575Y0151234D01*
X0040480Y0157140D01*
X0043433Y0157140D01*
X0045401Y0159108D01*
X0045992Y0159680D01*
X0103472Y0183715D02*
X0103472Y0184187D01*
X0103472Y0184699D01*
X0118236Y0184699D01*
X0118492Y0185624D01*
X0103472Y0183715D02*
X0133984Y0153203D01*
X0075598Y0204187D02*
X0074929Y0204384D01*
X0055244Y0204384D01*
X0054732Y0204187D01*
X0205834Y0091195D02*
X0205834Y0083321D01*
X0206110Y0083242D01*
X0180244Y0079384D02*
X0174338Y0073478D01*
X0174338Y0073439D01*
X0174338Y0070526D01*
X0170401Y0066589D01*
X0169417Y0066589D01*
X0168433Y0065604D01*
X0131031Y0065604D01*
X0130047Y0064620D01*
X0117911Y0064620D01*
X0117911Y0058439D01*
X0117921Y0058439D01*
X0117911Y0064620D02*
X0117911Y0065604D01*
X0116267Y0065604D01*
X0117911Y0065604D02*
X0117911Y0073439D01*
X0117921Y0073439D01*
X0117252Y0088242D02*
X0111346Y0088242D01*
X0117252Y0088242D02*
X0117921Y0088439D01*
X0206425Y0042967D02*
X0206819Y0042967D01*
X0212724Y0048872D01*
X0232409Y0048872D01*
X0232901Y0049364D01*
X0233393Y0048872D01*
X0233393Y0045919D01*
X0234109Y0045723D01*
X0232901Y0049364D02*
X0233393Y0049856D01*
X0234109Y0050723D01*
X0234378Y0050841D01*
X0235362Y0050841D01*
X0235362Y0056746D01*
X0254134Y0045723D02*
X0255047Y0045919D01*
X0260952Y0045919D01*
X0285559Y0070526D01*
X0285559Y0094148D01*
X0269811Y0094148D01*
X0269811Y0083321D01*
X0270047Y0083242D01*
X0285559Y0094148D02*
X0312134Y0094148D01*
X0320992Y0085289D01*
X0322960Y0085289D01*
X0323376Y0084605D01*
X0305576Y0059005D02*
X0305244Y0058715D01*
X0296386Y0058715D01*
X0280638Y0042967D01*
X0280441Y0042179D01*
X0271386Y0042179D02*
X0270795Y0041982D01*
X0266858Y0038045D01*
X0288512Y0197494D02*
X0298354Y0207337D01*
X0298667Y0207652D01*
X0299732Y0207937D01*
X0303482Y0207937D01*
X0304577Y0207606D01*
X0304732Y0207937D01*
X0309732Y0207937D01*
X0310398Y0207606D01*
D26*
X0253078Y0184699D03*
X0215677Y0186667D03*
X0201897Y0191589D03*
X0160559Y0179778D03*
X0168433Y0165014D03*
X0194023Y0160093D03*
X0208787Y0135486D03*
X0205834Y0091195D03*
X0180244Y0079384D03*
X0218630Y0066589D03*
X0235362Y0056746D03*
X0245204Y0040014D03*
X0266858Y0038045D03*
X0134968Y0057730D03*
X0116267Y0065604D03*
X0111346Y0088242D03*
X0071976Y0109896D03*
X0070992Y0117770D03*
X0064102Y0135486D03*
X0040480Y0149266D03*
D27*
X0029532Y0106718D02*
X0029532Y0029853D01*
X0334893Y0029853D01*
X0334893Y0214348D01*
X0029532Y0214348D01*
X0029532Y0113703D01*
X0029550Y0113747D01*
X0030329Y0114526D01*
X0031347Y0114948D01*
X0031369Y0114948D01*
X0030697Y0115619D01*
X0030697Y0120550D01*
X0031400Y0121253D01*
X0042237Y0121253D01*
X0042940Y0120550D01*
X0042940Y0119220D01*
X0068129Y0119220D01*
X0068279Y0119582D01*
X0069179Y0120483D01*
X0070355Y0120970D01*
X0071628Y0120970D01*
X0072804Y0120483D01*
X0073705Y0119582D01*
X0074192Y0118406D01*
X0074192Y0117133D01*
X0073705Y0115957D01*
X0072804Y0115057D01*
X0071856Y0114664D01*
X0072925Y0114664D01*
X0073961Y0114235D01*
X0087495Y0127770D01*
X0088551Y0128825D01*
X0089930Y0129397D01*
X0094392Y0129397D01*
X0094896Y0129900D01*
X0095914Y0130322D01*
X0106857Y0130322D01*
X0107875Y0129900D01*
X0108654Y0129121D01*
X0109075Y0128104D01*
X0109075Y0123066D01*
X0108654Y0122048D01*
X0107875Y0121269D01*
X0107106Y0120951D01*
X0107507Y0120550D01*
X0107507Y0118236D01*
X0169033Y0118236D01*
X0170018Y0117251D01*
X0211139Y0117251D01*
X0226038Y0132150D01*
X0226445Y0132557D01*
X0226445Y0138542D01*
X0227148Y0139245D01*
X0234442Y0139245D01*
X0235145Y0138542D01*
X0235145Y0136936D01*
X0235880Y0136936D01*
X0235880Y0144837D01*
X0234983Y0144837D01*
X0234280Y0145540D01*
X0234280Y0150078D01*
X0234983Y0150781D01*
X0239127Y0150781D01*
X0239830Y0150078D01*
X0239830Y0145540D01*
X0239127Y0144837D01*
X0238780Y0144837D01*
X0238780Y0134886D01*
X0237931Y0134036D01*
X0235145Y0134036D01*
X0235145Y0132833D01*
X0244821Y0123157D01*
X0255431Y0123157D01*
X0260487Y0128213D01*
X0261336Y0129062D01*
X0261445Y0129062D01*
X0261445Y0131062D01*
X0262129Y0131746D01*
X0261445Y0132430D01*
X0261445Y0138542D01*
X0262148Y0139245D01*
X0269442Y0139245D01*
X0270145Y0138542D01*
X0270145Y0136936D01*
X0270329Y0136936D01*
X0270329Y0144837D01*
X0269983Y0144837D01*
X0269280Y0145540D01*
X0269280Y0150078D01*
X0269983Y0150781D01*
X0274127Y0150781D01*
X0274830Y0150078D01*
X0274830Y0145540D01*
X0274127Y0144837D01*
X0273229Y0144837D01*
X0273229Y0134886D01*
X0272380Y0134036D01*
X0270145Y0134036D01*
X0270145Y0132430D01*
X0269461Y0131746D01*
X0270145Y0131062D01*
X0270145Y0129062D01*
X0272380Y0129062D01*
X0273229Y0128213D01*
X0273229Y0116096D01*
X0275111Y0116096D01*
X0275415Y0115792D01*
X0275536Y0116001D01*
X0275871Y0116336D01*
X0276281Y0116573D01*
X0276739Y0116696D01*
X0279056Y0116696D01*
X0279056Y0112226D01*
X0280015Y0112226D01*
X0280015Y0116696D01*
X0282331Y0116696D01*
X0282789Y0116573D01*
X0283199Y0116336D01*
X0283535Y0116001D01*
X0283772Y0115591D01*
X0283894Y0115133D01*
X0283894Y0112226D01*
X0280015Y0112226D01*
X0280015Y0111267D01*
X0283894Y0111267D01*
X0283894Y0108360D01*
X0283772Y0107902D01*
X0283535Y0107491D01*
X0283199Y0107156D01*
X0282789Y0106919D01*
X0282331Y0106797D01*
X0280015Y0106797D01*
X0280015Y0111267D01*
X0279056Y0111267D01*
X0279056Y0106797D01*
X0276739Y0106797D01*
X0276281Y0106919D01*
X0275871Y0107156D01*
X0275536Y0107491D01*
X0275415Y0107701D01*
X0275111Y0107397D01*
X0268999Y0107397D01*
X0268296Y0108099D01*
X0268296Y0115393D01*
X0268999Y0116096D01*
X0270329Y0116096D01*
X0270329Y0126162D01*
X0270145Y0126162D01*
X0270145Y0124950D01*
X0269442Y0124247D01*
X0262148Y0124247D01*
X0261445Y0124950D01*
X0261445Y0125070D01*
X0256632Y0120257D01*
X0243620Y0120257D01*
X0242770Y0121106D01*
X0238780Y0125096D01*
X0238780Y0116096D01*
X0240111Y0116096D01*
X0240415Y0115792D01*
X0240536Y0116001D01*
X0240871Y0116336D01*
X0241281Y0116573D01*
X0241739Y0116696D01*
X0244056Y0116696D01*
X0244056Y0112226D01*
X0245015Y0112226D01*
X0245015Y0116696D01*
X0247331Y0116696D01*
X0247789Y0116573D01*
X0248199Y0116336D01*
X0248535Y0116001D01*
X0248772Y0115591D01*
X0248894Y0115133D01*
X0248894Y0112226D01*
X0245015Y0112226D01*
X0245015Y0111267D01*
X0248894Y0111267D01*
X0248894Y0108360D01*
X0248772Y0107902D01*
X0248535Y0107491D01*
X0248199Y0107156D01*
X0247789Y0106919D01*
X0247331Y0106797D01*
X0245015Y0106797D01*
X0245015Y0111267D01*
X0244056Y0111267D01*
X0244056Y0106797D01*
X0241739Y0106797D01*
X0241281Y0106919D01*
X0240871Y0107156D01*
X0240536Y0107491D01*
X0240415Y0107701D01*
X0240111Y0107397D01*
X0233999Y0107397D01*
X0233296Y0108099D01*
X0233296Y0109430D01*
X0107507Y0109430D01*
X0107507Y0107745D01*
X0106804Y0107042D01*
X0095967Y0107042D01*
X0095264Y0107745D01*
X0095264Y0112676D01*
X0095967Y0113379D01*
X0106804Y0113379D01*
X0107507Y0112676D01*
X0107507Y0112330D01*
X0233296Y0112330D01*
X0233296Y0115393D01*
X0233999Y0116096D01*
X0235880Y0116096D01*
X0235880Y0125178D01*
X0235145Y0125178D01*
X0235145Y0124950D01*
X0234442Y0124247D01*
X0227148Y0124247D01*
X0226445Y0124950D01*
X0226445Y0128456D01*
X0212340Y0114351D01*
X0168816Y0114351D01*
X0167967Y0115201D01*
X0167832Y0115336D01*
X0107223Y0115336D01*
X0106804Y0114916D01*
X0095967Y0114916D01*
X0095264Y0115619D01*
X0095264Y0120550D01*
X0095665Y0120951D01*
X0094896Y0121269D01*
X0094274Y0121891D01*
X0092231Y0121891D01*
X0077055Y0106714D01*
X0075675Y0106143D01*
X0074967Y0106143D01*
X0074677Y0105853D01*
X0072925Y0105127D01*
X0071028Y0105127D01*
X0069275Y0105853D01*
X0068985Y0106143D01*
X0043556Y0106143D01*
X0043308Y0105895D01*
X0042291Y0105474D01*
X0042268Y0105474D01*
X0042940Y0104802D01*
X0042940Y0103472D01*
X0044033Y0103472D01*
X0044883Y0102622D01*
X0048955Y0098550D01*
X0167065Y0098550D01*
X0167914Y0097701D01*
X0171851Y0093764D01*
X0171851Y0093389D01*
X0173859Y0093389D01*
X0173859Y0088919D01*
X0174818Y0088919D01*
X0174818Y0093389D01*
X0177134Y0093389D01*
X0177592Y0093266D01*
X0178003Y0093029D01*
X0178338Y0092694D01*
X0178575Y0092283D01*
X0178697Y0091826D01*
X0178697Y0088919D01*
X0174818Y0088919D01*
X0174818Y0087960D01*
X0178697Y0087960D01*
X0178697Y0085052D01*
X0178575Y0084595D01*
X0178338Y0084184D01*
X0178003Y0083849D01*
X0177592Y0083612D01*
X0177134Y0083489D01*
X0174818Y0083489D01*
X0174818Y0087959D01*
X0173859Y0087959D01*
X0173859Y0083489D01*
X0171542Y0083489D01*
X0171084Y0083612D01*
X0170888Y0083726D01*
X0170018Y0082855D01*
X0168899Y0082855D01*
X0168899Y0077789D01*
X0169280Y0077789D01*
X0169432Y0078157D01*
X0170211Y0078936D01*
X0171229Y0079357D01*
X0174910Y0079357D01*
X0175475Y0079923D01*
X0175475Y0080332D01*
X0176201Y0082085D01*
X0177543Y0083426D01*
X0179295Y0084152D01*
X0181192Y0084152D01*
X0182945Y0083426D01*
X0184286Y0082085D01*
X0185012Y0080332D01*
X0185012Y0078435D01*
X0184286Y0076683D01*
X0182945Y0075341D01*
X0181192Y0074615D01*
X0180782Y0074615D01*
X0179666Y0073499D01*
X0179666Y0069739D01*
X0179244Y0068721D01*
X0178466Y0067942D01*
X0177448Y0067521D01*
X0176641Y0067521D01*
X0176464Y0067344D01*
X0176464Y0067344D01*
X0172527Y0063407D01*
X0171148Y0062836D01*
X0170971Y0062836D01*
X0170559Y0062423D01*
X0169179Y0061852D01*
X0132586Y0061852D01*
X0132173Y0061439D01*
X0130793Y0060867D01*
X0129160Y0060867D01*
X0129160Y0054792D01*
X0128457Y0054089D01*
X0126576Y0054089D01*
X0126576Y0050240D01*
X0125726Y0049391D01*
X0113862Y0049391D01*
X0122774Y0040480D01*
X0195186Y0040480D01*
X0195186Y0041298D01*
X0195888Y0042001D01*
X0196510Y0042001D01*
X0196510Y0043932D01*
X0195888Y0043932D01*
X0195186Y0044635D01*
X0195186Y0048779D01*
X0195888Y0049482D01*
X0197495Y0049482D01*
X0197495Y0076048D01*
X0198344Y0076897D01*
X0209171Y0076897D01*
X0209865Y0077592D01*
X0209220Y0077324D01*
X0203000Y0077324D01*
X0201983Y0077746D01*
X0201204Y0078524D01*
X0200782Y0079542D01*
X0200782Y0086943D01*
X0201204Y0087960D01*
X0201776Y0088532D01*
X0201066Y0090246D01*
X0201066Y0092143D01*
X0201792Y0093896D01*
X0203133Y0095237D01*
X0204886Y0095963D01*
X0206783Y0095963D01*
X0208535Y0095237D01*
X0209877Y0093896D01*
X0210603Y0092143D01*
X0210603Y0090246D01*
X0210016Y0088830D01*
X0210237Y0088739D01*
X0211016Y0087960D01*
X0211169Y0087592D01*
X0216646Y0087592D01*
X0217349Y0086889D01*
X0217349Y0079596D01*
X0216646Y0078893D01*
X0215158Y0078893D01*
X0215158Y0078783D01*
X0214309Y0077934D01*
X0210372Y0073997D01*
X0200395Y0073997D01*
X0200395Y0049482D01*
X0200426Y0049482D01*
X0201129Y0048779D01*
X0201129Y0047201D01*
X0216195Y0062268D01*
X0217045Y0063117D01*
X0238217Y0063117D01*
X0238217Y0064507D01*
X0238521Y0064811D01*
X0238312Y0064932D01*
X0237977Y0065267D01*
X0237740Y0065677D01*
X0237617Y0066135D01*
X0237617Y0068452D01*
X0242087Y0068452D01*
X0242087Y0069411D01*
X0242087Y0073290D01*
X0239180Y0073290D01*
X0238722Y0073168D01*
X0238312Y0072931D01*
X0237977Y0072595D01*
X0237740Y0072185D01*
X0237617Y0071727D01*
X0237617Y0069411D01*
X0242087Y0069411D01*
X0243046Y0069411D01*
X0243046Y0073290D01*
X0245953Y0073290D01*
X0246411Y0073168D01*
X0246821Y0072931D01*
X0247157Y0072595D01*
X0247394Y0072185D01*
X0247516Y0071727D01*
X0247516Y0069411D01*
X0243046Y0069411D01*
X0243046Y0068452D01*
X0247516Y0068452D01*
X0247516Y0066135D01*
X0247394Y0065677D01*
X0247157Y0065267D01*
X0246821Y0064932D01*
X0246612Y0064811D01*
X0246916Y0064507D01*
X0246916Y0058395D01*
X0246213Y0057692D01*
X0240130Y0057692D01*
X0240130Y0055798D01*
X0239468Y0054200D01*
X0239960Y0053708D01*
X0240382Y0052691D01*
X0240382Y0048755D01*
X0240161Y0048223D01*
X0240382Y0047691D01*
X0240382Y0043755D01*
X0239960Y0042737D01*
X0239671Y0042448D01*
X0240667Y0042448D01*
X0248676Y0050457D01*
X0249430Y0051212D01*
X0249430Y0052637D01*
X0250133Y0053340D01*
X0258135Y0053340D01*
X0258292Y0053183D01*
X0273147Y0068039D01*
X0275250Y0068039D01*
X0275250Y0078893D01*
X0275106Y0078893D01*
X0274953Y0078524D01*
X0274174Y0077746D01*
X0273157Y0077324D01*
X0266937Y0077324D01*
X0265920Y0077746D01*
X0265141Y0078524D01*
X0264719Y0079542D01*
X0264719Y0086943D01*
X0265141Y0087960D01*
X0265920Y0088739D01*
X0266058Y0088796D01*
X0266058Y0094894D01*
X0266629Y0096273D01*
X0267685Y0097329D01*
X0269064Y0097900D01*
X0312880Y0097900D01*
X0314259Y0097329D01*
X0320976Y0090612D01*
X0322089Y0091074D01*
X0324663Y0091074D01*
X0327040Y0090089D01*
X0328860Y0088269D01*
X0329845Y0085892D01*
X0329845Y0083319D01*
X0328860Y0080941D01*
X0327040Y0079121D01*
X0324663Y0078137D01*
X0322089Y0078137D01*
X0319712Y0079121D01*
X0317892Y0080941D01*
X0316908Y0083319D01*
X0316908Y0084066D01*
X0310579Y0090395D01*
X0289312Y0090395D01*
X0289312Y0069779D01*
X0288740Y0068400D01*
X0287685Y0067344D01*
X0263078Y0042738D01*
X0261699Y0042167D01*
X0259415Y0042167D01*
X0259207Y0041958D01*
X0258838Y0041806D01*
X0258838Y0038808D01*
X0258659Y0038629D01*
X0258744Y0038580D01*
X0259079Y0038245D01*
X0259316Y0037835D01*
X0259438Y0037377D01*
X0259438Y0035723D01*
X0254134Y0035723D01*
X0254134Y0035722D01*
X0254134Y0035722D01*
X0254134Y0032505D01*
X0250393Y0032505D01*
X0249936Y0032628D01*
X0249525Y0032865D01*
X0249190Y0033200D01*
X0248953Y0033610D01*
X0248830Y0034068D01*
X0248830Y0035722D01*
X0254134Y0035722D01*
X0254134Y0032505D01*
X0257875Y0032505D01*
X0258333Y0032628D01*
X0258744Y0032865D01*
X0259079Y0033200D01*
X0259316Y0033610D01*
X0259438Y0034068D01*
X0259438Y0035722D01*
X0254134Y0035722D01*
X0254134Y0035723D02*
X0248830Y0035723D01*
X0248830Y0037377D01*
X0248953Y0037835D01*
X0249190Y0038245D01*
X0249509Y0038564D01*
X0248067Y0038564D01*
X0247917Y0038201D01*
X0247017Y0037301D01*
X0245841Y0036814D01*
X0244568Y0036814D01*
X0244205Y0036964D01*
X0238915Y0031674D01*
X0125509Y0031674D01*
X0124660Y0032523D01*
X0073344Y0083839D01*
X0042656Y0083839D01*
X0042237Y0083420D01*
X0031400Y0083420D01*
X0030697Y0084123D01*
X0030697Y0089054D01*
X0031400Y0089757D01*
X0042237Y0089757D01*
X0042940Y0089054D01*
X0042940Y0086739D01*
X0072413Y0086739D01*
X0067438Y0091713D01*
X0042656Y0091713D01*
X0042237Y0091294D01*
X0031400Y0091294D01*
X0030697Y0091997D01*
X0030697Y0096928D01*
X0031400Y0097631D01*
X0042237Y0097631D01*
X0042940Y0096928D01*
X0042940Y0094613D01*
X0068640Y0094613D01*
X0103006Y0060247D01*
X0103006Y0067672D01*
X0095967Y0067672D01*
X0095264Y0068375D01*
X0095264Y0073306D01*
X0095967Y0074009D01*
X0095970Y0074009D01*
X0093029Y0076950D01*
X0092180Y0077799D01*
X0092180Y0086874D01*
X0093029Y0087724D01*
X0095264Y0087724D01*
X0095264Y0089054D01*
X0095967Y0089757D01*
X0106804Y0089757D01*
X0106810Y0089751D01*
X0107304Y0090943D01*
X0108645Y0092285D01*
X0110398Y0093011D01*
X0112295Y0093011D01*
X0112858Y0092777D01*
X0113015Y0093157D01*
X0113794Y0093936D01*
X0114811Y0094357D01*
X0121031Y0094357D01*
X0122048Y0093936D01*
X0122827Y0093157D01*
X0122980Y0092789D01*
X0128457Y0092789D01*
X0129160Y0092086D01*
X0129160Y0089692D01*
X0163099Y0089692D01*
X0163099Y0092086D01*
X0163802Y0092789D01*
X0168725Y0092789D01*
X0165864Y0095650D01*
X0107507Y0095650D01*
X0107507Y0091997D01*
X0106804Y0091294D01*
X0095967Y0091294D01*
X0095264Y0091997D01*
X0095264Y0095650D01*
X0047753Y0095650D01*
X0042940Y0100464D01*
X0042940Y0099871D01*
X0042237Y0099168D01*
X0031400Y0099168D01*
X0030697Y0099871D01*
X0030697Y0104802D01*
X0031369Y0105474D01*
X0031347Y0105474D01*
X0030329Y0105895D01*
X0029550Y0106674D01*
X0029532Y0106718D01*
X0029532Y0105600D02*
X0031043Y0105600D01*
X0030697Y0104001D02*
X0029532Y0104001D01*
X0029532Y0102402D02*
X0030697Y0102402D01*
X0030697Y0100804D02*
X0029532Y0100804D01*
X0029532Y0099205D02*
X0031363Y0099205D01*
X0031376Y0097607D02*
X0029532Y0097607D01*
X0029532Y0096008D02*
X0030697Y0096008D01*
X0030697Y0094410D02*
X0029532Y0094410D01*
X0029532Y0092811D02*
X0030697Y0092811D01*
X0029532Y0091213D02*
X0067939Y0091213D01*
X0069538Y0089614D02*
X0042380Y0089614D01*
X0042940Y0088016D02*
X0071136Y0088016D01*
X0073639Y0089614D02*
X0095824Y0089614D01*
X0095264Y0088016D02*
X0075237Y0088016D01*
X0076836Y0086417D02*
X0092180Y0086417D01*
X0092180Y0084819D02*
X0078434Y0084819D01*
X0080033Y0083220D02*
X0092180Y0083220D01*
X0092180Y0081622D02*
X0081631Y0081622D01*
X0083230Y0080023D02*
X0092180Y0080023D01*
X0092180Y0078425D02*
X0084828Y0078425D01*
X0086427Y0076826D02*
X0093152Y0076826D01*
X0094751Y0075228D02*
X0088025Y0075228D01*
X0089624Y0073629D02*
X0095587Y0073629D01*
X0095264Y0072031D02*
X0091222Y0072031D01*
X0092821Y0070432D02*
X0095264Y0070432D01*
X0095264Y0068834D02*
X0094419Y0068834D01*
X0096018Y0067235D02*
X0103006Y0067235D01*
X0103006Y0065637D02*
X0097616Y0065637D01*
X0099215Y0064038D02*
X0103006Y0064038D01*
X0103006Y0062440D02*
X0100813Y0062440D01*
X0102412Y0060841D02*
X0103006Y0060841D01*
X0099539Y0057644D02*
X0029532Y0057644D01*
X0029532Y0056046D02*
X0101138Y0056046D01*
X0102736Y0054447D02*
X0029532Y0054447D01*
X0029532Y0052849D02*
X0104335Y0052849D01*
X0105933Y0051250D02*
X0029532Y0051250D01*
X0029532Y0049652D02*
X0107532Y0049652D01*
X0109130Y0048053D02*
X0029532Y0048053D01*
X0029532Y0046455D02*
X0110729Y0046455D01*
X0112327Y0044856D02*
X0029532Y0044856D01*
X0029532Y0043258D02*
X0113926Y0043258D01*
X0115524Y0041659D02*
X0029532Y0041659D01*
X0029532Y0040061D02*
X0117123Y0040061D01*
X0118721Y0038462D02*
X0029532Y0038462D01*
X0029532Y0036864D02*
X0120320Y0036864D01*
X0121918Y0035265D02*
X0029532Y0035265D01*
X0029532Y0033667D02*
X0123517Y0033667D01*
X0125115Y0032068D02*
X0029532Y0032068D01*
X0029532Y0030469D02*
X0334893Y0030469D01*
X0334893Y0032068D02*
X0239309Y0032068D01*
X0240908Y0033667D02*
X0248938Y0033667D01*
X0248830Y0035265D02*
X0242506Y0035265D01*
X0244105Y0036864D02*
X0244448Y0036864D01*
X0245961Y0036864D02*
X0248830Y0036864D01*
X0249407Y0038462D02*
X0248025Y0038462D01*
X0254134Y0035723D02*
X0254134Y0035722D01*
X0254134Y0035265D02*
X0254134Y0035265D01*
X0254134Y0033667D02*
X0254134Y0033667D01*
X0259331Y0033667D02*
X0264969Y0033667D01*
X0264157Y0034003D02*
X0265909Y0033277D01*
X0267806Y0033277D01*
X0269559Y0034003D01*
X0270901Y0035344D01*
X0271626Y0037097D01*
X0271626Y0037507D01*
X0271897Y0037777D01*
X0273176Y0037777D01*
X0274194Y0038198D01*
X0274973Y0038977D01*
X0275394Y0039995D01*
X0275394Y0044364D01*
X0274973Y0045381D01*
X0274194Y0046160D01*
X0273176Y0046582D01*
X0269595Y0046582D01*
X0268577Y0046160D01*
X0267798Y0045381D01*
X0267377Y0044364D01*
X0267377Y0043871D01*
X0266319Y0042814D01*
X0265909Y0042814D01*
X0264157Y0042088D01*
X0262815Y0040746D01*
X0262089Y0038994D01*
X0262089Y0037097D01*
X0262815Y0035344D01*
X0264157Y0034003D01*
X0262895Y0035265D02*
X0259438Y0035265D01*
X0259438Y0036864D02*
X0262186Y0036864D01*
X0262089Y0038462D02*
X0258862Y0038462D01*
X0258838Y0040061D02*
X0262531Y0040061D01*
X0263728Y0041659D02*
X0258838Y0041659D01*
X0263598Y0043258D02*
X0266763Y0043258D01*
X0267581Y0044856D02*
X0265196Y0044856D01*
X0266795Y0046455D02*
X0269288Y0046455D01*
X0268393Y0048053D02*
X0280417Y0048053D01*
X0278945Y0046582D02*
X0278650Y0046582D01*
X0277632Y0046160D01*
X0276853Y0045381D01*
X0276432Y0044364D01*
X0276432Y0039995D01*
X0276853Y0038977D01*
X0277632Y0038198D01*
X0278650Y0037777D01*
X0282231Y0037777D01*
X0283249Y0038198D01*
X0284028Y0038977D01*
X0284449Y0039995D01*
X0284449Y0041471D01*
X0297940Y0054962D01*
X0300472Y0054962D01*
X0301912Y0053521D01*
X0304289Y0052537D01*
X0306863Y0052537D01*
X0309240Y0053521D01*
X0311060Y0055341D01*
X0312045Y0057719D01*
X0312045Y0060292D01*
X0311060Y0062669D01*
X0309240Y0064489D01*
X0306863Y0065474D01*
X0304289Y0065474D01*
X0301912Y0064489D01*
X0300092Y0062669D01*
X0300009Y0062467D01*
X0295639Y0062467D01*
X0294260Y0061896D01*
X0293204Y0060840D01*
X0278945Y0046582D01*
X0278343Y0046455D02*
X0273483Y0046455D01*
X0275190Y0044856D02*
X0276636Y0044856D01*
X0276432Y0043258D02*
X0275394Y0043258D01*
X0275394Y0041659D02*
X0276432Y0041659D01*
X0276432Y0040061D02*
X0275394Y0040061D01*
X0274458Y0038462D02*
X0277369Y0038462D01*
X0283513Y0038462D02*
X0334893Y0038462D01*
X0334893Y0036864D02*
X0271530Y0036864D01*
X0270821Y0035265D02*
X0334893Y0035265D01*
X0334893Y0033667D02*
X0268747Y0033667D01*
X0284449Y0040061D02*
X0334893Y0040061D01*
X0334893Y0041659D02*
X0284637Y0041659D01*
X0286236Y0043258D02*
X0334893Y0043258D01*
X0334893Y0044856D02*
X0287834Y0044856D01*
X0289433Y0046455D02*
X0334893Y0046455D01*
X0334893Y0048053D02*
X0291031Y0048053D01*
X0292630Y0049652D02*
X0334893Y0049652D01*
X0334893Y0051250D02*
X0294228Y0051250D01*
X0295827Y0052849D02*
X0303536Y0052849D01*
X0300986Y0054447D02*
X0297425Y0054447D01*
X0291606Y0059243D02*
X0279583Y0059243D01*
X0281181Y0060841D02*
X0293205Y0060841D01*
X0295572Y0062440D02*
X0282780Y0062440D01*
X0284379Y0064038D02*
X0301461Y0064038D01*
X0309691Y0064038D02*
X0334893Y0064038D01*
X0334893Y0062440D02*
X0326871Y0062440D01*
X0327530Y0061781D02*
X0326152Y0063159D01*
X0324351Y0063905D01*
X0322401Y0063905D01*
X0320600Y0063159D01*
X0319222Y0061781D01*
X0318476Y0059980D01*
X0318476Y0058031D01*
X0319222Y0056230D01*
X0320600Y0054851D01*
X0322401Y0054105D01*
X0324351Y0054105D01*
X0326152Y0054851D01*
X0327530Y0056230D01*
X0328276Y0058031D01*
X0328276Y0059980D01*
X0327530Y0061781D01*
X0327919Y0060841D02*
X0334893Y0060841D01*
X0334893Y0059243D02*
X0328276Y0059243D01*
X0328116Y0057644D02*
X0334893Y0057644D01*
X0334893Y0056046D02*
X0327346Y0056046D01*
X0325176Y0054447D02*
X0334893Y0054447D01*
X0334893Y0052849D02*
X0307616Y0052849D01*
X0310166Y0054447D02*
X0321576Y0054447D01*
X0319406Y0056046D02*
X0311352Y0056046D01*
X0312014Y0057644D02*
X0318636Y0057644D01*
X0318476Y0059243D02*
X0312045Y0059243D01*
X0311817Y0060841D02*
X0318833Y0060841D01*
X0319881Y0062440D02*
X0311155Y0062440D01*
X0290008Y0057644D02*
X0277984Y0057644D01*
X0276386Y0056046D02*
X0288409Y0056046D01*
X0286811Y0054447D02*
X0274787Y0054447D01*
X0273189Y0052849D02*
X0285212Y0052849D01*
X0283614Y0051250D02*
X0271590Y0051250D01*
X0269992Y0049652D02*
X0282015Y0049652D01*
X0267548Y0062440D02*
X0246916Y0062440D01*
X0246916Y0064038D02*
X0269147Y0064038D01*
X0270745Y0065637D02*
X0247370Y0065637D01*
X0247516Y0067235D02*
X0272344Y0067235D01*
X0275250Y0068834D02*
X0243046Y0068834D01*
X0242087Y0068834D02*
X0220910Y0068834D01*
X0221342Y0068401D02*
X0220442Y0069301D01*
X0219266Y0069789D01*
X0217993Y0069789D01*
X0217349Y0069522D01*
X0217349Y0071889D01*
X0216646Y0072592D01*
X0210534Y0072592D01*
X0210230Y0072288D01*
X0210109Y0072497D01*
X0209774Y0072832D01*
X0209364Y0073069D01*
X0208906Y0073192D01*
X0206589Y0073192D01*
X0206589Y0068722D01*
X0205630Y0068722D01*
X0205630Y0067763D01*
X0201751Y0067763D01*
X0201751Y0064856D01*
X0201874Y0064398D01*
X0202111Y0063987D01*
X0202446Y0063652D01*
X0202856Y0063415D01*
X0203314Y0063293D01*
X0205630Y0063293D01*
X0205630Y0067763D01*
X0206589Y0067763D01*
X0206589Y0063293D01*
X0208906Y0063293D01*
X0209364Y0063415D01*
X0209774Y0063652D01*
X0210109Y0063987D01*
X0210230Y0064197D01*
X0210534Y0063893D01*
X0216646Y0063893D01*
X0216723Y0063970D01*
X0216817Y0063876D01*
X0217993Y0063389D01*
X0219266Y0063389D01*
X0220442Y0063876D01*
X0221342Y0064776D01*
X0221830Y0065952D01*
X0221830Y0067225D01*
X0221342Y0068401D01*
X0221825Y0067235D02*
X0237617Y0067235D01*
X0237763Y0065637D02*
X0221699Y0065637D01*
X0220605Y0064038D02*
X0238217Y0064038D01*
X0246916Y0060841D02*
X0265950Y0060841D01*
X0264351Y0059243D02*
X0246916Y0059243D01*
X0240130Y0057644D02*
X0262753Y0057644D01*
X0261154Y0056046D02*
X0240130Y0056046D01*
X0239571Y0054447D02*
X0259556Y0054447D01*
X0249642Y0052849D02*
X0240316Y0052849D01*
X0240382Y0051250D02*
X0249430Y0051250D01*
X0247870Y0049652D02*
X0240382Y0049652D01*
X0240231Y0048053D02*
X0246272Y0048053D01*
X0244673Y0046455D02*
X0240382Y0046455D01*
X0240382Y0044856D02*
X0243075Y0044856D01*
X0241476Y0043258D02*
X0240176Y0043258D01*
X0213170Y0059243D02*
X0200395Y0059243D01*
X0200395Y0060841D02*
X0214769Y0060841D01*
X0216367Y0062440D02*
X0200395Y0062440D01*
X0200395Y0064038D02*
X0202081Y0064038D01*
X0201751Y0065637D02*
X0200395Y0065637D01*
X0200395Y0067235D02*
X0201751Y0067235D01*
X0201751Y0068722D02*
X0205630Y0068722D01*
X0205630Y0073192D01*
X0203314Y0073192D01*
X0202856Y0073069D01*
X0202446Y0072832D01*
X0202111Y0072497D01*
X0201874Y0072087D01*
X0201751Y0071629D01*
X0201751Y0068722D01*
X0201751Y0068834D02*
X0200395Y0068834D01*
X0200395Y0070432D02*
X0201751Y0070432D01*
X0201859Y0072031D02*
X0200395Y0072031D01*
X0200395Y0073629D02*
X0275250Y0073629D01*
X0275250Y0072031D02*
X0247435Y0072031D01*
X0247516Y0070432D02*
X0275250Y0070432D01*
X0275250Y0075228D02*
X0211603Y0075228D01*
X0213201Y0076826D02*
X0275250Y0076826D01*
X0275250Y0078425D02*
X0274853Y0078425D01*
X0265240Y0078425D02*
X0214800Y0078425D01*
X0217349Y0080023D02*
X0264719Y0080023D01*
X0264719Y0081622D02*
X0217349Y0081622D01*
X0217349Y0083220D02*
X0264719Y0083220D01*
X0264719Y0084819D02*
X0217349Y0084819D01*
X0217349Y0086417D02*
X0264719Y0086417D01*
X0265197Y0088016D02*
X0210960Y0088016D01*
X0210341Y0089614D02*
X0266058Y0089614D01*
X0266058Y0091213D02*
X0210603Y0091213D01*
X0210326Y0092811D02*
X0266058Y0092811D01*
X0266058Y0094410D02*
X0209363Y0094410D01*
X0202306Y0094410D02*
X0171205Y0094410D01*
X0169607Y0096008D02*
X0266520Y0096008D01*
X0268356Y0097607D02*
X0168008Y0097607D01*
X0167104Y0094410D02*
X0107507Y0094410D01*
X0107507Y0092811D02*
X0109917Y0092811D01*
X0107573Y0091213D02*
X0072040Y0091213D01*
X0070442Y0092811D02*
X0095264Y0092811D01*
X0095264Y0094410D02*
X0068843Y0094410D01*
X0069887Y0105600D02*
X0042594Y0105600D01*
X0042940Y0104001D02*
X0095264Y0104001D01*
X0095264Y0104802D02*
X0095264Y0099871D01*
X0095967Y0099168D01*
X0106804Y0099168D01*
X0107507Y0099871D01*
X0107507Y0102540D01*
X0296986Y0102540D01*
X0303296Y0108850D01*
X0303296Y0108099D01*
X0303999Y0107397D01*
X0310111Y0107397D01*
X0310415Y0107701D01*
X0310536Y0107491D01*
X0310871Y0107156D01*
X0311281Y0106919D01*
X0311739Y0106797D01*
X0314056Y0106797D01*
X0314056Y0111267D01*
X0315015Y0111267D01*
X0315015Y0112226D01*
X0314056Y0112226D01*
X0314056Y0116696D01*
X0311739Y0116696D01*
X0311281Y0116573D01*
X0310871Y0116336D01*
X0310536Y0116001D01*
X0310415Y0115792D01*
X0310111Y0116096D01*
X0308662Y0116096D01*
X0308662Y0128213D01*
X0307813Y0129062D01*
X0305145Y0129062D01*
X0305145Y0131062D01*
X0304461Y0131746D01*
X0305145Y0132430D01*
X0305145Y0134036D01*
X0307813Y0134036D01*
X0308662Y0134886D01*
X0308662Y0144837D01*
X0309127Y0144837D01*
X0309830Y0145540D01*
X0309830Y0150078D01*
X0309127Y0150781D01*
X0304983Y0150781D01*
X0304280Y0150078D01*
X0304280Y0145540D01*
X0304983Y0144837D01*
X0305762Y0144837D01*
X0305762Y0136936D01*
X0305145Y0136936D01*
X0305145Y0138542D01*
X0304442Y0139245D01*
X0297148Y0139245D01*
X0296445Y0138542D01*
X0296445Y0132430D01*
X0297129Y0131746D01*
X0296445Y0131062D01*
X0296445Y0124950D01*
X0297148Y0124247D01*
X0304442Y0124247D01*
X0305145Y0124950D01*
X0305145Y0126162D01*
X0305762Y0126162D01*
X0305762Y0116096D01*
X0303999Y0116096D01*
X0303296Y0115393D01*
X0303296Y0112330D01*
X0302675Y0112330D01*
X0301825Y0111481D01*
X0295785Y0105440D01*
X0106869Y0105440D01*
X0106804Y0105505D01*
X0095967Y0105505D01*
X0095264Y0104802D01*
X0095264Y0102402D02*
X0045103Y0102402D01*
X0046701Y0100804D02*
X0095264Y0100804D01*
X0095930Y0099205D02*
X0048300Y0099205D01*
X0045797Y0097607D02*
X0042261Y0097607D01*
X0042274Y0099205D02*
X0044198Y0099205D01*
X0042940Y0096008D02*
X0047395Y0096008D01*
X0031258Y0089614D02*
X0029532Y0089614D01*
X0029532Y0088016D02*
X0030697Y0088016D01*
X0030697Y0086417D02*
X0029532Y0086417D01*
X0029532Y0084819D02*
X0030697Y0084819D01*
X0029532Y0083220D02*
X0073963Y0083220D01*
X0075562Y0081622D02*
X0042498Y0081622D01*
X0042237Y0081883D02*
X0031400Y0081883D01*
X0030697Y0081180D01*
X0030697Y0076249D01*
X0031400Y0075546D01*
X0042237Y0075546D01*
X0042940Y0076249D01*
X0042940Y0081180D01*
X0042237Y0081883D01*
X0042940Y0080023D02*
X0077160Y0080023D01*
X0078759Y0078425D02*
X0042940Y0078425D01*
X0042940Y0076826D02*
X0080357Y0076826D01*
X0081956Y0075228D02*
X0029532Y0075228D01*
X0029532Y0076826D02*
X0030697Y0076826D01*
X0030697Y0078425D02*
X0029532Y0078425D01*
X0029532Y0080023D02*
X0030697Y0080023D01*
X0031139Y0081622D02*
X0029532Y0081622D01*
X0031596Y0074009D02*
X0030697Y0073110D01*
X0030697Y0068571D01*
X0031596Y0067672D01*
X0042041Y0067672D01*
X0042940Y0068571D01*
X0042940Y0073110D01*
X0042041Y0074009D01*
X0031596Y0074009D01*
X0031216Y0073629D02*
X0029532Y0073629D01*
X0029532Y0072031D02*
X0030697Y0072031D01*
X0030697Y0070432D02*
X0029532Y0070432D01*
X0029532Y0068834D02*
X0030697Y0068834D01*
X0029532Y0067235D02*
X0089948Y0067235D01*
X0091547Y0065637D02*
X0029532Y0065637D01*
X0029532Y0064038D02*
X0093145Y0064038D01*
X0094744Y0062440D02*
X0029532Y0062440D01*
X0029532Y0060841D02*
X0096342Y0060841D01*
X0097941Y0059243D02*
X0029532Y0059243D01*
X0042940Y0068834D02*
X0088350Y0068834D01*
X0086751Y0070432D02*
X0042940Y0070432D01*
X0042940Y0072031D02*
X0085153Y0072031D01*
X0083554Y0073629D02*
X0042421Y0073629D01*
X0074065Y0105600D02*
X0295944Y0105600D01*
X0297543Y0107198D02*
X0283241Y0107198D01*
X0283894Y0108797D02*
X0299141Y0108797D01*
X0300740Y0110395D02*
X0283894Y0110395D01*
X0283894Y0113592D02*
X0303296Y0113592D01*
X0303296Y0115191D02*
X0283879Y0115191D01*
X0280015Y0115191D02*
X0279056Y0115191D01*
X0279056Y0113592D02*
X0280015Y0113592D01*
X0280015Y0111994D02*
X0302338Y0111994D01*
X0303242Y0108797D02*
X0303296Y0108797D01*
X0301644Y0107198D02*
X0310829Y0107198D01*
X0314056Y0107198D02*
X0315015Y0107198D01*
X0315015Y0106797D02*
X0317331Y0106797D01*
X0317789Y0106919D01*
X0318199Y0107156D01*
X0318535Y0107491D01*
X0318772Y0107902D01*
X0318894Y0108360D01*
X0318894Y0111267D01*
X0315015Y0111267D01*
X0315015Y0106797D01*
X0315015Y0108797D02*
X0314056Y0108797D01*
X0314056Y0110395D02*
X0315015Y0110395D01*
X0315015Y0111994D02*
X0334893Y0111994D01*
X0334893Y0113592D02*
X0318894Y0113592D01*
X0318894Y0112226D02*
X0318894Y0115133D01*
X0318772Y0115591D01*
X0318535Y0116001D01*
X0318199Y0116336D01*
X0317789Y0116573D01*
X0317331Y0116696D01*
X0315015Y0116696D01*
X0315015Y0112226D01*
X0318894Y0112226D01*
X0318894Y0110395D02*
X0334893Y0110395D01*
X0334893Y0108797D02*
X0318894Y0108797D01*
X0318241Y0107198D02*
X0334893Y0107198D01*
X0334893Y0105600D02*
X0300045Y0105600D01*
X0298447Y0104001D02*
X0334893Y0104001D01*
X0334893Y0102402D02*
X0107507Y0102402D01*
X0107507Y0100804D02*
X0334893Y0100804D01*
X0334893Y0099205D02*
X0106841Y0099205D01*
X0112776Y0092811D02*
X0112872Y0092811D01*
X0122970Y0092811D02*
X0168703Y0092811D01*
X0163099Y0091213D02*
X0129160Y0091213D01*
X0106960Y0107198D02*
X0240829Y0107198D01*
X0244056Y0107198D02*
X0245015Y0107198D01*
X0245015Y0108797D02*
X0244056Y0108797D01*
X0244056Y0110395D02*
X0245015Y0110395D01*
X0245015Y0111994D02*
X0268296Y0111994D01*
X0268296Y0113592D02*
X0248894Y0113592D01*
X0248879Y0115191D02*
X0268296Y0115191D01*
X0270329Y0116789D02*
X0238780Y0116789D01*
X0238780Y0118388D02*
X0270329Y0118388D01*
X0270329Y0119986D02*
X0238780Y0119986D01*
X0238780Y0121585D02*
X0242292Y0121585D01*
X0240693Y0123183D02*
X0238780Y0123183D01*
X0238780Y0124782D02*
X0239095Y0124782D01*
X0241597Y0126380D02*
X0245845Y0126380D01*
X0245845Y0127526D02*
X0245845Y0125210D01*
X0245968Y0124752D01*
X0246205Y0124342D01*
X0246540Y0124007D01*
X0246951Y0123770D01*
X0247408Y0123647D01*
X0250315Y0123647D01*
X0250315Y0127526D01*
X0251275Y0127526D01*
X0251275Y0128486D01*
X0255745Y0128486D01*
X0255745Y0130802D01*
X0255742Y0130810D01*
X0256292Y0131359D01*
X0256713Y0132377D01*
X0256713Y0138596D01*
X0256292Y0139614D01*
X0255513Y0140392D01*
X0254863Y0140662D01*
X0254863Y0142138D01*
X0254291Y0143518D01*
X0253236Y0144573D01*
X0248878Y0148931D01*
X0248878Y0150131D01*
X0248457Y0151149D01*
X0247678Y0151928D01*
X0246661Y0152349D01*
X0244329Y0152349D01*
X0244717Y0152737D01*
X0245138Y0153755D01*
X0245138Y0154719D01*
X0259554Y0169135D01*
X0294343Y0169135D01*
X0294366Y0169080D01*
X0295145Y0168301D01*
X0296163Y0167880D01*
X0296897Y0167880D01*
X0296800Y0167782D01*
X0283828Y0167782D01*
X0282449Y0167211D01*
X0281393Y0166155D01*
X0275855Y0160617D01*
X0273669Y0160617D01*
X0272652Y0160196D01*
X0271873Y0159417D01*
X0271452Y0158399D01*
X0271452Y0153755D01*
X0271873Y0152737D01*
X0272652Y0151958D01*
X0273669Y0151537D01*
X0276001Y0151537D01*
X0275613Y0151149D01*
X0275192Y0150131D01*
X0275192Y0145487D01*
X0275613Y0144469D01*
X0276392Y0143690D01*
X0277410Y0143269D01*
X0278374Y0143269D01*
X0281200Y0140443D01*
X0281077Y0140392D01*
X0280298Y0139614D01*
X0279877Y0138596D01*
X0279877Y0132377D01*
X0280298Y0131359D01*
X0280847Y0130810D01*
X0280845Y0130802D01*
X0280845Y0128486D01*
X0285315Y0128486D01*
X0285315Y0127526D01*
X0286275Y0127526D01*
X0286275Y0128486D01*
X0290745Y0128486D01*
X0290745Y0130802D01*
X0290742Y0130810D01*
X0291292Y0131359D01*
X0291713Y0132377D01*
X0291713Y0138596D01*
X0291292Y0139614D01*
X0290513Y0140392D01*
X0289495Y0140814D01*
X0289312Y0140814D01*
X0289312Y0142138D01*
X0288740Y0143518D01*
X0287685Y0144573D01*
X0283878Y0148379D01*
X0283878Y0150131D01*
X0283457Y0151149D01*
X0282678Y0151928D01*
X0281661Y0152349D01*
X0279329Y0152349D01*
X0279717Y0152737D01*
X0280138Y0153755D01*
X0280138Y0154286D01*
X0286129Y0160277D01*
X0299101Y0160277D01*
X0300480Y0160848D01*
X0307370Y0167738D01*
X0307397Y0167765D01*
X0307397Y0159940D01*
X0306873Y0159417D01*
X0306452Y0158399D01*
X0306452Y0153755D01*
X0306873Y0152737D01*
X0307652Y0151958D01*
X0308669Y0151537D01*
X0311001Y0151537D01*
X0310613Y0151149D01*
X0310192Y0150131D01*
X0310192Y0145487D01*
X0310613Y0144469D01*
X0311392Y0143690D01*
X0312410Y0143269D01*
X0313807Y0143269D01*
X0316506Y0140570D01*
X0316077Y0140392D01*
X0315298Y0139614D01*
X0314877Y0138596D01*
X0314877Y0132377D01*
X0315298Y0131359D01*
X0315847Y0130810D01*
X0315845Y0130802D01*
X0315845Y0128486D01*
X0320315Y0128486D01*
X0320315Y0127526D01*
X0321275Y0127526D01*
X0321275Y0128486D01*
X0325745Y0128486D01*
X0325745Y0130802D01*
X0325742Y0130810D01*
X0326292Y0131359D01*
X0326713Y0132377D01*
X0326713Y0138596D01*
X0326292Y0139614D01*
X0325513Y0140392D01*
X0324745Y0140711D01*
X0324745Y0142138D01*
X0324173Y0143518D01*
X0323118Y0144573D01*
X0318878Y0148812D01*
X0318878Y0150131D01*
X0318457Y0151149D01*
X0317678Y0151928D01*
X0316661Y0152349D01*
X0314329Y0152349D01*
X0314717Y0152737D01*
X0315138Y0153755D01*
X0315138Y0158399D01*
X0314902Y0158969D01*
X0314902Y0169411D01*
X0318797Y0169411D01*
X0319500Y0170114D01*
X0319500Y0175675D01*
X0318797Y0176378D01*
X0314919Y0176378D01*
X0314751Y0176783D01*
X0313972Y0177562D01*
X0312955Y0177984D01*
X0307916Y0177984D01*
X0307507Y0177814D01*
X0307097Y0177984D01*
X0302058Y0177984D01*
X0301630Y0177806D01*
X0301201Y0177984D01*
X0296163Y0177984D01*
X0295145Y0177562D01*
X0294366Y0176783D01*
X0294307Y0176641D01*
X0257253Y0176641D01*
X0255874Y0176069D01*
X0254818Y0175014D01*
X0240422Y0160617D01*
X0238669Y0160617D01*
X0237652Y0160196D01*
X0236873Y0159417D01*
X0236452Y0158399D01*
X0236452Y0153755D01*
X0236873Y0152737D01*
X0237652Y0151958D01*
X0238669Y0151537D01*
X0241001Y0151537D01*
X0240613Y0151149D01*
X0240192Y0150131D01*
X0240192Y0145487D01*
X0240613Y0144469D01*
X0241392Y0143690D01*
X0242410Y0143269D01*
X0243926Y0143269D01*
X0246590Y0140605D01*
X0246077Y0140392D01*
X0245298Y0139614D01*
X0244877Y0138596D01*
X0244877Y0132377D01*
X0245298Y0131359D01*
X0245847Y0130810D01*
X0245845Y0130802D01*
X0245845Y0128486D01*
X0250315Y0128486D01*
X0250315Y0127526D01*
X0245845Y0127526D01*
X0245845Y0129577D02*
X0238400Y0129577D01*
X0236802Y0131176D02*
X0245482Y0131176D01*
X0244877Y0132774D02*
X0235203Y0132774D01*
X0238267Y0134373D02*
X0244877Y0134373D01*
X0244877Y0135971D02*
X0238780Y0135971D01*
X0238780Y0137570D02*
X0244877Y0137570D01*
X0245114Y0139168D02*
X0238780Y0139168D01*
X0238780Y0140767D02*
X0246428Y0140767D01*
X0244829Y0142365D02*
X0238780Y0142365D01*
X0238780Y0143964D02*
X0241119Y0143964D01*
X0240192Y0145562D02*
X0239830Y0145562D01*
X0239830Y0147161D02*
X0240192Y0147161D01*
X0240192Y0148759D02*
X0239830Y0148759D01*
X0239550Y0150358D02*
X0240286Y0150358D01*
X0237656Y0151956D02*
X0225643Y0151956D01*
X0224045Y0150358D02*
X0234560Y0150358D01*
X0234280Y0148759D02*
X0222446Y0148759D01*
X0220848Y0147161D02*
X0234280Y0147161D01*
X0234280Y0145562D02*
X0219249Y0145562D01*
X0217651Y0143964D02*
X0235880Y0143964D01*
X0235880Y0142365D02*
X0216052Y0142365D01*
X0215834Y0142147D02*
X0253617Y0179930D01*
X0254027Y0179930D01*
X0255780Y0180656D01*
X0257121Y0181998D01*
X0257847Y0183750D01*
X0257847Y0185647D01*
X0257121Y0187400D01*
X0255780Y0188741D01*
X0254027Y0189467D01*
X0252130Y0189467D01*
X0250377Y0188741D01*
X0249036Y0187400D01*
X0248310Y0185647D01*
X0248310Y0185238D01*
X0212154Y0149082D01*
X0198531Y0149082D01*
X0193425Y0154187D01*
X0194252Y0155014D01*
X0194562Y0155324D01*
X0194972Y0155324D01*
X0196724Y0156050D01*
X0197233Y0156558D01*
X0197233Y0150737D01*
X0197936Y0150034D01*
X0204048Y0150034D01*
X0204352Y0150338D01*
X0204473Y0150129D01*
X0204808Y0149794D01*
X0205218Y0149557D01*
X0205676Y0149434D01*
X0207993Y0149434D01*
X0207993Y0153707D01*
X0208952Y0153707D01*
X0208952Y0149434D01*
X0211268Y0149434D01*
X0211726Y0149557D01*
X0212136Y0149794D01*
X0212472Y0150129D01*
X0212709Y0150540D01*
X0212831Y0150997D01*
X0212831Y0153708D01*
X0208952Y0153708D01*
X0208952Y0154667D01*
X0212831Y0154667D01*
X0212831Y0157377D01*
X0212709Y0157835D01*
X0212472Y0158245D01*
X0212136Y0158580D01*
X0211726Y0158817D01*
X0211268Y0158940D01*
X0210237Y0158940D01*
X0210237Y0160692D01*
X0210755Y0161209D01*
X0210755Y0166928D01*
X0210052Y0167631D01*
X0207160Y0167631D01*
X0206920Y0167871D01*
X0206509Y0168108D01*
X0206052Y0168231D01*
X0204732Y0168231D01*
X0204732Y0164069D01*
X0204732Y0164069D01*
X0204732Y0168231D01*
X0203412Y0168231D01*
X0202955Y0168108D01*
X0202544Y0167871D01*
X0202304Y0167631D01*
X0199412Y0167631D01*
X0198709Y0166928D01*
X0198709Y0166464D01*
X0171296Y0166464D01*
X0171146Y0166827D01*
X0170245Y0167727D01*
X0169069Y0168214D01*
X0167796Y0168214D01*
X0166620Y0167727D01*
X0165720Y0166827D01*
X0165233Y0165650D01*
X0165233Y0164377D01*
X0165720Y0163201D01*
X0166620Y0162301D01*
X0167796Y0161814D01*
X0169069Y0161814D01*
X0170245Y0162301D01*
X0171146Y0163201D01*
X0171296Y0163564D01*
X0190751Y0163564D01*
X0189981Y0162794D01*
X0189255Y0161041D01*
X0189255Y0160893D01*
X0151286Y0160893D01*
X0133228Y0178951D01*
X0132173Y0180006D01*
X0130793Y0180578D01*
X0126312Y0180578D01*
X0126818Y0181084D01*
X0128098Y0181084D01*
X0129115Y0181505D01*
X0129894Y0182284D01*
X0130315Y0183302D01*
X0130315Y0187946D01*
X0129894Y0188964D01*
X0129863Y0188995D01*
X0129863Y0199909D01*
X0131068Y0198703D01*
X0133445Y0197719D01*
X0135342Y0197719D01*
X0149503Y0183557D01*
X0150559Y0182502D01*
X0151938Y0181930D01*
X0156289Y0181930D01*
X0155790Y0180726D01*
X0155790Y0178829D01*
X0156029Y0178254D01*
X0155014Y0177833D01*
X0154235Y0177055D01*
X0153814Y0176037D01*
X0153814Y0169817D01*
X0154235Y0168800D01*
X0154784Y0168251D01*
X0154782Y0168243D01*
X0154782Y0165926D01*
X0159252Y0165926D01*
X0159252Y0164967D01*
X0160212Y0164967D01*
X0160212Y0165926D01*
X0164682Y0165926D01*
X0164682Y0168243D01*
X0164679Y0168251D01*
X0165229Y0168800D01*
X0165650Y0169817D01*
X0165650Y0176037D01*
X0165229Y0177055D01*
X0164779Y0177505D01*
X0165327Y0178829D01*
X0165327Y0180726D01*
X0164828Y0181930D01*
X0165389Y0181930D01*
X0165389Y0180034D01*
X0165810Y0179016D01*
X0166589Y0178238D01*
X0167606Y0177816D01*
X0171857Y0177816D01*
X0172875Y0178238D01*
X0173654Y0179016D01*
X0174075Y0180034D01*
X0174075Y0184679D01*
X0173971Y0184930D01*
X0175125Y0186084D01*
X0175598Y0186084D01*
X0176615Y0186505D01*
X0177394Y0187284D01*
X0177815Y0188302D01*
X0177815Y0189189D01*
X0178073Y0189773D01*
X0178074Y0189817D01*
X0178091Y0189858D01*
X0178091Y0190034D01*
X0179752Y0191695D01*
X0181071Y0190376D01*
X0182450Y0189804D01*
X0196738Y0189804D01*
X0197367Y0190065D01*
X0197498Y0189749D01*
X0196865Y0189487D01*
X0196086Y0188708D01*
X0195664Y0187691D01*
X0195664Y0180684D01*
X0196086Y0179666D01*
X0196865Y0178887D01*
X0197229Y0178736D01*
X0197229Y0177432D01*
X0197141Y0177218D01*
X0197141Y0171393D01*
X0197562Y0170375D01*
X0198341Y0169596D01*
X0199358Y0169175D01*
X0202625Y0169175D01*
X0203643Y0169596D01*
X0204422Y0170375D01*
X0204843Y0171393D01*
X0204843Y0177218D01*
X0204735Y0177480D01*
X0204735Y0178728D01*
X0205119Y0178887D01*
X0205668Y0179436D01*
X0205676Y0179434D01*
X0207993Y0179434D01*
X0207993Y0183707D01*
X0208952Y0183707D01*
X0208952Y0179434D01*
X0211268Y0179434D01*
X0211726Y0179557D01*
X0212136Y0179794D01*
X0212472Y0180129D01*
X0212709Y0180540D01*
X0212831Y0180997D01*
X0212831Y0182769D01*
X0212976Y0182625D01*
X0214728Y0181899D01*
X0216625Y0181899D01*
X0218378Y0182625D01*
X0219719Y0183966D01*
X0220445Y0185719D01*
X0220445Y0186129D01*
X0224121Y0189804D01*
X0254809Y0189804D01*
X0256188Y0190376D01*
X0257244Y0191431D01*
X0257244Y0191431D01*
X0259554Y0193741D01*
X0287956Y0193741D01*
X0287520Y0193306D01*
X0287520Y0187194D01*
X0288223Y0186491D01*
X0295264Y0186491D01*
X0295264Y0184162D01*
X0295967Y0183460D01*
X0319009Y0183460D01*
X0319712Y0184162D01*
X0319712Y0186491D01*
X0326797Y0186491D01*
X0327500Y0187194D01*
X0327500Y0193306D01*
X0326797Y0194009D01*
X0319712Y0194009D01*
X0319712Y0196338D01*
X0319009Y0197041D01*
X0295967Y0197041D01*
X0295264Y0196338D01*
X0295264Y0194009D01*
X0289904Y0194009D01*
X0290637Y0194313D01*
X0291693Y0195368D01*
X0298924Y0202600D01*
X0301186Y0202600D01*
X0301567Y0202757D01*
X0302058Y0202554D01*
X0307097Y0202554D01*
X0307488Y0202716D01*
X0307879Y0202554D01*
X0312918Y0202554D01*
X0313935Y0202975D01*
X0314714Y0203754D01*
X0314866Y0204122D01*
X0318834Y0204122D01*
X0319537Y0204825D01*
X0319537Y0210386D01*
X0318834Y0211089D01*
X0314866Y0211089D01*
X0314714Y0211458D01*
X0313935Y0212236D01*
X0312918Y0212658D01*
X0307879Y0212658D01*
X0307488Y0212496D01*
X0307097Y0212658D01*
X0302058Y0212658D01*
X0301678Y0212500D01*
X0301186Y0212704D01*
X0296148Y0212704D01*
X0295131Y0212282D01*
X0294352Y0211503D01*
X0293930Y0210486D01*
X0293930Y0208220D01*
X0286957Y0201247D01*
X0257253Y0201247D01*
X0255874Y0200676D01*
X0254818Y0199620D01*
X0252508Y0197310D01*
X0209357Y0197310D01*
X0208090Y0198577D01*
X0208396Y0198703D01*
X0210216Y0200523D01*
X0211200Y0202900D01*
X0211200Y0205474D01*
X0210216Y0207851D01*
X0208396Y0209671D01*
X0206019Y0210656D01*
X0203445Y0210656D01*
X0201068Y0209671D01*
X0199732Y0208335D01*
X0198396Y0209671D01*
X0196019Y0210656D01*
X0193445Y0210656D01*
X0191068Y0209671D01*
X0189732Y0208335D01*
X0188396Y0209671D01*
X0186019Y0210656D01*
X0183445Y0210656D01*
X0181068Y0209671D01*
X0179248Y0207851D01*
X0178263Y0205474D01*
X0178263Y0202900D01*
X0178873Y0201430D01*
X0177626Y0200183D01*
X0172607Y0195164D01*
X0171347Y0195164D01*
X0170329Y0194743D01*
X0169732Y0194146D01*
X0169135Y0194743D01*
X0168117Y0195164D01*
X0167212Y0195164D01*
X0160695Y0201681D01*
X0161200Y0202900D01*
X0161200Y0205474D01*
X0160216Y0207851D01*
X0158396Y0209671D01*
X0156019Y0210656D01*
X0153445Y0210656D01*
X0151068Y0209671D01*
X0149248Y0207851D01*
X0148882Y0206967D01*
X0147508Y0208341D01*
X0145707Y0209087D01*
X0143757Y0209087D01*
X0141956Y0208341D01*
X0140582Y0206967D01*
X0140216Y0207851D01*
X0138396Y0209671D01*
X0136019Y0210656D01*
X0133445Y0210656D01*
X0131068Y0209671D01*
X0129248Y0207851D01*
X0128263Y0205474D01*
X0128263Y0202900D01*
X0128464Y0202415D01*
X0128236Y0202644D01*
X0126856Y0203215D01*
X0124712Y0203215D01*
X0121417Y0206510D01*
X0120362Y0207565D01*
X0120328Y0207579D01*
X0120216Y0207851D01*
X0118396Y0209671D01*
X0116019Y0210656D01*
X0113445Y0210656D01*
X0111068Y0209671D01*
X0109248Y0207851D01*
X0109110Y0207518D01*
X0108927Y0207770D01*
X0108315Y0208382D01*
X0107615Y0208891D01*
X0106843Y0209284D01*
X0106020Y0209552D01*
X0105165Y0209687D01*
X0104932Y0209687D01*
X0104932Y0204387D01*
X0104532Y0204387D01*
X0104532Y0203987D01*
X0104932Y0203987D01*
X0104932Y0198687D01*
X0105165Y0198687D01*
X0106020Y0198823D01*
X0106843Y0199090D01*
X0107615Y0199483D01*
X0108315Y0199992D01*
X0108927Y0200604D01*
X0109110Y0200856D01*
X0109248Y0200523D01*
X0111068Y0198703D01*
X0113445Y0197719D01*
X0116019Y0197719D01*
X0118396Y0198703D01*
X0118503Y0198810D01*
X0121031Y0196281D01*
X0122357Y0195732D01*
X0122357Y0189271D01*
X0122232Y0189146D01*
X0121635Y0189743D01*
X0120617Y0190164D01*
X0116366Y0190164D01*
X0115349Y0189743D01*
X0114570Y0188964D01*
X0114358Y0188452D01*
X0108566Y0188452D01*
X0108378Y0188905D01*
X0107599Y0189684D01*
X0106582Y0190105D01*
X0100362Y0190105D01*
X0099345Y0189684D01*
X0098796Y0189135D01*
X0098788Y0189137D01*
X0096471Y0189137D01*
X0096471Y0184667D01*
X0095512Y0184667D01*
X0095512Y0189137D01*
X0093196Y0189137D01*
X0092738Y0189014D01*
X0092328Y0188777D01*
X0091992Y0188442D01*
X0091755Y0188031D01*
X0091633Y0187574D01*
X0091633Y0184667D01*
X0095512Y0184667D01*
X0095512Y0183708D01*
X0091633Y0183708D01*
X0091633Y0180801D01*
X0091755Y0180343D01*
X0091992Y0179932D01*
X0092328Y0179597D01*
X0092738Y0179360D01*
X0093196Y0179237D01*
X0095512Y0179237D01*
X0095512Y0183707D01*
X0096471Y0183707D01*
X0096471Y0179237D01*
X0098788Y0179237D01*
X0098796Y0179240D01*
X0099345Y0178690D01*
X0100362Y0178269D01*
X0103611Y0178269D01*
X0130803Y0151077D01*
X0131858Y0150021D01*
X0133237Y0149450D01*
X0174172Y0149450D01*
X0174172Y0148131D01*
X0178642Y0148131D01*
X0178642Y0147172D01*
X0174172Y0147172D01*
X0174172Y0144856D01*
X0174295Y0144398D01*
X0174532Y0143987D01*
X0174867Y0143652D01*
X0175076Y0143531D01*
X0174772Y0143227D01*
X0174772Y0143009D01*
X0171002Y0146779D01*
X0058797Y0146779D01*
X0055755Y0149821D01*
X0055755Y0152302D01*
X0055052Y0153005D01*
X0051892Y0153005D01*
X0051189Y0152302D01*
X0051189Y0148785D01*
X0049843Y0150131D01*
X0049843Y0152355D01*
X0049422Y0153373D01*
X0048643Y0154152D01*
X0047655Y0154561D01*
X0048643Y0154970D01*
X0049190Y0155517D01*
X0049732Y0155517D01*
X0051052Y0155517D01*
X0051509Y0155640D01*
X0051920Y0155877D01*
X0052160Y0156117D01*
X0055052Y0156117D01*
X0055755Y0156820D01*
X0055755Y0158643D01*
X0077233Y0158643D01*
X0077233Y0155914D01*
X0077936Y0155212D01*
X0084048Y0155212D01*
X0084732Y0155896D01*
X0085416Y0155212D01*
X0091528Y0155212D01*
X0092231Y0155914D01*
X0092231Y0163208D01*
X0091528Y0163911D01*
X0086221Y0163911D01*
X0086221Y0200625D01*
X0086725Y0200625D01*
X0087428Y0201328D01*
X0087428Y0207046D01*
X0086725Y0207749D01*
X0081007Y0207749D01*
X0080620Y0207363D01*
X0080307Y0208118D01*
X0079529Y0208896D01*
X0078511Y0209318D01*
X0072685Y0209318D01*
X0071668Y0208896D01*
X0070908Y0208137D01*
X0059930Y0208137D01*
X0058396Y0209671D01*
X0056019Y0210656D01*
X0053445Y0210656D01*
X0051068Y0209671D01*
X0049248Y0207851D01*
X0049110Y0207518D01*
X0048927Y0207770D01*
X0048315Y0208382D01*
X0047615Y0208891D01*
X0046843Y0209284D01*
X0046020Y0209552D01*
X0045165Y0209687D01*
X0044932Y0209687D01*
X0044932Y0204387D01*
X0044532Y0204387D01*
X0044532Y0203987D01*
X0044932Y0203987D01*
X0044932Y0198687D01*
X0045165Y0198687D01*
X0046020Y0198823D01*
X0046843Y0199090D01*
X0047615Y0199483D01*
X0048315Y0199992D01*
X0048927Y0200604D01*
X0049110Y0200856D01*
X0049248Y0200523D01*
X0051068Y0198703D01*
X0053445Y0197719D01*
X0056019Y0197719D01*
X0058396Y0198703D01*
X0060216Y0200523D01*
X0060261Y0200631D01*
X0070734Y0200631D01*
X0070889Y0200257D01*
X0071668Y0199478D01*
X0072685Y0199056D01*
X0078511Y0199056D01*
X0079529Y0199478D01*
X0080307Y0200257D01*
X0080620Y0201011D01*
X0081007Y0200625D01*
X0083321Y0200625D01*
X0083321Y0163911D01*
X0077936Y0163911D01*
X0077233Y0163208D01*
X0077233Y0161543D01*
X0055755Y0161543D01*
X0055755Y0162539D01*
X0055052Y0163242D01*
X0052160Y0163242D01*
X0051920Y0163482D01*
X0051509Y0163719D01*
X0051052Y0163842D01*
X0049732Y0163842D01*
X0049732Y0162860D01*
X0049732Y0162861D01*
X0049732Y0163842D01*
X0049190Y0163842D01*
X0048643Y0164389D01*
X0047625Y0164810D01*
X0044358Y0164810D01*
X0043341Y0164389D01*
X0042562Y0163610D01*
X0042141Y0162593D01*
X0042141Y0161155D01*
X0041878Y0160893D01*
X0039734Y0160893D01*
X0038354Y0160321D01*
X0032449Y0154416D01*
X0031393Y0153360D01*
X0030822Y0151981D01*
X0030822Y0144582D01*
X0031393Y0143203D01*
X0032449Y0142147D01*
X0033828Y0141576D01*
X0034989Y0141576D01*
X0035841Y0140723D01*
X0035841Y0136793D01*
X0034882Y0136793D01*
X0034882Y0141066D01*
X0032566Y0141066D01*
X0032108Y0140943D01*
X0031698Y0140706D01*
X0031362Y0140371D01*
X0031126Y0139961D01*
X0031003Y0139503D01*
X0031003Y0136793D01*
X0034882Y0136793D01*
X0034882Y0135834D01*
X0031003Y0135834D01*
X0031003Y0133123D01*
X0031126Y0132666D01*
X0031362Y0132255D01*
X0031698Y0131920D01*
X0032108Y0131683D01*
X0032566Y0131560D01*
X0034882Y0131560D01*
X0034882Y0135833D01*
X0035841Y0135833D01*
X0035841Y0131560D01*
X0038158Y0131560D01*
X0038166Y0131562D01*
X0038715Y0131013D01*
X0039732Y0130592D01*
X0045952Y0130592D01*
X0046970Y0131013D01*
X0047748Y0131792D01*
X0048132Y0132718D01*
X0060127Y0132718D01*
X0061401Y0131444D01*
X0063154Y0130718D01*
X0065051Y0130718D01*
X0066803Y0131444D01*
X0068145Y0132785D01*
X0068871Y0134538D01*
X0068871Y0136435D01*
X0068372Y0137639D01*
X0154083Y0137639D01*
X0168775Y0122948D01*
X0168775Y0119621D01*
X0169196Y0118603D01*
X0169975Y0117824D01*
X0170992Y0117403D01*
X0177212Y0117403D01*
X0178229Y0117824D01*
X0178778Y0118373D01*
X0178786Y0118371D01*
X0181103Y0118371D01*
X0181103Y0122644D01*
X0182062Y0122644D01*
X0182062Y0118371D01*
X0184378Y0118371D01*
X0184836Y0118494D01*
X0185247Y0118731D01*
X0185582Y0119066D01*
X0185819Y0119477D01*
X0185941Y0119934D01*
X0185941Y0122645D01*
X0182062Y0122645D01*
X0182062Y0123604D01*
X0181103Y0123604D01*
X0181103Y0127877D01*
X0178786Y0127877D01*
X0178778Y0127875D01*
X0178229Y0128424D01*
X0177212Y0128845D01*
X0173491Y0128845D01*
X0158819Y0143518D01*
X0158458Y0143879D01*
X0169801Y0143879D01*
X0173873Y0139807D01*
X0174722Y0138958D01*
X0174772Y0138958D01*
X0174772Y0137115D01*
X0175475Y0136412D01*
X0182768Y0136412D01*
X0183471Y0137115D01*
X0183471Y0143227D01*
X0183167Y0143531D01*
X0183377Y0143652D01*
X0183712Y0143987D01*
X0183949Y0144398D01*
X0184071Y0144856D01*
X0184071Y0147172D01*
X0179601Y0147172D01*
X0179601Y0148131D01*
X0184071Y0148131D01*
X0184071Y0149450D01*
X0187548Y0149450D01*
X0193795Y0143203D01*
X0194850Y0142147D01*
X0196230Y0141576D01*
X0214455Y0141576D01*
X0215834Y0142147D01*
X0212830Y0138187D02*
X0211488Y0139529D01*
X0209736Y0140255D01*
X0207839Y0140255D01*
X0206086Y0139529D01*
X0204745Y0138187D01*
X0204019Y0136435D01*
X0204019Y0134538D01*
X0204707Y0132877D01*
X0202456Y0132877D01*
X0202456Y0128604D01*
X0201497Y0128604D01*
X0201497Y0132877D01*
X0199180Y0132877D01*
X0198722Y0132754D01*
X0198312Y0132517D01*
X0197977Y0132182D01*
X0197740Y0131772D01*
X0197617Y0131314D01*
X0197617Y0128604D01*
X0201496Y0128604D01*
X0201496Y0127645D01*
X0197617Y0127645D01*
X0197617Y0124934D01*
X0197740Y0124477D01*
X0197977Y0124066D01*
X0198312Y0123731D01*
X0198722Y0123494D01*
X0199180Y0123371D01*
X0201497Y0123371D01*
X0201497Y0127644D01*
X0202456Y0127644D01*
X0202456Y0123371D01*
X0204772Y0123371D01*
X0204780Y0123373D01*
X0205329Y0122824D01*
X0206347Y0122403D01*
X0212566Y0122403D01*
X0213584Y0122824D01*
X0214362Y0123603D01*
X0214784Y0124621D01*
X0214784Y0131628D01*
X0214362Y0132645D01*
X0213584Y0133424D01*
X0213166Y0133597D01*
X0213556Y0134538D01*
X0213556Y0136435D01*
X0212830Y0138187D01*
X0213086Y0137570D02*
X0226445Y0137570D01*
X0226445Y0135971D02*
X0213556Y0135971D01*
X0213487Y0134373D02*
X0226445Y0134373D01*
X0226445Y0132774D02*
X0214233Y0132774D01*
X0214784Y0131176D02*
X0225064Y0131176D01*
X0223465Y0129577D02*
X0214784Y0129577D01*
X0214784Y0127979D02*
X0221867Y0127979D01*
X0220268Y0126380D02*
X0214784Y0126380D01*
X0214784Y0124782D02*
X0218670Y0124782D01*
X0217071Y0123183D02*
X0213942Y0123183D01*
X0215473Y0121585D02*
X0185941Y0121585D01*
X0185941Y0119986D02*
X0213874Y0119986D01*
X0212276Y0118388D02*
X0184439Y0118388D01*
X0182062Y0118388D02*
X0181103Y0118388D01*
X0181103Y0119986D02*
X0182062Y0119986D01*
X0182062Y0121585D02*
X0181103Y0121585D01*
X0182062Y0123183D02*
X0204970Y0123183D01*
X0202456Y0124782D02*
X0201497Y0124782D01*
X0201497Y0126380D02*
X0202456Y0126380D01*
X0201496Y0127979D02*
X0178675Y0127979D01*
X0181103Y0126380D02*
X0182062Y0126380D01*
X0182062Y0127877D02*
X0182062Y0123604D01*
X0185941Y0123604D01*
X0185941Y0126314D01*
X0185819Y0126772D01*
X0185582Y0127182D01*
X0185247Y0127517D01*
X0184836Y0127754D01*
X0184378Y0127877D01*
X0182062Y0127877D01*
X0185924Y0126380D02*
X0197617Y0126380D01*
X0197658Y0124782D02*
X0185941Y0124782D01*
X0182062Y0124782D02*
X0181103Y0124782D01*
X0172759Y0129577D02*
X0197617Y0129577D01*
X0197617Y0131176D02*
X0171161Y0131176D01*
X0169562Y0132774D02*
X0198797Y0132774D01*
X0201497Y0132774D02*
X0202456Y0132774D01*
X0202456Y0131176D02*
X0201497Y0131176D01*
X0201497Y0129577D02*
X0202456Y0129577D01*
X0204087Y0134373D02*
X0167964Y0134373D01*
X0166365Y0135971D02*
X0204019Y0135971D01*
X0204489Y0137570D02*
X0183471Y0137570D01*
X0183471Y0139168D02*
X0205725Y0139168D01*
X0211849Y0139168D02*
X0227071Y0139168D01*
X0234519Y0139168D02*
X0235880Y0139168D01*
X0235880Y0137570D02*
X0235145Y0137570D01*
X0235880Y0140767D02*
X0183471Y0140767D01*
X0183471Y0142365D02*
X0194632Y0142365D01*
X0193034Y0143964D02*
X0183688Y0143964D01*
X0184071Y0145562D02*
X0191435Y0145562D01*
X0189837Y0147161D02*
X0184071Y0147161D01*
X0184071Y0148759D02*
X0188238Y0148759D01*
X0194057Y0153555D02*
X0197233Y0153555D01*
X0197233Y0155153D02*
X0194391Y0155153D01*
X0195656Y0151956D02*
X0197233Y0151956D01*
X0197254Y0150358D02*
X0197612Y0150358D01*
X0207993Y0150358D02*
X0208952Y0150358D01*
X0208952Y0151956D02*
X0207993Y0151956D01*
X0207993Y0153555D02*
X0208952Y0153555D01*
X0212604Y0150358D02*
X0213430Y0150358D01*
X0212831Y0151956D02*
X0215029Y0151956D01*
X0216627Y0153555D02*
X0212831Y0153555D01*
X0212831Y0155153D02*
X0218226Y0155153D01*
X0219824Y0156752D02*
X0212831Y0156752D01*
X0212366Y0158350D02*
X0221423Y0158350D01*
X0223021Y0159949D02*
X0210237Y0159949D01*
X0210755Y0161547D02*
X0224620Y0161547D01*
X0226218Y0163146D02*
X0210755Y0163146D01*
X0210755Y0164744D02*
X0227817Y0164744D01*
X0229415Y0166343D02*
X0210755Y0166343D01*
X0206798Y0167941D02*
X0231014Y0167941D01*
X0232612Y0169540D02*
X0203507Y0169540D01*
X0202666Y0167941D02*
X0169727Y0167941D01*
X0167139Y0167941D02*
X0164682Y0167941D01*
X0164682Y0166343D02*
X0165520Y0166343D01*
X0164682Y0164967D02*
X0160212Y0164967D01*
X0160212Y0161088D01*
X0163119Y0161088D01*
X0163576Y0161211D01*
X0163987Y0161448D01*
X0164322Y0161783D01*
X0164559Y0162193D01*
X0164682Y0162651D01*
X0164682Y0164967D01*
X0164682Y0164744D02*
X0165233Y0164744D01*
X0165775Y0163146D02*
X0164682Y0163146D01*
X0164087Y0161547D02*
X0189465Y0161547D01*
X0190333Y0163146D02*
X0171090Y0163146D01*
X0165535Y0169540D02*
X0198477Y0169540D01*
X0197246Y0171138D02*
X0165650Y0171138D01*
X0165650Y0172737D02*
X0197141Y0172737D01*
X0197141Y0174336D02*
X0165650Y0174336D01*
X0165650Y0175934D02*
X0197141Y0175934D01*
X0197229Y0177533D02*
X0164790Y0177533D01*
X0165327Y0179131D02*
X0165763Y0179131D01*
X0165389Y0180730D02*
X0165326Y0180730D01*
X0173701Y0179131D02*
X0196621Y0179131D01*
X0195664Y0180730D02*
X0174075Y0180730D01*
X0174075Y0182328D02*
X0195664Y0182328D01*
X0195664Y0183927D02*
X0174075Y0183927D01*
X0174566Y0185525D02*
X0195664Y0185525D01*
X0195664Y0187124D02*
X0177233Y0187124D01*
X0177815Y0188722D02*
X0196100Y0188722D01*
X0205962Y0188940D02*
X0206428Y0190065D01*
X0207056Y0189804D01*
X0212070Y0189804D01*
X0211634Y0189369D01*
X0211438Y0188894D01*
X0211268Y0188940D01*
X0208952Y0188940D01*
X0208952Y0184667D01*
X0207993Y0184667D01*
X0207993Y0188940D01*
X0205962Y0188940D01*
X0207993Y0188722D02*
X0208952Y0188722D01*
X0208952Y0187124D02*
X0207993Y0187124D01*
X0207993Y0185525D02*
X0208952Y0185525D01*
X0208952Y0182328D02*
X0207993Y0182328D01*
X0207993Y0180730D02*
X0208952Y0180730D01*
X0208472Y0178468D02*
X0209792Y0178468D01*
X0210250Y0178345D01*
X0210660Y0178108D01*
X0210995Y0177773D01*
X0211232Y0177363D01*
X0211355Y0176905D01*
X0211355Y0174306D01*
X0208472Y0174306D01*
X0208472Y0178468D01*
X0207152Y0178468D01*
X0206695Y0178345D01*
X0206284Y0178108D01*
X0205949Y0177773D01*
X0205712Y0177363D01*
X0205589Y0176905D01*
X0205589Y0174306D01*
X0208472Y0174306D01*
X0208472Y0174306D01*
X0208472Y0178468D01*
X0208472Y0177533D02*
X0208472Y0177533D01*
X0208472Y0175934D02*
X0208472Y0175934D01*
X0208472Y0174336D02*
X0208472Y0174336D01*
X0208472Y0174306D02*
X0208472Y0174306D01*
X0208472Y0174306D01*
X0205589Y0174306D01*
X0205589Y0171706D01*
X0205712Y0171249D01*
X0205949Y0170838D01*
X0206284Y0170503D01*
X0206695Y0170266D01*
X0207152Y0170143D01*
X0208472Y0170143D01*
X0208472Y0174305D01*
X0208472Y0174305D01*
X0208472Y0170143D01*
X0209792Y0170143D01*
X0210250Y0170266D01*
X0210660Y0170503D01*
X0210995Y0170838D01*
X0211232Y0171249D01*
X0211355Y0171706D01*
X0211355Y0174306D01*
X0208472Y0174306D01*
X0208472Y0172737D02*
X0208472Y0172737D01*
X0208472Y0171138D02*
X0208472Y0171138D01*
X0205776Y0171138D02*
X0204738Y0171138D01*
X0204843Y0172737D02*
X0205589Y0172737D01*
X0205589Y0174336D02*
X0204843Y0174336D01*
X0204843Y0175934D02*
X0205589Y0175934D01*
X0205810Y0177533D02*
X0204735Y0177533D01*
X0205363Y0179131D02*
X0242203Y0179131D01*
X0240605Y0177533D02*
X0211134Y0177533D01*
X0211355Y0175934D02*
X0239006Y0175934D01*
X0237408Y0174336D02*
X0211355Y0174336D01*
X0211355Y0172737D02*
X0235809Y0172737D01*
X0234211Y0171138D02*
X0211169Y0171138D01*
X0204732Y0167941D02*
X0204732Y0167941D01*
X0204732Y0166343D02*
X0204732Y0166343D01*
X0204732Y0164744D02*
X0204732Y0164744D01*
X0204732Y0164068D02*
X0204732Y0159906D01*
X0206052Y0159906D01*
X0206509Y0160029D01*
X0206920Y0160266D01*
X0207160Y0160506D01*
X0207337Y0160506D01*
X0207337Y0159574D01*
X0202363Y0159574D01*
X0202363Y0160447D01*
X0202544Y0160266D01*
X0202955Y0160029D01*
X0203412Y0159906D01*
X0204732Y0159906D01*
X0204732Y0164068D01*
X0204732Y0164068D01*
X0204732Y0163146D02*
X0204732Y0163146D01*
X0204732Y0161547D02*
X0204732Y0161547D01*
X0204732Y0159949D02*
X0204732Y0159949D01*
X0206210Y0159949D02*
X0207337Y0159949D01*
X0203254Y0159949D02*
X0202363Y0159949D01*
X0227242Y0153555D02*
X0236534Y0153555D01*
X0236452Y0155153D02*
X0228840Y0155153D01*
X0230439Y0156752D02*
X0236452Y0156752D01*
X0236452Y0158350D02*
X0232037Y0158350D01*
X0233636Y0159949D02*
X0237405Y0159949D01*
X0235234Y0161547D02*
X0241352Y0161547D01*
X0242951Y0163146D02*
X0236833Y0163146D01*
X0238431Y0164744D02*
X0244549Y0164744D01*
X0246148Y0166343D02*
X0240030Y0166343D01*
X0241628Y0167941D02*
X0247746Y0167941D01*
X0249345Y0169540D02*
X0243227Y0169540D01*
X0244825Y0171138D02*
X0250943Y0171138D01*
X0252542Y0172737D02*
X0246424Y0172737D01*
X0248022Y0174336D02*
X0254140Y0174336D01*
X0255739Y0175934D02*
X0249621Y0175934D01*
X0251219Y0177533D02*
X0295116Y0177533D01*
X0295500Y0183927D02*
X0257847Y0183927D01*
X0257847Y0185525D02*
X0295264Y0185525D01*
X0287591Y0187124D02*
X0257235Y0187124D01*
X0255799Y0188722D02*
X0287520Y0188722D01*
X0287520Y0190321D02*
X0256055Y0190321D01*
X0257732Y0191919D02*
X0287520Y0191919D01*
X0287732Y0193518D02*
X0259330Y0193518D01*
X0253512Y0198313D02*
X0252454Y0198313D01*
X0253396Y0198703D02*
X0255216Y0200523D01*
X0256200Y0202900D01*
X0256200Y0205474D01*
X0255216Y0207851D01*
X0253396Y0209671D01*
X0251019Y0210656D01*
X0248445Y0210656D01*
X0246068Y0209671D01*
X0244732Y0208335D01*
X0243396Y0209671D01*
X0241019Y0210656D01*
X0238445Y0210656D01*
X0236068Y0209671D01*
X0234732Y0208335D01*
X0233396Y0209671D01*
X0231019Y0210656D01*
X0228445Y0210656D01*
X0226068Y0209671D01*
X0224248Y0207851D01*
X0223263Y0205474D01*
X0223263Y0202900D01*
X0224248Y0200523D01*
X0226068Y0198703D01*
X0228445Y0197719D01*
X0231019Y0197719D01*
X0233396Y0198703D01*
X0234732Y0200039D01*
X0236068Y0198703D01*
X0238445Y0197719D01*
X0241019Y0197719D01*
X0243396Y0198703D01*
X0244732Y0200039D01*
X0246068Y0198703D01*
X0248445Y0197719D01*
X0251019Y0197719D01*
X0253396Y0198703D01*
X0254818Y0199620D02*
X0254818Y0199620D01*
X0254604Y0199912D02*
X0255110Y0199912D01*
X0255625Y0201510D02*
X0287220Y0201510D01*
X0288819Y0203109D02*
X0256200Y0203109D01*
X0256200Y0204707D02*
X0290417Y0204707D01*
X0292016Y0206306D02*
X0255856Y0206306D01*
X0255163Y0207904D02*
X0293614Y0207904D01*
X0293930Y0209503D02*
X0253564Y0209503D01*
X0245900Y0209503D02*
X0243564Y0209503D01*
X0235900Y0209503D02*
X0233564Y0209503D01*
X0225900Y0209503D02*
X0208564Y0209503D01*
X0210163Y0207904D02*
X0224301Y0207904D01*
X0223608Y0206306D02*
X0210856Y0206306D01*
X0211200Y0204707D02*
X0223263Y0204707D01*
X0223263Y0203109D02*
X0211200Y0203109D01*
X0210625Y0201510D02*
X0223839Y0201510D01*
X0224860Y0199912D02*
X0209604Y0199912D01*
X0208354Y0198313D02*
X0227010Y0198313D01*
X0232454Y0198313D02*
X0237010Y0198313D01*
X0234860Y0199912D02*
X0234604Y0199912D01*
X0242454Y0198313D02*
X0247010Y0198313D01*
X0244860Y0199912D02*
X0244604Y0199912D01*
X0250358Y0188722D02*
X0223039Y0188722D01*
X0221440Y0187124D02*
X0248921Y0187124D01*
X0248310Y0185525D02*
X0220365Y0185525D01*
X0219680Y0183927D02*
X0246999Y0183927D01*
X0245400Y0182328D02*
X0217661Y0182328D01*
X0213692Y0182328D02*
X0212831Y0182328D01*
X0212759Y0180730D02*
X0243802Y0180730D01*
X0252818Y0179131D02*
X0334893Y0179131D01*
X0334893Y0177533D02*
X0314002Y0177533D01*
X0319240Y0175934D02*
X0334893Y0175934D01*
X0334893Y0174336D02*
X0319500Y0174336D01*
X0319500Y0172737D02*
X0334893Y0172737D01*
X0334893Y0171138D02*
X0319500Y0171138D01*
X0318926Y0169540D02*
X0334893Y0169540D01*
X0334893Y0167941D02*
X0314902Y0167941D01*
X0314902Y0166343D02*
X0334893Y0166343D01*
X0334893Y0164744D02*
X0314902Y0164744D01*
X0314902Y0163146D02*
X0334893Y0163146D01*
X0334893Y0161547D02*
X0314902Y0161547D01*
X0314902Y0159949D02*
X0334893Y0159949D01*
X0334893Y0158350D02*
X0315138Y0158350D01*
X0315138Y0156752D02*
X0334893Y0156752D01*
X0334893Y0155153D02*
X0315138Y0155153D01*
X0315056Y0153555D02*
X0334893Y0153555D01*
X0334893Y0151956D02*
X0317609Y0151956D01*
X0318785Y0150358D02*
X0334893Y0150358D01*
X0334893Y0148759D02*
X0318932Y0148759D01*
X0320530Y0147161D02*
X0334893Y0147161D01*
X0334893Y0145562D02*
X0322129Y0145562D01*
X0323727Y0143964D02*
X0334893Y0143964D01*
X0334893Y0142365D02*
X0324651Y0142365D01*
X0324745Y0140767D02*
X0334893Y0140767D01*
X0334893Y0139168D02*
X0326476Y0139168D01*
X0326713Y0137570D02*
X0334893Y0137570D01*
X0334893Y0135971D02*
X0326713Y0135971D01*
X0326713Y0134373D02*
X0334893Y0134373D01*
X0334893Y0132774D02*
X0326713Y0132774D01*
X0326108Y0131176D02*
X0334893Y0131176D01*
X0334893Y0129577D02*
X0325745Y0129577D01*
X0325745Y0127526D02*
X0321275Y0127526D01*
X0321275Y0123647D01*
X0324182Y0123647D01*
X0324639Y0123770D01*
X0325050Y0124007D01*
X0325385Y0124342D01*
X0325622Y0124752D01*
X0325745Y0125210D01*
X0325745Y0127526D01*
X0325745Y0126380D02*
X0334893Y0126380D01*
X0334893Y0124782D02*
X0325630Y0124782D01*
X0321275Y0124782D02*
X0320315Y0124782D01*
X0320315Y0123647D02*
X0320315Y0127526D01*
X0315845Y0127526D01*
X0315845Y0125210D01*
X0315968Y0124752D01*
X0316205Y0124342D01*
X0316540Y0124007D01*
X0316951Y0123770D01*
X0317408Y0123647D01*
X0320315Y0123647D01*
X0320315Y0126380D02*
X0321275Y0126380D01*
X0321275Y0127979D02*
X0334893Y0127979D01*
X0334893Y0123183D02*
X0308662Y0123183D01*
X0308662Y0121585D02*
X0334893Y0121585D01*
X0334893Y0119986D02*
X0308662Y0119986D01*
X0308662Y0118388D02*
X0334893Y0118388D01*
X0334893Y0116789D02*
X0308662Y0116789D01*
X0305762Y0116789D02*
X0273229Y0116789D01*
X0273229Y0118388D02*
X0305762Y0118388D01*
X0305762Y0119986D02*
X0273229Y0119986D01*
X0273229Y0121585D02*
X0305762Y0121585D01*
X0305762Y0123183D02*
X0273229Y0123183D01*
X0273229Y0124782D02*
X0280960Y0124782D01*
X0280968Y0124752D02*
X0281205Y0124342D01*
X0281540Y0124007D01*
X0281951Y0123770D01*
X0282408Y0123647D01*
X0285315Y0123647D01*
X0285315Y0127526D01*
X0280845Y0127526D01*
X0280845Y0125210D01*
X0280968Y0124752D01*
X0280845Y0126380D02*
X0273229Y0126380D01*
X0273229Y0127979D02*
X0285315Y0127979D01*
X0286275Y0127979D02*
X0296445Y0127979D01*
X0296445Y0129577D02*
X0290745Y0129577D01*
X0291108Y0131176D02*
X0296559Y0131176D01*
X0296445Y0132774D02*
X0291713Y0132774D01*
X0291713Y0134373D02*
X0296445Y0134373D01*
X0296445Y0135971D02*
X0291713Y0135971D01*
X0291713Y0137570D02*
X0296445Y0137570D01*
X0297071Y0139168D02*
X0291476Y0139168D01*
X0289609Y0140767D02*
X0305762Y0140767D01*
X0305762Y0142365D02*
X0289217Y0142365D01*
X0288294Y0143964D02*
X0305762Y0143964D01*
X0304280Y0145562D02*
X0286695Y0145562D01*
X0285097Y0147161D02*
X0304280Y0147161D01*
X0304280Y0148759D02*
X0283878Y0148759D01*
X0283785Y0150358D02*
X0304560Y0150358D01*
X0307656Y0151956D02*
X0282609Y0151956D01*
X0280056Y0153555D02*
X0306534Y0153555D01*
X0306452Y0155153D02*
X0281005Y0155153D01*
X0282604Y0156752D02*
X0306452Y0156752D01*
X0306452Y0158350D02*
X0284202Y0158350D01*
X0285801Y0159949D02*
X0307397Y0159949D01*
X0307397Y0161547D02*
X0301179Y0161547D01*
X0302778Y0163146D02*
X0307397Y0163146D01*
X0307397Y0164744D02*
X0304376Y0164744D01*
X0305975Y0166343D02*
X0307397Y0166343D01*
X0296013Y0167941D02*
X0258360Y0167941D01*
X0256762Y0166343D02*
X0281581Y0166343D01*
X0279982Y0164744D02*
X0255163Y0164744D01*
X0253565Y0163146D02*
X0278384Y0163146D01*
X0276785Y0161547D02*
X0251966Y0161547D01*
X0250368Y0159949D02*
X0272405Y0159949D01*
X0271452Y0158350D02*
X0248769Y0158350D01*
X0247171Y0156752D02*
X0271452Y0156752D01*
X0271452Y0155153D02*
X0245572Y0155153D01*
X0245056Y0153555D02*
X0271534Y0153555D01*
X0272656Y0151956D02*
X0247609Y0151956D01*
X0248785Y0150358D02*
X0269560Y0150358D01*
X0269280Y0148759D02*
X0249050Y0148759D01*
X0250648Y0147161D02*
X0269280Y0147161D01*
X0269280Y0145562D02*
X0252247Y0145562D01*
X0253845Y0143964D02*
X0270329Y0143964D01*
X0270329Y0142365D02*
X0254769Y0142365D01*
X0254863Y0140767D02*
X0270329Y0140767D01*
X0270329Y0139168D02*
X0269519Y0139168D01*
X0270145Y0137570D02*
X0270329Y0137570D01*
X0273229Y0137570D02*
X0279877Y0137570D01*
X0279877Y0135971D02*
X0273229Y0135971D01*
X0272716Y0134373D02*
X0279877Y0134373D01*
X0279877Y0132774D02*
X0270145Y0132774D01*
X0270031Y0131176D02*
X0280482Y0131176D01*
X0280845Y0129577D02*
X0270145Y0129577D01*
X0269976Y0124782D02*
X0270329Y0124782D01*
X0270329Y0123183D02*
X0259558Y0123183D01*
X0257960Y0121585D02*
X0270329Y0121585D01*
X0261614Y0124782D02*
X0261157Y0124782D01*
X0258654Y0126380D02*
X0255745Y0126380D01*
X0255745Y0127526D02*
X0255745Y0125210D01*
X0255622Y0124752D01*
X0255385Y0124342D01*
X0255050Y0124007D01*
X0254639Y0123770D01*
X0254182Y0123647D01*
X0251275Y0123647D01*
X0251275Y0127526D01*
X0255745Y0127526D01*
X0255745Y0129577D02*
X0261445Y0129577D01*
X0261559Y0131176D02*
X0256108Y0131176D01*
X0256713Y0132774D02*
X0261445Y0132774D01*
X0261445Y0134373D02*
X0256713Y0134373D01*
X0256713Y0135971D02*
X0261445Y0135971D01*
X0261445Y0137570D02*
X0256713Y0137570D01*
X0256476Y0139168D02*
X0262071Y0139168D01*
X0273229Y0139168D02*
X0280114Y0139168D01*
X0280877Y0140767D02*
X0273229Y0140767D01*
X0273229Y0142365D02*
X0279278Y0142365D01*
X0276119Y0143964D02*
X0273229Y0143964D01*
X0274830Y0145562D02*
X0275192Y0145562D01*
X0275192Y0147161D02*
X0274830Y0147161D01*
X0274830Y0148759D02*
X0275192Y0148759D01*
X0275286Y0150358D02*
X0274550Y0150358D01*
X0304519Y0139168D02*
X0305762Y0139168D01*
X0305762Y0137570D02*
X0305145Y0137570D01*
X0308662Y0137570D02*
X0314877Y0137570D01*
X0314877Y0135971D02*
X0308662Y0135971D01*
X0308149Y0134373D02*
X0314877Y0134373D01*
X0314877Y0132774D02*
X0305145Y0132774D01*
X0305031Y0131176D02*
X0315482Y0131176D01*
X0315845Y0129577D02*
X0305145Y0129577D01*
X0308662Y0127979D02*
X0320315Y0127979D01*
X0315845Y0126380D02*
X0308662Y0126380D01*
X0308662Y0124782D02*
X0315960Y0124782D01*
X0305762Y0124782D02*
X0304976Y0124782D01*
X0296614Y0124782D02*
X0290630Y0124782D01*
X0290622Y0124752D02*
X0290745Y0125210D01*
X0290745Y0127526D01*
X0286275Y0127526D01*
X0286275Y0123647D01*
X0289182Y0123647D01*
X0289639Y0123770D01*
X0290050Y0124007D01*
X0290385Y0124342D01*
X0290622Y0124752D01*
X0290745Y0126380D02*
X0296445Y0126380D01*
X0286275Y0126380D02*
X0285315Y0126380D01*
X0285315Y0124782D02*
X0286275Y0124782D01*
X0280015Y0110395D02*
X0279056Y0110395D01*
X0279056Y0108797D02*
X0280015Y0108797D01*
X0280015Y0107198D02*
X0279056Y0107198D01*
X0275829Y0107198D02*
X0248241Y0107198D01*
X0248894Y0108797D02*
X0268296Y0108797D01*
X0268296Y0110395D02*
X0248894Y0110395D01*
X0245015Y0113592D02*
X0244056Y0113592D01*
X0244056Y0115191D02*
X0245015Y0115191D01*
X0235880Y0116789D02*
X0214778Y0116789D01*
X0213180Y0115191D02*
X0233296Y0115191D01*
X0233296Y0113592D02*
X0083932Y0113592D01*
X0082334Y0111994D02*
X0095264Y0111994D01*
X0095264Y0110395D02*
X0080735Y0110395D01*
X0079137Y0108797D02*
X0095264Y0108797D01*
X0095811Y0107198D02*
X0077538Y0107198D01*
X0074916Y0115191D02*
X0072938Y0115191D01*
X0074049Y0116789D02*
X0076515Y0116789D01*
X0078114Y0118388D02*
X0074192Y0118388D01*
X0073301Y0119986D02*
X0079712Y0119986D01*
X0081311Y0121585D02*
X0029532Y0121585D01*
X0030457Y0122511D02*
X0030792Y0122176D01*
X0031203Y0121939D01*
X0031660Y0121816D01*
X0036634Y0121816D01*
X0036634Y0125400D01*
X0037003Y0125400D01*
X0037003Y0121816D01*
X0041977Y0121816D01*
X0042435Y0121939D01*
X0042845Y0122176D01*
X0043180Y0122511D01*
X0043417Y0122921D01*
X0043540Y0123379D01*
X0043540Y0125400D01*
X0037003Y0125400D01*
X0037003Y0125769D01*
X0043540Y0125769D01*
X0043540Y0127790D01*
X0043417Y0128248D01*
X0043180Y0128658D01*
X0042845Y0128994D01*
X0042435Y0129231D01*
X0041977Y0129353D01*
X0037003Y0129353D01*
X0037003Y0125769D01*
X0036634Y0125769D01*
X0036634Y0125400D01*
X0030097Y0125400D01*
X0030097Y0123379D01*
X0030220Y0122921D01*
X0030457Y0122511D01*
X0030150Y0123183D02*
X0029532Y0123183D01*
X0029532Y0124782D02*
X0030097Y0124782D01*
X0030097Y0125769D02*
X0036634Y0125769D01*
X0036634Y0129353D01*
X0031660Y0129353D01*
X0031203Y0129231D01*
X0030792Y0128994D01*
X0030457Y0128658D01*
X0030220Y0128248D01*
X0030097Y0127790D01*
X0030097Y0125769D01*
X0030097Y0126380D02*
X0029532Y0126380D01*
X0029532Y0127979D02*
X0030148Y0127979D01*
X0029532Y0129577D02*
X0094573Y0129577D01*
X0087705Y0127979D02*
X0043489Y0127979D01*
X0043540Y0126380D02*
X0086106Y0126380D01*
X0084508Y0124782D02*
X0043540Y0124782D01*
X0043487Y0123183D02*
X0082909Y0123183D01*
X0088728Y0118388D02*
X0095264Y0118388D01*
X0095264Y0119986D02*
X0090326Y0119986D01*
X0091925Y0121585D02*
X0094581Y0121585D01*
X0095264Y0116789D02*
X0087129Y0116789D01*
X0085531Y0115191D02*
X0095693Y0115191D01*
X0107078Y0115191D02*
X0167977Y0115191D01*
X0169411Y0118388D02*
X0107507Y0118388D01*
X0107507Y0119986D02*
X0168775Y0119986D01*
X0168775Y0121585D02*
X0108190Y0121585D01*
X0109075Y0123183D02*
X0168539Y0123183D01*
X0166940Y0124782D02*
X0109075Y0124782D01*
X0109075Y0126380D02*
X0165342Y0126380D01*
X0163743Y0127979D02*
X0109075Y0127979D01*
X0108198Y0129577D02*
X0162145Y0129577D01*
X0160546Y0131176D02*
X0066156Y0131176D01*
X0068134Y0132774D02*
X0158948Y0132774D01*
X0157349Y0134373D02*
X0068802Y0134373D01*
X0068871Y0135971D02*
X0155751Y0135971D01*
X0154152Y0137570D02*
X0068400Y0137570D01*
X0062048Y0131176D02*
X0047132Y0131176D01*
X0038553Y0131176D02*
X0029532Y0131176D01*
X0029532Y0132774D02*
X0031096Y0132774D01*
X0031003Y0134373D02*
X0029532Y0134373D01*
X0029532Y0135971D02*
X0034882Y0135971D01*
X0034882Y0134373D02*
X0035841Y0134373D01*
X0035841Y0132774D02*
X0034882Y0132774D01*
X0034882Y0137570D02*
X0035841Y0137570D01*
X0035841Y0139168D02*
X0034882Y0139168D01*
X0034882Y0140767D02*
X0035798Y0140767D01*
X0032231Y0142365D02*
X0029532Y0142365D01*
X0029532Y0140767D02*
X0031803Y0140767D01*
X0031003Y0139168D02*
X0029532Y0139168D01*
X0029532Y0137570D02*
X0031003Y0137570D01*
X0031078Y0143964D02*
X0029532Y0143964D01*
X0029532Y0145562D02*
X0030822Y0145562D01*
X0030822Y0147161D02*
X0029532Y0147161D01*
X0029532Y0148759D02*
X0030822Y0148759D01*
X0030822Y0150358D02*
X0029532Y0150358D01*
X0029532Y0151956D02*
X0030822Y0151956D01*
X0031588Y0153555D02*
X0029532Y0153555D01*
X0029532Y0155153D02*
X0033186Y0155153D01*
X0034785Y0156752D02*
X0029532Y0156752D01*
X0029532Y0158350D02*
X0036383Y0158350D01*
X0037982Y0159949D02*
X0029532Y0159949D01*
X0029532Y0161547D02*
X0042141Y0161547D01*
X0042370Y0163146D02*
X0029532Y0163146D01*
X0029532Y0164744D02*
X0044199Y0164744D01*
X0047784Y0164744D02*
X0083321Y0164744D01*
X0083321Y0166343D02*
X0029532Y0166343D01*
X0029532Y0167941D02*
X0083321Y0167941D01*
X0083321Y0169540D02*
X0029532Y0169540D01*
X0029532Y0171138D02*
X0083321Y0171138D01*
X0083321Y0172737D02*
X0029532Y0172737D01*
X0029532Y0174336D02*
X0083321Y0174336D01*
X0083321Y0175934D02*
X0029532Y0175934D01*
X0029532Y0177533D02*
X0083321Y0177533D01*
X0083321Y0179131D02*
X0029532Y0179131D01*
X0029532Y0180730D02*
X0083321Y0180730D01*
X0083321Y0182328D02*
X0029532Y0182328D01*
X0029532Y0183927D02*
X0083321Y0183927D01*
X0083321Y0185525D02*
X0029532Y0185525D01*
X0029532Y0187124D02*
X0083321Y0187124D01*
X0083321Y0188722D02*
X0029532Y0188722D01*
X0029532Y0190321D02*
X0083321Y0190321D01*
X0083321Y0191919D02*
X0029532Y0191919D01*
X0029532Y0193518D02*
X0083321Y0193518D01*
X0083321Y0195116D02*
X0029532Y0195116D01*
X0029532Y0196715D02*
X0083321Y0196715D01*
X0083321Y0198313D02*
X0057454Y0198313D01*
X0059604Y0199912D02*
X0071234Y0199912D01*
X0079962Y0199912D02*
X0083321Y0199912D01*
X0086221Y0199912D02*
X0101259Y0199912D01*
X0101149Y0199992D02*
X0101849Y0199483D01*
X0102621Y0199090D01*
X0103444Y0198823D01*
X0104299Y0198687D01*
X0104532Y0198687D01*
X0104532Y0203987D01*
X0099232Y0203987D01*
X0099232Y0203754D01*
X0099367Y0202899D01*
X0099635Y0202076D01*
X0100028Y0201304D01*
X0100537Y0200604D01*
X0101149Y0199992D01*
X0099923Y0201510D02*
X0087428Y0201510D01*
X0087428Y0203109D02*
X0099334Y0203109D01*
X0099232Y0204387D02*
X0104532Y0204387D01*
X0104532Y0209687D01*
X0104299Y0209687D01*
X0103444Y0209552D01*
X0102621Y0209284D01*
X0101849Y0208891D01*
X0101149Y0208382D01*
X0100537Y0207770D01*
X0100028Y0207070D01*
X0099635Y0206298D01*
X0099367Y0205475D01*
X0099232Y0204620D01*
X0099232Y0204387D01*
X0099246Y0204707D02*
X0087428Y0204707D01*
X0087428Y0206306D02*
X0099639Y0206306D01*
X0100671Y0207904D02*
X0080396Y0207904D01*
X0086221Y0198313D02*
X0112010Y0198313D01*
X0109860Y0199912D02*
X0108205Y0199912D01*
X0104932Y0199912D02*
X0104532Y0199912D01*
X0104532Y0201510D02*
X0104932Y0201510D01*
X0104932Y0203109D02*
X0104532Y0203109D01*
X0104532Y0204707D02*
X0104932Y0204707D01*
X0104932Y0206306D02*
X0104532Y0206306D01*
X0104532Y0207904D02*
X0104932Y0207904D01*
X0104932Y0209503D02*
X0104532Y0209503D01*
X0103294Y0209503D02*
X0058564Y0209503D01*
X0050900Y0209503D02*
X0046170Y0209503D01*
X0044932Y0209503D02*
X0044532Y0209503D01*
X0044532Y0209687D02*
X0044299Y0209687D01*
X0043444Y0209552D01*
X0042621Y0209284D01*
X0041849Y0208891D01*
X0041149Y0208382D01*
X0040537Y0207770D01*
X0040028Y0207070D01*
X0039635Y0206298D01*
X0039367Y0205475D01*
X0039232Y0204620D01*
X0039232Y0204387D01*
X0044532Y0204387D01*
X0044532Y0209687D01*
X0043294Y0209503D02*
X0029532Y0209503D01*
X0029532Y0211101D02*
X0294185Y0211101D01*
X0296139Y0212700D02*
X0029532Y0212700D01*
X0029532Y0214298D02*
X0334893Y0214298D01*
X0334893Y0212700D02*
X0301196Y0212700D01*
X0314862Y0211101D02*
X0334893Y0211101D01*
X0334893Y0209503D02*
X0319537Y0209503D01*
X0319537Y0207904D02*
X0334893Y0207904D01*
X0334893Y0206306D02*
X0319537Y0206306D01*
X0319419Y0204707D02*
X0334893Y0204707D01*
X0334893Y0203109D02*
X0314068Y0203109D01*
X0319335Y0196715D02*
X0334893Y0196715D01*
X0334893Y0198313D02*
X0294638Y0198313D01*
X0295641Y0196715D02*
X0293039Y0196715D01*
X0291441Y0195116D02*
X0295264Y0195116D01*
X0296236Y0199912D02*
X0334893Y0199912D01*
X0334893Y0201510D02*
X0297835Y0201510D01*
X0319712Y0195116D02*
X0334893Y0195116D01*
X0334893Y0193518D02*
X0327289Y0193518D01*
X0327500Y0191919D02*
X0334893Y0191919D01*
X0334893Y0190321D02*
X0327500Y0190321D01*
X0327500Y0188722D02*
X0334893Y0188722D01*
X0334893Y0187124D02*
X0327430Y0187124D01*
X0334893Y0185525D02*
X0319712Y0185525D01*
X0319476Y0183927D02*
X0334893Y0183927D01*
X0334893Y0182328D02*
X0257258Y0182328D01*
X0255853Y0180730D02*
X0334893Y0180730D01*
X0310286Y0150358D02*
X0309550Y0150358D01*
X0309830Y0148759D02*
X0310192Y0148759D01*
X0310192Y0147161D02*
X0309830Y0147161D01*
X0309830Y0145562D02*
X0310192Y0145562D01*
X0311119Y0143964D02*
X0308662Y0143964D01*
X0308662Y0142365D02*
X0314711Y0142365D01*
X0316310Y0140767D02*
X0308662Y0140767D01*
X0308662Y0139168D02*
X0315114Y0139168D01*
X0315015Y0115191D02*
X0314056Y0115191D01*
X0314056Y0113592D02*
X0315015Y0113592D01*
X0318879Y0115191D02*
X0334893Y0115191D01*
X0334893Y0097607D02*
X0313589Y0097607D01*
X0315580Y0096008D02*
X0334893Y0096008D01*
X0334893Y0094410D02*
X0317179Y0094410D01*
X0318777Y0092811D02*
X0334893Y0092811D01*
X0334893Y0091213D02*
X0320376Y0091213D01*
X0327515Y0089614D02*
X0334893Y0089614D01*
X0334893Y0088016D02*
X0328965Y0088016D01*
X0329627Y0086417D02*
X0334893Y0086417D01*
X0334893Y0084819D02*
X0329845Y0084819D01*
X0329804Y0083220D02*
X0334893Y0083220D01*
X0334893Y0081622D02*
X0329142Y0081622D01*
X0327942Y0080023D02*
X0334893Y0080023D01*
X0334893Y0078425D02*
X0325358Y0078425D01*
X0321394Y0078425D02*
X0289312Y0078425D01*
X0289312Y0080023D02*
X0303833Y0080023D01*
X0304601Y0079705D02*
X0306551Y0079705D01*
X0308352Y0080451D01*
X0309730Y0081830D01*
X0310476Y0083631D01*
X0310476Y0085580D01*
X0309730Y0087381D01*
X0308352Y0088759D01*
X0306551Y0089505D01*
X0304601Y0089505D01*
X0302800Y0088759D01*
X0301422Y0087381D01*
X0300676Y0085580D01*
X0300676Y0083631D01*
X0301422Y0081830D01*
X0302800Y0080451D01*
X0304601Y0079705D01*
X0307319Y0080023D02*
X0318810Y0080023D01*
X0317610Y0081622D02*
X0309522Y0081622D01*
X0310306Y0083220D02*
X0316948Y0083220D01*
X0316155Y0084819D02*
X0310476Y0084819D01*
X0310129Y0086417D02*
X0314557Y0086417D01*
X0312958Y0088016D02*
X0309095Y0088016D01*
X0311360Y0089614D02*
X0289312Y0089614D01*
X0289312Y0088016D02*
X0302057Y0088016D01*
X0301023Y0086417D02*
X0289312Y0086417D01*
X0289312Y0084819D02*
X0300676Y0084819D01*
X0300846Y0083220D02*
X0289312Y0083220D01*
X0289312Y0081622D02*
X0301630Y0081622D01*
X0289312Y0076826D02*
X0334893Y0076826D01*
X0334893Y0075228D02*
X0289312Y0075228D01*
X0289312Y0073629D02*
X0334893Y0073629D01*
X0334893Y0072031D02*
X0289312Y0072031D01*
X0289312Y0070432D02*
X0334893Y0070432D01*
X0334893Y0068834D02*
X0288920Y0068834D01*
X0287576Y0067235D02*
X0334893Y0067235D01*
X0334893Y0065637D02*
X0285977Y0065637D01*
X0243046Y0070432D02*
X0242087Y0070432D01*
X0242087Y0072031D02*
X0243046Y0072031D01*
X0237698Y0072031D02*
X0217207Y0072031D01*
X0217349Y0070432D02*
X0237617Y0070432D01*
X0210389Y0064038D02*
X0210139Y0064038D01*
X0206589Y0064038D02*
X0205630Y0064038D01*
X0205630Y0065637D02*
X0206589Y0065637D01*
X0206589Y0067235D02*
X0205630Y0067235D01*
X0205630Y0068834D02*
X0206589Y0068834D01*
X0206589Y0070432D02*
X0205630Y0070432D01*
X0205630Y0072031D02*
X0206589Y0072031D01*
X0201303Y0078425D02*
X0185008Y0078425D01*
X0185012Y0080023D02*
X0200782Y0080023D01*
X0200782Y0081622D02*
X0184478Y0081622D01*
X0183151Y0083220D02*
X0200782Y0083220D01*
X0200782Y0084819D02*
X0178635Y0084819D01*
X0178697Y0086417D02*
X0200782Y0086417D01*
X0201260Y0088016D02*
X0174818Y0088016D01*
X0174818Y0089614D02*
X0173859Y0089614D01*
X0173859Y0091213D02*
X0174818Y0091213D01*
X0174818Y0092811D02*
X0173859Y0092811D01*
X0178220Y0092811D02*
X0201343Y0092811D01*
X0201066Y0091213D02*
X0178697Y0091213D01*
X0178697Y0089614D02*
X0201328Y0089614D01*
X0198273Y0076826D02*
X0184346Y0076826D01*
X0182671Y0075228D02*
X0197495Y0075228D01*
X0197495Y0073629D02*
X0179796Y0073629D01*
X0179666Y0072031D02*
X0197495Y0072031D01*
X0197495Y0070432D02*
X0179666Y0070432D01*
X0179291Y0068834D02*
X0197495Y0068834D01*
X0197495Y0067235D02*
X0176355Y0067235D01*
X0174757Y0065637D02*
X0197495Y0065637D01*
X0197495Y0064038D02*
X0173158Y0064038D01*
X0173563Y0062385D02*
X0171247Y0062385D01*
X0170789Y0062262D01*
X0170379Y0062025D01*
X0170044Y0061690D01*
X0169923Y0061481D01*
X0169619Y0061785D01*
X0163507Y0061785D01*
X0162804Y0061082D01*
X0162804Y0059180D01*
X0137831Y0059180D01*
X0137681Y0059543D01*
X0136781Y0060443D01*
X0135605Y0060930D01*
X0134332Y0060930D01*
X0133156Y0060443D01*
X0132255Y0059543D01*
X0131768Y0058367D01*
X0131768Y0057094D01*
X0132255Y0055918D01*
X0133156Y0055018D01*
X0134332Y0054530D01*
X0135605Y0054530D01*
X0136781Y0055018D01*
X0137681Y0055918D01*
X0137831Y0056280D01*
X0162804Y0056280D01*
X0162804Y0053788D01*
X0163507Y0053086D01*
X0169619Y0053086D01*
X0169923Y0053390D01*
X0170044Y0053180D01*
X0170379Y0052845D01*
X0170789Y0052608D01*
X0171247Y0052486D01*
X0173563Y0052486D01*
X0173563Y0056956D01*
X0174523Y0056956D01*
X0174523Y0057915D01*
X0178402Y0057915D01*
X0178402Y0060822D01*
X0178279Y0061280D01*
X0178042Y0061690D01*
X0177707Y0062025D01*
X0177297Y0062262D01*
X0176839Y0062385D01*
X0174523Y0062385D01*
X0174523Y0057915D01*
X0173563Y0057915D01*
X0173563Y0062385D01*
X0173563Y0060841D02*
X0174523Y0060841D01*
X0174523Y0059243D02*
X0173563Y0059243D01*
X0174523Y0057644D02*
X0197495Y0057644D01*
X0197495Y0056046D02*
X0178402Y0056046D01*
X0178402Y0056956D02*
X0174523Y0056956D01*
X0174523Y0052486D01*
X0176839Y0052486D01*
X0177297Y0052608D01*
X0177707Y0052845D01*
X0178042Y0053180D01*
X0178279Y0053591D01*
X0178402Y0054049D01*
X0178402Y0056956D01*
X0178402Y0059243D02*
X0197495Y0059243D01*
X0197495Y0060841D02*
X0178397Y0060841D01*
X0174523Y0056046D02*
X0173563Y0056046D01*
X0173563Y0054447D02*
X0174523Y0054447D01*
X0174523Y0052849D02*
X0173563Y0052849D01*
X0170375Y0052849D02*
X0126576Y0052849D01*
X0126576Y0051250D02*
X0197495Y0051250D01*
X0197495Y0049652D02*
X0125987Y0049652D01*
X0128815Y0054447D02*
X0162804Y0054447D01*
X0162804Y0056046D02*
X0137734Y0056046D01*
X0137805Y0059243D02*
X0162804Y0059243D01*
X0162804Y0060841D02*
X0135820Y0060841D01*
X0134116Y0060841D02*
X0129160Y0060841D01*
X0129160Y0059243D02*
X0132131Y0059243D01*
X0131768Y0057644D02*
X0129160Y0057644D01*
X0129160Y0056046D02*
X0132202Y0056046D01*
X0118397Y0044856D02*
X0195186Y0044856D01*
X0195186Y0046455D02*
X0116799Y0046455D01*
X0115200Y0048053D02*
X0195186Y0048053D01*
X0200395Y0049652D02*
X0203579Y0049652D01*
X0205178Y0051250D02*
X0200395Y0051250D01*
X0200395Y0052849D02*
X0206776Y0052849D01*
X0208375Y0054447D02*
X0200395Y0054447D01*
X0200395Y0056046D02*
X0209973Y0056046D01*
X0211572Y0057644D02*
X0200395Y0057644D01*
X0197495Y0054447D02*
X0178402Y0054447D01*
X0177711Y0052849D02*
X0197495Y0052849D01*
X0201129Y0048053D02*
X0201980Y0048053D01*
X0196510Y0043258D02*
X0119996Y0043258D01*
X0121594Y0041659D02*
X0195546Y0041659D01*
X0197495Y0062440D02*
X0170575Y0062440D01*
X0169700Y0078425D02*
X0168899Y0078425D01*
X0168899Y0080023D02*
X0175475Y0080023D01*
X0176009Y0081622D02*
X0168899Y0081622D01*
X0170383Y0083220D02*
X0177337Y0083220D01*
X0174818Y0084819D02*
X0173859Y0084819D01*
X0173859Y0086417D02*
X0174818Y0086417D01*
X0216377Y0118388D02*
X0235880Y0118388D01*
X0235880Y0119986D02*
X0217975Y0119986D01*
X0219574Y0121585D02*
X0235880Y0121585D01*
X0235880Y0123183D02*
X0221172Y0123183D01*
X0222771Y0124782D02*
X0226614Y0124782D01*
X0226445Y0126380D02*
X0224369Y0126380D01*
X0225968Y0127979D02*
X0226445Y0127979D01*
X0234976Y0124782D02*
X0235880Y0124782D01*
X0239999Y0127979D02*
X0250315Y0127979D01*
X0251275Y0127979D02*
X0260252Y0127979D01*
X0257055Y0124782D02*
X0255630Y0124782D01*
X0255457Y0123183D02*
X0244794Y0123183D01*
X0245960Y0124782D02*
X0243196Y0124782D01*
X0250315Y0124782D02*
X0251275Y0124782D01*
X0251275Y0126380D02*
X0250315Y0126380D01*
X0233296Y0108797D02*
X0107507Y0108797D01*
X0068683Y0119986D02*
X0042940Y0119986D01*
X0037003Y0123183D02*
X0036634Y0123183D01*
X0036634Y0124782D02*
X0037003Y0124782D01*
X0037003Y0126380D02*
X0036634Y0126380D01*
X0036634Y0127979D02*
X0037003Y0127979D01*
X0030697Y0119986D02*
X0029532Y0119986D01*
X0029532Y0118388D02*
X0030697Y0118388D01*
X0030697Y0116789D02*
X0029532Y0116789D01*
X0029532Y0115191D02*
X0031126Y0115191D01*
X0058415Y0147161D02*
X0174172Y0147161D01*
X0174172Y0148759D02*
X0056817Y0148759D01*
X0055755Y0150358D02*
X0131522Y0150358D01*
X0129923Y0151956D02*
X0055755Y0151956D01*
X0051189Y0151956D02*
X0049843Y0151956D01*
X0049843Y0150358D02*
X0051189Y0150358D01*
X0049240Y0153555D02*
X0128325Y0153555D01*
X0126726Y0155153D02*
X0048826Y0155153D01*
X0049732Y0155517D02*
X0049732Y0156499D01*
X0049732Y0155517D01*
X0049732Y0156499D02*
X0049732Y0156499D01*
X0055686Y0156752D02*
X0077233Y0156752D01*
X0077233Y0158350D02*
X0055755Y0158350D01*
X0055755Y0161547D02*
X0077233Y0161547D01*
X0077233Y0163146D02*
X0055148Y0163146D01*
X0049732Y0163146D02*
X0049732Y0163146D01*
X0086221Y0164744D02*
X0117135Y0164744D01*
X0118734Y0163146D02*
X0092231Y0163146D01*
X0092231Y0161547D02*
X0120332Y0161547D01*
X0121931Y0159949D02*
X0092231Y0159949D01*
X0092231Y0158350D02*
X0123529Y0158350D01*
X0125128Y0156752D02*
X0092231Y0156752D01*
X0086221Y0166343D02*
X0115537Y0166343D01*
X0113938Y0167941D02*
X0086221Y0167941D01*
X0086221Y0169540D02*
X0112340Y0169540D01*
X0110741Y0171138D02*
X0086221Y0171138D01*
X0086221Y0172737D02*
X0109143Y0172737D01*
X0107544Y0174336D02*
X0086221Y0174336D01*
X0086221Y0175934D02*
X0105946Y0175934D01*
X0104347Y0177533D02*
X0086221Y0177533D01*
X0086221Y0179131D02*
X0098904Y0179131D01*
X0096471Y0180730D02*
X0095512Y0180730D01*
X0095512Y0182328D02*
X0096471Y0182328D01*
X0095512Y0183927D02*
X0086221Y0183927D01*
X0086221Y0185525D02*
X0091633Y0185525D01*
X0091633Y0187124D02*
X0086221Y0187124D01*
X0086221Y0188722D02*
X0092273Y0188722D01*
X0095512Y0188722D02*
X0096471Y0188722D01*
X0096471Y0187124D02*
X0095512Y0187124D01*
X0095512Y0185525D02*
X0096471Y0185525D01*
X0091633Y0182328D02*
X0086221Y0182328D01*
X0086221Y0180730D02*
X0091652Y0180730D01*
X0086221Y0190321D02*
X0122357Y0190321D01*
X0122357Y0191919D02*
X0086221Y0191919D01*
X0086221Y0193518D02*
X0122357Y0193518D01*
X0122357Y0195116D02*
X0086221Y0195116D01*
X0086221Y0196715D02*
X0120598Y0196715D01*
X0118999Y0198313D02*
X0117454Y0198313D01*
X0127114Y0203109D02*
X0128263Y0203109D01*
X0128263Y0204707D02*
X0123220Y0204707D01*
X0121621Y0206306D02*
X0128608Y0206306D01*
X0129301Y0207904D02*
X0120163Y0207904D01*
X0121417Y0206510D02*
X0121417Y0206510D01*
X0118564Y0209503D02*
X0130900Y0209503D01*
X0138564Y0209503D02*
X0150900Y0209503D01*
X0149301Y0207904D02*
X0147944Y0207904D01*
X0141520Y0207904D02*
X0140163Y0207904D01*
X0136346Y0196715D02*
X0129863Y0196715D01*
X0129863Y0198313D02*
X0132010Y0198313D01*
X0129863Y0195116D02*
X0137945Y0195116D01*
X0139543Y0193518D02*
X0129863Y0193518D01*
X0129863Y0191919D02*
X0141142Y0191919D01*
X0142740Y0190321D02*
X0129863Y0190321D01*
X0129994Y0188722D02*
X0144339Y0188722D01*
X0145937Y0187124D02*
X0130315Y0187124D01*
X0130315Y0185525D02*
X0147536Y0185525D01*
X0149134Y0183927D02*
X0130315Y0183927D01*
X0129912Y0182328D02*
X0150978Y0182328D01*
X0155792Y0180730D02*
X0126464Y0180730D01*
X0133048Y0179131D02*
X0155790Y0179131D01*
X0154713Y0177533D02*
X0134646Y0177533D01*
X0136245Y0175934D02*
X0153814Y0175934D01*
X0153814Y0174336D02*
X0137844Y0174336D01*
X0139442Y0172737D02*
X0153814Y0172737D01*
X0153814Y0171138D02*
X0141041Y0171138D01*
X0142639Y0169540D02*
X0153929Y0169540D01*
X0154782Y0167941D02*
X0144238Y0167941D01*
X0145836Y0166343D02*
X0154782Y0166343D01*
X0154782Y0164967D02*
X0154782Y0162651D01*
X0154905Y0162193D01*
X0155142Y0161783D01*
X0155477Y0161448D01*
X0155888Y0161211D01*
X0156345Y0161088D01*
X0159252Y0161088D01*
X0159252Y0164967D01*
X0154782Y0164967D01*
X0154782Y0164744D02*
X0147435Y0164744D01*
X0149033Y0163146D02*
X0154782Y0163146D01*
X0155377Y0161547D02*
X0150632Y0161547D01*
X0159252Y0161547D02*
X0160212Y0161547D01*
X0160212Y0163146D02*
X0159252Y0163146D01*
X0159252Y0164744D02*
X0160212Y0164744D01*
X0172218Y0145562D02*
X0174172Y0145562D01*
X0173817Y0143964D02*
X0174555Y0143964D01*
X0172913Y0140767D02*
X0161570Y0140767D01*
X0163168Y0139168D02*
X0174511Y0139168D01*
X0174772Y0137570D02*
X0164767Y0137570D01*
X0159971Y0142365D02*
X0171314Y0142365D01*
X0114470Y0188722D02*
X0108454Y0188722D01*
X0108793Y0207904D02*
X0109301Y0207904D01*
X0110900Y0209503D02*
X0106170Y0209503D01*
X0158564Y0209503D02*
X0180900Y0209503D01*
X0179301Y0207904D02*
X0160163Y0207904D01*
X0160856Y0206306D02*
X0178608Y0206306D01*
X0178263Y0204707D02*
X0161200Y0204707D01*
X0161200Y0203109D02*
X0178263Y0203109D01*
X0178839Y0201510D02*
X0160866Y0201510D01*
X0162464Y0199912D02*
X0177354Y0199912D01*
X0175756Y0198313D02*
X0164063Y0198313D01*
X0165661Y0196715D02*
X0174157Y0196715D01*
X0171231Y0195116D02*
X0168233Y0195116D01*
X0178377Y0190321D02*
X0181204Y0190321D01*
X0188564Y0209503D02*
X0190900Y0209503D01*
X0198564Y0209503D02*
X0200900Y0209503D01*
X0052010Y0198313D02*
X0029532Y0198313D01*
X0029532Y0199912D02*
X0041259Y0199912D01*
X0041149Y0199992D02*
X0041849Y0199483D01*
X0042621Y0199090D01*
X0043444Y0198823D01*
X0044299Y0198687D01*
X0044532Y0198687D01*
X0044532Y0203987D01*
X0039232Y0203987D01*
X0039232Y0203754D01*
X0039367Y0202899D01*
X0039635Y0202076D01*
X0040028Y0201304D01*
X0040537Y0200604D01*
X0041149Y0199992D01*
X0039923Y0201510D02*
X0029532Y0201510D01*
X0029532Y0203109D02*
X0039334Y0203109D01*
X0039246Y0204707D02*
X0029532Y0204707D01*
X0029532Y0206306D02*
X0039639Y0206306D01*
X0040671Y0207904D02*
X0029532Y0207904D01*
X0044532Y0207904D02*
X0044932Y0207904D01*
X0044932Y0206306D02*
X0044532Y0206306D01*
X0044532Y0204707D02*
X0044932Y0204707D01*
X0044932Y0203109D02*
X0044532Y0203109D01*
X0044532Y0201510D02*
X0044932Y0201510D01*
X0044932Y0199912D02*
X0044532Y0199912D01*
X0048205Y0199912D02*
X0049860Y0199912D01*
X0049301Y0207904D02*
X0048793Y0207904D01*
D28*
X0049732Y0159680D02*
X0049732Y0154187D01*
X0049732Y0154986D01*
X0230795Y0128006D02*
X0230795Y0127996D01*
D29*
X0230795Y0128006D02*
X0231425Y0127612D01*
X0232409Y0126628D01*
X0237330Y0126628D01*
X0237330Y0111864D01*
X0237055Y0111746D01*
X0236346Y0110880D01*
X0101504Y0110880D01*
X0101386Y0110211D01*
X0102488Y0103990D02*
X0296386Y0103990D01*
X0303275Y0110880D01*
X0306228Y0110880D01*
X0307055Y0111746D01*
X0307212Y0111864D01*
X0307212Y0127612D01*
X0301307Y0127612D01*
X0300795Y0128006D01*
X0300795Y0135486D02*
X0307212Y0135486D01*
X0307212Y0147297D01*
X0307055Y0147809D01*
X0272055Y0147809D02*
X0271779Y0147297D01*
X0271779Y0135486D01*
X0265795Y0135486D01*
X0265795Y0128006D02*
X0264889Y0127612D01*
X0261937Y0127612D01*
X0256031Y0121707D01*
X0244220Y0121707D01*
X0234378Y0131549D01*
X0227488Y0131549D01*
X0211740Y0115801D01*
X0169417Y0115801D01*
X0168433Y0116786D01*
X0102488Y0116786D01*
X0101504Y0117770D01*
X0101386Y0118085D01*
X0102488Y0103990D02*
X0101504Y0103006D01*
X0101386Y0102337D01*
X0101386Y0086589D02*
X0100519Y0086274D01*
X0093630Y0086274D01*
X0093630Y0078400D01*
X0098551Y0073478D01*
X0105441Y0073478D01*
X0112330Y0080368D01*
X0125126Y0080368D01*
X0125126Y0073478D01*
X0125401Y0073439D01*
X0125126Y0081352D02*
X0110362Y0081352D01*
X0108393Y0079384D01*
X0101504Y0079384D01*
X0101386Y0078715D01*
X0101386Y0070841D02*
X0101504Y0070526D01*
X0104456Y0070526D01*
X0104456Y0059699D01*
X0113315Y0050841D01*
X0125126Y0050841D01*
X0125126Y0057730D01*
X0125401Y0058439D01*
X0134968Y0057730D02*
X0166464Y0057730D01*
X0166563Y0057435D01*
X0166858Y0073439D02*
X0167449Y0073478D01*
X0167449Y0084305D01*
X0169417Y0084305D01*
X0170401Y0085289D01*
X0170401Y0093163D01*
X0166464Y0097100D01*
X0048354Y0097100D01*
X0043433Y0102022D01*
X0037527Y0102022D01*
X0036819Y0102337D01*
X0036819Y0094463D02*
X0037527Y0094148D01*
X0038512Y0093163D01*
X0068039Y0093163D01*
X0122173Y0039030D01*
X0197960Y0039030D01*
X0198157Y0039226D01*
X0197960Y0040014D01*
X0197960Y0043951D01*
X0199929Y0043951D01*
X0217645Y0061667D01*
X0242252Y0061667D01*
X0242567Y0061451D01*
X0250126Y0049856D02*
X0254063Y0049856D01*
X0254134Y0050723D01*
X0255047Y0050841D01*
X0258000Y0050841D01*
X0273748Y0066589D01*
X0276700Y0066589D01*
X0276700Y0082337D01*
X0277527Y0083242D01*
X0272055Y0111746D02*
X0271779Y0111864D01*
X0271779Y0127612D01*
X0265874Y0127612D01*
X0265795Y0128006D01*
X0237330Y0135486D02*
X0237330Y0147297D01*
X0237055Y0147809D01*
X0237330Y0135486D02*
X0230795Y0135486D01*
X0200992Y0154187D02*
X0200913Y0154187D01*
X0200913Y0158124D01*
X0208787Y0158124D01*
X0208787Y0164030D01*
X0208472Y0164069D01*
X0200992Y0164069D02*
X0200913Y0165014D01*
X0168433Y0165014D01*
X0170401Y0145329D02*
X0175323Y0140408D01*
X0178275Y0140408D01*
X0179122Y0140171D01*
X0170401Y0145329D02*
X0058197Y0145329D01*
X0054260Y0149266D01*
X0053472Y0149443D01*
X0053472Y0159680D02*
X0054260Y0160093D01*
X0080834Y0160093D01*
X0080992Y0159561D01*
X0084771Y0160093D02*
X0087724Y0160093D01*
X0088472Y0159561D01*
X0084771Y0160093D02*
X0084771Y0203400D01*
X0083866Y0204187D01*
X0200913Y0164030D02*
X0200913Y0158124D01*
X0200913Y0164030D02*
X0200992Y0164069D01*
X0166858Y0088439D02*
X0166464Y0088242D01*
X0126110Y0088242D01*
X0125401Y0088439D01*
X0125126Y0088242D01*
X0125126Y0081352D01*
X0126110Y0033124D02*
X0073945Y0085289D01*
X0038512Y0085289D01*
X0037527Y0086274D01*
X0036819Y0086589D01*
X0037527Y0117770D02*
X0036819Y0118085D01*
X0037527Y0117770D02*
X0070992Y0117770D01*
X0198157Y0046707D02*
X0198945Y0046904D01*
X0198945Y0075447D01*
X0209771Y0075447D01*
X0213708Y0079384D01*
X0213708Y0082337D01*
X0213590Y0083242D01*
X0213590Y0068242D02*
X0213708Y0067573D01*
X0214693Y0066589D01*
X0218630Y0066589D01*
X0241267Y0040998D02*
X0250126Y0049856D01*
X0254134Y0040723D02*
X0254063Y0040014D01*
X0245204Y0040014D01*
X0238315Y0033124D01*
X0126110Y0033124D01*
X0234109Y0035723D02*
X0234378Y0036077D01*
X0234378Y0040014D01*
X0234109Y0040723D01*
X0234378Y0040998D01*
X0241267Y0040998D01*
M02*
