%
M48
M72
T01C0.02400
T02C0.04000
%
T01
X116267Y65604
X134968Y57730
X180244Y79384
X205834Y91195
X218630Y66589
X235362Y56746
X245204Y40014
X266858Y38045
X208787Y135486
X194023Y160093
X168433Y165014
X160559Y179778
X201897Y191589
X215677Y186667
X253078Y184699
X111346Y88242
X71976Y109896
X70992Y117770
X64102Y135486
X40480Y149266
T02
X44732Y204187
X54732Y204187
X104732Y204187
X114732Y204187
X134732Y204187
X144732Y204187
X154732Y204187
X184732Y204187
X194732Y204187
X204732Y204187
X229732Y204187
X239732Y204187
X249732Y204187
X305576Y84605
X323376Y84605
X323376Y59005
X305576Y59005
M30
