G75*
%MOIN*%
%OFA0B0*%
%FSLAX25Y25*%
%IPPOS*%
%LPD*%
%AMOC8*
5,1,8,0,0,1.08239X$1,22.5*
%
%ADD10R,0.05918X0.06706*%
%ADD11R,0.04737X0.05367*%
%ADD12R,0.08674X0.05918*%
%ADD13R,0.22847X0.11981*%
%ADD14R,0.03280X0.04068*%
%ADD15C,0.08200*%
%ADD16R,0.05524X0.05524*%
%ADD17R,0.07808X0.03635*%
%ADD18R,0.04343X0.03950*%
%ADD19R,0.03950X0.04343*%
%ADD20R,0.05918X0.07099*%
%ADD21R,0.07099X0.05918*%
%ADD22C,0.00805*%
%ADD23R,0.10643X0.04737*%
%ADD24R,0.02965X0.05524*%
%ADD25C,0.04800*%
D10*
X0174102Y0123124D03*
X0181582Y0123124D03*
X0201976Y0128124D03*
X0209456Y0128124D03*
X0208472Y0154187D03*
X0200992Y0154187D03*
X0200992Y0184187D03*
X0208472Y0184187D03*
X0042842Y0136313D03*
X0035362Y0136313D03*
D11*
X0298682Y0172932D03*
X0304577Y0172932D03*
X0310436Y0172932D03*
X0316331Y0172894D03*
X0316369Y0207606D03*
X0310398Y0207606D03*
X0304577Y0207606D03*
X0298667Y0207652D03*
D12*
X0292657Y0190250D03*
X0322363Y0190250D03*
D13*
X0307488Y0190250D03*
D14*
X0280441Y0042179D03*
X0271386Y0042179D03*
D15*
X0305576Y0059005D03*
X0323376Y0059005D03*
X0323376Y0084605D03*
X0305576Y0084605D03*
X0249732Y0204187D03*
X0239732Y0204187D03*
X0229732Y0204187D03*
X0204732Y0204187D03*
X0194732Y0204187D03*
X0184732Y0204187D03*
X0154732Y0204187D03*
X0144732Y0204187D03*
X0134732Y0204187D03*
X0114732Y0204187D03*
X0104732Y0204187D03*
X0054732Y0204187D03*
X0044732Y0204187D03*
D16*
X0075598Y0204187D03*
X0083866Y0204187D03*
D17*
X0234109Y0050723D03*
X0234109Y0045723D03*
X0234109Y0040723D03*
X0234109Y0035723D03*
X0254134Y0035723D03*
X0254134Y0040723D03*
X0254134Y0045723D03*
X0254134Y0050723D03*
D18*
X0206425Y0042967D03*
X0198157Y0046707D03*
X0198157Y0039226D03*
D19*
X0237055Y0147809D03*
X0244535Y0147809D03*
X0240795Y0156077D03*
X0272055Y0147809D03*
X0279535Y0147809D03*
X0275795Y0156077D03*
X0307055Y0147809D03*
X0314535Y0147809D03*
X0310795Y0156077D03*
X0173472Y0190624D03*
X0165992Y0190624D03*
X0169732Y0182356D03*
X0125972Y0185624D03*
X0118492Y0185624D03*
X0122232Y0177356D03*
D20*
X0103472Y0184187D03*
X0095992Y0184187D03*
X0088472Y0159561D03*
X0080992Y0159561D03*
X0117921Y0088439D03*
X0125401Y0088439D03*
X0125401Y0073439D03*
X0117921Y0073439D03*
X0117921Y0058439D03*
X0125401Y0058439D03*
X0166563Y0057435D03*
X0174043Y0057435D03*
X0174338Y0073439D03*
X0166858Y0073439D03*
X0166858Y0088439D03*
X0174338Y0088439D03*
X0206110Y0083242D03*
X0213590Y0083242D03*
X0213590Y0068242D03*
X0206110Y0068242D03*
X0270047Y0083242D03*
X0277527Y0083242D03*
X0279535Y0111746D03*
X0272055Y0111746D03*
X0244535Y0111746D03*
X0237055Y0111746D03*
X0307055Y0111746D03*
X0314535Y0111746D03*
D21*
X0320795Y0128006D03*
X0320795Y0135486D03*
X0300795Y0135486D03*
X0300795Y0128006D03*
X0285795Y0128006D03*
X0285795Y0135486D03*
X0265795Y0135486D03*
X0265795Y0128006D03*
X0250795Y0128006D03*
X0250795Y0135486D03*
X0230795Y0135486D03*
X0230795Y0128006D03*
X0179122Y0140171D03*
X0179122Y0147652D03*
X0159732Y0165447D03*
X0159732Y0172927D03*
X0242567Y0068931D03*
X0242567Y0061451D03*
D22*
X0041738Y0072807D02*
X0031900Y0072807D01*
X0041738Y0072807D02*
X0041738Y0068875D01*
X0031900Y0068875D01*
X0031900Y0072807D01*
X0031900Y0069679D02*
X0041738Y0069679D01*
X0041738Y0070483D02*
X0031900Y0070483D01*
X0031900Y0071287D02*
X0041738Y0071287D01*
X0041738Y0072091D02*
X0031900Y0072091D01*
D23*
X0036819Y0078715D03*
X0036819Y0086589D03*
X0036819Y0094463D03*
X0036819Y0102337D03*
X0036819Y0110211D03*
X0036819Y0118085D03*
X0036819Y0125585D03*
X0101386Y0125585D03*
X0101386Y0118085D03*
X0101386Y0110211D03*
X0101386Y0102337D03*
X0101386Y0094463D03*
X0101386Y0086589D03*
X0101386Y0078715D03*
X0101386Y0070841D03*
D24*
X0053472Y0149443D03*
X0045992Y0149443D03*
X0045992Y0159680D03*
X0049732Y0159680D03*
X0053472Y0159680D03*
X0200992Y0164069D03*
X0204732Y0164069D03*
X0208472Y0164069D03*
X0208472Y0174306D03*
X0200992Y0174306D03*
D25*
X0215677Y0186667D03*
X0201897Y0191589D03*
X0160559Y0179778D03*
X0168433Y0165014D03*
X0194023Y0160093D03*
X0208787Y0135486D03*
X0205834Y0091195D03*
X0180244Y0079384D03*
X0218630Y0066589D03*
X0235362Y0056746D03*
X0245204Y0040014D03*
X0266858Y0038045D03*
X0134968Y0057730D03*
X0116267Y0065604D03*
X0111346Y0088242D03*
X0071976Y0109896D03*
X0070992Y0117770D03*
X0064102Y0135486D03*
X0040480Y0149266D03*
X0253078Y0184699D03*
M02*
