G75*
%MOIN*%
%OFA0B0*%
%FSLAX25Y25*%
%IPPOS*%
%LPD*%
%AMOC8*
5,1,8,0,0,1.08239X$1,22.5*
%
%ADD10C,0.00000*%
%ADD11C,0.00400*%
%ADD12C,0.00500*%
%ADD13C,0.00200*%
%ADD14C,0.00800*%
%ADD15C,0.00100*%
%ADD16R,0.00787X0.00787*%
%ADD17C,0.00300*%
%ADD18R,0.11811X0.11811*%
%ADD19C,0.01000*%
D10*
X0024732Y0025053D02*
X0024732Y0219148D01*
X0339693Y0219148D01*
X0339693Y0025053D01*
X0024732Y0025053D01*
X0297488Y0190250D02*
X0317488Y0190250D01*
X0307488Y0200250D02*
X0307488Y0180250D01*
D11*
X0294828Y0166847D02*
X0294060Y0166847D01*
X0293293Y0166080D01*
X0293293Y0163778D01*
X0293293Y0162243D02*
X0293293Y0159174D01*
X0293293Y0157639D02*
X0293293Y0156104D01*
X0293293Y0157639D02*
X0294828Y0157639D01*
X0295595Y0156872D01*
X0295595Y0155337D01*
X0294828Y0154570D01*
X0291758Y0154570D01*
X0290991Y0155337D01*
X0290991Y0156872D01*
X0291758Y0157639D01*
X0293293Y0153035D02*
X0293293Y0149966D01*
X0291758Y0148431D02*
X0290991Y0147664D01*
X0290991Y0145362D01*
X0295595Y0145362D01*
X0295595Y0147664D01*
X0294828Y0148431D01*
X0291758Y0148431D01*
X0290991Y0143827D02*
X0290991Y0140758D01*
X0295595Y0140758D01*
X0295595Y0143827D01*
X0293293Y0142293D02*
X0293293Y0140758D01*
X0295595Y0139223D02*
X0295595Y0136154D01*
X0290991Y0136154D01*
X0291758Y0135411D02*
X0290991Y0134644D01*
X0290991Y0133109D01*
X0291758Y0132342D01*
X0294828Y0132342D01*
X0295595Y0133109D01*
X0295595Y0134644D01*
X0294828Y0135411D01*
X0293293Y0135411D01*
X0293293Y0133877D01*
X0293293Y0134619D02*
X0293293Y0131550D01*
X0293293Y0130808D02*
X0293293Y0127738D01*
X0294060Y0128481D02*
X0295595Y0130015D01*
X0294060Y0129248D02*
X0294060Y0126946D01*
X0294828Y0126204D02*
X0291758Y0126204D01*
X0290991Y0125436D01*
X0290991Y0123134D01*
X0295595Y0123134D01*
X0295595Y0125436D01*
X0294828Y0126204D01*
X0295595Y0126946D02*
X0290991Y0126946D01*
X0290991Y0129248D01*
X0291758Y0130015D01*
X0293293Y0130015D01*
X0294060Y0129248D01*
X0295595Y0121600D02*
X0295595Y0118530D01*
X0290991Y0118530D01*
X0290991Y0121600D01*
X0291713Y0121550D02*
X0289411Y0121550D01*
X0289411Y0116946D01*
X0291713Y0116946D01*
X0292480Y0117713D01*
X0292480Y0120783D01*
X0291713Y0121550D01*
X0293293Y0120065D02*
X0293293Y0118530D01*
X0294015Y0119248D02*
X0297084Y0119248D01*
X0298619Y0118481D02*
X0300920Y0118481D01*
X0301688Y0119248D01*
X0301688Y0120783D01*
X0300920Y0121550D01*
X0298619Y0121550D01*
X0298619Y0116946D01*
X0295595Y0116996D02*
X0295595Y0113926D01*
X0290991Y0113926D01*
X0293293Y0112392D02*
X0293293Y0109323D01*
X0293293Y0107788D02*
X0294060Y0107021D01*
X0294060Y0104719D01*
X0294060Y0106253D02*
X0295595Y0107788D01*
X0293293Y0107788D02*
X0291758Y0107788D01*
X0290991Y0107021D01*
X0290991Y0104719D01*
X0295595Y0104719D01*
X0295076Y0093046D02*
X0295076Y0088442D01*
X0295076Y0090744D02*
X0292007Y0090744D01*
X0290472Y0089977D02*
X0290472Y0089210D01*
X0289705Y0088442D01*
X0288170Y0088442D01*
X0287403Y0089210D01*
X0285868Y0089210D02*
X0285868Y0093046D01*
X0287403Y0092279D02*
X0287403Y0091511D01*
X0288170Y0090744D01*
X0289705Y0090744D01*
X0290472Y0089977D01*
X0292007Y0088442D02*
X0292007Y0093046D01*
X0290472Y0092279D02*
X0289705Y0093046D01*
X0288170Y0093046D01*
X0287403Y0092279D01*
X0285868Y0089210D02*
X0285101Y0088442D01*
X0283566Y0088442D01*
X0282799Y0089210D01*
X0282799Y0093046D01*
X0281264Y0092279D02*
X0281264Y0090744D01*
X0280497Y0089977D01*
X0278195Y0089977D01*
X0278195Y0088442D02*
X0278195Y0093046D01*
X0280497Y0093046D01*
X0281264Y0092279D01*
X0276660Y0090744D02*
X0273591Y0090744D01*
X0272056Y0090744D02*
X0272056Y0092279D01*
X0271289Y0093046D01*
X0268987Y0093046D01*
X0268987Y0088442D01*
X0268987Y0089977D02*
X0271289Y0089977D01*
X0272056Y0090744D01*
X0270522Y0089977D02*
X0272056Y0088442D01*
X0249555Y0088442D02*
X0246485Y0088442D01*
X0244951Y0088442D02*
X0244951Y0093046D01*
X0246485Y0091511D02*
X0248020Y0093046D01*
X0248020Y0088442D01*
X0244951Y0088442D02*
X0241881Y0093046D01*
X0241881Y0088442D01*
X0240347Y0089210D02*
X0240347Y0090744D01*
X0238812Y0090744D01*
X0237278Y0089210D02*
X0238045Y0088442D01*
X0239580Y0088442D01*
X0240347Y0089210D01*
X0237278Y0089210D02*
X0237278Y0092279D01*
X0238045Y0093046D01*
X0239580Y0093046D01*
X0240347Y0092279D01*
X0235743Y0090744D02*
X0232674Y0090744D01*
X0231139Y0090744D02*
X0228070Y0090744D01*
X0226535Y0089977D02*
X0226535Y0089210D01*
X0225768Y0088442D01*
X0224233Y0088442D01*
X0223466Y0089210D01*
X0221931Y0089210D02*
X0221931Y0093046D01*
X0223466Y0092279D02*
X0223466Y0091511D01*
X0224233Y0090744D01*
X0225768Y0090744D01*
X0226535Y0089977D01*
X0228070Y0088442D02*
X0228070Y0093046D01*
X0226535Y0092279D02*
X0225768Y0093046D01*
X0224233Y0093046D01*
X0223466Y0092279D01*
X0221931Y0089210D02*
X0221164Y0088442D01*
X0219629Y0088442D01*
X0218862Y0089210D01*
X0218862Y0093046D01*
X0217327Y0092279D02*
X0217327Y0090744D01*
X0216560Y0089977D01*
X0214258Y0089977D01*
X0214258Y0088442D02*
X0214258Y0093046D01*
X0216560Y0093046D01*
X0217327Y0092279D01*
X0212723Y0090744D02*
X0209654Y0090744D01*
X0208119Y0090744D02*
X0208119Y0092279D01*
X0207352Y0093046D01*
X0205050Y0093046D01*
X0205050Y0088442D01*
X0205050Y0089977D02*
X0207352Y0089977D01*
X0208119Y0090744D01*
X0206585Y0089977D02*
X0208119Y0088442D01*
X0208001Y0083243D02*
X0208768Y0082476D01*
X0208768Y0079406D01*
X0208001Y0078639D01*
X0206466Y0078639D01*
X0205699Y0079406D01*
X0205699Y0082476D01*
X0206466Y0083243D01*
X0208001Y0083243D01*
X0210303Y0082476D02*
X0211070Y0083243D01*
X0212605Y0083243D01*
X0213372Y0082476D01*
X0210303Y0079406D01*
X0211070Y0078639D01*
X0212605Y0078639D01*
X0213372Y0079406D01*
X0213372Y0082476D01*
X0210303Y0082476D02*
X0210303Y0079406D01*
X0204164Y0078639D02*
X0202630Y0078639D01*
X0203397Y0078639D02*
X0203397Y0083243D01*
X0202630Y0083243D02*
X0204164Y0083243D01*
X0201095Y0082476D02*
X0201095Y0080941D01*
X0200328Y0080174D01*
X0198026Y0080174D01*
X0198026Y0078639D02*
X0198026Y0083243D01*
X0200328Y0083243D01*
X0201095Y0082476D01*
X0196491Y0082476D02*
X0195724Y0083243D01*
X0194189Y0083243D01*
X0193422Y0082476D01*
X0193422Y0079406D01*
X0194189Y0078639D01*
X0195724Y0078639D01*
X0196491Y0079406D01*
X0196491Y0080941D01*
X0194956Y0080941D01*
X0191887Y0080941D02*
X0188818Y0080941D01*
X0187283Y0080941D02*
X0186516Y0080174D01*
X0184214Y0080174D01*
X0182679Y0080174D02*
X0182679Y0079406D01*
X0181912Y0078639D01*
X0180377Y0078639D01*
X0179610Y0079406D01*
X0178075Y0078639D02*
X0175006Y0078639D01*
X0175006Y0083243D01*
X0178075Y0083243D01*
X0179610Y0082476D02*
X0180377Y0083243D01*
X0181912Y0083243D01*
X0182679Y0082476D01*
X0184214Y0083243D02*
X0184214Y0078639D01*
X0182679Y0080174D02*
X0181912Y0080941D01*
X0180377Y0080941D01*
X0179610Y0081708D01*
X0179610Y0082476D01*
X0176541Y0080941D02*
X0175006Y0080941D01*
X0174263Y0081708D02*
X0174263Y0082476D01*
X0173496Y0083243D01*
X0171961Y0083243D01*
X0171194Y0082476D01*
X0170402Y0080941D02*
X0173471Y0080941D01*
X0174263Y0081708D02*
X0171194Y0078639D01*
X0174263Y0078639D01*
X0169659Y0080941D02*
X0166590Y0080941D01*
X0167333Y0080174D02*
X0168867Y0078639D01*
X0168100Y0080174D02*
X0165798Y0080174D01*
X0165970Y0079406D02*
X0165970Y0082476D01*
X0165202Y0083243D01*
X0162900Y0083243D01*
X0162900Y0078639D01*
X0165202Y0078639D01*
X0165970Y0079406D01*
X0165798Y0078639D02*
X0165798Y0083243D01*
X0168100Y0083243D01*
X0168867Y0082476D01*
X0168867Y0080941D01*
X0168100Y0080174D01*
X0163521Y0078639D02*
X0163521Y0083243D01*
X0164928Y0083843D02*
X0164928Y0086145D01*
X0165695Y0086912D01*
X0167230Y0086912D01*
X0167997Y0086145D01*
X0167997Y0083843D01*
X0167997Y0085378D02*
X0169532Y0086912D01*
X0167230Y0088447D02*
X0167230Y0091516D01*
X0166463Y0093051D02*
X0167230Y0093818D01*
X0167230Y0095353D01*
X0167997Y0096120D01*
X0168765Y0096120D01*
X0169532Y0095353D01*
X0169532Y0093818D01*
X0168765Y0093051D01*
X0166463Y0093051D02*
X0165695Y0093051D01*
X0164928Y0093818D01*
X0164928Y0095353D01*
X0165695Y0096120D01*
X0164928Y0097655D02*
X0168765Y0097655D01*
X0169532Y0098422D01*
X0169532Y0099957D01*
X0168765Y0100724D01*
X0164928Y0100724D01*
X0164928Y0102259D02*
X0164928Y0103793D01*
X0164928Y0103026D02*
X0169532Y0103026D01*
X0169532Y0102259D02*
X0169532Y0103793D01*
X0167997Y0105328D02*
X0164928Y0105328D01*
X0164928Y0108397D02*
X0167997Y0108397D01*
X0169532Y0106863D01*
X0167997Y0105328D01*
X0167230Y0109932D02*
X0167230Y0111467D01*
X0164928Y0113001D02*
X0164928Y0109932D01*
X0169532Y0109932D01*
X0169532Y0113001D01*
X0168765Y0114536D02*
X0164928Y0114536D01*
X0164928Y0117605D02*
X0168765Y0117605D01*
X0169532Y0116838D01*
X0169532Y0115303D01*
X0168765Y0114536D01*
X0169532Y0119140D02*
X0164928Y0119140D01*
X0164928Y0121442D01*
X0165695Y0122209D01*
X0167230Y0122209D01*
X0167997Y0121442D01*
X0167997Y0119140D01*
X0167997Y0120674D02*
X0169532Y0122209D01*
X0167230Y0123744D02*
X0167230Y0126813D01*
X0167230Y0128348D02*
X0167230Y0130650D01*
X0167997Y0131417D01*
X0168765Y0131417D01*
X0169532Y0130650D01*
X0169532Y0128348D01*
X0164928Y0128348D01*
X0164928Y0130650D01*
X0165695Y0131417D01*
X0166463Y0131417D01*
X0167230Y0130650D01*
X0165695Y0132952D02*
X0168765Y0132952D01*
X0169532Y0133719D01*
X0169532Y0135254D01*
X0168765Y0136021D01*
X0165695Y0136021D01*
X0164928Y0135254D01*
X0164928Y0133719D01*
X0165695Y0132952D01*
X0164928Y0137555D02*
X0168765Y0137555D01*
X0169532Y0138323D01*
X0169532Y0139857D01*
X0168765Y0140625D01*
X0164928Y0140625D01*
X0164928Y0142159D02*
X0164928Y0145229D01*
X0164928Y0143694D02*
X0169532Y0143694D01*
X0170085Y0142181D02*
X0171620Y0142181D01*
X0172387Y0141413D01*
X0172387Y0139112D01*
X0172387Y0140646D02*
X0173922Y0142181D01*
X0171620Y0143715D02*
X0171620Y0146785D01*
X0169532Y0147531D02*
X0169532Y0149065D01*
X0168765Y0149833D01*
X0165695Y0149833D01*
X0164928Y0149065D01*
X0164928Y0147531D01*
X0165695Y0146763D01*
X0168765Y0146763D01*
X0169532Y0147531D01*
X0169318Y0148319D02*
X0170852Y0149854D01*
X0169318Y0151389D01*
X0173922Y0151389D01*
X0173154Y0152923D02*
X0173922Y0153691D01*
X0173922Y0155225D01*
X0173154Y0155993D01*
X0172387Y0157527D02*
X0172387Y0159829D01*
X0171620Y0160596D01*
X0170085Y0160596D01*
X0169318Y0159829D01*
X0169318Y0157527D01*
X0173922Y0157527D01*
X0170085Y0155993D02*
X0169318Y0155225D01*
X0169318Y0153691D01*
X0170085Y0152923D01*
X0173154Y0152923D01*
X0169532Y0154437D02*
X0164928Y0154437D01*
X0167230Y0155971D02*
X0167230Y0159040D01*
X0167997Y0160575D02*
X0167997Y0162877D01*
X0167230Y0163644D01*
X0165695Y0163644D01*
X0164928Y0162877D01*
X0164928Y0160575D01*
X0169532Y0160575D01*
X0167997Y0162110D02*
X0169532Y0163644D01*
X0169532Y0165179D02*
X0169532Y0168248D01*
X0169318Y0169037D02*
X0170085Y0169804D01*
X0171620Y0169804D01*
X0172387Y0169037D01*
X0172387Y0166735D01*
X0173922Y0166735D02*
X0169318Y0166735D01*
X0169318Y0169037D01*
X0168765Y0169783D02*
X0165695Y0169783D01*
X0164928Y0170550D01*
X0164928Y0172085D01*
X0165695Y0172852D01*
X0167230Y0172852D02*
X0167230Y0171318D01*
X0167230Y0172852D02*
X0168765Y0172852D01*
X0169532Y0172085D01*
X0169532Y0170550D01*
X0168765Y0169783D01*
X0169318Y0171339D02*
X0169318Y0173641D01*
X0170085Y0174408D01*
X0171620Y0174408D01*
X0172387Y0173641D01*
X0172387Y0171339D01*
X0172387Y0172874D02*
X0173922Y0174408D01*
X0173154Y0175943D02*
X0173922Y0176710D01*
X0173922Y0178245D01*
X0173154Y0179012D01*
X0170085Y0179012D01*
X0169318Y0178245D01*
X0169318Y0176710D01*
X0170085Y0175943D01*
X0173154Y0175943D01*
X0173154Y0180547D02*
X0170085Y0180547D01*
X0169318Y0181314D01*
X0169318Y0182849D01*
X0170085Y0183616D01*
X0171620Y0183616D02*
X0171620Y0182081D01*
X0171620Y0183616D02*
X0173154Y0183616D01*
X0173922Y0182849D01*
X0173922Y0181314D01*
X0173154Y0180547D01*
X0173922Y0171339D02*
X0169318Y0171339D01*
X0164928Y0168248D02*
X0164928Y0165179D01*
X0169532Y0165179D01*
X0171620Y0165200D02*
X0171620Y0162131D01*
X0167230Y0165179D02*
X0167230Y0166714D01*
X0169532Y0154437D02*
X0164928Y0151367D01*
X0169532Y0151367D01*
X0169318Y0148319D02*
X0173922Y0148319D01*
X0170085Y0142181D02*
X0169318Y0141413D01*
X0169318Y0139112D01*
X0173922Y0139112D01*
X0173810Y0132928D02*
X0173042Y0132161D01*
X0173042Y0129091D01*
X0173810Y0128324D01*
X0175344Y0128324D01*
X0176112Y0129091D01*
X0177646Y0130626D02*
X0180715Y0130626D01*
X0182250Y0128324D02*
X0182250Y0132928D01*
X0183785Y0131393D01*
X0185319Y0132928D01*
X0185319Y0128324D01*
X0186854Y0129091D02*
X0187621Y0128324D01*
X0189156Y0128324D01*
X0189923Y0129091D01*
X0191458Y0128324D02*
X0191458Y0132928D01*
X0193760Y0132928D01*
X0194527Y0132161D01*
X0194527Y0130626D01*
X0193760Y0129859D01*
X0191458Y0129859D01*
X0189923Y0132161D02*
X0189156Y0132928D01*
X0187621Y0132928D01*
X0186854Y0132161D01*
X0186854Y0129091D01*
X0196062Y0130626D02*
X0199131Y0130626D01*
X0200666Y0129091D02*
X0201433Y0128324D01*
X0202968Y0128324D01*
X0203735Y0129091D01*
X0203735Y0132928D01*
X0203218Y0133324D02*
X0203986Y0134091D01*
X0203218Y0133324D02*
X0201684Y0133324D01*
X0200916Y0134091D01*
X0200916Y0137161D01*
X0201684Y0137928D01*
X0203218Y0137928D01*
X0203986Y0137161D01*
X0205520Y0135626D02*
X0208589Y0135626D01*
X0210124Y0135626D02*
X0211659Y0135626D01*
X0212176Y0132928D02*
X0212943Y0132161D01*
X0212943Y0131393D01*
X0212176Y0130626D01*
X0209874Y0130626D01*
X0208339Y0129859D02*
X0208339Y0129091D01*
X0207572Y0128324D01*
X0206037Y0128324D01*
X0205270Y0129091D01*
X0206037Y0130626D02*
X0205270Y0131393D01*
X0205270Y0132161D01*
X0206037Y0132928D01*
X0207572Y0132928D01*
X0208339Y0132161D01*
X0209874Y0132928D02*
X0212176Y0132928D01*
X0213193Y0133324D02*
X0210124Y0133324D01*
X0210124Y0137928D01*
X0213193Y0137928D01*
X0214728Y0137161D02*
X0214728Y0136393D01*
X0215495Y0135626D01*
X0217030Y0135626D01*
X0217797Y0134859D01*
X0217797Y0134091D01*
X0217030Y0133324D01*
X0215495Y0133324D01*
X0214728Y0134091D01*
X0214728Y0137161D02*
X0215495Y0137928D01*
X0217030Y0137928D01*
X0217797Y0137161D01*
X0219332Y0137928D02*
X0221634Y0137928D01*
X0222401Y0137161D01*
X0222401Y0135626D01*
X0221634Y0134859D01*
X0219332Y0134859D01*
X0219332Y0133324D02*
X0219332Y0137928D01*
X0220991Y0136154D02*
X0225595Y0136154D01*
X0225595Y0139223D01*
X0225595Y0140758D02*
X0220991Y0140758D01*
X0220991Y0143827D01*
X0220991Y0145362D02*
X0220991Y0147664D01*
X0221758Y0148431D01*
X0224828Y0148431D01*
X0225595Y0147664D01*
X0225595Y0145362D01*
X0220991Y0145362D01*
X0225595Y0143827D02*
X0225595Y0140758D01*
X0223293Y0140758D02*
X0223293Y0142293D01*
X0223293Y0134619D02*
X0223293Y0131550D01*
X0223293Y0130015D02*
X0224060Y0129248D01*
X0224060Y0126946D01*
X0224060Y0128481D02*
X0225595Y0130015D01*
X0223293Y0130015D02*
X0221758Y0130015D01*
X0220991Y0129248D01*
X0220991Y0126946D01*
X0225595Y0126946D01*
X0235995Y0121550D02*
X0238297Y0121550D01*
X0239064Y0120783D01*
X0239064Y0119248D01*
X0238297Y0118481D01*
X0235995Y0118481D01*
X0237530Y0118481D02*
X0239064Y0116946D01*
X0240599Y0119248D02*
X0243668Y0119248D01*
X0245203Y0116946D02*
X0248272Y0116946D01*
X0249807Y0116946D02*
X0252876Y0116946D01*
X0254411Y0116946D02*
X0256713Y0116946D01*
X0257480Y0117713D01*
X0257480Y0120783D01*
X0256713Y0121550D01*
X0254411Y0121550D01*
X0254411Y0116946D01*
X0255991Y0118530D02*
X0260595Y0118530D01*
X0260595Y0121600D01*
X0260595Y0123134D02*
X0255991Y0123134D01*
X0255991Y0125436D01*
X0256758Y0126204D01*
X0259828Y0126204D01*
X0260595Y0125436D01*
X0260595Y0123134D01*
X0263619Y0121550D02*
X0265920Y0121550D01*
X0266688Y0120783D01*
X0266688Y0119248D01*
X0265920Y0118481D01*
X0263619Y0118481D01*
X0263619Y0116946D02*
X0263619Y0121550D01*
X0262084Y0119248D02*
X0259015Y0119248D01*
X0258293Y0118530D02*
X0258293Y0120065D01*
X0255991Y0121600D02*
X0255991Y0118530D01*
X0252876Y0121550D02*
X0249807Y0121550D01*
X0249807Y0116946D01*
X0249807Y0119248D02*
X0251341Y0119248D01*
X0245203Y0121550D02*
X0245203Y0116946D01*
X0235995Y0116946D02*
X0235995Y0121550D01*
X0255991Y0126946D02*
X0255991Y0129248D01*
X0256758Y0130015D01*
X0258293Y0130015D01*
X0259060Y0129248D01*
X0259060Y0126946D01*
X0258293Y0127738D02*
X0258293Y0130808D01*
X0258293Y0131550D02*
X0258293Y0134619D01*
X0259060Y0134644D02*
X0258293Y0135411D01*
X0256758Y0135411D01*
X0255991Y0134644D01*
X0255991Y0132342D01*
X0260595Y0132342D01*
X0259060Y0132342D02*
X0259060Y0134644D01*
X0259060Y0133877D02*
X0260595Y0135411D01*
X0260595Y0136154D02*
X0260595Y0139223D01*
X0260595Y0140758D02*
X0255991Y0140758D01*
X0255991Y0143827D01*
X0255991Y0145362D02*
X0255991Y0147664D01*
X0256758Y0148431D01*
X0259828Y0148431D01*
X0260595Y0147664D01*
X0260595Y0145362D01*
X0255991Y0145362D01*
X0260595Y0143827D02*
X0260595Y0140758D01*
X0258293Y0140758D02*
X0258293Y0142293D01*
X0255991Y0136154D02*
X0260595Y0136154D01*
X0260595Y0130015D02*
X0259060Y0128481D01*
X0260595Y0126946D02*
X0255991Y0126946D01*
X0268222Y0121550D02*
X0270524Y0121550D01*
X0271292Y0120783D01*
X0271292Y0117713D01*
X0270524Y0116946D01*
X0268222Y0116946D01*
X0268222Y0121550D01*
X0270995Y0121550D02*
X0273297Y0121550D01*
X0274064Y0120783D01*
X0274064Y0119248D01*
X0273297Y0118481D01*
X0270995Y0118481D01*
X0272530Y0118481D02*
X0274064Y0116946D01*
X0272826Y0119248D02*
X0275896Y0119248D01*
X0275599Y0119248D02*
X0278668Y0119248D01*
X0278965Y0118481D02*
X0280500Y0116946D01*
X0280203Y0116946D02*
X0283272Y0116946D01*
X0284807Y0116946D02*
X0287876Y0116946D01*
X0286341Y0119248D02*
X0284807Y0119248D01*
X0284807Y0121550D02*
X0284807Y0116946D01*
X0280203Y0116946D02*
X0280203Y0121550D01*
X0279732Y0121550D02*
X0280500Y0120783D01*
X0280500Y0119248D01*
X0279732Y0118481D01*
X0277430Y0118481D01*
X0277430Y0116946D02*
X0277430Y0121550D01*
X0279732Y0121550D01*
X0284807Y0121550D02*
X0287876Y0121550D01*
X0303222Y0121550D02*
X0303222Y0116946D01*
X0305524Y0116946D01*
X0306292Y0117713D01*
X0306292Y0120783D01*
X0305524Y0121550D01*
X0303222Y0121550D01*
X0305995Y0121550D02*
X0308297Y0121550D01*
X0309064Y0120783D01*
X0309064Y0119248D01*
X0308297Y0118481D01*
X0305995Y0118481D01*
X0307530Y0118481D02*
X0309064Y0116946D01*
X0307826Y0119248D02*
X0310896Y0119248D01*
X0310599Y0119248D02*
X0313668Y0119248D01*
X0313965Y0119248D02*
X0315500Y0119248D01*
X0315500Y0117713D01*
X0314732Y0116946D01*
X0313198Y0116946D01*
X0312430Y0117713D01*
X0312430Y0120783D01*
X0313198Y0121550D01*
X0314732Y0121550D01*
X0315500Y0120783D01*
X0315203Y0121550D02*
X0315203Y0116946D01*
X0318272Y0116946D01*
X0319807Y0116946D02*
X0322876Y0116946D01*
X0324411Y0116946D02*
X0326713Y0116946D01*
X0327480Y0117713D01*
X0327480Y0120783D01*
X0326713Y0121550D01*
X0324411Y0121550D01*
X0324411Y0116946D01*
X0325991Y0118530D02*
X0330595Y0118530D01*
X0330595Y0121600D01*
X0330595Y0123134D02*
X0330595Y0125436D01*
X0329828Y0126204D01*
X0326758Y0126204D01*
X0325991Y0125436D01*
X0325991Y0123134D01*
X0330595Y0123134D01*
X0333619Y0121550D02*
X0335920Y0121550D01*
X0336688Y0120783D01*
X0336688Y0119248D01*
X0335920Y0118481D01*
X0333619Y0118481D01*
X0333619Y0116946D02*
X0333619Y0121550D01*
X0332084Y0119248D02*
X0329015Y0119248D01*
X0328293Y0118530D02*
X0328293Y0120065D01*
X0325991Y0121600D02*
X0325991Y0118530D01*
X0322876Y0121550D02*
X0319807Y0121550D01*
X0319807Y0116946D01*
X0319807Y0119248D02*
X0321341Y0119248D01*
X0325991Y0113926D02*
X0330595Y0113926D01*
X0330595Y0116996D01*
X0328293Y0112392D02*
X0328293Y0109323D01*
X0328293Y0107788D02*
X0329060Y0107021D01*
X0329060Y0104719D01*
X0329060Y0106253D02*
X0330595Y0107788D01*
X0328293Y0107788D02*
X0326758Y0107788D01*
X0325991Y0107021D01*
X0325991Y0104719D01*
X0330595Y0104719D01*
X0338222Y0116946D02*
X0340524Y0116946D01*
X0341292Y0117713D01*
X0341292Y0120783D01*
X0340524Y0121550D01*
X0338222Y0121550D01*
X0338222Y0116946D01*
X0342826Y0119248D02*
X0345896Y0119248D01*
X0347430Y0119248D02*
X0349732Y0119248D01*
X0350500Y0118481D01*
X0350500Y0117713D01*
X0349732Y0116946D01*
X0347430Y0116946D01*
X0347430Y0121550D01*
X0349732Y0121550D01*
X0350500Y0120783D01*
X0350500Y0120015D01*
X0349732Y0119248D01*
X0328293Y0127738D02*
X0328293Y0130808D01*
X0328293Y0132342D02*
X0328293Y0134644D01*
X0329060Y0135411D01*
X0329828Y0135411D01*
X0330595Y0134644D01*
X0330595Y0132342D01*
X0325991Y0132342D01*
X0325991Y0134644D01*
X0326758Y0135411D01*
X0327526Y0135411D01*
X0328293Y0134644D01*
X0305995Y0121550D02*
X0305995Y0116946D01*
X0270995Y0116946D02*
X0270995Y0121550D01*
X0260595Y0116996D02*
X0260595Y0113926D01*
X0255991Y0113926D01*
X0258293Y0112392D02*
X0258293Y0109323D01*
X0258293Y0107788D02*
X0259060Y0107021D01*
X0259060Y0104719D01*
X0259060Y0106253D02*
X0260595Y0107788D01*
X0258293Y0107788D02*
X0256758Y0107788D01*
X0255991Y0107021D01*
X0255991Y0104719D01*
X0260595Y0104719D01*
X0231139Y0093046D02*
X0231139Y0088442D01*
X0248530Y0068856D02*
X0247763Y0068089D01*
X0247763Y0065787D01*
X0252367Y0065787D01*
X0252367Y0064252D02*
X0252367Y0061183D01*
X0247763Y0061183D01*
X0247763Y0064252D01*
X0250065Y0062718D02*
X0250065Y0061183D01*
X0247763Y0059648D02*
X0247763Y0056579D01*
X0247763Y0058114D02*
X0252367Y0058114D01*
X0252367Y0055044D02*
X0250832Y0053510D01*
X0250832Y0054277D02*
X0250832Y0051975D01*
X0252367Y0051975D02*
X0247763Y0051975D01*
X0247763Y0054277D01*
X0248530Y0055044D01*
X0250065Y0055044D01*
X0250832Y0054277D01*
X0252367Y0050441D02*
X0252367Y0047371D01*
X0247763Y0047371D01*
X0247763Y0050441D01*
X0250065Y0048906D02*
X0250065Y0047371D01*
X0250832Y0045837D02*
X0247763Y0045837D01*
X0250832Y0045837D02*
X0252367Y0044302D01*
X0250832Y0042767D01*
X0247763Y0042767D01*
X0247763Y0041233D02*
X0252367Y0041233D01*
X0247763Y0038163D01*
X0252367Y0038163D01*
X0252367Y0036629D02*
X0252367Y0035094D01*
X0252367Y0035861D02*
X0247763Y0035861D01*
X0247763Y0035094D02*
X0247763Y0036629D01*
X0250065Y0033559D02*
X0250065Y0030490D01*
X0250065Y0028956D02*
X0250065Y0025886D01*
X0250832Y0024352D02*
X0251599Y0024352D01*
X0252367Y0023584D01*
X0252367Y0022050D01*
X0251599Y0021282D01*
X0251599Y0019748D02*
X0247763Y0019748D01*
X0248530Y0021282D02*
X0247763Y0022050D01*
X0247763Y0023584D01*
X0248530Y0024352D01*
X0247763Y0025886D02*
X0252367Y0025886D01*
X0250832Y0024352D02*
X0250065Y0023584D01*
X0250065Y0022050D01*
X0249297Y0021282D01*
X0248530Y0021282D01*
X0251599Y0019748D02*
X0252367Y0018980D01*
X0252367Y0017446D01*
X0251599Y0016678D01*
X0247763Y0016678D01*
X0248530Y0015144D02*
X0247763Y0014376D01*
X0247763Y0012075D01*
X0252367Y0012075D01*
X0250832Y0012075D02*
X0250832Y0014376D01*
X0250065Y0015144D01*
X0248530Y0015144D01*
X0250065Y0010540D02*
X0250065Y0007471D01*
X0250065Y0005936D02*
X0250832Y0005169D01*
X0250832Y0002867D01*
X0250832Y0004401D02*
X0252367Y0005936D01*
X0250065Y0005936D02*
X0248530Y0005936D01*
X0247763Y0005169D01*
X0247763Y0002867D01*
X0252367Y0002867D01*
X0252367Y0028956D02*
X0247763Y0028956D01*
X0213515Y0058442D02*
X0213515Y0063046D01*
X0210446Y0063046D02*
X0213515Y0058442D01*
X0210446Y0058442D02*
X0210446Y0063046D01*
X0208911Y0062279D02*
X0208144Y0063046D01*
X0206609Y0063046D01*
X0205842Y0062279D01*
X0205842Y0059210D01*
X0206609Y0058442D01*
X0208144Y0058442D01*
X0208911Y0059210D01*
X0208911Y0060744D01*
X0207377Y0060744D01*
X0204308Y0060744D02*
X0201238Y0060744D01*
X0199704Y0060744D02*
X0196634Y0060744D01*
X0195100Y0059977D02*
X0195100Y0059210D01*
X0194332Y0058442D01*
X0192798Y0058442D01*
X0192030Y0059210D01*
X0190496Y0059210D02*
X0190496Y0063046D01*
X0192030Y0062279D02*
X0192030Y0061511D01*
X0192798Y0060744D01*
X0194332Y0060744D01*
X0195100Y0059977D01*
X0196634Y0058442D02*
X0196634Y0063046D01*
X0195100Y0062279D02*
X0194332Y0063046D01*
X0192798Y0063046D01*
X0192030Y0062279D01*
X0190496Y0059210D02*
X0189728Y0058442D01*
X0188194Y0058442D01*
X0187426Y0059210D01*
X0187426Y0063046D01*
X0185892Y0062279D02*
X0185124Y0063046D01*
X0182823Y0063046D01*
X0182823Y0058442D01*
X0182823Y0059977D02*
X0185124Y0059977D01*
X0185892Y0060744D01*
X0185892Y0062279D01*
X0181288Y0060744D02*
X0178219Y0060744D01*
X0176684Y0060744D02*
X0175917Y0059977D01*
X0173615Y0059977D01*
X0175149Y0059977D02*
X0176684Y0058442D01*
X0176684Y0060744D02*
X0176684Y0062279D01*
X0175917Y0063046D01*
X0173615Y0063046D01*
X0173615Y0058442D01*
X0164435Y0063639D02*
X0164435Y0068243D01*
X0162900Y0068243D02*
X0165970Y0068243D01*
X0161366Y0068243D02*
X0158296Y0068243D01*
X0158296Y0063639D01*
X0161366Y0063639D01*
X0159831Y0065941D02*
X0158296Y0065941D01*
X0156762Y0065174D02*
X0156762Y0064406D01*
X0155994Y0063639D01*
X0154460Y0063639D01*
X0153693Y0064406D01*
X0154460Y0065941D02*
X0155994Y0065941D01*
X0156762Y0065174D01*
X0156762Y0067476D02*
X0155994Y0068243D01*
X0154460Y0068243D01*
X0153693Y0067476D01*
X0153693Y0066708D01*
X0154460Y0065941D01*
X0152158Y0063639D02*
X0149089Y0063639D01*
X0149089Y0068243D01*
X0152158Y0068243D01*
X0150623Y0065941D02*
X0149089Y0065941D01*
X0147554Y0065941D02*
X0147554Y0067476D01*
X0146787Y0068243D01*
X0144485Y0068243D01*
X0144485Y0063639D01*
X0144485Y0065174D02*
X0146787Y0065174D01*
X0147554Y0065941D01*
X0146019Y0065174D02*
X0147554Y0063639D01*
X0142950Y0065941D02*
X0139881Y0065941D01*
X0138346Y0065941D02*
X0137579Y0065174D01*
X0135277Y0065174D01*
X0133742Y0065174D02*
X0133742Y0064406D01*
X0132975Y0063639D01*
X0131440Y0063639D01*
X0130673Y0064406D01*
X0129138Y0063639D02*
X0126069Y0063639D01*
X0126069Y0068243D01*
X0129138Y0068243D01*
X0130673Y0067476D02*
X0130673Y0066708D01*
X0131440Y0065941D01*
X0132975Y0065941D01*
X0133742Y0065174D01*
X0135277Y0063639D02*
X0135277Y0068243D01*
X0137579Y0068243D01*
X0138346Y0067476D01*
X0138346Y0065941D01*
X0133742Y0067476D02*
X0132975Y0068243D01*
X0131440Y0068243D01*
X0130673Y0067476D01*
X0127604Y0065941D02*
X0126069Y0065941D01*
X0124534Y0065941D02*
X0121465Y0065941D01*
X0119930Y0065941D02*
X0119930Y0067476D01*
X0119163Y0068243D01*
X0116861Y0068243D01*
X0116861Y0063639D01*
X0116861Y0065174D02*
X0119163Y0065174D01*
X0119930Y0065941D01*
X0118396Y0065174D02*
X0119930Y0063639D01*
X0121790Y0052239D02*
X0124092Y0052239D01*
X0124860Y0051472D01*
X0124860Y0049937D01*
X0124092Y0049170D01*
X0121790Y0049170D01*
X0121790Y0047635D02*
X0121790Y0052239D01*
X0123325Y0049170D02*
X0124860Y0047635D01*
X0126394Y0049937D02*
X0129463Y0049937D01*
X0130998Y0049937D02*
X0132533Y0049937D01*
X0130998Y0047635D02*
X0134067Y0047635D01*
X0135602Y0048402D02*
X0136369Y0047635D01*
X0137904Y0047635D01*
X0138671Y0048402D01*
X0138671Y0049170D01*
X0137904Y0049937D01*
X0136369Y0049937D01*
X0135602Y0050704D01*
X0135602Y0051472D01*
X0136369Y0052239D01*
X0137904Y0052239D01*
X0138671Y0051472D01*
X0140206Y0052239D02*
X0142508Y0052239D01*
X0143275Y0051472D01*
X0143275Y0049937D01*
X0142508Y0049170D01*
X0140206Y0049170D01*
X0140206Y0047635D02*
X0140206Y0052239D01*
X0144810Y0049937D02*
X0147879Y0049937D01*
X0149414Y0048402D02*
X0150181Y0047635D01*
X0151716Y0047635D01*
X0152483Y0048402D01*
X0152483Y0049937D01*
X0150948Y0049937D01*
X0149414Y0051472D02*
X0149414Y0048402D01*
X0154018Y0047635D02*
X0154018Y0052239D01*
X0156320Y0052239D01*
X0157087Y0051472D01*
X0157087Y0049937D01*
X0156320Y0049170D01*
X0154018Y0049170D01*
X0152483Y0051472D02*
X0151716Y0052239D01*
X0150181Y0052239D01*
X0149414Y0051472D01*
X0158622Y0052239D02*
X0160156Y0052239D01*
X0159389Y0052239D02*
X0159389Y0047635D01*
X0158622Y0047635D02*
X0160156Y0047635D01*
X0161691Y0048402D02*
X0162458Y0047635D01*
X0163993Y0047635D01*
X0164760Y0048402D01*
X0164760Y0051472D01*
X0163993Y0052239D01*
X0162458Y0052239D01*
X0161691Y0051472D01*
X0161691Y0048402D01*
X0166295Y0047635D02*
X0169364Y0047635D01*
X0167830Y0047635D02*
X0167830Y0052239D01*
X0166295Y0050704D01*
X0170899Y0049937D02*
X0172433Y0050704D01*
X0173201Y0050704D01*
X0173968Y0049937D01*
X0173968Y0048402D01*
X0173201Y0047635D01*
X0171666Y0047635D01*
X0170899Y0048402D01*
X0170899Y0049937D02*
X0170899Y0052239D01*
X0173968Y0052239D01*
X0199704Y0058442D02*
X0199704Y0063046D01*
X0187283Y0080941D02*
X0187283Y0082476D01*
X0186516Y0083243D01*
X0184214Y0083243D01*
X0169532Y0083843D02*
X0164928Y0083843D01*
X0165056Y0083243D02*
X0161986Y0083243D01*
X0161366Y0082476D02*
X0160598Y0083243D01*
X0158296Y0083243D01*
X0158296Y0078639D01*
X0157382Y0078639D02*
X0157382Y0081708D01*
X0158917Y0083243D01*
X0160452Y0081708D01*
X0160452Y0078639D01*
X0160598Y0080174D02*
X0158296Y0080174D01*
X0157382Y0080941D02*
X0160452Y0080941D01*
X0160598Y0080174D02*
X0161366Y0080941D01*
X0161366Y0082476D01*
X0155848Y0082476D02*
X0155848Y0081708D01*
X0155080Y0080941D01*
X0152778Y0080941D01*
X0152158Y0080941D02*
X0149089Y0080941D01*
X0148174Y0080941D02*
X0151244Y0080941D01*
X0152158Y0083243D02*
X0152158Y0078639D01*
X0152778Y0078639D02*
X0155080Y0078639D01*
X0155848Y0079406D01*
X0155848Y0080174D01*
X0155080Y0080941D01*
X0155848Y0082476D02*
X0155080Y0083243D01*
X0152778Y0083243D01*
X0152778Y0078639D01*
X0153693Y0077872D02*
X0156762Y0077872D01*
X0149089Y0078639D02*
X0149089Y0083243D01*
X0147554Y0082476D02*
X0146787Y0083243D01*
X0145252Y0083243D01*
X0144485Y0082476D01*
X0144485Y0079406D01*
X0145252Y0078639D01*
X0146787Y0078639D01*
X0147554Y0079406D01*
X0146640Y0080941D02*
X0145873Y0080174D01*
X0143571Y0080174D01*
X0142950Y0080941D02*
X0139881Y0080941D01*
X0139734Y0080941D02*
X0141269Y0080941D01*
X0142036Y0080174D01*
X0142036Y0079406D01*
X0141269Y0078639D01*
X0139734Y0078639D01*
X0138967Y0079406D01*
X0137579Y0080174D02*
X0138346Y0080941D01*
X0138346Y0082476D01*
X0137579Y0083243D01*
X0135277Y0083243D01*
X0135277Y0078639D01*
X0134363Y0078639D02*
X0137432Y0078639D01*
X0137579Y0080174D02*
X0135277Y0080174D01*
X0135897Y0080941D02*
X0134363Y0080941D01*
X0133742Y0080174D02*
X0132975Y0080941D01*
X0131440Y0080941D01*
X0130673Y0081708D01*
X0130673Y0082476D01*
X0131440Y0083243D01*
X0132975Y0083243D01*
X0133742Y0082476D01*
X0134363Y0083243D02*
X0134363Y0078639D01*
X0133742Y0079406D02*
X0132975Y0078639D01*
X0131440Y0078639D01*
X0130673Y0079406D01*
X0129138Y0078639D02*
X0126069Y0078639D01*
X0126069Y0083243D01*
X0129138Y0083243D01*
X0128224Y0082476D02*
X0128224Y0080941D01*
X0127457Y0080174D01*
X0125155Y0080174D01*
X0124534Y0080941D02*
X0121465Y0080941D01*
X0120722Y0080941D02*
X0117653Y0080941D01*
X0118396Y0080174D02*
X0119930Y0078639D01*
X0119163Y0080174D02*
X0116861Y0080174D01*
X0116861Y0078639D02*
X0116861Y0083243D01*
X0119163Y0083243D01*
X0119930Y0082476D01*
X0119930Y0080941D01*
X0119163Y0080174D01*
X0122257Y0081708D02*
X0123792Y0083243D01*
X0123792Y0078639D01*
X0125155Y0078639D02*
X0125155Y0083243D01*
X0127457Y0083243D01*
X0128224Y0082476D01*
X0127604Y0080941D02*
X0126069Y0080941D01*
X0126689Y0080174D02*
X0128224Y0078639D01*
X0129759Y0080941D02*
X0132828Y0080941D01*
X0133742Y0080174D02*
X0133742Y0079406D01*
X0134363Y0083243D02*
X0137432Y0083243D01*
X0138967Y0082476D02*
X0138967Y0081708D01*
X0139734Y0080941D01*
X0138967Y0082476D02*
X0139734Y0083243D01*
X0141269Y0083243D01*
X0142036Y0082476D01*
X0143571Y0083243D02*
X0143571Y0078639D01*
X0146640Y0080941D02*
X0146640Y0082476D01*
X0145873Y0083243D01*
X0143571Y0083243D01*
X0125326Y0078639D02*
X0122257Y0078639D01*
X0114584Y0078639D02*
X0114584Y0083243D01*
X0113049Y0083243D02*
X0116119Y0083243D01*
X0111515Y0081708D02*
X0111515Y0078639D01*
X0111515Y0080941D02*
X0108445Y0080941D01*
X0108445Y0081708D02*
X0109980Y0083243D01*
X0111515Y0081708D01*
X0108445Y0081708D02*
X0108445Y0078639D01*
X0106911Y0079406D02*
X0106143Y0078639D01*
X0103841Y0078639D01*
X0103841Y0083243D01*
X0106143Y0083243D01*
X0106911Y0082476D01*
X0106911Y0081708D01*
X0106143Y0080941D01*
X0103841Y0080941D01*
X0102307Y0080941D02*
X0099237Y0080941D01*
X0097703Y0080941D02*
X0096935Y0080174D01*
X0094634Y0080174D01*
X0094634Y0078639D02*
X0094634Y0083243D01*
X0096935Y0083243D01*
X0097703Y0082476D01*
X0097703Y0080941D01*
X0093099Y0080174D02*
X0093099Y0079406D01*
X0092332Y0078639D01*
X0090797Y0078639D01*
X0090030Y0079406D01*
X0090797Y0080941D02*
X0092332Y0080941D01*
X0093099Y0080174D01*
X0093099Y0082476D02*
X0092332Y0083243D01*
X0090797Y0083243D01*
X0090030Y0082476D01*
X0090030Y0081708D01*
X0090797Y0080941D01*
X0088495Y0078639D02*
X0085426Y0078639D01*
X0085426Y0083243D01*
X0088495Y0083243D01*
X0086960Y0080941D02*
X0085426Y0080941D01*
X0083891Y0080941D02*
X0080822Y0080941D01*
X0079287Y0080941D02*
X0078520Y0080174D01*
X0076218Y0080174D01*
X0077752Y0080174D02*
X0079287Y0078639D01*
X0079287Y0080941D02*
X0079287Y0082476D01*
X0078520Y0083243D01*
X0076218Y0083243D01*
X0076218Y0078639D01*
X0106143Y0080941D02*
X0106911Y0080174D01*
X0106911Y0079406D01*
X0130998Y0052239D02*
X0130998Y0047635D01*
X0130998Y0052239D02*
X0134067Y0052239D01*
X0099263Y0037694D02*
X0096194Y0037694D01*
X0097729Y0037694D02*
X0097729Y0042298D01*
X0096194Y0040763D01*
X0094660Y0041531D02*
X0093892Y0042298D01*
X0092358Y0042298D01*
X0091590Y0041531D01*
X0091590Y0040763D01*
X0092358Y0039996D01*
X0093892Y0039996D01*
X0094660Y0039229D01*
X0094660Y0038461D01*
X0093892Y0037694D01*
X0092358Y0037694D01*
X0091590Y0038461D01*
X0090056Y0038461D02*
X0090056Y0042298D01*
X0086986Y0042298D02*
X0086986Y0038461D01*
X0087754Y0037694D01*
X0089288Y0037694D01*
X0090056Y0038461D01*
X0093125Y0036927D02*
X0093125Y0043065D01*
X0041233Y0126513D02*
X0041233Y0131117D01*
X0042767Y0131117D02*
X0039698Y0131117D01*
X0038163Y0129582D02*
X0038163Y0126513D01*
X0038163Y0128815D02*
X0035094Y0128815D01*
X0035094Y0129582D02*
X0035094Y0126513D01*
X0033559Y0127280D02*
X0032792Y0126513D01*
X0030490Y0126513D01*
X0030490Y0131117D01*
X0032792Y0131117D01*
X0033559Y0130350D01*
X0033559Y0129582D01*
X0032792Y0128815D01*
X0030490Y0128815D01*
X0028956Y0128815D02*
X0025886Y0128815D01*
X0024352Y0128815D02*
X0024352Y0130350D01*
X0023584Y0131117D01*
X0021282Y0131117D01*
X0021282Y0126513D01*
X0021282Y0128048D02*
X0023584Y0128048D01*
X0024352Y0128815D01*
X0019748Y0127280D02*
X0018980Y0126513D01*
X0017446Y0126513D01*
X0016678Y0127280D01*
X0016678Y0130350D01*
X0017446Y0131117D01*
X0018980Y0131117D01*
X0019748Y0130350D01*
X0015144Y0131117D02*
X0015144Y0126513D01*
X0012075Y0126513D02*
X0012075Y0131117D01*
X0013609Y0129582D01*
X0015144Y0131117D01*
X0010540Y0128815D02*
X0007471Y0128815D01*
X0005936Y0127280D02*
X0005169Y0126513D01*
X0003634Y0126513D01*
X0002867Y0127280D01*
X0002867Y0130350D01*
X0003634Y0131117D01*
X0005169Y0131117D01*
X0005936Y0130350D01*
X0032792Y0128815D02*
X0033559Y0128048D01*
X0033559Y0127280D01*
X0035094Y0129582D02*
X0036629Y0131117D01*
X0038163Y0129582D01*
X0079932Y0164761D02*
X0079932Y0169365D01*
X0082234Y0169365D01*
X0083001Y0168598D01*
X0083001Y0167063D01*
X0082234Y0166296D01*
X0079932Y0166296D01*
X0081467Y0166296D02*
X0083001Y0164761D01*
X0084536Y0167063D02*
X0087605Y0167063D01*
X0089140Y0164761D02*
X0089140Y0169365D01*
X0090674Y0167830D01*
X0092209Y0169365D01*
X0092209Y0164761D01*
X0093744Y0165528D02*
X0094511Y0164761D01*
X0096046Y0164761D01*
X0096813Y0165528D01*
X0098348Y0164761D02*
X0098348Y0169365D01*
X0100650Y0169365D01*
X0101417Y0168598D01*
X0101417Y0167063D01*
X0100650Y0166296D01*
X0098348Y0166296D01*
X0096813Y0168598D02*
X0096046Y0169365D01*
X0094511Y0169365D01*
X0093744Y0168598D01*
X0093744Y0165528D01*
X0102952Y0167063D02*
X0106021Y0167063D01*
X0107556Y0165528D02*
X0108323Y0164761D01*
X0109090Y0164761D01*
X0109857Y0165528D01*
X0109857Y0169365D01*
X0109090Y0169365D02*
X0110625Y0169365D01*
X0112159Y0167830D02*
X0113694Y0169365D01*
X0115229Y0167830D01*
X0115229Y0164761D01*
X0116763Y0165528D02*
X0117531Y0164761D01*
X0119065Y0164761D01*
X0119833Y0165528D01*
X0119833Y0169365D01*
X0121367Y0169365D02*
X0124437Y0164761D01*
X0124437Y0169365D01*
X0125971Y0169365D02*
X0125971Y0164761D01*
X0129041Y0164761D01*
X0127506Y0167063D02*
X0125971Y0167063D01*
X0125971Y0169365D02*
X0129041Y0169365D01*
X0121367Y0169365D02*
X0121367Y0164761D01*
X0116763Y0165528D02*
X0116763Y0169365D01*
X0115229Y0167063D02*
X0112159Y0167063D01*
X0112159Y0167830D02*
X0112159Y0164761D01*
X0103397Y0174387D02*
X0103397Y0178991D01*
X0100328Y0178991D02*
X0103397Y0174387D01*
X0100328Y0174387D02*
X0100328Y0178991D01*
X0098793Y0178224D02*
X0098026Y0178991D01*
X0096491Y0178991D01*
X0095724Y0178224D01*
X0095724Y0175154D01*
X0096491Y0174387D01*
X0098026Y0174387D01*
X0098793Y0175154D01*
X0098793Y0178224D01*
X0094189Y0178991D02*
X0091120Y0178991D01*
X0089585Y0178991D02*
X0089585Y0175154D01*
X0088818Y0174387D01*
X0087283Y0174387D01*
X0086516Y0175154D01*
X0086516Y0178991D01*
X0084981Y0178224D02*
X0084214Y0178991D01*
X0082679Y0178991D01*
X0081912Y0178224D01*
X0081912Y0175154D01*
X0082679Y0174387D01*
X0084214Y0174387D01*
X0084981Y0175154D01*
X0084981Y0178224D01*
X0080378Y0178224D02*
X0079610Y0178991D01*
X0077308Y0178991D01*
X0077308Y0174387D01*
X0079610Y0174387D01*
X0080378Y0175154D01*
X0080378Y0175922D01*
X0079610Y0176689D01*
X0077308Y0176689D01*
X0075774Y0176689D02*
X0072704Y0176689D01*
X0071170Y0178991D02*
X0068100Y0178991D01*
X0069635Y0178991D02*
X0069635Y0174387D01*
X0066566Y0174387D02*
X0066566Y0177456D01*
X0065031Y0178991D01*
X0063496Y0177456D01*
X0063496Y0174387D01*
X0061962Y0175154D02*
X0061195Y0174387D01*
X0058893Y0174387D01*
X0058893Y0178991D01*
X0061195Y0178991D01*
X0061962Y0178224D01*
X0061962Y0177456D01*
X0061195Y0176689D01*
X0058893Y0176689D01*
X0057358Y0176689D02*
X0054289Y0176689D01*
X0052754Y0176689D02*
X0051987Y0175922D01*
X0049685Y0175922D01*
X0051219Y0175922D02*
X0052754Y0174387D01*
X0052754Y0176689D02*
X0052754Y0178224D01*
X0051987Y0178991D01*
X0049685Y0178991D01*
X0049685Y0174387D01*
X0048150Y0175154D02*
X0048150Y0178991D01*
X0045081Y0178991D02*
X0045081Y0175154D01*
X0045848Y0174387D01*
X0047383Y0174387D01*
X0048150Y0175154D01*
X0043546Y0174387D02*
X0040477Y0174387D01*
X0040477Y0178991D01*
X0043546Y0178991D01*
X0042011Y0176689D02*
X0040477Y0176689D01*
X0038942Y0175922D02*
X0038942Y0178991D01*
X0035873Y0178991D02*
X0035873Y0175922D01*
X0037408Y0174387D01*
X0038942Y0175922D01*
X0034338Y0174387D02*
X0032804Y0174387D01*
X0033571Y0174387D02*
X0033571Y0178991D01*
X0032804Y0178991D02*
X0034338Y0178991D01*
X0031269Y0178991D02*
X0031269Y0175154D01*
X0030502Y0174387D01*
X0028967Y0174387D01*
X0028200Y0175154D01*
X0028200Y0178991D01*
X0026665Y0178224D02*
X0025898Y0178991D01*
X0024363Y0178991D01*
X0023596Y0178224D01*
X0023596Y0177456D01*
X0024363Y0176689D01*
X0025898Y0176689D01*
X0026665Y0175922D01*
X0026665Y0175154D01*
X0025898Y0174387D01*
X0024363Y0174387D01*
X0023596Y0175154D01*
X0022061Y0176689D02*
X0018992Y0176689D01*
X0017457Y0176689D02*
X0016690Y0175922D01*
X0014388Y0175922D01*
X0015923Y0175922D02*
X0017457Y0174387D01*
X0017457Y0176689D02*
X0017457Y0178224D01*
X0016690Y0178991D01*
X0014388Y0178991D01*
X0014388Y0174387D01*
X0061195Y0176689D02*
X0061962Y0175922D01*
X0061962Y0175154D01*
X0063496Y0176689D02*
X0066566Y0176689D01*
X0079610Y0176689D02*
X0080378Y0177456D01*
X0080378Y0178224D01*
X0092655Y0178991D02*
X0092655Y0174387D01*
X0091813Y0209387D02*
X0088744Y0209387D01*
X0090278Y0209387D02*
X0090278Y0213991D01*
X0088744Y0212456D01*
X0087209Y0213224D02*
X0087209Y0210154D01*
X0086442Y0209387D01*
X0084140Y0209387D01*
X0084140Y0213991D01*
X0086442Y0213991D01*
X0087209Y0213224D01*
X0082605Y0213991D02*
X0079536Y0213991D01*
X0079536Y0209387D01*
X0082605Y0209387D01*
X0081071Y0211689D02*
X0079536Y0211689D01*
X0078001Y0209387D02*
X0074932Y0209387D01*
X0074932Y0213991D01*
X0199932Y0193224D02*
X0199932Y0190154D01*
X0200699Y0189387D01*
X0202234Y0189387D01*
X0203001Y0190154D01*
X0204536Y0191689D02*
X0207605Y0191689D01*
X0209140Y0190922D02*
X0211442Y0190922D01*
X0212209Y0191689D01*
X0212209Y0193224D01*
X0211442Y0193991D01*
X0209140Y0193991D01*
X0209140Y0189387D01*
X0210674Y0190922D02*
X0212209Y0189387D01*
X0213744Y0189387D02*
X0216813Y0189387D01*
X0218348Y0190154D02*
X0219115Y0189387D01*
X0220650Y0189387D01*
X0221417Y0190154D01*
X0221417Y0191689D01*
X0219882Y0191689D01*
X0218348Y0193224D02*
X0218348Y0190154D01*
X0218348Y0193224D02*
X0219115Y0193991D01*
X0220650Y0193991D01*
X0221417Y0193224D01*
X0222952Y0191689D02*
X0226021Y0191689D01*
X0227556Y0190154D02*
X0228323Y0189387D01*
X0229857Y0189387D01*
X0230625Y0190154D01*
X0230625Y0193224D01*
X0229857Y0193991D01*
X0228323Y0193991D01*
X0227556Y0193224D01*
X0227556Y0190154D01*
X0232159Y0190154D02*
X0232927Y0189387D01*
X0234461Y0189387D01*
X0235229Y0190154D01*
X0235229Y0193991D01*
X0236763Y0193991D02*
X0239833Y0193991D01*
X0238298Y0193991D02*
X0238298Y0189387D01*
X0232159Y0190154D02*
X0232159Y0193991D01*
X0216813Y0193991D02*
X0213744Y0193991D01*
X0213744Y0189387D01*
X0213744Y0191689D02*
X0215278Y0191689D01*
X0203001Y0193224D02*
X0202234Y0193991D01*
X0200699Y0193991D01*
X0199932Y0193224D01*
X0221758Y0166847D02*
X0223293Y0166847D01*
X0224060Y0166080D01*
X0224060Y0163778D01*
X0224060Y0165312D02*
X0225595Y0166847D01*
X0225595Y0163778D02*
X0220991Y0163778D01*
X0220991Y0166080D01*
X0221758Y0166847D01*
X0220650Y0163991D02*
X0219115Y0163991D01*
X0218348Y0163224D01*
X0218348Y0160154D01*
X0219115Y0159387D01*
X0220650Y0159387D01*
X0221417Y0160154D01*
X0221417Y0161689D01*
X0219882Y0161689D01*
X0221417Y0163224D02*
X0220650Y0163991D01*
X0223293Y0162243D02*
X0223293Y0159174D01*
X0223293Y0157639D02*
X0223293Y0156104D01*
X0223293Y0157639D02*
X0224828Y0157639D01*
X0225595Y0156872D01*
X0225595Y0155337D01*
X0224828Y0154570D01*
X0221758Y0154570D01*
X0220991Y0155337D01*
X0220991Y0156872D01*
X0221758Y0157639D01*
X0216813Y0159387D02*
X0213744Y0159387D01*
X0213744Y0163991D01*
X0216813Y0163991D01*
X0215278Y0161689D02*
X0213744Y0161689D01*
X0212209Y0161689D02*
X0212209Y0163224D01*
X0211442Y0163991D01*
X0209140Y0163991D01*
X0209140Y0159387D01*
X0209140Y0160922D02*
X0211442Y0160922D01*
X0212209Y0161689D01*
X0210674Y0160922D02*
X0212209Y0159387D01*
X0207605Y0161689D02*
X0204536Y0161689D01*
X0203001Y0160154D02*
X0202234Y0159387D01*
X0200699Y0159387D01*
X0199932Y0160154D01*
X0199932Y0163224D01*
X0200699Y0163991D01*
X0202234Y0163991D01*
X0203001Y0163224D01*
X0222952Y0161689D02*
X0226021Y0161689D01*
X0227556Y0159387D02*
X0229090Y0159387D01*
X0228323Y0159387D02*
X0228323Y0163991D01*
X0227556Y0163991D02*
X0229090Y0163991D01*
X0230625Y0163991D02*
X0233694Y0159387D01*
X0233694Y0163991D01*
X0230625Y0163991D02*
X0230625Y0159387D01*
X0223293Y0153035D02*
X0223293Y0149966D01*
X0209874Y0132928D02*
X0209874Y0128324D01*
X0212176Y0128324D01*
X0212943Y0129091D01*
X0212943Y0129859D01*
X0212176Y0130626D01*
X0208339Y0129859D02*
X0207572Y0130626D01*
X0206037Y0130626D01*
X0200666Y0129091D02*
X0200666Y0132928D01*
X0176112Y0132161D02*
X0175344Y0132928D01*
X0173810Y0132928D01*
X0255991Y0155337D02*
X0256758Y0154570D01*
X0259828Y0154570D01*
X0260595Y0155337D01*
X0260595Y0156872D01*
X0259828Y0157639D01*
X0258293Y0157639D01*
X0258293Y0156104D01*
X0256758Y0157639D02*
X0255991Y0156872D01*
X0255991Y0155337D01*
X0258293Y0153035D02*
X0258293Y0149966D01*
X0258293Y0159174D02*
X0258293Y0162243D01*
X0256758Y0163778D02*
X0259828Y0163778D01*
X0260595Y0164545D01*
X0260595Y0166080D01*
X0259828Y0166847D01*
X0258293Y0166847D01*
X0258293Y0165312D01*
X0256758Y0163778D02*
X0255991Y0164545D01*
X0255991Y0166080D01*
X0256758Y0166847D01*
X0290991Y0166080D02*
X0290991Y0163778D01*
X0295595Y0163778D01*
X0295595Y0166080D01*
X0294828Y0166847D01*
X0293293Y0166080D02*
X0292526Y0166847D01*
X0291758Y0166847D01*
X0290991Y0166080D01*
X0292329Y0215827D02*
X0293864Y0215827D01*
X0294631Y0216595D01*
X0296166Y0217362D02*
X0298468Y0217362D01*
X0299235Y0218129D01*
X0299235Y0219664D01*
X0298468Y0220431D01*
X0296166Y0220431D01*
X0296166Y0215827D01*
X0297700Y0217362D02*
X0299235Y0215827D01*
X0300770Y0215827D02*
X0303839Y0215827D01*
X0305374Y0215827D02*
X0308443Y0215827D01*
X0309978Y0215060D02*
X0313047Y0215060D01*
X0314582Y0215827D02*
X0317651Y0215827D01*
X0319185Y0215827D02*
X0322255Y0215827D01*
X0323789Y0215827D02*
X0326091Y0215827D01*
X0326859Y0216595D01*
X0326859Y0219664D01*
X0326091Y0220431D01*
X0323789Y0220431D01*
X0323789Y0215827D01*
X0320720Y0218129D02*
X0319185Y0218129D01*
X0319185Y0220431D02*
X0319185Y0215827D01*
X0314582Y0215827D02*
X0314582Y0220431D01*
X0308443Y0220431D02*
X0305374Y0220431D01*
X0305374Y0215827D01*
X0305374Y0218129D02*
X0306908Y0218129D01*
X0303839Y0220431D02*
X0300770Y0220431D01*
X0300770Y0215827D01*
X0300770Y0218129D02*
X0302304Y0218129D01*
X0294631Y0219664D02*
X0293864Y0220431D01*
X0292329Y0220431D01*
X0291562Y0219664D01*
X0291562Y0216595D01*
X0292329Y0215827D01*
X0319185Y0220431D02*
X0322255Y0220431D01*
X0328393Y0218897D02*
X0329928Y0220431D01*
X0329928Y0215827D01*
X0328393Y0215827D02*
X0331463Y0215827D01*
X0308120Y0093046D02*
X0308888Y0092279D01*
X0308888Y0090744D01*
X0308120Y0089977D01*
X0305819Y0089977D01*
X0305819Y0088442D02*
X0305819Y0093046D01*
X0308120Y0093046D01*
X0304284Y0092279D02*
X0303517Y0093046D01*
X0301982Y0093046D01*
X0301215Y0092279D01*
X0301215Y0089210D01*
X0301982Y0088442D01*
X0303517Y0088442D01*
X0304284Y0089210D01*
X0304284Y0090744D01*
X0302749Y0090744D01*
X0299680Y0090744D02*
X0296611Y0090744D01*
X0252367Y0068856D02*
X0250832Y0067322D01*
X0250832Y0068089D02*
X0250832Y0065787D01*
X0250832Y0068089D02*
X0250065Y0068856D01*
X0248530Y0068856D01*
D12*
X0249844Y0052818D02*
X0236530Y0052818D01*
X0249844Y0052818D02*
X0249844Y0033627D01*
X0251714Y0033627D01*
X0249844Y0033627D02*
X0236530Y0033627D01*
X0243164Y0031476D02*
X0243915Y0032226D01*
X0245416Y0032226D01*
X0246166Y0031476D01*
X0246166Y0028473D01*
X0245416Y0027723D01*
X0243915Y0027723D01*
X0243164Y0028473D01*
X0243164Y0031476D01*
X0244665Y0029224D02*
X0246166Y0027723D01*
X0247768Y0027723D02*
X0250770Y0027723D01*
X0249269Y0027723D02*
X0249269Y0032226D01*
X0247768Y0030725D01*
X0249844Y0052818D02*
X0251714Y0052818D01*
X0329722Y0073598D02*
X0330473Y0072847D01*
X0331224Y0072847D01*
X0331974Y0073598D01*
X0331974Y0075099D01*
X0332725Y0075850D01*
X0333475Y0075850D01*
X0334226Y0075099D01*
X0334226Y0073598D01*
X0333475Y0072847D01*
X0329722Y0073598D02*
X0329722Y0075099D01*
X0330473Y0075850D01*
X0331224Y0077451D02*
X0329722Y0078953D01*
X0334226Y0078953D01*
X0334226Y0080454D02*
X0334226Y0077451D01*
X0321121Y0175709D02*
X0293898Y0175709D01*
X0293898Y0203266D01*
X0295465Y0204834D01*
X0321121Y0204834D01*
X0321121Y0175709D01*
X0321496Y0185518D02*
X0321496Y0195168D01*
X0294937Y0190250D02*
X0294941Y0190558D01*
X0294952Y0190866D01*
X0294971Y0191173D01*
X0294997Y0191480D01*
X0295031Y0191786D01*
X0295073Y0192092D01*
X0295122Y0192396D01*
X0295178Y0192699D01*
X0295242Y0193000D01*
X0295313Y0193300D01*
X0295392Y0193598D01*
X0295477Y0193893D01*
X0295570Y0194187D01*
X0295671Y0194478D01*
X0295778Y0194767D01*
X0295892Y0195053D01*
X0296014Y0195336D01*
X0296142Y0195616D01*
X0296277Y0195893D01*
X0296419Y0196167D01*
X0296568Y0196436D01*
X0296723Y0196703D01*
X0296884Y0196965D01*
X0297052Y0197223D01*
X0297226Y0197477D01*
X0297407Y0197727D01*
X0297593Y0197972D01*
X0297786Y0198212D01*
X0297984Y0198448D01*
X0298188Y0198679D01*
X0298398Y0198904D01*
X0298613Y0199125D01*
X0298834Y0199340D01*
X0299059Y0199550D01*
X0299290Y0199754D01*
X0299526Y0199952D01*
X0299766Y0200145D01*
X0300011Y0200331D01*
X0300261Y0200512D01*
X0300515Y0200686D01*
X0300773Y0200854D01*
X0301035Y0201015D01*
X0301302Y0201170D01*
X0301571Y0201319D01*
X0301845Y0201461D01*
X0302122Y0201596D01*
X0302402Y0201724D01*
X0302685Y0201846D01*
X0302971Y0201960D01*
X0303260Y0202067D01*
X0303551Y0202168D01*
X0303845Y0202261D01*
X0304140Y0202346D01*
X0304438Y0202425D01*
X0304738Y0202496D01*
X0305039Y0202560D01*
X0305342Y0202616D01*
X0305646Y0202665D01*
X0305952Y0202707D01*
X0306258Y0202741D01*
X0306565Y0202767D01*
X0306872Y0202786D01*
X0307180Y0202797D01*
X0307488Y0202801D01*
X0307796Y0202797D01*
X0308104Y0202786D01*
X0308411Y0202767D01*
X0308718Y0202741D01*
X0309024Y0202707D01*
X0309330Y0202665D01*
X0309634Y0202616D01*
X0309937Y0202560D01*
X0310238Y0202496D01*
X0310538Y0202425D01*
X0310836Y0202346D01*
X0311131Y0202261D01*
X0311425Y0202168D01*
X0311716Y0202067D01*
X0312005Y0201960D01*
X0312291Y0201846D01*
X0312574Y0201724D01*
X0312854Y0201596D01*
X0313131Y0201461D01*
X0313405Y0201319D01*
X0313674Y0201170D01*
X0313941Y0201015D01*
X0314203Y0200854D01*
X0314461Y0200686D01*
X0314715Y0200512D01*
X0314965Y0200331D01*
X0315210Y0200145D01*
X0315450Y0199952D01*
X0315686Y0199754D01*
X0315917Y0199550D01*
X0316142Y0199340D01*
X0316363Y0199125D01*
X0316578Y0198904D01*
X0316788Y0198679D01*
X0316992Y0198448D01*
X0317190Y0198212D01*
X0317383Y0197972D01*
X0317569Y0197727D01*
X0317750Y0197477D01*
X0317924Y0197223D01*
X0318092Y0196965D01*
X0318253Y0196703D01*
X0318408Y0196436D01*
X0318557Y0196167D01*
X0318699Y0195893D01*
X0318834Y0195616D01*
X0318962Y0195336D01*
X0319084Y0195053D01*
X0319198Y0194767D01*
X0319305Y0194478D01*
X0319406Y0194187D01*
X0319499Y0193893D01*
X0319584Y0193598D01*
X0319663Y0193300D01*
X0319734Y0193000D01*
X0319798Y0192699D01*
X0319854Y0192396D01*
X0319903Y0192092D01*
X0319945Y0191786D01*
X0319979Y0191480D01*
X0320005Y0191173D01*
X0320024Y0190866D01*
X0320035Y0190558D01*
X0320039Y0190250D01*
X0320035Y0189942D01*
X0320024Y0189634D01*
X0320005Y0189327D01*
X0319979Y0189020D01*
X0319945Y0188714D01*
X0319903Y0188408D01*
X0319854Y0188104D01*
X0319798Y0187801D01*
X0319734Y0187500D01*
X0319663Y0187200D01*
X0319584Y0186902D01*
X0319499Y0186607D01*
X0319406Y0186313D01*
X0319305Y0186022D01*
X0319198Y0185733D01*
X0319084Y0185447D01*
X0318962Y0185164D01*
X0318834Y0184884D01*
X0318699Y0184607D01*
X0318557Y0184333D01*
X0318408Y0184064D01*
X0318253Y0183797D01*
X0318092Y0183535D01*
X0317924Y0183277D01*
X0317750Y0183023D01*
X0317569Y0182773D01*
X0317383Y0182528D01*
X0317190Y0182288D01*
X0316992Y0182052D01*
X0316788Y0181821D01*
X0316578Y0181596D01*
X0316363Y0181375D01*
X0316142Y0181160D01*
X0315917Y0180950D01*
X0315686Y0180746D01*
X0315450Y0180548D01*
X0315210Y0180355D01*
X0314965Y0180169D01*
X0314715Y0179988D01*
X0314461Y0179814D01*
X0314203Y0179646D01*
X0313941Y0179485D01*
X0313674Y0179330D01*
X0313405Y0179181D01*
X0313131Y0179039D01*
X0312854Y0178904D01*
X0312574Y0178776D01*
X0312291Y0178654D01*
X0312005Y0178540D01*
X0311716Y0178433D01*
X0311425Y0178332D01*
X0311131Y0178239D01*
X0310836Y0178154D01*
X0310538Y0178075D01*
X0310238Y0178004D01*
X0309937Y0177940D01*
X0309634Y0177884D01*
X0309330Y0177835D01*
X0309024Y0177793D01*
X0308718Y0177759D01*
X0308411Y0177733D01*
X0308104Y0177714D01*
X0307796Y0177703D01*
X0307488Y0177699D01*
X0307180Y0177703D01*
X0306872Y0177714D01*
X0306565Y0177733D01*
X0306258Y0177759D01*
X0305952Y0177793D01*
X0305646Y0177835D01*
X0305342Y0177884D01*
X0305039Y0177940D01*
X0304738Y0178004D01*
X0304438Y0178075D01*
X0304140Y0178154D01*
X0303845Y0178239D01*
X0303551Y0178332D01*
X0303260Y0178433D01*
X0302971Y0178540D01*
X0302685Y0178654D01*
X0302402Y0178776D01*
X0302122Y0178904D01*
X0301845Y0179039D01*
X0301571Y0179181D01*
X0301302Y0179330D01*
X0301035Y0179485D01*
X0300773Y0179646D01*
X0300515Y0179814D01*
X0300261Y0179988D01*
X0300011Y0180169D01*
X0299766Y0180355D01*
X0299526Y0180548D01*
X0299290Y0180746D01*
X0299059Y0180950D01*
X0298834Y0181160D01*
X0298613Y0181375D01*
X0298398Y0181596D01*
X0298188Y0181821D01*
X0297984Y0182052D01*
X0297786Y0182288D01*
X0297593Y0182528D01*
X0297407Y0182773D01*
X0297226Y0183023D01*
X0297052Y0183277D01*
X0296884Y0183535D01*
X0296723Y0183797D01*
X0296568Y0184064D01*
X0296419Y0184333D01*
X0296277Y0184607D01*
X0296142Y0184884D01*
X0296014Y0185164D01*
X0295892Y0185447D01*
X0295778Y0185733D01*
X0295671Y0186022D01*
X0295570Y0186313D01*
X0295477Y0186607D01*
X0295392Y0186902D01*
X0295313Y0187200D01*
X0295242Y0187500D01*
X0295178Y0187801D01*
X0295122Y0188104D01*
X0295073Y0188408D01*
X0295031Y0188714D01*
X0294997Y0189020D01*
X0294971Y0189327D01*
X0294952Y0189634D01*
X0294941Y0189942D01*
X0294937Y0190250D01*
X0294017Y0190299D02*
X0294021Y0190628D01*
X0294033Y0190958D01*
X0294053Y0191286D01*
X0294082Y0191615D01*
X0294118Y0191942D01*
X0294162Y0192268D01*
X0294215Y0192594D01*
X0294275Y0192918D01*
X0294343Y0193240D01*
X0294419Y0193560D01*
X0294503Y0193879D01*
X0294595Y0194195D01*
X0294694Y0194509D01*
X0294802Y0194821D01*
X0294916Y0195130D01*
X0295039Y0195435D01*
X0295168Y0195738D01*
X0295306Y0196038D01*
X0295450Y0196334D01*
X0295602Y0196626D01*
X0295761Y0196915D01*
X0295927Y0197199D01*
X0296099Y0197480D01*
X0296279Y0197756D01*
X0296465Y0198027D01*
X0296658Y0198294D01*
X0296858Y0198557D01*
X0297064Y0198814D01*
X0297276Y0199066D01*
X0297494Y0199313D01*
X0297718Y0199554D01*
X0297948Y0199790D01*
X0298184Y0200020D01*
X0298425Y0200244D01*
X0298672Y0200462D01*
X0298924Y0200674D01*
X0299181Y0200880D01*
X0299444Y0201080D01*
X0299711Y0201273D01*
X0299982Y0201459D01*
X0300258Y0201639D01*
X0300539Y0201811D01*
X0300823Y0201977D01*
X0301112Y0202136D01*
X0301404Y0202288D01*
X0301700Y0202432D01*
X0302000Y0202570D01*
X0302303Y0202699D01*
X0302608Y0202822D01*
X0302917Y0202936D01*
X0303229Y0203044D01*
X0303543Y0203143D01*
X0303859Y0203235D01*
X0304178Y0203319D01*
X0304498Y0203395D01*
X0304820Y0203463D01*
X0305144Y0203523D01*
X0305470Y0203576D01*
X0305796Y0203620D01*
X0306123Y0203656D01*
X0306452Y0203685D01*
X0306780Y0203705D01*
X0307110Y0203717D01*
X0307439Y0203721D01*
X0307768Y0203717D01*
X0308098Y0203705D01*
X0308426Y0203685D01*
X0308755Y0203656D01*
X0309082Y0203620D01*
X0309408Y0203576D01*
X0309734Y0203523D01*
X0310058Y0203463D01*
X0310380Y0203395D01*
X0310700Y0203319D01*
X0311019Y0203235D01*
X0311335Y0203143D01*
X0311649Y0203044D01*
X0311961Y0202936D01*
X0312270Y0202822D01*
X0312575Y0202699D01*
X0312878Y0202570D01*
X0313178Y0202432D01*
X0313474Y0202288D01*
X0313766Y0202136D01*
X0314055Y0201977D01*
X0314339Y0201811D01*
X0314620Y0201639D01*
X0314896Y0201459D01*
X0315167Y0201273D01*
X0315434Y0201080D01*
X0315697Y0200880D01*
X0315954Y0200674D01*
X0316206Y0200462D01*
X0316453Y0200244D01*
X0316694Y0200020D01*
X0316930Y0199790D01*
X0317160Y0199554D01*
X0317384Y0199313D01*
X0317602Y0199066D01*
X0317814Y0198814D01*
X0318020Y0198557D01*
X0318220Y0198294D01*
X0318413Y0198027D01*
X0318599Y0197756D01*
X0318779Y0197480D01*
X0318951Y0197199D01*
X0319117Y0196915D01*
X0319276Y0196626D01*
X0319428Y0196334D01*
X0319572Y0196038D01*
X0319710Y0195738D01*
X0319839Y0195435D01*
X0319962Y0195130D01*
X0320076Y0194821D01*
X0320184Y0194509D01*
X0320283Y0194195D01*
X0320375Y0193879D01*
X0320459Y0193560D01*
X0320535Y0193240D01*
X0320603Y0192918D01*
X0320663Y0192594D01*
X0320716Y0192268D01*
X0320760Y0191942D01*
X0320796Y0191615D01*
X0320825Y0191286D01*
X0320845Y0190958D01*
X0320857Y0190628D01*
X0320861Y0190299D01*
X0320857Y0189970D01*
X0320845Y0189640D01*
X0320825Y0189312D01*
X0320796Y0188983D01*
X0320760Y0188656D01*
X0320716Y0188330D01*
X0320663Y0188004D01*
X0320603Y0187680D01*
X0320535Y0187358D01*
X0320459Y0187038D01*
X0320375Y0186719D01*
X0320283Y0186403D01*
X0320184Y0186089D01*
X0320076Y0185777D01*
X0319962Y0185468D01*
X0319839Y0185163D01*
X0319710Y0184860D01*
X0319572Y0184560D01*
X0319428Y0184264D01*
X0319276Y0183972D01*
X0319117Y0183683D01*
X0318951Y0183399D01*
X0318779Y0183118D01*
X0318599Y0182842D01*
X0318413Y0182571D01*
X0318220Y0182304D01*
X0318020Y0182041D01*
X0317814Y0181784D01*
X0317602Y0181532D01*
X0317384Y0181285D01*
X0317160Y0181044D01*
X0316930Y0180808D01*
X0316694Y0180578D01*
X0316453Y0180354D01*
X0316206Y0180136D01*
X0315954Y0179924D01*
X0315697Y0179718D01*
X0315434Y0179518D01*
X0315167Y0179325D01*
X0314896Y0179139D01*
X0314620Y0178959D01*
X0314339Y0178787D01*
X0314055Y0178621D01*
X0313766Y0178462D01*
X0313474Y0178310D01*
X0313178Y0178166D01*
X0312878Y0178028D01*
X0312575Y0177899D01*
X0312270Y0177776D01*
X0311961Y0177662D01*
X0311649Y0177554D01*
X0311335Y0177455D01*
X0311019Y0177363D01*
X0310700Y0177279D01*
X0310380Y0177203D01*
X0310058Y0177135D01*
X0309734Y0177075D01*
X0309408Y0177022D01*
X0309082Y0176978D01*
X0308755Y0176942D01*
X0308426Y0176913D01*
X0308098Y0176893D01*
X0307768Y0176881D01*
X0307439Y0176877D01*
X0307110Y0176881D01*
X0306780Y0176893D01*
X0306452Y0176913D01*
X0306123Y0176942D01*
X0305796Y0176978D01*
X0305470Y0177022D01*
X0305144Y0177075D01*
X0304820Y0177135D01*
X0304498Y0177203D01*
X0304178Y0177279D01*
X0303859Y0177363D01*
X0303543Y0177455D01*
X0303229Y0177554D01*
X0302917Y0177662D01*
X0302608Y0177776D01*
X0302303Y0177899D01*
X0302000Y0178028D01*
X0301700Y0178166D01*
X0301404Y0178310D01*
X0301112Y0178462D01*
X0300823Y0178621D01*
X0300539Y0178787D01*
X0300258Y0178959D01*
X0299982Y0179139D01*
X0299711Y0179325D01*
X0299444Y0179518D01*
X0299181Y0179718D01*
X0298924Y0179924D01*
X0298672Y0180136D01*
X0298425Y0180354D01*
X0298184Y0180578D01*
X0297948Y0180808D01*
X0297718Y0181044D01*
X0297494Y0181285D01*
X0297276Y0181532D01*
X0297064Y0181784D01*
X0296858Y0182041D01*
X0296658Y0182304D01*
X0296465Y0182571D01*
X0296279Y0182842D01*
X0296099Y0183118D01*
X0295927Y0183399D01*
X0295761Y0183683D01*
X0295602Y0183972D01*
X0295450Y0184264D01*
X0295306Y0184560D01*
X0295168Y0184860D01*
X0295039Y0185163D01*
X0294916Y0185468D01*
X0294802Y0185777D01*
X0294694Y0186089D01*
X0294595Y0186403D01*
X0294503Y0186719D01*
X0294419Y0187038D01*
X0294343Y0187358D01*
X0294275Y0187680D01*
X0294215Y0188004D01*
X0294162Y0188330D01*
X0294118Y0188656D01*
X0294082Y0188983D01*
X0294053Y0189312D01*
X0294033Y0189640D01*
X0294021Y0189970D01*
X0294017Y0190299D01*
X0232288Y0212388D02*
X0231538Y0211637D01*
X0230037Y0211637D01*
X0229286Y0212388D01*
X0230787Y0213889D02*
X0231538Y0213889D01*
X0232288Y0213138D01*
X0232288Y0212388D01*
X0231538Y0213889D02*
X0232288Y0214640D01*
X0232288Y0215390D01*
X0231538Y0216141D01*
X0230037Y0216141D01*
X0229286Y0215390D01*
X0227685Y0216141D02*
X0226183Y0216141D01*
X0226934Y0216141D02*
X0226934Y0212388D01*
X0226183Y0211637D01*
X0225433Y0211637D01*
X0224682Y0212388D01*
X0187288Y0212388D02*
X0186538Y0211637D01*
X0185037Y0211637D01*
X0184286Y0212388D01*
X0184286Y0213889D02*
X0185787Y0214640D01*
X0186538Y0214640D01*
X0187288Y0213889D01*
X0187288Y0212388D01*
X0184286Y0213889D02*
X0184286Y0216141D01*
X0187288Y0216141D01*
X0182685Y0216141D02*
X0181183Y0216141D01*
X0181934Y0216141D02*
X0181934Y0212388D01*
X0181183Y0211637D01*
X0180433Y0211637D01*
X0179682Y0212388D01*
X0137288Y0213889D02*
X0134286Y0213889D01*
X0136538Y0216141D01*
X0136538Y0211637D01*
X0131934Y0212388D02*
X0131934Y0216141D01*
X0131183Y0216141D02*
X0132685Y0216141D01*
X0131934Y0212388D02*
X0131183Y0211637D01*
X0130433Y0211637D01*
X0129682Y0212388D01*
X0117930Y0196741D02*
X0116429Y0196741D01*
X0115678Y0195990D01*
X0114077Y0196741D02*
X0112575Y0196741D01*
X0113326Y0196741D02*
X0113326Y0192988D01*
X0112575Y0192237D01*
X0111825Y0192237D01*
X0111074Y0192988D01*
X0115678Y0192237D02*
X0118681Y0195240D01*
X0118681Y0195990D01*
X0117930Y0196741D01*
X0118681Y0192237D02*
X0115678Y0192237D01*
X0058681Y0192237D02*
X0055678Y0192237D01*
X0057179Y0192237D02*
X0057179Y0196741D01*
X0055678Y0195240D01*
X0054077Y0196741D02*
X0052575Y0196741D01*
X0053326Y0196741D02*
X0053326Y0192988D01*
X0052575Y0192237D01*
X0051825Y0192237D01*
X0051074Y0192988D01*
X0037212Y0131471D02*
X0037212Y0068478D01*
X0037212Y0052730D01*
X0045086Y0052730D01*
X0045086Y0044856D01*
X0100204Y0044856D01*
X0100204Y0068478D01*
X0100204Y0131471D01*
X0037212Y0131471D01*
X0037212Y0052730D02*
X0037212Y0044856D01*
X0045086Y0044856D01*
X0040755Y0048793D02*
X0040757Y0048832D01*
X0040763Y0048871D01*
X0040773Y0048909D01*
X0040786Y0048946D01*
X0040803Y0048981D01*
X0040823Y0049015D01*
X0040847Y0049046D01*
X0040874Y0049075D01*
X0040903Y0049101D01*
X0040935Y0049124D01*
X0040969Y0049144D01*
X0041005Y0049160D01*
X0041042Y0049172D01*
X0041081Y0049181D01*
X0041120Y0049186D01*
X0041159Y0049187D01*
X0041198Y0049184D01*
X0041237Y0049177D01*
X0041274Y0049166D01*
X0041311Y0049152D01*
X0041346Y0049134D01*
X0041379Y0049113D01*
X0041410Y0049088D01*
X0041438Y0049061D01*
X0041463Y0049031D01*
X0041485Y0048998D01*
X0041504Y0048964D01*
X0041519Y0048928D01*
X0041531Y0048890D01*
X0041539Y0048852D01*
X0041543Y0048813D01*
X0041543Y0048773D01*
X0041539Y0048734D01*
X0041531Y0048696D01*
X0041519Y0048658D01*
X0041504Y0048622D01*
X0041485Y0048588D01*
X0041463Y0048555D01*
X0041438Y0048525D01*
X0041410Y0048498D01*
X0041379Y0048473D01*
X0041346Y0048452D01*
X0041311Y0048434D01*
X0041274Y0048420D01*
X0041237Y0048409D01*
X0041198Y0048402D01*
X0041159Y0048399D01*
X0041120Y0048400D01*
X0041081Y0048405D01*
X0041042Y0048414D01*
X0041005Y0048426D01*
X0040969Y0048442D01*
X0040935Y0048462D01*
X0040903Y0048485D01*
X0040874Y0048511D01*
X0040847Y0048540D01*
X0040823Y0048571D01*
X0040803Y0048605D01*
X0040786Y0048640D01*
X0040773Y0048677D01*
X0040763Y0048715D01*
X0040757Y0048754D01*
X0040755Y0048793D01*
X0037975Y0048793D02*
X0037977Y0048905D01*
X0037983Y0049017D01*
X0037993Y0049128D01*
X0038007Y0049240D01*
X0038024Y0049350D01*
X0038046Y0049460D01*
X0038071Y0049569D01*
X0038101Y0049677D01*
X0038134Y0049784D01*
X0038171Y0049890D01*
X0038211Y0049995D01*
X0038256Y0050098D01*
X0038303Y0050199D01*
X0038355Y0050298D01*
X0038410Y0050396D01*
X0038468Y0050492D01*
X0038530Y0050585D01*
X0038594Y0050677D01*
X0038662Y0050766D01*
X0038734Y0050852D01*
X0038808Y0050936D01*
X0038885Y0051017D01*
X0038965Y0051096D01*
X0039047Y0051172D01*
X0039133Y0051244D01*
X0039220Y0051314D01*
X0039311Y0051380D01*
X0039403Y0051444D01*
X0039498Y0051504D01*
X0039594Y0051560D01*
X0039693Y0051613D01*
X0039794Y0051663D01*
X0039896Y0051709D01*
X0039999Y0051751D01*
X0040104Y0051790D01*
X0040211Y0051825D01*
X0040318Y0051856D01*
X0040427Y0051884D01*
X0040537Y0051907D01*
X0040647Y0051927D01*
X0040758Y0051943D01*
X0040869Y0051955D01*
X0040981Y0051963D01*
X0041093Y0051967D01*
X0041205Y0051967D01*
X0041317Y0051963D01*
X0041429Y0051955D01*
X0041540Y0051943D01*
X0041651Y0051927D01*
X0041761Y0051907D01*
X0041871Y0051884D01*
X0041980Y0051856D01*
X0042087Y0051825D01*
X0042194Y0051790D01*
X0042299Y0051751D01*
X0042402Y0051709D01*
X0042504Y0051663D01*
X0042605Y0051613D01*
X0042704Y0051560D01*
X0042800Y0051504D01*
X0042895Y0051444D01*
X0042987Y0051380D01*
X0043078Y0051314D01*
X0043165Y0051244D01*
X0043251Y0051172D01*
X0043333Y0051096D01*
X0043413Y0051017D01*
X0043490Y0050936D01*
X0043564Y0050852D01*
X0043636Y0050766D01*
X0043704Y0050677D01*
X0043768Y0050585D01*
X0043830Y0050492D01*
X0043888Y0050396D01*
X0043943Y0050298D01*
X0043995Y0050199D01*
X0044042Y0050098D01*
X0044087Y0049995D01*
X0044127Y0049890D01*
X0044164Y0049784D01*
X0044197Y0049677D01*
X0044227Y0049569D01*
X0044252Y0049460D01*
X0044274Y0049350D01*
X0044291Y0049240D01*
X0044305Y0049128D01*
X0044315Y0049017D01*
X0044321Y0048905D01*
X0044323Y0048793D01*
X0044321Y0048681D01*
X0044315Y0048569D01*
X0044305Y0048458D01*
X0044291Y0048346D01*
X0044274Y0048236D01*
X0044252Y0048126D01*
X0044227Y0048017D01*
X0044197Y0047909D01*
X0044164Y0047802D01*
X0044127Y0047696D01*
X0044087Y0047591D01*
X0044042Y0047488D01*
X0043995Y0047387D01*
X0043943Y0047288D01*
X0043888Y0047190D01*
X0043830Y0047094D01*
X0043768Y0047001D01*
X0043704Y0046909D01*
X0043636Y0046820D01*
X0043564Y0046734D01*
X0043490Y0046650D01*
X0043413Y0046569D01*
X0043333Y0046490D01*
X0043251Y0046414D01*
X0043165Y0046342D01*
X0043078Y0046272D01*
X0042987Y0046206D01*
X0042895Y0046142D01*
X0042800Y0046082D01*
X0042704Y0046026D01*
X0042605Y0045973D01*
X0042504Y0045923D01*
X0042402Y0045877D01*
X0042299Y0045835D01*
X0042194Y0045796D01*
X0042087Y0045761D01*
X0041980Y0045730D01*
X0041871Y0045702D01*
X0041761Y0045679D01*
X0041651Y0045659D01*
X0041540Y0045643D01*
X0041429Y0045631D01*
X0041317Y0045623D01*
X0041205Y0045619D01*
X0041093Y0045619D01*
X0040981Y0045623D01*
X0040869Y0045631D01*
X0040758Y0045643D01*
X0040647Y0045659D01*
X0040537Y0045679D01*
X0040427Y0045702D01*
X0040318Y0045730D01*
X0040211Y0045761D01*
X0040104Y0045796D01*
X0039999Y0045835D01*
X0039896Y0045877D01*
X0039794Y0045923D01*
X0039693Y0045973D01*
X0039594Y0046026D01*
X0039498Y0046082D01*
X0039403Y0046142D01*
X0039311Y0046206D01*
X0039220Y0046272D01*
X0039133Y0046342D01*
X0039047Y0046414D01*
X0038965Y0046490D01*
X0038885Y0046569D01*
X0038808Y0046650D01*
X0038734Y0046734D01*
X0038662Y0046820D01*
X0038594Y0046909D01*
X0038530Y0047001D01*
X0038468Y0047094D01*
X0038410Y0047190D01*
X0038355Y0047288D01*
X0038303Y0047387D01*
X0038256Y0047488D01*
X0038211Y0047591D01*
X0038171Y0047696D01*
X0038134Y0047802D01*
X0038101Y0047909D01*
X0038071Y0048017D01*
X0038046Y0048126D01*
X0038024Y0048236D01*
X0038007Y0048346D01*
X0037993Y0048458D01*
X0037983Y0048569D01*
X0037977Y0048681D01*
X0037975Y0048793D01*
D13*
X0295253Y0178163D02*
X0295255Y0178235D01*
X0295261Y0178307D01*
X0295271Y0178379D01*
X0295285Y0178449D01*
X0295302Y0178519D01*
X0295324Y0178588D01*
X0295349Y0178656D01*
X0295378Y0178722D01*
X0295411Y0178786D01*
X0295447Y0178849D01*
X0295486Y0178909D01*
X0295529Y0178968D01*
X0295575Y0179023D01*
X0295624Y0179076D01*
X0295676Y0179127D01*
X0295730Y0179174D01*
X0295787Y0179219D01*
X0295846Y0179260D01*
X0295908Y0179297D01*
X0295971Y0179332D01*
X0296037Y0179363D01*
X0296104Y0179390D01*
X0296172Y0179413D01*
X0296241Y0179433D01*
X0296312Y0179449D01*
X0296383Y0179461D01*
X0296455Y0179469D01*
X0296527Y0179473D01*
X0296599Y0179473D01*
X0296671Y0179469D01*
X0296743Y0179461D01*
X0296814Y0179449D01*
X0296885Y0179433D01*
X0296954Y0179413D01*
X0297022Y0179390D01*
X0297089Y0179363D01*
X0297155Y0179332D01*
X0297218Y0179297D01*
X0297280Y0179260D01*
X0297339Y0179219D01*
X0297396Y0179174D01*
X0297450Y0179127D01*
X0297502Y0179076D01*
X0297551Y0179023D01*
X0297597Y0178968D01*
X0297640Y0178909D01*
X0297679Y0178849D01*
X0297715Y0178786D01*
X0297748Y0178722D01*
X0297777Y0178656D01*
X0297802Y0178588D01*
X0297824Y0178519D01*
X0297841Y0178449D01*
X0297855Y0178379D01*
X0297865Y0178307D01*
X0297871Y0178235D01*
X0297873Y0178163D01*
X0297871Y0178091D01*
X0297865Y0178019D01*
X0297855Y0177947D01*
X0297841Y0177877D01*
X0297824Y0177807D01*
X0297802Y0177738D01*
X0297777Y0177670D01*
X0297748Y0177604D01*
X0297715Y0177540D01*
X0297679Y0177477D01*
X0297640Y0177417D01*
X0297597Y0177358D01*
X0297551Y0177303D01*
X0297502Y0177250D01*
X0297450Y0177199D01*
X0297396Y0177152D01*
X0297339Y0177107D01*
X0297280Y0177066D01*
X0297218Y0177029D01*
X0297155Y0176994D01*
X0297089Y0176963D01*
X0297022Y0176936D01*
X0296954Y0176913D01*
X0296885Y0176893D01*
X0296814Y0176877D01*
X0296743Y0176865D01*
X0296671Y0176857D01*
X0296599Y0176853D01*
X0296527Y0176853D01*
X0296455Y0176857D01*
X0296383Y0176865D01*
X0296312Y0176877D01*
X0296241Y0176893D01*
X0296172Y0176913D01*
X0296104Y0176936D01*
X0296037Y0176963D01*
X0295971Y0176994D01*
X0295908Y0177029D01*
X0295846Y0177066D01*
X0295787Y0177107D01*
X0295730Y0177152D01*
X0295676Y0177199D01*
X0295624Y0177250D01*
X0295575Y0177303D01*
X0295529Y0177358D01*
X0295486Y0177417D01*
X0295447Y0177477D01*
X0295411Y0177540D01*
X0295378Y0177604D01*
X0295349Y0177670D01*
X0295324Y0177738D01*
X0295302Y0177807D01*
X0295285Y0177877D01*
X0295271Y0177947D01*
X0295261Y0178019D01*
X0295255Y0178091D01*
X0295253Y0178163D01*
X0303373Y0186081D02*
X0303373Y0189946D01*
X0307202Y0189946D01*
X0307202Y0186081D01*
X0303373Y0186081D01*
X0303891Y0187051D02*
X0304776Y0187051D01*
X0305071Y0187346D01*
X0305071Y0188526D01*
X0304776Y0188821D01*
X0303891Y0188821D01*
X0303891Y0187051D01*
X0305704Y0187051D02*
X0306884Y0187051D01*
X0306294Y0187051D02*
X0306294Y0188821D01*
X0305704Y0188231D01*
X0308301Y0188865D02*
X0309186Y0188865D01*
X0309481Y0188570D01*
X0309481Y0187390D01*
X0309186Y0187095D01*
X0308301Y0187095D01*
X0308301Y0188865D01*
X0307810Y0189928D02*
X0307810Y0186063D01*
X0311638Y0186063D01*
X0311638Y0189928D01*
X0307810Y0189928D01*
X0307792Y0189928D01*
X0307788Y0190615D02*
X0307788Y0194481D01*
X0307810Y0194503D02*
X0311674Y0194503D01*
X0311674Y0190615D01*
X0307788Y0190615D01*
X0307230Y0190637D02*
X0303387Y0190637D01*
X0303387Y0194481D01*
X0307230Y0194481D01*
X0307230Y0190637D01*
X0306839Y0191732D02*
X0305659Y0191732D01*
X0306839Y0192912D01*
X0306839Y0193207D01*
X0306544Y0193502D01*
X0305954Y0193502D01*
X0305659Y0193207D01*
X0305027Y0193207D02*
X0304732Y0193502D01*
X0303847Y0193502D01*
X0303847Y0191732D01*
X0304732Y0191732D01*
X0305027Y0192027D01*
X0305027Y0193207D01*
X0303387Y0194481D02*
X0303344Y0194481D01*
X0308256Y0193502D02*
X0309141Y0193502D01*
X0309436Y0193207D01*
X0309436Y0192027D01*
X0309141Y0191732D01*
X0308256Y0191732D01*
X0308256Y0193502D01*
X0310069Y0193207D02*
X0310364Y0193502D01*
X0310954Y0193502D01*
X0311249Y0193207D01*
X0311249Y0192912D01*
X0310954Y0192617D01*
X0311249Y0192322D01*
X0311249Y0192027D01*
X0310954Y0191732D01*
X0310364Y0191732D01*
X0310069Y0192027D01*
X0310659Y0192617D02*
X0310954Y0192617D01*
X0310998Y0188865D02*
X0310113Y0187980D01*
X0311293Y0187980D01*
X0310998Y0187095D02*
X0310998Y0188865D01*
X0303373Y0189946D02*
X0303355Y0189946D01*
X0295283Y0202365D02*
X0295285Y0202437D01*
X0295291Y0202509D01*
X0295301Y0202581D01*
X0295315Y0202651D01*
X0295332Y0202721D01*
X0295354Y0202790D01*
X0295379Y0202858D01*
X0295408Y0202924D01*
X0295441Y0202988D01*
X0295477Y0203051D01*
X0295516Y0203111D01*
X0295559Y0203170D01*
X0295605Y0203225D01*
X0295654Y0203278D01*
X0295706Y0203329D01*
X0295760Y0203376D01*
X0295817Y0203421D01*
X0295876Y0203462D01*
X0295938Y0203499D01*
X0296001Y0203534D01*
X0296067Y0203565D01*
X0296134Y0203592D01*
X0296202Y0203615D01*
X0296271Y0203635D01*
X0296342Y0203651D01*
X0296413Y0203663D01*
X0296485Y0203671D01*
X0296557Y0203675D01*
X0296629Y0203675D01*
X0296701Y0203671D01*
X0296773Y0203663D01*
X0296844Y0203651D01*
X0296915Y0203635D01*
X0296984Y0203615D01*
X0297052Y0203592D01*
X0297119Y0203565D01*
X0297185Y0203534D01*
X0297248Y0203499D01*
X0297310Y0203462D01*
X0297369Y0203421D01*
X0297426Y0203376D01*
X0297480Y0203329D01*
X0297532Y0203278D01*
X0297581Y0203225D01*
X0297627Y0203170D01*
X0297670Y0203111D01*
X0297709Y0203051D01*
X0297745Y0202988D01*
X0297778Y0202924D01*
X0297807Y0202858D01*
X0297832Y0202790D01*
X0297854Y0202721D01*
X0297871Y0202651D01*
X0297885Y0202581D01*
X0297895Y0202509D01*
X0297901Y0202437D01*
X0297903Y0202365D01*
X0297901Y0202293D01*
X0297895Y0202221D01*
X0297885Y0202149D01*
X0297871Y0202079D01*
X0297854Y0202009D01*
X0297832Y0201940D01*
X0297807Y0201872D01*
X0297778Y0201806D01*
X0297745Y0201742D01*
X0297709Y0201679D01*
X0297670Y0201619D01*
X0297627Y0201560D01*
X0297581Y0201505D01*
X0297532Y0201452D01*
X0297480Y0201401D01*
X0297426Y0201354D01*
X0297369Y0201309D01*
X0297310Y0201268D01*
X0297248Y0201231D01*
X0297185Y0201196D01*
X0297119Y0201165D01*
X0297052Y0201138D01*
X0296984Y0201115D01*
X0296915Y0201095D01*
X0296844Y0201079D01*
X0296773Y0201067D01*
X0296701Y0201059D01*
X0296629Y0201055D01*
X0296557Y0201055D01*
X0296485Y0201059D01*
X0296413Y0201067D01*
X0296342Y0201079D01*
X0296271Y0201095D01*
X0296202Y0201115D01*
X0296134Y0201138D01*
X0296067Y0201165D01*
X0296001Y0201196D01*
X0295938Y0201231D01*
X0295876Y0201268D01*
X0295817Y0201309D01*
X0295760Y0201354D01*
X0295706Y0201401D01*
X0295654Y0201452D01*
X0295605Y0201505D01*
X0295559Y0201560D01*
X0295516Y0201619D01*
X0295477Y0201679D01*
X0295441Y0201742D01*
X0295408Y0201806D01*
X0295379Y0201872D01*
X0295354Y0201940D01*
X0295332Y0202009D01*
X0295315Y0202079D01*
X0295301Y0202149D01*
X0295291Y0202221D01*
X0295285Y0202293D01*
X0295283Y0202365D01*
X0317134Y0202344D02*
X0317136Y0202416D01*
X0317142Y0202488D01*
X0317152Y0202560D01*
X0317166Y0202630D01*
X0317183Y0202700D01*
X0317205Y0202769D01*
X0317230Y0202837D01*
X0317259Y0202903D01*
X0317292Y0202967D01*
X0317328Y0203030D01*
X0317367Y0203090D01*
X0317410Y0203149D01*
X0317456Y0203204D01*
X0317505Y0203257D01*
X0317557Y0203308D01*
X0317611Y0203355D01*
X0317668Y0203400D01*
X0317727Y0203441D01*
X0317789Y0203478D01*
X0317852Y0203513D01*
X0317918Y0203544D01*
X0317985Y0203571D01*
X0318053Y0203594D01*
X0318122Y0203614D01*
X0318193Y0203630D01*
X0318264Y0203642D01*
X0318336Y0203650D01*
X0318408Y0203654D01*
X0318480Y0203654D01*
X0318552Y0203650D01*
X0318624Y0203642D01*
X0318695Y0203630D01*
X0318766Y0203614D01*
X0318835Y0203594D01*
X0318903Y0203571D01*
X0318970Y0203544D01*
X0319036Y0203513D01*
X0319099Y0203478D01*
X0319161Y0203441D01*
X0319220Y0203400D01*
X0319277Y0203355D01*
X0319331Y0203308D01*
X0319383Y0203257D01*
X0319432Y0203204D01*
X0319478Y0203149D01*
X0319521Y0203090D01*
X0319560Y0203030D01*
X0319596Y0202967D01*
X0319629Y0202903D01*
X0319658Y0202837D01*
X0319683Y0202769D01*
X0319705Y0202700D01*
X0319722Y0202630D01*
X0319736Y0202560D01*
X0319746Y0202488D01*
X0319752Y0202416D01*
X0319754Y0202344D01*
X0319752Y0202272D01*
X0319746Y0202200D01*
X0319736Y0202128D01*
X0319722Y0202058D01*
X0319705Y0201988D01*
X0319683Y0201919D01*
X0319658Y0201851D01*
X0319629Y0201785D01*
X0319596Y0201721D01*
X0319560Y0201658D01*
X0319521Y0201598D01*
X0319478Y0201539D01*
X0319432Y0201484D01*
X0319383Y0201431D01*
X0319331Y0201380D01*
X0319277Y0201333D01*
X0319220Y0201288D01*
X0319161Y0201247D01*
X0319099Y0201210D01*
X0319036Y0201175D01*
X0318970Y0201144D01*
X0318903Y0201117D01*
X0318835Y0201094D01*
X0318766Y0201074D01*
X0318695Y0201058D01*
X0318624Y0201046D01*
X0318552Y0201038D01*
X0318480Y0201034D01*
X0318408Y0201034D01*
X0318336Y0201038D01*
X0318264Y0201046D01*
X0318193Y0201058D01*
X0318122Y0201074D01*
X0318053Y0201094D01*
X0317985Y0201117D01*
X0317918Y0201144D01*
X0317852Y0201175D01*
X0317789Y0201210D01*
X0317727Y0201247D01*
X0317668Y0201288D01*
X0317611Y0201333D01*
X0317557Y0201380D01*
X0317505Y0201431D01*
X0317456Y0201484D01*
X0317410Y0201539D01*
X0317367Y0201598D01*
X0317328Y0201658D01*
X0317292Y0201721D01*
X0317259Y0201785D01*
X0317230Y0201851D01*
X0317205Y0201919D01*
X0317183Y0201988D01*
X0317166Y0202058D01*
X0317152Y0202128D01*
X0317142Y0202200D01*
X0317136Y0202272D01*
X0317134Y0202344D01*
X0317130Y0178166D02*
X0317132Y0178238D01*
X0317138Y0178310D01*
X0317148Y0178382D01*
X0317162Y0178452D01*
X0317179Y0178522D01*
X0317201Y0178591D01*
X0317226Y0178659D01*
X0317255Y0178725D01*
X0317288Y0178789D01*
X0317324Y0178852D01*
X0317363Y0178912D01*
X0317406Y0178971D01*
X0317452Y0179026D01*
X0317501Y0179079D01*
X0317553Y0179130D01*
X0317607Y0179177D01*
X0317664Y0179222D01*
X0317723Y0179263D01*
X0317785Y0179300D01*
X0317848Y0179335D01*
X0317914Y0179366D01*
X0317981Y0179393D01*
X0318049Y0179416D01*
X0318118Y0179436D01*
X0318189Y0179452D01*
X0318260Y0179464D01*
X0318332Y0179472D01*
X0318404Y0179476D01*
X0318476Y0179476D01*
X0318548Y0179472D01*
X0318620Y0179464D01*
X0318691Y0179452D01*
X0318762Y0179436D01*
X0318831Y0179416D01*
X0318899Y0179393D01*
X0318966Y0179366D01*
X0319032Y0179335D01*
X0319095Y0179300D01*
X0319157Y0179263D01*
X0319216Y0179222D01*
X0319273Y0179177D01*
X0319327Y0179130D01*
X0319379Y0179079D01*
X0319428Y0179026D01*
X0319474Y0178971D01*
X0319517Y0178912D01*
X0319556Y0178852D01*
X0319592Y0178789D01*
X0319625Y0178725D01*
X0319654Y0178659D01*
X0319679Y0178591D01*
X0319701Y0178522D01*
X0319718Y0178452D01*
X0319732Y0178382D01*
X0319742Y0178310D01*
X0319748Y0178238D01*
X0319750Y0178166D01*
X0319748Y0178094D01*
X0319742Y0178022D01*
X0319732Y0177950D01*
X0319718Y0177880D01*
X0319701Y0177810D01*
X0319679Y0177741D01*
X0319654Y0177673D01*
X0319625Y0177607D01*
X0319592Y0177543D01*
X0319556Y0177480D01*
X0319517Y0177420D01*
X0319474Y0177361D01*
X0319428Y0177306D01*
X0319379Y0177253D01*
X0319327Y0177202D01*
X0319273Y0177155D01*
X0319216Y0177110D01*
X0319157Y0177069D01*
X0319095Y0177032D01*
X0319032Y0176997D01*
X0318966Y0176966D01*
X0318899Y0176939D01*
X0318831Y0176916D01*
X0318762Y0176896D01*
X0318691Y0176880D01*
X0318620Y0176868D01*
X0318548Y0176860D01*
X0318476Y0176856D01*
X0318404Y0176856D01*
X0318332Y0176860D01*
X0318260Y0176868D01*
X0318189Y0176880D01*
X0318118Y0176896D01*
X0318049Y0176916D01*
X0317981Y0176939D01*
X0317914Y0176966D01*
X0317848Y0176997D01*
X0317785Y0177032D01*
X0317723Y0177069D01*
X0317664Y0177110D01*
X0317607Y0177155D01*
X0317553Y0177202D01*
X0317501Y0177253D01*
X0317452Y0177306D01*
X0317406Y0177361D01*
X0317363Y0177420D01*
X0317324Y0177480D01*
X0317288Y0177543D01*
X0317255Y0177607D01*
X0317226Y0177673D01*
X0317201Y0177741D01*
X0317179Y0177810D01*
X0317162Y0177880D01*
X0317148Y0177950D01*
X0317138Y0178022D01*
X0317132Y0178094D01*
X0317130Y0178166D01*
D14*
X0316307Y0154502D02*
X0313945Y0154502D01*
X0316307Y0154502D02*
X0316307Y0151352D01*
X0307645Y0154502D02*
X0305283Y0154502D01*
X0305283Y0151352D01*
X0281307Y0151352D02*
X0281307Y0154502D01*
X0278945Y0154502D01*
X0272645Y0154502D02*
X0270283Y0154502D01*
X0270283Y0151352D01*
X0246307Y0151352D02*
X0246307Y0154502D01*
X0243945Y0154502D01*
X0237645Y0154502D02*
X0235283Y0154502D01*
X0235283Y0151352D01*
X0209732Y0167497D02*
X0209732Y0170878D01*
X0205789Y0171978D02*
X0203675Y0171978D01*
X0199732Y0170878D02*
X0199732Y0167497D01*
X0175244Y0183931D02*
X0175244Y0187081D01*
X0175244Y0183931D02*
X0172882Y0183931D01*
X0166582Y0183931D02*
X0164220Y0183931D01*
X0164220Y0187081D01*
X0157232Y0199187D02*
X0152232Y0199187D01*
X0149732Y0201687D01*
X0147232Y0199187D01*
X0142232Y0199187D01*
X0139732Y0201687D01*
X0137232Y0199187D01*
X0132232Y0199187D01*
X0129732Y0201687D01*
X0129732Y0206687D01*
X0132232Y0209187D01*
X0137232Y0209187D01*
X0139732Y0206687D01*
X0142232Y0209187D01*
X0147232Y0209187D01*
X0149732Y0206687D01*
X0152232Y0209187D01*
X0157232Y0209187D01*
X0159732Y0206687D01*
X0159732Y0201687D01*
X0157232Y0199187D01*
X0179732Y0201687D02*
X0182232Y0199187D01*
X0187232Y0199187D01*
X0189732Y0201687D01*
X0192232Y0199187D01*
X0197232Y0199187D01*
X0199732Y0201687D01*
X0202232Y0199187D01*
X0207232Y0199187D01*
X0209732Y0201687D01*
X0209732Y0206687D01*
X0207232Y0209187D01*
X0202232Y0209187D01*
X0199732Y0206687D01*
X0197232Y0209187D01*
X0192232Y0209187D01*
X0189732Y0206687D01*
X0187232Y0209187D01*
X0182232Y0209187D01*
X0179732Y0206687D01*
X0179732Y0201687D01*
X0224732Y0201687D02*
X0227232Y0199187D01*
X0232232Y0199187D01*
X0234732Y0201687D01*
X0237232Y0199187D01*
X0242232Y0199187D01*
X0244732Y0201687D01*
X0247232Y0199187D01*
X0252232Y0199187D01*
X0254732Y0201687D01*
X0254732Y0206687D01*
X0252232Y0209187D01*
X0247232Y0209187D01*
X0244732Y0206687D01*
X0242232Y0209187D01*
X0237232Y0209187D01*
X0234732Y0206687D01*
X0232232Y0209187D01*
X0227232Y0209187D01*
X0224732Y0206687D01*
X0224732Y0201687D01*
X0127744Y0182081D02*
X0127744Y0178931D01*
X0125382Y0178931D01*
X0119082Y0178931D02*
X0116720Y0178931D01*
X0116720Y0182081D01*
X0117232Y0199187D02*
X0112232Y0199187D01*
X0109732Y0201687D01*
X0107232Y0199187D01*
X0102232Y0199187D01*
X0099732Y0201687D01*
X0099732Y0206687D01*
X0102232Y0209187D01*
X0107232Y0209187D01*
X0109732Y0206687D01*
X0112232Y0209187D01*
X0117232Y0209187D01*
X0119732Y0206687D01*
X0119732Y0201687D01*
X0117232Y0199187D01*
X0059732Y0201687D02*
X0057232Y0199187D01*
X0052232Y0199187D01*
X0049732Y0201687D01*
X0047232Y0199187D01*
X0042232Y0199187D01*
X0039732Y0201687D01*
X0039732Y0206687D01*
X0042232Y0209187D01*
X0047232Y0209187D01*
X0049732Y0206687D01*
X0052232Y0209187D01*
X0057232Y0209187D01*
X0059732Y0206687D01*
X0059732Y0201687D01*
X0054732Y0156252D02*
X0054732Y0152871D01*
X0050789Y0151771D02*
X0048675Y0151771D01*
X0044732Y0152871D02*
X0044732Y0156252D01*
X0201700Y0048478D02*
X0204850Y0048478D01*
X0204850Y0046116D01*
X0204850Y0039817D02*
X0204850Y0037455D01*
X0201700Y0037455D01*
X0272370Y0039620D02*
X0273945Y0039620D01*
X0273945Y0044738D01*
X0279456Y0044738D01*
X0273945Y0044738D02*
X0272370Y0044738D01*
X0273945Y0039620D02*
X0279456Y0039620D01*
X0310476Y0059805D02*
X0318405Y0059805D01*
X0326476Y0063305D02*
X0326476Y0080305D01*
X0318523Y0083805D02*
X0310476Y0083805D01*
X0302476Y0080305D02*
X0302476Y0063305D01*
X0307476Y0071805D02*
X0307478Y0071977D01*
X0307484Y0072148D01*
X0307495Y0072320D01*
X0307510Y0072491D01*
X0307529Y0072662D01*
X0307552Y0072832D01*
X0307579Y0073002D01*
X0307611Y0073171D01*
X0307646Y0073339D01*
X0307686Y0073506D01*
X0307730Y0073672D01*
X0307777Y0073837D01*
X0307829Y0074001D01*
X0307885Y0074163D01*
X0307945Y0074324D01*
X0308009Y0074484D01*
X0308077Y0074642D01*
X0308148Y0074798D01*
X0308223Y0074952D01*
X0308303Y0075105D01*
X0308385Y0075255D01*
X0308472Y0075404D01*
X0308562Y0075550D01*
X0308656Y0075694D01*
X0308753Y0075836D01*
X0308854Y0075975D01*
X0308958Y0076112D01*
X0309065Y0076246D01*
X0309176Y0076377D01*
X0309289Y0076506D01*
X0309406Y0076632D01*
X0309526Y0076755D01*
X0309649Y0076875D01*
X0309775Y0076992D01*
X0309904Y0077105D01*
X0310035Y0077216D01*
X0310169Y0077323D01*
X0310306Y0077427D01*
X0310445Y0077528D01*
X0310587Y0077625D01*
X0310731Y0077719D01*
X0310877Y0077809D01*
X0311026Y0077896D01*
X0311176Y0077978D01*
X0311329Y0078058D01*
X0311483Y0078133D01*
X0311639Y0078204D01*
X0311797Y0078272D01*
X0311957Y0078336D01*
X0312118Y0078396D01*
X0312280Y0078452D01*
X0312444Y0078504D01*
X0312609Y0078551D01*
X0312775Y0078595D01*
X0312942Y0078635D01*
X0313110Y0078670D01*
X0313279Y0078702D01*
X0313449Y0078729D01*
X0313619Y0078752D01*
X0313790Y0078771D01*
X0313961Y0078786D01*
X0314133Y0078797D01*
X0314304Y0078803D01*
X0314476Y0078805D01*
X0314648Y0078803D01*
X0314819Y0078797D01*
X0314991Y0078786D01*
X0315162Y0078771D01*
X0315333Y0078752D01*
X0315503Y0078729D01*
X0315673Y0078702D01*
X0315842Y0078670D01*
X0316010Y0078635D01*
X0316177Y0078595D01*
X0316343Y0078551D01*
X0316508Y0078504D01*
X0316672Y0078452D01*
X0316834Y0078396D01*
X0316995Y0078336D01*
X0317155Y0078272D01*
X0317313Y0078204D01*
X0317469Y0078133D01*
X0317623Y0078058D01*
X0317776Y0077978D01*
X0317926Y0077896D01*
X0318075Y0077809D01*
X0318221Y0077719D01*
X0318365Y0077625D01*
X0318507Y0077528D01*
X0318646Y0077427D01*
X0318783Y0077323D01*
X0318917Y0077216D01*
X0319048Y0077105D01*
X0319177Y0076992D01*
X0319303Y0076875D01*
X0319426Y0076755D01*
X0319546Y0076632D01*
X0319663Y0076506D01*
X0319776Y0076377D01*
X0319887Y0076246D01*
X0319994Y0076112D01*
X0320098Y0075975D01*
X0320199Y0075836D01*
X0320296Y0075694D01*
X0320390Y0075550D01*
X0320480Y0075404D01*
X0320567Y0075255D01*
X0320649Y0075105D01*
X0320729Y0074952D01*
X0320804Y0074798D01*
X0320875Y0074642D01*
X0320943Y0074484D01*
X0321007Y0074324D01*
X0321067Y0074163D01*
X0321123Y0074001D01*
X0321175Y0073837D01*
X0321222Y0073672D01*
X0321266Y0073506D01*
X0321306Y0073339D01*
X0321341Y0073171D01*
X0321373Y0073002D01*
X0321400Y0072832D01*
X0321423Y0072662D01*
X0321442Y0072491D01*
X0321457Y0072320D01*
X0321468Y0072148D01*
X0321474Y0071977D01*
X0321476Y0071805D01*
X0321474Y0071633D01*
X0321468Y0071462D01*
X0321457Y0071290D01*
X0321442Y0071119D01*
X0321423Y0070948D01*
X0321400Y0070778D01*
X0321373Y0070608D01*
X0321341Y0070439D01*
X0321306Y0070271D01*
X0321266Y0070104D01*
X0321222Y0069938D01*
X0321175Y0069773D01*
X0321123Y0069609D01*
X0321067Y0069447D01*
X0321007Y0069286D01*
X0320943Y0069126D01*
X0320875Y0068968D01*
X0320804Y0068812D01*
X0320729Y0068658D01*
X0320649Y0068505D01*
X0320567Y0068355D01*
X0320480Y0068206D01*
X0320390Y0068060D01*
X0320296Y0067916D01*
X0320199Y0067774D01*
X0320098Y0067635D01*
X0319994Y0067498D01*
X0319887Y0067364D01*
X0319776Y0067233D01*
X0319663Y0067104D01*
X0319546Y0066978D01*
X0319426Y0066855D01*
X0319303Y0066735D01*
X0319177Y0066618D01*
X0319048Y0066505D01*
X0318917Y0066394D01*
X0318783Y0066287D01*
X0318646Y0066183D01*
X0318507Y0066082D01*
X0318365Y0065985D01*
X0318221Y0065891D01*
X0318075Y0065801D01*
X0317926Y0065714D01*
X0317776Y0065632D01*
X0317623Y0065552D01*
X0317469Y0065477D01*
X0317313Y0065406D01*
X0317155Y0065338D01*
X0316995Y0065274D01*
X0316834Y0065214D01*
X0316672Y0065158D01*
X0316508Y0065106D01*
X0316343Y0065059D01*
X0316177Y0065015D01*
X0316010Y0064975D01*
X0315842Y0064940D01*
X0315673Y0064908D01*
X0315503Y0064881D01*
X0315333Y0064858D01*
X0315162Y0064839D01*
X0314991Y0064824D01*
X0314819Y0064813D01*
X0314648Y0064807D01*
X0314476Y0064805D01*
X0314304Y0064807D01*
X0314133Y0064813D01*
X0313961Y0064824D01*
X0313790Y0064839D01*
X0313619Y0064858D01*
X0313449Y0064881D01*
X0313279Y0064908D01*
X0313110Y0064940D01*
X0312942Y0064975D01*
X0312775Y0065015D01*
X0312609Y0065059D01*
X0312444Y0065106D01*
X0312280Y0065158D01*
X0312118Y0065214D01*
X0311957Y0065274D01*
X0311797Y0065338D01*
X0311639Y0065406D01*
X0311483Y0065477D01*
X0311329Y0065552D01*
X0311176Y0065632D01*
X0311026Y0065714D01*
X0310877Y0065801D01*
X0310731Y0065891D01*
X0310587Y0065985D01*
X0310445Y0066082D01*
X0310306Y0066183D01*
X0310169Y0066287D01*
X0310035Y0066394D01*
X0309904Y0066505D01*
X0309775Y0066618D01*
X0309649Y0066735D01*
X0309526Y0066855D01*
X0309406Y0066978D01*
X0309289Y0067104D01*
X0309176Y0067233D01*
X0309065Y0067364D01*
X0308958Y0067498D01*
X0308854Y0067635D01*
X0308753Y0067774D01*
X0308656Y0067916D01*
X0308562Y0068060D01*
X0308472Y0068206D01*
X0308385Y0068355D01*
X0308303Y0068505D01*
X0308223Y0068658D01*
X0308148Y0068812D01*
X0308077Y0068968D01*
X0308009Y0069126D01*
X0307945Y0069286D01*
X0307885Y0069447D01*
X0307829Y0069609D01*
X0307777Y0069773D01*
X0307730Y0069938D01*
X0307686Y0070104D01*
X0307646Y0070271D01*
X0307611Y0070439D01*
X0307579Y0070608D01*
X0307552Y0070778D01*
X0307529Y0070948D01*
X0307510Y0071119D01*
X0307495Y0071290D01*
X0307484Y0071462D01*
X0307478Y0071633D01*
X0307476Y0071805D01*
D15*
X0274437Y0047730D02*
X0274437Y0046229D01*
X0274937Y0046229D02*
X0273936Y0046229D01*
X0273464Y0046479D02*
X0273464Y0047480D01*
X0273214Y0047730D01*
X0272463Y0047730D01*
X0272463Y0046229D01*
X0273214Y0046229D01*
X0273464Y0046479D01*
X0273936Y0047230D02*
X0274437Y0047730D01*
X0210644Y0045794D02*
X0210144Y0045294D01*
X0210144Y0045544D02*
X0210144Y0044793D01*
X0210644Y0044793D02*
X0209143Y0044793D01*
X0209143Y0045544D01*
X0209393Y0045794D01*
X0209894Y0045794D01*
X0210144Y0045544D01*
X0210644Y0044321D02*
X0210644Y0043320D01*
X0209143Y0043320D01*
X0209143Y0044321D01*
X0209894Y0043820D02*
X0209894Y0043320D01*
X0209143Y0042848D02*
X0209143Y0041847D01*
X0209143Y0042347D02*
X0210644Y0042347D01*
X0210644Y0041374D02*
X0210144Y0040874D01*
X0210144Y0041124D02*
X0210144Y0040374D01*
X0210644Y0040374D02*
X0209143Y0040374D01*
X0209143Y0041124D01*
X0209393Y0041374D01*
X0209894Y0041374D01*
X0210144Y0041124D01*
X0210644Y0039901D02*
X0210644Y0038900D01*
X0209143Y0038900D01*
X0209143Y0039901D01*
X0209894Y0039401D02*
X0209894Y0038900D01*
X0210144Y0038428D02*
X0209143Y0038428D01*
X0210144Y0038428D02*
X0210644Y0037927D01*
X0210144Y0037427D01*
X0209143Y0037427D01*
X0209143Y0036955D02*
X0210644Y0036955D01*
X0209143Y0035954D01*
X0210644Y0035954D01*
X0210644Y0035472D02*
X0210644Y0034972D01*
X0210644Y0035222D02*
X0209143Y0035222D01*
X0209143Y0034972D02*
X0209143Y0035472D01*
X0209894Y0034499D02*
X0209894Y0033498D01*
X0210394Y0033026D02*
X0210644Y0032776D01*
X0210644Y0032275D01*
X0210394Y0032025D01*
X0209393Y0032025D01*
X0209143Y0032275D01*
X0209143Y0032776D01*
X0209393Y0033026D01*
X0210394Y0033026D01*
X0210644Y0033026D02*
X0210144Y0032526D01*
X0052810Y0144511D02*
X0051809Y0144511D01*
X0052309Y0144511D02*
X0052309Y0146012D01*
X0051809Y0145512D01*
X0051336Y0146012D02*
X0051336Y0144761D01*
X0051086Y0144511D01*
X0050586Y0144511D01*
X0050335Y0144761D01*
X0050335Y0146012D01*
X0123086Y0173137D02*
X0123086Y0174638D01*
X0123586Y0174638D02*
X0122585Y0174638D01*
X0124059Y0174138D02*
X0124559Y0174638D01*
X0124559Y0173137D01*
X0124059Y0173137D02*
X0125060Y0173137D01*
X0170085Y0179638D02*
X0171086Y0179638D01*
X0170586Y0179638D02*
X0170586Y0178137D01*
X0171559Y0178137D02*
X0172560Y0179138D01*
X0172560Y0179388D01*
X0172309Y0179638D01*
X0171809Y0179638D01*
X0171559Y0179388D01*
X0171559Y0178137D02*
X0172560Y0178137D01*
X0201282Y0177987D02*
X0201532Y0177737D01*
X0202033Y0177737D01*
X0202283Y0177987D01*
X0202283Y0179238D01*
X0202755Y0178988D02*
X0203005Y0179238D01*
X0203506Y0179238D01*
X0203756Y0178988D01*
X0203756Y0178738D01*
X0202755Y0177737D01*
X0203756Y0177737D01*
X0201282Y0177987D02*
X0201282Y0179238D01*
X0237595Y0160047D02*
X0237845Y0160297D01*
X0238346Y0160297D01*
X0238596Y0160047D01*
X0238596Y0159046D01*
X0238346Y0158796D01*
X0237845Y0158796D01*
X0237595Y0159046D01*
X0237595Y0160047D01*
X0238095Y0159297D02*
X0238596Y0158796D01*
X0239068Y0159547D02*
X0240069Y0159547D01*
X0240541Y0159297D02*
X0241292Y0159297D01*
X0241542Y0159547D01*
X0241542Y0160047D01*
X0241292Y0160297D01*
X0240541Y0160297D01*
X0240541Y0158796D01*
X0241042Y0159297D02*
X0241542Y0158796D01*
X0242015Y0158796D02*
X0243016Y0158796D01*
X0243488Y0158796D02*
X0244239Y0158796D01*
X0244489Y0159046D01*
X0244489Y0160047D01*
X0244239Y0160297D01*
X0243488Y0160297D01*
X0243488Y0158796D01*
X0242515Y0159547D02*
X0242015Y0159547D01*
X0242015Y0160297D02*
X0242015Y0158796D01*
X0242015Y0160297D02*
X0243016Y0160297D01*
X0272595Y0160047D02*
X0272845Y0160297D01*
X0273346Y0160297D01*
X0273596Y0160047D01*
X0273596Y0159046D01*
X0273346Y0158796D01*
X0272845Y0158796D01*
X0272595Y0159046D01*
X0272595Y0160047D01*
X0273095Y0159297D02*
X0273596Y0158796D01*
X0274068Y0159547D02*
X0275069Y0159547D01*
X0275541Y0160047D02*
X0275541Y0159046D01*
X0275792Y0158796D01*
X0276292Y0158796D01*
X0276542Y0159046D01*
X0276542Y0159547D01*
X0276042Y0159547D01*
X0276542Y0160047D02*
X0276292Y0160297D01*
X0275792Y0160297D01*
X0275541Y0160047D01*
X0277015Y0160297D02*
X0277765Y0160297D01*
X0278016Y0160047D01*
X0278016Y0159547D01*
X0277765Y0159297D01*
X0277015Y0159297D01*
X0277515Y0159297D02*
X0278016Y0158796D01*
X0278488Y0158796D02*
X0279489Y0158796D01*
X0279961Y0158796D02*
X0280962Y0158796D01*
X0281434Y0158796D02*
X0281434Y0160297D01*
X0282435Y0158796D01*
X0282435Y0160297D01*
X0280962Y0160297D02*
X0279961Y0160297D01*
X0279961Y0158796D01*
X0279961Y0159547D02*
X0280462Y0159547D01*
X0279489Y0160297D02*
X0278488Y0160297D01*
X0278488Y0158796D01*
X0278488Y0159547D02*
X0278988Y0159547D01*
X0277015Y0160297D02*
X0277015Y0158796D01*
X0307595Y0159046D02*
X0307845Y0158796D01*
X0308346Y0158796D01*
X0308596Y0159046D01*
X0308596Y0160047D01*
X0308346Y0160297D01*
X0307845Y0160297D01*
X0307595Y0160047D01*
X0307595Y0159046D01*
X0308095Y0159297D02*
X0308596Y0158796D01*
X0309068Y0159547D02*
X0310069Y0159547D01*
X0310541Y0159547D02*
X0311292Y0159547D01*
X0311542Y0159297D01*
X0311542Y0159046D01*
X0311292Y0158796D01*
X0310541Y0158796D01*
X0310541Y0160297D01*
X0311292Y0160297D01*
X0311542Y0160047D01*
X0311542Y0159797D01*
X0311292Y0159547D01*
X0312015Y0160297D02*
X0312015Y0158796D01*
X0313016Y0158796D01*
X0313488Y0159046D02*
X0313738Y0158796D01*
X0314239Y0158796D01*
X0314489Y0159046D01*
X0314489Y0160297D01*
X0314961Y0160297D02*
X0314961Y0158796D01*
X0315962Y0158796D01*
X0315462Y0159547D02*
X0314961Y0159547D01*
X0314961Y0160297D02*
X0315962Y0160297D01*
X0313488Y0160297D02*
X0313488Y0159046D01*
D16*
X0080126Y0204187D03*
D17*
X0080530Y0059276D02*
X0082998Y0059276D01*
X0082998Y0058659D01*
X0080530Y0056191D01*
X0080530Y0055573D01*
X0079315Y0056191D02*
X0078698Y0055573D01*
X0077464Y0055573D01*
X0076846Y0056191D01*
X0079315Y0058659D01*
X0079315Y0056191D01*
X0079315Y0058659D02*
X0078698Y0059276D01*
X0077464Y0059276D01*
X0076846Y0058659D01*
X0076846Y0056191D01*
X0075632Y0057425D02*
X0073163Y0057425D01*
X0071949Y0057425D02*
X0071332Y0056808D01*
X0069480Y0056808D01*
X0068266Y0056808D02*
X0068266Y0056191D01*
X0067649Y0055573D01*
X0066414Y0055573D01*
X0065797Y0056191D01*
X0064583Y0055573D02*
X0062114Y0055573D01*
X0062114Y0059276D01*
X0064583Y0059276D01*
X0065797Y0058659D02*
X0065797Y0058042D01*
X0066414Y0057425D01*
X0067649Y0057425D01*
X0068266Y0056808D01*
X0069480Y0055573D02*
X0069480Y0059276D01*
X0071332Y0059276D01*
X0071949Y0058659D01*
X0071949Y0057425D01*
X0068266Y0058659D02*
X0067649Y0059276D01*
X0066414Y0059276D01*
X0065797Y0058659D01*
X0063348Y0057425D02*
X0062114Y0057425D01*
D18*
X0055323Y0056274D03*
X0090756Y0056274D03*
D19*
X0056032Y0158561D03*
X0198432Y0165187D03*
M02*
