G75*
%MOIN*%
%OFA0B0*%
%FSLAX25Y25*%
%IPPOS*%
%LPD*%
%AMOC8*
5,1,8,0,0,1.08239X$1,22.5*
%
%ADD10R,0.07087X0.06299*%
%ADD11R,0.06299X0.07087*%
%ADD12R,0.03268X0.02480*%
%ADD13C,0.07400*%
%ADD14C,0.06299*%
%ADD15R,0.01378X0.05512*%
%ADD16R,0.07087X0.07480*%
%ADD17R,0.07480X0.07480*%
%ADD18R,0.06299X0.07098*%
%ADD19R,0.03150X0.03543*%
%ADD20R,0.04724X0.03150*%
%ADD21R,0.03150X0.04724*%
%ADD22R,0.04724X0.02165*%
%ADD23C,0.01000*%
%ADD24C,0.01200*%
%ADD25C,0.02400*%
%ADD26C,0.03962*%
%ADD27C,0.01600*%
%ADD28C,0.01969*%
%ADD29C,0.04000*%
D10*
X0069500Y0011764D03*
X0069500Y0022787D03*
D11*
X0067512Y0057276D03*
X0056488Y0057276D03*
X0047512Y0074776D03*
X0036488Y0074776D03*
D12*
X0094126Y0079185D03*
X0094126Y0088240D03*
D13*
X0107551Y0086213D03*
X0107551Y0076213D03*
X0107551Y0066213D03*
X0107551Y0056213D03*
X0107551Y0046213D03*
X0107551Y0036213D03*
X0107551Y0026213D03*
X0107551Y0016213D03*
X0016449Y0016213D03*
X0016449Y0026213D03*
X0016449Y0036213D03*
X0016449Y0046213D03*
X0016449Y0056213D03*
X0016449Y0066213D03*
X0016449Y0076213D03*
X0016449Y0086213D03*
D14*
X0013063Y0113378D03*
X0020937Y0113378D03*
D15*
X0091882Y0099717D03*
X0094441Y0099717D03*
X0097000Y0099717D03*
X0099559Y0099717D03*
X0102118Y0099717D03*
D16*
X0112748Y0110150D03*
X0081252Y0110150D03*
D17*
X0092000Y0110150D03*
X0102000Y0110150D03*
D18*
X0072598Y0102276D03*
X0061402Y0102276D03*
X0047598Y0102276D03*
X0036402Y0102276D03*
D19*
X0083260Y0068713D03*
X0090740Y0068713D03*
X0087000Y0060445D03*
D20*
X0072000Y0078732D03*
X0072000Y0085819D03*
X0062000Y0085819D03*
X0062000Y0078732D03*
X0034500Y0083732D03*
X0034500Y0090819D03*
X0032000Y0015819D03*
X0032000Y0008732D03*
D21*
X0045957Y0014776D03*
X0053043Y0014776D03*
X0080957Y0027276D03*
X0088043Y0027276D03*
D22*
X0087119Y0038535D03*
X0087119Y0046016D03*
X0076881Y0046016D03*
X0076881Y0042276D03*
X0076881Y0038535D03*
X0047119Y0038535D03*
X0047119Y0046016D03*
X0036881Y0046016D03*
X0036881Y0042276D03*
X0036881Y0038535D03*
D23*
X0036650Y0038926D01*
X0033950Y0038926D01*
X0016850Y0056026D01*
X0016449Y0056213D01*
X0036881Y0042276D02*
X0037100Y0042076D01*
X0043850Y0042076D01*
X0047000Y0038926D01*
X0047119Y0038535D01*
X0052850Y0015076D02*
X0053043Y0014776D01*
X0076700Y0046126D02*
X0076881Y0046016D01*
X0076700Y0046126D02*
X0076700Y0061876D01*
X0068600Y0069976D01*
X0068600Y0074026D01*
X0064100Y0078526D01*
X0062300Y0078526D01*
X0062000Y0078732D01*
X0062000Y0085819D02*
X0061850Y0086176D01*
X0061850Y0101926D01*
X0061402Y0102276D01*
X0071750Y0085726D02*
X0072000Y0085819D01*
X0072000Y0078732D02*
X0071750Y0078526D01*
X0071750Y0076726D01*
X0070400Y0075376D01*
X0070400Y0070876D01*
X0082550Y0058726D01*
X0082550Y0050626D01*
X0087050Y0046126D01*
X0087119Y0046016D01*
X0034850Y0091126D02*
X0034500Y0090819D01*
X0034850Y0091126D02*
X0034850Y0100576D01*
X0036200Y0101926D01*
X0036402Y0102276D01*
D24*
X0011072Y0006829D02*
X0006600Y0006815D01*
X0006600Y0011355D01*
X0006638Y0011263D01*
X0011072Y0006829D01*
X0010886Y0007015D02*
X0006600Y0007015D01*
X0006600Y0008214D02*
X0009688Y0008214D01*
X0008489Y0009412D02*
X0006600Y0009412D01*
X0006600Y0010611D02*
X0007291Y0010611D01*
X0016849Y0015813D02*
X0016849Y0016613D01*
X0021749Y0016613D01*
X0021749Y0016630D01*
X0021618Y0017454D01*
X0021361Y0018247D01*
X0020982Y0018990D01*
X0020491Y0019665D01*
X0019902Y0020255D01*
X0019227Y0020746D01*
X0018483Y0021124D01*
X0017927Y0021305D01*
X0019338Y0021889D01*
X0020772Y0023324D01*
X0021549Y0025198D01*
X0021549Y0027227D01*
X0020772Y0029102D01*
X0019338Y0030536D01*
X0017705Y0031213D01*
X0019338Y0031889D01*
X0020772Y0033324D01*
X0021549Y0035198D01*
X0021549Y0037227D01*
X0020772Y0039102D01*
X0019338Y0040536D01*
X0017705Y0041213D01*
X0019338Y0041889D01*
X0020772Y0043324D01*
X0021549Y0045198D01*
X0021549Y0047227D01*
X0020772Y0049102D01*
X0019338Y0050536D01*
X0017705Y0051213D01*
X0018604Y0051585D01*
X0033119Y0037069D01*
X0033119Y0036873D01*
X0033939Y0036053D01*
X0039824Y0036053D01*
X0040644Y0036873D01*
X0040644Y0040198D01*
X0040563Y0040278D01*
X0040735Y0040575D01*
X0040844Y0040982D01*
X0040844Y0042276D01*
X0040844Y0042901D01*
X0041421Y0043478D01*
X0041812Y0044422D01*
X0041812Y0047609D01*
X0041421Y0048553D01*
X0040699Y0049276D01*
X0040650Y0049296D01*
X0040650Y0049491D01*
X0040857Y0049698D01*
X0041550Y0051371D01*
X0041550Y0053181D01*
X0040857Y0054853D01*
X0039577Y0056133D01*
X0037905Y0056825D01*
X0036095Y0056825D01*
X0034423Y0056133D01*
X0033143Y0054853D01*
X0032450Y0053181D01*
X0032450Y0051371D01*
X0033113Y0049771D01*
X0033113Y0049296D01*
X0033064Y0049276D01*
X0032342Y0048553D01*
X0031951Y0047609D01*
X0031951Y0044422D01*
X0032342Y0043478D01*
X0032919Y0042901D01*
X0032919Y0042643D01*
X0021202Y0054361D01*
X0021549Y0055198D01*
X0021549Y0057227D01*
X0020772Y0059102D01*
X0019338Y0060536D01*
X0017705Y0061213D01*
X0019338Y0061889D01*
X0020772Y0063324D01*
X0021549Y0065198D01*
X0021549Y0067227D01*
X0020772Y0069102D01*
X0019338Y0070536D01*
X0017705Y0071213D01*
X0019338Y0071889D01*
X0020772Y0073324D01*
X0021549Y0075198D01*
X0021549Y0077227D01*
X0020772Y0079102D01*
X0019338Y0080536D01*
X0017705Y0081213D01*
X0019338Y0081889D01*
X0020772Y0083324D01*
X0021549Y0085198D01*
X0021549Y0087227D01*
X0020772Y0089102D01*
X0019338Y0090536D01*
X0017463Y0091313D01*
X0017111Y0091313D01*
X0023912Y0098113D01*
X0024453Y0099419D01*
X0024453Y0108807D01*
X0025785Y0110139D01*
X0026655Y0112241D01*
X0026655Y0114515D01*
X0026099Y0115858D01*
X0115396Y0115849D01*
X0115398Y0115490D01*
X0113348Y0115490D01*
X0113348Y0110750D01*
X0112148Y0110750D01*
X0112148Y0115490D01*
X0108994Y0115490D01*
X0108587Y0115381D01*
X0108222Y0115170D01*
X0107924Y0114872D01*
X0107714Y0114507D01*
X0107605Y0114100D01*
X0107605Y0110750D01*
X0112148Y0110750D01*
X0112148Y0109550D01*
X0107605Y0109550D01*
X0107605Y0106199D01*
X0107714Y0105792D01*
X0107924Y0105427D01*
X0108222Y0105129D01*
X0108587Y0104918D01*
X0108994Y0104809D01*
X0112148Y0104809D01*
X0112148Y0109550D01*
X0113348Y0109550D01*
X0113348Y0104809D01*
X0115443Y0104809D01*
X0115701Y0043199D01*
X0113820Y0045080D01*
X0113820Y0047459D01*
X0112865Y0049763D01*
X0111416Y0051213D01*
X0112865Y0052662D01*
X0113820Y0054966D01*
X0113820Y0057459D01*
X0112865Y0059763D01*
X0111102Y0061527D01*
X0110334Y0061845D01*
X0110440Y0061889D01*
X0111875Y0063324D01*
X0112651Y0065198D01*
X0112651Y0067227D01*
X0111875Y0069102D01*
X0110440Y0070536D01*
X0115586Y0070536D01*
X0115591Y0069338D02*
X0111639Y0069338D01*
X0112273Y0068139D02*
X0115596Y0068139D01*
X0115601Y0066941D02*
X0112651Y0066941D01*
X0112651Y0065742D02*
X0115606Y0065742D01*
X0115611Y0064544D02*
X0112380Y0064544D01*
X0111884Y0063345D02*
X0115616Y0063345D01*
X0115621Y0062147D02*
X0110698Y0062147D01*
X0111681Y0060948D02*
X0115626Y0060948D01*
X0115631Y0059750D02*
X0112871Y0059750D01*
X0113368Y0058551D02*
X0115636Y0058551D01*
X0115641Y0057353D02*
X0113820Y0057353D01*
X0113820Y0056154D02*
X0115647Y0056154D01*
X0115652Y0054956D02*
X0113815Y0054956D01*
X0113319Y0053757D02*
X0115657Y0053757D01*
X0115662Y0052559D02*
X0112762Y0052559D01*
X0111564Y0051360D02*
X0115667Y0051360D01*
X0115672Y0050161D02*
X0112467Y0050161D01*
X0113197Y0048963D02*
X0115677Y0048963D01*
X0115682Y0047764D02*
X0113693Y0047764D01*
X0113820Y0046566D02*
X0115687Y0046566D01*
X0115692Y0045367D02*
X0113820Y0045367D01*
X0114731Y0044169D02*
X0115697Y0044169D01*
X0103686Y0041213D02*
X0102237Y0039763D01*
X0101283Y0037459D01*
X0101283Y0037078D01*
X0097980Y0037078D01*
X0098368Y0038017D01*
X0098368Y0039834D01*
X0097673Y0041513D01*
X0096618Y0042569D01*
X0098962Y0044914D01*
X0099962Y0045913D01*
X0100503Y0047219D01*
X0100503Y0063482D01*
X0099962Y0064788D01*
X0095899Y0068851D01*
X0101762Y0074713D01*
X0102303Y0076019D01*
X0102303Y0082382D01*
X0101762Y0083688D01*
X0100762Y0084687D01*
X0099746Y0085704D01*
X0100508Y0086020D01*
X0102972Y0088483D01*
X0102451Y0087227D01*
X0102451Y0085198D01*
X0103228Y0083324D01*
X0104662Y0081889D01*
X0106295Y0081213D01*
X0104662Y0080536D01*
X0103228Y0079102D01*
X0102451Y0077227D01*
X0102451Y0075198D01*
X0103228Y0073324D01*
X0104662Y0071889D01*
X0106295Y0071213D01*
X0104662Y0070536D01*
X0103228Y0069102D01*
X0102451Y0067227D01*
X0102451Y0065198D01*
X0103228Y0063324D01*
X0104662Y0061889D01*
X0104769Y0061845D01*
X0104000Y0061527D01*
X0102237Y0059763D01*
X0101283Y0057459D01*
X0101283Y0054966D01*
X0102237Y0052662D01*
X0103686Y0051213D01*
X0102237Y0049763D01*
X0101283Y0047459D01*
X0101283Y0044966D01*
X0102237Y0042662D01*
X0103686Y0041213D01*
X0103127Y0041772D02*
X0097415Y0041772D01*
X0097019Y0042970D02*
X0102109Y0042970D01*
X0101613Y0044169D02*
X0098218Y0044169D01*
X0099416Y0045367D02*
X0101283Y0045367D01*
X0101283Y0046566D02*
X0100232Y0046566D01*
X0100503Y0047764D02*
X0101409Y0047764D01*
X0101905Y0048963D02*
X0100503Y0048963D01*
X0100503Y0050161D02*
X0102635Y0050161D01*
X0103539Y0051360D02*
X0100503Y0051360D01*
X0100503Y0052559D02*
X0102340Y0052559D01*
X0101783Y0053757D02*
X0100503Y0053757D01*
X0100503Y0054956D02*
X0101287Y0054956D01*
X0101283Y0056154D02*
X0100503Y0056154D01*
X0100503Y0057353D02*
X0101283Y0057353D01*
X0101735Y0058551D02*
X0100503Y0058551D01*
X0100503Y0059750D02*
X0102231Y0059750D01*
X0103422Y0060948D02*
X0100503Y0060948D01*
X0100503Y0062147D02*
X0104405Y0062147D01*
X0103219Y0063345D02*
X0100503Y0063345D01*
X0100063Y0064544D02*
X0102722Y0064544D01*
X0102451Y0065742D02*
X0099008Y0065742D01*
X0097809Y0066941D02*
X0102451Y0066941D01*
X0102829Y0068139D02*
X0096611Y0068139D01*
X0096386Y0069338D02*
X0103464Y0069338D01*
X0104662Y0070536D02*
X0097585Y0070536D01*
X0098783Y0071735D02*
X0105035Y0071735D01*
X0103618Y0072933D02*
X0099982Y0072933D01*
X0101180Y0074132D02*
X0102893Y0074132D01*
X0102451Y0075330D02*
X0102017Y0075330D01*
X0102303Y0076529D02*
X0102451Y0076529D01*
X0102303Y0077727D02*
X0102658Y0077727D01*
X0102303Y0078926D02*
X0103155Y0078926D01*
X0102303Y0080124D02*
X0104250Y0080124D01*
X0106029Y0081323D02*
X0102303Y0081323D01*
X0102245Y0082521D02*
X0104030Y0082521D01*
X0103064Y0083720D02*
X0101730Y0083720D01*
X0102567Y0084918D02*
X0100532Y0084918D01*
X0100605Y0086117D02*
X0102451Y0086117D01*
X0102488Y0087315D02*
X0101804Y0087315D01*
X0104980Y0090668D02*
X0105368Y0091606D01*
X0105368Y0096433D01*
X0105376Y0096450D01*
X0105376Y0098778D01*
X0105487Y0099046D01*
X0105487Y0100387D01*
X0105376Y0100655D01*
X0105376Y0102983D01*
X0104985Y0103927D01*
X0104262Y0104650D01*
X0103394Y0105009D01*
X0106320Y0105009D01*
X0107140Y0105830D01*
X0107140Y0114470D01*
X0106320Y0115290D01*
X0097680Y0115290D01*
X0097000Y0114610D01*
X0096320Y0115290D01*
X0087680Y0115290D01*
X0086860Y0114470D01*
X0086860Y0105830D01*
X0087680Y0105009D01*
X0096320Y0105009D01*
X0097000Y0105689D01*
X0097680Y0105009D01*
X0100842Y0105009D01*
X0099974Y0104650D01*
X0099252Y0103927D01*
X0099229Y0103872D01*
X0098290Y0103872D01*
X0098280Y0103862D01*
X0098269Y0103872D01*
X0095731Y0103872D01*
X0095720Y0103862D01*
X0095710Y0103872D01*
X0093346Y0103872D01*
X0093188Y0103963D01*
X0092782Y0104072D01*
X0091882Y0104072D01*
X0091882Y0099717D01*
X0091882Y0099717D01*
X0091882Y0104072D01*
X0090982Y0104072D01*
X0090575Y0103963D01*
X0090210Y0103753D01*
X0089913Y0103455D01*
X0089702Y0103090D01*
X0089593Y0102683D01*
X0089593Y0099717D01*
X0091882Y0099717D01*
X0091882Y0099716D01*
X0089593Y0099716D01*
X0089593Y0097657D01*
X0082440Y0104809D01*
X0085006Y0104809D01*
X0085413Y0104918D01*
X0085778Y0105129D01*
X0086076Y0105427D01*
X0086286Y0105792D01*
X0086395Y0106199D01*
X0086395Y0109550D01*
X0081852Y0109550D01*
X0081852Y0110750D01*
X0080652Y0110750D01*
X0080652Y0115490D01*
X0077498Y0115490D01*
X0077091Y0115381D01*
X0076726Y0115170D01*
X0076428Y0114872D01*
X0076218Y0114507D01*
X0076109Y0114100D01*
X0076109Y0110750D01*
X0080652Y0110750D01*
X0080652Y0109550D01*
X0076109Y0109550D01*
X0076109Y0108393D01*
X0068938Y0108393D01*
X0067994Y0108002D01*
X0067271Y0107280D01*
X0066880Y0106336D01*
X0066880Y0098215D01*
X0067271Y0097271D01*
X0067994Y0096549D01*
X0068938Y0096158D01*
X0076259Y0096158D01*
X0077203Y0096549D01*
X0077925Y0097271D01*
X0078317Y0098215D01*
X0078317Y0098373D01*
X0078828Y0098373D01*
X0089924Y0087278D01*
X0089924Y0086489D01*
X0090315Y0085545D01*
X0090914Y0084946D01*
X0091238Y0084163D01*
X0092408Y0082994D01*
X0091981Y0082994D01*
X0091037Y0082603D01*
X0090315Y0081880D01*
X0089924Y0080936D01*
X0089924Y0080124D01*
X0075762Y0080124D01*
X0075762Y0080887D02*
X0074942Y0081707D01*
X0069058Y0081707D01*
X0068238Y0080887D01*
X0068238Y0077075D01*
X0065762Y0079550D01*
X0065762Y0080887D01*
X0064942Y0081707D01*
X0059058Y0081707D01*
X0058238Y0080887D01*
X0058238Y0076578D01*
X0059058Y0075757D01*
X0061775Y0075757D01*
X0061512Y0075649D01*
X0061192Y0075328D01*
X0053230Y0075328D01*
X0053230Y0078830D01*
X0052839Y0079774D01*
X0052116Y0080496D01*
X0051172Y0080887D01*
X0046513Y0080887D01*
X0040912Y0086487D01*
X0039607Y0087028D01*
X0038773Y0087028D01*
X0038317Y0087485D01*
X0037444Y0087846D01*
X0038262Y0088664D01*
X0038262Y0092974D01*
X0037442Y0093794D01*
X0036750Y0093794D01*
X0036750Y0097326D01*
X0040131Y0097326D01*
X0040951Y0098146D01*
X0040951Y0106405D01*
X0040131Y0107225D01*
X0032672Y0107225D01*
X0031852Y0106405D01*
X0031852Y0098146D01*
X0032672Y0097326D01*
X0032950Y0097326D01*
X0032950Y0093794D01*
X0031558Y0093794D01*
X0030738Y0092974D01*
X0030738Y0088664D01*
X0031556Y0087846D01*
X0030683Y0087485D01*
X0029960Y0086762D01*
X0029569Y0085818D01*
X0029569Y0081647D01*
X0029960Y0080703D01*
X0030683Y0079980D01*
X0031627Y0079589D01*
X0032346Y0079589D01*
X0032058Y0079301D01*
X0031848Y0078936D01*
X0031739Y0078530D01*
X0031739Y0075376D01*
X0035888Y0075376D01*
X0035888Y0074176D01*
X0031739Y0074176D01*
X0031739Y0071022D01*
X0031848Y0070615D01*
X0032058Y0070250D01*
X0032356Y0069952D01*
X0032721Y0069741D01*
X0033128Y0069632D01*
X0035888Y0069632D01*
X0035888Y0074176D01*
X0037088Y0074176D01*
X0037088Y0075376D01*
X0041238Y0075376D01*
X0041238Y0076113D01*
X0041794Y0075558D01*
X0041794Y0070721D01*
X0042185Y0069777D01*
X0042907Y0069055D01*
X0043851Y0068664D01*
X0043897Y0068664D01*
X0043897Y0049523D01*
X0043301Y0049276D01*
X0042579Y0048553D01*
X0042188Y0047609D01*
X0042188Y0044422D01*
X0042579Y0043478D01*
X0043301Y0042756D01*
X0044245Y0042365D01*
X0049992Y0042365D01*
X0050936Y0042756D01*
X0051658Y0043478D01*
X0052049Y0044422D01*
X0052049Y0047609D01*
X0051658Y0048553D01*
X0051003Y0049209D01*
X0051003Y0068223D01*
X0061192Y0068223D01*
X0061512Y0067903D01*
X0062822Y0067360D01*
X0062231Y0065934D01*
X0062231Y0064117D01*
X0062758Y0062847D01*
X0062185Y0062274D01*
X0061794Y0061330D01*
X0061794Y0053221D01*
X0062185Y0052277D01*
X0062907Y0051555D01*
X0063851Y0051164D01*
X0071172Y0051164D01*
X0072116Y0051555D01*
X0072839Y0052277D01*
X0073230Y0053221D01*
X0073230Y0061330D01*
X0072839Y0062274D01*
X0072116Y0062996D01*
X0071172Y0063387D01*
X0071066Y0063387D01*
X0071368Y0064117D01*
X0071368Y0064520D01*
X0074800Y0061089D01*
X0074800Y0048498D01*
X0073939Y0048498D01*
X0073119Y0047678D01*
X0073119Y0044353D01*
X0073200Y0044273D01*
X0073028Y0043976D01*
X0072919Y0043569D01*
X0072919Y0042276D01*
X0076881Y0042276D01*
X0076881Y0042276D01*
X0072919Y0042276D01*
X0072919Y0041904D01*
X0061330Y0041904D01*
X0061140Y0041825D01*
X0061095Y0041825D01*
X0059423Y0041133D01*
X0058143Y0039853D01*
X0057450Y0038181D01*
X0057450Y0036371D01*
X0058143Y0034698D01*
X0058971Y0033871D01*
X0044806Y0019706D01*
X0043871Y0019706D01*
X0042927Y0019315D01*
X0042240Y0018628D01*
X0036631Y0018628D01*
X0036540Y0018849D01*
X0035817Y0019571D01*
X0034873Y0019962D01*
X0029127Y0019962D01*
X0028183Y0019571D01*
X0027460Y0018849D01*
X0027069Y0017905D01*
X0027069Y0013733D01*
X0027460Y0012789D01*
X0027655Y0012594D01*
X0020326Y0012594D01*
X0020491Y0012760D01*
X0020982Y0013435D01*
X0021361Y0014178D01*
X0021618Y0014972D01*
X0021749Y0015795D01*
X0021749Y0015813D01*
X0016849Y0015813D01*
X0016849Y0016603D02*
X0027069Y0016603D01*
X0027069Y0015405D02*
X0021687Y0015405D01*
X0021370Y0014206D02*
X0027069Y0014206D01*
X0027370Y0013008D02*
X0020671Y0013008D01*
X0021505Y0017802D02*
X0027069Y0017802D01*
X0027612Y0019000D02*
X0020975Y0019000D01*
X0019958Y0020199D02*
X0045299Y0020199D01*
X0046497Y0021397D02*
X0018150Y0021397D01*
X0020044Y0022596D02*
X0047696Y0022596D01*
X0048894Y0023794D02*
X0020967Y0023794D01*
X0021464Y0024993D02*
X0050093Y0024993D01*
X0051291Y0026191D02*
X0021549Y0026191D01*
X0021481Y0027390D02*
X0052490Y0027390D01*
X0053688Y0028588D02*
X0020985Y0028588D01*
X0020087Y0029787D02*
X0054887Y0029787D01*
X0056085Y0030985D02*
X0018253Y0030985D01*
X0019633Y0032184D02*
X0057284Y0032184D01*
X0058482Y0033382D02*
X0020797Y0033382D01*
X0021293Y0034581D02*
X0058261Y0034581D01*
X0057695Y0035779D02*
X0021549Y0035779D01*
X0021549Y0036978D02*
X0033119Y0036978D01*
X0032012Y0038176D02*
X0021156Y0038176D01*
X0020499Y0039375D02*
X0030814Y0039375D01*
X0029615Y0040573D02*
X0019248Y0040573D01*
X0019055Y0041772D02*
X0028417Y0041772D01*
X0027218Y0042970D02*
X0020419Y0042970D01*
X0021122Y0044169D02*
X0026020Y0044169D01*
X0024821Y0045367D02*
X0021549Y0045367D01*
X0021549Y0046566D02*
X0023623Y0046566D01*
X0022424Y0047764D02*
X0021326Y0047764D01*
X0021226Y0048963D02*
X0020830Y0048963D01*
X0020027Y0050161D02*
X0019712Y0050161D01*
X0018829Y0051360D02*
X0018061Y0051360D01*
X0015193Y0051213D02*
X0013560Y0050536D01*
X0013203Y0050179D01*
X0013203Y0052246D01*
X0013560Y0051889D01*
X0015193Y0051213D01*
X0014837Y0051360D02*
X0013203Y0051360D01*
X0013203Y0060179D02*
X0013203Y0062246D01*
X0013560Y0061889D01*
X0015193Y0061213D01*
X0013560Y0060536D01*
X0013203Y0060179D01*
X0013203Y0060948D02*
X0014554Y0060948D01*
X0013302Y0062147D02*
X0013203Y0062147D01*
X0018343Y0060948D02*
X0043897Y0060948D01*
X0043897Y0059750D02*
X0020124Y0059750D01*
X0021000Y0058551D02*
X0043897Y0058551D01*
X0043897Y0057353D02*
X0021497Y0057353D01*
X0021549Y0056154D02*
X0034475Y0056154D01*
X0033246Y0054956D02*
X0021448Y0054956D01*
X0021806Y0053757D02*
X0032689Y0053757D01*
X0032450Y0052559D02*
X0023004Y0052559D01*
X0024203Y0051360D02*
X0032455Y0051360D01*
X0032951Y0050161D02*
X0025401Y0050161D01*
X0026600Y0048963D02*
X0032751Y0048963D01*
X0032015Y0047764D02*
X0027798Y0047764D01*
X0028997Y0046566D02*
X0031951Y0046566D01*
X0031951Y0045367D02*
X0030195Y0045367D01*
X0031394Y0044169D02*
X0032056Y0044169D01*
X0032592Y0042970D02*
X0032850Y0042970D01*
X0037699Y0042276D02*
X0037700Y0042276D01*
X0040844Y0042276D01*
X0037699Y0042276D01*
X0040844Y0041772D02*
X0060966Y0041772D01*
X0058864Y0040573D02*
X0050777Y0040573D01*
X0050761Y0040601D02*
X0050463Y0040898D01*
X0050098Y0041109D01*
X0049691Y0041218D01*
X0047119Y0041218D01*
X0047119Y0038536D01*
X0047118Y0038536D01*
X0047118Y0041218D01*
X0044546Y0041218D01*
X0044139Y0041109D01*
X0043774Y0040898D01*
X0043476Y0040601D01*
X0043265Y0040236D01*
X0043156Y0039829D01*
X0043156Y0038535D01*
X0043156Y0037242D01*
X0043265Y0036835D01*
X0043476Y0036470D01*
X0043774Y0036172D01*
X0044139Y0035962D01*
X0044546Y0035853D01*
X0047118Y0035853D01*
X0047118Y0038535D01*
X0043156Y0038535D01*
X0047118Y0038535D01*
X0047118Y0038535D01*
X0047119Y0038535D01*
X0047119Y0038535D01*
X0051081Y0038535D01*
X0051081Y0037242D01*
X0050972Y0036835D01*
X0050761Y0036470D01*
X0050463Y0036172D01*
X0050098Y0035962D01*
X0049691Y0035853D01*
X0047119Y0035853D01*
X0047119Y0038535D01*
X0051081Y0038535D01*
X0051081Y0039829D01*
X0050972Y0040236D01*
X0050761Y0040601D01*
X0051081Y0039375D02*
X0057945Y0039375D01*
X0057450Y0038176D02*
X0051081Y0038176D01*
X0051010Y0036978D02*
X0057450Y0036978D01*
X0051150Y0042970D02*
X0072919Y0042970D01*
X0073140Y0044169D02*
X0051944Y0044169D01*
X0052049Y0045367D02*
X0073119Y0045367D01*
X0073119Y0046566D02*
X0052049Y0046566D01*
X0051985Y0047764D02*
X0073205Y0047764D01*
X0074800Y0048963D02*
X0051249Y0048963D01*
X0051003Y0050161D02*
X0074800Y0050161D01*
X0074800Y0051360D02*
X0071646Y0051360D01*
X0072955Y0052559D02*
X0074800Y0052559D01*
X0074800Y0053757D02*
X0073230Y0053757D01*
X0073230Y0054956D02*
X0074800Y0054956D01*
X0074800Y0056154D02*
X0073230Y0056154D01*
X0073230Y0057353D02*
X0074800Y0057353D01*
X0074800Y0058551D02*
X0073230Y0058551D01*
X0073230Y0059750D02*
X0074800Y0059750D01*
X0074800Y0060948D02*
X0073230Y0060948D01*
X0072892Y0062147D02*
X0073742Y0062147D01*
X0072543Y0063345D02*
X0071274Y0063345D01*
X0075823Y0068139D02*
X0078912Y0068139D01*
X0079117Y0067935D02*
X0079117Y0066430D01*
X0079508Y0065486D01*
X0080230Y0064763D01*
X0081174Y0064372D01*
X0083949Y0064372D01*
X0083248Y0063671D01*
X0082857Y0062727D01*
X0082857Y0061106D01*
X0075405Y0068557D01*
X0075809Y0068557D01*
X0077488Y0069253D01*
X0077643Y0069408D01*
X0079117Y0067935D01*
X0079117Y0066941D02*
X0077022Y0066941D01*
X0078220Y0065742D02*
X0079401Y0065742D01*
X0079419Y0064544D02*
X0080761Y0064544D01*
X0080617Y0063345D02*
X0083113Y0063345D01*
X0082857Y0062147D02*
X0081816Y0062147D01*
X0078839Y0059750D02*
X0078600Y0059750D01*
X0078600Y0059989D02*
X0080650Y0057939D01*
X0080650Y0049839D01*
X0083356Y0047132D01*
X0083356Y0044353D01*
X0084176Y0043533D01*
X0087083Y0043533D01*
X0085737Y0042187D01*
X0084245Y0042187D01*
X0083301Y0041796D01*
X0082579Y0041073D01*
X0082188Y0040129D01*
X0082188Y0037078D01*
X0081812Y0037078D01*
X0081812Y0040129D01*
X0081421Y0041073D01*
X0080844Y0041651D01*
X0080844Y0042276D01*
X0080844Y0043569D01*
X0080735Y0043976D01*
X0080563Y0044273D01*
X0080644Y0044353D01*
X0080644Y0047678D01*
X0079824Y0048498D01*
X0078600Y0048498D01*
X0078600Y0059989D01*
X0078600Y0058551D02*
X0080038Y0058551D01*
X0080650Y0057353D02*
X0078600Y0057353D01*
X0078600Y0056154D02*
X0080650Y0056154D01*
X0080650Y0054956D02*
X0078600Y0054956D01*
X0078600Y0053757D02*
X0080650Y0053757D01*
X0080650Y0052559D02*
X0078600Y0052559D01*
X0078600Y0051360D02*
X0080650Y0051360D01*
X0080650Y0050161D02*
X0078600Y0050161D01*
X0078600Y0048963D02*
X0081526Y0048963D01*
X0080558Y0047764D02*
X0082724Y0047764D01*
X0083356Y0046566D02*
X0080644Y0046566D01*
X0080644Y0045367D02*
X0083356Y0045367D01*
X0083541Y0044169D02*
X0080623Y0044169D01*
X0080844Y0042970D02*
X0086520Y0042970D01*
X0083278Y0041772D02*
X0080844Y0041772D01*
X0080844Y0042276D02*
X0076882Y0042276D01*
X0080844Y0042276D01*
X0081628Y0040573D02*
X0082372Y0040573D01*
X0082188Y0039375D02*
X0081812Y0039375D01*
X0081812Y0038176D02*
X0082188Y0038176D01*
X0076882Y0042276D02*
X0076882Y0042276D01*
X0084503Y0051360D02*
X0089789Y0051360D01*
X0088962Y0051703D02*
X0090641Y0051007D01*
X0092459Y0051007D01*
X0093397Y0051396D01*
X0093397Y0049397D01*
X0090881Y0046881D01*
X0090881Y0047678D01*
X0090061Y0048498D01*
X0087364Y0048498D01*
X0084450Y0051413D01*
X0084450Y0056297D01*
X0084914Y0056105D01*
X0085997Y0056105D01*
X0086981Y0055120D01*
X0086981Y0054667D01*
X0087677Y0052988D01*
X0088962Y0051703D01*
X0088106Y0052559D02*
X0084450Y0052559D01*
X0084450Y0053757D02*
X0087358Y0053757D01*
X0086981Y0054956D02*
X0084450Y0054956D01*
X0084450Y0056154D02*
X0084795Y0056154D01*
X0085701Y0050161D02*
X0093397Y0050161D01*
X0093397Y0051360D02*
X0093311Y0051360D01*
X0092963Y0048963D02*
X0086900Y0048963D01*
X0090795Y0047764D02*
X0091765Y0047764D01*
X0098062Y0040573D02*
X0103047Y0040573D01*
X0102076Y0039375D02*
X0098368Y0039375D01*
X0098368Y0038176D02*
X0101580Y0038176D01*
X0102446Y0029973D02*
X0097980Y0029973D01*
X0098368Y0029034D01*
X0098368Y0027217D01*
X0097673Y0025538D01*
X0096388Y0024253D01*
X0094709Y0023557D01*
X0092891Y0023557D01*
X0091991Y0023930D01*
X0091796Y0023458D01*
X0091073Y0022736D01*
X0090129Y0022345D01*
X0085958Y0022345D01*
X0085014Y0022736D01*
X0084291Y0023458D01*
X0083977Y0024217D01*
X0083812Y0023931D01*
X0083514Y0023633D01*
X0083149Y0023422D01*
X0082742Y0023313D01*
X0081144Y0023313D01*
X0081144Y0027088D01*
X0080769Y0027088D01*
X0077782Y0027088D01*
X0077782Y0024703D01*
X0077891Y0024296D01*
X0078102Y0023931D01*
X0078399Y0023633D01*
X0078764Y0023422D01*
X0079171Y0023313D01*
X0080769Y0023313D01*
X0080769Y0027088D01*
X0080769Y0027463D01*
X0077782Y0027463D01*
X0077782Y0029848D01*
X0077815Y0029973D01*
X0065122Y0029973D01*
X0053887Y0018738D01*
X0054829Y0018738D01*
X0055236Y0018629D01*
X0055601Y0018418D01*
X0055898Y0018120D01*
X0056109Y0017755D01*
X0056218Y0017348D01*
X0056218Y0014963D01*
X0053231Y0014963D01*
X0053231Y0014588D01*
X0056218Y0014588D01*
X0056218Y0012594D01*
X0058631Y0012594D01*
X0058631Y0014210D01*
X0058143Y0014698D01*
X0057450Y0016371D01*
X0057450Y0018181D01*
X0058143Y0019853D01*
X0059423Y0021133D01*
X0061095Y0021825D01*
X0062905Y0021825D01*
X0064357Y0021224D01*
X0064357Y0022187D01*
X0068900Y0022187D01*
X0070100Y0022187D01*
X0070100Y0018038D01*
X0073254Y0018038D01*
X0073661Y0018147D01*
X0074026Y0018357D01*
X0074324Y0018655D01*
X0074534Y0019020D01*
X0074643Y0019427D01*
X0074643Y0022187D01*
X0070100Y0022187D01*
X0070100Y0023387D01*
X0074643Y0023387D01*
X0074643Y0026148D01*
X0074534Y0026555D01*
X0074324Y0026919D01*
X0074026Y0027217D01*
X0073661Y0027428D01*
X0073254Y0027537D01*
X0070100Y0027537D01*
X0070100Y0023387D01*
X0068900Y0023387D01*
X0068900Y0022187D01*
X0068900Y0018038D01*
X0066550Y0018038D01*
X0066550Y0017482D01*
X0073554Y0017482D01*
X0074498Y0017091D01*
X0075221Y0016368D01*
X0075612Y0015424D01*
X0075612Y0012594D01*
X0098048Y0012594D01*
X0098493Y0012778D01*
X0103495Y0012778D01*
X0103018Y0013435D01*
X0102639Y0014178D01*
X0102382Y0014972D01*
X0102251Y0015795D01*
X0102251Y0015813D01*
X0107151Y0015813D01*
X0107151Y0016613D01*
X0102251Y0016613D01*
X0102251Y0016630D01*
X0102382Y0017454D01*
X0102639Y0018247D01*
X0103018Y0018990D01*
X0103509Y0019665D01*
X0104098Y0020255D01*
X0104627Y0020639D01*
X0104000Y0020898D01*
X0102237Y0022662D01*
X0101283Y0024966D01*
X0101283Y0027459D01*
X0102237Y0029763D01*
X0102446Y0029973D01*
X0102260Y0029787D02*
X0098057Y0029787D01*
X0098368Y0028588D02*
X0101750Y0028588D01*
X0101283Y0027390D02*
X0098368Y0027390D01*
X0097944Y0026191D02*
X0101283Y0026191D01*
X0101283Y0024993D02*
X0097128Y0024993D01*
X0095281Y0023794D02*
X0101768Y0023794D01*
X0102303Y0022596D02*
X0090735Y0022596D01*
X0091935Y0023794D02*
X0092319Y0023794D01*
X0085352Y0022596D02*
X0070100Y0022596D01*
X0070100Y0023794D02*
X0068900Y0023794D01*
X0068900Y0023387D02*
X0068900Y0027537D01*
X0065746Y0027537D01*
X0065339Y0027428D01*
X0064974Y0027217D01*
X0064676Y0026919D01*
X0064466Y0026555D01*
X0064357Y0026148D01*
X0064357Y0023387D01*
X0068900Y0023387D01*
X0068900Y0022596D02*
X0057744Y0022596D01*
X0056546Y0021397D02*
X0060062Y0021397D01*
X0058943Y0023794D02*
X0064357Y0023794D01*
X0064357Y0024993D02*
X0060141Y0024993D01*
X0061340Y0026191D02*
X0064368Y0026191D01*
X0065273Y0027390D02*
X0062539Y0027390D01*
X0063737Y0028588D02*
X0077782Y0028588D01*
X0077782Y0029787D02*
X0064936Y0029787D01*
X0068900Y0027390D02*
X0070100Y0027390D01*
X0070100Y0026191D02*
X0068900Y0026191D01*
X0068900Y0024993D02*
X0070100Y0024993D01*
X0070100Y0021397D02*
X0068900Y0021397D01*
X0068900Y0020199D02*
X0070100Y0020199D01*
X0070100Y0019000D02*
X0068900Y0019000D01*
X0066550Y0017802D02*
X0102495Y0017802D01*
X0103025Y0019000D02*
X0074523Y0019000D01*
X0074643Y0020199D02*
X0104042Y0020199D01*
X0103502Y0021397D02*
X0074643Y0021397D01*
X0074643Y0023794D02*
X0078238Y0023794D01*
X0077782Y0024993D02*
X0074643Y0024993D01*
X0074632Y0026191D02*
X0077782Y0026191D01*
X0080769Y0026191D02*
X0081144Y0026191D01*
X0081144Y0024993D02*
X0080769Y0024993D01*
X0080769Y0023794D02*
X0081144Y0023794D01*
X0083675Y0023794D02*
X0084152Y0023794D01*
X0080769Y0027390D02*
X0073727Y0027390D01*
X0074986Y0016603D02*
X0107151Y0016603D01*
X0102630Y0014206D02*
X0075612Y0014206D01*
X0075612Y0013008D02*
X0103329Y0013008D01*
X0102313Y0015405D02*
X0075612Y0015405D01*
X0064357Y0021397D02*
X0063938Y0021397D01*
X0058489Y0020199D02*
X0055347Y0020199D01*
X0054149Y0019000D02*
X0057790Y0019000D01*
X0057450Y0017802D02*
X0056082Y0017802D01*
X0056218Y0016603D02*
X0057450Y0016603D01*
X0057850Y0015405D02*
X0056218Y0015405D01*
X0056218Y0014206D02*
X0058631Y0014206D01*
X0058631Y0013008D02*
X0056218Y0013008D01*
X0042612Y0019000D02*
X0036388Y0019000D01*
X0040644Y0036978D02*
X0043227Y0036978D01*
X0043156Y0038176D02*
X0040644Y0038176D01*
X0040644Y0039375D02*
X0043156Y0039375D01*
X0043460Y0040573D02*
X0040734Y0040573D01*
X0040913Y0042970D02*
X0043087Y0042970D01*
X0042293Y0044169D02*
X0041707Y0044169D01*
X0041812Y0045367D02*
X0042188Y0045367D01*
X0042188Y0046566D02*
X0041812Y0046566D01*
X0041748Y0047764D02*
X0042252Y0047764D01*
X0042988Y0048963D02*
X0041012Y0048963D01*
X0041049Y0050161D02*
X0043897Y0050161D01*
X0043897Y0051360D02*
X0041545Y0051360D01*
X0041550Y0052559D02*
X0043897Y0052559D01*
X0043897Y0053757D02*
X0041311Y0053757D01*
X0040754Y0054956D02*
X0043897Y0054956D01*
X0043897Y0056154D02*
X0039525Y0056154D01*
X0043897Y0062147D02*
X0019595Y0062147D01*
X0020781Y0063345D02*
X0043897Y0063345D01*
X0043897Y0064544D02*
X0021278Y0064544D01*
X0021549Y0065742D02*
X0043897Y0065742D01*
X0043897Y0066941D02*
X0021549Y0066941D01*
X0021171Y0068139D02*
X0043897Y0068139D01*
X0042624Y0069338D02*
X0020536Y0069338D01*
X0019338Y0070536D02*
X0031893Y0070536D01*
X0031739Y0071735D02*
X0018965Y0071735D01*
X0020382Y0072933D02*
X0031739Y0072933D01*
X0031739Y0074132D02*
X0021107Y0074132D01*
X0021549Y0075330D02*
X0035888Y0075330D01*
X0035888Y0074132D02*
X0037088Y0074132D01*
X0037088Y0074176D02*
X0037088Y0069632D01*
X0039848Y0069632D01*
X0040255Y0069741D01*
X0040620Y0069952D01*
X0040918Y0070250D01*
X0041129Y0070615D01*
X0041238Y0071022D01*
X0041238Y0074176D01*
X0037088Y0074176D01*
X0037088Y0075330D02*
X0041794Y0075330D01*
X0041794Y0074132D02*
X0041238Y0074132D01*
X0041238Y0072933D02*
X0041794Y0072933D01*
X0041794Y0071735D02*
X0041238Y0071735D01*
X0041083Y0070536D02*
X0041870Y0070536D01*
X0037088Y0070536D02*
X0035888Y0070536D01*
X0035888Y0071735D02*
X0037088Y0071735D01*
X0037088Y0072933D02*
X0035888Y0072933D01*
X0031739Y0076529D02*
X0021549Y0076529D01*
X0021342Y0077727D02*
X0031739Y0077727D01*
X0031845Y0078926D02*
X0020845Y0078926D01*
X0019750Y0080124D02*
X0030539Y0080124D01*
X0029703Y0081323D02*
X0017971Y0081323D01*
X0019970Y0082521D02*
X0029569Y0082521D01*
X0029569Y0083720D02*
X0020936Y0083720D01*
X0021433Y0084918D02*
X0029569Y0084918D01*
X0029693Y0086117D02*
X0021549Y0086117D01*
X0021512Y0087315D02*
X0030514Y0087315D01*
X0030888Y0088514D02*
X0021016Y0088514D01*
X0020162Y0089712D02*
X0030738Y0089712D01*
X0030738Y0090911D02*
X0018433Y0090911D01*
X0017908Y0092109D02*
X0030738Y0092109D01*
X0031072Y0093308D02*
X0019107Y0093308D01*
X0020305Y0094506D02*
X0032950Y0094506D01*
X0032950Y0095705D02*
X0021504Y0095705D01*
X0022702Y0096903D02*
X0032950Y0096903D01*
X0031897Y0098102D02*
X0023901Y0098102D01*
X0024404Y0099300D02*
X0031852Y0099300D01*
X0031852Y0100499D02*
X0024453Y0100499D01*
X0024453Y0101697D02*
X0031852Y0101697D01*
X0031852Y0102896D02*
X0024453Y0102896D01*
X0024453Y0104094D02*
X0031852Y0104094D01*
X0031852Y0105293D02*
X0024453Y0105293D01*
X0024453Y0106492D02*
X0031939Y0106492D01*
X0025733Y0110087D02*
X0080652Y0110087D01*
X0080652Y0109550D02*
X0080652Y0105478D01*
X0081007Y0105478D01*
X0081852Y0105128D01*
X0081852Y0109550D01*
X0080652Y0109550D01*
X0080652Y0108889D02*
X0081852Y0108889D01*
X0081852Y0110087D02*
X0086860Y0110087D01*
X0086395Y0110750D02*
X0086395Y0114100D01*
X0086286Y0114507D01*
X0086076Y0114872D01*
X0085778Y0115170D01*
X0085413Y0115381D01*
X0085006Y0115490D01*
X0081852Y0115490D01*
X0081852Y0110750D01*
X0086395Y0110750D01*
X0086395Y0111286D02*
X0086860Y0111286D01*
X0086860Y0112484D02*
X0086395Y0112484D01*
X0086395Y0113683D02*
X0086860Y0113683D01*
X0087271Y0114881D02*
X0086067Y0114881D01*
X0081852Y0114881D02*
X0080652Y0114881D01*
X0080652Y0113683D02*
X0081852Y0113683D01*
X0081852Y0112484D02*
X0080652Y0112484D01*
X0080652Y0111286D02*
X0081852Y0111286D01*
X0081852Y0107690D02*
X0080652Y0107690D01*
X0080652Y0106492D02*
X0081852Y0106492D01*
X0081852Y0105293D02*
X0081454Y0105293D01*
X0083155Y0104094D02*
X0099419Y0104094D01*
X0097396Y0105293D02*
X0096604Y0105293D01*
X0091882Y0102896D02*
X0091882Y0102896D01*
X0091882Y0101697D02*
X0091882Y0101697D01*
X0091882Y0100499D02*
X0091882Y0100499D01*
X0089593Y0100499D02*
X0086751Y0100499D01*
X0085552Y0101697D02*
X0089593Y0101697D01*
X0089650Y0102896D02*
X0084354Y0102896D01*
X0085942Y0105293D02*
X0087396Y0105293D01*
X0086860Y0106492D02*
X0086395Y0106492D01*
X0086395Y0107690D02*
X0086860Y0107690D01*
X0086860Y0108889D02*
X0086395Y0108889D01*
X0087949Y0099300D02*
X0089593Y0099300D01*
X0089593Y0098102D02*
X0089148Y0098102D01*
X0091889Y0095361D02*
X0092782Y0095361D01*
X0093188Y0095470D01*
X0093346Y0095561D01*
X0095710Y0095561D01*
X0095720Y0095571D01*
X0095731Y0095561D01*
X0098269Y0095561D01*
X0098280Y0095571D01*
X0098290Y0095561D01*
X0098631Y0095561D01*
X0098631Y0093671D01*
X0097205Y0092244D01*
X0095006Y0092244D01*
X0091889Y0095361D01*
X0092744Y0094506D02*
X0098631Y0094506D01*
X0098269Y0093308D02*
X0093942Y0093308D01*
X0088687Y0088514D02*
X0075505Y0088514D01*
X0075643Y0088376D02*
X0075345Y0088674D01*
X0074980Y0088885D01*
X0074573Y0088994D01*
X0072187Y0088994D01*
X0072187Y0086006D01*
X0071813Y0086006D01*
X0071813Y0085631D01*
X0072187Y0085631D01*
X0072187Y0082644D01*
X0074573Y0082644D01*
X0074980Y0082753D01*
X0075345Y0082964D01*
X0075643Y0083262D01*
X0075853Y0083627D01*
X0075962Y0084033D01*
X0075962Y0085631D01*
X0072187Y0085631D01*
X0072187Y0086006D01*
X0075962Y0086006D01*
X0075962Y0087604D01*
X0075853Y0088011D01*
X0075643Y0088376D01*
X0075962Y0087315D02*
X0089886Y0087315D01*
X0090078Y0086117D02*
X0075962Y0086117D01*
X0075962Y0084918D02*
X0090925Y0084918D01*
X0091681Y0083720D02*
X0075878Y0083720D01*
X0075326Y0081323D02*
X0090084Y0081323D01*
X0089924Y0080124D02*
X0086706Y0076906D01*
X0085938Y0076587D01*
X0083225Y0073875D01*
X0080962Y0076137D01*
X0079657Y0076678D01*
X0077808Y0076678D01*
X0077488Y0076999D01*
X0075809Y0077694D01*
X0075762Y0077694D01*
X0075762Y0080887D01*
X0075762Y0078926D02*
X0088726Y0078926D01*
X0087527Y0077727D02*
X0075762Y0077727D01*
X0080018Y0076529D02*
X0085879Y0076529D01*
X0084680Y0075330D02*
X0081770Y0075330D01*
X0082968Y0074132D02*
X0083482Y0074132D01*
X0077714Y0069338D02*
X0077573Y0069338D01*
X0086311Y0064785D02*
X0087000Y0065474D01*
X0087689Y0064785D01*
X0086311Y0064785D01*
X0090051Y0064372D02*
X0090329Y0064372D01*
X0093397Y0061304D01*
X0093397Y0059755D01*
X0092459Y0060144D01*
X0092006Y0060144D01*
X0091143Y0061007D01*
X0091143Y0062727D01*
X0090752Y0063671D01*
X0090051Y0064372D01*
X0090887Y0063345D02*
X0091356Y0063345D01*
X0091143Y0062147D02*
X0092555Y0062147D01*
X0093397Y0060948D02*
X0091202Y0060948D01*
X0108807Y0071213D02*
X0110440Y0071889D01*
X0111875Y0073324D01*
X0112651Y0075198D01*
X0112651Y0077227D01*
X0111875Y0079102D01*
X0110440Y0080536D01*
X0108807Y0081213D01*
X0110440Y0081889D01*
X0111875Y0083324D01*
X0112651Y0085198D01*
X0112651Y0087227D01*
X0111875Y0089102D01*
X0110440Y0090536D01*
X0108566Y0091313D01*
X0106537Y0091313D01*
X0104980Y0090668D01*
X0105081Y0090911D02*
X0105567Y0090911D01*
X0105368Y0092109D02*
X0115496Y0092109D01*
X0115501Y0090911D02*
X0109535Y0090911D01*
X0111264Y0089712D02*
X0115506Y0089712D01*
X0115511Y0088514D02*
X0112118Y0088514D01*
X0112615Y0087315D02*
X0115516Y0087315D01*
X0115521Y0086117D02*
X0112651Y0086117D01*
X0112535Y0084918D02*
X0115526Y0084918D01*
X0115531Y0083720D02*
X0112039Y0083720D01*
X0111072Y0082521D02*
X0115536Y0082521D01*
X0115541Y0081323D02*
X0109073Y0081323D01*
X0110852Y0080124D02*
X0115546Y0080124D01*
X0115551Y0078926D02*
X0111948Y0078926D01*
X0112444Y0077727D02*
X0115556Y0077727D01*
X0115561Y0076529D02*
X0112651Y0076529D01*
X0112651Y0075330D02*
X0115566Y0075330D01*
X0115571Y0074132D02*
X0112209Y0074132D01*
X0111484Y0072933D02*
X0115576Y0072933D01*
X0115581Y0071735D02*
X0110067Y0071735D01*
X0110440Y0070536D02*
X0108807Y0071213D01*
X0090956Y0082521D02*
X0044879Y0082521D01*
X0046077Y0081323D02*
X0058674Y0081323D01*
X0058238Y0080124D02*
X0052488Y0080124D01*
X0053190Y0078926D02*
X0058238Y0078926D01*
X0058238Y0077727D02*
X0053230Y0077727D01*
X0053230Y0076529D02*
X0058287Y0076529D01*
X0061194Y0075330D02*
X0053230Y0075330D01*
X0051003Y0068139D02*
X0061276Y0068139D01*
X0062648Y0066941D02*
X0051003Y0066941D01*
X0051003Y0065742D02*
X0062231Y0065742D01*
X0062231Y0064544D02*
X0051003Y0064544D01*
X0051003Y0063345D02*
X0062551Y0063345D01*
X0062132Y0062147D02*
X0060538Y0062147D01*
X0060620Y0062099D02*
X0060255Y0062310D01*
X0059848Y0062419D01*
X0057088Y0062419D01*
X0057088Y0057876D01*
X0055888Y0057876D01*
X0055888Y0062419D01*
X0053128Y0062419D01*
X0052721Y0062310D01*
X0052356Y0062099D01*
X0052058Y0061801D01*
X0051848Y0061436D01*
X0051739Y0061030D01*
X0051739Y0057876D01*
X0055888Y0057876D01*
X0055888Y0056676D01*
X0051739Y0056676D01*
X0051739Y0053522D01*
X0051848Y0053115D01*
X0052058Y0052750D01*
X0052356Y0052452D01*
X0052721Y0052241D01*
X0053128Y0052132D01*
X0055888Y0052132D01*
X0055888Y0056676D01*
X0057088Y0056676D01*
X0057088Y0057876D01*
X0061238Y0057876D01*
X0061238Y0061030D01*
X0061129Y0061436D01*
X0060918Y0061801D01*
X0060620Y0062099D01*
X0061238Y0060948D02*
X0061794Y0060948D01*
X0061794Y0059750D02*
X0061238Y0059750D01*
X0061238Y0058551D02*
X0061794Y0058551D01*
X0061794Y0057353D02*
X0057088Y0057353D01*
X0057088Y0056676D02*
X0061238Y0056676D01*
X0061238Y0053522D01*
X0061129Y0053115D01*
X0060918Y0052750D01*
X0060620Y0052452D01*
X0060255Y0052241D01*
X0059848Y0052132D01*
X0057088Y0052132D01*
X0057088Y0056676D01*
X0057088Y0056154D02*
X0055888Y0056154D01*
X0055888Y0054956D02*
X0057088Y0054956D01*
X0057088Y0053757D02*
X0055888Y0053757D01*
X0055888Y0052559D02*
X0057088Y0052559D01*
X0060727Y0052559D02*
X0062068Y0052559D01*
X0061794Y0053757D02*
X0061238Y0053757D01*
X0061238Y0054956D02*
X0061794Y0054956D01*
X0061794Y0056154D02*
X0061238Y0056154D01*
X0057088Y0058551D02*
X0055888Y0058551D01*
X0055888Y0057353D02*
X0051003Y0057353D01*
X0051003Y0058551D02*
X0051739Y0058551D01*
X0051739Y0059750D02*
X0051003Y0059750D01*
X0051003Y0060948D02*
X0051739Y0060948D01*
X0052438Y0062147D02*
X0051003Y0062147D01*
X0055888Y0062147D02*
X0057088Y0062147D01*
X0057088Y0060948D02*
X0055888Y0060948D01*
X0055888Y0059750D02*
X0057088Y0059750D01*
X0051739Y0056154D02*
X0051003Y0056154D01*
X0051003Y0054956D02*
X0051739Y0054956D01*
X0051739Y0053757D02*
X0051003Y0053757D01*
X0051003Y0052559D02*
X0052250Y0052559D01*
X0051003Y0051360D02*
X0063378Y0051360D01*
X0047119Y0040573D02*
X0047118Y0040573D01*
X0047118Y0039375D02*
X0047119Y0039375D01*
X0047118Y0038176D02*
X0047119Y0038176D01*
X0047118Y0036978D02*
X0047119Y0036978D01*
X0015193Y0041213D02*
X0013560Y0040536D01*
X0013203Y0040179D01*
X0013203Y0042246D01*
X0013560Y0041889D01*
X0015193Y0041213D01*
X0013843Y0041772D02*
X0013203Y0041772D01*
X0013203Y0040573D02*
X0013650Y0040573D01*
X0013203Y0032246D02*
X0013560Y0031889D01*
X0015193Y0031213D01*
X0013560Y0030536D01*
X0013203Y0030179D01*
X0013203Y0032246D01*
X0013203Y0032184D02*
X0013265Y0032184D01*
X0013203Y0030985D02*
X0014644Y0030985D01*
X0013203Y0022246D02*
X0013560Y0021889D01*
X0014970Y0021305D01*
X0014414Y0021124D01*
X0013671Y0020746D01*
X0013203Y0020405D01*
X0013203Y0022246D01*
X0013203Y0021397D02*
X0014747Y0021397D01*
X0013203Y0070179D02*
X0013203Y0072246D01*
X0013560Y0071889D01*
X0015193Y0071213D01*
X0013560Y0070536D01*
X0013203Y0070536D01*
X0013560Y0070536D02*
X0013203Y0070179D01*
X0013203Y0071735D02*
X0013933Y0071735D01*
X0013203Y0080179D02*
X0013203Y0082246D01*
X0013560Y0081889D01*
X0015193Y0081213D01*
X0013560Y0080536D01*
X0013203Y0080179D01*
X0013203Y0081323D02*
X0014927Y0081323D01*
X0006600Y0090796D02*
X0006600Y0115860D01*
X0008997Y0115860D01*
X0008661Y0115201D01*
X0008430Y0114490D01*
X0008313Y0113752D01*
X0008313Y0113467D01*
X0012974Y0113467D01*
X0012974Y0113289D01*
X0008313Y0113289D01*
X0008313Y0113004D01*
X0008430Y0112266D01*
X0008661Y0111555D01*
X0009001Y0110889D01*
X0009440Y0110284D01*
X0009969Y0109755D01*
X0010574Y0109316D01*
X0011240Y0108976D01*
X0011951Y0108745D01*
X0012689Y0108628D01*
X0012974Y0108628D01*
X0012974Y0113289D01*
X0013152Y0113289D01*
X0013152Y0108628D01*
X0013437Y0108628D01*
X0014175Y0108745D01*
X0014886Y0108976D01*
X0015552Y0109316D01*
X0016157Y0109755D01*
X0016315Y0109913D01*
X0017347Y0108881D01*
X0017347Y0101597D01*
X0007638Y0091887D01*
X0006638Y0090888D01*
X0006600Y0090796D01*
X0006600Y0090911D02*
X0006661Y0090911D01*
X0006600Y0092109D02*
X0007859Y0092109D01*
X0009058Y0093308D02*
X0006600Y0093308D01*
X0006600Y0094506D02*
X0010256Y0094506D01*
X0011455Y0095705D02*
X0006600Y0095705D01*
X0006600Y0096903D02*
X0012653Y0096903D01*
X0013852Y0098102D02*
X0006600Y0098102D01*
X0006600Y0099300D02*
X0015051Y0099300D01*
X0016249Y0100499D02*
X0006600Y0100499D01*
X0006600Y0101697D02*
X0017347Y0101697D01*
X0017347Y0102896D02*
X0006600Y0102896D01*
X0006600Y0104094D02*
X0017347Y0104094D01*
X0017347Y0105293D02*
X0006600Y0105293D01*
X0006600Y0106492D02*
X0017347Y0106492D01*
X0017347Y0107690D02*
X0006600Y0107690D01*
X0006600Y0108889D02*
X0011510Y0108889D01*
X0012974Y0108889D02*
X0013152Y0108889D01*
X0013152Y0110087D02*
X0012974Y0110087D01*
X0012974Y0111286D02*
X0013152Y0111286D01*
X0013152Y0112484D02*
X0012974Y0112484D01*
X0014616Y0108889D02*
X0017340Y0108889D01*
X0024534Y0108889D02*
X0076109Y0108889D01*
X0076109Y0111286D02*
X0026260Y0111286D01*
X0026655Y0112484D02*
X0076109Y0112484D01*
X0076109Y0113683D02*
X0026655Y0113683D01*
X0026504Y0114881D02*
X0076437Y0114881D01*
X0067682Y0107690D02*
X0024453Y0107690D01*
X0036750Y0096903D02*
X0059950Y0096903D01*
X0059950Y0097326D02*
X0059950Y0088794D01*
X0059058Y0088794D01*
X0058238Y0087974D01*
X0058238Y0083664D01*
X0059058Y0082844D01*
X0064942Y0082844D01*
X0065762Y0083664D01*
X0065762Y0087974D01*
X0064942Y0088794D01*
X0063750Y0088794D01*
X0063750Y0097326D01*
X0065131Y0097326D01*
X0065951Y0098146D01*
X0065951Y0106405D01*
X0065131Y0107225D01*
X0057672Y0107225D01*
X0056852Y0106405D01*
X0056852Y0098146D01*
X0057672Y0097326D01*
X0059950Y0097326D01*
X0059950Y0095705D02*
X0036750Y0095705D01*
X0036750Y0094506D02*
X0059950Y0094506D01*
X0059950Y0093308D02*
X0037928Y0093308D01*
X0038262Y0092109D02*
X0059950Y0092109D01*
X0059950Y0090911D02*
X0038262Y0090911D01*
X0038262Y0089712D02*
X0059950Y0089712D01*
X0058778Y0088514D02*
X0038112Y0088514D01*
X0038486Y0087315D02*
X0058238Y0087315D01*
X0058238Y0086117D02*
X0041283Y0086117D01*
X0042482Y0084918D02*
X0058238Y0084918D01*
X0058238Y0083720D02*
X0043680Y0083720D01*
X0044238Y0097126D02*
X0043831Y0097235D01*
X0043466Y0097446D01*
X0043169Y0097744D01*
X0042958Y0098109D01*
X0042849Y0098516D01*
X0042849Y0101676D01*
X0046998Y0101676D01*
X0046998Y0102876D01*
X0046998Y0107425D01*
X0044238Y0107425D01*
X0043831Y0107316D01*
X0043466Y0107105D01*
X0043169Y0106807D01*
X0042958Y0106442D01*
X0042849Y0106035D01*
X0042849Y0102876D01*
X0046998Y0102876D01*
X0048198Y0102876D01*
X0048198Y0107425D01*
X0050959Y0107425D01*
X0051366Y0107316D01*
X0051730Y0107105D01*
X0052028Y0106807D01*
X0052239Y0106442D01*
X0052348Y0106035D01*
X0052348Y0102876D01*
X0048198Y0102876D01*
X0048198Y0101676D01*
X0048198Y0097126D01*
X0050959Y0097126D01*
X0051366Y0097235D01*
X0051730Y0097446D01*
X0052028Y0097744D01*
X0052239Y0098109D01*
X0052348Y0098516D01*
X0052348Y0101676D01*
X0048198Y0101676D01*
X0046998Y0101676D01*
X0046998Y0097126D01*
X0044238Y0097126D01*
X0042962Y0098102D02*
X0040907Y0098102D01*
X0040951Y0099300D02*
X0042849Y0099300D01*
X0042849Y0100499D02*
X0040951Y0100499D01*
X0040951Y0101697D02*
X0046998Y0101697D01*
X0046998Y0100499D02*
X0048198Y0100499D01*
X0048198Y0101697D02*
X0056852Y0101697D01*
X0056852Y0100499D02*
X0052348Y0100499D01*
X0052348Y0099300D02*
X0056852Y0099300D01*
X0056897Y0098102D02*
X0052235Y0098102D01*
X0048198Y0098102D02*
X0046998Y0098102D01*
X0046998Y0099300D02*
X0048198Y0099300D01*
X0048198Y0102896D02*
X0046998Y0102896D01*
X0046998Y0104094D02*
X0048198Y0104094D01*
X0048198Y0105293D02*
X0046998Y0105293D01*
X0046998Y0106492D02*
X0048198Y0106492D01*
X0052211Y0106492D02*
X0056939Y0106492D01*
X0056852Y0105293D02*
X0052348Y0105293D01*
X0052348Y0104094D02*
X0056852Y0104094D01*
X0056852Y0102896D02*
X0052348Y0102896D01*
X0042849Y0102896D02*
X0040951Y0102896D01*
X0040951Y0104094D02*
X0042849Y0104094D01*
X0042849Y0105293D02*
X0040951Y0105293D01*
X0040864Y0106492D02*
X0042986Y0106492D01*
X0063750Y0096903D02*
X0067639Y0096903D01*
X0066927Y0098102D02*
X0065907Y0098102D01*
X0065951Y0099300D02*
X0066880Y0099300D01*
X0066880Y0100499D02*
X0065951Y0100499D01*
X0065951Y0101697D02*
X0066880Y0101697D01*
X0066880Y0102896D02*
X0065951Y0102896D01*
X0065951Y0104094D02*
X0066880Y0104094D01*
X0066880Y0105293D02*
X0065951Y0105293D01*
X0065864Y0106492D02*
X0066945Y0106492D01*
X0063750Y0095705D02*
X0081496Y0095705D01*
X0080298Y0096903D02*
X0077557Y0096903D01*
X0078269Y0098102D02*
X0079099Y0098102D01*
X0082695Y0094506D02*
X0063750Y0094506D01*
X0063750Y0093308D02*
X0083893Y0093308D01*
X0085092Y0092109D02*
X0063750Y0092109D01*
X0063750Y0090911D02*
X0086290Y0090911D01*
X0087489Y0089712D02*
X0063750Y0089712D01*
X0065222Y0088514D02*
X0068495Y0088514D01*
X0068357Y0088376D02*
X0068655Y0088674D01*
X0069020Y0088885D01*
X0069427Y0088994D01*
X0071813Y0088994D01*
X0071813Y0086006D01*
X0068038Y0086006D01*
X0068038Y0087604D01*
X0068147Y0088011D01*
X0068357Y0088376D01*
X0068038Y0087315D02*
X0065762Y0087315D01*
X0065762Y0086117D02*
X0068038Y0086117D01*
X0068038Y0085631D02*
X0068038Y0084033D01*
X0068147Y0083627D01*
X0068357Y0083262D01*
X0068655Y0082964D01*
X0069020Y0082753D01*
X0069427Y0082644D01*
X0071813Y0082644D01*
X0071813Y0085631D01*
X0068038Y0085631D01*
X0068038Y0084918D02*
X0065762Y0084918D01*
X0065762Y0083720D02*
X0068122Y0083720D01*
X0068674Y0081323D02*
X0065326Y0081323D01*
X0065762Y0080124D02*
X0068238Y0080124D01*
X0068238Y0078926D02*
X0066387Y0078926D01*
X0067585Y0077727D02*
X0068238Y0077727D01*
X0071813Y0083720D02*
X0072187Y0083720D01*
X0072187Y0084918D02*
X0071813Y0084918D01*
X0071813Y0086117D02*
X0072187Y0086117D01*
X0072187Y0087315D02*
X0071813Y0087315D01*
X0071813Y0088514D02*
X0072187Y0088514D01*
X0096729Y0114881D02*
X0097271Y0114881D01*
X0106729Y0114881D02*
X0107933Y0114881D01*
X0107605Y0113683D02*
X0107140Y0113683D01*
X0107140Y0112484D02*
X0107605Y0112484D01*
X0107605Y0111286D02*
X0107140Y0111286D01*
X0107140Y0110087D02*
X0112148Y0110087D01*
X0112148Y0108889D02*
X0113348Y0108889D01*
X0113348Y0107690D02*
X0112148Y0107690D01*
X0112148Y0106492D02*
X0113348Y0106492D01*
X0113348Y0105293D02*
X0112148Y0105293D01*
X0115446Y0104094D02*
X0104817Y0104094D01*
X0105376Y0102896D02*
X0115451Y0102896D01*
X0115456Y0101697D02*
X0105376Y0101697D01*
X0105440Y0100499D02*
X0115461Y0100499D01*
X0115466Y0099300D02*
X0105487Y0099300D01*
X0105376Y0098102D02*
X0115471Y0098102D01*
X0115476Y0096903D02*
X0105376Y0096903D01*
X0105368Y0095705D02*
X0115481Y0095705D01*
X0115486Y0094506D02*
X0105368Y0094506D01*
X0105368Y0093308D02*
X0115491Y0093308D01*
X0108058Y0105293D02*
X0106604Y0105293D01*
X0107140Y0106492D02*
X0107605Y0106492D01*
X0107605Y0107690D02*
X0107140Y0107690D01*
X0107140Y0108889D02*
X0107605Y0108889D01*
X0112148Y0111286D02*
X0113348Y0111286D01*
X0113348Y0112484D02*
X0112148Y0112484D01*
X0112148Y0113683D02*
X0113348Y0113683D01*
X0113348Y0114881D02*
X0112148Y0114881D01*
X0110947Y0020834D02*
X0110947Y0020296D01*
X0110476Y0020639D01*
X0110947Y0020834D01*
X0115840Y0010041D02*
X0115852Y0007161D01*
X0112951Y0007152D01*
X0113012Y0007213D01*
X0115840Y0010041D01*
X0115842Y0009412D02*
X0115211Y0009412D01*
X0115847Y0008214D02*
X0114012Y0008214D01*
X0009637Y0110087D02*
X0006600Y0110087D01*
X0006600Y0111286D02*
X0008798Y0111286D01*
X0008396Y0112484D02*
X0006600Y0112484D01*
X0006600Y0113683D02*
X0008313Y0113683D01*
X0008557Y0114881D02*
X0006600Y0114881D01*
D25*
X0036488Y0074776D02*
X0037000Y0074776D01*
X0037000Y0067276D01*
X0037000Y0052276D02*
X0036881Y0052157D01*
X0036881Y0046016D01*
X0047000Y0087276D02*
X0047000Y0101677D01*
X0047598Y0102276D01*
X0047000Y0102276D01*
D26*
X0047000Y0087276D03*
X0037000Y0052276D03*
X0062000Y0037276D03*
X0062000Y0017276D03*
D27*
X0062000Y0009226D01*
X0067000Y0009226D01*
X0067000Y0011764D01*
X0069500Y0011764D01*
X0067000Y0009226D02*
X0099200Y0009226D01*
X0076881Y0038535D02*
X0062000Y0038535D01*
X0062000Y0037276D01*
X0057000Y0042276D02*
X0057000Y0052276D01*
X0056488Y0052276D01*
X0056488Y0057276D01*
X0057000Y0042276D02*
X0076881Y0042276D01*
X0062000Y0009226D02*
X0031507Y0009226D01*
X0032000Y0008732D01*
X0031507Y0009226D02*
X0013700Y0009226D01*
X0093350Y0088876D02*
X0098600Y0088876D01*
X0102000Y0092276D01*
X0102000Y0099598D01*
X0102118Y0099717D01*
X0112000Y0107276D02*
X0112748Y0108024D01*
X0112748Y0110150D01*
X0087000Y0102276D02*
X0081252Y0108024D01*
X0081252Y0110150D01*
D28*
X0080300Y0101926D02*
X0093350Y0088876D01*
X0094126Y0088240D01*
X0094250Y0087976D01*
X0094250Y0086176D01*
X0098750Y0081676D01*
X0098750Y0076726D01*
X0091100Y0069076D01*
X0090740Y0068713D01*
X0091550Y0068176D01*
X0096950Y0062776D01*
X0096950Y0047926D01*
X0091100Y0042076D01*
X0091550Y0041176D01*
X0093800Y0038926D01*
X0091100Y0042076D02*
X0090650Y0042076D01*
X0087500Y0038926D01*
X0087119Y0038535D01*
X0088400Y0027676D02*
X0088043Y0027276D01*
X0088400Y0027676D02*
X0093350Y0027676D01*
X0093800Y0028126D01*
X0105050Y0033526D02*
X0107300Y0035776D01*
X0107551Y0036213D01*
X0105050Y0033526D02*
X0063650Y0033526D01*
X0046100Y0015976D01*
X0045957Y0014776D01*
X0045650Y0015076D01*
X0032600Y0015076D01*
X0032150Y0015526D01*
X0032000Y0015819D01*
X0013700Y0009226D02*
X0009650Y0013276D01*
X0009650Y0088876D01*
X0020900Y0100126D01*
X0020900Y0113176D01*
X0020937Y0113378D01*
X0034500Y0083732D02*
X0034850Y0083476D01*
X0038900Y0083476D01*
X0047000Y0075376D01*
X0047512Y0074776D01*
X0048350Y0071776D01*
X0064100Y0071776D01*
X0066800Y0065026D02*
X0067250Y0064576D01*
X0067250Y0057376D01*
X0067512Y0057276D01*
X0082550Y0069526D02*
X0083260Y0068713D01*
X0083450Y0069076D01*
X0087950Y0073576D01*
X0088400Y0073576D01*
X0093800Y0078976D01*
X0094126Y0079185D01*
X0082550Y0069526D02*
X0078950Y0073126D01*
X0074900Y0073126D01*
X0087000Y0060445D02*
X0087050Y0060076D01*
X0091550Y0055576D01*
X0107551Y0046213D02*
X0107750Y0046126D01*
X0114500Y0039376D01*
X0114500Y0013726D01*
X0110000Y0009226D01*
X0099200Y0009226D01*
X0047450Y0046126D02*
X0047119Y0046016D01*
X0047450Y0046126D02*
X0047450Y0074476D01*
X0047512Y0074776D01*
X0072650Y0101926D02*
X0072598Y0102276D01*
X0072650Y0101926D02*
X0080300Y0101926D01*
D29*
X0074900Y0073126D03*
X0066800Y0065026D03*
X0064100Y0071776D03*
X0091550Y0055576D03*
X0093800Y0038926D03*
X0093800Y0028126D03*
M02*
