G75*
%MOIN*%
%OFA0B0*%
%FSLAX25Y25*%
%IPPOS*%
%LPD*%
%AMOC8*
5,1,8,0,0,1.08239X$1,22.5*
%
%ADD10C,0.00394*%
%ADD11C,0.00000*%
%ADD12C,0.00600*%
%ADD13C,0.00100*%
%ADD14C,0.00800*%
%ADD15C,0.00500*%
%ADD16C,0.00400*%
%ADD17R,0.00787X0.00787*%
%ADD18R,0.00591X0.00984*%
%ADD19C,0.01000*%
D10*
X0005355Y0079937D02*
X0005377Y0081767D01*
X0005445Y0083597D01*
X0005557Y0085424D01*
X0005714Y0087247D01*
X0005916Y0089067D01*
X0006162Y0090880D01*
X0006453Y0092688D01*
X0006788Y0094487D01*
X0007167Y0096278D01*
X0007590Y0098059D01*
X0008057Y0099829D01*
X0008566Y0101587D01*
X0009119Y0103332D01*
X0009715Y0105063D01*
X0010353Y0106779D01*
X0011032Y0108478D01*
X0011753Y0110161D01*
X0012516Y0111825D01*
X0013319Y0113470D01*
X0014162Y0115095D01*
X0015044Y0116698D01*
X0015966Y0118280D01*
X0016926Y0119838D01*
X0017924Y0121373D01*
X0018960Y0122882D01*
X0020032Y0124365D01*
X0021141Y0125822D01*
X0022284Y0127251D01*
X0023463Y0128652D01*
X0024675Y0130023D01*
X0025921Y0131364D01*
X0027200Y0132674D01*
X0028510Y0133953D01*
X0029851Y0135199D01*
X0031222Y0136411D01*
X0032623Y0137590D01*
X0034052Y0138733D01*
X0035509Y0139842D01*
X0036992Y0140914D01*
X0038501Y0141950D01*
X0040036Y0142948D01*
X0041594Y0143908D01*
X0043176Y0144830D01*
X0044779Y0145712D01*
X0046404Y0146555D01*
X0048049Y0147358D01*
X0049713Y0148121D01*
X0051396Y0148842D01*
X0053095Y0149521D01*
X0054811Y0150159D01*
X0056542Y0150755D01*
X0058287Y0151308D01*
X0060045Y0151817D01*
X0061815Y0152284D01*
X0063596Y0152707D01*
X0065387Y0153086D01*
X0067186Y0153421D01*
X0068994Y0153712D01*
X0070807Y0153958D01*
X0072627Y0154160D01*
X0074450Y0154317D01*
X0076277Y0154429D01*
X0078107Y0154497D01*
X0079937Y0154519D01*
X0081767Y0154497D01*
X0083597Y0154429D01*
X0085424Y0154317D01*
X0087247Y0154160D01*
X0089067Y0153958D01*
X0090880Y0153712D01*
X0092688Y0153421D01*
X0094487Y0153086D01*
X0096278Y0152707D01*
X0098059Y0152284D01*
X0099829Y0151817D01*
X0101587Y0151308D01*
X0103332Y0150755D01*
X0105063Y0150159D01*
X0106779Y0149521D01*
X0108478Y0148842D01*
X0110161Y0148121D01*
X0111825Y0147358D01*
X0113470Y0146555D01*
X0115095Y0145712D01*
X0116698Y0144830D01*
X0118280Y0143908D01*
X0119838Y0142948D01*
X0121373Y0141950D01*
X0122882Y0140914D01*
X0124365Y0139842D01*
X0125822Y0138733D01*
X0127251Y0137590D01*
X0128652Y0136411D01*
X0130023Y0135199D01*
X0131364Y0133953D01*
X0132674Y0132674D01*
X0133953Y0131364D01*
X0135199Y0130023D01*
X0136411Y0128652D01*
X0137590Y0127251D01*
X0138733Y0125822D01*
X0139842Y0124365D01*
X0140914Y0122882D01*
X0141950Y0121373D01*
X0142948Y0119838D01*
X0143908Y0118280D01*
X0144830Y0116698D01*
X0145712Y0115095D01*
X0146555Y0113470D01*
X0147358Y0111825D01*
X0148121Y0110161D01*
X0148842Y0108478D01*
X0149521Y0106779D01*
X0150159Y0105063D01*
X0150755Y0103332D01*
X0151308Y0101587D01*
X0151817Y0099829D01*
X0152284Y0098059D01*
X0152707Y0096278D01*
X0153086Y0094487D01*
X0153421Y0092688D01*
X0153712Y0090880D01*
X0153958Y0089067D01*
X0154160Y0087247D01*
X0154317Y0085424D01*
X0154429Y0083597D01*
X0154497Y0081767D01*
X0154519Y0079937D01*
X0154497Y0078107D01*
X0154429Y0076277D01*
X0154317Y0074450D01*
X0154160Y0072627D01*
X0153958Y0070807D01*
X0153712Y0068994D01*
X0153421Y0067186D01*
X0153086Y0065387D01*
X0152707Y0063596D01*
X0152284Y0061815D01*
X0151817Y0060045D01*
X0151308Y0058287D01*
X0150755Y0056542D01*
X0150159Y0054811D01*
X0149521Y0053095D01*
X0148842Y0051396D01*
X0148121Y0049713D01*
X0147358Y0048049D01*
X0146555Y0046404D01*
X0145712Y0044779D01*
X0144830Y0043176D01*
X0143908Y0041594D01*
X0142948Y0040036D01*
X0141950Y0038501D01*
X0140914Y0036992D01*
X0139842Y0035509D01*
X0138733Y0034052D01*
X0137590Y0032623D01*
X0136411Y0031222D01*
X0135199Y0029851D01*
X0133953Y0028510D01*
X0132674Y0027200D01*
X0131364Y0025921D01*
X0130023Y0024675D01*
X0128652Y0023463D01*
X0127251Y0022284D01*
X0125822Y0021141D01*
X0124365Y0020032D01*
X0122882Y0018960D01*
X0121373Y0017924D01*
X0119838Y0016926D01*
X0118280Y0015966D01*
X0116698Y0015044D01*
X0115095Y0014162D01*
X0113470Y0013319D01*
X0111825Y0012516D01*
X0110161Y0011753D01*
X0108478Y0011032D01*
X0106779Y0010353D01*
X0105063Y0009715D01*
X0103332Y0009119D01*
X0101587Y0008566D01*
X0099829Y0008057D01*
X0098059Y0007590D01*
X0096278Y0007167D01*
X0094487Y0006788D01*
X0092688Y0006453D01*
X0090880Y0006162D01*
X0089067Y0005916D01*
X0087247Y0005714D01*
X0085424Y0005557D01*
X0083597Y0005445D01*
X0081767Y0005377D01*
X0079937Y0005355D01*
X0078107Y0005377D01*
X0076277Y0005445D01*
X0074450Y0005557D01*
X0072627Y0005714D01*
X0070807Y0005916D01*
X0068994Y0006162D01*
X0067186Y0006453D01*
X0065387Y0006788D01*
X0063596Y0007167D01*
X0061815Y0007590D01*
X0060045Y0008057D01*
X0058287Y0008566D01*
X0056542Y0009119D01*
X0054811Y0009715D01*
X0053095Y0010353D01*
X0051396Y0011032D01*
X0049713Y0011753D01*
X0048049Y0012516D01*
X0046404Y0013319D01*
X0044779Y0014162D01*
X0043176Y0015044D01*
X0041594Y0015966D01*
X0040036Y0016926D01*
X0038501Y0017924D01*
X0036992Y0018960D01*
X0035509Y0020032D01*
X0034052Y0021141D01*
X0032623Y0022284D01*
X0031222Y0023463D01*
X0029851Y0024675D01*
X0028510Y0025921D01*
X0027200Y0027200D01*
X0025921Y0028510D01*
X0024675Y0029851D01*
X0023463Y0031222D01*
X0022284Y0032623D01*
X0021141Y0034052D01*
X0020032Y0035509D01*
X0018960Y0036992D01*
X0017924Y0038501D01*
X0016926Y0040036D01*
X0015966Y0041594D01*
X0015044Y0043176D01*
X0014162Y0044779D01*
X0013319Y0046404D01*
X0012516Y0048049D01*
X0011753Y0049713D01*
X0011032Y0051396D01*
X0010353Y0053095D01*
X0009715Y0054811D01*
X0009119Y0056542D01*
X0008566Y0058287D01*
X0008057Y0060045D01*
X0007590Y0061815D01*
X0007167Y0063596D01*
X0006788Y0065387D01*
X0006453Y0067186D01*
X0006162Y0068994D01*
X0005916Y0070807D01*
X0005714Y0072627D01*
X0005557Y0074450D01*
X0005445Y0076277D01*
X0005377Y0078107D01*
X0005355Y0079937D01*
D11*
X0050409Y0127181D02*
X0050418Y0127906D01*
X0050445Y0128630D01*
X0050489Y0129353D01*
X0050551Y0130075D01*
X0050631Y0130796D01*
X0050729Y0131514D01*
X0050844Y0132229D01*
X0050976Y0132942D01*
X0051126Y0133651D01*
X0051294Y0134356D01*
X0051479Y0135056D01*
X0051680Y0135753D01*
X0051899Y0136443D01*
X0052135Y0137129D01*
X0052388Y0137808D01*
X0052657Y0138481D01*
X0052942Y0139147D01*
X0053244Y0139806D01*
X0053562Y0140457D01*
X0053896Y0141100D01*
X0054245Y0141735D01*
X0054610Y0142361D01*
X0054990Y0142978D01*
X0055385Y0143586D01*
X0055795Y0144183D01*
X0056220Y0144771D01*
X0056659Y0145348D01*
X0057112Y0145913D01*
X0057578Y0146468D01*
X0058058Y0147011D01*
X0058551Y0147542D01*
X0059058Y0148060D01*
X0059576Y0148567D01*
X0060107Y0149060D01*
X0060650Y0149540D01*
X0061205Y0150006D01*
X0061770Y0150459D01*
X0062347Y0150898D01*
X0062935Y0151323D01*
X0063532Y0151733D01*
X0064140Y0152128D01*
X0064757Y0152508D01*
X0065383Y0152873D01*
X0066018Y0153222D01*
X0066661Y0153556D01*
X0067312Y0153874D01*
X0067971Y0154176D01*
X0068637Y0154461D01*
X0069310Y0154730D01*
X0069989Y0154983D01*
X0070675Y0155219D01*
X0071365Y0155438D01*
X0072062Y0155639D01*
X0072762Y0155824D01*
X0073467Y0155992D01*
X0074176Y0156142D01*
X0074889Y0156274D01*
X0075604Y0156389D01*
X0076322Y0156487D01*
X0077043Y0156567D01*
X0077765Y0156629D01*
X0078488Y0156673D01*
X0079212Y0156700D01*
X0079937Y0156709D01*
X0080662Y0156700D01*
X0081386Y0156673D01*
X0082109Y0156629D01*
X0082831Y0156567D01*
X0083552Y0156487D01*
X0084270Y0156389D01*
X0084985Y0156274D01*
X0085698Y0156142D01*
X0086407Y0155992D01*
X0087112Y0155824D01*
X0087812Y0155639D01*
X0088509Y0155438D01*
X0089199Y0155219D01*
X0089885Y0154983D01*
X0090564Y0154730D01*
X0091237Y0154461D01*
X0091903Y0154176D01*
X0092562Y0153874D01*
X0093213Y0153556D01*
X0093856Y0153222D01*
X0094491Y0152873D01*
X0095117Y0152508D01*
X0095734Y0152128D01*
X0096342Y0151733D01*
X0096939Y0151323D01*
X0097527Y0150898D01*
X0098104Y0150459D01*
X0098669Y0150006D01*
X0099224Y0149540D01*
X0099767Y0149060D01*
X0100298Y0148567D01*
X0100816Y0148060D01*
X0101323Y0147542D01*
X0101816Y0147011D01*
X0102296Y0146468D01*
X0102762Y0145913D01*
X0103215Y0145348D01*
X0103654Y0144771D01*
X0104079Y0144183D01*
X0104489Y0143586D01*
X0104884Y0142978D01*
X0105264Y0142361D01*
X0105629Y0141735D01*
X0105978Y0141100D01*
X0106312Y0140457D01*
X0106630Y0139806D01*
X0106932Y0139147D01*
X0107217Y0138481D01*
X0107486Y0137808D01*
X0107739Y0137129D01*
X0107975Y0136443D01*
X0108194Y0135753D01*
X0108395Y0135056D01*
X0108580Y0134356D01*
X0108748Y0133651D01*
X0108898Y0132942D01*
X0109030Y0132229D01*
X0109145Y0131514D01*
X0109243Y0130796D01*
X0109323Y0130075D01*
X0109385Y0129353D01*
X0109429Y0128630D01*
X0109456Y0127906D01*
X0109465Y0127181D01*
X0109456Y0126456D01*
X0109429Y0125732D01*
X0109385Y0125009D01*
X0109323Y0124287D01*
X0109243Y0123566D01*
X0109145Y0122848D01*
X0109030Y0122133D01*
X0108898Y0121420D01*
X0108748Y0120711D01*
X0108580Y0120006D01*
X0108395Y0119306D01*
X0108194Y0118609D01*
X0107975Y0117919D01*
X0107739Y0117233D01*
X0107486Y0116554D01*
X0107217Y0115881D01*
X0106932Y0115215D01*
X0106630Y0114556D01*
X0106312Y0113905D01*
X0105978Y0113262D01*
X0105629Y0112627D01*
X0105264Y0112001D01*
X0104884Y0111384D01*
X0104489Y0110776D01*
X0104079Y0110179D01*
X0103654Y0109591D01*
X0103215Y0109014D01*
X0102762Y0108449D01*
X0102296Y0107894D01*
X0101816Y0107351D01*
X0101323Y0106820D01*
X0100816Y0106302D01*
X0100298Y0105795D01*
X0099767Y0105302D01*
X0099224Y0104822D01*
X0098669Y0104356D01*
X0098104Y0103903D01*
X0097527Y0103464D01*
X0096939Y0103039D01*
X0096342Y0102629D01*
X0095734Y0102234D01*
X0095117Y0101854D01*
X0094491Y0101489D01*
X0093856Y0101140D01*
X0093213Y0100806D01*
X0092562Y0100488D01*
X0091903Y0100186D01*
X0091237Y0099901D01*
X0090564Y0099632D01*
X0089885Y0099379D01*
X0089199Y0099143D01*
X0088509Y0098924D01*
X0087812Y0098723D01*
X0087112Y0098538D01*
X0086407Y0098370D01*
X0085698Y0098220D01*
X0084985Y0098088D01*
X0084270Y0097973D01*
X0083552Y0097875D01*
X0082831Y0097795D01*
X0082109Y0097733D01*
X0081386Y0097689D01*
X0080662Y0097662D01*
X0079937Y0097653D01*
X0079212Y0097662D01*
X0078488Y0097689D01*
X0077765Y0097733D01*
X0077043Y0097795D01*
X0076322Y0097875D01*
X0075604Y0097973D01*
X0074889Y0098088D01*
X0074176Y0098220D01*
X0073467Y0098370D01*
X0072762Y0098538D01*
X0072062Y0098723D01*
X0071365Y0098924D01*
X0070675Y0099143D01*
X0069989Y0099379D01*
X0069310Y0099632D01*
X0068637Y0099901D01*
X0067971Y0100186D01*
X0067312Y0100488D01*
X0066661Y0100806D01*
X0066018Y0101140D01*
X0065383Y0101489D01*
X0064757Y0101854D01*
X0064140Y0102234D01*
X0063532Y0102629D01*
X0062935Y0103039D01*
X0062347Y0103464D01*
X0061770Y0103903D01*
X0061205Y0104356D01*
X0060650Y0104822D01*
X0060107Y0105302D01*
X0059576Y0105795D01*
X0059058Y0106302D01*
X0058551Y0106820D01*
X0058058Y0107351D01*
X0057578Y0107894D01*
X0057112Y0108449D01*
X0056659Y0109014D01*
X0056220Y0109591D01*
X0055795Y0110179D01*
X0055385Y0110776D01*
X0054990Y0111384D01*
X0054610Y0112001D01*
X0054245Y0112627D01*
X0053896Y0113262D01*
X0053562Y0113905D01*
X0053244Y0114556D01*
X0052942Y0115215D01*
X0052657Y0115881D01*
X0052388Y0116554D01*
X0052135Y0117233D01*
X0051899Y0117919D01*
X0051680Y0118609D01*
X0051479Y0119306D01*
X0051294Y0120006D01*
X0051126Y0120711D01*
X0050976Y0121420D01*
X0050844Y0122133D01*
X0050729Y0122848D01*
X0050631Y0123566D01*
X0050551Y0124287D01*
X0050489Y0125009D01*
X0050445Y0125732D01*
X0050418Y0126456D01*
X0050409Y0127181D01*
D12*
X0049406Y0077249D02*
X0049406Y0074887D01*
X0045646Y0074914D02*
X0045646Y0077276D01*
X0040921Y0077276D02*
X0040921Y0074914D01*
X0054130Y0074887D02*
X0054130Y0077249D01*
X0064729Y0073615D02*
X0064729Y0071252D01*
X0069453Y0071252D02*
X0069453Y0073615D01*
X0049245Y0059024D02*
X0046883Y0059024D01*
X0046883Y0054300D02*
X0049245Y0054300D01*
X0049268Y0047417D02*
X0046906Y0047417D01*
X0046906Y0042693D02*
X0049268Y0042693D01*
X0089700Y0037688D02*
X0089700Y0035326D01*
X0094425Y0035326D02*
X0094425Y0037688D01*
X0104976Y0052142D02*
X0104976Y0054504D01*
X0109701Y0054504D02*
X0109701Y0052142D01*
X0100998Y0075179D02*
X0100998Y0077541D01*
X0096273Y0077541D02*
X0096273Y0075179D01*
D13*
X0095335Y0075134D02*
X0095085Y0074883D01*
X0095335Y0075134D02*
X0095335Y0075634D01*
X0095085Y0075884D01*
X0094835Y0075884D01*
X0094585Y0075634D01*
X0094585Y0075384D01*
X0094585Y0075634D02*
X0094335Y0075884D01*
X0094084Y0075884D01*
X0093834Y0075634D01*
X0093834Y0075134D01*
X0094084Y0074883D01*
X0094084Y0074411D02*
X0093834Y0074161D01*
X0093834Y0073660D01*
X0094084Y0073410D01*
X0095085Y0073410D01*
X0095335Y0073660D01*
X0095335Y0074161D01*
X0095085Y0074411D01*
X0083979Y0079899D02*
X0082978Y0079899D01*
X0083479Y0079899D02*
X0083479Y0081400D01*
X0082978Y0080900D01*
X0082506Y0081150D02*
X0082256Y0081400D01*
X0081505Y0081400D01*
X0081505Y0079899D01*
X0082256Y0079899D01*
X0082506Y0080149D01*
X0082506Y0081150D01*
X0069681Y0063689D02*
X0069681Y0062188D01*
X0069181Y0062188D02*
X0070182Y0062188D01*
X0069181Y0063189D02*
X0069681Y0063689D01*
X0068708Y0063689D02*
X0068708Y0062438D01*
X0068458Y0062188D01*
X0067958Y0062188D01*
X0067707Y0062438D01*
X0067707Y0063689D01*
X0063791Y0069483D02*
X0062290Y0069483D01*
X0062290Y0070234D01*
X0062540Y0070484D01*
X0063040Y0070484D01*
X0063291Y0070234D01*
X0063291Y0069483D01*
X0063291Y0069984D02*
X0063791Y0070484D01*
X0063791Y0070957D02*
X0063791Y0071958D01*
X0063791Y0071457D02*
X0062290Y0071457D01*
X0062790Y0070957D01*
X0048468Y0073118D02*
X0046966Y0073118D01*
X0046966Y0073869D01*
X0047217Y0074119D01*
X0047717Y0074119D01*
X0047967Y0073869D01*
X0047967Y0073118D01*
X0047967Y0073618D02*
X0048468Y0074119D01*
X0048218Y0074591D02*
X0048468Y0074841D01*
X0048468Y0075342D01*
X0048218Y0075592D01*
X0047717Y0075592D01*
X0047467Y0075342D01*
X0047467Y0075092D01*
X0047717Y0074591D01*
X0046966Y0074591D01*
X0046966Y0075592D01*
X0046582Y0076198D02*
X0046582Y0076949D01*
X0046832Y0077199D01*
X0047333Y0077199D01*
X0047583Y0076949D01*
X0047583Y0076198D01*
X0048083Y0076198D02*
X0046582Y0076198D01*
X0047583Y0076699D02*
X0048083Y0077199D01*
X0047833Y0077671D02*
X0048083Y0077922D01*
X0048083Y0078422D01*
X0047833Y0078672D01*
X0047583Y0078672D01*
X0047333Y0078422D01*
X0047333Y0077671D01*
X0047833Y0077671D01*
X0047333Y0077671D02*
X0046832Y0078172D01*
X0046582Y0078672D01*
X0048168Y0053363D02*
X0048918Y0053363D01*
X0049168Y0053113D01*
X0049168Y0052613D01*
X0048918Y0052363D01*
X0048168Y0052363D01*
X0048668Y0052363D02*
X0049168Y0051862D01*
X0049641Y0052112D02*
X0049891Y0051862D01*
X0050392Y0051862D01*
X0050642Y0052112D01*
X0050642Y0052363D01*
X0050392Y0052613D01*
X0050141Y0052613D01*
X0050392Y0052613D02*
X0050642Y0052863D01*
X0050642Y0053113D01*
X0050392Y0053363D01*
X0049891Y0053363D01*
X0049641Y0053113D01*
X0048168Y0053363D02*
X0048168Y0051862D01*
X0047361Y0049856D02*
X0046860Y0049856D01*
X0046610Y0049606D01*
X0046137Y0049606D02*
X0046137Y0049106D01*
X0045887Y0048856D01*
X0045137Y0048856D01*
X0045637Y0048856D02*
X0046137Y0048355D01*
X0046610Y0048355D02*
X0047611Y0049356D01*
X0047611Y0049606D01*
X0047361Y0049856D01*
X0046137Y0049606D02*
X0045887Y0049856D01*
X0045137Y0049856D01*
X0045137Y0048355D01*
X0046610Y0048355D02*
X0047611Y0048355D01*
X0072367Y0042766D02*
X0072617Y0043016D01*
X0073118Y0043016D01*
X0073368Y0042766D01*
X0073368Y0041765D01*
X0073118Y0041515D01*
X0072617Y0041515D01*
X0072367Y0041765D01*
X0072367Y0042766D01*
X0072867Y0042015D02*
X0073368Y0041515D01*
X0073840Y0041515D02*
X0074841Y0041515D01*
X0074341Y0041515D02*
X0074341Y0043016D01*
X0073840Y0042515D01*
X0095361Y0038584D02*
X0095862Y0038084D01*
X0095611Y0037611D02*
X0095361Y0037361D01*
X0095361Y0036861D01*
X0095611Y0036610D01*
X0096612Y0036610D01*
X0096862Y0036861D01*
X0096862Y0037361D01*
X0096612Y0037611D01*
X0096862Y0038084D02*
X0096862Y0039085D01*
X0096862Y0038584D02*
X0095361Y0038584D01*
X0100927Y0053887D02*
X0102178Y0053887D01*
X0102428Y0054137D01*
X0102428Y0054638D01*
X0102178Y0054888D01*
X0100927Y0054888D01*
X0101177Y0055360D02*
X0100927Y0055610D01*
X0100927Y0056111D01*
X0101177Y0056361D01*
X0101427Y0056361D01*
X0102428Y0055360D01*
X0102428Y0056361D01*
X0110637Y0055650D02*
X0110637Y0055150D01*
X0110888Y0054900D01*
X0110888Y0054427D02*
X0110637Y0054177D01*
X0110637Y0053677D01*
X0110888Y0053426D01*
X0111888Y0053426D01*
X0112139Y0053677D01*
X0112139Y0054177D01*
X0111888Y0054427D01*
X0112139Y0054900D02*
X0111138Y0055900D01*
X0110888Y0055900D01*
X0110637Y0055650D01*
X0112139Y0055900D02*
X0112139Y0054900D01*
D14*
X0095169Y0054340D02*
X0095169Y0052227D01*
X0094069Y0048283D02*
X0090687Y0048283D01*
X0090687Y0058283D02*
X0094069Y0058283D01*
X0076157Y0055328D02*
X0076157Y0051947D01*
X0072214Y0056428D02*
X0070101Y0056428D01*
X0066157Y0055328D02*
X0066157Y0051947D01*
X0070055Y0037220D02*
X0070055Y0034071D01*
X0070055Y0037220D02*
X0072417Y0037220D01*
X0078717Y0037220D02*
X0081079Y0037220D01*
X0081079Y0034071D01*
X0082870Y0082890D02*
X0077358Y0082890D01*
X0082870Y0082890D02*
X0082870Y0088008D01*
X0077358Y0088008D01*
X0082870Y0088008D02*
X0084445Y0088008D01*
X0084445Y0082890D02*
X0082870Y0082890D01*
D15*
X0020762Y0029066D02*
X0020762Y0027565D01*
X0020762Y0028315D02*
X0025266Y0028315D01*
X0025266Y0027565D02*
X0025266Y0029066D01*
X0025266Y0030634D02*
X0020762Y0033637D01*
X0021513Y0035238D02*
X0020762Y0035989D01*
X0020762Y0037490D01*
X0021513Y0038241D01*
X0024516Y0038241D01*
X0025266Y0037490D01*
X0025266Y0035989D01*
X0024516Y0035238D01*
X0021513Y0035238D01*
X0115141Y0035168D02*
X0118894Y0035168D01*
X0119645Y0034417D01*
X0119645Y0032916D01*
X0118894Y0032165D01*
X0115141Y0032165D01*
X0115892Y0030564D02*
X0115141Y0029813D01*
X0115141Y0028312D01*
X0115892Y0027561D01*
X0116642Y0027561D01*
X0117393Y0028312D01*
X0117393Y0029813D01*
X0118144Y0030564D01*
X0118894Y0030564D01*
X0119645Y0029813D01*
X0119645Y0028312D01*
X0118894Y0027561D01*
X0118144Y0036769D02*
X0118144Y0039021D01*
X0117393Y0039771D01*
X0115892Y0039771D01*
X0115141Y0039021D01*
X0115141Y0036769D01*
X0119645Y0036769D01*
X0119645Y0041373D02*
X0115141Y0041373D01*
X0115141Y0043625D01*
X0115892Y0044375D01*
X0117393Y0044375D01*
X0118144Y0043625D01*
X0118144Y0041373D01*
X0119645Y0045977D02*
X0115141Y0045977D01*
X0119645Y0045977D02*
X0119645Y0048979D01*
X0119645Y0052082D02*
X0117393Y0052082D01*
X0115892Y0053583D01*
X0115141Y0053583D01*
X0117393Y0052082D02*
X0115892Y0050581D01*
X0115141Y0050581D01*
X0114659Y0133233D02*
X0112407Y0133233D01*
X0112407Y0137737D01*
X0114659Y0137737D01*
X0115409Y0136987D01*
X0115409Y0136236D01*
X0114659Y0135485D01*
X0112407Y0135485D01*
X0114659Y0135485D02*
X0115409Y0134735D01*
X0115409Y0133984D01*
X0114659Y0133233D01*
X0117011Y0133233D02*
X0117011Y0136236D01*
X0118512Y0137737D01*
X0120013Y0136236D01*
X0120013Y0133233D01*
X0120013Y0135485D02*
X0117011Y0135485D01*
X0121615Y0137737D02*
X0124617Y0137737D01*
X0123116Y0137737D02*
X0123116Y0133233D01*
X0040904Y0134339D02*
X0040153Y0133589D01*
X0037901Y0133589D01*
X0037901Y0138092D01*
X0040153Y0138092D01*
X0040904Y0137342D01*
X0040904Y0136591D01*
X0040153Y0135841D01*
X0037901Y0135841D01*
X0036300Y0135090D02*
X0036300Y0134339D01*
X0035549Y0133589D01*
X0034048Y0133589D01*
X0033297Y0134339D01*
X0031696Y0134339D02*
X0030945Y0133589D01*
X0029444Y0133589D01*
X0028693Y0134339D01*
X0028693Y0138092D01*
X0031696Y0138092D02*
X0031696Y0134339D01*
X0033297Y0136591D02*
X0034048Y0135841D01*
X0035549Y0135841D01*
X0036300Y0135090D01*
X0036300Y0137342D02*
X0035549Y0138092D01*
X0034048Y0138092D01*
X0033297Y0137342D01*
X0033297Y0136591D01*
X0040153Y0135841D02*
X0040904Y0135090D01*
X0040904Y0134339D01*
D16*
X0048284Y0032574D02*
X0048357Y0032651D01*
X0048432Y0032726D01*
X0048510Y0032797D01*
X0048591Y0032866D01*
X0048674Y0032932D01*
X0048759Y0032995D01*
X0048847Y0033054D01*
X0048936Y0033111D01*
X0049028Y0033164D01*
X0049122Y0033214D01*
X0049217Y0033260D01*
X0049314Y0033303D01*
X0049412Y0033342D01*
X0049512Y0033378D01*
X0049613Y0033410D01*
X0049715Y0033438D01*
X0049818Y0033463D01*
X0049922Y0033484D01*
X0050027Y0033501D01*
X0050132Y0033515D01*
X0050237Y0033524D01*
X0050343Y0033530D01*
X0050449Y0033532D01*
X0050555Y0033530D01*
X0050661Y0033524D01*
X0050766Y0033515D01*
X0050871Y0033501D01*
X0050976Y0033484D01*
X0051080Y0033463D01*
X0051183Y0033438D01*
X0051285Y0033410D01*
X0051386Y0033378D01*
X0051486Y0033342D01*
X0051584Y0033303D01*
X0051681Y0033260D01*
X0051776Y0033214D01*
X0051870Y0033164D01*
X0051962Y0033111D01*
X0052051Y0033054D01*
X0052139Y0032995D01*
X0052224Y0032932D01*
X0052307Y0032866D01*
X0052388Y0032797D01*
X0052466Y0032726D01*
X0052541Y0032651D01*
X0052614Y0032574D01*
X0052614Y0028638D02*
X0052541Y0028561D01*
X0052466Y0028486D01*
X0052388Y0028415D01*
X0052307Y0028346D01*
X0052224Y0028280D01*
X0052139Y0028217D01*
X0052051Y0028158D01*
X0051962Y0028101D01*
X0051870Y0028048D01*
X0051776Y0027998D01*
X0051681Y0027952D01*
X0051584Y0027909D01*
X0051486Y0027870D01*
X0051386Y0027834D01*
X0051285Y0027802D01*
X0051183Y0027774D01*
X0051080Y0027749D01*
X0050976Y0027728D01*
X0050871Y0027711D01*
X0050766Y0027697D01*
X0050661Y0027688D01*
X0050555Y0027682D01*
X0050449Y0027680D01*
X0050343Y0027682D01*
X0050237Y0027688D01*
X0050132Y0027697D01*
X0050027Y0027711D01*
X0049922Y0027728D01*
X0049818Y0027749D01*
X0049715Y0027774D01*
X0049613Y0027802D01*
X0049512Y0027834D01*
X0049412Y0027870D01*
X0049314Y0027909D01*
X0049217Y0027952D01*
X0049122Y0027998D01*
X0049028Y0028048D01*
X0048936Y0028101D01*
X0048847Y0028158D01*
X0048759Y0028217D01*
X0048674Y0028280D01*
X0048591Y0028346D01*
X0048510Y0028415D01*
X0048432Y0028486D01*
X0048357Y0028561D01*
X0048284Y0028638D01*
X0048743Y0025410D02*
X0046441Y0025410D01*
X0046441Y0020806D01*
X0048743Y0020806D01*
X0049510Y0021574D01*
X0049510Y0024643D01*
X0048743Y0025410D01*
X0051045Y0023876D02*
X0052579Y0025410D01*
X0052579Y0020806D01*
X0051045Y0020806D02*
X0054114Y0020806D01*
X0044906Y0020806D02*
X0041837Y0020806D01*
X0041837Y0025410D01*
X0044906Y0025410D01*
X0043372Y0023108D02*
X0041837Y0023108D01*
X0040302Y0020806D02*
X0037233Y0020806D01*
X0037233Y0025410D01*
D17*
X0050449Y0030606D03*
D18*
X0048382Y0032870D03*
D19*
X0064857Y0049638D03*
X0088378Y0059583D03*
M02*
