G75*
%MOIN*%
%OFA0B0*%
%FSLAX25Y25*%
%IPPOS*%
%LPD*%
%AMOC8*
5,1,8,0,0,1.08239X$1,22.5*
%
%ADD10R,0.04724X0.03150*%
%ADD11R,0.02480X0.03268*%
%ADD12C,0.07400*%
%ADD13R,0.06299X0.07098*%
%ADD14R,0.03150X0.03543*%
%ADD15R,0.03150X0.04724*%
%ADD16R,0.02165X0.04724*%
%ADD17R,0.04724X0.02165*%
%ADD18C,0.00394*%
%ADD19C,0.00500*%
%ADD20C,0.01969*%
%ADD21C,0.04000*%
%ADD22C,0.01000*%
%ADD23C,0.03962*%
D10*
X0067091Y0068890D03*
X0067091Y0075977D03*
X0051768Y0072525D03*
X0051768Y0079611D03*
X0043283Y0079638D03*
X0043283Y0072551D03*
X0092062Y0040050D03*
X0092062Y0032964D03*
X0107339Y0049780D03*
X0107339Y0056866D03*
X0098635Y0072817D03*
X0098635Y0079903D03*
D11*
X0085429Y0085449D03*
X0076374Y0085449D03*
D12*
X0043743Y0126139D03*
X0033743Y0126139D03*
X0032716Y0082615D03*
X0032716Y0072615D03*
X0032716Y0062615D03*
X0032716Y0052615D03*
X0032716Y0042615D03*
X0032716Y0032615D03*
X0117457Y0125783D03*
X0127457Y0125783D03*
X0127095Y0072611D03*
X0127095Y0062611D03*
X0127095Y0052611D03*
X0127095Y0042611D03*
X0127095Y0032611D03*
D13*
X0056047Y0030606D03*
X0044850Y0030606D03*
D14*
X0071827Y0030528D03*
X0079307Y0030528D03*
X0075567Y0038795D03*
D15*
X0051630Y0045055D03*
X0044543Y0045055D03*
X0044521Y0056662D03*
X0051607Y0056662D03*
D16*
X0067417Y0058756D03*
X0074898Y0058756D03*
X0074898Y0048519D03*
X0071157Y0048519D03*
X0067417Y0048519D03*
D17*
X0087259Y0049543D03*
X0087259Y0053283D03*
X0087259Y0057024D03*
X0097496Y0057024D03*
X0097496Y0049543D03*
D18*
X0001197Y0074120D02*
X0001197Y0001197D01*
X0077322Y0001197D01*
X0071682Y0001394D01*
X0071682Y0001394D01*
X0060831Y0003307D01*
X0060831Y0003307D01*
X0050352Y0006712D01*
X0050352Y0006712D01*
X0040449Y0011542D01*
X0040449Y0011542D01*
X0031315Y0017703D01*
X0031315Y0017703D01*
X0023127Y0025076D01*
X0023127Y0025076D01*
X0023127Y0025076D01*
X0016044Y0033516D01*
X0016044Y0033516D01*
X0010205Y0042860D01*
X0010205Y0042860D01*
X0005724Y0052926D01*
X0005724Y0052926D01*
X0002687Y0063517D01*
X0001197Y0074120D01*
X0001197Y0073826D02*
X0001238Y0073826D01*
X0001197Y0073434D02*
X0001293Y0073434D01*
X0001348Y0073042D02*
X0001197Y0073042D01*
X0001197Y0072649D02*
X0001404Y0072649D01*
X0001459Y0072257D02*
X0001197Y0072257D01*
X0001197Y0071865D02*
X0001514Y0071865D01*
X0001569Y0071473D02*
X0001197Y0071473D01*
X0001197Y0071080D02*
X0001624Y0071080D01*
X0001679Y0070688D02*
X0001197Y0070688D01*
X0001197Y0070296D02*
X0001734Y0070296D01*
X0001789Y0069904D02*
X0001197Y0069904D01*
X0001197Y0069512D02*
X0001844Y0069512D01*
X0001900Y0069119D02*
X0001197Y0069119D01*
X0001197Y0068727D02*
X0001955Y0068727D01*
X0002010Y0068335D02*
X0001197Y0068335D01*
X0001197Y0067943D02*
X0002065Y0067943D01*
X0002120Y0067551D02*
X0001197Y0067551D01*
X0001197Y0067158D02*
X0002175Y0067158D01*
X0002230Y0066766D02*
X0001197Y0066766D01*
X0001197Y0066374D02*
X0002285Y0066374D01*
X0002341Y0065982D02*
X0001197Y0065982D01*
X0001197Y0065589D02*
X0002396Y0065589D01*
X0002451Y0065197D02*
X0001197Y0065197D01*
X0001197Y0064805D02*
X0002506Y0064805D01*
X0002561Y0064413D02*
X0001197Y0064413D01*
X0001197Y0064021D02*
X0002616Y0064021D01*
X0002671Y0063628D02*
X0001197Y0063628D01*
X0001197Y0063236D02*
X0002767Y0063236D01*
X0002687Y0063517D02*
X0002687Y0063517D01*
X0002880Y0062844D02*
X0001197Y0062844D01*
X0001197Y0062452D02*
X0002992Y0062452D01*
X0003105Y0062060D02*
X0001197Y0062060D01*
X0001197Y0061667D02*
X0003217Y0061667D01*
X0003330Y0061275D02*
X0001197Y0061275D01*
X0001197Y0060883D02*
X0003442Y0060883D01*
X0003555Y0060491D02*
X0001197Y0060491D01*
X0001197Y0060099D02*
X0003667Y0060099D01*
X0003780Y0059706D02*
X0001197Y0059706D01*
X0001197Y0059314D02*
X0003892Y0059314D01*
X0004005Y0058922D02*
X0001197Y0058922D01*
X0001197Y0058530D02*
X0004117Y0058530D01*
X0004230Y0058137D02*
X0001197Y0058137D01*
X0001197Y0057745D02*
X0004342Y0057745D01*
X0004454Y0057353D02*
X0001197Y0057353D01*
X0001197Y0056961D02*
X0004567Y0056961D01*
X0004679Y0056569D02*
X0001197Y0056569D01*
X0001197Y0056176D02*
X0004792Y0056176D01*
X0004904Y0055784D02*
X0001197Y0055784D01*
X0001197Y0055392D02*
X0005017Y0055392D01*
X0005129Y0055000D02*
X0001197Y0055000D01*
X0001197Y0054608D02*
X0005242Y0054608D01*
X0005354Y0054215D02*
X0001197Y0054215D01*
X0001197Y0053823D02*
X0005467Y0053823D01*
X0005579Y0053431D02*
X0001197Y0053431D01*
X0001197Y0053039D02*
X0005692Y0053039D01*
X0005848Y0052646D02*
X0001197Y0052646D01*
X0001197Y0052254D02*
X0006023Y0052254D01*
X0006198Y0051862D02*
X0001197Y0051862D01*
X0001197Y0051470D02*
X0006372Y0051470D01*
X0006547Y0051078D02*
X0001197Y0051078D01*
X0001197Y0050685D02*
X0006721Y0050685D01*
X0006896Y0050293D02*
X0001197Y0050293D01*
X0001197Y0049901D02*
X0007071Y0049901D01*
X0007245Y0049509D02*
X0001197Y0049509D01*
X0001197Y0049117D02*
X0007420Y0049117D01*
X0007595Y0048724D02*
X0001197Y0048724D01*
X0001197Y0048332D02*
X0007769Y0048332D01*
X0007944Y0047940D02*
X0001197Y0047940D01*
X0001197Y0047548D02*
X0008118Y0047548D01*
X0008293Y0047156D02*
X0001197Y0047156D01*
X0001197Y0046763D02*
X0008468Y0046763D01*
X0008642Y0046371D02*
X0001197Y0046371D01*
X0001197Y0045979D02*
X0008817Y0045979D01*
X0008991Y0045587D02*
X0001197Y0045587D01*
X0001197Y0045194D02*
X0009166Y0045194D01*
X0009341Y0044802D02*
X0001197Y0044802D01*
X0001197Y0044410D02*
X0009515Y0044410D01*
X0009690Y0044018D02*
X0001197Y0044018D01*
X0001197Y0043626D02*
X0009865Y0043626D01*
X0010039Y0043233D02*
X0001197Y0043233D01*
X0001197Y0042841D02*
X0010217Y0042841D01*
X0010462Y0042449D02*
X0001197Y0042449D01*
X0001197Y0042057D02*
X0010707Y0042057D01*
X0010952Y0041665D02*
X0001197Y0041665D01*
X0001197Y0041272D02*
X0011198Y0041272D01*
X0011443Y0040880D02*
X0001197Y0040880D01*
X0001197Y0040488D02*
X0011688Y0040488D01*
X0011933Y0040096D02*
X0001197Y0040096D01*
X0001197Y0039703D02*
X0012178Y0039703D01*
X0012423Y0039311D02*
X0001197Y0039311D01*
X0001197Y0038919D02*
X0012668Y0038919D01*
X0012913Y0038527D02*
X0001197Y0038527D01*
X0001197Y0038135D02*
X0013158Y0038135D01*
X0013403Y0037742D02*
X0001197Y0037742D01*
X0001197Y0037350D02*
X0013648Y0037350D01*
X0013893Y0036958D02*
X0001197Y0036958D01*
X0001197Y0036566D02*
X0014139Y0036566D01*
X0014384Y0036174D02*
X0001197Y0036174D01*
X0001197Y0035781D02*
X0014629Y0035781D01*
X0014874Y0035389D02*
X0001197Y0035389D01*
X0001197Y0034997D02*
X0015119Y0034997D01*
X0015364Y0034605D02*
X0001197Y0034605D01*
X0001197Y0034213D02*
X0015609Y0034213D01*
X0015854Y0033820D02*
X0001197Y0033820D01*
X0001197Y0033428D02*
X0016118Y0033428D01*
X0016447Y0033036D02*
X0001197Y0033036D01*
X0001197Y0032644D02*
X0016776Y0032644D01*
X0017105Y0032251D02*
X0001197Y0032251D01*
X0001197Y0031859D02*
X0017434Y0031859D01*
X0017764Y0031467D02*
X0001197Y0031467D01*
X0001197Y0031075D02*
X0018093Y0031075D01*
X0018422Y0030683D02*
X0001197Y0030683D01*
X0001197Y0030290D02*
X0018751Y0030290D01*
X0019080Y0029898D02*
X0001197Y0029898D01*
X0001197Y0029506D02*
X0019409Y0029506D01*
X0019738Y0029114D02*
X0001197Y0029114D01*
X0001197Y0028722D02*
X0020067Y0028722D01*
X0020396Y0028329D02*
X0001197Y0028329D01*
X0001197Y0027937D02*
X0020726Y0027937D01*
X0021055Y0027545D02*
X0001197Y0027545D01*
X0001197Y0027153D02*
X0021384Y0027153D01*
X0021713Y0026760D02*
X0001197Y0026760D01*
X0001197Y0026368D02*
X0022042Y0026368D01*
X0022371Y0025976D02*
X0001197Y0025976D01*
X0001197Y0025584D02*
X0022700Y0025584D01*
X0023029Y0025192D02*
X0001197Y0025192D01*
X0001197Y0024799D02*
X0023433Y0024799D01*
X0023869Y0024407D02*
X0001197Y0024407D01*
X0001197Y0024015D02*
X0024305Y0024015D01*
X0024740Y0023623D02*
X0001197Y0023623D01*
X0001197Y0023231D02*
X0025176Y0023231D01*
X0025611Y0022838D02*
X0001197Y0022838D01*
X0001197Y0022446D02*
X0026047Y0022446D01*
X0026483Y0022054D02*
X0001197Y0022054D01*
X0001197Y0021662D02*
X0026918Y0021662D01*
X0027354Y0021270D02*
X0001197Y0021270D01*
X0001197Y0020877D02*
X0027789Y0020877D01*
X0028225Y0020485D02*
X0001197Y0020485D01*
X0001197Y0020093D02*
X0028661Y0020093D01*
X0029096Y0019701D02*
X0001197Y0019701D01*
X0001197Y0019308D02*
X0029532Y0019308D01*
X0029967Y0018916D02*
X0001197Y0018916D01*
X0001197Y0018524D02*
X0030403Y0018524D01*
X0030839Y0018132D02*
X0001197Y0018132D01*
X0001197Y0017740D02*
X0031274Y0017740D01*
X0031842Y0017347D02*
X0001197Y0017347D01*
X0001197Y0016955D02*
X0032424Y0016955D01*
X0033005Y0016563D02*
X0001197Y0016563D01*
X0001197Y0016171D02*
X0033586Y0016171D01*
X0034168Y0015779D02*
X0001197Y0015779D01*
X0001197Y0015386D02*
X0034749Y0015386D01*
X0035331Y0014994D02*
X0001197Y0014994D01*
X0001197Y0014602D02*
X0035912Y0014602D01*
X0036494Y0014210D02*
X0001197Y0014210D01*
X0001197Y0013817D02*
X0037075Y0013817D01*
X0037657Y0013425D02*
X0001197Y0013425D01*
X0001197Y0013033D02*
X0038238Y0013033D01*
X0038820Y0012641D02*
X0001197Y0012641D01*
X0001197Y0012249D02*
X0039401Y0012249D01*
X0039983Y0011856D02*
X0001197Y0011856D01*
X0001197Y0011464D02*
X0040608Y0011464D01*
X0041413Y0011072D02*
X0001197Y0011072D01*
X0001197Y0010680D02*
X0042217Y0010680D01*
X0043021Y0010288D02*
X0001197Y0010288D01*
X0001197Y0009895D02*
X0043825Y0009895D01*
X0044629Y0009503D02*
X0001197Y0009503D01*
X0001197Y0009111D02*
X0045433Y0009111D01*
X0046237Y0008719D02*
X0001197Y0008719D01*
X0001197Y0008327D02*
X0047042Y0008327D01*
X0047846Y0007934D02*
X0001197Y0007934D01*
X0001197Y0007542D02*
X0048650Y0007542D01*
X0049454Y0007150D02*
X0001197Y0007150D01*
X0001197Y0006758D02*
X0050258Y0006758D01*
X0051418Y0006365D02*
X0001197Y0006365D01*
X0001197Y0005973D02*
X0052625Y0005973D01*
X0053832Y0005581D02*
X0001197Y0005581D01*
X0001197Y0005189D02*
X0055040Y0005189D01*
X0056247Y0004797D02*
X0001197Y0004797D01*
X0001197Y0004404D02*
X0057454Y0004404D01*
X0058661Y0004012D02*
X0001197Y0004012D01*
X0001197Y0003620D02*
X0059868Y0003620D01*
X0061281Y0003228D02*
X0001197Y0003228D01*
X0001197Y0002836D02*
X0063505Y0002836D01*
X0065729Y0002443D02*
X0001197Y0002443D01*
X0001197Y0002051D02*
X0067954Y0002051D01*
X0070178Y0001659D02*
X0001197Y0001659D01*
X0001197Y0001267D02*
X0075321Y0001267D01*
X0084478Y0001197D02*
X0093651Y0002161D01*
X0104342Y0004827D01*
X0114558Y0008954D01*
X0124100Y0014463D01*
X0132782Y0021247D01*
X0140436Y0029172D01*
X0146912Y0038086D01*
X0152085Y0047815D01*
X0155853Y0058168D01*
X0158144Y0068946D01*
X0158677Y0076566D01*
X0158677Y0001197D01*
X0084478Y0001197D01*
X0085143Y0001267D02*
X0158677Y0001267D01*
X0158677Y0001659D02*
X0088874Y0001659D01*
X0092606Y0002051D02*
X0158677Y0002051D01*
X0158677Y0002443D02*
X0094784Y0002443D01*
X0093651Y0002161D02*
X0093651Y0002161D01*
X0096357Y0002836D02*
X0158677Y0002836D01*
X0158677Y0003228D02*
X0097930Y0003228D01*
X0099503Y0003620D02*
X0158677Y0003620D01*
X0158677Y0004012D02*
X0101076Y0004012D01*
X0102649Y0004404D02*
X0158677Y0004404D01*
X0158677Y0004797D02*
X0104222Y0004797D01*
X0104342Y0004827D02*
X0104342Y0004827D01*
X0105239Y0005189D02*
X0158677Y0005189D01*
X0158677Y0005581D02*
X0106209Y0005581D01*
X0107180Y0005973D02*
X0158677Y0005973D01*
X0158677Y0006365D02*
X0108151Y0006365D01*
X0109122Y0006758D02*
X0158677Y0006758D01*
X0158677Y0007150D02*
X0110092Y0007150D01*
X0111063Y0007542D02*
X0158677Y0007542D01*
X0158677Y0007934D02*
X0112034Y0007934D01*
X0113005Y0008327D02*
X0158677Y0008327D01*
X0158677Y0008719D02*
X0113976Y0008719D01*
X0114830Y0009111D02*
X0158677Y0009111D01*
X0158677Y0009503D02*
X0115509Y0009503D01*
X0116188Y0009895D02*
X0158677Y0009895D01*
X0158677Y0010288D02*
X0116868Y0010288D01*
X0117547Y0010680D02*
X0158677Y0010680D01*
X0158677Y0011072D02*
X0118226Y0011072D01*
X0118906Y0011464D02*
X0158677Y0011464D01*
X0158677Y0011856D02*
X0119585Y0011856D01*
X0120264Y0012249D02*
X0158677Y0012249D01*
X0158677Y0012641D02*
X0120944Y0012641D01*
X0121623Y0013033D02*
X0158677Y0013033D01*
X0158677Y0013425D02*
X0122302Y0013425D01*
X0122982Y0013817D02*
X0158677Y0013817D01*
X0158677Y0014210D02*
X0123661Y0014210D01*
X0124277Y0014602D02*
X0158677Y0014602D01*
X0158677Y0014994D02*
X0124779Y0014994D01*
X0125281Y0015386D02*
X0158677Y0015386D01*
X0158677Y0015779D02*
X0125784Y0015779D01*
X0126286Y0016171D02*
X0158677Y0016171D01*
X0158677Y0016563D02*
X0126788Y0016563D01*
X0127290Y0016955D02*
X0158677Y0016955D01*
X0158677Y0017347D02*
X0127792Y0017347D01*
X0128294Y0017740D02*
X0158677Y0017740D01*
X0158677Y0018132D02*
X0128796Y0018132D01*
X0129298Y0018524D02*
X0158677Y0018524D01*
X0158677Y0018916D02*
X0129800Y0018916D01*
X0130302Y0019308D02*
X0158677Y0019308D01*
X0158677Y0019701D02*
X0130804Y0019701D01*
X0131306Y0020093D02*
X0158677Y0020093D01*
X0158677Y0020485D02*
X0131808Y0020485D01*
X0132310Y0020877D02*
X0158677Y0020877D01*
X0158677Y0021270D02*
X0132804Y0021270D01*
X0132782Y0021247D02*
X0132782Y0021247D01*
X0133183Y0021662D02*
X0158677Y0021662D01*
X0158677Y0022054D02*
X0133562Y0022054D01*
X0133941Y0022446D02*
X0158677Y0022446D01*
X0158677Y0022838D02*
X0134319Y0022838D01*
X0134698Y0023231D02*
X0158677Y0023231D01*
X0158677Y0023623D02*
X0135077Y0023623D01*
X0135456Y0024015D02*
X0158677Y0024015D01*
X0158677Y0024407D02*
X0135834Y0024407D01*
X0136213Y0024799D02*
X0158677Y0024799D01*
X0158677Y0025192D02*
X0136592Y0025192D01*
X0136971Y0025584D02*
X0158677Y0025584D01*
X0158677Y0025976D02*
X0137349Y0025976D01*
X0137728Y0026368D02*
X0158677Y0026368D01*
X0158677Y0026760D02*
X0138107Y0026760D01*
X0138486Y0027153D02*
X0158677Y0027153D01*
X0158677Y0027545D02*
X0138864Y0027545D01*
X0139243Y0027937D02*
X0158677Y0027937D01*
X0158677Y0028329D02*
X0139622Y0028329D01*
X0140001Y0028722D02*
X0158677Y0028722D01*
X0158677Y0029114D02*
X0140379Y0029114D01*
X0140678Y0029506D02*
X0158677Y0029506D01*
X0158677Y0029898D02*
X0140963Y0029898D01*
X0141248Y0030290D02*
X0158677Y0030290D01*
X0158677Y0030683D02*
X0141533Y0030683D01*
X0141818Y0031075D02*
X0158677Y0031075D01*
X0158677Y0031467D02*
X0142103Y0031467D01*
X0142388Y0031859D02*
X0158677Y0031859D01*
X0158677Y0032251D02*
X0142673Y0032251D01*
X0142958Y0032644D02*
X0158677Y0032644D01*
X0158677Y0033036D02*
X0143243Y0033036D01*
X0143528Y0033428D02*
X0158677Y0033428D01*
X0158677Y0033820D02*
X0143813Y0033820D01*
X0144098Y0034213D02*
X0158677Y0034213D01*
X0158677Y0034605D02*
X0144383Y0034605D01*
X0144668Y0034997D02*
X0158677Y0034997D01*
X0158677Y0035389D02*
X0144953Y0035389D01*
X0145238Y0035781D02*
X0158677Y0035781D01*
X0158677Y0036174D02*
X0145523Y0036174D01*
X0145808Y0036566D02*
X0158677Y0036566D01*
X0158677Y0036958D02*
X0146093Y0036958D01*
X0146378Y0037350D02*
X0158677Y0037350D01*
X0158677Y0037742D02*
X0146663Y0037742D01*
X0146938Y0038135D02*
X0158677Y0038135D01*
X0158677Y0038527D02*
X0147147Y0038527D01*
X0147355Y0038919D02*
X0158677Y0038919D01*
X0158677Y0039311D02*
X0147564Y0039311D01*
X0147772Y0039703D02*
X0158677Y0039703D01*
X0158677Y0040096D02*
X0147981Y0040096D01*
X0148189Y0040488D02*
X0158677Y0040488D01*
X0158677Y0040880D02*
X0148398Y0040880D01*
X0148606Y0041272D02*
X0158677Y0041272D01*
X0158677Y0041665D02*
X0148815Y0041665D01*
X0149024Y0042057D02*
X0158677Y0042057D01*
X0158677Y0042449D02*
X0149232Y0042449D01*
X0149441Y0042841D02*
X0158677Y0042841D01*
X0158677Y0043233D02*
X0149649Y0043233D01*
X0149858Y0043626D02*
X0158677Y0043626D01*
X0158677Y0044018D02*
X0150066Y0044018D01*
X0150275Y0044410D02*
X0158677Y0044410D01*
X0158677Y0044802D02*
X0150483Y0044802D01*
X0150692Y0045194D02*
X0158677Y0045194D01*
X0158677Y0045587D02*
X0150900Y0045587D01*
X0151109Y0045979D02*
X0158677Y0045979D01*
X0158677Y0046371D02*
X0151317Y0046371D01*
X0151526Y0046763D02*
X0158677Y0046763D01*
X0158677Y0047156D02*
X0151735Y0047156D01*
X0151943Y0047548D02*
X0158677Y0047548D01*
X0158677Y0047940D02*
X0152131Y0047940D01*
X0152273Y0048332D02*
X0158677Y0048332D01*
X0158677Y0048724D02*
X0152416Y0048724D01*
X0152559Y0049117D02*
X0158677Y0049117D01*
X0158677Y0049509D02*
X0152702Y0049509D01*
X0152844Y0049901D02*
X0158677Y0049901D01*
X0158677Y0050293D02*
X0152987Y0050293D01*
X0153130Y0050685D02*
X0158677Y0050685D01*
X0158677Y0051078D02*
X0153273Y0051078D01*
X0153415Y0051470D02*
X0158677Y0051470D01*
X0158677Y0051862D02*
X0153558Y0051862D01*
X0153701Y0052254D02*
X0158677Y0052254D01*
X0158677Y0052646D02*
X0153844Y0052646D01*
X0153986Y0053039D02*
X0158677Y0053039D01*
X0158677Y0053431D02*
X0154129Y0053431D01*
X0154272Y0053823D02*
X0158677Y0053823D01*
X0158677Y0054215D02*
X0154415Y0054215D01*
X0154557Y0054608D02*
X0158677Y0054608D01*
X0158677Y0055000D02*
X0154700Y0055000D01*
X0154843Y0055392D02*
X0158677Y0055392D01*
X0158677Y0055784D02*
X0154986Y0055784D01*
X0155128Y0056176D02*
X0158677Y0056176D01*
X0158677Y0056569D02*
X0155271Y0056569D01*
X0155414Y0056961D02*
X0158677Y0056961D01*
X0158677Y0057353D02*
X0155557Y0057353D01*
X0155699Y0057745D02*
X0158677Y0057745D01*
X0158677Y0058137D02*
X0155842Y0058137D01*
X0155930Y0058530D02*
X0158677Y0058530D01*
X0158677Y0058922D02*
X0156014Y0058922D01*
X0156097Y0059314D02*
X0158677Y0059314D01*
X0158677Y0059706D02*
X0156180Y0059706D01*
X0156264Y0060099D02*
X0158677Y0060099D01*
X0158677Y0060491D02*
X0156347Y0060491D01*
X0156430Y0060883D02*
X0158677Y0060883D01*
X0158677Y0061275D02*
X0156514Y0061275D01*
X0156597Y0061667D02*
X0158677Y0061667D01*
X0158677Y0062060D02*
X0156681Y0062060D01*
X0156764Y0062452D02*
X0158677Y0062452D01*
X0158677Y0062844D02*
X0156847Y0062844D01*
X0156931Y0063236D02*
X0158677Y0063236D01*
X0158677Y0063628D02*
X0157014Y0063628D01*
X0157097Y0064021D02*
X0158677Y0064021D01*
X0158677Y0064413D02*
X0157181Y0064413D01*
X0157264Y0064805D02*
X0158677Y0064805D01*
X0158677Y0065197D02*
X0157348Y0065197D01*
X0157431Y0065589D02*
X0158677Y0065589D01*
X0158677Y0065982D02*
X0157514Y0065982D01*
X0157598Y0066374D02*
X0158677Y0066374D01*
X0158677Y0066766D02*
X0157681Y0066766D01*
X0157764Y0067158D02*
X0158677Y0067158D01*
X0158677Y0067551D02*
X0157848Y0067551D01*
X0157931Y0067943D02*
X0158677Y0067943D01*
X0158677Y0068335D02*
X0158014Y0068335D01*
X0158098Y0068727D02*
X0158677Y0068727D01*
X0158677Y0069119D02*
X0158156Y0069119D01*
X0158184Y0069512D02*
X0158677Y0069512D01*
X0158677Y0069904D02*
X0158211Y0069904D01*
X0158239Y0070296D02*
X0158677Y0070296D01*
X0158677Y0070688D02*
X0158266Y0070688D01*
X0158294Y0071080D02*
X0158677Y0071080D01*
X0158677Y0071473D02*
X0158321Y0071473D01*
X0158348Y0071865D02*
X0158677Y0071865D01*
X0158677Y0072257D02*
X0158376Y0072257D01*
X0158403Y0072649D02*
X0158677Y0072649D01*
X0158677Y0073042D02*
X0158431Y0073042D01*
X0158458Y0073434D02*
X0158677Y0073434D01*
X0158677Y0073826D02*
X0158486Y0073826D01*
X0158513Y0074218D02*
X0158677Y0074218D01*
X0158677Y0074610D02*
X0158540Y0074610D01*
X0158568Y0075003D02*
X0158677Y0075003D01*
X0158677Y0075395D02*
X0158595Y0075395D01*
X0158623Y0075787D02*
X0158677Y0075787D01*
X0158650Y0076179D02*
X0158677Y0076179D01*
X0158677Y0083308D02*
X0158144Y0090928D01*
X0155853Y0101706D01*
X0152085Y0112059D01*
X0146912Y0121788D01*
X0140436Y0130702D01*
X0132782Y0138627D01*
X0124100Y0145411D01*
X0114558Y0150920D01*
X0104342Y0155048D01*
X0095413Y0157274D01*
X0092025Y0158677D01*
X0158677Y0158677D01*
X0158677Y0083308D01*
X0158655Y0083631D02*
X0158677Y0083631D01*
X0158677Y0084023D02*
X0158627Y0084023D01*
X0158600Y0084416D02*
X0158677Y0084416D01*
X0158677Y0084808D02*
X0158572Y0084808D01*
X0158545Y0085200D02*
X0158677Y0085200D01*
X0158677Y0085592D02*
X0158517Y0085592D01*
X0158490Y0085985D02*
X0158677Y0085985D01*
X0158677Y0086377D02*
X0158463Y0086377D01*
X0158435Y0086769D02*
X0158677Y0086769D01*
X0158677Y0087161D02*
X0158408Y0087161D01*
X0158380Y0087553D02*
X0158677Y0087553D01*
X0158677Y0087946D02*
X0158353Y0087946D01*
X0158325Y0088338D02*
X0158677Y0088338D01*
X0158677Y0088730D02*
X0158298Y0088730D01*
X0158271Y0089122D02*
X0158677Y0089122D01*
X0158677Y0089514D02*
X0158243Y0089514D01*
X0158216Y0089907D02*
X0158677Y0089907D01*
X0158677Y0090299D02*
X0158188Y0090299D01*
X0158161Y0090691D02*
X0158677Y0090691D01*
X0158677Y0091083D02*
X0158111Y0091083D01*
X0158028Y0091475D02*
X0158677Y0091475D01*
X0158677Y0091868D02*
X0157945Y0091868D01*
X0157861Y0092260D02*
X0158677Y0092260D01*
X0158677Y0092652D02*
X0157778Y0092652D01*
X0157695Y0093044D02*
X0158677Y0093044D01*
X0158677Y0093437D02*
X0157611Y0093437D01*
X0157528Y0093829D02*
X0158677Y0093829D01*
X0158677Y0094221D02*
X0157444Y0094221D01*
X0157361Y0094613D02*
X0158677Y0094613D01*
X0158677Y0095005D02*
X0157278Y0095005D01*
X0157194Y0095398D02*
X0158677Y0095398D01*
X0158677Y0095790D02*
X0157111Y0095790D01*
X0157028Y0096182D02*
X0158677Y0096182D01*
X0158677Y0096574D02*
X0156944Y0096574D01*
X0156861Y0096966D02*
X0158677Y0096966D01*
X0158677Y0097359D02*
X0156777Y0097359D01*
X0156694Y0097751D02*
X0158677Y0097751D01*
X0158677Y0098143D02*
X0156611Y0098143D01*
X0156527Y0098535D02*
X0158677Y0098535D01*
X0158677Y0098928D02*
X0156444Y0098928D01*
X0156361Y0099320D02*
X0158677Y0099320D01*
X0158677Y0099712D02*
X0156277Y0099712D01*
X0156194Y0100104D02*
X0158677Y0100104D01*
X0158677Y0100496D02*
X0156111Y0100496D01*
X0156027Y0100889D02*
X0158677Y0100889D01*
X0158677Y0101281D02*
X0155944Y0101281D01*
X0155860Y0101673D02*
X0158677Y0101673D01*
X0158677Y0102065D02*
X0155723Y0102065D01*
X0155580Y0102457D02*
X0158677Y0102457D01*
X0158677Y0102850D02*
X0155437Y0102850D01*
X0155294Y0103242D02*
X0158677Y0103242D01*
X0158677Y0103634D02*
X0155152Y0103634D01*
X0155009Y0104026D02*
X0158677Y0104026D01*
X0158677Y0104418D02*
X0154866Y0104418D01*
X0154723Y0104811D02*
X0158677Y0104811D01*
X0158677Y0105203D02*
X0154581Y0105203D01*
X0154438Y0105595D02*
X0158677Y0105595D01*
X0158677Y0105987D02*
X0154295Y0105987D01*
X0154152Y0106380D02*
X0158677Y0106380D01*
X0158677Y0106772D02*
X0154010Y0106772D01*
X0153867Y0107164D02*
X0158677Y0107164D01*
X0158677Y0107556D02*
X0153724Y0107556D01*
X0153581Y0107948D02*
X0158677Y0107948D01*
X0158677Y0108341D02*
X0153439Y0108341D01*
X0153296Y0108733D02*
X0158677Y0108733D01*
X0158677Y0109125D02*
X0153153Y0109125D01*
X0153010Y0109517D02*
X0158677Y0109517D01*
X0158677Y0109909D02*
X0152868Y0109909D01*
X0152725Y0110302D02*
X0158677Y0110302D01*
X0158677Y0110694D02*
X0152582Y0110694D01*
X0152439Y0111086D02*
X0158677Y0111086D01*
X0158677Y0111478D02*
X0152297Y0111478D01*
X0152154Y0111871D02*
X0158677Y0111871D01*
X0158677Y0112263D02*
X0151977Y0112263D01*
X0151768Y0112655D02*
X0158677Y0112655D01*
X0158677Y0113047D02*
X0151560Y0113047D01*
X0151351Y0113439D02*
X0158677Y0113439D01*
X0158677Y0113832D02*
X0151143Y0113832D01*
X0150934Y0114224D02*
X0158677Y0114224D01*
X0158677Y0114616D02*
X0150726Y0114616D01*
X0150517Y0115008D02*
X0158677Y0115008D01*
X0158677Y0115400D02*
X0150309Y0115400D01*
X0150100Y0115793D02*
X0158677Y0115793D01*
X0158677Y0116185D02*
X0149891Y0116185D01*
X0149683Y0116577D02*
X0158677Y0116577D01*
X0158677Y0116969D02*
X0149474Y0116969D01*
X0149266Y0117361D02*
X0158677Y0117361D01*
X0158677Y0117754D02*
X0149057Y0117754D01*
X0148849Y0118146D02*
X0158677Y0118146D01*
X0158677Y0118538D02*
X0148640Y0118538D01*
X0148432Y0118930D02*
X0158677Y0118930D01*
X0158677Y0119323D02*
X0148223Y0119323D01*
X0148015Y0119715D02*
X0158677Y0119715D01*
X0158677Y0120107D02*
X0147806Y0120107D01*
X0147598Y0120499D02*
X0158677Y0120499D01*
X0158677Y0120891D02*
X0147389Y0120891D01*
X0147180Y0121284D02*
X0158677Y0121284D01*
X0158677Y0121676D02*
X0146972Y0121676D01*
X0146709Y0122068D02*
X0158677Y0122068D01*
X0158677Y0122460D02*
X0146424Y0122460D01*
X0146139Y0122852D02*
X0158677Y0122852D01*
X0158677Y0123245D02*
X0145854Y0123245D01*
X0145569Y0123637D02*
X0158677Y0123637D01*
X0158677Y0124029D02*
X0145284Y0124029D01*
X0144999Y0124421D02*
X0158677Y0124421D01*
X0158677Y0124814D02*
X0144714Y0124814D01*
X0144429Y0125206D02*
X0158677Y0125206D01*
X0158677Y0125598D02*
X0144144Y0125598D01*
X0143859Y0125990D02*
X0158677Y0125990D01*
X0158677Y0126382D02*
X0143574Y0126382D01*
X0143289Y0126775D02*
X0158677Y0126775D01*
X0158677Y0127167D02*
X0143004Y0127167D01*
X0142719Y0127559D02*
X0158677Y0127559D01*
X0158677Y0127951D02*
X0142434Y0127951D01*
X0142149Y0128343D02*
X0158677Y0128343D01*
X0158677Y0128736D02*
X0141864Y0128736D01*
X0141580Y0129128D02*
X0158677Y0129128D01*
X0158677Y0129520D02*
X0141295Y0129520D01*
X0141010Y0129912D02*
X0158677Y0129912D01*
X0158677Y0130304D02*
X0140725Y0130304D01*
X0140440Y0130697D02*
X0158677Y0130697D01*
X0158677Y0131089D02*
X0140062Y0131089D01*
X0140436Y0130702D02*
X0140436Y0130702D01*
X0139683Y0131481D02*
X0158677Y0131481D01*
X0158677Y0131873D02*
X0139305Y0131873D01*
X0138926Y0132266D02*
X0158677Y0132266D01*
X0158677Y0132658D02*
X0138547Y0132658D01*
X0138168Y0133050D02*
X0158677Y0133050D01*
X0158677Y0133442D02*
X0137790Y0133442D01*
X0137411Y0133834D02*
X0158677Y0133834D01*
X0158677Y0134227D02*
X0137032Y0134227D01*
X0136653Y0134619D02*
X0158677Y0134619D01*
X0158677Y0135011D02*
X0136275Y0135011D01*
X0135896Y0135403D02*
X0158677Y0135403D01*
X0158677Y0135795D02*
X0135517Y0135795D01*
X0135138Y0136188D02*
X0158677Y0136188D01*
X0158677Y0136580D02*
X0134760Y0136580D01*
X0134381Y0136972D02*
X0158677Y0136972D01*
X0158677Y0137364D02*
X0134002Y0137364D01*
X0133623Y0137757D02*
X0158677Y0137757D01*
X0158677Y0138149D02*
X0133244Y0138149D01*
X0132866Y0138541D02*
X0158677Y0138541D01*
X0158677Y0138933D02*
X0132391Y0138933D01*
X0131889Y0139325D02*
X0158677Y0139325D01*
X0158677Y0139718D02*
X0131387Y0139718D01*
X0130885Y0140110D02*
X0158677Y0140110D01*
X0158677Y0140502D02*
X0130383Y0140502D01*
X0129881Y0140894D02*
X0158677Y0140894D01*
X0158677Y0141286D02*
X0129379Y0141286D01*
X0128877Y0141679D02*
X0158677Y0141679D01*
X0158677Y0142071D02*
X0128375Y0142071D01*
X0127873Y0142463D02*
X0158677Y0142463D01*
X0158677Y0142855D02*
X0127371Y0142855D01*
X0126869Y0143247D02*
X0158677Y0143247D01*
X0158677Y0143640D02*
X0126367Y0143640D01*
X0125865Y0144032D02*
X0158677Y0144032D01*
X0158677Y0144424D02*
X0125363Y0144424D01*
X0124861Y0144816D02*
X0158677Y0144816D01*
X0158677Y0145209D02*
X0124359Y0145209D01*
X0123771Y0145601D02*
X0158677Y0145601D01*
X0158677Y0145993D02*
X0123092Y0145993D01*
X0122412Y0146385D02*
X0158677Y0146385D01*
X0158677Y0146777D02*
X0121733Y0146777D01*
X0121054Y0147170D02*
X0158677Y0147170D01*
X0158677Y0147562D02*
X0120374Y0147562D01*
X0119695Y0147954D02*
X0158677Y0147954D01*
X0158677Y0148346D02*
X0119016Y0148346D01*
X0118336Y0148738D02*
X0158677Y0148738D01*
X0158677Y0149131D02*
X0117657Y0149131D01*
X0116978Y0149523D02*
X0158677Y0149523D01*
X0158677Y0149915D02*
X0116298Y0149915D01*
X0115619Y0150307D02*
X0158677Y0150307D01*
X0158677Y0150700D02*
X0114940Y0150700D01*
X0114558Y0150920D02*
X0114558Y0150920D01*
X0114133Y0151092D02*
X0158677Y0151092D01*
X0158677Y0151484D02*
X0113162Y0151484D01*
X0112191Y0151876D02*
X0158677Y0151876D01*
X0158677Y0152268D02*
X0111220Y0152268D01*
X0110250Y0152661D02*
X0158677Y0152661D01*
X0158677Y0153053D02*
X0109279Y0153053D01*
X0108308Y0153445D02*
X0158677Y0153445D01*
X0158677Y0153837D02*
X0107337Y0153837D01*
X0106367Y0154229D02*
X0158677Y0154229D01*
X0158677Y0154622D02*
X0105396Y0154622D01*
X0104425Y0155014D02*
X0158677Y0155014D01*
X0158677Y0155406D02*
X0102904Y0155406D01*
X0104342Y0155048D02*
X0104342Y0155048D01*
X0101331Y0155798D02*
X0158677Y0155798D01*
X0158677Y0156190D02*
X0099758Y0156190D01*
X0098185Y0156583D02*
X0158677Y0156583D01*
X0158677Y0156975D02*
X0096611Y0156975D01*
X0095188Y0157367D02*
X0158677Y0157367D01*
X0158677Y0157759D02*
X0094241Y0157759D01*
X0093294Y0158152D02*
X0158677Y0158152D01*
X0158677Y0158544D02*
X0092347Y0158544D01*
X0109619Y0143461D02*
X0110706Y0143022D01*
X0119186Y0138126D01*
X0119186Y0138126D01*
X0126902Y0132097D01*
X0128348Y0130600D01*
X0127842Y0130680D01*
X0127654Y0130680D01*
X0127654Y0125980D01*
X0132354Y0125980D01*
X0132354Y0126169D01*
X0132300Y0126508D01*
X0133704Y0125053D01*
X0139460Y0117131D01*
X0144057Y0108485D01*
X0147406Y0099284D01*
X0149442Y0089705D01*
X0150125Y0079937D01*
X0149442Y0070169D01*
X0147406Y0060590D01*
X0144057Y0051389D01*
X0139460Y0042743D01*
X0133704Y0034821D01*
X0131985Y0033040D01*
X0131871Y0033758D01*
X0131633Y0034491D01*
X0131283Y0035178D01*
X0130830Y0035801D01*
X0130285Y0036346D01*
X0129661Y0036799D01*
X0128975Y0037149D01*
X0128242Y0037387D01*
X0127480Y0037508D01*
X0127292Y0037508D01*
X0127292Y0032808D01*
X0126898Y0032808D01*
X0126898Y0032414D01*
X0122198Y0032414D01*
X0122198Y0032226D01*
X0122319Y0031464D01*
X0122557Y0030731D01*
X0122907Y0030045D01*
X0123360Y0029421D01*
X0123905Y0028876D01*
X0124528Y0028423D01*
X0125215Y0028073D01*
X0125948Y0027835D01*
X0126710Y0027714D01*
X0126822Y0027714D01*
X0119186Y0021748D01*
X0110706Y0016852D01*
X0101626Y0013184D01*
X0092125Y0010815D01*
X0082387Y0009791D01*
X0072600Y0010133D01*
X0062957Y0011833D01*
X0053644Y0014859D01*
X0044843Y0019152D01*
X0036725Y0024628D01*
X0033293Y0027718D01*
X0033690Y0027718D01*
X0035490Y0028463D01*
X0036868Y0029841D01*
X0037613Y0031641D01*
X0037613Y0033589D01*
X0036868Y0035389D01*
X0035490Y0036766D01*
X0033690Y0037512D01*
X0031742Y0037512D01*
X0029942Y0036766D01*
X0028565Y0035389D01*
X0027819Y0033589D01*
X0027819Y0033120D01*
X0023153Y0038681D01*
X0017964Y0046986D01*
X0013981Y0055931D01*
X0011282Y0065344D01*
X0009920Y0075041D01*
X0009920Y0084833D01*
X0011282Y0094530D01*
X0013981Y0103943D01*
X0017964Y0112888D01*
X0023153Y0121193D01*
X0029448Y0128694D01*
X0029735Y0128953D01*
X0029555Y0128705D01*
X0029205Y0128018D01*
X0028967Y0127285D01*
X0028846Y0126524D01*
X0028846Y0126335D01*
X0033546Y0126335D01*
X0033546Y0125942D01*
X0028846Y0125942D01*
X0028846Y0125753D01*
X0028967Y0124992D01*
X0029205Y0124259D01*
X0029555Y0123572D01*
X0030008Y0122948D01*
X0030553Y0122403D01*
X0031177Y0121950D01*
X0031863Y0121600D01*
X0032596Y0121362D01*
X0033358Y0121242D01*
X0033546Y0121242D01*
X0033546Y0125942D01*
X0033940Y0125942D01*
X0033940Y0121242D01*
X0034129Y0121242D01*
X0034890Y0121362D01*
X0035623Y0121600D01*
X0036310Y0121950D01*
X0036933Y0122403D01*
X0037478Y0122948D01*
X0037931Y0123572D01*
X0038222Y0124142D01*
X0038771Y0122816D01*
X0040421Y0121166D01*
X0041354Y0120779D01*
X0041354Y0108838D01*
X0041834Y0107680D01*
X0042720Y0106794D01*
X0064373Y0085141D01*
X0065531Y0084661D01*
X0072727Y0084661D01*
X0072969Y0084420D01*
X0072969Y0082918D01*
X0074237Y0081650D01*
X0078511Y0081650D01*
X0079780Y0082918D01*
X0079780Y0087980D01*
X0078511Y0089248D01*
X0077049Y0089248D01*
X0076702Y0089595D01*
X0075816Y0090481D01*
X0074658Y0090961D01*
X0067462Y0090961D01*
X0047654Y0110769D01*
X0047654Y0116994D01*
X0050051Y0111207D01*
X0053742Y0105683D01*
X0058439Y0100986D01*
X0063962Y0097295D01*
X0070100Y0094753D01*
X0076615Y0093457D01*
X0083259Y0093457D01*
X0089774Y0094753D01*
X0095912Y0097295D01*
X0101435Y0100986D01*
X0106132Y0105683D01*
X0109823Y0111207D01*
X0112365Y0117344D01*
X0113234Y0121711D01*
X0114134Y0120811D01*
X0116290Y0119918D01*
X0118623Y0119918D01*
X0120779Y0120811D01*
X0122429Y0122461D01*
X0122978Y0123787D01*
X0123269Y0123217D01*
X0123722Y0122593D01*
X0124267Y0122048D01*
X0124890Y0121595D01*
X0125577Y0121245D01*
X0126310Y0121007D01*
X0127071Y0120887D01*
X0127260Y0120887D01*
X0127260Y0125587D01*
X0127654Y0125587D01*
X0127654Y0125980D01*
X0127260Y0125980D01*
X0127260Y0130680D01*
X0127071Y0130680D01*
X0126310Y0130560D01*
X0125577Y0130322D01*
X0124890Y0129972D01*
X0124267Y0129519D01*
X0123722Y0128974D01*
X0123269Y0128350D01*
X0122978Y0127780D01*
X0122429Y0129106D01*
X0120779Y0130756D01*
X0118623Y0131649D01*
X0116290Y0131649D01*
X0114134Y0130756D01*
X0113661Y0130283D01*
X0113661Y0130503D01*
X0112365Y0137018D01*
X0109823Y0143156D01*
X0109619Y0143461D01*
X0109762Y0143247D02*
X0110147Y0143247D01*
X0109948Y0142855D02*
X0110994Y0142855D01*
X0111674Y0142463D02*
X0110110Y0142463D01*
X0110273Y0142071D02*
X0112353Y0142071D01*
X0113032Y0141679D02*
X0110435Y0141679D01*
X0110597Y0141286D02*
X0113712Y0141286D01*
X0114391Y0140894D02*
X0110760Y0140894D01*
X0110922Y0140502D02*
X0115070Y0140502D01*
X0115750Y0140110D02*
X0111085Y0140110D01*
X0111247Y0139718D02*
X0116429Y0139718D01*
X0117108Y0139325D02*
X0111410Y0139325D01*
X0111572Y0138933D02*
X0117788Y0138933D01*
X0118467Y0138541D02*
X0111735Y0138541D01*
X0111897Y0138149D02*
X0119146Y0138149D01*
X0119659Y0137757D02*
X0112060Y0137757D01*
X0112222Y0137364D02*
X0120161Y0137364D01*
X0120663Y0136972D02*
X0112375Y0136972D01*
X0112453Y0136580D02*
X0121165Y0136580D01*
X0121667Y0136188D02*
X0112531Y0136188D01*
X0112609Y0135795D02*
X0122169Y0135795D01*
X0122671Y0135403D02*
X0112687Y0135403D01*
X0112765Y0135011D02*
X0123173Y0135011D01*
X0123675Y0134619D02*
X0112843Y0134619D01*
X0112921Y0134227D02*
X0124177Y0134227D01*
X0124679Y0133834D02*
X0112999Y0133834D01*
X0113077Y0133442D02*
X0125181Y0133442D01*
X0125683Y0133050D02*
X0113155Y0133050D01*
X0113233Y0132658D02*
X0126185Y0132658D01*
X0126687Y0132266D02*
X0113311Y0132266D01*
X0113389Y0131873D02*
X0127118Y0131873D01*
X0126902Y0132097D02*
X0126902Y0132097D01*
X0127497Y0131481D02*
X0119028Y0131481D01*
X0119975Y0131089D02*
X0127876Y0131089D01*
X0128255Y0130697D02*
X0120838Y0130697D01*
X0121231Y0130304D02*
X0125543Y0130304D01*
X0124809Y0129912D02*
X0121623Y0129912D01*
X0122015Y0129520D02*
X0124269Y0129520D01*
X0123876Y0129128D02*
X0122407Y0129128D01*
X0122582Y0128736D02*
X0123549Y0128736D01*
X0123265Y0128343D02*
X0122745Y0128343D01*
X0122907Y0127951D02*
X0123065Y0127951D01*
X0127260Y0127951D02*
X0127654Y0127951D01*
X0127654Y0127559D02*
X0127260Y0127559D01*
X0127260Y0127167D02*
X0127654Y0127167D01*
X0127654Y0126775D02*
X0127260Y0126775D01*
X0127260Y0126382D02*
X0127654Y0126382D01*
X0127654Y0125990D02*
X0127260Y0125990D01*
X0127654Y0125598D02*
X0133178Y0125598D01*
X0132800Y0125990D02*
X0132354Y0125990D01*
X0132320Y0126382D02*
X0132421Y0126382D01*
X0132354Y0125587D02*
X0127654Y0125587D01*
X0127654Y0120887D01*
X0127842Y0120887D01*
X0128603Y0121007D01*
X0129336Y0121245D01*
X0130023Y0121595D01*
X0130647Y0122048D01*
X0131192Y0122593D01*
X0131645Y0123217D01*
X0131995Y0123904D01*
X0132233Y0124637D01*
X0132354Y0125398D01*
X0132354Y0125587D01*
X0132323Y0125206D02*
X0133557Y0125206D01*
X0133879Y0124814D02*
X0132261Y0124814D01*
X0132163Y0124421D02*
X0134164Y0124421D01*
X0134449Y0124029D02*
X0132036Y0124029D01*
X0131859Y0123637D02*
X0134734Y0123637D01*
X0135019Y0123245D02*
X0131659Y0123245D01*
X0131380Y0122852D02*
X0135303Y0122852D01*
X0135588Y0122460D02*
X0131059Y0122460D01*
X0130666Y0122068D02*
X0135873Y0122068D01*
X0136158Y0121676D02*
X0130134Y0121676D01*
X0129411Y0121284D02*
X0136443Y0121284D01*
X0136728Y0120891D02*
X0127872Y0120891D01*
X0127654Y0120891D02*
X0127260Y0120891D01*
X0127041Y0120891D02*
X0120859Y0120891D01*
X0121252Y0121284D02*
X0125502Y0121284D01*
X0124779Y0121676D02*
X0121644Y0121676D01*
X0122036Y0122068D02*
X0124247Y0122068D01*
X0123855Y0122460D02*
X0122428Y0122460D01*
X0122591Y0122852D02*
X0123533Y0122852D01*
X0123254Y0123245D02*
X0122754Y0123245D01*
X0122916Y0123637D02*
X0123055Y0123637D01*
X0120026Y0120499D02*
X0137013Y0120499D01*
X0137298Y0120107D02*
X0119079Y0120107D01*
X0115834Y0120107D02*
X0112915Y0120107D01*
X0112993Y0120499D02*
X0114887Y0120499D01*
X0114054Y0120891D02*
X0113071Y0120891D01*
X0113149Y0121284D02*
X0113662Y0121284D01*
X0113269Y0121676D02*
X0113227Y0121676D01*
X0112837Y0119715D02*
X0137583Y0119715D01*
X0137868Y0119323D02*
X0112759Y0119323D01*
X0112681Y0118930D02*
X0138153Y0118930D01*
X0138438Y0118538D02*
X0112603Y0118538D01*
X0112525Y0118146D02*
X0138723Y0118146D01*
X0139008Y0117754D02*
X0112447Y0117754D01*
X0112369Y0117361D02*
X0139293Y0117361D01*
X0139546Y0116969D02*
X0112210Y0116969D01*
X0112048Y0116577D02*
X0139755Y0116577D01*
X0139963Y0116185D02*
X0111885Y0116185D01*
X0111723Y0115793D02*
X0140172Y0115793D01*
X0140380Y0115400D02*
X0111560Y0115400D01*
X0111398Y0115008D02*
X0140589Y0115008D01*
X0140798Y0114616D02*
X0111235Y0114616D01*
X0111073Y0114224D02*
X0141006Y0114224D01*
X0141215Y0113832D02*
X0110910Y0113832D01*
X0110748Y0113439D02*
X0141423Y0113439D01*
X0141632Y0113047D02*
X0110586Y0113047D01*
X0110423Y0112655D02*
X0141840Y0112655D01*
X0142049Y0112263D02*
X0110261Y0112263D01*
X0110098Y0111871D02*
X0142257Y0111871D01*
X0142466Y0111478D02*
X0109936Y0111478D01*
X0109743Y0111086D02*
X0142674Y0111086D01*
X0142883Y0110694D02*
X0109481Y0110694D01*
X0109219Y0110302D02*
X0143092Y0110302D01*
X0143300Y0109909D02*
X0108956Y0109909D01*
X0108694Y0109517D02*
X0143509Y0109517D01*
X0143717Y0109125D02*
X0108432Y0109125D01*
X0108170Y0108733D02*
X0143926Y0108733D01*
X0144110Y0108341D02*
X0107908Y0108341D01*
X0107646Y0107948D02*
X0144253Y0107948D01*
X0144395Y0107556D02*
X0107384Y0107556D01*
X0107122Y0107164D02*
X0144538Y0107164D01*
X0144681Y0106772D02*
X0106860Y0106772D01*
X0106598Y0106380D02*
X0144824Y0106380D01*
X0144967Y0105987D02*
X0106336Y0105987D01*
X0106045Y0105595D02*
X0145109Y0105595D01*
X0145252Y0105203D02*
X0105652Y0105203D01*
X0105260Y0104811D02*
X0145395Y0104811D01*
X0145538Y0104418D02*
X0104868Y0104418D01*
X0104476Y0104026D02*
X0145680Y0104026D01*
X0145823Y0103634D02*
X0104083Y0103634D01*
X0103691Y0103242D02*
X0145966Y0103242D01*
X0146109Y0102850D02*
X0103299Y0102850D01*
X0102907Y0102457D02*
X0146251Y0102457D01*
X0146394Y0102065D02*
X0102515Y0102065D01*
X0102122Y0101673D02*
X0146537Y0101673D01*
X0146680Y0101281D02*
X0101730Y0101281D01*
X0101290Y0100889D02*
X0146822Y0100889D01*
X0146965Y0100496D02*
X0100703Y0100496D01*
X0100116Y0100104D02*
X0147108Y0100104D01*
X0147251Y0099712D02*
X0099529Y0099712D01*
X0098942Y0099320D02*
X0147393Y0099320D01*
X0147482Y0098928D02*
X0098355Y0098928D01*
X0097768Y0098535D02*
X0147566Y0098535D01*
X0147649Y0098143D02*
X0097181Y0098143D01*
X0096594Y0097751D02*
X0147732Y0097751D01*
X0147816Y0097359D02*
X0096007Y0097359D01*
X0095119Y0096966D02*
X0147899Y0096966D01*
X0147982Y0096574D02*
X0094172Y0096574D01*
X0093225Y0096182D02*
X0148066Y0096182D01*
X0148149Y0095790D02*
X0092278Y0095790D01*
X0091331Y0095398D02*
X0148232Y0095398D01*
X0148316Y0095005D02*
X0090384Y0095005D01*
X0089073Y0094613D02*
X0148399Y0094613D01*
X0148483Y0094221D02*
X0087101Y0094221D01*
X0085129Y0093829D02*
X0148566Y0093829D01*
X0148649Y0093437D02*
X0064986Y0093437D01*
X0064594Y0093829D02*
X0074745Y0093829D01*
X0072773Y0094221D02*
X0064202Y0094221D01*
X0063810Y0094613D02*
X0070801Y0094613D01*
X0069490Y0095005D02*
X0063417Y0095005D01*
X0063025Y0095398D02*
X0068543Y0095398D01*
X0067596Y0095790D02*
X0062633Y0095790D01*
X0062241Y0096182D02*
X0066649Y0096182D01*
X0065702Y0096574D02*
X0061848Y0096574D01*
X0061456Y0096966D02*
X0064755Y0096966D01*
X0063867Y0097359D02*
X0061064Y0097359D01*
X0060672Y0097751D02*
X0063280Y0097751D01*
X0062693Y0098143D02*
X0060280Y0098143D01*
X0059887Y0098535D02*
X0062106Y0098535D01*
X0061519Y0098928D02*
X0059495Y0098928D01*
X0059103Y0099320D02*
X0060932Y0099320D01*
X0060345Y0099712D02*
X0058711Y0099712D01*
X0058319Y0100104D02*
X0059758Y0100104D01*
X0059171Y0100496D02*
X0057926Y0100496D01*
X0057534Y0100889D02*
X0058584Y0100889D01*
X0058144Y0101281D02*
X0057142Y0101281D01*
X0056750Y0101673D02*
X0057752Y0101673D01*
X0057359Y0102065D02*
X0056357Y0102065D01*
X0055965Y0102457D02*
X0056967Y0102457D01*
X0056575Y0102850D02*
X0055573Y0102850D01*
X0055181Y0103242D02*
X0056183Y0103242D01*
X0055791Y0103634D02*
X0054789Y0103634D01*
X0054396Y0104026D02*
X0055398Y0104026D01*
X0055006Y0104418D02*
X0054004Y0104418D01*
X0053612Y0104811D02*
X0054614Y0104811D01*
X0054222Y0105203D02*
X0053220Y0105203D01*
X0052828Y0105595D02*
X0053829Y0105595D01*
X0053538Y0105987D02*
X0052435Y0105987D01*
X0052043Y0106380D02*
X0053276Y0106380D01*
X0053014Y0106772D02*
X0051651Y0106772D01*
X0051259Y0107164D02*
X0052752Y0107164D01*
X0052490Y0107556D02*
X0050867Y0107556D01*
X0050474Y0107948D02*
X0052228Y0107948D01*
X0051966Y0108341D02*
X0050082Y0108341D01*
X0049690Y0108733D02*
X0051704Y0108733D01*
X0051442Y0109125D02*
X0049298Y0109125D01*
X0048905Y0109517D02*
X0051180Y0109517D01*
X0050918Y0109909D02*
X0048513Y0109909D01*
X0048121Y0110302D02*
X0050655Y0110302D01*
X0050393Y0110694D02*
X0047729Y0110694D01*
X0047654Y0111086D02*
X0050131Y0111086D01*
X0049938Y0111478D02*
X0047654Y0111478D01*
X0047654Y0111871D02*
X0049776Y0111871D01*
X0049613Y0112263D02*
X0047654Y0112263D01*
X0047654Y0112655D02*
X0049451Y0112655D01*
X0049288Y0113047D02*
X0047654Y0113047D01*
X0047654Y0113439D02*
X0049126Y0113439D01*
X0048964Y0113832D02*
X0047654Y0113832D01*
X0047654Y0114224D02*
X0048801Y0114224D01*
X0048639Y0114616D02*
X0047654Y0114616D01*
X0047654Y0115008D02*
X0048476Y0115008D01*
X0048314Y0115400D02*
X0047654Y0115400D01*
X0047654Y0115793D02*
X0048151Y0115793D01*
X0047989Y0116185D02*
X0047654Y0116185D01*
X0047654Y0116577D02*
X0047826Y0116577D01*
X0047664Y0116969D02*
X0047654Y0116969D01*
X0041354Y0116969D02*
X0020514Y0116969D01*
X0020269Y0116577D02*
X0041354Y0116577D01*
X0041354Y0116185D02*
X0020024Y0116185D01*
X0019779Y0115793D02*
X0041354Y0115793D01*
X0041354Y0115400D02*
X0019534Y0115400D01*
X0019289Y0115008D02*
X0041354Y0115008D01*
X0041354Y0114616D02*
X0019044Y0114616D01*
X0018799Y0114224D02*
X0041354Y0114224D01*
X0041354Y0113832D02*
X0018554Y0113832D01*
X0018309Y0113439D02*
X0041354Y0113439D01*
X0041354Y0113047D02*
X0018063Y0113047D01*
X0017860Y0112655D02*
X0041354Y0112655D01*
X0041354Y0112263D02*
X0017686Y0112263D01*
X0017511Y0111871D02*
X0041354Y0111871D01*
X0041354Y0111478D02*
X0017336Y0111478D01*
X0017162Y0111086D02*
X0041354Y0111086D01*
X0041354Y0110694D02*
X0016987Y0110694D01*
X0016813Y0110302D02*
X0041354Y0110302D01*
X0041354Y0109909D02*
X0016638Y0109909D01*
X0016463Y0109517D02*
X0041354Y0109517D01*
X0041354Y0109125D02*
X0016289Y0109125D01*
X0016114Y0108733D02*
X0041398Y0108733D01*
X0041560Y0108341D02*
X0015939Y0108341D01*
X0015765Y0107948D02*
X0041723Y0107948D01*
X0041958Y0107556D02*
X0015590Y0107556D01*
X0015416Y0107164D02*
X0042350Y0107164D01*
X0042743Y0106772D02*
X0015241Y0106772D01*
X0015066Y0106380D02*
X0043135Y0106380D01*
X0043527Y0105987D02*
X0014892Y0105987D01*
X0014717Y0105595D02*
X0043919Y0105595D01*
X0044311Y0105203D02*
X0014542Y0105203D01*
X0014368Y0104811D02*
X0044704Y0104811D01*
X0045096Y0104418D02*
X0014193Y0104418D01*
X0014019Y0104026D02*
X0045488Y0104026D01*
X0045880Y0103634D02*
X0013893Y0103634D01*
X0013780Y0103242D02*
X0046272Y0103242D01*
X0046665Y0102850D02*
X0013668Y0102850D01*
X0013555Y0102457D02*
X0047057Y0102457D01*
X0047449Y0102065D02*
X0013443Y0102065D01*
X0013331Y0101673D02*
X0047841Y0101673D01*
X0048233Y0101281D02*
X0013218Y0101281D01*
X0013106Y0100889D02*
X0048626Y0100889D01*
X0049018Y0100496D02*
X0012993Y0100496D01*
X0012881Y0100104D02*
X0049410Y0100104D01*
X0049802Y0099712D02*
X0012768Y0099712D01*
X0012656Y0099320D02*
X0050195Y0099320D01*
X0050587Y0098928D02*
X0012543Y0098928D01*
X0012431Y0098535D02*
X0050979Y0098535D01*
X0051371Y0098143D02*
X0012318Y0098143D01*
X0012206Y0097751D02*
X0051763Y0097751D01*
X0052156Y0097359D02*
X0012093Y0097359D01*
X0011981Y0096966D02*
X0052548Y0096966D01*
X0052940Y0096574D02*
X0011868Y0096574D01*
X0011756Y0096182D02*
X0053332Y0096182D01*
X0053724Y0095790D02*
X0011644Y0095790D01*
X0011531Y0095398D02*
X0054117Y0095398D01*
X0054509Y0095005D02*
X0011419Y0095005D01*
X0011306Y0094613D02*
X0054901Y0094613D01*
X0055293Y0094221D02*
X0011239Y0094221D01*
X0011184Y0093829D02*
X0055686Y0093829D01*
X0056078Y0093437D02*
X0011129Y0093437D01*
X0011074Y0093044D02*
X0056470Y0093044D01*
X0056862Y0092652D02*
X0011018Y0092652D01*
X0010963Y0092260D02*
X0057254Y0092260D01*
X0057647Y0091868D02*
X0010908Y0091868D01*
X0010853Y0091475D02*
X0058039Y0091475D01*
X0058431Y0091083D02*
X0010798Y0091083D01*
X0010743Y0090691D02*
X0058823Y0090691D01*
X0059215Y0090299D02*
X0010688Y0090299D01*
X0010633Y0089907D02*
X0059608Y0089907D01*
X0060000Y0089514D02*
X0010577Y0089514D01*
X0010522Y0089122D02*
X0060392Y0089122D01*
X0060784Y0088730D02*
X0010467Y0088730D01*
X0010412Y0088338D02*
X0061176Y0088338D01*
X0061569Y0087946D02*
X0010357Y0087946D01*
X0010302Y0087553D02*
X0061961Y0087553D01*
X0062353Y0087161D02*
X0034537Y0087161D01*
X0033690Y0087512D02*
X0031742Y0087512D01*
X0029942Y0086766D01*
X0028565Y0085389D01*
X0027819Y0083589D01*
X0027819Y0081641D01*
X0028565Y0079841D01*
X0029942Y0078463D01*
X0031742Y0077718D01*
X0033690Y0077718D01*
X0035490Y0078463D01*
X0036868Y0079841D01*
X0037613Y0081641D01*
X0037613Y0083589D01*
X0036868Y0085389D01*
X0035490Y0086766D01*
X0033690Y0087512D01*
X0035483Y0086769D02*
X0062745Y0086769D01*
X0063138Y0086377D02*
X0035880Y0086377D01*
X0036272Y0085985D02*
X0063530Y0085985D01*
X0063922Y0085592D02*
X0036664Y0085592D01*
X0036946Y0085200D02*
X0064314Y0085200D01*
X0065177Y0084808D02*
X0037108Y0084808D01*
X0037271Y0084416D02*
X0072969Y0084416D01*
X0072969Y0084023D02*
X0061271Y0084023D01*
X0061081Y0084102D02*
X0059423Y0084102D01*
X0057892Y0083468D01*
X0057511Y0083087D01*
X0055292Y0083087D01*
X0055027Y0083351D01*
X0048509Y0083351D01*
X0047240Y0082083D01*
X0047240Y0077140D01*
X0048509Y0075871D01*
X0055027Y0075871D01*
X0055943Y0076787D01*
X0057511Y0076787D01*
X0057892Y0076406D01*
X0059423Y0075772D01*
X0061081Y0075772D01*
X0062611Y0076406D01*
X0063532Y0077326D01*
X0063532Y0073906D01*
X0064233Y0073205D01*
X0069949Y0073205D01*
X0070650Y0073906D01*
X0070650Y0074553D01*
X0078490Y0074553D01*
X0078490Y0056914D01*
X0078146Y0056570D01*
X0078146Y0062015D01*
X0076877Y0063284D01*
X0075454Y0063284D01*
X0071879Y0066859D01*
X0070721Y0067339D01*
X0070650Y0067339D01*
X0070650Y0068693D01*
X0067288Y0068693D01*
X0067288Y0069087D01*
X0070650Y0069087D01*
X0070650Y0070622D01*
X0070568Y0070927D01*
X0070411Y0071200D01*
X0070188Y0071423D01*
X0069915Y0071580D01*
X0069611Y0071662D01*
X0067288Y0071662D01*
X0067288Y0069087D01*
X0066894Y0069087D01*
X0066894Y0068693D01*
X0063532Y0068693D01*
X0063532Y0067339D01*
X0049783Y0067339D01*
X0048625Y0066859D01*
X0048441Y0066675D01*
X0048257Y0066859D01*
X0047348Y0067235D01*
X0046863Y0067720D01*
X0045332Y0068354D01*
X0043675Y0068354D01*
X0042144Y0067720D01*
X0040973Y0066548D01*
X0040339Y0065018D01*
X0040339Y0063360D01*
X0040973Y0061829D01*
X0041831Y0060971D01*
X0040781Y0059921D01*
X0040781Y0053403D01*
X0042049Y0052135D01*
X0046993Y0052135D01*
X0048261Y0053403D01*
X0048261Y0057586D01*
X0048836Y0058161D01*
X0048836Y0056859D01*
X0051411Y0056859D01*
X0051411Y0060221D01*
X0050896Y0060221D01*
X0051111Y0060436D01*
X0051111Y0060436D01*
X0051714Y0061039D01*
X0065138Y0061039D01*
X0065138Y0055898D01*
X0065839Y0055197D01*
X0068996Y0055197D01*
X0069081Y0055282D01*
X0072285Y0052078D01*
X0071354Y0052078D01*
X0071354Y0048716D01*
X0070961Y0048716D01*
X0070961Y0052078D01*
X0069917Y0052078D01*
X0069613Y0051997D01*
X0069340Y0051839D01*
X0069287Y0051787D01*
X0068996Y0052078D01*
X0065839Y0052078D01*
X0065138Y0051377D01*
X0065138Y0049888D01*
X0053747Y0049888D01*
X0052900Y0049040D01*
X0052474Y0048614D01*
X0049559Y0048614D01*
X0048858Y0047913D01*
X0048858Y0042197D01*
X0049559Y0041496D01*
X0051353Y0041496D01*
X0050815Y0040958D01*
X0050181Y0039427D01*
X0050181Y0037770D01*
X0050815Y0036239D01*
X0051197Y0035857D01*
X0051197Y0035517D01*
X0050732Y0035052D01*
X0050732Y0026160D01*
X0052001Y0024892D01*
X0060094Y0024892D01*
X0061362Y0026160D01*
X0061362Y0027575D01*
X0068371Y0027575D01*
X0069355Y0026591D01*
X0074298Y0026591D01*
X0075567Y0027859D01*
X0076835Y0026591D01*
X0079617Y0026591D01*
X0080121Y0026086D01*
X0081279Y0025606D01*
X0083101Y0025606D01*
X0083483Y0025225D01*
X0085014Y0024591D01*
X0086671Y0024591D01*
X0088202Y0025225D01*
X0089374Y0026396D01*
X0090008Y0027927D01*
X0090008Y0029584D01*
X0089756Y0030192D01*
X0091866Y0030192D01*
X0091866Y0032767D01*
X0092259Y0032767D01*
X0092259Y0030192D01*
X0094582Y0030192D01*
X0094887Y0030274D01*
X0095160Y0030431D01*
X0095382Y0030654D01*
X0095540Y0030927D01*
X0095622Y0031231D01*
X0095622Y0032767D01*
X0092259Y0032767D01*
X0092259Y0033161D01*
X0091866Y0033161D01*
X0091866Y0035735D01*
X0089543Y0035735D01*
X0089238Y0035654D01*
X0088965Y0035496D01*
X0088743Y0035273D01*
X0088585Y0035000D01*
X0088503Y0034696D01*
X0088503Y0033161D01*
X0091866Y0033161D01*
X0091866Y0032767D01*
X0088503Y0032767D01*
X0088503Y0031986D01*
X0088202Y0032287D01*
X0086671Y0032921D01*
X0085014Y0032921D01*
X0083483Y0032287D01*
X0083156Y0031960D01*
X0083047Y0032068D01*
X0083047Y0033196D01*
X0081779Y0034465D01*
X0076835Y0034465D01*
X0075567Y0033196D01*
X0075567Y0027859D01*
X0075567Y0033196D01*
X0074298Y0034465D01*
X0069355Y0034465D01*
X0068765Y0033874D01*
X0061362Y0033874D01*
X0061362Y0035052D01*
X0060094Y0036321D01*
X0057912Y0036321D01*
X0058512Y0037770D01*
X0058512Y0039427D01*
X0057878Y0040958D01*
X0056706Y0042130D01*
X0055175Y0042764D01*
X0054402Y0042764D01*
X0054402Y0046450D01*
X0054946Y0046994D01*
X0065138Y0046994D01*
X0065138Y0045661D01*
X0065839Y0044960D01*
X0068996Y0044960D01*
X0069287Y0045252D01*
X0069340Y0045199D01*
X0069613Y0045042D01*
X0069917Y0044960D01*
X0070961Y0044960D01*
X0070961Y0048322D01*
X0071354Y0048322D01*
X0071354Y0044960D01*
X0072398Y0044960D01*
X0072585Y0045010D01*
X0072585Y0039092D01*
X0072520Y0039009D01*
X0072585Y0038506D01*
X0072585Y0037999D01*
X0072659Y0037925D01*
X0072673Y0037820D01*
X0072795Y0037725D01*
X0072795Y0036528D01*
X0073496Y0035827D01*
X0077637Y0035827D01*
X0078339Y0036528D01*
X0078339Y0037152D01*
X0091593Y0037152D01*
X0092027Y0037058D01*
X0092174Y0037152D01*
X0092347Y0037152D01*
X0092474Y0037279D01*
X0094920Y0037279D01*
X0095622Y0037980D01*
X0095622Y0040426D01*
X0098253Y0043057D01*
X0122198Y0043057D01*
X0122198Y0041637D01*
X0122944Y0039837D01*
X0124321Y0038460D01*
X0126121Y0037714D01*
X0128069Y0037714D01*
X0129869Y0038460D01*
X0131246Y0039837D01*
X0131992Y0041637D01*
X0131992Y0043585D01*
X0131246Y0045385D01*
X0129869Y0046762D01*
X0129085Y0047087D01*
X0130417Y0047639D01*
X0132067Y0049289D01*
X0132104Y0049377D01*
X0132902Y0049708D01*
X0133788Y0050594D01*
X0137725Y0054531D01*
X0138205Y0055688D01*
X0138205Y0076626D01*
X0137725Y0077784D01*
X0136839Y0078670D01*
X0126997Y0088513D01*
X0125839Y0088992D01*
X0087822Y0088992D01*
X0087566Y0089248D01*
X0083292Y0089248D01*
X0082024Y0087980D01*
X0082024Y0082918D01*
X0083292Y0081650D01*
X0084661Y0081650D01*
X0084661Y0060272D01*
X0084000Y0060272D01*
X0082732Y0059003D01*
X0082732Y0055044D01*
X0083700Y0054076D01*
X0083700Y0053480D01*
X0087063Y0053480D01*
X0087063Y0053087D01*
X0083700Y0053087D01*
X0083700Y0052693D01*
X0083248Y0052693D01*
X0082090Y0052213D01*
X0081204Y0051327D01*
X0080724Y0050170D01*
X0080724Y0047218D01*
X0080359Y0046853D01*
X0079728Y0045329D01*
X0079728Y0043679D01*
X0080359Y0042155D01*
X0081525Y0040989D01*
X0083049Y0040357D01*
X0084699Y0040357D01*
X0086223Y0040989D01*
X0087389Y0042155D01*
X0088020Y0043679D01*
X0088020Y0045329D01*
X0087620Y0046295D01*
X0090519Y0046295D01*
X0091787Y0047564D01*
X0091787Y0051523D01*
X0090818Y0052491D01*
X0090818Y0053087D01*
X0087456Y0053087D01*
X0087456Y0053480D01*
X0090818Y0053480D01*
X0090818Y0054076D01*
X0091787Y0055044D01*
X0091787Y0059003D01*
X0090961Y0059830D01*
X0090961Y0082693D01*
X0123908Y0082693D01*
X0128124Y0078476D01*
X0125928Y0078476D01*
X0123773Y0077583D01*
X0123370Y0077181D01*
X0101340Y0077181D01*
X0101460Y0077213D01*
X0101732Y0077371D01*
X0101955Y0077594D01*
X0102113Y0077867D01*
X0102194Y0078171D01*
X0102194Y0079707D01*
X0098832Y0079707D01*
X0098832Y0080100D01*
X0098439Y0080100D01*
X0098439Y0082675D01*
X0096116Y0082675D01*
X0095811Y0082593D01*
X0095538Y0082436D01*
X0095315Y0082213D01*
X0095158Y0081940D01*
X0095076Y0081636D01*
X0095076Y0080100D01*
X0098439Y0080100D01*
X0098439Y0079707D01*
X0095076Y0079707D01*
X0095076Y0078171D01*
X0095158Y0077867D01*
X0095315Y0077594D01*
X0095538Y0077371D01*
X0095811Y0077213D01*
X0096116Y0077132D01*
X0098439Y0077132D01*
X0098439Y0079706D01*
X0098832Y0079706D01*
X0098832Y0077132D01*
X0098876Y0077132D01*
X0098841Y0077117D01*
X0098674Y0077100D01*
X0098266Y0076879D01*
X0097838Y0076702D01*
X0097720Y0076583D01*
X0097671Y0076557D01*
X0095376Y0076557D01*
X0094108Y0075288D01*
X0094108Y0070345D01*
X0094504Y0069949D01*
X0094504Y0060272D01*
X0094237Y0060272D01*
X0092969Y0059003D01*
X0092969Y0055044D01*
X0094237Y0053776D01*
X0095739Y0053776D01*
X0095869Y0053645D01*
X0096194Y0053511D01*
X0096490Y0053322D01*
X0096767Y0053273D01*
X0097027Y0053165D01*
X0097378Y0053165D01*
X0097724Y0053104D01*
X0097998Y0053165D01*
X0098280Y0053165D01*
X0098604Y0053300D01*
X0098947Y0053376D01*
X0099177Y0053537D01*
X0099438Y0053645D01*
X0099568Y0053776D01*
X0100756Y0053776D01*
X0102024Y0055044D01*
X0102024Y0059003D01*
X0100803Y0060224D01*
X0100803Y0069077D01*
X0101895Y0069077D01*
X0103163Y0070345D01*
X0103163Y0070882D01*
X0121463Y0070882D01*
X0122123Y0069289D01*
X0123773Y0067639D01*
X0123839Y0067611D01*
X0123773Y0067583D01*
X0122123Y0065934D01*
X0121230Y0063778D01*
X0121230Y0061444D01*
X0122123Y0059289D01*
X0123773Y0057639D01*
X0123839Y0057611D01*
X0123773Y0057583D01*
X0122123Y0055934D01*
X0121954Y0055528D01*
X0120612Y0055528D01*
X0117154Y0058985D01*
X0115997Y0059465D01*
X0111739Y0059465D01*
X0110598Y0060606D01*
X0104079Y0060606D01*
X0102811Y0059338D01*
X0102811Y0054394D01*
X0104079Y0053126D01*
X0107658Y0053126D01*
X0107759Y0053114D01*
X0107799Y0053126D01*
X0110598Y0053126D01*
X0110637Y0053165D01*
X0114065Y0053165D01*
X0116637Y0050594D01*
X0117523Y0049708D01*
X0118681Y0049228D01*
X0122183Y0049228D01*
X0123773Y0047639D01*
X0125105Y0047087D01*
X0124321Y0046762D01*
X0123510Y0045951D01*
X0097054Y0045951D01*
X0096207Y0045103D01*
X0093925Y0042822D01*
X0089205Y0042822D01*
X0088503Y0042121D01*
X0088503Y0040045D01*
X0078339Y0040045D01*
X0078339Y0041063D01*
X0077637Y0041764D01*
X0075478Y0041764D01*
X0075478Y0044960D01*
X0076476Y0044960D01*
X0077177Y0045661D01*
X0077177Y0051377D01*
X0077111Y0051443D01*
X0081384Y0055716D01*
X0081384Y0076599D01*
X0080536Y0077447D01*
X0070650Y0077447D01*
X0070650Y0078047D01*
X0069949Y0078748D01*
X0064268Y0078748D01*
X0064417Y0079108D01*
X0064417Y0080766D01*
X0063783Y0082296D01*
X0062611Y0083468D01*
X0061081Y0084102D01*
X0062218Y0083631D02*
X0072969Y0083631D01*
X0072969Y0083239D02*
X0062841Y0083239D01*
X0063233Y0082847D02*
X0073040Y0082847D01*
X0073432Y0082455D02*
X0063625Y0082455D01*
X0063880Y0082062D02*
X0073824Y0082062D01*
X0074216Y0081670D02*
X0064043Y0081670D01*
X0064205Y0081278D02*
X0084661Y0081278D01*
X0084661Y0080886D02*
X0064368Y0080886D01*
X0064417Y0080494D02*
X0084661Y0080494D01*
X0084661Y0080101D02*
X0064417Y0080101D01*
X0064417Y0079709D02*
X0084661Y0079709D01*
X0084661Y0079317D02*
X0064417Y0079317D01*
X0064341Y0078925D02*
X0084661Y0078925D01*
X0084661Y0078532D02*
X0070165Y0078532D01*
X0070557Y0078140D02*
X0084661Y0078140D01*
X0084661Y0077748D02*
X0070650Y0077748D01*
X0070650Y0074218D02*
X0078490Y0074218D01*
X0078490Y0073826D02*
X0070570Y0073826D01*
X0070178Y0073434D02*
X0078490Y0073434D01*
X0078490Y0073042D02*
X0055327Y0073042D01*
X0055327Y0073434D02*
X0064004Y0073434D01*
X0063612Y0073826D02*
X0055327Y0073826D01*
X0055327Y0074218D02*
X0063532Y0074218D01*
X0063532Y0074610D02*
X0055312Y0074610D01*
X0055327Y0074595D02*
X0054626Y0075296D01*
X0051217Y0075296D01*
X0051083Y0075445D01*
X0051039Y0075448D01*
X0051009Y0075478D01*
X0050447Y0075478D01*
X0049886Y0075507D01*
X0049854Y0075478D01*
X0045024Y0075478D01*
X0044962Y0075529D01*
X0044435Y0075478D01*
X0043905Y0075478D01*
X0043848Y0075422D01*
X0043769Y0075414D01*
X0043694Y0075323D01*
X0043290Y0075323D01*
X0043135Y0075478D01*
X0042767Y0075478D01*
X0042418Y0075593D01*
X0042191Y0075478D01*
X0036778Y0075478D01*
X0035490Y0076766D01*
X0033690Y0077512D01*
X0031742Y0077512D01*
X0029942Y0076766D01*
X0028565Y0075389D01*
X0027819Y0073589D01*
X0027819Y0071641D01*
X0028565Y0069841D01*
X0029942Y0068463D01*
X0031742Y0067718D01*
X0033690Y0067718D01*
X0035490Y0068463D01*
X0036868Y0069841D01*
X0037613Y0071641D01*
X0037613Y0072585D01*
X0039724Y0072585D01*
X0039724Y0070481D01*
X0040426Y0069780D01*
X0046141Y0069780D01*
X0046843Y0070481D01*
X0046843Y0072585D01*
X0048209Y0072585D01*
X0048209Y0070454D01*
X0048910Y0069753D01*
X0054626Y0069753D01*
X0055327Y0070454D01*
X0055327Y0074595D01*
X0054919Y0075003D02*
X0063532Y0075003D01*
X0063532Y0075395D02*
X0051128Y0075395D01*
X0048200Y0076179D02*
X0036077Y0076179D01*
X0036469Y0075787D02*
X0059386Y0075787D01*
X0058439Y0076179D02*
X0055335Y0076179D01*
X0055727Y0076571D02*
X0057727Y0076571D01*
X0061118Y0075787D02*
X0063532Y0075787D01*
X0063532Y0076179D02*
X0062064Y0076179D01*
X0062777Y0076571D02*
X0063532Y0076571D01*
X0063532Y0076964D02*
X0063169Y0076964D01*
X0064571Y0071662D02*
X0064267Y0071580D01*
X0063994Y0071423D01*
X0063771Y0071200D01*
X0063613Y0070927D01*
X0063532Y0070622D01*
X0063532Y0069087D01*
X0066894Y0069087D01*
X0066894Y0071662D01*
X0064571Y0071662D01*
X0064081Y0071473D02*
X0055327Y0071473D01*
X0055327Y0071865D02*
X0078490Y0071865D01*
X0078490Y0072257D02*
X0055327Y0072257D01*
X0055327Y0072649D02*
X0078490Y0072649D01*
X0078490Y0071473D02*
X0070101Y0071473D01*
X0070480Y0071080D02*
X0078490Y0071080D01*
X0078490Y0070688D02*
X0070632Y0070688D01*
X0070650Y0070296D02*
X0078490Y0070296D01*
X0078490Y0069904D02*
X0070650Y0069904D01*
X0070650Y0069512D02*
X0078490Y0069512D01*
X0078490Y0069119D02*
X0070650Y0069119D01*
X0070650Y0068335D02*
X0078490Y0068335D01*
X0078490Y0068727D02*
X0067288Y0068727D01*
X0067288Y0069119D02*
X0066894Y0069119D01*
X0066894Y0068727D02*
X0035754Y0068727D01*
X0036146Y0069119D02*
X0063532Y0069119D01*
X0063532Y0069512D02*
X0036538Y0069512D01*
X0036894Y0069904D02*
X0040301Y0069904D01*
X0039909Y0070296D02*
X0037056Y0070296D01*
X0037219Y0070688D02*
X0039724Y0070688D01*
X0039724Y0071080D02*
X0037381Y0071080D01*
X0037543Y0071473D02*
X0039724Y0071473D01*
X0039724Y0071865D02*
X0037613Y0071865D01*
X0037613Y0072257D02*
X0039724Y0072257D01*
X0035685Y0076571D02*
X0047808Y0076571D01*
X0047416Y0076964D02*
X0046135Y0076964D01*
X0046108Y0076948D02*
X0046381Y0077106D01*
X0046603Y0077328D01*
X0046761Y0077601D01*
X0046843Y0077906D01*
X0046843Y0079441D01*
X0043480Y0079441D01*
X0043480Y0076866D01*
X0045803Y0076866D01*
X0046108Y0076948D01*
X0046619Y0077356D02*
X0047240Y0077356D01*
X0047240Y0077748D02*
X0046800Y0077748D01*
X0046843Y0078140D02*
X0047240Y0078140D01*
X0047240Y0078532D02*
X0046843Y0078532D01*
X0046843Y0078925D02*
X0047240Y0078925D01*
X0047240Y0079317D02*
X0046843Y0079317D01*
X0046843Y0079835D02*
X0046843Y0081370D01*
X0046761Y0081675D01*
X0046603Y0081948D01*
X0046381Y0082171D01*
X0046108Y0082328D01*
X0045803Y0082410D01*
X0043480Y0082410D01*
X0043480Y0079835D01*
X0043087Y0079835D01*
X0043087Y0082410D01*
X0040764Y0082410D01*
X0040459Y0082328D01*
X0040186Y0082171D01*
X0039964Y0081948D01*
X0039806Y0081675D01*
X0039724Y0081370D01*
X0039724Y0079835D01*
X0043087Y0079835D01*
X0043087Y0079441D01*
X0043480Y0079441D01*
X0043480Y0079835D01*
X0046843Y0079835D01*
X0046843Y0080101D02*
X0047240Y0080101D01*
X0047240Y0079709D02*
X0043480Y0079709D01*
X0043480Y0079317D02*
X0043087Y0079317D01*
X0043087Y0079441D02*
X0043087Y0076866D01*
X0040764Y0076866D01*
X0040459Y0076948D01*
X0040186Y0077106D01*
X0039964Y0077328D01*
X0039806Y0077601D01*
X0039724Y0077906D01*
X0039724Y0079441D01*
X0043087Y0079441D01*
X0043087Y0079709D02*
X0036736Y0079709D01*
X0036975Y0080101D02*
X0039724Y0080101D01*
X0039724Y0080494D02*
X0037138Y0080494D01*
X0037300Y0080886D02*
X0039724Y0080886D01*
X0039724Y0081278D02*
X0037463Y0081278D01*
X0037613Y0081670D02*
X0039805Y0081670D01*
X0040078Y0082062D02*
X0037613Y0082062D01*
X0037613Y0082455D02*
X0047612Y0082455D01*
X0047240Y0082062D02*
X0046489Y0082062D01*
X0046762Y0081670D02*
X0047240Y0081670D01*
X0047240Y0081278D02*
X0046843Y0081278D01*
X0046843Y0080886D02*
X0047240Y0080886D01*
X0047240Y0080494D02*
X0046843Y0080494D01*
X0048004Y0082847D02*
X0037613Y0082847D01*
X0037613Y0083239D02*
X0048396Y0083239D01*
X0043480Y0082062D02*
X0043087Y0082062D01*
X0043087Y0081670D02*
X0043480Y0081670D01*
X0043480Y0081278D02*
X0043087Y0081278D01*
X0043087Y0080886D02*
X0043480Y0080886D01*
X0043480Y0080494D02*
X0043087Y0080494D01*
X0043087Y0080101D02*
X0043480Y0080101D01*
X0043480Y0078925D02*
X0043087Y0078925D01*
X0043087Y0078532D02*
X0043480Y0078532D01*
X0043480Y0078140D02*
X0043087Y0078140D01*
X0043087Y0077748D02*
X0043480Y0077748D01*
X0043480Y0077356D02*
X0043087Y0077356D01*
X0043087Y0076964D02*
X0043480Y0076964D01*
X0043218Y0075395D02*
X0043753Y0075395D01*
X0040432Y0076964D02*
X0035013Y0076964D01*
X0034066Y0077356D02*
X0039948Y0077356D01*
X0039767Y0077748D02*
X0033763Y0077748D01*
X0034710Y0078140D02*
X0039724Y0078140D01*
X0039724Y0078532D02*
X0035559Y0078532D01*
X0035951Y0078925D02*
X0039724Y0078925D01*
X0039724Y0079317D02*
X0036344Y0079317D01*
X0037596Y0083631D02*
X0058286Y0083631D01*
X0057663Y0083239D02*
X0055139Y0083239D01*
X0059233Y0084023D02*
X0037433Y0084023D01*
X0030896Y0087161D02*
X0010247Y0087161D01*
X0010192Y0086769D02*
X0029949Y0086769D01*
X0029553Y0086377D02*
X0010136Y0086377D01*
X0010081Y0085985D02*
X0029161Y0085985D01*
X0028769Y0085592D02*
X0010026Y0085592D01*
X0009971Y0085200D02*
X0028487Y0085200D01*
X0028324Y0084808D02*
X0009920Y0084808D01*
X0009920Y0084416D02*
X0028162Y0084416D01*
X0027999Y0084023D02*
X0009920Y0084023D01*
X0009920Y0083631D02*
X0027837Y0083631D01*
X0027819Y0083239D02*
X0009920Y0083239D01*
X0009920Y0082847D02*
X0027819Y0082847D01*
X0027819Y0082455D02*
X0009920Y0082455D01*
X0009920Y0082062D02*
X0027819Y0082062D01*
X0027819Y0081670D02*
X0009920Y0081670D01*
X0009920Y0081278D02*
X0027970Y0081278D01*
X0028132Y0080886D02*
X0009920Y0080886D01*
X0009920Y0080494D02*
X0028295Y0080494D01*
X0028457Y0080101D02*
X0009920Y0080101D01*
X0009920Y0079709D02*
X0028697Y0079709D01*
X0029089Y0079317D02*
X0009920Y0079317D01*
X0009920Y0078925D02*
X0029481Y0078925D01*
X0029873Y0078532D02*
X0009920Y0078532D01*
X0009920Y0078140D02*
X0030723Y0078140D01*
X0031366Y0077356D02*
X0009920Y0077356D01*
X0009920Y0077748D02*
X0031670Y0077748D01*
X0030419Y0076964D02*
X0009920Y0076964D01*
X0009920Y0076571D02*
X0029748Y0076571D01*
X0029355Y0076179D02*
X0009920Y0076179D01*
X0009920Y0075787D02*
X0028963Y0075787D01*
X0028571Y0075395D02*
X0009920Y0075395D01*
X0009925Y0075003D02*
X0028405Y0075003D01*
X0028243Y0074610D02*
X0009980Y0074610D01*
X0010035Y0074218D02*
X0028080Y0074218D01*
X0027918Y0073826D02*
X0010090Y0073826D01*
X0010145Y0073434D02*
X0027819Y0073434D01*
X0027819Y0073042D02*
X0010201Y0073042D01*
X0010256Y0072649D02*
X0027819Y0072649D01*
X0027819Y0072257D02*
X0010311Y0072257D01*
X0010366Y0071865D02*
X0027819Y0071865D01*
X0027889Y0071473D02*
X0010421Y0071473D01*
X0010476Y0071080D02*
X0028051Y0071080D01*
X0028214Y0070688D02*
X0010531Y0070688D01*
X0010586Y0070296D02*
X0028376Y0070296D01*
X0028539Y0069904D02*
X0010641Y0069904D01*
X0010697Y0069512D02*
X0028894Y0069512D01*
X0029286Y0069119D02*
X0010752Y0069119D01*
X0010807Y0068727D02*
X0029679Y0068727D01*
X0030253Y0068335D02*
X0010862Y0068335D01*
X0010917Y0067943D02*
X0031200Y0067943D01*
X0031742Y0067512D02*
X0029942Y0066766D01*
X0011082Y0066766D01*
X0011138Y0066374D02*
X0029550Y0066374D01*
X0029158Y0065982D02*
X0011193Y0065982D01*
X0011248Y0065589D02*
X0028766Y0065589D01*
X0028565Y0065389D02*
X0027819Y0063589D01*
X0027819Y0061641D01*
X0028565Y0059841D01*
X0029942Y0058463D01*
X0031742Y0057718D01*
X0033690Y0057718D01*
X0035490Y0058463D01*
X0036868Y0059841D01*
X0037613Y0061641D01*
X0037613Y0063589D01*
X0036868Y0065389D01*
X0035490Y0066766D01*
X0041190Y0066766D01*
X0040900Y0066374D02*
X0035882Y0066374D01*
X0035490Y0066766D02*
X0033690Y0067512D01*
X0031742Y0067512D01*
X0030889Y0067158D02*
X0011027Y0067158D01*
X0010972Y0067551D02*
X0041975Y0067551D01*
X0041583Y0067158D02*
X0034543Y0067158D01*
X0034233Y0067943D02*
X0042682Y0067943D01*
X0043629Y0068335D02*
X0035180Y0068335D01*
X0036275Y0065982D02*
X0040738Y0065982D01*
X0040576Y0065589D02*
X0036667Y0065589D01*
X0036947Y0065197D02*
X0040413Y0065197D01*
X0040339Y0064805D02*
X0037109Y0064805D01*
X0037272Y0064413D02*
X0040339Y0064413D01*
X0040339Y0064021D02*
X0037434Y0064021D01*
X0037597Y0063628D02*
X0040339Y0063628D01*
X0040390Y0063236D02*
X0037613Y0063236D01*
X0037613Y0062844D02*
X0040552Y0062844D01*
X0040715Y0062452D02*
X0037613Y0062452D01*
X0037613Y0062060D02*
X0040877Y0062060D01*
X0041135Y0061667D02*
X0037613Y0061667D01*
X0037462Y0061275D02*
X0041527Y0061275D01*
X0041742Y0060883D02*
X0037299Y0060883D01*
X0037137Y0060491D02*
X0041350Y0060491D01*
X0040958Y0060099D02*
X0036974Y0060099D01*
X0036733Y0059706D02*
X0040781Y0059706D01*
X0040781Y0059314D02*
X0036341Y0059314D01*
X0035948Y0058922D02*
X0040781Y0058922D01*
X0040781Y0058530D02*
X0035556Y0058530D01*
X0034703Y0058137D02*
X0040781Y0058137D01*
X0040781Y0057745D02*
X0033756Y0057745D01*
X0033690Y0057512D02*
X0031742Y0057512D01*
X0029942Y0056766D01*
X0028565Y0055389D01*
X0027819Y0053589D01*
X0027819Y0051641D01*
X0028565Y0049841D01*
X0029942Y0048463D01*
X0031742Y0047718D01*
X0033690Y0047718D01*
X0035490Y0048463D01*
X0036868Y0049841D01*
X0037613Y0051641D01*
X0037613Y0053589D01*
X0036868Y0055389D01*
X0035490Y0056766D01*
X0033690Y0057512D01*
X0034073Y0057353D02*
X0040781Y0057353D01*
X0040781Y0056961D02*
X0035020Y0056961D01*
X0035688Y0056569D02*
X0040781Y0056569D01*
X0040781Y0056176D02*
X0036080Y0056176D01*
X0036472Y0055784D02*
X0040781Y0055784D01*
X0040781Y0055392D02*
X0036864Y0055392D01*
X0037029Y0055000D02*
X0040781Y0055000D01*
X0040781Y0054608D02*
X0037191Y0054608D01*
X0037354Y0054215D02*
X0040781Y0054215D01*
X0040781Y0053823D02*
X0037516Y0053823D01*
X0037613Y0053431D02*
X0040781Y0053431D01*
X0041145Y0053039D02*
X0037613Y0053039D01*
X0037613Y0052646D02*
X0041537Y0052646D01*
X0041929Y0052254D02*
X0037613Y0052254D01*
X0037613Y0051862D02*
X0065623Y0051862D01*
X0065230Y0051470D02*
X0037542Y0051470D01*
X0037380Y0051078D02*
X0065138Y0051078D01*
X0065138Y0050685D02*
X0037217Y0050685D01*
X0037055Y0050293D02*
X0065138Y0050293D01*
X0065138Y0049901D02*
X0036892Y0049901D01*
X0036535Y0049509D02*
X0053368Y0049509D01*
X0052976Y0049117D02*
X0036143Y0049117D01*
X0035751Y0048724D02*
X0052584Y0048724D01*
X0054715Y0046763D02*
X0065138Y0046763D01*
X0065138Y0046371D02*
X0054402Y0046371D01*
X0054402Y0045979D02*
X0065138Y0045979D01*
X0065212Y0045587D02*
X0054402Y0045587D01*
X0054402Y0045194D02*
X0065605Y0045194D01*
X0069230Y0045194D02*
X0069348Y0045194D01*
X0070961Y0045194D02*
X0071354Y0045194D01*
X0071354Y0045587D02*
X0070961Y0045587D01*
X0070961Y0045979D02*
X0071354Y0045979D01*
X0071354Y0046371D02*
X0070961Y0046371D01*
X0070961Y0046763D02*
X0071354Y0046763D01*
X0071354Y0047156D02*
X0070961Y0047156D01*
X0070961Y0047548D02*
X0071354Y0047548D01*
X0071354Y0047940D02*
X0070961Y0047940D01*
X0070961Y0048724D02*
X0071354Y0048724D01*
X0071354Y0049117D02*
X0070961Y0049117D01*
X0070961Y0049509D02*
X0071354Y0049509D01*
X0071354Y0049901D02*
X0070961Y0049901D01*
X0070961Y0050293D02*
X0071354Y0050293D01*
X0071354Y0050685D02*
X0070961Y0050685D01*
X0070961Y0051078D02*
X0071354Y0051078D01*
X0071354Y0051470D02*
X0070961Y0051470D01*
X0070961Y0051862D02*
X0071354Y0051862D01*
X0072109Y0052254D02*
X0047112Y0052254D01*
X0047504Y0052646D02*
X0071717Y0052646D01*
X0071325Y0053039D02*
X0047897Y0053039D01*
X0048261Y0053431D02*
X0049209Y0053431D01*
X0049298Y0053342D02*
X0049571Y0053185D01*
X0049875Y0053103D01*
X0051411Y0053103D01*
X0051411Y0056465D01*
X0051804Y0056465D01*
X0051804Y0053103D01*
X0053340Y0053103D01*
X0053644Y0053185D01*
X0053917Y0053342D01*
X0054140Y0053565D01*
X0054298Y0053838D01*
X0054379Y0054142D01*
X0054379Y0056465D01*
X0051804Y0056465D01*
X0051804Y0056859D01*
X0051411Y0056859D01*
X0051411Y0056465D01*
X0048836Y0056465D01*
X0048836Y0054142D01*
X0048917Y0053838D01*
X0049075Y0053565D01*
X0049298Y0053342D01*
X0048926Y0053823D02*
X0048261Y0053823D01*
X0048261Y0054215D02*
X0048836Y0054215D01*
X0048836Y0054608D02*
X0048261Y0054608D01*
X0048261Y0055000D02*
X0048836Y0055000D01*
X0048836Y0055392D02*
X0048261Y0055392D01*
X0048261Y0055784D02*
X0048836Y0055784D01*
X0048836Y0056176D02*
X0048261Y0056176D01*
X0048261Y0056569D02*
X0051411Y0056569D01*
X0051411Y0056961D02*
X0051804Y0056961D01*
X0051804Y0056859D02*
X0051804Y0060221D01*
X0053340Y0060221D01*
X0053644Y0060140D01*
X0053917Y0059982D01*
X0054140Y0059759D01*
X0054298Y0059486D01*
X0054379Y0059182D01*
X0054379Y0056859D01*
X0051804Y0056859D01*
X0051804Y0056569D02*
X0065138Y0056569D01*
X0065138Y0056961D02*
X0054379Y0056961D01*
X0054379Y0057353D02*
X0065138Y0057353D01*
X0065138Y0057745D02*
X0054379Y0057745D01*
X0054379Y0058137D02*
X0065138Y0058137D01*
X0065138Y0058530D02*
X0054379Y0058530D01*
X0054379Y0058922D02*
X0065138Y0058922D01*
X0065138Y0059314D02*
X0054344Y0059314D01*
X0054171Y0059706D02*
X0065138Y0059706D01*
X0065138Y0060099D02*
X0053716Y0060099D01*
X0051804Y0060099D02*
X0051411Y0060099D01*
X0051411Y0059706D02*
X0051804Y0059706D01*
X0051804Y0059314D02*
X0051411Y0059314D01*
X0051411Y0058922D02*
X0051804Y0058922D01*
X0051804Y0058530D02*
X0051411Y0058530D01*
X0051411Y0058137D02*
X0051804Y0058137D01*
X0051804Y0057745D02*
X0051411Y0057745D01*
X0051411Y0057353D02*
X0051804Y0057353D01*
X0051804Y0056176D02*
X0051411Y0056176D01*
X0051411Y0055784D02*
X0051804Y0055784D01*
X0051804Y0055392D02*
X0051411Y0055392D01*
X0051411Y0055000D02*
X0051804Y0055000D01*
X0051804Y0054608D02*
X0051411Y0054608D01*
X0051411Y0054215D02*
X0051804Y0054215D01*
X0051804Y0053823D02*
X0051411Y0053823D01*
X0051411Y0053431D02*
X0051804Y0053431D01*
X0054006Y0053431D02*
X0070932Y0053431D01*
X0070540Y0053823D02*
X0054289Y0053823D01*
X0054379Y0054215D02*
X0070148Y0054215D01*
X0069756Y0054608D02*
X0054379Y0054608D01*
X0054379Y0055000D02*
X0069364Y0055000D01*
X0071495Y0056961D02*
X0071650Y0056961D01*
X0071650Y0056806D02*
X0071650Y0058080D01*
X0071513Y0058317D01*
X0069697Y0060132D01*
X0069697Y0058759D01*
X0071650Y0056806D01*
X0071650Y0057353D02*
X0071103Y0057353D01*
X0070710Y0057745D02*
X0071650Y0057745D01*
X0071616Y0058137D02*
X0070318Y0058137D01*
X0069926Y0058530D02*
X0071300Y0058530D01*
X0070907Y0058922D02*
X0069697Y0058922D01*
X0069697Y0059314D02*
X0070515Y0059314D01*
X0070123Y0059706D02*
X0069697Y0059706D01*
X0069697Y0060099D02*
X0069731Y0060099D01*
X0065138Y0060491D02*
X0051165Y0060491D01*
X0051558Y0060883D02*
X0065138Y0060883D01*
X0065138Y0056176D02*
X0054379Y0056176D01*
X0054379Y0055784D02*
X0065252Y0055784D01*
X0065644Y0055392D02*
X0054379Y0055392D01*
X0048836Y0056961D02*
X0048261Y0056961D01*
X0048261Y0057353D02*
X0048836Y0057353D01*
X0048836Y0057745D02*
X0048420Y0057745D01*
X0048812Y0058137D02*
X0048836Y0058137D01*
X0048532Y0066766D02*
X0048349Y0066766D01*
X0047534Y0067158D02*
X0049348Y0067158D01*
X0047033Y0067551D02*
X0063532Y0067551D01*
X0063532Y0067943D02*
X0046326Y0067943D01*
X0045379Y0068335D02*
X0063532Y0068335D01*
X0063532Y0069904D02*
X0054777Y0069904D01*
X0055169Y0070296D02*
X0063532Y0070296D01*
X0063550Y0070688D02*
X0055327Y0070688D01*
X0055327Y0071080D02*
X0063702Y0071080D01*
X0066894Y0071080D02*
X0067288Y0071080D01*
X0067288Y0070688D02*
X0066894Y0070688D01*
X0066894Y0070296D02*
X0067288Y0070296D01*
X0067288Y0069904D02*
X0066894Y0069904D01*
X0066894Y0069512D02*
X0067288Y0069512D01*
X0067288Y0071473D02*
X0066894Y0071473D01*
X0070650Y0067943D02*
X0078490Y0067943D01*
X0078490Y0067551D02*
X0070650Y0067551D01*
X0071156Y0067158D02*
X0078490Y0067158D01*
X0078490Y0066766D02*
X0071972Y0066766D01*
X0072364Y0066374D02*
X0078490Y0066374D01*
X0078490Y0065982D02*
X0072756Y0065982D01*
X0073148Y0065589D02*
X0078490Y0065589D01*
X0078490Y0065197D02*
X0073540Y0065197D01*
X0073933Y0064805D02*
X0078490Y0064805D01*
X0078490Y0064413D02*
X0074325Y0064413D01*
X0074717Y0064021D02*
X0078490Y0064021D01*
X0078490Y0063628D02*
X0075109Y0063628D01*
X0076925Y0063236D02*
X0078490Y0063236D01*
X0078490Y0062844D02*
X0077317Y0062844D01*
X0077709Y0062452D02*
X0078490Y0062452D01*
X0078490Y0062060D02*
X0078101Y0062060D01*
X0078146Y0061667D02*
X0078490Y0061667D01*
X0078490Y0061275D02*
X0078146Y0061275D01*
X0078146Y0060883D02*
X0078490Y0060883D01*
X0078490Y0060491D02*
X0078146Y0060491D01*
X0078146Y0060099D02*
X0078490Y0060099D01*
X0078490Y0059706D02*
X0078146Y0059706D01*
X0078146Y0059314D02*
X0078490Y0059314D01*
X0078490Y0058922D02*
X0078146Y0058922D01*
X0078146Y0058530D02*
X0078490Y0058530D01*
X0078490Y0058137D02*
X0078146Y0058137D01*
X0078146Y0057745D02*
X0078490Y0057745D01*
X0078490Y0057353D02*
X0078146Y0057353D01*
X0078146Y0056961D02*
X0078490Y0056961D01*
X0081384Y0056961D02*
X0082732Y0056961D01*
X0082732Y0057353D02*
X0081384Y0057353D01*
X0081384Y0057745D02*
X0082732Y0057745D01*
X0082732Y0058137D02*
X0081384Y0058137D01*
X0081384Y0058530D02*
X0082732Y0058530D01*
X0082732Y0058922D02*
X0081384Y0058922D01*
X0081384Y0059314D02*
X0083043Y0059314D01*
X0083435Y0059706D02*
X0081384Y0059706D01*
X0081384Y0060099D02*
X0083827Y0060099D01*
X0084661Y0060491D02*
X0081384Y0060491D01*
X0081384Y0060883D02*
X0084661Y0060883D01*
X0084661Y0061275D02*
X0081384Y0061275D01*
X0081384Y0061667D02*
X0084661Y0061667D01*
X0084661Y0062060D02*
X0081384Y0062060D01*
X0081384Y0062452D02*
X0084661Y0062452D01*
X0084661Y0062844D02*
X0081384Y0062844D01*
X0081384Y0063236D02*
X0084661Y0063236D01*
X0084661Y0063628D02*
X0081384Y0063628D01*
X0081384Y0064021D02*
X0084661Y0064021D01*
X0084661Y0064413D02*
X0081384Y0064413D01*
X0081384Y0064805D02*
X0084661Y0064805D01*
X0084661Y0065197D02*
X0081384Y0065197D01*
X0081384Y0065589D02*
X0084661Y0065589D01*
X0084661Y0065982D02*
X0081384Y0065982D01*
X0081384Y0066374D02*
X0084661Y0066374D01*
X0084661Y0066766D02*
X0081384Y0066766D01*
X0081384Y0067158D02*
X0084661Y0067158D01*
X0084661Y0067551D02*
X0081384Y0067551D01*
X0081384Y0067943D02*
X0084661Y0067943D01*
X0084661Y0068335D02*
X0081384Y0068335D01*
X0081384Y0068727D02*
X0084661Y0068727D01*
X0084661Y0069119D02*
X0081384Y0069119D01*
X0081384Y0069512D02*
X0084661Y0069512D01*
X0084661Y0069904D02*
X0081384Y0069904D01*
X0081384Y0070296D02*
X0084661Y0070296D01*
X0084661Y0070688D02*
X0081384Y0070688D01*
X0081384Y0071080D02*
X0084661Y0071080D01*
X0084661Y0071473D02*
X0081384Y0071473D01*
X0081384Y0071865D02*
X0084661Y0071865D01*
X0084661Y0072257D02*
X0081384Y0072257D01*
X0081384Y0072649D02*
X0084661Y0072649D01*
X0084661Y0073042D02*
X0081384Y0073042D01*
X0081384Y0073434D02*
X0084661Y0073434D01*
X0084661Y0073826D02*
X0081384Y0073826D01*
X0081384Y0074218D02*
X0084661Y0074218D01*
X0084661Y0074610D02*
X0081384Y0074610D01*
X0081384Y0075003D02*
X0084661Y0075003D01*
X0084661Y0075395D02*
X0081384Y0075395D01*
X0081384Y0075787D02*
X0084661Y0075787D01*
X0084661Y0076179D02*
X0081384Y0076179D01*
X0081384Y0076571D02*
X0084661Y0076571D01*
X0084661Y0076964D02*
X0081020Y0076964D01*
X0080627Y0077356D02*
X0084661Y0077356D01*
X0083271Y0081670D02*
X0078532Y0081670D01*
X0078924Y0082062D02*
X0082879Y0082062D01*
X0082487Y0082455D02*
X0079316Y0082455D01*
X0079708Y0082847D02*
X0082095Y0082847D01*
X0082024Y0083239D02*
X0079780Y0083239D01*
X0079780Y0083631D02*
X0082024Y0083631D01*
X0082024Y0084023D02*
X0079780Y0084023D01*
X0079780Y0084416D02*
X0082024Y0084416D01*
X0082024Y0084808D02*
X0079780Y0084808D01*
X0079780Y0085200D02*
X0082024Y0085200D01*
X0082024Y0085592D02*
X0079780Y0085592D01*
X0079780Y0085985D02*
X0082024Y0085985D01*
X0082024Y0086377D02*
X0079780Y0086377D01*
X0079780Y0086769D02*
X0082024Y0086769D01*
X0082024Y0087161D02*
X0079780Y0087161D01*
X0079780Y0087553D02*
X0082024Y0087553D01*
X0082024Y0087946D02*
X0079780Y0087946D01*
X0079421Y0088338D02*
X0082382Y0088338D01*
X0082774Y0088730D02*
X0079029Y0088730D01*
X0078637Y0089122D02*
X0083166Y0089122D01*
X0087692Y0089122D02*
X0149483Y0089122D01*
X0149511Y0088730D02*
X0126472Y0088730D01*
X0127172Y0088338D02*
X0149538Y0088338D01*
X0149565Y0087946D02*
X0127564Y0087946D01*
X0127956Y0087553D02*
X0149593Y0087553D01*
X0149620Y0087161D02*
X0128348Y0087161D01*
X0128740Y0086769D02*
X0149648Y0086769D01*
X0149675Y0086377D02*
X0129133Y0086377D01*
X0129525Y0085985D02*
X0149703Y0085985D01*
X0149730Y0085592D02*
X0129917Y0085592D01*
X0130309Y0085200D02*
X0149757Y0085200D01*
X0149785Y0084808D02*
X0130701Y0084808D01*
X0131094Y0084416D02*
X0149812Y0084416D01*
X0149840Y0084023D02*
X0131486Y0084023D01*
X0131878Y0083631D02*
X0149867Y0083631D01*
X0149895Y0083239D02*
X0132270Y0083239D01*
X0132662Y0082847D02*
X0149922Y0082847D01*
X0149949Y0082455D02*
X0133055Y0082455D01*
X0133447Y0082062D02*
X0149977Y0082062D01*
X0150004Y0081670D02*
X0133839Y0081670D01*
X0134231Y0081278D02*
X0150032Y0081278D01*
X0150059Y0080886D02*
X0134624Y0080886D01*
X0135016Y0080494D02*
X0150087Y0080494D01*
X0150114Y0080101D02*
X0135408Y0080101D01*
X0135800Y0079709D02*
X0150110Y0079709D01*
X0150082Y0079317D02*
X0136192Y0079317D01*
X0136585Y0078925D02*
X0150055Y0078925D01*
X0150027Y0078532D02*
X0136977Y0078532D01*
X0136839Y0078670D02*
X0136839Y0078670D01*
X0137369Y0078140D02*
X0150000Y0078140D01*
X0149972Y0077748D02*
X0137740Y0077748D01*
X0137903Y0077356D02*
X0149945Y0077356D01*
X0149918Y0076964D02*
X0138065Y0076964D01*
X0138205Y0076571D02*
X0149890Y0076571D01*
X0149863Y0076179D02*
X0138205Y0076179D01*
X0138205Y0075787D02*
X0149835Y0075787D01*
X0149808Y0075395D02*
X0138205Y0075395D01*
X0138205Y0075003D02*
X0149780Y0075003D01*
X0149753Y0074610D02*
X0138205Y0074610D01*
X0138205Y0074218D02*
X0149726Y0074218D01*
X0149698Y0073826D02*
X0138205Y0073826D01*
X0138205Y0073434D02*
X0149671Y0073434D01*
X0149643Y0073042D02*
X0138205Y0073042D01*
X0138205Y0072649D02*
X0149616Y0072649D01*
X0149588Y0072257D02*
X0138205Y0072257D01*
X0138205Y0071865D02*
X0149561Y0071865D01*
X0149534Y0071473D02*
X0138205Y0071473D01*
X0138205Y0071080D02*
X0149506Y0071080D01*
X0149479Y0070688D02*
X0138205Y0070688D01*
X0138205Y0070296D02*
X0149451Y0070296D01*
X0149442Y0070169D02*
X0149442Y0070169D01*
X0149386Y0069904D02*
X0138205Y0069904D01*
X0138205Y0069512D02*
X0149303Y0069512D01*
X0149219Y0069119D02*
X0138205Y0069119D01*
X0138205Y0068727D02*
X0149136Y0068727D01*
X0149053Y0068335D02*
X0138205Y0068335D01*
X0138205Y0067943D02*
X0148969Y0067943D01*
X0148886Y0067551D02*
X0138205Y0067551D01*
X0138205Y0067158D02*
X0148803Y0067158D01*
X0148719Y0066766D02*
X0138205Y0066766D01*
X0138205Y0066374D02*
X0148636Y0066374D01*
X0148552Y0065982D02*
X0138205Y0065982D01*
X0138205Y0065589D02*
X0148469Y0065589D01*
X0148386Y0065197D02*
X0138205Y0065197D01*
X0138205Y0064805D02*
X0148302Y0064805D01*
X0148219Y0064413D02*
X0138205Y0064413D01*
X0138205Y0064021D02*
X0148136Y0064021D01*
X0148052Y0063628D02*
X0138205Y0063628D01*
X0138205Y0063236D02*
X0147969Y0063236D01*
X0147885Y0062844D02*
X0138205Y0062844D01*
X0138205Y0062452D02*
X0147802Y0062452D01*
X0147719Y0062060D02*
X0138205Y0062060D01*
X0138205Y0061667D02*
X0147635Y0061667D01*
X0147552Y0061275D02*
X0138205Y0061275D01*
X0138205Y0060883D02*
X0147469Y0060883D01*
X0147370Y0060491D02*
X0138205Y0060491D01*
X0138205Y0060099D02*
X0147227Y0060099D01*
X0147085Y0059706D02*
X0138205Y0059706D01*
X0138205Y0059314D02*
X0146942Y0059314D01*
X0146799Y0058922D02*
X0138205Y0058922D01*
X0138205Y0058530D02*
X0146656Y0058530D01*
X0146514Y0058137D02*
X0138205Y0058137D01*
X0138205Y0057745D02*
X0146371Y0057745D01*
X0146228Y0057353D02*
X0138205Y0057353D01*
X0138205Y0056961D02*
X0146085Y0056961D01*
X0145943Y0056569D02*
X0138205Y0056569D01*
X0138205Y0056176D02*
X0145800Y0056176D01*
X0145657Y0055784D02*
X0138205Y0055784D01*
X0138082Y0055392D02*
X0145514Y0055392D01*
X0145372Y0055000D02*
X0137919Y0055000D01*
X0137757Y0054608D02*
X0145229Y0054608D01*
X0145086Y0054215D02*
X0137410Y0054215D01*
X0137017Y0053823D02*
X0144943Y0053823D01*
X0144801Y0053431D02*
X0136625Y0053431D01*
X0136233Y0053039D02*
X0144658Y0053039D01*
X0144515Y0052646D02*
X0135841Y0052646D01*
X0135449Y0052254D02*
X0144372Y0052254D01*
X0144230Y0051862D02*
X0135056Y0051862D01*
X0134664Y0051470D02*
X0144087Y0051470D01*
X0143892Y0051078D02*
X0134272Y0051078D01*
X0133880Y0050685D02*
X0143683Y0050685D01*
X0143475Y0050293D02*
X0133488Y0050293D01*
X0133095Y0049901D02*
X0143266Y0049901D01*
X0143058Y0049509D02*
X0132422Y0049509D01*
X0131895Y0049117D02*
X0142849Y0049117D01*
X0142641Y0048724D02*
X0131503Y0048724D01*
X0131111Y0048332D02*
X0142432Y0048332D01*
X0142224Y0047940D02*
X0130719Y0047940D01*
X0130198Y0047548D02*
X0142015Y0047548D01*
X0141806Y0047156D02*
X0129251Y0047156D01*
X0129867Y0046763D02*
X0141598Y0046763D01*
X0141389Y0046371D02*
X0130260Y0046371D01*
X0130652Y0045979D02*
X0141181Y0045979D01*
X0140972Y0045587D02*
X0131045Y0045587D01*
X0131325Y0045194D02*
X0140764Y0045194D01*
X0140555Y0044802D02*
X0131488Y0044802D01*
X0131650Y0044410D02*
X0140347Y0044410D01*
X0140138Y0044018D02*
X0131813Y0044018D01*
X0131975Y0043626D02*
X0139930Y0043626D01*
X0139721Y0043233D02*
X0131992Y0043233D01*
X0131992Y0042841D02*
X0139513Y0042841D01*
X0139247Y0042449D02*
X0131992Y0042449D01*
X0131992Y0042057D02*
X0138962Y0042057D01*
X0138677Y0041665D02*
X0131992Y0041665D01*
X0131841Y0041272D02*
X0138392Y0041272D01*
X0138107Y0040880D02*
X0131678Y0040880D01*
X0131516Y0040488D02*
X0137822Y0040488D01*
X0137537Y0040096D02*
X0131353Y0040096D01*
X0131113Y0039703D02*
X0137252Y0039703D01*
X0136967Y0039311D02*
X0130720Y0039311D01*
X0130328Y0038919D02*
X0136682Y0038919D01*
X0136397Y0038527D02*
X0129936Y0038527D01*
X0129084Y0038135D02*
X0136112Y0038135D01*
X0135827Y0037742D02*
X0128137Y0037742D01*
X0128356Y0037350D02*
X0135542Y0037350D01*
X0135257Y0036958D02*
X0129350Y0036958D01*
X0129983Y0036566D02*
X0134972Y0036566D01*
X0134687Y0036174D02*
X0130458Y0036174D01*
X0130844Y0035781D02*
X0134402Y0035781D01*
X0134117Y0035389D02*
X0131129Y0035389D01*
X0131375Y0034997D02*
X0133833Y0034997D01*
X0133496Y0034605D02*
X0131575Y0034605D01*
X0131723Y0034213D02*
X0133117Y0034213D01*
X0132738Y0033820D02*
X0131851Y0033820D01*
X0131923Y0033428D02*
X0132360Y0033428D01*
X0127292Y0033428D02*
X0126898Y0033428D01*
X0126898Y0033036D02*
X0127292Y0033036D01*
X0126898Y0032808D02*
X0126898Y0037508D01*
X0126710Y0037508D01*
X0125948Y0037387D01*
X0125215Y0037149D01*
X0124528Y0036799D01*
X0123905Y0036346D01*
X0123360Y0035801D01*
X0122907Y0035178D01*
X0122557Y0034491D01*
X0122319Y0033758D01*
X0122198Y0032996D01*
X0122198Y0032808D01*
X0126898Y0032808D01*
X0126898Y0032644D02*
X0095622Y0032644D01*
X0095622Y0032251D02*
X0122198Y0032251D01*
X0122256Y0031859D02*
X0095622Y0031859D01*
X0095622Y0031467D02*
X0122318Y0031467D01*
X0122445Y0031075D02*
X0095580Y0031075D01*
X0095399Y0030683D02*
X0122582Y0030683D01*
X0122782Y0030290D02*
X0094916Y0030290D01*
X0092259Y0030290D02*
X0091866Y0030290D01*
X0091866Y0030683D02*
X0092259Y0030683D01*
X0092259Y0031075D02*
X0091866Y0031075D01*
X0091866Y0031467D02*
X0092259Y0031467D01*
X0092259Y0031859D02*
X0091866Y0031859D01*
X0091866Y0032251D02*
X0092259Y0032251D01*
X0092259Y0032644D02*
X0091866Y0032644D01*
X0091866Y0033036D02*
X0083047Y0033036D01*
X0083047Y0032644D02*
X0084344Y0032644D01*
X0083447Y0032251D02*
X0083047Y0032251D01*
X0082815Y0033428D02*
X0088503Y0033428D01*
X0088503Y0033820D02*
X0082423Y0033820D01*
X0082031Y0034213D02*
X0088503Y0034213D01*
X0088503Y0034605D02*
X0061362Y0034605D01*
X0061362Y0034997D02*
X0088584Y0034997D01*
X0088858Y0035389D02*
X0061025Y0035389D01*
X0060633Y0035781D02*
X0123346Y0035781D01*
X0123061Y0035389D02*
X0095267Y0035389D01*
X0095160Y0035496D02*
X0094887Y0035654D01*
X0094582Y0035735D01*
X0092259Y0035735D01*
X0092259Y0033161D01*
X0095622Y0033161D01*
X0095622Y0034696D01*
X0095540Y0035000D01*
X0095382Y0035273D01*
X0095160Y0035496D01*
X0095541Y0034997D02*
X0122815Y0034997D01*
X0122615Y0034605D02*
X0095622Y0034605D01*
X0095622Y0034213D02*
X0122466Y0034213D01*
X0122339Y0033820D02*
X0095622Y0033820D01*
X0095622Y0033428D02*
X0122267Y0033428D01*
X0122204Y0033036D02*
X0092259Y0033036D01*
X0092259Y0033428D02*
X0091866Y0033428D01*
X0091866Y0033820D02*
X0092259Y0033820D01*
X0092259Y0034213D02*
X0091866Y0034213D01*
X0091866Y0034605D02*
X0092259Y0034605D01*
X0092259Y0034997D02*
X0091866Y0034997D01*
X0091866Y0035389D02*
X0092259Y0035389D01*
X0094992Y0037350D02*
X0125834Y0037350D01*
X0126053Y0037742D02*
X0095384Y0037742D01*
X0095622Y0038135D02*
X0125106Y0038135D01*
X0124254Y0038527D02*
X0095622Y0038527D01*
X0095622Y0038919D02*
X0123862Y0038919D01*
X0123470Y0039311D02*
X0095622Y0039311D01*
X0095622Y0039703D02*
X0123077Y0039703D01*
X0122837Y0040096D02*
X0095622Y0040096D01*
X0095684Y0040488D02*
X0122674Y0040488D01*
X0122512Y0040880D02*
X0096076Y0040880D01*
X0096468Y0041272D02*
X0122349Y0041272D01*
X0122198Y0041665D02*
X0096860Y0041665D01*
X0097253Y0042057D02*
X0122198Y0042057D01*
X0122198Y0042449D02*
X0097645Y0042449D01*
X0098037Y0042841D02*
X0122198Y0042841D01*
X0123538Y0045979D02*
X0087751Y0045979D01*
X0087914Y0045587D02*
X0096690Y0045587D01*
X0096298Y0045194D02*
X0088020Y0045194D01*
X0088020Y0044802D02*
X0095906Y0044802D01*
X0095514Y0044410D02*
X0088020Y0044410D01*
X0088020Y0044018D02*
X0095121Y0044018D01*
X0094729Y0043626D02*
X0087998Y0043626D01*
X0087836Y0043233D02*
X0094337Y0043233D01*
X0093945Y0042841D02*
X0087673Y0042841D01*
X0087511Y0042449D02*
X0088832Y0042449D01*
X0088503Y0042057D02*
X0087291Y0042057D01*
X0086899Y0041665D02*
X0088503Y0041665D01*
X0088503Y0041272D02*
X0086506Y0041272D01*
X0085961Y0040880D02*
X0088503Y0040880D01*
X0088503Y0040488D02*
X0085014Y0040488D01*
X0082734Y0040488D02*
X0078339Y0040488D01*
X0078339Y0040880D02*
X0081787Y0040880D01*
X0081242Y0041272D02*
X0078129Y0041272D01*
X0077737Y0041665D02*
X0080849Y0041665D01*
X0080457Y0042057D02*
X0075478Y0042057D01*
X0075478Y0042449D02*
X0080237Y0042449D01*
X0080075Y0042841D02*
X0075478Y0042841D01*
X0075478Y0043233D02*
X0079912Y0043233D01*
X0079750Y0043626D02*
X0075478Y0043626D01*
X0075478Y0044018D02*
X0079728Y0044018D01*
X0079728Y0044410D02*
X0075478Y0044410D01*
X0075478Y0044802D02*
X0079728Y0044802D01*
X0079728Y0045194D02*
X0076710Y0045194D01*
X0077102Y0045587D02*
X0079834Y0045587D01*
X0079997Y0045979D02*
X0077177Y0045979D01*
X0077177Y0046371D02*
X0080159Y0046371D01*
X0080322Y0046763D02*
X0077177Y0046763D01*
X0077177Y0047156D02*
X0080662Y0047156D01*
X0080724Y0047548D02*
X0077177Y0047548D01*
X0077177Y0047940D02*
X0080724Y0047940D01*
X0080724Y0048332D02*
X0077177Y0048332D01*
X0077177Y0048724D02*
X0080724Y0048724D01*
X0080724Y0049117D02*
X0077177Y0049117D01*
X0077177Y0049509D02*
X0080724Y0049509D01*
X0080724Y0049901D02*
X0077177Y0049901D01*
X0077177Y0050293D02*
X0080776Y0050293D01*
X0080938Y0050685D02*
X0077177Y0050685D01*
X0077177Y0051078D02*
X0081100Y0051078D01*
X0081346Y0051470D02*
X0077138Y0051470D01*
X0077530Y0051862D02*
X0081739Y0051862D01*
X0082189Y0052254D02*
X0077922Y0052254D01*
X0078315Y0052646D02*
X0083135Y0052646D01*
X0083700Y0053039D02*
X0078707Y0053039D01*
X0079099Y0053431D02*
X0087063Y0053431D01*
X0087456Y0053431D02*
X0096319Y0053431D01*
X0097300Y0051823D02*
X0094977Y0051823D01*
X0094672Y0051741D01*
X0094399Y0051584D01*
X0094177Y0051361D01*
X0094019Y0051088D01*
X0093937Y0050784D01*
X0093937Y0049740D01*
X0097300Y0049740D01*
X0097300Y0051823D01*
X0097300Y0051470D02*
X0097693Y0051470D01*
X0097693Y0051823D02*
X0097693Y0049740D01*
X0097300Y0049740D01*
X0097300Y0049346D01*
X0097693Y0049346D01*
X0097693Y0047264D01*
X0100016Y0047264D01*
X0100321Y0047345D01*
X0100594Y0047503D01*
X0100816Y0047726D01*
X0100974Y0047999D01*
X0101055Y0048303D01*
X0101055Y0049346D01*
X0097693Y0049346D01*
X0097693Y0049740D01*
X0101055Y0049740D01*
X0101055Y0050784D01*
X0100974Y0051088D01*
X0100816Y0051361D01*
X0100594Y0051584D01*
X0100321Y0051741D01*
X0100016Y0051823D01*
X0097693Y0051823D01*
X0097693Y0051078D02*
X0097300Y0051078D01*
X0097300Y0050685D02*
X0097693Y0050685D01*
X0097693Y0050293D02*
X0097300Y0050293D01*
X0097300Y0049901D02*
X0097693Y0049901D01*
X0097693Y0049509D02*
X0103780Y0049509D01*
X0103780Y0049583D02*
X0103780Y0048047D01*
X0103861Y0047743D01*
X0104019Y0047470D01*
X0104241Y0047247D01*
X0104514Y0047089D01*
X0104819Y0047008D01*
X0107142Y0047008D01*
X0107142Y0049583D01*
X0107535Y0049583D01*
X0107535Y0047008D01*
X0109858Y0047008D01*
X0110163Y0047089D01*
X0110436Y0047247D01*
X0110659Y0047470D01*
X0110816Y0047743D01*
X0110898Y0048047D01*
X0110898Y0049583D01*
X0107535Y0049583D01*
X0107535Y0049976D01*
X0107142Y0049976D01*
X0107142Y0049583D01*
X0103780Y0049583D01*
X0103780Y0049976D02*
X0107142Y0049976D01*
X0107142Y0052551D01*
X0104819Y0052551D01*
X0104514Y0052470D01*
X0104241Y0052312D01*
X0104019Y0052089D01*
X0103861Y0051816D01*
X0103780Y0051512D01*
X0103780Y0049976D01*
X0103780Y0050293D02*
X0101055Y0050293D01*
X0101055Y0049901D02*
X0107142Y0049901D01*
X0107142Y0049509D02*
X0107535Y0049509D01*
X0107535Y0049901D02*
X0117330Y0049901D01*
X0116938Y0050293D02*
X0110898Y0050293D01*
X0110898Y0049976D02*
X0110898Y0051512D01*
X0110816Y0051816D01*
X0110659Y0052089D01*
X0110436Y0052312D01*
X0110163Y0052470D01*
X0109858Y0052551D01*
X0107535Y0052551D01*
X0107535Y0049976D01*
X0110898Y0049976D01*
X0110898Y0049509D02*
X0118004Y0049509D01*
X0116545Y0050685D02*
X0110898Y0050685D01*
X0110898Y0051078D02*
X0116153Y0051078D01*
X0115761Y0051470D02*
X0110898Y0051470D01*
X0110790Y0051862D02*
X0115369Y0051862D01*
X0114977Y0052254D02*
X0110493Y0052254D01*
X0107535Y0052254D02*
X0107142Y0052254D01*
X0107142Y0051862D02*
X0107535Y0051862D01*
X0107535Y0051470D02*
X0107142Y0051470D01*
X0107142Y0051078D02*
X0107535Y0051078D01*
X0107535Y0050685D02*
X0107142Y0050685D01*
X0107142Y0050293D02*
X0107535Y0050293D01*
X0107535Y0049117D02*
X0107142Y0049117D01*
X0107142Y0048724D02*
X0107535Y0048724D01*
X0107535Y0048332D02*
X0107142Y0048332D01*
X0107142Y0047940D02*
X0107535Y0047940D01*
X0107535Y0047548D02*
X0107142Y0047548D01*
X0107142Y0047156D02*
X0107535Y0047156D01*
X0110277Y0047156D02*
X0124939Y0047156D01*
X0124323Y0046763D02*
X0090987Y0046763D01*
X0091379Y0047156D02*
X0104400Y0047156D01*
X0103974Y0047548D02*
X0100638Y0047548D01*
X0100940Y0047940D02*
X0103808Y0047940D01*
X0103780Y0048332D02*
X0101055Y0048332D01*
X0101055Y0048724D02*
X0103780Y0048724D01*
X0103780Y0049117D02*
X0101055Y0049117D01*
X0101055Y0050685D02*
X0103780Y0050685D01*
X0103780Y0051078D02*
X0100977Y0051078D01*
X0100707Y0051470D02*
X0103780Y0051470D01*
X0103888Y0051862D02*
X0091448Y0051862D01*
X0091787Y0051470D02*
X0094286Y0051470D01*
X0094016Y0051078D02*
X0091787Y0051078D01*
X0091787Y0050685D02*
X0093937Y0050685D01*
X0093937Y0050293D02*
X0091787Y0050293D01*
X0091787Y0049901D02*
X0093937Y0049901D01*
X0093937Y0049346D02*
X0093937Y0048303D01*
X0094019Y0047999D01*
X0094177Y0047726D01*
X0094399Y0047503D01*
X0094672Y0047345D01*
X0094977Y0047264D01*
X0097300Y0047264D01*
X0097300Y0049346D01*
X0093937Y0049346D01*
X0093937Y0049117D02*
X0091787Y0049117D01*
X0091787Y0049509D02*
X0097300Y0049509D01*
X0097300Y0049117D02*
X0097693Y0049117D01*
X0097693Y0048724D02*
X0097300Y0048724D01*
X0097300Y0048332D02*
X0097693Y0048332D01*
X0097693Y0047940D02*
X0097300Y0047940D01*
X0097300Y0047548D02*
X0097693Y0047548D01*
X0094355Y0047548D02*
X0091771Y0047548D01*
X0091787Y0047940D02*
X0094053Y0047940D01*
X0093937Y0048332D02*
X0091787Y0048332D01*
X0091787Y0048724D02*
X0093937Y0048724D01*
X0090594Y0046371D02*
X0123930Y0046371D01*
X0123992Y0047548D02*
X0110703Y0047548D01*
X0110869Y0047940D02*
X0123471Y0047940D01*
X0123079Y0048332D02*
X0110898Y0048332D01*
X0110898Y0048724D02*
X0122687Y0048724D01*
X0122295Y0049117D02*
X0110898Y0049117D01*
X0114584Y0052646D02*
X0090818Y0052646D01*
X0090818Y0053039D02*
X0114192Y0053039D01*
X0118786Y0057353D02*
X0123542Y0057353D01*
X0123666Y0057745D02*
X0118394Y0057745D01*
X0118002Y0058137D02*
X0123274Y0058137D01*
X0122882Y0058530D02*
X0117610Y0058530D01*
X0117217Y0058922D02*
X0122489Y0058922D01*
X0122112Y0059314D02*
X0116360Y0059314D01*
X0119178Y0056961D02*
X0123150Y0056961D01*
X0122758Y0056569D02*
X0119571Y0056569D01*
X0119963Y0056176D02*
X0122365Y0056176D01*
X0122061Y0055784D02*
X0120355Y0055784D01*
X0121950Y0059706D02*
X0111498Y0059706D01*
X0111105Y0060099D02*
X0121787Y0060099D01*
X0121625Y0060491D02*
X0110713Y0060491D01*
X0103964Y0060491D02*
X0100803Y0060491D01*
X0100803Y0060883D02*
X0121462Y0060883D01*
X0121300Y0061275D02*
X0100803Y0061275D01*
X0100803Y0061667D02*
X0121230Y0061667D01*
X0121230Y0062060D02*
X0100803Y0062060D01*
X0100803Y0062452D02*
X0121230Y0062452D01*
X0121230Y0062844D02*
X0100803Y0062844D01*
X0100803Y0063236D02*
X0121230Y0063236D01*
X0121230Y0063628D02*
X0100803Y0063628D01*
X0100803Y0064021D02*
X0121330Y0064021D01*
X0121493Y0064413D02*
X0100803Y0064413D01*
X0100803Y0064805D02*
X0121655Y0064805D01*
X0121818Y0065197D02*
X0100803Y0065197D01*
X0100803Y0065589D02*
X0121980Y0065589D01*
X0122171Y0065982D02*
X0100803Y0065982D01*
X0100803Y0066374D02*
X0122563Y0066374D01*
X0122955Y0066766D02*
X0100803Y0066766D01*
X0100803Y0067158D02*
X0123347Y0067158D01*
X0123740Y0067551D02*
X0100803Y0067551D01*
X0100803Y0067943D02*
X0123468Y0067943D01*
X0123076Y0068335D02*
X0100803Y0068335D01*
X0100803Y0068727D02*
X0122684Y0068727D01*
X0122292Y0069119D02*
X0101937Y0069119D01*
X0102330Y0069512D02*
X0122030Y0069512D01*
X0121868Y0069904D02*
X0102722Y0069904D01*
X0103114Y0070296D02*
X0121705Y0070296D01*
X0121543Y0070688D02*
X0103163Y0070688D01*
X0097698Y0076571D02*
X0090961Y0076571D01*
X0090961Y0076179D02*
X0094999Y0076179D01*
X0094606Y0075787D02*
X0090961Y0075787D01*
X0090961Y0075395D02*
X0094214Y0075395D01*
X0094108Y0075003D02*
X0090961Y0075003D01*
X0090961Y0074610D02*
X0094108Y0074610D01*
X0094108Y0074218D02*
X0090961Y0074218D01*
X0090961Y0073826D02*
X0094108Y0073826D01*
X0094108Y0073434D02*
X0090961Y0073434D01*
X0090961Y0073042D02*
X0094108Y0073042D01*
X0094108Y0072649D02*
X0090961Y0072649D01*
X0090961Y0072257D02*
X0094108Y0072257D01*
X0094108Y0071865D02*
X0090961Y0071865D01*
X0090961Y0071473D02*
X0094108Y0071473D01*
X0094108Y0071080D02*
X0090961Y0071080D01*
X0090961Y0070688D02*
X0094108Y0070688D01*
X0094157Y0070296D02*
X0090961Y0070296D01*
X0090961Y0069904D02*
X0094504Y0069904D01*
X0094504Y0069512D02*
X0090961Y0069512D01*
X0090961Y0069119D02*
X0094504Y0069119D01*
X0094504Y0068727D02*
X0090961Y0068727D01*
X0090961Y0068335D02*
X0094504Y0068335D01*
X0094504Y0067943D02*
X0090961Y0067943D01*
X0090961Y0067551D02*
X0094504Y0067551D01*
X0094504Y0067158D02*
X0090961Y0067158D01*
X0090961Y0066766D02*
X0094504Y0066766D01*
X0094504Y0066374D02*
X0090961Y0066374D01*
X0090961Y0065982D02*
X0094504Y0065982D01*
X0094504Y0065589D02*
X0090961Y0065589D01*
X0090961Y0065197D02*
X0094504Y0065197D01*
X0094504Y0064805D02*
X0090961Y0064805D01*
X0090961Y0064413D02*
X0094504Y0064413D01*
X0094504Y0064021D02*
X0090961Y0064021D01*
X0090961Y0063628D02*
X0094504Y0063628D01*
X0094504Y0063236D02*
X0090961Y0063236D01*
X0090961Y0062844D02*
X0094504Y0062844D01*
X0094504Y0062452D02*
X0090961Y0062452D01*
X0090961Y0062060D02*
X0094504Y0062060D01*
X0094504Y0061667D02*
X0090961Y0061667D01*
X0090961Y0061275D02*
X0094504Y0061275D01*
X0094504Y0060883D02*
X0090961Y0060883D01*
X0090961Y0060491D02*
X0094504Y0060491D01*
X0094064Y0060099D02*
X0090961Y0060099D01*
X0091084Y0059706D02*
X0093672Y0059706D01*
X0093280Y0059314D02*
X0091476Y0059314D01*
X0091787Y0058922D02*
X0092969Y0058922D01*
X0092969Y0058530D02*
X0091787Y0058530D01*
X0091787Y0058137D02*
X0092969Y0058137D01*
X0092969Y0057745D02*
X0091787Y0057745D01*
X0091787Y0057353D02*
X0092969Y0057353D01*
X0092969Y0056961D02*
X0091787Y0056961D01*
X0091787Y0056569D02*
X0092969Y0056569D01*
X0092969Y0056176D02*
X0091787Y0056176D01*
X0091787Y0055784D02*
X0092969Y0055784D01*
X0092969Y0055392D02*
X0091787Y0055392D01*
X0091743Y0055000D02*
X0093013Y0055000D01*
X0093405Y0054608D02*
X0091351Y0054608D01*
X0090958Y0054215D02*
X0093798Y0054215D01*
X0094190Y0053823D02*
X0090818Y0053823D01*
X0091056Y0052254D02*
X0104184Y0052254D01*
X0103775Y0053431D02*
X0099026Y0053431D01*
X0100803Y0053823D02*
X0103382Y0053823D01*
X0102990Y0054215D02*
X0101195Y0054215D01*
X0101588Y0054608D02*
X0102811Y0054608D01*
X0102811Y0055000D02*
X0101980Y0055000D01*
X0102024Y0055392D02*
X0102811Y0055392D01*
X0102811Y0055784D02*
X0102024Y0055784D01*
X0102024Y0056176D02*
X0102811Y0056176D01*
X0102811Y0056569D02*
X0102024Y0056569D01*
X0102024Y0056961D02*
X0102811Y0056961D01*
X0102811Y0057353D02*
X0102024Y0057353D01*
X0102024Y0057745D02*
X0102811Y0057745D01*
X0102811Y0058137D02*
X0102024Y0058137D01*
X0102024Y0058530D02*
X0102811Y0058530D01*
X0102811Y0058922D02*
X0102024Y0058922D01*
X0101713Y0059314D02*
X0102811Y0059314D01*
X0103179Y0059706D02*
X0101321Y0059706D01*
X0100929Y0060099D02*
X0103572Y0060099D01*
X0101707Y0077356D02*
X0123545Y0077356D01*
X0124170Y0077748D02*
X0102044Y0077748D01*
X0102186Y0078140D02*
X0125117Y0078140D01*
X0126892Y0079709D02*
X0098832Y0079709D01*
X0098832Y0080100D02*
X0102194Y0080100D01*
X0102194Y0081636D01*
X0102113Y0081940D01*
X0101955Y0082213D01*
X0101732Y0082436D01*
X0101460Y0082593D01*
X0101155Y0082675D01*
X0098832Y0082675D01*
X0098832Y0080100D01*
X0098832Y0080101D02*
X0098439Y0080101D01*
X0098439Y0079709D02*
X0090961Y0079709D01*
X0090961Y0079317D02*
X0095076Y0079317D01*
X0095076Y0078925D02*
X0090961Y0078925D01*
X0090961Y0078532D02*
X0095076Y0078532D01*
X0095085Y0078140D02*
X0090961Y0078140D01*
X0090961Y0077748D02*
X0095226Y0077748D01*
X0095564Y0077356D02*
X0090961Y0077356D01*
X0090961Y0076964D02*
X0098423Y0076964D01*
X0098439Y0077356D02*
X0098832Y0077356D01*
X0098832Y0077748D02*
X0098439Y0077748D01*
X0098439Y0078140D02*
X0098832Y0078140D01*
X0098832Y0078532D02*
X0098439Y0078532D01*
X0098439Y0078925D02*
X0098832Y0078925D01*
X0098832Y0079317D02*
X0098439Y0079317D01*
X0098439Y0080494D02*
X0098832Y0080494D01*
X0098832Y0080886D02*
X0098439Y0080886D01*
X0098439Y0081278D02*
X0098832Y0081278D01*
X0098832Y0081670D02*
X0098439Y0081670D01*
X0098439Y0082062D02*
X0098832Y0082062D01*
X0098832Y0082455D02*
X0098439Y0082455D01*
X0095571Y0082455D02*
X0090961Y0082455D01*
X0090961Y0082062D02*
X0095229Y0082062D01*
X0095086Y0081670D02*
X0090961Y0081670D01*
X0090961Y0081278D02*
X0095076Y0081278D01*
X0095076Y0080886D02*
X0090961Y0080886D01*
X0090961Y0080494D02*
X0095076Y0080494D01*
X0095076Y0080101D02*
X0090961Y0080101D01*
X0101700Y0082455D02*
X0124146Y0082455D01*
X0124538Y0082062D02*
X0102042Y0082062D01*
X0102185Y0081670D02*
X0124931Y0081670D01*
X0125323Y0081278D02*
X0102194Y0081278D01*
X0102194Y0080886D02*
X0125715Y0080886D01*
X0126107Y0080494D02*
X0102194Y0080494D01*
X0102194Y0080101D02*
X0126500Y0080101D01*
X0127284Y0079317D02*
X0102194Y0079317D01*
X0102194Y0078925D02*
X0127676Y0078925D01*
X0128068Y0078532D02*
X0102194Y0078532D01*
X0082732Y0056569D02*
X0081384Y0056569D01*
X0081384Y0056176D02*
X0082732Y0056176D01*
X0082732Y0055784D02*
X0081384Y0055784D01*
X0081060Y0055392D02*
X0082732Y0055392D01*
X0082776Y0055000D02*
X0080668Y0055000D01*
X0080276Y0054608D02*
X0083168Y0054608D01*
X0083561Y0054215D02*
X0079884Y0054215D01*
X0079491Y0053823D02*
X0083700Y0053823D01*
X0075805Y0054229D02*
X0075401Y0053825D01*
X0074631Y0053825D01*
X0074227Y0054229D01*
X0075805Y0054229D01*
X0075791Y0054215D02*
X0074240Y0054215D01*
X0069380Y0051862D02*
X0069212Y0051862D01*
X0072585Y0044802D02*
X0054402Y0044802D01*
X0054402Y0044410D02*
X0072585Y0044410D01*
X0072585Y0044018D02*
X0054402Y0044018D01*
X0054402Y0043626D02*
X0072585Y0043626D01*
X0072585Y0043233D02*
X0054402Y0043233D01*
X0054402Y0042841D02*
X0072585Y0042841D01*
X0072585Y0042449D02*
X0055935Y0042449D01*
X0056779Y0042057D02*
X0072585Y0042057D01*
X0072585Y0041665D02*
X0057171Y0041665D01*
X0057563Y0041272D02*
X0072585Y0041272D01*
X0072585Y0040880D02*
X0057910Y0040880D01*
X0058072Y0040488D02*
X0072585Y0040488D01*
X0072585Y0040096D02*
X0058235Y0040096D01*
X0058397Y0039703D02*
X0072585Y0039703D01*
X0072585Y0039311D02*
X0058512Y0039311D01*
X0058512Y0038919D02*
X0072532Y0038919D01*
X0072582Y0038527D02*
X0058512Y0038527D01*
X0058512Y0038135D02*
X0072585Y0038135D01*
X0072773Y0037742D02*
X0058500Y0037742D01*
X0058338Y0037350D02*
X0072795Y0037350D01*
X0072795Y0036958D02*
X0058175Y0036958D01*
X0058013Y0036566D02*
X0072795Y0036566D01*
X0073150Y0036174D02*
X0060241Y0036174D01*
X0061362Y0034213D02*
X0069103Y0034213D01*
X0074551Y0034213D02*
X0076583Y0034213D01*
X0076191Y0033820D02*
X0074943Y0033820D01*
X0075335Y0033428D02*
X0075799Y0033428D01*
X0075567Y0033036D02*
X0075567Y0033036D01*
X0075567Y0032644D02*
X0075567Y0032644D01*
X0075567Y0032251D02*
X0075567Y0032251D01*
X0075567Y0031859D02*
X0075567Y0031859D01*
X0075567Y0031467D02*
X0075567Y0031467D01*
X0075567Y0031075D02*
X0075567Y0031075D01*
X0075567Y0030683D02*
X0075567Y0030683D01*
X0075567Y0030290D02*
X0075567Y0030290D01*
X0075567Y0029898D02*
X0075567Y0029898D01*
X0075567Y0029506D02*
X0075567Y0029506D01*
X0075567Y0029114D02*
X0075567Y0029114D01*
X0075567Y0028722D02*
X0075567Y0028722D01*
X0075567Y0028329D02*
X0075567Y0028329D01*
X0075567Y0027937D02*
X0075567Y0027937D01*
X0075253Y0027545D02*
X0075881Y0027545D01*
X0076273Y0027153D02*
X0074861Y0027153D01*
X0074468Y0026760D02*
X0076665Y0026760D01*
X0079839Y0026368D02*
X0061362Y0026368D01*
X0061362Y0026760D02*
X0069185Y0026760D01*
X0068793Y0027153D02*
X0061362Y0027153D01*
X0061362Y0027545D02*
X0068401Y0027545D01*
X0061178Y0025976D02*
X0080386Y0025976D01*
X0083124Y0025584D02*
X0060786Y0025584D01*
X0060394Y0025192D02*
X0083563Y0025192D01*
X0084510Y0024799D02*
X0036534Y0024799D01*
X0036098Y0025192D02*
X0051701Y0025192D01*
X0051309Y0025584D02*
X0035663Y0025584D01*
X0035227Y0025976D02*
X0041089Y0025976D01*
X0041205Y0025860D02*
X0048496Y0025860D01*
X0049197Y0026561D01*
X0049197Y0034651D01*
X0048496Y0035352D01*
X0045951Y0035352D01*
X0045951Y0041496D01*
X0046614Y0041496D01*
X0047315Y0042197D01*
X0047315Y0047913D01*
X0046614Y0048614D01*
X0042473Y0048614D01*
X0041772Y0047913D01*
X0041772Y0042197D01*
X0042473Y0041496D01*
X0043057Y0041496D01*
X0043057Y0035352D01*
X0041205Y0035352D01*
X0040504Y0034651D01*
X0040504Y0026561D01*
X0041205Y0025860D01*
X0040697Y0026368D02*
X0034792Y0026368D01*
X0034356Y0026760D02*
X0040504Y0026760D01*
X0040504Y0027153D02*
X0033920Y0027153D01*
X0033485Y0027545D02*
X0040504Y0027545D01*
X0040504Y0027937D02*
X0034219Y0027937D01*
X0035166Y0028329D02*
X0040504Y0028329D01*
X0040504Y0028722D02*
X0035748Y0028722D01*
X0036140Y0029114D02*
X0040504Y0029114D01*
X0040504Y0029506D02*
X0036533Y0029506D01*
X0036891Y0029898D02*
X0040504Y0029898D01*
X0040504Y0030290D02*
X0037054Y0030290D01*
X0037216Y0030683D02*
X0040504Y0030683D01*
X0040504Y0031075D02*
X0037379Y0031075D01*
X0037541Y0031467D02*
X0040504Y0031467D01*
X0040504Y0031859D02*
X0037613Y0031859D01*
X0037613Y0032251D02*
X0040504Y0032251D01*
X0040504Y0032644D02*
X0037613Y0032644D01*
X0037613Y0033036D02*
X0040504Y0033036D01*
X0040504Y0033428D02*
X0037613Y0033428D01*
X0037517Y0033820D02*
X0040504Y0033820D01*
X0040504Y0034213D02*
X0037355Y0034213D01*
X0037192Y0034605D02*
X0040504Y0034605D01*
X0040850Y0034997D02*
X0037030Y0034997D01*
X0036867Y0035389D02*
X0043057Y0035389D01*
X0043057Y0035781D02*
X0036475Y0035781D01*
X0036083Y0036174D02*
X0043057Y0036174D01*
X0043057Y0036566D02*
X0035690Y0036566D01*
X0035027Y0036958D02*
X0043057Y0036958D01*
X0043057Y0037350D02*
X0034080Y0037350D01*
X0033749Y0037742D02*
X0043057Y0037742D01*
X0043057Y0038135D02*
X0034696Y0038135D01*
X0035490Y0038463D02*
X0033690Y0037718D01*
X0031742Y0037718D01*
X0029942Y0038463D01*
X0028565Y0039841D01*
X0027819Y0041641D01*
X0027819Y0043589D01*
X0028565Y0045389D01*
X0029942Y0046766D01*
X0031742Y0047512D01*
X0033690Y0047512D01*
X0035490Y0046766D01*
X0036868Y0045389D01*
X0037613Y0043589D01*
X0037613Y0041641D01*
X0036868Y0039841D01*
X0035490Y0038463D01*
X0035553Y0038527D02*
X0043057Y0038527D01*
X0043057Y0038919D02*
X0035946Y0038919D01*
X0036338Y0039311D02*
X0043057Y0039311D01*
X0043057Y0039703D02*
X0036730Y0039703D01*
X0036973Y0040096D02*
X0043057Y0040096D01*
X0043057Y0040488D02*
X0037136Y0040488D01*
X0037298Y0040880D02*
X0043057Y0040880D01*
X0043057Y0041272D02*
X0037460Y0041272D01*
X0037613Y0041665D02*
X0042304Y0041665D01*
X0041912Y0042057D02*
X0037613Y0042057D01*
X0037613Y0042449D02*
X0041772Y0042449D01*
X0041772Y0042841D02*
X0037613Y0042841D01*
X0037613Y0043233D02*
X0041772Y0043233D01*
X0041772Y0043626D02*
X0037598Y0043626D01*
X0037435Y0044018D02*
X0041772Y0044018D01*
X0041772Y0044410D02*
X0037273Y0044410D01*
X0037110Y0044802D02*
X0041772Y0044802D01*
X0041772Y0045194D02*
X0036948Y0045194D01*
X0036670Y0045587D02*
X0041772Y0045587D01*
X0041772Y0045979D02*
X0036277Y0045979D01*
X0035885Y0046371D02*
X0041772Y0046371D01*
X0041772Y0046763D02*
X0035493Y0046763D01*
X0034550Y0047156D02*
X0041772Y0047156D01*
X0041772Y0047548D02*
X0017714Y0047548D01*
X0017539Y0047940D02*
X0031206Y0047940D01*
X0030882Y0047156D02*
X0017889Y0047156D01*
X0018103Y0046763D02*
X0029940Y0046763D01*
X0029547Y0046371D02*
X0018348Y0046371D01*
X0018593Y0045979D02*
X0029155Y0045979D01*
X0028763Y0045587D02*
X0018838Y0045587D01*
X0019083Y0045194D02*
X0028484Y0045194D01*
X0028322Y0044802D02*
X0019329Y0044802D01*
X0019574Y0044410D02*
X0028160Y0044410D01*
X0027997Y0044018D02*
X0019819Y0044018D01*
X0020064Y0043626D02*
X0027835Y0043626D01*
X0027819Y0043233D02*
X0020309Y0043233D01*
X0020554Y0042841D02*
X0027819Y0042841D01*
X0027819Y0042449D02*
X0020799Y0042449D01*
X0021044Y0042057D02*
X0027819Y0042057D01*
X0027819Y0041665D02*
X0021289Y0041665D01*
X0021534Y0041272D02*
X0027972Y0041272D01*
X0028134Y0040880D02*
X0021779Y0040880D01*
X0022024Y0040488D02*
X0028297Y0040488D01*
X0028459Y0040096D02*
X0022270Y0040096D01*
X0022515Y0039703D02*
X0028702Y0039703D01*
X0029095Y0039311D02*
X0022760Y0039311D01*
X0023005Y0038919D02*
X0029487Y0038919D01*
X0029879Y0038527D02*
X0023283Y0038527D01*
X0023612Y0038135D02*
X0030736Y0038135D01*
X0031352Y0037350D02*
X0024270Y0037350D01*
X0024599Y0036958D02*
X0030406Y0036958D01*
X0029742Y0036566D02*
X0024928Y0036566D01*
X0025258Y0036174D02*
X0029350Y0036174D01*
X0028958Y0035781D02*
X0025587Y0035781D01*
X0025916Y0035389D02*
X0028565Y0035389D01*
X0028403Y0034997D02*
X0026245Y0034997D01*
X0026574Y0034605D02*
X0028240Y0034605D01*
X0028078Y0034213D02*
X0026903Y0034213D01*
X0027232Y0033820D02*
X0027915Y0033820D01*
X0027819Y0033428D02*
X0027561Y0033428D01*
X0023941Y0037742D02*
X0031683Y0037742D01*
X0034226Y0047940D02*
X0041799Y0047940D01*
X0042191Y0048332D02*
X0035173Y0048332D01*
X0030259Y0048332D02*
X0017365Y0048332D01*
X0017190Y0048724D02*
X0029682Y0048724D01*
X0029289Y0049117D02*
X0017015Y0049117D01*
X0016841Y0049509D02*
X0028897Y0049509D01*
X0028540Y0049901D02*
X0016666Y0049901D01*
X0016492Y0050293D02*
X0028378Y0050293D01*
X0028215Y0050685D02*
X0016317Y0050685D01*
X0016142Y0051078D02*
X0028053Y0051078D01*
X0027890Y0051470D02*
X0015968Y0051470D01*
X0015793Y0051862D02*
X0027819Y0051862D01*
X0027819Y0052254D02*
X0015618Y0052254D01*
X0015444Y0052646D02*
X0027819Y0052646D01*
X0027819Y0053039D02*
X0015269Y0053039D01*
X0015095Y0053431D02*
X0027819Y0053431D01*
X0027916Y0053823D02*
X0014920Y0053823D01*
X0014745Y0054215D02*
X0028079Y0054215D01*
X0028241Y0054608D02*
X0014571Y0054608D01*
X0014396Y0055000D02*
X0028404Y0055000D01*
X0028568Y0055392D02*
X0014221Y0055392D01*
X0014047Y0055784D02*
X0028960Y0055784D01*
X0029353Y0056176D02*
X0013911Y0056176D01*
X0013799Y0056569D02*
X0029745Y0056569D01*
X0030412Y0056961D02*
X0013686Y0056961D01*
X0013574Y0057353D02*
X0031359Y0057353D01*
X0031676Y0057745D02*
X0013461Y0057745D01*
X0013349Y0058137D02*
X0030729Y0058137D01*
X0029876Y0058530D02*
X0013236Y0058530D01*
X0013124Y0058922D02*
X0029484Y0058922D01*
X0029092Y0059314D02*
X0013011Y0059314D01*
X0012899Y0059706D02*
X0028700Y0059706D01*
X0028458Y0060099D02*
X0012786Y0060099D01*
X0012674Y0060491D02*
X0028296Y0060491D01*
X0028133Y0060883D02*
X0012562Y0060883D01*
X0012449Y0061275D02*
X0027971Y0061275D01*
X0027819Y0061667D02*
X0012337Y0061667D01*
X0012224Y0062060D02*
X0027819Y0062060D01*
X0027819Y0062452D02*
X0012112Y0062452D01*
X0011999Y0062844D02*
X0027819Y0062844D01*
X0027819Y0063236D02*
X0011887Y0063236D01*
X0011774Y0063628D02*
X0027836Y0063628D01*
X0027998Y0064021D02*
X0011662Y0064021D01*
X0011549Y0064413D02*
X0028161Y0064413D01*
X0028323Y0064805D02*
X0011437Y0064805D01*
X0011324Y0065197D02*
X0028486Y0065197D01*
X0028565Y0065389D02*
X0029942Y0066766D01*
X0046265Y0069904D02*
X0048759Y0069904D01*
X0048367Y0070296D02*
X0046658Y0070296D01*
X0046843Y0070688D02*
X0048209Y0070688D01*
X0048209Y0071080D02*
X0046843Y0071080D01*
X0046843Y0071473D02*
X0048209Y0071473D01*
X0048209Y0071865D02*
X0046843Y0071865D01*
X0046843Y0072257D02*
X0048209Y0072257D01*
X0067339Y0091083D02*
X0149150Y0091083D01*
X0149233Y0090691D02*
X0075309Y0090691D01*
X0075998Y0090299D02*
X0149316Y0090299D01*
X0149400Y0089907D02*
X0076390Y0089907D01*
X0076782Y0089514D02*
X0149456Y0089514D01*
X0149066Y0091475D02*
X0066947Y0091475D01*
X0066555Y0091868D02*
X0148983Y0091868D01*
X0148899Y0092260D02*
X0066163Y0092260D01*
X0065771Y0092652D02*
X0148816Y0092652D01*
X0148733Y0093044D02*
X0065378Y0093044D01*
X0041354Y0117361D02*
X0020759Y0117361D01*
X0021004Y0117754D02*
X0041354Y0117754D01*
X0041354Y0118146D02*
X0021249Y0118146D01*
X0021495Y0118538D02*
X0041354Y0118538D01*
X0041354Y0118930D02*
X0021740Y0118930D01*
X0021985Y0119323D02*
X0041354Y0119323D01*
X0041354Y0119715D02*
X0022230Y0119715D01*
X0022475Y0120107D02*
X0041354Y0120107D01*
X0041354Y0120499D02*
X0022720Y0120499D01*
X0022965Y0120891D02*
X0041084Y0120891D01*
X0040303Y0121284D02*
X0034393Y0121284D01*
X0033940Y0121284D02*
X0033546Y0121284D01*
X0033546Y0121676D02*
X0033940Y0121676D01*
X0033940Y0122068D02*
X0033546Y0122068D01*
X0033546Y0122460D02*
X0033940Y0122460D01*
X0033940Y0122852D02*
X0033546Y0122852D01*
X0033546Y0123245D02*
X0033940Y0123245D01*
X0033940Y0123637D02*
X0033546Y0123637D01*
X0033546Y0124029D02*
X0033940Y0124029D01*
X0033940Y0124421D02*
X0033546Y0124421D01*
X0033546Y0124814D02*
X0033940Y0124814D01*
X0033940Y0125206D02*
X0033546Y0125206D01*
X0033546Y0125598D02*
X0033940Y0125598D01*
X0033546Y0125990D02*
X0027179Y0125990D01*
X0026850Y0125598D02*
X0028871Y0125598D01*
X0028933Y0125206D02*
X0026521Y0125206D01*
X0026192Y0124814D02*
X0029025Y0124814D01*
X0029152Y0124421D02*
X0025862Y0124421D01*
X0025533Y0124029D02*
X0029322Y0124029D01*
X0029522Y0123637D02*
X0025204Y0123637D01*
X0024875Y0123245D02*
X0029793Y0123245D01*
X0030104Y0122852D02*
X0024546Y0122852D01*
X0024217Y0122460D02*
X0030496Y0122460D01*
X0031015Y0122068D02*
X0023888Y0122068D01*
X0023559Y0121676D02*
X0031716Y0121676D01*
X0033093Y0121284D02*
X0023230Y0121284D01*
X0027508Y0126382D02*
X0028846Y0126382D01*
X0028886Y0126775D02*
X0027837Y0126775D01*
X0028166Y0127167D02*
X0028948Y0127167D01*
X0029056Y0127559D02*
X0028495Y0127559D01*
X0028824Y0127951D02*
X0029183Y0127951D01*
X0029153Y0128343D02*
X0029371Y0128343D01*
X0029494Y0128736D02*
X0029577Y0128736D01*
X0031371Y0130426D02*
X0036725Y0135246D01*
X0044843Y0140722D01*
X0050156Y0143314D01*
X0050051Y0143156D01*
X0047509Y0137018D01*
X0046389Y0131391D01*
X0044910Y0132004D01*
X0042576Y0132004D01*
X0040421Y0131111D01*
X0038771Y0129461D01*
X0038222Y0128135D01*
X0037931Y0128705D01*
X0037478Y0129329D01*
X0036933Y0129874D01*
X0036310Y0130327D01*
X0035623Y0130677D01*
X0034890Y0130915D01*
X0034129Y0131035D01*
X0033940Y0131035D01*
X0033940Y0126335D01*
X0033546Y0126335D01*
X0033546Y0131035D01*
X0033358Y0131035D01*
X0032596Y0130915D01*
X0031863Y0130677D01*
X0031371Y0130426D01*
X0031672Y0130697D02*
X0031925Y0130697D01*
X0032107Y0131089D02*
X0040399Y0131089D01*
X0040006Y0130697D02*
X0035561Y0130697D01*
X0036340Y0130304D02*
X0039614Y0130304D01*
X0039222Y0129912D02*
X0036880Y0129912D01*
X0037287Y0129520D02*
X0038830Y0129520D01*
X0038633Y0129128D02*
X0037624Y0129128D01*
X0037909Y0128736D02*
X0038470Y0128736D01*
X0038308Y0128343D02*
X0038116Y0128343D01*
X0033940Y0128343D02*
X0033546Y0128343D01*
X0033546Y0127951D02*
X0033940Y0127951D01*
X0033940Y0127559D02*
X0033546Y0127559D01*
X0033546Y0127167D02*
X0033940Y0127167D01*
X0033940Y0126775D02*
X0033546Y0126775D01*
X0033546Y0126382D02*
X0033940Y0126382D01*
X0033940Y0128736D02*
X0033546Y0128736D01*
X0033546Y0129128D02*
X0033940Y0129128D01*
X0033940Y0129520D02*
X0033546Y0129520D01*
X0033546Y0129912D02*
X0033940Y0129912D01*
X0033940Y0130304D02*
X0033546Y0130304D01*
X0033546Y0130697D02*
X0033940Y0130697D01*
X0032979Y0131873D02*
X0042261Y0131873D01*
X0041314Y0131481D02*
X0032543Y0131481D01*
X0033414Y0132266D02*
X0046563Y0132266D01*
X0046641Y0132658D02*
X0033850Y0132658D01*
X0034285Y0133050D02*
X0046719Y0133050D01*
X0046797Y0133442D02*
X0034721Y0133442D01*
X0035157Y0133834D02*
X0046875Y0133834D01*
X0046953Y0134227D02*
X0035592Y0134227D01*
X0036028Y0134619D02*
X0047031Y0134619D01*
X0047109Y0135011D02*
X0036463Y0135011D01*
X0036957Y0135403D02*
X0047187Y0135403D01*
X0047265Y0135795D02*
X0037539Y0135795D01*
X0038120Y0136188D02*
X0047343Y0136188D01*
X0047421Y0136580D02*
X0038702Y0136580D01*
X0039283Y0136972D02*
X0047499Y0136972D01*
X0047652Y0137364D02*
X0039865Y0137364D01*
X0040446Y0137757D02*
X0047814Y0137757D01*
X0047977Y0138149D02*
X0041028Y0138149D01*
X0041609Y0138541D02*
X0048139Y0138541D01*
X0048302Y0138933D02*
X0042191Y0138933D01*
X0042772Y0139325D02*
X0048464Y0139325D01*
X0048627Y0139718D02*
X0043354Y0139718D01*
X0043935Y0140110D02*
X0048789Y0140110D01*
X0048952Y0140502D02*
X0044517Y0140502D01*
X0045196Y0140894D02*
X0049114Y0140894D01*
X0049277Y0141286D02*
X0046000Y0141286D01*
X0046804Y0141679D02*
X0049439Y0141679D01*
X0049602Y0142071D02*
X0047608Y0142071D01*
X0048412Y0142463D02*
X0049764Y0142463D01*
X0049926Y0142855D02*
X0049217Y0142855D01*
X0050021Y0143247D02*
X0050112Y0143247D01*
X0043695Y0149915D02*
X0001197Y0149915D01*
X0001197Y0149523D02*
X0042891Y0149523D01*
X0042086Y0149131D02*
X0001197Y0149131D01*
X0001197Y0148738D02*
X0041282Y0148738D01*
X0040478Y0148346D02*
X0001197Y0148346D01*
X0001197Y0147954D02*
X0039889Y0147954D01*
X0040449Y0148332D02*
X0031315Y0142171D01*
X0023127Y0134798D01*
X0016044Y0126358D01*
X0010205Y0117014D01*
X0005724Y0106948D01*
X0002687Y0096357D01*
X0001197Y0085754D01*
X0001197Y0158677D01*
X0067849Y0158677D01*
X0064180Y0157158D01*
X0060831Y0156567D01*
X0050352Y0153162D01*
X0040449Y0148332D01*
X0040449Y0148332D01*
X0039307Y0147562D02*
X0001197Y0147562D01*
X0001197Y0147170D02*
X0038726Y0147170D01*
X0038144Y0146777D02*
X0001197Y0146777D01*
X0001197Y0146385D02*
X0037563Y0146385D01*
X0036981Y0145993D02*
X0001197Y0145993D01*
X0001197Y0145601D02*
X0036400Y0145601D01*
X0035818Y0145209D02*
X0001197Y0145209D01*
X0001197Y0144816D02*
X0035237Y0144816D01*
X0034655Y0144424D02*
X0001197Y0144424D01*
X0001197Y0144032D02*
X0034074Y0144032D01*
X0033492Y0143640D02*
X0001197Y0143640D01*
X0001197Y0143247D02*
X0032911Y0143247D01*
X0032329Y0142855D02*
X0001197Y0142855D01*
X0001197Y0142463D02*
X0031748Y0142463D01*
X0031315Y0142171D02*
X0031315Y0142171D01*
X0031204Y0142071D02*
X0001197Y0142071D01*
X0001197Y0141679D02*
X0030768Y0141679D01*
X0030332Y0141286D02*
X0001197Y0141286D01*
X0001197Y0140894D02*
X0029897Y0140894D01*
X0029461Y0140502D02*
X0001197Y0140502D01*
X0001197Y0140110D02*
X0029026Y0140110D01*
X0028590Y0139718D02*
X0001197Y0139718D01*
X0001197Y0139325D02*
X0028154Y0139325D01*
X0027719Y0138933D02*
X0001197Y0138933D01*
X0001197Y0138541D02*
X0027283Y0138541D01*
X0026848Y0138149D02*
X0001197Y0138149D01*
X0001197Y0137757D02*
X0026412Y0137757D01*
X0025976Y0137364D02*
X0001197Y0137364D01*
X0001197Y0136972D02*
X0025541Y0136972D01*
X0025105Y0136580D02*
X0001197Y0136580D01*
X0001197Y0136188D02*
X0024670Y0136188D01*
X0024234Y0135795D02*
X0001197Y0135795D01*
X0001197Y0135403D02*
X0023798Y0135403D01*
X0023363Y0135011D02*
X0001197Y0135011D01*
X0001197Y0134619D02*
X0022976Y0134619D01*
X0023127Y0134798D02*
X0023127Y0134798D01*
X0022647Y0134227D02*
X0001197Y0134227D01*
X0001197Y0133834D02*
X0022318Y0133834D01*
X0021989Y0133442D02*
X0001197Y0133442D01*
X0001197Y0133050D02*
X0021660Y0133050D01*
X0021330Y0132658D02*
X0001197Y0132658D01*
X0001197Y0132266D02*
X0021001Y0132266D01*
X0020672Y0131873D02*
X0001197Y0131873D01*
X0001197Y0131481D02*
X0020343Y0131481D01*
X0020014Y0131089D02*
X0001197Y0131089D01*
X0001197Y0130697D02*
X0019685Y0130697D01*
X0019356Y0130304D02*
X0001197Y0130304D01*
X0001197Y0129912D02*
X0019027Y0129912D01*
X0018698Y0129520D02*
X0001197Y0129520D01*
X0001197Y0129128D02*
X0018369Y0129128D01*
X0018039Y0128736D02*
X0001197Y0128736D01*
X0001197Y0128343D02*
X0017710Y0128343D01*
X0017381Y0127951D02*
X0001197Y0127951D01*
X0001197Y0127559D02*
X0017052Y0127559D01*
X0016723Y0127167D02*
X0001197Y0127167D01*
X0001197Y0126775D02*
X0016394Y0126775D01*
X0016065Y0126382D02*
X0001197Y0126382D01*
X0001197Y0125990D02*
X0015814Y0125990D01*
X0016044Y0126358D02*
X0016044Y0126358D01*
X0015569Y0125598D02*
X0001197Y0125598D01*
X0001197Y0125206D02*
X0015324Y0125206D01*
X0015079Y0124814D02*
X0001197Y0124814D01*
X0001197Y0124421D02*
X0014834Y0124421D01*
X0014589Y0124029D02*
X0001197Y0124029D01*
X0001197Y0123637D02*
X0014344Y0123637D01*
X0014099Y0123245D02*
X0001197Y0123245D01*
X0001197Y0122852D02*
X0013854Y0122852D01*
X0013609Y0122460D02*
X0001197Y0122460D01*
X0001197Y0122068D02*
X0013364Y0122068D01*
X0013119Y0121676D02*
X0001197Y0121676D01*
X0001197Y0121284D02*
X0012873Y0121284D01*
X0012628Y0120891D02*
X0001197Y0120891D01*
X0001197Y0120499D02*
X0012383Y0120499D01*
X0012138Y0120107D02*
X0001197Y0120107D01*
X0001197Y0119715D02*
X0011893Y0119715D01*
X0011648Y0119323D02*
X0001197Y0119323D01*
X0001197Y0118930D02*
X0011403Y0118930D01*
X0011158Y0118538D02*
X0001197Y0118538D01*
X0001197Y0118146D02*
X0010913Y0118146D01*
X0010668Y0117754D02*
X0001197Y0117754D01*
X0001197Y0117361D02*
X0010423Y0117361D01*
X0010205Y0117014D02*
X0010205Y0117014D01*
X0010186Y0116969D02*
X0001197Y0116969D01*
X0001197Y0116577D02*
X0010011Y0116577D01*
X0009836Y0116185D02*
X0001197Y0116185D01*
X0001197Y0115793D02*
X0009662Y0115793D01*
X0009487Y0115400D02*
X0001197Y0115400D01*
X0001197Y0115008D02*
X0009312Y0115008D01*
X0009138Y0114616D02*
X0001197Y0114616D01*
X0001197Y0114224D02*
X0008963Y0114224D01*
X0008789Y0113832D02*
X0001197Y0113832D01*
X0001197Y0113439D02*
X0008614Y0113439D01*
X0008439Y0113047D02*
X0001197Y0113047D01*
X0001197Y0112655D02*
X0008265Y0112655D01*
X0008090Y0112263D02*
X0001197Y0112263D01*
X0001197Y0111871D02*
X0007915Y0111871D01*
X0007741Y0111478D02*
X0001197Y0111478D01*
X0001197Y0111086D02*
X0007566Y0111086D01*
X0007392Y0110694D02*
X0001197Y0110694D01*
X0001197Y0110302D02*
X0007217Y0110302D01*
X0007042Y0109909D02*
X0001197Y0109909D01*
X0001197Y0109517D02*
X0006868Y0109517D01*
X0006693Y0109125D02*
X0001197Y0109125D01*
X0001197Y0108733D02*
X0006518Y0108733D01*
X0006344Y0108341D02*
X0001197Y0108341D01*
X0001197Y0107948D02*
X0006169Y0107948D01*
X0005995Y0107556D02*
X0001197Y0107556D01*
X0001197Y0107164D02*
X0005820Y0107164D01*
X0005724Y0106948D02*
X0005724Y0106948D01*
X0005673Y0106772D02*
X0001197Y0106772D01*
X0001197Y0106380D02*
X0005561Y0106380D01*
X0005448Y0105987D02*
X0001197Y0105987D01*
X0001197Y0105595D02*
X0005336Y0105595D01*
X0005223Y0105203D02*
X0001197Y0105203D01*
X0001197Y0104811D02*
X0005111Y0104811D01*
X0004999Y0104418D02*
X0001197Y0104418D01*
X0001197Y0104026D02*
X0004886Y0104026D01*
X0004774Y0103634D02*
X0001197Y0103634D01*
X0001197Y0103242D02*
X0004661Y0103242D01*
X0004549Y0102850D02*
X0001197Y0102850D01*
X0001197Y0102457D02*
X0004436Y0102457D01*
X0004324Y0102065D02*
X0001197Y0102065D01*
X0001197Y0101673D02*
X0004211Y0101673D01*
X0004099Y0101281D02*
X0001197Y0101281D01*
X0001197Y0100889D02*
X0003986Y0100889D01*
X0003874Y0100496D02*
X0001197Y0100496D01*
X0001197Y0100104D02*
X0003761Y0100104D01*
X0003649Y0099712D02*
X0001197Y0099712D01*
X0001197Y0099320D02*
X0003537Y0099320D01*
X0003424Y0098928D02*
X0001197Y0098928D01*
X0001197Y0098535D02*
X0003312Y0098535D01*
X0003199Y0098143D02*
X0001197Y0098143D01*
X0001197Y0097751D02*
X0003087Y0097751D01*
X0002974Y0097359D02*
X0001197Y0097359D01*
X0001197Y0096966D02*
X0002862Y0096966D01*
X0002749Y0096574D02*
X0001197Y0096574D01*
X0001197Y0096182D02*
X0002662Y0096182D01*
X0002687Y0096357D02*
X0002687Y0096357D01*
X0002607Y0095790D02*
X0001197Y0095790D01*
X0001197Y0095398D02*
X0002552Y0095398D01*
X0002497Y0095005D02*
X0001197Y0095005D01*
X0001197Y0094613D02*
X0002442Y0094613D01*
X0002387Y0094221D02*
X0001197Y0094221D01*
X0001197Y0093829D02*
X0002332Y0093829D01*
X0002277Y0093437D02*
X0001197Y0093437D01*
X0001197Y0093044D02*
X0002221Y0093044D01*
X0002166Y0092652D02*
X0001197Y0092652D01*
X0001197Y0092260D02*
X0002111Y0092260D01*
X0002056Y0091868D02*
X0001197Y0091868D01*
X0001197Y0091475D02*
X0002001Y0091475D01*
X0001946Y0091083D02*
X0001197Y0091083D01*
X0001197Y0090691D02*
X0001891Y0090691D01*
X0001836Y0090299D02*
X0001197Y0090299D01*
X0001197Y0089907D02*
X0001780Y0089907D01*
X0001725Y0089514D02*
X0001197Y0089514D01*
X0001197Y0089122D02*
X0001670Y0089122D01*
X0001615Y0088730D02*
X0001197Y0088730D01*
X0001197Y0088338D02*
X0001560Y0088338D01*
X0001505Y0087946D02*
X0001197Y0087946D01*
X0001197Y0087553D02*
X0001450Y0087553D01*
X0001395Y0087161D02*
X0001197Y0087161D01*
X0001197Y0086769D02*
X0001339Y0086769D01*
X0001284Y0086377D02*
X0001197Y0086377D01*
X0001197Y0085985D02*
X0001229Y0085985D01*
X0035771Y0121676D02*
X0039911Y0121676D01*
X0039519Y0122068D02*
X0036472Y0122068D01*
X0036990Y0122460D02*
X0039127Y0122460D01*
X0038756Y0122852D02*
X0037382Y0122852D01*
X0037693Y0123245D02*
X0038593Y0123245D01*
X0038431Y0123637D02*
X0037964Y0123637D01*
X0038164Y0124029D02*
X0038268Y0124029D01*
X0045225Y0131873D02*
X0046485Y0131873D01*
X0046407Y0131481D02*
X0046172Y0131481D01*
X0044499Y0150307D02*
X0001197Y0150307D01*
X0001197Y0150700D02*
X0045303Y0150700D01*
X0046107Y0151092D02*
X0001197Y0151092D01*
X0001197Y0151484D02*
X0046911Y0151484D01*
X0047715Y0151876D02*
X0001197Y0151876D01*
X0001197Y0152268D02*
X0048520Y0152268D01*
X0049324Y0152661D02*
X0001197Y0152661D01*
X0001197Y0153053D02*
X0050128Y0153053D01*
X0050352Y0153162D02*
X0050352Y0153162D01*
X0051223Y0153445D02*
X0001197Y0153445D01*
X0001197Y0153837D02*
X0052430Y0153837D01*
X0053637Y0154229D02*
X0001197Y0154229D01*
X0001197Y0154622D02*
X0054844Y0154622D01*
X0056051Y0155014D02*
X0001197Y0155014D01*
X0001197Y0155406D02*
X0057258Y0155406D01*
X0058465Y0155798D02*
X0001197Y0155798D01*
X0001197Y0156190D02*
X0059672Y0156190D01*
X0060831Y0156567D02*
X0060831Y0156567D01*
X0060920Y0156583D02*
X0001197Y0156583D01*
X0001197Y0156975D02*
X0063145Y0156975D01*
X0064686Y0157367D02*
X0001197Y0157367D01*
X0001197Y0157759D02*
X0065633Y0157759D01*
X0066580Y0158152D02*
X0001197Y0158152D01*
X0001197Y0158544D02*
X0067527Y0158544D01*
X0113467Y0131481D02*
X0115885Y0131481D01*
X0114938Y0131089D02*
X0113545Y0131089D01*
X0113623Y0130697D02*
X0114075Y0130697D01*
X0113683Y0130304D02*
X0113661Y0130304D01*
X0127260Y0130304D02*
X0127654Y0130304D01*
X0127654Y0129912D02*
X0127260Y0129912D01*
X0127260Y0129520D02*
X0127654Y0129520D01*
X0127654Y0129128D02*
X0127260Y0129128D01*
X0127260Y0128736D02*
X0127654Y0128736D01*
X0127654Y0128343D02*
X0127260Y0128343D01*
X0127260Y0125206D02*
X0127654Y0125206D01*
X0127654Y0124814D02*
X0127260Y0124814D01*
X0127260Y0124421D02*
X0127654Y0124421D01*
X0127654Y0124029D02*
X0127260Y0124029D01*
X0127260Y0123637D02*
X0127654Y0123637D01*
X0127654Y0123245D02*
X0127260Y0123245D01*
X0127260Y0122852D02*
X0127654Y0122852D01*
X0127654Y0122460D02*
X0127260Y0122460D01*
X0127260Y0122068D02*
X0127654Y0122068D01*
X0127654Y0121676D02*
X0127260Y0121676D01*
X0127260Y0121284D02*
X0127654Y0121284D01*
X0131906Y0069127D02*
X0131906Y0066095D01*
X0130417Y0067583D01*
X0130351Y0067611D01*
X0130417Y0067639D01*
X0131906Y0069127D01*
X0131906Y0069119D02*
X0131898Y0069119D01*
X0131906Y0068727D02*
X0131506Y0068727D01*
X0131114Y0068335D02*
X0131906Y0068335D01*
X0131906Y0067943D02*
X0130722Y0067943D01*
X0130450Y0067551D02*
X0131906Y0067551D01*
X0131906Y0067158D02*
X0130843Y0067158D01*
X0131235Y0066766D02*
X0131906Y0066766D01*
X0131906Y0066374D02*
X0131627Y0066374D01*
X0131906Y0059127D02*
X0130417Y0057639D01*
X0130351Y0057611D01*
X0130417Y0057583D01*
X0131143Y0056857D01*
X0131906Y0057620D01*
X0131906Y0059127D01*
X0131906Y0058922D02*
X0131701Y0058922D01*
X0131906Y0058530D02*
X0131308Y0058530D01*
X0130916Y0058137D02*
X0131906Y0058137D01*
X0131906Y0057745D02*
X0130524Y0057745D01*
X0130648Y0057353D02*
X0131639Y0057353D01*
X0131247Y0056961D02*
X0131040Y0056961D01*
X0127292Y0037350D02*
X0126898Y0037350D01*
X0126898Y0036958D02*
X0127292Y0036958D01*
X0127292Y0036566D02*
X0126898Y0036566D01*
X0126898Y0036174D02*
X0127292Y0036174D01*
X0127292Y0035781D02*
X0126898Y0035781D01*
X0126898Y0035389D02*
X0127292Y0035389D01*
X0127292Y0034997D02*
X0126898Y0034997D01*
X0126898Y0034605D02*
X0127292Y0034605D01*
X0127292Y0034213D02*
X0126898Y0034213D01*
X0126898Y0033820D02*
X0127292Y0033820D01*
X0124840Y0036958D02*
X0078339Y0036958D01*
X0078339Y0036566D02*
X0124207Y0036566D01*
X0123732Y0036174D02*
X0077984Y0036174D01*
X0078339Y0040096D02*
X0088503Y0040096D01*
X0088503Y0032644D02*
X0087341Y0032644D01*
X0088238Y0032251D02*
X0088503Y0032251D01*
X0089878Y0029898D02*
X0123013Y0029898D01*
X0123298Y0029506D02*
X0090008Y0029506D01*
X0090008Y0029114D02*
X0123667Y0029114D01*
X0124117Y0028722D02*
X0090008Y0028722D01*
X0090008Y0028329D02*
X0124712Y0028329D01*
X0125633Y0027937D02*
X0090008Y0027937D01*
X0089849Y0027545D02*
X0126605Y0027545D01*
X0126103Y0027153D02*
X0089687Y0027153D01*
X0089525Y0026760D02*
X0125601Y0026760D01*
X0125099Y0026368D02*
X0089346Y0026368D01*
X0088953Y0025976D02*
X0124597Y0025976D01*
X0124095Y0025584D02*
X0088561Y0025584D01*
X0088122Y0025192D02*
X0123593Y0025192D01*
X0123091Y0024799D02*
X0087175Y0024799D01*
X0094730Y0011464D02*
X0065051Y0011464D01*
X0062886Y0011856D02*
X0096303Y0011856D01*
X0097876Y0012249D02*
X0061679Y0012249D01*
X0060472Y0012641D02*
X0099449Y0012641D01*
X0101022Y0013033D02*
X0059265Y0013033D01*
X0058058Y0013425D02*
X0102224Y0013425D01*
X0103195Y0013817D02*
X0056851Y0013817D01*
X0055643Y0014210D02*
X0104166Y0014210D01*
X0105136Y0014602D02*
X0054436Y0014602D01*
X0053368Y0014994D02*
X0106107Y0014994D01*
X0107078Y0015386D02*
X0052564Y0015386D01*
X0051759Y0015779D02*
X0108049Y0015779D01*
X0109019Y0016171D02*
X0050955Y0016171D01*
X0050151Y0016563D02*
X0109990Y0016563D01*
X0110884Y0016955D02*
X0049347Y0016955D01*
X0048543Y0017347D02*
X0111564Y0017347D01*
X0112243Y0017740D02*
X0047739Y0017740D01*
X0046934Y0018132D02*
X0112922Y0018132D01*
X0113602Y0018524D02*
X0046130Y0018524D01*
X0045326Y0018916D02*
X0114281Y0018916D01*
X0114960Y0019308D02*
X0044611Y0019308D01*
X0044029Y0019701D02*
X0115640Y0019701D01*
X0116319Y0020093D02*
X0043448Y0020093D01*
X0042866Y0020485D02*
X0116998Y0020485D01*
X0117678Y0020877D02*
X0042285Y0020877D01*
X0041703Y0021270D02*
X0118357Y0021270D01*
X0119036Y0021662D02*
X0041122Y0021662D01*
X0040540Y0022054D02*
X0119577Y0022054D01*
X0120079Y0022446D02*
X0039959Y0022446D01*
X0039378Y0022838D02*
X0120581Y0022838D01*
X0121083Y0023231D02*
X0038796Y0023231D01*
X0038215Y0023623D02*
X0121585Y0023623D01*
X0122087Y0024015D02*
X0037633Y0024015D01*
X0037052Y0024407D02*
X0122589Y0024407D01*
X0093156Y0011072D02*
X0067275Y0011072D01*
X0069499Y0010680D02*
X0090840Y0010680D01*
X0087108Y0010288D02*
X0071724Y0010288D01*
X0079406Y0009895D02*
X0083377Y0009895D01*
X0051197Y0035781D02*
X0045951Y0035781D01*
X0045951Y0035389D02*
X0051069Y0035389D01*
X0050732Y0034997D02*
X0048851Y0034997D01*
X0049197Y0034605D02*
X0050732Y0034605D01*
X0050732Y0034213D02*
X0049197Y0034213D01*
X0049197Y0033820D02*
X0050732Y0033820D01*
X0050732Y0033428D02*
X0049197Y0033428D01*
X0049197Y0033036D02*
X0050732Y0033036D01*
X0050732Y0032644D02*
X0049197Y0032644D01*
X0049197Y0032251D02*
X0050732Y0032251D01*
X0050732Y0031859D02*
X0049197Y0031859D01*
X0049197Y0031467D02*
X0050732Y0031467D01*
X0050732Y0031075D02*
X0049197Y0031075D01*
X0049197Y0030683D02*
X0050732Y0030683D01*
X0050732Y0030290D02*
X0049197Y0030290D01*
X0049197Y0029898D02*
X0050732Y0029898D01*
X0050732Y0029506D02*
X0049197Y0029506D01*
X0049197Y0029114D02*
X0050732Y0029114D01*
X0050732Y0028722D02*
X0049197Y0028722D01*
X0049197Y0028329D02*
X0050732Y0028329D01*
X0050732Y0027937D02*
X0049197Y0027937D01*
X0049197Y0027545D02*
X0050732Y0027545D01*
X0050732Y0027153D02*
X0049197Y0027153D01*
X0049197Y0026760D02*
X0050732Y0026760D01*
X0050732Y0026368D02*
X0049004Y0026368D01*
X0048612Y0025976D02*
X0050916Y0025976D01*
X0050881Y0036174D02*
X0045951Y0036174D01*
X0045951Y0036566D02*
X0050680Y0036566D01*
X0050517Y0036958D02*
X0045951Y0036958D01*
X0045951Y0037350D02*
X0050355Y0037350D01*
X0050192Y0037742D02*
X0045951Y0037742D01*
X0045951Y0038135D02*
X0050181Y0038135D01*
X0050181Y0038527D02*
X0045951Y0038527D01*
X0045951Y0038919D02*
X0050181Y0038919D01*
X0050181Y0039311D02*
X0045951Y0039311D01*
X0045951Y0039703D02*
X0050296Y0039703D01*
X0050458Y0040096D02*
X0045951Y0040096D01*
X0045951Y0040488D02*
X0050621Y0040488D01*
X0050783Y0040880D02*
X0045951Y0040880D01*
X0045951Y0041272D02*
X0051130Y0041272D01*
X0049391Y0041665D02*
X0046782Y0041665D01*
X0047175Y0042057D02*
X0048999Y0042057D01*
X0048858Y0042449D02*
X0047315Y0042449D01*
X0047315Y0042841D02*
X0048858Y0042841D01*
X0048858Y0043233D02*
X0047315Y0043233D01*
X0047315Y0043626D02*
X0048858Y0043626D01*
X0048858Y0044018D02*
X0047315Y0044018D01*
X0047315Y0044410D02*
X0048858Y0044410D01*
X0048858Y0044802D02*
X0047315Y0044802D01*
X0047315Y0045194D02*
X0048858Y0045194D01*
X0048858Y0045587D02*
X0047315Y0045587D01*
X0047315Y0045979D02*
X0048858Y0045979D01*
X0048858Y0046371D02*
X0047315Y0046371D01*
X0047315Y0046763D02*
X0048858Y0046763D01*
X0048858Y0047156D02*
X0047315Y0047156D01*
X0047315Y0047548D02*
X0048858Y0047548D01*
X0048885Y0047940D02*
X0047288Y0047940D01*
X0046896Y0048332D02*
X0049277Y0048332D01*
D19*
X0052378Y0046472D02*
X0051630Y0045055D01*
X0052378Y0046472D02*
X0054346Y0048441D01*
X0068126Y0048441D01*
X0067417Y0048519D01*
X0074031Y0048441D02*
X0074898Y0048519D01*
X0074031Y0048441D02*
X0074031Y0038598D01*
X0075567Y0038795D01*
X0076000Y0038598D01*
X0091748Y0038598D01*
X0092062Y0040050D01*
X0093717Y0040567D01*
X0097654Y0044504D01*
X0125213Y0044504D01*
X0127095Y0042611D01*
X0079937Y0056315D02*
X0079937Y0076000D01*
X0068126Y0076000D01*
X0067091Y0075977D01*
X0051768Y0072525D02*
X0050409Y0074031D01*
X0044504Y0074031D01*
X0043283Y0072551D01*
X0042535Y0074031D01*
X0034661Y0074031D01*
X0032716Y0072615D01*
X0044543Y0045055D02*
X0044504Y0044504D01*
X0044504Y0030724D01*
X0044850Y0030606D01*
X0067417Y0058756D02*
X0068126Y0058283D01*
X0074031Y0052378D01*
X0076000Y0052378D01*
X0079937Y0056315D01*
D20*
X0074898Y0058756D02*
X0074031Y0060252D01*
X0070094Y0064189D01*
X0050409Y0064189D01*
X0048441Y0062220D01*
X0046472Y0064189D01*
X0044504Y0064189D01*
X0048441Y0062220D02*
X0044504Y0058283D01*
X0044521Y0056662D01*
X0054346Y0038598D02*
X0054346Y0030724D01*
X0056047Y0030606D01*
X0056315Y0030724D01*
X0072063Y0030724D01*
X0071827Y0030528D01*
X0079307Y0030528D02*
X0079937Y0030724D01*
X0081906Y0028756D01*
X0085843Y0028756D01*
X0083874Y0044504D02*
X0083874Y0049543D01*
X0087259Y0049543D01*
X0087259Y0057024D02*
X0087811Y0057024D01*
X0087811Y0085843D01*
X0085843Y0085843D01*
X0085429Y0085449D01*
X0087811Y0085843D02*
X0125213Y0085843D01*
X0135055Y0076000D01*
X0135055Y0056315D01*
X0131118Y0052378D01*
X0127328Y0052378D01*
X0127095Y0052611D01*
X0127328Y0052378D02*
X0119307Y0052378D01*
X0115370Y0056315D01*
X0107496Y0056315D01*
X0107339Y0056866D01*
X0107496Y0056866D01*
X0097654Y0056315D02*
X0097496Y0057024D01*
X0097654Y0056315D02*
X0097654Y0072063D01*
X0098635Y0072817D01*
X0099622Y0074031D01*
X0125213Y0074031D01*
X0127095Y0072611D01*
X0076374Y0085449D02*
X0076000Y0085843D01*
X0074031Y0087811D01*
X0066157Y0087811D01*
X0044504Y0109465D01*
X0044504Y0125213D01*
X0043743Y0126139D01*
X0052378Y0079937D02*
X0051768Y0079611D01*
X0052378Y0079937D02*
X0060252Y0079937D01*
D21*
X0060252Y0079937D03*
X0044504Y0064189D03*
X0054346Y0038598D03*
X0085843Y0028756D03*
D22*
X0107496Y0056315D02*
X0107496Y0056866D01*
D23*
X0083874Y0044504D03*
M02*
