%
M48
M72
T01C0.02362
T02C0.02400
T03C0.04000
T04C0.59055
%
T01
X83874Y44504
T02
X85843Y28756
X54346Y38598
X44504Y64189
X60252Y79937
T03
X32716Y32615
X32716Y42615
X32716Y52615
X32716Y62615
X32716Y72615
X32716Y82615
X33743Y126139
X43743Y126139
X117457Y125783
X127457Y125783
X127095Y72611
X127095Y62611
X127095Y52611
X127095Y42611
X127095Y32611
T04
X79937Y127181
M30
