G75*
%MOIN*%
%OFA0B0*%
%FSLAX25Y25*%
%IPPOS*%
%LPD*%
%AMOC8*
5,1,8,0,0,1.08239X$1,22.5*
%
%ADD10C,0.59855*%
%ADD11R,0.05524X0.03950*%
%ADD12R,0.03950X0.05524*%
%ADD13C,0.00805*%
%ADD14R,0.10643X0.04737*%
%ADD15R,0.10643X0.05524*%
%ADD16C,0.04343*%
%ADD17C,0.08200*%
%ADD18C,0.04800*%
D10*
X0079937Y0127181D03*
D11*
X0040320Y0106480D03*
X0040320Y0099394D03*
X0040844Y0088111D03*
X0040844Y0081025D03*
X0028202Y0080874D03*
X0028202Y0087960D03*
X0017949Y0088244D03*
X0017949Y0081157D03*
X0028763Y0099360D03*
X0028763Y0106446D03*
X0017713Y0060350D03*
X0017713Y0053264D03*
D12*
X0125075Y0053815D03*
X0132161Y0053815D03*
X0132067Y0064588D03*
X0124981Y0064588D03*
D13*
X0116667Y0068128D02*
X0106829Y0068128D01*
X0106829Y0072060D01*
X0116667Y0072060D01*
X0116667Y0068128D01*
X0116667Y0068932D02*
X0106829Y0068932D01*
X0106829Y0069736D02*
X0116667Y0069736D01*
X0116667Y0070540D02*
X0106829Y0070540D01*
X0106829Y0071344D02*
X0116667Y0071344D01*
D14*
X0111748Y0062220D03*
X0111748Y0054346D03*
X0111748Y0046472D03*
X0111748Y0038598D03*
X0111748Y0030724D03*
X0111748Y0022850D03*
X0111748Y0015350D03*
X0047181Y0015350D03*
X0047181Y0022850D03*
X0047181Y0030724D03*
X0047181Y0038598D03*
X0047181Y0046472D03*
X0047181Y0054346D03*
X0047181Y0062220D03*
X0047181Y0070094D03*
D15*
X0130134Y0105528D03*
X0130134Y0115370D03*
X0130134Y0125213D03*
D16*
X0119307Y0129346D03*
X0119307Y0101394D03*
D17*
X0032693Y0032693D03*
X0032693Y0042693D03*
X0032693Y0052693D03*
X0032693Y0062693D03*
X0127181Y0042693D03*
X0127181Y0032693D03*
D18*
X0103697Y0032073D03*
X0103697Y0039573D03*
X0099947Y0047073D03*
X0103697Y0022073D03*
X0132447Y0059573D03*
X0124847Y0073473D03*
X0138697Y0115823D03*
X0119947Y0118323D03*
X0054947Y0055823D03*
X0054947Y0038323D03*
X0054947Y0015823D03*
X0033697Y0080823D03*
X0028697Y0093323D03*
X0044897Y0094073D03*
M02*
