%
M48
M72
T01C0.02400
T02C0.03543
T03C0.04000
T04C0.59055
%
T01
X54947Y15823
X54947Y38323
X54947Y55823
X33697Y80823
X28697Y93323
X44897Y94073
X99947Y47073
X103697Y39573
X103697Y32073
X103697Y22073
X132447Y59573
X124847Y73473
X138697Y115823
X119947Y118323
T02
X119307Y129346
X119307Y101394
T03
X32693Y32693
X32693Y42693
X32693Y52693
X32693Y62693
X127181Y42693
X127181Y32693
T04
X79937Y127181
M30
