G75*
%MOIN*%
%OFA0B0*%
%FSLAX25Y25*%
%IPPOS*%
%LPD*%
%AMOC8*
5,1,8,0,0,1.08239X$1,22.5*
%
%ADD10R,0.04724X0.03150*%
%ADD11R,0.03150X0.04724*%
%ADD12C,0.00669*%
%ADD13R,0.09843X0.03937*%
%ADD14R,0.09843X0.04724*%
%ADD15C,0.07400*%
%ADD16C,0.00394*%
%ADD17C,0.01181*%
%ADD18C,0.01969*%
%ADD19C,0.04000*%
D10*
X0017713Y0053264D03*
X0017713Y0060350D03*
X0017949Y0081157D03*
X0017949Y0088244D03*
X0028202Y0087960D03*
X0028202Y0080874D03*
X0040844Y0081025D03*
X0040844Y0088111D03*
X0040320Y0099394D03*
X0040320Y0106480D03*
X0028763Y0106446D03*
X0028763Y0099360D03*
D11*
X0124981Y0064588D03*
X0132067Y0064588D03*
X0132161Y0053815D03*
X0125075Y0053815D03*
D12*
X0116335Y0068460D02*
X0107161Y0068460D01*
X0107161Y0071728D01*
X0116335Y0071728D01*
X0116335Y0068460D01*
X0116335Y0069128D02*
X0107161Y0069128D01*
X0107161Y0069796D02*
X0116335Y0069796D01*
X0116335Y0070464D02*
X0107161Y0070464D01*
X0107161Y0071132D02*
X0116335Y0071132D01*
D13*
X0111748Y0062220D03*
X0111748Y0054346D03*
X0111748Y0046472D03*
X0111748Y0038598D03*
X0111748Y0030724D03*
X0111748Y0022850D03*
X0111748Y0015350D03*
X0047181Y0015350D03*
X0047181Y0022850D03*
X0047181Y0030724D03*
X0047181Y0038598D03*
X0047181Y0046472D03*
X0047181Y0054346D03*
X0047181Y0062220D03*
X0047181Y0070094D03*
D14*
X0130134Y0105528D03*
X0130134Y0115370D03*
X0130134Y0125213D03*
D15*
X0127181Y0042693D03*
X0127181Y0032693D03*
X0032693Y0032693D03*
X0032693Y0042693D03*
X0032693Y0052693D03*
X0032693Y0062693D03*
D16*
X0050392Y0002344D02*
X0002377Y0002344D01*
X0002603Y0002118D02*
X0002118Y0002603D01*
X0001724Y0003165D01*
X0001434Y0003787D01*
X0001257Y0004450D01*
X0001197Y0005134D01*
X0001197Y0053819D01*
X0003686Y0046816D01*
X0008906Y0036742D01*
X0015449Y0027472D01*
X0023194Y0019180D01*
X0031995Y0012019D01*
X0031995Y0012019D01*
X0041690Y0006124D01*
X0052097Y0001603D01*
X0052097Y0001603D01*
X0053548Y0001197D01*
X0005134Y0001197D01*
X0004450Y0001257D01*
X0003787Y0001434D01*
X0003165Y0001724D01*
X0002603Y0002118D01*
X0002841Y0001952D02*
X0051295Y0001952D01*
X0052254Y0001559D02*
X0003519Y0001559D01*
X0002025Y0002736D02*
X0049489Y0002736D01*
X0048586Y0003128D02*
X0001750Y0003128D01*
X0001559Y0003520D02*
X0047684Y0003520D01*
X0046781Y0003913D02*
X0001401Y0003913D01*
X0001296Y0004305D02*
X0045878Y0004305D01*
X0044975Y0004697D02*
X0001235Y0004697D01*
X0001201Y0005089D02*
X0044072Y0005089D01*
X0043169Y0005481D02*
X0001197Y0005481D01*
X0001197Y0005874D02*
X0042266Y0005874D01*
X0041690Y0006124D02*
X0041690Y0006124D01*
X0041456Y0006266D02*
X0001197Y0006266D01*
X0001197Y0006658D02*
X0040811Y0006658D01*
X0040166Y0007050D02*
X0001197Y0007050D01*
X0001197Y0007442D02*
X0039521Y0007442D01*
X0038876Y0007835D02*
X0001197Y0007835D01*
X0001197Y0008227D02*
X0038231Y0008227D01*
X0037586Y0008619D02*
X0001197Y0008619D01*
X0001197Y0009011D02*
X0036941Y0009011D01*
X0036297Y0009404D02*
X0001197Y0009404D01*
X0001197Y0009796D02*
X0035652Y0009796D01*
X0035007Y0010188D02*
X0001197Y0010188D01*
X0001197Y0010580D02*
X0034362Y0010580D01*
X0033717Y0010972D02*
X0001197Y0010972D01*
X0001197Y0011365D02*
X0033072Y0011365D01*
X0032427Y0011757D02*
X0001197Y0011757D01*
X0001197Y0012149D02*
X0031836Y0012149D01*
X0031354Y0012541D02*
X0001197Y0012541D01*
X0001197Y0012933D02*
X0030872Y0012933D01*
X0030389Y0013326D02*
X0001197Y0013326D01*
X0001197Y0013718D02*
X0029907Y0013718D01*
X0029425Y0014110D02*
X0001197Y0014110D01*
X0001197Y0014502D02*
X0028943Y0014502D01*
X0028461Y0014895D02*
X0001197Y0014895D01*
X0001197Y0015287D02*
X0027979Y0015287D01*
X0027497Y0015679D02*
X0001197Y0015679D01*
X0001197Y0016071D02*
X0027015Y0016071D01*
X0026533Y0016463D02*
X0001197Y0016463D01*
X0001197Y0016856D02*
X0026051Y0016856D01*
X0025568Y0017248D02*
X0001197Y0017248D01*
X0001197Y0017640D02*
X0025086Y0017640D01*
X0024604Y0018032D02*
X0001197Y0018032D01*
X0001197Y0018424D02*
X0024122Y0018424D01*
X0023640Y0018817D02*
X0001197Y0018817D01*
X0001197Y0019209D02*
X0023167Y0019209D01*
X0023194Y0019180D02*
X0023194Y0019180D01*
X0022800Y0019601D02*
X0001197Y0019601D01*
X0001197Y0019993D02*
X0022434Y0019993D01*
X0022068Y0020385D02*
X0001197Y0020385D01*
X0001197Y0020778D02*
X0021701Y0020778D01*
X0021335Y0021170D02*
X0001197Y0021170D01*
X0001197Y0021562D02*
X0020969Y0021562D01*
X0020602Y0021954D02*
X0001197Y0021954D01*
X0001197Y0022347D02*
X0020236Y0022347D01*
X0019870Y0022739D02*
X0001197Y0022739D01*
X0001197Y0023131D02*
X0019504Y0023131D01*
X0019137Y0023523D02*
X0001197Y0023523D01*
X0001197Y0023915D02*
X0018771Y0023915D01*
X0018405Y0024308D02*
X0001197Y0024308D01*
X0001197Y0024700D02*
X0018038Y0024700D01*
X0017672Y0025092D02*
X0001197Y0025092D01*
X0001197Y0025484D02*
X0017306Y0025484D01*
X0016939Y0025876D02*
X0001197Y0025876D01*
X0001197Y0026269D02*
X0016573Y0026269D01*
X0016207Y0026661D02*
X0001197Y0026661D01*
X0001197Y0027053D02*
X0015841Y0027053D01*
X0015474Y0027445D02*
X0001197Y0027445D01*
X0001197Y0027837D02*
X0015191Y0027837D01*
X0015449Y0027472D02*
X0015449Y0027472D01*
X0014914Y0028230D02*
X0001197Y0028230D01*
X0001197Y0028622D02*
X0014638Y0028622D01*
X0014361Y0029014D02*
X0001197Y0029014D01*
X0001197Y0029406D02*
X0014084Y0029406D01*
X0013807Y0029799D02*
X0001197Y0029799D01*
X0001197Y0030191D02*
X0013530Y0030191D01*
X0013253Y0030583D02*
X0001197Y0030583D01*
X0001197Y0030975D02*
X0012976Y0030975D01*
X0012700Y0031367D02*
X0001197Y0031367D01*
X0001197Y0031760D02*
X0012423Y0031760D01*
X0012146Y0032152D02*
X0001197Y0032152D01*
X0001197Y0032544D02*
X0011869Y0032544D01*
X0011592Y0032936D02*
X0001197Y0032936D01*
X0001197Y0033328D02*
X0011315Y0033328D01*
X0011038Y0033721D02*
X0001197Y0033721D01*
X0001197Y0034113D02*
X0010762Y0034113D01*
X0010485Y0034505D02*
X0001197Y0034505D01*
X0001197Y0034897D02*
X0010208Y0034897D01*
X0009931Y0035290D02*
X0001197Y0035290D01*
X0001197Y0035682D02*
X0009654Y0035682D01*
X0009377Y0036074D02*
X0001197Y0036074D01*
X0001197Y0036466D02*
X0009101Y0036466D01*
X0008906Y0036742D02*
X0008906Y0036742D01*
X0008846Y0036858D02*
X0001197Y0036858D01*
X0001197Y0037251D02*
X0008642Y0037251D01*
X0008439Y0037643D02*
X0001197Y0037643D01*
X0001197Y0038035D02*
X0008236Y0038035D01*
X0008033Y0038427D02*
X0001197Y0038427D01*
X0001197Y0038819D02*
X0007829Y0038819D01*
X0007626Y0039212D02*
X0001197Y0039212D01*
X0001197Y0039604D02*
X0007423Y0039604D01*
X0007220Y0039996D02*
X0001197Y0039996D01*
X0001197Y0040388D02*
X0007016Y0040388D01*
X0006813Y0040780D02*
X0001197Y0040780D01*
X0001197Y0041173D02*
X0006610Y0041173D01*
X0006407Y0041565D02*
X0001197Y0041565D01*
X0001197Y0041957D02*
X0006204Y0041957D01*
X0006000Y0042349D02*
X0001197Y0042349D01*
X0001197Y0042742D02*
X0005797Y0042742D01*
X0005594Y0043134D02*
X0001197Y0043134D01*
X0001197Y0043526D02*
X0005391Y0043526D01*
X0005187Y0043918D02*
X0001197Y0043918D01*
X0001197Y0044310D02*
X0004984Y0044310D01*
X0004781Y0044703D02*
X0001197Y0044703D01*
X0001197Y0045095D02*
X0004578Y0045095D01*
X0004374Y0045487D02*
X0001197Y0045487D01*
X0001197Y0045879D02*
X0004171Y0045879D01*
X0003968Y0046271D02*
X0001197Y0046271D01*
X0001197Y0046664D02*
X0003765Y0046664D01*
X0003686Y0046816D02*
X0003686Y0046816D01*
X0003601Y0047056D02*
X0001197Y0047056D01*
X0001197Y0047448D02*
X0003461Y0047448D01*
X0003322Y0047840D02*
X0001197Y0047840D01*
X0001197Y0048233D02*
X0003182Y0048233D01*
X0003043Y0048625D02*
X0001197Y0048625D01*
X0001197Y0049017D02*
X0002904Y0049017D01*
X0002764Y0049409D02*
X0001197Y0049409D01*
X0001197Y0049801D02*
X0002625Y0049801D01*
X0002485Y0050194D02*
X0001197Y0050194D01*
X0001197Y0050586D02*
X0002346Y0050586D01*
X0002207Y0050978D02*
X0001197Y0050978D01*
X0001197Y0051370D02*
X0002067Y0051370D01*
X0001928Y0051762D02*
X0001197Y0051762D01*
X0001197Y0052155D02*
X0001788Y0052155D01*
X0001649Y0052547D02*
X0001197Y0052547D01*
X0001197Y0052939D02*
X0001510Y0052939D01*
X0001370Y0053331D02*
X0001197Y0053331D01*
X0001197Y0053723D02*
X0001231Y0053723D01*
X0009559Y0056469D02*
X0029544Y0056469D01*
X0029919Y0056844D02*
X0028542Y0055467D01*
X0027796Y0053667D01*
X0027796Y0051719D01*
X0028542Y0049919D01*
X0029919Y0048542D01*
X0031719Y0047796D01*
X0033667Y0047796D01*
X0035467Y0048542D01*
X0036844Y0049919D01*
X0037590Y0051719D01*
X0037590Y0053667D01*
X0036844Y0055467D01*
X0035467Y0056844D01*
X0033667Y0057590D01*
X0031719Y0057590D01*
X0029919Y0056844D01*
X0029960Y0056861D02*
X0009420Y0056861D01*
X0009280Y0057253D02*
X0030907Y0057253D01*
X0031135Y0058038D02*
X0021030Y0058038D01*
X0021272Y0058280D02*
X0021272Y0062421D01*
X0020571Y0063122D01*
X0020484Y0063122D01*
X0020484Y0067785D01*
X0036909Y0067785D01*
X0036909Y0065309D01*
X0036844Y0065467D01*
X0035467Y0066844D01*
X0033667Y0067590D01*
X0031719Y0067590D01*
X0029919Y0066844D01*
X0028542Y0065467D01*
X0027796Y0063667D01*
X0027796Y0061719D01*
X0028542Y0059919D01*
X0029919Y0058542D01*
X0031719Y0057796D01*
X0033667Y0057796D01*
X0035467Y0058542D01*
X0036844Y0059919D01*
X0037590Y0061719D01*
X0037590Y0063667D01*
X0037070Y0064922D01*
X0037956Y0064035D01*
X0040456Y0061535D01*
X0041063Y0061535D01*
X0041063Y0059756D01*
X0041764Y0059055D01*
X0052598Y0059055D01*
X0053299Y0059756D01*
X0053299Y0064685D01*
X0052598Y0065386D01*
X0041764Y0065386D01*
X0041713Y0065335D01*
X0040484Y0066563D01*
X0040484Y0070313D01*
X0039437Y0071360D01*
X0020484Y0071360D01*
X0020484Y0078386D01*
X0020807Y0078386D01*
X0021508Y0079087D01*
X0021508Y0083228D01*
X0020807Y0083929D01*
X0015091Y0083929D01*
X0014390Y0083228D01*
X0014390Y0079087D01*
X0015091Y0078386D01*
X0016909Y0078386D01*
X0016909Y0063122D01*
X0014855Y0063122D01*
X0014154Y0062421D01*
X0014154Y0058280D01*
X0014855Y0057579D01*
X0020571Y0057579D01*
X0021272Y0058280D01*
X0021272Y0058430D02*
X0030188Y0058430D01*
X0029638Y0058822D02*
X0021272Y0058822D01*
X0021272Y0059214D02*
X0029246Y0059214D01*
X0028854Y0059607D02*
X0021272Y0059607D01*
X0021272Y0059999D02*
X0028508Y0059999D01*
X0028346Y0060391D02*
X0021272Y0060391D01*
X0021272Y0060783D02*
X0028184Y0060783D01*
X0028021Y0061176D02*
X0021272Y0061176D01*
X0021272Y0061568D02*
X0027859Y0061568D01*
X0027796Y0061960D02*
X0021272Y0061960D01*
X0021272Y0062352D02*
X0027796Y0062352D01*
X0027796Y0062744D02*
X0020948Y0062744D01*
X0020484Y0063137D02*
X0027796Y0063137D01*
X0027796Y0063529D02*
X0020484Y0063529D01*
X0020484Y0063921D02*
X0027901Y0063921D01*
X0028064Y0064313D02*
X0020484Y0064313D01*
X0020484Y0064705D02*
X0028226Y0064705D01*
X0028389Y0065098D02*
X0020484Y0065098D01*
X0020484Y0065490D02*
X0028565Y0065490D01*
X0028957Y0065882D02*
X0020484Y0065882D01*
X0020484Y0066274D02*
X0029349Y0066274D01*
X0029741Y0066666D02*
X0020484Y0066666D01*
X0020484Y0067059D02*
X0030437Y0067059D01*
X0031384Y0067451D02*
X0020484Y0067451D01*
X0016909Y0067451D02*
X0006774Y0067451D01*
X0006692Y0067843D02*
X0016909Y0067843D01*
X0016909Y0068235D02*
X0006611Y0068235D01*
X0006529Y0068628D02*
X0016909Y0068628D01*
X0016909Y0069020D02*
X0006448Y0069020D01*
X0006366Y0069412D02*
X0016909Y0069412D01*
X0016909Y0069804D02*
X0006285Y0069804D01*
X0006283Y0069813D02*
X0005591Y0079937D01*
X0006283Y0090061D01*
X0008348Y0099995D01*
X0011746Y0109557D01*
X0016414Y0118566D01*
X0022266Y0126856D01*
X0029192Y0134272D01*
X0037063Y0140676D01*
X0045733Y0145948D01*
X0055040Y0149991D01*
X0055058Y0149996D01*
X0053742Y0148679D01*
X0050051Y0143156D01*
X0047509Y0137018D01*
X0046213Y0130503D01*
X0046213Y0123860D01*
X0047509Y0117344D01*
X0050051Y0111207D01*
X0053742Y0105683D01*
X0058439Y0100986D01*
X0063962Y0097295D01*
X0070100Y0094753D01*
X0076615Y0093457D01*
X0083259Y0093457D01*
X0089774Y0094753D01*
X0095912Y0097295D01*
X0101435Y0100986D01*
X0106132Y0105683D01*
X0109823Y0111207D01*
X0112365Y0117344D01*
X0113661Y0123860D01*
X0113661Y0127380D01*
X0114247Y0125966D01*
X0115926Y0124287D01*
X0118120Y0123378D01*
X0120494Y0123378D01*
X0122688Y0124287D01*
X0124016Y0125614D01*
X0124016Y0125476D01*
X0120059Y0121520D01*
X0119311Y0121520D01*
X0118136Y0121033D01*
X0117237Y0120134D01*
X0116750Y0118959D01*
X0116750Y0117687D01*
X0117237Y0116512D01*
X0118136Y0115613D01*
X0119311Y0115126D01*
X0120583Y0115126D01*
X0121758Y0115613D01*
X0122657Y0116512D01*
X0123144Y0117687D01*
X0123144Y0118435D01*
X0126362Y0121654D01*
X0135551Y0121654D01*
X0136252Y0122355D01*
X0136252Y0128071D01*
X0135551Y0128772D01*
X0125276Y0128772D01*
X0125276Y0130534D01*
X0124367Y0132727D01*
X0122688Y0134406D01*
X0120494Y0135315D01*
X0118120Y0135315D01*
X0115926Y0134406D01*
X0114247Y0132727D01*
X0113553Y0131050D01*
X0112365Y0137018D01*
X0109823Y0143156D01*
X0106132Y0148679D01*
X0104816Y0149996D01*
X0104834Y0149991D01*
X0114141Y0145948D01*
X0122811Y0140676D01*
X0130682Y0134272D01*
X0137608Y0126856D01*
X0143460Y0118566D01*
X0148128Y0109557D01*
X0151527Y0099995D01*
X0153591Y0090061D01*
X0154283Y0079937D01*
X0153591Y0069813D01*
X0151527Y0059879D01*
X0148128Y0050317D01*
X0143460Y0041308D01*
X0137608Y0033018D01*
X0130682Y0025602D01*
X0122811Y0019198D01*
X0117866Y0016191D01*
X0117866Y0017476D01*
X0117785Y0017781D01*
X0117627Y0018054D01*
X0117404Y0018277D01*
X0117131Y0018434D01*
X0116827Y0018516D01*
X0111945Y0018516D01*
X0111945Y0015547D01*
X0111551Y0015547D01*
X0111551Y0015154D01*
X0105630Y0015154D01*
X0105630Y0013224D01*
X0105711Y0012920D01*
X0105869Y0012647D01*
X0106092Y0012424D01*
X0106365Y0012267D01*
X0106669Y0012185D01*
X0110133Y0012185D01*
X0104834Y0009883D01*
X0095063Y0007146D01*
X0085011Y0005764D01*
X0074863Y0005764D01*
X0064811Y0007146D01*
X0055040Y0009883D01*
X0049741Y0012185D01*
X0052598Y0012185D01*
X0053299Y0012886D01*
X0053299Y0013045D01*
X0054311Y0012626D01*
X0055583Y0012626D01*
X0056758Y0013113D01*
X0057657Y0014012D01*
X0058144Y0015187D01*
X0058144Y0016459D01*
X0057657Y0017634D01*
X0056758Y0018533D01*
X0055583Y0019020D01*
X0054311Y0019020D01*
X0053136Y0018533D01*
X0052858Y0018255D01*
X0052598Y0018516D01*
X0041764Y0018516D01*
X0041063Y0017815D01*
X0041063Y0016766D01*
X0037063Y0019198D01*
X0029192Y0025602D01*
X0022266Y0033018D01*
X0016414Y0041308D01*
X0011746Y0050317D01*
X0008348Y0059879D01*
X0006283Y0069813D01*
X0006257Y0070196D02*
X0016909Y0070196D01*
X0016909Y0070589D02*
X0006230Y0070589D01*
X0006203Y0070981D02*
X0016909Y0070981D01*
X0016909Y0071373D02*
X0006176Y0071373D01*
X0006150Y0071765D02*
X0016909Y0071765D01*
X0016909Y0072157D02*
X0006123Y0072157D01*
X0006096Y0072550D02*
X0016909Y0072550D01*
X0016909Y0072942D02*
X0006069Y0072942D01*
X0006042Y0073334D02*
X0016909Y0073334D01*
X0016909Y0073726D02*
X0006015Y0073726D01*
X0005989Y0074119D02*
X0016909Y0074119D01*
X0016909Y0074511D02*
X0005962Y0074511D01*
X0005935Y0074903D02*
X0016909Y0074903D01*
X0016909Y0075295D02*
X0005908Y0075295D01*
X0005881Y0075687D02*
X0016909Y0075687D01*
X0016909Y0076080D02*
X0005854Y0076080D01*
X0005828Y0076472D02*
X0016909Y0076472D01*
X0016909Y0076864D02*
X0005801Y0076864D01*
X0005774Y0077256D02*
X0016909Y0077256D01*
X0016909Y0077648D02*
X0005747Y0077648D01*
X0005720Y0078041D02*
X0016909Y0078041D01*
X0015044Y0078433D02*
X0005693Y0078433D01*
X0005667Y0078825D02*
X0014652Y0078825D01*
X0014390Y0079217D02*
X0005640Y0079217D01*
X0005613Y0079609D02*
X0014390Y0079609D01*
X0014390Y0080002D02*
X0005595Y0080002D01*
X0005622Y0080394D02*
X0014390Y0080394D01*
X0014390Y0080786D02*
X0005649Y0080786D01*
X0005675Y0081178D02*
X0014390Y0081178D01*
X0014390Y0081571D02*
X0005702Y0081571D01*
X0005729Y0081963D02*
X0014390Y0081963D01*
X0014390Y0082355D02*
X0005756Y0082355D01*
X0005783Y0082747D02*
X0014390Y0082747D01*
X0014390Y0083139D02*
X0005810Y0083139D01*
X0005836Y0083532D02*
X0014693Y0083532D01*
X0015086Y0083924D02*
X0005863Y0083924D01*
X0005890Y0084316D02*
X0153984Y0084316D01*
X0154011Y0083924D02*
X0034564Y0083924D01*
X0034333Y0084020D02*
X0033061Y0084020D01*
X0031886Y0083533D01*
X0031529Y0083176D01*
X0031060Y0083645D01*
X0025344Y0083645D01*
X0024643Y0082944D01*
X0024643Y0078803D01*
X0025344Y0078102D01*
X0031060Y0078102D01*
X0031478Y0078520D01*
X0031886Y0078113D01*
X0033061Y0077626D01*
X0034333Y0077626D01*
X0035508Y0078113D01*
X0036407Y0079012D01*
X0036894Y0080187D01*
X0036894Y0081459D01*
X0036407Y0082634D01*
X0035508Y0083533D01*
X0034333Y0084020D01*
X0035509Y0083532D02*
X0037722Y0083532D01*
X0037986Y0083796D02*
X0037285Y0083095D01*
X0037285Y0078954D01*
X0037986Y0078253D01*
X0039409Y0078253D01*
X0039409Y0075082D01*
X0041498Y0072994D01*
X0041063Y0072559D01*
X0041063Y0067630D01*
X0041764Y0066929D01*
X0052598Y0066929D01*
X0053299Y0067630D01*
X0053299Y0072559D01*
X0052598Y0073260D01*
X0046288Y0073260D01*
X0045687Y0073860D01*
X0042984Y0076563D01*
X0042984Y0078253D01*
X0043702Y0078253D01*
X0044403Y0078954D01*
X0044403Y0083095D01*
X0043702Y0083796D01*
X0037986Y0083796D01*
X0037329Y0083139D02*
X0035901Y0083139D01*
X0036294Y0082747D02*
X0037285Y0082747D01*
X0037285Y0082355D02*
X0036522Y0082355D01*
X0036685Y0081963D02*
X0037285Y0081963D01*
X0037285Y0081571D02*
X0036847Y0081571D01*
X0036894Y0081178D02*
X0037285Y0081178D01*
X0037285Y0080786D02*
X0036894Y0080786D01*
X0036894Y0080394D02*
X0037285Y0080394D01*
X0037285Y0080002D02*
X0036817Y0080002D01*
X0036655Y0079609D02*
X0037285Y0079609D01*
X0037285Y0079217D02*
X0036492Y0079217D01*
X0036220Y0078825D02*
X0037414Y0078825D01*
X0037807Y0078433D02*
X0035828Y0078433D01*
X0035334Y0078041D02*
X0039409Y0078041D01*
X0039409Y0077648D02*
X0034387Y0077648D01*
X0033007Y0077648D02*
X0020484Y0077648D01*
X0020484Y0077256D02*
X0039409Y0077256D01*
X0039409Y0076864D02*
X0020484Y0076864D01*
X0020484Y0076472D02*
X0039409Y0076472D01*
X0039409Y0076080D02*
X0020484Y0076080D01*
X0020484Y0075687D02*
X0039409Y0075687D01*
X0039409Y0075295D02*
X0020484Y0075295D01*
X0020484Y0074903D02*
X0039589Y0074903D01*
X0039981Y0074511D02*
X0020484Y0074511D01*
X0020484Y0074119D02*
X0040373Y0074119D01*
X0040766Y0073726D02*
X0020484Y0073726D01*
X0020484Y0073334D02*
X0041158Y0073334D01*
X0041446Y0072942D02*
X0020484Y0072942D01*
X0020484Y0072550D02*
X0041063Y0072550D01*
X0041063Y0072157D02*
X0020484Y0072157D01*
X0020484Y0071765D02*
X0041063Y0071765D01*
X0041063Y0071373D02*
X0020484Y0071373D01*
X0016909Y0067059D02*
X0006855Y0067059D01*
X0006937Y0066666D02*
X0016909Y0066666D01*
X0016909Y0066274D02*
X0007018Y0066274D01*
X0007100Y0065882D02*
X0016909Y0065882D01*
X0016909Y0065490D02*
X0007181Y0065490D01*
X0007263Y0065098D02*
X0016909Y0065098D01*
X0016909Y0064705D02*
X0007344Y0064705D01*
X0007426Y0064313D02*
X0016909Y0064313D01*
X0016909Y0063921D02*
X0007507Y0063921D01*
X0007589Y0063529D02*
X0016909Y0063529D01*
X0016909Y0063137D02*
X0007670Y0063137D01*
X0007752Y0062744D02*
X0014477Y0062744D01*
X0014154Y0062352D02*
X0007833Y0062352D01*
X0007915Y0061960D02*
X0014154Y0061960D01*
X0014154Y0061568D02*
X0007996Y0061568D01*
X0008078Y0061176D02*
X0014154Y0061176D01*
X0014154Y0060783D02*
X0008159Y0060783D01*
X0008241Y0060391D02*
X0014154Y0060391D01*
X0014154Y0059999D02*
X0008323Y0059999D01*
X0008444Y0059607D02*
X0014154Y0059607D01*
X0014154Y0059214D02*
X0008584Y0059214D01*
X0008723Y0058822D02*
X0014154Y0058822D01*
X0014154Y0058430D02*
X0008862Y0058430D01*
X0009002Y0058038D02*
X0014396Y0058038D01*
X0014788Y0057646D02*
X0009141Y0057646D01*
X0009699Y0056077D02*
X0029152Y0056077D01*
X0028759Y0055685D02*
X0020921Y0055685D01*
X0020810Y0055796D02*
X0020537Y0055954D01*
X0020232Y0056035D01*
X0017909Y0056035D01*
X0017909Y0053461D01*
X0017516Y0053461D01*
X0017516Y0056035D01*
X0015193Y0056035D01*
X0014888Y0055954D01*
X0014616Y0055796D01*
X0014393Y0055573D01*
X0014235Y0055301D01*
X0014154Y0054996D01*
X0014154Y0053461D01*
X0017516Y0053461D01*
X0017516Y0053067D01*
X0017909Y0053067D01*
X0017909Y0050492D01*
X0020232Y0050492D01*
X0020537Y0050574D01*
X0020810Y0050731D01*
X0021033Y0050954D01*
X0021190Y0051227D01*
X0021272Y0051531D01*
X0021272Y0053067D01*
X0017909Y0053067D01*
X0017909Y0053461D01*
X0021272Y0053461D01*
X0021272Y0054996D01*
X0021190Y0055301D01*
X0021033Y0055573D01*
X0020810Y0055796D01*
X0021192Y0055292D02*
X0028469Y0055292D01*
X0028307Y0054900D02*
X0021272Y0054900D01*
X0021272Y0054508D02*
X0028144Y0054508D01*
X0027982Y0054116D02*
X0021272Y0054116D01*
X0021272Y0053723D02*
X0027819Y0053723D01*
X0027796Y0053331D02*
X0017909Y0053331D01*
X0017909Y0052939D02*
X0017516Y0052939D01*
X0017516Y0053067D02*
X0017516Y0050492D01*
X0015193Y0050492D01*
X0014888Y0050574D01*
X0014616Y0050731D01*
X0014393Y0050954D01*
X0014235Y0051227D01*
X0014154Y0051531D01*
X0014154Y0053067D01*
X0017516Y0053067D01*
X0017516Y0053331D02*
X0010674Y0053331D01*
X0010814Y0052939D02*
X0014154Y0052939D01*
X0014154Y0052547D02*
X0010953Y0052547D01*
X0011093Y0052155D02*
X0014154Y0052155D01*
X0014154Y0051762D02*
X0011232Y0051762D01*
X0011371Y0051370D02*
X0014197Y0051370D01*
X0014379Y0050978D02*
X0011511Y0050978D01*
X0011650Y0050586D02*
X0014867Y0050586D01*
X0017516Y0050586D02*
X0017909Y0050586D01*
X0017909Y0050978D02*
X0017516Y0050978D01*
X0017516Y0051370D02*
X0017909Y0051370D01*
X0017909Y0051762D02*
X0017516Y0051762D01*
X0017516Y0052155D02*
X0017909Y0052155D01*
X0017909Y0052547D02*
X0017516Y0052547D01*
X0017516Y0053723D02*
X0017909Y0053723D01*
X0017909Y0054116D02*
X0017516Y0054116D01*
X0017516Y0054508D02*
X0017909Y0054508D01*
X0017909Y0054900D02*
X0017516Y0054900D01*
X0017516Y0055292D02*
X0017909Y0055292D01*
X0017909Y0055685D02*
X0017516Y0055685D01*
X0014504Y0055685D02*
X0009838Y0055685D01*
X0009977Y0055292D02*
X0014233Y0055292D01*
X0014154Y0054900D02*
X0010117Y0054900D01*
X0010256Y0054508D02*
X0014154Y0054508D01*
X0014154Y0054116D02*
X0010396Y0054116D01*
X0010535Y0053723D02*
X0014154Y0053723D01*
X0011810Y0050194D02*
X0028428Y0050194D01*
X0028265Y0050586D02*
X0020558Y0050586D01*
X0021046Y0050978D02*
X0028103Y0050978D01*
X0027940Y0051370D02*
X0021228Y0051370D01*
X0021272Y0051762D02*
X0027796Y0051762D01*
X0027796Y0052155D02*
X0021272Y0052155D01*
X0021272Y0052547D02*
X0027796Y0052547D01*
X0027796Y0052939D02*
X0021272Y0052939D01*
X0020637Y0057646D02*
X0052249Y0057646D01*
X0052237Y0057634D02*
X0052186Y0057512D01*
X0041764Y0057512D01*
X0041063Y0056811D01*
X0041063Y0051882D01*
X0041764Y0051181D01*
X0052598Y0051181D01*
X0053299Y0051882D01*
X0053299Y0052785D01*
X0053926Y0052785D01*
X0054311Y0052626D01*
X0055583Y0052626D01*
X0056758Y0053113D01*
X0057657Y0054012D01*
X0058144Y0055187D01*
X0058144Y0056459D01*
X0057657Y0057634D01*
X0056758Y0058533D01*
X0055583Y0059020D01*
X0054311Y0059020D01*
X0053136Y0058533D01*
X0052237Y0057634D01*
X0052641Y0058038D02*
X0034251Y0058038D01*
X0034479Y0057253D02*
X0041506Y0057253D01*
X0041113Y0056861D02*
X0035426Y0056861D01*
X0035842Y0056469D02*
X0041063Y0056469D01*
X0041063Y0056077D02*
X0036234Y0056077D01*
X0036626Y0055685D02*
X0041063Y0055685D01*
X0041063Y0055292D02*
X0036916Y0055292D01*
X0037079Y0054900D02*
X0041063Y0054900D01*
X0041063Y0054508D02*
X0037241Y0054508D01*
X0037404Y0054116D02*
X0041063Y0054116D01*
X0041063Y0053723D02*
X0037566Y0053723D01*
X0037590Y0053331D02*
X0041063Y0053331D01*
X0041063Y0052939D02*
X0037590Y0052939D01*
X0037590Y0052547D02*
X0041063Y0052547D01*
X0041063Y0052155D02*
X0037590Y0052155D01*
X0037590Y0051762D02*
X0041183Y0051762D01*
X0041575Y0051370D02*
X0037445Y0051370D01*
X0037283Y0050978D02*
X0122303Y0050978D01*
X0122303Y0050957D02*
X0122428Y0050832D01*
X0120456Y0048860D01*
X0117866Y0048860D01*
X0117866Y0048937D01*
X0117165Y0049638D01*
X0106331Y0049638D01*
X0105630Y0048937D01*
X0105630Y0048860D01*
X0102667Y0048860D01*
X0102657Y0048884D01*
X0101758Y0049783D01*
X0100583Y0050270D01*
X0099311Y0050270D01*
X0098136Y0049783D01*
X0097237Y0048884D01*
X0096750Y0047709D01*
X0096750Y0046437D01*
X0097237Y0045262D01*
X0098136Y0044363D01*
X0099311Y0043876D01*
X0100583Y0043876D01*
X0101758Y0044363D01*
X0102657Y0045262D01*
X0102667Y0045285D01*
X0105630Y0045285D01*
X0105630Y0044008D01*
X0106331Y0043307D01*
X0117165Y0043307D01*
X0117866Y0044008D01*
X0117866Y0045285D01*
X0121937Y0045285D01*
X0122984Y0046332D01*
X0126734Y0050082D01*
X0126734Y0050256D01*
X0127145Y0050256D01*
X0127846Y0050957D01*
X0127846Y0056673D01*
X0127145Y0057374D01*
X0123004Y0057374D01*
X0122303Y0056673D01*
X0122303Y0050957D01*
X0122182Y0050586D02*
X0037120Y0050586D01*
X0036958Y0050194D02*
X0099127Y0050194D01*
X0098180Y0049801D02*
X0036727Y0049801D01*
X0036334Y0049409D02*
X0041535Y0049409D01*
X0041764Y0049638D02*
X0041063Y0048937D01*
X0041063Y0044008D01*
X0041764Y0043307D01*
X0052598Y0043307D01*
X0053299Y0044008D01*
X0053299Y0048937D01*
X0052598Y0049638D01*
X0041764Y0049638D01*
X0041143Y0049017D02*
X0035942Y0049017D01*
X0035550Y0048625D02*
X0041063Y0048625D01*
X0041063Y0048233D02*
X0034721Y0048233D01*
X0033774Y0047840D02*
X0041063Y0047840D01*
X0041063Y0047448D02*
X0034009Y0047448D01*
X0033667Y0047590D02*
X0031719Y0047590D01*
X0029919Y0046844D01*
X0028542Y0045467D01*
X0027796Y0043667D01*
X0027796Y0041719D01*
X0028542Y0039919D01*
X0029919Y0038542D01*
X0031719Y0037796D01*
X0033667Y0037796D01*
X0034925Y0038317D01*
X0035456Y0037785D01*
X0036706Y0037785D01*
X0041183Y0033309D01*
X0041063Y0033189D01*
X0041063Y0028260D01*
X0041764Y0027559D01*
X0052598Y0027559D01*
X0053299Y0028260D01*
X0053299Y0033189D01*
X0052598Y0033890D01*
X0045658Y0033890D01*
X0044114Y0035433D01*
X0052598Y0035433D01*
X0052957Y0035792D01*
X0053136Y0035613D01*
X0054311Y0035126D01*
X0055583Y0035126D01*
X0056758Y0035613D01*
X0057657Y0036512D01*
X0058144Y0037687D01*
X0058144Y0038959D01*
X0057657Y0040134D01*
X0056758Y0041033D01*
X0055583Y0041520D01*
X0054311Y0041520D01*
X0053272Y0041089D01*
X0052598Y0041764D01*
X0041764Y0041764D01*
X0041063Y0041063D01*
X0041063Y0038484D01*
X0039234Y0040313D01*
X0038187Y0041360D01*
X0037441Y0041360D01*
X0037590Y0041719D01*
X0037590Y0043667D01*
X0036844Y0045467D01*
X0035467Y0046844D01*
X0033667Y0047590D01*
X0034956Y0047056D02*
X0041063Y0047056D01*
X0041063Y0046664D02*
X0035647Y0046664D01*
X0036040Y0046271D02*
X0041063Y0046271D01*
X0041063Y0045879D02*
X0036432Y0045879D01*
X0036824Y0045487D02*
X0041063Y0045487D01*
X0041063Y0045095D02*
X0036998Y0045095D01*
X0037161Y0044703D02*
X0041063Y0044703D01*
X0041063Y0044310D02*
X0037323Y0044310D01*
X0037486Y0043918D02*
X0041153Y0043918D01*
X0041545Y0043526D02*
X0037590Y0043526D01*
X0037590Y0043134D02*
X0122284Y0043134D01*
X0122284Y0043526D02*
X0117384Y0043526D01*
X0117776Y0043918D02*
X0122388Y0043918D01*
X0122284Y0043667D02*
X0122284Y0041719D01*
X0123030Y0039919D01*
X0124407Y0038542D01*
X0126207Y0037796D01*
X0128155Y0037796D01*
X0129955Y0038542D01*
X0131332Y0039919D01*
X0132078Y0041719D01*
X0132078Y0043667D01*
X0131332Y0045467D01*
X0129955Y0046844D01*
X0128155Y0047590D01*
X0126207Y0047590D01*
X0124407Y0046844D01*
X0123030Y0045467D01*
X0122284Y0043667D01*
X0122551Y0044310D02*
X0117866Y0044310D01*
X0117866Y0044703D02*
X0122713Y0044703D01*
X0122876Y0045095D02*
X0117866Y0045095D01*
X0117165Y0041764D02*
X0106331Y0041764D01*
X0106179Y0041612D01*
X0105508Y0042283D01*
X0104333Y0042770D01*
X0103061Y0042770D01*
X0101886Y0042283D01*
X0100987Y0041384D01*
X0100500Y0040209D01*
X0100500Y0038937D01*
X0100987Y0037762D01*
X0101886Y0036863D01*
X0103061Y0036376D01*
X0104333Y0036376D01*
X0104718Y0036535D01*
X0105630Y0036535D01*
X0105630Y0036134D01*
X0106331Y0035433D01*
X0117165Y0035433D01*
X0117866Y0036134D01*
X0117866Y0041063D01*
X0117165Y0041764D01*
X0117364Y0041565D02*
X0122348Y0041565D01*
X0122284Y0041957D02*
X0105834Y0041957D01*
X0105348Y0042349D02*
X0122284Y0042349D01*
X0122284Y0042742D02*
X0104401Y0042742D01*
X0102993Y0042742D02*
X0037590Y0042742D01*
X0037590Y0042349D02*
X0102046Y0042349D01*
X0101560Y0041957D02*
X0037590Y0041957D01*
X0037526Y0041565D02*
X0041565Y0041565D01*
X0041173Y0041173D02*
X0038375Y0041173D01*
X0038767Y0040780D02*
X0041063Y0040780D01*
X0041063Y0040388D02*
X0039159Y0040388D01*
X0039234Y0040313D02*
X0039234Y0040313D01*
X0039551Y0039996D02*
X0041063Y0039996D01*
X0041063Y0039604D02*
X0039944Y0039604D01*
X0040336Y0039212D02*
X0041063Y0039212D01*
X0041063Y0038819D02*
X0040728Y0038819D01*
X0038026Y0036466D02*
X0035845Y0036466D01*
X0035467Y0036844D02*
X0033667Y0037590D01*
X0031719Y0037590D01*
X0029919Y0036844D01*
X0028542Y0035467D01*
X0027796Y0033667D01*
X0027796Y0031719D01*
X0028542Y0029919D01*
X0029919Y0028542D01*
X0031719Y0027796D01*
X0032946Y0027796D01*
X0032956Y0027785D01*
X0039206Y0021535D01*
X0041063Y0021535D01*
X0041063Y0020386D01*
X0041764Y0019685D01*
X0052598Y0019685D01*
X0053299Y0020386D01*
X0053299Y0025315D01*
X0052598Y0026016D01*
X0041764Y0026016D01*
X0041063Y0025315D01*
X0041063Y0025110D01*
X0040687Y0025110D01*
X0036361Y0029436D01*
X0036844Y0029919D01*
X0037590Y0031719D01*
X0037590Y0033667D01*
X0036844Y0035467D01*
X0035467Y0036844D01*
X0035433Y0036858D02*
X0037634Y0036858D01*
X0037241Y0037251D02*
X0034486Y0037251D01*
X0034244Y0038035D02*
X0035207Y0038035D01*
X0036849Y0037643D02*
X0019001Y0037643D01*
X0018724Y0038035D02*
X0031142Y0038035D01*
X0030900Y0037251D02*
X0019278Y0037251D01*
X0019555Y0036858D02*
X0029953Y0036858D01*
X0029541Y0036466D02*
X0019832Y0036466D01*
X0020108Y0036074D02*
X0029149Y0036074D01*
X0028757Y0035682D02*
X0020385Y0035682D01*
X0020662Y0035290D02*
X0028468Y0035290D01*
X0028306Y0034897D02*
X0020939Y0034897D01*
X0021216Y0034505D02*
X0028143Y0034505D01*
X0027981Y0034113D02*
X0021493Y0034113D01*
X0021770Y0033721D02*
X0027818Y0033721D01*
X0027796Y0033328D02*
X0022046Y0033328D01*
X0022342Y0032936D02*
X0027796Y0032936D01*
X0027796Y0032544D02*
X0022708Y0032544D01*
X0023074Y0032152D02*
X0027796Y0032152D01*
X0027796Y0031760D02*
X0023441Y0031760D01*
X0023807Y0031367D02*
X0027942Y0031367D01*
X0028104Y0030975D02*
X0024173Y0030975D01*
X0024540Y0030583D02*
X0028267Y0030583D01*
X0028429Y0030191D02*
X0024906Y0030191D01*
X0025272Y0029799D02*
X0028662Y0029799D01*
X0029054Y0029406D02*
X0025639Y0029406D01*
X0026005Y0029014D02*
X0029446Y0029014D01*
X0029839Y0028622D02*
X0026371Y0028622D01*
X0026737Y0028230D02*
X0030672Y0028230D01*
X0031619Y0027837D02*
X0027104Y0027837D01*
X0027470Y0027445D02*
X0033297Y0027445D01*
X0033689Y0027053D02*
X0027836Y0027053D01*
X0028203Y0026661D02*
X0034081Y0026661D01*
X0034473Y0026269D02*
X0028569Y0026269D01*
X0028935Y0025876D02*
X0034865Y0025876D01*
X0035258Y0025484D02*
X0029336Y0025484D01*
X0029818Y0025092D02*
X0035650Y0025092D01*
X0036042Y0024700D02*
X0030300Y0024700D01*
X0030783Y0024308D02*
X0036434Y0024308D01*
X0036827Y0023915D02*
X0031265Y0023915D01*
X0031747Y0023523D02*
X0037219Y0023523D01*
X0037611Y0023131D02*
X0032229Y0023131D01*
X0032711Y0022739D02*
X0038003Y0022739D01*
X0038395Y0022347D02*
X0033193Y0022347D01*
X0033675Y0021954D02*
X0038788Y0021954D01*
X0039180Y0021562D02*
X0034157Y0021562D01*
X0034639Y0021170D02*
X0041063Y0021170D01*
X0041063Y0020778D02*
X0035121Y0020778D01*
X0035603Y0020385D02*
X0041064Y0020385D01*
X0041456Y0019993D02*
X0036086Y0019993D01*
X0036568Y0019601D02*
X0101648Y0019601D01*
X0101886Y0019363D02*
X0103061Y0018876D01*
X0104333Y0018876D01*
X0105508Y0019363D01*
X0106081Y0019936D01*
X0106331Y0019685D01*
X0117165Y0019685D01*
X0117866Y0020386D01*
X0117866Y0025315D01*
X0117165Y0026016D01*
X0106331Y0026016D01*
X0105630Y0025315D01*
X0105630Y0025110D01*
X0104718Y0025110D01*
X0104333Y0025270D01*
X0103061Y0025270D01*
X0101886Y0024783D01*
X0100987Y0023884D01*
X0100500Y0022709D01*
X0100500Y0021437D01*
X0100987Y0020262D01*
X0101886Y0019363D01*
X0102257Y0019209D02*
X0037050Y0019209D01*
X0037690Y0018817D02*
X0053821Y0018817D01*
X0053027Y0018424D02*
X0052689Y0018424D01*
X0052906Y0019993D02*
X0101255Y0019993D01*
X0100936Y0020385D02*
X0053299Y0020385D01*
X0053299Y0020778D02*
X0100773Y0020778D01*
X0100611Y0021170D02*
X0053299Y0021170D01*
X0053299Y0021562D02*
X0100500Y0021562D01*
X0100500Y0021954D02*
X0053299Y0021954D01*
X0053299Y0022347D02*
X0100500Y0022347D01*
X0100512Y0022739D02*
X0053299Y0022739D01*
X0053299Y0023131D02*
X0100675Y0023131D01*
X0100837Y0023523D02*
X0053299Y0023523D01*
X0053299Y0023915D02*
X0101018Y0023915D01*
X0101411Y0024308D02*
X0053299Y0024308D01*
X0053299Y0024700D02*
X0101803Y0024700D01*
X0102632Y0025092D02*
X0053299Y0025092D01*
X0053130Y0025484D02*
X0105800Y0025484D01*
X0106192Y0025876D02*
X0052737Y0025876D01*
X0052877Y0027837D02*
X0106053Y0027837D01*
X0106331Y0027559D02*
X0117165Y0027559D01*
X0117866Y0028260D01*
X0117866Y0033189D01*
X0117165Y0033890D01*
X0106401Y0033890D01*
X0105508Y0034783D01*
X0104333Y0035270D01*
X0103061Y0035270D01*
X0101886Y0034783D01*
X0100987Y0033884D01*
X0100500Y0032709D01*
X0100500Y0031437D01*
X0100987Y0030262D01*
X0101886Y0029363D01*
X0103061Y0028876D01*
X0103809Y0028876D01*
X0104043Y0028642D01*
X0105630Y0028642D01*
X0105630Y0028260D01*
X0106331Y0027559D01*
X0105660Y0028230D02*
X0053269Y0028230D01*
X0053299Y0028622D02*
X0105630Y0028622D01*
X0102727Y0029014D02*
X0053299Y0029014D01*
X0053299Y0029406D02*
X0101842Y0029406D01*
X0101450Y0029799D02*
X0053299Y0029799D01*
X0053299Y0030191D02*
X0101058Y0030191D01*
X0100854Y0030583D02*
X0053299Y0030583D01*
X0053299Y0030975D02*
X0100691Y0030975D01*
X0100529Y0031367D02*
X0053299Y0031367D01*
X0053299Y0031760D02*
X0100500Y0031760D01*
X0100500Y0032152D02*
X0053299Y0032152D01*
X0053299Y0032544D02*
X0100500Y0032544D01*
X0100594Y0032936D02*
X0053299Y0032936D01*
X0053159Y0033328D02*
X0100757Y0033328D01*
X0100919Y0033721D02*
X0052767Y0033721D01*
X0053916Y0035290D02*
X0044258Y0035290D01*
X0044650Y0034897D02*
X0102162Y0034897D01*
X0101608Y0034505D02*
X0045042Y0034505D01*
X0045435Y0034113D02*
X0101216Y0034113D01*
X0102843Y0036466D02*
X0057611Y0036466D01*
X0057800Y0036858D02*
X0101896Y0036858D01*
X0101498Y0037251D02*
X0057963Y0037251D01*
X0058125Y0037643D02*
X0101106Y0037643D01*
X0100874Y0038035D02*
X0058144Y0038035D01*
X0058144Y0038427D02*
X0100711Y0038427D01*
X0100549Y0038819D02*
X0058144Y0038819D01*
X0058039Y0039212D02*
X0100500Y0039212D01*
X0100500Y0039604D02*
X0057876Y0039604D01*
X0057714Y0039996D02*
X0100500Y0039996D01*
X0100574Y0040388D02*
X0057402Y0040388D01*
X0057010Y0040780D02*
X0100737Y0040780D01*
X0100899Y0041173D02*
X0056420Y0041173D01*
X0053473Y0041173D02*
X0053189Y0041173D01*
X0052797Y0041565D02*
X0101168Y0041565D01*
X0100685Y0043918D02*
X0105720Y0043918D01*
X0105630Y0044310D02*
X0101632Y0044310D01*
X0102098Y0044703D02*
X0105630Y0044703D01*
X0105630Y0045095D02*
X0102490Y0045095D01*
X0099209Y0043918D02*
X0053209Y0043918D01*
X0053299Y0044310D02*
X0098262Y0044310D01*
X0097796Y0044703D02*
X0053299Y0044703D01*
X0053299Y0045095D02*
X0097404Y0045095D01*
X0097143Y0045487D02*
X0053299Y0045487D01*
X0053299Y0045879D02*
X0096981Y0045879D01*
X0096819Y0046271D02*
X0053299Y0046271D01*
X0053299Y0046664D02*
X0096750Y0046664D01*
X0096750Y0047056D02*
X0053299Y0047056D01*
X0053299Y0047448D02*
X0096750Y0047448D01*
X0096805Y0047840D02*
X0053299Y0047840D01*
X0053299Y0048233D02*
X0096967Y0048233D01*
X0097129Y0048625D02*
X0053299Y0048625D01*
X0053219Y0049017D02*
X0097370Y0049017D01*
X0097762Y0049409D02*
X0052827Y0049409D01*
X0052787Y0051370D02*
X0106142Y0051370D01*
X0106331Y0051181D02*
X0117165Y0051181D01*
X0117866Y0051882D01*
X0117866Y0056811D01*
X0117165Y0057512D01*
X0106331Y0057512D01*
X0105630Y0056811D01*
X0105630Y0051882D01*
X0106331Y0051181D01*
X0105750Y0051762D02*
X0053179Y0051762D01*
X0053299Y0052155D02*
X0105630Y0052155D01*
X0105630Y0052547D02*
X0053299Y0052547D01*
X0056339Y0052939D02*
X0105630Y0052939D01*
X0105630Y0053331D02*
X0056976Y0053331D01*
X0057369Y0053723D02*
X0105630Y0053723D01*
X0105630Y0054116D02*
X0057700Y0054116D01*
X0057862Y0054508D02*
X0105630Y0054508D01*
X0105630Y0054900D02*
X0058025Y0054900D01*
X0058144Y0055292D02*
X0105630Y0055292D01*
X0105630Y0055685D02*
X0058144Y0055685D01*
X0058144Y0056077D02*
X0105630Y0056077D01*
X0105630Y0056469D02*
X0058139Y0056469D01*
X0057977Y0056861D02*
X0105680Y0056861D01*
X0106073Y0057253D02*
X0057815Y0057253D01*
X0057645Y0057646D02*
X0129853Y0057646D01*
X0129737Y0057762D02*
X0130125Y0057374D01*
X0130091Y0057374D01*
X0129390Y0056673D01*
X0129390Y0050957D01*
X0130091Y0050256D01*
X0134232Y0050256D01*
X0134933Y0050957D01*
X0134933Y0056673D01*
X0134628Y0056978D01*
X0134628Y0057233D01*
X0135157Y0057762D01*
X0135644Y0058937D01*
X0135644Y0060209D01*
X0135157Y0061384D01*
X0134825Y0061716D01*
X0134839Y0061730D01*
X0134839Y0067446D01*
X0134138Y0068147D01*
X0129997Y0068147D01*
X0129295Y0067446D01*
X0129295Y0061730D01*
X0129709Y0061317D01*
X0129250Y0060209D01*
X0129250Y0058937D01*
X0129737Y0057762D01*
X0129622Y0058038D02*
X0057253Y0058038D01*
X0056861Y0058430D02*
X0129460Y0058430D01*
X0129297Y0058822D02*
X0056059Y0058822D01*
X0053834Y0058822D02*
X0035747Y0058822D01*
X0036140Y0059214D02*
X0041605Y0059214D01*
X0041213Y0059607D02*
X0036532Y0059607D01*
X0036877Y0059999D02*
X0041063Y0059999D01*
X0041063Y0060391D02*
X0037040Y0060391D01*
X0037202Y0060783D02*
X0041063Y0060783D01*
X0041063Y0061176D02*
X0037365Y0061176D01*
X0037527Y0061568D02*
X0040424Y0061568D01*
X0040032Y0061960D02*
X0037590Y0061960D01*
X0037590Y0062352D02*
X0039640Y0062352D01*
X0039248Y0062744D02*
X0037590Y0062744D01*
X0037590Y0063137D02*
X0038855Y0063137D01*
X0038463Y0063529D02*
X0037590Y0063529D01*
X0037485Y0063921D02*
X0038071Y0063921D01*
X0037679Y0064313D02*
X0037322Y0064313D01*
X0037286Y0064705D02*
X0037160Y0064705D01*
X0036909Y0065490D02*
X0036821Y0065490D01*
X0036909Y0065882D02*
X0036429Y0065882D01*
X0036037Y0066274D02*
X0036909Y0066274D01*
X0036909Y0066666D02*
X0035645Y0066666D01*
X0034949Y0067059D02*
X0036909Y0067059D01*
X0036909Y0067451D02*
X0034002Y0067451D01*
X0039817Y0070981D02*
X0041063Y0070981D01*
X0041063Y0070589D02*
X0040209Y0070589D01*
X0040484Y0070196D02*
X0041063Y0070196D01*
X0041063Y0069804D02*
X0040484Y0069804D01*
X0040484Y0069412D02*
X0041063Y0069412D01*
X0041063Y0069020D02*
X0040484Y0069020D01*
X0040484Y0068628D02*
X0041063Y0068628D01*
X0041063Y0068235D02*
X0040484Y0068235D01*
X0040484Y0067843D02*
X0041063Y0067843D01*
X0041242Y0067451D02*
X0040484Y0067451D01*
X0040484Y0067059D02*
X0041635Y0067059D01*
X0040773Y0066274D02*
X0122209Y0066274D01*
X0122209Y0065882D02*
X0041165Y0065882D01*
X0041558Y0065490D02*
X0122209Y0065490D01*
X0122209Y0065098D02*
X0117453Y0065098D01*
X0117165Y0065386D02*
X0106331Y0065386D01*
X0105630Y0064685D01*
X0105630Y0059756D01*
X0106331Y0059055D01*
X0117165Y0059055D01*
X0117866Y0059756D01*
X0117866Y0064685D01*
X0117165Y0065386D01*
X0117845Y0064705D02*
X0122209Y0064705D01*
X0122209Y0064313D02*
X0117866Y0064313D01*
X0117866Y0063921D02*
X0122209Y0063921D01*
X0122209Y0063529D02*
X0117866Y0063529D01*
X0117866Y0063137D02*
X0122209Y0063137D01*
X0122209Y0062744D02*
X0117866Y0062744D01*
X0117866Y0062352D02*
X0122209Y0062352D01*
X0122209Y0061960D02*
X0117866Y0061960D01*
X0117866Y0061568D02*
X0122371Y0061568D01*
X0122209Y0061730D02*
X0122910Y0061029D01*
X0127051Y0061029D01*
X0127752Y0061730D01*
X0127752Y0067446D01*
X0127051Y0068147D01*
X0126694Y0068147D01*
X0126665Y0070770D01*
X0127557Y0071662D01*
X0128044Y0072837D01*
X0128044Y0074109D01*
X0127557Y0075284D01*
X0126658Y0076183D01*
X0125483Y0076670D01*
X0124211Y0076670D01*
X0123036Y0076183D01*
X0122137Y0075284D01*
X0121650Y0074109D01*
X0121650Y0072837D01*
X0122137Y0071662D01*
X0123036Y0070763D01*
X0123090Y0070740D01*
X0123119Y0068147D01*
X0122910Y0068147D01*
X0122209Y0067446D01*
X0122209Y0061730D01*
X0122763Y0061176D02*
X0117866Y0061176D01*
X0117866Y0060783D02*
X0129488Y0060783D01*
X0129326Y0060391D02*
X0117866Y0060391D01*
X0117866Y0059999D02*
X0129250Y0059999D01*
X0129250Y0059607D02*
X0117717Y0059607D01*
X0117324Y0059214D02*
X0129250Y0059214D01*
X0129650Y0061176D02*
X0127198Y0061176D01*
X0127590Y0061568D02*
X0129458Y0061568D01*
X0129295Y0061960D02*
X0127752Y0061960D01*
X0127752Y0062352D02*
X0129295Y0062352D01*
X0129295Y0062744D02*
X0127752Y0062744D01*
X0127752Y0063137D02*
X0129295Y0063137D01*
X0129295Y0063529D02*
X0127752Y0063529D01*
X0127752Y0063921D02*
X0129295Y0063921D01*
X0129295Y0064313D02*
X0127752Y0064313D01*
X0127752Y0064705D02*
X0129295Y0064705D01*
X0129295Y0065098D02*
X0127752Y0065098D01*
X0127752Y0065490D02*
X0129295Y0065490D01*
X0129295Y0065882D02*
X0127752Y0065882D01*
X0127752Y0066274D02*
X0129295Y0066274D01*
X0129295Y0066666D02*
X0127752Y0066666D01*
X0127752Y0067059D02*
X0129295Y0067059D01*
X0129301Y0067451D02*
X0127747Y0067451D01*
X0127355Y0067843D02*
X0129693Y0067843D01*
X0126693Y0068235D02*
X0153263Y0068235D01*
X0153182Y0067843D02*
X0134441Y0067843D01*
X0134834Y0067451D02*
X0153100Y0067451D01*
X0153019Y0067059D02*
X0134839Y0067059D01*
X0134839Y0066666D02*
X0152937Y0066666D01*
X0152856Y0066274D02*
X0134839Y0066274D01*
X0134839Y0065882D02*
X0152774Y0065882D01*
X0152693Y0065490D02*
X0134839Y0065490D01*
X0134839Y0065098D02*
X0152611Y0065098D01*
X0152530Y0064705D02*
X0134839Y0064705D01*
X0134839Y0064313D02*
X0152448Y0064313D01*
X0152367Y0063921D02*
X0134839Y0063921D01*
X0134839Y0063529D02*
X0152285Y0063529D01*
X0152204Y0063137D02*
X0134839Y0063137D01*
X0134839Y0062744D02*
X0152122Y0062744D01*
X0152041Y0062352D02*
X0134839Y0062352D01*
X0134839Y0061960D02*
X0151959Y0061960D01*
X0151878Y0061568D02*
X0134973Y0061568D01*
X0135243Y0061176D02*
X0151796Y0061176D01*
X0151715Y0060783D02*
X0135406Y0060783D01*
X0135568Y0060391D02*
X0151633Y0060391D01*
X0151552Y0059999D02*
X0135644Y0059999D01*
X0135644Y0059607D02*
X0151430Y0059607D01*
X0151290Y0059214D02*
X0135644Y0059214D01*
X0135596Y0058822D02*
X0151151Y0058822D01*
X0151012Y0058430D02*
X0135434Y0058430D01*
X0135271Y0058038D02*
X0150872Y0058038D01*
X0150733Y0057646D02*
X0135041Y0057646D01*
X0134648Y0057253D02*
X0150594Y0057253D01*
X0150454Y0056861D02*
X0134745Y0056861D01*
X0134933Y0056469D02*
X0150315Y0056469D01*
X0150175Y0056077D02*
X0134933Y0056077D01*
X0134933Y0055685D02*
X0150036Y0055685D01*
X0149897Y0055292D02*
X0134933Y0055292D01*
X0134933Y0054900D02*
X0149757Y0054900D01*
X0149618Y0054508D02*
X0134933Y0054508D01*
X0134933Y0054116D02*
X0149478Y0054116D01*
X0149339Y0053723D02*
X0134933Y0053723D01*
X0134933Y0053331D02*
X0149200Y0053331D01*
X0149060Y0052939D02*
X0134933Y0052939D01*
X0134933Y0052547D02*
X0148921Y0052547D01*
X0148781Y0052155D02*
X0134933Y0052155D01*
X0134933Y0051762D02*
X0148642Y0051762D01*
X0148503Y0051370D02*
X0134933Y0051370D01*
X0134933Y0050978D02*
X0148363Y0050978D01*
X0148224Y0050586D02*
X0134562Y0050586D01*
X0129761Y0050586D02*
X0127475Y0050586D01*
X0127846Y0050978D02*
X0129390Y0050978D01*
X0129390Y0051370D02*
X0127846Y0051370D01*
X0127846Y0051762D02*
X0129390Y0051762D01*
X0129390Y0052155D02*
X0127846Y0052155D01*
X0127846Y0052547D02*
X0129390Y0052547D01*
X0129390Y0052939D02*
X0127846Y0052939D01*
X0127846Y0053331D02*
X0129390Y0053331D01*
X0129390Y0053723D02*
X0127846Y0053723D01*
X0127846Y0054116D02*
X0129390Y0054116D01*
X0129390Y0054508D02*
X0127846Y0054508D01*
X0127846Y0054900D02*
X0129390Y0054900D01*
X0129390Y0055292D02*
X0127846Y0055292D01*
X0127846Y0055685D02*
X0129390Y0055685D01*
X0129390Y0056077D02*
X0127846Y0056077D01*
X0127846Y0056469D02*
X0129390Y0056469D01*
X0129578Y0056861D02*
X0127658Y0056861D01*
X0127266Y0057253D02*
X0129970Y0057253D01*
X0126734Y0050194D02*
X0148064Y0050194D01*
X0147861Y0049801D02*
X0126453Y0049801D01*
X0126061Y0049409D02*
X0147658Y0049409D01*
X0147455Y0049017D02*
X0125669Y0049017D01*
X0125277Y0048625D02*
X0147251Y0048625D01*
X0147048Y0048233D02*
X0124884Y0048233D01*
X0124492Y0047840D02*
X0146845Y0047840D01*
X0146642Y0047448D02*
X0128497Y0047448D01*
X0129444Y0047056D02*
X0146439Y0047056D01*
X0146235Y0046664D02*
X0130136Y0046664D01*
X0130528Y0046271D02*
X0146032Y0046271D01*
X0145829Y0045879D02*
X0130920Y0045879D01*
X0131312Y0045487D02*
X0145626Y0045487D01*
X0145422Y0045095D02*
X0131487Y0045095D01*
X0131649Y0044703D02*
X0145219Y0044703D01*
X0145016Y0044310D02*
X0131811Y0044310D01*
X0131974Y0043918D02*
X0144813Y0043918D01*
X0144609Y0043526D02*
X0132078Y0043526D01*
X0132078Y0043134D02*
X0144406Y0043134D01*
X0144203Y0042742D02*
X0132078Y0042742D01*
X0132078Y0042349D02*
X0144000Y0042349D01*
X0143797Y0041957D02*
X0132078Y0041957D01*
X0132014Y0041565D02*
X0143593Y0041565D01*
X0143365Y0041173D02*
X0131852Y0041173D01*
X0131689Y0040780D02*
X0143088Y0040780D01*
X0142811Y0040388D02*
X0131527Y0040388D01*
X0131364Y0039996D02*
X0142534Y0039996D01*
X0142257Y0039604D02*
X0131017Y0039604D01*
X0130625Y0039212D02*
X0141980Y0039212D01*
X0141704Y0038819D02*
X0130233Y0038819D01*
X0129679Y0038427D02*
X0141427Y0038427D01*
X0141150Y0038035D02*
X0128732Y0038035D01*
X0128328Y0037469D02*
X0127566Y0037590D01*
X0127378Y0037590D01*
X0127378Y0032890D01*
X0126984Y0032890D01*
X0126984Y0032496D01*
X0122284Y0032496D01*
X0122284Y0032308D01*
X0122405Y0031546D01*
X0122643Y0030813D01*
X0122993Y0030126D01*
X0123446Y0029503D01*
X0123991Y0028958D01*
X0124615Y0028505D01*
X0125301Y0028155D01*
X0126034Y0027917D01*
X0126796Y0027796D01*
X0126984Y0027796D01*
X0126984Y0032496D01*
X0127378Y0032496D01*
X0127378Y0032890D01*
X0132078Y0032890D01*
X0132078Y0033078D01*
X0131957Y0033840D01*
X0131719Y0034573D01*
X0131369Y0035259D01*
X0130916Y0035883D01*
X0130371Y0036428D01*
X0129748Y0036881D01*
X0129061Y0037231D01*
X0128328Y0037469D01*
X0129001Y0037251D02*
X0140596Y0037251D01*
X0140873Y0037643D02*
X0117866Y0037643D01*
X0117866Y0038035D02*
X0125630Y0038035D01*
X0126034Y0037469D02*
X0125301Y0037231D01*
X0124615Y0036881D01*
X0123991Y0036428D01*
X0123446Y0035883D01*
X0122993Y0035259D01*
X0122643Y0034573D01*
X0122405Y0033840D01*
X0122284Y0033078D01*
X0122284Y0032890D01*
X0126984Y0032890D01*
X0126984Y0037590D01*
X0126796Y0037590D01*
X0126034Y0037469D01*
X0125362Y0037251D02*
X0117866Y0037251D01*
X0117866Y0036858D02*
X0124583Y0036858D01*
X0124044Y0036466D02*
X0117866Y0036466D01*
X0117806Y0036074D02*
X0123637Y0036074D01*
X0123300Y0035682D02*
X0117414Y0035682D01*
X0117334Y0033721D02*
X0122386Y0033721D01*
X0122324Y0033328D02*
X0117726Y0033328D01*
X0117866Y0032936D02*
X0122284Y0032936D01*
X0122309Y0032152D02*
X0117866Y0032152D01*
X0117866Y0032544D02*
X0126984Y0032544D01*
X0126984Y0032152D02*
X0127378Y0032152D01*
X0127378Y0032496D02*
X0127378Y0027796D01*
X0127566Y0027796D01*
X0128328Y0027917D01*
X0129061Y0028155D01*
X0129748Y0028505D01*
X0130371Y0028958D01*
X0130916Y0029503D01*
X0131369Y0030126D01*
X0131719Y0030813D01*
X0131957Y0031546D01*
X0132078Y0032308D01*
X0132078Y0032496D01*
X0127378Y0032496D01*
X0127378Y0032544D02*
X0137166Y0032544D01*
X0137532Y0032936D02*
X0132078Y0032936D01*
X0132038Y0033328D02*
X0137828Y0033328D01*
X0138105Y0033721D02*
X0131976Y0033721D01*
X0131869Y0034113D02*
X0138381Y0034113D01*
X0138658Y0034505D02*
X0131741Y0034505D01*
X0131554Y0034897D02*
X0138935Y0034897D01*
X0139212Y0035290D02*
X0131347Y0035290D01*
X0131062Y0035682D02*
X0139489Y0035682D01*
X0139766Y0036074D02*
X0130725Y0036074D01*
X0130319Y0036466D02*
X0140042Y0036466D01*
X0140319Y0036858D02*
X0129779Y0036858D01*
X0127378Y0036858D02*
X0126984Y0036858D01*
X0126984Y0036466D02*
X0127378Y0036466D01*
X0127378Y0036074D02*
X0126984Y0036074D01*
X0126984Y0035682D02*
X0127378Y0035682D01*
X0127378Y0035290D02*
X0126984Y0035290D01*
X0126984Y0034897D02*
X0127378Y0034897D01*
X0127378Y0034505D02*
X0126984Y0034505D01*
X0126984Y0034113D02*
X0127378Y0034113D01*
X0127378Y0033721D02*
X0126984Y0033721D01*
X0126984Y0033328D02*
X0127378Y0033328D01*
X0127378Y0032936D02*
X0126984Y0032936D01*
X0126984Y0031760D02*
X0127378Y0031760D01*
X0127378Y0031367D02*
X0126984Y0031367D01*
X0126984Y0030975D02*
X0127378Y0030975D01*
X0127378Y0030583D02*
X0126984Y0030583D01*
X0126984Y0030191D02*
X0127378Y0030191D01*
X0127378Y0029799D02*
X0126984Y0029799D01*
X0126984Y0029406D02*
X0127378Y0029406D01*
X0127378Y0029014D02*
X0126984Y0029014D01*
X0126984Y0028622D02*
X0127378Y0028622D01*
X0127378Y0028230D02*
X0126984Y0028230D01*
X0126984Y0027837D02*
X0127378Y0027837D01*
X0127828Y0027837D02*
X0132770Y0027837D01*
X0132404Y0027445D02*
X0038352Y0027445D01*
X0038744Y0027053D02*
X0132038Y0027053D01*
X0131671Y0026661D02*
X0039137Y0026661D01*
X0039529Y0026269D02*
X0131305Y0026269D01*
X0130939Y0025876D02*
X0117304Y0025876D01*
X0117697Y0025484D02*
X0130538Y0025484D01*
X0130056Y0025092D02*
X0117866Y0025092D01*
X0117866Y0024700D02*
X0129574Y0024700D01*
X0129091Y0024308D02*
X0117866Y0024308D01*
X0117866Y0023915D02*
X0128609Y0023915D01*
X0128127Y0023523D02*
X0117866Y0023523D01*
X0117866Y0023131D02*
X0127645Y0023131D01*
X0127163Y0022739D02*
X0117866Y0022739D01*
X0117866Y0022347D02*
X0126681Y0022347D01*
X0126199Y0021954D02*
X0117866Y0021954D01*
X0117866Y0021562D02*
X0125717Y0021562D01*
X0125235Y0021170D02*
X0117866Y0021170D01*
X0117866Y0020778D02*
X0124753Y0020778D01*
X0124271Y0020385D02*
X0117865Y0020385D01*
X0117473Y0019993D02*
X0123788Y0019993D01*
X0123306Y0019601D02*
X0105746Y0019601D01*
X0105136Y0019209D02*
X0122824Y0019209D01*
X0122184Y0018817D02*
X0056073Y0018817D01*
X0056866Y0018424D02*
X0106348Y0018424D01*
X0106365Y0018434D02*
X0106092Y0018277D01*
X0105869Y0018054D01*
X0105711Y0017781D01*
X0105630Y0017476D01*
X0105630Y0015547D01*
X0111551Y0015547D01*
X0111551Y0018516D01*
X0106669Y0018516D01*
X0106365Y0018434D01*
X0105857Y0018032D02*
X0057259Y0018032D01*
X0057651Y0017640D02*
X0105674Y0017640D01*
X0105630Y0017248D02*
X0057817Y0017248D01*
X0057979Y0016856D02*
X0105630Y0016856D01*
X0105630Y0016463D02*
X0058142Y0016463D01*
X0058144Y0016071D02*
X0105630Y0016071D01*
X0105630Y0015679D02*
X0058144Y0015679D01*
X0058144Y0015287D02*
X0111551Y0015287D01*
X0111551Y0015679D02*
X0111945Y0015679D01*
X0111945Y0016071D02*
X0111551Y0016071D01*
X0111551Y0016463D02*
X0111945Y0016463D01*
X0111945Y0016856D02*
X0111551Y0016856D01*
X0111551Y0017248D02*
X0111945Y0017248D01*
X0111945Y0017640D02*
X0111551Y0017640D01*
X0111551Y0018032D02*
X0111945Y0018032D01*
X0111945Y0018424D02*
X0111551Y0018424D01*
X0105630Y0014895D02*
X0058023Y0014895D01*
X0057860Y0014502D02*
X0105630Y0014502D01*
X0105630Y0014110D02*
X0057698Y0014110D01*
X0057363Y0013718D02*
X0105630Y0013718D01*
X0105630Y0013326D02*
X0056971Y0013326D01*
X0056325Y0012933D02*
X0105708Y0012933D01*
X0105975Y0012541D02*
X0052954Y0012541D01*
X0053299Y0012933D02*
X0053569Y0012933D01*
X0051629Y0011365D02*
X0108245Y0011365D01*
X0109148Y0011757D02*
X0050726Y0011757D01*
X0049823Y0012149D02*
X0110051Y0012149D01*
X0107342Y0010972D02*
X0052532Y0010972D01*
X0053435Y0010580D02*
X0106439Y0010580D01*
X0105536Y0010188D02*
X0054338Y0010188D01*
X0055352Y0009796D02*
X0104522Y0009796D01*
X0103122Y0009404D02*
X0056752Y0009404D01*
X0058152Y0009011D02*
X0101722Y0009011D01*
X0100322Y0008619D02*
X0059552Y0008619D01*
X0060951Y0008227D02*
X0098923Y0008227D01*
X0097523Y0007835D02*
X0062351Y0007835D01*
X0063751Y0007442D02*
X0096123Y0007442D01*
X0094370Y0007050D02*
X0065504Y0007050D01*
X0068358Y0006658D02*
X0091516Y0006658D01*
X0088663Y0006266D02*
X0071211Y0006266D01*
X0074065Y0005874D02*
X0085809Y0005874D01*
X0106326Y0001197D02*
X0107777Y0001603D01*
X0118184Y0006124D01*
X0127879Y0012019D01*
X0136680Y0019180D01*
X0144425Y0027472D01*
X0150968Y0036742D01*
X0156188Y0046816D01*
X0158677Y0053819D01*
X0158677Y0001197D01*
X0106326Y0001197D01*
X0107620Y0001559D02*
X0158677Y0001559D01*
X0158677Y0001952D02*
X0108579Y0001952D01*
X0107777Y0001603D02*
X0107777Y0001603D01*
X0109482Y0002344D02*
X0158677Y0002344D01*
X0158677Y0002736D02*
X0110385Y0002736D01*
X0111288Y0003128D02*
X0158677Y0003128D01*
X0158677Y0003520D02*
X0112191Y0003520D01*
X0113093Y0003913D02*
X0158677Y0003913D01*
X0158677Y0004305D02*
X0113996Y0004305D01*
X0114899Y0004697D02*
X0158677Y0004697D01*
X0158677Y0005089D02*
X0115802Y0005089D01*
X0116705Y0005481D02*
X0158677Y0005481D01*
X0158677Y0005874D02*
X0117608Y0005874D01*
X0118418Y0006266D02*
X0158677Y0006266D01*
X0158677Y0006658D02*
X0119063Y0006658D01*
X0119708Y0007050D02*
X0158677Y0007050D01*
X0158677Y0007442D02*
X0120353Y0007442D01*
X0120998Y0007835D02*
X0158677Y0007835D01*
X0158677Y0008227D02*
X0121643Y0008227D01*
X0122288Y0008619D02*
X0158677Y0008619D01*
X0158677Y0009011D02*
X0122932Y0009011D01*
X0123577Y0009404D02*
X0158677Y0009404D01*
X0158677Y0009796D02*
X0124222Y0009796D01*
X0124867Y0010188D02*
X0158677Y0010188D01*
X0158677Y0010580D02*
X0125512Y0010580D01*
X0126157Y0010972D02*
X0158677Y0010972D01*
X0158677Y0011365D02*
X0126802Y0011365D01*
X0127447Y0011757D02*
X0158677Y0011757D01*
X0158677Y0012149D02*
X0128038Y0012149D01*
X0128520Y0012541D02*
X0158677Y0012541D01*
X0158677Y0012933D02*
X0129002Y0012933D01*
X0129485Y0013326D02*
X0158677Y0013326D01*
X0158677Y0013718D02*
X0129967Y0013718D01*
X0130449Y0014110D02*
X0158677Y0014110D01*
X0158677Y0014502D02*
X0130931Y0014502D01*
X0131413Y0014895D02*
X0158677Y0014895D01*
X0158677Y0015287D02*
X0131895Y0015287D01*
X0132377Y0015679D02*
X0158677Y0015679D01*
X0158677Y0016071D02*
X0132859Y0016071D01*
X0133341Y0016463D02*
X0158677Y0016463D01*
X0158677Y0016856D02*
X0133823Y0016856D01*
X0134306Y0017248D02*
X0158677Y0017248D01*
X0158677Y0017640D02*
X0134788Y0017640D01*
X0135270Y0018032D02*
X0158677Y0018032D01*
X0158677Y0018424D02*
X0135752Y0018424D01*
X0136234Y0018817D02*
X0158677Y0018817D01*
X0158677Y0019209D02*
X0136707Y0019209D01*
X0136680Y0019180D02*
X0136680Y0019180D01*
X0137074Y0019601D02*
X0158677Y0019601D01*
X0158677Y0019993D02*
X0137440Y0019993D01*
X0137806Y0020385D02*
X0158677Y0020385D01*
X0158677Y0020778D02*
X0138173Y0020778D01*
X0138539Y0021170D02*
X0158677Y0021170D01*
X0158677Y0021562D02*
X0138905Y0021562D01*
X0139271Y0021954D02*
X0158677Y0021954D01*
X0158677Y0022347D02*
X0139638Y0022347D01*
X0140004Y0022739D02*
X0158677Y0022739D01*
X0158677Y0023131D02*
X0140370Y0023131D01*
X0140737Y0023523D02*
X0158677Y0023523D01*
X0158677Y0023915D02*
X0141103Y0023915D01*
X0141469Y0024308D02*
X0158677Y0024308D01*
X0158677Y0024700D02*
X0141836Y0024700D01*
X0142202Y0025092D02*
X0158677Y0025092D01*
X0158677Y0025484D02*
X0142568Y0025484D01*
X0142934Y0025876D02*
X0158677Y0025876D01*
X0158677Y0026269D02*
X0143301Y0026269D01*
X0143667Y0026661D02*
X0158677Y0026661D01*
X0158677Y0027053D02*
X0144033Y0027053D01*
X0144400Y0027445D02*
X0158677Y0027445D01*
X0158677Y0027837D02*
X0144683Y0027837D01*
X0144960Y0028230D02*
X0158677Y0028230D01*
X0158677Y0028622D02*
X0145236Y0028622D01*
X0145513Y0029014D02*
X0158677Y0029014D01*
X0158677Y0029406D02*
X0145790Y0029406D01*
X0146067Y0029799D02*
X0158677Y0029799D01*
X0158677Y0030191D02*
X0146344Y0030191D01*
X0146621Y0030583D02*
X0158677Y0030583D01*
X0158677Y0030975D02*
X0146898Y0030975D01*
X0147174Y0031367D02*
X0158677Y0031367D01*
X0158677Y0031760D02*
X0147451Y0031760D01*
X0147728Y0032152D02*
X0158677Y0032152D01*
X0158677Y0032544D02*
X0148005Y0032544D01*
X0148282Y0032936D02*
X0158677Y0032936D01*
X0158677Y0033328D02*
X0148559Y0033328D01*
X0148836Y0033721D02*
X0158677Y0033721D01*
X0158677Y0034113D02*
X0149112Y0034113D01*
X0149389Y0034505D02*
X0158677Y0034505D01*
X0158677Y0034897D02*
X0149666Y0034897D01*
X0149943Y0035290D02*
X0158677Y0035290D01*
X0158677Y0035682D02*
X0150220Y0035682D01*
X0150497Y0036074D02*
X0158677Y0036074D01*
X0158677Y0036466D02*
X0150773Y0036466D01*
X0151028Y0036858D02*
X0158677Y0036858D01*
X0158677Y0037251D02*
X0151232Y0037251D01*
X0151435Y0037643D02*
X0158677Y0037643D01*
X0158677Y0038035D02*
X0151638Y0038035D01*
X0151841Y0038427D02*
X0158677Y0038427D01*
X0158677Y0038819D02*
X0152045Y0038819D01*
X0152248Y0039212D02*
X0158677Y0039212D01*
X0158677Y0039604D02*
X0152451Y0039604D01*
X0152654Y0039996D02*
X0158677Y0039996D01*
X0158677Y0040388D02*
X0152858Y0040388D01*
X0153061Y0040780D02*
X0158677Y0040780D01*
X0158677Y0041173D02*
X0153264Y0041173D01*
X0153467Y0041565D02*
X0158677Y0041565D01*
X0158677Y0041957D02*
X0153670Y0041957D01*
X0153874Y0042349D02*
X0158677Y0042349D01*
X0158677Y0042742D02*
X0154077Y0042742D01*
X0154280Y0043134D02*
X0158677Y0043134D01*
X0158677Y0043526D02*
X0154483Y0043526D01*
X0154687Y0043918D02*
X0158677Y0043918D01*
X0158677Y0044310D02*
X0154890Y0044310D01*
X0155093Y0044703D02*
X0158677Y0044703D01*
X0158677Y0045095D02*
X0155296Y0045095D01*
X0155499Y0045487D02*
X0158677Y0045487D01*
X0158677Y0045879D02*
X0155703Y0045879D01*
X0155906Y0046271D02*
X0158677Y0046271D01*
X0158677Y0046664D02*
X0156109Y0046664D01*
X0156273Y0047056D02*
X0158677Y0047056D01*
X0158677Y0047448D02*
X0156413Y0047448D01*
X0156552Y0047840D02*
X0158677Y0047840D01*
X0158677Y0048233D02*
X0156692Y0048233D01*
X0156831Y0048625D02*
X0158677Y0048625D01*
X0158677Y0049017D02*
X0156970Y0049017D01*
X0157110Y0049409D02*
X0158677Y0049409D01*
X0158677Y0049801D02*
X0157249Y0049801D01*
X0157389Y0050194D02*
X0158677Y0050194D01*
X0158677Y0050586D02*
X0157528Y0050586D01*
X0157667Y0050978D02*
X0158677Y0050978D01*
X0158677Y0051370D02*
X0157807Y0051370D01*
X0157946Y0051762D02*
X0158677Y0051762D01*
X0158677Y0052155D02*
X0158086Y0052155D01*
X0158225Y0052547D02*
X0158677Y0052547D01*
X0158677Y0052939D02*
X0158364Y0052939D01*
X0158504Y0053331D02*
X0158677Y0053331D01*
X0158677Y0053723D02*
X0158643Y0053723D01*
X0153345Y0068628D02*
X0126689Y0068628D01*
X0126684Y0069020D02*
X0153426Y0069020D01*
X0153508Y0069412D02*
X0126680Y0069412D01*
X0126676Y0069804D02*
X0153589Y0069804D01*
X0153591Y0069813D02*
X0153591Y0069813D01*
X0153617Y0070196D02*
X0126671Y0070196D01*
X0126667Y0070589D02*
X0153644Y0070589D01*
X0153671Y0070981D02*
X0126876Y0070981D01*
X0127268Y0071373D02*
X0153698Y0071373D01*
X0153725Y0071765D02*
X0127600Y0071765D01*
X0127762Y0072157D02*
X0153751Y0072157D01*
X0153778Y0072550D02*
X0127925Y0072550D01*
X0128044Y0072942D02*
X0153805Y0072942D01*
X0153832Y0073334D02*
X0128044Y0073334D01*
X0128044Y0073726D02*
X0153859Y0073726D01*
X0153885Y0074119D02*
X0128040Y0074119D01*
X0127877Y0074511D02*
X0153912Y0074511D01*
X0153939Y0074903D02*
X0127715Y0074903D01*
X0127546Y0075295D02*
X0153966Y0075295D01*
X0153993Y0075687D02*
X0127153Y0075687D01*
X0126761Y0076080D02*
X0154020Y0076080D01*
X0154046Y0076472D02*
X0125960Y0076472D01*
X0123733Y0076472D02*
X0043076Y0076472D01*
X0042984Y0076864D02*
X0154073Y0076864D01*
X0154100Y0077256D02*
X0042984Y0077256D01*
X0042984Y0077648D02*
X0154127Y0077648D01*
X0154154Y0078041D02*
X0042984Y0078041D01*
X0043882Y0078433D02*
X0154181Y0078433D01*
X0154207Y0078825D02*
X0044274Y0078825D01*
X0044403Y0079217D02*
X0154234Y0079217D01*
X0154261Y0079609D02*
X0044403Y0079609D01*
X0044403Y0080002D02*
X0154279Y0080002D01*
X0154252Y0080394D02*
X0044403Y0080394D01*
X0044403Y0080786D02*
X0154225Y0080786D01*
X0154199Y0081178D02*
X0044403Y0081178D01*
X0044403Y0081571D02*
X0154172Y0081571D01*
X0154145Y0081963D02*
X0044403Y0081963D01*
X0044403Y0082355D02*
X0154118Y0082355D01*
X0154091Y0082747D02*
X0044403Y0082747D01*
X0044359Y0083139D02*
X0154064Y0083139D01*
X0154038Y0083532D02*
X0043967Y0083532D01*
X0043702Y0085340D02*
X0044403Y0086041D01*
X0044403Y0090182D01*
X0043702Y0090883D01*
X0042128Y0090883D01*
X0042128Y0091726D01*
X0039628Y0094226D01*
X0038350Y0095504D01*
X0031037Y0095504D01*
X0030878Y0095663D01*
X0030878Y0096588D01*
X0031621Y0096588D01*
X0032322Y0097289D01*
X0032322Y0101430D01*
X0031621Y0102131D01*
X0025905Y0102131D01*
X0025204Y0101430D01*
X0025204Y0097289D01*
X0025905Y0096588D01*
X0026516Y0096588D01*
X0026516Y0095663D01*
X0025987Y0095134D01*
X0025500Y0093959D01*
X0025500Y0092687D01*
X0025987Y0091512D01*
X0026516Y0090983D01*
X0026516Y0090732D01*
X0025344Y0090732D01*
X0025116Y0090504D01*
X0021319Y0090504D01*
X0020807Y0091016D01*
X0015091Y0091016D01*
X0014390Y0090315D01*
X0014390Y0086174D01*
X0015091Y0085472D01*
X0020807Y0085472D01*
X0021476Y0086142D01*
X0024643Y0086142D01*
X0024643Y0085890D01*
X0025344Y0085189D01*
X0031060Y0085189D01*
X0031761Y0085890D01*
X0031761Y0090031D01*
X0031060Y0090732D01*
X0030878Y0090732D01*
X0030878Y0090983D01*
X0031037Y0091142D01*
X0036543Y0091142D01*
X0037394Y0090291D01*
X0037285Y0090182D01*
X0037285Y0086041D01*
X0037986Y0085340D01*
X0043702Y0085340D01*
X0043855Y0085493D02*
X0153903Y0085493D01*
X0153877Y0085885D02*
X0044248Y0085885D01*
X0044403Y0086277D02*
X0153850Y0086277D01*
X0153823Y0086669D02*
X0044403Y0086669D01*
X0044403Y0087062D02*
X0153796Y0087062D01*
X0153769Y0087454D02*
X0044403Y0087454D01*
X0044403Y0087846D02*
X0153742Y0087846D01*
X0153716Y0088238D02*
X0044403Y0088238D01*
X0044403Y0088630D02*
X0153689Y0088630D01*
X0153662Y0089023D02*
X0044403Y0089023D01*
X0044403Y0089415D02*
X0153635Y0089415D01*
X0153608Y0089807D02*
X0044403Y0089807D01*
X0044386Y0090199D02*
X0153562Y0090199D01*
X0153481Y0090591D02*
X0043994Y0090591D01*
X0044261Y0090876D02*
X0045533Y0090876D01*
X0046708Y0091363D01*
X0047607Y0092262D01*
X0048094Y0093437D01*
X0048094Y0094709D01*
X0047607Y0095884D01*
X0046708Y0096783D01*
X0045533Y0097270D01*
X0044484Y0097270D01*
X0043879Y0097964D01*
X0043879Y0101464D01*
X0043178Y0102166D01*
X0037462Y0102166D01*
X0036761Y0101464D01*
X0036761Y0097323D01*
X0037462Y0096622D01*
X0040279Y0096622D01*
X0040283Y0096618D01*
X0040314Y0096615D01*
X0041788Y0094922D01*
X0041700Y0094709D01*
X0041700Y0093437D01*
X0042187Y0092262D01*
X0043086Y0091363D01*
X0044261Y0090876D01*
X0044001Y0090984D02*
X0042128Y0090984D01*
X0042128Y0091376D02*
X0043073Y0091376D01*
X0042681Y0091768D02*
X0042086Y0091768D01*
X0042288Y0092160D02*
X0041694Y0092160D01*
X0042066Y0092552D02*
X0041302Y0092552D01*
X0040909Y0092945D02*
X0041904Y0092945D01*
X0041741Y0093337D02*
X0040517Y0093337D01*
X0040125Y0093729D02*
X0041700Y0093729D01*
X0041700Y0094121D02*
X0039733Y0094121D01*
X0039341Y0094514D02*
X0041700Y0094514D01*
X0041782Y0094906D02*
X0038948Y0094906D01*
X0038556Y0095298D02*
X0041460Y0095298D01*
X0041119Y0095690D02*
X0030878Y0095690D01*
X0030878Y0096082D02*
X0040777Y0096082D01*
X0040436Y0096475D02*
X0030878Y0096475D01*
X0031900Y0096867D02*
X0037218Y0096867D01*
X0036825Y0097259D02*
X0032292Y0097259D01*
X0032322Y0097651D02*
X0036761Y0097651D01*
X0036761Y0098043D02*
X0032322Y0098043D01*
X0032322Y0098436D02*
X0036761Y0098436D01*
X0036761Y0098828D02*
X0032322Y0098828D01*
X0032322Y0099220D02*
X0036761Y0099220D01*
X0036761Y0099612D02*
X0032322Y0099612D01*
X0032322Y0100005D02*
X0036761Y0100005D01*
X0036761Y0100397D02*
X0032322Y0100397D01*
X0032322Y0100789D02*
X0036761Y0100789D01*
X0036761Y0101181D02*
X0032322Y0101181D01*
X0032179Y0101573D02*
X0036870Y0101573D01*
X0037262Y0101966D02*
X0031787Y0101966D01*
X0031283Y0103675D02*
X0028960Y0103675D01*
X0028960Y0106249D01*
X0028566Y0106249D01*
X0028566Y0103675D01*
X0026244Y0103675D01*
X0025939Y0103756D01*
X0025666Y0103914D01*
X0025443Y0104137D01*
X0025286Y0104410D01*
X0025204Y0104714D01*
X0025204Y0106250D01*
X0028566Y0106250D01*
X0028566Y0106643D01*
X0025204Y0106643D01*
X0025204Y0108179D01*
X0025286Y0108483D01*
X0025443Y0108756D01*
X0025666Y0108979D01*
X0025939Y0109136D01*
X0026244Y0109218D01*
X0028566Y0109218D01*
X0028566Y0106643D01*
X0028960Y0106643D01*
X0032322Y0106643D01*
X0032322Y0108179D01*
X0032241Y0108483D01*
X0032083Y0108756D01*
X0031860Y0108979D01*
X0031587Y0109136D01*
X0031283Y0109218D01*
X0028960Y0109218D01*
X0028960Y0106643D01*
X0028960Y0106250D01*
X0032322Y0106250D01*
X0032322Y0104714D01*
X0032241Y0104410D01*
X0032083Y0104137D01*
X0031860Y0103914D01*
X0031587Y0103756D01*
X0031283Y0103675D01*
X0031873Y0103927D02*
X0037260Y0103927D01*
X0037223Y0103948D02*
X0037496Y0103790D01*
X0037800Y0103709D01*
X0040123Y0103709D01*
X0040123Y0106284D01*
X0036761Y0106284D01*
X0036761Y0104748D01*
X0036843Y0104444D01*
X0037000Y0104171D01*
X0037223Y0103948D01*
X0036915Y0104319D02*
X0032188Y0104319D01*
X0032322Y0104711D02*
X0036771Y0104711D01*
X0036761Y0105103D02*
X0032322Y0105103D01*
X0032322Y0105495D02*
X0036761Y0105495D01*
X0036761Y0105888D02*
X0032322Y0105888D01*
X0032322Y0106672D02*
X0040123Y0106672D01*
X0040123Y0106677D02*
X0040123Y0106284D01*
X0040517Y0106284D01*
X0040517Y0106677D01*
X0043879Y0106677D01*
X0043879Y0108213D01*
X0043798Y0108517D01*
X0043640Y0108790D01*
X0043417Y0109013D01*
X0043144Y0109171D01*
X0042840Y0109252D01*
X0040517Y0109252D01*
X0040517Y0106677D01*
X0040123Y0106677D01*
X0036761Y0106677D01*
X0036761Y0108213D01*
X0036843Y0108517D01*
X0037000Y0108790D01*
X0037223Y0109013D01*
X0037496Y0109171D01*
X0037800Y0109252D01*
X0040123Y0109252D01*
X0040123Y0106677D01*
X0040123Y0107064D02*
X0040517Y0107064D01*
X0040517Y0106672D02*
X0053081Y0106672D01*
X0053343Y0106280D02*
X0043879Y0106280D01*
X0043879Y0106284D02*
X0043879Y0104748D01*
X0043798Y0104444D01*
X0043640Y0104171D01*
X0043417Y0103948D01*
X0043144Y0103790D01*
X0042840Y0103709D01*
X0040517Y0103709D01*
X0040517Y0106284D01*
X0043879Y0106284D01*
X0043879Y0105888D02*
X0053605Y0105888D01*
X0053929Y0105495D02*
X0043879Y0105495D01*
X0043879Y0105103D02*
X0054321Y0105103D01*
X0054714Y0104711D02*
X0043869Y0104711D01*
X0043726Y0104319D02*
X0055106Y0104319D01*
X0055498Y0103927D02*
X0043380Y0103927D01*
X0043879Y0107064D02*
X0052819Y0107064D01*
X0052557Y0107457D02*
X0043879Y0107457D01*
X0043879Y0107849D02*
X0052294Y0107849D01*
X0052032Y0108241D02*
X0043872Y0108241D01*
X0043731Y0108633D02*
X0051770Y0108633D01*
X0051508Y0109025D02*
X0043396Y0109025D01*
X0040517Y0109025D02*
X0040123Y0109025D01*
X0040123Y0108633D02*
X0040517Y0108633D01*
X0040517Y0108241D02*
X0040123Y0108241D01*
X0040123Y0107849D02*
X0040517Y0107849D01*
X0040517Y0107457D02*
X0040123Y0107457D01*
X0040123Y0106280D02*
X0040517Y0106280D01*
X0040517Y0105888D02*
X0040123Y0105888D01*
X0040123Y0105495D02*
X0040517Y0105495D01*
X0040517Y0105103D02*
X0040123Y0105103D01*
X0040123Y0104711D02*
X0040517Y0104711D01*
X0040517Y0104319D02*
X0040123Y0104319D01*
X0040123Y0103927D02*
X0040517Y0103927D01*
X0043378Y0101966D02*
X0057459Y0101966D01*
X0057067Y0102358D02*
X0009187Y0102358D01*
X0009326Y0102750D02*
X0056675Y0102750D01*
X0056282Y0103142D02*
X0009466Y0103142D01*
X0009605Y0103534D02*
X0055890Y0103534D01*
X0057851Y0101573D02*
X0043770Y0101573D01*
X0043879Y0101181D02*
X0058243Y0101181D01*
X0058733Y0100789D02*
X0043879Y0100789D01*
X0043879Y0100397D02*
X0059320Y0100397D01*
X0059907Y0100005D02*
X0043879Y0100005D01*
X0043879Y0099612D02*
X0060494Y0099612D01*
X0061081Y0099220D02*
X0043879Y0099220D01*
X0043879Y0098828D02*
X0061668Y0098828D01*
X0062255Y0098436D02*
X0043879Y0098436D01*
X0043879Y0098043D02*
X0062842Y0098043D01*
X0063429Y0097651D02*
X0044151Y0097651D01*
X0045558Y0097259D02*
X0064049Y0097259D01*
X0064996Y0096867D02*
X0046505Y0096867D01*
X0047016Y0096475D02*
X0065943Y0096475D01*
X0066890Y0096082D02*
X0047408Y0096082D01*
X0047687Y0095690D02*
X0067837Y0095690D01*
X0068784Y0095298D02*
X0047850Y0095298D01*
X0048012Y0094906D02*
X0069730Y0094906D01*
X0071302Y0094514D02*
X0048094Y0094514D01*
X0048094Y0094121D02*
X0073274Y0094121D01*
X0075246Y0093729D02*
X0048094Y0093729D01*
X0048052Y0093337D02*
X0152910Y0093337D01*
X0152829Y0093729D02*
X0084628Y0093729D01*
X0086600Y0094121D02*
X0152747Y0094121D01*
X0152666Y0094514D02*
X0088572Y0094514D01*
X0090144Y0094906D02*
X0152584Y0094906D01*
X0152503Y0095298D02*
X0091090Y0095298D01*
X0092037Y0095690D02*
X0117480Y0095690D01*
X0118120Y0095425D02*
X0120494Y0095425D01*
X0122688Y0096334D01*
X0124367Y0098013D01*
X0125276Y0100206D01*
X0125276Y0101969D01*
X0135551Y0101969D01*
X0136252Y0102670D01*
X0136252Y0108386D01*
X0135551Y0109087D01*
X0124717Y0109087D01*
X0124016Y0108386D01*
X0124016Y0105126D01*
X0122688Y0106454D01*
X0120494Y0107362D01*
X0118120Y0107362D01*
X0115926Y0106454D01*
X0114247Y0104775D01*
X0113339Y0102581D01*
X0113339Y0100206D01*
X0114247Y0098013D01*
X0115926Y0096334D01*
X0118120Y0095425D01*
X0116533Y0096082D02*
X0092984Y0096082D01*
X0093931Y0096475D02*
X0115785Y0096475D01*
X0115393Y0096867D02*
X0094878Y0096867D01*
X0095825Y0097259D02*
X0115001Y0097259D01*
X0114609Y0097651D02*
X0096445Y0097651D01*
X0097032Y0098043D02*
X0114235Y0098043D01*
X0114072Y0098436D02*
X0097619Y0098436D01*
X0098206Y0098828D02*
X0113910Y0098828D01*
X0113747Y0099220D02*
X0098793Y0099220D01*
X0099380Y0099612D02*
X0113585Y0099612D01*
X0113422Y0100005D02*
X0099967Y0100005D01*
X0100554Y0100397D02*
X0113339Y0100397D01*
X0113339Y0100789D02*
X0101141Y0100789D01*
X0101631Y0101181D02*
X0113339Y0101181D01*
X0113339Y0101573D02*
X0102023Y0101573D01*
X0102415Y0101966D02*
X0113339Y0101966D01*
X0113339Y0102358D02*
X0102807Y0102358D01*
X0103199Y0102750D02*
X0113409Y0102750D01*
X0113571Y0103142D02*
X0103592Y0103142D01*
X0103984Y0103534D02*
X0113734Y0103534D01*
X0113896Y0103927D02*
X0104376Y0103927D01*
X0104768Y0104319D02*
X0114058Y0104319D01*
X0114221Y0104711D02*
X0105160Y0104711D01*
X0105553Y0105103D02*
X0114576Y0105103D01*
X0114968Y0105495D02*
X0105945Y0105495D01*
X0106269Y0105888D02*
X0115360Y0105888D01*
X0115753Y0106280D02*
X0106531Y0106280D01*
X0106793Y0106672D02*
X0116454Y0106672D01*
X0117401Y0107064D02*
X0107055Y0107064D01*
X0107317Y0107457D02*
X0124016Y0107457D01*
X0124016Y0107849D02*
X0107580Y0107849D01*
X0107842Y0108241D02*
X0124016Y0108241D01*
X0124263Y0108633D02*
X0108104Y0108633D01*
X0108366Y0109025D02*
X0124656Y0109025D01*
X0124717Y0111811D02*
X0124016Y0112512D01*
X0124016Y0118228D01*
X0124717Y0118929D01*
X0135551Y0118929D01*
X0136252Y0118228D01*
X0136252Y0118004D01*
X0136357Y0118004D01*
X0136886Y0118533D01*
X0138061Y0119020D01*
X0139333Y0119020D01*
X0140508Y0118533D01*
X0141407Y0117634D01*
X0141894Y0116459D01*
X0141894Y0115187D01*
X0141407Y0114012D01*
X0140508Y0113113D01*
X0139333Y0112626D01*
X0138061Y0112626D01*
X0136886Y0113113D01*
X0136357Y0113642D01*
X0136252Y0113642D01*
X0136252Y0112512D01*
X0135551Y0111811D01*
X0124717Y0111811D01*
X0124365Y0112163D02*
X0110219Y0112163D01*
X0110057Y0111771D02*
X0146981Y0111771D01*
X0146778Y0112163D02*
X0135903Y0112163D01*
X0136252Y0112555D02*
X0146575Y0112555D01*
X0146371Y0112948D02*
X0140109Y0112948D01*
X0140735Y0113340D02*
X0146168Y0113340D01*
X0145965Y0113732D02*
X0141127Y0113732D01*
X0141453Y0114124D02*
X0145762Y0114124D01*
X0145559Y0114516D02*
X0141616Y0114516D01*
X0141778Y0114909D02*
X0145355Y0114909D01*
X0145152Y0115301D02*
X0141894Y0115301D01*
X0141894Y0115693D02*
X0144949Y0115693D01*
X0144746Y0116085D02*
X0141894Y0116085D01*
X0141886Y0116477D02*
X0144542Y0116477D01*
X0144339Y0116870D02*
X0141723Y0116870D01*
X0141561Y0117262D02*
X0144136Y0117262D01*
X0143933Y0117654D02*
X0141387Y0117654D01*
X0140994Y0118046D02*
X0143729Y0118046D01*
X0143526Y0118438D02*
X0140602Y0118438D01*
X0139789Y0118831D02*
X0143273Y0118831D01*
X0142997Y0119223D02*
X0123931Y0119223D01*
X0123539Y0118831D02*
X0124618Y0118831D01*
X0124226Y0118438D02*
X0123147Y0118438D01*
X0123144Y0118046D02*
X0124016Y0118046D01*
X0124016Y0117654D02*
X0123130Y0117654D01*
X0122968Y0117262D02*
X0124016Y0117262D01*
X0124016Y0116870D02*
X0122805Y0116870D01*
X0122622Y0116477D02*
X0124016Y0116477D01*
X0124016Y0116085D02*
X0122230Y0116085D01*
X0121838Y0115693D02*
X0124016Y0115693D01*
X0124016Y0115301D02*
X0121005Y0115301D01*
X0118889Y0115301D02*
X0111519Y0115301D01*
X0111682Y0115693D02*
X0118056Y0115693D01*
X0117663Y0116085D02*
X0111844Y0116085D01*
X0112006Y0116477D02*
X0117271Y0116477D01*
X0117089Y0116870D02*
X0112169Y0116870D01*
X0112331Y0117262D02*
X0116926Y0117262D01*
X0116764Y0117654D02*
X0112427Y0117654D01*
X0112505Y0118046D02*
X0116750Y0118046D01*
X0116750Y0118438D02*
X0112583Y0118438D01*
X0112661Y0118831D02*
X0116750Y0118831D01*
X0116859Y0119223D02*
X0112739Y0119223D01*
X0112817Y0119615D02*
X0117022Y0119615D01*
X0117184Y0120007D02*
X0112895Y0120007D01*
X0112973Y0120400D02*
X0117503Y0120400D01*
X0117895Y0120792D02*
X0113051Y0120792D01*
X0113129Y0121184D02*
X0118501Y0121184D01*
X0120116Y0121576D02*
X0113207Y0121576D01*
X0113285Y0121968D02*
X0120508Y0121968D01*
X0120900Y0122361D02*
X0113363Y0122361D01*
X0113441Y0122753D02*
X0121292Y0122753D01*
X0121685Y0123145D02*
X0113519Y0123145D01*
X0113597Y0123537D02*
X0117735Y0123537D01*
X0116788Y0123929D02*
X0113661Y0123929D01*
X0113661Y0124322D02*
X0115891Y0124322D01*
X0115499Y0124714D02*
X0113661Y0124714D01*
X0113661Y0125106D02*
X0115107Y0125106D01*
X0114714Y0125498D02*
X0113661Y0125498D01*
X0113661Y0125891D02*
X0114322Y0125891D01*
X0114116Y0126283D02*
X0113661Y0126283D01*
X0113661Y0126675D02*
X0113953Y0126675D01*
X0113791Y0127067D02*
X0113661Y0127067D01*
X0113690Y0131381D02*
X0113487Y0131381D01*
X0113409Y0131774D02*
X0113852Y0131774D01*
X0114015Y0132166D02*
X0113331Y0132166D01*
X0113253Y0132558D02*
X0114177Y0132558D01*
X0114470Y0132950D02*
X0113175Y0132950D01*
X0113097Y0133343D02*
X0114862Y0133343D01*
X0115255Y0133735D02*
X0113019Y0133735D01*
X0112940Y0134127D02*
X0115647Y0134127D01*
X0116199Y0134519D02*
X0112862Y0134519D01*
X0112784Y0134911D02*
X0117146Y0134911D01*
X0118093Y0135304D02*
X0112706Y0135304D01*
X0112628Y0135696D02*
X0128932Y0135696D01*
X0128450Y0136088D02*
X0112550Y0136088D01*
X0112472Y0136480D02*
X0127968Y0136480D01*
X0127486Y0136872D02*
X0112394Y0136872D01*
X0112263Y0137265D02*
X0127004Y0137265D01*
X0126522Y0137657D02*
X0112101Y0137657D01*
X0111938Y0138049D02*
X0126040Y0138049D01*
X0125558Y0138441D02*
X0111776Y0138441D01*
X0111613Y0138834D02*
X0125076Y0138834D01*
X0124594Y0139226D02*
X0111451Y0139226D01*
X0111289Y0139618D02*
X0124111Y0139618D01*
X0123629Y0140010D02*
X0111126Y0140010D01*
X0110964Y0140402D02*
X0123147Y0140402D01*
X0122616Y0140795D02*
X0110801Y0140795D01*
X0110639Y0141187D02*
X0121971Y0141187D01*
X0121326Y0141579D02*
X0110476Y0141579D01*
X0110314Y0141971D02*
X0120681Y0141971D01*
X0120036Y0142363D02*
X0110151Y0142363D01*
X0109989Y0142756D02*
X0119391Y0142756D01*
X0118746Y0143148D02*
X0109826Y0143148D01*
X0109566Y0143540D02*
X0118101Y0143540D01*
X0117456Y0143932D02*
X0109304Y0143932D01*
X0109042Y0144324D02*
X0116811Y0144324D01*
X0116166Y0144717D02*
X0108780Y0144717D01*
X0108518Y0145109D02*
X0115521Y0145109D01*
X0114876Y0145501D02*
X0108256Y0145501D01*
X0107994Y0145893D02*
X0114231Y0145893D01*
X0113364Y0146286D02*
X0107732Y0146286D01*
X0107470Y0146678D02*
X0112461Y0146678D01*
X0111558Y0147070D02*
X0107208Y0147070D01*
X0106946Y0147462D02*
X0110655Y0147462D01*
X0109753Y0147854D02*
X0106684Y0147854D01*
X0106421Y0148247D02*
X0108850Y0148247D01*
X0107947Y0148639D02*
X0106159Y0148639D01*
X0105781Y0149031D02*
X0107044Y0149031D01*
X0106141Y0149423D02*
X0105388Y0149423D01*
X0105238Y0149815D02*
X0104996Y0149815D01*
X0111893Y0156483D02*
X0158255Y0156483D01*
X0158150Y0156709D02*
X0158440Y0156087D01*
X0158617Y0155424D01*
X0158677Y0154740D01*
X0158677Y0106055D01*
X0156188Y0113058D01*
X0150968Y0123132D01*
X0144425Y0132402D01*
X0136680Y0140694D01*
X0127879Y0147855D01*
X0118184Y0153750D01*
X0107777Y0158271D01*
X0106326Y0158677D01*
X0154740Y0158677D01*
X0155424Y0158617D01*
X0156087Y0158440D01*
X0156709Y0158150D01*
X0157271Y0157756D01*
X0157756Y0157271D01*
X0158150Y0156709D01*
X0158033Y0156875D02*
X0110990Y0156875D01*
X0110087Y0157267D02*
X0157758Y0157267D01*
X0157367Y0157660D02*
X0109184Y0157660D01*
X0108281Y0158052D02*
X0156848Y0158052D01*
X0156070Y0158444D02*
X0107158Y0158444D01*
X0107777Y0158271D02*
X0107777Y0158271D01*
X0112796Y0156091D02*
X0158438Y0156091D01*
X0158544Y0155699D02*
X0113698Y0155699D01*
X0114601Y0155306D02*
X0158628Y0155306D01*
X0158662Y0154914D02*
X0115504Y0154914D01*
X0116407Y0154522D02*
X0158677Y0154522D01*
X0158677Y0154130D02*
X0117310Y0154130D01*
X0118205Y0153738D02*
X0158677Y0153738D01*
X0158677Y0153345D02*
X0118850Y0153345D01*
X0119495Y0152953D02*
X0158677Y0152953D01*
X0158677Y0152561D02*
X0120140Y0152561D01*
X0120785Y0152169D02*
X0158677Y0152169D01*
X0158677Y0151777D02*
X0121430Y0151777D01*
X0122075Y0151384D02*
X0158677Y0151384D01*
X0158677Y0150992D02*
X0122720Y0150992D01*
X0123365Y0150600D02*
X0158677Y0150600D01*
X0158677Y0150208D02*
X0124010Y0150208D01*
X0124655Y0149815D02*
X0158677Y0149815D01*
X0158677Y0149423D02*
X0125300Y0149423D01*
X0125945Y0149031D02*
X0158677Y0149031D01*
X0158677Y0148639D02*
X0126589Y0148639D01*
X0127234Y0148247D02*
X0158677Y0148247D01*
X0158677Y0147854D02*
X0127879Y0147854D01*
X0128361Y0147462D02*
X0158677Y0147462D01*
X0158677Y0147070D02*
X0128843Y0147070D01*
X0129326Y0146678D02*
X0158677Y0146678D01*
X0158677Y0146286D02*
X0129808Y0146286D01*
X0130290Y0145893D02*
X0158677Y0145893D01*
X0158677Y0145501D02*
X0130772Y0145501D01*
X0131254Y0145109D02*
X0158677Y0145109D01*
X0158677Y0144717D02*
X0131736Y0144717D01*
X0132218Y0144324D02*
X0158677Y0144324D01*
X0158677Y0143932D02*
X0132700Y0143932D01*
X0133182Y0143540D02*
X0158677Y0143540D01*
X0158677Y0143148D02*
X0133664Y0143148D01*
X0134146Y0142756D02*
X0158677Y0142756D01*
X0158677Y0142363D02*
X0134629Y0142363D01*
X0135111Y0141971D02*
X0158677Y0141971D01*
X0158677Y0141579D02*
X0135593Y0141579D01*
X0136075Y0141187D02*
X0158677Y0141187D01*
X0158677Y0140795D02*
X0136557Y0140795D01*
X0136680Y0140694D02*
X0136680Y0140694D01*
X0136953Y0140402D02*
X0158677Y0140402D01*
X0158677Y0140010D02*
X0137319Y0140010D01*
X0137685Y0139618D02*
X0158677Y0139618D01*
X0158677Y0139226D02*
X0138052Y0139226D01*
X0138418Y0138834D02*
X0158677Y0138834D01*
X0158677Y0138441D02*
X0138784Y0138441D01*
X0139151Y0138049D02*
X0158677Y0138049D01*
X0158677Y0137657D02*
X0139517Y0137657D01*
X0139883Y0137265D02*
X0158677Y0137265D01*
X0158677Y0136872D02*
X0140250Y0136872D01*
X0140616Y0136480D02*
X0158677Y0136480D01*
X0158677Y0136088D02*
X0140982Y0136088D01*
X0141348Y0135696D02*
X0158677Y0135696D01*
X0158677Y0135304D02*
X0141715Y0135304D01*
X0142081Y0134911D02*
X0158677Y0134911D01*
X0158677Y0134519D02*
X0142447Y0134519D01*
X0142814Y0134127D02*
X0158677Y0134127D01*
X0158677Y0133735D02*
X0143180Y0133735D01*
X0143546Y0133343D02*
X0158677Y0133343D01*
X0158677Y0132950D02*
X0143913Y0132950D01*
X0144279Y0132558D02*
X0158677Y0132558D01*
X0158677Y0132166D02*
X0144591Y0132166D01*
X0144425Y0132402D02*
X0144425Y0132402D01*
X0144868Y0131774D02*
X0158677Y0131774D01*
X0158677Y0131381D02*
X0145145Y0131381D01*
X0145422Y0130989D02*
X0158677Y0130989D01*
X0158677Y0130597D02*
X0145699Y0130597D01*
X0145976Y0130205D02*
X0158677Y0130205D01*
X0158677Y0129813D02*
X0146252Y0129813D01*
X0146529Y0129420D02*
X0158677Y0129420D01*
X0158677Y0129028D02*
X0146806Y0129028D01*
X0147083Y0128636D02*
X0158677Y0128636D01*
X0158677Y0128244D02*
X0147360Y0128244D01*
X0147637Y0127852D02*
X0158677Y0127852D01*
X0158677Y0127459D02*
X0147914Y0127459D01*
X0148190Y0127067D02*
X0158677Y0127067D01*
X0158677Y0126675D02*
X0148467Y0126675D01*
X0148744Y0126283D02*
X0158677Y0126283D01*
X0158677Y0125891D02*
X0149021Y0125891D01*
X0149298Y0125498D02*
X0158677Y0125498D01*
X0158677Y0125106D02*
X0149575Y0125106D01*
X0149852Y0124714D02*
X0158677Y0124714D01*
X0158677Y0124322D02*
X0150128Y0124322D01*
X0150405Y0123929D02*
X0158677Y0123929D01*
X0158677Y0123537D02*
X0150682Y0123537D01*
X0150959Y0123145D02*
X0158677Y0123145D01*
X0158677Y0122753D02*
X0151165Y0122753D01*
X0151368Y0122361D02*
X0158677Y0122361D01*
X0158677Y0121968D02*
X0151571Y0121968D01*
X0151774Y0121576D02*
X0158677Y0121576D01*
X0158677Y0121184D02*
X0151978Y0121184D01*
X0152181Y0120792D02*
X0158677Y0120792D01*
X0158677Y0120400D02*
X0152384Y0120400D01*
X0152587Y0120007D02*
X0158677Y0120007D01*
X0158677Y0119615D02*
X0152790Y0119615D01*
X0152994Y0119223D02*
X0158677Y0119223D01*
X0158677Y0118831D02*
X0153197Y0118831D01*
X0153400Y0118438D02*
X0158677Y0118438D01*
X0158677Y0118046D02*
X0153603Y0118046D01*
X0153807Y0117654D02*
X0158677Y0117654D01*
X0158677Y0117262D02*
X0154010Y0117262D01*
X0154213Y0116870D02*
X0158677Y0116870D01*
X0158677Y0116477D02*
X0154416Y0116477D01*
X0154620Y0116085D02*
X0158677Y0116085D01*
X0158677Y0115693D02*
X0154823Y0115693D01*
X0155026Y0115301D02*
X0158677Y0115301D01*
X0158677Y0114909D02*
X0155229Y0114909D01*
X0155432Y0114516D02*
X0158677Y0114516D01*
X0158677Y0114124D02*
X0155636Y0114124D01*
X0155839Y0113732D02*
X0158677Y0113732D01*
X0158677Y0113340D02*
X0156042Y0113340D01*
X0156227Y0112948D02*
X0158677Y0112948D01*
X0158677Y0112555D02*
X0156367Y0112555D01*
X0156506Y0112163D02*
X0158677Y0112163D01*
X0158677Y0111771D02*
X0156646Y0111771D01*
X0156785Y0111379D02*
X0158677Y0111379D01*
X0158677Y0110986D02*
X0156924Y0110986D01*
X0157064Y0110594D02*
X0158677Y0110594D01*
X0158677Y0110202D02*
X0157203Y0110202D01*
X0157343Y0109810D02*
X0158677Y0109810D01*
X0158677Y0109418D02*
X0157482Y0109418D01*
X0157621Y0109025D02*
X0158677Y0109025D01*
X0158677Y0108633D02*
X0157761Y0108633D01*
X0157900Y0108241D02*
X0158677Y0108241D01*
X0158677Y0107849D02*
X0158040Y0107849D01*
X0158179Y0107457D02*
X0158677Y0107457D01*
X0158677Y0107064D02*
X0158318Y0107064D01*
X0158458Y0106672D02*
X0158677Y0106672D01*
X0158677Y0106280D02*
X0158597Y0106280D01*
X0150408Y0103142D02*
X0136252Y0103142D01*
X0136252Y0102750D02*
X0150548Y0102750D01*
X0150687Y0102358D02*
X0135940Y0102358D01*
X0136252Y0103534D02*
X0150269Y0103534D01*
X0150129Y0103927D02*
X0136252Y0103927D01*
X0136252Y0104319D02*
X0149990Y0104319D01*
X0149851Y0104711D02*
X0136252Y0104711D01*
X0136252Y0105103D02*
X0149711Y0105103D01*
X0149572Y0105495D02*
X0136252Y0105495D01*
X0136252Y0105888D02*
X0149432Y0105888D01*
X0149293Y0106280D02*
X0136252Y0106280D01*
X0136252Y0106672D02*
X0149154Y0106672D01*
X0149014Y0107064D02*
X0136252Y0107064D01*
X0136252Y0107457D02*
X0148875Y0107457D01*
X0148735Y0107849D02*
X0136252Y0107849D01*
X0136252Y0108241D02*
X0148596Y0108241D01*
X0148457Y0108633D02*
X0136004Y0108633D01*
X0135612Y0109025D02*
X0148317Y0109025D01*
X0148178Y0109418D02*
X0108628Y0109418D01*
X0108890Y0109810D02*
X0147997Y0109810D01*
X0147794Y0110202D02*
X0109152Y0110202D01*
X0109414Y0110594D02*
X0147591Y0110594D01*
X0147388Y0110986D02*
X0109676Y0110986D01*
X0109894Y0111379D02*
X0147184Y0111379D01*
X0142720Y0119615D02*
X0124324Y0119615D01*
X0124716Y0120007D02*
X0142443Y0120007D01*
X0142166Y0120400D02*
X0125108Y0120400D01*
X0125500Y0120792D02*
X0141889Y0120792D01*
X0141612Y0121184D02*
X0125893Y0121184D01*
X0126285Y0121576D02*
X0141335Y0121576D01*
X0141059Y0121968D02*
X0135866Y0121968D01*
X0136252Y0122361D02*
X0140782Y0122361D01*
X0140505Y0122753D02*
X0136252Y0122753D01*
X0136252Y0123145D02*
X0140228Y0123145D01*
X0139951Y0123537D02*
X0136252Y0123537D01*
X0136252Y0123929D02*
X0139674Y0123929D01*
X0139397Y0124322D02*
X0136252Y0124322D01*
X0136252Y0124714D02*
X0139121Y0124714D01*
X0138844Y0125106D02*
X0136252Y0125106D01*
X0136252Y0125498D02*
X0138567Y0125498D01*
X0138290Y0125891D02*
X0136252Y0125891D01*
X0136252Y0126283D02*
X0138013Y0126283D01*
X0137736Y0126675D02*
X0136252Y0126675D01*
X0136252Y0127067D02*
X0137411Y0127067D01*
X0137045Y0127459D02*
X0136252Y0127459D01*
X0136252Y0127852D02*
X0136679Y0127852D01*
X0136312Y0128244D02*
X0136079Y0128244D01*
X0135946Y0128636D02*
X0135686Y0128636D01*
X0135580Y0129028D02*
X0125276Y0129028D01*
X0125276Y0129420D02*
X0135214Y0129420D01*
X0134847Y0129813D02*
X0125276Y0129813D01*
X0125276Y0130205D02*
X0134481Y0130205D01*
X0134115Y0130597D02*
X0125249Y0130597D01*
X0125087Y0130989D02*
X0133748Y0130989D01*
X0133382Y0131381D02*
X0124924Y0131381D01*
X0124762Y0131774D02*
X0133016Y0131774D01*
X0132649Y0132166D02*
X0124599Y0132166D01*
X0124437Y0132558D02*
X0132283Y0132558D01*
X0131917Y0132950D02*
X0124144Y0132950D01*
X0123752Y0133343D02*
X0131551Y0133343D01*
X0131184Y0133735D02*
X0123359Y0133735D01*
X0122967Y0134127D02*
X0130818Y0134127D01*
X0130379Y0134519D02*
X0122415Y0134519D01*
X0121469Y0134911D02*
X0129897Y0134911D01*
X0129414Y0135304D02*
X0120522Y0135304D01*
X0123900Y0125498D02*
X0124016Y0125498D01*
X0123646Y0125106D02*
X0123507Y0125106D01*
X0123253Y0124714D02*
X0123115Y0124714D01*
X0122861Y0124322D02*
X0122723Y0124322D01*
X0122469Y0123929D02*
X0121826Y0123929D01*
X0122077Y0123537D02*
X0120879Y0123537D01*
X0124016Y0114909D02*
X0111357Y0114909D01*
X0111194Y0114516D02*
X0124016Y0114516D01*
X0124016Y0114124D02*
X0111032Y0114124D01*
X0110869Y0113732D02*
X0124016Y0113732D01*
X0124016Y0113340D02*
X0110707Y0113340D01*
X0110544Y0112948D02*
X0124016Y0112948D01*
X0124016Y0112555D02*
X0110382Y0112555D01*
X0121213Y0107064D02*
X0124016Y0107064D01*
X0124016Y0106672D02*
X0122160Y0106672D01*
X0122862Y0106280D02*
X0124016Y0106280D01*
X0124016Y0105888D02*
X0123254Y0105888D01*
X0123646Y0105495D02*
X0124016Y0105495D01*
X0125276Y0101966D02*
X0150826Y0101966D01*
X0150966Y0101573D02*
X0125276Y0101573D01*
X0125276Y0101181D02*
X0151105Y0101181D01*
X0151244Y0100789D02*
X0125276Y0100789D01*
X0125276Y0100397D02*
X0151384Y0100397D01*
X0151523Y0100005D02*
X0125192Y0100005D01*
X0125029Y0099612D02*
X0151606Y0099612D01*
X0151688Y0099220D02*
X0124867Y0099220D01*
X0124705Y0098828D02*
X0151769Y0098828D01*
X0151851Y0098436D02*
X0124542Y0098436D01*
X0124380Y0098043D02*
X0151932Y0098043D01*
X0152014Y0097651D02*
X0124005Y0097651D01*
X0123613Y0097259D02*
X0152095Y0097259D01*
X0152177Y0096867D02*
X0123221Y0096867D01*
X0122829Y0096475D02*
X0152258Y0096475D01*
X0152340Y0096082D02*
X0122081Y0096082D01*
X0121134Y0095690D02*
X0152421Y0095690D01*
X0152992Y0092945D02*
X0047890Y0092945D01*
X0047727Y0092552D02*
X0153073Y0092552D01*
X0153155Y0092160D02*
X0047505Y0092160D01*
X0047113Y0091768D02*
X0153236Y0091768D01*
X0153318Y0091376D02*
X0046721Y0091376D01*
X0045793Y0090984D02*
X0153399Y0090984D01*
X0153930Y0085100D02*
X0005944Y0085100D01*
X0005917Y0084708D02*
X0153957Y0084708D01*
X0137285Y0112948D02*
X0136252Y0112948D01*
X0136252Y0113340D02*
X0136659Y0113340D01*
X0136399Y0118046D02*
X0136252Y0118046D01*
X0136041Y0118438D02*
X0136791Y0118438D01*
X0137605Y0118831D02*
X0135649Y0118831D01*
X0122933Y0076080D02*
X0043468Y0076080D01*
X0043860Y0075687D02*
X0122540Y0075687D01*
X0122148Y0075295D02*
X0044252Y0075295D01*
X0044644Y0074903D02*
X0121979Y0074903D01*
X0121817Y0074511D02*
X0045037Y0074511D01*
X0045429Y0074119D02*
X0121654Y0074119D01*
X0121650Y0073726D02*
X0045821Y0073726D01*
X0046213Y0073334D02*
X0121650Y0073334D01*
X0121650Y0072942D02*
X0117287Y0072942D01*
X0116969Y0073260D02*
X0106527Y0073260D01*
X0105630Y0072363D01*
X0105630Y0067826D01*
X0106527Y0066929D01*
X0116969Y0066929D01*
X0117866Y0067826D01*
X0117866Y0072363D01*
X0116969Y0073260D01*
X0117679Y0072550D02*
X0121769Y0072550D01*
X0121931Y0072157D02*
X0117866Y0072157D01*
X0117866Y0071765D02*
X0122094Y0071765D01*
X0122426Y0071373D02*
X0117866Y0071373D01*
X0117866Y0070981D02*
X0122818Y0070981D01*
X0123092Y0070589D02*
X0117866Y0070589D01*
X0117866Y0070196D02*
X0123096Y0070196D01*
X0123101Y0069804D02*
X0117866Y0069804D01*
X0117866Y0069412D02*
X0123105Y0069412D01*
X0123109Y0069020D02*
X0117866Y0069020D01*
X0117866Y0068628D02*
X0123114Y0068628D01*
X0123118Y0068235D02*
X0117866Y0068235D01*
X0117866Y0067843D02*
X0122606Y0067843D01*
X0122214Y0067451D02*
X0117491Y0067451D01*
X0117099Y0067059D02*
X0122209Y0067059D01*
X0122209Y0066666D02*
X0040484Y0066666D01*
X0035198Y0058430D02*
X0053033Y0058430D01*
X0052757Y0059214D02*
X0106172Y0059214D01*
X0105779Y0059607D02*
X0053150Y0059607D01*
X0053299Y0059999D02*
X0105630Y0059999D01*
X0105630Y0060391D02*
X0053299Y0060391D01*
X0053299Y0060783D02*
X0105630Y0060783D01*
X0105630Y0061176D02*
X0053299Y0061176D01*
X0053299Y0061568D02*
X0105630Y0061568D01*
X0105630Y0061960D02*
X0053299Y0061960D01*
X0053299Y0062352D02*
X0105630Y0062352D01*
X0105630Y0062744D02*
X0053299Y0062744D01*
X0053299Y0063137D02*
X0105630Y0063137D01*
X0105630Y0063529D02*
X0053299Y0063529D01*
X0053299Y0063921D02*
X0105630Y0063921D01*
X0105630Y0064313D02*
X0053299Y0064313D01*
X0053278Y0064705D02*
X0105651Y0064705D01*
X0106043Y0065098D02*
X0052886Y0065098D01*
X0052728Y0067059D02*
X0106397Y0067059D01*
X0106005Y0067451D02*
X0053120Y0067451D01*
X0053299Y0067843D02*
X0105630Y0067843D01*
X0105630Y0068235D02*
X0053299Y0068235D01*
X0053299Y0068628D02*
X0105630Y0068628D01*
X0105630Y0069020D02*
X0053299Y0069020D01*
X0053299Y0069412D02*
X0105630Y0069412D01*
X0105630Y0069804D02*
X0053299Y0069804D01*
X0053299Y0070196D02*
X0105630Y0070196D01*
X0105630Y0070589D02*
X0053299Y0070589D01*
X0053299Y0070981D02*
X0105630Y0070981D01*
X0105630Y0071373D02*
X0053299Y0071373D01*
X0053299Y0071765D02*
X0105630Y0071765D01*
X0105630Y0072157D02*
X0053299Y0072157D01*
X0053299Y0072550D02*
X0105817Y0072550D01*
X0106209Y0072942D02*
X0052916Y0072942D01*
X0037833Y0085493D02*
X0031364Y0085493D01*
X0031756Y0085885D02*
X0037441Y0085885D01*
X0037285Y0086277D02*
X0031761Y0086277D01*
X0031761Y0086669D02*
X0037285Y0086669D01*
X0037285Y0087062D02*
X0031761Y0087062D01*
X0031761Y0087454D02*
X0037285Y0087454D01*
X0037285Y0087846D02*
X0031761Y0087846D01*
X0031761Y0088238D02*
X0037285Y0088238D01*
X0037285Y0088630D02*
X0031761Y0088630D01*
X0031761Y0089023D02*
X0037285Y0089023D01*
X0037285Y0089415D02*
X0031761Y0089415D01*
X0031761Y0089807D02*
X0037285Y0089807D01*
X0037303Y0090199D02*
X0031593Y0090199D01*
X0031201Y0090591D02*
X0037094Y0090591D01*
X0036701Y0090984D02*
X0030879Y0090984D01*
X0026515Y0090984D02*
X0020839Y0090984D01*
X0021231Y0090591D02*
X0025203Y0090591D01*
X0026123Y0091376D02*
X0006556Y0091376D01*
X0006638Y0091768D02*
X0025881Y0091768D01*
X0025718Y0092160D02*
X0006719Y0092160D01*
X0006801Y0092552D02*
X0025556Y0092552D01*
X0025500Y0092945D02*
X0006882Y0092945D01*
X0006964Y0093337D02*
X0025500Y0093337D01*
X0025500Y0093729D02*
X0007045Y0093729D01*
X0007127Y0094121D02*
X0025567Y0094121D01*
X0025730Y0094514D02*
X0007208Y0094514D01*
X0007290Y0094906D02*
X0025892Y0094906D01*
X0026151Y0095298D02*
X0007371Y0095298D01*
X0007453Y0095690D02*
X0026516Y0095690D01*
X0026516Y0096082D02*
X0007534Y0096082D01*
X0007616Y0096475D02*
X0026516Y0096475D01*
X0025627Y0096867D02*
X0007697Y0096867D01*
X0007779Y0097259D02*
X0025234Y0097259D01*
X0025204Y0097651D02*
X0007860Y0097651D01*
X0007942Y0098043D02*
X0025204Y0098043D01*
X0025204Y0098436D02*
X0008023Y0098436D01*
X0008105Y0098828D02*
X0025204Y0098828D01*
X0025204Y0099220D02*
X0008186Y0099220D01*
X0008268Y0099612D02*
X0025204Y0099612D01*
X0025204Y0100005D02*
X0008351Y0100005D01*
X0008490Y0100397D02*
X0025204Y0100397D01*
X0025204Y0100789D02*
X0008630Y0100789D01*
X0008769Y0101181D02*
X0025204Y0101181D01*
X0025347Y0101573D02*
X0008908Y0101573D01*
X0009048Y0101966D02*
X0025740Y0101966D01*
X0025653Y0103927D02*
X0009745Y0103927D01*
X0009884Y0104319D02*
X0025338Y0104319D01*
X0025205Y0104711D02*
X0010023Y0104711D01*
X0010163Y0105103D02*
X0025204Y0105103D01*
X0025204Y0105495D02*
X0010302Y0105495D01*
X0010442Y0105888D02*
X0025204Y0105888D01*
X0025204Y0106672D02*
X0010720Y0106672D01*
X0010581Y0106280D02*
X0028566Y0106280D01*
X0028566Y0106672D02*
X0028960Y0106672D01*
X0028960Y0106280D02*
X0036761Y0106280D01*
X0036761Y0107064D02*
X0032322Y0107064D01*
X0032322Y0107457D02*
X0036761Y0107457D01*
X0036761Y0107849D02*
X0032322Y0107849D01*
X0032306Y0108241D02*
X0036769Y0108241D01*
X0036910Y0108633D02*
X0032154Y0108633D01*
X0031780Y0109025D02*
X0037245Y0109025D01*
X0028960Y0109025D02*
X0028566Y0109025D01*
X0028566Y0108633D02*
X0028960Y0108633D01*
X0028960Y0108241D02*
X0028566Y0108241D01*
X0028566Y0107849D02*
X0028960Y0107849D01*
X0028960Y0107457D02*
X0028566Y0107457D01*
X0028566Y0107064D02*
X0028960Y0107064D01*
X0028960Y0105888D02*
X0028566Y0105888D01*
X0028566Y0105495D02*
X0028960Y0105495D01*
X0028960Y0105103D02*
X0028566Y0105103D01*
X0028566Y0104711D02*
X0028960Y0104711D01*
X0028960Y0104319D02*
X0028566Y0104319D01*
X0028566Y0103927D02*
X0028960Y0103927D01*
X0025204Y0107064D02*
X0010860Y0107064D01*
X0010999Y0107457D02*
X0025204Y0107457D01*
X0025204Y0107849D02*
X0011139Y0107849D01*
X0011278Y0108241D02*
X0025221Y0108241D01*
X0025372Y0108633D02*
X0011417Y0108633D01*
X0011557Y0109025D02*
X0025747Y0109025D01*
X0016145Y0118046D02*
X0047369Y0118046D01*
X0047447Y0117654D02*
X0015941Y0117654D01*
X0015738Y0117262D02*
X0047543Y0117262D01*
X0047705Y0116870D02*
X0015535Y0116870D01*
X0015332Y0116477D02*
X0047868Y0116477D01*
X0048030Y0116085D02*
X0015128Y0116085D01*
X0014925Y0115693D02*
X0048192Y0115693D01*
X0048355Y0115301D02*
X0014722Y0115301D01*
X0014519Y0114909D02*
X0048517Y0114909D01*
X0048680Y0114516D02*
X0014315Y0114516D01*
X0014112Y0114124D02*
X0048842Y0114124D01*
X0049005Y0113732D02*
X0013909Y0113732D01*
X0013706Y0113340D02*
X0049167Y0113340D01*
X0049330Y0112948D02*
X0013503Y0112948D01*
X0013299Y0112555D02*
X0049492Y0112555D01*
X0049655Y0112163D02*
X0013096Y0112163D01*
X0012893Y0111771D02*
X0049817Y0111771D01*
X0049980Y0111379D02*
X0012690Y0111379D01*
X0012486Y0110986D02*
X0050198Y0110986D01*
X0050460Y0110594D02*
X0012283Y0110594D01*
X0012080Y0110202D02*
X0050722Y0110202D01*
X0050984Y0109810D02*
X0011877Y0109810D01*
X0011696Y0109418D02*
X0051246Y0109418D01*
X0047291Y0118438D02*
X0016348Y0118438D01*
X0016601Y0118831D02*
X0047213Y0118831D01*
X0047135Y0119223D02*
X0016877Y0119223D01*
X0017154Y0119615D02*
X0047057Y0119615D01*
X0046979Y0120007D02*
X0017431Y0120007D01*
X0017708Y0120400D02*
X0046901Y0120400D01*
X0046823Y0120792D02*
X0017985Y0120792D01*
X0018262Y0121184D02*
X0046745Y0121184D01*
X0046667Y0121576D02*
X0018539Y0121576D01*
X0018815Y0121968D02*
X0046589Y0121968D01*
X0046511Y0122361D02*
X0019092Y0122361D01*
X0019369Y0122753D02*
X0046433Y0122753D01*
X0046355Y0123145D02*
X0019646Y0123145D01*
X0019923Y0123537D02*
X0046277Y0123537D01*
X0046213Y0123929D02*
X0020200Y0123929D01*
X0020477Y0124322D02*
X0046213Y0124322D01*
X0046213Y0124714D02*
X0020753Y0124714D01*
X0021030Y0125106D02*
X0046213Y0125106D01*
X0046213Y0125498D02*
X0021307Y0125498D01*
X0021584Y0125891D02*
X0046213Y0125891D01*
X0046213Y0126283D02*
X0021861Y0126283D01*
X0022138Y0126675D02*
X0046213Y0126675D01*
X0046213Y0127067D02*
X0022463Y0127067D01*
X0022829Y0127459D02*
X0046213Y0127459D01*
X0046213Y0127852D02*
X0023195Y0127852D01*
X0023562Y0128244D02*
X0046213Y0128244D01*
X0046213Y0128636D02*
X0023928Y0128636D01*
X0024294Y0129028D02*
X0046213Y0129028D01*
X0046213Y0129420D02*
X0024660Y0129420D01*
X0025027Y0129813D02*
X0046213Y0129813D01*
X0046213Y0130205D02*
X0025393Y0130205D01*
X0025759Y0130597D02*
X0046231Y0130597D01*
X0046309Y0130989D02*
X0026126Y0130989D01*
X0026492Y0131381D02*
X0046387Y0131381D01*
X0046465Y0131774D02*
X0026858Y0131774D01*
X0027225Y0132166D02*
X0046543Y0132166D01*
X0046621Y0132558D02*
X0027591Y0132558D01*
X0027957Y0132950D02*
X0046699Y0132950D01*
X0046777Y0133343D02*
X0028323Y0133343D01*
X0028690Y0133735D02*
X0046856Y0133735D01*
X0046934Y0134127D02*
X0029056Y0134127D01*
X0029495Y0134519D02*
X0047012Y0134519D01*
X0047090Y0134911D02*
X0029977Y0134911D01*
X0030460Y0135304D02*
X0047168Y0135304D01*
X0047246Y0135696D02*
X0030942Y0135696D01*
X0031424Y0136088D02*
X0047324Y0136088D01*
X0047402Y0136480D02*
X0031906Y0136480D01*
X0032388Y0136872D02*
X0047480Y0136872D01*
X0047611Y0137265D02*
X0032870Y0137265D01*
X0033352Y0137657D02*
X0047773Y0137657D01*
X0047936Y0138049D02*
X0033834Y0138049D01*
X0034316Y0138441D02*
X0048098Y0138441D01*
X0048261Y0138834D02*
X0034798Y0138834D01*
X0035280Y0139226D02*
X0048423Y0139226D01*
X0048585Y0139618D02*
X0035763Y0139618D01*
X0036245Y0140010D02*
X0048748Y0140010D01*
X0048910Y0140402D02*
X0036727Y0140402D01*
X0037258Y0140795D02*
X0049073Y0140795D01*
X0049235Y0141187D02*
X0037903Y0141187D01*
X0038548Y0141579D02*
X0049398Y0141579D01*
X0049560Y0141971D02*
X0039193Y0141971D01*
X0039838Y0142363D02*
X0049723Y0142363D01*
X0049885Y0142756D02*
X0040483Y0142756D01*
X0041128Y0143148D02*
X0050048Y0143148D01*
X0050308Y0143540D02*
X0041773Y0143540D01*
X0042418Y0143932D02*
X0050570Y0143932D01*
X0050832Y0144324D02*
X0043063Y0144324D01*
X0043708Y0144717D02*
X0051094Y0144717D01*
X0051356Y0145109D02*
X0044353Y0145109D01*
X0044998Y0145501D02*
X0051618Y0145501D01*
X0051880Y0145893D02*
X0045643Y0145893D01*
X0046510Y0146286D02*
X0052142Y0146286D01*
X0052404Y0146678D02*
X0047413Y0146678D01*
X0048316Y0147070D02*
X0052666Y0147070D01*
X0052928Y0147462D02*
X0049219Y0147462D01*
X0050121Y0147854D02*
X0053190Y0147854D01*
X0053453Y0148247D02*
X0051024Y0148247D01*
X0051927Y0148639D02*
X0053715Y0148639D01*
X0054093Y0149031D02*
X0052830Y0149031D01*
X0053733Y0149423D02*
X0054486Y0149423D01*
X0054636Y0149815D02*
X0054878Y0149815D01*
X0047981Y0156483D02*
X0001197Y0156483D01*
X0001197Y0156091D02*
X0047078Y0156091D01*
X0046176Y0155699D02*
X0001197Y0155699D01*
X0001197Y0155306D02*
X0045273Y0155306D01*
X0044370Y0154914D02*
X0001197Y0154914D01*
X0001197Y0154522D02*
X0043467Y0154522D01*
X0042564Y0154130D02*
X0001197Y0154130D01*
X0001197Y0153738D02*
X0041669Y0153738D01*
X0041690Y0153750D02*
X0031995Y0147855D01*
X0023194Y0140694D01*
X0015449Y0132402D01*
X0015449Y0132402D01*
X0008906Y0123132D01*
X0003686Y0113058D01*
X0001197Y0106055D01*
X0001197Y0158677D01*
X0053548Y0158677D01*
X0052097Y0158271D01*
X0041690Y0153750D01*
X0041690Y0153750D01*
X0041024Y0153345D02*
X0001197Y0153345D01*
X0001197Y0152953D02*
X0040379Y0152953D01*
X0039734Y0152561D02*
X0001197Y0152561D01*
X0001197Y0152169D02*
X0039089Y0152169D01*
X0038444Y0151777D02*
X0001197Y0151777D01*
X0001197Y0151384D02*
X0037799Y0151384D01*
X0037154Y0150992D02*
X0001197Y0150992D01*
X0001197Y0150600D02*
X0036509Y0150600D01*
X0035864Y0150208D02*
X0001197Y0150208D01*
X0001197Y0149815D02*
X0035219Y0149815D01*
X0034574Y0149423D02*
X0001197Y0149423D01*
X0001197Y0149031D02*
X0033930Y0149031D01*
X0033285Y0148639D02*
X0001197Y0148639D01*
X0001197Y0148247D02*
X0032640Y0148247D01*
X0031995Y0147855D02*
X0031995Y0147855D01*
X0031995Y0147854D02*
X0001197Y0147854D01*
X0001197Y0147462D02*
X0031513Y0147462D01*
X0031031Y0147070D02*
X0001197Y0147070D01*
X0001197Y0146678D02*
X0030549Y0146678D01*
X0030066Y0146286D02*
X0001197Y0146286D01*
X0001197Y0145893D02*
X0029584Y0145893D01*
X0029102Y0145501D02*
X0001197Y0145501D01*
X0001197Y0145109D02*
X0028620Y0145109D01*
X0028138Y0144717D02*
X0001197Y0144717D01*
X0001197Y0144324D02*
X0027656Y0144324D01*
X0027174Y0143932D02*
X0001197Y0143932D01*
X0001197Y0143540D02*
X0026692Y0143540D01*
X0026210Y0143148D02*
X0001197Y0143148D01*
X0001197Y0142756D02*
X0025728Y0142756D01*
X0025245Y0142363D02*
X0001197Y0142363D01*
X0001197Y0141971D02*
X0024763Y0141971D01*
X0024281Y0141579D02*
X0001197Y0141579D01*
X0001197Y0141187D02*
X0023799Y0141187D01*
X0023317Y0140795D02*
X0001197Y0140795D01*
X0001197Y0140402D02*
X0022921Y0140402D01*
X0023194Y0140694D02*
X0023194Y0140694D01*
X0023194Y0140694D01*
X0022555Y0140010D02*
X0001197Y0140010D01*
X0001197Y0139618D02*
X0022189Y0139618D01*
X0021822Y0139226D02*
X0001197Y0139226D01*
X0001197Y0138834D02*
X0021456Y0138834D01*
X0021090Y0138441D02*
X0001197Y0138441D01*
X0001197Y0138049D02*
X0020723Y0138049D01*
X0020357Y0137657D02*
X0001197Y0137657D01*
X0001197Y0137265D02*
X0019991Y0137265D01*
X0019624Y0136872D02*
X0001197Y0136872D01*
X0001197Y0136480D02*
X0019258Y0136480D01*
X0018892Y0136088D02*
X0001197Y0136088D01*
X0001197Y0135696D02*
X0018526Y0135696D01*
X0018159Y0135304D02*
X0001197Y0135304D01*
X0001197Y0134911D02*
X0017793Y0134911D01*
X0017427Y0134519D02*
X0001197Y0134519D01*
X0001197Y0134127D02*
X0017060Y0134127D01*
X0016694Y0133735D02*
X0001197Y0133735D01*
X0001197Y0133343D02*
X0016328Y0133343D01*
X0015961Y0132950D02*
X0001197Y0132950D01*
X0001197Y0132558D02*
X0015595Y0132558D01*
X0015283Y0132166D02*
X0001197Y0132166D01*
X0001197Y0131774D02*
X0015006Y0131774D01*
X0014729Y0131381D02*
X0001197Y0131381D01*
X0001197Y0130989D02*
X0014452Y0130989D01*
X0014175Y0130597D02*
X0001197Y0130597D01*
X0001197Y0130205D02*
X0013898Y0130205D01*
X0013622Y0129813D02*
X0001197Y0129813D01*
X0001197Y0129420D02*
X0013345Y0129420D01*
X0013068Y0129028D02*
X0001197Y0129028D01*
X0001197Y0128636D02*
X0012791Y0128636D01*
X0012514Y0128244D02*
X0001197Y0128244D01*
X0001197Y0127852D02*
X0012237Y0127852D01*
X0011960Y0127459D02*
X0001197Y0127459D01*
X0001197Y0127067D02*
X0011684Y0127067D01*
X0011407Y0126675D02*
X0001197Y0126675D01*
X0001197Y0126283D02*
X0011130Y0126283D01*
X0010853Y0125891D02*
X0001197Y0125891D01*
X0001197Y0125498D02*
X0010576Y0125498D01*
X0010299Y0125106D02*
X0001197Y0125106D01*
X0001197Y0124714D02*
X0010022Y0124714D01*
X0009746Y0124322D02*
X0001197Y0124322D01*
X0001197Y0123929D02*
X0009469Y0123929D01*
X0009192Y0123537D02*
X0001197Y0123537D01*
X0001197Y0123145D02*
X0008915Y0123145D01*
X0008906Y0123132D02*
X0008906Y0123132D01*
X0008709Y0122753D02*
X0001197Y0122753D01*
X0001197Y0122361D02*
X0008506Y0122361D01*
X0008303Y0121968D02*
X0001197Y0121968D01*
X0001197Y0121576D02*
X0008100Y0121576D01*
X0007896Y0121184D02*
X0001197Y0121184D01*
X0001197Y0120792D02*
X0007693Y0120792D01*
X0007490Y0120400D02*
X0001197Y0120400D01*
X0001197Y0120007D02*
X0007287Y0120007D01*
X0007084Y0119615D02*
X0001197Y0119615D01*
X0001197Y0119223D02*
X0006880Y0119223D01*
X0006677Y0118831D02*
X0001197Y0118831D01*
X0001197Y0118438D02*
X0006474Y0118438D01*
X0006271Y0118046D02*
X0001197Y0118046D01*
X0001197Y0117654D02*
X0006067Y0117654D01*
X0005864Y0117262D02*
X0001197Y0117262D01*
X0001197Y0116870D02*
X0005661Y0116870D01*
X0005458Y0116477D02*
X0001197Y0116477D01*
X0001197Y0116085D02*
X0005254Y0116085D01*
X0005051Y0115693D02*
X0001197Y0115693D01*
X0001197Y0115301D02*
X0004848Y0115301D01*
X0004645Y0114909D02*
X0001197Y0114909D01*
X0001197Y0114516D02*
X0004442Y0114516D01*
X0004238Y0114124D02*
X0001197Y0114124D01*
X0001197Y0113732D02*
X0004035Y0113732D01*
X0003832Y0113340D02*
X0001197Y0113340D01*
X0001197Y0112948D02*
X0003647Y0112948D01*
X0003686Y0113058D02*
X0003686Y0113058D01*
X0003507Y0112555D02*
X0001197Y0112555D01*
X0001197Y0112163D02*
X0003368Y0112163D01*
X0003228Y0111771D02*
X0001197Y0111771D01*
X0001197Y0111379D02*
X0003089Y0111379D01*
X0002950Y0110986D02*
X0001197Y0110986D01*
X0001197Y0110594D02*
X0002810Y0110594D01*
X0002671Y0110202D02*
X0001197Y0110202D01*
X0001197Y0109810D02*
X0002531Y0109810D01*
X0002392Y0109418D02*
X0001197Y0109418D01*
X0001197Y0109025D02*
X0002253Y0109025D01*
X0002113Y0108633D02*
X0001197Y0108633D01*
X0001197Y0108241D02*
X0001974Y0108241D01*
X0001834Y0107849D02*
X0001197Y0107849D01*
X0001197Y0107457D02*
X0001695Y0107457D01*
X0001556Y0107064D02*
X0001197Y0107064D01*
X0001197Y0106672D02*
X0001416Y0106672D01*
X0001277Y0106280D02*
X0001197Y0106280D01*
X0006475Y0090984D02*
X0015059Y0090984D01*
X0014667Y0090591D02*
X0006393Y0090591D01*
X0006312Y0090199D02*
X0014390Y0090199D01*
X0014390Y0089807D02*
X0006266Y0089807D01*
X0006239Y0089415D02*
X0014390Y0089415D01*
X0014390Y0089023D02*
X0006212Y0089023D01*
X0006185Y0088630D02*
X0014390Y0088630D01*
X0014390Y0088238D02*
X0006158Y0088238D01*
X0006132Y0087846D02*
X0014390Y0087846D01*
X0014390Y0087454D02*
X0006105Y0087454D01*
X0006078Y0087062D02*
X0014390Y0087062D01*
X0014390Y0086669D02*
X0006051Y0086669D01*
X0006024Y0086277D02*
X0014390Y0086277D01*
X0014678Y0085885D02*
X0005997Y0085885D01*
X0005971Y0085493D02*
X0015071Y0085493D01*
X0020827Y0085493D02*
X0025040Y0085493D01*
X0024648Y0085885D02*
X0021219Y0085885D01*
X0020812Y0083924D02*
X0032830Y0083924D01*
X0031885Y0083532D02*
X0031174Y0083532D01*
X0031391Y0078433D02*
X0031566Y0078433D01*
X0032060Y0078041D02*
X0020484Y0078041D01*
X0020854Y0078433D02*
X0025013Y0078433D01*
X0024643Y0078825D02*
X0021246Y0078825D01*
X0021508Y0079217D02*
X0024643Y0079217D01*
X0024643Y0079609D02*
X0021508Y0079609D01*
X0021508Y0080002D02*
X0024643Y0080002D01*
X0024643Y0080394D02*
X0021508Y0080394D01*
X0021508Y0080786D02*
X0024643Y0080786D01*
X0024643Y0081178D02*
X0021508Y0081178D01*
X0021508Y0081571D02*
X0024643Y0081571D01*
X0024643Y0081963D02*
X0021508Y0081963D01*
X0021508Y0082355D02*
X0024643Y0082355D01*
X0024643Y0082747D02*
X0021508Y0082747D01*
X0021508Y0083139D02*
X0024838Y0083139D01*
X0025230Y0083532D02*
X0021204Y0083532D01*
X0028659Y0049801D02*
X0012013Y0049801D01*
X0012216Y0049409D02*
X0029051Y0049409D01*
X0029444Y0049017D02*
X0012419Y0049017D01*
X0012623Y0048625D02*
X0029836Y0048625D01*
X0030665Y0048233D02*
X0012826Y0048233D01*
X0013029Y0047840D02*
X0031612Y0047840D01*
X0031377Y0047448D02*
X0013232Y0047448D01*
X0013436Y0047056D02*
X0030430Y0047056D01*
X0029738Y0046664D02*
X0013639Y0046664D01*
X0013842Y0046271D02*
X0029346Y0046271D01*
X0028954Y0045879D02*
X0014045Y0045879D01*
X0014248Y0045487D02*
X0028562Y0045487D01*
X0028388Y0045095D02*
X0014452Y0045095D01*
X0014655Y0044703D02*
X0028225Y0044703D01*
X0028063Y0044310D02*
X0014858Y0044310D01*
X0015061Y0043918D02*
X0027900Y0043918D01*
X0027796Y0043526D02*
X0015265Y0043526D01*
X0015468Y0043134D02*
X0027796Y0043134D01*
X0027796Y0042742D02*
X0015671Y0042742D01*
X0015874Y0042349D02*
X0027796Y0042349D01*
X0027796Y0041957D02*
X0016077Y0041957D01*
X0016281Y0041565D02*
X0027860Y0041565D01*
X0028022Y0041173D02*
X0016509Y0041173D01*
X0016786Y0040780D02*
X0028185Y0040780D01*
X0028347Y0040388D02*
X0017063Y0040388D01*
X0017340Y0039996D02*
X0028510Y0039996D01*
X0028857Y0039604D02*
X0017617Y0039604D01*
X0017894Y0039212D02*
X0029249Y0039212D01*
X0029641Y0038819D02*
X0018170Y0038819D01*
X0018447Y0038427D02*
X0030195Y0038427D01*
X0036237Y0036074D02*
X0038418Y0036074D01*
X0038810Y0035682D02*
X0036629Y0035682D01*
X0036918Y0035290D02*
X0039202Y0035290D01*
X0039595Y0034897D02*
X0037080Y0034897D01*
X0037243Y0034505D02*
X0039987Y0034505D01*
X0040379Y0034113D02*
X0037405Y0034113D01*
X0037568Y0033721D02*
X0040771Y0033721D01*
X0041163Y0033328D02*
X0037590Y0033328D01*
X0037590Y0032936D02*
X0041063Y0032936D01*
X0041063Y0032544D02*
X0037590Y0032544D01*
X0037590Y0032152D02*
X0041063Y0032152D01*
X0041063Y0031760D02*
X0037590Y0031760D01*
X0037444Y0031367D02*
X0041063Y0031367D01*
X0041063Y0030975D02*
X0037282Y0030975D01*
X0037119Y0030583D02*
X0041063Y0030583D01*
X0041063Y0030191D02*
X0036957Y0030191D01*
X0036724Y0029799D02*
X0041063Y0029799D01*
X0041063Y0029406D02*
X0036391Y0029406D01*
X0036783Y0029014D02*
X0041063Y0029014D01*
X0041063Y0028622D02*
X0037176Y0028622D01*
X0037568Y0028230D02*
X0041093Y0028230D01*
X0041486Y0027837D02*
X0037960Y0027837D01*
X0039921Y0025876D02*
X0041625Y0025876D01*
X0041233Y0025484D02*
X0040313Y0025484D01*
X0041673Y0018424D02*
X0038335Y0018424D01*
X0038980Y0018032D02*
X0041281Y0018032D01*
X0041063Y0017640D02*
X0039625Y0017640D01*
X0040270Y0017248D02*
X0041063Y0017248D01*
X0041063Y0016856D02*
X0040915Y0016856D01*
X0052847Y0035682D02*
X0053067Y0035682D01*
X0055978Y0035290D02*
X0123015Y0035290D01*
X0122808Y0034897D02*
X0105232Y0034897D01*
X0105786Y0034505D02*
X0122621Y0034505D01*
X0122494Y0034113D02*
X0106178Y0034113D01*
X0106082Y0035682D02*
X0056827Y0035682D01*
X0057219Y0036074D02*
X0105690Y0036074D01*
X0105630Y0036466D02*
X0104550Y0036466D01*
X0106112Y0043526D02*
X0052817Y0043526D01*
X0100766Y0050194D02*
X0121790Y0050194D01*
X0121398Y0049801D02*
X0101713Y0049801D01*
X0102132Y0049409D02*
X0106102Y0049409D01*
X0105710Y0049017D02*
X0102524Y0049017D01*
X0117394Y0049409D02*
X0121005Y0049409D01*
X0120613Y0049017D02*
X0117786Y0049017D01*
X0117354Y0051370D02*
X0122303Y0051370D01*
X0122303Y0051762D02*
X0117746Y0051762D01*
X0117866Y0052155D02*
X0122303Y0052155D01*
X0122303Y0052547D02*
X0117866Y0052547D01*
X0117866Y0052939D02*
X0122303Y0052939D01*
X0122303Y0053331D02*
X0117866Y0053331D01*
X0117866Y0053723D02*
X0122303Y0053723D01*
X0122303Y0054116D02*
X0117866Y0054116D01*
X0117866Y0054508D02*
X0122303Y0054508D01*
X0122303Y0054900D02*
X0117866Y0054900D01*
X0117866Y0055292D02*
X0122303Y0055292D01*
X0122303Y0055685D02*
X0117866Y0055685D01*
X0117866Y0056077D02*
X0122303Y0056077D01*
X0122303Y0056469D02*
X0117866Y0056469D01*
X0117816Y0056861D02*
X0122491Y0056861D01*
X0122884Y0057253D02*
X0117423Y0057253D01*
X0124100Y0047448D02*
X0125865Y0047448D01*
X0124918Y0047056D02*
X0123708Y0047056D01*
X0123315Y0046664D02*
X0124227Y0046664D01*
X0123834Y0046271D02*
X0122923Y0046271D01*
X0122531Y0045879D02*
X0123442Y0045879D01*
X0123050Y0045487D02*
X0122139Y0045487D01*
X0122510Y0041173D02*
X0117756Y0041173D01*
X0117866Y0040780D02*
X0122673Y0040780D01*
X0122835Y0040388D02*
X0117866Y0040388D01*
X0117866Y0039996D02*
X0122998Y0039996D01*
X0123345Y0039604D02*
X0117866Y0039604D01*
X0117866Y0039212D02*
X0123737Y0039212D01*
X0124129Y0038819D02*
X0117866Y0038819D01*
X0117866Y0038427D02*
X0124683Y0038427D01*
X0126984Y0037251D02*
X0127378Y0037251D01*
X0132053Y0032152D02*
X0136800Y0032152D01*
X0136433Y0031760D02*
X0131991Y0031760D01*
X0131899Y0031367D02*
X0136067Y0031367D01*
X0135701Y0030975D02*
X0131772Y0030975D01*
X0131602Y0030583D02*
X0135334Y0030583D01*
X0134968Y0030191D02*
X0131402Y0030191D01*
X0131131Y0029799D02*
X0134602Y0029799D01*
X0134235Y0029406D02*
X0130820Y0029406D01*
X0130428Y0029014D02*
X0133869Y0029014D01*
X0133503Y0028622D02*
X0129909Y0028622D01*
X0129208Y0028230D02*
X0133137Y0028230D01*
X0126534Y0027837D02*
X0117443Y0027837D01*
X0117836Y0028230D02*
X0125154Y0028230D01*
X0124453Y0028622D02*
X0117866Y0028622D01*
X0117866Y0029014D02*
X0123935Y0029014D01*
X0123542Y0029406D02*
X0117866Y0029406D01*
X0117866Y0029799D02*
X0123231Y0029799D01*
X0122960Y0030191D02*
X0117866Y0030191D01*
X0117866Y0030583D02*
X0122760Y0030583D01*
X0122590Y0030975D02*
X0117866Y0030975D01*
X0117866Y0031367D02*
X0122463Y0031367D01*
X0122371Y0031760D02*
X0117866Y0031760D01*
X0117148Y0018424D02*
X0121539Y0018424D01*
X0120894Y0018032D02*
X0117639Y0018032D01*
X0117822Y0017640D02*
X0120249Y0017640D01*
X0119604Y0017248D02*
X0117866Y0017248D01*
X0117866Y0016856D02*
X0118959Y0016856D01*
X0118314Y0016463D02*
X0117866Y0016463D01*
X0052097Y0158271D02*
X0052097Y0158271D01*
X0051593Y0158052D02*
X0001197Y0158052D01*
X0001197Y0158444D02*
X0052716Y0158444D01*
X0050690Y0157660D02*
X0001197Y0157660D01*
X0001197Y0157267D02*
X0049787Y0157267D01*
X0048884Y0156875D02*
X0001197Y0156875D01*
D17*
X0037462Y0102166D02*
X0037447Y0102073D01*
X0040320Y0099394D02*
X0041197Y0098323D01*
X0044897Y0094073D01*
X0040844Y0081025D02*
X0041197Y0080823D01*
X0041197Y0075823D01*
X0044947Y0072073D01*
X0044947Y0070823D01*
X0046197Y0070823D01*
X0047181Y0070094D01*
X0046197Y0063323D02*
X0041197Y0063323D01*
X0038697Y0065823D01*
X0038697Y0069573D01*
X0018697Y0069573D01*
X0018697Y0060823D01*
X0017713Y0060350D01*
X0018697Y0069573D02*
X0018697Y0080823D01*
X0017949Y0081157D01*
X0028202Y0080874D02*
X0028697Y0080823D01*
X0033697Y0080823D01*
X0046197Y0063323D02*
X0047181Y0062220D01*
X0047447Y0054573D02*
X0047181Y0054346D01*
X0047447Y0054573D02*
X0053697Y0054573D01*
X0054947Y0055823D01*
X0047181Y0038598D02*
X0047447Y0038323D01*
X0054947Y0038323D01*
X0047181Y0030724D02*
X0046197Y0030823D01*
X0037447Y0039573D01*
X0036197Y0039573D01*
X0033697Y0042073D01*
X0032693Y0042693D01*
X0032693Y0032693D02*
X0033697Y0032073D01*
X0033697Y0029573D01*
X0039947Y0023323D01*
X0046197Y0023323D01*
X0047181Y0022850D01*
X0099947Y0047073D02*
X0111197Y0047073D01*
X0111748Y0046472D01*
X0112447Y0047073D01*
X0121197Y0047073D01*
X0124947Y0050823D01*
X0124947Y0053323D01*
X0125075Y0053815D01*
X0124947Y0064573D02*
X0124981Y0064588D01*
X0124947Y0064573D02*
X0124847Y0073473D01*
X0111748Y0038598D02*
X0111197Y0038323D01*
X0104947Y0038323D01*
X0103697Y0039573D01*
X0104947Y0023323D02*
X0111197Y0023323D01*
X0111748Y0022850D01*
X0104947Y0023323D02*
X0103697Y0022073D01*
D18*
X0104947Y0030823D02*
X0111197Y0030823D01*
X0111748Y0030724D01*
X0104947Y0030823D02*
X0103697Y0032073D01*
X0132161Y0053815D02*
X0132447Y0054573D01*
X0132447Y0059573D01*
X0132447Y0064573D01*
X0132067Y0064588D01*
X0130134Y0115370D02*
X0131197Y0115823D01*
X0138697Y0115823D01*
X0129947Y0124573D02*
X0130134Y0125213D01*
X0129947Y0124573D02*
X0126197Y0124573D01*
X0119947Y0118323D01*
X0040844Y0088111D02*
X0039947Y0088323D01*
X0039947Y0090823D01*
X0037447Y0093323D01*
X0028697Y0093323D01*
X0028697Y0098323D01*
X0028763Y0099360D01*
X0028697Y0093323D02*
X0028697Y0088323D01*
X0028202Y0087960D01*
X0027447Y0088323D01*
X0018697Y0088323D01*
X0017949Y0088244D01*
X0047447Y0015823D02*
X0047181Y0015350D01*
X0047447Y0015823D02*
X0054947Y0015823D01*
D19*
X0054947Y0015823D03*
X0054947Y0038323D03*
X0054947Y0055823D03*
X0033697Y0080823D03*
X0028697Y0093323D03*
X0044897Y0094073D03*
X0099947Y0047073D03*
X0103697Y0039573D03*
X0103697Y0032073D03*
X0103697Y0022073D03*
X0132447Y0059573D03*
X0124847Y0073473D03*
X0138697Y0115823D03*
X0119947Y0118323D03*
M02*
