G75*
%MOIN*%
%OFA0B0*%
%FSLAX25Y25*%
%IPPOS*%
%LPD*%
%AMOC8*
5,1,8,0,0,1.08239X$1,22.5*
%
%ADD10C,0.07400*%
%ADD11C,0.00394*%
%ADD12C,0.01969*%
%ADD13C,0.04000*%
%ADD14C,0.01181*%
%ADD15C,0.01200*%
D10*
X0032693Y0032693D03*
X0032693Y0042693D03*
X0032693Y0052693D03*
X0032693Y0062693D03*
X0127181Y0042693D03*
X0127181Y0032693D03*
D11*
X0050392Y0002344D02*
X0002377Y0002344D01*
X0002603Y0002118D02*
X0002118Y0002603D01*
X0001724Y0003165D01*
X0001434Y0003787D01*
X0001257Y0004450D01*
X0001197Y0005134D01*
X0001197Y0053819D01*
X0003686Y0046816D01*
X0008906Y0036742D01*
X0015449Y0027472D01*
X0023194Y0019180D01*
X0031995Y0012019D01*
X0031995Y0012019D01*
X0041690Y0006124D01*
X0052097Y0001603D01*
X0052097Y0001603D01*
X0053548Y0001197D01*
X0005134Y0001197D01*
X0004450Y0001257D01*
X0003787Y0001434D01*
X0003165Y0001724D01*
X0002603Y0002118D01*
X0002841Y0001952D02*
X0051295Y0001952D01*
X0052254Y0001559D02*
X0003519Y0001559D01*
X0002025Y0002736D02*
X0049489Y0002736D01*
X0048586Y0003128D02*
X0001750Y0003128D01*
X0001559Y0003520D02*
X0047684Y0003520D01*
X0046781Y0003913D02*
X0001401Y0003913D01*
X0001296Y0004305D02*
X0045878Y0004305D01*
X0044975Y0004697D02*
X0001235Y0004697D01*
X0001201Y0005089D02*
X0044072Y0005089D01*
X0043169Y0005481D02*
X0001197Y0005481D01*
X0001197Y0005874D02*
X0042266Y0005874D01*
X0041690Y0006124D02*
X0041690Y0006124D01*
X0041456Y0006266D02*
X0001197Y0006266D01*
X0001197Y0006658D02*
X0040811Y0006658D01*
X0040166Y0007050D02*
X0001197Y0007050D01*
X0001197Y0007442D02*
X0039521Y0007442D01*
X0038876Y0007835D02*
X0001197Y0007835D01*
X0001197Y0008227D02*
X0038231Y0008227D01*
X0037586Y0008619D02*
X0001197Y0008619D01*
X0001197Y0009011D02*
X0036941Y0009011D01*
X0036297Y0009404D02*
X0001197Y0009404D01*
X0001197Y0009796D02*
X0035652Y0009796D01*
X0035007Y0010188D02*
X0001197Y0010188D01*
X0001197Y0010580D02*
X0034362Y0010580D01*
X0033717Y0010972D02*
X0001197Y0010972D01*
X0001197Y0011365D02*
X0033072Y0011365D01*
X0032427Y0011757D02*
X0001197Y0011757D01*
X0001197Y0012149D02*
X0031836Y0012149D01*
X0031354Y0012541D02*
X0001197Y0012541D01*
X0001197Y0012933D02*
X0030872Y0012933D01*
X0030389Y0013326D02*
X0001197Y0013326D01*
X0001197Y0013718D02*
X0029907Y0013718D01*
X0029425Y0014110D02*
X0001197Y0014110D01*
X0001197Y0014502D02*
X0028943Y0014502D01*
X0028461Y0014895D02*
X0001197Y0014895D01*
X0001197Y0015287D02*
X0027979Y0015287D01*
X0027497Y0015679D02*
X0001197Y0015679D01*
X0001197Y0016071D02*
X0027015Y0016071D01*
X0026533Y0016463D02*
X0001197Y0016463D01*
X0001197Y0016856D02*
X0026051Y0016856D01*
X0025568Y0017248D02*
X0001197Y0017248D01*
X0001197Y0017640D02*
X0025086Y0017640D01*
X0024604Y0018032D02*
X0001197Y0018032D01*
X0001197Y0018424D02*
X0024122Y0018424D01*
X0023640Y0018817D02*
X0001197Y0018817D01*
X0001197Y0019209D02*
X0023167Y0019209D01*
X0023194Y0019180D02*
X0023194Y0019180D01*
X0022800Y0019601D02*
X0001197Y0019601D01*
X0001197Y0019993D02*
X0022434Y0019993D01*
X0022068Y0020385D02*
X0001197Y0020385D01*
X0001197Y0020778D02*
X0021701Y0020778D01*
X0021335Y0021170D02*
X0001197Y0021170D01*
X0001197Y0021562D02*
X0020969Y0021562D01*
X0020602Y0021954D02*
X0001197Y0021954D01*
X0001197Y0022347D02*
X0020236Y0022347D01*
X0019870Y0022739D02*
X0001197Y0022739D01*
X0001197Y0023131D02*
X0019504Y0023131D01*
X0019137Y0023523D02*
X0001197Y0023523D01*
X0001197Y0023915D02*
X0018771Y0023915D01*
X0018405Y0024308D02*
X0001197Y0024308D01*
X0001197Y0024700D02*
X0018038Y0024700D01*
X0017672Y0025092D02*
X0001197Y0025092D01*
X0001197Y0025484D02*
X0017306Y0025484D01*
X0016939Y0025876D02*
X0001197Y0025876D01*
X0001197Y0026269D02*
X0016573Y0026269D01*
X0016207Y0026661D02*
X0001197Y0026661D01*
X0001197Y0027053D02*
X0015841Y0027053D01*
X0015474Y0027445D02*
X0001197Y0027445D01*
X0001197Y0027837D02*
X0015191Y0027837D01*
X0015449Y0027472D02*
X0015449Y0027472D01*
X0014914Y0028230D02*
X0001197Y0028230D01*
X0001197Y0028622D02*
X0014638Y0028622D01*
X0014361Y0029014D02*
X0001197Y0029014D01*
X0001197Y0029406D02*
X0014084Y0029406D01*
X0013807Y0029799D02*
X0001197Y0029799D01*
X0001197Y0030191D02*
X0013530Y0030191D01*
X0013253Y0030583D02*
X0001197Y0030583D01*
X0001197Y0030975D02*
X0012976Y0030975D01*
X0012700Y0031367D02*
X0001197Y0031367D01*
X0001197Y0031760D02*
X0012423Y0031760D01*
X0012146Y0032152D02*
X0001197Y0032152D01*
X0001197Y0032544D02*
X0011869Y0032544D01*
X0011592Y0032936D02*
X0001197Y0032936D01*
X0001197Y0033328D02*
X0011315Y0033328D01*
X0011038Y0033721D02*
X0001197Y0033721D01*
X0001197Y0034113D02*
X0010762Y0034113D01*
X0010485Y0034505D02*
X0001197Y0034505D01*
X0001197Y0034897D02*
X0010208Y0034897D01*
X0009931Y0035290D02*
X0001197Y0035290D01*
X0001197Y0035682D02*
X0009654Y0035682D01*
X0009377Y0036074D02*
X0001197Y0036074D01*
X0001197Y0036466D02*
X0009101Y0036466D01*
X0008906Y0036742D02*
X0008906Y0036742D01*
X0008846Y0036858D02*
X0001197Y0036858D01*
X0001197Y0037251D02*
X0008642Y0037251D01*
X0008439Y0037643D02*
X0001197Y0037643D01*
X0001197Y0038035D02*
X0008236Y0038035D01*
X0008033Y0038427D02*
X0001197Y0038427D01*
X0001197Y0038819D02*
X0007829Y0038819D01*
X0007626Y0039212D02*
X0001197Y0039212D01*
X0001197Y0039604D02*
X0007423Y0039604D01*
X0007220Y0039996D02*
X0001197Y0039996D01*
X0001197Y0040388D02*
X0007016Y0040388D01*
X0006813Y0040780D02*
X0001197Y0040780D01*
X0001197Y0041173D02*
X0006610Y0041173D01*
X0006407Y0041565D02*
X0001197Y0041565D01*
X0001197Y0041957D02*
X0006204Y0041957D01*
X0006000Y0042349D02*
X0001197Y0042349D01*
X0001197Y0042742D02*
X0005797Y0042742D01*
X0005594Y0043134D02*
X0001197Y0043134D01*
X0001197Y0043526D02*
X0005391Y0043526D01*
X0005187Y0043918D02*
X0001197Y0043918D01*
X0001197Y0044310D02*
X0004984Y0044310D01*
X0004781Y0044703D02*
X0001197Y0044703D01*
X0001197Y0045095D02*
X0004578Y0045095D01*
X0004374Y0045487D02*
X0001197Y0045487D01*
X0001197Y0045879D02*
X0004171Y0045879D01*
X0003968Y0046271D02*
X0001197Y0046271D01*
X0001197Y0046664D02*
X0003765Y0046664D01*
X0003686Y0046816D02*
X0003686Y0046816D01*
X0003601Y0047056D02*
X0001197Y0047056D01*
X0001197Y0047448D02*
X0003461Y0047448D01*
X0003322Y0047840D02*
X0001197Y0047840D01*
X0001197Y0048233D02*
X0003182Y0048233D01*
X0003043Y0048625D02*
X0001197Y0048625D01*
X0001197Y0049017D02*
X0002904Y0049017D01*
X0002764Y0049409D02*
X0001197Y0049409D01*
X0001197Y0049801D02*
X0002625Y0049801D01*
X0002485Y0050194D02*
X0001197Y0050194D01*
X0001197Y0050586D02*
X0002346Y0050586D01*
X0002207Y0050978D02*
X0001197Y0050978D01*
X0001197Y0051370D02*
X0002067Y0051370D01*
X0001928Y0051762D02*
X0001197Y0051762D01*
X0001197Y0052155D02*
X0001788Y0052155D01*
X0001649Y0052547D02*
X0001197Y0052547D01*
X0001197Y0052939D02*
X0001510Y0052939D01*
X0001370Y0053331D02*
X0001197Y0053331D01*
X0001197Y0053723D02*
X0001231Y0053723D01*
X0009559Y0056469D02*
X0025659Y0056469D01*
X0025659Y0056861D02*
X0009420Y0056861D01*
X0009280Y0057253D02*
X0025659Y0057253D01*
X0025659Y0057646D02*
X0009141Y0057646D01*
X0009002Y0058038D02*
X0025659Y0058038D01*
X0025659Y0058430D02*
X0008862Y0058430D01*
X0008723Y0058822D02*
X0025659Y0058822D01*
X0025659Y0059214D02*
X0008584Y0059214D01*
X0008444Y0059607D02*
X0025659Y0059607D01*
X0025659Y0059999D02*
X0008323Y0059999D01*
X0008348Y0059879D02*
X0006283Y0069813D01*
X0005591Y0079937D01*
X0006283Y0090061D01*
X0008348Y0099995D01*
X0011746Y0109557D01*
X0016414Y0118566D01*
X0022266Y0126856D01*
X0029192Y0134272D01*
X0037063Y0140676D01*
X0045733Y0145948D01*
X0055040Y0149991D01*
X0055058Y0149996D01*
X0053742Y0148679D01*
X0050051Y0143156D01*
X0047509Y0137018D01*
X0046213Y0130503D01*
X0046213Y0123860D01*
X0047509Y0117344D01*
X0050051Y0111207D01*
X0053742Y0105683D01*
X0058439Y0100986D01*
X0059160Y0100504D01*
X0032793Y0100504D01*
X0031516Y0099226D01*
X0028809Y0096520D01*
X0028061Y0096520D01*
X0026886Y0096033D01*
X0025987Y0095134D01*
X0025500Y0093959D01*
X0025500Y0092687D01*
X0025987Y0091512D01*
X0026886Y0090613D01*
X0028061Y0090126D01*
X0029222Y0090126D01*
X0026706Y0087610D01*
X0025659Y0086563D01*
X0025659Y0029384D01*
X0022266Y0033018D01*
X0016414Y0041308D01*
X0011746Y0050317D01*
X0008348Y0059879D01*
X0008241Y0060391D02*
X0025659Y0060391D01*
X0025659Y0060783D02*
X0008159Y0060783D01*
X0008078Y0061176D02*
X0025659Y0061176D01*
X0025659Y0061568D02*
X0007996Y0061568D01*
X0007915Y0061960D02*
X0025659Y0061960D01*
X0025659Y0062352D02*
X0007833Y0062352D01*
X0007752Y0062744D02*
X0025659Y0062744D01*
X0025659Y0063137D02*
X0007670Y0063137D01*
X0007589Y0063529D02*
X0025659Y0063529D01*
X0025659Y0063921D02*
X0007507Y0063921D01*
X0007426Y0064313D02*
X0025659Y0064313D01*
X0025659Y0064705D02*
X0007344Y0064705D01*
X0007263Y0065098D02*
X0025659Y0065098D01*
X0025659Y0065490D02*
X0007181Y0065490D01*
X0007100Y0065882D02*
X0025659Y0065882D01*
X0025659Y0066274D02*
X0007018Y0066274D01*
X0006937Y0066666D02*
X0025659Y0066666D01*
X0025659Y0067059D02*
X0006855Y0067059D01*
X0006774Y0067451D02*
X0025659Y0067451D01*
X0025659Y0067843D02*
X0006692Y0067843D01*
X0006611Y0068235D02*
X0025659Y0068235D01*
X0025659Y0068628D02*
X0006529Y0068628D01*
X0006448Y0069020D02*
X0025659Y0069020D01*
X0025659Y0069412D02*
X0006366Y0069412D01*
X0006285Y0069804D02*
X0025659Y0069804D01*
X0025659Y0070196D02*
X0006257Y0070196D01*
X0006230Y0070589D02*
X0025659Y0070589D01*
X0025659Y0070981D02*
X0006203Y0070981D01*
X0006176Y0071373D02*
X0025659Y0071373D01*
X0025659Y0071765D02*
X0006150Y0071765D01*
X0006123Y0072157D02*
X0025659Y0072157D01*
X0025659Y0072550D02*
X0006096Y0072550D01*
X0006069Y0072942D02*
X0025659Y0072942D01*
X0025659Y0073334D02*
X0006042Y0073334D01*
X0006015Y0073726D02*
X0025659Y0073726D01*
X0025659Y0074119D02*
X0005989Y0074119D01*
X0005962Y0074511D02*
X0025659Y0074511D01*
X0025659Y0074903D02*
X0005935Y0074903D01*
X0005908Y0075295D02*
X0025659Y0075295D01*
X0025659Y0075687D02*
X0005881Y0075687D01*
X0005854Y0076080D02*
X0025659Y0076080D01*
X0025659Y0076472D02*
X0005828Y0076472D01*
X0005801Y0076864D02*
X0025659Y0076864D01*
X0025659Y0077256D02*
X0005774Y0077256D01*
X0005747Y0077648D02*
X0025659Y0077648D01*
X0025659Y0078041D02*
X0005720Y0078041D01*
X0005693Y0078433D02*
X0025659Y0078433D01*
X0025659Y0078825D02*
X0005667Y0078825D01*
X0005640Y0079217D02*
X0025659Y0079217D01*
X0025659Y0079609D02*
X0005613Y0079609D01*
X0005595Y0080002D02*
X0025659Y0080002D01*
X0025659Y0080394D02*
X0005622Y0080394D01*
X0005649Y0080786D02*
X0025659Y0080786D01*
X0025659Y0081178D02*
X0005675Y0081178D01*
X0005702Y0081571D02*
X0025659Y0081571D01*
X0025659Y0081963D02*
X0005729Y0081963D01*
X0005756Y0082355D02*
X0025659Y0082355D01*
X0025659Y0082747D02*
X0005783Y0082747D01*
X0005810Y0083139D02*
X0025659Y0083139D01*
X0025659Y0083532D02*
X0005836Y0083532D01*
X0005863Y0083924D02*
X0025659Y0083924D01*
X0025659Y0084316D02*
X0005890Y0084316D01*
X0005917Y0084708D02*
X0025659Y0084708D01*
X0025659Y0085100D02*
X0005944Y0085100D01*
X0005971Y0085493D02*
X0025659Y0085493D01*
X0025659Y0085885D02*
X0005997Y0085885D01*
X0006024Y0086277D02*
X0025659Y0086277D01*
X0025766Y0086669D02*
X0006051Y0086669D01*
X0006078Y0087062D02*
X0026158Y0087062D01*
X0026550Y0087454D02*
X0006105Y0087454D01*
X0006132Y0087846D02*
X0026942Y0087846D01*
X0027334Y0088238D02*
X0006158Y0088238D01*
X0006185Y0088630D02*
X0027727Y0088630D01*
X0028119Y0089023D02*
X0006212Y0089023D01*
X0006239Y0089415D02*
X0028511Y0089415D01*
X0028903Y0089807D02*
X0006266Y0089807D01*
X0006312Y0090199D02*
X0027884Y0090199D01*
X0026937Y0090591D02*
X0006393Y0090591D01*
X0006475Y0090984D02*
X0026515Y0090984D01*
X0026123Y0091376D02*
X0006556Y0091376D01*
X0006638Y0091768D02*
X0025881Y0091768D01*
X0025718Y0092160D02*
X0006719Y0092160D01*
X0006801Y0092552D02*
X0025556Y0092552D01*
X0025500Y0092945D02*
X0006882Y0092945D01*
X0006964Y0093337D02*
X0025500Y0093337D01*
X0025500Y0093729D02*
X0007045Y0093729D01*
X0007127Y0094121D02*
X0025567Y0094121D01*
X0025730Y0094514D02*
X0007208Y0094514D01*
X0007290Y0094906D02*
X0025892Y0094906D01*
X0026151Y0095298D02*
X0007371Y0095298D01*
X0007453Y0095690D02*
X0026543Y0095690D01*
X0027005Y0096082D02*
X0007534Y0096082D01*
X0007616Y0096475D02*
X0027952Y0096475D01*
X0029156Y0096867D02*
X0007697Y0096867D01*
X0007779Y0097259D02*
X0029549Y0097259D01*
X0029941Y0097651D02*
X0007860Y0097651D01*
X0007942Y0098043D02*
X0030333Y0098043D01*
X0030725Y0098436D02*
X0008023Y0098436D01*
X0008105Y0098828D02*
X0031117Y0098828D01*
X0031510Y0099220D02*
X0008186Y0099220D01*
X0008268Y0099612D02*
X0031902Y0099612D01*
X0032294Y0100005D02*
X0008351Y0100005D01*
X0008490Y0100397D02*
X0032686Y0100397D01*
X0034600Y0096142D02*
X0031894Y0093435D01*
X0031894Y0092797D01*
X0032956Y0093860D01*
X0038416Y0093860D01*
X0041801Y0094952D01*
X0042187Y0095884D01*
X0042445Y0096142D01*
X0034600Y0096142D01*
X0034541Y0096082D02*
X0042385Y0096082D01*
X0042107Y0095690D02*
X0034149Y0095690D01*
X0033757Y0095298D02*
X0041944Y0095298D01*
X0041657Y0094906D02*
X0033364Y0094906D01*
X0032972Y0094514D02*
X0040441Y0094514D01*
X0039225Y0094121D02*
X0032580Y0094121D01*
X0032825Y0093729D02*
X0032188Y0093729D01*
X0032433Y0093337D02*
X0031894Y0093337D01*
X0031894Y0092945D02*
X0032041Y0092945D01*
X0034437Y0090285D02*
X0038266Y0090285D01*
X0038541Y0090144D01*
X0038978Y0090285D01*
X0039437Y0090285D01*
X0039656Y0090504D01*
X0042899Y0091550D01*
X0043086Y0091363D01*
X0044261Y0090876D01*
X0045533Y0090876D01*
X0046708Y0091363D01*
X0047607Y0092262D01*
X0048094Y0093437D01*
X0048094Y0094709D01*
X0047607Y0095884D01*
X0047349Y0096142D01*
X0059043Y0096142D01*
X0064016Y0091169D01*
X0065293Y0089892D01*
X0127766Y0089892D01*
X0127766Y0074780D01*
X0127557Y0075284D01*
X0126658Y0076183D01*
X0125483Y0076670D01*
X0124211Y0076670D01*
X0123036Y0076183D01*
X0122573Y0075720D01*
X0105653Y0075720D01*
X0104600Y0074667D01*
X0102000Y0072067D01*
X0102000Y0069779D01*
X0102007Y0069772D01*
X0101942Y0049599D01*
X0101758Y0049783D01*
X0100583Y0050270D01*
X0099311Y0050270D01*
X0099287Y0050260D01*
X0096734Y0052813D01*
X0095687Y0053860D01*
X0057505Y0053860D01*
X0057657Y0054012D01*
X0058144Y0055187D01*
X0058144Y0056459D01*
X0057657Y0057634D01*
X0056758Y0058533D01*
X0056734Y0058543D01*
X0056734Y0060313D01*
X0055687Y0061360D01*
X0036884Y0080163D01*
X0036894Y0080187D01*
X0036894Y0081459D01*
X0036407Y0082634D01*
X0035508Y0083533D01*
X0034333Y0084020D01*
X0033061Y0084020D01*
X0031886Y0083533D01*
X0030987Y0082634D01*
X0030500Y0081459D01*
X0030500Y0080187D01*
X0030987Y0079012D01*
X0031886Y0078113D01*
X0033061Y0077626D01*
X0034333Y0077626D01*
X0034356Y0077636D01*
X0053159Y0058832D01*
X0053159Y0058543D01*
X0053136Y0058533D01*
X0052237Y0057634D01*
X0051750Y0056459D01*
X0051750Y0055187D01*
X0052237Y0054012D01*
X0052388Y0053860D01*
X0044437Y0053860D01*
X0037294Y0061004D01*
X0037590Y0061719D01*
X0037590Y0063667D01*
X0036844Y0065467D01*
X0035467Y0066844D01*
X0033667Y0067590D01*
X0031719Y0067590D01*
X0029919Y0066844D01*
X0029234Y0066159D01*
X0029234Y0085082D01*
X0034437Y0090285D01*
X0034351Y0090199D02*
X0038434Y0090199D01*
X0038711Y0090199D02*
X0064986Y0090199D01*
X0064594Y0090591D02*
X0039927Y0090591D01*
X0041142Y0090984D02*
X0044001Y0090984D01*
X0043073Y0091376D02*
X0042358Y0091376D01*
X0045793Y0090984D02*
X0064201Y0090984D01*
X0063809Y0091376D02*
X0046721Y0091376D01*
X0047113Y0091768D02*
X0063417Y0091768D01*
X0063025Y0092160D02*
X0047505Y0092160D01*
X0047727Y0092552D02*
X0062633Y0092552D01*
X0062240Y0092945D02*
X0047890Y0092945D01*
X0048052Y0093337D02*
X0061848Y0093337D01*
X0061456Y0093729D02*
X0048094Y0093729D01*
X0048094Y0094121D02*
X0061064Y0094121D01*
X0060672Y0094514D02*
X0048094Y0094514D01*
X0048012Y0094906D02*
X0060279Y0094906D01*
X0059887Y0095298D02*
X0047850Y0095298D01*
X0047687Y0095690D02*
X0059495Y0095690D01*
X0059103Y0096082D02*
X0047408Y0096082D01*
X0055498Y0103927D02*
X0009745Y0103927D01*
X0009884Y0104319D02*
X0055106Y0104319D01*
X0054714Y0104711D02*
X0010023Y0104711D01*
X0010163Y0105103D02*
X0054321Y0105103D01*
X0053929Y0105495D02*
X0010302Y0105495D01*
X0010442Y0105888D02*
X0053605Y0105888D01*
X0053343Y0106280D02*
X0010581Y0106280D01*
X0010720Y0106672D02*
X0053081Y0106672D01*
X0052819Y0107064D02*
X0010860Y0107064D01*
X0010999Y0107457D02*
X0052557Y0107457D01*
X0052294Y0107849D02*
X0011139Y0107849D01*
X0011278Y0108241D02*
X0052032Y0108241D01*
X0051770Y0108633D02*
X0011417Y0108633D01*
X0011557Y0109025D02*
X0051508Y0109025D01*
X0051246Y0109418D02*
X0011696Y0109418D01*
X0011877Y0109810D02*
X0050984Y0109810D01*
X0050722Y0110202D02*
X0012080Y0110202D01*
X0012283Y0110594D02*
X0050460Y0110594D01*
X0050198Y0110986D02*
X0012486Y0110986D01*
X0012690Y0111379D02*
X0049980Y0111379D01*
X0049817Y0111771D02*
X0012893Y0111771D01*
X0013096Y0112163D02*
X0049655Y0112163D01*
X0049492Y0112555D02*
X0013299Y0112555D01*
X0013503Y0112948D02*
X0049330Y0112948D01*
X0049167Y0113340D02*
X0013706Y0113340D01*
X0013909Y0113732D02*
X0049005Y0113732D01*
X0048842Y0114124D02*
X0014112Y0114124D01*
X0014315Y0114516D02*
X0048680Y0114516D01*
X0048517Y0114909D02*
X0014519Y0114909D01*
X0014722Y0115301D02*
X0048355Y0115301D01*
X0048192Y0115693D02*
X0014925Y0115693D01*
X0015128Y0116085D02*
X0048030Y0116085D01*
X0047868Y0116477D02*
X0015332Y0116477D01*
X0015535Y0116870D02*
X0047705Y0116870D01*
X0047543Y0117262D02*
X0015738Y0117262D01*
X0015941Y0117654D02*
X0047447Y0117654D01*
X0047369Y0118046D02*
X0016145Y0118046D01*
X0016348Y0118438D02*
X0047291Y0118438D01*
X0047213Y0118831D02*
X0016601Y0118831D01*
X0016877Y0119223D02*
X0047135Y0119223D01*
X0047057Y0119615D02*
X0017154Y0119615D01*
X0017431Y0120007D02*
X0046979Y0120007D01*
X0046901Y0120400D02*
X0017708Y0120400D01*
X0017985Y0120792D02*
X0046823Y0120792D01*
X0046745Y0121184D02*
X0018262Y0121184D01*
X0018539Y0121576D02*
X0046667Y0121576D01*
X0046589Y0121968D02*
X0018815Y0121968D01*
X0019092Y0122361D02*
X0046511Y0122361D01*
X0046433Y0122753D02*
X0019369Y0122753D01*
X0019646Y0123145D02*
X0046355Y0123145D01*
X0046277Y0123537D02*
X0019923Y0123537D01*
X0020200Y0123929D02*
X0046213Y0123929D01*
X0046213Y0124322D02*
X0020477Y0124322D01*
X0020753Y0124714D02*
X0046213Y0124714D01*
X0046213Y0125106D02*
X0021030Y0125106D01*
X0021307Y0125498D02*
X0046213Y0125498D01*
X0046213Y0125891D02*
X0021584Y0125891D01*
X0021861Y0126283D02*
X0046213Y0126283D01*
X0046213Y0126675D02*
X0022138Y0126675D01*
X0022463Y0127067D02*
X0046213Y0127067D01*
X0046213Y0127459D02*
X0022829Y0127459D01*
X0023195Y0127852D02*
X0046213Y0127852D01*
X0046213Y0128244D02*
X0023562Y0128244D01*
X0023928Y0128636D02*
X0046213Y0128636D01*
X0046213Y0129028D02*
X0024294Y0129028D01*
X0024660Y0129420D02*
X0046213Y0129420D01*
X0046213Y0129813D02*
X0025027Y0129813D01*
X0025393Y0130205D02*
X0046213Y0130205D01*
X0046231Y0130597D02*
X0025759Y0130597D01*
X0026126Y0130989D02*
X0046309Y0130989D01*
X0046387Y0131381D02*
X0026492Y0131381D01*
X0026858Y0131774D02*
X0046465Y0131774D01*
X0046543Y0132166D02*
X0027225Y0132166D01*
X0027591Y0132558D02*
X0046621Y0132558D01*
X0046699Y0132950D02*
X0027957Y0132950D01*
X0028323Y0133343D02*
X0046777Y0133343D01*
X0046856Y0133735D02*
X0028690Y0133735D01*
X0029056Y0134127D02*
X0046934Y0134127D01*
X0047012Y0134519D02*
X0029495Y0134519D01*
X0029977Y0134911D02*
X0047090Y0134911D01*
X0047168Y0135304D02*
X0030460Y0135304D01*
X0030942Y0135696D02*
X0047246Y0135696D01*
X0047324Y0136088D02*
X0031424Y0136088D01*
X0031906Y0136480D02*
X0047402Y0136480D01*
X0047480Y0136872D02*
X0032388Y0136872D01*
X0032870Y0137265D02*
X0047611Y0137265D01*
X0047773Y0137657D02*
X0033352Y0137657D01*
X0033834Y0138049D02*
X0047936Y0138049D01*
X0048098Y0138441D02*
X0034316Y0138441D01*
X0034798Y0138834D02*
X0048261Y0138834D01*
X0048423Y0139226D02*
X0035280Y0139226D01*
X0035763Y0139618D02*
X0048585Y0139618D01*
X0048748Y0140010D02*
X0036245Y0140010D01*
X0036727Y0140402D02*
X0048910Y0140402D01*
X0049073Y0140795D02*
X0037258Y0140795D01*
X0037903Y0141187D02*
X0049235Y0141187D01*
X0049398Y0141579D02*
X0038548Y0141579D01*
X0039193Y0141971D02*
X0049560Y0141971D01*
X0049723Y0142363D02*
X0039838Y0142363D01*
X0040483Y0142756D02*
X0049885Y0142756D01*
X0050048Y0143148D02*
X0041128Y0143148D01*
X0041773Y0143540D02*
X0050308Y0143540D01*
X0050570Y0143932D02*
X0042418Y0143932D01*
X0043063Y0144324D02*
X0050832Y0144324D01*
X0051094Y0144717D02*
X0043708Y0144717D01*
X0044353Y0145109D02*
X0051356Y0145109D01*
X0051618Y0145501D02*
X0044998Y0145501D01*
X0045643Y0145893D02*
X0051880Y0145893D01*
X0052142Y0146286D02*
X0046510Y0146286D01*
X0047413Y0146678D02*
X0052404Y0146678D01*
X0052666Y0147070D02*
X0048316Y0147070D01*
X0049219Y0147462D02*
X0052928Y0147462D01*
X0053190Y0147854D02*
X0050121Y0147854D01*
X0051024Y0148247D02*
X0053453Y0148247D01*
X0053715Y0148639D02*
X0051927Y0148639D01*
X0052830Y0149031D02*
X0054093Y0149031D01*
X0053733Y0149423D02*
X0054486Y0149423D01*
X0054636Y0149815D02*
X0054878Y0149815D01*
X0047981Y0156483D02*
X0001197Y0156483D01*
X0001197Y0156091D02*
X0047078Y0156091D01*
X0046176Y0155699D02*
X0001197Y0155699D01*
X0001197Y0155306D02*
X0045273Y0155306D01*
X0044370Y0154914D02*
X0001197Y0154914D01*
X0001197Y0154522D02*
X0043467Y0154522D01*
X0042564Y0154130D02*
X0001197Y0154130D01*
X0001197Y0153738D02*
X0041669Y0153738D01*
X0041690Y0153750D02*
X0031995Y0147855D01*
X0023194Y0140694D01*
X0015449Y0132402D01*
X0015449Y0132402D01*
X0008906Y0123132D01*
X0003686Y0113058D01*
X0001197Y0106055D01*
X0001197Y0158677D01*
X0053548Y0158677D01*
X0052097Y0158271D01*
X0041690Y0153750D01*
X0041690Y0153750D01*
X0041024Y0153345D02*
X0001197Y0153345D01*
X0001197Y0152953D02*
X0040379Y0152953D01*
X0039734Y0152561D02*
X0001197Y0152561D01*
X0001197Y0152169D02*
X0039089Y0152169D01*
X0038444Y0151777D02*
X0001197Y0151777D01*
X0001197Y0151384D02*
X0037799Y0151384D01*
X0037154Y0150992D02*
X0001197Y0150992D01*
X0001197Y0150600D02*
X0036509Y0150600D01*
X0035864Y0150208D02*
X0001197Y0150208D01*
X0001197Y0149815D02*
X0035219Y0149815D01*
X0034574Y0149423D02*
X0001197Y0149423D01*
X0001197Y0149031D02*
X0033930Y0149031D01*
X0033285Y0148639D02*
X0001197Y0148639D01*
X0001197Y0148247D02*
X0032640Y0148247D01*
X0031995Y0147855D02*
X0031995Y0147855D01*
X0031995Y0147854D02*
X0001197Y0147854D01*
X0001197Y0147462D02*
X0031513Y0147462D01*
X0031031Y0147070D02*
X0001197Y0147070D01*
X0001197Y0146678D02*
X0030549Y0146678D01*
X0030066Y0146286D02*
X0001197Y0146286D01*
X0001197Y0145893D02*
X0029584Y0145893D01*
X0029102Y0145501D02*
X0001197Y0145501D01*
X0001197Y0145109D02*
X0028620Y0145109D01*
X0028138Y0144717D02*
X0001197Y0144717D01*
X0001197Y0144324D02*
X0027656Y0144324D01*
X0027174Y0143932D02*
X0001197Y0143932D01*
X0001197Y0143540D02*
X0026692Y0143540D01*
X0026210Y0143148D02*
X0001197Y0143148D01*
X0001197Y0142756D02*
X0025728Y0142756D01*
X0025245Y0142363D02*
X0001197Y0142363D01*
X0001197Y0141971D02*
X0024763Y0141971D01*
X0024281Y0141579D02*
X0001197Y0141579D01*
X0001197Y0141187D02*
X0023799Y0141187D01*
X0023317Y0140795D02*
X0001197Y0140795D01*
X0001197Y0140402D02*
X0022921Y0140402D01*
X0023194Y0140694D02*
X0023194Y0140694D01*
X0023194Y0140694D01*
X0022555Y0140010D02*
X0001197Y0140010D01*
X0001197Y0139618D02*
X0022189Y0139618D01*
X0021822Y0139226D02*
X0001197Y0139226D01*
X0001197Y0138834D02*
X0021456Y0138834D01*
X0021090Y0138441D02*
X0001197Y0138441D01*
X0001197Y0138049D02*
X0020723Y0138049D01*
X0020357Y0137657D02*
X0001197Y0137657D01*
X0001197Y0137265D02*
X0019991Y0137265D01*
X0019624Y0136872D02*
X0001197Y0136872D01*
X0001197Y0136480D02*
X0019258Y0136480D01*
X0018892Y0136088D02*
X0001197Y0136088D01*
X0001197Y0135696D02*
X0018526Y0135696D01*
X0018159Y0135304D02*
X0001197Y0135304D01*
X0001197Y0134911D02*
X0017793Y0134911D01*
X0017427Y0134519D02*
X0001197Y0134519D01*
X0001197Y0134127D02*
X0017060Y0134127D01*
X0016694Y0133735D02*
X0001197Y0133735D01*
X0001197Y0133343D02*
X0016328Y0133343D01*
X0015961Y0132950D02*
X0001197Y0132950D01*
X0001197Y0132558D02*
X0015595Y0132558D01*
X0015283Y0132166D02*
X0001197Y0132166D01*
X0001197Y0131774D02*
X0015006Y0131774D01*
X0014729Y0131381D02*
X0001197Y0131381D01*
X0001197Y0130989D02*
X0014452Y0130989D01*
X0014175Y0130597D02*
X0001197Y0130597D01*
X0001197Y0130205D02*
X0013898Y0130205D01*
X0013622Y0129813D02*
X0001197Y0129813D01*
X0001197Y0129420D02*
X0013345Y0129420D01*
X0013068Y0129028D02*
X0001197Y0129028D01*
X0001197Y0128636D02*
X0012791Y0128636D01*
X0012514Y0128244D02*
X0001197Y0128244D01*
X0001197Y0127852D02*
X0012237Y0127852D01*
X0011960Y0127459D02*
X0001197Y0127459D01*
X0001197Y0127067D02*
X0011684Y0127067D01*
X0011407Y0126675D02*
X0001197Y0126675D01*
X0001197Y0126283D02*
X0011130Y0126283D01*
X0010853Y0125891D02*
X0001197Y0125891D01*
X0001197Y0125498D02*
X0010576Y0125498D01*
X0010299Y0125106D02*
X0001197Y0125106D01*
X0001197Y0124714D02*
X0010022Y0124714D01*
X0009746Y0124322D02*
X0001197Y0124322D01*
X0001197Y0123929D02*
X0009469Y0123929D01*
X0009192Y0123537D02*
X0001197Y0123537D01*
X0001197Y0123145D02*
X0008915Y0123145D01*
X0008906Y0123132D02*
X0008906Y0123132D01*
X0008709Y0122753D02*
X0001197Y0122753D01*
X0001197Y0122361D02*
X0008506Y0122361D01*
X0008303Y0121968D02*
X0001197Y0121968D01*
X0001197Y0121576D02*
X0008100Y0121576D01*
X0007896Y0121184D02*
X0001197Y0121184D01*
X0001197Y0120792D02*
X0007693Y0120792D01*
X0007490Y0120400D02*
X0001197Y0120400D01*
X0001197Y0120007D02*
X0007287Y0120007D01*
X0007084Y0119615D02*
X0001197Y0119615D01*
X0001197Y0119223D02*
X0006880Y0119223D01*
X0006677Y0118831D02*
X0001197Y0118831D01*
X0001197Y0118438D02*
X0006474Y0118438D01*
X0006271Y0118046D02*
X0001197Y0118046D01*
X0001197Y0117654D02*
X0006067Y0117654D01*
X0005864Y0117262D02*
X0001197Y0117262D01*
X0001197Y0116870D02*
X0005661Y0116870D01*
X0005458Y0116477D02*
X0001197Y0116477D01*
X0001197Y0116085D02*
X0005254Y0116085D01*
X0005051Y0115693D02*
X0001197Y0115693D01*
X0001197Y0115301D02*
X0004848Y0115301D01*
X0004645Y0114909D02*
X0001197Y0114909D01*
X0001197Y0114516D02*
X0004442Y0114516D01*
X0004238Y0114124D02*
X0001197Y0114124D01*
X0001197Y0113732D02*
X0004035Y0113732D01*
X0003832Y0113340D02*
X0001197Y0113340D01*
X0001197Y0112948D02*
X0003647Y0112948D01*
X0003686Y0113058D02*
X0003686Y0113058D01*
X0003507Y0112555D02*
X0001197Y0112555D01*
X0001197Y0112163D02*
X0003368Y0112163D01*
X0003228Y0111771D02*
X0001197Y0111771D01*
X0001197Y0111379D02*
X0003089Y0111379D01*
X0002950Y0110986D02*
X0001197Y0110986D01*
X0001197Y0110594D02*
X0002810Y0110594D01*
X0002671Y0110202D02*
X0001197Y0110202D01*
X0001197Y0109810D02*
X0002531Y0109810D01*
X0002392Y0109418D02*
X0001197Y0109418D01*
X0001197Y0109025D02*
X0002253Y0109025D01*
X0002113Y0108633D02*
X0001197Y0108633D01*
X0001197Y0108241D02*
X0001974Y0108241D01*
X0001834Y0107849D02*
X0001197Y0107849D01*
X0001197Y0107457D02*
X0001695Y0107457D01*
X0001556Y0107064D02*
X0001197Y0107064D01*
X0001197Y0106672D02*
X0001416Y0106672D01*
X0001277Y0106280D02*
X0001197Y0106280D01*
X0009466Y0103142D02*
X0056282Y0103142D01*
X0055890Y0103534D02*
X0009605Y0103534D01*
X0009326Y0102750D02*
X0056675Y0102750D01*
X0057067Y0102358D02*
X0009187Y0102358D01*
X0009048Y0101966D02*
X0057459Y0101966D01*
X0057851Y0101573D02*
X0008908Y0101573D01*
X0008769Y0101181D02*
X0058243Y0101181D01*
X0058733Y0100789D02*
X0008630Y0100789D01*
X0029252Y0085100D02*
X0127766Y0085100D01*
X0127766Y0084708D02*
X0029234Y0084708D01*
X0029234Y0084316D02*
X0127766Y0084316D01*
X0127766Y0083924D02*
X0034564Y0083924D01*
X0035509Y0083532D02*
X0127766Y0083532D01*
X0127766Y0083139D02*
X0035901Y0083139D01*
X0036294Y0082747D02*
X0127766Y0082747D01*
X0127766Y0082355D02*
X0036522Y0082355D01*
X0036685Y0081963D02*
X0127766Y0081963D01*
X0127766Y0081571D02*
X0036847Y0081571D01*
X0036894Y0081178D02*
X0127766Y0081178D01*
X0127766Y0080786D02*
X0036894Y0080786D01*
X0036894Y0080394D02*
X0127766Y0080394D01*
X0127766Y0080002D02*
X0037046Y0080002D01*
X0037438Y0079609D02*
X0127766Y0079609D01*
X0127766Y0079217D02*
X0037830Y0079217D01*
X0038222Y0078825D02*
X0127766Y0078825D01*
X0127766Y0078433D02*
X0038615Y0078433D01*
X0039007Y0078041D02*
X0127766Y0078041D01*
X0127766Y0077648D02*
X0039399Y0077648D01*
X0039791Y0077256D02*
X0127766Y0077256D01*
X0127766Y0076864D02*
X0040183Y0076864D01*
X0040576Y0076472D02*
X0123733Y0076472D01*
X0122933Y0076080D02*
X0040968Y0076080D01*
X0041360Y0075687D02*
X0105620Y0075687D01*
X0105228Y0075295D02*
X0041752Y0075295D01*
X0042144Y0074903D02*
X0104836Y0074903D01*
X0104444Y0074511D02*
X0042537Y0074511D01*
X0042929Y0074119D02*
X0104051Y0074119D01*
X0103659Y0073726D02*
X0043321Y0073726D01*
X0043713Y0073334D02*
X0103267Y0073334D01*
X0102875Y0072942D02*
X0044106Y0072942D01*
X0044498Y0072550D02*
X0102483Y0072550D01*
X0102090Y0072157D02*
X0044890Y0072157D01*
X0045282Y0071765D02*
X0102000Y0071765D01*
X0102000Y0071373D02*
X0045674Y0071373D01*
X0046067Y0070981D02*
X0102000Y0070981D01*
X0102000Y0070589D02*
X0046459Y0070589D01*
X0046851Y0070196D02*
X0102000Y0070196D01*
X0102000Y0069804D02*
X0047243Y0069804D01*
X0047635Y0069412D02*
X0102006Y0069412D01*
X0102005Y0069020D02*
X0048028Y0069020D01*
X0048420Y0068628D02*
X0102003Y0068628D01*
X0102002Y0068235D02*
X0048812Y0068235D01*
X0049204Y0067843D02*
X0102001Y0067843D01*
X0102000Y0067451D02*
X0049597Y0067451D01*
X0049989Y0067059D02*
X0101998Y0067059D01*
X0101997Y0066666D02*
X0050381Y0066666D01*
X0050773Y0066274D02*
X0101996Y0066274D01*
X0101994Y0065882D02*
X0051165Y0065882D01*
X0051558Y0065490D02*
X0101993Y0065490D01*
X0101992Y0065098D02*
X0051950Y0065098D01*
X0052342Y0064705D02*
X0101991Y0064705D01*
X0101989Y0064313D02*
X0052734Y0064313D01*
X0053126Y0063921D02*
X0101988Y0063921D01*
X0101987Y0063529D02*
X0053519Y0063529D01*
X0053911Y0063137D02*
X0101986Y0063137D01*
X0101984Y0062744D02*
X0054303Y0062744D01*
X0054695Y0062352D02*
X0101983Y0062352D01*
X0101982Y0061960D02*
X0055087Y0061960D01*
X0055480Y0061568D02*
X0101981Y0061568D01*
X0101979Y0061176D02*
X0055872Y0061176D01*
X0056264Y0060783D02*
X0101978Y0060783D01*
X0101977Y0060391D02*
X0056656Y0060391D01*
X0056734Y0059999D02*
X0101975Y0059999D01*
X0101974Y0059607D02*
X0056734Y0059607D01*
X0056734Y0059214D02*
X0101973Y0059214D01*
X0101972Y0058822D02*
X0056734Y0058822D01*
X0056861Y0058430D02*
X0101970Y0058430D01*
X0101969Y0058038D02*
X0057253Y0058038D01*
X0057645Y0057646D02*
X0101968Y0057646D01*
X0101967Y0057253D02*
X0057815Y0057253D01*
X0057977Y0056861D02*
X0101965Y0056861D01*
X0101964Y0056469D02*
X0058139Y0056469D01*
X0058144Y0056077D02*
X0101963Y0056077D01*
X0101962Y0055685D02*
X0058144Y0055685D01*
X0058144Y0055292D02*
X0101960Y0055292D01*
X0101959Y0054900D02*
X0058025Y0054900D01*
X0057862Y0054508D02*
X0101958Y0054508D01*
X0101956Y0054116D02*
X0057700Y0054116D01*
X0053033Y0058430D02*
X0039867Y0058430D01*
X0039475Y0058822D02*
X0053159Y0058822D01*
X0052777Y0059214D02*
X0039083Y0059214D01*
X0038691Y0059607D02*
X0052385Y0059607D01*
X0051993Y0059999D02*
X0038299Y0059999D01*
X0037906Y0060391D02*
X0051601Y0060391D01*
X0051209Y0060783D02*
X0037514Y0060783D01*
X0037365Y0061176D02*
X0050816Y0061176D01*
X0050424Y0061568D02*
X0037527Y0061568D01*
X0037590Y0061960D02*
X0050032Y0061960D01*
X0049640Y0062352D02*
X0037590Y0062352D01*
X0037590Y0062744D02*
X0049248Y0062744D01*
X0048855Y0063137D02*
X0037590Y0063137D01*
X0037590Y0063529D02*
X0048463Y0063529D01*
X0048071Y0063921D02*
X0037485Y0063921D01*
X0037322Y0064313D02*
X0047679Y0064313D01*
X0047286Y0064705D02*
X0037160Y0064705D01*
X0036997Y0065098D02*
X0046894Y0065098D01*
X0046502Y0065490D02*
X0036821Y0065490D01*
X0036429Y0065882D02*
X0046110Y0065882D01*
X0045718Y0066274D02*
X0036037Y0066274D01*
X0035645Y0066666D02*
X0045325Y0066666D01*
X0044933Y0067059D02*
X0034949Y0067059D01*
X0034002Y0067451D02*
X0044541Y0067451D01*
X0044149Y0067843D02*
X0029234Y0067843D01*
X0029234Y0067451D02*
X0031384Y0067451D01*
X0030437Y0067059D02*
X0029234Y0067059D01*
X0029234Y0066666D02*
X0029741Y0066666D01*
X0029349Y0066274D02*
X0029234Y0066274D01*
X0029234Y0068235D02*
X0043757Y0068235D01*
X0043364Y0068628D02*
X0029234Y0068628D01*
X0029234Y0069020D02*
X0042972Y0069020D01*
X0042580Y0069412D02*
X0029234Y0069412D01*
X0029234Y0069804D02*
X0042188Y0069804D01*
X0041795Y0070196D02*
X0029234Y0070196D01*
X0029234Y0070589D02*
X0041403Y0070589D01*
X0041011Y0070981D02*
X0029234Y0070981D01*
X0029234Y0071373D02*
X0040619Y0071373D01*
X0040227Y0071765D02*
X0029234Y0071765D01*
X0029234Y0072157D02*
X0039834Y0072157D01*
X0039442Y0072550D02*
X0029234Y0072550D01*
X0029234Y0072942D02*
X0039050Y0072942D01*
X0038658Y0073334D02*
X0029234Y0073334D01*
X0029234Y0073726D02*
X0038266Y0073726D01*
X0037873Y0074119D02*
X0029234Y0074119D01*
X0029234Y0074511D02*
X0037481Y0074511D01*
X0037089Y0074903D02*
X0029234Y0074903D01*
X0029234Y0075295D02*
X0036697Y0075295D01*
X0036305Y0075687D02*
X0029234Y0075687D01*
X0029234Y0076080D02*
X0035912Y0076080D01*
X0035520Y0076472D02*
X0029234Y0076472D01*
X0029234Y0076864D02*
X0035128Y0076864D01*
X0034736Y0077256D02*
X0029234Y0077256D01*
X0029234Y0077648D02*
X0033007Y0077648D01*
X0032060Y0078041D02*
X0029234Y0078041D01*
X0029234Y0078433D02*
X0031566Y0078433D01*
X0031174Y0078825D02*
X0029234Y0078825D01*
X0029234Y0079217D02*
X0030902Y0079217D01*
X0030739Y0079609D02*
X0029234Y0079609D01*
X0029234Y0080002D02*
X0030577Y0080002D01*
X0030500Y0080394D02*
X0029234Y0080394D01*
X0029234Y0080786D02*
X0030500Y0080786D01*
X0030500Y0081178D02*
X0029234Y0081178D01*
X0029234Y0081571D02*
X0030546Y0081571D01*
X0030709Y0081963D02*
X0029234Y0081963D01*
X0029234Y0082355D02*
X0030871Y0082355D01*
X0031100Y0082747D02*
X0029234Y0082747D01*
X0029234Y0083139D02*
X0031492Y0083139D01*
X0031885Y0083532D02*
X0029234Y0083532D01*
X0029234Y0083924D02*
X0032830Y0083924D01*
X0030429Y0086277D02*
X0127766Y0086277D01*
X0127766Y0085885D02*
X0030037Y0085885D01*
X0029644Y0085493D02*
X0127766Y0085493D01*
X0127766Y0086669D02*
X0030821Y0086669D01*
X0031213Y0087062D02*
X0127766Y0087062D01*
X0127766Y0087454D02*
X0031606Y0087454D01*
X0031998Y0087846D02*
X0127766Y0087846D01*
X0127766Y0088238D02*
X0032390Y0088238D01*
X0032782Y0088630D02*
X0127766Y0088630D01*
X0127766Y0089023D02*
X0033174Y0089023D01*
X0033567Y0089415D02*
X0127766Y0089415D01*
X0127766Y0089807D02*
X0033959Y0089807D01*
X0029234Y0059226D02*
X0029919Y0058542D01*
X0031719Y0057796D01*
X0033667Y0057796D01*
X0034925Y0058317D01*
X0039382Y0053860D01*
X0037510Y0053860D01*
X0036844Y0055467D01*
X0035467Y0056844D01*
X0033667Y0057590D01*
X0031719Y0057590D01*
X0029919Y0056844D01*
X0029234Y0056159D01*
X0029234Y0059226D01*
X0029234Y0059214D02*
X0029246Y0059214D01*
X0029234Y0058822D02*
X0029638Y0058822D01*
X0029234Y0058430D02*
X0030188Y0058430D01*
X0031135Y0058038D02*
X0029234Y0058038D01*
X0029234Y0057646D02*
X0035596Y0057646D01*
X0035204Y0058038D02*
X0034251Y0058038D01*
X0034479Y0057253D02*
X0035988Y0057253D01*
X0036381Y0056861D02*
X0035426Y0056861D01*
X0035842Y0056469D02*
X0036773Y0056469D01*
X0037165Y0056077D02*
X0036234Y0056077D01*
X0036626Y0055685D02*
X0037557Y0055685D01*
X0037950Y0055292D02*
X0036916Y0055292D01*
X0037079Y0054900D02*
X0038342Y0054900D01*
X0038734Y0054508D02*
X0037241Y0054508D01*
X0037404Y0054116D02*
X0039126Y0054116D01*
X0041828Y0056469D02*
X0051754Y0056469D01*
X0051750Y0056077D02*
X0042221Y0056077D01*
X0042613Y0055685D02*
X0051750Y0055685D01*
X0051750Y0055292D02*
X0043005Y0055292D01*
X0043397Y0054900D02*
X0051869Y0054900D01*
X0052031Y0054508D02*
X0043790Y0054508D01*
X0044182Y0054116D02*
X0052194Y0054116D01*
X0051917Y0056861D02*
X0041436Y0056861D01*
X0041044Y0057253D02*
X0052079Y0057253D01*
X0052249Y0057646D02*
X0040652Y0057646D01*
X0040260Y0058038D02*
X0052641Y0058038D01*
X0045512Y0050285D02*
X0094206Y0050285D01*
X0096760Y0047732D01*
X0096750Y0047709D01*
X0096750Y0046437D01*
X0097237Y0045262D01*
X0098136Y0044363D01*
X0099311Y0043876D01*
X0100583Y0043876D01*
X0101758Y0044363D01*
X0101925Y0044530D01*
X0101918Y0042296D01*
X0101886Y0042283D01*
X0100987Y0041384D01*
X0100500Y0040209D01*
X0100500Y0038937D01*
X0100987Y0037762D01*
X0101886Y0036863D01*
X0103061Y0036376D01*
X0104333Y0036376D01*
X0105328Y0036788D01*
X0103809Y0035270D01*
X0103061Y0035270D01*
X0101886Y0034783D01*
X0101357Y0034254D01*
X0070293Y0034254D01*
X0069016Y0032976D01*
X0055059Y0019020D01*
X0054311Y0019020D01*
X0053136Y0018533D01*
X0052237Y0017634D01*
X0051750Y0016459D01*
X0051750Y0015187D01*
X0052054Y0014454D01*
X0041679Y0017671D01*
X0029471Y0028121D01*
X0029234Y0028684D01*
X0029234Y0029226D01*
X0029919Y0028542D01*
X0031719Y0027796D01*
X0033667Y0027796D01*
X0035467Y0028542D01*
X0036844Y0029919D01*
X0037590Y0031719D01*
X0037590Y0033667D01*
X0036844Y0035467D01*
X0035467Y0036844D01*
X0033667Y0037590D01*
X0031719Y0037590D01*
X0029919Y0036844D01*
X0029234Y0036159D01*
X0029234Y0039226D01*
X0029919Y0038542D01*
X0031719Y0037796D01*
X0033667Y0037796D01*
X0035467Y0038542D01*
X0036844Y0039919D01*
X0037590Y0041719D01*
X0037590Y0043667D01*
X0036844Y0045467D01*
X0035467Y0046844D01*
X0033667Y0047590D01*
X0031719Y0047590D01*
X0029919Y0046844D01*
X0029234Y0046159D01*
X0029234Y0049226D01*
X0029919Y0048542D01*
X0031719Y0047796D01*
X0033667Y0047796D01*
X0035467Y0048542D01*
X0036844Y0049919D01*
X0036996Y0050285D01*
X0040456Y0050285D01*
X0051760Y0038982D01*
X0051750Y0038959D01*
X0051750Y0037687D01*
X0052237Y0036512D01*
X0053136Y0035613D01*
X0054311Y0035126D01*
X0055583Y0035126D01*
X0056758Y0035613D01*
X0057657Y0036512D01*
X0058144Y0037687D01*
X0058144Y0038959D01*
X0057657Y0040134D01*
X0056758Y0041033D01*
X0055583Y0041520D01*
X0054311Y0041520D01*
X0054287Y0041510D01*
X0045512Y0050285D01*
X0045604Y0050194D02*
X0094298Y0050194D01*
X0094691Y0049801D02*
X0045996Y0049801D01*
X0046388Y0049409D02*
X0095083Y0049409D01*
X0095475Y0049017D02*
X0046780Y0049017D01*
X0047173Y0048625D02*
X0095867Y0048625D01*
X0096259Y0048233D02*
X0047565Y0048233D01*
X0047957Y0047840D02*
X0096652Y0047840D01*
X0096750Y0047448D02*
X0048349Y0047448D01*
X0048742Y0047056D02*
X0096750Y0047056D01*
X0096750Y0046664D02*
X0049134Y0046664D01*
X0049526Y0046271D02*
X0096819Y0046271D01*
X0096981Y0045879D02*
X0049918Y0045879D01*
X0050310Y0045487D02*
X0097143Y0045487D01*
X0097404Y0045095D02*
X0050703Y0045095D01*
X0051095Y0044703D02*
X0097796Y0044703D01*
X0098262Y0044310D02*
X0051487Y0044310D01*
X0051879Y0043918D02*
X0099209Y0043918D01*
X0100685Y0043918D02*
X0101923Y0043918D01*
X0101922Y0043526D02*
X0052271Y0043526D01*
X0052664Y0043134D02*
X0101921Y0043134D01*
X0101920Y0042742D02*
X0053056Y0042742D01*
X0053448Y0042349D02*
X0101918Y0042349D01*
X0101560Y0041957D02*
X0053840Y0041957D01*
X0054233Y0041565D02*
X0101168Y0041565D01*
X0100899Y0041173D02*
X0056420Y0041173D01*
X0057010Y0040780D02*
X0100737Y0040780D01*
X0100574Y0040388D02*
X0057402Y0040388D01*
X0057714Y0039996D02*
X0100500Y0039996D01*
X0100500Y0039604D02*
X0057876Y0039604D01*
X0058039Y0039212D02*
X0100500Y0039212D01*
X0100549Y0038819D02*
X0058144Y0038819D01*
X0058144Y0038427D02*
X0100711Y0038427D01*
X0100874Y0038035D02*
X0058144Y0038035D01*
X0058125Y0037643D02*
X0101106Y0037643D01*
X0101498Y0037251D02*
X0057963Y0037251D01*
X0057800Y0036858D02*
X0101896Y0036858D01*
X0102843Y0036466D02*
X0057611Y0036466D01*
X0057219Y0036074D02*
X0104613Y0036074D01*
X0104550Y0036466D02*
X0105006Y0036466D01*
X0104221Y0035682D02*
X0056827Y0035682D01*
X0055978Y0035290D02*
X0103829Y0035290D01*
X0102162Y0034897D02*
X0037080Y0034897D01*
X0037243Y0034505D02*
X0101608Y0034505D01*
X0101357Y0029892D02*
X0101886Y0029363D01*
X0103061Y0028876D01*
X0104333Y0028876D01*
X0105508Y0029363D01*
X0106407Y0030262D01*
X0106894Y0031437D01*
X0106894Y0032185D01*
X0131297Y0056589D01*
X0131811Y0056376D01*
X0133083Y0056376D01*
X0134258Y0056863D01*
X0135157Y0057762D01*
X0135644Y0058937D01*
X0135644Y0060209D01*
X0135157Y0061384D01*
X0134258Y0062283D01*
X0133083Y0062770D01*
X0132128Y0062770D01*
X0132128Y0109226D01*
X0130850Y0110504D01*
X0123144Y0118211D01*
X0123144Y0118959D01*
X0122657Y0120134D01*
X0121758Y0121033D01*
X0120583Y0121520D01*
X0119311Y0121520D01*
X0118136Y0121033D01*
X0117237Y0120134D01*
X0116750Y0118959D01*
X0116750Y0117687D01*
X0117237Y0116512D01*
X0118136Y0115613D01*
X0119311Y0115126D01*
X0120059Y0115126D01*
X0127766Y0107419D01*
X0127766Y0094254D01*
X0087266Y0094254D01*
X0089774Y0094753D01*
X0095912Y0097295D01*
X0101435Y0100986D01*
X0106132Y0105683D01*
X0109823Y0111207D01*
X0112365Y0117344D01*
X0113661Y0123860D01*
X0113661Y0127380D01*
X0114247Y0125966D01*
X0115926Y0124287D01*
X0118120Y0123378D01*
X0120494Y0123378D01*
X0122688Y0124287D01*
X0124367Y0125966D01*
X0125276Y0128159D01*
X0125276Y0130534D01*
X0124367Y0132727D01*
X0122688Y0134406D01*
X0120494Y0135315D01*
X0118120Y0135315D01*
X0115926Y0134406D01*
X0114247Y0132727D01*
X0113553Y0131050D01*
X0112365Y0137018D01*
X0109823Y0143156D01*
X0106132Y0148679D01*
X0104816Y0149996D01*
X0104834Y0149991D01*
X0114141Y0145948D01*
X0122811Y0140676D01*
X0130682Y0134272D01*
X0137608Y0126856D01*
X0143460Y0118566D01*
X0148128Y0109557D01*
X0151527Y0099995D01*
X0153591Y0090061D01*
X0154283Y0079937D01*
X0153591Y0069813D01*
X0151527Y0059879D01*
X0148128Y0050317D01*
X0143460Y0041308D01*
X0137608Y0033018D01*
X0130682Y0025602D01*
X0122811Y0019198D01*
X0114141Y0013926D01*
X0104834Y0009883D01*
X0095063Y0007146D01*
X0085011Y0005764D01*
X0074863Y0005764D01*
X0064811Y0007146D01*
X0055040Y0009883D01*
X0054128Y0010280D01*
X0054139Y0010285D01*
X0094437Y0010285D01*
X0103037Y0018886D01*
X0103061Y0018876D01*
X0104333Y0018876D01*
X0105508Y0019363D01*
X0106407Y0020262D01*
X0106894Y0021437D01*
X0106894Y0022709D01*
X0106407Y0023884D01*
X0105508Y0024783D01*
X0104333Y0025270D01*
X0103061Y0025270D01*
X0101886Y0024783D01*
X0100987Y0023884D01*
X0100500Y0022709D01*
X0100500Y0021437D01*
X0100510Y0021413D01*
X0092956Y0013860D01*
X0057505Y0013860D01*
X0057657Y0014012D01*
X0058144Y0015187D01*
X0058144Y0015935D01*
X0072100Y0029892D01*
X0101357Y0029892D01*
X0101450Y0029799D02*
X0072007Y0029799D01*
X0071615Y0029406D02*
X0101842Y0029406D01*
X0102727Y0029014D02*
X0071223Y0029014D01*
X0070830Y0028622D02*
X0124453Y0028622D01*
X0124615Y0028505D02*
X0125301Y0028155D01*
X0126034Y0027917D01*
X0126796Y0027796D01*
X0126984Y0027796D01*
X0126984Y0032496D01*
X0122284Y0032496D01*
X0122284Y0032308D01*
X0122405Y0031546D01*
X0122643Y0030813D01*
X0122993Y0030126D01*
X0123446Y0029503D01*
X0123991Y0028958D01*
X0124615Y0028505D01*
X0125154Y0028230D02*
X0070438Y0028230D01*
X0070046Y0027837D02*
X0126534Y0027837D01*
X0126984Y0027837D02*
X0127378Y0027837D01*
X0127378Y0027796D02*
X0127566Y0027796D01*
X0128328Y0027917D01*
X0129061Y0028155D01*
X0129748Y0028505D01*
X0130371Y0028958D01*
X0130916Y0029503D01*
X0131369Y0030126D01*
X0131719Y0030813D01*
X0131957Y0031546D01*
X0132078Y0032308D01*
X0132078Y0032496D01*
X0127378Y0032496D01*
X0127378Y0032890D01*
X0126984Y0032890D01*
X0126984Y0032496D01*
X0127378Y0032496D01*
X0127378Y0027796D01*
X0127378Y0028230D02*
X0126984Y0028230D01*
X0126984Y0028622D02*
X0127378Y0028622D01*
X0127378Y0029014D02*
X0126984Y0029014D01*
X0126984Y0029406D02*
X0127378Y0029406D01*
X0127378Y0029799D02*
X0126984Y0029799D01*
X0126984Y0030191D02*
X0127378Y0030191D01*
X0127378Y0030583D02*
X0126984Y0030583D01*
X0126984Y0030975D02*
X0127378Y0030975D01*
X0127378Y0031367D02*
X0126984Y0031367D01*
X0126984Y0031760D02*
X0127378Y0031760D01*
X0127378Y0032152D02*
X0126984Y0032152D01*
X0126984Y0032544D02*
X0107253Y0032544D01*
X0106894Y0032152D02*
X0122309Y0032152D01*
X0122371Y0031760D02*
X0106894Y0031760D01*
X0106865Y0031367D02*
X0122463Y0031367D01*
X0122590Y0030975D02*
X0106702Y0030975D01*
X0106540Y0030583D02*
X0122760Y0030583D01*
X0122960Y0030191D02*
X0106336Y0030191D01*
X0105944Y0029799D02*
X0123231Y0029799D01*
X0123542Y0029406D02*
X0105551Y0029406D01*
X0104666Y0029014D02*
X0123935Y0029014D01*
X0127828Y0027837D02*
X0132770Y0027837D01*
X0132404Y0027445D02*
X0069654Y0027445D01*
X0069262Y0027053D02*
X0132038Y0027053D01*
X0131671Y0026661D02*
X0068869Y0026661D01*
X0068477Y0026269D02*
X0131305Y0026269D01*
X0130939Y0025876D02*
X0068085Y0025876D01*
X0067693Y0025484D02*
X0130538Y0025484D01*
X0130056Y0025092D02*
X0104762Y0025092D01*
X0105591Y0024700D02*
X0129574Y0024700D01*
X0129091Y0024308D02*
X0105983Y0024308D01*
X0106375Y0023915D02*
X0128609Y0023915D01*
X0128127Y0023523D02*
X0106556Y0023523D01*
X0106719Y0023131D02*
X0127645Y0023131D01*
X0127163Y0022739D02*
X0106881Y0022739D01*
X0106894Y0022347D02*
X0126681Y0022347D01*
X0126199Y0021954D02*
X0106894Y0021954D01*
X0106894Y0021562D02*
X0125717Y0021562D01*
X0125235Y0021170D02*
X0106783Y0021170D01*
X0106621Y0020778D02*
X0124753Y0020778D01*
X0124271Y0020385D02*
X0106458Y0020385D01*
X0106138Y0019993D02*
X0123788Y0019993D01*
X0123306Y0019601D02*
X0105746Y0019601D01*
X0105136Y0019209D02*
X0122824Y0019209D01*
X0122184Y0018817D02*
X0102968Y0018817D01*
X0102576Y0018424D02*
X0121539Y0018424D01*
X0120894Y0018032D02*
X0102184Y0018032D01*
X0101792Y0017640D02*
X0120249Y0017640D01*
X0119604Y0017248D02*
X0101400Y0017248D01*
X0101007Y0016856D02*
X0118959Y0016856D01*
X0118314Y0016463D02*
X0100615Y0016463D01*
X0100223Y0016071D02*
X0117669Y0016071D01*
X0117024Y0015679D02*
X0099831Y0015679D01*
X0099438Y0015287D02*
X0116379Y0015287D01*
X0115734Y0014895D02*
X0099046Y0014895D01*
X0098654Y0014502D02*
X0115089Y0014502D01*
X0114444Y0014110D02*
X0098262Y0014110D01*
X0097870Y0013718D02*
X0113662Y0013718D01*
X0112759Y0013326D02*
X0097477Y0013326D01*
X0097085Y0012933D02*
X0111856Y0012933D01*
X0110953Y0012541D02*
X0096693Y0012541D01*
X0096301Y0012149D02*
X0110050Y0012149D01*
X0109148Y0011757D02*
X0095909Y0011757D01*
X0095516Y0011365D02*
X0108245Y0011365D01*
X0107342Y0010972D02*
X0095124Y0010972D01*
X0094732Y0010580D02*
X0106439Y0010580D01*
X0105536Y0010188D02*
X0054338Y0010188D01*
X0055352Y0009796D02*
X0104522Y0009796D01*
X0103122Y0009404D02*
X0056752Y0009404D01*
X0058152Y0009011D02*
X0101722Y0009011D01*
X0100322Y0008619D02*
X0059552Y0008619D01*
X0060951Y0008227D02*
X0098923Y0008227D01*
X0097523Y0007835D02*
X0062351Y0007835D01*
X0063751Y0007442D02*
X0096123Y0007442D01*
X0094370Y0007050D02*
X0065504Y0007050D01*
X0068358Y0006658D02*
X0091516Y0006658D01*
X0088663Y0006266D02*
X0071211Y0006266D01*
X0074065Y0005874D02*
X0085809Y0005874D01*
X0093206Y0014110D02*
X0057698Y0014110D01*
X0057860Y0014502D02*
X0093599Y0014502D01*
X0093991Y0014895D02*
X0058023Y0014895D01*
X0058144Y0015287D02*
X0094383Y0015287D01*
X0094775Y0015679D02*
X0058144Y0015679D01*
X0058280Y0016071D02*
X0095167Y0016071D01*
X0095560Y0016463D02*
X0058672Y0016463D01*
X0059064Y0016856D02*
X0095952Y0016856D01*
X0096344Y0017248D02*
X0059456Y0017248D01*
X0059849Y0017640D02*
X0096736Y0017640D01*
X0097128Y0018032D02*
X0060241Y0018032D01*
X0060633Y0018424D02*
X0097521Y0018424D01*
X0097913Y0018817D02*
X0061025Y0018817D01*
X0061417Y0019209D02*
X0098305Y0019209D01*
X0098697Y0019601D02*
X0061810Y0019601D01*
X0062202Y0019993D02*
X0099090Y0019993D01*
X0099482Y0020385D02*
X0062594Y0020385D01*
X0062986Y0020778D02*
X0099874Y0020778D01*
X0100266Y0021170D02*
X0063378Y0021170D01*
X0063771Y0021562D02*
X0100500Y0021562D01*
X0100500Y0021954D02*
X0064163Y0021954D01*
X0064555Y0022347D02*
X0100500Y0022347D01*
X0100512Y0022739D02*
X0064947Y0022739D01*
X0065340Y0023131D02*
X0100675Y0023131D01*
X0100837Y0023523D02*
X0065732Y0023523D01*
X0066124Y0023915D02*
X0101018Y0023915D01*
X0101411Y0024308D02*
X0066516Y0024308D01*
X0066908Y0024700D02*
X0101803Y0024700D01*
X0102632Y0025092D02*
X0067301Y0025092D01*
X0064269Y0028230D02*
X0034714Y0028230D01*
X0035547Y0028622D02*
X0064661Y0028622D01*
X0065054Y0029014D02*
X0035939Y0029014D01*
X0036332Y0029406D02*
X0065446Y0029406D01*
X0065838Y0029799D02*
X0036724Y0029799D01*
X0036957Y0030191D02*
X0066230Y0030191D01*
X0066622Y0030583D02*
X0037119Y0030583D01*
X0037282Y0030975D02*
X0067015Y0030975D01*
X0067407Y0031367D02*
X0037444Y0031367D01*
X0037590Y0031760D02*
X0067799Y0031760D01*
X0068191Y0032152D02*
X0037590Y0032152D01*
X0037590Y0032544D02*
X0068584Y0032544D01*
X0068976Y0032936D02*
X0037590Y0032936D01*
X0037590Y0033328D02*
X0069368Y0033328D01*
X0069760Y0033721D02*
X0037568Y0033721D01*
X0037405Y0034113D02*
X0070152Y0034113D01*
X0063877Y0027837D02*
X0033767Y0027837D01*
X0032093Y0025876D02*
X0061916Y0025876D01*
X0061524Y0025484D02*
X0032552Y0025484D01*
X0033010Y0025092D02*
X0061131Y0025092D01*
X0060739Y0024700D02*
X0033468Y0024700D01*
X0033926Y0024308D02*
X0060347Y0024308D01*
X0059955Y0023915D02*
X0034384Y0023915D01*
X0034842Y0023523D02*
X0059563Y0023523D01*
X0059170Y0023131D02*
X0035300Y0023131D01*
X0035759Y0022739D02*
X0058778Y0022739D01*
X0058386Y0022347D02*
X0036217Y0022347D01*
X0036675Y0021954D02*
X0057994Y0021954D01*
X0057602Y0021562D02*
X0037133Y0021562D01*
X0037591Y0021170D02*
X0057209Y0021170D01*
X0056817Y0020778D02*
X0038049Y0020778D01*
X0038508Y0020385D02*
X0056425Y0020385D01*
X0056033Y0019993D02*
X0038966Y0019993D01*
X0039424Y0019601D02*
X0055641Y0019601D01*
X0055248Y0019209D02*
X0039882Y0019209D01*
X0040340Y0018817D02*
X0053821Y0018817D01*
X0053027Y0018424D02*
X0040798Y0018424D01*
X0041257Y0018032D02*
X0052635Y0018032D01*
X0052243Y0017640D02*
X0041778Y0017640D01*
X0043043Y0017248D02*
X0052077Y0017248D01*
X0051914Y0016856D02*
X0044308Y0016856D01*
X0045573Y0016463D02*
X0051752Y0016463D01*
X0051750Y0016071D02*
X0046837Y0016071D01*
X0048102Y0015679D02*
X0051750Y0015679D01*
X0051750Y0015287D02*
X0049367Y0015287D01*
X0050632Y0014895D02*
X0051871Y0014895D01*
X0051897Y0014502D02*
X0052034Y0014502D01*
X0062308Y0026269D02*
X0031635Y0026269D01*
X0031177Y0026661D02*
X0062700Y0026661D01*
X0063093Y0027053D02*
X0030719Y0027053D01*
X0030261Y0027445D02*
X0063485Y0027445D01*
X0053916Y0035290D02*
X0036918Y0035290D01*
X0036629Y0035682D02*
X0053067Y0035682D01*
X0052675Y0036074D02*
X0036237Y0036074D01*
X0035845Y0036466D02*
X0052282Y0036466D01*
X0052093Y0036858D02*
X0035433Y0036858D01*
X0034486Y0037251D02*
X0051931Y0037251D01*
X0051768Y0037643D02*
X0029234Y0037643D01*
X0029234Y0038035D02*
X0031142Y0038035D01*
X0030900Y0037251D02*
X0029234Y0037251D01*
X0029234Y0036858D02*
X0029953Y0036858D01*
X0029541Y0036466D02*
X0029234Y0036466D01*
X0029234Y0038427D02*
X0030195Y0038427D01*
X0029641Y0038819D02*
X0029234Y0038819D01*
X0029234Y0039212D02*
X0029249Y0039212D01*
X0025659Y0039212D02*
X0017894Y0039212D01*
X0017617Y0039604D02*
X0025659Y0039604D01*
X0025659Y0039996D02*
X0017340Y0039996D01*
X0017063Y0040388D02*
X0025659Y0040388D01*
X0025659Y0040780D02*
X0016786Y0040780D01*
X0016509Y0041173D02*
X0025659Y0041173D01*
X0025659Y0041565D02*
X0016281Y0041565D01*
X0016077Y0041957D02*
X0025659Y0041957D01*
X0025659Y0042349D02*
X0015874Y0042349D01*
X0015671Y0042742D02*
X0025659Y0042742D01*
X0025659Y0043134D02*
X0015468Y0043134D01*
X0015265Y0043526D02*
X0025659Y0043526D01*
X0025659Y0043918D02*
X0015061Y0043918D01*
X0014858Y0044310D02*
X0025659Y0044310D01*
X0025659Y0044703D02*
X0014655Y0044703D01*
X0014452Y0045095D02*
X0025659Y0045095D01*
X0025659Y0045487D02*
X0014248Y0045487D01*
X0014045Y0045879D02*
X0025659Y0045879D01*
X0025659Y0046271D02*
X0013842Y0046271D01*
X0013639Y0046664D02*
X0025659Y0046664D01*
X0025659Y0047056D02*
X0013436Y0047056D01*
X0013232Y0047448D02*
X0025659Y0047448D01*
X0025659Y0047840D02*
X0013029Y0047840D01*
X0012826Y0048233D02*
X0025659Y0048233D01*
X0025659Y0048625D02*
X0012623Y0048625D01*
X0012419Y0049017D02*
X0025659Y0049017D01*
X0025659Y0049409D02*
X0012216Y0049409D01*
X0012013Y0049801D02*
X0025659Y0049801D01*
X0025659Y0050194D02*
X0011810Y0050194D01*
X0011650Y0050586D02*
X0025659Y0050586D01*
X0025659Y0050978D02*
X0011511Y0050978D01*
X0011371Y0051370D02*
X0025659Y0051370D01*
X0025659Y0051762D02*
X0011232Y0051762D01*
X0011093Y0052155D02*
X0025659Y0052155D01*
X0025659Y0052547D02*
X0010953Y0052547D01*
X0010814Y0052939D02*
X0025659Y0052939D01*
X0025659Y0053331D02*
X0010674Y0053331D01*
X0010535Y0053723D02*
X0025659Y0053723D01*
X0025659Y0054116D02*
X0010396Y0054116D01*
X0010256Y0054508D02*
X0025659Y0054508D01*
X0025659Y0054900D02*
X0010117Y0054900D01*
X0009977Y0055292D02*
X0025659Y0055292D01*
X0025659Y0055685D02*
X0009838Y0055685D01*
X0009699Y0056077D02*
X0025659Y0056077D01*
X0029234Y0056469D02*
X0029544Y0056469D01*
X0029234Y0056861D02*
X0029960Y0056861D01*
X0029234Y0057253D02*
X0030907Y0057253D01*
X0036958Y0050194D02*
X0040548Y0050194D01*
X0040941Y0049801D02*
X0036727Y0049801D01*
X0036334Y0049409D02*
X0041333Y0049409D01*
X0041725Y0049017D02*
X0035942Y0049017D01*
X0035550Y0048625D02*
X0042117Y0048625D01*
X0042509Y0048233D02*
X0034721Y0048233D01*
X0033774Y0047840D02*
X0042902Y0047840D01*
X0043294Y0047448D02*
X0034009Y0047448D01*
X0034956Y0047056D02*
X0043686Y0047056D01*
X0044078Y0046664D02*
X0035647Y0046664D01*
X0036040Y0046271D02*
X0044470Y0046271D01*
X0044863Y0045879D02*
X0036432Y0045879D01*
X0036824Y0045487D02*
X0045255Y0045487D01*
X0045647Y0045095D02*
X0036998Y0045095D01*
X0037161Y0044703D02*
X0046039Y0044703D01*
X0046431Y0044310D02*
X0037323Y0044310D01*
X0037486Y0043918D02*
X0046824Y0043918D01*
X0047216Y0043526D02*
X0037590Y0043526D01*
X0037590Y0043134D02*
X0047608Y0043134D01*
X0048000Y0042742D02*
X0037590Y0042742D01*
X0037590Y0042349D02*
X0048393Y0042349D01*
X0048785Y0041957D02*
X0037590Y0041957D01*
X0037526Y0041565D02*
X0049177Y0041565D01*
X0049569Y0041173D02*
X0037364Y0041173D01*
X0037201Y0040780D02*
X0049961Y0040780D01*
X0050354Y0040388D02*
X0037039Y0040388D01*
X0036876Y0039996D02*
X0050746Y0039996D01*
X0051138Y0039604D02*
X0036529Y0039604D01*
X0036137Y0039212D02*
X0051530Y0039212D01*
X0051750Y0038819D02*
X0035745Y0038819D01*
X0035191Y0038427D02*
X0051750Y0038427D01*
X0051750Y0038035D02*
X0034244Y0038035D01*
X0025659Y0038035D02*
X0018724Y0038035D01*
X0018447Y0038427D02*
X0025659Y0038427D01*
X0025659Y0038819D02*
X0018170Y0038819D01*
X0019001Y0037643D02*
X0025659Y0037643D01*
X0025659Y0037251D02*
X0019278Y0037251D01*
X0019555Y0036858D02*
X0025659Y0036858D01*
X0025659Y0036466D02*
X0019832Y0036466D01*
X0020108Y0036074D02*
X0025659Y0036074D01*
X0025659Y0035682D02*
X0020385Y0035682D01*
X0020662Y0035290D02*
X0025659Y0035290D01*
X0025659Y0034897D02*
X0020939Y0034897D01*
X0021216Y0034505D02*
X0025659Y0034505D01*
X0025659Y0034113D02*
X0021493Y0034113D01*
X0021770Y0033721D02*
X0025659Y0033721D01*
X0025659Y0033328D02*
X0022046Y0033328D01*
X0022342Y0032936D02*
X0025659Y0032936D01*
X0025659Y0032544D02*
X0022708Y0032544D01*
X0023074Y0032152D02*
X0025659Y0032152D01*
X0025659Y0031760D02*
X0023441Y0031760D01*
X0023807Y0031367D02*
X0025659Y0031367D01*
X0025659Y0030975D02*
X0024173Y0030975D01*
X0024540Y0030583D02*
X0025659Y0030583D01*
X0025659Y0030191D02*
X0024906Y0030191D01*
X0025272Y0029799D02*
X0025659Y0029799D01*
X0025639Y0029406D02*
X0025659Y0029406D01*
X0029234Y0029014D02*
X0029446Y0029014D01*
X0029260Y0028622D02*
X0029839Y0028622D01*
X0029425Y0028230D02*
X0030672Y0028230D01*
X0029803Y0027837D02*
X0031619Y0027837D01*
X0029346Y0046271D02*
X0029234Y0046271D01*
X0029234Y0046664D02*
X0029739Y0046664D01*
X0029234Y0047056D02*
X0030430Y0047056D01*
X0031377Y0047448D02*
X0029234Y0047448D01*
X0029234Y0047840D02*
X0031612Y0047840D01*
X0030665Y0048233D02*
X0029234Y0048233D01*
X0029234Y0048625D02*
X0029836Y0048625D01*
X0029444Y0049017D02*
X0029234Y0049017D01*
X0067100Y0094254D02*
X0064128Y0097227D01*
X0070100Y0094753D01*
X0072608Y0094254D01*
X0067100Y0094254D01*
X0066841Y0094514D02*
X0071302Y0094514D01*
X0069730Y0094906D02*
X0066448Y0094906D01*
X0066056Y0095298D02*
X0068784Y0095298D01*
X0067837Y0095690D02*
X0065664Y0095690D01*
X0065272Y0096082D02*
X0066890Y0096082D01*
X0065943Y0096475D02*
X0064880Y0096475D01*
X0064996Y0096867D02*
X0064487Y0096867D01*
X0088572Y0094514D02*
X0127766Y0094514D01*
X0127766Y0094906D02*
X0090144Y0094906D01*
X0091090Y0095298D02*
X0127766Y0095298D01*
X0127766Y0095690D02*
X0121134Y0095690D01*
X0120494Y0095425D02*
X0122688Y0096334D01*
X0124367Y0098013D01*
X0125276Y0100206D01*
X0125276Y0102581D01*
X0124367Y0104775D01*
X0122688Y0106454D01*
X0120494Y0107362D01*
X0118120Y0107362D01*
X0115926Y0106454D01*
X0114247Y0104775D01*
X0113339Y0102581D01*
X0113339Y0100206D01*
X0114247Y0098013D01*
X0115926Y0096334D01*
X0118120Y0095425D01*
X0120494Y0095425D01*
X0122081Y0096082D02*
X0127766Y0096082D01*
X0127766Y0096475D02*
X0122829Y0096475D01*
X0123221Y0096867D02*
X0127766Y0096867D01*
X0127766Y0097259D02*
X0123613Y0097259D01*
X0124005Y0097651D02*
X0127766Y0097651D01*
X0127766Y0098043D02*
X0124380Y0098043D01*
X0124542Y0098436D02*
X0127766Y0098436D01*
X0127766Y0098828D02*
X0124705Y0098828D01*
X0124867Y0099220D02*
X0127766Y0099220D01*
X0127766Y0099612D02*
X0125029Y0099612D01*
X0125192Y0100005D02*
X0127766Y0100005D01*
X0127766Y0100397D02*
X0125276Y0100397D01*
X0125276Y0100789D02*
X0127766Y0100789D01*
X0127766Y0101181D02*
X0125276Y0101181D01*
X0125276Y0101573D02*
X0127766Y0101573D01*
X0127766Y0101966D02*
X0125276Y0101966D01*
X0125276Y0102358D02*
X0127766Y0102358D01*
X0127766Y0102750D02*
X0125206Y0102750D01*
X0125043Y0103142D02*
X0127766Y0103142D01*
X0127766Y0103534D02*
X0124881Y0103534D01*
X0124718Y0103927D02*
X0127766Y0103927D01*
X0127766Y0104319D02*
X0124556Y0104319D01*
X0124393Y0104711D02*
X0127766Y0104711D01*
X0127766Y0105103D02*
X0124038Y0105103D01*
X0123646Y0105495D02*
X0127766Y0105495D01*
X0127766Y0105888D02*
X0123254Y0105888D01*
X0122862Y0106280D02*
X0127766Y0106280D01*
X0127766Y0106672D02*
X0122160Y0106672D01*
X0121213Y0107064D02*
X0127766Y0107064D01*
X0127729Y0107457D02*
X0107317Y0107457D01*
X0107580Y0107849D02*
X0127336Y0107849D01*
X0126944Y0108241D02*
X0107842Y0108241D01*
X0108104Y0108633D02*
X0126552Y0108633D01*
X0126160Y0109025D02*
X0108366Y0109025D01*
X0108628Y0109418D02*
X0125768Y0109418D01*
X0125375Y0109810D02*
X0108890Y0109810D01*
X0109152Y0110202D02*
X0124983Y0110202D01*
X0124591Y0110594D02*
X0109414Y0110594D01*
X0109676Y0110986D02*
X0124199Y0110986D01*
X0123806Y0111379D02*
X0109894Y0111379D01*
X0110057Y0111771D02*
X0123414Y0111771D01*
X0123022Y0112163D02*
X0110219Y0112163D01*
X0110382Y0112555D02*
X0122630Y0112555D01*
X0122238Y0112948D02*
X0110544Y0112948D01*
X0110707Y0113340D02*
X0121845Y0113340D01*
X0121453Y0113732D02*
X0110869Y0113732D01*
X0111032Y0114124D02*
X0121061Y0114124D01*
X0120669Y0114516D02*
X0111194Y0114516D01*
X0111357Y0114909D02*
X0120277Y0114909D01*
X0118889Y0115301D02*
X0111519Y0115301D01*
X0111682Y0115693D02*
X0118056Y0115693D01*
X0117663Y0116085D02*
X0111844Y0116085D01*
X0112006Y0116477D02*
X0117271Y0116477D01*
X0117089Y0116870D02*
X0112169Y0116870D01*
X0112331Y0117262D02*
X0116926Y0117262D01*
X0116764Y0117654D02*
X0112427Y0117654D01*
X0112505Y0118046D02*
X0116750Y0118046D01*
X0116750Y0118438D02*
X0112583Y0118438D01*
X0112661Y0118831D02*
X0116750Y0118831D01*
X0116859Y0119223D02*
X0112739Y0119223D01*
X0112817Y0119615D02*
X0117022Y0119615D01*
X0117184Y0120007D02*
X0112895Y0120007D01*
X0112973Y0120400D02*
X0117503Y0120400D01*
X0117895Y0120792D02*
X0113051Y0120792D01*
X0113129Y0121184D02*
X0118501Y0121184D01*
X0121393Y0121184D02*
X0141612Y0121184D01*
X0141335Y0121576D02*
X0113207Y0121576D01*
X0113285Y0121968D02*
X0141059Y0121968D01*
X0140782Y0122361D02*
X0113363Y0122361D01*
X0113441Y0122753D02*
X0140505Y0122753D01*
X0140228Y0123145D02*
X0113519Y0123145D01*
X0113597Y0123537D02*
X0117735Y0123537D01*
X0116788Y0123929D02*
X0113661Y0123929D01*
X0113661Y0124322D02*
X0115891Y0124322D01*
X0115499Y0124714D02*
X0113661Y0124714D01*
X0113661Y0125106D02*
X0115107Y0125106D01*
X0114714Y0125498D02*
X0113661Y0125498D01*
X0113661Y0125891D02*
X0114322Y0125891D01*
X0114116Y0126283D02*
X0113661Y0126283D01*
X0113661Y0126675D02*
X0113953Y0126675D01*
X0113791Y0127067D02*
X0113661Y0127067D01*
X0113690Y0131381D02*
X0113487Y0131381D01*
X0113409Y0131774D02*
X0113852Y0131774D01*
X0114015Y0132166D02*
X0113331Y0132166D01*
X0113253Y0132558D02*
X0114177Y0132558D01*
X0114470Y0132950D02*
X0113175Y0132950D01*
X0113097Y0133343D02*
X0114862Y0133343D01*
X0115255Y0133735D02*
X0113019Y0133735D01*
X0112940Y0134127D02*
X0115647Y0134127D01*
X0116199Y0134519D02*
X0112862Y0134519D01*
X0112784Y0134911D02*
X0117146Y0134911D01*
X0118093Y0135304D02*
X0112706Y0135304D01*
X0112628Y0135696D02*
X0128932Y0135696D01*
X0128450Y0136088D02*
X0112550Y0136088D01*
X0112472Y0136480D02*
X0127968Y0136480D01*
X0127486Y0136872D02*
X0112394Y0136872D01*
X0112263Y0137265D02*
X0127004Y0137265D01*
X0126522Y0137657D02*
X0112101Y0137657D01*
X0111938Y0138049D02*
X0126040Y0138049D01*
X0125558Y0138441D02*
X0111776Y0138441D01*
X0111613Y0138834D02*
X0125076Y0138834D01*
X0124594Y0139226D02*
X0111451Y0139226D01*
X0111289Y0139618D02*
X0124111Y0139618D01*
X0123629Y0140010D02*
X0111126Y0140010D01*
X0110964Y0140402D02*
X0123147Y0140402D01*
X0122616Y0140795D02*
X0110801Y0140795D01*
X0110639Y0141187D02*
X0121971Y0141187D01*
X0121326Y0141579D02*
X0110476Y0141579D01*
X0110314Y0141971D02*
X0120681Y0141971D01*
X0120036Y0142363D02*
X0110151Y0142363D01*
X0109989Y0142756D02*
X0119391Y0142756D01*
X0118746Y0143148D02*
X0109826Y0143148D01*
X0109566Y0143540D02*
X0118101Y0143540D01*
X0117456Y0143932D02*
X0109304Y0143932D01*
X0109042Y0144324D02*
X0116811Y0144324D01*
X0116166Y0144717D02*
X0108780Y0144717D01*
X0108518Y0145109D02*
X0115521Y0145109D01*
X0114876Y0145501D02*
X0108256Y0145501D01*
X0107994Y0145893D02*
X0114231Y0145893D01*
X0113364Y0146286D02*
X0107732Y0146286D01*
X0107470Y0146678D02*
X0112461Y0146678D01*
X0111558Y0147070D02*
X0107208Y0147070D01*
X0106946Y0147462D02*
X0110655Y0147462D01*
X0109753Y0147854D02*
X0106684Y0147854D01*
X0106421Y0148247D02*
X0108850Y0148247D01*
X0107947Y0148639D02*
X0106159Y0148639D01*
X0105781Y0149031D02*
X0107044Y0149031D01*
X0106141Y0149423D02*
X0105388Y0149423D01*
X0105238Y0149815D02*
X0104996Y0149815D01*
X0111893Y0156483D02*
X0158255Y0156483D01*
X0158150Y0156709D02*
X0158440Y0156087D01*
X0158617Y0155424D01*
X0158677Y0154740D01*
X0158677Y0106055D01*
X0156188Y0113058D01*
X0150968Y0123132D01*
X0144425Y0132402D01*
X0136680Y0140694D01*
X0127879Y0147855D01*
X0118184Y0153750D01*
X0107777Y0158271D01*
X0106326Y0158677D01*
X0154740Y0158677D01*
X0155424Y0158617D01*
X0156087Y0158440D01*
X0156709Y0158150D01*
X0157271Y0157756D01*
X0157756Y0157271D01*
X0158150Y0156709D01*
X0158033Y0156875D02*
X0110990Y0156875D01*
X0110087Y0157267D02*
X0157758Y0157267D01*
X0157367Y0157660D02*
X0109184Y0157660D01*
X0108281Y0158052D02*
X0156848Y0158052D01*
X0156070Y0158444D02*
X0107158Y0158444D01*
X0107777Y0158271D02*
X0107777Y0158271D01*
X0112796Y0156091D02*
X0158438Y0156091D01*
X0158544Y0155699D02*
X0113698Y0155699D01*
X0114601Y0155306D02*
X0158628Y0155306D01*
X0158662Y0154914D02*
X0115504Y0154914D01*
X0116407Y0154522D02*
X0158677Y0154522D01*
X0158677Y0154130D02*
X0117310Y0154130D01*
X0118205Y0153738D02*
X0158677Y0153738D01*
X0158677Y0153345D02*
X0118850Y0153345D01*
X0119495Y0152953D02*
X0158677Y0152953D01*
X0158677Y0152561D02*
X0120140Y0152561D01*
X0120785Y0152169D02*
X0158677Y0152169D01*
X0158677Y0151777D02*
X0121430Y0151777D01*
X0122075Y0151384D02*
X0158677Y0151384D01*
X0158677Y0150992D02*
X0122720Y0150992D01*
X0123365Y0150600D02*
X0158677Y0150600D01*
X0158677Y0150208D02*
X0124010Y0150208D01*
X0124655Y0149815D02*
X0158677Y0149815D01*
X0158677Y0149423D02*
X0125300Y0149423D01*
X0125945Y0149031D02*
X0158677Y0149031D01*
X0158677Y0148639D02*
X0126589Y0148639D01*
X0127234Y0148247D02*
X0158677Y0148247D01*
X0158677Y0147854D02*
X0127879Y0147854D01*
X0128361Y0147462D02*
X0158677Y0147462D01*
X0158677Y0147070D02*
X0128843Y0147070D01*
X0129326Y0146678D02*
X0158677Y0146678D01*
X0158677Y0146286D02*
X0129808Y0146286D01*
X0130290Y0145893D02*
X0158677Y0145893D01*
X0158677Y0145501D02*
X0130772Y0145501D01*
X0131254Y0145109D02*
X0158677Y0145109D01*
X0158677Y0144717D02*
X0131736Y0144717D01*
X0132218Y0144324D02*
X0158677Y0144324D01*
X0158677Y0143932D02*
X0132700Y0143932D01*
X0133182Y0143540D02*
X0158677Y0143540D01*
X0158677Y0143148D02*
X0133664Y0143148D01*
X0134146Y0142756D02*
X0158677Y0142756D01*
X0158677Y0142363D02*
X0134629Y0142363D01*
X0135111Y0141971D02*
X0158677Y0141971D01*
X0158677Y0141579D02*
X0135593Y0141579D01*
X0136075Y0141187D02*
X0158677Y0141187D01*
X0158677Y0140795D02*
X0136557Y0140795D01*
X0136680Y0140694D02*
X0136680Y0140694D01*
X0136953Y0140402D02*
X0158677Y0140402D01*
X0158677Y0140010D02*
X0137319Y0140010D01*
X0137685Y0139618D02*
X0158677Y0139618D01*
X0158677Y0139226D02*
X0138052Y0139226D01*
X0138418Y0138834D02*
X0158677Y0138834D01*
X0158677Y0138441D02*
X0138784Y0138441D01*
X0139151Y0138049D02*
X0158677Y0138049D01*
X0158677Y0137657D02*
X0139517Y0137657D01*
X0139883Y0137265D02*
X0158677Y0137265D01*
X0158677Y0136872D02*
X0140250Y0136872D01*
X0140616Y0136480D02*
X0158677Y0136480D01*
X0158677Y0136088D02*
X0140982Y0136088D01*
X0141348Y0135696D02*
X0158677Y0135696D01*
X0158677Y0135304D02*
X0141715Y0135304D01*
X0142081Y0134911D02*
X0158677Y0134911D01*
X0158677Y0134519D02*
X0142447Y0134519D01*
X0142814Y0134127D02*
X0158677Y0134127D01*
X0158677Y0133735D02*
X0143180Y0133735D01*
X0143546Y0133343D02*
X0158677Y0133343D01*
X0158677Y0132950D02*
X0143913Y0132950D01*
X0144279Y0132558D02*
X0158677Y0132558D01*
X0158677Y0132166D02*
X0144591Y0132166D01*
X0144425Y0132402D02*
X0144425Y0132402D01*
X0144868Y0131774D02*
X0158677Y0131774D01*
X0158677Y0131381D02*
X0145145Y0131381D01*
X0145422Y0130989D02*
X0158677Y0130989D01*
X0158677Y0130597D02*
X0145699Y0130597D01*
X0145976Y0130205D02*
X0158677Y0130205D01*
X0158677Y0129813D02*
X0146252Y0129813D01*
X0146529Y0129420D02*
X0158677Y0129420D01*
X0158677Y0129028D02*
X0146806Y0129028D01*
X0147083Y0128636D02*
X0158677Y0128636D01*
X0158677Y0128244D02*
X0147360Y0128244D01*
X0147637Y0127852D02*
X0158677Y0127852D01*
X0158677Y0127459D02*
X0147914Y0127459D01*
X0148190Y0127067D02*
X0158677Y0127067D01*
X0158677Y0126675D02*
X0148467Y0126675D01*
X0148744Y0126283D02*
X0158677Y0126283D01*
X0158677Y0125891D02*
X0149021Y0125891D01*
X0149298Y0125498D02*
X0158677Y0125498D01*
X0158677Y0125106D02*
X0149575Y0125106D01*
X0149852Y0124714D02*
X0158677Y0124714D01*
X0158677Y0124322D02*
X0150128Y0124322D01*
X0150405Y0123929D02*
X0158677Y0123929D01*
X0158677Y0123537D02*
X0150682Y0123537D01*
X0150959Y0123145D02*
X0158677Y0123145D01*
X0158677Y0122753D02*
X0151165Y0122753D01*
X0151368Y0122361D02*
X0158677Y0122361D01*
X0158677Y0121968D02*
X0151571Y0121968D01*
X0151774Y0121576D02*
X0158677Y0121576D01*
X0158677Y0121184D02*
X0151978Y0121184D01*
X0152181Y0120792D02*
X0158677Y0120792D01*
X0158677Y0120400D02*
X0152384Y0120400D01*
X0152587Y0120007D02*
X0158677Y0120007D01*
X0158677Y0119615D02*
X0152790Y0119615D01*
X0152994Y0119223D02*
X0158677Y0119223D01*
X0158677Y0118831D02*
X0153197Y0118831D01*
X0153400Y0118438D02*
X0158677Y0118438D01*
X0158677Y0118046D02*
X0153603Y0118046D01*
X0153807Y0117654D02*
X0158677Y0117654D01*
X0158677Y0117262D02*
X0154010Y0117262D01*
X0154213Y0116870D02*
X0158677Y0116870D01*
X0158677Y0116477D02*
X0154416Y0116477D01*
X0154620Y0116085D02*
X0158677Y0116085D01*
X0158677Y0115693D02*
X0154823Y0115693D01*
X0155026Y0115301D02*
X0158677Y0115301D01*
X0158677Y0114909D02*
X0155229Y0114909D01*
X0155432Y0114516D02*
X0158677Y0114516D01*
X0158677Y0114124D02*
X0155636Y0114124D01*
X0155839Y0113732D02*
X0158677Y0113732D01*
X0158677Y0113340D02*
X0156042Y0113340D01*
X0156227Y0112948D02*
X0158677Y0112948D01*
X0158677Y0112555D02*
X0156367Y0112555D01*
X0156506Y0112163D02*
X0158677Y0112163D01*
X0158677Y0111771D02*
X0156646Y0111771D01*
X0156785Y0111379D02*
X0158677Y0111379D01*
X0158677Y0110986D02*
X0156924Y0110986D01*
X0157064Y0110594D02*
X0158677Y0110594D01*
X0158677Y0110202D02*
X0157203Y0110202D01*
X0157343Y0109810D02*
X0158677Y0109810D01*
X0158677Y0109418D02*
X0157482Y0109418D01*
X0157621Y0109025D02*
X0158677Y0109025D01*
X0158677Y0108633D02*
X0157761Y0108633D01*
X0157900Y0108241D02*
X0158677Y0108241D01*
X0158677Y0107849D02*
X0158040Y0107849D01*
X0158179Y0107457D02*
X0158677Y0107457D01*
X0158677Y0107064D02*
X0158318Y0107064D01*
X0158458Y0106672D02*
X0158677Y0106672D01*
X0158677Y0106280D02*
X0158597Y0106280D01*
X0150408Y0103142D02*
X0140878Y0103142D01*
X0140878Y0102750D02*
X0150548Y0102750D01*
X0150687Y0102358D02*
X0140878Y0102358D01*
X0140878Y0101966D02*
X0150826Y0101966D01*
X0150966Y0101573D02*
X0140878Y0101573D01*
X0140878Y0101181D02*
X0151105Y0101181D01*
X0151244Y0100789D02*
X0140878Y0100789D01*
X0140878Y0100397D02*
X0151384Y0100397D01*
X0151523Y0100005D02*
X0140878Y0100005D01*
X0140878Y0099612D02*
X0151606Y0099612D01*
X0151688Y0099220D02*
X0140878Y0099220D01*
X0140878Y0098828D02*
X0151769Y0098828D01*
X0151851Y0098436D02*
X0140878Y0098436D01*
X0140878Y0098043D02*
X0151932Y0098043D01*
X0152014Y0097651D02*
X0140878Y0097651D01*
X0140878Y0097259D02*
X0152095Y0097259D01*
X0152177Y0096867D02*
X0140878Y0096867D01*
X0140878Y0096475D02*
X0152258Y0096475D01*
X0152340Y0096082D02*
X0140878Y0096082D01*
X0140878Y0095690D02*
X0152421Y0095690D01*
X0152503Y0095298D02*
X0140878Y0095298D01*
X0140878Y0094906D02*
X0152584Y0094906D01*
X0152666Y0094514D02*
X0140878Y0094514D01*
X0140878Y0094121D02*
X0152747Y0094121D01*
X0152829Y0093729D02*
X0140878Y0093729D01*
X0140878Y0093337D02*
X0152910Y0093337D01*
X0152992Y0092945D02*
X0140878Y0092945D01*
X0140878Y0092552D02*
X0153073Y0092552D01*
X0153155Y0092160D02*
X0140878Y0092160D01*
X0140878Y0091768D02*
X0153236Y0091768D01*
X0153318Y0091376D02*
X0140878Y0091376D01*
X0140878Y0090984D02*
X0153399Y0090984D01*
X0153481Y0090591D02*
X0140878Y0090591D01*
X0140878Y0090199D02*
X0153562Y0090199D01*
X0153608Y0089807D02*
X0140878Y0089807D01*
X0140878Y0089415D02*
X0153635Y0089415D01*
X0153662Y0089023D02*
X0140878Y0089023D01*
X0140878Y0088630D02*
X0153689Y0088630D01*
X0153716Y0088238D02*
X0140878Y0088238D01*
X0140878Y0087846D02*
X0153742Y0087846D01*
X0153769Y0087454D02*
X0140878Y0087454D01*
X0140878Y0087062D02*
X0153796Y0087062D01*
X0153823Y0086669D02*
X0140878Y0086669D01*
X0140878Y0086277D02*
X0153850Y0086277D01*
X0153877Y0085885D02*
X0140878Y0085885D01*
X0140878Y0085493D02*
X0153903Y0085493D01*
X0153930Y0085100D02*
X0140878Y0085100D01*
X0140878Y0084708D02*
X0153957Y0084708D01*
X0153984Y0084316D02*
X0140878Y0084316D01*
X0140878Y0083924D02*
X0154011Y0083924D01*
X0154038Y0083532D02*
X0140878Y0083532D01*
X0140878Y0083139D02*
X0154064Y0083139D01*
X0154091Y0082747D02*
X0140878Y0082747D01*
X0140878Y0082355D02*
X0154118Y0082355D01*
X0154145Y0081963D02*
X0140878Y0081963D01*
X0140878Y0081571D02*
X0154172Y0081571D01*
X0154199Y0081178D02*
X0140878Y0081178D01*
X0140878Y0080786D02*
X0154225Y0080786D01*
X0154252Y0080394D02*
X0140878Y0080394D01*
X0140878Y0080002D02*
X0154279Y0080002D01*
X0154261Y0079609D02*
X0140878Y0079609D01*
X0140878Y0079217D02*
X0154234Y0079217D01*
X0154207Y0078825D02*
X0140878Y0078825D01*
X0140878Y0078433D02*
X0154181Y0078433D01*
X0154154Y0078041D02*
X0140878Y0078041D01*
X0140878Y0077648D02*
X0154127Y0077648D01*
X0154100Y0077256D02*
X0140878Y0077256D01*
X0140878Y0076864D02*
X0154073Y0076864D01*
X0154046Y0076472D02*
X0140878Y0076472D01*
X0140878Y0076080D02*
X0154020Y0076080D01*
X0153993Y0075687D02*
X0140878Y0075687D01*
X0140878Y0075295D02*
X0153966Y0075295D01*
X0153939Y0074903D02*
X0140878Y0074903D01*
X0140878Y0074511D02*
X0153912Y0074511D01*
X0153885Y0074119D02*
X0140878Y0074119D01*
X0140878Y0073726D02*
X0153859Y0073726D01*
X0153832Y0073334D02*
X0140878Y0073334D01*
X0140878Y0072942D02*
X0153805Y0072942D01*
X0153778Y0072550D02*
X0140878Y0072550D01*
X0140878Y0072157D02*
X0153751Y0072157D01*
X0153725Y0071765D02*
X0140878Y0071765D01*
X0140878Y0071373D02*
X0153698Y0071373D01*
X0153671Y0070981D02*
X0140878Y0070981D01*
X0140878Y0070589D02*
X0153644Y0070589D01*
X0153617Y0070196D02*
X0140878Y0070196D01*
X0140878Y0069804D02*
X0153589Y0069804D01*
X0153591Y0069813D02*
X0153591Y0069813D01*
X0153508Y0069412D02*
X0140878Y0069412D01*
X0140878Y0069020D02*
X0153426Y0069020D01*
X0153345Y0068628D02*
X0140878Y0068628D01*
X0140878Y0068235D02*
X0153263Y0068235D01*
X0153182Y0067843D02*
X0140878Y0067843D01*
X0140878Y0067451D02*
X0153100Y0067451D01*
X0153019Y0067059D02*
X0140878Y0067059D01*
X0140878Y0066666D02*
X0152937Y0066666D01*
X0152856Y0066274D02*
X0140878Y0066274D01*
X0140878Y0065882D02*
X0152774Y0065882D01*
X0152693Y0065490D02*
X0140878Y0065490D01*
X0140878Y0065098D02*
X0152611Y0065098D01*
X0152530Y0064705D02*
X0140878Y0064705D01*
X0140878Y0064313D02*
X0152448Y0064313D01*
X0152367Y0063921D02*
X0140878Y0063921D01*
X0140878Y0063529D02*
X0152285Y0063529D01*
X0152204Y0063137D02*
X0140878Y0063137D01*
X0140878Y0062744D02*
X0152122Y0062744D01*
X0152041Y0062352D02*
X0140878Y0062352D01*
X0140878Y0061960D02*
X0151959Y0061960D01*
X0151878Y0061568D02*
X0140878Y0061568D01*
X0140878Y0061176D02*
X0151796Y0061176D01*
X0151715Y0060783D02*
X0140878Y0060783D01*
X0140878Y0060391D02*
X0151633Y0060391D01*
X0151552Y0059999D02*
X0140878Y0059999D01*
X0140878Y0059607D02*
X0151430Y0059607D01*
X0151290Y0059214D02*
X0140878Y0059214D01*
X0140878Y0058822D02*
X0151151Y0058822D01*
X0151012Y0058430D02*
X0140878Y0058430D01*
X0140878Y0058038D02*
X0150872Y0058038D01*
X0150733Y0057646D02*
X0140878Y0057646D01*
X0140878Y0057253D02*
X0150594Y0057253D01*
X0150454Y0056861D02*
X0140878Y0056861D01*
X0140878Y0056469D02*
X0150315Y0056469D01*
X0150175Y0056077D02*
X0140878Y0056077D01*
X0140878Y0055685D02*
X0150036Y0055685D01*
X0149897Y0055292D02*
X0140878Y0055292D01*
X0140878Y0054900D02*
X0149757Y0054900D01*
X0149618Y0054508D02*
X0140878Y0054508D01*
X0140878Y0054116D02*
X0149478Y0054116D01*
X0149339Y0053723D02*
X0140878Y0053723D01*
X0140878Y0053331D02*
X0149200Y0053331D01*
X0149060Y0052939D02*
X0140878Y0052939D01*
X0140878Y0052547D02*
X0148921Y0052547D01*
X0148781Y0052155D02*
X0140878Y0052155D01*
X0140878Y0051762D02*
X0148642Y0051762D01*
X0148503Y0051370D02*
X0140878Y0051370D01*
X0140878Y0050978D02*
X0148363Y0050978D01*
X0148224Y0050586D02*
X0140878Y0050586D01*
X0140878Y0050194D02*
X0148064Y0050194D01*
X0147861Y0049801D02*
X0140878Y0049801D01*
X0140878Y0049409D02*
X0147658Y0049409D01*
X0147455Y0049017D02*
X0140878Y0049017D01*
X0140878Y0048625D02*
X0147251Y0048625D01*
X0147048Y0048233D02*
X0140878Y0048233D01*
X0140878Y0047840D02*
X0146845Y0047840D01*
X0146642Y0047448D02*
X0140878Y0047448D01*
X0140878Y0047056D02*
X0146439Y0047056D01*
X0146235Y0046664D02*
X0140878Y0046664D01*
X0140878Y0046271D02*
X0146032Y0046271D01*
X0145829Y0045879D02*
X0140878Y0045879D01*
X0140878Y0045487D02*
X0145626Y0045487D01*
X0145422Y0045095D02*
X0140878Y0045095D01*
X0140878Y0044703D02*
X0145219Y0044703D01*
X0145016Y0044310D02*
X0140878Y0044310D01*
X0140878Y0043918D02*
X0144813Y0043918D01*
X0144609Y0043526D02*
X0140878Y0043526D01*
X0140878Y0043134D02*
X0144406Y0043134D01*
X0144203Y0042742D02*
X0140878Y0042742D01*
X0140878Y0042419D02*
X0140878Y0113483D01*
X0141407Y0114012D01*
X0141894Y0115187D01*
X0141894Y0116459D01*
X0141407Y0117634D01*
X0140508Y0118533D01*
X0139333Y0119020D01*
X0138061Y0119020D01*
X0136886Y0118533D01*
X0135987Y0117634D01*
X0135500Y0116459D01*
X0135500Y0115187D01*
X0135987Y0114012D01*
X0136516Y0113483D01*
X0136516Y0045504D01*
X0131295Y0045504D01*
X0129955Y0046844D01*
X0128155Y0047590D01*
X0126207Y0047590D01*
X0124407Y0046844D01*
X0123030Y0045467D01*
X0122284Y0043667D01*
X0122284Y0041719D01*
X0123030Y0039919D01*
X0124407Y0038542D01*
X0126207Y0037796D01*
X0128155Y0037796D01*
X0129955Y0038542D01*
X0131332Y0039919D01*
X0131839Y0041142D01*
X0139600Y0041142D01*
X0140878Y0042419D01*
X0140808Y0042349D02*
X0144000Y0042349D01*
X0143797Y0041957D02*
X0140416Y0041957D01*
X0140023Y0041565D02*
X0143593Y0041565D01*
X0143365Y0041173D02*
X0139631Y0041173D01*
X0142257Y0039604D02*
X0131017Y0039604D01*
X0131364Y0039996D02*
X0142534Y0039996D01*
X0142811Y0040388D02*
X0131527Y0040388D01*
X0131689Y0040780D02*
X0143088Y0040780D01*
X0141980Y0039212D02*
X0130625Y0039212D01*
X0130233Y0038819D02*
X0141704Y0038819D01*
X0141427Y0038427D02*
X0129679Y0038427D01*
X0128732Y0038035D02*
X0141150Y0038035D01*
X0140873Y0037643D02*
X0112351Y0037643D01*
X0111959Y0037251D02*
X0125362Y0037251D01*
X0125301Y0037231D02*
X0124615Y0036881D01*
X0123991Y0036428D01*
X0123446Y0035883D01*
X0122993Y0035259D01*
X0122643Y0034573D01*
X0122405Y0033840D01*
X0122284Y0033078D01*
X0122284Y0032890D01*
X0126984Y0032890D01*
X0126984Y0037590D01*
X0126796Y0037590D01*
X0126034Y0037469D01*
X0125301Y0037231D01*
X0124583Y0036858D02*
X0111567Y0036858D01*
X0111175Y0036466D02*
X0124044Y0036466D01*
X0123637Y0036074D02*
X0110782Y0036074D01*
X0110390Y0035682D02*
X0123300Y0035682D01*
X0123015Y0035290D02*
X0109998Y0035290D01*
X0109606Y0034897D02*
X0122808Y0034897D01*
X0122621Y0034505D02*
X0109214Y0034505D01*
X0108821Y0034113D02*
X0122494Y0034113D01*
X0122386Y0033721D02*
X0108429Y0033721D01*
X0108037Y0033328D02*
X0122324Y0033328D01*
X0122284Y0032936D02*
X0107645Y0032936D01*
X0106482Y0037942D02*
X0106894Y0038937D01*
X0106894Y0040209D01*
X0106407Y0041384D01*
X0105508Y0042283D01*
X0105493Y0042289D01*
X0105582Y0069767D01*
X0105594Y0069779D01*
X0105594Y0070579D01*
X0107141Y0072126D01*
X0121944Y0072126D01*
X0122137Y0071662D01*
X0123036Y0070763D01*
X0124211Y0070276D01*
X0125483Y0070276D01*
X0126658Y0070763D01*
X0127557Y0071662D01*
X0127766Y0072166D01*
X0127766Y0059226D01*
X0106482Y0037942D01*
X0106520Y0038035D02*
X0106575Y0038035D01*
X0106683Y0038427D02*
X0106967Y0038427D01*
X0106845Y0038819D02*
X0107359Y0038819D01*
X0107751Y0039212D02*
X0106894Y0039212D01*
X0106894Y0039604D02*
X0108143Y0039604D01*
X0108536Y0039996D02*
X0106894Y0039996D01*
X0106819Y0040388D02*
X0108928Y0040388D01*
X0109320Y0040780D02*
X0106657Y0040780D01*
X0106494Y0041173D02*
X0109712Y0041173D01*
X0110104Y0041565D02*
X0106226Y0041565D01*
X0105834Y0041957D02*
X0110497Y0041957D01*
X0110889Y0042349D02*
X0105493Y0042349D01*
X0105494Y0042742D02*
X0111281Y0042742D01*
X0111673Y0043134D02*
X0105496Y0043134D01*
X0105497Y0043526D02*
X0112065Y0043526D01*
X0112458Y0043918D02*
X0105498Y0043918D01*
X0105500Y0044310D02*
X0112850Y0044310D01*
X0113242Y0044703D02*
X0105501Y0044703D01*
X0105502Y0045095D02*
X0113634Y0045095D01*
X0114027Y0045487D02*
X0105503Y0045487D01*
X0105505Y0045879D02*
X0114419Y0045879D01*
X0114811Y0046271D02*
X0105506Y0046271D01*
X0105507Y0046664D02*
X0115203Y0046664D01*
X0115595Y0047056D02*
X0105508Y0047056D01*
X0105510Y0047448D02*
X0115988Y0047448D01*
X0116380Y0047840D02*
X0105511Y0047840D01*
X0105512Y0048233D02*
X0116772Y0048233D01*
X0117164Y0048625D02*
X0105513Y0048625D01*
X0105515Y0049017D02*
X0117556Y0049017D01*
X0117949Y0049409D02*
X0105516Y0049409D01*
X0105517Y0049801D02*
X0118341Y0049801D01*
X0118733Y0050194D02*
X0105519Y0050194D01*
X0105520Y0050586D02*
X0119125Y0050586D01*
X0119518Y0050978D02*
X0105521Y0050978D01*
X0105522Y0051370D02*
X0119910Y0051370D01*
X0120302Y0051762D02*
X0105524Y0051762D01*
X0105525Y0052155D02*
X0120694Y0052155D01*
X0121086Y0052547D02*
X0105526Y0052547D01*
X0105527Y0052939D02*
X0121479Y0052939D01*
X0121871Y0053331D02*
X0105529Y0053331D01*
X0105530Y0053723D02*
X0122263Y0053723D01*
X0122655Y0054116D02*
X0105531Y0054116D01*
X0105532Y0054508D02*
X0123047Y0054508D01*
X0123440Y0054900D02*
X0105534Y0054900D01*
X0105535Y0055292D02*
X0123832Y0055292D01*
X0124224Y0055685D02*
X0105536Y0055685D01*
X0105538Y0056077D02*
X0124616Y0056077D01*
X0125008Y0056469D02*
X0105539Y0056469D01*
X0105540Y0056861D02*
X0125401Y0056861D01*
X0125793Y0057253D02*
X0105541Y0057253D01*
X0105543Y0057646D02*
X0126185Y0057646D01*
X0126577Y0058038D02*
X0105544Y0058038D01*
X0105545Y0058430D02*
X0126970Y0058430D01*
X0127362Y0058822D02*
X0105546Y0058822D01*
X0105548Y0059214D02*
X0127754Y0059214D01*
X0127766Y0059607D02*
X0105549Y0059607D01*
X0105550Y0059999D02*
X0127766Y0059999D01*
X0127766Y0060391D02*
X0105552Y0060391D01*
X0105553Y0060783D02*
X0127766Y0060783D01*
X0127766Y0061176D02*
X0105554Y0061176D01*
X0105555Y0061568D02*
X0127766Y0061568D01*
X0127766Y0061960D02*
X0105557Y0061960D01*
X0105558Y0062352D02*
X0127766Y0062352D01*
X0127766Y0062744D02*
X0105559Y0062744D01*
X0105560Y0063137D02*
X0127766Y0063137D01*
X0127766Y0063529D02*
X0105562Y0063529D01*
X0105563Y0063921D02*
X0127766Y0063921D01*
X0127766Y0064313D02*
X0105564Y0064313D01*
X0105565Y0064705D02*
X0127766Y0064705D01*
X0127766Y0065098D02*
X0105567Y0065098D01*
X0105568Y0065490D02*
X0127766Y0065490D01*
X0127766Y0065882D02*
X0105569Y0065882D01*
X0105571Y0066274D02*
X0127766Y0066274D01*
X0127766Y0066666D02*
X0105572Y0066666D01*
X0105573Y0067059D02*
X0127766Y0067059D01*
X0127766Y0067451D02*
X0105574Y0067451D01*
X0105576Y0067843D02*
X0127766Y0067843D01*
X0127766Y0068235D02*
X0105577Y0068235D01*
X0105578Y0068628D02*
X0127766Y0068628D01*
X0127766Y0069020D02*
X0105579Y0069020D01*
X0105581Y0069412D02*
X0127766Y0069412D01*
X0127766Y0069804D02*
X0105594Y0069804D01*
X0105594Y0070196D02*
X0127766Y0070196D01*
X0127766Y0070589D02*
X0126237Y0070589D01*
X0126876Y0070981D02*
X0127766Y0070981D01*
X0127766Y0071373D02*
X0127268Y0071373D01*
X0127600Y0071765D02*
X0127766Y0071765D01*
X0127762Y0072157D02*
X0127766Y0072157D01*
X0127715Y0074903D02*
X0127766Y0074903D01*
X0127766Y0075295D02*
X0127546Y0075295D01*
X0127766Y0075687D02*
X0127153Y0075687D01*
X0126761Y0076080D02*
X0127766Y0076080D01*
X0127766Y0076472D02*
X0125960Y0076472D01*
X0122094Y0071765D02*
X0106780Y0071765D01*
X0106388Y0071373D02*
X0122426Y0071373D01*
X0122818Y0070981D02*
X0105996Y0070981D01*
X0105604Y0070589D02*
X0123456Y0070589D01*
X0132128Y0070589D02*
X0136516Y0070589D01*
X0136516Y0070981D02*
X0132128Y0070981D01*
X0132128Y0071373D02*
X0136516Y0071373D01*
X0136516Y0071765D02*
X0132128Y0071765D01*
X0132128Y0072157D02*
X0136516Y0072157D01*
X0136516Y0072550D02*
X0132128Y0072550D01*
X0132128Y0072942D02*
X0136516Y0072942D01*
X0136516Y0073334D02*
X0132128Y0073334D01*
X0132128Y0073726D02*
X0136516Y0073726D01*
X0136516Y0074119D02*
X0132128Y0074119D01*
X0132128Y0074511D02*
X0136516Y0074511D01*
X0136516Y0074903D02*
X0132128Y0074903D01*
X0132128Y0075295D02*
X0136516Y0075295D01*
X0136516Y0075687D02*
X0132128Y0075687D01*
X0132128Y0076080D02*
X0136516Y0076080D01*
X0136516Y0076472D02*
X0132128Y0076472D01*
X0132128Y0076864D02*
X0136516Y0076864D01*
X0136516Y0077256D02*
X0132128Y0077256D01*
X0132128Y0077648D02*
X0136516Y0077648D01*
X0136516Y0078041D02*
X0132128Y0078041D01*
X0132128Y0078433D02*
X0136516Y0078433D01*
X0136516Y0078825D02*
X0132128Y0078825D01*
X0132128Y0079217D02*
X0136516Y0079217D01*
X0136516Y0079609D02*
X0132128Y0079609D01*
X0132128Y0080002D02*
X0136516Y0080002D01*
X0136516Y0080394D02*
X0132128Y0080394D01*
X0132128Y0080786D02*
X0136516Y0080786D01*
X0136516Y0081178D02*
X0132128Y0081178D01*
X0132128Y0081571D02*
X0136516Y0081571D01*
X0136516Y0081963D02*
X0132128Y0081963D01*
X0132128Y0082355D02*
X0136516Y0082355D01*
X0136516Y0082747D02*
X0132128Y0082747D01*
X0132128Y0083139D02*
X0136516Y0083139D01*
X0136516Y0083532D02*
X0132128Y0083532D01*
X0132128Y0083924D02*
X0136516Y0083924D01*
X0136516Y0084316D02*
X0132128Y0084316D01*
X0132128Y0084708D02*
X0136516Y0084708D01*
X0136516Y0085100D02*
X0132128Y0085100D01*
X0132128Y0085493D02*
X0136516Y0085493D01*
X0136516Y0085885D02*
X0132128Y0085885D01*
X0132128Y0086277D02*
X0136516Y0086277D01*
X0136516Y0086669D02*
X0132128Y0086669D01*
X0132128Y0087062D02*
X0136516Y0087062D01*
X0136516Y0087454D02*
X0132128Y0087454D01*
X0132128Y0087846D02*
X0136516Y0087846D01*
X0136516Y0088238D02*
X0132128Y0088238D01*
X0132128Y0088630D02*
X0136516Y0088630D01*
X0136516Y0089023D02*
X0132128Y0089023D01*
X0132128Y0089415D02*
X0136516Y0089415D01*
X0136516Y0089807D02*
X0132128Y0089807D01*
X0132128Y0090199D02*
X0136516Y0090199D01*
X0136516Y0090591D02*
X0132128Y0090591D01*
X0132128Y0090984D02*
X0136516Y0090984D01*
X0136516Y0091376D02*
X0132128Y0091376D01*
X0132128Y0091768D02*
X0136516Y0091768D01*
X0136516Y0092160D02*
X0132128Y0092160D01*
X0132128Y0092552D02*
X0136516Y0092552D01*
X0136516Y0092945D02*
X0132128Y0092945D01*
X0132128Y0093337D02*
X0136516Y0093337D01*
X0136516Y0093729D02*
X0132128Y0093729D01*
X0132128Y0094121D02*
X0136516Y0094121D01*
X0136516Y0094514D02*
X0132128Y0094514D01*
X0132128Y0094906D02*
X0136516Y0094906D01*
X0136516Y0095298D02*
X0132128Y0095298D01*
X0132128Y0095690D02*
X0136516Y0095690D01*
X0136516Y0096082D02*
X0132128Y0096082D01*
X0132128Y0096475D02*
X0136516Y0096475D01*
X0136516Y0096867D02*
X0132128Y0096867D01*
X0132128Y0097259D02*
X0136516Y0097259D01*
X0136516Y0097651D02*
X0132128Y0097651D01*
X0132128Y0098043D02*
X0136516Y0098043D01*
X0136516Y0098436D02*
X0132128Y0098436D01*
X0132128Y0098828D02*
X0136516Y0098828D01*
X0136516Y0099220D02*
X0132128Y0099220D01*
X0132128Y0099612D02*
X0136516Y0099612D01*
X0136516Y0100005D02*
X0132128Y0100005D01*
X0132128Y0100397D02*
X0136516Y0100397D01*
X0136516Y0100789D02*
X0132128Y0100789D01*
X0132128Y0101181D02*
X0136516Y0101181D01*
X0136516Y0101573D02*
X0132128Y0101573D01*
X0132128Y0101966D02*
X0136516Y0101966D01*
X0136516Y0102358D02*
X0132128Y0102358D01*
X0132128Y0102750D02*
X0136516Y0102750D01*
X0136516Y0103142D02*
X0132128Y0103142D01*
X0132128Y0103534D02*
X0136516Y0103534D01*
X0136516Y0103927D02*
X0132128Y0103927D01*
X0132128Y0104319D02*
X0136516Y0104319D01*
X0136516Y0104711D02*
X0132128Y0104711D01*
X0132128Y0105103D02*
X0136516Y0105103D01*
X0136516Y0105495D02*
X0132128Y0105495D01*
X0132128Y0105888D02*
X0136516Y0105888D01*
X0136516Y0106280D02*
X0132128Y0106280D01*
X0132128Y0106672D02*
X0136516Y0106672D01*
X0136516Y0107064D02*
X0132128Y0107064D01*
X0132128Y0107457D02*
X0136516Y0107457D01*
X0136516Y0107849D02*
X0132128Y0107849D01*
X0132128Y0108241D02*
X0136516Y0108241D01*
X0136516Y0108633D02*
X0132128Y0108633D01*
X0132128Y0109025D02*
X0136516Y0109025D01*
X0136516Y0109418D02*
X0131937Y0109418D01*
X0131544Y0109810D02*
X0136516Y0109810D01*
X0136516Y0110202D02*
X0131152Y0110202D01*
X0130760Y0110594D02*
X0136516Y0110594D01*
X0136516Y0110986D02*
X0130368Y0110986D01*
X0129976Y0111379D02*
X0136516Y0111379D01*
X0136516Y0111771D02*
X0129583Y0111771D01*
X0129191Y0112163D02*
X0136516Y0112163D01*
X0136516Y0112555D02*
X0128799Y0112555D01*
X0128407Y0112948D02*
X0136516Y0112948D01*
X0136516Y0113340D02*
X0128014Y0113340D01*
X0127622Y0113732D02*
X0136267Y0113732D01*
X0135940Y0114124D02*
X0127230Y0114124D01*
X0126838Y0114516D02*
X0135778Y0114516D01*
X0135615Y0114909D02*
X0126446Y0114909D01*
X0126053Y0115301D02*
X0135500Y0115301D01*
X0135500Y0115693D02*
X0125661Y0115693D01*
X0125269Y0116085D02*
X0135500Y0116085D01*
X0135508Y0116477D02*
X0124877Y0116477D01*
X0124485Y0116870D02*
X0135670Y0116870D01*
X0135833Y0117262D02*
X0124092Y0117262D01*
X0123700Y0117654D02*
X0136007Y0117654D01*
X0136399Y0118046D02*
X0123308Y0118046D01*
X0123144Y0118438D02*
X0136791Y0118438D01*
X0137605Y0118831D02*
X0123144Y0118831D01*
X0123034Y0119223D02*
X0142997Y0119223D01*
X0143273Y0118831D02*
X0139789Y0118831D01*
X0140602Y0118438D02*
X0143526Y0118438D01*
X0143729Y0118046D02*
X0140994Y0118046D01*
X0141387Y0117654D02*
X0143933Y0117654D01*
X0144136Y0117262D02*
X0141561Y0117262D01*
X0141723Y0116870D02*
X0144339Y0116870D01*
X0144542Y0116477D02*
X0141886Y0116477D01*
X0141894Y0116085D02*
X0144746Y0116085D01*
X0144949Y0115693D02*
X0141894Y0115693D01*
X0141894Y0115301D02*
X0145152Y0115301D01*
X0145355Y0114909D02*
X0141778Y0114909D01*
X0141616Y0114516D02*
X0145559Y0114516D01*
X0145762Y0114124D02*
X0141453Y0114124D01*
X0141127Y0113732D02*
X0145965Y0113732D01*
X0146168Y0113340D02*
X0140878Y0113340D01*
X0140878Y0112948D02*
X0146371Y0112948D01*
X0146575Y0112555D02*
X0140878Y0112555D01*
X0140878Y0112163D02*
X0146778Y0112163D01*
X0146981Y0111771D02*
X0140878Y0111771D01*
X0140878Y0111379D02*
X0147184Y0111379D01*
X0147388Y0110986D02*
X0140878Y0110986D01*
X0140878Y0110594D02*
X0147591Y0110594D01*
X0147794Y0110202D02*
X0140878Y0110202D01*
X0140878Y0109810D02*
X0147997Y0109810D01*
X0148178Y0109418D02*
X0140878Y0109418D01*
X0140878Y0109025D02*
X0148317Y0109025D01*
X0148457Y0108633D02*
X0140878Y0108633D01*
X0140878Y0108241D02*
X0148596Y0108241D01*
X0148735Y0107849D02*
X0140878Y0107849D01*
X0140878Y0107457D02*
X0148875Y0107457D01*
X0149014Y0107064D02*
X0140878Y0107064D01*
X0140878Y0106672D02*
X0149154Y0106672D01*
X0149293Y0106280D02*
X0140878Y0106280D01*
X0140878Y0105888D02*
X0149432Y0105888D01*
X0149572Y0105495D02*
X0140878Y0105495D01*
X0140878Y0105103D02*
X0149711Y0105103D01*
X0149851Y0104711D02*
X0140878Y0104711D01*
X0140878Y0104319D02*
X0149990Y0104319D01*
X0150129Y0103927D02*
X0140878Y0103927D01*
X0140878Y0103534D02*
X0150269Y0103534D01*
X0142720Y0119615D02*
X0122872Y0119615D01*
X0122709Y0120007D02*
X0142443Y0120007D01*
X0142166Y0120400D02*
X0122391Y0120400D01*
X0121999Y0120792D02*
X0141889Y0120792D01*
X0139951Y0123537D02*
X0120879Y0123537D01*
X0121826Y0123929D02*
X0139674Y0123929D01*
X0139397Y0124322D02*
X0122723Y0124322D01*
X0123115Y0124714D02*
X0139121Y0124714D01*
X0138844Y0125106D02*
X0123507Y0125106D01*
X0123900Y0125498D02*
X0138567Y0125498D01*
X0138290Y0125891D02*
X0124292Y0125891D01*
X0124498Y0126283D02*
X0138013Y0126283D01*
X0137736Y0126675D02*
X0124661Y0126675D01*
X0124823Y0127067D02*
X0137411Y0127067D01*
X0137045Y0127459D02*
X0124986Y0127459D01*
X0125148Y0127852D02*
X0136679Y0127852D01*
X0136312Y0128244D02*
X0125276Y0128244D01*
X0125276Y0128636D02*
X0135946Y0128636D01*
X0135580Y0129028D02*
X0125276Y0129028D01*
X0125276Y0129420D02*
X0135214Y0129420D01*
X0134847Y0129813D02*
X0125276Y0129813D01*
X0125276Y0130205D02*
X0134481Y0130205D01*
X0134115Y0130597D02*
X0125249Y0130597D01*
X0125087Y0130989D02*
X0133748Y0130989D01*
X0133382Y0131381D02*
X0124924Y0131381D01*
X0124762Y0131774D02*
X0133016Y0131774D01*
X0132649Y0132166D02*
X0124599Y0132166D01*
X0124437Y0132558D02*
X0132283Y0132558D01*
X0131917Y0132950D02*
X0124144Y0132950D01*
X0123752Y0133343D02*
X0131551Y0133343D01*
X0131184Y0133735D02*
X0123359Y0133735D01*
X0122967Y0134127D02*
X0130818Y0134127D01*
X0130379Y0134519D02*
X0122415Y0134519D01*
X0121469Y0134911D02*
X0129897Y0134911D01*
X0129414Y0135304D02*
X0120522Y0135304D01*
X0117401Y0107064D02*
X0107055Y0107064D01*
X0106793Y0106672D02*
X0116454Y0106672D01*
X0115753Y0106280D02*
X0106531Y0106280D01*
X0106269Y0105888D02*
X0115360Y0105888D01*
X0114968Y0105495D02*
X0105945Y0105495D01*
X0105553Y0105103D02*
X0114576Y0105103D01*
X0114221Y0104711D02*
X0105160Y0104711D01*
X0104768Y0104319D02*
X0114058Y0104319D01*
X0113896Y0103927D02*
X0104376Y0103927D01*
X0103984Y0103534D02*
X0113734Y0103534D01*
X0113571Y0103142D02*
X0103592Y0103142D01*
X0103199Y0102750D02*
X0113409Y0102750D01*
X0113339Y0102358D02*
X0102807Y0102358D01*
X0102415Y0101966D02*
X0113339Y0101966D01*
X0113339Y0101573D02*
X0102023Y0101573D01*
X0101631Y0101181D02*
X0113339Y0101181D01*
X0113339Y0100789D02*
X0101141Y0100789D01*
X0100554Y0100397D02*
X0113339Y0100397D01*
X0113422Y0100005D02*
X0099967Y0100005D01*
X0099380Y0099612D02*
X0113585Y0099612D01*
X0113747Y0099220D02*
X0098793Y0099220D01*
X0098206Y0098828D02*
X0113910Y0098828D01*
X0114072Y0098436D02*
X0097619Y0098436D01*
X0097032Y0098043D02*
X0114235Y0098043D01*
X0114609Y0097651D02*
X0096445Y0097651D01*
X0095825Y0097259D02*
X0115001Y0097259D01*
X0115393Y0096867D02*
X0094878Y0096867D01*
X0093931Y0096475D02*
X0115785Y0096475D01*
X0116533Y0096082D02*
X0092984Y0096082D01*
X0092037Y0095690D02*
X0117480Y0095690D01*
X0132128Y0070196D02*
X0136516Y0070196D01*
X0136516Y0069804D02*
X0132128Y0069804D01*
X0132128Y0069412D02*
X0136516Y0069412D01*
X0136516Y0069020D02*
X0132128Y0069020D01*
X0132128Y0068628D02*
X0136516Y0068628D01*
X0136516Y0068235D02*
X0132128Y0068235D01*
X0132128Y0067843D02*
X0136516Y0067843D01*
X0136516Y0067451D02*
X0132128Y0067451D01*
X0132128Y0067059D02*
X0136516Y0067059D01*
X0136516Y0066666D02*
X0132128Y0066666D01*
X0132128Y0066274D02*
X0136516Y0066274D01*
X0136516Y0065882D02*
X0132128Y0065882D01*
X0132128Y0065490D02*
X0136516Y0065490D01*
X0136516Y0065098D02*
X0132128Y0065098D01*
X0132128Y0064705D02*
X0136516Y0064705D01*
X0136516Y0064313D02*
X0132128Y0064313D01*
X0132128Y0063921D02*
X0136516Y0063921D01*
X0136516Y0063529D02*
X0132128Y0063529D01*
X0132128Y0063137D02*
X0136516Y0063137D01*
X0136516Y0062744D02*
X0133144Y0062744D01*
X0134091Y0062352D02*
X0136516Y0062352D01*
X0136516Y0061960D02*
X0134581Y0061960D01*
X0134973Y0061568D02*
X0136516Y0061568D01*
X0136516Y0061176D02*
X0135243Y0061176D01*
X0135406Y0060783D02*
X0136516Y0060783D01*
X0136516Y0060391D02*
X0135568Y0060391D01*
X0135644Y0059999D02*
X0136516Y0059999D01*
X0136516Y0059607D02*
X0135644Y0059607D01*
X0135644Y0059214D02*
X0136516Y0059214D01*
X0136516Y0058822D02*
X0135596Y0058822D01*
X0135434Y0058430D02*
X0136516Y0058430D01*
X0136516Y0058038D02*
X0135271Y0058038D01*
X0135041Y0057646D02*
X0136516Y0057646D01*
X0136516Y0057253D02*
X0134648Y0057253D01*
X0134254Y0056861D02*
X0136516Y0056861D01*
X0136516Y0056469D02*
X0133307Y0056469D01*
X0131586Y0056469D02*
X0131178Y0056469D01*
X0130785Y0056077D02*
X0136516Y0056077D01*
X0136516Y0055685D02*
X0130393Y0055685D01*
X0130001Y0055292D02*
X0136516Y0055292D01*
X0136516Y0054900D02*
X0129609Y0054900D01*
X0129216Y0054508D02*
X0136516Y0054508D01*
X0136516Y0054116D02*
X0128824Y0054116D01*
X0128432Y0053723D02*
X0136516Y0053723D01*
X0136516Y0053331D02*
X0128040Y0053331D01*
X0127648Y0052939D02*
X0136516Y0052939D01*
X0136516Y0052547D02*
X0127255Y0052547D01*
X0126863Y0052155D02*
X0136516Y0052155D01*
X0136516Y0051762D02*
X0126471Y0051762D01*
X0126079Y0051370D02*
X0136516Y0051370D01*
X0136516Y0050978D02*
X0125687Y0050978D01*
X0125294Y0050586D02*
X0136516Y0050586D01*
X0136516Y0050194D02*
X0124902Y0050194D01*
X0124510Y0049801D02*
X0136516Y0049801D01*
X0136516Y0049409D02*
X0124118Y0049409D01*
X0123725Y0049017D02*
X0136516Y0049017D01*
X0136516Y0048625D02*
X0123333Y0048625D01*
X0122941Y0048233D02*
X0136516Y0048233D01*
X0136516Y0047840D02*
X0122549Y0047840D01*
X0122157Y0047448D02*
X0125865Y0047448D01*
X0124918Y0047056D02*
X0121764Y0047056D01*
X0121372Y0046664D02*
X0124227Y0046664D01*
X0123834Y0046271D02*
X0120980Y0046271D01*
X0120588Y0045879D02*
X0123442Y0045879D01*
X0123050Y0045487D02*
X0120196Y0045487D01*
X0119803Y0045095D02*
X0122876Y0045095D01*
X0122713Y0044703D02*
X0119411Y0044703D01*
X0119019Y0044310D02*
X0122551Y0044310D01*
X0122388Y0043918D02*
X0118627Y0043918D01*
X0118235Y0043526D02*
X0122284Y0043526D01*
X0122284Y0043134D02*
X0117842Y0043134D01*
X0117450Y0042742D02*
X0122284Y0042742D01*
X0122284Y0042349D02*
X0117058Y0042349D01*
X0116666Y0041957D02*
X0122284Y0041957D01*
X0122348Y0041565D02*
X0116273Y0041565D01*
X0115881Y0041173D02*
X0122510Y0041173D01*
X0122673Y0040780D02*
X0115489Y0040780D01*
X0115097Y0040388D02*
X0122835Y0040388D01*
X0122998Y0039996D02*
X0114705Y0039996D01*
X0114312Y0039604D02*
X0123345Y0039604D01*
X0123737Y0039212D02*
X0113920Y0039212D01*
X0113528Y0038819D02*
X0124129Y0038819D01*
X0124683Y0038427D02*
X0113136Y0038427D01*
X0112744Y0038035D02*
X0125630Y0038035D01*
X0126984Y0037251D02*
X0127378Y0037251D01*
X0127378Y0037590D02*
X0127566Y0037590D01*
X0128328Y0037469D01*
X0129061Y0037231D01*
X0129748Y0036881D01*
X0130371Y0036428D01*
X0130916Y0035883D01*
X0131369Y0035259D01*
X0131719Y0034573D01*
X0131957Y0033840D01*
X0132078Y0033078D01*
X0132078Y0032890D01*
X0127378Y0032890D01*
X0127378Y0037590D01*
X0127378Y0036858D02*
X0126984Y0036858D01*
X0126984Y0036466D02*
X0127378Y0036466D01*
X0127378Y0036074D02*
X0126984Y0036074D01*
X0126984Y0035682D02*
X0127378Y0035682D01*
X0127378Y0035290D02*
X0126984Y0035290D01*
X0126984Y0034897D02*
X0127378Y0034897D01*
X0127378Y0034505D02*
X0126984Y0034505D01*
X0126984Y0034113D02*
X0127378Y0034113D01*
X0127378Y0033721D02*
X0126984Y0033721D01*
X0126984Y0033328D02*
X0127378Y0033328D01*
X0127378Y0032936D02*
X0126984Y0032936D01*
X0127378Y0032544D02*
X0137166Y0032544D01*
X0137532Y0032936D02*
X0132078Y0032936D01*
X0132038Y0033328D02*
X0137828Y0033328D01*
X0138105Y0033721D02*
X0131976Y0033721D01*
X0131869Y0034113D02*
X0138381Y0034113D01*
X0138658Y0034505D02*
X0131741Y0034505D01*
X0131554Y0034897D02*
X0138935Y0034897D01*
X0139212Y0035290D02*
X0131347Y0035290D01*
X0131062Y0035682D02*
X0139489Y0035682D01*
X0139766Y0036074D02*
X0130725Y0036074D01*
X0130319Y0036466D02*
X0140042Y0036466D01*
X0140319Y0036858D02*
X0129779Y0036858D01*
X0129001Y0037251D02*
X0140596Y0037251D01*
X0136800Y0032152D02*
X0132053Y0032152D01*
X0131991Y0031760D02*
X0136433Y0031760D01*
X0136067Y0031367D02*
X0131899Y0031367D01*
X0131772Y0030975D02*
X0135701Y0030975D01*
X0135334Y0030583D02*
X0131602Y0030583D01*
X0131402Y0030191D02*
X0134968Y0030191D01*
X0134602Y0029799D02*
X0131131Y0029799D01*
X0130820Y0029406D02*
X0134235Y0029406D01*
X0133869Y0029014D02*
X0130428Y0029014D01*
X0129909Y0028622D02*
X0133503Y0028622D01*
X0133137Y0028230D02*
X0129208Y0028230D01*
X0137440Y0019993D02*
X0158677Y0019993D01*
X0158677Y0019601D02*
X0137074Y0019601D01*
X0136707Y0019209D02*
X0158677Y0019209D01*
X0158677Y0018817D02*
X0136234Y0018817D01*
X0136680Y0019180D02*
X0144425Y0027472D01*
X0150968Y0036742D01*
X0156188Y0046816D01*
X0158677Y0053819D01*
X0158677Y0001197D01*
X0106326Y0001197D01*
X0107777Y0001603D01*
X0118184Y0006124D01*
X0127879Y0012019D01*
X0136680Y0019180D01*
X0136680Y0019180D01*
X0135752Y0018424D02*
X0158677Y0018424D01*
X0158677Y0018032D02*
X0135270Y0018032D01*
X0134788Y0017640D02*
X0158677Y0017640D01*
X0158677Y0017248D02*
X0134306Y0017248D01*
X0133823Y0016856D02*
X0158677Y0016856D01*
X0158677Y0016463D02*
X0133341Y0016463D01*
X0132859Y0016071D02*
X0158677Y0016071D01*
X0158677Y0015679D02*
X0132377Y0015679D01*
X0131895Y0015287D02*
X0158677Y0015287D01*
X0158677Y0014895D02*
X0131413Y0014895D01*
X0130931Y0014502D02*
X0158677Y0014502D01*
X0158677Y0014110D02*
X0130449Y0014110D01*
X0129967Y0013718D02*
X0158677Y0013718D01*
X0158677Y0013326D02*
X0129485Y0013326D01*
X0129002Y0012933D02*
X0158677Y0012933D01*
X0158677Y0012541D02*
X0128520Y0012541D01*
X0128038Y0012149D02*
X0158677Y0012149D01*
X0158677Y0011757D02*
X0127447Y0011757D01*
X0126802Y0011365D02*
X0158677Y0011365D01*
X0158677Y0010972D02*
X0126157Y0010972D01*
X0125512Y0010580D02*
X0158677Y0010580D01*
X0158677Y0010188D02*
X0124867Y0010188D01*
X0124222Y0009796D02*
X0158677Y0009796D01*
X0158677Y0009404D02*
X0123577Y0009404D01*
X0122932Y0009011D02*
X0158677Y0009011D01*
X0158677Y0008619D02*
X0122288Y0008619D01*
X0121643Y0008227D02*
X0158677Y0008227D01*
X0158677Y0007835D02*
X0120998Y0007835D01*
X0120353Y0007442D02*
X0158677Y0007442D01*
X0158677Y0007050D02*
X0119708Y0007050D01*
X0119063Y0006658D02*
X0158677Y0006658D01*
X0158677Y0006266D02*
X0118418Y0006266D01*
X0117608Y0005874D02*
X0158677Y0005874D01*
X0158677Y0005481D02*
X0116705Y0005481D01*
X0115802Y0005089D02*
X0158677Y0005089D01*
X0158677Y0004697D02*
X0114899Y0004697D01*
X0113996Y0004305D02*
X0158677Y0004305D01*
X0158677Y0003913D02*
X0113093Y0003913D01*
X0112191Y0003520D02*
X0158677Y0003520D01*
X0158677Y0003128D02*
X0111288Y0003128D01*
X0110385Y0002736D02*
X0158677Y0002736D01*
X0158677Y0002344D02*
X0109482Y0002344D01*
X0108579Y0001952D02*
X0158677Y0001952D01*
X0158677Y0001559D02*
X0107620Y0001559D01*
X0107777Y0001603D02*
X0107777Y0001603D01*
X0137806Y0020385D02*
X0158677Y0020385D01*
X0158677Y0020778D02*
X0138173Y0020778D01*
X0138539Y0021170D02*
X0158677Y0021170D01*
X0158677Y0021562D02*
X0138905Y0021562D01*
X0139271Y0021954D02*
X0158677Y0021954D01*
X0158677Y0022347D02*
X0139638Y0022347D01*
X0140004Y0022739D02*
X0158677Y0022739D01*
X0158677Y0023131D02*
X0140370Y0023131D01*
X0140737Y0023523D02*
X0158677Y0023523D01*
X0158677Y0023915D02*
X0141103Y0023915D01*
X0141469Y0024308D02*
X0158677Y0024308D01*
X0158677Y0024700D02*
X0141836Y0024700D01*
X0142202Y0025092D02*
X0158677Y0025092D01*
X0158677Y0025484D02*
X0142568Y0025484D01*
X0142934Y0025876D02*
X0158677Y0025876D01*
X0158677Y0026269D02*
X0143301Y0026269D01*
X0143667Y0026661D02*
X0158677Y0026661D01*
X0158677Y0027053D02*
X0144033Y0027053D01*
X0144400Y0027445D02*
X0158677Y0027445D01*
X0158677Y0027837D02*
X0144683Y0027837D01*
X0144960Y0028230D02*
X0158677Y0028230D01*
X0158677Y0028622D02*
X0145236Y0028622D01*
X0145513Y0029014D02*
X0158677Y0029014D01*
X0158677Y0029406D02*
X0145790Y0029406D01*
X0146067Y0029799D02*
X0158677Y0029799D01*
X0158677Y0030191D02*
X0146344Y0030191D01*
X0146621Y0030583D02*
X0158677Y0030583D01*
X0158677Y0030975D02*
X0146898Y0030975D01*
X0147174Y0031367D02*
X0158677Y0031367D01*
X0158677Y0031760D02*
X0147451Y0031760D01*
X0147728Y0032152D02*
X0158677Y0032152D01*
X0158677Y0032544D02*
X0148005Y0032544D01*
X0148282Y0032936D02*
X0158677Y0032936D01*
X0158677Y0033328D02*
X0148559Y0033328D01*
X0148836Y0033721D02*
X0158677Y0033721D01*
X0158677Y0034113D02*
X0149112Y0034113D01*
X0149389Y0034505D02*
X0158677Y0034505D01*
X0158677Y0034897D02*
X0149666Y0034897D01*
X0149943Y0035290D02*
X0158677Y0035290D01*
X0158677Y0035682D02*
X0150220Y0035682D01*
X0150497Y0036074D02*
X0158677Y0036074D01*
X0158677Y0036466D02*
X0150773Y0036466D01*
X0151028Y0036858D02*
X0158677Y0036858D01*
X0158677Y0037251D02*
X0151232Y0037251D01*
X0151435Y0037643D02*
X0158677Y0037643D01*
X0158677Y0038035D02*
X0151638Y0038035D01*
X0151841Y0038427D02*
X0158677Y0038427D01*
X0158677Y0038819D02*
X0152045Y0038819D01*
X0152248Y0039212D02*
X0158677Y0039212D01*
X0158677Y0039604D02*
X0152451Y0039604D01*
X0152654Y0039996D02*
X0158677Y0039996D01*
X0158677Y0040388D02*
X0152858Y0040388D01*
X0153061Y0040780D02*
X0158677Y0040780D01*
X0158677Y0041173D02*
X0153264Y0041173D01*
X0153467Y0041565D02*
X0158677Y0041565D01*
X0158677Y0041957D02*
X0153670Y0041957D01*
X0153874Y0042349D02*
X0158677Y0042349D01*
X0158677Y0042742D02*
X0154077Y0042742D01*
X0154280Y0043134D02*
X0158677Y0043134D01*
X0158677Y0043526D02*
X0154483Y0043526D01*
X0154687Y0043918D02*
X0158677Y0043918D01*
X0158677Y0044310D02*
X0154890Y0044310D01*
X0155093Y0044703D02*
X0158677Y0044703D01*
X0158677Y0045095D02*
X0155296Y0045095D01*
X0155499Y0045487D02*
X0158677Y0045487D01*
X0158677Y0045879D02*
X0155703Y0045879D01*
X0155906Y0046271D02*
X0158677Y0046271D01*
X0158677Y0046664D02*
X0156109Y0046664D01*
X0156273Y0047056D02*
X0158677Y0047056D01*
X0158677Y0047448D02*
X0156413Y0047448D01*
X0156552Y0047840D02*
X0158677Y0047840D01*
X0158677Y0048233D02*
X0156692Y0048233D01*
X0156831Y0048625D02*
X0158677Y0048625D01*
X0158677Y0049017D02*
X0156970Y0049017D01*
X0157110Y0049409D02*
X0158677Y0049409D01*
X0158677Y0049801D02*
X0157249Y0049801D01*
X0157389Y0050194D02*
X0158677Y0050194D01*
X0158677Y0050586D02*
X0157528Y0050586D01*
X0157667Y0050978D02*
X0158677Y0050978D01*
X0158677Y0051370D02*
X0157807Y0051370D01*
X0157946Y0051762D02*
X0158677Y0051762D01*
X0158677Y0052155D02*
X0158086Y0052155D01*
X0158225Y0052547D02*
X0158677Y0052547D01*
X0158677Y0052939D02*
X0158364Y0052939D01*
X0158504Y0053331D02*
X0158677Y0053331D01*
X0158677Y0053723D02*
X0158643Y0053723D01*
X0136516Y0047448D02*
X0128497Y0047448D01*
X0129444Y0047056D02*
X0136516Y0047056D01*
X0136516Y0046664D02*
X0130136Y0046664D01*
X0130528Y0046271D02*
X0136516Y0046271D01*
X0136516Y0045879D02*
X0130920Y0045879D01*
X0101925Y0044310D02*
X0101632Y0044310D01*
X0101713Y0049801D02*
X0101942Y0049801D01*
X0101944Y0050194D02*
X0100766Y0050194D01*
X0101945Y0050586D02*
X0098962Y0050586D01*
X0098569Y0050978D02*
X0101946Y0050978D01*
X0101948Y0051370D02*
X0098177Y0051370D01*
X0097785Y0051762D02*
X0101949Y0051762D01*
X0101950Y0052155D02*
X0097393Y0052155D01*
X0097001Y0052547D02*
X0101951Y0052547D01*
X0101953Y0052939D02*
X0096608Y0052939D01*
X0096216Y0053331D02*
X0101954Y0053331D01*
X0101955Y0053723D02*
X0095824Y0053723D01*
X0050690Y0157660D02*
X0001197Y0157660D01*
X0001197Y0158052D02*
X0051593Y0158052D01*
X0052097Y0158271D02*
X0052097Y0158271D01*
X0052716Y0158444D02*
X0001197Y0158444D01*
X0001197Y0157267D02*
X0049787Y0157267D01*
X0048884Y0156875D02*
X0001197Y0156875D01*
D12*
X0033697Y0098323D02*
X0059947Y0098323D01*
X0066197Y0092073D01*
X0129947Y0092073D01*
X0129947Y0108323D01*
X0119947Y0118323D01*
X0138697Y0115823D02*
X0138697Y0043323D01*
X0127447Y0043323D01*
X0127181Y0042693D01*
X0130572Y0058948D02*
X0129947Y0059573D01*
X0129947Y0092073D01*
X0131197Y0059573D02*
X0130572Y0058948D01*
X0103697Y0032073D01*
X0071197Y0032073D01*
X0054947Y0015823D01*
X0131197Y0059573D02*
X0132447Y0059573D01*
X0033697Y0098323D02*
X0028697Y0093323D01*
D13*
X0028697Y0093323D03*
X0033697Y0080823D03*
X0044897Y0094073D03*
X0054947Y0055823D03*
X0054947Y0038323D03*
X0054947Y0015823D03*
X0099947Y0047073D03*
X0103697Y0039573D03*
X0103697Y0032073D03*
X0103697Y0022073D03*
X0132447Y0059573D03*
X0124847Y0073473D03*
X0138697Y0115823D03*
X0119947Y0118323D03*
D14*
X0103797Y0070523D02*
X0103697Y0039573D01*
X0099947Y0047073D02*
X0094947Y0052073D01*
X0043697Y0052073D01*
X0033697Y0062073D01*
X0032693Y0062693D01*
X0032693Y0052693D02*
X0033697Y0052073D01*
X0041197Y0052073D01*
X0054947Y0038323D01*
X0054947Y0055823D02*
X0054947Y0059573D01*
X0033697Y0080823D01*
X0027447Y0085823D02*
X0027447Y0028323D01*
X0028247Y0026423D01*
X0027597Y0027373D01*
X0040797Y0016073D01*
X0053697Y0012073D01*
X0093697Y0012073D01*
X0103697Y0022073D01*
X0044897Y0094073D02*
X0038697Y0092073D01*
X0033697Y0092073D01*
X0027447Y0085823D01*
D15*
X0103797Y0071323D02*
X0106397Y0073923D01*
X0124397Y0073923D01*
X0124847Y0073473D01*
X0103797Y0071323D02*
X0103797Y0070523D01*
M02*
