G75*
%MOIN*%
%OFA0B0*%
%FSLAX25Y25*%
%IPPOS*%
%LPD*%
%AMOC8*
5,1,8,0,0,1.08239X$1,22.5*
%
%ADD10C,0.07400*%
%ADD11C,0.00394*%
%ADD12C,0.01181*%
%ADD13C,0.04000*%
%ADD14C,0.01969*%
D10*
X0032911Y0032520D03*
X0032911Y0042520D03*
X0032911Y0052520D03*
X0032911Y0062520D03*
X0032911Y0072520D03*
X0032911Y0082520D03*
X0032693Y0104996D03*
X0042693Y0104996D03*
X0042693Y0124681D03*
X0032693Y0124681D03*
X0119622Y0124425D03*
X0129622Y0124425D03*
X0129307Y0104996D03*
X0119307Y0104996D03*
X0127255Y0072402D03*
X0127255Y0062402D03*
X0127255Y0052402D03*
X0127255Y0042402D03*
X0127255Y0032402D03*
D11*
X0001197Y0001197D02*
X0001197Y0071794D01*
X0002370Y0063450D01*
X0002370Y0063450D01*
X0005419Y0052815D01*
X0005419Y0052815D01*
X0009919Y0042708D01*
X0009919Y0042708D01*
X0015782Y0033325D01*
X0022893Y0024850D01*
X0022893Y0024850D01*
X0022893Y0024850D01*
X0031115Y0017447D01*
X0040287Y0011261D01*
X0050231Y0006411D01*
X0060752Y0002992D01*
X0060753Y0002992D01*
X0070934Y0001197D01*
X0001197Y0001197D01*
X0001197Y0001445D02*
X0069525Y0001445D01*
X0067301Y0001838D02*
X0001197Y0001838D01*
X0001197Y0002230D02*
X0065076Y0002230D01*
X0062852Y0002622D02*
X0001197Y0002622D01*
X0001197Y0003014D02*
X0060685Y0003014D01*
X0059478Y0003406D02*
X0001197Y0003406D01*
X0001197Y0003799D02*
X0058271Y0003799D01*
X0057063Y0004191D02*
X0001197Y0004191D01*
X0001197Y0004583D02*
X0055856Y0004583D01*
X0054649Y0004975D02*
X0001197Y0004975D01*
X0001197Y0005367D02*
X0053442Y0005367D01*
X0052235Y0005760D02*
X0001197Y0005760D01*
X0001197Y0006152D02*
X0051028Y0006152D01*
X0050231Y0006411D02*
X0050231Y0006411D01*
X0049958Y0006544D02*
X0001197Y0006544D01*
X0001197Y0006936D02*
X0049153Y0006936D01*
X0048349Y0007329D02*
X0001197Y0007329D01*
X0001197Y0007721D02*
X0047545Y0007721D01*
X0046741Y0008113D02*
X0001197Y0008113D01*
X0001197Y0008505D02*
X0045937Y0008505D01*
X0045133Y0008897D02*
X0001197Y0008897D01*
X0001197Y0009290D02*
X0044329Y0009290D01*
X0043524Y0009682D02*
X0001197Y0009682D01*
X0001197Y0010074D02*
X0042720Y0010074D01*
X0041916Y0010466D02*
X0001197Y0010466D01*
X0001197Y0010858D02*
X0041112Y0010858D01*
X0040308Y0011251D02*
X0001197Y0011251D01*
X0001197Y0011643D02*
X0039720Y0011643D01*
X0040287Y0011261D02*
X0040287Y0011261D01*
X0039139Y0012035D02*
X0001197Y0012035D01*
X0001197Y0012427D02*
X0038558Y0012427D01*
X0037976Y0012820D02*
X0001197Y0012820D01*
X0001197Y0013212D02*
X0037395Y0013212D01*
X0036813Y0013604D02*
X0001197Y0013604D01*
X0001197Y0013996D02*
X0036232Y0013996D01*
X0035650Y0014388D02*
X0001197Y0014388D01*
X0001197Y0014781D02*
X0035069Y0014781D01*
X0034487Y0015173D02*
X0001197Y0015173D01*
X0001197Y0015565D02*
X0033906Y0015565D01*
X0033324Y0015957D02*
X0001197Y0015957D01*
X0001197Y0016349D02*
X0032743Y0016349D01*
X0032161Y0016742D02*
X0001197Y0016742D01*
X0001197Y0017134D02*
X0031580Y0017134D01*
X0031115Y0017447D02*
X0031115Y0017447D01*
X0031028Y0017526D02*
X0001197Y0017526D01*
X0001197Y0017918D02*
X0030592Y0017918D01*
X0030156Y0018310D02*
X0001197Y0018310D01*
X0001197Y0018703D02*
X0029721Y0018703D01*
X0029285Y0019095D02*
X0001197Y0019095D01*
X0001197Y0019487D02*
X0028850Y0019487D01*
X0028414Y0019879D02*
X0001197Y0019879D01*
X0001197Y0020272D02*
X0027978Y0020272D01*
X0027543Y0020664D02*
X0001197Y0020664D01*
X0001197Y0021056D02*
X0027107Y0021056D01*
X0026672Y0021448D02*
X0001197Y0021448D01*
X0001197Y0021840D02*
X0026236Y0021840D01*
X0025800Y0022233D02*
X0001197Y0022233D01*
X0001197Y0022625D02*
X0025365Y0022625D01*
X0024929Y0023017D02*
X0001197Y0023017D01*
X0001197Y0023409D02*
X0024494Y0023409D01*
X0024058Y0023801D02*
X0001197Y0023801D01*
X0001197Y0024194D02*
X0023622Y0024194D01*
X0023187Y0024586D02*
X0001197Y0024586D01*
X0001197Y0024978D02*
X0022786Y0024978D01*
X0022457Y0025370D02*
X0001197Y0025370D01*
X0001197Y0025762D02*
X0022128Y0025762D01*
X0021799Y0026155D02*
X0001197Y0026155D01*
X0001197Y0026547D02*
X0021469Y0026547D01*
X0021140Y0026939D02*
X0001197Y0026939D01*
X0001197Y0027331D02*
X0020811Y0027331D01*
X0020482Y0027724D02*
X0001197Y0027724D01*
X0001197Y0028116D02*
X0020153Y0028116D01*
X0019824Y0028508D02*
X0001197Y0028508D01*
X0001197Y0028900D02*
X0019495Y0028900D01*
X0019166Y0029292D02*
X0001197Y0029292D01*
X0001197Y0029685D02*
X0018837Y0029685D01*
X0018508Y0030077D02*
X0001197Y0030077D01*
X0001197Y0030469D02*
X0018178Y0030469D01*
X0017849Y0030861D02*
X0001197Y0030861D01*
X0001197Y0031253D02*
X0017520Y0031253D01*
X0017191Y0031646D02*
X0001197Y0031646D01*
X0001197Y0032038D02*
X0016862Y0032038D01*
X0016533Y0032430D02*
X0001197Y0032430D01*
X0001197Y0032822D02*
X0016204Y0032822D01*
X0015875Y0033215D02*
X0001197Y0033215D01*
X0001197Y0033607D02*
X0015606Y0033607D01*
X0015782Y0033325D02*
X0015782Y0033325D01*
X0015361Y0033999D02*
X0001197Y0033999D01*
X0001197Y0034391D02*
X0015116Y0034391D01*
X0014871Y0034783D02*
X0001197Y0034783D01*
X0001197Y0035176D02*
X0014626Y0035176D01*
X0014380Y0035568D02*
X0001197Y0035568D01*
X0001197Y0035960D02*
X0014135Y0035960D01*
X0013890Y0036352D02*
X0001197Y0036352D01*
X0001197Y0036744D02*
X0013645Y0036744D01*
X0013400Y0037137D02*
X0001197Y0037137D01*
X0001197Y0037529D02*
X0013155Y0037529D01*
X0012910Y0037921D02*
X0001197Y0037921D01*
X0001197Y0038313D02*
X0012665Y0038313D01*
X0012420Y0038705D02*
X0001197Y0038705D01*
X0001197Y0039098D02*
X0012175Y0039098D01*
X0011930Y0039490D02*
X0001197Y0039490D01*
X0001197Y0039882D02*
X0011685Y0039882D01*
X0011439Y0040274D02*
X0001197Y0040274D01*
X0001197Y0040667D02*
X0011194Y0040667D01*
X0010949Y0041059D02*
X0001197Y0041059D01*
X0001197Y0041451D02*
X0010704Y0041451D01*
X0010459Y0041843D02*
X0001197Y0041843D01*
X0001197Y0042235D02*
X0010214Y0042235D01*
X0009969Y0042628D02*
X0001197Y0042628D01*
X0001197Y0043020D02*
X0009780Y0043020D01*
X0009605Y0043412D02*
X0001197Y0043412D01*
X0001197Y0043804D02*
X0009431Y0043804D01*
X0009256Y0044196D02*
X0001197Y0044196D01*
X0001197Y0044589D02*
X0009081Y0044589D01*
X0008907Y0044981D02*
X0001197Y0044981D01*
X0001197Y0045373D02*
X0008732Y0045373D01*
X0008558Y0045765D02*
X0001197Y0045765D01*
X0001197Y0046158D02*
X0008383Y0046158D01*
X0008208Y0046550D02*
X0001197Y0046550D01*
X0001197Y0046942D02*
X0008034Y0046942D01*
X0007859Y0047334D02*
X0001197Y0047334D01*
X0001197Y0047726D02*
X0007684Y0047726D01*
X0007510Y0048119D02*
X0001197Y0048119D01*
X0001197Y0048511D02*
X0007335Y0048511D01*
X0007161Y0048903D02*
X0001197Y0048903D01*
X0001197Y0049295D02*
X0006986Y0049295D01*
X0006811Y0049687D02*
X0001197Y0049687D01*
X0001197Y0050080D02*
X0006637Y0050080D01*
X0006462Y0050472D02*
X0001197Y0050472D01*
X0001197Y0050864D02*
X0006287Y0050864D01*
X0006113Y0051256D02*
X0001197Y0051256D01*
X0001197Y0051648D02*
X0005938Y0051648D01*
X0005764Y0052041D02*
X0001197Y0052041D01*
X0001197Y0052433D02*
X0005589Y0052433D01*
X0005416Y0052825D02*
X0001197Y0052825D01*
X0001197Y0053217D02*
X0005304Y0053217D01*
X0005191Y0053610D02*
X0001197Y0053610D01*
X0001197Y0054002D02*
X0005079Y0054002D01*
X0004966Y0054394D02*
X0001197Y0054394D01*
X0001197Y0054786D02*
X0004854Y0054786D01*
X0004741Y0055178D02*
X0001197Y0055178D01*
X0001197Y0055571D02*
X0004629Y0055571D01*
X0004516Y0055963D02*
X0001197Y0055963D01*
X0001197Y0056355D02*
X0004404Y0056355D01*
X0004291Y0056747D02*
X0001197Y0056747D01*
X0001197Y0057139D02*
X0004179Y0057139D01*
X0004066Y0057532D02*
X0001197Y0057532D01*
X0001197Y0057924D02*
X0003954Y0057924D01*
X0003842Y0058316D02*
X0001197Y0058316D01*
X0001197Y0058708D02*
X0003729Y0058708D01*
X0003617Y0059101D02*
X0001197Y0059101D01*
X0001197Y0059493D02*
X0003504Y0059493D01*
X0003392Y0059885D02*
X0001197Y0059885D01*
X0001197Y0060277D02*
X0003279Y0060277D01*
X0003167Y0060669D02*
X0001197Y0060669D01*
X0001197Y0061062D02*
X0003054Y0061062D01*
X0002942Y0061454D02*
X0001197Y0061454D01*
X0001197Y0061846D02*
X0002829Y0061846D01*
X0002717Y0062238D02*
X0001197Y0062238D01*
X0001197Y0062630D02*
X0002604Y0062630D01*
X0002492Y0063023D02*
X0001197Y0063023D01*
X0001197Y0063415D02*
X0002379Y0063415D01*
X0002319Y0063807D02*
X0001197Y0063807D01*
X0001197Y0064199D02*
X0002264Y0064199D01*
X0002209Y0064591D02*
X0001197Y0064591D01*
X0001197Y0064984D02*
X0002154Y0064984D01*
X0002099Y0065376D02*
X0001197Y0065376D01*
X0001197Y0065768D02*
X0002044Y0065768D01*
X0001989Y0066160D02*
X0001197Y0066160D01*
X0001197Y0066553D02*
X0001933Y0066553D01*
X0001878Y0066945D02*
X0001197Y0066945D01*
X0001197Y0067337D02*
X0001823Y0067337D01*
X0001768Y0067729D02*
X0001197Y0067729D01*
X0001197Y0068121D02*
X0001713Y0068121D01*
X0001658Y0068514D02*
X0001197Y0068514D01*
X0001197Y0068906D02*
X0001603Y0068906D01*
X0001548Y0069298D02*
X0001197Y0069298D01*
X0001197Y0069690D02*
X0001492Y0069690D01*
X0001437Y0070082D02*
X0001197Y0070082D01*
X0001197Y0070475D02*
X0001382Y0070475D01*
X0001327Y0070867D02*
X0001197Y0070867D01*
X0001197Y0071259D02*
X0001272Y0071259D01*
X0001217Y0071651D02*
X0001197Y0071651D01*
X0009904Y0072828D02*
X0028014Y0072828D01*
X0028014Y0073220D02*
X0009848Y0073220D01*
X0009793Y0073612D02*
X0028063Y0073612D01*
X0028014Y0073494D02*
X0028014Y0071546D01*
X0028759Y0069746D01*
X0030137Y0068368D01*
X0031937Y0067623D01*
X0033885Y0067623D01*
X0035685Y0068368D01*
X0037062Y0069746D01*
X0037808Y0071546D01*
X0037808Y0073494D01*
X0037062Y0075294D01*
X0035685Y0076671D01*
X0033885Y0077417D01*
X0031937Y0077417D01*
X0030137Y0076671D01*
X0028759Y0075294D01*
X0028014Y0073494D01*
X0028226Y0074005D02*
X0009738Y0074005D01*
X0009683Y0074397D02*
X0028388Y0074397D01*
X0028550Y0074789D02*
X0009628Y0074789D01*
X0009596Y0075018D02*
X0009596Y0084856D01*
X0010965Y0094597D01*
X0013676Y0104054D01*
X0017678Y0113041D01*
X0022891Y0121383D01*
X0029214Y0128919D01*
X0036525Y0135502D01*
X0044681Y0141003D01*
X0050513Y0143848D01*
X0050051Y0143156D01*
X0047509Y0137018D01*
X0046213Y0130503D01*
X0046213Y0128087D01*
X0045467Y0128832D01*
X0043667Y0129578D01*
X0041719Y0129578D01*
X0039919Y0128832D01*
X0038542Y0127455D01*
X0037796Y0125655D01*
X0037796Y0123707D01*
X0038542Y0121907D01*
X0039919Y0120530D01*
X0041719Y0119784D01*
X0043667Y0119784D01*
X0045467Y0120530D01*
X0046641Y0121704D01*
X0047509Y0117344D01*
X0050051Y0111207D01*
X0053742Y0105683D01*
X0058439Y0100986D01*
X0063962Y0097295D01*
X0070100Y0094753D01*
X0076615Y0093457D01*
X0083259Y0093457D01*
X0089774Y0094753D01*
X0095912Y0097295D01*
X0101435Y0100986D01*
X0106132Y0105683D01*
X0109823Y0111207D01*
X0112365Y0117344D01*
X0113661Y0123860D01*
X0113661Y0130503D01*
X0112365Y0137018D01*
X0109823Y0143156D01*
X0109300Y0143939D01*
X0110848Y0143314D01*
X0119367Y0138395D01*
X0127119Y0132338D01*
X0130032Y0129322D01*
X0128648Y0129322D01*
X0126848Y0128577D01*
X0125471Y0127199D01*
X0124725Y0125399D01*
X0124725Y0123451D01*
X0125471Y0121651D01*
X0126848Y0120274D01*
X0128648Y0119528D01*
X0130596Y0119528D01*
X0132396Y0120274D01*
X0133773Y0121651D01*
X0134519Y0123451D01*
X0134519Y0124483D01*
X0139735Y0117303D01*
X0144354Y0108617D01*
X0147718Y0099373D01*
X0149764Y0089751D01*
X0150450Y0079937D01*
X0149764Y0070123D01*
X0147718Y0060501D01*
X0144354Y0051257D01*
X0139735Y0042571D01*
X0133953Y0034612D01*
X0132152Y0032747D01*
X0132152Y0032787D01*
X0132032Y0033548D01*
X0131793Y0034281D01*
X0131444Y0034968D01*
X0130990Y0035592D01*
X0130445Y0036137D01*
X0129822Y0036590D01*
X0129135Y0036940D01*
X0128402Y0037178D01*
X0127641Y0037298D01*
X0127452Y0037298D01*
X0127452Y0032598D01*
X0127059Y0032598D01*
X0127059Y0037298D01*
X0126870Y0037298D01*
X0126109Y0037178D01*
X0125376Y0036940D01*
X0124689Y0036590D01*
X0124065Y0036137D01*
X0123520Y0035592D01*
X0123067Y0034968D01*
X0122717Y0034281D01*
X0122479Y0033548D01*
X0122359Y0032787D01*
X0122359Y0032598D01*
X0127058Y0032598D01*
X0127058Y0032205D01*
X0122359Y0032205D01*
X0122359Y0032016D01*
X0122479Y0031255D01*
X0122717Y0030522D01*
X0123067Y0029835D01*
X0123520Y0029211D01*
X0124065Y0028666D01*
X0124689Y0028213D01*
X0125376Y0027863D01*
X0126109Y0027625D01*
X0126870Y0027505D01*
X0127059Y0027505D01*
X0127059Y0032205D01*
X0127452Y0032205D01*
X0127452Y0027880D01*
X0127119Y0027536D01*
X0119367Y0021479D01*
X0110848Y0016560D01*
X0101727Y0012875D01*
X0092181Y0010495D01*
X0082398Y0009467D01*
X0072566Y0009810D01*
X0062878Y0011519D01*
X0053522Y0014559D01*
X0044681Y0018871D01*
X0036525Y0024372D01*
X0032914Y0027623D01*
X0033885Y0027623D01*
X0035685Y0028368D01*
X0037062Y0029746D01*
X0037808Y0031546D01*
X0037808Y0033494D01*
X0037062Y0035294D01*
X0035685Y0036671D01*
X0033885Y0037417D01*
X0031937Y0037417D01*
X0030137Y0036671D01*
X0028759Y0035294D01*
X0028014Y0033494D01*
X0028014Y0032385D01*
X0022891Y0038491D01*
X0017678Y0046833D01*
X0013676Y0055820D01*
X0010965Y0065277D01*
X0009596Y0075018D01*
X0009596Y0075181D02*
X0028713Y0075181D01*
X0029039Y0075573D02*
X0009596Y0075573D01*
X0009596Y0075966D02*
X0029432Y0075966D01*
X0029824Y0076358D02*
X0009596Y0076358D01*
X0009596Y0076750D02*
X0030328Y0076750D01*
X0031275Y0077142D02*
X0009596Y0077142D01*
X0009596Y0077534D02*
X0059570Y0077534D01*
X0059962Y0077142D02*
X0034547Y0077142D01*
X0034618Y0077927D02*
X0059178Y0077927D01*
X0058786Y0078319D02*
X0035565Y0078319D01*
X0035685Y0078368D02*
X0037062Y0079746D01*
X0037808Y0081546D01*
X0037808Y0083494D01*
X0037062Y0085294D01*
X0035685Y0086671D01*
X0033885Y0087417D01*
X0031937Y0087417D01*
X0030137Y0086671D01*
X0028759Y0085294D01*
X0028014Y0083494D01*
X0028014Y0081546D01*
X0028759Y0079746D01*
X0030137Y0078368D01*
X0031937Y0077623D01*
X0033885Y0077623D01*
X0035685Y0078368D01*
X0036027Y0078711D02*
X0058393Y0078711D01*
X0058001Y0079103D02*
X0036420Y0079103D01*
X0036812Y0079496D02*
X0057609Y0079496D01*
X0057217Y0079888D02*
X0037121Y0079888D01*
X0037283Y0080280D02*
X0056824Y0080280D01*
X0056432Y0080672D02*
X0037446Y0080672D01*
X0037608Y0081064D02*
X0056040Y0081064D01*
X0055648Y0081457D02*
X0037771Y0081457D01*
X0037808Y0081849D02*
X0055256Y0081849D01*
X0054863Y0082241D02*
X0037808Y0082241D01*
X0037808Y0082633D02*
X0054471Y0082633D01*
X0054079Y0083025D02*
X0037808Y0083025D01*
X0037808Y0083418D02*
X0053687Y0083418D01*
X0053295Y0083810D02*
X0037677Y0083810D01*
X0037514Y0084202D02*
X0052902Y0084202D01*
X0052510Y0084594D02*
X0037352Y0084594D01*
X0037189Y0084987D02*
X0052118Y0084987D01*
X0051726Y0085379D02*
X0036977Y0085379D01*
X0036585Y0085771D02*
X0051333Y0085771D01*
X0050941Y0086163D02*
X0036192Y0086163D01*
X0035800Y0086555D02*
X0050549Y0086555D01*
X0050157Y0086948D02*
X0035017Y0086948D01*
X0034070Y0087340D02*
X0049765Y0087340D01*
X0049372Y0087732D02*
X0010000Y0087732D01*
X0009945Y0087340D02*
X0031751Y0087340D01*
X0030805Y0086948D02*
X0009890Y0086948D01*
X0009835Y0086555D02*
X0030021Y0086555D01*
X0029629Y0086163D02*
X0009780Y0086163D01*
X0009724Y0085771D02*
X0029237Y0085771D01*
X0028845Y0085379D02*
X0009669Y0085379D01*
X0009614Y0084987D02*
X0028632Y0084987D01*
X0028470Y0084594D02*
X0009596Y0084594D01*
X0009596Y0084202D02*
X0028307Y0084202D01*
X0028145Y0083810D02*
X0009596Y0083810D01*
X0009596Y0083418D02*
X0028014Y0083418D01*
X0028014Y0083025D02*
X0009596Y0083025D01*
X0009596Y0082633D02*
X0028014Y0082633D01*
X0028014Y0082241D02*
X0009596Y0082241D01*
X0009596Y0081849D02*
X0028014Y0081849D01*
X0028051Y0081457D02*
X0009596Y0081457D01*
X0009596Y0081064D02*
X0028213Y0081064D01*
X0028376Y0080672D02*
X0009596Y0080672D01*
X0009596Y0080280D02*
X0028538Y0080280D01*
X0028701Y0079888D02*
X0009596Y0079888D01*
X0009596Y0079496D02*
X0029010Y0079496D01*
X0029402Y0079103D02*
X0009596Y0079103D01*
X0009596Y0078711D02*
X0029794Y0078711D01*
X0030256Y0078319D02*
X0009596Y0078319D01*
X0009596Y0077927D02*
X0031203Y0077927D01*
X0035494Y0076750D02*
X0060354Y0076750D01*
X0060747Y0076358D02*
X0035998Y0076358D01*
X0036390Y0075966D02*
X0061139Y0075966D01*
X0061531Y0075573D02*
X0036782Y0075573D01*
X0037109Y0075181D02*
X0061923Y0075181D01*
X0062315Y0074789D02*
X0037271Y0074789D01*
X0037434Y0074397D02*
X0062708Y0074397D01*
X0063100Y0074005D02*
X0037596Y0074005D01*
X0037758Y0073612D02*
X0063492Y0073612D01*
X0063884Y0073220D02*
X0037808Y0073220D01*
X0037808Y0072828D02*
X0064276Y0072828D01*
X0064669Y0072436D02*
X0037808Y0072436D01*
X0037808Y0072044D02*
X0065061Y0072044D01*
X0065453Y0071651D02*
X0037808Y0071651D01*
X0037689Y0071259D02*
X0065845Y0071259D01*
X0066238Y0070867D02*
X0037526Y0070867D01*
X0037364Y0070475D02*
X0066630Y0070475D01*
X0067022Y0070082D02*
X0037202Y0070082D01*
X0037007Y0069690D02*
X0067414Y0069690D01*
X0067806Y0069298D02*
X0036614Y0069298D01*
X0036222Y0068906D02*
X0068199Y0068906D01*
X0068591Y0068514D02*
X0035830Y0068514D01*
X0035088Y0068121D02*
X0068983Y0068121D01*
X0069375Y0067729D02*
X0034142Y0067729D01*
X0034077Y0067337D02*
X0059498Y0067337D01*
X0059616Y0067386D02*
X0058441Y0066899D01*
X0057542Y0066000D01*
X0057532Y0065976D01*
X0036379Y0065976D01*
X0035685Y0066671D01*
X0033885Y0067417D01*
X0031937Y0067417D01*
X0030137Y0066671D01*
X0028759Y0065294D01*
X0028014Y0063494D01*
X0028014Y0061546D01*
X0028759Y0059746D01*
X0030137Y0058368D01*
X0031937Y0057623D01*
X0033885Y0057623D01*
X0035685Y0058368D01*
X0037062Y0059746D01*
X0037808Y0061546D01*
X0037808Y0062402D01*
X0057532Y0062402D01*
X0057542Y0062378D01*
X0058441Y0061479D01*
X0059616Y0060992D01*
X0060888Y0060992D01*
X0062063Y0061479D01*
X0062962Y0062378D01*
X0063449Y0063553D01*
X0063449Y0064825D01*
X0062962Y0066000D01*
X0062063Y0066899D01*
X0060888Y0067386D01*
X0059616Y0067386D01*
X0058551Y0066945D02*
X0035024Y0066945D01*
X0035803Y0066553D02*
X0058095Y0066553D01*
X0057702Y0066160D02*
X0036195Y0066160D01*
X0037808Y0062238D02*
X0057682Y0062238D01*
X0058074Y0061846D02*
X0037808Y0061846D01*
X0037770Y0061454D02*
X0058501Y0061454D01*
X0059448Y0061062D02*
X0037607Y0061062D01*
X0037445Y0060669D02*
X0122673Y0060669D01*
X0122835Y0060277D02*
X0037282Y0060277D01*
X0037120Y0059885D02*
X0122997Y0059885D01*
X0123104Y0059628D02*
X0122359Y0061428D01*
X0122359Y0063376D01*
X0122607Y0063976D01*
X0073128Y0063976D01*
X0071850Y0065254D01*
X0071850Y0065254D01*
X0035863Y0101241D01*
X0035467Y0100845D01*
X0033667Y0100099D01*
X0031719Y0100099D01*
X0029919Y0100845D01*
X0028542Y0102222D01*
X0027796Y0104022D01*
X0027796Y0105970D01*
X0028542Y0107770D01*
X0029919Y0109147D01*
X0031719Y0109893D01*
X0033667Y0109893D01*
X0035467Y0109147D01*
X0036844Y0107770D01*
X0037590Y0105970D01*
X0037590Y0105684D01*
X0037796Y0105477D01*
X0037796Y0105970D01*
X0038542Y0107770D01*
X0039919Y0109147D01*
X0041719Y0109893D01*
X0043667Y0109893D01*
X0045467Y0109147D01*
X0046844Y0107770D01*
X0047590Y0105970D01*
X0047590Y0104022D01*
X0046844Y0102222D01*
X0045467Y0100845D01*
X0043667Y0100099D01*
X0043174Y0100099D01*
X0074935Y0068339D01*
X0117126Y0068339D01*
X0117126Y0100599D01*
X0116533Y0100845D01*
X0115156Y0102222D01*
X0114410Y0104022D01*
X0114410Y0105970D01*
X0115156Y0107770D01*
X0116533Y0109147D01*
X0118333Y0109893D01*
X0120281Y0109893D01*
X0122081Y0109147D01*
X0123458Y0107770D01*
X0124204Y0105970D01*
X0124204Y0104022D01*
X0123458Y0102222D01*
X0122081Y0100845D01*
X0121488Y0100599D01*
X0121488Y0068339D01*
X0124393Y0068339D01*
X0123104Y0069628D01*
X0122359Y0071428D01*
X0122359Y0073376D01*
X0123104Y0075175D01*
X0124482Y0076553D01*
X0126281Y0077298D01*
X0128229Y0077298D01*
X0130029Y0076553D01*
X0131407Y0075175D01*
X0132152Y0073376D01*
X0132152Y0071428D01*
X0131407Y0069628D01*
X0130029Y0068250D01*
X0128229Y0067505D01*
X0126963Y0067505D01*
X0126978Y0067477D01*
X0127156Y0067298D01*
X0128229Y0067298D01*
X0130029Y0066553D01*
X0131407Y0065175D01*
X0132152Y0063376D01*
X0132152Y0061428D01*
X0131407Y0059628D01*
X0130029Y0058250D01*
X0128229Y0057505D01*
X0126281Y0057505D01*
X0124482Y0058250D01*
X0123104Y0059628D01*
X0123239Y0059493D02*
X0036809Y0059493D01*
X0036417Y0059101D02*
X0123631Y0059101D01*
X0124023Y0058708D02*
X0036025Y0058708D01*
X0035558Y0058316D02*
X0124416Y0058316D01*
X0125269Y0057924D02*
X0034612Y0057924D01*
X0034554Y0057139D02*
X0125898Y0057139D01*
X0126281Y0057298D02*
X0124482Y0056553D01*
X0123104Y0055175D01*
X0122359Y0053376D01*
X0122359Y0051428D01*
X0123104Y0049628D01*
X0124482Y0048250D01*
X0126281Y0047505D01*
X0128229Y0047505D01*
X0130029Y0048250D01*
X0131407Y0049628D01*
X0132152Y0051428D01*
X0132152Y0053376D01*
X0131407Y0055175D01*
X0130029Y0056553D01*
X0128229Y0057298D01*
X0126281Y0057298D01*
X0126216Y0057532D02*
X0013186Y0057532D01*
X0013073Y0057924D02*
X0031210Y0057924D01*
X0031268Y0057139D02*
X0013298Y0057139D01*
X0013411Y0056747D02*
X0030321Y0056747D01*
X0030137Y0056671D02*
X0028759Y0055294D01*
X0028014Y0053494D01*
X0028014Y0051546D01*
X0028759Y0049746D01*
X0030137Y0048368D01*
X0031937Y0047623D01*
X0033885Y0047623D01*
X0035685Y0048368D01*
X0037062Y0049746D01*
X0037808Y0051546D01*
X0037808Y0053494D01*
X0037062Y0055294D01*
X0035685Y0056671D01*
X0033885Y0057417D01*
X0031937Y0057417D01*
X0030137Y0056671D01*
X0029821Y0056355D02*
X0013523Y0056355D01*
X0013636Y0055963D02*
X0029429Y0055963D01*
X0029037Y0055571D02*
X0013788Y0055571D01*
X0013962Y0055178D02*
X0028712Y0055178D01*
X0028549Y0054786D02*
X0014137Y0054786D01*
X0014311Y0054394D02*
X0028387Y0054394D01*
X0028224Y0054002D02*
X0014486Y0054002D01*
X0014661Y0053610D02*
X0028062Y0053610D01*
X0028014Y0053217D02*
X0014835Y0053217D01*
X0015010Y0052825D02*
X0028014Y0052825D01*
X0028014Y0052433D02*
X0015185Y0052433D01*
X0015359Y0052041D02*
X0028014Y0052041D01*
X0028014Y0051648D02*
X0015534Y0051648D01*
X0015708Y0051256D02*
X0028134Y0051256D01*
X0028296Y0050864D02*
X0015883Y0050864D01*
X0016058Y0050472D02*
X0028459Y0050472D01*
X0028621Y0050080D02*
X0016232Y0050080D01*
X0016407Y0049687D02*
X0028818Y0049687D01*
X0029210Y0049295D02*
X0016582Y0049295D01*
X0016756Y0048903D02*
X0029602Y0048903D01*
X0029994Y0048511D02*
X0016931Y0048511D01*
X0017105Y0048119D02*
X0030740Y0048119D01*
X0031687Y0047726D02*
X0017280Y0047726D01*
X0017455Y0047334D02*
X0031738Y0047334D01*
X0031937Y0047417D02*
X0030137Y0046671D01*
X0028759Y0045294D01*
X0028014Y0043494D01*
X0028014Y0041546D01*
X0028759Y0039746D01*
X0030137Y0038368D01*
X0031937Y0037623D01*
X0033885Y0037623D01*
X0035685Y0038368D01*
X0037062Y0039746D01*
X0037808Y0041546D01*
X0037808Y0043494D01*
X0037062Y0045294D01*
X0035685Y0046671D01*
X0033885Y0047417D01*
X0031937Y0047417D01*
X0030791Y0046942D02*
X0017629Y0046942D01*
X0017855Y0046550D02*
X0030016Y0046550D01*
X0029623Y0046158D02*
X0018100Y0046158D01*
X0018345Y0045765D02*
X0029231Y0045765D01*
X0028839Y0045373D02*
X0018590Y0045373D01*
X0018835Y0044981D02*
X0028630Y0044981D01*
X0028467Y0044589D02*
X0019080Y0044589D01*
X0019325Y0044196D02*
X0028305Y0044196D01*
X0028143Y0043804D02*
X0019570Y0043804D01*
X0019815Y0043412D02*
X0028014Y0043412D01*
X0028014Y0043020D02*
X0020061Y0043020D01*
X0020306Y0042628D02*
X0028014Y0042628D01*
X0028014Y0042235D02*
X0020551Y0042235D01*
X0020796Y0041843D02*
X0028014Y0041843D01*
X0028053Y0041451D02*
X0021041Y0041451D01*
X0021286Y0041059D02*
X0028216Y0041059D01*
X0028378Y0040667D02*
X0021531Y0040667D01*
X0021776Y0040274D02*
X0028540Y0040274D01*
X0028703Y0039882D02*
X0022021Y0039882D01*
X0022266Y0039490D02*
X0029015Y0039490D01*
X0029408Y0039098D02*
X0022511Y0039098D01*
X0022756Y0038705D02*
X0029800Y0038705D01*
X0030270Y0038313D02*
X0023040Y0038313D01*
X0023369Y0037921D02*
X0031217Y0037921D01*
X0031261Y0037137D02*
X0024027Y0037137D01*
X0023698Y0037529D02*
X0126223Y0037529D01*
X0126281Y0037505D02*
X0128229Y0037505D01*
X0130029Y0038250D01*
X0131407Y0039628D01*
X0132152Y0041428D01*
X0132152Y0043376D01*
X0131407Y0045175D01*
X0130029Y0046553D01*
X0128229Y0047298D01*
X0126281Y0047298D01*
X0124482Y0046553D01*
X0123104Y0045175D01*
X0122359Y0043376D01*
X0122359Y0041428D01*
X0123104Y0039628D01*
X0124482Y0038250D01*
X0126281Y0037505D01*
X0125982Y0037137D02*
X0034560Y0037137D01*
X0034605Y0037921D02*
X0125276Y0037921D01*
X0124418Y0038313D02*
X0035552Y0038313D01*
X0036022Y0038705D02*
X0124026Y0038705D01*
X0123634Y0039098D02*
X0036414Y0039098D01*
X0036806Y0039490D02*
X0123242Y0039490D01*
X0122999Y0039882D02*
X0037119Y0039882D01*
X0037281Y0040274D02*
X0122836Y0040274D01*
X0122674Y0040667D02*
X0037443Y0040667D01*
X0037606Y0041059D02*
X0122511Y0041059D01*
X0122359Y0041451D02*
X0037768Y0041451D01*
X0037808Y0041843D02*
X0122359Y0041843D01*
X0122359Y0042235D02*
X0037808Y0042235D01*
X0037808Y0042628D02*
X0122359Y0042628D01*
X0122359Y0043020D02*
X0037808Y0043020D01*
X0037808Y0043412D02*
X0122374Y0043412D01*
X0122536Y0043804D02*
X0037679Y0043804D01*
X0037517Y0044196D02*
X0122699Y0044196D01*
X0122861Y0044589D02*
X0037354Y0044589D01*
X0037192Y0044981D02*
X0123023Y0044981D01*
X0123302Y0045373D02*
X0036983Y0045373D01*
X0036590Y0045765D02*
X0123694Y0045765D01*
X0124086Y0046158D02*
X0036198Y0046158D01*
X0035806Y0046550D02*
X0124478Y0046550D01*
X0125421Y0046942D02*
X0035031Y0046942D01*
X0034084Y0047334D02*
X0142268Y0047334D01*
X0142060Y0046942D02*
X0129090Y0046942D01*
X0128765Y0047726D02*
X0142477Y0047726D01*
X0142685Y0048119D02*
X0129711Y0048119D01*
X0130290Y0048511D02*
X0142894Y0048511D01*
X0143102Y0048903D02*
X0130682Y0048903D01*
X0131074Y0049295D02*
X0143311Y0049295D01*
X0143519Y0049687D02*
X0131431Y0049687D01*
X0131594Y0050080D02*
X0143728Y0050080D01*
X0143936Y0050472D02*
X0131756Y0050472D01*
X0131919Y0050864D02*
X0144145Y0050864D01*
X0144354Y0051256D02*
X0132081Y0051256D01*
X0132152Y0051648D02*
X0144496Y0051648D01*
X0144639Y0052041D02*
X0132152Y0052041D01*
X0132152Y0052433D02*
X0144782Y0052433D01*
X0144925Y0052825D02*
X0132152Y0052825D01*
X0132152Y0053217D02*
X0145067Y0053217D01*
X0145210Y0053610D02*
X0132055Y0053610D01*
X0131893Y0054002D02*
X0145353Y0054002D01*
X0145496Y0054394D02*
X0131730Y0054394D01*
X0131568Y0054786D02*
X0145638Y0054786D01*
X0145781Y0055178D02*
X0131404Y0055178D01*
X0131011Y0055571D02*
X0145924Y0055571D01*
X0146067Y0055963D02*
X0130619Y0055963D01*
X0130227Y0056355D02*
X0146209Y0056355D01*
X0146352Y0056747D02*
X0129560Y0056747D01*
X0128613Y0057139D02*
X0146495Y0057139D01*
X0146638Y0057532D02*
X0128294Y0057532D01*
X0129241Y0057924D02*
X0146780Y0057924D01*
X0146923Y0058316D02*
X0130095Y0058316D01*
X0130487Y0058708D02*
X0147066Y0058708D01*
X0147209Y0059101D02*
X0130880Y0059101D01*
X0131272Y0059493D02*
X0147351Y0059493D01*
X0147494Y0059885D02*
X0131513Y0059885D01*
X0131676Y0060277D02*
X0147637Y0060277D01*
X0147754Y0060669D02*
X0131838Y0060669D01*
X0132001Y0061062D02*
X0147838Y0061062D01*
X0147921Y0061454D02*
X0132152Y0061454D01*
X0132152Y0061846D02*
X0148004Y0061846D01*
X0148088Y0062238D02*
X0132152Y0062238D01*
X0132152Y0062630D02*
X0148171Y0062630D01*
X0148254Y0063023D02*
X0132152Y0063023D01*
X0132136Y0063415D02*
X0148338Y0063415D01*
X0148421Y0063807D02*
X0131973Y0063807D01*
X0131811Y0064199D02*
X0148505Y0064199D01*
X0148588Y0064591D02*
X0131649Y0064591D01*
X0131486Y0064984D02*
X0148671Y0064984D01*
X0148755Y0065376D02*
X0131206Y0065376D01*
X0130814Y0065768D02*
X0148838Y0065768D01*
X0148921Y0066160D02*
X0130422Y0066160D01*
X0130030Y0066553D02*
X0149005Y0066553D01*
X0149088Y0066945D02*
X0129083Y0066945D01*
X0128771Y0067729D02*
X0149255Y0067729D01*
X0149171Y0067337D02*
X0127118Y0067337D01*
X0129718Y0068121D02*
X0149338Y0068121D01*
X0149422Y0068514D02*
X0130293Y0068514D01*
X0130685Y0068906D02*
X0149505Y0068906D01*
X0149588Y0069298D02*
X0131077Y0069298D01*
X0131433Y0069690D02*
X0149672Y0069690D01*
X0149755Y0070082D02*
X0131595Y0070082D01*
X0131758Y0070475D02*
X0149788Y0070475D01*
X0149764Y0070123D02*
X0149764Y0070123D01*
X0149816Y0070867D02*
X0131920Y0070867D01*
X0132082Y0071259D02*
X0149843Y0071259D01*
X0149871Y0071651D02*
X0132152Y0071651D01*
X0132152Y0072044D02*
X0149898Y0072044D01*
X0149925Y0072436D02*
X0132152Y0072436D01*
X0132152Y0072828D02*
X0149953Y0072828D01*
X0149980Y0073220D02*
X0132152Y0073220D01*
X0132054Y0073612D02*
X0150008Y0073612D01*
X0150035Y0074005D02*
X0131892Y0074005D01*
X0131729Y0074397D02*
X0150063Y0074397D01*
X0150090Y0074789D02*
X0131567Y0074789D01*
X0131401Y0075181D02*
X0150117Y0075181D01*
X0150145Y0075573D02*
X0131009Y0075573D01*
X0130616Y0075966D02*
X0150172Y0075966D01*
X0150200Y0076358D02*
X0130224Y0076358D01*
X0129553Y0076750D02*
X0150227Y0076750D01*
X0150255Y0077142D02*
X0128606Y0077142D01*
X0125904Y0077142D02*
X0121488Y0077142D01*
X0121488Y0076750D02*
X0124958Y0076750D01*
X0124286Y0076358D02*
X0121488Y0076358D01*
X0121488Y0075966D02*
X0123894Y0075966D01*
X0123502Y0075573D02*
X0121488Y0075573D01*
X0121488Y0075181D02*
X0123110Y0075181D01*
X0122944Y0074789D02*
X0121488Y0074789D01*
X0121488Y0074397D02*
X0122782Y0074397D01*
X0122619Y0074005D02*
X0121488Y0074005D01*
X0121488Y0073612D02*
X0122457Y0073612D01*
X0122359Y0073220D02*
X0121488Y0073220D01*
X0121488Y0072828D02*
X0122359Y0072828D01*
X0122359Y0072436D02*
X0121488Y0072436D01*
X0121488Y0072044D02*
X0122359Y0072044D01*
X0122359Y0071651D02*
X0121488Y0071651D01*
X0121488Y0071259D02*
X0122428Y0071259D01*
X0122591Y0070867D02*
X0121488Y0070867D01*
X0121488Y0070475D02*
X0122753Y0070475D01*
X0122916Y0070082D02*
X0121488Y0070082D01*
X0121488Y0069690D02*
X0123078Y0069690D01*
X0123434Y0069298D02*
X0121488Y0069298D01*
X0121488Y0068906D02*
X0123826Y0068906D01*
X0124218Y0068514D02*
X0121488Y0068514D01*
X0117126Y0068514D02*
X0074760Y0068514D01*
X0074368Y0068906D02*
X0117126Y0068906D01*
X0117126Y0069298D02*
X0073975Y0069298D01*
X0073583Y0069690D02*
X0117126Y0069690D01*
X0117126Y0070082D02*
X0073191Y0070082D01*
X0072799Y0070475D02*
X0117126Y0070475D01*
X0117126Y0070867D02*
X0072407Y0070867D01*
X0072014Y0071259D02*
X0117126Y0071259D01*
X0117126Y0071651D02*
X0071622Y0071651D01*
X0071230Y0072044D02*
X0117126Y0072044D01*
X0117126Y0072436D02*
X0070838Y0072436D01*
X0070446Y0072828D02*
X0117126Y0072828D01*
X0117126Y0073220D02*
X0070053Y0073220D01*
X0069661Y0073612D02*
X0117126Y0073612D01*
X0117126Y0074005D02*
X0069269Y0074005D01*
X0068877Y0074397D02*
X0117126Y0074397D01*
X0117126Y0074789D02*
X0068484Y0074789D01*
X0068092Y0075181D02*
X0117126Y0075181D01*
X0117126Y0075573D02*
X0067700Y0075573D01*
X0067308Y0075966D02*
X0117126Y0075966D01*
X0117126Y0076358D02*
X0066916Y0076358D01*
X0066523Y0076750D02*
X0117126Y0076750D01*
X0117126Y0077142D02*
X0066131Y0077142D01*
X0065739Y0077534D02*
X0117126Y0077534D01*
X0117126Y0077927D02*
X0065347Y0077927D01*
X0064955Y0078319D02*
X0117126Y0078319D01*
X0117126Y0078711D02*
X0064562Y0078711D01*
X0064170Y0079103D02*
X0117126Y0079103D01*
X0117126Y0079496D02*
X0063778Y0079496D01*
X0063386Y0079888D02*
X0117126Y0079888D01*
X0117126Y0080280D02*
X0062994Y0080280D01*
X0062601Y0080672D02*
X0117126Y0080672D01*
X0117126Y0081064D02*
X0062209Y0081064D01*
X0061817Y0081457D02*
X0117126Y0081457D01*
X0117126Y0081849D02*
X0061425Y0081849D01*
X0061032Y0082241D02*
X0117126Y0082241D01*
X0117126Y0082633D02*
X0060640Y0082633D01*
X0060248Y0083025D02*
X0117126Y0083025D01*
X0117126Y0083418D02*
X0059856Y0083418D01*
X0059464Y0083810D02*
X0117126Y0083810D01*
X0117126Y0084202D02*
X0059071Y0084202D01*
X0058679Y0084594D02*
X0117126Y0084594D01*
X0117126Y0084987D02*
X0058287Y0084987D01*
X0057895Y0085379D02*
X0117126Y0085379D01*
X0117126Y0085771D02*
X0057503Y0085771D01*
X0057110Y0086163D02*
X0117126Y0086163D01*
X0117126Y0086555D02*
X0056718Y0086555D01*
X0056326Y0086948D02*
X0117126Y0086948D01*
X0117126Y0087340D02*
X0055934Y0087340D01*
X0055541Y0087732D02*
X0117126Y0087732D01*
X0117126Y0088124D02*
X0055149Y0088124D01*
X0054757Y0088516D02*
X0117126Y0088516D01*
X0117126Y0088909D02*
X0054365Y0088909D01*
X0053973Y0089301D02*
X0117126Y0089301D01*
X0117126Y0089693D02*
X0053580Y0089693D01*
X0053188Y0090085D02*
X0117126Y0090085D01*
X0117126Y0090477D02*
X0052796Y0090477D01*
X0052404Y0090870D02*
X0117126Y0090870D01*
X0117126Y0091262D02*
X0052012Y0091262D01*
X0051619Y0091654D02*
X0117126Y0091654D01*
X0117126Y0092046D02*
X0051227Y0092046D01*
X0050835Y0092439D02*
X0117126Y0092439D01*
X0117126Y0092831D02*
X0050443Y0092831D01*
X0050051Y0093223D02*
X0117126Y0093223D01*
X0117126Y0093615D02*
X0084055Y0093615D01*
X0086027Y0094007D02*
X0117126Y0094007D01*
X0117126Y0094400D02*
X0087999Y0094400D01*
X0089869Y0094792D02*
X0117126Y0094792D01*
X0117126Y0095184D02*
X0090815Y0095184D01*
X0091762Y0095576D02*
X0117126Y0095576D01*
X0117126Y0095968D02*
X0092709Y0095968D01*
X0093656Y0096361D02*
X0117126Y0096361D01*
X0117126Y0096753D02*
X0094603Y0096753D01*
X0095550Y0097145D02*
X0117126Y0097145D01*
X0117126Y0097537D02*
X0096274Y0097537D01*
X0096861Y0097930D02*
X0117126Y0097930D01*
X0117126Y0098322D02*
X0097448Y0098322D01*
X0098035Y0098714D02*
X0117126Y0098714D01*
X0117126Y0099106D02*
X0098622Y0099106D01*
X0099209Y0099498D02*
X0117126Y0099498D01*
X0117126Y0099891D02*
X0099796Y0099891D01*
X0100383Y0100283D02*
X0117126Y0100283D01*
X0116943Y0100675D02*
X0100970Y0100675D01*
X0101517Y0101067D02*
X0116311Y0101067D01*
X0115919Y0101459D02*
X0101909Y0101459D01*
X0102301Y0101852D02*
X0115526Y0101852D01*
X0115147Y0102244D02*
X0102693Y0102244D01*
X0103085Y0102636D02*
X0114984Y0102636D01*
X0114822Y0103028D02*
X0103478Y0103028D01*
X0103870Y0103420D02*
X0114659Y0103420D01*
X0114497Y0103813D02*
X0104262Y0103813D01*
X0104654Y0104205D02*
X0114410Y0104205D01*
X0114410Y0104597D02*
X0105047Y0104597D01*
X0105439Y0104989D02*
X0114410Y0104989D01*
X0114410Y0105382D02*
X0105831Y0105382D01*
X0106193Y0105774D02*
X0114410Y0105774D01*
X0114491Y0106166D02*
X0106455Y0106166D01*
X0106717Y0106558D02*
X0114654Y0106558D01*
X0114816Y0106950D02*
X0106979Y0106950D01*
X0107241Y0107343D02*
X0114979Y0107343D01*
X0115141Y0107735D02*
X0107503Y0107735D01*
X0107765Y0108127D02*
X0115513Y0108127D01*
X0115905Y0108519D02*
X0108028Y0108519D01*
X0108290Y0108911D02*
X0116297Y0108911D01*
X0116911Y0109304D02*
X0108552Y0109304D01*
X0108814Y0109696D02*
X0117857Y0109696D01*
X0120757Y0109696D02*
X0127857Y0109696D01*
X0128333Y0109893D02*
X0126533Y0109147D01*
X0125156Y0107770D01*
X0124410Y0105970D01*
X0124410Y0104022D01*
X0125156Y0102222D01*
X0126533Y0100845D01*
X0128333Y0100099D01*
X0130281Y0100099D01*
X0132081Y0100845D01*
X0133458Y0102222D01*
X0134204Y0104022D01*
X0134204Y0105970D01*
X0133458Y0107770D01*
X0132081Y0109147D01*
X0130281Y0109893D01*
X0128333Y0109893D01*
X0126911Y0109304D02*
X0121704Y0109304D01*
X0122317Y0108911D02*
X0126297Y0108911D01*
X0125905Y0108519D02*
X0122709Y0108519D01*
X0123101Y0108127D02*
X0125513Y0108127D01*
X0125141Y0107735D02*
X0123473Y0107735D01*
X0123635Y0107343D02*
X0124979Y0107343D01*
X0124816Y0106950D02*
X0123798Y0106950D01*
X0123960Y0106558D02*
X0124654Y0106558D01*
X0124491Y0106166D02*
X0124123Y0106166D01*
X0124204Y0105774D02*
X0124410Y0105774D01*
X0124410Y0105382D02*
X0124204Y0105382D01*
X0124204Y0104989D02*
X0124410Y0104989D01*
X0124410Y0104597D02*
X0124204Y0104597D01*
X0124204Y0104205D02*
X0124410Y0104205D01*
X0124497Y0103813D02*
X0124117Y0103813D01*
X0123955Y0103420D02*
X0124659Y0103420D01*
X0124822Y0103028D02*
X0123792Y0103028D01*
X0123630Y0102636D02*
X0124984Y0102636D01*
X0125147Y0102244D02*
X0123467Y0102244D01*
X0123088Y0101852D02*
X0125526Y0101852D01*
X0125919Y0101459D02*
X0122696Y0101459D01*
X0122303Y0101067D02*
X0126311Y0101067D01*
X0126943Y0100675D02*
X0121671Y0100675D01*
X0121488Y0100283D02*
X0127890Y0100283D01*
X0130724Y0100283D02*
X0147387Y0100283D01*
X0147245Y0100675D02*
X0131671Y0100675D01*
X0132303Y0101067D02*
X0147102Y0101067D01*
X0146959Y0101459D02*
X0132696Y0101459D01*
X0133088Y0101852D02*
X0146816Y0101852D01*
X0146674Y0102244D02*
X0133467Y0102244D01*
X0133630Y0102636D02*
X0146531Y0102636D01*
X0146388Y0103028D02*
X0133792Y0103028D01*
X0133955Y0103420D02*
X0146245Y0103420D01*
X0146103Y0103813D02*
X0134117Y0103813D01*
X0134204Y0104205D02*
X0145960Y0104205D01*
X0145817Y0104597D02*
X0134204Y0104597D01*
X0134204Y0104989D02*
X0145674Y0104989D01*
X0145531Y0105382D02*
X0134204Y0105382D01*
X0134204Y0105774D02*
X0145389Y0105774D01*
X0145246Y0106166D02*
X0134123Y0106166D01*
X0133960Y0106558D02*
X0145103Y0106558D01*
X0144960Y0106950D02*
X0133798Y0106950D01*
X0133635Y0107343D02*
X0144818Y0107343D01*
X0144675Y0107735D02*
X0133473Y0107735D01*
X0133101Y0108127D02*
X0144532Y0108127D01*
X0144389Y0108519D02*
X0132709Y0108519D01*
X0132317Y0108911D02*
X0144197Y0108911D01*
X0143989Y0109304D02*
X0131704Y0109304D01*
X0130757Y0109696D02*
X0143780Y0109696D01*
X0143572Y0110088D02*
X0109076Y0110088D01*
X0109338Y0110480D02*
X0143363Y0110480D01*
X0143155Y0110873D02*
X0109600Y0110873D01*
X0109847Y0111265D02*
X0142946Y0111265D01*
X0142738Y0111657D02*
X0110010Y0111657D01*
X0110172Y0112049D02*
X0142529Y0112049D01*
X0142320Y0112441D02*
X0110335Y0112441D01*
X0110497Y0112834D02*
X0142112Y0112834D01*
X0141903Y0113226D02*
X0110660Y0113226D01*
X0110822Y0113618D02*
X0141695Y0113618D01*
X0141486Y0114010D02*
X0110984Y0114010D01*
X0111147Y0114402D02*
X0141278Y0114402D01*
X0141069Y0114795D02*
X0111309Y0114795D01*
X0111472Y0115187D02*
X0140861Y0115187D01*
X0140652Y0115579D02*
X0111634Y0115579D01*
X0111797Y0115971D02*
X0140444Y0115971D01*
X0140235Y0116363D02*
X0111959Y0116363D01*
X0112122Y0116756D02*
X0140027Y0116756D01*
X0139818Y0117148D02*
X0112284Y0117148D01*
X0112404Y0117540D02*
X0139563Y0117540D01*
X0139278Y0117932D02*
X0112482Y0117932D01*
X0112560Y0118325D02*
X0138993Y0118325D01*
X0138708Y0118717D02*
X0112638Y0118717D01*
X0112716Y0119109D02*
X0138423Y0119109D01*
X0138138Y0119501D02*
X0112794Y0119501D01*
X0112872Y0119893D02*
X0117767Y0119893D01*
X0118648Y0119528D02*
X0116848Y0120274D01*
X0115471Y0121651D01*
X0114725Y0123451D01*
X0114725Y0125399D01*
X0115471Y0127199D01*
X0116848Y0128577D01*
X0118648Y0129322D01*
X0120596Y0129322D01*
X0122396Y0128577D01*
X0123773Y0127199D01*
X0124519Y0125399D01*
X0124519Y0123451D01*
X0123773Y0121651D01*
X0122396Y0120274D01*
X0120596Y0119528D01*
X0118648Y0119528D01*
X0116836Y0120286D02*
X0112951Y0120286D01*
X0113029Y0120678D02*
X0116444Y0120678D01*
X0116052Y0121070D02*
X0113107Y0121070D01*
X0113185Y0121462D02*
X0115660Y0121462D01*
X0115387Y0121854D02*
X0113263Y0121854D01*
X0113341Y0122247D02*
X0115224Y0122247D01*
X0115062Y0122639D02*
X0113419Y0122639D01*
X0113497Y0123031D02*
X0114899Y0123031D01*
X0114737Y0123423D02*
X0113575Y0123423D01*
X0113653Y0123816D02*
X0114725Y0123816D01*
X0114725Y0124208D02*
X0113661Y0124208D01*
X0113661Y0124600D02*
X0114725Y0124600D01*
X0114725Y0124992D02*
X0113661Y0124992D01*
X0113661Y0125384D02*
X0114725Y0125384D01*
X0114882Y0125777D02*
X0113661Y0125777D01*
X0113661Y0126169D02*
X0115044Y0126169D01*
X0115206Y0126561D02*
X0113661Y0126561D01*
X0113661Y0126953D02*
X0115369Y0126953D01*
X0115617Y0127345D02*
X0113661Y0127345D01*
X0113661Y0127738D02*
X0116009Y0127738D01*
X0116402Y0128130D02*
X0113661Y0128130D01*
X0113661Y0128522D02*
X0116794Y0128522D01*
X0117664Y0128914D02*
X0113661Y0128914D01*
X0113661Y0129306D02*
X0118610Y0129306D01*
X0120634Y0129306D02*
X0128610Y0129306D01*
X0127664Y0128914D02*
X0121580Y0128914D01*
X0122450Y0128522D02*
X0126794Y0128522D01*
X0126402Y0128130D02*
X0122843Y0128130D01*
X0123235Y0127738D02*
X0126009Y0127738D01*
X0125617Y0127345D02*
X0123627Y0127345D01*
X0123875Y0126953D02*
X0125369Y0126953D01*
X0125206Y0126561D02*
X0124038Y0126561D01*
X0124200Y0126169D02*
X0125044Y0126169D01*
X0124882Y0125777D02*
X0124363Y0125777D01*
X0124519Y0125384D02*
X0124725Y0125384D01*
X0124725Y0124992D02*
X0124519Y0124992D01*
X0124519Y0124600D02*
X0124725Y0124600D01*
X0124725Y0124208D02*
X0124519Y0124208D01*
X0124519Y0123816D02*
X0124725Y0123816D01*
X0124737Y0123423D02*
X0124507Y0123423D01*
X0124345Y0123031D02*
X0124899Y0123031D01*
X0125062Y0122639D02*
X0124182Y0122639D01*
X0124020Y0122247D02*
X0125224Y0122247D01*
X0125387Y0121854D02*
X0123858Y0121854D01*
X0123584Y0121462D02*
X0125660Y0121462D01*
X0126052Y0121070D02*
X0123192Y0121070D01*
X0122800Y0120678D02*
X0126444Y0120678D01*
X0126836Y0120286D02*
X0122408Y0120286D01*
X0121477Y0119893D02*
X0127767Y0119893D01*
X0131477Y0119893D02*
X0137854Y0119893D01*
X0137569Y0120286D02*
X0132408Y0120286D01*
X0132800Y0120678D02*
X0137284Y0120678D01*
X0136999Y0121070D02*
X0133192Y0121070D01*
X0133584Y0121462D02*
X0136714Y0121462D01*
X0136429Y0121854D02*
X0133858Y0121854D01*
X0134020Y0122247D02*
X0136144Y0122247D01*
X0135859Y0122639D02*
X0134182Y0122639D01*
X0134345Y0123031D02*
X0135574Y0123031D01*
X0135289Y0123423D02*
X0134507Y0123423D01*
X0134519Y0123816D02*
X0135004Y0123816D01*
X0134719Y0124208D02*
X0134519Y0124208D01*
X0129668Y0129699D02*
X0113661Y0129699D01*
X0113661Y0130091D02*
X0129290Y0130091D01*
X0128911Y0130483D02*
X0113661Y0130483D01*
X0113587Y0130875D02*
X0128532Y0130875D01*
X0128153Y0131268D02*
X0113509Y0131268D01*
X0113431Y0131660D02*
X0127775Y0131660D01*
X0127396Y0132052D02*
X0113353Y0132052D01*
X0113275Y0132444D02*
X0126984Y0132444D01*
X0127119Y0132338D02*
X0127119Y0132338D01*
X0126482Y0132836D02*
X0113197Y0132836D01*
X0113119Y0133229D02*
X0125980Y0133229D01*
X0125478Y0133621D02*
X0113041Y0133621D01*
X0112963Y0134013D02*
X0124976Y0134013D01*
X0124474Y0134405D02*
X0112885Y0134405D01*
X0112807Y0134797D02*
X0123972Y0134797D01*
X0123470Y0135190D02*
X0112729Y0135190D01*
X0112651Y0135582D02*
X0122968Y0135582D01*
X0122466Y0135974D02*
X0112573Y0135974D01*
X0112495Y0136366D02*
X0121964Y0136366D01*
X0121462Y0136759D02*
X0112417Y0136759D01*
X0112310Y0137151D02*
X0120960Y0137151D01*
X0120458Y0137543D02*
X0112148Y0137543D01*
X0111986Y0137935D02*
X0119956Y0137935D01*
X0119454Y0138327D02*
X0111823Y0138327D01*
X0111661Y0138720D02*
X0118805Y0138720D01*
X0119367Y0138395D02*
X0119367Y0138395D01*
X0118126Y0139112D02*
X0111498Y0139112D01*
X0111336Y0139504D02*
X0117446Y0139504D01*
X0116767Y0139896D02*
X0111173Y0139896D01*
X0111011Y0140288D02*
X0116088Y0140288D01*
X0115408Y0140681D02*
X0110848Y0140681D01*
X0110686Y0141073D02*
X0114729Y0141073D01*
X0114050Y0141465D02*
X0110523Y0141465D01*
X0110361Y0141857D02*
X0113370Y0141857D01*
X0112691Y0142249D02*
X0110198Y0142249D01*
X0110036Y0142642D02*
X0112012Y0142642D01*
X0111332Y0143034D02*
X0109874Y0143034D01*
X0109642Y0143426D02*
X0110569Y0143426D01*
X0109599Y0143818D02*
X0109380Y0143818D01*
X0116636Y0150094D02*
X0158677Y0150094D01*
X0158677Y0150486D02*
X0115957Y0150486D01*
X0115278Y0150878D02*
X0158677Y0150878D01*
X0158677Y0151270D02*
X0114555Y0151270D01*
X0114700Y0151212D02*
X0104442Y0155356D01*
X0093707Y0158033D01*
X0093538Y0158050D01*
X0092025Y0158677D01*
X0158677Y0158677D01*
X0158677Y0087948D01*
X0158466Y0090973D01*
X0156165Y0101795D01*
X0152381Y0112191D01*
X0147188Y0121960D01*
X0140685Y0130910D01*
X0140685Y0130910D01*
X0132999Y0138869D01*
X0124281Y0145680D01*
X0114700Y0151212D01*
X0114700Y0151212D01*
X0113584Y0151663D02*
X0158677Y0151663D01*
X0158677Y0152055D02*
X0112613Y0152055D01*
X0111643Y0152447D02*
X0158677Y0152447D01*
X0158677Y0152839D02*
X0110672Y0152839D01*
X0109701Y0153231D02*
X0158677Y0153231D01*
X0158677Y0153624D02*
X0108730Y0153624D01*
X0107759Y0154016D02*
X0158677Y0154016D01*
X0158677Y0154408D02*
X0106789Y0154408D01*
X0105818Y0154800D02*
X0158677Y0154800D01*
X0158677Y0155192D02*
X0104847Y0155192D01*
X0104442Y0155356D02*
X0104442Y0155356D01*
X0103525Y0155585D02*
X0158677Y0155585D01*
X0158677Y0155977D02*
X0101952Y0155977D01*
X0100379Y0156369D02*
X0158677Y0156369D01*
X0158677Y0156761D02*
X0098806Y0156761D01*
X0097233Y0157154D02*
X0158677Y0157154D01*
X0158677Y0157546D02*
X0095660Y0157546D01*
X0094087Y0157938D02*
X0158677Y0157938D01*
X0158677Y0158330D02*
X0092863Y0158330D01*
X0093707Y0158033D02*
X0093707Y0158033D01*
X0117316Y0149702D02*
X0158677Y0149702D01*
X0158677Y0149309D02*
X0117995Y0149309D01*
X0118674Y0148917D02*
X0158677Y0148917D01*
X0158677Y0148525D02*
X0119354Y0148525D01*
X0120033Y0148133D02*
X0158677Y0148133D01*
X0158677Y0147740D02*
X0120712Y0147740D01*
X0121392Y0147348D02*
X0158677Y0147348D01*
X0158677Y0146956D02*
X0122071Y0146956D01*
X0122750Y0146564D02*
X0158677Y0146564D01*
X0158677Y0146172D02*
X0123430Y0146172D01*
X0124109Y0145779D02*
X0158677Y0145779D01*
X0158677Y0145387D02*
X0124656Y0145387D01*
X0125158Y0144995D02*
X0158677Y0144995D01*
X0158677Y0144603D02*
X0125660Y0144603D01*
X0126162Y0144211D02*
X0158677Y0144211D01*
X0158677Y0143818D02*
X0126664Y0143818D01*
X0127166Y0143426D02*
X0158677Y0143426D01*
X0158677Y0143034D02*
X0127668Y0143034D01*
X0128170Y0142642D02*
X0158677Y0142642D01*
X0158677Y0142249D02*
X0128672Y0142249D01*
X0129174Y0141857D02*
X0158677Y0141857D01*
X0158677Y0141465D02*
X0129676Y0141465D01*
X0130178Y0141073D02*
X0158677Y0141073D01*
X0158677Y0140681D02*
X0130680Y0140681D01*
X0131182Y0140288D02*
X0158677Y0140288D01*
X0158677Y0139896D02*
X0131684Y0139896D01*
X0132186Y0139504D02*
X0158677Y0139504D01*
X0158677Y0139112D02*
X0132688Y0139112D01*
X0133143Y0138720D02*
X0158677Y0138720D01*
X0158677Y0138327D02*
X0133522Y0138327D01*
X0133901Y0137935D02*
X0158677Y0137935D01*
X0158677Y0137543D02*
X0134280Y0137543D01*
X0134658Y0137151D02*
X0158677Y0137151D01*
X0158677Y0136759D02*
X0135037Y0136759D01*
X0135416Y0136366D02*
X0158677Y0136366D01*
X0158677Y0135974D02*
X0135795Y0135974D01*
X0136173Y0135582D02*
X0158677Y0135582D01*
X0158677Y0135190D02*
X0136552Y0135190D01*
X0136931Y0134797D02*
X0158677Y0134797D01*
X0158677Y0134405D02*
X0137310Y0134405D01*
X0137688Y0134013D02*
X0158677Y0134013D01*
X0158677Y0133621D02*
X0138067Y0133621D01*
X0138446Y0133229D02*
X0158677Y0133229D01*
X0158677Y0132836D02*
X0138825Y0132836D01*
X0139203Y0132444D02*
X0158677Y0132444D01*
X0158677Y0132052D02*
X0139582Y0132052D01*
X0139961Y0131660D02*
X0158677Y0131660D01*
X0158677Y0131268D02*
X0140340Y0131268D01*
X0140710Y0130875D02*
X0158677Y0130875D01*
X0158677Y0130483D02*
X0140995Y0130483D01*
X0141280Y0130091D02*
X0158677Y0130091D01*
X0158677Y0129699D02*
X0141565Y0129699D01*
X0141850Y0129306D02*
X0158677Y0129306D01*
X0158677Y0128914D02*
X0142135Y0128914D01*
X0142420Y0128522D02*
X0158677Y0128522D01*
X0158677Y0128130D02*
X0142705Y0128130D01*
X0142990Y0127738D02*
X0158677Y0127738D01*
X0158677Y0127345D02*
X0143275Y0127345D01*
X0143560Y0126953D02*
X0158677Y0126953D01*
X0158677Y0126561D02*
X0143845Y0126561D01*
X0144130Y0126169D02*
X0158677Y0126169D01*
X0158677Y0125777D02*
X0144414Y0125777D01*
X0144699Y0125384D02*
X0158677Y0125384D01*
X0158677Y0124992D02*
X0144984Y0124992D01*
X0145269Y0124600D02*
X0158677Y0124600D01*
X0158677Y0124208D02*
X0145554Y0124208D01*
X0145839Y0123816D02*
X0158677Y0123816D01*
X0158677Y0123423D02*
X0146124Y0123423D01*
X0146409Y0123031D02*
X0158677Y0123031D01*
X0158677Y0122639D02*
X0146694Y0122639D01*
X0146979Y0122247D02*
X0158677Y0122247D01*
X0158677Y0121854D02*
X0147244Y0121854D01*
X0147452Y0121462D02*
X0158677Y0121462D01*
X0158677Y0121070D02*
X0147661Y0121070D01*
X0147869Y0120678D02*
X0158677Y0120678D01*
X0158677Y0120286D02*
X0148078Y0120286D01*
X0148286Y0119893D02*
X0158677Y0119893D01*
X0158677Y0119501D02*
X0148495Y0119501D01*
X0148703Y0119109D02*
X0158677Y0119109D01*
X0158677Y0118717D02*
X0148912Y0118717D01*
X0149120Y0118325D02*
X0158677Y0118325D01*
X0158677Y0117932D02*
X0149329Y0117932D01*
X0149538Y0117540D02*
X0158677Y0117540D01*
X0158677Y0117148D02*
X0149746Y0117148D01*
X0149955Y0116756D02*
X0158677Y0116756D01*
X0158677Y0116363D02*
X0150163Y0116363D01*
X0150372Y0115971D02*
X0158677Y0115971D01*
X0158677Y0115579D02*
X0150580Y0115579D01*
X0150789Y0115187D02*
X0158677Y0115187D01*
X0158677Y0114795D02*
X0150997Y0114795D01*
X0151206Y0114402D02*
X0158677Y0114402D01*
X0158677Y0114010D02*
X0151414Y0114010D01*
X0151623Y0113618D02*
X0158677Y0113618D01*
X0158677Y0113226D02*
X0151831Y0113226D01*
X0152040Y0112834D02*
X0158677Y0112834D01*
X0158677Y0112441D02*
X0152249Y0112441D01*
X0152433Y0112049D02*
X0158677Y0112049D01*
X0158677Y0111657D02*
X0152576Y0111657D01*
X0152719Y0111265D02*
X0158677Y0111265D01*
X0158677Y0110873D02*
X0152862Y0110873D01*
X0153004Y0110480D02*
X0158677Y0110480D01*
X0158677Y0110088D02*
X0153147Y0110088D01*
X0153290Y0109696D02*
X0158677Y0109696D01*
X0158677Y0109304D02*
X0153433Y0109304D01*
X0153575Y0108911D02*
X0158677Y0108911D01*
X0158677Y0108519D02*
X0153718Y0108519D01*
X0153861Y0108127D02*
X0158677Y0108127D01*
X0158677Y0107735D02*
X0154004Y0107735D01*
X0154146Y0107343D02*
X0158677Y0107343D01*
X0158677Y0106950D02*
X0154289Y0106950D01*
X0154432Y0106558D02*
X0158677Y0106558D01*
X0158677Y0106166D02*
X0154575Y0106166D01*
X0154717Y0105774D02*
X0158677Y0105774D01*
X0158677Y0105382D02*
X0154860Y0105382D01*
X0155003Y0104989D02*
X0158677Y0104989D01*
X0158677Y0104597D02*
X0155146Y0104597D01*
X0155288Y0104205D02*
X0158677Y0104205D01*
X0158677Y0103813D02*
X0155431Y0103813D01*
X0155574Y0103420D02*
X0158677Y0103420D01*
X0158677Y0103028D02*
X0155717Y0103028D01*
X0155859Y0102636D02*
X0158677Y0102636D01*
X0158677Y0102244D02*
X0156002Y0102244D01*
X0156145Y0101852D02*
X0158677Y0101852D01*
X0158677Y0101459D02*
X0156237Y0101459D01*
X0156320Y0101067D02*
X0158677Y0101067D01*
X0158677Y0100675D02*
X0156404Y0100675D01*
X0156487Y0100283D02*
X0158677Y0100283D01*
X0158677Y0099891D02*
X0156570Y0099891D01*
X0156654Y0099498D02*
X0158677Y0099498D01*
X0158677Y0099106D02*
X0156737Y0099106D01*
X0156820Y0098714D02*
X0158677Y0098714D01*
X0158677Y0098322D02*
X0156904Y0098322D01*
X0156987Y0097930D02*
X0158677Y0097930D01*
X0158677Y0097537D02*
X0157070Y0097537D01*
X0157154Y0097145D02*
X0158677Y0097145D01*
X0158677Y0096753D02*
X0157237Y0096753D01*
X0157321Y0096361D02*
X0158677Y0096361D01*
X0158677Y0095968D02*
X0157404Y0095968D01*
X0157487Y0095576D02*
X0158677Y0095576D01*
X0158677Y0095184D02*
X0157571Y0095184D01*
X0157654Y0094792D02*
X0158677Y0094792D01*
X0158677Y0094400D02*
X0157737Y0094400D01*
X0157821Y0094007D02*
X0158677Y0094007D01*
X0158677Y0093615D02*
X0157904Y0093615D01*
X0157988Y0093223D02*
X0158677Y0093223D01*
X0158677Y0092831D02*
X0158071Y0092831D01*
X0158154Y0092439D02*
X0158677Y0092439D01*
X0158677Y0092046D02*
X0158238Y0092046D01*
X0158321Y0091654D02*
X0158677Y0091654D01*
X0158677Y0091262D02*
X0158404Y0091262D01*
X0158473Y0090870D02*
X0158677Y0090870D01*
X0158677Y0090477D02*
X0158500Y0090477D01*
X0158528Y0090085D02*
X0158677Y0090085D01*
X0158677Y0089693D02*
X0158555Y0089693D01*
X0158583Y0089301D02*
X0158677Y0089301D01*
X0158677Y0088909D02*
X0158610Y0088909D01*
X0158637Y0088516D02*
X0158677Y0088516D01*
X0158665Y0088124D02*
X0158677Y0088124D01*
X0150289Y0082241D02*
X0121488Y0082241D01*
X0121488Y0081849D02*
X0150316Y0081849D01*
X0150344Y0081457D02*
X0121488Y0081457D01*
X0121488Y0081064D02*
X0150371Y0081064D01*
X0150399Y0080672D02*
X0121488Y0080672D01*
X0121488Y0080280D02*
X0150426Y0080280D01*
X0150447Y0079888D02*
X0121488Y0079888D01*
X0121488Y0079496D02*
X0150419Y0079496D01*
X0150392Y0079103D02*
X0121488Y0079103D01*
X0121488Y0078711D02*
X0150364Y0078711D01*
X0150337Y0078319D02*
X0121488Y0078319D01*
X0121488Y0077927D02*
X0150309Y0077927D01*
X0150282Y0077534D02*
X0121488Y0077534D01*
X0121488Y0082633D02*
X0150261Y0082633D01*
X0150234Y0083025D02*
X0121488Y0083025D01*
X0121488Y0083418D02*
X0150207Y0083418D01*
X0150179Y0083810D02*
X0121488Y0083810D01*
X0121488Y0084202D02*
X0150152Y0084202D01*
X0150124Y0084594D02*
X0121488Y0084594D01*
X0121488Y0084987D02*
X0150097Y0084987D01*
X0150069Y0085379D02*
X0121488Y0085379D01*
X0121488Y0085771D02*
X0150042Y0085771D01*
X0150015Y0086163D02*
X0121488Y0086163D01*
X0121488Y0086555D02*
X0149987Y0086555D01*
X0149960Y0086948D02*
X0121488Y0086948D01*
X0121488Y0087340D02*
X0149932Y0087340D01*
X0149905Y0087732D02*
X0121488Y0087732D01*
X0121488Y0088124D02*
X0149877Y0088124D01*
X0149850Y0088516D02*
X0121488Y0088516D01*
X0121488Y0088909D02*
X0149823Y0088909D01*
X0149795Y0089301D02*
X0121488Y0089301D01*
X0121488Y0089693D02*
X0149768Y0089693D01*
X0149693Y0090085D02*
X0121488Y0090085D01*
X0121488Y0090477D02*
X0149609Y0090477D01*
X0149526Y0090870D02*
X0121488Y0090870D01*
X0121488Y0091262D02*
X0149442Y0091262D01*
X0149359Y0091654D02*
X0121488Y0091654D01*
X0121488Y0092046D02*
X0149276Y0092046D01*
X0149192Y0092439D02*
X0121488Y0092439D01*
X0121488Y0092831D02*
X0149109Y0092831D01*
X0149026Y0093223D02*
X0121488Y0093223D01*
X0121488Y0093615D02*
X0148942Y0093615D01*
X0148859Y0094007D02*
X0121488Y0094007D01*
X0121488Y0094400D02*
X0148776Y0094400D01*
X0148692Y0094792D02*
X0121488Y0094792D01*
X0121488Y0095184D02*
X0148609Y0095184D01*
X0148525Y0095576D02*
X0121488Y0095576D01*
X0121488Y0095968D02*
X0148442Y0095968D01*
X0148359Y0096361D02*
X0121488Y0096361D01*
X0121488Y0096753D02*
X0148275Y0096753D01*
X0148192Y0097145D02*
X0121488Y0097145D01*
X0121488Y0097537D02*
X0148109Y0097537D01*
X0148025Y0097930D02*
X0121488Y0097930D01*
X0121488Y0098322D02*
X0147942Y0098322D01*
X0147859Y0098714D02*
X0121488Y0098714D01*
X0121488Y0099106D02*
X0147775Y0099106D01*
X0147673Y0099498D02*
X0121488Y0099498D01*
X0121488Y0099891D02*
X0147530Y0099891D01*
X0158677Y0071926D02*
X0158677Y0001197D01*
X0087575Y0001197D01*
X0093707Y0001841D01*
X0093707Y0001841D01*
X0104442Y0004518D01*
X0114700Y0008662D01*
X0124281Y0014194D01*
X0132999Y0021005D01*
X0132999Y0021005D01*
X0140685Y0028964D01*
X0147188Y0037914D01*
X0152381Y0047683D01*
X0156165Y0058079D01*
X0158466Y0068901D01*
X0158677Y0071926D01*
X0158658Y0071651D02*
X0158677Y0071651D01*
X0158677Y0071259D02*
X0158631Y0071259D01*
X0158603Y0070867D02*
X0158677Y0070867D01*
X0158677Y0070475D02*
X0158576Y0070475D01*
X0158548Y0070082D02*
X0158677Y0070082D01*
X0158677Y0069690D02*
X0158521Y0069690D01*
X0158493Y0069298D02*
X0158677Y0069298D01*
X0158677Y0068906D02*
X0158466Y0068906D01*
X0158383Y0068514D02*
X0158677Y0068514D01*
X0158677Y0068121D02*
X0158300Y0068121D01*
X0158217Y0067729D02*
X0158677Y0067729D01*
X0158677Y0067337D02*
X0158133Y0067337D01*
X0158050Y0066945D02*
X0158677Y0066945D01*
X0158677Y0066553D02*
X0157967Y0066553D01*
X0157883Y0066160D02*
X0158677Y0066160D01*
X0158677Y0065768D02*
X0157800Y0065768D01*
X0157716Y0065376D02*
X0158677Y0065376D01*
X0158677Y0064984D02*
X0157633Y0064984D01*
X0157550Y0064591D02*
X0158677Y0064591D01*
X0158677Y0064199D02*
X0157466Y0064199D01*
X0157383Y0063807D02*
X0158677Y0063807D01*
X0158677Y0063415D02*
X0157300Y0063415D01*
X0157216Y0063023D02*
X0158677Y0063023D01*
X0158677Y0062630D02*
X0157133Y0062630D01*
X0157050Y0062238D02*
X0158677Y0062238D01*
X0158677Y0061846D02*
X0156966Y0061846D01*
X0156883Y0061454D02*
X0158677Y0061454D01*
X0158677Y0061062D02*
X0156799Y0061062D01*
X0156716Y0060669D02*
X0158677Y0060669D01*
X0158677Y0060277D02*
X0156633Y0060277D01*
X0156549Y0059885D02*
X0158677Y0059885D01*
X0158677Y0059493D02*
X0156466Y0059493D01*
X0156383Y0059101D02*
X0158677Y0059101D01*
X0158677Y0058708D02*
X0156299Y0058708D01*
X0156216Y0058316D02*
X0158677Y0058316D01*
X0158677Y0057924D02*
X0156109Y0057924D01*
X0155966Y0057532D02*
X0158677Y0057532D01*
X0158677Y0057139D02*
X0155823Y0057139D01*
X0155681Y0056747D02*
X0158677Y0056747D01*
X0158677Y0056355D02*
X0155538Y0056355D01*
X0155395Y0055963D02*
X0158677Y0055963D01*
X0158677Y0055571D02*
X0155252Y0055571D01*
X0155110Y0055178D02*
X0158677Y0055178D01*
X0158677Y0054786D02*
X0154967Y0054786D01*
X0154824Y0054394D02*
X0158677Y0054394D01*
X0158677Y0054002D02*
X0154681Y0054002D01*
X0154539Y0053610D02*
X0158677Y0053610D01*
X0158677Y0053217D02*
X0154396Y0053217D01*
X0154253Y0052825D02*
X0158677Y0052825D01*
X0158677Y0052433D02*
X0154110Y0052433D01*
X0153968Y0052041D02*
X0158677Y0052041D01*
X0158677Y0051648D02*
X0153825Y0051648D01*
X0153682Y0051256D02*
X0158677Y0051256D01*
X0158677Y0050864D02*
X0153539Y0050864D01*
X0153397Y0050472D02*
X0158677Y0050472D01*
X0158677Y0050080D02*
X0153254Y0050080D01*
X0153111Y0049687D02*
X0158677Y0049687D01*
X0158677Y0049295D02*
X0152968Y0049295D01*
X0152826Y0048903D02*
X0158677Y0048903D01*
X0158677Y0048511D02*
X0152683Y0048511D01*
X0152540Y0048119D02*
X0158677Y0048119D01*
X0158677Y0047726D02*
X0152397Y0047726D01*
X0152196Y0047334D02*
X0158677Y0047334D01*
X0158677Y0046942D02*
X0151988Y0046942D01*
X0151779Y0046550D02*
X0158677Y0046550D01*
X0158677Y0046158D02*
X0151571Y0046158D01*
X0151362Y0045765D02*
X0158677Y0045765D01*
X0158677Y0045373D02*
X0151153Y0045373D01*
X0150945Y0044981D02*
X0158677Y0044981D01*
X0158677Y0044589D02*
X0150736Y0044589D01*
X0150528Y0044196D02*
X0158677Y0044196D01*
X0158677Y0043804D02*
X0150319Y0043804D01*
X0150111Y0043412D02*
X0158677Y0043412D01*
X0158677Y0043020D02*
X0149902Y0043020D01*
X0149694Y0042628D02*
X0158677Y0042628D01*
X0158677Y0042235D02*
X0149485Y0042235D01*
X0149277Y0041843D02*
X0158677Y0041843D01*
X0158677Y0041451D02*
X0149068Y0041451D01*
X0148860Y0041059D02*
X0158677Y0041059D01*
X0158677Y0040667D02*
X0148651Y0040667D01*
X0148442Y0040274D02*
X0158677Y0040274D01*
X0158677Y0039882D02*
X0148234Y0039882D01*
X0148025Y0039490D02*
X0158677Y0039490D01*
X0158677Y0039098D02*
X0147817Y0039098D01*
X0147608Y0038705D02*
X0158677Y0038705D01*
X0158677Y0038313D02*
X0147400Y0038313D01*
X0147191Y0037921D02*
X0158677Y0037921D01*
X0158677Y0037529D02*
X0146908Y0037529D01*
X0146623Y0037137D02*
X0158677Y0037137D01*
X0158677Y0036744D02*
X0146338Y0036744D01*
X0146053Y0036352D02*
X0158677Y0036352D01*
X0158677Y0035960D02*
X0145768Y0035960D01*
X0145483Y0035568D02*
X0158677Y0035568D01*
X0158677Y0035176D02*
X0145198Y0035176D01*
X0144913Y0034783D02*
X0158677Y0034783D01*
X0158677Y0034391D02*
X0144628Y0034391D01*
X0144343Y0033999D02*
X0158677Y0033999D01*
X0158677Y0033607D02*
X0144058Y0033607D01*
X0143773Y0033215D02*
X0158677Y0033215D01*
X0158677Y0032822D02*
X0143488Y0032822D01*
X0143203Y0032430D02*
X0158677Y0032430D01*
X0158677Y0032038D02*
X0142918Y0032038D01*
X0142633Y0031646D02*
X0158677Y0031646D01*
X0158677Y0031253D02*
X0142348Y0031253D01*
X0142063Y0030861D02*
X0158677Y0030861D01*
X0158677Y0030469D02*
X0141778Y0030469D01*
X0141493Y0030077D02*
X0158677Y0030077D01*
X0158677Y0029685D02*
X0141208Y0029685D01*
X0140923Y0029292D02*
X0158677Y0029292D01*
X0158677Y0028900D02*
X0140623Y0028900D01*
X0140245Y0028508D02*
X0158677Y0028508D01*
X0158677Y0028116D02*
X0139866Y0028116D01*
X0139487Y0027724D02*
X0158677Y0027724D01*
X0158677Y0027331D02*
X0139108Y0027331D01*
X0138730Y0026939D02*
X0158677Y0026939D01*
X0158677Y0026547D02*
X0138351Y0026547D01*
X0137972Y0026155D02*
X0158677Y0026155D01*
X0158677Y0025762D02*
X0137593Y0025762D01*
X0137214Y0025370D02*
X0158677Y0025370D01*
X0158677Y0024978D02*
X0136836Y0024978D01*
X0136457Y0024586D02*
X0158677Y0024586D01*
X0158677Y0024194D02*
X0136078Y0024194D01*
X0135699Y0023801D02*
X0158677Y0023801D01*
X0158677Y0023409D02*
X0135321Y0023409D01*
X0134942Y0023017D02*
X0158677Y0023017D01*
X0158677Y0022625D02*
X0134563Y0022625D01*
X0134184Y0022233D02*
X0158677Y0022233D01*
X0158677Y0021840D02*
X0133806Y0021840D01*
X0133427Y0021448D02*
X0158677Y0021448D01*
X0158677Y0021056D02*
X0133048Y0021056D01*
X0132562Y0020664D02*
X0158677Y0020664D01*
X0158677Y0020272D02*
X0132060Y0020272D01*
X0131558Y0019879D02*
X0158677Y0019879D01*
X0158677Y0019487D02*
X0131056Y0019487D01*
X0130554Y0019095D02*
X0158677Y0019095D01*
X0158677Y0018703D02*
X0130052Y0018703D01*
X0129550Y0018310D02*
X0158677Y0018310D01*
X0158677Y0017918D02*
X0129048Y0017918D01*
X0128546Y0017526D02*
X0158677Y0017526D01*
X0158677Y0017134D02*
X0128044Y0017134D01*
X0127542Y0016742D02*
X0158677Y0016742D01*
X0158677Y0016349D02*
X0127040Y0016349D01*
X0126538Y0015957D02*
X0158677Y0015957D01*
X0158677Y0015565D02*
X0126036Y0015565D01*
X0125534Y0015173D02*
X0158677Y0015173D01*
X0158677Y0014781D02*
X0125032Y0014781D01*
X0124530Y0014388D02*
X0158677Y0014388D01*
X0158677Y0013996D02*
X0123938Y0013996D01*
X0123259Y0013604D02*
X0158677Y0013604D01*
X0158677Y0013212D02*
X0122580Y0013212D01*
X0121900Y0012820D02*
X0158677Y0012820D01*
X0158677Y0012427D02*
X0121221Y0012427D01*
X0120542Y0012035D02*
X0158677Y0012035D01*
X0158677Y0011643D02*
X0119862Y0011643D01*
X0119183Y0011251D02*
X0158677Y0011251D01*
X0158677Y0010858D02*
X0118504Y0010858D01*
X0117825Y0010466D02*
X0158677Y0010466D01*
X0158677Y0010074D02*
X0117145Y0010074D01*
X0116466Y0009682D02*
X0158677Y0009682D01*
X0158677Y0009290D02*
X0115787Y0009290D01*
X0115107Y0008897D02*
X0158677Y0008897D01*
X0158677Y0008505D02*
X0114311Y0008505D01*
X0113340Y0008113D02*
X0158677Y0008113D01*
X0158677Y0007721D02*
X0112370Y0007721D01*
X0111399Y0007329D02*
X0158677Y0007329D01*
X0158677Y0006936D02*
X0110428Y0006936D01*
X0109457Y0006544D02*
X0158677Y0006544D01*
X0158677Y0006152D02*
X0108487Y0006152D01*
X0107516Y0005760D02*
X0158677Y0005760D01*
X0158677Y0005367D02*
X0106545Y0005367D01*
X0105574Y0004975D02*
X0158677Y0004975D01*
X0158677Y0004583D02*
X0104604Y0004583D01*
X0104442Y0004518D02*
X0104442Y0004518D01*
X0103131Y0004191D02*
X0158677Y0004191D01*
X0158677Y0003799D02*
X0101557Y0003799D01*
X0099984Y0003406D02*
X0158677Y0003406D01*
X0158677Y0003014D02*
X0098411Y0003014D01*
X0096838Y0002622D02*
X0158677Y0002622D01*
X0158677Y0002230D02*
X0095265Y0002230D01*
X0093671Y0001838D02*
X0158677Y0001838D01*
X0158677Y0001445D02*
X0089939Y0001445D01*
X0088174Y0010074D02*
X0071071Y0010074D01*
X0068846Y0010466D02*
X0091905Y0010466D01*
X0093638Y0010858D02*
X0066622Y0010858D01*
X0064398Y0011251D02*
X0095211Y0011251D01*
X0096784Y0011643D02*
X0062496Y0011643D01*
X0061289Y0012035D02*
X0098357Y0012035D01*
X0099930Y0012427D02*
X0060082Y0012427D01*
X0058874Y0012820D02*
X0101503Y0012820D01*
X0102560Y0013212D02*
X0057667Y0013212D01*
X0056460Y0013604D02*
X0103530Y0013604D01*
X0104501Y0013996D02*
X0055253Y0013996D01*
X0054046Y0014388D02*
X0105472Y0014388D01*
X0106443Y0014781D02*
X0053067Y0014781D01*
X0052263Y0015173D02*
X0107414Y0015173D01*
X0108384Y0015565D02*
X0051459Y0015565D01*
X0050655Y0015957D02*
X0109355Y0015957D01*
X0110326Y0016349D02*
X0049850Y0016349D01*
X0049046Y0016742D02*
X0111162Y0016742D01*
X0111841Y0017134D02*
X0048242Y0017134D01*
X0047438Y0017526D02*
X0112521Y0017526D01*
X0113200Y0017918D02*
X0046634Y0017918D01*
X0045830Y0018310D02*
X0113879Y0018310D01*
X0114559Y0018703D02*
X0045026Y0018703D01*
X0044349Y0019095D02*
X0115238Y0019095D01*
X0115917Y0019487D02*
X0043767Y0019487D01*
X0043186Y0019879D02*
X0116597Y0019879D01*
X0117276Y0020272D02*
X0042604Y0020272D01*
X0042023Y0020664D02*
X0117955Y0020664D01*
X0118634Y0021056D02*
X0041441Y0021056D01*
X0040860Y0021448D02*
X0119314Y0021448D01*
X0119830Y0021840D02*
X0040278Y0021840D01*
X0039697Y0022233D02*
X0120332Y0022233D01*
X0120834Y0022625D02*
X0039115Y0022625D01*
X0038534Y0023017D02*
X0121336Y0023017D01*
X0121838Y0023409D02*
X0037952Y0023409D01*
X0037371Y0023801D02*
X0122340Y0023801D01*
X0122842Y0024194D02*
X0036789Y0024194D01*
X0036287Y0024586D02*
X0123344Y0024586D01*
X0123846Y0024978D02*
X0035852Y0024978D01*
X0035416Y0025370D02*
X0124348Y0025370D01*
X0124850Y0025762D02*
X0034981Y0025762D01*
X0034545Y0026155D02*
X0125352Y0026155D01*
X0125854Y0026547D02*
X0034109Y0026547D01*
X0033674Y0026939D02*
X0126356Y0026939D01*
X0126858Y0027331D02*
X0033238Y0027331D01*
X0034128Y0027724D02*
X0125806Y0027724D01*
X0124880Y0028116D02*
X0035075Y0028116D01*
X0035824Y0028508D02*
X0124283Y0028508D01*
X0123832Y0028900D02*
X0036216Y0028900D01*
X0036609Y0029292D02*
X0123461Y0029292D01*
X0123177Y0029685D02*
X0037001Y0029685D01*
X0037199Y0030077D02*
X0122944Y0030077D01*
X0122744Y0030469D02*
X0037362Y0030469D01*
X0037524Y0030861D02*
X0122607Y0030861D01*
X0122480Y0031253D02*
X0037687Y0031253D01*
X0037808Y0031646D02*
X0122417Y0031646D01*
X0122359Y0032038D02*
X0037808Y0032038D01*
X0037808Y0032430D02*
X0127058Y0032430D01*
X0127059Y0032038D02*
X0127452Y0032038D01*
X0127452Y0031646D02*
X0127059Y0031646D01*
X0127059Y0031253D02*
X0127452Y0031253D01*
X0127452Y0030861D02*
X0127059Y0030861D01*
X0127059Y0030469D02*
X0127452Y0030469D01*
X0127452Y0030077D02*
X0127059Y0030077D01*
X0127059Y0029685D02*
X0127452Y0029685D01*
X0127452Y0029292D02*
X0127059Y0029292D01*
X0127059Y0028900D02*
X0127452Y0028900D01*
X0127452Y0028508D02*
X0127059Y0028508D01*
X0127059Y0028116D02*
X0127452Y0028116D01*
X0127301Y0027724D02*
X0127059Y0027724D01*
X0127059Y0032822D02*
X0127452Y0032822D01*
X0127452Y0033215D02*
X0127059Y0033215D01*
X0127059Y0033607D02*
X0127452Y0033607D01*
X0127452Y0033999D02*
X0127059Y0033999D01*
X0127059Y0034391D02*
X0127452Y0034391D01*
X0127452Y0034783D02*
X0127059Y0034783D01*
X0127059Y0035176D02*
X0127452Y0035176D01*
X0127452Y0035568D02*
X0127059Y0035568D01*
X0127059Y0035960D02*
X0127452Y0035960D01*
X0127452Y0036352D02*
X0127059Y0036352D01*
X0127059Y0036744D02*
X0127452Y0036744D01*
X0127452Y0037137D02*
X0127059Y0037137D01*
X0128288Y0037529D02*
X0136072Y0037529D01*
X0135787Y0037137D02*
X0128529Y0037137D01*
X0129235Y0037921D02*
X0136357Y0037921D01*
X0136642Y0038313D02*
X0130092Y0038313D01*
X0130484Y0038705D02*
X0136927Y0038705D01*
X0137212Y0039098D02*
X0130877Y0039098D01*
X0131269Y0039490D02*
X0137497Y0039490D01*
X0137782Y0039882D02*
X0131512Y0039882D01*
X0131675Y0040274D02*
X0138067Y0040274D01*
X0138352Y0040667D02*
X0131837Y0040667D01*
X0131999Y0041059D02*
X0138637Y0041059D01*
X0138922Y0041451D02*
X0132152Y0041451D01*
X0132152Y0041843D02*
X0139207Y0041843D01*
X0139492Y0042235D02*
X0132152Y0042235D01*
X0132152Y0042628D02*
X0139766Y0042628D01*
X0139974Y0043020D02*
X0132152Y0043020D01*
X0132137Y0043412D02*
X0140183Y0043412D01*
X0140391Y0043804D02*
X0131975Y0043804D01*
X0131812Y0044196D02*
X0140600Y0044196D01*
X0140808Y0044589D02*
X0131650Y0044589D01*
X0131487Y0044981D02*
X0141017Y0044981D01*
X0141225Y0045373D02*
X0131209Y0045373D01*
X0130817Y0045765D02*
X0141434Y0045765D01*
X0141642Y0046158D02*
X0130425Y0046158D01*
X0130032Y0046550D02*
X0141851Y0046550D01*
X0135502Y0036744D02*
X0129518Y0036744D01*
X0130149Y0036352D02*
X0135217Y0036352D01*
X0134932Y0035960D02*
X0130622Y0035960D01*
X0131008Y0035568D02*
X0134647Y0035568D01*
X0134362Y0035176D02*
X0131293Y0035176D01*
X0131538Y0034783D02*
X0134077Y0034783D01*
X0133740Y0034391D02*
X0131737Y0034391D01*
X0131885Y0033999D02*
X0133361Y0033999D01*
X0132982Y0033607D02*
X0132013Y0033607D01*
X0132084Y0033215D02*
X0132603Y0033215D01*
X0132225Y0032822D02*
X0132147Y0032822D01*
X0124992Y0036744D02*
X0035507Y0036744D01*
X0036003Y0036352D02*
X0124362Y0036352D01*
X0123889Y0035960D02*
X0036396Y0035960D01*
X0036788Y0035568D02*
X0123503Y0035568D01*
X0123218Y0035176D02*
X0037111Y0035176D01*
X0037273Y0034783D02*
X0122973Y0034783D01*
X0122773Y0034391D02*
X0037436Y0034391D01*
X0037598Y0033999D02*
X0122626Y0033999D01*
X0122498Y0033607D02*
X0037761Y0033607D01*
X0037808Y0033215D02*
X0122426Y0033215D01*
X0122364Y0032822D02*
X0037808Y0032822D01*
X0030314Y0036744D02*
X0024356Y0036744D01*
X0024685Y0036352D02*
X0029818Y0036352D01*
X0029426Y0035960D02*
X0025014Y0035960D01*
X0025343Y0035568D02*
X0029034Y0035568D01*
X0028711Y0035176D02*
X0025672Y0035176D01*
X0026001Y0034783D02*
X0028548Y0034783D01*
X0028386Y0034391D02*
X0026331Y0034391D01*
X0026660Y0033999D02*
X0028223Y0033999D01*
X0028061Y0033607D02*
X0026989Y0033607D01*
X0027318Y0033215D02*
X0028014Y0033215D01*
X0028014Y0032822D02*
X0027647Y0032822D01*
X0027976Y0032430D02*
X0028014Y0032430D01*
X0034135Y0047726D02*
X0125746Y0047726D01*
X0124799Y0048119D02*
X0035082Y0048119D01*
X0035827Y0048511D02*
X0124221Y0048511D01*
X0123829Y0048903D02*
X0036219Y0048903D01*
X0036611Y0049295D02*
X0123437Y0049295D01*
X0123079Y0049687D02*
X0037004Y0049687D01*
X0037200Y0050080D02*
X0122917Y0050080D01*
X0122754Y0050472D02*
X0037363Y0050472D01*
X0037525Y0050864D02*
X0122592Y0050864D01*
X0122429Y0051256D02*
X0037688Y0051256D01*
X0037808Y0051648D02*
X0122359Y0051648D01*
X0122359Y0052041D02*
X0037808Y0052041D01*
X0037808Y0052433D02*
X0122359Y0052433D01*
X0122359Y0052825D02*
X0037808Y0052825D01*
X0037808Y0053217D02*
X0122359Y0053217D01*
X0122455Y0053610D02*
X0037760Y0053610D01*
X0037597Y0054002D02*
X0122618Y0054002D01*
X0122780Y0054394D02*
X0037435Y0054394D01*
X0037272Y0054786D02*
X0122943Y0054786D01*
X0123107Y0055178D02*
X0037110Y0055178D01*
X0036785Y0055571D02*
X0123499Y0055571D01*
X0123891Y0055963D02*
X0036393Y0055963D01*
X0036001Y0056355D02*
X0124284Y0056355D01*
X0124951Y0056747D02*
X0035501Y0056747D01*
X0030263Y0058316D02*
X0012961Y0058316D01*
X0012848Y0058708D02*
X0029797Y0058708D01*
X0029405Y0059101D02*
X0012736Y0059101D01*
X0012623Y0059493D02*
X0029012Y0059493D01*
X0028702Y0059885D02*
X0012511Y0059885D01*
X0012398Y0060277D02*
X0028539Y0060277D01*
X0028377Y0060669D02*
X0012286Y0060669D01*
X0012174Y0061062D02*
X0028214Y0061062D01*
X0028052Y0061454D02*
X0012061Y0061454D01*
X0011949Y0061846D02*
X0028014Y0061846D01*
X0028014Y0062238D02*
X0011836Y0062238D01*
X0011724Y0062630D02*
X0028014Y0062630D01*
X0028014Y0063023D02*
X0011611Y0063023D01*
X0011499Y0063415D02*
X0028014Y0063415D01*
X0028144Y0063807D02*
X0011386Y0063807D01*
X0011274Y0064199D02*
X0028306Y0064199D01*
X0028469Y0064591D02*
X0011161Y0064591D01*
X0011049Y0064984D02*
X0028631Y0064984D01*
X0028842Y0065376D02*
X0010951Y0065376D01*
X0010896Y0065768D02*
X0029234Y0065768D01*
X0029626Y0066160D02*
X0010841Y0066160D01*
X0010786Y0066553D02*
X0030018Y0066553D01*
X0030798Y0066945D02*
X0010730Y0066945D01*
X0010675Y0067337D02*
X0031745Y0067337D01*
X0031680Y0067729D02*
X0010620Y0067729D01*
X0010565Y0068121D02*
X0030733Y0068121D01*
X0029992Y0068514D02*
X0010510Y0068514D01*
X0010455Y0068906D02*
X0029599Y0068906D01*
X0029207Y0069298D02*
X0010400Y0069298D01*
X0010345Y0069690D02*
X0028815Y0069690D01*
X0028620Y0070082D02*
X0010289Y0070082D01*
X0010234Y0070475D02*
X0028458Y0070475D01*
X0028295Y0070867D02*
X0010179Y0070867D01*
X0010124Y0071259D02*
X0028133Y0071259D01*
X0028014Y0071651D02*
X0010069Y0071651D01*
X0010014Y0072044D02*
X0028014Y0072044D01*
X0028014Y0072436D02*
X0009959Y0072436D01*
X0010055Y0088124D02*
X0048980Y0088124D01*
X0048588Y0088516D02*
X0010110Y0088516D01*
X0010165Y0088909D02*
X0048196Y0088909D01*
X0047804Y0089301D02*
X0010220Y0089301D01*
X0010276Y0089693D02*
X0047411Y0089693D01*
X0047019Y0090085D02*
X0010331Y0090085D01*
X0010386Y0090477D02*
X0046627Y0090477D01*
X0046235Y0090870D02*
X0010441Y0090870D01*
X0010496Y0091262D02*
X0045843Y0091262D01*
X0045450Y0091654D02*
X0010551Y0091654D01*
X0010606Y0092046D02*
X0045058Y0092046D01*
X0044666Y0092439D02*
X0010661Y0092439D01*
X0010717Y0092831D02*
X0044274Y0092831D01*
X0043881Y0093223D02*
X0010772Y0093223D01*
X0010827Y0093615D02*
X0043489Y0093615D01*
X0043097Y0094007D02*
X0010882Y0094007D01*
X0010937Y0094400D02*
X0042705Y0094400D01*
X0042313Y0094792D02*
X0011021Y0094792D01*
X0011133Y0095184D02*
X0041920Y0095184D01*
X0041528Y0095576D02*
X0011246Y0095576D01*
X0011358Y0095968D02*
X0041136Y0095968D01*
X0040744Y0096361D02*
X0011470Y0096361D01*
X0011583Y0096753D02*
X0040352Y0096753D01*
X0039959Y0097145D02*
X0011695Y0097145D01*
X0011808Y0097537D02*
X0039567Y0097537D01*
X0039175Y0097930D02*
X0011920Y0097930D01*
X0012033Y0098322D02*
X0038783Y0098322D01*
X0038390Y0098714D02*
X0012145Y0098714D01*
X0012258Y0099106D02*
X0037998Y0099106D01*
X0037606Y0099498D02*
X0012370Y0099498D01*
X0012483Y0099891D02*
X0037214Y0099891D01*
X0036822Y0100283D02*
X0034110Y0100283D01*
X0035057Y0100675D02*
X0036429Y0100675D01*
X0036037Y0101067D02*
X0035689Y0101067D01*
X0031276Y0100283D02*
X0012595Y0100283D01*
X0012708Y0100675D02*
X0030329Y0100675D01*
X0029697Y0101067D02*
X0012820Y0101067D01*
X0012933Y0101459D02*
X0029304Y0101459D01*
X0028912Y0101852D02*
X0013045Y0101852D01*
X0013157Y0102244D02*
X0028533Y0102244D01*
X0028370Y0102636D02*
X0013270Y0102636D01*
X0013382Y0103028D02*
X0028208Y0103028D01*
X0028045Y0103420D02*
X0013495Y0103420D01*
X0013607Y0103813D02*
X0027883Y0103813D01*
X0027796Y0104205D02*
X0013744Y0104205D01*
X0013918Y0104597D02*
X0027796Y0104597D01*
X0027796Y0104989D02*
X0014093Y0104989D01*
X0014268Y0105382D02*
X0027796Y0105382D01*
X0027796Y0105774D02*
X0014442Y0105774D01*
X0014617Y0106166D02*
X0027877Y0106166D01*
X0028040Y0106558D02*
X0014791Y0106558D01*
X0014966Y0106950D02*
X0028202Y0106950D01*
X0028365Y0107343D02*
X0015141Y0107343D01*
X0015315Y0107735D02*
X0028527Y0107735D01*
X0028899Y0108127D02*
X0015490Y0108127D01*
X0015665Y0108519D02*
X0029291Y0108519D01*
X0029683Y0108911D02*
X0015839Y0108911D01*
X0016014Y0109304D02*
X0030296Y0109304D01*
X0031243Y0109696D02*
X0016188Y0109696D01*
X0016363Y0110088D02*
X0050798Y0110088D01*
X0050536Y0110480D02*
X0016538Y0110480D01*
X0016712Y0110873D02*
X0050274Y0110873D01*
X0050027Y0111265D02*
X0016887Y0111265D01*
X0017062Y0111657D02*
X0049864Y0111657D01*
X0049702Y0112049D02*
X0017236Y0112049D01*
X0017411Y0112441D02*
X0049539Y0112441D01*
X0049377Y0112834D02*
X0017585Y0112834D01*
X0017793Y0113226D02*
X0049214Y0113226D01*
X0049052Y0113618D02*
X0018038Y0113618D01*
X0018283Y0114010D02*
X0048890Y0114010D01*
X0048727Y0114402D02*
X0018529Y0114402D01*
X0018774Y0114795D02*
X0048565Y0114795D01*
X0048402Y0115187D02*
X0019019Y0115187D01*
X0019264Y0115579D02*
X0048240Y0115579D01*
X0048077Y0115971D02*
X0019509Y0115971D01*
X0019754Y0116363D02*
X0047915Y0116363D01*
X0047752Y0116756D02*
X0019999Y0116756D01*
X0020244Y0117148D02*
X0047590Y0117148D01*
X0047470Y0117540D02*
X0020489Y0117540D01*
X0020734Y0117932D02*
X0047392Y0117932D01*
X0047314Y0118325D02*
X0020979Y0118325D01*
X0021224Y0118717D02*
X0047236Y0118717D01*
X0047158Y0119109D02*
X0021470Y0119109D01*
X0021715Y0119501D02*
X0047080Y0119501D01*
X0047002Y0119893D02*
X0043930Y0119893D01*
X0044877Y0120286D02*
X0046923Y0120286D01*
X0046845Y0120678D02*
X0045615Y0120678D01*
X0046007Y0121070D02*
X0046767Y0121070D01*
X0046689Y0121462D02*
X0046399Y0121462D01*
X0041455Y0119893D02*
X0033930Y0119893D01*
X0033667Y0119784D02*
X0035467Y0120530D01*
X0036844Y0121907D01*
X0037590Y0123707D01*
X0037590Y0125655D01*
X0036844Y0127455D01*
X0035467Y0128832D01*
X0033667Y0129578D01*
X0031719Y0129578D01*
X0029919Y0128832D01*
X0028542Y0127455D01*
X0027796Y0125655D01*
X0027796Y0123707D01*
X0028542Y0121907D01*
X0029919Y0120530D01*
X0031719Y0119784D01*
X0033667Y0119784D01*
X0034877Y0120286D02*
X0040508Y0120286D01*
X0039771Y0120678D02*
X0035615Y0120678D01*
X0036007Y0121070D02*
X0039379Y0121070D01*
X0038987Y0121462D02*
X0036399Y0121462D01*
X0036791Y0121854D02*
X0038594Y0121854D01*
X0038401Y0122247D02*
X0036985Y0122247D01*
X0037147Y0122639D02*
X0038238Y0122639D01*
X0038076Y0123031D02*
X0037310Y0123031D01*
X0037472Y0123423D02*
X0037914Y0123423D01*
X0037796Y0123816D02*
X0037590Y0123816D01*
X0037590Y0124208D02*
X0037796Y0124208D01*
X0037796Y0124600D02*
X0037590Y0124600D01*
X0037590Y0124992D02*
X0037796Y0124992D01*
X0037796Y0125384D02*
X0037590Y0125384D01*
X0037539Y0125777D02*
X0037846Y0125777D01*
X0038009Y0126169D02*
X0037377Y0126169D01*
X0037215Y0126561D02*
X0038171Y0126561D01*
X0038334Y0126953D02*
X0037052Y0126953D01*
X0036890Y0127345D02*
X0038496Y0127345D01*
X0038824Y0127738D02*
X0036562Y0127738D01*
X0036169Y0128130D02*
X0039216Y0128130D01*
X0039609Y0128522D02*
X0035777Y0128522D01*
X0035269Y0128914D02*
X0040117Y0128914D01*
X0041064Y0129306D02*
X0034322Y0129306D01*
X0032258Y0131660D02*
X0046443Y0131660D01*
X0046521Y0132052D02*
X0032693Y0132052D01*
X0033129Y0132444D02*
X0046599Y0132444D01*
X0046677Y0132836D02*
X0033564Y0132836D01*
X0034000Y0133229D02*
X0046755Y0133229D01*
X0046833Y0133621D02*
X0034436Y0133621D01*
X0034871Y0134013D02*
X0046911Y0134013D01*
X0046989Y0134405D02*
X0035307Y0134405D01*
X0035742Y0134797D02*
X0047067Y0134797D01*
X0047145Y0135190D02*
X0036178Y0135190D01*
X0036643Y0135582D02*
X0047223Y0135582D01*
X0047301Y0135974D02*
X0037225Y0135974D01*
X0037806Y0136366D02*
X0047379Y0136366D01*
X0047457Y0136759D02*
X0038388Y0136759D01*
X0038969Y0137151D02*
X0047564Y0137151D01*
X0047726Y0137543D02*
X0039551Y0137543D01*
X0040132Y0137935D02*
X0047888Y0137935D01*
X0048051Y0138327D02*
X0040714Y0138327D01*
X0041295Y0138720D02*
X0048213Y0138720D01*
X0048376Y0139112D02*
X0041877Y0139112D01*
X0042458Y0139504D02*
X0048538Y0139504D01*
X0048701Y0139896D02*
X0043040Y0139896D01*
X0043621Y0140288D02*
X0048863Y0140288D01*
X0049026Y0140681D02*
X0044203Y0140681D01*
X0044824Y0141073D02*
X0049188Y0141073D01*
X0049351Y0141465D02*
X0045628Y0141465D01*
X0046432Y0141857D02*
X0049513Y0141857D01*
X0049676Y0142249D02*
X0047236Y0142249D01*
X0048040Y0142642D02*
X0049838Y0142642D01*
X0050000Y0143034D02*
X0048844Y0143034D01*
X0049649Y0143426D02*
X0050232Y0143426D01*
X0050453Y0143818D02*
X0050494Y0143818D01*
X0043323Y0150094D02*
X0001197Y0150094D01*
X0001197Y0150486D02*
X0044127Y0150486D01*
X0044931Y0150878D02*
X0001197Y0150878D01*
X0001197Y0151270D02*
X0045735Y0151270D01*
X0046539Y0151663D02*
X0001197Y0151663D01*
X0001197Y0152055D02*
X0047343Y0152055D01*
X0048147Y0152447D02*
X0001197Y0152447D01*
X0001197Y0152839D02*
X0048952Y0152839D01*
X0049756Y0153231D02*
X0001197Y0153231D01*
X0001197Y0153624D02*
X0050725Y0153624D01*
X0050231Y0153463D02*
X0050231Y0153463D01*
X0060752Y0156882D01*
X0060753Y0156882D01*
X0065562Y0157730D01*
X0067849Y0158677D01*
X0001197Y0158677D01*
X0001197Y0088080D01*
X0002370Y0096424D01*
X0002370Y0096424D01*
X0005419Y0107059D01*
X0005419Y0107059D01*
X0009919Y0117166D01*
X0009919Y0117166D01*
X0015782Y0126549D01*
X0015782Y0126549D01*
X0022893Y0135024D01*
X0022893Y0135024D01*
X0031115Y0142427D01*
X0031115Y0142427D01*
X0040287Y0148613D01*
X0040287Y0148613D01*
X0050231Y0153463D01*
X0051932Y0154016D02*
X0001197Y0154016D01*
X0001197Y0154408D02*
X0053139Y0154408D01*
X0054346Y0154800D02*
X0001197Y0154800D01*
X0001197Y0155192D02*
X0055553Y0155192D01*
X0056760Y0155585D02*
X0001197Y0155585D01*
X0001197Y0155977D02*
X0057968Y0155977D01*
X0059175Y0156369D02*
X0001197Y0156369D01*
X0001197Y0156761D02*
X0060382Y0156761D01*
X0062294Y0157154D02*
X0001197Y0157154D01*
X0001197Y0157546D02*
X0064518Y0157546D01*
X0066065Y0157938D02*
X0001197Y0157938D01*
X0001197Y0158330D02*
X0067011Y0158330D01*
X0042518Y0149702D02*
X0001197Y0149702D01*
X0001197Y0149309D02*
X0041714Y0149309D01*
X0040910Y0148917D02*
X0001197Y0148917D01*
X0001197Y0148525D02*
X0040156Y0148525D01*
X0039575Y0148133D02*
X0001197Y0148133D01*
X0001197Y0147740D02*
X0038993Y0147740D01*
X0038412Y0147348D02*
X0001197Y0147348D01*
X0001197Y0146956D02*
X0037830Y0146956D01*
X0037249Y0146564D02*
X0001197Y0146564D01*
X0001197Y0146172D02*
X0036667Y0146172D01*
X0036086Y0145779D02*
X0001197Y0145779D01*
X0001197Y0145387D02*
X0035504Y0145387D01*
X0034923Y0144995D02*
X0001197Y0144995D01*
X0001197Y0144603D02*
X0034341Y0144603D01*
X0033760Y0144211D02*
X0001197Y0144211D01*
X0001197Y0143818D02*
X0033178Y0143818D01*
X0032597Y0143426D02*
X0001197Y0143426D01*
X0001197Y0143034D02*
X0032015Y0143034D01*
X0031434Y0142642D02*
X0001197Y0142642D01*
X0001197Y0142249D02*
X0030918Y0142249D01*
X0030483Y0141857D02*
X0001197Y0141857D01*
X0001197Y0141465D02*
X0030047Y0141465D01*
X0029611Y0141073D02*
X0001197Y0141073D01*
X0001197Y0140681D02*
X0029176Y0140681D01*
X0028740Y0140288D02*
X0001197Y0140288D01*
X0001197Y0139896D02*
X0028305Y0139896D01*
X0027869Y0139504D02*
X0001197Y0139504D01*
X0001197Y0139112D02*
X0027433Y0139112D01*
X0026998Y0138720D02*
X0001197Y0138720D01*
X0001197Y0138327D02*
X0026562Y0138327D01*
X0026127Y0137935D02*
X0001197Y0137935D01*
X0001197Y0137543D02*
X0025691Y0137543D01*
X0025255Y0137151D02*
X0001197Y0137151D01*
X0001197Y0136759D02*
X0024820Y0136759D01*
X0024384Y0136366D02*
X0001197Y0136366D01*
X0001197Y0135974D02*
X0023949Y0135974D01*
X0023513Y0135582D02*
X0001197Y0135582D01*
X0001197Y0135190D02*
X0023077Y0135190D01*
X0022703Y0134797D02*
X0001197Y0134797D01*
X0001197Y0134405D02*
X0022374Y0134405D01*
X0022045Y0134013D02*
X0001197Y0134013D01*
X0001197Y0133621D02*
X0021716Y0133621D01*
X0021387Y0133229D02*
X0001197Y0133229D01*
X0001197Y0132836D02*
X0021058Y0132836D01*
X0020729Y0132444D02*
X0001197Y0132444D01*
X0001197Y0132052D02*
X0020400Y0132052D01*
X0020070Y0131660D02*
X0001197Y0131660D01*
X0001197Y0131268D02*
X0019741Y0131268D01*
X0019412Y0130875D02*
X0001197Y0130875D01*
X0001197Y0130483D02*
X0019083Y0130483D01*
X0018754Y0130091D02*
X0001197Y0130091D01*
X0001197Y0129699D02*
X0018425Y0129699D01*
X0018096Y0129306D02*
X0001197Y0129306D01*
X0001197Y0128914D02*
X0017767Y0128914D01*
X0017438Y0128522D02*
X0001197Y0128522D01*
X0001197Y0128130D02*
X0017108Y0128130D01*
X0016779Y0127738D02*
X0001197Y0127738D01*
X0001197Y0127345D02*
X0016450Y0127345D01*
X0016121Y0126953D02*
X0001197Y0126953D01*
X0001197Y0126561D02*
X0015792Y0126561D01*
X0015544Y0126169D02*
X0001197Y0126169D01*
X0001197Y0125777D02*
X0015299Y0125777D01*
X0015054Y0125384D02*
X0001197Y0125384D01*
X0001197Y0124992D02*
X0014809Y0124992D01*
X0014564Y0124600D02*
X0001197Y0124600D01*
X0001197Y0124208D02*
X0014319Y0124208D01*
X0014074Y0123816D02*
X0001197Y0123816D01*
X0001197Y0123423D02*
X0013829Y0123423D01*
X0013584Y0123031D02*
X0001197Y0123031D01*
X0001197Y0122639D02*
X0013339Y0122639D01*
X0013094Y0122247D02*
X0001197Y0122247D01*
X0001197Y0121854D02*
X0012848Y0121854D01*
X0012603Y0121462D02*
X0001197Y0121462D01*
X0001197Y0121070D02*
X0012358Y0121070D01*
X0012113Y0120678D02*
X0001197Y0120678D01*
X0001197Y0120286D02*
X0011868Y0120286D01*
X0011623Y0119893D02*
X0001197Y0119893D01*
X0001197Y0119501D02*
X0011378Y0119501D01*
X0011133Y0119109D02*
X0001197Y0119109D01*
X0001197Y0118717D02*
X0010888Y0118717D01*
X0010643Y0118325D02*
X0001197Y0118325D01*
X0001197Y0117932D02*
X0010398Y0117932D01*
X0010153Y0117540D02*
X0001197Y0117540D01*
X0001197Y0117148D02*
X0009911Y0117148D01*
X0009736Y0116756D02*
X0001197Y0116756D01*
X0001197Y0116363D02*
X0009562Y0116363D01*
X0009387Y0115971D02*
X0001197Y0115971D01*
X0001197Y0115579D02*
X0009212Y0115579D01*
X0009038Y0115187D02*
X0001197Y0115187D01*
X0001197Y0114795D02*
X0008863Y0114795D01*
X0008688Y0114402D02*
X0001197Y0114402D01*
X0001197Y0114010D02*
X0008514Y0114010D01*
X0008339Y0113618D02*
X0001197Y0113618D01*
X0001197Y0113226D02*
X0008165Y0113226D01*
X0007990Y0112834D02*
X0001197Y0112834D01*
X0001197Y0112441D02*
X0007815Y0112441D01*
X0007641Y0112049D02*
X0001197Y0112049D01*
X0001197Y0111657D02*
X0007466Y0111657D01*
X0007291Y0111265D02*
X0001197Y0111265D01*
X0001197Y0110873D02*
X0007117Y0110873D01*
X0006942Y0110480D02*
X0001197Y0110480D01*
X0001197Y0110088D02*
X0006768Y0110088D01*
X0006593Y0109696D02*
X0001197Y0109696D01*
X0001197Y0109304D02*
X0006418Y0109304D01*
X0006244Y0108911D02*
X0001197Y0108911D01*
X0001197Y0108519D02*
X0006069Y0108519D01*
X0005894Y0108127D02*
X0001197Y0108127D01*
X0001197Y0107735D02*
X0005720Y0107735D01*
X0005545Y0107343D02*
X0001197Y0107343D01*
X0001197Y0106950D02*
X0005388Y0106950D01*
X0005275Y0106558D02*
X0001197Y0106558D01*
X0001197Y0106166D02*
X0005163Y0106166D01*
X0005050Y0105774D02*
X0001197Y0105774D01*
X0001197Y0105382D02*
X0004938Y0105382D01*
X0004825Y0104989D02*
X0001197Y0104989D01*
X0001197Y0104597D02*
X0004713Y0104597D01*
X0004601Y0104205D02*
X0001197Y0104205D01*
X0001197Y0103813D02*
X0004488Y0103813D01*
X0004376Y0103420D02*
X0001197Y0103420D01*
X0001197Y0103028D02*
X0004263Y0103028D01*
X0004151Y0102636D02*
X0001197Y0102636D01*
X0001197Y0102244D02*
X0004038Y0102244D01*
X0003926Y0101852D02*
X0001197Y0101852D01*
X0001197Y0101459D02*
X0003813Y0101459D01*
X0003701Y0101067D02*
X0001197Y0101067D01*
X0001197Y0100675D02*
X0003588Y0100675D01*
X0003476Y0100283D02*
X0001197Y0100283D01*
X0001197Y0099891D02*
X0003363Y0099891D01*
X0003251Y0099498D02*
X0001197Y0099498D01*
X0001197Y0099106D02*
X0003138Y0099106D01*
X0003026Y0098714D02*
X0001197Y0098714D01*
X0001197Y0098322D02*
X0002914Y0098322D01*
X0002801Y0097930D02*
X0001197Y0097930D01*
X0001197Y0097537D02*
X0002689Y0097537D01*
X0002576Y0097145D02*
X0001197Y0097145D01*
X0001197Y0096753D02*
X0002464Y0096753D01*
X0002361Y0096361D02*
X0001197Y0096361D01*
X0001197Y0095968D02*
X0002305Y0095968D01*
X0002250Y0095576D02*
X0001197Y0095576D01*
X0001197Y0095184D02*
X0002195Y0095184D01*
X0002140Y0094792D02*
X0001197Y0094792D01*
X0001197Y0094400D02*
X0002085Y0094400D01*
X0002030Y0094007D02*
X0001197Y0094007D01*
X0001197Y0093615D02*
X0001975Y0093615D01*
X0001920Y0093223D02*
X0001197Y0093223D01*
X0001197Y0092831D02*
X0001864Y0092831D01*
X0001809Y0092439D02*
X0001197Y0092439D01*
X0001197Y0092046D02*
X0001754Y0092046D01*
X0001699Y0091654D02*
X0001197Y0091654D01*
X0001197Y0091262D02*
X0001644Y0091262D01*
X0001589Y0090870D02*
X0001197Y0090870D01*
X0001197Y0090477D02*
X0001534Y0090477D01*
X0001479Y0090085D02*
X0001197Y0090085D01*
X0001197Y0089693D02*
X0001424Y0089693D01*
X0001368Y0089301D02*
X0001197Y0089301D01*
X0001197Y0088909D02*
X0001313Y0088909D01*
X0001258Y0088516D02*
X0001197Y0088516D01*
X0001197Y0088124D02*
X0001203Y0088124D01*
X0021960Y0119893D02*
X0031455Y0119893D01*
X0030508Y0120286D02*
X0022205Y0120286D01*
X0022450Y0120678D02*
X0029771Y0120678D01*
X0029379Y0121070D02*
X0022695Y0121070D01*
X0022957Y0121462D02*
X0028987Y0121462D01*
X0028594Y0121854D02*
X0023286Y0121854D01*
X0023615Y0122247D02*
X0028401Y0122247D01*
X0028238Y0122639D02*
X0023944Y0122639D01*
X0024273Y0123031D02*
X0028076Y0123031D01*
X0027914Y0123423D02*
X0024602Y0123423D01*
X0024932Y0123816D02*
X0027796Y0123816D01*
X0027796Y0124208D02*
X0025261Y0124208D01*
X0025590Y0124600D02*
X0027796Y0124600D01*
X0027796Y0124992D02*
X0025919Y0124992D01*
X0026248Y0125384D02*
X0027796Y0125384D01*
X0027846Y0125777D02*
X0026577Y0125777D01*
X0026906Y0126169D02*
X0028009Y0126169D01*
X0028171Y0126561D02*
X0027235Y0126561D01*
X0027564Y0126953D02*
X0028334Y0126953D01*
X0028496Y0127345D02*
X0027893Y0127345D01*
X0028223Y0127738D02*
X0028824Y0127738D01*
X0028552Y0128130D02*
X0029216Y0128130D01*
X0028881Y0128522D02*
X0029609Y0128522D01*
X0029210Y0128914D02*
X0030117Y0128914D01*
X0029644Y0129306D02*
X0031064Y0129306D01*
X0030515Y0130091D02*
X0046213Y0130091D01*
X0046213Y0130483D02*
X0030951Y0130483D01*
X0031386Y0130875D02*
X0046287Y0130875D01*
X0046365Y0131268D02*
X0031822Y0131268D01*
X0030080Y0129699D02*
X0046213Y0129699D01*
X0046213Y0129306D02*
X0044322Y0129306D01*
X0045269Y0128914D02*
X0046213Y0128914D01*
X0046213Y0128522D02*
X0045777Y0128522D01*
X0046169Y0128130D02*
X0046213Y0128130D01*
X0044143Y0109696D02*
X0051060Y0109696D01*
X0051322Y0109304D02*
X0045089Y0109304D01*
X0045703Y0108911D02*
X0051584Y0108911D01*
X0051846Y0108519D02*
X0046095Y0108519D01*
X0046487Y0108127D02*
X0052109Y0108127D01*
X0052371Y0107735D02*
X0046859Y0107735D01*
X0047021Y0107343D02*
X0052633Y0107343D01*
X0052895Y0106950D02*
X0047184Y0106950D01*
X0047346Y0106558D02*
X0053157Y0106558D01*
X0053419Y0106166D02*
X0047509Y0106166D01*
X0047590Y0105774D02*
X0053681Y0105774D01*
X0054043Y0105382D02*
X0047590Y0105382D01*
X0047590Y0104989D02*
X0054435Y0104989D01*
X0054827Y0104597D02*
X0047590Y0104597D01*
X0047590Y0104205D02*
X0055220Y0104205D01*
X0055612Y0103813D02*
X0047503Y0103813D01*
X0047341Y0103420D02*
X0056004Y0103420D01*
X0056396Y0103028D02*
X0047178Y0103028D01*
X0047016Y0102636D02*
X0056789Y0102636D01*
X0057181Y0102244D02*
X0046853Y0102244D01*
X0046474Y0101852D02*
X0057573Y0101852D01*
X0057965Y0101459D02*
X0046081Y0101459D01*
X0045689Y0101067D02*
X0058357Y0101067D01*
X0058904Y0100675D02*
X0045057Y0100675D01*
X0044110Y0100283D02*
X0059491Y0100283D01*
X0060078Y0099891D02*
X0043383Y0099891D01*
X0043775Y0099498D02*
X0060665Y0099498D01*
X0061252Y0099106D02*
X0044167Y0099106D01*
X0044560Y0098714D02*
X0061839Y0098714D01*
X0062426Y0098322D02*
X0044952Y0098322D01*
X0045344Y0097930D02*
X0063013Y0097930D01*
X0063600Y0097537D02*
X0045736Y0097537D01*
X0046128Y0097145D02*
X0064324Y0097145D01*
X0065271Y0096753D02*
X0046521Y0096753D01*
X0046913Y0096361D02*
X0066218Y0096361D01*
X0067165Y0095968D02*
X0047305Y0095968D01*
X0047697Y0095576D02*
X0068112Y0095576D01*
X0069059Y0095184D02*
X0048089Y0095184D01*
X0048482Y0094792D02*
X0070005Y0094792D01*
X0071875Y0094400D02*
X0048874Y0094400D01*
X0049266Y0094007D02*
X0073847Y0094007D01*
X0075819Y0093615D02*
X0049658Y0093615D01*
X0037796Y0105774D02*
X0037590Y0105774D01*
X0037509Y0106166D02*
X0037877Y0106166D01*
X0038040Y0106558D02*
X0037346Y0106558D01*
X0037184Y0106950D02*
X0038202Y0106950D01*
X0038365Y0107343D02*
X0037021Y0107343D01*
X0036859Y0107735D02*
X0038527Y0107735D01*
X0038899Y0108127D02*
X0036487Y0108127D01*
X0036095Y0108519D02*
X0039291Y0108519D01*
X0039683Y0108911D02*
X0035703Y0108911D01*
X0035089Y0109304D02*
X0040296Y0109304D01*
X0041243Y0109696D02*
X0034143Y0109696D01*
X0061006Y0067337D02*
X0069767Y0067337D01*
X0070160Y0066945D02*
X0061953Y0066945D01*
X0062409Y0066553D02*
X0070552Y0066553D01*
X0070944Y0066160D02*
X0062802Y0066160D01*
X0063058Y0065768D02*
X0071336Y0065768D01*
X0071729Y0065376D02*
X0063221Y0065376D01*
X0063383Y0064984D02*
X0072121Y0064984D01*
X0072513Y0064591D02*
X0063449Y0064591D01*
X0063449Y0064199D02*
X0072905Y0064199D01*
X0063449Y0063807D02*
X0122537Y0063807D01*
X0122375Y0063415D02*
X0063392Y0063415D01*
X0063229Y0063023D02*
X0122359Y0063023D01*
X0122359Y0062630D02*
X0063067Y0062630D01*
X0062822Y0062238D02*
X0122359Y0062238D01*
X0122359Y0061846D02*
X0062430Y0061846D01*
X0062002Y0061454D02*
X0122359Y0061454D01*
X0122510Y0061062D02*
X0061056Y0061062D01*
X0076246Y0009682D02*
X0084442Y0009682D01*
D12*
X0032911Y0062520D02*
X0034661Y0064189D01*
X0060252Y0064189D01*
D13*
X0060252Y0064189D03*
D14*
X0074031Y0066157D02*
X0119307Y0066157D01*
X0119307Y0104996D01*
X0119307Y0066157D02*
X0125213Y0066157D01*
X0127255Y0062402D01*
X0074031Y0066157D02*
X0036630Y0103559D01*
X0032693Y0103559D01*
X0032693Y0104996D01*
M02*
