%
M48
M72
T01C0.02400
T02C0.04000
T03C0.59055
%
T01
X60252Y64189
T02
X32911Y32520
X32911Y42520
X32911Y52520
X32911Y62520
X32911Y72520
X32911Y82520
X32693Y104996
X42693Y104996
X42693Y124681
X32693Y124681
X119622Y124425
X129622Y124425
X129307Y104996
X119307Y104996
X127255Y72402
X127255Y62402
X127255Y52402
X127255Y42402
X127255Y32402
T03
X79937Y127181
M30
