G75*
%MOIN*%
%OFA0B0*%
%FSLAX25Y25*%
%IPPOS*%
%LPD*%
%AMOC8*
5,1,8,0,0,1.08239X$1,22.5*
%
%ADD10C,0.59855*%
%ADD11C,0.08200*%
%ADD12R,0.03950X0.05524*%
%ADD13R,0.07808X0.03635*%
%ADD14R,0.05524X0.03950*%
%ADD15R,0.04068X0.03280*%
%ADD16R,0.04698X0.03517*%
%ADD17C,0.04800*%
D10*
X0079937Y0127181D03*
D11*
X0032911Y0032520D03*
X0032911Y0042520D03*
X0032911Y0052520D03*
X0032911Y0062520D03*
X0032911Y0072520D03*
X0032911Y0082520D03*
X0032693Y0104996D03*
X0042693Y0104996D03*
X0042693Y0124681D03*
X0032693Y0124681D03*
X0119622Y0124425D03*
X0129622Y0124425D03*
X0129307Y0104996D03*
X0119307Y0104996D03*
X0127255Y0072402D03*
X0127255Y0062402D03*
X0127255Y0052402D03*
X0127255Y0042402D03*
X0127255Y0032402D03*
D12*
X0103165Y0025882D03*
X0096079Y0025882D03*
X0055921Y0057378D03*
X0048835Y0057378D03*
D13*
X0065987Y0036256D03*
X0065987Y0031256D03*
X0065987Y0026256D03*
X0065987Y0021256D03*
X0086013Y0021256D03*
X0086013Y0026256D03*
X0086013Y0031256D03*
X0086013Y0036256D03*
D14*
X0104622Y0035961D03*
X0104622Y0043047D03*
D15*
X0056315Y0045094D03*
X0056315Y0036039D03*
D16*
X0070882Y0056512D03*
X0070882Y0063992D03*
X0081079Y0063992D03*
X0081079Y0060252D03*
X0081079Y0056512D03*
D17*
X0060252Y0064189D03*
M02*
