G75*
%MOIN*%
%OFA0B0*%
%FSLAX25Y25*%
%IPPOS*%
%LPD*%
%AMOC8*
5,1,8,0,0,1.08239X$1,22.5*
%
%ADD10C,0.00000*%
%ADD11C,0.00100*%
%ADD12C,0.00600*%
%ADD13C,0.00500*%
%ADD14C,0.00300*%
%ADD15R,0.11811X0.11811*%
%ADD16C,0.00400*%
D10*
X0001800Y0003755D02*
X0001800Y0121761D01*
X0119757Y0121761D01*
X0119757Y0004103D01*
X0001800Y0003755D01*
D11*
X0064154Y0105750D02*
X0064654Y0105750D01*
X0064904Y0106000D01*
X0065377Y0106501D02*
X0066378Y0106501D01*
X0066127Y0107251D02*
X0065377Y0106501D01*
X0064904Y0107001D02*
X0064654Y0107251D01*
X0064154Y0107251D01*
X0063903Y0107001D01*
X0063903Y0106000D01*
X0064154Y0105750D01*
X0066127Y0105750D02*
X0066127Y0107251D01*
X0083153Y0108250D02*
X0083153Y0109751D01*
X0083904Y0109751D01*
X0084154Y0109501D01*
X0084154Y0109001D01*
X0083904Y0108750D01*
X0083153Y0108750D01*
X0083654Y0108750D02*
X0084154Y0108250D01*
X0084627Y0108500D02*
X0084877Y0108250D01*
X0085377Y0108250D01*
X0085628Y0108500D01*
X0085628Y0109001D01*
X0085377Y0109251D01*
X0085127Y0109251D01*
X0084627Y0109001D01*
X0084627Y0109751D01*
X0085628Y0109751D01*
X0106999Y0109601D02*
X0107249Y0109851D01*
X0107749Y0109851D01*
X0108000Y0109601D01*
X0108000Y0108850D01*
X0108500Y0108850D02*
X0106999Y0108850D01*
X0106999Y0109601D01*
X0108000Y0109350D02*
X0108500Y0109851D01*
X0108250Y0110323D02*
X0108500Y0110573D01*
X0108500Y0111074D01*
X0108250Y0111324D01*
X0108000Y0111324D01*
X0107749Y0111074D01*
X0107749Y0110323D01*
X0108250Y0110323D01*
X0107749Y0110323D02*
X0107249Y0110824D01*
X0106999Y0111324D01*
X0028500Y0111324D02*
X0028500Y0110323D01*
X0028500Y0109851D02*
X0028000Y0109350D01*
X0028000Y0109601D02*
X0028000Y0108850D01*
X0028500Y0108850D02*
X0026999Y0108850D01*
X0026999Y0109601D01*
X0027249Y0109851D01*
X0027749Y0109851D01*
X0028000Y0109601D01*
X0027499Y0110323D02*
X0026999Y0110824D01*
X0028500Y0110824D01*
X0026600Y0111903D02*
X0025099Y0111903D01*
X0025099Y0112654D01*
X0025349Y0112904D01*
X0025849Y0112904D01*
X0026100Y0112654D01*
X0026100Y0111903D01*
X0026100Y0112404D02*
X0026600Y0112904D01*
X0026350Y0113377D02*
X0026100Y0113377D01*
X0025849Y0113627D01*
X0025849Y0114127D01*
X0026100Y0114378D01*
X0026350Y0114378D01*
X0026600Y0114127D01*
X0026600Y0113627D01*
X0026350Y0113377D01*
X0025849Y0113627D02*
X0025599Y0113377D01*
X0025349Y0113377D01*
X0025099Y0113627D01*
X0025099Y0114127D01*
X0025349Y0114378D01*
X0025599Y0114378D01*
X0025849Y0114127D01*
X0016600Y0113377D02*
X0016350Y0113377D01*
X0015349Y0114378D01*
X0015099Y0114378D01*
X0015099Y0113377D01*
X0015349Y0112904D02*
X0015849Y0112904D01*
X0016100Y0112654D01*
X0016100Y0111903D01*
X0016600Y0111903D02*
X0015099Y0111903D01*
X0015099Y0112654D01*
X0015349Y0112904D01*
X0016100Y0112404D02*
X0016600Y0112904D01*
D12*
X0014162Y0112981D02*
X0014162Y0110619D01*
X0009438Y0110619D02*
X0009438Y0112981D01*
X0019438Y0112981D02*
X0019438Y0110619D01*
X0024162Y0110619D02*
X0024162Y0112981D01*
X0029438Y0112981D02*
X0029438Y0110619D01*
X0034162Y0110619D02*
X0034162Y0112981D01*
X0081869Y0110688D02*
X0084231Y0110688D01*
X0084231Y0115412D02*
X0081869Y0115412D01*
X0109438Y0112981D02*
X0109438Y0110619D01*
X0114162Y0110619D02*
X0114162Y0112981D01*
D13*
X0093690Y0095619D02*
X0085816Y0095619D01*
X0085816Y0087745D01*
X0093690Y0087745D01*
X0093690Y0095619D01*
X0089359Y0091682D02*
X0089361Y0091721D01*
X0089367Y0091760D01*
X0089377Y0091798D01*
X0089390Y0091835D01*
X0089407Y0091870D01*
X0089427Y0091904D01*
X0089451Y0091935D01*
X0089478Y0091964D01*
X0089507Y0091990D01*
X0089539Y0092013D01*
X0089573Y0092033D01*
X0089609Y0092049D01*
X0089646Y0092061D01*
X0089685Y0092070D01*
X0089724Y0092075D01*
X0089763Y0092076D01*
X0089802Y0092073D01*
X0089841Y0092066D01*
X0089878Y0092055D01*
X0089915Y0092041D01*
X0089950Y0092023D01*
X0089983Y0092002D01*
X0090014Y0091977D01*
X0090042Y0091950D01*
X0090067Y0091920D01*
X0090089Y0091887D01*
X0090108Y0091853D01*
X0090123Y0091817D01*
X0090135Y0091779D01*
X0090143Y0091741D01*
X0090147Y0091702D01*
X0090147Y0091662D01*
X0090143Y0091623D01*
X0090135Y0091585D01*
X0090123Y0091547D01*
X0090108Y0091511D01*
X0090089Y0091477D01*
X0090067Y0091444D01*
X0090042Y0091414D01*
X0090014Y0091387D01*
X0089983Y0091362D01*
X0089950Y0091341D01*
X0089915Y0091323D01*
X0089878Y0091309D01*
X0089841Y0091298D01*
X0089802Y0091291D01*
X0089763Y0091288D01*
X0089724Y0091289D01*
X0089685Y0091294D01*
X0089646Y0091303D01*
X0089609Y0091315D01*
X0089573Y0091331D01*
X0089539Y0091351D01*
X0089507Y0091374D01*
X0089478Y0091400D01*
X0089451Y0091429D01*
X0089427Y0091460D01*
X0089407Y0091494D01*
X0089390Y0091529D01*
X0089377Y0091566D01*
X0089367Y0091604D01*
X0089361Y0091643D01*
X0089359Y0091682D01*
X0086579Y0091682D02*
X0086581Y0091794D01*
X0086587Y0091906D01*
X0086597Y0092017D01*
X0086611Y0092129D01*
X0086628Y0092239D01*
X0086650Y0092349D01*
X0086675Y0092458D01*
X0086705Y0092566D01*
X0086738Y0092673D01*
X0086775Y0092779D01*
X0086815Y0092884D01*
X0086860Y0092987D01*
X0086907Y0093088D01*
X0086959Y0093187D01*
X0087014Y0093285D01*
X0087072Y0093381D01*
X0087134Y0093474D01*
X0087198Y0093566D01*
X0087266Y0093655D01*
X0087338Y0093741D01*
X0087412Y0093825D01*
X0087489Y0093906D01*
X0087569Y0093985D01*
X0087651Y0094061D01*
X0087737Y0094133D01*
X0087824Y0094203D01*
X0087915Y0094269D01*
X0088007Y0094333D01*
X0088102Y0094393D01*
X0088198Y0094449D01*
X0088297Y0094502D01*
X0088398Y0094552D01*
X0088500Y0094598D01*
X0088603Y0094640D01*
X0088708Y0094679D01*
X0088815Y0094714D01*
X0088922Y0094745D01*
X0089031Y0094773D01*
X0089141Y0094796D01*
X0089251Y0094816D01*
X0089362Y0094832D01*
X0089473Y0094844D01*
X0089585Y0094852D01*
X0089697Y0094856D01*
X0089809Y0094856D01*
X0089921Y0094852D01*
X0090033Y0094844D01*
X0090144Y0094832D01*
X0090255Y0094816D01*
X0090365Y0094796D01*
X0090475Y0094773D01*
X0090584Y0094745D01*
X0090691Y0094714D01*
X0090798Y0094679D01*
X0090903Y0094640D01*
X0091006Y0094598D01*
X0091108Y0094552D01*
X0091209Y0094502D01*
X0091308Y0094449D01*
X0091404Y0094393D01*
X0091499Y0094333D01*
X0091591Y0094269D01*
X0091682Y0094203D01*
X0091769Y0094133D01*
X0091855Y0094061D01*
X0091937Y0093985D01*
X0092017Y0093906D01*
X0092094Y0093825D01*
X0092168Y0093741D01*
X0092240Y0093655D01*
X0092308Y0093566D01*
X0092372Y0093474D01*
X0092434Y0093381D01*
X0092492Y0093285D01*
X0092547Y0093187D01*
X0092599Y0093088D01*
X0092646Y0092987D01*
X0092691Y0092884D01*
X0092731Y0092779D01*
X0092768Y0092673D01*
X0092801Y0092566D01*
X0092831Y0092458D01*
X0092856Y0092349D01*
X0092878Y0092239D01*
X0092895Y0092129D01*
X0092909Y0092017D01*
X0092919Y0091906D01*
X0092925Y0091794D01*
X0092927Y0091682D01*
X0092925Y0091570D01*
X0092919Y0091458D01*
X0092909Y0091347D01*
X0092895Y0091235D01*
X0092878Y0091125D01*
X0092856Y0091015D01*
X0092831Y0090906D01*
X0092801Y0090798D01*
X0092768Y0090691D01*
X0092731Y0090585D01*
X0092691Y0090480D01*
X0092646Y0090377D01*
X0092599Y0090276D01*
X0092547Y0090177D01*
X0092492Y0090079D01*
X0092434Y0089983D01*
X0092372Y0089890D01*
X0092308Y0089798D01*
X0092240Y0089709D01*
X0092168Y0089623D01*
X0092094Y0089539D01*
X0092017Y0089458D01*
X0091937Y0089379D01*
X0091855Y0089303D01*
X0091769Y0089231D01*
X0091682Y0089161D01*
X0091591Y0089095D01*
X0091499Y0089031D01*
X0091404Y0088971D01*
X0091308Y0088915D01*
X0091209Y0088862D01*
X0091108Y0088812D01*
X0091006Y0088766D01*
X0090903Y0088724D01*
X0090798Y0088685D01*
X0090691Y0088650D01*
X0090584Y0088619D01*
X0090475Y0088591D01*
X0090365Y0088568D01*
X0090255Y0088548D01*
X0090144Y0088532D01*
X0090033Y0088520D01*
X0089921Y0088512D01*
X0089809Y0088508D01*
X0089697Y0088508D01*
X0089585Y0088512D01*
X0089473Y0088520D01*
X0089362Y0088532D01*
X0089251Y0088548D01*
X0089141Y0088568D01*
X0089031Y0088591D01*
X0088922Y0088619D01*
X0088815Y0088650D01*
X0088708Y0088685D01*
X0088603Y0088724D01*
X0088500Y0088766D01*
X0088398Y0088812D01*
X0088297Y0088862D01*
X0088198Y0088915D01*
X0088102Y0088971D01*
X0088007Y0089031D01*
X0087915Y0089095D01*
X0087824Y0089161D01*
X0087737Y0089231D01*
X0087651Y0089303D01*
X0087569Y0089379D01*
X0087489Y0089458D01*
X0087412Y0089539D01*
X0087338Y0089623D01*
X0087266Y0089709D01*
X0087198Y0089798D01*
X0087134Y0089890D01*
X0087072Y0089983D01*
X0087014Y0090079D01*
X0086959Y0090177D01*
X0086907Y0090276D01*
X0086860Y0090377D01*
X0086815Y0090480D01*
X0086775Y0090585D01*
X0086738Y0090691D01*
X0086705Y0090798D01*
X0086675Y0090906D01*
X0086650Y0091015D01*
X0086628Y0091125D01*
X0086611Y0091235D01*
X0086597Y0091347D01*
X0086587Y0091458D01*
X0086581Y0091570D01*
X0086579Y0091682D01*
X0085816Y0095619D02*
X0030698Y0095619D01*
X0030698Y0071997D01*
X0030698Y0009005D01*
X0093690Y0009005D01*
X0093690Y0071997D01*
X0093690Y0087745D01*
D14*
X0067874Y0084905D02*
X0067874Y0084288D01*
X0065405Y0081819D01*
X0065405Y0081202D01*
X0064191Y0081819D02*
X0063574Y0081202D01*
X0062339Y0081202D01*
X0061722Y0081819D01*
X0064191Y0084288D01*
X0064191Y0081819D01*
X0064191Y0084288D02*
X0063574Y0084905D01*
X0062339Y0084905D01*
X0061722Y0084288D01*
X0061722Y0081819D01*
X0060508Y0083054D02*
X0058039Y0083054D01*
X0056824Y0083054D02*
X0056207Y0082436D01*
X0054356Y0082436D01*
X0053141Y0082436D02*
X0052524Y0083054D01*
X0051290Y0083054D01*
X0050673Y0083671D01*
X0050673Y0084288D01*
X0051290Y0084905D01*
X0052524Y0084905D01*
X0053141Y0084288D01*
X0054356Y0084905D02*
X0056207Y0084905D01*
X0056824Y0084288D01*
X0056824Y0083054D01*
X0054356Y0081202D02*
X0054356Y0084905D01*
X0053141Y0082436D02*
X0053141Y0081819D01*
X0052524Y0081202D01*
X0051290Y0081202D01*
X0050673Y0081819D01*
X0049458Y0081202D02*
X0046989Y0081202D01*
X0046989Y0084905D01*
X0049458Y0084905D01*
X0048224Y0083054D02*
X0046989Y0083054D01*
X0065405Y0084905D02*
X0067874Y0084905D01*
D15*
X0075580Y0084202D03*
X0040146Y0084202D03*
D16*
X0036642Y0097414D02*
X0036642Y0103552D01*
X0035875Y0102785D02*
X0037410Y0102785D01*
X0038177Y0102018D01*
X0037410Y0100483D02*
X0035875Y0100483D01*
X0035108Y0101250D01*
X0035108Y0102018D01*
X0035875Y0102785D01*
X0033573Y0102785D02*
X0033573Y0098948D01*
X0032806Y0098181D01*
X0031271Y0098181D01*
X0030504Y0098948D01*
X0030504Y0102785D01*
X0035108Y0098948D02*
X0035875Y0098181D01*
X0037410Y0098181D01*
X0038177Y0098948D01*
X0038177Y0099716D01*
X0037410Y0100483D01*
X0039712Y0101250D02*
X0041246Y0102785D01*
X0041246Y0098181D01*
X0039712Y0098181D02*
X0042781Y0098181D01*
M02*
