%
M48
M72
T01C0.02000
T02C0.04000
%
T01
X16800Y109300
X56800Y99300
X36800Y64300
X36800Y100550
X86800Y46800
X86800Y54300
X86800Y29300
X99300Y114300
T02
X16800Y56800
X16800Y86800
X16800Y66800
X16800Y76800
X106800Y56800
X16800Y46800
X16800Y36800
X16800Y26800
X16800Y16800
X106800Y46800
X106800Y36800
X106800Y66800
X106800Y76800
X106800Y86800
X106800Y26800
X106800Y16800
M30
