G75*
%MOIN*%
%OFA0B0*%
%FSLAX25Y25*%
%IPPOS*%
%LPD*%
%AMOC8*
5,1,8,0,0,1.08239X$1,22.5*
%
%ADD10R,0.03150X0.03543*%
%ADD11R,0.03150X0.04724*%
%ADD12C,0.07400*%
%ADD13C,0.08661*%
%ADD14C,0.06693*%
%ADD15R,0.03937X0.04567*%
%ADD16R,0.07874X0.05118*%
%ADD17R,0.22047X0.11181*%
%ADD18C,0.02000*%
%ADD19C,0.01181*%
%ADD20C,0.04000*%
%ADD21C,0.01969*%
%ADD22C,0.01600*%
%ADD23C,0.03962*%
D10*
X0031380Y0031916D03*
X0038860Y0031916D03*
X0035120Y0040184D03*
X0031961Y0051203D03*
X0039441Y0051203D03*
X0035701Y0059470D03*
X0097640Y0051124D03*
X0105120Y0051124D03*
X0101380Y0059392D03*
X0101439Y0040337D03*
X0105179Y0032069D03*
X0097699Y0032069D03*
D11*
X0115581Y0067212D03*
X0122668Y0067212D03*
X0123014Y0078662D03*
X0115927Y0078662D03*
X0116054Y0087746D03*
X0123140Y0087746D03*
X0101608Y0089103D03*
X0094521Y0089103D03*
X0094126Y0100543D03*
X0101213Y0100543D03*
X0101744Y0113280D03*
X0094657Y0113280D03*
X0069500Y0109870D03*
X0062413Y0109870D03*
X0062413Y0099898D03*
X0069500Y0099898D03*
X0069283Y0121147D03*
X0062197Y0121147D03*
X0041626Y0109264D03*
X0034539Y0109264D03*
X0034539Y0099707D03*
X0041626Y0099707D03*
X0041094Y0085740D03*
X0034008Y0085740D03*
D12*
X0017748Y0086429D03*
X0017748Y0076429D03*
X0017748Y0066429D03*
X0017748Y0056429D03*
X0017748Y0046429D03*
X0120110Y0046429D03*
X0120110Y0056429D03*
D13*
X0083509Y0028713D03*
X0054350Y0028713D03*
D14*
X0059087Y0018870D03*
X0078772Y0018870D03*
D15*
X0077772Y0052695D03*
X0071877Y0052733D03*
X0066019Y0052733D03*
X0060123Y0052733D03*
X0060109Y0087453D03*
X0066019Y0087407D03*
X0071840Y0087407D03*
X0077810Y0087407D03*
D16*
X0083804Y0070051D03*
X0054099Y0070051D03*
D17*
X0068929Y0070051D03*
D18*
X0002138Y0053848D02*
X0002138Y0002000D01*
X0059326Y0002000D01*
X0053594Y0002864D01*
X0053594Y0002864D01*
X0043752Y0005900D01*
X0043752Y0005900D01*
X0034472Y0010369D01*
X0034472Y0010369D01*
X0025961Y0016171D01*
X0025961Y0016171D01*
X0018411Y0023177D01*
X0018411Y0023177D01*
X0018411Y0023177D01*
X0011989Y0031230D01*
X0011989Y0031230D01*
X0006839Y0040150D01*
X0006839Y0040150D01*
X0003076Y0049738D01*
X0002138Y0053848D01*
X0002138Y0053445D02*
X0002230Y0053445D01*
X0002138Y0051446D02*
X0002686Y0051446D01*
X0003076Y0049738D02*
X0003076Y0049738D01*
X0003190Y0049448D02*
X0002138Y0049448D01*
X0002138Y0047449D02*
X0003974Y0047449D01*
X0004758Y0045451D02*
X0002138Y0045451D01*
X0002138Y0043452D02*
X0005543Y0043452D01*
X0006327Y0041454D02*
X0002138Y0041454D01*
X0002138Y0039455D02*
X0007240Y0039455D01*
X0008394Y0037457D02*
X0002138Y0037457D01*
X0002138Y0035458D02*
X0009548Y0035458D01*
X0010701Y0033460D02*
X0002138Y0033460D01*
X0002138Y0031461D02*
X0011855Y0031461D01*
X0013398Y0029463D02*
X0002138Y0029463D01*
X0002138Y0027464D02*
X0014992Y0027464D01*
X0016586Y0025466D02*
X0002138Y0025466D01*
X0002138Y0023467D02*
X0018179Y0023467D01*
X0020252Y0021469D02*
X0002138Y0021469D01*
X0002138Y0019470D02*
X0022406Y0019470D01*
X0024560Y0017472D02*
X0002138Y0017472D01*
X0002138Y0015473D02*
X0026985Y0015473D01*
X0029916Y0013475D02*
X0002138Y0013475D01*
X0002138Y0011476D02*
X0032848Y0011476D01*
X0036323Y0009478D02*
X0002138Y0009478D01*
X0002138Y0007479D02*
X0040472Y0007479D01*
X0045111Y0005481D02*
X0002138Y0005481D01*
X0002138Y0003482D02*
X0051590Y0003482D01*
X0060809Y0013475D02*
X0077049Y0013475D01*
X0077520Y0013655D02*
X0077874Y0013599D01*
X0073212Y0012896D01*
X0064646Y0012896D01*
X0056175Y0014173D01*
X0047990Y0016698D01*
X0040272Y0020415D01*
X0033194Y0025240D01*
X0029525Y0028645D01*
X0033576Y0028645D01*
X0034455Y0029523D01*
X0034455Y0031061D01*
X0034638Y0031503D01*
X0034638Y0032497D01*
X0034455Y0032939D01*
X0034455Y0034309D01*
X0034228Y0034536D01*
X0034228Y0036913D01*
X0037316Y0036913D01*
X0038195Y0037791D01*
X0038195Y0038250D01*
X0039460Y0038250D01*
X0039777Y0038205D01*
X0039953Y0038250D01*
X0040135Y0038250D01*
X0040430Y0038372D01*
X0040740Y0038452D01*
X0040886Y0038561D01*
X0041054Y0038631D01*
X0041280Y0038857D01*
X0045471Y0042000D01*
X0050135Y0042000D01*
X0050173Y0042016D01*
X0060132Y0042016D01*
X0061045Y0042394D01*
X0067600Y0048949D01*
X0068608Y0048949D01*
X0068948Y0049288D01*
X0069287Y0048949D01*
X0069638Y0048949D01*
X0069638Y0045253D01*
X0070018Y0044334D01*
X0076268Y0038084D01*
X0076972Y0037381D01*
X0077891Y0037000D01*
X0085135Y0037000D01*
X0085173Y0037016D01*
X0089704Y0037016D01*
X0089171Y0036483D01*
X0088638Y0035196D01*
X0088638Y0033804D01*
X0089171Y0032517D01*
X0090155Y0031533D01*
X0091442Y0031000D01*
X0092834Y0031000D01*
X0093725Y0031369D01*
X0094624Y0030920D01*
X0094624Y0029676D01*
X0095503Y0028797D01*
X0099895Y0028797D01*
X0100774Y0029676D01*
X0100774Y0034462D01*
X0099895Y0035341D01*
X0095578Y0035341D01*
X0095105Y0036483D01*
X0094572Y0037016D01*
X0102027Y0037016D01*
X0102408Y0036982D01*
X0102517Y0037016D01*
X0102632Y0037016D01*
X0102751Y0037065D01*
X0103635Y0037065D01*
X0103638Y0037068D01*
X0103638Y0036304D01*
X0103807Y0035894D01*
X0103531Y0035341D01*
X0102983Y0035341D01*
X0102104Y0034462D01*
X0102104Y0029676D01*
X0102983Y0028797D01*
X0107375Y0028797D01*
X0108254Y0029676D01*
X0108254Y0033674D01*
X0109120Y0034033D01*
X0110105Y0035017D01*
X0110638Y0036304D01*
X0110638Y0037696D01*
X0110105Y0038983D01*
X0109120Y0039967D01*
X0107834Y0040500D01*
X0106442Y0040500D01*
X0105155Y0039967D01*
X0104626Y0039438D01*
X0104656Y0039770D01*
X0104622Y0039880D01*
X0104622Y0039994D01*
X0104514Y0040256D01*
X0104514Y0042730D01*
X0103635Y0043608D01*
X0099243Y0043608D01*
X0098364Y0042730D01*
X0098364Y0041984D01*
X0085173Y0041984D01*
X0085135Y0042000D01*
X0079423Y0042000D01*
X0074638Y0046786D01*
X0074638Y0049120D01*
X0074806Y0049288D01*
X0075183Y0048912D01*
X0080362Y0048912D01*
X0081241Y0049791D01*
X0081241Y0052590D01*
X0081380Y0052729D01*
X0081720Y0053058D01*
X0081729Y0053078D01*
X0085667Y0057016D01*
X0098305Y0057016D01*
X0098305Y0056999D01*
X0099184Y0056120D01*
X0100505Y0056120D01*
X0098781Y0054396D01*
X0095444Y0054396D01*
X0094565Y0053517D01*
X0094565Y0048731D01*
X0095444Y0047852D01*
X0099836Y0047852D01*
X0100715Y0048731D01*
X0100715Y0049824D01*
X0102045Y0051155D01*
X0102045Y0048731D01*
X0102924Y0047852D01*
X0107316Y0047852D01*
X0108195Y0048731D01*
X0108195Y0053517D01*
X0108176Y0053536D01*
X0111840Y0057200D01*
X0113188Y0058547D01*
X0113188Y0063547D01*
X0113385Y0063350D01*
X0117777Y0063350D01*
X0118656Y0064229D01*
X0118656Y0070196D01*
X0117777Y0071074D01*
X0113385Y0071074D01*
X0112506Y0070196D01*
X0112506Y0069300D01*
X0111185Y0069300D01*
X0109838Y0067953D01*
X0108588Y0066703D01*
X0108588Y0065053D01*
X0108090Y0065550D01*
X0104340Y0069300D01*
X0101011Y0069300D01*
X0100360Y0069951D01*
X0099080Y0070481D01*
X0097695Y0070481D01*
X0096416Y0069951D01*
X0095437Y0068972D01*
X0094907Y0067692D01*
X0094907Y0066308D01*
X0095437Y0065028D01*
X0096416Y0064049D01*
X0097695Y0063519D01*
X0099080Y0063519D01*
X0100360Y0064049D01*
X0101011Y0064700D01*
X0102435Y0064700D01*
X0104838Y0062297D01*
X0104838Y0060453D01*
X0104552Y0060167D01*
X0104527Y0060341D01*
X0104455Y0060463D01*
X0104455Y0061785D01*
X0103576Y0062663D01*
X0099184Y0062663D01*
X0098505Y0061984D01*
X0084144Y0061984D01*
X0083231Y0061606D01*
X0078103Y0056479D01*
X0075183Y0056479D01*
X0074843Y0056139D01*
X0074467Y0056516D01*
X0069287Y0056516D01*
X0068948Y0056177D01*
X0068608Y0056516D01*
X0063429Y0056516D01*
X0063071Y0056158D01*
X0062713Y0056516D01*
X0061135Y0056516D01*
X0051659Y0065992D01*
X0056406Y0065992D01*
X0056406Y0063839D01*
X0057284Y0062961D01*
X0080574Y0062961D01*
X0081453Y0063839D01*
X0081453Y0065992D01*
X0088363Y0065992D01*
X0089241Y0066871D01*
X0089241Y0073232D01*
X0088363Y0074110D01*
X0081453Y0074110D01*
X0081453Y0076263D01*
X0080574Y0077142D01*
X0057284Y0077142D01*
X0056406Y0076263D01*
X0056406Y0074110D01*
X0049540Y0074110D01*
X0048662Y0073232D01*
X0048662Y0066984D01*
X0041644Y0066984D01*
X0040731Y0066606D01*
X0040032Y0065907D01*
X0036867Y0062742D01*
X0034228Y0062742D01*
X0034228Y0066134D01*
X0056640Y0088546D01*
X0056640Y0084548D01*
X0057519Y0083669D01*
X0062698Y0083669D01*
X0063041Y0084012D01*
X0063429Y0083624D01*
X0068608Y0083624D01*
X0068929Y0083944D01*
X0069250Y0083624D01*
X0074429Y0083624D01*
X0074825Y0084019D01*
X0075220Y0083624D01*
X0080400Y0083624D01*
X0081278Y0084502D01*
X0081278Y0087602D01*
X0081454Y0087803D01*
X0082151Y0088500D01*
X0082834Y0088500D01*
X0084120Y0089033D01*
X0085047Y0089960D01*
X0085047Y0086134D01*
X0086138Y0085044D01*
X0086138Y0083804D01*
X0086671Y0082517D01*
X0087655Y0081533D01*
X0088942Y0081000D01*
X0090334Y0081000D01*
X0091620Y0081533D01*
X0092605Y0082517D01*
X0093138Y0083804D01*
X0093138Y0084741D01*
X0094521Y0084741D01*
X0094521Y0089103D01*
X0094521Y0089103D01*
X0090946Y0089103D01*
X0090946Y0091728D01*
X0091083Y0092237D01*
X0091346Y0092693D01*
X0091718Y0093065D01*
X0092174Y0093329D01*
X0092683Y0093465D01*
X0094521Y0093465D01*
X0094521Y0089103D01*
X0094521Y0089103D01*
X0094521Y0093465D01*
X0096088Y0093465D01*
X0096088Y0095453D01*
X0097338Y0096703D01*
X0098166Y0097531D01*
X0098138Y0097560D01*
X0098138Y0103527D01*
X0099016Y0104405D01*
X0099783Y0104405D01*
X0099171Y0105017D01*
X0098638Y0106304D01*
X0098638Y0107696D01*
X0099171Y0108983D01*
X0099605Y0109417D01*
X0099548Y0109417D01*
X0098669Y0110296D01*
X0098669Y0116263D01*
X0099548Y0117142D01*
X0101321Y0117142D01*
X0097587Y0119687D01*
X0089869Y0123404D01*
X0081683Y0125929D01*
X0073212Y0127206D01*
X0064646Y0127206D01*
X0056175Y0125929D01*
X0047990Y0123404D01*
X0040272Y0119687D01*
X0033194Y0114862D01*
X0026914Y0109035D01*
X0021573Y0102338D01*
X0017290Y0094919D01*
X0015860Y0091276D01*
X0016714Y0091629D01*
X0018782Y0091629D01*
X0020694Y0090837D01*
X0022156Y0089375D01*
X0022948Y0087463D01*
X0022948Y0085395D01*
X0022156Y0083484D01*
X0020694Y0082021D01*
X0019265Y0081429D01*
X0020694Y0080837D01*
X0022156Y0079375D01*
X0022948Y0077463D01*
X0022948Y0075395D01*
X0022156Y0073484D01*
X0020694Y0072021D01*
X0019265Y0071429D01*
X0020694Y0070837D01*
X0022156Y0069375D01*
X0022948Y0067463D01*
X0022948Y0065395D01*
X0022156Y0063484D01*
X0020694Y0062021D01*
X0019265Y0061429D01*
X0020694Y0060837D01*
X0022156Y0059375D01*
X0022948Y0057463D01*
X0022948Y0055395D01*
X0022156Y0053484D01*
X0020694Y0052021D01*
X0019265Y0051429D01*
X0020694Y0050837D01*
X0022156Y0049375D01*
X0022948Y0047463D01*
X0022948Y0045395D01*
X0022156Y0043484D01*
X0020694Y0042021D01*
X0019420Y0041493D01*
X0021573Y0037764D01*
X0026914Y0031067D01*
X0028305Y0029776D01*
X0028305Y0034309D01*
X0029184Y0035188D01*
X0030047Y0035188D01*
X0030047Y0042756D01*
X0029881Y0043090D01*
X0030047Y0043589D01*
X0030047Y0044116D01*
X0030311Y0044379D01*
X0030428Y0044733D01*
X0030899Y0044968D01*
X0031272Y0045341D01*
X0031644Y0045341D01*
X0036138Y0047587D01*
X0036138Y0047696D01*
X0036531Y0048645D01*
X0036366Y0048810D01*
X0036366Y0053596D01*
X0037245Y0054474D01*
X0038599Y0054474D01*
X0041138Y0057013D01*
X0041138Y0057696D01*
X0041671Y0058983D01*
X0042655Y0059967D01*
X0043942Y0060500D01*
X0045334Y0060500D01*
X0046620Y0059967D01*
X0047605Y0058983D01*
X0048138Y0057696D01*
X0048138Y0056304D01*
X0047605Y0055017D01*
X0046620Y0054033D01*
X0045334Y0053500D01*
X0044651Y0053500D01*
X0042516Y0051365D01*
X0042516Y0049072D01*
X0042605Y0048983D01*
X0043138Y0047696D01*
X0043138Y0046536D01*
X0043222Y0046619D01*
X0043390Y0046689D01*
X0043536Y0046798D01*
X0043845Y0046878D01*
X0044141Y0047000D01*
X0044323Y0047000D01*
X0044499Y0047045D01*
X0044815Y0047000D01*
X0050135Y0047000D01*
X0050173Y0046984D01*
X0058609Y0046984D01*
X0060574Y0048949D01*
X0057533Y0048949D01*
X0056655Y0049828D01*
X0056655Y0053970D01*
X0048609Y0062016D01*
X0043167Y0062016D01*
X0038912Y0057761D01*
X0038776Y0057619D01*
X0038776Y0057077D01*
X0037897Y0056199D01*
X0034228Y0056199D01*
X0034228Y0054403D01*
X0035035Y0053596D01*
X0035035Y0048810D01*
X0034157Y0047931D01*
X0029764Y0047931D01*
X0028886Y0048810D01*
X0028886Y0053596D01*
X0029764Y0054474D01*
X0030047Y0054474D01*
X0030047Y0067866D01*
X0059339Y0097157D01*
X0059339Y0102882D01*
X0060217Y0103761D01*
X0060854Y0103761D01*
X0061007Y0103960D01*
X0061162Y0103980D01*
X0061272Y0104091D01*
X0062001Y0104091D01*
X0062725Y0104185D01*
X0062848Y0104091D01*
X0063004Y0104091D01*
X0063334Y0103761D01*
X0064610Y0103761D01*
X0065488Y0102882D01*
X0065488Y0101606D01*
X0066425Y0100669D01*
X0066425Y0102882D01*
X0067304Y0103761D01*
X0068442Y0103761D01*
X0070690Y0106008D01*
X0067304Y0106008D01*
X0066425Y0106887D01*
X0066425Y0112854D01*
X0067304Y0113733D01*
X0067846Y0113733D01*
X0067938Y0113813D01*
X0068638Y0114513D01*
X0068638Y0115196D01*
X0069171Y0116483D01*
X0069973Y0117285D01*
X0069282Y0117285D01*
X0069231Y0117274D01*
X0069214Y0117285D01*
X0067087Y0117285D01*
X0066209Y0118164D01*
X0066209Y0124131D01*
X0067087Y0125009D01*
X0071480Y0125009D01*
X0072358Y0124131D01*
X0072358Y0121591D01*
X0073004Y0121591D01*
X0078004Y0116591D01*
X0079228Y0115366D01*
X0079228Y0114859D01*
X0080105Y0113983D01*
X0080638Y0112696D01*
X0080638Y0111304D01*
X0080105Y0110017D01*
X0079228Y0109141D01*
X0079228Y0108634D01*
X0072575Y0101981D01*
X0072575Y0096915D01*
X0071696Y0096036D01*
X0067304Y0096036D01*
X0066425Y0096915D01*
X0066425Y0098331D01*
X0065504Y0097409D01*
X0065488Y0097394D01*
X0065488Y0096915D01*
X0064610Y0096036D01*
X0064130Y0096036D01*
X0059330Y0091236D01*
X0062698Y0091236D01*
X0063086Y0090848D01*
X0063429Y0091190D01*
X0068608Y0091190D01*
X0068929Y0090870D01*
X0069250Y0091190D01*
X0074429Y0091190D01*
X0074825Y0090795D01*
X0075220Y0091190D01*
X0077815Y0091190D01*
X0077822Y0091197D01*
X0078092Y0091506D01*
X0078169Y0091545D01*
X0078638Y0092013D01*
X0078638Y0092696D01*
X0079171Y0093983D01*
X0080155Y0094967D01*
X0081442Y0095500D01*
X0082834Y0095500D01*
X0084120Y0094967D01*
X0085047Y0094040D01*
X0085047Y0105366D01*
X0091583Y0111901D01*
X0091583Y0116263D01*
X0092461Y0117142D01*
X0096854Y0117142D01*
X0097732Y0116263D01*
X0097732Y0110296D01*
X0096854Y0109417D01*
X0095012Y0109417D01*
X0089228Y0103634D01*
X0089228Y0088000D01*
X0090334Y0088000D01*
X0090946Y0087746D01*
X0090946Y0089103D01*
X0094521Y0089103D01*
X0094521Y0089103D01*
X0094521Y0084741D01*
X0096088Y0084741D01*
X0096088Y0082123D01*
X0095437Y0081472D01*
X0094907Y0080192D01*
X0094907Y0078808D01*
X0095437Y0077528D01*
X0096416Y0076549D01*
X0097695Y0076019D01*
X0099080Y0076019D01*
X0100360Y0076549D01*
X0101339Y0077528D01*
X0101869Y0078808D01*
X0101869Y0080192D01*
X0101339Y0081472D01*
X0100688Y0082123D01*
X0100688Y0084937D01*
X0101138Y0084487D01*
X0101138Y0083804D01*
X0101671Y0082517D01*
X0102655Y0081533D01*
X0103942Y0081000D01*
X0105334Y0081000D01*
X0106620Y0081533D01*
X0107605Y0082517D01*
X0108138Y0083804D01*
X0108138Y0085196D01*
X0107605Y0086483D01*
X0106620Y0087467D01*
X0105334Y0088000D01*
X0104683Y0088000D01*
X0104683Y0092086D01*
X0103804Y0092965D01*
X0100688Y0092965D01*
X0100688Y0093450D01*
X0108950Y0093450D01*
X0108638Y0092696D01*
X0108638Y0091304D01*
X0109171Y0090017D01*
X0110155Y0089033D01*
X0111442Y0088500D01*
X0112681Y0088500D01*
X0112979Y0088203D01*
X0112979Y0084763D01*
X0113857Y0083884D01*
X0115047Y0083884D01*
X0115047Y0082524D01*
X0113731Y0082524D01*
X0112852Y0081646D01*
X0112852Y0075679D01*
X0113731Y0074800D01*
X0118123Y0074800D01*
X0119002Y0075679D01*
X0119002Y0078248D01*
X0119039Y0078274D01*
X0119078Y0078483D01*
X0119228Y0078634D01*
X0119228Y0079311D01*
X0119350Y0079978D01*
X0119228Y0080153D01*
X0119228Y0086350D01*
X0119351Y0086528D01*
X0119228Y0087191D01*
X0119228Y0087866D01*
X0119128Y0087966D01*
X0119128Y0090730D01*
X0118250Y0091608D01*
X0115638Y0091608D01*
X0115638Y0092696D01*
X0115105Y0093983D01*
X0114388Y0094700D01*
X0118685Y0094700D01*
X0121088Y0092297D01*
X0121088Y0091608D01*
X0120944Y0091608D01*
X0120065Y0090730D01*
X0120065Y0084763D01*
X0120944Y0083884D01*
X0124397Y0083884D01*
X0124593Y0083024D01*
X0123014Y0083024D01*
X0123014Y0078662D01*
X0123014Y0074300D01*
X0124852Y0074300D01*
X0125361Y0074436D01*
X0125817Y0074700D01*
X0125890Y0074773D01*
X0126244Y0070051D01*
X0126231Y0069879D01*
X0126106Y0070346D01*
X0125843Y0070802D01*
X0125471Y0071175D01*
X0125014Y0071438D01*
X0124506Y0071574D01*
X0122668Y0071574D01*
X0122668Y0067212D01*
X0122668Y0062850D01*
X0124506Y0062850D01*
X0125014Y0062986D01*
X0125471Y0063250D01*
X0125756Y0063535D01*
X0125604Y0061509D01*
X0124904Y0058443D01*
X0124519Y0059375D01*
X0123056Y0060837D01*
X0121145Y0061629D01*
X0119076Y0061629D01*
X0117165Y0060837D01*
X0115702Y0059375D01*
X0114910Y0057463D01*
X0114910Y0055395D01*
X0115702Y0053484D01*
X0117165Y0052021D01*
X0117917Y0051709D01*
X0117123Y0051304D01*
X0116397Y0050777D01*
X0115763Y0050142D01*
X0115235Y0049417D01*
X0114828Y0048617D01*
X0114551Y0047764D01*
X0114410Y0046878D01*
X0114410Y0046429D01*
X0114410Y0045981D01*
X0114551Y0045094D01*
X0114828Y0044241D01*
X0115235Y0043442D01*
X0115763Y0042716D01*
X0116397Y0042081D01*
X0117123Y0041554D01*
X0117922Y0041147D01*
X0118188Y0041060D01*
X0116285Y0037764D01*
X0110944Y0031067D01*
X0104664Y0025240D01*
X0097587Y0020415D01*
X0089869Y0016698D01*
X0081683Y0014173D01*
X0081182Y0014098D01*
X0081574Y0014297D01*
X0082255Y0014792D01*
X0082850Y0015387D01*
X0083344Y0016068D01*
X0083726Y0016818D01*
X0083986Y0017618D01*
X0084118Y0018449D01*
X0084118Y0018870D01*
X0078772Y0018870D01*
X0078772Y0018870D01*
X0084118Y0018870D01*
X0084118Y0019291D01*
X0083986Y0020122D01*
X0083726Y0020922D01*
X0083344Y0021672D01*
X0082850Y0022353D01*
X0082301Y0022902D01*
X0082349Y0022882D01*
X0084668Y0022882D01*
X0086811Y0023770D01*
X0088452Y0025410D01*
X0089339Y0027553D01*
X0089339Y0029872D01*
X0088452Y0032015D01*
X0086811Y0033656D01*
X0084668Y0034543D01*
X0082349Y0034543D01*
X0080206Y0033656D01*
X0078566Y0032015D01*
X0077678Y0029872D01*
X0077678Y0027553D01*
X0078566Y0025410D01*
X0079865Y0024110D01*
X0079192Y0024217D01*
X0078772Y0024217D01*
X0078772Y0018870D01*
X0078772Y0018870D01*
X0078772Y0024217D01*
X0078351Y0024217D01*
X0077520Y0024085D01*
X0076719Y0023825D01*
X0075969Y0023443D01*
X0075289Y0022948D01*
X0074694Y0022353D01*
X0074199Y0021672D01*
X0073817Y0020922D01*
X0073557Y0020122D01*
X0073425Y0019291D01*
X0073425Y0018870D01*
X0073425Y0018449D01*
X0073557Y0017618D01*
X0073817Y0016818D01*
X0074199Y0016068D01*
X0074694Y0015387D01*
X0075289Y0014792D01*
X0075969Y0014297D01*
X0076719Y0013915D01*
X0077520Y0013655D01*
X0074631Y0015473D02*
X0062544Y0015473D01*
X0063195Y0016125D02*
X0061832Y0014761D01*
X0060051Y0014024D01*
X0058123Y0014024D01*
X0056341Y0014761D01*
X0054978Y0016125D01*
X0054240Y0017906D01*
X0054240Y0019834D01*
X0054978Y0021615D01*
X0056341Y0022979D01*
X0058123Y0023717D01*
X0060051Y0023717D01*
X0061832Y0022979D01*
X0063195Y0021615D01*
X0063933Y0019834D01*
X0063933Y0017906D01*
X0063195Y0016125D01*
X0063753Y0017472D02*
X0073604Y0017472D01*
X0073425Y0018870D02*
X0078772Y0018870D01*
X0078772Y0018870D01*
X0073425Y0018870D01*
X0073454Y0019470D02*
X0063933Y0019470D01*
X0063256Y0021469D02*
X0074095Y0021469D01*
X0076018Y0023467D02*
X0060652Y0023467D01*
X0059293Y0025410D02*
X0060180Y0027553D01*
X0060180Y0029872D01*
X0059293Y0032015D01*
X0057652Y0033656D01*
X0055509Y0034543D01*
X0053190Y0034543D01*
X0051047Y0033656D01*
X0049407Y0032015D01*
X0048519Y0029872D01*
X0048519Y0027553D01*
X0049407Y0025410D01*
X0051047Y0023770D01*
X0053190Y0022882D01*
X0055509Y0022882D01*
X0057652Y0023770D01*
X0059293Y0025410D01*
X0059316Y0025466D02*
X0078542Y0025466D01*
X0078772Y0023467D02*
X0078772Y0023467D01*
X0078772Y0021469D02*
X0078772Y0021469D01*
X0078772Y0019470D02*
X0078772Y0019470D01*
X0083448Y0021469D02*
X0099132Y0021469D01*
X0102064Y0023467D02*
X0086082Y0023467D01*
X0088475Y0025466D02*
X0104907Y0025466D01*
X0107061Y0027464D02*
X0089303Y0027464D01*
X0089339Y0029463D02*
X0094837Y0029463D01*
X0090328Y0031461D02*
X0088681Y0031461D01*
X0088780Y0033460D02*
X0087007Y0033460D01*
X0088746Y0035458D02*
X0048029Y0035458D01*
X0048138Y0035196D02*
X0047605Y0036483D01*
X0046620Y0037467D01*
X0045334Y0038000D01*
X0043942Y0038000D01*
X0042655Y0037467D01*
X0041671Y0036483D01*
X0041138Y0035196D01*
X0041138Y0035107D01*
X0041056Y0035188D01*
X0036664Y0035188D01*
X0035785Y0034309D01*
X0035785Y0029523D01*
X0036664Y0028645D01*
X0038317Y0028645D01*
X0038666Y0028411D01*
X0038736Y0028397D01*
X0038797Y0028361D01*
X0039218Y0028300D01*
X0039635Y0028217D01*
X0039705Y0028231D01*
X0039776Y0028221D01*
X0040188Y0028326D01*
X0040605Y0028409D01*
X0040664Y0028448D01*
X0040733Y0028466D01*
X0040971Y0028645D01*
X0041056Y0028645D01*
X0041252Y0028840D01*
X0041427Y0028957D01*
X0041467Y0029016D01*
X0044112Y0031000D01*
X0045334Y0031000D01*
X0046620Y0031533D01*
X0047605Y0032517D01*
X0048138Y0033804D01*
X0048138Y0035196D01*
X0047995Y0033460D02*
X0050851Y0033460D01*
X0049177Y0031461D02*
X0046448Y0031461D01*
X0048519Y0029463D02*
X0042062Y0029463D01*
X0041246Y0035458D02*
X0034228Y0035458D01*
X0034455Y0033460D02*
X0035785Y0033460D01*
X0035785Y0031461D02*
X0034621Y0031461D01*
X0032138Y0032000D02*
X0031463Y0032000D01*
X0031380Y0031916D01*
X0028305Y0031461D02*
X0026600Y0031461D01*
X0025006Y0033460D02*
X0028305Y0033460D01*
X0030047Y0035458D02*
X0023412Y0035458D01*
X0021819Y0037457D02*
X0030047Y0037457D01*
X0030047Y0039455D02*
X0020597Y0039455D01*
X0019443Y0041454D02*
X0030047Y0041454D01*
X0030002Y0043452D02*
X0022125Y0043452D01*
X0022948Y0045451D02*
X0031865Y0045451D01*
X0035862Y0047449D02*
X0022948Y0047449D01*
X0022083Y0049448D02*
X0028886Y0049448D01*
X0028886Y0051446D02*
X0019307Y0051446D01*
X0016231Y0051429D02*
X0015033Y0050933D01*
X0014480Y0052343D01*
X0014802Y0052021D01*
X0016231Y0051429D01*
X0016189Y0051446D02*
X0014832Y0051446D01*
X0012954Y0058443D02*
X0012254Y0061509D01*
X0011614Y0070051D01*
X0012254Y0078594D01*
X0013365Y0083459D01*
X0014802Y0082021D01*
X0016231Y0081429D01*
X0014802Y0080837D01*
X0013340Y0079375D01*
X0012548Y0077463D01*
X0012548Y0075395D01*
X0013340Y0073484D01*
X0014802Y0072021D01*
X0016231Y0071429D01*
X0014802Y0070837D01*
X0013340Y0069375D01*
X0012548Y0067463D01*
X0012548Y0065395D01*
X0013340Y0063484D01*
X0014802Y0062021D01*
X0016231Y0061429D01*
X0014802Y0060837D01*
X0013340Y0059375D01*
X0012954Y0058443D01*
X0012726Y0059440D02*
X0013405Y0059440D01*
X0012270Y0061439D02*
X0016207Y0061439D01*
X0019289Y0061439D02*
X0030047Y0061439D01*
X0030047Y0063437D02*
X0022110Y0063437D01*
X0022948Y0065436D02*
X0030047Y0065436D01*
X0030047Y0067434D02*
X0022948Y0067434D01*
X0022098Y0069433D02*
X0024755Y0069433D01*
X0025155Y0069033D02*
X0024171Y0070017D01*
X0023638Y0071304D01*
X0023638Y0072696D01*
X0024171Y0073983D01*
X0025047Y0074859D01*
X0025047Y0092866D01*
X0026272Y0094091D01*
X0031465Y0099283D01*
X0031465Y0102690D01*
X0032343Y0103569D01*
X0032547Y0103569D01*
X0032547Y0105402D01*
X0032343Y0105402D01*
X0031465Y0106280D01*
X0031465Y0112247D01*
X0032343Y0113126D01*
X0036735Y0113126D01*
X0037614Y0112247D01*
X0037614Y0106280D01*
X0036735Y0105402D01*
X0036728Y0105402D01*
X0036728Y0103569D01*
X0036735Y0103569D01*
X0037614Y0102690D01*
X0037614Y0096723D01*
X0036735Y0095844D01*
X0033939Y0095844D01*
X0029228Y0091134D01*
X0029228Y0074859D01*
X0030105Y0073983D01*
X0030638Y0072696D01*
X0030638Y0071304D01*
X0030105Y0070017D01*
X0029120Y0069033D01*
X0027834Y0068500D01*
X0026442Y0068500D01*
X0025155Y0069033D01*
X0023638Y0071432D02*
X0019271Y0071432D01*
X0016225Y0071432D02*
X0011718Y0071432D01*
X0011867Y0073430D02*
X0013393Y0073430D01*
X0012548Y0075429D02*
X0012017Y0075429D01*
X0012167Y0077427D02*
X0012548Y0077427D01*
X0012444Y0079426D02*
X0013391Y0079426D01*
X0012900Y0081424D02*
X0016219Y0081424D01*
X0019277Y0081424D02*
X0025047Y0081424D01*
X0025047Y0079426D02*
X0022105Y0079426D01*
X0022948Y0077427D02*
X0025047Y0077427D01*
X0025047Y0075429D02*
X0022948Y0075429D01*
X0022103Y0073430D02*
X0023942Y0073430D01*
X0029228Y0075429D02*
X0037610Y0075429D01*
X0036620Y0076533D02*
X0037605Y0077517D01*
X0038138Y0078804D01*
X0038138Y0080196D01*
X0037605Y0081483D01*
X0037122Y0081965D01*
X0037122Y0084105D01*
X0037153Y0084199D01*
X0037122Y0084596D01*
X0037122Y0084994D01*
X0037084Y0085086D01*
X0037083Y0085105D01*
X0037083Y0088724D01*
X0036204Y0089602D01*
X0031812Y0089602D01*
X0030933Y0088724D01*
X0030933Y0082757D01*
X0031812Y0081878D01*
X0032066Y0081878D01*
X0031671Y0081483D01*
X0031138Y0080196D01*
X0031138Y0078804D01*
X0031671Y0077517D01*
X0032655Y0076533D01*
X0033942Y0076000D01*
X0035334Y0076000D01*
X0036620Y0076533D01*
X0037515Y0077427D02*
X0039608Y0077427D01*
X0038138Y0079426D02*
X0041607Y0079426D01*
X0041095Y0081378D02*
X0042933Y0081378D01*
X0043441Y0081514D01*
X0043897Y0081778D01*
X0044270Y0082150D01*
X0044533Y0082606D01*
X0044669Y0083115D01*
X0044669Y0085740D01*
X0041095Y0085740D01*
X0041095Y0085740D01*
X0044669Y0085740D01*
X0044669Y0088366D01*
X0044533Y0088874D01*
X0044270Y0089330D01*
X0043897Y0089703D01*
X0043441Y0089966D01*
X0042933Y0090102D01*
X0041095Y0090102D01*
X0041095Y0085740D01*
X0041095Y0081378D01*
X0041094Y0081378D02*
X0039256Y0081378D01*
X0038748Y0081514D01*
X0038292Y0081778D01*
X0037919Y0082150D01*
X0037656Y0082606D01*
X0037520Y0083115D01*
X0037520Y0085740D01*
X0041094Y0085740D01*
X0041094Y0085740D01*
X0037520Y0085740D01*
X0037520Y0088366D01*
X0037656Y0088874D01*
X0037919Y0089330D01*
X0038292Y0089703D01*
X0038748Y0089966D01*
X0039256Y0090102D01*
X0041094Y0090102D01*
X0041094Y0085740D01*
X0041095Y0085740D01*
X0041094Y0085740D01*
X0041094Y0081378D01*
X0041094Y0081424D02*
X0041095Y0081424D01*
X0043105Y0081424D02*
X0043605Y0081424D01*
X0044669Y0083423D02*
X0045604Y0083423D01*
X0044669Y0085421D02*
X0047602Y0085421D01*
X0049601Y0087420D02*
X0044669Y0087420D01*
X0044182Y0089418D02*
X0051599Y0089418D01*
X0053598Y0091417D02*
X0029511Y0091417D01*
X0029228Y0089418D02*
X0031628Y0089418D01*
X0030933Y0087420D02*
X0029228Y0087420D01*
X0029228Y0085421D02*
X0030933Y0085421D01*
X0030933Y0083423D02*
X0029228Y0083423D01*
X0029228Y0081424D02*
X0031646Y0081424D01*
X0031138Y0079426D02*
X0029228Y0079426D01*
X0029228Y0077427D02*
X0031761Y0077427D01*
X0030334Y0073430D02*
X0035611Y0073430D01*
X0033613Y0071432D02*
X0030638Y0071432D01*
X0031614Y0069433D02*
X0029521Y0069433D01*
X0034228Y0065436D02*
X0039561Y0065436D01*
X0037562Y0063437D02*
X0034228Y0063437D01*
X0035529Y0067434D02*
X0048662Y0067434D01*
X0048662Y0069433D02*
X0037527Y0069433D01*
X0039526Y0071432D02*
X0048662Y0071432D01*
X0048860Y0073430D02*
X0041524Y0073430D01*
X0043523Y0075429D02*
X0056406Y0075429D01*
X0049518Y0081424D02*
X0087918Y0081424D01*
X0086296Y0083423D02*
X0051517Y0083423D01*
X0053515Y0085421D02*
X0056640Y0085421D01*
X0056640Y0087420D02*
X0055514Y0087420D01*
X0059511Y0091417D02*
X0078013Y0091417D01*
X0078936Y0093415D02*
X0061509Y0093415D01*
X0063508Y0095414D02*
X0081233Y0095414D01*
X0083042Y0095414D02*
X0085047Y0095414D01*
X0085047Y0097412D02*
X0072575Y0097412D01*
X0072575Y0099411D02*
X0085047Y0099411D01*
X0085047Y0101409D02*
X0072575Y0101409D01*
X0074002Y0103408D02*
X0085047Y0103408D01*
X0085088Y0105406D02*
X0076000Y0105406D01*
X0077999Y0107405D02*
X0087086Y0107405D01*
X0089085Y0109403D02*
X0079491Y0109403D01*
X0080638Y0111402D02*
X0091083Y0111402D01*
X0091583Y0113400D02*
X0080346Y0113400D01*
X0079195Y0115399D02*
X0091583Y0115399D01*
X0094042Y0121394D02*
X0073200Y0121394D01*
X0072358Y0123393D02*
X0089892Y0123393D01*
X0083427Y0125391D02*
X0064476Y0125391D01*
X0064544Y0125373D02*
X0064035Y0125509D01*
X0062197Y0125509D01*
X0062197Y0121147D01*
X0062197Y0116785D01*
X0064035Y0116785D01*
X0064544Y0116921D01*
X0065000Y0117185D01*
X0065372Y0117557D01*
X0065635Y0118013D01*
X0065772Y0118522D01*
X0065772Y0121147D01*
X0062197Y0121147D01*
X0062197Y0121147D01*
X0062197Y0121147D01*
X0062197Y0116785D01*
X0060359Y0116785D01*
X0059850Y0116921D01*
X0059394Y0117185D01*
X0059022Y0117557D01*
X0058758Y0118013D01*
X0058622Y0118522D01*
X0058622Y0121147D01*
X0062197Y0121147D01*
X0065772Y0121147D01*
X0065772Y0123773D01*
X0065635Y0124281D01*
X0065372Y0124737D01*
X0065000Y0125110D01*
X0064544Y0125373D01*
X0065772Y0123393D02*
X0066209Y0123393D01*
X0066209Y0121394D02*
X0065772Y0121394D01*
X0065772Y0119396D02*
X0066209Y0119396D01*
X0066975Y0117397D02*
X0065212Y0117397D01*
X0062197Y0117397D02*
X0062197Y0117397D01*
X0062197Y0119396D02*
X0062197Y0119396D01*
X0062197Y0121147D02*
X0062197Y0121147D01*
X0062197Y0121147D01*
X0058622Y0121147D01*
X0058622Y0123773D01*
X0058758Y0124281D01*
X0059022Y0124737D01*
X0059394Y0125110D01*
X0059850Y0125373D01*
X0060359Y0125509D01*
X0062197Y0125509D01*
X0062197Y0121147D01*
X0062197Y0121394D02*
X0062197Y0121394D01*
X0062197Y0123393D02*
X0062197Y0123393D01*
X0062197Y0125391D02*
X0062197Y0125391D01*
X0059918Y0125391D02*
X0054432Y0125391D01*
X0058622Y0123393D02*
X0047966Y0123393D01*
X0043816Y0121394D02*
X0058622Y0121394D01*
X0058622Y0119396D02*
X0039844Y0119396D01*
X0036913Y0117397D02*
X0059181Y0117397D01*
X0060067Y0114096D02*
X0059611Y0113833D01*
X0059238Y0113461D01*
X0058975Y0113005D01*
X0058839Y0112496D01*
X0058839Y0109871D01*
X0062413Y0109871D01*
X0062413Y0114233D01*
X0060575Y0114233D01*
X0060067Y0114096D01*
X0059203Y0113400D02*
X0031619Y0113400D01*
X0031465Y0111402D02*
X0029465Y0111402D01*
X0031465Y0109403D02*
X0027311Y0109403D01*
X0025614Y0107405D02*
X0031465Y0107405D01*
X0032339Y0105406D02*
X0024020Y0105406D01*
X0022426Y0103408D02*
X0032182Y0103408D01*
X0031465Y0101409D02*
X0021037Y0101409D01*
X0019883Y0099411D02*
X0031465Y0099411D01*
X0029593Y0097412D02*
X0018729Y0097412D01*
X0017576Y0095414D02*
X0027595Y0095414D01*
X0025596Y0093415D02*
X0016700Y0093415D01*
X0016201Y0091417D02*
X0015915Y0091417D01*
X0019295Y0091417D02*
X0025047Y0091417D01*
X0025047Y0089418D02*
X0022113Y0089418D01*
X0022948Y0087420D02*
X0025047Y0087420D01*
X0025047Y0085421D02*
X0022948Y0085421D01*
X0022095Y0083423D02*
X0025047Y0083423D01*
X0031509Y0093415D02*
X0055596Y0093415D01*
X0055334Y0096000D02*
X0053942Y0096000D01*
X0052655Y0096533D01*
X0051671Y0097517D01*
X0051138Y0098804D01*
X0051138Y0100196D01*
X0051671Y0101483D01*
X0052338Y0102150D01*
X0052338Y0107200D01*
X0044701Y0107200D01*
X0044701Y0106280D01*
X0043822Y0105402D01*
X0039430Y0105402D01*
X0038551Y0106280D01*
X0038551Y0112247D01*
X0039430Y0113126D01*
X0043822Y0113126D01*
X0044701Y0112247D01*
X0044701Y0111800D01*
X0054340Y0111800D01*
X0055688Y0110453D01*
X0056938Y0109203D01*
X0056938Y0102150D01*
X0057605Y0101483D01*
X0058138Y0100196D01*
X0058138Y0098804D01*
X0057605Y0097517D01*
X0056620Y0096533D01*
X0055334Y0096000D01*
X0057595Y0095414D02*
X0043722Y0095414D01*
X0043973Y0095481D02*
X0044429Y0095744D01*
X0044801Y0096116D01*
X0045064Y0096573D01*
X0045201Y0097081D01*
X0045201Y0099707D01*
X0045201Y0102332D01*
X0045064Y0102841D01*
X0044801Y0103297D01*
X0044429Y0103669D01*
X0043973Y0103933D01*
X0043464Y0104069D01*
X0041626Y0104069D01*
X0041626Y0099707D01*
X0041626Y0099707D01*
X0041626Y0104069D01*
X0039788Y0104069D01*
X0039279Y0103933D01*
X0038823Y0103669D01*
X0038451Y0103297D01*
X0038187Y0102841D01*
X0038051Y0102332D01*
X0038051Y0099707D01*
X0041626Y0099707D01*
X0045201Y0099707D01*
X0041626Y0099707D01*
X0041626Y0099707D01*
X0041626Y0099707D01*
X0038051Y0099707D01*
X0038051Y0097081D01*
X0038187Y0096573D01*
X0038451Y0096116D01*
X0038823Y0095744D01*
X0039279Y0095481D01*
X0039788Y0095344D01*
X0041626Y0095344D01*
X0041626Y0099707D01*
X0041626Y0095344D01*
X0043464Y0095344D01*
X0043973Y0095481D01*
X0045201Y0097412D02*
X0051776Y0097412D01*
X0051138Y0099411D02*
X0045201Y0099411D01*
X0045201Y0101409D02*
X0051640Y0101409D01*
X0052338Y0103408D02*
X0044690Y0103408D01*
X0043827Y0105406D02*
X0052338Y0105406D01*
X0056938Y0105406D02*
X0070088Y0105406D01*
X0072575Y0107893D02*
X0072575Y0111000D01*
X0072834Y0111000D01*
X0073638Y0111333D01*
X0073638Y0111304D01*
X0074171Y0110017D01*
X0074435Y0109753D01*
X0072575Y0107893D01*
X0072575Y0109403D02*
X0074085Y0109403D01*
X0068722Y0115399D02*
X0033981Y0115399D01*
X0037614Y0111402D02*
X0038551Y0111402D01*
X0038551Y0109403D02*
X0037614Y0109403D01*
X0037614Y0107405D02*
X0038551Y0107405D01*
X0039425Y0105406D02*
X0036740Y0105406D01*
X0036897Y0103408D02*
X0038562Y0103408D01*
X0038051Y0101409D02*
X0037614Y0101409D01*
X0037614Y0099411D02*
X0038051Y0099411D01*
X0038051Y0097412D02*
X0037614Y0097412D01*
X0039530Y0095414D02*
X0033508Y0095414D01*
X0036388Y0089418D02*
X0038007Y0089418D01*
X0037520Y0087420D02*
X0037083Y0087420D01*
X0037083Y0085421D02*
X0037520Y0085421D01*
X0037520Y0083423D02*
X0037122Y0083423D01*
X0037629Y0081424D02*
X0039084Y0081424D01*
X0041094Y0083423D02*
X0041095Y0083423D01*
X0041094Y0085421D02*
X0041095Y0085421D01*
X0041094Y0087420D02*
X0041095Y0087420D01*
X0041094Y0089418D02*
X0041095Y0089418D01*
X0041626Y0095414D02*
X0041626Y0095414D01*
X0041626Y0097412D02*
X0041626Y0097412D01*
X0041626Y0099411D02*
X0041626Y0099411D01*
X0041626Y0099707D02*
X0041626Y0099707D01*
X0041626Y0101409D02*
X0041626Y0101409D01*
X0041626Y0103408D02*
X0041626Y0103408D01*
X0054739Y0111402D02*
X0058839Y0111402D01*
X0058839Y0109870D02*
X0058839Y0107245D01*
X0058975Y0106736D01*
X0059238Y0106280D01*
X0059611Y0105908D01*
X0060067Y0105645D01*
X0060575Y0105508D01*
X0062413Y0105508D01*
X0062413Y0109870D01*
X0062413Y0109870D01*
X0058839Y0109870D01*
X0058839Y0109403D02*
X0056737Y0109403D01*
X0056938Y0107405D02*
X0058839Y0107405D01*
X0062413Y0107405D02*
X0062413Y0107405D01*
X0062413Y0105508D02*
X0064251Y0105508D01*
X0064760Y0105645D01*
X0065216Y0105908D01*
X0065589Y0106280D01*
X0065852Y0106736D01*
X0065988Y0107245D01*
X0065988Y0109870D01*
X0062414Y0109870D01*
X0062414Y0109871D01*
X0065988Y0109871D01*
X0065988Y0112496D01*
X0065852Y0113005D01*
X0065589Y0113461D01*
X0065216Y0113833D01*
X0064760Y0114096D01*
X0064251Y0114233D01*
X0062413Y0114233D01*
X0062413Y0109871D01*
X0062413Y0109871D01*
X0062413Y0109870D01*
X0062413Y0105508D01*
X0059864Y0103408D02*
X0056938Y0103408D01*
X0057635Y0101409D02*
X0059339Y0101409D01*
X0059339Y0099411D02*
X0058138Y0099411D01*
X0057500Y0097412D02*
X0059339Y0097412D01*
X0064962Y0103408D02*
X0066951Y0103408D01*
X0066425Y0101409D02*
X0065685Y0101409D01*
X0065506Y0097412D02*
X0066425Y0097412D01*
X0066425Y0107405D02*
X0065988Y0107405D01*
X0065988Y0109403D02*
X0066425Y0109403D01*
X0066425Y0111402D02*
X0065988Y0111402D01*
X0065623Y0113400D02*
X0066971Y0113400D01*
X0062413Y0113400D02*
X0062413Y0113400D01*
X0062413Y0111402D02*
X0062413Y0111402D01*
X0062413Y0109403D02*
X0062413Y0109403D01*
X0075198Y0119396D02*
X0098014Y0119396D01*
X0100946Y0117397D02*
X0077197Y0117397D01*
X0091000Y0105406D02*
X0099010Y0105406D01*
X0098638Y0107405D02*
X0092999Y0107405D01*
X0092288Y0104905D02*
X0091779Y0104769D01*
X0091323Y0104506D01*
X0090951Y0104134D01*
X0090687Y0103677D01*
X0090551Y0103169D01*
X0090551Y0100543D01*
X0090551Y0097918D01*
X0090687Y0097409D01*
X0090951Y0096953D01*
X0091323Y0096581D01*
X0091779Y0096317D01*
X0092288Y0096181D01*
X0094126Y0096181D01*
X0095964Y0096181D01*
X0096473Y0096317D01*
X0096929Y0096581D01*
X0097301Y0096953D01*
X0097564Y0097409D01*
X0097701Y0097918D01*
X0097701Y0100543D01*
X0094126Y0100543D01*
X0094126Y0096181D01*
X0094126Y0100543D01*
X0094126Y0100543D01*
X0094126Y0100543D01*
X0090551Y0100543D01*
X0094126Y0100543D01*
X0094126Y0100543D01*
X0097701Y0100543D01*
X0097701Y0103169D01*
X0097564Y0103677D01*
X0097301Y0104134D01*
X0096929Y0104506D01*
X0096473Y0104769D01*
X0095964Y0104905D01*
X0094126Y0104905D01*
X0092288Y0104905D01*
X0094126Y0104905D02*
X0094126Y0100543D01*
X0094126Y0100543D01*
X0094126Y0104905D01*
X0094126Y0103408D02*
X0094126Y0103408D01*
X0094126Y0101409D02*
X0094126Y0101409D01*
X0094126Y0099411D02*
X0094126Y0099411D01*
X0094126Y0097412D02*
X0094126Y0097412D01*
X0096088Y0095414D02*
X0089228Y0095414D01*
X0089228Y0093415D02*
X0092497Y0093415D01*
X0094521Y0093415D02*
X0094521Y0093415D01*
X0094521Y0091417D02*
X0094521Y0091417D01*
X0094521Y0089418D02*
X0094521Y0089418D01*
X0094521Y0087420D02*
X0094521Y0087420D01*
X0094521Y0085421D02*
X0094521Y0085421D01*
X0092980Y0083423D02*
X0096088Y0083423D01*
X0095417Y0081424D02*
X0091358Y0081424D01*
X0094907Y0079426D02*
X0047520Y0079426D01*
X0045521Y0077427D02*
X0095538Y0077427D01*
X0101238Y0077427D02*
X0112852Y0077427D01*
X0113102Y0075429D02*
X0081453Y0075429D01*
X0089043Y0073430D02*
X0125991Y0073430D01*
X0126141Y0071432D02*
X0125026Y0071432D01*
X0122668Y0071432D02*
X0122668Y0071432D01*
X0122668Y0071574D02*
X0120830Y0071574D01*
X0120321Y0071438D01*
X0119865Y0071175D01*
X0119493Y0070802D01*
X0119229Y0070346D01*
X0119093Y0069838D01*
X0119093Y0067212D01*
X0119093Y0064587D01*
X0119229Y0064078D01*
X0119493Y0063622D01*
X0119865Y0063250D01*
X0120321Y0062986D01*
X0120830Y0062850D01*
X0122668Y0062850D01*
X0122668Y0067212D01*
X0122668Y0067212D01*
X0122668Y0067212D01*
X0119093Y0067212D01*
X0122668Y0067212D01*
X0122668Y0067212D01*
X0122668Y0071574D01*
X0122668Y0069433D02*
X0122668Y0069433D01*
X0122668Y0067434D02*
X0122668Y0067434D01*
X0122668Y0065436D02*
X0122668Y0065436D01*
X0122668Y0063437D02*
X0122668Y0063437D01*
X0121604Y0061439D02*
X0125588Y0061439D01*
X0125604Y0061509D02*
X0125604Y0061509D01*
X0125658Y0063437D02*
X0125749Y0063437D01*
X0125132Y0059440D02*
X0124453Y0059440D01*
X0119677Y0063437D02*
X0117865Y0063437D01*
X0118617Y0061439D02*
X0113188Y0061439D01*
X0113188Y0063437D02*
X0113297Y0063437D01*
X0113188Y0059440D02*
X0115768Y0059440D01*
X0114910Y0057442D02*
X0112082Y0057442D01*
X0110084Y0055443D02*
X0114910Y0055443D01*
X0115741Y0053445D02*
X0108195Y0053445D01*
X0108195Y0051446D02*
X0117402Y0051446D01*
X0115258Y0049448D02*
X0108195Y0049448D01*
X0102045Y0049448D02*
X0100715Y0049448D01*
X0099829Y0055443D02*
X0084094Y0055443D01*
X0082096Y0053445D02*
X0094565Y0053445D01*
X0094565Y0051446D02*
X0081241Y0051446D01*
X0080898Y0049448D02*
X0094565Y0049448D01*
X0099087Y0043452D02*
X0077971Y0043452D01*
X0075972Y0045451D02*
X0114494Y0045451D01*
X0114410Y0046429D02*
X0120110Y0046429D01*
X0120110Y0046429D01*
X0114410Y0046429D01*
X0114501Y0047449D02*
X0074638Y0047449D01*
X0072138Y0045750D02*
X0078388Y0039500D01*
X0084638Y0039500D01*
X0080010Y0033460D02*
X0057848Y0033460D01*
X0059522Y0031461D02*
X0078336Y0031461D01*
X0077678Y0029463D02*
X0060180Y0029463D01*
X0060144Y0027464D02*
X0077715Y0027464D01*
X0084090Y0019470D02*
X0095625Y0019470D01*
X0091475Y0017472D02*
X0083939Y0017472D01*
X0082912Y0015473D02*
X0085898Y0015473D01*
X0092747Y0005481D02*
X0137138Y0005481D01*
X0137138Y0007479D02*
X0097386Y0007479D01*
X0094107Y0005900D02*
X0103387Y0010369D01*
X0111897Y0016171D01*
X0111897Y0016171D01*
X0119447Y0023177D01*
X0125869Y0031230D01*
X0131019Y0040150D01*
X0134782Y0049738D01*
X0137074Y0059780D01*
X0137138Y0060625D01*
X0137138Y0002000D01*
X0078532Y0002000D01*
X0084264Y0002864D01*
X0084264Y0002864D01*
X0094107Y0005900D01*
X0094107Y0005900D01*
X0086268Y0003482D02*
X0137138Y0003482D01*
X0137138Y0009478D02*
X0101536Y0009478D01*
X0105011Y0011476D02*
X0137138Y0011476D01*
X0137138Y0013475D02*
X0107942Y0013475D01*
X0110873Y0015473D02*
X0137138Y0015473D01*
X0137138Y0017472D02*
X0113299Y0017472D01*
X0115452Y0019470D02*
X0137138Y0019470D01*
X0137138Y0021469D02*
X0117606Y0021469D01*
X0119679Y0023467D02*
X0137138Y0023467D01*
X0137138Y0025466D02*
X0121273Y0025466D01*
X0122866Y0027464D02*
X0137138Y0027464D01*
X0137138Y0029463D02*
X0124460Y0029463D01*
X0126003Y0031461D02*
X0137138Y0031461D01*
X0137138Y0033460D02*
X0127157Y0033460D01*
X0128311Y0035458D02*
X0137138Y0035458D01*
X0137138Y0037457D02*
X0129464Y0037457D01*
X0130618Y0039455D02*
X0137138Y0039455D01*
X0137138Y0041454D02*
X0131531Y0041454D01*
X0132315Y0043452D02*
X0137138Y0043452D01*
X0137138Y0045451D02*
X0133100Y0045451D01*
X0133884Y0047449D02*
X0137138Y0047449D01*
X0137138Y0049448D02*
X0134669Y0049448D01*
X0135172Y0051446D02*
X0137138Y0051446D01*
X0137138Y0053445D02*
X0135629Y0053445D01*
X0136085Y0055443D02*
X0137138Y0055443D01*
X0137138Y0057442D02*
X0136541Y0057442D01*
X0136997Y0059440D02*
X0137138Y0059440D01*
X0123378Y0052343D02*
X0122992Y0051358D01*
X0122303Y0051709D01*
X0123056Y0052021D01*
X0123378Y0052343D01*
X0123026Y0051446D02*
X0122819Y0051446D01*
X0115230Y0043452D02*
X0103791Y0043452D01*
X0104514Y0041454D02*
X0117319Y0041454D01*
X0117261Y0039455D02*
X0109632Y0039455D01*
X0110638Y0037457D02*
X0116040Y0037457D01*
X0114446Y0035458D02*
X0110288Y0035458D01*
X0108254Y0033460D02*
X0112852Y0033460D01*
X0111258Y0031461D02*
X0108254Y0031461D01*
X0108041Y0029463D02*
X0109215Y0029463D01*
X0110944Y0031067D02*
X0110944Y0031067D01*
X0105179Y0032069D02*
X0105179Y0032209D01*
X0104888Y0032500D01*
X0102104Y0033460D02*
X0100774Y0033460D01*
X0100774Y0031461D02*
X0102104Y0031461D01*
X0102317Y0029463D02*
X0100560Y0029463D01*
X0103589Y0035458D02*
X0095529Y0035458D01*
X0104628Y0039455D02*
X0104643Y0039455D01*
X0104455Y0061439D02*
X0104838Y0061439D01*
X0103698Y0063437D02*
X0081051Y0063437D01*
X0081453Y0065436D02*
X0095268Y0065436D01*
X0094907Y0067434D02*
X0089241Y0067434D01*
X0089241Y0069433D02*
X0095898Y0069433D01*
X0100878Y0069433D02*
X0112506Y0069433D01*
X0109320Y0067434D02*
X0106206Y0067434D01*
X0108204Y0065436D02*
X0108588Y0065436D01*
X0118656Y0065436D02*
X0119093Y0065436D01*
X0119093Y0067434D02*
X0118656Y0067434D01*
X0118656Y0069433D02*
X0119093Y0069433D01*
X0120310Y0071432D02*
X0089241Y0071432D01*
X0083064Y0061439D02*
X0056212Y0061439D01*
X0056807Y0063437D02*
X0054214Y0063437D01*
X0052215Y0065436D02*
X0056406Y0065436D01*
X0058211Y0059440D02*
X0081065Y0059440D01*
X0079066Y0057442D02*
X0060209Y0057442D01*
X0056655Y0053445D02*
X0044596Y0053445D01*
X0042597Y0051446D02*
X0056655Y0051446D01*
X0057035Y0049448D02*
X0042516Y0049448D01*
X0043138Y0047449D02*
X0059074Y0047449D01*
X0062103Y0043452D02*
X0070900Y0043452D01*
X0069638Y0045451D02*
X0064102Y0045451D01*
X0066100Y0047449D02*
X0069638Y0047449D01*
X0072138Y0045750D02*
X0072138Y0052000D01*
X0072898Y0041454D02*
X0044743Y0041454D01*
X0044638Y0044500D02*
X0039638Y0040750D01*
X0035686Y0040750D01*
X0035120Y0040184D01*
X0037861Y0037457D02*
X0042645Y0037457D01*
X0042078Y0039455D02*
X0074897Y0039455D01*
X0076895Y0037457D02*
X0046631Y0037457D01*
X0044638Y0044500D02*
X0049638Y0044500D01*
X0039138Y0043500D02*
X0038804Y0043250D01*
X0037522Y0043250D01*
X0037316Y0043456D01*
X0037224Y0043456D01*
X0038051Y0043869D01*
X0038942Y0043500D01*
X0039138Y0043500D01*
X0039074Y0043452D02*
X0037320Y0043452D01*
X0036366Y0049448D02*
X0035035Y0049448D01*
X0035035Y0051446D02*
X0036366Y0051446D01*
X0036366Y0053445D02*
X0035035Y0053445D01*
X0034228Y0055443D02*
X0039568Y0055443D01*
X0038776Y0057442D02*
X0041138Y0057442D01*
X0040591Y0059440D02*
X0042129Y0059440D01*
X0042590Y0061439D02*
X0049186Y0061439D01*
X0051184Y0059440D02*
X0047147Y0059440D01*
X0048138Y0057442D02*
X0053183Y0057442D01*
X0055181Y0055443D02*
X0047781Y0055443D01*
X0030047Y0055443D02*
X0022948Y0055443D01*
X0022118Y0053445D02*
X0028886Y0053445D01*
X0030047Y0057442D02*
X0022948Y0057442D01*
X0022091Y0059440D02*
X0030047Y0059440D01*
X0013386Y0063437D02*
X0012110Y0063437D01*
X0011960Y0065436D02*
X0012548Y0065436D01*
X0012548Y0067434D02*
X0011810Y0067434D01*
X0011660Y0069433D02*
X0013398Y0069433D01*
X0013356Y0083423D02*
X0013401Y0083423D01*
X0002138Y0086255D02*
X0003076Y0090364D01*
X0003076Y0090364D01*
X0006839Y0099952D01*
X0006839Y0099952D01*
X0011989Y0108872D01*
X0011989Y0108872D01*
X0018411Y0116925D01*
X0018411Y0116925D01*
X0025961Y0123931D01*
X0025961Y0123931D01*
X0034472Y0129733D01*
X0034472Y0129733D01*
X0043752Y0134202D01*
X0044717Y0134500D01*
X0002138Y0134500D01*
X0002138Y0086255D01*
X0002138Y0087420D02*
X0002404Y0087420D01*
X0002138Y0089418D02*
X0002860Y0089418D01*
X0003489Y0091417D02*
X0002138Y0091417D01*
X0002138Y0093415D02*
X0004273Y0093415D01*
X0005058Y0095414D02*
X0002138Y0095414D01*
X0002138Y0097412D02*
X0005842Y0097412D01*
X0006626Y0099411D02*
X0002138Y0099411D01*
X0002138Y0101409D02*
X0007680Y0101409D01*
X0008834Y0103408D02*
X0002138Y0103408D01*
X0002138Y0105406D02*
X0009988Y0105406D01*
X0011142Y0107405D02*
X0002138Y0107405D01*
X0002138Y0109403D02*
X0012412Y0109403D01*
X0014006Y0111402D02*
X0002138Y0111402D01*
X0002138Y0113400D02*
X0015600Y0113400D01*
X0017193Y0115399D02*
X0002138Y0115399D01*
X0002138Y0117397D02*
X0018920Y0117397D01*
X0021073Y0119396D02*
X0002138Y0119396D01*
X0002138Y0121394D02*
X0023227Y0121394D01*
X0025381Y0123393D02*
X0002138Y0123393D01*
X0002138Y0125391D02*
X0028103Y0125391D01*
X0031034Y0127390D02*
X0002138Y0127390D01*
X0002138Y0129388D02*
X0033966Y0129388D01*
X0037905Y0131387D02*
X0002138Y0131387D01*
X0002138Y0133385D02*
X0042055Y0133385D01*
X0043752Y0134202D02*
X0043752Y0134202D01*
X0089228Y0103408D02*
X0090615Y0103408D01*
X0090551Y0101409D02*
X0089228Y0101409D01*
X0089228Y0099411D02*
X0090551Y0099411D01*
X0090687Y0097412D02*
X0089228Y0097412D01*
X0089228Y0091417D02*
X0090946Y0091417D01*
X0090946Y0089418D02*
X0089228Y0089418D01*
X0085047Y0089418D02*
X0084506Y0089418D01*
X0085047Y0087420D02*
X0081278Y0087420D01*
X0081278Y0085421D02*
X0085760Y0085421D01*
X0097565Y0097412D02*
X0098047Y0097412D01*
X0098138Y0099411D02*
X0097701Y0099411D01*
X0097701Y0101409D02*
X0098138Y0101409D01*
X0098138Y0103408D02*
X0097637Y0103408D01*
X0104228Y0103586D02*
X0104228Y0104141D01*
X0105105Y0105017D01*
X0105638Y0106304D01*
X0105638Y0107696D01*
X0105105Y0108983D01*
X0104305Y0109782D01*
X0104819Y0110296D01*
X0104819Y0114719D01*
X0110944Y0109035D01*
X0116285Y0102338D01*
X0118039Y0099300D01*
X0108685Y0099300D01*
X0107435Y0098050D01*
X0104287Y0098050D01*
X0104287Y0101485D01*
X0104367Y0101610D01*
X0104287Y0101966D01*
X0104287Y0103527D01*
X0104228Y0103586D01*
X0104287Y0103408D02*
X0115432Y0103408D01*
X0116821Y0101409D02*
X0104287Y0101409D01*
X0104287Y0099411D02*
X0117975Y0099411D01*
X0119970Y0093415D02*
X0115340Y0093415D01*
X0118441Y0091417D02*
X0120752Y0091417D01*
X0120065Y0089418D02*
X0119128Y0089418D01*
X0119228Y0087420D02*
X0120065Y0087420D01*
X0120065Y0085421D02*
X0119228Y0085421D01*
X0119228Y0083423D02*
X0124502Y0083423D01*
X0123014Y0083024D02*
X0121176Y0083024D01*
X0120667Y0082888D01*
X0120211Y0082625D01*
X0119839Y0082252D01*
X0119575Y0081796D01*
X0119439Y0081288D01*
X0119439Y0078662D01*
X0119439Y0076037D01*
X0119575Y0075528D01*
X0119839Y0075072D01*
X0120211Y0074700D01*
X0120667Y0074436D01*
X0121176Y0074300D01*
X0123014Y0074300D01*
X0123014Y0078662D01*
X0123014Y0078662D01*
X0123014Y0078662D01*
X0119439Y0078662D01*
X0123014Y0078662D01*
X0123014Y0078662D01*
X0123014Y0083024D01*
X0123014Y0081424D02*
X0123014Y0081424D01*
X0123014Y0079426D02*
X0123014Y0079426D01*
X0123014Y0077427D02*
X0123014Y0077427D01*
X0123014Y0075429D02*
X0123014Y0075429D01*
X0119633Y0075429D02*
X0118752Y0075429D01*
X0119002Y0077427D02*
X0119439Y0077427D01*
X0119439Y0079426D02*
X0119249Y0079426D01*
X0119228Y0081424D02*
X0119476Y0081424D01*
X0115047Y0083423D02*
X0107980Y0083423D01*
X0108045Y0085421D02*
X0112979Y0085421D01*
X0112979Y0087420D02*
X0106668Y0087420D01*
X0104683Y0089418D02*
X0109770Y0089418D01*
X0108638Y0091417D02*
X0104683Y0091417D01*
X0100688Y0093415D02*
X0108936Y0093415D01*
X0101296Y0083423D02*
X0100688Y0083423D01*
X0101359Y0081424D02*
X0102918Y0081424D01*
X0101869Y0079426D02*
X0112852Y0079426D01*
X0112852Y0081424D02*
X0106358Y0081424D01*
X0129024Y0103408D02*
X0137138Y0103408D01*
X0137138Y0101409D02*
X0130178Y0101409D01*
X0131019Y0099952D02*
X0125869Y0108872D01*
X0119447Y0116925D01*
X0111897Y0123931D01*
X0111897Y0123931D01*
X0103387Y0129733D01*
X0103387Y0129733D01*
X0094107Y0134202D01*
X0094107Y0134202D01*
X0093142Y0134500D01*
X0137138Y0134500D01*
X0137138Y0079477D01*
X0137074Y0080322D01*
X0134782Y0090364D01*
X0131019Y0099952D01*
X0131232Y0099411D02*
X0137138Y0099411D01*
X0137138Y0097412D02*
X0132016Y0097412D01*
X0132801Y0095414D02*
X0137138Y0095414D01*
X0137138Y0093415D02*
X0133585Y0093415D01*
X0134369Y0091417D02*
X0137138Y0091417D01*
X0137138Y0089418D02*
X0134998Y0089418D01*
X0135455Y0087420D02*
X0137138Y0087420D01*
X0137138Y0085421D02*
X0135911Y0085421D01*
X0136367Y0083423D02*
X0137138Y0083423D01*
X0137138Y0081424D02*
X0136823Y0081424D01*
X0137138Y0105406D02*
X0127871Y0105406D01*
X0126717Y0107405D02*
X0137138Y0107405D01*
X0137138Y0109403D02*
X0125446Y0109403D01*
X0125869Y0108872D02*
X0125869Y0108872D01*
X0123852Y0111402D02*
X0137138Y0111402D01*
X0137138Y0113400D02*
X0122259Y0113400D01*
X0120665Y0115399D02*
X0137138Y0115399D01*
X0137138Y0117397D02*
X0118939Y0117397D01*
X0116785Y0119396D02*
X0137138Y0119396D01*
X0137138Y0121394D02*
X0114631Y0121394D01*
X0112477Y0123393D02*
X0137138Y0123393D01*
X0137138Y0125391D02*
X0109755Y0125391D01*
X0106824Y0127390D02*
X0137138Y0127390D01*
X0137138Y0129388D02*
X0103893Y0129388D01*
X0099953Y0131387D02*
X0137138Y0131387D01*
X0137138Y0133385D02*
X0095803Y0133385D01*
X0097732Y0115399D02*
X0098669Y0115399D01*
X0098669Y0113400D02*
X0097732Y0113400D01*
X0097732Y0111402D02*
X0098669Y0111402D01*
X0099591Y0109403D02*
X0094998Y0109403D01*
X0104684Y0109403D02*
X0110547Y0109403D01*
X0110944Y0109035D02*
X0110944Y0109035D01*
X0112244Y0107405D02*
X0105638Y0107405D01*
X0105266Y0105406D02*
X0113838Y0105406D01*
X0108394Y0111402D02*
X0104819Y0111402D01*
X0104819Y0113400D02*
X0106240Y0113400D01*
X0035846Y0029463D02*
X0034394Y0029463D01*
X0030797Y0027464D02*
X0048556Y0027464D01*
X0049383Y0025466D02*
X0032951Y0025466D01*
X0035795Y0023467D02*
X0051777Y0023467D01*
X0054917Y0021469D02*
X0038726Y0021469D01*
X0042233Y0019470D02*
X0054240Y0019470D01*
X0054420Y0017472D02*
X0046383Y0017472D01*
X0051961Y0015473D02*
X0055630Y0015473D01*
X0056923Y0023467D02*
X0057521Y0023467D01*
D19*
X0039638Y0047000D02*
X0032138Y0043250D01*
X0032138Y0032000D01*
X0031961Y0051203D02*
X0032138Y0052000D01*
X0032138Y0067000D01*
X0064638Y0099500D01*
X0062138Y0102000D01*
X0062413Y0099898D01*
X0069500Y0099898D02*
X0069638Y0102000D01*
X0077138Y0109500D01*
X0077138Y0112000D01*
X0077138Y0114500D01*
X0072138Y0119500D01*
X0069638Y0119500D01*
X0069283Y0121147D01*
X0064638Y0117000D02*
X0064035Y0116785D01*
X0059638Y0124500D02*
X0060359Y0125509D01*
X0034539Y0109264D02*
X0034638Y0108250D01*
X0034638Y0102000D01*
X0034539Y0099707D01*
X0034638Y0099500D01*
X0027138Y0092000D01*
X0027138Y0072000D01*
X0037868Y0096270D02*
X0037138Y0097000D01*
X0041626Y0099500D02*
X0042138Y0099500D01*
X0087138Y0104500D02*
X0087138Y0087000D01*
X0089638Y0084500D01*
X0101213Y0100543D02*
X0102138Y0102000D01*
X0102138Y0107000D01*
X0102138Y0112000D01*
X0101744Y0113280D01*
X0094657Y0113280D02*
X0094638Y0112000D01*
X0087138Y0104500D01*
X0112138Y0092000D02*
X0114638Y0089500D01*
X0116054Y0087746D01*
X0117138Y0087000D01*
X0117138Y0079500D01*
X0115927Y0078662D01*
X0092138Y0034500D02*
X0097138Y0032000D01*
X0097699Y0032069D01*
D20*
X0092138Y0034500D03*
X0107138Y0037000D03*
X0104638Y0084500D03*
X0112138Y0092000D03*
X0102138Y0107000D03*
X0082138Y0092000D03*
X0089638Y0084500D03*
X0077138Y0112000D03*
X0072138Y0114500D03*
X0054638Y0099500D03*
X0034638Y0079500D03*
X0027138Y0072000D03*
X0044638Y0057000D03*
X0039638Y0047000D03*
X0044638Y0034500D03*
D21*
X0039638Y0030750D01*
X0038860Y0031916D01*
X0049638Y0044500D02*
X0059638Y0044500D01*
X0067138Y0052000D01*
X0066019Y0052733D01*
X0071877Y0052733D02*
X0072138Y0052000D01*
X0077772Y0052695D02*
X0079638Y0054500D01*
X0084638Y0059500D01*
X0102138Y0059500D01*
X0101380Y0059392D01*
X0101439Y0040337D02*
X0102138Y0039500D01*
X0084638Y0039500D01*
X0104638Y0032000D02*
X0104888Y0032500D01*
X0107138Y0037000D01*
X0104638Y0084500D02*
X0102138Y0087000D01*
X0101608Y0089103D01*
X0082138Y0092000D02*
X0079638Y0089500D01*
X0077810Y0087407D01*
X0077138Y0087000D01*
X0072138Y0087000D01*
X0071840Y0087407D01*
X0072138Y0087000D02*
X0067138Y0087000D01*
X0066019Y0087407D01*
X0064638Y0087000D01*
X0059638Y0087000D01*
X0060109Y0087453D01*
X0069500Y0109870D02*
X0069638Y0112000D01*
X0072138Y0114500D01*
X0034008Y0085740D02*
X0034638Y0084500D01*
X0034638Y0079500D01*
X0042138Y0064500D02*
X0049638Y0064500D01*
X0059638Y0054500D01*
X0060123Y0052733D01*
X0044638Y0057000D02*
X0039638Y0052000D01*
X0039441Y0051203D01*
X0037138Y0059500D02*
X0035701Y0059470D01*
X0037138Y0059500D02*
X0042138Y0064500D01*
D22*
X0054638Y0099500D02*
X0054638Y0108250D01*
X0053388Y0109500D01*
X0041862Y0109500D01*
X0041626Y0109264D01*
X0098388Y0094500D02*
X0098388Y0079500D01*
X0098388Y0067000D02*
X0103388Y0067000D01*
X0107138Y0063250D01*
X0107138Y0059500D01*
X0098762Y0051124D01*
X0097640Y0051124D01*
X0105120Y0051124D02*
X0105120Y0053732D01*
X0110888Y0059500D01*
X0110888Y0065750D01*
X0112138Y0067000D01*
X0115369Y0067000D01*
X0115581Y0067212D01*
X0123140Y0087746D02*
X0123388Y0087994D01*
X0123388Y0093250D01*
X0119638Y0097000D01*
X0109638Y0097000D01*
X0108388Y0095750D01*
X0099638Y0095750D01*
X0098388Y0094500D01*
D23*
X0098388Y0079500D03*
X0098388Y0067000D03*
M02*
