G75*
%MOIN*%
%OFA0B0*%
%FSLAX25Y25*%
%IPPOS*%
%LPD*%
%AMOC8*
5,1,8,0,0,1.08239X$1,22.5*
%
%ADD10R,0.03150X0.03543*%
%ADD11R,0.03150X0.04724*%
%ADD12C,0.07400*%
%ADD13C,0.08661*%
%ADD14C,0.06693*%
%ADD15C,0.02362*%
%ADD16C,0.01600*%
%ADD17C,0.01181*%
%ADD18C,0.04000*%
%ADD19C,0.01969*%
%ADD20C,0.01200*%
%ADD21C,0.03962*%
D10*
X0058178Y0057322D03*
X0065658Y0057322D03*
X0061918Y0065589D03*
X0081022Y0043803D03*
X0077282Y0035535D03*
X0084763Y0035535D03*
X0096357Y0035688D03*
X0103837Y0035688D03*
X0100097Y0043956D03*
X0119920Y0057243D03*
X0127400Y0057243D03*
X0123660Y0065511D03*
D11*
X0130739Y0103726D03*
X0137825Y0103726D03*
X0151798Y0103646D03*
X0158885Y0103646D03*
X0159231Y0120096D03*
X0152144Y0120096D03*
X0152271Y0134180D03*
X0159357Y0134180D03*
X0137961Y0133965D03*
X0130875Y0133965D03*
X0130343Y0120166D03*
X0137430Y0120166D03*
X0056780Y0119330D03*
X0049694Y0119330D03*
X0036446Y0119392D03*
X0029359Y0119392D03*
X0029576Y0133576D03*
X0036662Y0133576D03*
X0049694Y0133700D03*
X0056780Y0133700D03*
X0056249Y0104300D03*
X0049162Y0104300D03*
X0036662Y0104178D03*
X0029576Y0104178D03*
D12*
X0043965Y0072863D03*
X0043965Y0062863D03*
X0043965Y0052863D03*
X0043965Y0042863D03*
X0043965Y0032863D03*
X0146328Y0032863D03*
X0146328Y0042863D03*
D13*
X0109726Y0164753D03*
X0080567Y0164753D03*
D14*
X0085304Y0174595D03*
X0104989Y0174595D03*
D15*
X0095343Y0139359D02*
X0095343Y0126367D01*
X0088257Y0126367D01*
X0088257Y0139359D01*
X0095343Y0139359D01*
X0095343Y0128728D02*
X0088257Y0128728D01*
X0088257Y0131089D02*
X0095343Y0131089D01*
X0095343Y0133450D02*
X0088257Y0133450D01*
X0088257Y0135811D02*
X0095343Y0135811D01*
X0095343Y0138172D02*
X0088257Y0138172D01*
X0083257Y0094359D02*
X0083257Y0081367D01*
X0083257Y0094359D02*
X0090343Y0094359D01*
X0090343Y0081367D01*
X0083257Y0081367D01*
X0083257Y0083728D02*
X0090343Y0083728D01*
X0090343Y0086089D02*
X0083257Y0086089D01*
X0083257Y0088450D02*
X0090343Y0088450D01*
X0090343Y0090811D02*
X0083257Y0090811D01*
X0083257Y0093172D02*
X0090343Y0093172D01*
X0105343Y0094359D02*
X0105343Y0081367D01*
X0098257Y0081367D01*
X0098257Y0094359D01*
X0105343Y0094359D01*
X0105343Y0083728D02*
X0098257Y0083728D01*
X0098257Y0086089D02*
X0105343Y0086089D01*
X0105343Y0088450D02*
X0098257Y0088450D01*
X0098257Y0090811D02*
X0105343Y0090811D01*
X0105343Y0093172D02*
X0098257Y0093172D01*
X0120343Y0094359D02*
X0120343Y0081367D01*
X0113257Y0081367D01*
X0113257Y0094359D01*
X0120343Y0094359D01*
X0120343Y0083728D02*
X0113257Y0083728D01*
X0113257Y0086089D02*
X0120343Y0086089D01*
X0120343Y0088450D02*
X0113257Y0088450D01*
X0113257Y0090811D02*
X0120343Y0090811D01*
X0120343Y0093172D02*
X0113257Y0093172D01*
X0068257Y0094359D02*
X0068257Y0081367D01*
X0068257Y0094359D02*
X0075343Y0094359D01*
X0075343Y0081367D01*
X0068257Y0081367D01*
X0068257Y0083728D02*
X0075343Y0083728D01*
X0075343Y0086089D02*
X0068257Y0086089D01*
X0068257Y0088450D02*
X0075343Y0088450D01*
X0075343Y0090811D02*
X0068257Y0090811D01*
X0068257Y0093172D02*
X0075343Y0093172D01*
D16*
X0001800Y0072321D02*
X0001800Y0003050D01*
X0070162Y0003050D01*
X0065390Y0004275D01*
X0065390Y0004275D01*
X0054147Y0008727D01*
X0054147Y0008727D01*
X0043550Y0014552D01*
X0043550Y0014552D01*
X0033767Y0021660D01*
X0033767Y0021660D01*
X0024952Y0029938D01*
X0024952Y0029938D01*
X0024952Y0029938D01*
X0017244Y0039256D01*
X0017244Y0039256D01*
X0010764Y0049466D01*
X0010764Y0049466D01*
X0005616Y0060407D01*
X0005616Y0060407D01*
X0001879Y0071908D01*
X0001800Y0072321D01*
X0001879Y0071908D02*
X0001879Y0071908D01*
X0001800Y0071227D02*
X0002100Y0071227D01*
X0001800Y0069629D02*
X0002619Y0069629D01*
X0003139Y0068030D02*
X0001800Y0068030D01*
X0001800Y0066432D02*
X0003658Y0066432D01*
X0004178Y0064833D02*
X0001800Y0064833D01*
X0001800Y0063235D02*
X0004697Y0063235D01*
X0005216Y0061636D02*
X0001800Y0061636D01*
X0001800Y0060038D02*
X0005790Y0060038D01*
X0006542Y0058439D02*
X0001800Y0058439D01*
X0001800Y0056841D02*
X0007294Y0056841D01*
X0008046Y0055242D02*
X0001800Y0055242D01*
X0001800Y0053644D02*
X0008798Y0053644D01*
X0009551Y0052045D02*
X0001800Y0052045D01*
X0001800Y0050447D02*
X0010303Y0050447D01*
X0011156Y0048848D02*
X0001800Y0048848D01*
X0001800Y0047250D02*
X0012171Y0047250D01*
X0013185Y0045651D02*
X0001800Y0045651D01*
X0001800Y0044053D02*
X0014200Y0044053D01*
X0015214Y0042454D02*
X0001800Y0042454D01*
X0001800Y0040856D02*
X0016229Y0040856D01*
X0017243Y0039257D02*
X0001800Y0039257D01*
X0001800Y0037659D02*
X0018565Y0037659D01*
X0019887Y0036060D02*
X0001800Y0036060D01*
X0001800Y0034462D02*
X0021210Y0034462D01*
X0022532Y0032863D02*
X0001800Y0032863D01*
X0001800Y0031264D02*
X0023855Y0031264D01*
X0025242Y0029666D02*
X0001800Y0029666D01*
X0001800Y0028067D02*
X0026944Y0028067D01*
X0028646Y0026469D02*
X0001800Y0026469D01*
X0001800Y0024870D02*
X0030348Y0024870D01*
X0032051Y0023272D02*
X0001800Y0023272D01*
X0001800Y0021673D02*
X0033753Y0021673D01*
X0035949Y0020075D02*
X0001800Y0020075D01*
X0001800Y0018476D02*
X0038149Y0018476D01*
X0040349Y0016878D02*
X0001800Y0016878D01*
X0001800Y0015279D02*
X0042549Y0015279D01*
X0045135Y0013681D02*
X0001800Y0013681D01*
X0001800Y0012082D02*
X0048043Y0012082D01*
X0050951Y0010484D02*
X0001800Y0010484D01*
X0001800Y0008885D02*
X0053858Y0008885D01*
X0057784Y0007287D02*
X0001800Y0007287D01*
X0001800Y0005688D02*
X0061821Y0005688D01*
X0066112Y0004090D02*
X0001800Y0004090D01*
X0032825Y0037331D02*
X0025981Y0045604D01*
X0020228Y0054669D01*
X0015657Y0064383D01*
X0012339Y0074594D01*
X0010328Y0085140D01*
X0009654Y0095855D01*
X0010328Y0106570D01*
X0012339Y0117116D01*
X0015657Y0127327D01*
X0020228Y0137042D01*
X0025981Y0146107D01*
X0032825Y0154379D01*
X0040651Y0161729D01*
X0049337Y0168039D01*
X0058745Y0173211D01*
X0068728Y0177164D01*
X0079127Y0179834D01*
X0089778Y0181179D01*
X0100515Y0181179D01*
X0111166Y0179834D01*
X0121565Y0177164D01*
X0131548Y0173211D01*
X0140956Y0168039D01*
X0149642Y0161729D01*
X0157468Y0154379D01*
X0164312Y0146107D01*
X0170064Y0137042D01*
X0174636Y0127327D01*
X0177953Y0117116D01*
X0179965Y0106570D01*
X0180639Y0095855D01*
X0179965Y0085140D01*
X0177953Y0074594D01*
X0174636Y0064383D01*
X0170064Y0054669D01*
X0164312Y0045604D01*
X0157468Y0037331D01*
X0151754Y0031965D01*
X0151828Y0032430D01*
X0151828Y0032663D01*
X0146528Y0032663D01*
X0146528Y0033063D01*
X0151828Y0033063D01*
X0151828Y0033296D01*
X0151692Y0034151D01*
X0151425Y0034974D01*
X0151032Y0035746D01*
X0150523Y0036446D01*
X0149911Y0037058D01*
X0149210Y0037567D01*
X0148629Y0037863D01*
X0149443Y0038200D01*
X0150990Y0039747D01*
X0151828Y0041769D01*
X0151828Y0043957D01*
X0150990Y0045978D01*
X0149443Y0047526D01*
X0147422Y0048363D01*
X0145234Y0048363D01*
X0143212Y0047526D01*
X0141665Y0045978D01*
X0140828Y0043957D01*
X0140828Y0041769D01*
X0141665Y0039747D01*
X0143212Y0038200D01*
X0144026Y0037863D01*
X0143445Y0037567D01*
X0142745Y0037058D01*
X0142132Y0036446D01*
X0141624Y0035746D01*
X0141231Y0034974D01*
X0140963Y0034151D01*
X0140828Y0033296D01*
X0140828Y0033063D01*
X0146127Y0033063D01*
X0146127Y0032663D01*
X0140828Y0032663D01*
X0140828Y0032430D01*
X0140963Y0031575D01*
X0141231Y0030752D01*
X0141624Y0029980D01*
X0142132Y0029280D01*
X0142745Y0028668D01*
X0143445Y0028159D01*
X0144216Y0027766D01*
X0145040Y0027498D01*
X0145895Y0027363D01*
X0146037Y0027363D01*
X0140956Y0023671D01*
X0131548Y0018499D01*
X0121565Y0014547D01*
X0111166Y0011877D01*
X0100515Y0010531D01*
X0089778Y0010531D01*
X0079127Y0011877D01*
X0068728Y0014547D01*
X0058745Y0018499D01*
X0049337Y0023671D01*
X0044256Y0027363D01*
X0045059Y0027363D01*
X0047081Y0028200D01*
X0048628Y0029747D01*
X0049465Y0031769D01*
X0049465Y0033957D01*
X0048628Y0035978D01*
X0047081Y0037526D01*
X0046266Y0037863D01*
X0047081Y0038200D01*
X0048628Y0039747D01*
X0049465Y0041769D01*
X0049465Y0043957D01*
X0048628Y0045978D01*
X0047081Y0047526D01*
X0046266Y0047863D01*
X0047081Y0048200D01*
X0048628Y0049747D01*
X0049465Y0051769D01*
X0049465Y0053957D01*
X0048628Y0055978D01*
X0047081Y0057526D01*
X0046266Y0057863D01*
X0047081Y0058200D01*
X0048628Y0059747D01*
X0049465Y0061769D01*
X0049465Y0062253D01*
X0049773Y0061509D01*
X0050446Y0060836D01*
X0054790Y0056493D01*
X0054799Y0056472D01*
X0054803Y0056467D01*
X0054803Y0054804D01*
X0055858Y0053750D01*
X0060498Y0053750D01*
X0061553Y0054804D01*
X0061553Y0056673D01*
X0061953Y0056272D01*
X0061961Y0056254D01*
X0062283Y0055940D01*
X0062283Y0054804D01*
X0063338Y0053750D01*
X0067979Y0053750D01*
X0069033Y0054804D01*
X0069033Y0059839D01*
X0067979Y0060893D01*
X0065207Y0060893D01*
X0064083Y0062018D01*
X0064238Y0062018D01*
X0064800Y0062579D01*
X0072354Y0062579D01*
X0073377Y0063003D01*
X0074160Y0063786D01*
X0074584Y0064809D01*
X0074584Y0078386D01*
X0075936Y0078386D01*
X0077032Y0078840D01*
X0077871Y0079678D01*
X0078324Y0080774D01*
X0078324Y0094952D01*
X0077871Y0096048D01*
X0077032Y0096886D01*
X0075936Y0097340D01*
X0067664Y0097340D01*
X0066568Y0096886D01*
X0065729Y0096048D01*
X0065276Y0094952D01*
X0065276Y0080774D01*
X0065729Y0079678D01*
X0066568Y0078840D01*
X0067664Y0078386D01*
X0069016Y0078386D01*
X0069016Y0068147D01*
X0065252Y0068147D01*
X0064238Y0069161D01*
X0059598Y0069161D01*
X0058543Y0068107D01*
X0058543Y0067557D01*
X0057084Y0069016D01*
X0057084Y0085917D01*
X0056660Y0086940D01*
X0040037Y0103563D01*
X0040037Y0107286D01*
X0038983Y0108341D01*
X0034342Y0108341D01*
X0033287Y0107286D01*
X0033287Y0101071D01*
X0034342Y0100016D01*
X0035709Y0100016D01*
X0051516Y0084210D01*
X0051516Y0081528D01*
X0036327Y0096717D01*
X0035654Y0097390D01*
X0034776Y0097754D01*
X0024191Y0097754D01*
X0024191Y0121873D01*
X0030654Y0128336D01*
X0031327Y0129009D01*
X0031494Y0129414D01*
X0031896Y0129414D01*
X0032950Y0130469D01*
X0032950Y0136684D01*
X0031896Y0137739D01*
X0027255Y0137739D01*
X0026201Y0136684D01*
X0026201Y0130645D01*
X0019773Y0124217D01*
X0019409Y0123338D01*
X0019409Y0094887D01*
X0019773Y0094009D01*
X0020446Y0093336D01*
X0021324Y0092972D01*
X0033310Y0092972D01*
X0049409Y0076873D01*
X0049409Y0074092D01*
X0048628Y0075978D01*
X0047081Y0077526D01*
X0045059Y0078363D01*
X0042871Y0078363D01*
X0040850Y0077526D01*
X0039303Y0075978D01*
X0038465Y0073957D01*
X0038465Y0071769D01*
X0039303Y0069747D01*
X0040850Y0068200D01*
X0041664Y0067863D01*
X0040850Y0067526D01*
X0039303Y0065978D01*
X0038465Y0063957D01*
X0038465Y0061769D01*
X0039303Y0059747D01*
X0040850Y0058200D01*
X0041664Y0057863D01*
X0040850Y0057526D01*
X0039303Y0055978D01*
X0038465Y0053957D01*
X0038465Y0051769D01*
X0039303Y0049747D01*
X0040850Y0048200D01*
X0041664Y0047863D01*
X0040850Y0047526D01*
X0039303Y0045978D01*
X0038465Y0043957D01*
X0038465Y0041769D01*
X0039303Y0039747D01*
X0040850Y0038200D01*
X0041664Y0037863D01*
X0040850Y0037526D01*
X0039303Y0035978D01*
X0038465Y0033957D01*
X0038465Y0032034D01*
X0032825Y0037331D01*
X0032554Y0037659D02*
X0041171Y0037659D01*
X0039793Y0039257D02*
X0031232Y0039257D01*
X0029909Y0040856D02*
X0038844Y0040856D01*
X0038465Y0042454D02*
X0028587Y0042454D01*
X0027264Y0044053D02*
X0038505Y0044053D01*
X0039167Y0045651D02*
X0025951Y0045651D01*
X0024937Y0047250D02*
X0040574Y0047250D01*
X0040202Y0048848D02*
X0023922Y0048848D01*
X0022908Y0050447D02*
X0039013Y0050447D01*
X0038465Y0052045D02*
X0021893Y0052045D01*
X0020879Y0053644D02*
X0038465Y0053644D01*
X0038998Y0055242D02*
X0019959Y0055242D01*
X0019206Y0056841D02*
X0040165Y0056841D01*
X0040611Y0058439D02*
X0018454Y0058439D01*
X0017702Y0060038D02*
X0039182Y0060038D01*
X0038520Y0061636D02*
X0016950Y0061636D01*
X0016198Y0063235D02*
X0038465Y0063235D01*
X0038828Y0064833D02*
X0015511Y0064833D01*
X0014992Y0066432D02*
X0039756Y0066432D01*
X0041260Y0068030D02*
X0014472Y0068030D01*
X0013953Y0069629D02*
X0039421Y0069629D01*
X0038690Y0071227D02*
X0013433Y0071227D01*
X0012914Y0072826D02*
X0038465Y0072826D01*
X0038659Y0074424D02*
X0012395Y0074424D01*
X0012067Y0076023D02*
X0039347Y0076023D01*
X0041081Y0077621D02*
X0011762Y0077621D01*
X0011457Y0079220D02*
X0047062Y0079220D01*
X0046850Y0077621D02*
X0048661Y0077621D01*
X0048584Y0076023D02*
X0049409Y0076023D01*
X0049409Y0074424D02*
X0049272Y0074424D01*
X0049409Y0071634D02*
X0049409Y0064092D01*
X0048628Y0065978D01*
X0047081Y0067526D01*
X0046266Y0067863D01*
X0047081Y0068200D01*
X0048628Y0069747D01*
X0049409Y0071634D01*
X0049409Y0071227D02*
X0049241Y0071227D01*
X0049409Y0069629D02*
X0048509Y0069629D01*
X0049409Y0068030D02*
X0046670Y0068030D01*
X0048175Y0066432D02*
X0049409Y0066432D01*
X0049409Y0064833D02*
X0049102Y0064833D01*
X0049410Y0061636D02*
X0049721Y0061636D01*
X0048748Y0060038D02*
X0051245Y0060038D01*
X0052843Y0058439D02*
X0047320Y0058439D01*
X0047766Y0056841D02*
X0054442Y0056841D01*
X0054803Y0055242D02*
X0048933Y0055242D01*
X0049465Y0053644D02*
X0079016Y0053644D01*
X0079016Y0055242D02*
X0069033Y0055242D01*
X0069033Y0056841D02*
X0079016Y0056841D01*
X0079016Y0058439D02*
X0069033Y0058439D01*
X0068834Y0060038D02*
X0079016Y0060038D01*
X0079016Y0061636D02*
X0064464Y0061636D01*
X0058543Y0068030D02*
X0058070Y0068030D01*
X0057084Y0069629D02*
X0069016Y0069629D01*
X0069016Y0071227D02*
X0057084Y0071227D01*
X0057084Y0072826D02*
X0069016Y0072826D01*
X0069016Y0074424D02*
X0057084Y0074424D01*
X0057084Y0076023D02*
X0069016Y0076023D01*
X0069016Y0077621D02*
X0057084Y0077621D01*
X0057084Y0079220D02*
X0066188Y0079220D01*
X0065276Y0080818D02*
X0057084Y0080818D01*
X0057084Y0082417D02*
X0065276Y0082417D01*
X0065276Y0084015D02*
X0057084Y0084015D01*
X0057084Y0085614D02*
X0065276Y0085614D01*
X0065276Y0087212D02*
X0056388Y0087212D01*
X0054790Y0088811D02*
X0065276Y0088811D01*
X0065276Y0090409D02*
X0053191Y0090409D01*
X0051593Y0092008D02*
X0065276Y0092008D01*
X0065276Y0093606D02*
X0049994Y0093606D01*
X0051584Y0095205D02*
X0048396Y0095205D01*
X0046797Y0096803D02*
X0050626Y0096803D01*
X0050500Y0097107D02*
X0051079Y0095710D01*
X0052147Y0094642D01*
X0053544Y0094063D01*
X0055056Y0094063D01*
X0056453Y0094642D01*
X0057521Y0095710D01*
X0058100Y0097107D01*
X0058100Y0098619D01*
X0057521Y0100016D01*
X0057399Y0100138D01*
X0058061Y0100138D01*
X0058518Y0100260D01*
X0058929Y0100497D01*
X0059264Y0100833D01*
X0059501Y0101243D01*
X0059624Y0101701D01*
X0059624Y0104300D01*
X0059624Y0106899D01*
X0059501Y0107357D01*
X0059264Y0107767D01*
X0058929Y0108103D01*
X0058518Y0108340D01*
X0058061Y0108462D01*
X0056249Y0108462D01*
X0056249Y0104300D01*
X0059624Y0104300D01*
X0056249Y0104300D01*
X0056249Y0104300D01*
X0056249Y0104300D01*
X0056249Y0108462D01*
X0054437Y0108462D01*
X0053979Y0108340D01*
X0053569Y0108103D01*
X0053234Y0107767D01*
X0052997Y0107357D01*
X0052874Y0106899D01*
X0052874Y0104300D01*
X0056249Y0104300D01*
X0052874Y0104300D01*
X0052874Y0103226D01*
X0052537Y0103563D01*
X0052537Y0107408D01*
X0051483Y0108462D01*
X0046842Y0108462D01*
X0045787Y0107408D01*
X0045787Y0101192D01*
X0046842Y0100138D01*
X0048088Y0100138D01*
X0050500Y0097725D01*
X0050500Y0097107D01*
X0049824Y0098402D02*
X0045199Y0098402D01*
X0043600Y0100000D02*
X0048225Y0100000D01*
X0045787Y0101599D02*
X0042002Y0101599D01*
X0040403Y0103197D02*
X0045787Y0103197D01*
X0045787Y0104796D02*
X0040037Y0104796D01*
X0040037Y0106395D02*
X0045787Y0106395D01*
X0046373Y0107993D02*
X0039330Y0107993D01*
X0033994Y0107993D02*
X0032235Y0107993D01*
X0032256Y0107981D02*
X0031845Y0108218D01*
X0031387Y0108341D01*
X0029576Y0108341D01*
X0029576Y0104178D01*
X0029576Y0104178D01*
X0032950Y0104178D01*
X0032950Y0101579D01*
X0032828Y0101121D01*
X0032591Y0100711D01*
X0032256Y0100376D01*
X0031845Y0100139D01*
X0031387Y0100016D01*
X0029576Y0100016D01*
X0029576Y0104178D01*
X0029576Y0104178D01*
X0032950Y0104178D01*
X0032950Y0106778D01*
X0032828Y0107235D01*
X0032591Y0107646D01*
X0032256Y0107981D01*
X0032950Y0106395D02*
X0033287Y0106395D01*
X0033287Y0104796D02*
X0032950Y0104796D01*
X0032950Y0103197D02*
X0033287Y0103197D01*
X0033287Y0101599D02*
X0032950Y0101599D01*
X0035725Y0100000D02*
X0024191Y0100000D01*
X0024191Y0098402D02*
X0037324Y0098402D01*
X0036240Y0096803D02*
X0038922Y0096803D01*
X0037839Y0095205D02*
X0040521Y0095205D01*
X0039437Y0093606D02*
X0042119Y0093606D01*
X0041036Y0092008D02*
X0043718Y0092008D01*
X0042634Y0090409D02*
X0045316Y0090409D01*
X0044233Y0088811D02*
X0046915Y0088811D01*
X0045831Y0087212D02*
X0048513Y0087212D01*
X0047430Y0085614D02*
X0050112Y0085614D01*
X0049028Y0084015D02*
X0051516Y0084015D01*
X0051516Y0082417D02*
X0050627Y0082417D01*
X0045464Y0080818D02*
X0011152Y0080818D01*
X0010847Y0082417D02*
X0043865Y0082417D01*
X0042267Y0084015D02*
X0010542Y0084015D01*
X0010298Y0085614D02*
X0040668Y0085614D01*
X0039070Y0087212D02*
X0010197Y0087212D01*
X0010097Y0088811D02*
X0037471Y0088811D01*
X0035873Y0090409D02*
X0009996Y0090409D01*
X0009896Y0092008D02*
X0034274Y0092008D01*
X0029576Y0100016D02*
X0027764Y0100016D01*
X0027306Y0100139D01*
X0026896Y0100376D01*
X0026560Y0100711D01*
X0026323Y0101121D01*
X0026201Y0101579D01*
X0026201Y0104178D01*
X0029575Y0104178D01*
X0029575Y0104178D01*
X0029576Y0104178D02*
X0029576Y0100016D01*
X0029576Y0101599D02*
X0029576Y0101599D01*
X0029576Y0103197D02*
X0029576Y0103197D01*
X0029575Y0104178D02*
X0026201Y0104178D01*
X0026201Y0106778D01*
X0026323Y0107235D01*
X0026560Y0107646D01*
X0026896Y0107981D01*
X0027306Y0108218D01*
X0027764Y0108341D01*
X0029576Y0108341D01*
X0029576Y0104178D01*
X0029576Y0104178D01*
X0029576Y0104796D02*
X0029576Y0104796D01*
X0029576Y0106395D02*
X0029576Y0106395D01*
X0029576Y0107993D02*
X0029576Y0107993D01*
X0026917Y0107993D02*
X0024191Y0107993D01*
X0024191Y0106395D02*
X0026201Y0106395D01*
X0026201Y0104796D02*
X0024191Y0104796D01*
X0024191Y0103197D02*
X0026201Y0103197D01*
X0026201Y0101599D02*
X0024191Y0101599D01*
X0019409Y0101599D02*
X0010015Y0101599D01*
X0010116Y0103197D02*
X0019409Y0103197D01*
X0019409Y0104796D02*
X0010216Y0104796D01*
X0010317Y0106395D02*
X0019409Y0106395D01*
X0019409Y0107993D02*
X0010599Y0107993D01*
X0010904Y0109592D02*
X0019409Y0109592D01*
X0019409Y0111190D02*
X0011209Y0111190D01*
X0011514Y0112789D02*
X0019409Y0112789D01*
X0019409Y0114387D02*
X0011819Y0114387D01*
X0012124Y0115986D02*
X0019409Y0115986D01*
X0019409Y0117584D02*
X0012491Y0117584D01*
X0013011Y0119183D02*
X0019409Y0119183D01*
X0019409Y0120781D02*
X0013530Y0120781D01*
X0014050Y0122380D02*
X0019409Y0122380D01*
X0019674Y0123978D02*
X0014569Y0123978D01*
X0015088Y0125577D02*
X0021133Y0125577D01*
X0022731Y0127175D02*
X0015608Y0127175D01*
X0016338Y0128774D02*
X0024330Y0128774D01*
X0025928Y0130372D02*
X0017090Y0130372D01*
X0017842Y0131971D02*
X0026201Y0131971D01*
X0026201Y0133569D02*
X0018594Y0133569D01*
X0019347Y0135168D02*
X0026201Y0135168D01*
X0026283Y0136766D02*
X0020099Y0136766D01*
X0021068Y0138365D02*
X0054400Y0138365D01*
X0054400Y0137802D02*
X0053406Y0136807D01*
X0053406Y0130592D01*
X0054460Y0129537D01*
X0059101Y0129537D01*
X0060155Y0130592D01*
X0060155Y0136807D01*
X0059200Y0137763D01*
X0059200Y0140840D01*
X0058835Y0141722D01*
X0058159Y0142398D01*
X0055659Y0144898D01*
X0054777Y0145263D01*
X0049774Y0145263D01*
X0048953Y0146084D01*
X0047556Y0146663D01*
X0046044Y0146663D01*
X0044647Y0146084D01*
X0043579Y0145016D01*
X0043000Y0143619D01*
X0043000Y0142107D01*
X0043579Y0140710D01*
X0044647Y0139642D01*
X0046044Y0139063D01*
X0047556Y0139063D01*
X0048953Y0139642D01*
X0049774Y0140463D01*
X0053306Y0140463D01*
X0054400Y0139369D01*
X0054400Y0137802D01*
X0053406Y0136766D02*
X0053068Y0136766D01*
X0053068Y0136807D02*
X0052014Y0137862D01*
X0047373Y0137862D01*
X0046319Y0136807D01*
X0046319Y0130592D01*
X0046487Y0130424D01*
X0046079Y0130016D01*
X0045500Y0128619D01*
X0045500Y0127107D01*
X0046079Y0125710D01*
X0046909Y0124880D01*
X0046909Y0123028D01*
X0046319Y0122437D01*
X0046319Y0116222D01*
X0047373Y0115167D01*
X0049353Y0115167D01*
X0049629Y0115083D01*
X0050493Y0115167D01*
X0052014Y0115167D01*
X0053068Y0116222D01*
X0053068Y0122437D01*
X0052014Y0123492D01*
X0051691Y0123492D01*
X0051691Y0124880D01*
X0052521Y0125710D01*
X0053100Y0127107D01*
X0053100Y0128619D01*
X0052521Y0130016D01*
X0052507Y0130030D01*
X0053068Y0130592D01*
X0053068Y0136807D01*
X0053068Y0135168D02*
X0053406Y0135168D01*
X0053406Y0133569D02*
X0053068Y0133569D01*
X0053068Y0131971D02*
X0053406Y0131971D01*
X0053625Y0130372D02*
X0052849Y0130372D01*
X0053036Y0128774D02*
X0085276Y0128774D01*
X0085276Y0130372D02*
X0059935Y0130372D01*
X0060155Y0131971D02*
X0085276Y0131971D01*
X0085276Y0133569D02*
X0060155Y0133569D01*
X0060155Y0135168D02*
X0085276Y0135168D01*
X0085276Y0136766D02*
X0060155Y0136766D01*
X0059200Y0138365D02*
X0085276Y0138365D01*
X0085276Y0139952D02*
X0085276Y0125774D01*
X0085729Y0124678D01*
X0086568Y0123840D01*
X0087664Y0123386D01*
X0095936Y0123386D01*
X0097032Y0123840D01*
X0097633Y0124440D01*
X0098544Y0124063D01*
X0100056Y0124063D01*
X0101453Y0124642D01*
X0102521Y0125710D01*
X0103100Y0127107D01*
X0103100Y0128619D01*
X0102521Y0130016D01*
X0101453Y0131084D01*
X0100056Y0131663D01*
X0099438Y0131663D01*
X0098324Y0132776D01*
X0098324Y0139952D01*
X0097871Y0141048D01*
X0097032Y0141886D01*
X0095936Y0142340D01*
X0087664Y0142340D01*
X0086568Y0141886D01*
X0085729Y0141048D01*
X0085276Y0139952D01*
X0085280Y0139963D02*
X0059200Y0139963D01*
X0058901Y0141562D02*
X0086243Y0141562D01*
X0097357Y0141562D02*
X0115704Y0141562D01*
X0115519Y0141115D02*
X0116095Y0142505D01*
X0117158Y0143568D01*
X0118548Y0144144D01*
X0120052Y0144144D01*
X0121442Y0143568D01*
X0122047Y0142963D01*
X0127317Y0142963D01*
X0128273Y0142567D01*
X0129004Y0141836D01*
X0132712Y0138128D01*
X0133195Y0138128D01*
X0134250Y0137073D01*
X0134250Y0130858D01*
X0133195Y0129803D01*
X0128554Y0129803D01*
X0127500Y0130858D01*
X0127500Y0135986D01*
X0125723Y0137763D01*
X0122047Y0137763D01*
X0121442Y0137158D01*
X0120052Y0136582D01*
X0118548Y0136582D01*
X0117158Y0137158D01*
X0116095Y0138221D01*
X0115519Y0139611D01*
X0115519Y0141115D01*
X0115519Y0139963D02*
X0098320Y0139963D01*
X0098324Y0138365D02*
X0116035Y0138365D01*
X0118103Y0136766D02*
X0098324Y0136766D01*
X0098324Y0135168D02*
X0127500Y0135168D01*
X0127500Y0133569D02*
X0098324Y0133569D01*
X0099130Y0131971D02*
X0127500Y0131971D01*
X0127985Y0130372D02*
X0102165Y0130372D01*
X0103036Y0128774D02*
X0134409Y0128774D01*
X0134409Y0130372D02*
X0133764Y0130372D01*
X0134250Y0131971D02*
X0134409Y0131971D01*
X0134409Y0132420D02*
X0134409Y0123628D01*
X0134055Y0123274D01*
X0134055Y0117992D01*
X0133718Y0117655D01*
X0133718Y0120166D01*
X0130343Y0120166D01*
X0126969Y0120166D01*
X0126969Y0117567D01*
X0127091Y0117109D01*
X0127328Y0116699D01*
X0127663Y0116364D01*
X0128074Y0116127D01*
X0128532Y0116004D01*
X0130343Y0116004D01*
X0130343Y0120166D01*
X0130343Y0120166D01*
X0130343Y0120166D01*
X0126968Y0120166D01*
X0126969Y0122765D01*
X0127091Y0123223D01*
X0127328Y0123634D01*
X0127663Y0123969D01*
X0128074Y0124206D01*
X0128532Y0124328D01*
X0130343Y0124328D01*
X0130343Y0120166D01*
X0130343Y0116004D01*
X0132155Y0116004D01*
X0132613Y0116127D01*
X0133023Y0116364D01*
X0133157Y0116497D01*
X0133000Y0116119D01*
X0133000Y0114607D01*
X0133579Y0113210D01*
X0134647Y0112142D01*
X0136044Y0111563D01*
X0137556Y0111563D01*
X0138953Y0112142D01*
X0140021Y0113210D01*
X0140600Y0114607D01*
X0140600Y0116119D01*
X0140385Y0116638D01*
X0140805Y0117058D01*
X0140805Y0123274D01*
X0139750Y0124328D01*
X0139191Y0124328D01*
X0139191Y0129803D01*
X0140282Y0129803D01*
X0141336Y0130858D01*
X0141336Y0137073D01*
X0140282Y0138128D01*
X0135641Y0138128D01*
X0134587Y0137073D01*
X0134587Y0133769D01*
X0134423Y0133401D01*
X0134422Y0133368D01*
X0134409Y0133338D01*
X0134409Y0132894D01*
X0134398Y0132450D01*
X0134409Y0132420D01*
X0134498Y0133569D02*
X0134250Y0133569D01*
X0134250Y0135168D02*
X0134587Y0135168D01*
X0134587Y0136766D02*
X0134250Y0136766D01*
X0132475Y0138365D02*
X0169225Y0138365D01*
X0170194Y0136766D02*
X0162732Y0136766D01*
X0162732Y0137288D02*
X0162732Y0135311D01*
X0163881Y0134163D01*
X0165056Y0134163D01*
X0166453Y0133584D01*
X0167521Y0132516D01*
X0168100Y0131119D01*
X0168100Y0129607D01*
X0167521Y0128210D01*
X0166453Y0127142D01*
X0165056Y0126563D01*
X0163544Y0126563D01*
X0162147Y0127142D01*
X0161079Y0128210D01*
X0160500Y0129607D01*
X0160500Y0130018D01*
X0157037Y0130018D01*
X0155983Y0131072D01*
X0155983Y0137288D01*
X0157037Y0138342D01*
X0161678Y0138342D01*
X0162732Y0137288D01*
X0162876Y0135168D02*
X0170946Y0135168D01*
X0171698Y0133569D02*
X0166468Y0133569D01*
X0167747Y0131971D02*
X0172451Y0131971D01*
X0173203Y0130372D02*
X0168100Y0130372D01*
X0167755Y0128774D02*
X0173955Y0128774D01*
X0174685Y0127175D02*
X0166486Y0127175D01*
X0162114Y0127175D02*
X0155162Y0127175D01*
X0155021Y0127516D02*
X0154191Y0128346D01*
X0154191Y0130018D01*
X0154591Y0130018D01*
X0155646Y0131072D01*
X0155646Y0137288D01*
X0154591Y0138342D01*
X0149950Y0138342D01*
X0148896Y0137288D01*
X0148896Y0131072D01*
X0149409Y0130559D01*
X0149409Y0128346D01*
X0148579Y0127516D01*
X0148000Y0126119D01*
X0148000Y0124607D01*
X0148579Y0123210D01*
X0148770Y0123019D01*
X0148770Y0116988D01*
X0149824Y0115934D01*
X0154465Y0115934D01*
X0155519Y0116988D01*
X0155519Y0123204D01*
X0155165Y0123558D01*
X0155600Y0124607D01*
X0155600Y0126119D01*
X0155021Y0127516D01*
X0154191Y0128774D02*
X0160845Y0128774D01*
X0156683Y0130372D02*
X0154946Y0130372D01*
X0155646Y0131971D02*
X0155983Y0131971D01*
X0155983Y0133569D02*
X0155646Y0133569D01*
X0155646Y0135168D02*
X0155983Y0135168D01*
X0155983Y0136766D02*
X0155646Y0136766D01*
X0148896Y0136766D02*
X0141336Y0136766D01*
X0141336Y0135168D02*
X0148896Y0135168D01*
X0148896Y0133569D02*
X0141336Y0133569D01*
X0141336Y0131971D02*
X0148896Y0131971D01*
X0149409Y0130372D02*
X0140851Y0130372D01*
X0139191Y0128774D02*
X0149409Y0128774D01*
X0148438Y0127175D02*
X0139191Y0127175D01*
X0139191Y0125577D02*
X0148000Y0125577D01*
X0148261Y0123978D02*
X0140101Y0123978D01*
X0140805Y0122380D02*
X0148770Y0122380D01*
X0148770Y0120781D02*
X0140805Y0120781D01*
X0140805Y0119183D02*
X0148770Y0119183D01*
X0148770Y0117584D02*
X0140805Y0117584D01*
X0140600Y0115986D02*
X0149772Y0115986D01*
X0154517Y0115986D02*
X0157226Y0115986D01*
X0157419Y0115934D02*
X0159231Y0115934D01*
X0159231Y0120096D01*
X0155856Y0120096D01*
X0155856Y0117497D01*
X0155979Y0117039D01*
X0156216Y0116629D01*
X0156551Y0116293D01*
X0156962Y0116057D01*
X0157419Y0115934D01*
X0159231Y0115934D02*
X0161043Y0115934D01*
X0161501Y0116057D01*
X0161911Y0116293D01*
X0162246Y0116629D01*
X0162483Y0117039D01*
X0162606Y0117497D01*
X0162606Y0120096D01*
X0159231Y0120096D01*
X0159231Y0120096D01*
X0159231Y0120096D01*
X0155856Y0120096D01*
X0155856Y0122695D01*
X0155979Y0123153D01*
X0156216Y0123563D01*
X0156551Y0123899D01*
X0156962Y0124136D01*
X0157419Y0124258D01*
X0159231Y0124258D01*
X0159231Y0120096D01*
X0159231Y0115934D01*
X0159231Y0115986D02*
X0159231Y0115986D01*
X0159231Y0117584D02*
X0159231Y0117584D01*
X0159231Y0119183D02*
X0159231Y0119183D01*
X0159231Y0120096D02*
X0159231Y0120096D01*
X0159231Y0120096D01*
X0159231Y0124258D01*
X0161043Y0124258D01*
X0161501Y0124136D01*
X0161911Y0123899D01*
X0162246Y0123563D01*
X0162483Y0123153D01*
X0162606Y0122695D01*
X0162606Y0120096D01*
X0159231Y0120096D01*
X0159231Y0120781D02*
X0159231Y0120781D01*
X0159231Y0122380D02*
X0159231Y0122380D01*
X0159231Y0123978D02*
X0159231Y0123978D01*
X0156689Y0123978D02*
X0155339Y0123978D01*
X0155519Y0122380D02*
X0155856Y0122380D01*
X0155856Y0120781D02*
X0155519Y0120781D01*
X0155519Y0119183D02*
X0155856Y0119183D01*
X0155856Y0117584D02*
X0155519Y0117584D01*
X0161236Y0115986D02*
X0178169Y0115986D01*
X0178474Y0114387D02*
X0140509Y0114387D01*
X0139600Y0112789D02*
X0178779Y0112789D01*
X0179084Y0111190D02*
X0024191Y0111190D01*
X0024191Y0109592D02*
X0179389Y0109592D01*
X0179694Y0107993D02*
X0059038Y0107993D01*
X0059624Y0106395D02*
X0127382Y0106395D01*
X0127364Y0106325D02*
X0127364Y0103726D01*
X0130738Y0103726D01*
X0130738Y0103726D01*
X0130739Y0103726D02*
X0130739Y0107888D01*
X0132550Y0107888D01*
X0133008Y0107765D01*
X0133419Y0107528D01*
X0133754Y0107193D01*
X0133991Y0106783D01*
X0134113Y0106325D01*
X0134113Y0103726D01*
X0130739Y0103726D01*
X0130739Y0103726D01*
X0130739Y0103726D01*
X0130739Y0107888D01*
X0128927Y0107888D01*
X0128469Y0107765D01*
X0128059Y0107528D01*
X0127723Y0107193D01*
X0127486Y0106783D01*
X0127364Y0106325D01*
X0127364Y0104796D02*
X0059624Y0104796D01*
X0059624Y0103197D02*
X0127364Y0103197D01*
X0127364Y0103726D02*
X0127364Y0101126D01*
X0127486Y0100669D01*
X0127723Y0100258D01*
X0128059Y0099923D01*
X0128469Y0099686D01*
X0128927Y0099563D01*
X0130739Y0099563D01*
X0132550Y0099563D01*
X0133008Y0099686D01*
X0133419Y0099923D01*
X0133754Y0100258D01*
X0133991Y0100669D01*
X0134113Y0101126D01*
X0134113Y0103726D01*
X0130739Y0103726D01*
X0130739Y0103725D02*
X0130739Y0099563D01*
X0130739Y0103725D01*
X0130739Y0103725D01*
X0130738Y0103726D02*
X0127364Y0103726D01*
X0127364Y0101599D02*
X0059596Y0101599D01*
X0057528Y0100000D02*
X0127981Y0100000D01*
X0130739Y0100000D02*
X0130739Y0100000D01*
X0130739Y0101599D02*
X0130739Y0101599D01*
X0130739Y0103197D02*
X0130739Y0103197D01*
X0130739Y0104796D02*
X0130739Y0104796D01*
X0130739Y0106395D02*
X0130739Y0106395D01*
X0134095Y0106395D02*
X0134450Y0106395D01*
X0134450Y0106833D02*
X0134450Y0100618D01*
X0135505Y0099563D01*
X0138018Y0099563D01*
X0138579Y0098210D01*
X0139647Y0097142D01*
X0141044Y0096563D01*
X0142556Y0096563D01*
X0143953Y0097142D01*
X0145021Y0098210D01*
X0145600Y0099607D01*
X0145600Y0101119D01*
X0145021Y0102516D01*
X0143953Y0103584D01*
X0142556Y0104163D01*
X0141938Y0104163D01*
X0141403Y0104697D01*
X0141200Y0104965D01*
X0141200Y0106833D01*
X0140146Y0107888D01*
X0135505Y0107888D01*
X0134450Y0106833D01*
X0134450Y0104796D02*
X0134113Y0104796D01*
X0134113Y0103197D02*
X0134450Y0103197D01*
X0134450Y0101599D02*
X0134113Y0101599D01*
X0133496Y0100000D02*
X0135068Y0100000D01*
X0138499Y0098402D02*
X0058100Y0098402D01*
X0057974Y0096803D02*
X0066485Y0096803D01*
X0065380Y0095205D02*
X0057016Y0095205D01*
X0056249Y0104300D02*
X0056249Y0104300D01*
X0056249Y0104796D02*
X0056249Y0104796D01*
X0056249Y0106395D02*
X0056249Y0106395D01*
X0056249Y0107993D02*
X0056249Y0107993D01*
X0053459Y0107993D02*
X0051952Y0107993D01*
X0052537Y0106395D02*
X0052874Y0106395D01*
X0052874Y0104796D02*
X0052537Y0104796D01*
X0054969Y0115167D02*
X0056780Y0115167D01*
X0056780Y0119329D01*
X0056780Y0119329D01*
X0053406Y0119329D01*
X0053406Y0116730D01*
X0053528Y0116273D01*
X0053765Y0115862D01*
X0054100Y0115527D01*
X0054511Y0115290D01*
X0054969Y0115167D01*
X0053694Y0115986D02*
X0052832Y0115986D01*
X0053068Y0117584D02*
X0053406Y0117584D01*
X0053406Y0119183D02*
X0053068Y0119183D01*
X0053405Y0119330D02*
X0056780Y0119330D01*
X0056780Y0123492D01*
X0054969Y0123492D01*
X0054511Y0123369D01*
X0054100Y0123132D01*
X0053765Y0122797D01*
X0053528Y0122387D01*
X0053406Y0121929D01*
X0053405Y0119330D01*
X0053406Y0120781D02*
X0053068Y0120781D01*
X0053068Y0122380D02*
X0053526Y0122380D01*
X0051691Y0123978D02*
X0086430Y0123978D01*
X0085357Y0125577D02*
X0052388Y0125577D01*
X0053100Y0127175D02*
X0085276Y0127175D01*
X0097170Y0123978D02*
X0127680Y0123978D01*
X0126969Y0122380D02*
X0060034Y0122380D01*
X0060032Y0122387D02*
X0059795Y0122797D01*
X0059460Y0123132D01*
X0059050Y0123369D01*
X0058592Y0123492D01*
X0056780Y0123492D01*
X0056780Y0119330D01*
X0056780Y0119330D01*
X0056780Y0119329D01*
X0056780Y0115167D01*
X0058592Y0115167D01*
X0059050Y0115290D01*
X0059460Y0115527D01*
X0059795Y0115862D01*
X0060032Y0116273D01*
X0060155Y0116730D01*
X0060155Y0119329D01*
X0056780Y0119329D01*
X0056780Y0119330D01*
X0060155Y0119330D01*
X0060155Y0121929D01*
X0060032Y0122387D01*
X0060155Y0120781D02*
X0126969Y0120781D01*
X0126969Y0119183D02*
X0060155Y0119183D01*
X0060155Y0117584D02*
X0126969Y0117584D01*
X0130343Y0117584D02*
X0130343Y0117584D01*
X0130343Y0119183D02*
X0130343Y0119183D01*
X0130343Y0120166D02*
X0130343Y0120166D01*
X0130343Y0120166D01*
X0130343Y0124328D01*
X0132155Y0124328D01*
X0132613Y0124206D01*
X0133023Y0123969D01*
X0133358Y0123634D01*
X0133595Y0123223D01*
X0133718Y0122765D01*
X0133718Y0120166D01*
X0130343Y0120166D01*
X0130343Y0120781D02*
X0130343Y0120781D01*
X0130343Y0122380D02*
X0130343Y0122380D01*
X0130343Y0123978D02*
X0130343Y0123978D01*
X0133007Y0123978D02*
X0134409Y0123978D01*
X0134409Y0125577D02*
X0102388Y0125577D01*
X0103100Y0127175D02*
X0134409Y0127175D01*
X0134055Y0122380D02*
X0133718Y0122380D01*
X0133718Y0120781D02*
X0134055Y0120781D01*
X0134055Y0119183D02*
X0133718Y0119183D01*
X0133000Y0115986D02*
X0059867Y0115986D01*
X0056780Y0115986D02*
X0056780Y0115986D01*
X0056780Y0117584D02*
X0056780Y0117584D01*
X0056780Y0119183D02*
X0056780Y0119183D01*
X0056780Y0120781D02*
X0056780Y0120781D01*
X0056780Y0122380D02*
X0056780Y0122380D01*
X0046909Y0123978D02*
X0040339Y0123978D01*
X0040600Y0124607D02*
X0040021Y0123210D01*
X0039566Y0122755D01*
X0039820Y0122500D01*
X0039820Y0116284D01*
X0038766Y0115230D01*
X0034125Y0115230D01*
X0033071Y0116284D01*
X0033071Y0122500D01*
X0033680Y0123109D01*
X0033579Y0123210D01*
X0033000Y0124607D01*
X0033000Y0126119D01*
X0033579Y0127516D01*
X0034409Y0128346D01*
X0034409Y0129414D01*
X0034342Y0129414D01*
X0033287Y0130469D01*
X0033287Y0136684D01*
X0034342Y0137739D01*
X0038983Y0137739D01*
X0040037Y0136684D01*
X0040037Y0130469D01*
X0039191Y0129622D01*
X0039191Y0128346D01*
X0040021Y0127516D01*
X0040600Y0126119D01*
X0040600Y0124607D01*
X0040600Y0125577D02*
X0046212Y0125577D01*
X0045500Y0127175D02*
X0040162Y0127175D01*
X0039191Y0128774D02*
X0045564Y0128774D01*
X0046435Y0130372D02*
X0039941Y0130372D01*
X0040037Y0131971D02*
X0046319Y0131971D01*
X0046319Y0133569D02*
X0040037Y0133569D01*
X0040037Y0135168D02*
X0046319Y0135168D01*
X0046319Y0136766D02*
X0039955Y0136766D01*
X0044326Y0139963D02*
X0022083Y0139963D01*
X0023097Y0141562D02*
X0043226Y0141562D01*
X0043000Y0143160D02*
X0024111Y0143160D01*
X0025126Y0144759D02*
X0043472Y0144759D01*
X0045306Y0146357D02*
X0026189Y0146357D01*
X0027511Y0147956D02*
X0162782Y0147956D01*
X0161459Y0149554D02*
X0028833Y0149554D01*
X0030156Y0151153D02*
X0160137Y0151153D01*
X0158815Y0152751D02*
X0031478Y0152751D01*
X0032801Y0154350D02*
X0157492Y0154350D01*
X0155797Y0155948D02*
X0034496Y0155948D01*
X0036198Y0157547D02*
X0154095Y0157547D01*
X0152392Y0159145D02*
X0112209Y0159145D01*
X0113199Y0159555D02*
X0114923Y0161280D01*
X0115857Y0163533D01*
X0115857Y0165972D01*
X0114923Y0168226D01*
X0113199Y0169950D01*
X0110945Y0170883D01*
X0108555Y0170883D01*
X0109352Y0171680D01*
X0110135Y0173572D01*
X0110135Y0175619D01*
X0109352Y0177511D01*
X0107904Y0178958D01*
X0106013Y0179742D01*
X0103965Y0179742D01*
X0102074Y0178958D01*
X0100626Y0177511D01*
X0099843Y0175619D01*
X0099843Y0173572D01*
X0100626Y0171680D01*
X0102074Y0170232D01*
X0103965Y0169449D01*
X0105752Y0169449D01*
X0104529Y0168226D01*
X0103595Y0165972D01*
X0103595Y0163533D01*
X0104529Y0161280D01*
X0106253Y0159555D01*
X0108506Y0158622D01*
X0110945Y0158622D01*
X0113199Y0159555D01*
X0114387Y0160744D02*
X0150690Y0160744D01*
X0148797Y0162342D02*
X0115363Y0162342D01*
X0115857Y0163941D02*
X0146597Y0163941D01*
X0144396Y0165539D02*
X0115857Y0165539D01*
X0115374Y0167138D02*
X0142196Y0167138D01*
X0139687Y0168736D02*
X0114412Y0168736D01*
X0112270Y0170335D02*
X0136780Y0170335D01*
X0133872Y0171933D02*
X0109457Y0171933D01*
X0110119Y0173532D02*
X0130738Y0173532D01*
X0126700Y0175130D02*
X0110135Y0175130D01*
X0109676Y0176729D02*
X0122663Y0176729D01*
X0117032Y0178328D02*
X0108535Y0178328D01*
X0110435Y0179926D02*
X0079858Y0179926D01*
X0081758Y0178328D02*
X0073261Y0178328D01*
X0067630Y0176729D02*
X0080615Y0176729D01*
X0080535Y0176571D02*
X0080284Y0175800D01*
X0080157Y0175000D01*
X0080157Y0174595D01*
X0080157Y0174190D01*
X0080284Y0173390D01*
X0080535Y0172620D01*
X0080902Y0171898D01*
X0081378Y0171243D01*
X0081738Y0170883D01*
X0079347Y0170883D01*
X0077094Y0169950D01*
X0075370Y0168226D01*
X0074436Y0165972D01*
X0074436Y0163533D01*
X0075370Y0161280D01*
X0077094Y0159555D01*
X0079347Y0158622D01*
X0081786Y0158622D01*
X0084040Y0159555D01*
X0085764Y0161280D01*
X0086698Y0163533D01*
X0086698Y0165972D01*
X0085764Y0168226D01*
X0084474Y0169516D01*
X0084899Y0169449D01*
X0085304Y0169449D01*
X0085709Y0169449D01*
X0086509Y0169576D01*
X0087279Y0169826D01*
X0088001Y0170194D01*
X0088657Y0170670D01*
X0089229Y0171243D01*
X0089706Y0171898D01*
X0090073Y0172620D01*
X0090324Y0173390D01*
X0090450Y0174190D01*
X0090450Y0174595D01*
X0085304Y0174595D01*
X0085304Y0169449D01*
X0085304Y0174595D01*
X0085304Y0174595D01*
X0085304Y0174595D01*
X0080157Y0174595D01*
X0085304Y0174595D01*
X0085304Y0174595D01*
X0090450Y0174595D01*
X0090450Y0175000D01*
X0090324Y0175800D01*
X0090073Y0176571D01*
X0089706Y0177293D01*
X0089229Y0177948D01*
X0088657Y0178521D01*
X0088001Y0178997D01*
X0087279Y0179365D01*
X0086509Y0179615D01*
X0085709Y0179742D01*
X0085304Y0179742D01*
X0085304Y0174595D01*
X0085304Y0174595D01*
X0085304Y0179742D01*
X0084899Y0179742D01*
X0084099Y0179615D01*
X0083328Y0179365D01*
X0082607Y0178997D01*
X0081951Y0178521D01*
X0081378Y0177948D01*
X0080902Y0177293D01*
X0080535Y0176571D01*
X0080178Y0175130D02*
X0063592Y0175130D01*
X0059555Y0173532D02*
X0080262Y0173532D01*
X0080884Y0171933D02*
X0056421Y0171933D01*
X0053513Y0170335D02*
X0078023Y0170335D01*
X0075880Y0168736D02*
X0050605Y0168736D01*
X0048097Y0167138D02*
X0074919Y0167138D01*
X0074436Y0165539D02*
X0045897Y0165539D01*
X0043696Y0163941D02*
X0074436Y0163941D01*
X0074929Y0162342D02*
X0041496Y0162342D01*
X0039603Y0160744D02*
X0075906Y0160744D01*
X0078084Y0159145D02*
X0037900Y0159145D01*
X0030666Y0167138D02*
X0001800Y0167138D01*
X0001800Y0168736D02*
X0032368Y0168736D01*
X0033767Y0170050D02*
X0024952Y0161772D01*
X0017244Y0152455D01*
X0017244Y0152455D01*
X0010764Y0142245D01*
X0010764Y0142245D01*
X0005616Y0131303D01*
X0001879Y0119802D01*
X0001800Y0119389D01*
X0001800Y0184113D01*
X0057000Y0184113D01*
X0054147Y0182984D01*
X0043550Y0177158D01*
X0033767Y0170050D01*
X0033767Y0170050D01*
X0034159Y0170335D02*
X0001800Y0170335D01*
X0001800Y0171933D02*
X0036359Y0171933D01*
X0038560Y0173532D02*
X0001800Y0173532D01*
X0001800Y0175130D02*
X0040760Y0175130D01*
X0042960Y0176729D02*
X0001800Y0176729D01*
X0001800Y0178328D02*
X0045678Y0178328D01*
X0043550Y0177158D02*
X0043550Y0177158D01*
X0048585Y0179926D02*
X0001800Y0179926D01*
X0001800Y0181525D02*
X0051493Y0181525D01*
X0054147Y0182984D02*
X0054147Y0182984D01*
X0054499Y0183123D02*
X0001800Y0183123D01*
X0001800Y0165539D02*
X0028964Y0165539D01*
X0027262Y0163941D02*
X0001800Y0163941D01*
X0001800Y0162342D02*
X0025559Y0162342D01*
X0024952Y0161772D02*
X0024952Y0161772D01*
X0024101Y0160744D02*
X0001800Y0160744D01*
X0001800Y0159145D02*
X0022779Y0159145D01*
X0021457Y0157547D02*
X0001800Y0157547D01*
X0001800Y0155948D02*
X0020134Y0155948D01*
X0018812Y0154350D02*
X0001800Y0154350D01*
X0001800Y0152751D02*
X0017489Y0152751D01*
X0016418Y0151153D02*
X0001800Y0151153D01*
X0001800Y0149554D02*
X0015403Y0149554D01*
X0014389Y0147956D02*
X0001800Y0147956D01*
X0001800Y0146357D02*
X0013374Y0146357D01*
X0012360Y0144759D02*
X0001800Y0144759D01*
X0001800Y0143160D02*
X0011346Y0143160D01*
X0010443Y0141562D02*
X0001800Y0141562D01*
X0001800Y0139963D02*
X0009691Y0139963D01*
X0008939Y0138365D02*
X0001800Y0138365D01*
X0001800Y0136766D02*
X0008186Y0136766D01*
X0007434Y0135168D02*
X0001800Y0135168D01*
X0001800Y0133569D02*
X0006682Y0133569D01*
X0005930Y0131971D02*
X0001800Y0131971D01*
X0001800Y0130372D02*
X0005313Y0130372D01*
X0005616Y0131303D02*
X0005616Y0131303D01*
X0004794Y0128774D02*
X0001800Y0128774D01*
X0001800Y0127175D02*
X0004274Y0127175D01*
X0003755Y0125577D02*
X0001800Y0125577D01*
X0001800Y0123978D02*
X0003236Y0123978D01*
X0002716Y0122380D02*
X0001800Y0122380D01*
X0001800Y0120781D02*
X0002197Y0120781D01*
X0001879Y0119802D02*
X0001879Y0119802D01*
X0009914Y0100000D02*
X0019409Y0100000D01*
X0019409Y0098402D02*
X0009814Y0098402D01*
X0009713Y0096803D02*
X0019409Y0096803D01*
X0019409Y0095205D02*
X0009694Y0095205D01*
X0009795Y0093606D02*
X0020176Y0093606D01*
X0024191Y0112789D02*
X0134000Y0112789D01*
X0133091Y0114387D02*
X0024191Y0114387D01*
X0024191Y0115986D02*
X0026309Y0115986D01*
X0026344Y0115925D02*
X0026679Y0115590D01*
X0027089Y0115353D01*
X0027547Y0115230D01*
X0029359Y0115230D01*
X0029359Y0119392D01*
X0029359Y0119392D01*
X0029359Y0115230D01*
X0031171Y0115230D01*
X0031629Y0115353D01*
X0032039Y0115590D01*
X0032374Y0115925D01*
X0032611Y0116335D01*
X0032734Y0116793D01*
X0032734Y0119392D01*
X0029359Y0119392D01*
X0025984Y0119392D01*
X0025984Y0116793D01*
X0026107Y0116335D01*
X0026344Y0115925D01*
X0025984Y0117584D02*
X0024191Y0117584D01*
X0024191Y0119183D02*
X0025984Y0119183D01*
X0025984Y0119392D02*
X0029359Y0119392D01*
X0029359Y0119392D01*
X0029359Y0119392D01*
X0032734Y0119392D01*
X0032734Y0121991D01*
X0032611Y0122449D01*
X0032374Y0122860D01*
X0032039Y0123195D01*
X0031629Y0123432D01*
X0031171Y0123554D01*
X0029359Y0123554D01*
X0027547Y0123554D01*
X0027089Y0123432D01*
X0026679Y0123195D01*
X0026344Y0122860D01*
X0026107Y0122449D01*
X0025984Y0121991D01*
X0025984Y0119392D01*
X0025984Y0120781D02*
X0024191Y0120781D01*
X0024697Y0122380D02*
X0026088Y0122380D01*
X0026296Y0123978D02*
X0033261Y0123978D01*
X0033071Y0122380D02*
X0032630Y0122380D01*
X0032734Y0120781D02*
X0033071Y0120781D01*
X0033071Y0119183D02*
X0032734Y0119183D01*
X0032734Y0117584D02*
X0033071Y0117584D01*
X0033370Y0115986D02*
X0032409Y0115986D01*
X0029359Y0115986D02*
X0029359Y0115986D01*
X0029359Y0117584D02*
X0029359Y0117584D01*
X0029359Y0119183D02*
X0029359Y0119183D01*
X0029359Y0119392D02*
X0029359Y0123554D01*
X0029359Y0119392D01*
X0029359Y0119392D01*
X0029359Y0120781D02*
X0029359Y0120781D01*
X0029359Y0122380D02*
X0029359Y0122380D01*
X0027894Y0125577D02*
X0033000Y0125577D01*
X0033438Y0127175D02*
X0029493Y0127175D01*
X0031091Y0128774D02*
X0034409Y0128774D01*
X0033384Y0130372D02*
X0032854Y0130372D01*
X0032950Y0131971D02*
X0033287Y0131971D01*
X0033287Y0133569D02*
X0032950Y0133569D01*
X0032950Y0135168D02*
X0033287Y0135168D01*
X0033369Y0136766D02*
X0032868Y0136766D01*
X0039820Y0122380D02*
X0046319Y0122380D01*
X0046319Y0120781D02*
X0039820Y0120781D01*
X0039820Y0119183D02*
X0046319Y0119183D01*
X0046319Y0117584D02*
X0039820Y0117584D01*
X0039522Y0115986D02*
X0046555Y0115986D01*
X0049274Y0139963D02*
X0053806Y0139963D01*
X0057397Y0143160D02*
X0116750Y0143160D01*
X0119300Y0140363D02*
X0126800Y0140363D01*
X0130875Y0136288D01*
X0130875Y0133965D01*
X0126720Y0136766D02*
X0120497Y0136766D01*
X0121850Y0143160D02*
X0166181Y0143160D01*
X0167196Y0141562D02*
X0129278Y0141562D01*
X0130877Y0139963D02*
X0168210Y0139963D01*
X0165167Y0144759D02*
X0055798Y0144759D01*
X0058159Y0142398D02*
X0058159Y0142398D01*
X0048294Y0146357D02*
X0164104Y0146357D01*
X0172804Y0152751D02*
X0189300Y0152751D01*
X0189300Y0151153D02*
X0173875Y0151153D01*
X0173049Y0152455D02*
X0173049Y0152455D01*
X0165341Y0161772D01*
X0156526Y0170050D01*
X0146743Y0177158D01*
X0136146Y0182984D01*
X0133293Y0184113D01*
X0189300Y0184113D01*
X0189300Y0115158D01*
X0188414Y0119802D01*
X0188414Y0119802D01*
X0184677Y0131303D01*
X0179529Y0142245D01*
X0173049Y0152455D01*
X0171481Y0154350D02*
X0189300Y0154350D01*
X0189300Y0155948D02*
X0170159Y0155948D01*
X0168836Y0157547D02*
X0189300Y0157547D01*
X0189300Y0159145D02*
X0167514Y0159145D01*
X0166192Y0160744D02*
X0189300Y0160744D01*
X0189300Y0162342D02*
X0164734Y0162342D01*
X0165341Y0161772D02*
X0165341Y0161772D01*
X0163031Y0163941D02*
X0189300Y0163941D01*
X0189300Y0165539D02*
X0161329Y0165539D01*
X0159627Y0167138D02*
X0189300Y0167138D01*
X0189300Y0168736D02*
X0157925Y0168736D01*
X0156134Y0170335D02*
X0189300Y0170335D01*
X0189300Y0171933D02*
X0153934Y0171933D01*
X0151733Y0173532D02*
X0189300Y0173532D01*
X0189300Y0175130D02*
X0149533Y0175130D01*
X0147333Y0176729D02*
X0189300Y0176729D01*
X0189300Y0178328D02*
X0144615Y0178328D01*
X0141707Y0179926D02*
X0189300Y0179926D01*
X0189300Y0181525D02*
X0138800Y0181525D01*
X0135793Y0183123D02*
X0189300Y0183123D01*
X0189300Y0149554D02*
X0174890Y0149554D01*
X0175904Y0147956D02*
X0189300Y0147956D01*
X0189300Y0146357D02*
X0176919Y0146357D01*
X0177933Y0144759D02*
X0189300Y0144759D01*
X0189300Y0143160D02*
X0178947Y0143160D01*
X0179529Y0142245D02*
X0179529Y0142245D01*
X0179850Y0141562D02*
X0189300Y0141562D01*
X0189300Y0139963D02*
X0180602Y0139963D01*
X0181354Y0138365D02*
X0189300Y0138365D01*
X0189300Y0136766D02*
X0182106Y0136766D01*
X0182859Y0135168D02*
X0189300Y0135168D01*
X0189300Y0133569D02*
X0183611Y0133569D01*
X0184363Y0131971D02*
X0189300Y0131971D01*
X0189300Y0130372D02*
X0184980Y0130372D01*
X0184677Y0131303D02*
X0184677Y0131303D01*
X0185499Y0128774D02*
X0189300Y0128774D01*
X0189300Y0127175D02*
X0186018Y0127175D01*
X0186538Y0125577D02*
X0189300Y0125577D01*
X0189300Y0123978D02*
X0187057Y0123978D01*
X0187577Y0122380D02*
X0189300Y0122380D01*
X0189300Y0120781D02*
X0188096Y0120781D01*
X0188532Y0119183D02*
X0189300Y0119183D01*
X0189300Y0117584D02*
X0188837Y0117584D01*
X0189142Y0115986D02*
X0189300Y0115986D01*
X0179976Y0106395D02*
X0162220Y0106395D01*
X0162260Y0106245D02*
X0162137Y0106703D01*
X0161900Y0107113D01*
X0161565Y0107449D01*
X0161155Y0107686D01*
X0160697Y0107808D01*
X0158885Y0107808D01*
X0157073Y0107808D01*
X0156615Y0107686D01*
X0156205Y0107449D01*
X0155870Y0107113D01*
X0155633Y0106703D01*
X0155510Y0106245D01*
X0155510Y0103646D01*
X0155510Y0101047D01*
X0155633Y0100589D01*
X0155870Y0100179D01*
X0156205Y0099843D01*
X0156615Y0099607D01*
X0157073Y0099484D01*
X0158885Y0099484D01*
X0158885Y0103646D01*
X0158885Y0103646D01*
X0155510Y0103646D01*
X0158885Y0103646D01*
X0158885Y0103646D01*
X0158885Y0099484D01*
X0160697Y0099484D01*
X0161155Y0099607D01*
X0161565Y0099843D01*
X0161900Y0100179D01*
X0162137Y0100589D01*
X0162260Y0101047D01*
X0162260Y0103646D01*
X0158885Y0103646D01*
X0158885Y0103646D01*
X0158885Y0107808D01*
X0158885Y0103646D01*
X0158885Y0103646D01*
X0162260Y0103646D01*
X0162260Y0106245D01*
X0162260Y0104796D02*
X0180077Y0104796D01*
X0180177Y0103197D02*
X0162260Y0103197D01*
X0162260Y0101599D02*
X0180278Y0101599D01*
X0180379Y0100000D02*
X0161722Y0100000D01*
X0158885Y0100000D02*
X0158885Y0100000D01*
X0158885Y0101599D02*
X0158885Y0101599D01*
X0158885Y0103197D02*
X0158885Y0103197D01*
X0158885Y0104796D02*
X0158885Y0104796D01*
X0158885Y0106395D02*
X0158885Y0106395D01*
X0155550Y0106395D02*
X0155173Y0106395D01*
X0155173Y0106754D02*
X0154119Y0107808D01*
X0149478Y0107808D01*
X0148424Y0106754D01*
X0148424Y0100538D01*
X0149409Y0099552D01*
X0149409Y0083853D01*
X0126371Y0060815D01*
X0125080Y0060815D01*
X0124026Y0059760D01*
X0124026Y0054726D01*
X0125080Y0053671D01*
X0129721Y0053671D01*
X0130775Y0054726D01*
X0130775Y0058457D01*
X0153154Y0080836D01*
X0153827Y0081509D01*
X0154191Y0082387D01*
X0154191Y0099556D01*
X0155173Y0100538D01*
X0155173Y0106754D01*
X0155173Y0104796D02*
X0155510Y0104796D01*
X0155510Y0103197D02*
X0155173Y0103197D01*
X0155173Y0101599D02*
X0155510Y0101599D01*
X0156048Y0100000D02*
X0154635Y0100000D01*
X0154191Y0098402D02*
X0180479Y0098402D01*
X0180580Y0096803D02*
X0154191Y0096803D01*
X0154191Y0095205D02*
X0180598Y0095205D01*
X0180498Y0093606D02*
X0154191Y0093606D01*
X0154191Y0092008D02*
X0180397Y0092008D01*
X0180297Y0090409D02*
X0154191Y0090409D01*
X0154191Y0088811D02*
X0180196Y0088811D01*
X0180096Y0087212D02*
X0154191Y0087212D01*
X0154191Y0085614D02*
X0179995Y0085614D01*
X0179965Y0085140D02*
X0179965Y0085140D01*
X0179751Y0084015D02*
X0154191Y0084015D01*
X0154191Y0082417D02*
X0179446Y0082417D01*
X0179141Y0080818D02*
X0153136Y0080818D01*
X0153154Y0080836D02*
X0153154Y0080836D01*
X0151538Y0079220D02*
X0178836Y0079220D01*
X0178531Y0077621D02*
X0149939Y0077621D01*
X0148341Y0076023D02*
X0178226Y0076023D01*
X0177898Y0074424D02*
X0146742Y0074424D01*
X0145144Y0072826D02*
X0177379Y0072826D01*
X0176860Y0071227D02*
X0143545Y0071227D01*
X0141946Y0069629D02*
X0176340Y0069629D01*
X0175821Y0068030D02*
X0140348Y0068030D01*
X0138749Y0066432D02*
X0175301Y0066432D01*
X0174782Y0064833D02*
X0137151Y0064833D01*
X0135552Y0063235D02*
X0174095Y0063235D01*
X0173343Y0061636D02*
X0133954Y0061636D01*
X0132355Y0060038D02*
X0172591Y0060038D01*
X0171839Y0058439D02*
X0130775Y0058439D01*
X0130775Y0056841D02*
X0171087Y0056841D01*
X0170334Y0055242D02*
X0130775Y0055242D01*
X0124026Y0055242D02*
X0123295Y0055242D01*
X0123295Y0054726D02*
X0122240Y0053671D01*
X0117600Y0053671D01*
X0116545Y0054726D01*
X0116545Y0057237D01*
X0114719Y0059063D01*
X0113544Y0059063D01*
X0112147Y0059642D01*
X0111079Y0060710D01*
X0110500Y0062107D01*
X0110500Y0063619D01*
X0111079Y0065016D01*
X0112147Y0066084D01*
X0113544Y0066663D01*
X0115056Y0066663D01*
X0116453Y0066084D01*
X0117521Y0065016D01*
X0118100Y0063619D01*
X0118100Y0062444D01*
X0119729Y0060815D01*
X0122240Y0060815D01*
X0123295Y0059760D01*
X0123295Y0054726D01*
X0123295Y0056841D02*
X0124026Y0056841D01*
X0124026Y0058439D02*
X0123295Y0058439D01*
X0123017Y0060038D02*
X0124303Y0060038D01*
X0125981Y0061939D02*
X0121340Y0061939D01*
X0120285Y0062993D01*
X0120285Y0068028D01*
X0121340Y0069082D01*
X0121516Y0069082D01*
X0121516Y0069210D01*
X0115223Y0075503D01*
X0114440Y0076286D01*
X0114016Y0077309D01*
X0114016Y0078386D01*
X0112664Y0078386D01*
X0111568Y0078840D01*
X0110729Y0079678D01*
X0110276Y0080774D01*
X0110276Y0094952D01*
X0110729Y0096048D01*
X0111568Y0096886D01*
X0112664Y0097340D01*
X0120936Y0097340D01*
X0122032Y0096886D01*
X0122871Y0096048D01*
X0123324Y0094952D01*
X0123324Y0080774D01*
X0122871Y0079678D01*
X0122032Y0078840D01*
X0120936Y0078386D01*
X0120215Y0078386D01*
X0126660Y0071940D01*
X0127084Y0070917D01*
X0127084Y0065594D01*
X0127137Y0065277D01*
X0127084Y0065046D01*
X0127084Y0064809D01*
X0127035Y0064690D01*
X0127035Y0062993D01*
X0125981Y0061939D01*
X0127192Y0061636D02*
X0118908Y0061636D01*
X0118100Y0063235D02*
X0120285Y0063235D01*
X0120285Y0064833D02*
X0117597Y0064833D01*
X0115614Y0066432D02*
X0120285Y0066432D01*
X0120288Y0068030D02*
X0102084Y0068030D01*
X0102084Y0066432D02*
X0112986Y0066432D01*
X0111003Y0064833D02*
X0102084Y0064833D01*
X0102084Y0063235D02*
X0110500Y0063235D01*
X0110695Y0061636D02*
X0102084Y0061636D01*
X0102084Y0060038D02*
X0111751Y0060038D01*
X0115343Y0058439D02*
X0102084Y0058439D01*
X0102084Y0056841D02*
X0116545Y0056841D01*
X0116545Y0055242D02*
X0102084Y0055242D01*
X0102084Y0053644D02*
X0169414Y0053644D01*
X0168400Y0052045D02*
X0102084Y0052045D01*
X0102084Y0050447D02*
X0167385Y0050447D01*
X0166371Y0048848D02*
X0102084Y0048848D01*
X0102084Y0047527D02*
X0102084Y0074210D01*
X0103377Y0075503D01*
X0104160Y0076286D01*
X0104584Y0077309D01*
X0104584Y0078386D01*
X0105936Y0078386D01*
X0107032Y0078840D01*
X0107871Y0079678D01*
X0108324Y0080774D01*
X0108324Y0094952D01*
X0107871Y0096048D01*
X0107032Y0096886D01*
X0105936Y0097340D01*
X0097664Y0097340D01*
X0096568Y0096886D01*
X0095729Y0096048D01*
X0095276Y0094952D01*
X0095276Y0080774D01*
X0095729Y0079678D01*
X0096568Y0078840D01*
X0097664Y0078386D01*
X0098385Y0078386D01*
X0096940Y0076940D01*
X0096516Y0075917D01*
X0096516Y0045741D01*
X0096469Y0045572D01*
X0096516Y0045192D01*
X0096516Y0044809D01*
X0096583Y0044647D01*
X0096604Y0044473D01*
X0096722Y0044264D01*
X0096722Y0041438D01*
X0097777Y0040384D01*
X0102418Y0040384D01*
X0103472Y0041438D01*
X0103472Y0046473D01*
X0102418Y0047527D01*
X0102084Y0047527D01*
X0102695Y0047250D02*
X0142936Y0047250D01*
X0141529Y0045651D02*
X0103472Y0045651D01*
X0103472Y0044053D02*
X0108278Y0044053D01*
X0108544Y0044163D02*
X0107147Y0043584D01*
X0106079Y0042516D01*
X0105500Y0041119D01*
X0105500Y0040501D01*
X0104259Y0039259D01*
X0101517Y0039259D01*
X0100463Y0038205D01*
X0100463Y0033171D01*
X0101517Y0032116D01*
X0106158Y0032116D01*
X0107212Y0033171D01*
X0107212Y0034338D01*
X0109438Y0036563D01*
X0110056Y0036563D01*
X0111453Y0037142D01*
X0112521Y0038210D01*
X0113100Y0039607D01*
X0113100Y0041119D01*
X0112521Y0042516D01*
X0111453Y0043584D01*
X0110056Y0044163D01*
X0108544Y0044163D01*
X0110322Y0044053D02*
X0140867Y0044053D01*
X0140828Y0042454D02*
X0112547Y0042454D01*
X0113100Y0040856D02*
X0141206Y0040856D01*
X0142155Y0039257D02*
X0112955Y0039257D01*
X0111970Y0037659D02*
X0143625Y0037659D01*
X0141852Y0036060D02*
X0108935Y0036060D01*
X0107336Y0034462D02*
X0141064Y0034462D01*
X0141064Y0031264D02*
X0049256Y0031264D01*
X0049465Y0032863D02*
X0074063Y0032863D01*
X0073907Y0033018D02*
X0074962Y0031964D01*
X0079603Y0031964D01*
X0080657Y0033018D01*
X0080657Y0038053D01*
X0079603Y0039107D01*
X0075398Y0039107D01*
X0075021Y0040016D01*
X0073953Y0041084D01*
X0072556Y0041663D01*
X0071044Y0041663D01*
X0069647Y0041084D01*
X0068579Y0040016D01*
X0068000Y0038619D01*
X0068000Y0037107D01*
X0068579Y0035710D01*
X0069647Y0034642D01*
X0071044Y0034063D01*
X0072556Y0034063D01*
X0073376Y0034403D01*
X0073907Y0034137D01*
X0073907Y0033018D01*
X0070082Y0034462D02*
X0049256Y0034462D01*
X0048546Y0036060D02*
X0068434Y0036060D01*
X0068000Y0037659D02*
X0046760Y0037659D01*
X0048138Y0039257D02*
X0068264Y0039257D01*
X0069419Y0040856D02*
X0049087Y0040856D01*
X0049465Y0042454D02*
X0077648Y0042454D01*
X0077648Y0041286D02*
X0078702Y0040231D01*
X0083000Y0040231D01*
X0083000Y0039607D01*
X0083207Y0039107D01*
X0082442Y0039107D01*
X0081388Y0038053D01*
X0081388Y0033018D01*
X0082442Y0031964D01*
X0087083Y0031964D01*
X0088137Y0033018D01*
X0088137Y0035263D01*
X0088377Y0035503D01*
X0089160Y0036286D01*
X0089400Y0036864D01*
X0089596Y0036390D01*
X0092096Y0033890D01*
X0092827Y0033159D01*
X0093112Y0033041D01*
X0094037Y0032116D01*
X0098677Y0032116D01*
X0099732Y0033171D01*
X0099732Y0038205D01*
X0098677Y0039259D01*
X0094400Y0039259D01*
X0094400Y0045116D01*
X0095005Y0045721D01*
X0095581Y0047111D01*
X0095581Y0048615D01*
X0095005Y0050005D01*
X0093942Y0051068D01*
X0092552Y0051644D01*
X0091048Y0051644D01*
X0089658Y0051068D01*
X0088595Y0050005D01*
X0088019Y0048615D01*
X0088019Y0047111D01*
X0088595Y0045721D01*
X0089200Y0045116D01*
X0089200Y0043337D01*
X0088953Y0043584D01*
X0087556Y0044163D01*
X0086044Y0044163D01*
X0084647Y0043584D01*
X0084397Y0043334D01*
X0084397Y0044332D01*
X0084539Y0044617D01*
X0084546Y0044717D01*
X0084584Y0044809D01*
X0084584Y0045266D01*
X0084616Y0045722D01*
X0084584Y0045817D01*
X0084584Y0071710D01*
X0088377Y0075503D01*
X0089160Y0076286D01*
X0089584Y0077309D01*
X0089584Y0078386D01*
X0090936Y0078386D01*
X0092032Y0078840D01*
X0092871Y0079678D01*
X0093324Y0080774D01*
X0093324Y0094952D01*
X0092871Y0096048D01*
X0092032Y0096886D01*
X0090936Y0097340D01*
X0082664Y0097340D01*
X0081568Y0096886D01*
X0080729Y0096048D01*
X0080276Y0094952D01*
X0080276Y0080774D01*
X0080729Y0079678D01*
X0081568Y0078840D01*
X0082664Y0078386D01*
X0083385Y0078386D01*
X0079440Y0074440D01*
X0079016Y0073417D01*
X0079016Y0047375D01*
X0078702Y0047375D01*
X0077648Y0046320D01*
X0077648Y0041286D01*
X0078078Y0040856D02*
X0074181Y0040856D01*
X0075336Y0039257D02*
X0083145Y0039257D01*
X0081388Y0037659D02*
X0080657Y0037659D01*
X0080657Y0036060D02*
X0081388Y0036060D01*
X0081388Y0034462D02*
X0080657Y0034462D01*
X0080502Y0032863D02*
X0081543Y0032863D01*
X0087982Y0032863D02*
X0093290Y0032863D01*
X0091525Y0034462D02*
X0088137Y0034462D01*
X0088935Y0036060D02*
X0089926Y0036060D01*
X0091800Y0037863D02*
X0094300Y0035363D01*
X0096032Y0035363D01*
X0096357Y0035688D01*
X0099732Y0036060D02*
X0100463Y0036060D01*
X0100463Y0034462D02*
X0099732Y0034462D01*
X0099424Y0032863D02*
X0100770Y0032863D01*
X0100463Y0037659D02*
X0099732Y0037659D01*
X0098680Y0039257D02*
X0101515Y0039257D01*
X0102889Y0040856D02*
X0105500Y0040856D01*
X0106053Y0042454D02*
X0103472Y0042454D01*
X0097305Y0040856D02*
X0094400Y0040856D01*
X0094400Y0042454D02*
X0096722Y0042454D01*
X0096722Y0044053D02*
X0094400Y0044053D01*
X0094935Y0045651D02*
X0096491Y0045651D01*
X0096516Y0047250D02*
X0095581Y0047250D01*
X0095485Y0048848D02*
X0096516Y0048848D01*
X0096516Y0050447D02*
X0094564Y0050447D01*
X0096516Y0052045D02*
X0084584Y0052045D01*
X0084584Y0050447D02*
X0089036Y0050447D01*
X0088115Y0048848D02*
X0084584Y0048848D01*
X0084584Y0047250D02*
X0088019Y0047250D01*
X0088665Y0045651D02*
X0084611Y0045651D01*
X0084397Y0044053D02*
X0085778Y0044053D01*
X0087822Y0044053D02*
X0089200Y0044053D01*
X0091800Y0047863D02*
X0091800Y0037863D01*
X0079016Y0048848D02*
X0047729Y0048848D01*
X0047357Y0047250D02*
X0078577Y0047250D01*
X0077648Y0045651D02*
X0048764Y0045651D01*
X0049426Y0044053D02*
X0077648Y0044053D01*
X0079016Y0050447D02*
X0048918Y0050447D01*
X0049465Y0052045D02*
X0079016Y0052045D01*
X0084584Y0053644D02*
X0096516Y0053644D01*
X0096516Y0055242D02*
X0084584Y0055242D01*
X0084584Y0056841D02*
X0096516Y0056841D01*
X0096516Y0058439D02*
X0084584Y0058439D01*
X0084584Y0060038D02*
X0096516Y0060038D01*
X0096516Y0061636D02*
X0084584Y0061636D01*
X0084584Y0063235D02*
X0096516Y0063235D01*
X0096516Y0064833D02*
X0084584Y0064833D01*
X0084584Y0066432D02*
X0096516Y0066432D01*
X0096516Y0068030D02*
X0084584Y0068030D01*
X0084584Y0069629D02*
X0096516Y0069629D01*
X0096516Y0071227D02*
X0084584Y0071227D01*
X0085700Y0072826D02*
X0096516Y0072826D01*
X0096516Y0074424D02*
X0087299Y0074424D01*
X0088897Y0076023D02*
X0096560Y0076023D01*
X0097621Y0077621D02*
X0089584Y0077621D01*
X0092412Y0079220D02*
X0096188Y0079220D01*
X0095276Y0080818D02*
X0093324Y0080818D01*
X0093324Y0082417D02*
X0095276Y0082417D01*
X0095276Y0084015D02*
X0093324Y0084015D01*
X0093324Y0085614D02*
X0095276Y0085614D01*
X0095276Y0087212D02*
X0093324Y0087212D01*
X0093324Y0088811D02*
X0095276Y0088811D01*
X0095276Y0090409D02*
X0093324Y0090409D01*
X0093324Y0092008D02*
X0095276Y0092008D01*
X0095276Y0093606D02*
X0093324Y0093606D01*
X0093220Y0095205D02*
X0095380Y0095205D01*
X0096485Y0096803D02*
X0092115Y0096803D01*
X0081485Y0096803D02*
X0077115Y0096803D01*
X0078220Y0095205D02*
X0080380Y0095205D01*
X0080276Y0093606D02*
X0078324Y0093606D01*
X0078324Y0092008D02*
X0080276Y0092008D01*
X0080276Y0090409D02*
X0078324Y0090409D01*
X0078324Y0088811D02*
X0080276Y0088811D01*
X0080276Y0087212D02*
X0078324Y0087212D01*
X0078324Y0085614D02*
X0080276Y0085614D01*
X0080276Y0084015D02*
X0078324Y0084015D01*
X0078324Y0082417D02*
X0080276Y0082417D01*
X0080276Y0080818D02*
X0078324Y0080818D01*
X0077412Y0079220D02*
X0081188Y0079220D01*
X0082621Y0077621D02*
X0074584Y0077621D01*
X0074584Y0076023D02*
X0081022Y0076023D01*
X0079433Y0074424D02*
X0074584Y0074424D01*
X0074584Y0072826D02*
X0079016Y0072826D01*
X0079016Y0071227D02*
X0074584Y0071227D01*
X0074584Y0069629D02*
X0079016Y0069629D01*
X0079016Y0068030D02*
X0074584Y0068030D01*
X0074584Y0066432D02*
X0079016Y0066432D01*
X0079016Y0064833D02*
X0074584Y0064833D01*
X0073609Y0063235D02*
X0079016Y0063235D01*
X0062283Y0055242D02*
X0061553Y0055242D01*
X0057332Y0060893D02*
X0054191Y0064035D01*
X0054191Y0063853D01*
X0057150Y0060893D01*
X0057332Y0060893D01*
X0056589Y0061636D02*
X0056408Y0061636D01*
X0054991Y0063235D02*
X0054809Y0063235D01*
X0039384Y0036060D02*
X0034179Y0036060D01*
X0035881Y0034462D02*
X0038674Y0034462D01*
X0038465Y0032863D02*
X0037583Y0032863D01*
X0045486Y0026469D02*
X0144807Y0026469D01*
X0143625Y0028067D02*
X0046760Y0028067D01*
X0048546Y0029666D02*
X0141852Y0029666D01*
X0142607Y0024870D02*
X0047686Y0024870D01*
X0050063Y0023272D02*
X0140230Y0023272D01*
X0137322Y0021673D02*
X0052971Y0021673D01*
X0055879Y0020075D02*
X0134414Y0020075D01*
X0131491Y0018476D02*
X0058802Y0018476D01*
X0062839Y0016878D02*
X0127453Y0016878D01*
X0123416Y0015279D02*
X0066877Y0015279D01*
X0072099Y0013681D02*
X0118194Y0013681D01*
X0111968Y0012082D02*
X0078325Y0012082D01*
X0106905Y0032863D02*
X0146127Y0032863D01*
X0146528Y0032863D02*
X0152710Y0032863D01*
X0151591Y0034462D02*
X0154412Y0034462D01*
X0156114Y0036060D02*
X0150803Y0036060D01*
X0149031Y0037659D02*
X0157739Y0037659D01*
X0159061Y0039257D02*
X0150500Y0039257D01*
X0151449Y0040856D02*
X0160384Y0040856D01*
X0161706Y0042454D02*
X0151828Y0042454D01*
X0151788Y0044053D02*
X0163028Y0044053D01*
X0164342Y0045651D02*
X0151126Y0045651D01*
X0149719Y0047250D02*
X0165356Y0047250D01*
X0173050Y0039257D02*
X0189300Y0039257D01*
X0189300Y0037659D02*
X0171728Y0037659D01*
X0173049Y0039256D02*
X0179529Y0049466D01*
X0184677Y0060407D01*
X0188414Y0071908D01*
X0189300Y0076552D01*
X0189300Y0003050D01*
X0120131Y0003050D01*
X0124903Y0004275D01*
X0136146Y0008727D01*
X0146743Y0014552D01*
X0156526Y0021660D01*
X0165341Y0029938D01*
X0165341Y0029938D01*
X0173049Y0039256D01*
X0174064Y0040856D02*
X0189300Y0040856D01*
X0189300Y0042454D02*
X0175079Y0042454D01*
X0176093Y0044053D02*
X0189300Y0044053D01*
X0189300Y0045651D02*
X0177108Y0045651D01*
X0178122Y0047250D02*
X0189300Y0047250D01*
X0189300Y0048848D02*
X0179137Y0048848D01*
X0179990Y0050447D02*
X0189300Y0050447D01*
X0189300Y0052045D02*
X0180742Y0052045D01*
X0181495Y0053644D02*
X0189300Y0053644D01*
X0189300Y0055242D02*
X0182247Y0055242D01*
X0182999Y0056841D02*
X0189300Y0056841D01*
X0189300Y0058439D02*
X0183751Y0058439D01*
X0184503Y0060038D02*
X0189300Y0060038D01*
X0189300Y0061636D02*
X0185077Y0061636D01*
X0185596Y0063235D02*
X0189300Y0063235D01*
X0189300Y0064833D02*
X0186115Y0064833D01*
X0186635Y0066432D02*
X0189300Y0066432D01*
X0189300Y0068030D02*
X0187154Y0068030D01*
X0187673Y0069629D02*
X0189300Y0069629D01*
X0189300Y0071227D02*
X0188193Y0071227D01*
X0188589Y0072826D02*
X0189300Y0072826D01*
X0189300Y0074424D02*
X0188894Y0074424D01*
X0189199Y0076023D02*
X0189300Y0076023D01*
X0189300Y0036060D02*
X0170405Y0036060D01*
X0169083Y0034462D02*
X0189300Y0034462D01*
X0189300Y0032863D02*
X0167761Y0032863D01*
X0166438Y0031264D02*
X0189300Y0031264D01*
X0189300Y0029666D02*
X0165051Y0029666D01*
X0163349Y0028067D02*
X0189300Y0028067D01*
X0189300Y0026469D02*
X0161647Y0026469D01*
X0159944Y0024870D02*
X0189300Y0024870D01*
X0189300Y0023272D02*
X0158242Y0023272D01*
X0156540Y0021673D02*
X0189300Y0021673D01*
X0189300Y0020075D02*
X0154344Y0020075D01*
X0156526Y0021660D02*
X0156526Y0021660D01*
X0152144Y0018476D02*
X0189300Y0018476D01*
X0189300Y0016878D02*
X0149944Y0016878D01*
X0147743Y0015279D02*
X0189300Y0015279D01*
X0189300Y0013681D02*
X0145158Y0013681D01*
X0142250Y0012082D02*
X0189300Y0012082D01*
X0189300Y0010484D02*
X0139342Y0010484D01*
X0136434Y0008885D02*
X0189300Y0008885D01*
X0189300Y0007287D02*
X0132509Y0007287D01*
X0136146Y0008727D02*
X0136146Y0008727D01*
X0128472Y0005688D02*
X0189300Y0005688D01*
X0189300Y0004090D02*
X0124181Y0004090D01*
X0124903Y0004275D02*
X0124903Y0004275D01*
X0127035Y0063235D02*
X0128791Y0063235D01*
X0130389Y0064833D02*
X0127084Y0064833D01*
X0127084Y0066432D02*
X0131988Y0066432D01*
X0133587Y0068030D02*
X0127084Y0068030D01*
X0127084Y0069629D02*
X0135185Y0069629D01*
X0136784Y0071227D02*
X0126956Y0071227D01*
X0125775Y0072826D02*
X0138382Y0072826D01*
X0139981Y0074424D02*
X0124176Y0074424D01*
X0122578Y0076023D02*
X0141579Y0076023D01*
X0143178Y0077621D02*
X0120979Y0077621D01*
X0122412Y0079220D02*
X0144776Y0079220D01*
X0146375Y0080818D02*
X0123324Y0080818D01*
X0123324Y0082417D02*
X0147973Y0082417D01*
X0149409Y0084015D02*
X0123324Y0084015D01*
X0123324Y0085614D02*
X0149409Y0085614D01*
X0149409Y0087212D02*
X0123324Y0087212D01*
X0123324Y0088811D02*
X0149409Y0088811D01*
X0149409Y0090409D02*
X0123324Y0090409D01*
X0123324Y0092008D02*
X0149409Y0092008D01*
X0149409Y0093606D02*
X0123324Y0093606D01*
X0123220Y0095205D02*
X0149409Y0095205D01*
X0149409Y0096803D02*
X0143136Y0096803D01*
X0145101Y0098402D02*
X0149409Y0098402D01*
X0148961Y0100000D02*
X0145600Y0100000D01*
X0145401Y0101599D02*
X0148424Y0101599D01*
X0148424Y0103197D02*
X0144339Y0103197D01*
X0141328Y0104796D02*
X0148424Y0104796D01*
X0148424Y0106395D02*
X0141200Y0106395D01*
X0140464Y0096803D02*
X0122115Y0096803D01*
X0111485Y0096803D02*
X0107115Y0096803D01*
X0108220Y0095205D02*
X0110380Y0095205D01*
X0110276Y0093606D02*
X0108324Y0093606D01*
X0108324Y0092008D02*
X0110276Y0092008D01*
X0110276Y0090409D02*
X0108324Y0090409D01*
X0108324Y0088811D02*
X0110276Y0088811D01*
X0110276Y0087212D02*
X0108324Y0087212D01*
X0108324Y0085614D02*
X0110276Y0085614D01*
X0110276Y0084015D02*
X0108324Y0084015D01*
X0108324Y0082417D02*
X0110276Y0082417D01*
X0110276Y0080818D02*
X0108324Y0080818D01*
X0107412Y0079220D02*
X0111188Y0079220D01*
X0114016Y0077621D02*
X0104584Y0077621D01*
X0103897Y0076023D02*
X0114703Y0076023D01*
X0116301Y0074424D02*
X0102299Y0074424D01*
X0102084Y0072826D02*
X0117900Y0072826D01*
X0119498Y0071227D02*
X0102084Y0071227D01*
X0102084Y0069629D02*
X0121097Y0069629D01*
X0162606Y0117584D02*
X0177801Y0117584D01*
X0177282Y0119183D02*
X0162606Y0119183D01*
X0162606Y0120781D02*
X0176763Y0120781D01*
X0176243Y0122380D02*
X0162606Y0122380D01*
X0161773Y0123978D02*
X0175724Y0123978D01*
X0175204Y0125577D02*
X0155600Y0125577D01*
X0107243Y0159145D02*
X0083050Y0159145D01*
X0085228Y0160744D02*
X0105065Y0160744D01*
X0104089Y0162342D02*
X0086204Y0162342D01*
X0086698Y0163941D02*
X0103595Y0163941D01*
X0103595Y0165539D02*
X0086698Y0165539D01*
X0086215Y0167138D02*
X0104078Y0167138D01*
X0105040Y0168736D02*
X0085253Y0168736D01*
X0085304Y0170335D02*
X0085304Y0170335D01*
X0085304Y0171933D02*
X0085304Y0171933D01*
X0085304Y0173532D02*
X0085304Y0173532D01*
X0085304Y0175130D02*
X0085304Y0175130D01*
X0085304Y0176729D02*
X0085304Y0176729D01*
X0085304Y0178328D02*
X0085304Y0178328D01*
X0088850Y0178328D02*
X0101443Y0178328D01*
X0100302Y0176729D02*
X0089993Y0176729D01*
X0090430Y0175130D02*
X0099843Y0175130D01*
X0099859Y0173532D02*
X0090346Y0173532D01*
X0089724Y0171933D02*
X0100521Y0171933D01*
X0101971Y0170335D02*
X0088196Y0170335D01*
D17*
X0056780Y0133700D02*
X0056800Y0132863D01*
X0049694Y0133700D02*
X0049300Y0132863D01*
X0049300Y0127863D01*
X0049300Y0120363D01*
X0049694Y0119330D01*
X0049871Y0117509D01*
X0056780Y0117863D02*
X0056800Y0117863D01*
X0056780Y0119330D01*
X0054437Y0108462D02*
X0054300Y0107863D01*
X0036446Y0119392D02*
X0036800Y0120363D01*
X0036800Y0125363D01*
X0036800Y0132863D01*
X0036662Y0133576D01*
X0029576Y0133576D02*
X0029300Y0132863D01*
X0029300Y0130363D01*
X0021800Y0122863D01*
X0021800Y0095363D01*
X0034300Y0095363D01*
X0051800Y0077863D01*
X0051800Y0062863D01*
X0056800Y0057863D01*
X0058178Y0057322D01*
X0071800Y0037863D02*
X0076800Y0035363D01*
X0077282Y0035535D01*
X0096357Y0035688D02*
X0096800Y0035363D01*
X0119920Y0057243D02*
X0114300Y0062863D01*
X0126800Y0057863D02*
X0127400Y0057243D01*
X0126800Y0057863D02*
X0151800Y0082863D01*
X0151800Y0102863D01*
X0151798Y0103646D01*
X0136800Y0115363D02*
X0136800Y0117863D01*
X0137430Y0120166D01*
X0136800Y0120363D01*
X0136800Y0132863D01*
X0137961Y0133965D01*
X0151800Y0132863D02*
X0151800Y0125363D01*
X0151800Y0120363D01*
X0152144Y0120096D01*
X0152233Y0119477D01*
X0152144Y0120096D02*
X0152233Y0121446D01*
X0151800Y0132863D02*
X0152271Y0134180D01*
X0152233Y0133257D01*
X0159357Y0134180D02*
X0159300Y0135363D01*
X0164300Y0130363D01*
D18*
X0164300Y0130363D03*
X0151800Y0125363D03*
X0136800Y0115363D03*
X0141800Y0100363D03*
X0114300Y0062863D03*
X0109300Y0040363D03*
X0086800Y0040363D03*
X0071800Y0037863D03*
X0054300Y0097863D03*
X0036800Y0125363D03*
X0049300Y0127863D03*
X0046800Y0142863D03*
X0099300Y0127863D03*
D19*
X0094300Y0132863D01*
X0091800Y0132863D01*
X0054300Y0097863D02*
X0049300Y0102863D01*
X0049162Y0104300D01*
X0036800Y0102863D02*
X0036662Y0104178D01*
X0036800Y0102863D02*
X0054300Y0085363D01*
X0054300Y0067863D01*
X0064300Y0057863D01*
X0065658Y0057322D01*
X0061800Y0065363D02*
X0061918Y0065589D01*
X0061800Y0065363D02*
X0071800Y0065363D01*
X0071800Y0087863D01*
X0086800Y0087863D02*
X0086800Y0077863D01*
X0081800Y0072863D01*
X0081800Y0045363D01*
X0081022Y0043803D01*
X0086800Y0040363D02*
X0086800Y0037863D01*
X0084300Y0035363D01*
X0084763Y0035535D01*
X0100097Y0043956D02*
X0099300Y0045363D01*
X0099300Y0075363D01*
X0101800Y0077863D01*
X0101800Y0087863D01*
X0116800Y0087863D02*
X0116800Y0077863D01*
X0124300Y0070363D01*
X0124300Y0065363D01*
X0123660Y0065511D01*
X0109300Y0040363D02*
X0104300Y0035363D01*
X0103837Y0035688D01*
X0141800Y0100363D02*
X0139300Y0102863D01*
X0137825Y0103726D01*
D20*
X0056800Y0133719D02*
X0056780Y0133700D01*
X0056800Y0133719D02*
X0056800Y0140363D01*
X0054300Y0142863D01*
X0046800Y0142863D01*
D21*
X0119300Y0140363D03*
X0091800Y0047863D03*
M02*
