G75*
%MOIN*%
%OFA0B0*%
%FSLAX25Y25*%
%IPPOS*%
%LPD*%
%AMOC8*
5,1,8,0,0,1.08239X$1,22.5*
%
%ADD10C,0.07400*%
%ADD11C,0.08661*%
%ADD12C,0.06693*%
%ADD13C,0.02000*%
%ADD14C,0.01181*%
%ADD15C,0.04000*%
%ADD16C,0.01969*%
%ADD17C,0.03962*%
%ADD18C,0.01600*%
D10*
X0017748Y0046429D03*
X0017748Y0056429D03*
X0017748Y0066429D03*
X0017748Y0076429D03*
X0017748Y0086429D03*
X0120110Y0056429D03*
X0120110Y0046429D03*
D11*
X0083509Y0028713D03*
X0054350Y0028713D03*
D12*
X0059087Y0018870D03*
X0078772Y0018870D03*
D13*
X0078772Y0018870D01*
X0084118Y0018870D01*
X0084118Y0018449D01*
X0083986Y0017618D01*
X0083726Y0016818D01*
X0083344Y0016068D01*
X0082850Y0015387D01*
X0082255Y0014792D01*
X0081574Y0014297D01*
X0081182Y0014098D01*
X0081683Y0014173D01*
X0089869Y0016698D01*
X0097587Y0020415D01*
X0104664Y0025240D01*
X0110944Y0031067D01*
X0110944Y0031067D01*
X0116285Y0037764D01*
X0118188Y0041060D01*
X0117922Y0041147D01*
X0117123Y0041554D01*
X0116397Y0042081D01*
X0115763Y0042716D01*
X0115235Y0043442D01*
X0114828Y0044241D01*
X0114551Y0045094D01*
X0114410Y0045981D01*
X0114410Y0046429D01*
X0120110Y0046429D01*
X0120110Y0046429D01*
X0114410Y0046429D01*
X0114410Y0046878D01*
X0114551Y0047764D01*
X0114828Y0048617D01*
X0115235Y0049417D01*
X0115763Y0050142D01*
X0116397Y0050777D01*
X0117123Y0051304D01*
X0117331Y0051411D01*
X0116881Y0051597D01*
X0115278Y0053200D01*
X0114410Y0055295D01*
X0114410Y0057563D01*
X0115278Y0059658D01*
X0116654Y0061033D01*
X0116654Y0073264D01*
X0110122Y0079795D01*
X0110122Y0039673D01*
X0110529Y0039266D01*
X0111138Y0037796D01*
X0111138Y0036204D01*
X0110529Y0034734D01*
X0109404Y0033609D01*
X0107933Y0033000D01*
X0106342Y0033000D01*
X0104872Y0033609D01*
X0103747Y0034734D01*
X0103138Y0036204D01*
X0103138Y0037796D01*
X0103747Y0039266D01*
X0104154Y0039673D01*
X0104154Y0080500D01*
X0103842Y0080500D01*
X0102372Y0081109D01*
X0101789Y0081692D01*
X0102369Y0080292D01*
X0102369Y0078708D01*
X0101763Y0077245D01*
X0101188Y0076670D01*
X0101188Y0069830D01*
X0101763Y0069255D01*
X0102369Y0067792D01*
X0102369Y0066208D01*
X0101763Y0064745D01*
X0100643Y0063625D01*
X0099180Y0063019D01*
X0097596Y0063019D01*
X0096133Y0063625D01*
X0095013Y0064745D01*
X0094728Y0065432D01*
X0094728Y0037566D01*
X0095529Y0036766D01*
X0096138Y0035296D01*
X0096138Y0033704D01*
X0095529Y0032234D01*
X0094404Y0031109D01*
X0092933Y0030500D01*
X0091342Y0030500D01*
X0089872Y0031109D01*
X0089012Y0031969D01*
X0089839Y0029972D01*
X0089839Y0027453D01*
X0088876Y0025127D01*
X0087095Y0023346D01*
X0084768Y0022382D01*
X0082821Y0022382D01*
X0082850Y0022353D01*
X0083344Y0021672D01*
X0083726Y0020922D01*
X0083986Y0020122D01*
X0084118Y0019291D01*
X0084118Y0018870D01*
X0078772Y0018870D01*
X0078772Y0018870D01*
X0078772Y0024217D01*
X0079052Y0024217D01*
X0078142Y0025127D01*
X0077178Y0027453D01*
X0077178Y0029972D01*
X0078142Y0032299D01*
X0079923Y0034080D01*
X0082249Y0035043D01*
X0084768Y0035043D01*
X0087095Y0034080D01*
X0088610Y0032564D01*
X0088138Y0033704D01*
X0088138Y0035296D01*
X0088747Y0036766D01*
X0089547Y0037566D01*
X0089547Y0080500D01*
X0088842Y0080500D01*
X0087372Y0081109D01*
X0086247Y0082234D01*
X0085638Y0083704D01*
X0085638Y0085296D01*
X0086143Y0086516D01*
X0084044Y0086516D01*
X0082947Y0086970D01*
X0082108Y0087810D01*
X0081917Y0088000D01*
X0081342Y0088000D01*
X0079872Y0088609D01*
X0078747Y0089734D01*
X0078685Y0089884D01*
X0069728Y0080927D01*
X0069728Y0013985D01*
X0069334Y0013033D01*
X0069198Y0012896D01*
X0073212Y0012896D01*
X0077874Y0013599D01*
X0077520Y0013655D01*
X0076719Y0013915D01*
X0075969Y0014297D01*
X0075289Y0014792D01*
X0074694Y0015387D01*
X0074199Y0016068D01*
X0073817Y0016818D01*
X0073557Y0017618D01*
X0073425Y0018449D01*
X0073425Y0018870D01*
X0078772Y0018870D01*
X0078772Y0024217D01*
X0078351Y0024217D01*
X0077520Y0024085D01*
X0076719Y0023825D01*
X0075969Y0023443D01*
X0075289Y0022948D01*
X0074694Y0022353D01*
X0074199Y0021672D01*
X0073817Y0020922D01*
X0073557Y0020122D01*
X0073425Y0019291D01*
X0073425Y0018870D01*
X0078772Y0018870D01*
X0078772Y0018870D01*
X0078772Y0019470D02*
X0078772Y0019470D01*
X0078772Y0021469D02*
X0078772Y0021469D01*
X0078772Y0023467D02*
X0078772Y0023467D01*
X0078001Y0025466D02*
X0069728Y0025466D01*
X0069728Y0023467D02*
X0076018Y0023467D01*
X0074095Y0021469D02*
X0069728Y0021469D01*
X0069728Y0019470D02*
X0073454Y0019470D01*
X0073604Y0017472D02*
X0069728Y0017472D01*
X0069728Y0015473D02*
X0074631Y0015473D01*
X0077049Y0013475D02*
X0069517Y0013475D01*
X0082912Y0015473D02*
X0085898Y0015473D01*
X0083939Y0017472D02*
X0091475Y0017472D01*
X0095625Y0019470D02*
X0084090Y0019470D01*
X0083448Y0021469D02*
X0099132Y0021469D01*
X0102064Y0023467D02*
X0087216Y0023467D01*
X0089016Y0025466D02*
X0104907Y0025466D01*
X0107061Y0027464D02*
X0089839Y0027464D01*
X0089839Y0029463D02*
X0109215Y0029463D01*
X0111258Y0031461D02*
X0094756Y0031461D01*
X0096036Y0033460D02*
X0105232Y0033460D01*
X0103447Y0035458D02*
X0096070Y0035458D01*
X0094838Y0037457D02*
X0103138Y0037457D01*
X0103936Y0039455D02*
X0094728Y0039455D01*
X0094728Y0041454D02*
X0104154Y0041454D01*
X0104154Y0043452D02*
X0094728Y0043452D01*
X0094728Y0045451D02*
X0104154Y0045451D01*
X0104154Y0047449D02*
X0094728Y0047449D01*
X0094728Y0049448D02*
X0104154Y0049448D01*
X0104154Y0051446D02*
X0094728Y0051446D01*
X0094728Y0053445D02*
X0104154Y0053445D01*
X0104154Y0055443D02*
X0094728Y0055443D01*
X0094728Y0057442D02*
X0104154Y0057442D01*
X0104154Y0059440D02*
X0094728Y0059440D01*
X0094728Y0061439D02*
X0104154Y0061439D01*
X0104154Y0063437D02*
X0100190Y0063437D01*
X0102049Y0065436D02*
X0104154Y0065436D01*
X0104154Y0067434D02*
X0102369Y0067434D01*
X0101585Y0069433D02*
X0104154Y0069433D01*
X0104154Y0071432D02*
X0101188Y0071432D01*
X0101188Y0073430D02*
X0104154Y0073430D01*
X0104154Y0075429D02*
X0101188Y0075429D01*
X0101838Y0077427D02*
X0104154Y0077427D01*
X0104154Y0079426D02*
X0102369Y0079426D01*
X0102057Y0081424D02*
X0101900Y0081424D01*
X0110122Y0079426D02*
X0110492Y0079426D01*
X0110122Y0077427D02*
X0112490Y0077427D01*
X0114489Y0075429D02*
X0110122Y0075429D01*
X0110122Y0073430D02*
X0116487Y0073430D01*
X0116654Y0071432D02*
X0110122Y0071432D01*
X0110122Y0069433D02*
X0116654Y0069433D01*
X0116654Y0067434D02*
X0110122Y0067434D01*
X0110122Y0065436D02*
X0116654Y0065436D01*
X0116654Y0063437D02*
X0110122Y0063437D01*
X0110122Y0061439D02*
X0116654Y0061439D01*
X0115188Y0059440D02*
X0110122Y0059440D01*
X0110122Y0057442D02*
X0114410Y0057442D01*
X0114410Y0055443D02*
X0110122Y0055443D01*
X0110122Y0053445D02*
X0115177Y0053445D01*
X0117245Y0051446D02*
X0110122Y0051446D01*
X0110122Y0049448D02*
X0115258Y0049448D01*
X0114501Y0047449D02*
X0110122Y0047449D01*
X0110122Y0045451D02*
X0114494Y0045451D01*
X0115230Y0043452D02*
X0110122Y0043452D01*
X0110122Y0041454D02*
X0117319Y0041454D01*
X0117261Y0039455D02*
X0110339Y0039455D01*
X0111138Y0037457D02*
X0116040Y0037457D01*
X0114446Y0035458D02*
X0110829Y0035458D01*
X0109044Y0033460D02*
X0112852Y0033460D01*
X0089520Y0031461D02*
X0089222Y0031461D01*
X0088239Y0033460D02*
X0087714Y0033460D01*
X0088205Y0035458D02*
X0069728Y0035458D01*
X0069728Y0033460D02*
X0079303Y0033460D01*
X0077795Y0031461D02*
X0069728Y0031461D01*
X0069728Y0029463D02*
X0077178Y0029463D01*
X0077178Y0027464D02*
X0069728Y0027464D01*
X0069728Y0037457D02*
X0089438Y0037457D01*
X0089547Y0039455D02*
X0069728Y0039455D01*
X0069728Y0041454D02*
X0089547Y0041454D01*
X0089547Y0043452D02*
X0069728Y0043452D01*
X0069728Y0045451D02*
X0089547Y0045451D01*
X0089547Y0047449D02*
X0069728Y0047449D01*
X0069728Y0049448D02*
X0089547Y0049448D01*
X0089547Y0051446D02*
X0069728Y0051446D01*
X0069728Y0053445D02*
X0089547Y0053445D01*
X0089547Y0055443D02*
X0069728Y0055443D01*
X0069728Y0057442D02*
X0089547Y0057442D01*
X0089547Y0059440D02*
X0069728Y0059440D01*
X0069728Y0061439D02*
X0089547Y0061439D01*
X0089547Y0063437D02*
X0069728Y0063437D01*
X0069728Y0065436D02*
X0089547Y0065436D01*
X0089547Y0067434D02*
X0069728Y0067434D01*
X0069728Y0069433D02*
X0089547Y0069433D01*
X0089547Y0071432D02*
X0069728Y0071432D01*
X0069728Y0073430D02*
X0089547Y0073430D01*
X0089547Y0075429D02*
X0069728Y0075429D01*
X0069728Y0077427D02*
X0089547Y0077427D01*
X0089547Y0079426D02*
X0069728Y0079426D01*
X0070225Y0081424D02*
X0087057Y0081424D01*
X0085754Y0083423D02*
X0072224Y0083423D01*
X0074222Y0085421D02*
X0085690Y0085421D01*
X0082498Y0087420D02*
X0076221Y0087420D01*
X0078219Y0089418D02*
X0079063Y0089418D01*
X0094728Y0063437D02*
X0096585Y0063437D01*
D14*
X0019638Y0044500D02*
X0017748Y0046429D01*
X0019638Y0044500D02*
X0027138Y0044500D01*
X0057138Y0014500D01*
X0067138Y0014500D01*
X0067138Y0082000D01*
X0082138Y0097000D01*
X0107138Y0097000D01*
X0112138Y0092000D01*
X0102138Y0102000D02*
X0107138Y0107000D01*
X0107138Y0112000D01*
X0087138Y0112000D01*
X0074638Y0124500D01*
X0059638Y0124500D01*
X0027138Y0092000D01*
X0022138Y0092000D01*
X0017138Y0087000D01*
X0017748Y0086429D01*
X0019638Y0077000D02*
X0017748Y0076429D01*
X0019638Y0077000D02*
X0022138Y0077000D01*
X0067138Y0122000D01*
X0074638Y0122000D01*
X0089638Y0107000D01*
X0102138Y0107000D01*
X0102138Y0102000D02*
X0084638Y0102000D01*
X0079638Y0097000D01*
X0064638Y0097000D01*
X0064638Y0024500D01*
X0059638Y0019500D01*
X0059087Y0018870D01*
X0039638Y0047000D02*
X0039638Y0087000D01*
X0042138Y0087000D01*
X0054638Y0099500D01*
X0072138Y0119500D02*
X0074638Y0117000D01*
X0077138Y0117000D01*
X0077138Y0112000D01*
X0072138Y0119500D02*
X0069638Y0119500D01*
X0017138Y0067000D01*
X0017748Y0066429D01*
X0019638Y0057000D02*
X0017748Y0056429D01*
X0019638Y0057000D02*
X0027138Y0057000D01*
X0027138Y0072000D01*
X0089638Y0084500D02*
X0092138Y0084500D01*
X0092138Y0034500D01*
D15*
X0092138Y0034500D03*
X0107138Y0037000D03*
X0104638Y0084500D03*
X0112138Y0092000D03*
X0102138Y0107000D03*
X0082138Y0092000D03*
X0089638Y0084500D03*
X0077138Y0112000D03*
X0072138Y0114500D03*
X0054638Y0099500D03*
X0034638Y0079500D03*
X0027138Y0072000D03*
X0044638Y0057000D03*
X0039638Y0047000D03*
X0044638Y0034500D03*
D16*
X0034638Y0044500D01*
X0034638Y0079500D01*
X0044638Y0084500D02*
X0072138Y0112000D01*
X0072138Y0114500D01*
X0082138Y0092000D02*
X0084638Y0089500D01*
X0104638Y0089500D01*
X0119638Y0074500D01*
X0119638Y0057000D01*
X0120110Y0056429D01*
X0107138Y0037000D02*
X0107138Y0082000D01*
X0104638Y0084500D01*
X0044638Y0084500D02*
X0044638Y0057000D01*
D17*
X0098388Y0067000D03*
X0098388Y0079500D03*
D18*
X0098388Y0067000D01*
M02*
