G75*
%MOIN*%
%OFA0B0*%
%FSLAX25Y25*%
%IPPOS*%
%LPD*%
%AMOC8*
5,1,8,0,0,1.08239X$1,22.5*
%
%ADD10C,0.01600*%
%ADD11C,0.00800*%
%ADD12C,0.00100*%
%ADD13C,0.00600*%
%ADD14C,0.00500*%
%ADD15C,0.00400*%
%ADD16C,0.00200*%
%ADD17C,0.00000*%
D10*
X0005814Y0070051D02*
X0005833Y0071600D01*
X0005890Y0073148D01*
X0005985Y0074694D01*
X0006118Y0076237D01*
X0006289Y0077777D01*
X0006497Y0079312D01*
X0006743Y0080841D01*
X0007027Y0082364D01*
X0007348Y0083880D01*
X0007705Y0085387D01*
X0008100Y0086885D01*
X0008532Y0088372D01*
X0009000Y0089849D01*
X0009503Y0091314D01*
X0010043Y0092766D01*
X0010618Y0094204D01*
X0011229Y0095628D01*
X0011874Y0097036D01*
X0012553Y0098428D01*
X0013267Y0099803D01*
X0014013Y0101160D01*
X0014793Y0102499D01*
X0015606Y0103817D01*
X0016451Y0105116D01*
X0017327Y0106393D01*
X0018235Y0107649D01*
X0019173Y0108881D01*
X0020140Y0110091D01*
X0021138Y0111276D01*
X0022164Y0112436D01*
X0023218Y0113571D01*
X0024300Y0114680D01*
X0025409Y0115762D01*
X0026544Y0116816D01*
X0027704Y0117842D01*
X0028889Y0118840D01*
X0030099Y0119807D01*
X0031331Y0120745D01*
X0032587Y0121653D01*
X0033864Y0122529D01*
X0035163Y0123374D01*
X0036481Y0124187D01*
X0037820Y0124967D01*
X0039177Y0125713D01*
X0040552Y0126427D01*
X0041944Y0127106D01*
X0043352Y0127751D01*
X0044776Y0128362D01*
X0046214Y0128937D01*
X0047666Y0129477D01*
X0049131Y0129980D01*
X0050608Y0130448D01*
X0052095Y0130880D01*
X0053593Y0131275D01*
X0055100Y0131632D01*
X0056616Y0131953D01*
X0058139Y0132237D01*
X0059668Y0132483D01*
X0061203Y0132691D01*
X0062743Y0132862D01*
X0064286Y0132995D01*
X0065832Y0133090D01*
X0067380Y0133147D01*
X0068929Y0133166D01*
X0070478Y0133147D01*
X0072026Y0133090D01*
X0073572Y0132995D01*
X0075115Y0132862D01*
X0076655Y0132691D01*
X0078190Y0132483D01*
X0079719Y0132237D01*
X0081242Y0131953D01*
X0082758Y0131632D01*
X0084265Y0131275D01*
X0085763Y0130880D01*
X0087250Y0130448D01*
X0088727Y0129980D01*
X0090192Y0129477D01*
X0091644Y0128937D01*
X0093082Y0128362D01*
X0094506Y0127751D01*
X0095914Y0127106D01*
X0097306Y0126427D01*
X0098681Y0125713D01*
X0100038Y0124967D01*
X0101377Y0124187D01*
X0102695Y0123374D01*
X0103994Y0122529D01*
X0105271Y0121653D01*
X0106527Y0120745D01*
X0107759Y0119807D01*
X0108969Y0118840D01*
X0110154Y0117842D01*
X0111314Y0116816D01*
X0112449Y0115762D01*
X0113558Y0114680D01*
X0114640Y0113571D01*
X0115694Y0112436D01*
X0116720Y0111276D01*
X0117718Y0110091D01*
X0118685Y0108881D01*
X0119623Y0107649D01*
X0120531Y0106393D01*
X0121407Y0105116D01*
X0122252Y0103817D01*
X0123065Y0102499D01*
X0123845Y0101160D01*
X0124591Y0099803D01*
X0125305Y0098428D01*
X0125984Y0097036D01*
X0126629Y0095628D01*
X0127240Y0094204D01*
X0127815Y0092766D01*
X0128355Y0091314D01*
X0128858Y0089849D01*
X0129326Y0088372D01*
X0129758Y0086885D01*
X0130153Y0085387D01*
X0130510Y0083880D01*
X0130831Y0082364D01*
X0131115Y0080841D01*
X0131361Y0079312D01*
X0131569Y0077777D01*
X0131740Y0076237D01*
X0131873Y0074694D01*
X0131968Y0073148D01*
X0132025Y0071600D01*
X0132044Y0070051D01*
X0132025Y0068502D01*
X0131968Y0066954D01*
X0131873Y0065408D01*
X0131740Y0063865D01*
X0131569Y0062325D01*
X0131361Y0060790D01*
X0131115Y0059261D01*
X0130831Y0057738D01*
X0130510Y0056222D01*
X0130153Y0054715D01*
X0129758Y0053217D01*
X0129326Y0051730D01*
X0128858Y0050253D01*
X0128355Y0048788D01*
X0127815Y0047336D01*
X0127240Y0045898D01*
X0126629Y0044474D01*
X0125984Y0043066D01*
X0125305Y0041674D01*
X0124591Y0040299D01*
X0123845Y0038942D01*
X0123065Y0037603D01*
X0122252Y0036285D01*
X0121407Y0034986D01*
X0120531Y0033709D01*
X0119623Y0032453D01*
X0118685Y0031221D01*
X0117718Y0030011D01*
X0116720Y0028826D01*
X0115694Y0027666D01*
X0114640Y0026531D01*
X0113558Y0025422D01*
X0112449Y0024340D01*
X0111314Y0023286D01*
X0110154Y0022260D01*
X0108969Y0021262D01*
X0107759Y0020295D01*
X0106527Y0019357D01*
X0105271Y0018449D01*
X0103994Y0017573D01*
X0102695Y0016728D01*
X0101377Y0015915D01*
X0100038Y0015135D01*
X0098681Y0014389D01*
X0097306Y0013675D01*
X0095914Y0012996D01*
X0094506Y0012351D01*
X0093082Y0011740D01*
X0091644Y0011165D01*
X0090192Y0010625D01*
X0088727Y0010122D01*
X0087250Y0009654D01*
X0085763Y0009222D01*
X0084265Y0008827D01*
X0082758Y0008470D01*
X0081242Y0008149D01*
X0079719Y0007865D01*
X0078190Y0007619D01*
X0076655Y0007411D01*
X0075115Y0007240D01*
X0073572Y0007107D01*
X0072026Y0007012D01*
X0070478Y0006955D01*
X0068929Y0006936D01*
X0067380Y0006955D01*
X0065832Y0007012D01*
X0064286Y0007107D01*
X0062743Y0007240D01*
X0061203Y0007411D01*
X0059668Y0007619D01*
X0058139Y0007865D01*
X0056616Y0008149D01*
X0055100Y0008470D01*
X0053593Y0008827D01*
X0052095Y0009222D01*
X0050608Y0009654D01*
X0049131Y0010122D01*
X0047666Y0010625D01*
X0046214Y0011165D01*
X0044776Y0011740D01*
X0043352Y0012351D01*
X0041944Y0012996D01*
X0040552Y0013675D01*
X0039177Y0014389D01*
X0037820Y0015135D01*
X0036481Y0015915D01*
X0035163Y0016728D01*
X0033864Y0017573D01*
X0032587Y0018449D01*
X0031331Y0019357D01*
X0030099Y0020295D01*
X0028889Y0021262D01*
X0027704Y0022260D01*
X0026544Y0023286D01*
X0025409Y0024340D01*
X0024300Y0025422D01*
X0023218Y0026531D01*
X0022164Y0027666D01*
X0021138Y0028826D01*
X0020140Y0030011D01*
X0019173Y0031221D01*
X0018235Y0032453D01*
X0017327Y0033709D01*
X0016451Y0034986D01*
X0015606Y0036285D01*
X0014793Y0037603D01*
X0014013Y0038942D01*
X0013267Y0040299D01*
X0012553Y0041674D01*
X0011874Y0043066D01*
X0011229Y0044474D01*
X0010618Y0045898D01*
X0010043Y0047336D01*
X0009503Y0048788D01*
X0009000Y0050253D01*
X0008532Y0051730D01*
X0008100Y0053217D01*
X0007705Y0054715D01*
X0007348Y0056222D01*
X0007027Y0057738D01*
X0006743Y0059261D01*
X0006497Y0060790D01*
X0006289Y0062325D01*
X0006118Y0063865D01*
X0005985Y0065408D01*
X0005890Y0066954D01*
X0005833Y0068502D01*
X0005814Y0070051D01*
D11*
X0029608Y0038609D02*
X0029608Y0035460D01*
X0029608Y0038609D02*
X0031970Y0038609D01*
X0038270Y0038609D02*
X0040632Y0038609D01*
X0040632Y0035460D01*
X0054059Y0022807D02*
X0054059Y0009244D01*
X0083799Y0009244D01*
X0083799Y0022807D01*
X0076803Y0027244D02*
X0061055Y0027244D01*
X0041213Y0054746D02*
X0041213Y0057896D01*
X0038850Y0057896D01*
X0032551Y0057896D02*
X0030189Y0057896D01*
X0030189Y0054746D01*
X0095868Y0054667D02*
X0095868Y0057817D01*
X0098230Y0057817D01*
X0104530Y0057817D02*
X0106892Y0057817D01*
X0106892Y0054667D01*
X0106951Y0038762D02*
X0104589Y0038762D01*
X0106951Y0038762D02*
X0106951Y0035612D01*
X0098289Y0038762D02*
X0095927Y0038762D01*
X0095927Y0035612D01*
D12*
X0098489Y0043056D02*
X0098239Y0043306D01*
X0098239Y0044307D01*
X0098489Y0044557D01*
X0098990Y0044557D01*
X0099240Y0044307D01*
X0099240Y0043306D01*
X0098990Y0043056D01*
X0098489Y0043056D01*
X0098739Y0043556D02*
X0099240Y0043056D01*
X0099712Y0043306D02*
X0099962Y0043056D01*
X0100463Y0043056D01*
X0100713Y0043306D01*
X0100713Y0043556D01*
X0100463Y0043807D01*
X0100213Y0043807D01*
X0100463Y0043807D02*
X0100713Y0044057D01*
X0100713Y0044307D01*
X0100463Y0044557D01*
X0099962Y0044557D01*
X0099712Y0044307D01*
X0099181Y0062111D02*
X0098680Y0062611D01*
X0098430Y0062111D02*
X0098180Y0062361D01*
X0098180Y0063362D01*
X0098430Y0063612D01*
X0098931Y0063612D01*
X0099181Y0063362D01*
X0099181Y0062361D01*
X0098931Y0062111D01*
X0098430Y0062111D01*
X0099653Y0062862D02*
X0100654Y0062862D01*
X0100404Y0063612D02*
X0099653Y0062862D01*
X0100404Y0063612D02*
X0100404Y0062111D01*
X0112353Y0062412D02*
X0112353Y0063913D01*
X0113103Y0063913D01*
X0113354Y0063663D01*
X0113354Y0063163D01*
X0113103Y0062913D01*
X0112353Y0062913D01*
X0112853Y0062913D02*
X0113354Y0062412D01*
X0113826Y0062162D02*
X0114827Y0062162D01*
X0115299Y0062412D02*
X0115800Y0062913D01*
X0116300Y0062412D01*
X0116300Y0063913D01*
X0116772Y0063913D02*
X0116772Y0062412D01*
X0116772Y0063163D02*
X0117773Y0063163D01*
X0117773Y0063913D02*
X0117773Y0062412D01*
X0118246Y0062412D02*
X0118746Y0062412D01*
X0118496Y0062412D02*
X0118496Y0063913D01*
X0118246Y0063913D02*
X0118746Y0063913D01*
X0119228Y0063913D02*
X0120229Y0063913D01*
X0120701Y0063913D02*
X0120701Y0062412D01*
X0121702Y0062412D01*
X0121202Y0063163D02*
X0120701Y0063163D01*
X0120701Y0063913D02*
X0121702Y0063913D01*
X0119728Y0063913D02*
X0119728Y0062412D01*
X0115299Y0062412D02*
X0115299Y0063913D01*
X0119574Y0073612D02*
X0120575Y0073612D01*
X0121047Y0073862D02*
X0121548Y0074363D01*
X0122048Y0073862D01*
X0122048Y0075363D01*
X0121047Y0075363D02*
X0121047Y0073862D01*
X0119102Y0074112D02*
X0119102Y0075113D01*
X0118851Y0075363D01*
X0118101Y0075363D01*
X0118101Y0073862D01*
X0118851Y0073862D01*
X0119102Y0074112D01*
X0117628Y0074613D02*
X0117628Y0075113D01*
X0117378Y0075363D01*
X0116627Y0075363D01*
X0116627Y0073862D01*
X0116155Y0073862D02*
X0115655Y0074363D01*
X0115905Y0074363D02*
X0115154Y0074363D01*
X0115154Y0073862D02*
X0115154Y0075363D01*
X0115905Y0075363D01*
X0116155Y0075113D01*
X0116155Y0074613D01*
X0115905Y0074363D01*
X0116627Y0074363D02*
X0117378Y0074363D01*
X0117628Y0074613D01*
X0117648Y0091046D02*
X0117147Y0091546D01*
X0117397Y0091546D02*
X0116647Y0091546D01*
X0116647Y0091046D02*
X0116647Y0092547D01*
X0117397Y0092547D01*
X0117648Y0092297D01*
X0117648Y0091797D01*
X0117397Y0091546D01*
X0118120Y0091296D02*
X0118120Y0092297D01*
X0118370Y0092547D01*
X0118871Y0092547D01*
X0119121Y0092297D01*
X0119121Y0091797D02*
X0118621Y0091797D01*
X0119121Y0091797D02*
X0119121Y0091296D01*
X0118871Y0091046D01*
X0118370Y0091046D01*
X0118120Y0091296D01*
X0119593Y0091046D02*
X0119593Y0092547D01*
X0120594Y0092547D02*
X0120594Y0091046D01*
X0120094Y0091546D01*
X0119593Y0091046D01*
X0103482Y0092403D02*
X0102481Y0092403D01*
X0102481Y0093904D01*
X0103482Y0093904D01*
X0102981Y0093153D02*
X0102481Y0093153D01*
X0102008Y0092653D02*
X0102008Y0093904D01*
X0101008Y0093904D02*
X0101008Y0092653D01*
X0101258Y0092403D01*
X0101758Y0092403D01*
X0102008Y0092653D01*
X0100535Y0092403D02*
X0099534Y0092403D01*
X0099534Y0093904D01*
X0099062Y0093654D02*
X0099062Y0093404D01*
X0098812Y0093153D01*
X0098061Y0093153D01*
X0098061Y0092403D02*
X0098061Y0093904D01*
X0098812Y0093904D01*
X0099062Y0093654D01*
X0098812Y0093153D02*
X0099062Y0092903D01*
X0099062Y0092653D01*
X0098812Y0092403D01*
X0098061Y0092403D01*
X0097589Y0092153D02*
X0096588Y0092153D01*
X0096115Y0092403D02*
X0095615Y0092903D01*
X0095865Y0092903D02*
X0095115Y0092903D01*
X0095115Y0092403D02*
X0095115Y0093904D01*
X0095865Y0093904D01*
X0096115Y0093654D01*
X0096115Y0093153D01*
X0095865Y0092903D01*
X0099139Y0103593D02*
X0100140Y0103593D01*
X0100612Y0103843D02*
X0101363Y0103843D01*
X0101613Y0104094D01*
X0101613Y0104344D01*
X0101363Y0104594D01*
X0100612Y0104594D01*
X0100612Y0103843D02*
X0100612Y0105345D01*
X0101363Y0105345D01*
X0101613Y0105094D01*
X0101613Y0104844D01*
X0101363Y0104594D01*
X0098667Y0105094D02*
X0098416Y0105345D01*
X0097666Y0105345D01*
X0097666Y0103843D01*
X0098416Y0103843D01*
X0098667Y0104094D01*
X0098667Y0105094D01*
X0097193Y0105094D02*
X0096943Y0105345D01*
X0096193Y0105345D01*
X0096193Y0103843D01*
X0095720Y0103843D02*
X0095220Y0104344D01*
X0095470Y0104344D02*
X0094719Y0104344D01*
X0094719Y0103843D02*
X0094719Y0105345D01*
X0095470Y0105345D01*
X0095720Y0105094D01*
X0095720Y0104594D01*
X0095470Y0104344D01*
X0096193Y0104344D02*
X0096943Y0104344D01*
X0097193Y0104594D01*
X0097193Y0105094D01*
X0096831Y0108480D02*
X0096831Y0109981D01*
X0097582Y0109981D01*
X0097832Y0109731D01*
X0097832Y0109230D01*
X0097582Y0108980D01*
X0096831Y0108980D01*
X0097331Y0108980D02*
X0097832Y0108480D01*
X0098304Y0108730D02*
X0098554Y0108480D01*
X0099055Y0108480D01*
X0099305Y0108730D01*
X0099305Y0109230D01*
X0098805Y0109230D01*
X0099305Y0109731D02*
X0099055Y0109981D01*
X0098554Y0109981D01*
X0098304Y0109731D01*
X0098304Y0108730D01*
X0099778Y0108480D02*
X0099778Y0109981D01*
X0100528Y0109981D01*
X0100778Y0109731D01*
X0100778Y0109480D01*
X0100528Y0109230D01*
X0099778Y0109230D01*
X0100528Y0109230D02*
X0100778Y0108980D01*
X0100778Y0108730D01*
X0100528Y0108480D01*
X0099778Y0108480D01*
X0069901Y0113421D02*
X0069650Y0113170D01*
X0068900Y0113170D01*
X0068900Y0114672D01*
X0069650Y0114672D01*
X0069901Y0114422D01*
X0069901Y0113421D01*
X0068427Y0113170D02*
X0067426Y0113170D01*
X0067426Y0114672D01*
X0068427Y0114672D01*
X0067927Y0113921D02*
X0067426Y0113921D01*
X0066954Y0113921D02*
X0066704Y0113671D01*
X0065953Y0113671D01*
X0065953Y0113170D02*
X0065953Y0114672D01*
X0066704Y0114672D01*
X0066954Y0114422D01*
X0066954Y0113921D01*
X0066454Y0113671D02*
X0066954Y0113170D01*
X0065481Y0112920D02*
X0064480Y0112920D01*
X0064008Y0113170D02*
X0063507Y0113671D01*
X0063757Y0113671D02*
X0063007Y0113671D01*
X0063007Y0113170D02*
X0063007Y0114672D01*
X0063757Y0114672D01*
X0064008Y0114422D01*
X0064008Y0113921D01*
X0063757Y0113671D01*
X0067210Y0124197D02*
X0068211Y0124197D01*
X0068683Y0124447D02*
X0068683Y0125949D01*
X0069434Y0125949D01*
X0069684Y0125698D01*
X0069684Y0125198D01*
X0069434Y0124948D01*
X0068683Y0124948D01*
X0069184Y0124948D02*
X0069684Y0124447D01*
X0066738Y0124697D02*
X0066738Y0125698D01*
X0066487Y0125949D01*
X0065737Y0125949D01*
X0065737Y0124447D01*
X0066487Y0124447D01*
X0066738Y0124697D01*
X0065264Y0125198D02*
X0065264Y0125698D01*
X0065014Y0125949D01*
X0064263Y0125949D01*
X0064263Y0124447D01*
X0063791Y0124447D02*
X0063291Y0124948D01*
X0063541Y0124948D02*
X0062790Y0124948D01*
X0062790Y0124447D02*
X0062790Y0125949D01*
X0063541Y0125949D01*
X0063791Y0125698D01*
X0063791Y0125198D01*
X0063541Y0124948D01*
X0064263Y0124948D02*
X0065014Y0124948D01*
X0065264Y0125198D01*
X0039080Y0113815D02*
X0038830Y0114065D01*
X0038329Y0114065D01*
X0038079Y0113815D01*
X0038079Y0112814D01*
X0038329Y0112564D01*
X0038830Y0112564D01*
X0039080Y0112814D01*
X0039080Y0113314D01*
X0038580Y0113314D01*
X0037607Y0113314D02*
X0037106Y0113314D01*
X0037607Y0113314D02*
X0037607Y0112814D01*
X0037357Y0112564D01*
X0036856Y0112564D01*
X0036606Y0112814D01*
X0036606Y0113815D01*
X0036856Y0114065D01*
X0037357Y0114065D01*
X0037607Y0113815D01*
X0036134Y0113815D02*
X0036134Y0113314D01*
X0035883Y0113064D01*
X0035133Y0113064D01*
X0035633Y0113064D02*
X0036134Y0112564D01*
X0035133Y0112564D02*
X0035133Y0114065D01*
X0035883Y0114065D01*
X0036134Y0113815D01*
X0035990Y0096408D02*
X0036240Y0096158D01*
X0036240Y0095657D01*
X0035990Y0095407D01*
X0035240Y0095407D01*
X0035240Y0094907D02*
X0035240Y0096408D01*
X0035990Y0096408D01*
X0036713Y0096408D02*
X0036713Y0094907D01*
X0037464Y0094907D01*
X0037714Y0095157D01*
X0037714Y0096158D01*
X0037464Y0096408D01*
X0036713Y0096408D01*
X0038186Y0094656D02*
X0039187Y0094656D01*
X0039659Y0095157D02*
X0039910Y0094907D01*
X0040410Y0094907D01*
X0040660Y0095157D01*
X0040660Y0095657D01*
X0040160Y0095657D01*
X0039659Y0095157D02*
X0039659Y0096158D01*
X0039910Y0096408D01*
X0040410Y0096408D01*
X0040660Y0096158D01*
X0034767Y0096158D02*
X0034767Y0095657D01*
X0034517Y0095407D01*
X0033766Y0095407D01*
X0033766Y0094907D02*
X0033766Y0096408D01*
X0034517Y0096408D01*
X0034767Y0096158D01*
X0034267Y0095407D02*
X0034767Y0094907D01*
X0034708Y0082441D02*
X0035459Y0082441D01*
X0035709Y0082191D01*
X0035709Y0081691D01*
X0035459Y0081441D01*
X0034708Y0081441D01*
X0035209Y0081441D02*
X0035709Y0080940D01*
X0036181Y0080940D02*
X0036181Y0082441D01*
X0037182Y0082441D01*
X0037655Y0082441D02*
X0037655Y0080940D01*
X0038655Y0080940D01*
X0039128Y0080940D02*
X0039128Y0082441D01*
X0040129Y0080940D01*
X0040129Y0082441D01*
X0038655Y0082441D02*
X0037655Y0082441D01*
X0037655Y0081691D02*
X0038155Y0081691D01*
X0037182Y0080940D02*
X0036181Y0080940D01*
X0036181Y0081691D02*
X0036682Y0081691D01*
X0034708Y0082441D02*
X0034708Y0080940D01*
X0034236Y0081190D02*
X0034236Y0081691D01*
X0033735Y0081691D01*
X0033235Y0082191D02*
X0033235Y0081190D01*
X0033485Y0080940D01*
X0033986Y0080940D01*
X0034236Y0081190D01*
X0034236Y0082191D02*
X0033986Y0082441D01*
X0033485Y0082441D01*
X0033235Y0082191D01*
X0032762Y0080690D02*
X0031762Y0080690D01*
X0031289Y0080940D02*
X0030789Y0081441D01*
X0031039Y0081441D02*
X0030288Y0081441D01*
X0030288Y0080940D02*
X0030288Y0082441D01*
X0031039Y0082441D01*
X0031289Y0082191D01*
X0031289Y0081691D01*
X0031039Y0081441D01*
X0032751Y0063691D02*
X0033251Y0063691D01*
X0033502Y0063441D01*
X0033502Y0062440D01*
X0033251Y0062190D01*
X0032751Y0062190D01*
X0032501Y0062440D01*
X0032501Y0063441D01*
X0032751Y0063691D01*
X0033001Y0062690D02*
X0033502Y0062190D01*
X0033974Y0062190D02*
X0034975Y0062190D01*
X0034474Y0062190D02*
X0034474Y0063691D01*
X0033974Y0063191D01*
X0034144Y0044405D02*
X0033644Y0044405D01*
X0033393Y0044155D01*
X0032921Y0044155D02*
X0032921Y0043154D01*
X0032671Y0042903D01*
X0032170Y0042903D01*
X0031920Y0043154D01*
X0031920Y0044155D01*
X0032170Y0044405D01*
X0032671Y0044405D01*
X0032921Y0044155D01*
X0032420Y0043404D02*
X0032921Y0042903D01*
X0033393Y0042903D02*
X0034394Y0043904D01*
X0034394Y0044155D01*
X0034144Y0044405D01*
X0034394Y0042903D02*
X0033393Y0042903D01*
X0064587Y0095098D02*
X0064587Y0096600D01*
X0065338Y0096600D01*
X0065588Y0096349D01*
X0065588Y0095849D01*
X0065338Y0095599D01*
X0064587Y0095599D01*
X0065087Y0095599D02*
X0065588Y0095098D01*
X0066060Y0095349D02*
X0066310Y0095098D01*
X0066811Y0095098D01*
X0067061Y0095349D01*
X0067061Y0095849D01*
X0066561Y0095849D01*
X0067061Y0096349D02*
X0066811Y0096600D01*
X0066310Y0096600D01*
X0066060Y0096349D01*
X0066060Y0095349D01*
X0067533Y0095599D02*
X0068284Y0095599D01*
X0068534Y0095849D01*
X0068534Y0096349D01*
X0068284Y0096600D01*
X0067533Y0096600D01*
X0067533Y0095098D01*
X0068034Y0095599D02*
X0068534Y0095098D01*
D13*
X0067138Y0097536D02*
X0064776Y0097536D01*
X0064776Y0102261D02*
X0067138Y0102261D01*
X0067138Y0107508D02*
X0064776Y0107508D01*
X0064776Y0112233D02*
X0067138Y0112233D01*
X0066921Y0118785D02*
X0064559Y0118785D01*
X0064559Y0123509D02*
X0066921Y0123509D01*
X0039264Y0111626D02*
X0036902Y0111626D01*
X0036902Y0106902D02*
X0039264Y0106902D01*
X0039264Y0102069D02*
X0036902Y0102069D01*
X0036902Y0097344D02*
X0039264Y0097344D01*
X0038732Y0088102D02*
X0036370Y0088102D01*
X0036370Y0083378D02*
X0038732Y0083378D01*
X0096883Y0086741D02*
X0099246Y0086741D01*
X0099246Y0091465D02*
X0096883Y0091465D01*
X0096488Y0098181D02*
X0098850Y0098181D01*
X0098850Y0102906D02*
X0096488Y0102906D01*
X0097020Y0110917D02*
X0099382Y0110917D01*
X0099382Y0115642D02*
X0097020Y0115642D01*
X0118416Y0090108D02*
X0120778Y0090108D01*
X0120778Y0085384D02*
X0118416Y0085384D01*
X0118289Y0081024D02*
X0120652Y0081024D01*
X0120652Y0076300D02*
X0118289Y0076300D01*
X0117943Y0069574D02*
X0120306Y0069574D01*
X0120306Y0064850D02*
X0117943Y0064850D01*
D14*
X0112660Y0048986D02*
X0112660Y0045983D01*
X0109658Y0048986D01*
X0108907Y0048986D01*
X0108156Y0048235D01*
X0108156Y0046734D01*
X0108907Y0045983D01*
X0108156Y0044382D02*
X0108156Y0042880D01*
X0108156Y0043631D02*
X0111910Y0043631D01*
X0112660Y0042880D01*
X0112660Y0042130D01*
X0111910Y0041379D01*
X0082562Y0055511D02*
X0055339Y0055511D01*
X0055339Y0083067D01*
X0056906Y0084635D01*
X0082562Y0084635D01*
X0082562Y0055511D01*
X0082937Y0065319D02*
X0082937Y0074969D01*
X0056378Y0070051D02*
X0056382Y0070359D01*
X0056393Y0070667D01*
X0056412Y0070974D01*
X0056438Y0071281D01*
X0056472Y0071587D01*
X0056514Y0071893D01*
X0056563Y0072197D01*
X0056619Y0072500D01*
X0056683Y0072801D01*
X0056754Y0073101D01*
X0056833Y0073399D01*
X0056918Y0073694D01*
X0057011Y0073988D01*
X0057112Y0074279D01*
X0057219Y0074568D01*
X0057333Y0074854D01*
X0057455Y0075137D01*
X0057583Y0075417D01*
X0057718Y0075694D01*
X0057860Y0075968D01*
X0058009Y0076237D01*
X0058164Y0076504D01*
X0058325Y0076766D01*
X0058493Y0077024D01*
X0058667Y0077278D01*
X0058848Y0077528D01*
X0059034Y0077773D01*
X0059227Y0078013D01*
X0059425Y0078249D01*
X0059629Y0078480D01*
X0059839Y0078705D01*
X0060054Y0078926D01*
X0060275Y0079141D01*
X0060500Y0079351D01*
X0060731Y0079555D01*
X0060967Y0079753D01*
X0061207Y0079946D01*
X0061452Y0080132D01*
X0061702Y0080313D01*
X0061956Y0080487D01*
X0062214Y0080655D01*
X0062476Y0080816D01*
X0062743Y0080971D01*
X0063012Y0081120D01*
X0063286Y0081262D01*
X0063563Y0081397D01*
X0063843Y0081525D01*
X0064126Y0081647D01*
X0064412Y0081761D01*
X0064701Y0081868D01*
X0064992Y0081969D01*
X0065286Y0082062D01*
X0065581Y0082147D01*
X0065879Y0082226D01*
X0066179Y0082297D01*
X0066480Y0082361D01*
X0066783Y0082417D01*
X0067087Y0082466D01*
X0067393Y0082508D01*
X0067699Y0082542D01*
X0068006Y0082568D01*
X0068313Y0082587D01*
X0068621Y0082598D01*
X0068929Y0082602D01*
X0069237Y0082598D01*
X0069545Y0082587D01*
X0069852Y0082568D01*
X0070159Y0082542D01*
X0070465Y0082508D01*
X0070771Y0082466D01*
X0071075Y0082417D01*
X0071378Y0082361D01*
X0071679Y0082297D01*
X0071979Y0082226D01*
X0072277Y0082147D01*
X0072572Y0082062D01*
X0072866Y0081969D01*
X0073157Y0081868D01*
X0073446Y0081761D01*
X0073732Y0081647D01*
X0074015Y0081525D01*
X0074295Y0081397D01*
X0074572Y0081262D01*
X0074846Y0081120D01*
X0075115Y0080971D01*
X0075382Y0080816D01*
X0075644Y0080655D01*
X0075902Y0080487D01*
X0076156Y0080313D01*
X0076406Y0080132D01*
X0076651Y0079946D01*
X0076891Y0079753D01*
X0077127Y0079555D01*
X0077358Y0079351D01*
X0077583Y0079141D01*
X0077804Y0078926D01*
X0078019Y0078705D01*
X0078229Y0078480D01*
X0078433Y0078249D01*
X0078631Y0078013D01*
X0078824Y0077773D01*
X0079010Y0077528D01*
X0079191Y0077278D01*
X0079365Y0077024D01*
X0079533Y0076766D01*
X0079694Y0076504D01*
X0079849Y0076237D01*
X0079998Y0075968D01*
X0080140Y0075694D01*
X0080275Y0075417D01*
X0080403Y0075137D01*
X0080525Y0074854D01*
X0080639Y0074568D01*
X0080746Y0074279D01*
X0080847Y0073988D01*
X0080940Y0073694D01*
X0081025Y0073399D01*
X0081104Y0073101D01*
X0081175Y0072801D01*
X0081239Y0072500D01*
X0081295Y0072197D01*
X0081344Y0071893D01*
X0081386Y0071587D01*
X0081420Y0071281D01*
X0081446Y0070974D01*
X0081465Y0070667D01*
X0081476Y0070359D01*
X0081480Y0070051D01*
X0081476Y0069743D01*
X0081465Y0069435D01*
X0081446Y0069128D01*
X0081420Y0068821D01*
X0081386Y0068515D01*
X0081344Y0068209D01*
X0081295Y0067905D01*
X0081239Y0067602D01*
X0081175Y0067301D01*
X0081104Y0067001D01*
X0081025Y0066703D01*
X0080940Y0066408D01*
X0080847Y0066114D01*
X0080746Y0065823D01*
X0080639Y0065534D01*
X0080525Y0065248D01*
X0080403Y0064965D01*
X0080275Y0064685D01*
X0080140Y0064408D01*
X0079998Y0064134D01*
X0079849Y0063865D01*
X0079694Y0063598D01*
X0079533Y0063336D01*
X0079365Y0063078D01*
X0079191Y0062824D01*
X0079010Y0062574D01*
X0078824Y0062329D01*
X0078631Y0062089D01*
X0078433Y0061853D01*
X0078229Y0061622D01*
X0078019Y0061397D01*
X0077804Y0061176D01*
X0077583Y0060961D01*
X0077358Y0060751D01*
X0077127Y0060547D01*
X0076891Y0060349D01*
X0076651Y0060156D01*
X0076406Y0059970D01*
X0076156Y0059789D01*
X0075902Y0059615D01*
X0075644Y0059447D01*
X0075382Y0059286D01*
X0075115Y0059131D01*
X0074846Y0058982D01*
X0074572Y0058840D01*
X0074295Y0058705D01*
X0074015Y0058577D01*
X0073732Y0058455D01*
X0073446Y0058341D01*
X0073157Y0058234D01*
X0072866Y0058133D01*
X0072572Y0058040D01*
X0072277Y0057955D01*
X0071979Y0057876D01*
X0071679Y0057805D01*
X0071378Y0057741D01*
X0071075Y0057685D01*
X0070771Y0057636D01*
X0070465Y0057594D01*
X0070159Y0057560D01*
X0069852Y0057534D01*
X0069545Y0057515D01*
X0069237Y0057504D01*
X0068929Y0057500D01*
X0068621Y0057504D01*
X0068313Y0057515D01*
X0068006Y0057534D01*
X0067699Y0057560D01*
X0067393Y0057594D01*
X0067087Y0057636D01*
X0066783Y0057685D01*
X0066480Y0057741D01*
X0066179Y0057805D01*
X0065879Y0057876D01*
X0065581Y0057955D01*
X0065286Y0058040D01*
X0064992Y0058133D01*
X0064701Y0058234D01*
X0064412Y0058341D01*
X0064126Y0058455D01*
X0063843Y0058577D01*
X0063563Y0058705D01*
X0063286Y0058840D01*
X0063012Y0058982D01*
X0062743Y0059131D01*
X0062476Y0059286D01*
X0062214Y0059447D01*
X0061956Y0059615D01*
X0061702Y0059789D01*
X0061452Y0059970D01*
X0061207Y0060156D01*
X0060967Y0060349D01*
X0060731Y0060547D01*
X0060500Y0060751D01*
X0060275Y0060961D01*
X0060054Y0061176D01*
X0059839Y0061397D01*
X0059629Y0061622D01*
X0059425Y0061853D01*
X0059227Y0062089D01*
X0059034Y0062329D01*
X0058848Y0062574D01*
X0058667Y0062824D01*
X0058493Y0063078D01*
X0058325Y0063336D01*
X0058164Y0063598D01*
X0058009Y0063865D01*
X0057860Y0064134D01*
X0057718Y0064408D01*
X0057583Y0064685D01*
X0057455Y0064965D01*
X0057333Y0065248D01*
X0057219Y0065534D01*
X0057112Y0065823D01*
X0057011Y0066114D01*
X0056918Y0066408D01*
X0056833Y0066703D01*
X0056754Y0067001D01*
X0056683Y0067301D01*
X0056619Y0067602D01*
X0056563Y0067905D01*
X0056514Y0068209D01*
X0056472Y0068515D01*
X0056438Y0068821D01*
X0056412Y0069128D01*
X0056393Y0069435D01*
X0056382Y0069743D01*
X0056378Y0070051D01*
X0055459Y0070100D02*
X0055463Y0070429D01*
X0055475Y0070759D01*
X0055495Y0071087D01*
X0055524Y0071416D01*
X0055560Y0071743D01*
X0055604Y0072069D01*
X0055657Y0072395D01*
X0055717Y0072719D01*
X0055785Y0073041D01*
X0055861Y0073361D01*
X0055945Y0073680D01*
X0056037Y0073996D01*
X0056136Y0074310D01*
X0056244Y0074622D01*
X0056358Y0074931D01*
X0056481Y0075236D01*
X0056610Y0075539D01*
X0056748Y0075839D01*
X0056892Y0076135D01*
X0057044Y0076427D01*
X0057203Y0076716D01*
X0057369Y0077000D01*
X0057541Y0077281D01*
X0057721Y0077557D01*
X0057907Y0077828D01*
X0058100Y0078095D01*
X0058300Y0078358D01*
X0058506Y0078615D01*
X0058718Y0078867D01*
X0058936Y0079114D01*
X0059160Y0079355D01*
X0059390Y0079591D01*
X0059626Y0079821D01*
X0059867Y0080045D01*
X0060114Y0080263D01*
X0060366Y0080475D01*
X0060623Y0080681D01*
X0060886Y0080881D01*
X0061153Y0081074D01*
X0061424Y0081260D01*
X0061700Y0081440D01*
X0061981Y0081612D01*
X0062265Y0081778D01*
X0062554Y0081937D01*
X0062846Y0082089D01*
X0063142Y0082233D01*
X0063442Y0082371D01*
X0063745Y0082500D01*
X0064050Y0082623D01*
X0064359Y0082737D01*
X0064671Y0082845D01*
X0064985Y0082944D01*
X0065301Y0083036D01*
X0065620Y0083120D01*
X0065940Y0083196D01*
X0066262Y0083264D01*
X0066586Y0083324D01*
X0066912Y0083377D01*
X0067238Y0083421D01*
X0067565Y0083457D01*
X0067894Y0083486D01*
X0068222Y0083506D01*
X0068552Y0083518D01*
X0068881Y0083522D01*
X0069210Y0083518D01*
X0069540Y0083506D01*
X0069868Y0083486D01*
X0070197Y0083457D01*
X0070524Y0083421D01*
X0070850Y0083377D01*
X0071176Y0083324D01*
X0071500Y0083264D01*
X0071822Y0083196D01*
X0072142Y0083120D01*
X0072461Y0083036D01*
X0072777Y0082944D01*
X0073091Y0082845D01*
X0073403Y0082737D01*
X0073712Y0082623D01*
X0074017Y0082500D01*
X0074320Y0082371D01*
X0074620Y0082233D01*
X0074916Y0082089D01*
X0075208Y0081937D01*
X0075497Y0081778D01*
X0075781Y0081612D01*
X0076062Y0081440D01*
X0076338Y0081260D01*
X0076609Y0081074D01*
X0076876Y0080881D01*
X0077139Y0080681D01*
X0077396Y0080475D01*
X0077648Y0080263D01*
X0077895Y0080045D01*
X0078136Y0079821D01*
X0078372Y0079591D01*
X0078602Y0079355D01*
X0078826Y0079114D01*
X0079044Y0078867D01*
X0079256Y0078615D01*
X0079462Y0078358D01*
X0079662Y0078095D01*
X0079855Y0077828D01*
X0080041Y0077557D01*
X0080221Y0077281D01*
X0080393Y0077000D01*
X0080559Y0076716D01*
X0080718Y0076427D01*
X0080870Y0076135D01*
X0081014Y0075839D01*
X0081152Y0075539D01*
X0081281Y0075236D01*
X0081404Y0074931D01*
X0081518Y0074622D01*
X0081626Y0074310D01*
X0081725Y0073996D01*
X0081817Y0073680D01*
X0081901Y0073361D01*
X0081977Y0073041D01*
X0082045Y0072719D01*
X0082105Y0072395D01*
X0082158Y0072069D01*
X0082202Y0071743D01*
X0082238Y0071416D01*
X0082267Y0071087D01*
X0082287Y0070759D01*
X0082299Y0070429D01*
X0082303Y0070100D01*
X0082299Y0069771D01*
X0082287Y0069441D01*
X0082267Y0069113D01*
X0082238Y0068784D01*
X0082202Y0068457D01*
X0082158Y0068131D01*
X0082105Y0067805D01*
X0082045Y0067481D01*
X0081977Y0067159D01*
X0081901Y0066839D01*
X0081817Y0066520D01*
X0081725Y0066204D01*
X0081626Y0065890D01*
X0081518Y0065578D01*
X0081404Y0065269D01*
X0081281Y0064964D01*
X0081152Y0064661D01*
X0081014Y0064361D01*
X0080870Y0064065D01*
X0080718Y0063773D01*
X0080559Y0063484D01*
X0080393Y0063200D01*
X0080221Y0062919D01*
X0080041Y0062643D01*
X0079855Y0062372D01*
X0079662Y0062105D01*
X0079462Y0061842D01*
X0079256Y0061585D01*
X0079044Y0061333D01*
X0078826Y0061086D01*
X0078602Y0060845D01*
X0078372Y0060609D01*
X0078136Y0060379D01*
X0077895Y0060155D01*
X0077648Y0059937D01*
X0077396Y0059725D01*
X0077139Y0059519D01*
X0076876Y0059319D01*
X0076609Y0059126D01*
X0076338Y0058940D01*
X0076062Y0058760D01*
X0075781Y0058588D01*
X0075497Y0058422D01*
X0075208Y0058263D01*
X0074916Y0058111D01*
X0074620Y0057967D01*
X0074320Y0057829D01*
X0074017Y0057700D01*
X0073712Y0057577D01*
X0073403Y0057463D01*
X0073091Y0057355D01*
X0072777Y0057256D01*
X0072461Y0057164D01*
X0072142Y0057080D01*
X0071822Y0057004D01*
X0071500Y0056936D01*
X0071176Y0056876D01*
X0070850Y0056823D01*
X0070524Y0056779D01*
X0070197Y0056743D01*
X0069868Y0056714D01*
X0069540Y0056694D01*
X0069210Y0056682D01*
X0068881Y0056678D01*
X0068552Y0056682D01*
X0068222Y0056694D01*
X0067894Y0056714D01*
X0067565Y0056743D01*
X0067238Y0056779D01*
X0066912Y0056823D01*
X0066586Y0056876D01*
X0066262Y0056936D01*
X0065940Y0057004D01*
X0065620Y0057080D01*
X0065301Y0057164D01*
X0064985Y0057256D01*
X0064671Y0057355D01*
X0064359Y0057463D01*
X0064050Y0057577D01*
X0063745Y0057700D01*
X0063442Y0057829D01*
X0063142Y0057967D01*
X0062846Y0058111D01*
X0062554Y0058263D01*
X0062265Y0058422D01*
X0061981Y0058588D01*
X0061700Y0058760D01*
X0061424Y0058940D01*
X0061153Y0059126D01*
X0060886Y0059319D01*
X0060623Y0059519D01*
X0060366Y0059725D01*
X0060114Y0059937D01*
X0059867Y0060155D01*
X0059626Y0060379D01*
X0059390Y0060609D01*
X0059160Y0060845D01*
X0058936Y0061086D01*
X0058718Y0061333D01*
X0058506Y0061585D01*
X0058300Y0061842D01*
X0058100Y0062105D01*
X0057907Y0062372D01*
X0057721Y0062643D01*
X0057541Y0062919D01*
X0057369Y0063200D01*
X0057203Y0063484D01*
X0057044Y0063773D01*
X0056892Y0064065D01*
X0056748Y0064361D01*
X0056610Y0064661D01*
X0056481Y0064964D01*
X0056358Y0065269D01*
X0056244Y0065578D01*
X0056136Y0065890D01*
X0056037Y0066204D01*
X0055945Y0066520D01*
X0055861Y0066839D01*
X0055785Y0067159D01*
X0055717Y0067481D01*
X0055657Y0067805D01*
X0055604Y0068131D01*
X0055560Y0068457D01*
X0055524Y0068784D01*
X0055495Y0069113D01*
X0055475Y0069441D01*
X0055463Y0069771D01*
X0055459Y0070100D01*
X0067286Y0030022D02*
X0066969Y0029705D01*
X0066969Y0029388D01*
X0067286Y0029071D01*
X0067920Y0029071D01*
X0068237Y0028754D01*
X0068237Y0028437D01*
X0067920Y0028120D01*
X0067286Y0028120D01*
X0066969Y0028437D01*
X0067286Y0030022D02*
X0067920Y0030022D01*
X0068237Y0029705D01*
X0069179Y0029388D02*
X0069813Y0030022D01*
X0069813Y0028120D01*
X0069179Y0028120D02*
X0070447Y0028120D01*
X0010298Y0042130D02*
X0010298Y0042880D01*
X0009547Y0043631D01*
X0005794Y0043631D01*
X0005794Y0042880D02*
X0005794Y0044382D01*
X0007295Y0045983D02*
X0005794Y0047484D01*
X0010298Y0047484D01*
X0010298Y0045983D02*
X0010298Y0048986D01*
X0010298Y0042130D02*
X0009547Y0041379D01*
D15*
X0053770Y0095628D02*
X0055305Y0095628D01*
X0056072Y0096396D01*
X0057607Y0097163D02*
X0059909Y0097163D01*
X0060676Y0097930D01*
X0060676Y0099465D01*
X0059909Y0100232D01*
X0057607Y0100232D01*
X0057607Y0095628D01*
X0059142Y0097163D02*
X0060676Y0095628D01*
X0062211Y0095628D02*
X0065280Y0095628D01*
X0063746Y0097930D02*
X0062211Y0097930D01*
X0062211Y0100232D02*
X0062211Y0095628D01*
X0062211Y0100232D02*
X0065280Y0100232D01*
X0066815Y0100232D02*
X0066815Y0095628D01*
X0069884Y0095628D01*
X0071419Y0094861D02*
X0074488Y0094861D01*
X0076023Y0095628D02*
X0079092Y0095628D01*
X0080627Y0095628D02*
X0083696Y0095628D01*
X0085231Y0095628D02*
X0087533Y0095628D01*
X0088300Y0096396D01*
X0088300Y0099465D01*
X0087533Y0100232D01*
X0085231Y0100232D01*
X0085231Y0095628D01*
X0082161Y0097930D02*
X0080627Y0097930D01*
X0080627Y0100232D02*
X0080627Y0095628D01*
X0076023Y0095628D02*
X0076023Y0100232D01*
X0080627Y0100232D02*
X0083696Y0100232D01*
X0089835Y0098698D02*
X0091369Y0100232D01*
X0091369Y0095628D01*
X0089835Y0095628D02*
X0092904Y0095628D01*
X0069884Y0100232D02*
X0066815Y0100232D01*
X0066815Y0097930D02*
X0068350Y0097930D01*
X0056072Y0099465D02*
X0055305Y0100232D01*
X0053770Y0100232D01*
X0053003Y0099465D01*
X0053003Y0096396D01*
X0053770Y0095628D01*
D16*
X0056724Y0082166D02*
X0056726Y0082238D01*
X0056732Y0082310D01*
X0056742Y0082382D01*
X0056756Y0082452D01*
X0056773Y0082522D01*
X0056795Y0082591D01*
X0056820Y0082659D01*
X0056849Y0082725D01*
X0056882Y0082789D01*
X0056918Y0082852D01*
X0056957Y0082912D01*
X0057000Y0082971D01*
X0057046Y0083026D01*
X0057095Y0083079D01*
X0057147Y0083130D01*
X0057201Y0083177D01*
X0057258Y0083222D01*
X0057317Y0083263D01*
X0057379Y0083300D01*
X0057442Y0083335D01*
X0057508Y0083366D01*
X0057575Y0083393D01*
X0057643Y0083416D01*
X0057712Y0083436D01*
X0057783Y0083452D01*
X0057854Y0083464D01*
X0057926Y0083472D01*
X0057998Y0083476D01*
X0058070Y0083476D01*
X0058142Y0083472D01*
X0058214Y0083464D01*
X0058285Y0083452D01*
X0058356Y0083436D01*
X0058425Y0083416D01*
X0058493Y0083393D01*
X0058560Y0083366D01*
X0058626Y0083335D01*
X0058689Y0083300D01*
X0058751Y0083263D01*
X0058810Y0083222D01*
X0058867Y0083177D01*
X0058921Y0083130D01*
X0058973Y0083079D01*
X0059022Y0083026D01*
X0059068Y0082971D01*
X0059111Y0082912D01*
X0059150Y0082852D01*
X0059186Y0082789D01*
X0059219Y0082725D01*
X0059248Y0082659D01*
X0059273Y0082591D01*
X0059295Y0082522D01*
X0059312Y0082452D01*
X0059326Y0082382D01*
X0059336Y0082310D01*
X0059342Y0082238D01*
X0059344Y0082166D01*
X0059342Y0082094D01*
X0059336Y0082022D01*
X0059326Y0081950D01*
X0059312Y0081880D01*
X0059295Y0081810D01*
X0059273Y0081741D01*
X0059248Y0081673D01*
X0059219Y0081607D01*
X0059186Y0081543D01*
X0059150Y0081480D01*
X0059111Y0081420D01*
X0059068Y0081361D01*
X0059022Y0081306D01*
X0058973Y0081253D01*
X0058921Y0081202D01*
X0058867Y0081155D01*
X0058810Y0081110D01*
X0058751Y0081069D01*
X0058689Y0081032D01*
X0058626Y0080997D01*
X0058560Y0080966D01*
X0058493Y0080939D01*
X0058425Y0080916D01*
X0058356Y0080896D01*
X0058285Y0080880D01*
X0058214Y0080868D01*
X0058142Y0080860D01*
X0058070Y0080856D01*
X0057998Y0080856D01*
X0057926Y0080860D01*
X0057854Y0080868D01*
X0057783Y0080880D01*
X0057712Y0080896D01*
X0057643Y0080916D01*
X0057575Y0080939D01*
X0057508Y0080966D01*
X0057442Y0080997D01*
X0057379Y0081032D01*
X0057317Y0081069D01*
X0057258Y0081110D01*
X0057201Y0081155D01*
X0057147Y0081202D01*
X0057095Y0081253D01*
X0057046Y0081306D01*
X0057000Y0081361D01*
X0056957Y0081420D01*
X0056918Y0081480D01*
X0056882Y0081543D01*
X0056849Y0081607D01*
X0056820Y0081673D01*
X0056795Y0081741D01*
X0056773Y0081810D01*
X0056756Y0081880D01*
X0056742Y0081950D01*
X0056732Y0082022D01*
X0056726Y0082094D01*
X0056724Y0082166D01*
X0064786Y0074282D02*
X0064828Y0074282D01*
X0064828Y0070438D01*
X0068672Y0070438D01*
X0068672Y0074282D01*
X0064828Y0074282D01*
X0065288Y0073303D02*
X0066173Y0073303D01*
X0066468Y0073008D01*
X0066468Y0071828D01*
X0066173Y0071533D01*
X0065288Y0071533D01*
X0065288Y0073303D01*
X0067100Y0073008D02*
X0067395Y0073303D01*
X0067985Y0073303D01*
X0068280Y0073008D01*
X0068280Y0072713D01*
X0067100Y0071533D01*
X0068280Y0071533D01*
X0069697Y0071533D02*
X0069697Y0073303D01*
X0070582Y0073303D01*
X0070877Y0073008D01*
X0070877Y0071828D01*
X0070582Y0071533D01*
X0069697Y0071533D01*
X0069230Y0070416D02*
X0069230Y0074282D01*
X0069251Y0074304D02*
X0073116Y0074304D01*
X0073116Y0070416D01*
X0069230Y0070416D01*
X0069233Y0069729D02*
X0069251Y0069729D01*
X0069251Y0065864D01*
X0073080Y0065864D01*
X0073080Y0069729D01*
X0069251Y0069729D01*
X0068643Y0069747D02*
X0068643Y0065882D01*
X0064814Y0065882D01*
X0064814Y0069747D01*
X0068643Y0069747D01*
X0067735Y0068622D02*
X0067735Y0066852D01*
X0067145Y0066852D02*
X0068325Y0066852D01*
X0069742Y0066896D02*
X0070627Y0066896D01*
X0070922Y0067191D01*
X0070922Y0068371D01*
X0070627Y0068666D01*
X0069742Y0068666D01*
X0069742Y0066896D01*
X0071554Y0067781D02*
X0072734Y0067781D01*
X0072439Y0066896D02*
X0072439Y0068666D01*
X0071554Y0067781D01*
X0071805Y0071533D02*
X0071510Y0071828D01*
X0071805Y0071533D02*
X0072395Y0071533D01*
X0072690Y0071828D01*
X0072690Y0072123D01*
X0072395Y0072418D01*
X0072100Y0072418D01*
X0072395Y0072418D02*
X0072690Y0072713D01*
X0072690Y0073008D01*
X0072395Y0073303D01*
X0071805Y0073303D01*
X0071510Y0073008D01*
X0067735Y0068622D02*
X0067145Y0068032D01*
X0066512Y0068327D02*
X0066217Y0068622D01*
X0065332Y0068622D01*
X0065332Y0066852D01*
X0066217Y0066852D01*
X0066512Y0067147D01*
X0066512Y0068327D01*
X0064814Y0069747D02*
X0064797Y0069747D01*
X0056695Y0057964D02*
X0056697Y0058036D01*
X0056703Y0058108D01*
X0056713Y0058180D01*
X0056727Y0058250D01*
X0056744Y0058320D01*
X0056766Y0058389D01*
X0056791Y0058457D01*
X0056820Y0058523D01*
X0056853Y0058587D01*
X0056889Y0058650D01*
X0056928Y0058710D01*
X0056971Y0058769D01*
X0057017Y0058824D01*
X0057066Y0058877D01*
X0057118Y0058928D01*
X0057172Y0058975D01*
X0057229Y0059020D01*
X0057288Y0059061D01*
X0057350Y0059098D01*
X0057413Y0059133D01*
X0057479Y0059164D01*
X0057546Y0059191D01*
X0057614Y0059214D01*
X0057683Y0059234D01*
X0057754Y0059250D01*
X0057825Y0059262D01*
X0057897Y0059270D01*
X0057969Y0059274D01*
X0058041Y0059274D01*
X0058113Y0059270D01*
X0058185Y0059262D01*
X0058256Y0059250D01*
X0058327Y0059234D01*
X0058396Y0059214D01*
X0058464Y0059191D01*
X0058531Y0059164D01*
X0058597Y0059133D01*
X0058660Y0059098D01*
X0058722Y0059061D01*
X0058781Y0059020D01*
X0058838Y0058975D01*
X0058892Y0058928D01*
X0058944Y0058877D01*
X0058993Y0058824D01*
X0059039Y0058769D01*
X0059082Y0058710D01*
X0059121Y0058650D01*
X0059157Y0058587D01*
X0059190Y0058523D01*
X0059219Y0058457D01*
X0059244Y0058389D01*
X0059266Y0058320D01*
X0059283Y0058250D01*
X0059297Y0058180D01*
X0059307Y0058108D01*
X0059313Y0058036D01*
X0059315Y0057964D01*
X0059313Y0057892D01*
X0059307Y0057820D01*
X0059297Y0057748D01*
X0059283Y0057678D01*
X0059266Y0057608D01*
X0059244Y0057539D01*
X0059219Y0057471D01*
X0059190Y0057405D01*
X0059157Y0057341D01*
X0059121Y0057278D01*
X0059082Y0057218D01*
X0059039Y0057159D01*
X0058993Y0057104D01*
X0058944Y0057051D01*
X0058892Y0057000D01*
X0058838Y0056953D01*
X0058781Y0056908D01*
X0058722Y0056867D01*
X0058660Y0056830D01*
X0058597Y0056795D01*
X0058531Y0056764D01*
X0058464Y0056737D01*
X0058396Y0056714D01*
X0058327Y0056694D01*
X0058256Y0056678D01*
X0058185Y0056666D01*
X0058113Y0056658D01*
X0058041Y0056654D01*
X0057969Y0056654D01*
X0057897Y0056658D01*
X0057825Y0056666D01*
X0057754Y0056678D01*
X0057683Y0056694D01*
X0057614Y0056714D01*
X0057546Y0056737D01*
X0057479Y0056764D01*
X0057413Y0056795D01*
X0057350Y0056830D01*
X0057288Y0056867D01*
X0057229Y0056908D01*
X0057172Y0056953D01*
X0057118Y0057000D01*
X0057066Y0057051D01*
X0057017Y0057104D01*
X0056971Y0057159D01*
X0056928Y0057218D01*
X0056889Y0057278D01*
X0056853Y0057341D01*
X0056820Y0057405D01*
X0056791Y0057471D01*
X0056766Y0057539D01*
X0056744Y0057608D01*
X0056727Y0057678D01*
X0056713Y0057748D01*
X0056703Y0057820D01*
X0056697Y0057892D01*
X0056695Y0057964D01*
X0078572Y0057967D02*
X0078574Y0058039D01*
X0078580Y0058111D01*
X0078590Y0058183D01*
X0078604Y0058253D01*
X0078621Y0058323D01*
X0078643Y0058392D01*
X0078668Y0058460D01*
X0078697Y0058526D01*
X0078730Y0058590D01*
X0078766Y0058653D01*
X0078805Y0058713D01*
X0078848Y0058772D01*
X0078894Y0058827D01*
X0078943Y0058880D01*
X0078995Y0058931D01*
X0079049Y0058978D01*
X0079106Y0059023D01*
X0079165Y0059064D01*
X0079227Y0059101D01*
X0079290Y0059136D01*
X0079356Y0059167D01*
X0079423Y0059194D01*
X0079491Y0059217D01*
X0079560Y0059237D01*
X0079631Y0059253D01*
X0079702Y0059265D01*
X0079774Y0059273D01*
X0079846Y0059277D01*
X0079918Y0059277D01*
X0079990Y0059273D01*
X0080062Y0059265D01*
X0080133Y0059253D01*
X0080204Y0059237D01*
X0080273Y0059217D01*
X0080341Y0059194D01*
X0080408Y0059167D01*
X0080474Y0059136D01*
X0080537Y0059101D01*
X0080599Y0059064D01*
X0080658Y0059023D01*
X0080715Y0058978D01*
X0080769Y0058931D01*
X0080821Y0058880D01*
X0080870Y0058827D01*
X0080916Y0058772D01*
X0080959Y0058713D01*
X0080998Y0058653D01*
X0081034Y0058590D01*
X0081067Y0058526D01*
X0081096Y0058460D01*
X0081121Y0058392D01*
X0081143Y0058323D01*
X0081160Y0058253D01*
X0081174Y0058183D01*
X0081184Y0058111D01*
X0081190Y0058039D01*
X0081192Y0057967D01*
X0081190Y0057895D01*
X0081184Y0057823D01*
X0081174Y0057751D01*
X0081160Y0057681D01*
X0081143Y0057611D01*
X0081121Y0057542D01*
X0081096Y0057474D01*
X0081067Y0057408D01*
X0081034Y0057344D01*
X0080998Y0057281D01*
X0080959Y0057221D01*
X0080916Y0057162D01*
X0080870Y0057107D01*
X0080821Y0057054D01*
X0080769Y0057003D01*
X0080715Y0056956D01*
X0080658Y0056911D01*
X0080599Y0056870D01*
X0080537Y0056833D01*
X0080474Y0056798D01*
X0080408Y0056767D01*
X0080341Y0056740D01*
X0080273Y0056717D01*
X0080204Y0056697D01*
X0080133Y0056681D01*
X0080062Y0056669D01*
X0079990Y0056661D01*
X0079918Y0056657D01*
X0079846Y0056657D01*
X0079774Y0056661D01*
X0079702Y0056669D01*
X0079631Y0056681D01*
X0079560Y0056697D01*
X0079491Y0056717D01*
X0079423Y0056740D01*
X0079356Y0056767D01*
X0079290Y0056798D01*
X0079227Y0056833D01*
X0079165Y0056870D01*
X0079106Y0056911D01*
X0079049Y0056956D01*
X0078995Y0057003D01*
X0078943Y0057054D01*
X0078894Y0057107D01*
X0078848Y0057162D01*
X0078805Y0057221D01*
X0078766Y0057281D01*
X0078730Y0057344D01*
X0078697Y0057408D01*
X0078668Y0057474D01*
X0078643Y0057542D01*
X0078621Y0057611D01*
X0078604Y0057681D01*
X0078590Y0057751D01*
X0078580Y0057823D01*
X0078574Y0057895D01*
X0078572Y0057967D01*
X0078575Y0082145D02*
X0078577Y0082217D01*
X0078583Y0082289D01*
X0078593Y0082361D01*
X0078607Y0082431D01*
X0078624Y0082501D01*
X0078646Y0082570D01*
X0078671Y0082638D01*
X0078700Y0082704D01*
X0078733Y0082768D01*
X0078769Y0082831D01*
X0078808Y0082891D01*
X0078851Y0082950D01*
X0078897Y0083005D01*
X0078946Y0083058D01*
X0078998Y0083109D01*
X0079052Y0083156D01*
X0079109Y0083201D01*
X0079168Y0083242D01*
X0079230Y0083279D01*
X0079293Y0083314D01*
X0079359Y0083345D01*
X0079426Y0083372D01*
X0079494Y0083395D01*
X0079563Y0083415D01*
X0079634Y0083431D01*
X0079705Y0083443D01*
X0079777Y0083451D01*
X0079849Y0083455D01*
X0079921Y0083455D01*
X0079993Y0083451D01*
X0080065Y0083443D01*
X0080136Y0083431D01*
X0080207Y0083415D01*
X0080276Y0083395D01*
X0080344Y0083372D01*
X0080411Y0083345D01*
X0080477Y0083314D01*
X0080540Y0083279D01*
X0080602Y0083242D01*
X0080661Y0083201D01*
X0080718Y0083156D01*
X0080772Y0083109D01*
X0080824Y0083058D01*
X0080873Y0083005D01*
X0080919Y0082950D01*
X0080962Y0082891D01*
X0081001Y0082831D01*
X0081037Y0082768D01*
X0081070Y0082704D01*
X0081099Y0082638D01*
X0081124Y0082570D01*
X0081146Y0082501D01*
X0081163Y0082431D01*
X0081177Y0082361D01*
X0081187Y0082289D01*
X0081193Y0082217D01*
X0081195Y0082145D01*
X0081193Y0082073D01*
X0081187Y0082001D01*
X0081177Y0081929D01*
X0081163Y0081859D01*
X0081146Y0081789D01*
X0081124Y0081720D01*
X0081099Y0081652D01*
X0081070Y0081586D01*
X0081037Y0081522D01*
X0081001Y0081459D01*
X0080962Y0081399D01*
X0080919Y0081340D01*
X0080873Y0081285D01*
X0080824Y0081232D01*
X0080772Y0081181D01*
X0080718Y0081134D01*
X0080661Y0081089D01*
X0080602Y0081048D01*
X0080540Y0081011D01*
X0080477Y0080976D01*
X0080411Y0080945D01*
X0080344Y0080918D01*
X0080276Y0080895D01*
X0080207Y0080875D01*
X0080136Y0080859D01*
X0080065Y0080847D01*
X0079993Y0080839D01*
X0079921Y0080835D01*
X0079849Y0080835D01*
X0079777Y0080839D01*
X0079705Y0080847D01*
X0079634Y0080859D01*
X0079563Y0080875D01*
X0079494Y0080895D01*
X0079426Y0080918D01*
X0079359Y0080945D01*
X0079293Y0080976D01*
X0079230Y0081011D01*
X0079168Y0081048D01*
X0079109Y0081089D01*
X0079052Y0081134D01*
X0078998Y0081181D01*
X0078946Y0081232D01*
X0078897Y0081285D01*
X0078851Y0081340D01*
X0078808Y0081399D01*
X0078769Y0081459D01*
X0078733Y0081522D01*
X0078700Y0081586D01*
X0078671Y0081652D01*
X0078646Y0081720D01*
X0078624Y0081789D01*
X0078607Y0081859D01*
X0078593Y0081929D01*
X0078583Y0082001D01*
X0078577Y0082073D01*
X0078575Y0082145D01*
D17*
X0068929Y0080051D02*
X0068929Y0060051D01*
X0058929Y0070051D02*
X0078929Y0070051D01*
M02*
