%
M48
M72
T01C0.02362
T02C0.02400
T03C0.03150
T04C0.04000
T05C0.04724
%
T01
X98388Y67000
X98388Y79500
T02
X44638Y34500
X39638Y47000
X44638Y57000
X27138Y72000
X34638Y79500
X54638Y99500
X72138Y114500
X77138Y112000
X82138Y92000
X89638Y84500
X104638Y84500
X112138Y92000
X102138Y107000
X107138Y37000
X92138Y34500
T03
X78772Y18870
X59087Y18870
T04
X17748Y46429
X17748Y56429
X17748Y66429
X17748Y76429
X17748Y86429
X120110Y56429
X120110Y46429
T05
X83509Y28713
X54350Y28713
M30
