%
M48
M72
T01C0.02362
T02C0.02400
T03C0.03150
T04C0.04000
T05C0.04724
%
T01
X91800Y47863
X119300Y140363
T02
X99300Y127863
X136800Y115363
X151800Y125363
X164300Y130363
X141800Y100363
X114300Y62863
X109300Y40363
X86800Y40363
X71800Y37863
X54300Y97863
X36800Y125363
X49300Y127863
X46800Y142863
T03
X85304Y174595
X104989Y174595
T04
X43965Y32863
X43965Y42863
X43965Y52863
X43965Y62863
X43965Y72863
X146328Y42863
X146328Y32863
T05
X109726Y164753
X80567Y164753
M30
