G75*
%MOIN*%
%OFA0B0*%
%FSLAX25Y25*%
%IPPOS*%
%LPD*%
%AMOC8*
5,1,8,0,0,1.08239X$1,22.5*
%
%ADD10C,0.01200*%
%ADD11C,0.00800*%
%ADD12C,0.00100*%
%ADD13C,0.00600*%
%ADD14C,0.00500*%
D10*
X0004253Y0095855D02*
X0004280Y0098086D01*
X0004362Y0100315D01*
X0004499Y0102542D01*
X0004691Y0104764D01*
X0004937Y0106981D01*
X0005237Y0109192D01*
X0005591Y0111394D01*
X0005999Y0113587D01*
X0006462Y0115770D01*
X0006977Y0117940D01*
X0007546Y0120097D01*
X0008167Y0122240D01*
X0008841Y0124366D01*
X0009566Y0126476D01*
X0010343Y0128567D01*
X0011172Y0130638D01*
X0012051Y0132689D01*
X0012980Y0134717D01*
X0013958Y0136722D01*
X0014986Y0138702D01*
X0016061Y0140656D01*
X0017184Y0142583D01*
X0018355Y0144483D01*
X0019571Y0146352D01*
X0020833Y0148192D01*
X0022140Y0150000D01*
X0023491Y0151775D01*
X0024885Y0153517D01*
X0026321Y0155224D01*
X0027799Y0156895D01*
X0029317Y0158529D01*
X0030875Y0160126D01*
X0032472Y0161684D01*
X0034106Y0163202D01*
X0035777Y0164680D01*
X0037484Y0166116D01*
X0039226Y0167510D01*
X0041001Y0168861D01*
X0042809Y0170168D01*
X0044649Y0171430D01*
X0046518Y0172646D01*
X0048418Y0173817D01*
X0050345Y0174940D01*
X0052299Y0176015D01*
X0054279Y0177043D01*
X0056284Y0178021D01*
X0058312Y0178950D01*
X0060363Y0179829D01*
X0062434Y0180658D01*
X0064525Y0181435D01*
X0066635Y0182160D01*
X0068761Y0182834D01*
X0070904Y0183455D01*
X0073061Y0184024D01*
X0075231Y0184539D01*
X0077414Y0185002D01*
X0079607Y0185410D01*
X0081809Y0185764D01*
X0084020Y0186064D01*
X0086237Y0186310D01*
X0088459Y0186502D01*
X0090686Y0186639D01*
X0092915Y0186721D01*
X0095146Y0186748D01*
X0097377Y0186721D01*
X0099606Y0186639D01*
X0101833Y0186502D01*
X0104055Y0186310D01*
X0106272Y0186064D01*
X0108483Y0185764D01*
X0110685Y0185410D01*
X0112878Y0185002D01*
X0115061Y0184539D01*
X0117231Y0184024D01*
X0119388Y0183455D01*
X0121531Y0182834D01*
X0123657Y0182160D01*
X0125767Y0181435D01*
X0127858Y0180658D01*
X0129929Y0179829D01*
X0131980Y0178950D01*
X0134008Y0178021D01*
X0136013Y0177043D01*
X0137993Y0176015D01*
X0139947Y0174940D01*
X0141874Y0173817D01*
X0143774Y0172646D01*
X0145643Y0171430D01*
X0147483Y0170168D01*
X0149291Y0168861D01*
X0151066Y0167510D01*
X0152808Y0166116D01*
X0154515Y0164680D01*
X0156186Y0163202D01*
X0157820Y0161684D01*
X0159417Y0160126D01*
X0160975Y0158529D01*
X0162493Y0156895D01*
X0163971Y0155224D01*
X0165407Y0153517D01*
X0166801Y0151775D01*
X0168152Y0150000D01*
X0169459Y0148192D01*
X0170721Y0146352D01*
X0171937Y0144483D01*
X0173108Y0142583D01*
X0174231Y0140656D01*
X0175306Y0138702D01*
X0176334Y0136722D01*
X0177312Y0134717D01*
X0178241Y0132689D01*
X0179120Y0130638D01*
X0179949Y0128567D01*
X0180726Y0126476D01*
X0181451Y0124366D01*
X0182125Y0122240D01*
X0182746Y0120097D01*
X0183315Y0117940D01*
X0183830Y0115770D01*
X0184293Y0113587D01*
X0184701Y0111394D01*
X0185055Y0109192D01*
X0185355Y0106981D01*
X0185601Y0104764D01*
X0185793Y0102542D01*
X0185930Y0100315D01*
X0186012Y0098086D01*
X0186039Y0095855D01*
X0186012Y0093624D01*
X0185930Y0091395D01*
X0185793Y0089168D01*
X0185601Y0086946D01*
X0185355Y0084729D01*
X0185055Y0082518D01*
X0184701Y0080316D01*
X0184293Y0078123D01*
X0183830Y0075940D01*
X0183315Y0073770D01*
X0182746Y0071613D01*
X0182125Y0069470D01*
X0181451Y0067344D01*
X0180726Y0065234D01*
X0179949Y0063143D01*
X0179120Y0061072D01*
X0178241Y0059021D01*
X0177312Y0056993D01*
X0176334Y0054988D01*
X0175306Y0053008D01*
X0174231Y0051054D01*
X0173108Y0049127D01*
X0171937Y0047227D01*
X0170721Y0045358D01*
X0169459Y0043518D01*
X0168152Y0041710D01*
X0166801Y0039935D01*
X0165407Y0038193D01*
X0163971Y0036486D01*
X0162493Y0034815D01*
X0160975Y0033181D01*
X0159417Y0031584D01*
X0157820Y0030026D01*
X0156186Y0028508D01*
X0154515Y0027030D01*
X0152808Y0025594D01*
X0151066Y0024200D01*
X0149291Y0022849D01*
X0147483Y0021542D01*
X0145643Y0020280D01*
X0143774Y0019064D01*
X0141874Y0017893D01*
X0139947Y0016770D01*
X0137993Y0015695D01*
X0136013Y0014667D01*
X0134008Y0013689D01*
X0131980Y0012760D01*
X0129929Y0011881D01*
X0127858Y0011052D01*
X0125767Y0010275D01*
X0123657Y0009550D01*
X0121531Y0008876D01*
X0119388Y0008255D01*
X0117231Y0007686D01*
X0115061Y0007171D01*
X0112878Y0006708D01*
X0110685Y0006300D01*
X0108483Y0005946D01*
X0106272Y0005646D01*
X0104055Y0005400D01*
X0101833Y0005208D01*
X0099606Y0005071D01*
X0097377Y0004989D01*
X0095146Y0004962D01*
X0092915Y0004989D01*
X0090686Y0005071D01*
X0088459Y0005208D01*
X0086237Y0005400D01*
X0084020Y0005646D01*
X0081809Y0005946D01*
X0079607Y0006300D01*
X0077414Y0006708D01*
X0075231Y0007171D01*
X0073061Y0007686D01*
X0070904Y0008255D01*
X0068761Y0008876D01*
X0066635Y0009550D01*
X0064525Y0010275D01*
X0062434Y0011052D01*
X0060363Y0011881D01*
X0058312Y0012760D01*
X0056284Y0013689D01*
X0054279Y0014667D01*
X0052299Y0015695D01*
X0050345Y0016770D01*
X0048418Y0017893D01*
X0046518Y0019064D01*
X0044649Y0020280D01*
X0042809Y0021542D01*
X0041001Y0022849D01*
X0039226Y0024200D01*
X0037484Y0025594D01*
X0035777Y0027030D01*
X0034106Y0028508D01*
X0032472Y0030026D01*
X0030875Y0031584D01*
X0029317Y0033181D01*
X0027799Y0034815D01*
X0026321Y0036486D01*
X0024885Y0038193D01*
X0023491Y0039935D01*
X0022140Y0041710D01*
X0020833Y0043518D01*
X0019571Y0045358D01*
X0018355Y0047227D01*
X0017184Y0049127D01*
X0016061Y0051054D01*
X0014986Y0053008D01*
X0013958Y0054988D01*
X0012980Y0056993D01*
X0012051Y0059021D01*
X0011172Y0061072D01*
X0010343Y0063143D01*
X0009566Y0065234D01*
X0008841Y0067344D01*
X0008167Y0069470D01*
X0007546Y0071613D01*
X0006977Y0073770D01*
X0006462Y0075940D01*
X0005999Y0078123D01*
X0005591Y0080316D01*
X0005237Y0082518D01*
X0004937Y0084729D01*
X0004691Y0086946D01*
X0004499Y0089168D01*
X0004362Y0091395D01*
X0004280Y0093624D01*
X0004253Y0095855D01*
D11*
X0056406Y0064015D02*
X0056406Y0060865D01*
X0056406Y0064015D02*
X0058769Y0064015D01*
X0065068Y0064015D02*
X0067430Y0064015D01*
X0067430Y0060865D01*
X0075511Y0042228D02*
X0075511Y0039079D01*
X0075511Y0042228D02*
X0077873Y0042228D01*
X0084172Y0042228D02*
X0086534Y0042228D01*
X0086534Y0039079D01*
X0094585Y0039231D02*
X0094585Y0042381D01*
X0096948Y0042381D01*
X0103247Y0042381D02*
X0105609Y0042381D01*
X0105609Y0039231D01*
X0118148Y0060786D02*
X0118148Y0063936D01*
X0120511Y0063936D01*
X0126810Y0063936D02*
X0129172Y0063936D01*
X0129172Y0060786D01*
X0103020Y0166221D02*
X0087272Y0166221D01*
X0080276Y0170658D02*
X0080276Y0184221D01*
X0110017Y0184221D01*
X0110017Y0170658D01*
D12*
X0133048Y0130667D02*
X0133799Y0130667D01*
X0134049Y0130416D01*
X0134049Y0129916D01*
X0133799Y0129666D01*
X0133048Y0129666D01*
X0133048Y0129165D02*
X0133048Y0130667D01*
X0133549Y0129666D02*
X0134049Y0129165D01*
X0134522Y0129416D02*
X0134772Y0129165D01*
X0135272Y0129165D01*
X0135522Y0129416D01*
X0135522Y0129916D01*
X0135022Y0129916D01*
X0134522Y0130416D02*
X0134772Y0130667D01*
X0135272Y0130667D01*
X0135522Y0130416D01*
X0135995Y0130667D02*
X0136745Y0130667D01*
X0136996Y0130416D01*
X0136996Y0130166D01*
X0136745Y0129916D01*
X0135995Y0129916D01*
X0136745Y0129916D02*
X0136996Y0129666D01*
X0136996Y0129416D01*
X0136745Y0129165D01*
X0135995Y0129165D01*
X0135995Y0130667D01*
X0134522Y0130416D02*
X0134522Y0129416D01*
X0134634Y0124967D02*
X0133883Y0124967D01*
X0133883Y0123466D01*
X0134634Y0123466D01*
X0134884Y0123716D01*
X0134884Y0124717D01*
X0134634Y0124967D01*
X0133411Y0124717D02*
X0133411Y0124217D01*
X0133161Y0123967D01*
X0132410Y0123967D01*
X0132410Y0123466D02*
X0132410Y0124967D01*
X0133161Y0124967D01*
X0133411Y0124717D01*
X0131937Y0124717D02*
X0131937Y0124217D01*
X0131687Y0123967D01*
X0130937Y0123967D01*
X0131437Y0123967D02*
X0131937Y0123466D01*
X0130937Y0123466D02*
X0130937Y0124967D01*
X0131687Y0124967D01*
X0131937Y0124717D01*
X0135356Y0123216D02*
X0136357Y0123216D01*
X0136830Y0123466D02*
X0136830Y0124967D01*
X0137580Y0124967D01*
X0137830Y0124717D01*
X0137830Y0124467D01*
X0137580Y0124217D01*
X0136830Y0124217D01*
X0137580Y0124217D02*
X0137830Y0123967D01*
X0137830Y0123716D01*
X0137580Y0123466D01*
X0136830Y0123466D01*
X0151372Y0116797D02*
X0151372Y0115296D01*
X0151372Y0115796D02*
X0152122Y0115796D01*
X0152372Y0116047D01*
X0152372Y0116547D01*
X0152122Y0116797D01*
X0151372Y0116797D01*
X0151872Y0115796D02*
X0152372Y0115296D01*
X0152845Y0115296D02*
X0152845Y0116797D01*
X0153595Y0116797D01*
X0153846Y0116547D01*
X0153846Y0116047D01*
X0153595Y0115796D01*
X0152845Y0115796D01*
X0154318Y0115296D02*
X0154318Y0116797D01*
X0155069Y0116797D01*
X0155319Y0116547D01*
X0155319Y0115546D01*
X0155069Y0115296D01*
X0154318Y0115296D01*
X0155791Y0115046D02*
X0156792Y0115046D01*
X0157265Y0115296D02*
X0157765Y0115796D01*
X0158265Y0115296D01*
X0158265Y0116797D01*
X0157265Y0116797D02*
X0157265Y0115296D01*
X0156918Y0100347D02*
X0156918Y0098846D01*
X0157919Y0098846D01*
X0157419Y0099597D02*
X0156918Y0099597D01*
X0156918Y0100347D02*
X0157919Y0100347D01*
X0156446Y0100347D02*
X0155445Y0100347D01*
X0154963Y0100347D02*
X0154463Y0100347D01*
X0154713Y0100347D02*
X0154713Y0098846D01*
X0154463Y0098846D02*
X0154963Y0098846D01*
X0153991Y0098846D02*
X0153991Y0100347D01*
X0153991Y0099597D02*
X0152990Y0099597D01*
X0152990Y0100347D02*
X0152990Y0098846D01*
X0152517Y0098846D02*
X0152517Y0100347D01*
X0151517Y0100347D02*
X0151517Y0098846D01*
X0152017Y0099346D01*
X0152517Y0098846D01*
X0151044Y0098596D02*
X0150043Y0098596D01*
X0149571Y0098846D02*
X0149070Y0099346D01*
X0149321Y0099346D02*
X0148570Y0099346D01*
X0148570Y0098846D02*
X0148570Y0100347D01*
X0149321Y0100347D01*
X0149571Y0100097D01*
X0149571Y0099597D01*
X0149321Y0099346D01*
X0155946Y0098846D02*
X0155946Y0100347D01*
X0139699Y0107026D02*
X0138698Y0107026D01*
X0138698Y0108527D01*
X0139699Y0108527D01*
X0139199Y0107776D02*
X0138698Y0107776D01*
X0138226Y0107276D02*
X0138226Y0108527D01*
X0137225Y0108527D02*
X0137225Y0107276D01*
X0137475Y0107026D01*
X0137976Y0107026D01*
X0138226Y0107276D01*
X0136752Y0107026D02*
X0135752Y0107026D01*
X0135752Y0108527D01*
X0135279Y0108277D02*
X0135279Y0108026D01*
X0135029Y0107776D01*
X0134278Y0107776D01*
X0134278Y0107026D02*
X0135029Y0107026D01*
X0135279Y0107276D01*
X0135279Y0107526D01*
X0135029Y0107776D01*
X0135279Y0108277D02*
X0135029Y0108527D01*
X0134278Y0108527D01*
X0134278Y0107026D01*
X0133806Y0106775D02*
X0132805Y0106775D01*
X0132333Y0107026D02*
X0131832Y0107526D01*
X0132083Y0107526D02*
X0131332Y0107526D01*
X0131332Y0107026D02*
X0131332Y0108527D01*
X0132083Y0108527D01*
X0132333Y0108277D01*
X0132333Y0107776D01*
X0132083Y0107526D01*
X0152864Y0137480D02*
X0152864Y0138981D01*
X0153615Y0138981D01*
X0153865Y0138731D01*
X0153865Y0138231D01*
X0153615Y0137980D01*
X0152864Y0137980D01*
X0153365Y0137980D02*
X0153865Y0137480D01*
X0154337Y0137730D02*
X0154588Y0137480D01*
X0155088Y0137480D01*
X0155338Y0137730D01*
X0155338Y0138231D01*
X0154838Y0138231D01*
X0155338Y0138731D02*
X0155088Y0138981D01*
X0154588Y0138981D01*
X0154337Y0138731D01*
X0154337Y0137730D01*
X0155811Y0137480D02*
X0156311Y0137980D01*
X0156812Y0137480D01*
X0156812Y0138981D01*
X0155811Y0138981D02*
X0155811Y0137480D01*
X0122684Y0069731D02*
X0121933Y0068981D01*
X0122934Y0068981D01*
X0122684Y0069731D02*
X0122684Y0068230D01*
X0121461Y0068230D02*
X0120961Y0068730D01*
X0121211Y0068230D02*
X0120710Y0068230D01*
X0120460Y0068480D01*
X0120460Y0069481D01*
X0120710Y0069731D01*
X0121211Y0069731D01*
X0121461Y0069481D01*
X0121461Y0068480D01*
X0121211Y0068230D01*
X0099371Y0047926D02*
X0099371Y0047676D01*
X0099121Y0047425D01*
X0099371Y0047175D01*
X0099371Y0046925D01*
X0099121Y0046675D01*
X0098621Y0046675D01*
X0098370Y0046925D01*
X0097898Y0046925D02*
X0097898Y0047926D01*
X0097648Y0048176D01*
X0097147Y0048176D01*
X0096897Y0047926D01*
X0096897Y0046925D01*
X0097147Y0046675D01*
X0097648Y0046675D01*
X0097898Y0046925D01*
X0097898Y0046675D02*
X0097398Y0047175D01*
X0098370Y0047926D02*
X0098621Y0048176D01*
X0099121Y0048176D01*
X0099371Y0047926D01*
X0099121Y0047425D02*
X0098871Y0047425D01*
X0080297Y0047523D02*
X0080297Y0047773D01*
X0080046Y0048024D01*
X0079546Y0048024D01*
X0079296Y0047773D01*
X0078823Y0047773D02*
X0078823Y0046773D01*
X0078573Y0046522D01*
X0078073Y0046522D01*
X0077822Y0046773D01*
X0077822Y0047773D01*
X0078073Y0048024D01*
X0078573Y0048024D01*
X0078823Y0047773D01*
X0078323Y0047023D02*
X0078823Y0046522D01*
X0079296Y0046522D02*
X0080297Y0047523D01*
X0080297Y0046522D02*
X0079296Y0046522D01*
X0061192Y0068309D02*
X0060191Y0068309D01*
X0059719Y0068309D02*
X0059219Y0068809D01*
X0059719Y0068559D02*
X0059469Y0068309D01*
X0058968Y0068309D01*
X0058718Y0068559D01*
X0058718Y0069560D01*
X0058968Y0069810D01*
X0059469Y0069810D01*
X0059719Y0069560D01*
X0059719Y0068559D01*
X0060191Y0069310D02*
X0060692Y0069810D01*
X0060692Y0068309D01*
X0055283Y0099500D02*
X0055283Y0101001D01*
X0054282Y0101001D02*
X0055283Y0099500D01*
X0054282Y0099500D02*
X0054282Y0101001D01*
X0053810Y0101001D02*
X0052809Y0101001D01*
X0052809Y0099500D01*
X0053810Y0099500D01*
X0053309Y0100251D02*
X0052809Y0100251D01*
X0052337Y0101001D02*
X0051336Y0101001D01*
X0051336Y0099500D01*
X0052337Y0099500D01*
X0051836Y0100251D02*
X0051336Y0100251D01*
X0050863Y0100251D02*
X0050613Y0100000D01*
X0049862Y0100000D01*
X0049862Y0099500D02*
X0049862Y0101001D01*
X0050613Y0101001D01*
X0050863Y0100751D01*
X0050863Y0100251D01*
X0050363Y0100000D02*
X0050863Y0099500D01*
X0049390Y0099750D02*
X0049390Y0100251D01*
X0048890Y0100251D01*
X0049390Y0100751D02*
X0049140Y0101001D01*
X0048639Y0101001D01*
X0048389Y0100751D01*
X0048389Y0099750D01*
X0048639Y0099500D01*
X0049140Y0099500D01*
X0049390Y0099750D01*
X0047917Y0099250D02*
X0046916Y0099250D01*
X0046444Y0099500D02*
X0045943Y0100000D01*
X0046193Y0100000D02*
X0045443Y0100000D01*
X0045443Y0099500D02*
X0045443Y0101001D01*
X0046193Y0101001D01*
X0046444Y0100751D01*
X0046444Y0100251D01*
X0046193Y0100000D01*
X0037063Y0107729D02*
X0037063Y0108729D01*
X0036813Y0108980D01*
X0036062Y0108980D01*
X0036062Y0107478D01*
X0036813Y0107478D01*
X0037063Y0107729D01*
X0035590Y0107478D02*
X0034589Y0107478D01*
X0034589Y0108980D01*
X0035590Y0108980D01*
X0035089Y0108229D02*
X0034589Y0108229D01*
X0034116Y0108229D02*
X0033866Y0107979D01*
X0033115Y0107979D01*
X0033115Y0107478D02*
X0033115Y0108980D01*
X0033866Y0108980D01*
X0034116Y0108729D01*
X0034116Y0108229D01*
X0033616Y0107979D02*
X0034116Y0107478D01*
X0032643Y0107228D02*
X0031642Y0107228D01*
X0031170Y0107478D02*
X0030669Y0107979D01*
X0030920Y0107979D02*
X0030169Y0107979D01*
X0030169Y0107478D02*
X0030169Y0108980D01*
X0030920Y0108980D01*
X0031170Y0108729D01*
X0031170Y0108229D01*
X0030920Y0107979D01*
X0030953Y0122692D02*
X0030453Y0123193D01*
X0030703Y0123193D02*
X0029952Y0123193D01*
X0029952Y0122692D02*
X0029952Y0124193D01*
X0030703Y0124193D01*
X0030953Y0123943D01*
X0030953Y0123443D01*
X0030703Y0123193D01*
X0031426Y0123193D02*
X0032176Y0123193D01*
X0032426Y0123443D01*
X0032426Y0123943D01*
X0032176Y0124193D01*
X0031426Y0124193D01*
X0031426Y0122692D01*
X0032899Y0122692D02*
X0032899Y0124193D01*
X0033650Y0124193D01*
X0033900Y0123943D01*
X0033900Y0122942D01*
X0033650Y0122692D01*
X0032899Y0122692D01*
X0034372Y0122442D02*
X0035373Y0122442D01*
X0035845Y0122692D02*
X0035845Y0124193D01*
X0036596Y0124193D01*
X0036846Y0123943D01*
X0036846Y0123443D01*
X0036596Y0123193D01*
X0035845Y0123193D01*
X0036346Y0123193D02*
X0036846Y0122692D01*
X0035696Y0128776D02*
X0035196Y0129277D01*
X0035446Y0129277D02*
X0034696Y0129277D01*
X0034696Y0128776D02*
X0034696Y0130278D01*
X0035446Y0130278D01*
X0035696Y0130027D01*
X0035696Y0129527D01*
X0035446Y0129277D01*
X0034223Y0129527D02*
X0033723Y0129527D01*
X0034223Y0129527D02*
X0034223Y0129027D01*
X0033973Y0128776D01*
X0033473Y0128776D01*
X0033222Y0129027D01*
X0033222Y0130027D01*
X0033473Y0130278D01*
X0033973Y0130278D01*
X0034223Y0130027D01*
X0032750Y0130027D02*
X0032750Y0129527D01*
X0032500Y0129277D01*
X0031749Y0129277D01*
X0032250Y0129277D02*
X0032750Y0128776D01*
X0031749Y0128776D02*
X0031749Y0130278D01*
X0032500Y0130278D01*
X0032750Y0130027D01*
X0048921Y0116031D02*
X0049671Y0116031D01*
X0049922Y0115781D01*
X0049922Y0115280D01*
X0049671Y0115030D01*
X0048921Y0115030D01*
X0049421Y0115030D02*
X0049922Y0114530D01*
X0050394Y0114530D02*
X0050394Y0116031D01*
X0051145Y0116031D01*
X0051395Y0115781D01*
X0051395Y0115280D01*
X0051145Y0115030D01*
X0050394Y0115030D01*
X0051867Y0114530D02*
X0052618Y0114530D01*
X0052868Y0114780D01*
X0052868Y0115781D01*
X0052618Y0116031D01*
X0051867Y0116031D01*
X0051867Y0114530D01*
X0053340Y0114279D02*
X0054341Y0114279D01*
X0054814Y0114780D02*
X0055064Y0114530D01*
X0055564Y0114530D01*
X0055815Y0114780D01*
X0055815Y0115280D01*
X0055314Y0115280D01*
X0054814Y0115781D02*
X0054814Y0114780D01*
X0054814Y0115781D02*
X0055064Y0116031D01*
X0055564Y0116031D01*
X0055815Y0115781D01*
X0048921Y0116031D02*
X0048921Y0114530D01*
X0050287Y0137000D02*
X0050287Y0138501D01*
X0051038Y0138501D01*
X0051288Y0138251D01*
X0051288Y0137750D01*
X0051038Y0137500D01*
X0050287Y0137500D01*
X0050787Y0137500D02*
X0051288Y0137000D01*
X0051760Y0137250D02*
X0052010Y0137000D01*
X0052511Y0137000D01*
X0052761Y0137250D01*
X0052761Y0137750D01*
X0052261Y0137750D01*
X0052761Y0138251D02*
X0052511Y0138501D01*
X0052010Y0138501D01*
X0051760Y0138251D01*
X0051760Y0137250D01*
X0053234Y0137250D02*
X0053234Y0138251D01*
X0053484Y0138501D01*
X0053984Y0138501D01*
X0054234Y0138251D01*
X0054234Y0137750D02*
X0053734Y0137750D01*
X0054234Y0137750D02*
X0054234Y0137250D01*
X0053984Y0137000D01*
X0053484Y0137000D01*
X0053234Y0137250D01*
D13*
X0052056Y0136062D02*
X0054418Y0136062D01*
X0054418Y0131337D02*
X0052056Y0131337D01*
X0052056Y0121692D02*
X0054418Y0121692D01*
X0054418Y0116967D02*
X0052056Y0116967D01*
X0051524Y0106662D02*
X0053887Y0106662D01*
X0053887Y0101938D02*
X0051524Y0101938D01*
X0034300Y0101816D02*
X0031938Y0101816D01*
X0031938Y0106541D02*
X0034300Y0106541D01*
X0034083Y0117030D02*
X0031721Y0117030D01*
X0031721Y0121754D02*
X0034083Y0121754D01*
X0034300Y0131214D02*
X0031938Y0131214D01*
X0031938Y0135939D02*
X0034300Y0135939D01*
X0132706Y0122528D02*
X0135068Y0122528D01*
X0135068Y0117804D02*
X0132706Y0117804D01*
X0133101Y0106088D02*
X0135463Y0106088D01*
X0135463Y0101363D02*
X0133101Y0101363D01*
X0154161Y0101284D02*
X0156523Y0101284D01*
X0156523Y0106008D02*
X0154161Y0106008D01*
X0154507Y0117734D02*
X0156869Y0117734D01*
X0156869Y0122458D02*
X0154507Y0122458D01*
X0154633Y0131818D02*
X0156995Y0131818D01*
X0156995Y0136542D02*
X0154633Y0136542D01*
X0135599Y0136328D02*
X0133237Y0136328D01*
X0133237Y0131603D02*
X0135599Y0131603D01*
D14*
X0032012Y0030816D02*
X0032012Y0029314D01*
X0032012Y0030065D02*
X0035765Y0030065D01*
X0036515Y0029314D01*
X0036515Y0028564D01*
X0035765Y0027813D01*
X0036515Y0032417D02*
X0036515Y0035419D01*
X0036515Y0033918D02*
X0032012Y0033918D01*
X0033513Y0032417D01*
X0083673Y0084811D02*
X0084424Y0085561D01*
X0084424Y0086312D01*
X0083673Y0087063D01*
X0079920Y0087063D01*
X0079920Y0087813D02*
X0079920Y0086312D01*
X0079920Y0089415D02*
X0079920Y0091666D01*
X0080671Y0092417D01*
X0082172Y0092417D01*
X0082923Y0091666D01*
X0082923Y0089415D01*
X0082923Y0090916D02*
X0084424Y0092417D01*
X0084424Y0089415D02*
X0079920Y0089415D01*
X0089172Y0089063D02*
X0089172Y0086811D01*
X0093676Y0086811D01*
X0093676Y0089063D01*
X0092925Y0089814D01*
X0092175Y0089814D01*
X0091424Y0089063D01*
X0091424Y0086811D01*
X0091424Y0089063D02*
X0090673Y0089814D01*
X0089923Y0089814D01*
X0089172Y0089063D01*
X0089172Y0085210D02*
X0089172Y0083709D01*
X0089172Y0084459D02*
X0092925Y0084459D01*
X0093676Y0083709D01*
X0093676Y0082958D01*
X0092925Y0082207D01*
X0094920Y0086312D02*
X0094920Y0087813D01*
X0094920Y0087063D02*
X0098673Y0087063D01*
X0099424Y0086312D01*
X0099424Y0085561D01*
X0098673Y0084811D01*
X0098673Y0089415D02*
X0095671Y0089415D01*
X0094920Y0090165D01*
X0094920Y0091666D01*
X0095671Y0092417D01*
X0097172Y0092417D02*
X0097172Y0090916D01*
X0097172Y0092417D02*
X0098673Y0092417D01*
X0099424Y0091666D01*
X0099424Y0090165D01*
X0098673Y0089415D01*
X0104172Y0089814D02*
X0108676Y0089814D01*
X0107175Y0088313D01*
X0108676Y0086811D01*
X0104172Y0086811D01*
X0104172Y0085210D02*
X0104172Y0083709D01*
X0104172Y0084459D02*
X0107925Y0084459D01*
X0108676Y0083709D01*
X0108676Y0082958D01*
X0107925Y0082207D01*
X0082925Y0127207D02*
X0083676Y0127958D01*
X0083676Y0128709D01*
X0082925Y0129459D01*
X0079172Y0129459D01*
X0079172Y0128709D02*
X0079172Y0130210D01*
X0079172Y0131811D02*
X0082175Y0131811D01*
X0083676Y0133313D01*
X0082175Y0134814D01*
X0079172Y0134814D01*
X0079923Y0136415D02*
X0082925Y0136415D01*
X0083676Y0137166D01*
X0083676Y0138667D01*
X0082925Y0139418D01*
X0082925Y0141019D02*
X0083676Y0141770D01*
X0083676Y0143271D01*
X0082925Y0144022D01*
X0079923Y0144022D02*
X0079172Y0143271D01*
X0079172Y0141770D01*
X0079923Y0141019D01*
X0082925Y0141019D01*
X0079923Y0139418D02*
X0079172Y0138667D01*
X0079172Y0137166D01*
X0079923Y0136415D01*
X0093503Y0163445D02*
X0093187Y0163762D01*
X0093503Y0163445D02*
X0094137Y0163445D01*
X0094454Y0163762D01*
X0094454Y0164079D01*
X0094137Y0164396D01*
X0093503Y0164396D01*
X0093187Y0164713D01*
X0093187Y0165030D01*
X0093503Y0165347D01*
X0094137Y0165347D01*
X0094454Y0165030D01*
X0095396Y0164713D02*
X0096030Y0165347D01*
X0096030Y0163445D01*
X0095396Y0163445D02*
X0096664Y0163445D01*
X0135124Y0035419D02*
X0134374Y0034669D01*
X0134374Y0033168D01*
X0135124Y0032417D01*
X0134374Y0030816D02*
X0134374Y0029314D01*
X0134374Y0030065D02*
X0138127Y0030065D01*
X0138878Y0029314D01*
X0138878Y0028564D01*
X0138127Y0027813D01*
X0138878Y0032417D02*
X0135875Y0035419D01*
X0135124Y0035419D01*
X0138878Y0035419D02*
X0138878Y0032417D01*
M02*
