G75*
%MOIN*%
%OFA0B0*%
%FSLAX25Y25*%
%IPPOS*%
%LPD*%
%AMOC8*
5,1,8,0,0,1.08239X$1,22.5*
%
%ADD10R,0.03950X0.04343*%
%ADD11R,0.03950X0.05524*%
%ADD12C,0.08200*%
%ADD13C,0.09461*%
%ADD14C,0.03500*%
%ADD15R,0.04737X0.05367*%
%ADD16R,0.08674X0.05918*%
%ADD17R,0.22847X0.11981*%
%ADD18C,0.04800*%
%ADD19C,0.04762*%
D10*
X0031380Y0031916D03*
X0038860Y0031916D03*
X0035120Y0040184D03*
X0031961Y0051203D03*
X0039441Y0051203D03*
X0035701Y0059470D03*
X0097640Y0051124D03*
X0105120Y0051124D03*
X0101380Y0059392D03*
X0101439Y0040337D03*
X0105179Y0032069D03*
X0097699Y0032069D03*
D11*
X0115581Y0067212D03*
X0122668Y0067212D03*
X0123014Y0078662D03*
X0115927Y0078662D03*
X0116054Y0087746D03*
X0123140Y0087746D03*
X0101608Y0089103D03*
X0094521Y0089103D03*
X0094126Y0100543D03*
X0101213Y0100543D03*
X0101744Y0113280D03*
X0094657Y0113280D03*
X0069500Y0109870D03*
X0062413Y0109870D03*
X0062413Y0099898D03*
X0069500Y0099898D03*
X0069283Y0121147D03*
X0062197Y0121147D03*
X0041626Y0109264D03*
X0034539Y0109264D03*
X0034539Y0099707D03*
X0041626Y0099707D03*
X0041094Y0085740D03*
X0034008Y0085740D03*
D12*
X0017748Y0086429D03*
X0017748Y0076429D03*
X0017748Y0066429D03*
X0017748Y0056429D03*
X0017748Y0046429D03*
X0120110Y0046429D03*
X0120110Y0056429D03*
D13*
X0083509Y0028713D03*
X0054350Y0028713D03*
D14*
X0059087Y0018870D03*
X0078772Y0018870D03*
D15*
X0077772Y0052695D03*
X0071877Y0052733D03*
X0066019Y0052733D03*
X0060123Y0052733D03*
X0060109Y0087453D03*
X0066019Y0087407D03*
X0071840Y0087407D03*
X0077810Y0087407D03*
D16*
X0083804Y0070051D03*
X0054099Y0070051D03*
D17*
X0068929Y0070051D03*
D18*
X0089638Y0084500D03*
X0082138Y0092000D03*
X0102138Y0107000D03*
X0112138Y0092000D03*
X0104638Y0084500D03*
X0077138Y0112000D03*
X0072138Y0114500D03*
X0054638Y0099500D03*
X0034638Y0079500D03*
X0027138Y0072000D03*
X0044638Y0057000D03*
X0039638Y0047000D03*
X0044638Y0034500D03*
X0092138Y0034500D03*
X0107138Y0037000D03*
D19*
X0098388Y0067000D03*
X0098388Y0079500D03*
M02*
