G75*
%MOIN*%
%OFA0B0*%
%FSLAX25Y25*%
%IPPOS*%
%LPD*%
%AMOC8*
5,1,8,0,0,1.08239X$1,22.5*
%
%ADD10R,0.08000X0.08000*%
%ADD11C,0.08000*%
%ADD12C,0.07400*%
%ADD13OC8,0.05200*%
%ADD14C,0.05150*%
%ADD15C,0.04756*%
%ADD16C,0.06693*%
%ADD17C,0.12480*%
%ADD18C,0.17520*%
%ADD19C,0.10000*%
%ADD20C,0.01181*%
%ADD21C,0.04000*%
%ADD22C,0.01200*%
%ADD23C,0.02978*%
%ADD24C,0.03937*%
%ADD25C,0.07874*%
D10*
X0054661Y0093687D03*
X0055094Y0182860D03*
X0054917Y0285911D03*
X0380409Y0281994D03*
X0380409Y0231994D03*
X0380409Y0181994D03*
X0379976Y0133175D03*
X0379976Y0083175D03*
X0379976Y0033175D03*
X0380921Y0332978D03*
X0380921Y0381915D03*
X0380921Y0429789D03*
D11*
X0380921Y0449474D03*
X0380921Y0401600D03*
X0380921Y0352663D03*
X0380409Y0301679D03*
X0380409Y0251679D03*
X0380409Y0201679D03*
X0379976Y0152860D03*
X0379976Y0102860D03*
X0379976Y0052860D03*
X0054661Y0074002D03*
X0055094Y0163175D03*
X0054917Y0266226D03*
D12*
X0205055Y0370202D03*
X0215055Y0370202D03*
X0225055Y0370202D03*
X0235055Y0370202D03*
X0245055Y0370202D03*
X0255055Y0370202D03*
X0265055Y0370202D03*
X0275055Y0370202D03*
X0285055Y0370202D03*
X0295055Y0370202D03*
X0305055Y0370202D03*
X0315055Y0370202D03*
X0325055Y0370202D03*
X0335055Y0370202D03*
X0289634Y0322069D03*
X0284634Y0314569D03*
X0279634Y0322069D03*
X0243953Y0321691D03*
X0238953Y0314191D03*
X0233953Y0321691D03*
X0235921Y0450517D03*
X0245921Y0450517D03*
X0255921Y0450517D03*
X0265921Y0450517D03*
X0275921Y0450517D03*
X0285921Y0450517D03*
X0295921Y0450517D03*
X0305921Y0450517D03*
X0315921Y0450517D03*
X0325921Y0450517D03*
X0335921Y0450517D03*
X0225921Y0450517D03*
X0215921Y0450517D03*
X0205921Y0450517D03*
D13*
X0210685Y0101600D03*
X0210685Y0091600D03*
X0200685Y0091600D03*
X0245685Y0091600D03*
X0255685Y0091600D03*
X0255685Y0101600D03*
D14*
X0049760Y0048805D03*
X0049760Y0038962D03*
X0049760Y0029120D03*
X0050291Y0214868D03*
X0050291Y0224710D03*
X0050291Y0234553D03*
D15*
X0139307Y0124100D02*
X0144063Y0124100D01*
X0144063Y0114100D02*
X0139307Y0114100D01*
X0139307Y0104100D02*
X0144063Y0104100D01*
X0144063Y0094100D02*
X0139307Y0094100D01*
X0139307Y0084100D02*
X0144063Y0084100D01*
X0144063Y0074100D02*
X0139307Y0074100D01*
X0139307Y0064100D02*
X0144063Y0064100D01*
X0169307Y0064100D02*
X0174063Y0064100D01*
X0174063Y0074100D02*
X0169307Y0074100D01*
X0169307Y0084100D02*
X0174063Y0084100D01*
X0174063Y0094100D02*
X0169307Y0094100D01*
X0169307Y0104100D02*
X0174063Y0104100D01*
X0174063Y0114100D02*
X0169307Y0114100D01*
X0169307Y0124100D02*
X0174063Y0124100D01*
X0303307Y0091600D02*
X0308063Y0091600D01*
X0308063Y0081600D02*
X0303307Y0081600D01*
X0303307Y0071600D02*
X0308063Y0071600D01*
X0308063Y0061600D02*
X0303307Y0061600D01*
X0333307Y0061600D02*
X0338063Y0061600D01*
X0338063Y0071600D02*
X0333307Y0071600D01*
X0333307Y0081600D02*
X0338063Y0081600D01*
X0338063Y0091600D02*
X0333307Y0091600D01*
D16*
X0200685Y0321600D03*
X0170685Y0321600D03*
D17*
X0066866Y0627702D03*
X0066866Y0654277D03*
D18*
X0366079Y0513529D03*
X0366079Y0491876D03*
D19*
X0070685Y0455900D02*
X0060685Y0455900D01*
X0060685Y0367300D02*
X0070685Y0367300D01*
D20*
X0130636Y0242799D02*
X0130636Y0095207D01*
X0141532Y0084311D01*
X0141685Y0084100D01*
X0138185Y0079100D02*
X0137325Y0079100D01*
X0147971Y0099665D02*
X0147971Y0107094D01*
X0142028Y0113037D01*
X0142028Y0114028D01*
X0141685Y0114100D01*
X0147971Y0117990D02*
X0147971Y0110065D01*
X0167782Y0090254D01*
X0173725Y0090254D01*
X0199480Y0064500D01*
X0267828Y0064500D01*
X0275257Y0071929D01*
X0305469Y0071929D01*
X0305685Y0071600D01*
X0305964Y0064005D02*
X0324289Y0082330D01*
X0324289Y0088273D01*
X0331718Y0095702D01*
X0367378Y0095702D01*
X0379760Y0083320D01*
X0379976Y0083175D01*
X0379976Y0152860D02*
X0380255Y0153154D01*
X0388180Y0161079D01*
X0388180Y0259639D01*
X0358958Y0288860D01*
X0358958Y0303718D01*
X0295068Y0367609D01*
X0295068Y0370085D01*
X0295055Y0370202D01*
X0286648Y0370085D02*
X0356977Y0299756D01*
X0356977Y0282917D01*
X0386198Y0253695D01*
X0386198Y0247752D01*
X0327261Y0188814D01*
X0327261Y0161079D01*
X0267828Y0101646D01*
X0255941Y0101646D01*
X0255685Y0101600D01*
X0255446Y0101150D01*
X0249502Y0101150D01*
X0233158Y0084806D01*
X0235635Y0081339D02*
X0245540Y0091245D01*
X0245685Y0091600D01*
X0235635Y0081339D02*
X0204928Y0081339D01*
X0192546Y0093721D01*
X0171744Y0093721D01*
X0171685Y0094100D01*
X0173725Y0079854D02*
X0167782Y0079854D01*
X0147971Y0099665D01*
X0147971Y0117990D02*
X0142028Y0123933D01*
X0141685Y0124100D01*
X0173725Y0079854D02*
X0195022Y0058557D01*
X0195022Y0057566D01*
X0197994Y0079854D02*
X0203442Y0079854D01*
X0215328Y0067967D01*
X0264361Y0067967D01*
X0268323Y0067967D01*
X0281695Y0081339D01*
X0305469Y0081339D01*
X0305685Y0081600D01*
X0305964Y0064005D02*
X0305964Y0062024D01*
X0305685Y0061600D01*
X0284667Y0068462D02*
X0243559Y0027354D01*
X0197994Y0027354D01*
X0183135Y0017449D02*
X0226720Y0061033D01*
X0240587Y0061033D01*
X0217309Y0098179D02*
X0217309Y0210606D01*
X0265351Y0258648D01*
X0265351Y0266077D01*
X0214833Y0316595D01*
X0198984Y0316595D01*
X0195517Y0320062D01*
X0195517Y0375533D01*
X0225729Y0405745D01*
X0235055Y0370202D02*
X0235139Y0370085D01*
X0237616Y0370085D01*
X0275257Y0332444D01*
X0321317Y0332444D01*
X0354996Y0298765D01*
X0354996Y0276973D01*
X0380255Y0251714D01*
X0380409Y0251679D01*
X0380409Y0231994D02*
X0380750Y0231903D01*
X0380750Y0209120D01*
X0386198Y0203672D01*
X0386198Y0187824D01*
X0380750Y0182376D01*
X0380409Y0181994D01*
X0323794Y0162565D02*
X0323794Y0316595D01*
X0320327Y0323034D02*
X0320327Y0159098D01*
X0248512Y0302728D02*
X0248512Y0314614D01*
X0239102Y0314614D01*
X0238953Y0314191D01*
X0248512Y0314614D02*
X0284172Y0314614D01*
X0284634Y0314569D01*
X0285162Y0370085D02*
X0285055Y0370202D01*
X0285162Y0370085D02*
X0286648Y0370085D01*
X0227710Y0297280D02*
X0217309Y0297280D01*
X0203442Y0311147D01*
X0198984Y0311147D01*
X0130636Y0242799D01*
X0095472Y0210111D02*
X0064765Y0210111D01*
X0050402Y0224474D01*
X0050291Y0224710D01*
X0074670Y0202187D02*
X0055354Y0182871D01*
X0055094Y0182860D01*
X0054859Y0182376D01*
X0049411Y0176928D01*
X0049411Y0161079D01*
X0054364Y0156126D01*
X0054364Y0093721D01*
X0054661Y0093687D01*
X0074670Y0202187D02*
X0095472Y0202187D01*
X0143018Y0017449D02*
X0183135Y0017449D01*
X0380921Y0332978D02*
X0381246Y0333435D01*
X0381246Y0345321D01*
X0386694Y0350769D01*
X0386694Y0376028D01*
X0381246Y0381476D01*
X0380921Y0381915D01*
X0380921Y0429789D02*
X0380750Y0430013D01*
X0375302Y0435461D01*
X0375302Y0451806D01*
X0376293Y0452796D01*
X0376293Y0496380D01*
X0366387Y0506286D01*
X0366387Y0513220D01*
X0366079Y0513529D01*
D21*
X0362425Y0395839D03*
X0319831Y0328977D03*
X0320327Y0323034D03*
X0323794Y0316595D03*
X0362425Y0298270D03*
X0323794Y0162565D03*
X0320327Y0159098D03*
X0284667Y0068462D03*
X0264361Y0067967D03*
X0240587Y0061033D03*
X0233158Y0084806D03*
X0217309Y0098179D03*
X0197994Y0079854D03*
X0195022Y0057566D03*
X0185117Y0041717D03*
X0197994Y0027354D03*
X0202946Y0016954D03*
X0169763Y0026859D03*
X0144504Y0044194D03*
X0143018Y0017449D03*
X0095472Y0202187D03*
X0095472Y0210111D03*
X0134103Y0238837D03*
X0199480Y0304213D03*
X0203937Y0290841D03*
X0211366Y0298270D03*
X0227710Y0297280D03*
X0248512Y0302728D03*
X0261884Y0264591D03*
X0260894Y0259143D03*
X0223253Y0259143D03*
X0225729Y0405745D03*
D22*
X0043959Y0006600D02*
X0043870Y0006600D01*
X0043870Y0006689D01*
X0043959Y0006600D01*
X0043870Y0014778D02*
X0043870Y0358882D01*
X0045482Y0357270D01*
X0047922Y0354830D01*
X0047922Y0290519D01*
X0047917Y0290508D01*
X0047917Y0287309D01*
X0047805Y0286904D01*
X0047917Y0285996D01*
X0047917Y0281314D01*
X0048374Y0280212D01*
X0049218Y0279368D01*
X0050321Y0278911D01*
X0054203Y0278911D01*
X0054397Y0278857D01*
X0054833Y0278911D01*
X0059514Y0278911D01*
X0060617Y0279368D01*
X0061461Y0280212D01*
X0061917Y0281314D01*
X0061917Y0285196D01*
X0061971Y0285391D01*
X0061917Y0285826D01*
X0061917Y0290508D01*
X0061796Y0290801D01*
X0061796Y0359083D01*
X0061706Y0359300D01*
X0072276Y0359300D01*
X0075217Y0360518D01*
X0077467Y0362768D01*
X0078685Y0365709D01*
X0078685Y0368891D01*
X0077467Y0371832D01*
X0075217Y0374082D01*
X0072276Y0375300D01*
X0059094Y0375300D01*
X0056348Y0374163D01*
X0056348Y0449037D01*
X0059094Y0447900D01*
X0072276Y0447900D01*
X0075217Y0449118D01*
X0077467Y0451368D01*
X0078685Y0454309D01*
X0078685Y0457491D01*
X0077467Y0460432D01*
X0075217Y0462682D01*
X0072276Y0463900D01*
X0059094Y0463900D01*
X0056348Y0462763D01*
X0056348Y0607420D01*
X0067390Y0618462D01*
X0068704Y0618462D01*
X0072100Y0619869D01*
X0074700Y0622468D01*
X0076106Y0625864D01*
X0076106Y0629540D01*
X0074700Y0632936D01*
X0072100Y0635536D01*
X0068704Y0636943D01*
X0065028Y0636943D01*
X0061632Y0635536D01*
X0059033Y0632936D01*
X0057626Y0629540D01*
X0057626Y0628319D01*
X0043870Y0614563D01*
X0043870Y0674642D01*
X0044872Y0673640D01*
X0047060Y0672734D01*
X0049428Y0672734D01*
X0051616Y0673640D01*
X0053291Y0675315D01*
X0054197Y0677503D01*
X0054197Y0679871D01*
X0053405Y0681782D01*
X0390685Y0686600D01*
X0391201Y0686084D01*
X0391201Y0682731D01*
X0390199Y0683733D01*
X0388011Y0684639D01*
X0385643Y0684639D01*
X0383455Y0683733D01*
X0381780Y0682059D01*
X0380874Y0679871D01*
X0380874Y0677503D01*
X0381780Y0675315D01*
X0383455Y0673640D01*
X0385643Y0672734D01*
X0388011Y0672734D01*
X0390199Y0673640D01*
X0391201Y0674642D01*
X0391201Y0261695D01*
X0390213Y0262682D01*
X0376502Y0276394D01*
X0379809Y0276394D01*
X0379809Y0281394D01*
X0374809Y0281394D01*
X0374809Y0278086D01*
X0362549Y0290347D01*
X0362549Y0293270D01*
X0363420Y0293270D01*
X0365257Y0294031D01*
X0366664Y0295438D01*
X0367425Y0297276D01*
X0367425Y0299265D01*
X0367394Y0299341D01*
X0367394Y0394769D01*
X0367425Y0394845D01*
X0367425Y0396834D01*
X0366664Y0398672D01*
X0365257Y0400078D01*
X0363420Y0400839D01*
X0361431Y0400839D01*
X0359593Y0400078D01*
X0358186Y0398672D01*
X0357425Y0396834D01*
X0357425Y0394845D01*
X0357457Y0394769D01*
X0357457Y0393025D01*
X0355323Y0393025D01*
X0354110Y0392522D01*
X0353182Y0391594D01*
X0352680Y0390381D01*
X0352680Y0389068D01*
X0353182Y0387855D01*
X0353448Y0387590D01*
X0353182Y0387324D01*
X0352680Y0386111D01*
X0352680Y0384798D01*
X0352858Y0384367D01*
X0352680Y0383936D01*
X0352680Y0378353D01*
X0353182Y0377140D01*
X0354110Y0376211D01*
X0355323Y0375709D01*
X0357457Y0375709D01*
X0357457Y0343025D01*
X0355323Y0343025D01*
X0354110Y0342522D01*
X0353182Y0341594D01*
X0352680Y0340381D01*
X0352680Y0339068D01*
X0353182Y0337855D01*
X0353448Y0337590D01*
X0353182Y0337324D01*
X0352680Y0336111D01*
X0352680Y0334798D01*
X0353079Y0333833D01*
X0352978Y0333589D01*
X0352680Y0332868D01*
X0352680Y0329420D01*
X0353182Y0328207D01*
X0354002Y0327388D01*
X0353182Y0326568D01*
X0352680Y0325355D01*
X0352680Y0324042D01*
X0353182Y0322829D01*
X0354110Y0321901D01*
X0356245Y0319766D01*
X0357457Y0319264D01*
X0357457Y0310297D01*
X0304252Y0363502D01*
X0306388Y0363502D01*
X0308850Y0364522D01*
X0310055Y0365727D01*
X0311260Y0364522D01*
X0313722Y0363502D01*
X0316388Y0363502D01*
X0318850Y0364522D01*
X0320055Y0365727D01*
X0321260Y0364522D01*
X0323722Y0363502D01*
X0326388Y0363502D01*
X0328850Y0364522D01*
X0330055Y0365727D01*
X0331260Y0364522D01*
X0333722Y0363502D01*
X0336388Y0363502D01*
X0338850Y0364522D01*
X0340735Y0366407D01*
X0341755Y0368870D01*
X0341755Y0371535D01*
X0340735Y0373998D01*
X0338850Y0375882D01*
X0336388Y0376902D01*
X0333722Y0376902D01*
X0331260Y0375882D01*
X0330055Y0374678D01*
X0328850Y0375882D01*
X0326388Y0376902D01*
X0323722Y0376902D01*
X0321260Y0375882D01*
X0320055Y0374678D01*
X0318850Y0375882D01*
X0316388Y0376902D01*
X0313722Y0376902D01*
X0311260Y0375882D01*
X0310055Y0374678D01*
X0308850Y0375882D01*
X0306388Y0376902D01*
X0303722Y0376902D01*
X0301260Y0375882D01*
X0300055Y0374678D01*
X0298850Y0375882D01*
X0296388Y0376902D01*
X0293722Y0376902D01*
X0291260Y0375882D01*
X0290055Y0374678D01*
X0288850Y0375882D01*
X0286388Y0376902D01*
X0283722Y0376902D01*
X0281260Y0375882D01*
X0280055Y0374678D01*
X0278850Y0375882D01*
X0276388Y0376902D01*
X0273722Y0376902D01*
X0271260Y0375882D01*
X0270055Y0374678D01*
X0268850Y0375882D01*
X0266388Y0376902D01*
X0263722Y0376902D01*
X0261260Y0375882D01*
X0260055Y0374678D01*
X0258850Y0375882D01*
X0256388Y0376902D01*
X0253722Y0376902D01*
X0251260Y0375882D01*
X0250055Y0374678D01*
X0248850Y0375882D01*
X0246388Y0376902D01*
X0243722Y0376902D01*
X0241260Y0375882D01*
X0240055Y0374678D01*
X0238850Y0375882D01*
X0236388Y0376902D01*
X0233722Y0376902D01*
X0231260Y0375882D01*
X0230055Y0374678D01*
X0228850Y0375882D01*
X0226388Y0376902D01*
X0223722Y0376902D01*
X0221260Y0375882D01*
X0220055Y0374678D01*
X0218850Y0375882D01*
X0216388Y0376902D01*
X0213722Y0376902D01*
X0211260Y0375882D01*
X0210055Y0374678D01*
X0208850Y0375882D01*
X0206388Y0376902D01*
X0203722Y0376902D01*
X0201260Y0375882D01*
X0199375Y0373998D01*
X0199108Y0373352D01*
X0199108Y0374046D01*
X0225807Y0400745D01*
X0226724Y0400745D01*
X0228561Y0401506D01*
X0229968Y0402913D01*
X0230729Y0404750D01*
X0230729Y0406739D01*
X0229968Y0408577D01*
X0229311Y0409234D01*
X0258990Y0438913D01*
X0339640Y0438913D01*
X0341466Y0439669D01*
X0368707Y0466909D01*
X0370104Y0468307D01*
X0370861Y0470133D01*
X0370861Y0481057D01*
X0373299Y0482465D01*
X0375489Y0484655D01*
X0377037Y0487336D01*
X0377839Y0490327D01*
X0377839Y0493424D01*
X0377037Y0496415D01*
X0375489Y0499096D01*
X0373299Y0501286D01*
X0370618Y0502834D01*
X0368391Y0503431D01*
X0368951Y0503559D01*
X0370050Y0503943D01*
X0371098Y0504448D01*
X0372083Y0505067D01*
X0372993Y0505792D01*
X0373816Y0506615D01*
X0374541Y0507525D01*
X0375160Y0508510D01*
X0375665Y0509558D01*
X0376049Y0510657D01*
X0376308Y0511791D01*
X0376437Y0512929D01*
X0366679Y0512929D01*
X0366679Y0514129D01*
X0376437Y0514129D01*
X0376308Y0515267D01*
X0376049Y0516402D01*
X0375665Y0517500D01*
X0375160Y0518548D01*
X0374541Y0519534D01*
X0373816Y0520443D01*
X0372993Y0521266D01*
X0372083Y0521992D01*
X0371098Y0522611D01*
X0370050Y0523115D01*
X0368951Y0523500D01*
X0367817Y0523759D01*
X0366679Y0523887D01*
X0366679Y0514129D01*
X0365479Y0514129D01*
X0365479Y0523887D01*
X0364341Y0523759D01*
X0363206Y0523500D01*
X0362108Y0523115D01*
X0361060Y0522611D01*
X0360074Y0521992D01*
X0359165Y0521266D01*
X0358342Y0520443D01*
X0357616Y0519534D01*
X0356997Y0518548D01*
X0356492Y0517500D01*
X0356108Y0516402D01*
X0355849Y0515267D01*
X0355721Y0514129D01*
X0365479Y0514129D01*
X0365479Y0512929D01*
X0365479Y0503635D01*
X0366679Y0503635D01*
X0366679Y0512929D01*
X0365479Y0512929D01*
X0355721Y0512929D01*
X0355849Y0511791D01*
X0356108Y0510657D01*
X0356492Y0509558D01*
X0356997Y0508510D01*
X0357616Y0507525D01*
X0358342Y0506615D01*
X0359165Y0505792D01*
X0360074Y0505067D01*
X0361060Y0504448D01*
X0362108Y0503943D01*
X0363206Y0503559D01*
X0363766Y0503431D01*
X0361540Y0502834D01*
X0358858Y0501286D01*
X0356669Y0499096D01*
X0355120Y0496415D01*
X0354319Y0493424D01*
X0354319Y0490327D01*
X0355120Y0487336D01*
X0356669Y0484655D01*
X0358858Y0482465D01*
X0360924Y0481273D01*
X0360924Y0473179D01*
X0341735Y0453990D01*
X0341601Y0454313D01*
X0339716Y0456197D01*
X0337254Y0457217D01*
X0334589Y0457217D01*
X0332126Y0456197D01*
X0330921Y0454993D01*
X0329716Y0456197D01*
X0327254Y0457217D01*
X0324589Y0457217D01*
X0322126Y0456197D01*
X0320921Y0454993D01*
X0319716Y0456197D01*
X0317254Y0457217D01*
X0314589Y0457217D01*
X0312126Y0456197D01*
X0310921Y0454993D01*
X0309716Y0456197D01*
X0307254Y0457217D01*
X0304589Y0457217D01*
X0302126Y0456197D01*
X0300921Y0454993D01*
X0299716Y0456197D01*
X0297254Y0457217D01*
X0294589Y0457217D01*
X0292126Y0456197D01*
X0290921Y0454993D01*
X0289716Y0456197D01*
X0287254Y0457217D01*
X0284589Y0457217D01*
X0282126Y0456197D01*
X0280921Y0454993D01*
X0279716Y0456197D01*
X0277254Y0457217D01*
X0274589Y0457217D01*
X0272126Y0456197D01*
X0270921Y0454993D01*
X0269716Y0456197D01*
X0267254Y0457217D01*
X0264589Y0457217D01*
X0262126Y0456197D01*
X0260921Y0454993D01*
X0259716Y0456197D01*
X0257254Y0457217D01*
X0254589Y0457217D01*
X0252126Y0456197D01*
X0250921Y0454993D01*
X0249716Y0456197D01*
X0247254Y0457217D01*
X0244589Y0457217D01*
X0242126Y0456197D01*
X0240241Y0454313D01*
X0240050Y0453851D01*
X0239964Y0453970D01*
X0239374Y0454560D01*
X0238699Y0455050D01*
X0237956Y0455429D01*
X0237162Y0455687D01*
X0236338Y0455817D01*
X0236321Y0455817D01*
X0236321Y0450917D01*
X0235521Y0450917D01*
X0235521Y0455817D01*
X0235504Y0455817D01*
X0234680Y0455687D01*
X0233887Y0455429D01*
X0233143Y0455050D01*
X0232469Y0454560D01*
X0231879Y0453970D01*
X0231792Y0453851D01*
X0231601Y0454313D01*
X0229716Y0456197D01*
X0227254Y0457217D01*
X0224589Y0457217D01*
X0222126Y0456197D01*
X0220921Y0454993D01*
X0219716Y0456197D01*
X0217254Y0457217D01*
X0214589Y0457217D01*
X0212126Y0456197D01*
X0210921Y0454993D01*
X0209716Y0456197D01*
X0207254Y0457217D01*
X0204589Y0457217D01*
X0202126Y0456197D01*
X0200241Y0454313D01*
X0199221Y0451850D01*
X0199221Y0449185D01*
X0200241Y0446722D01*
X0202126Y0444837D01*
X0204589Y0443817D01*
X0207254Y0443817D01*
X0209716Y0444837D01*
X0210921Y0446042D01*
X0212126Y0444837D01*
X0214589Y0443817D01*
X0217254Y0443817D01*
X0219716Y0444837D01*
X0220921Y0446042D01*
X0222126Y0444837D01*
X0224589Y0443817D01*
X0227254Y0443817D01*
X0229716Y0444837D01*
X0231601Y0446722D01*
X0231792Y0447183D01*
X0231879Y0447065D01*
X0232469Y0446475D01*
X0233143Y0445984D01*
X0233887Y0445606D01*
X0234680Y0445348D01*
X0235504Y0445217D01*
X0235521Y0445217D01*
X0235521Y0450117D01*
X0236321Y0450117D01*
X0236321Y0445217D01*
X0236338Y0445217D01*
X0237162Y0445348D01*
X0237956Y0445606D01*
X0238699Y0445984D01*
X0239374Y0446475D01*
X0239964Y0447065D01*
X0240050Y0447183D01*
X0240241Y0446722D01*
X0242126Y0444837D01*
X0244589Y0443817D01*
X0247254Y0443817D01*
X0249716Y0444837D01*
X0250921Y0446042D01*
X0251494Y0445470D01*
X0083743Y0277719D01*
X0083492Y0278973D01*
X0082762Y0280064D01*
X0081396Y0280974D01*
X0082254Y0281330D01*
X0083183Y0282258D01*
X0083685Y0283471D01*
X0083685Y0289054D01*
X0083506Y0289485D01*
X0083685Y0289917D01*
X0083685Y0295500D01*
X0083285Y0296465D01*
X0083685Y0297430D01*
X0083685Y0300878D01*
X0083387Y0301598D01*
X0083183Y0302090D01*
X0083183Y0302091D01*
X0083167Y0302106D01*
X0082363Y0302910D01*
X0083183Y0303730D01*
X0083685Y0304943D01*
X0083685Y0306256D01*
X0083483Y0306744D01*
X0083183Y0307468D01*
X0080119Y0310532D01*
X0078906Y0311034D01*
X0073323Y0311034D01*
X0072110Y0310532D01*
X0071182Y0309604D01*
X0070680Y0308391D01*
X0070680Y0307078D01*
X0071182Y0305865D01*
X0071448Y0305599D01*
X0071182Y0305333D01*
X0070680Y0304120D01*
X0070680Y0302808D01*
X0071079Y0301843D01*
X0070970Y0301578D01*
X0070680Y0300878D01*
X0070680Y0297430D01*
X0071182Y0296217D01*
X0072002Y0295397D01*
X0071182Y0294577D01*
X0070680Y0293365D01*
X0070680Y0292052D01*
X0071182Y0290839D01*
X0072110Y0289911D01*
X0072712Y0289309D01*
X0072110Y0289060D01*
X0071182Y0288132D01*
X0070680Y0286919D01*
X0070680Y0285606D01*
X0071182Y0284393D01*
X0071457Y0284118D01*
X0070870Y0283237D01*
X0070615Y0281949D01*
X0070872Y0280661D01*
X0071603Y0279571D01*
X0072969Y0278660D01*
X0072110Y0278304D01*
X0071182Y0277376D01*
X0070680Y0276163D01*
X0070680Y0274850D01*
X0071182Y0273638D01*
X0071448Y0273372D01*
X0071182Y0273106D01*
X0070680Y0271893D01*
X0070680Y0270580D01*
X0071079Y0269615D01*
X0070970Y0269350D01*
X0070680Y0268650D01*
X0070680Y0265202D01*
X0070840Y0264816D01*
X0046189Y0240166D01*
X0045433Y0238339D01*
X0045433Y0237392D01*
X0044717Y0235662D01*
X0044717Y0233444D01*
X0045565Y0231395D01*
X0047133Y0229827D01*
X0047605Y0229631D01*
X0047133Y0229436D01*
X0045565Y0227868D01*
X0044717Y0225819D01*
X0044717Y0223601D01*
X0045565Y0221552D01*
X0047133Y0219984D01*
X0047605Y0219789D01*
X0047133Y0219594D01*
X0045565Y0218026D01*
X0044717Y0215977D01*
X0044717Y0213759D01*
X0045565Y0211710D01*
X0047133Y0210142D01*
X0049182Y0209293D01*
X0051400Y0209293D01*
X0053449Y0210142D01*
X0055017Y0211710D01*
X0055866Y0213759D01*
X0055866Y0213932D01*
X0062731Y0207067D01*
X0064050Y0206520D01*
X0091991Y0206520D01*
X0092639Y0205872D01*
X0094477Y0205111D01*
X0096466Y0205111D01*
X0098304Y0205872D01*
X0099710Y0207279D01*
X0100472Y0209116D01*
X0100472Y0211106D01*
X0099710Y0212943D01*
X0098304Y0214350D01*
X0096466Y0215111D01*
X0094477Y0215111D01*
X0092639Y0214350D01*
X0091991Y0213702D01*
X0066252Y0213702D01*
X0055866Y0224087D01*
X0055866Y0225819D01*
X0055017Y0227868D01*
X0053449Y0229436D01*
X0052978Y0229631D01*
X0053449Y0229827D01*
X0055017Y0231395D01*
X0055866Y0233444D01*
X0055866Y0235662D01*
X0055829Y0235752D01*
X0071180Y0251103D01*
X0071182Y0251098D01*
X0073178Y0249102D01*
X0074391Y0248600D01*
X0075704Y0248600D01*
X0076916Y0249102D01*
X0077716Y0249902D01*
X0078516Y0249102D01*
X0079729Y0248600D01*
X0081041Y0248600D01*
X0082254Y0249102D01*
X0083183Y0250031D01*
X0083685Y0251244D01*
X0083685Y0256827D01*
X0083506Y0257258D01*
X0083685Y0257689D01*
X0083685Y0263272D01*
X0083587Y0263510D01*
X0191927Y0371850D01*
X0191927Y0319348D01*
X0192473Y0318028D01*
X0193483Y0317018D01*
X0196630Y0313871D01*
X0164285Y0281526D01*
X0164285Y0288852D01*
X0164491Y0289057D01*
X0165174Y0290707D01*
X0165174Y0292493D01*
X0164491Y0294143D01*
X0163228Y0295406D01*
X0161578Y0296089D01*
X0159792Y0296089D01*
X0158185Y0295423D01*
X0156578Y0296089D01*
X0154792Y0296089D01*
X0153142Y0295406D01*
X0151879Y0294143D01*
X0151196Y0292493D01*
X0151196Y0292202D01*
X0143646Y0284652D01*
X0142633Y0283639D01*
X0142085Y0282316D01*
X0142085Y0279348D01*
X0141879Y0279143D01*
X0141196Y0277493D01*
X0141196Y0275707D01*
X0141879Y0274057D01*
X0143142Y0272794D01*
X0144792Y0272111D01*
X0146578Y0272111D01*
X0148228Y0272794D01*
X0149491Y0274057D01*
X0150174Y0275707D01*
X0150174Y0277493D01*
X0149491Y0279143D01*
X0149285Y0279348D01*
X0149285Y0280109D01*
X0156287Y0287111D01*
X0156578Y0287111D01*
X0157085Y0287321D01*
X0157085Y0280848D01*
X0156879Y0280643D01*
X0156196Y0278993D01*
X0156196Y0277207D01*
X0156879Y0275557D01*
X0157598Y0274839D01*
X0128602Y0245843D01*
X0127592Y0244833D01*
X0127046Y0243513D01*
X0127046Y0094493D01*
X0127592Y0093173D01*
X0134417Y0086348D01*
X0133929Y0085170D01*
X0133929Y0083030D01*
X0134748Y0081054D01*
X0136261Y0079541D01*
X0137325Y0079100D01*
X0136261Y0078659D01*
X0134748Y0077146D01*
X0133929Y0075170D01*
X0133929Y0073030D01*
X0134748Y0071054D01*
X0136261Y0069541D01*
X0137325Y0069100D01*
X0136261Y0068659D01*
X0134748Y0067146D01*
X0133929Y0065170D01*
X0133929Y0063030D01*
X0134748Y0061054D01*
X0136261Y0059541D01*
X0138237Y0058722D01*
X0139810Y0058722D01*
X0139535Y0058059D01*
X0139535Y0049255D01*
X0135927Y0052863D01*
X0134101Y0053620D01*
X0068685Y0053620D01*
X0068685Y0054784D01*
X0068183Y0055997D01*
X0067923Y0056257D01*
X0067947Y0056293D01*
X0068183Y0056528D01*
X0068309Y0056833D01*
X0068492Y0057107D01*
X0068558Y0057434D01*
X0068685Y0057741D01*
X0068685Y0058071D01*
X0068750Y0058394D01*
X0068709Y0058600D01*
X0069974Y0058600D01*
X0071187Y0059102D01*
X0072254Y0060170D01*
X0072254Y0060170D01*
X0073183Y0061098D01*
X0073685Y0062311D01*
X0073685Y0065759D01*
X0073395Y0066459D01*
X0073285Y0066724D01*
X0073685Y0067689D01*
X0073685Y0069002D01*
X0073183Y0070215D01*
X0072917Y0070481D01*
X0073183Y0070747D01*
X0073685Y0071959D01*
X0073685Y0073272D01*
X0073506Y0073703D01*
X0073685Y0074135D01*
X0073685Y0075447D01*
X0073183Y0076660D01*
X0072254Y0077589D01*
X0071550Y0077880D01*
X0071550Y0078650D01*
X0071047Y0079863D01*
X0070839Y0080072D01*
X0071041Y0080072D01*
X0072254Y0080574D01*
X0073183Y0081502D01*
X0073685Y0082715D01*
X0073685Y0084028D01*
X0073183Y0085241D01*
X0072897Y0085527D01*
X0073183Y0085813D01*
X0073685Y0087026D01*
X0073685Y0092609D01*
X0073285Y0093574D01*
X0073685Y0094539D01*
X0073685Y0097987D01*
X0073395Y0098687D01*
X0073285Y0098952D01*
X0073685Y0099917D01*
X0073685Y0101229D01*
X0073183Y0102442D01*
X0072917Y0102708D01*
X0073183Y0102974D01*
X0073685Y0104187D01*
X0073685Y0105500D01*
X0073183Y0106713D01*
X0072254Y0107641D01*
X0071041Y0108143D01*
X0069729Y0108143D01*
X0068784Y0107752D01*
X0067839Y0108143D01*
X0064391Y0108143D01*
X0063178Y0107641D01*
X0061182Y0105645D01*
X0060970Y0105132D01*
X0060680Y0104432D01*
X0060680Y0099917D01*
X0060858Y0099485D01*
X0060680Y0099054D01*
X0060680Y0097741D01*
X0061182Y0096528D01*
X0061448Y0096263D01*
X0061182Y0095997D01*
X0060680Y0094784D01*
X0060680Y0093471D01*
X0060858Y0093040D01*
X0060680Y0092609D01*
X0060680Y0087026D01*
X0060858Y0086594D01*
X0060680Y0086163D01*
X0060680Y0080580D01*
X0061079Y0079615D01*
X0060970Y0079350D01*
X0060680Y0078650D01*
X0060680Y0077764D01*
X0060596Y0077967D01*
X0058627Y0079936D01*
X0056054Y0081002D01*
X0053269Y0081002D01*
X0050696Y0079936D01*
X0048727Y0077967D01*
X0047661Y0075394D01*
X0047661Y0072609D01*
X0048727Y0070036D01*
X0050696Y0068067D01*
X0053269Y0067002D01*
X0056054Y0067002D01*
X0058627Y0068067D01*
X0060596Y0070036D01*
X0060680Y0070239D01*
X0060680Y0069824D01*
X0061182Y0068611D01*
X0062002Y0067792D01*
X0061197Y0066987D01*
X0061182Y0066972D01*
X0061182Y0066972D01*
X0060978Y0066480D01*
X0060680Y0065759D01*
X0060680Y0062311D01*
X0060934Y0061698D01*
X0058323Y0061698D01*
X0057110Y0061195D01*
X0056182Y0060267D01*
X0055680Y0059054D01*
X0055680Y0057741D01*
X0056182Y0056528D01*
X0056442Y0056269D01*
X0056418Y0056232D01*
X0056182Y0055997D01*
X0056056Y0055692D01*
X0055872Y0055418D01*
X0055807Y0055092D01*
X0055680Y0054784D01*
X0055680Y0054454D01*
X0055615Y0054131D01*
X0055680Y0053804D01*
X0055680Y0053620D01*
X0052703Y0053620D01*
X0050869Y0054380D01*
X0048651Y0054380D01*
X0046602Y0053531D01*
X0045034Y0051963D01*
X0044185Y0049914D01*
X0044185Y0047696D01*
X0045034Y0045647D01*
X0046602Y0044079D01*
X0047073Y0043883D01*
X0046602Y0043688D01*
X0045034Y0042120D01*
X0044185Y0040071D01*
X0044185Y0037853D01*
X0045034Y0035804D01*
X0046602Y0034236D01*
X0047073Y0034041D01*
X0046602Y0033846D01*
X0045034Y0032278D01*
X0044185Y0030229D01*
X0044185Y0028011D01*
X0045034Y0025962D01*
X0046602Y0024394D01*
X0048651Y0023545D01*
X0050869Y0023545D01*
X0052918Y0024394D01*
X0054486Y0025962D01*
X0055335Y0028011D01*
X0055335Y0030229D01*
X0054486Y0032278D01*
X0052918Y0033846D01*
X0052447Y0034041D01*
X0052918Y0034236D01*
X0054486Y0035804D01*
X0055335Y0037853D01*
X0055335Y0040071D01*
X0054486Y0042120D01*
X0052923Y0043683D01*
X0056230Y0043683D01*
X0056603Y0043125D01*
X0057969Y0042215D01*
X0057110Y0041859D01*
X0056182Y0040931D01*
X0055680Y0039718D01*
X0055680Y0034135D01*
X0055858Y0033703D01*
X0055680Y0033272D01*
X0055680Y0027689D01*
X0056079Y0026724D01*
X0055680Y0025759D01*
X0055680Y0022311D01*
X0056182Y0021098D01*
X0058178Y0019102D01*
X0059391Y0018600D01*
X0064974Y0018600D01*
X0066187Y0019102D01*
X0067254Y0020170D01*
X0067254Y0020170D01*
X0068183Y0021098D01*
X0068685Y0022311D01*
X0068685Y0025759D01*
X0068395Y0026459D01*
X0068285Y0026724D01*
X0068685Y0027689D01*
X0068685Y0029002D01*
X0068183Y0030215D01*
X0067254Y0031143D01*
X0066228Y0031568D01*
X0067254Y0031993D01*
X0068183Y0032922D01*
X0068685Y0034135D01*
X0068685Y0035447D01*
X0068183Y0036660D01*
X0067254Y0037589D01*
X0066186Y0038031D01*
X0066676Y0038129D01*
X0067767Y0038860D01*
X0068495Y0039952D01*
X0068750Y0041240D01*
X0068492Y0042527D01*
X0067762Y0043618D01*
X0067665Y0043683D01*
X0131055Y0043683D01*
X0150693Y0024045D01*
X0152090Y0022647D01*
X0153916Y0021891D01*
X0168692Y0021891D01*
X0168768Y0021859D01*
X0170758Y0021859D01*
X0172595Y0022620D01*
X0174002Y0024027D01*
X0174763Y0025864D01*
X0174763Y0027854D01*
X0174002Y0029691D01*
X0172595Y0031098D01*
X0170758Y0031859D01*
X0168768Y0031859D01*
X0168692Y0031828D01*
X0156963Y0031828D01*
X0152041Y0036749D01*
X0184046Y0036749D01*
X0184122Y0036717D01*
X0186111Y0036717D01*
X0187949Y0037479D01*
X0189355Y0038885D01*
X0190117Y0040723D01*
X0190117Y0042712D01*
X0189355Y0044550D01*
X0187949Y0045956D01*
X0186111Y0046717D01*
X0184122Y0046717D01*
X0184046Y0046686D01*
X0149637Y0046686D01*
X0149568Y0046789D01*
X0149472Y0046853D01*
X0149472Y0055013D01*
X0152271Y0057812D01*
X0153669Y0059209D01*
X0154425Y0061035D01*
X0154425Y0087280D01*
X0153823Y0088735D01*
X0165080Y0077478D01*
X0164748Y0077146D01*
X0163929Y0075170D01*
X0163929Y0073030D01*
X0164748Y0071054D01*
X0166261Y0069541D01*
X0167325Y0069100D01*
X0166261Y0068659D01*
X0164748Y0067146D01*
X0163929Y0065170D01*
X0163929Y0063030D01*
X0164748Y0061054D01*
X0166261Y0059541D01*
X0168237Y0058722D01*
X0175133Y0058722D01*
X0177109Y0059541D01*
X0178622Y0061054D01*
X0179441Y0063030D01*
X0179441Y0065170D01*
X0178622Y0067146D01*
X0177109Y0068659D01*
X0176045Y0069100D01*
X0177109Y0069541D01*
X0178035Y0070466D01*
X0190022Y0058479D01*
X0190022Y0056572D01*
X0190783Y0054734D01*
X0192190Y0053327D01*
X0194027Y0052566D01*
X0196017Y0052566D01*
X0197854Y0053327D01*
X0199261Y0054734D01*
X0200022Y0056572D01*
X0200022Y0058561D01*
X0199261Y0060398D01*
X0198739Y0060920D01*
X0198765Y0060909D01*
X0221518Y0060909D01*
X0181648Y0021039D01*
X0146499Y0021039D01*
X0145850Y0021688D01*
X0144013Y0022449D01*
X0142024Y0022449D01*
X0140186Y0021688D01*
X0138779Y0020281D01*
X0138018Y0018443D01*
X0138018Y0016454D01*
X0138779Y0014617D01*
X0140186Y0013210D01*
X0142024Y0012449D01*
X0144013Y0012449D01*
X0145850Y0013210D01*
X0146499Y0013858D01*
X0183850Y0013858D01*
X0185169Y0014405D01*
X0194521Y0023756D01*
X0195161Y0023116D01*
X0196999Y0022354D01*
X0198988Y0022354D01*
X0200826Y0023116D01*
X0201474Y0023764D01*
X0244273Y0023764D01*
X0245593Y0024310D01*
X0284745Y0063462D01*
X0285661Y0063462D01*
X0287499Y0064223D01*
X0288906Y0065630D01*
X0289667Y0067468D01*
X0289667Y0068339D01*
X0298963Y0068339D01*
X0300261Y0067041D01*
X0302237Y0066222D01*
X0309133Y0066222D01*
X0311109Y0067041D01*
X0312622Y0068554D01*
X0313441Y0070530D01*
X0313441Y0072670D01*
X0312622Y0074646D01*
X0311109Y0076159D01*
X0310045Y0076600D01*
X0311109Y0077041D01*
X0312622Y0078554D01*
X0313441Y0080530D01*
X0313441Y0082670D01*
X0312622Y0084646D01*
X0311109Y0086159D01*
X0310045Y0086600D01*
X0311109Y0087041D01*
X0312622Y0088554D01*
X0313441Y0090530D01*
X0313441Y0092670D01*
X0312622Y0094646D01*
X0311109Y0096159D01*
X0309133Y0096978D01*
X0302237Y0096978D01*
X0300261Y0096159D01*
X0298748Y0094646D01*
X0297929Y0092670D01*
X0297929Y0090530D01*
X0298748Y0088554D01*
X0300261Y0087041D01*
X0301325Y0086600D01*
X0300261Y0086159D01*
X0299031Y0084930D01*
X0280981Y0084930D01*
X0279661Y0084383D01*
X0278651Y0083373D01*
X0267338Y0072060D01*
X0267193Y0072206D01*
X0265355Y0072967D01*
X0263366Y0072967D01*
X0261528Y0072206D01*
X0260880Y0071557D01*
X0216816Y0071557D01*
X0205476Y0082897D01*
X0204156Y0083444D01*
X0201474Y0083444D01*
X0200826Y0084092D01*
X0198988Y0084854D01*
X0196999Y0084854D01*
X0195161Y0084092D01*
X0193755Y0082686D01*
X0192994Y0080848D01*
X0192994Y0078859D01*
X0193755Y0077021D01*
X0195161Y0075615D01*
X0196999Y0074854D01*
X0198988Y0074854D01*
X0200826Y0075615D01*
X0201474Y0076263D01*
X0201954Y0076263D01*
X0210127Y0068091D01*
X0200967Y0068091D01*
X0177289Y0091768D01*
X0177588Y0092216D01*
X0177888Y0092940D01*
X0178041Y0093708D01*
X0178041Y0094011D01*
X0171774Y0094011D01*
X0171774Y0094189D01*
X0171596Y0094189D01*
X0171596Y0098078D01*
X0168915Y0098078D01*
X0168147Y0097925D01*
X0167423Y0097625D01*
X0166771Y0097190D01*
X0166348Y0096766D01*
X0151561Y0111553D01*
X0151561Y0118704D01*
X0151015Y0120024D01*
X0149021Y0122017D01*
X0149441Y0123030D01*
X0149441Y0125170D01*
X0148622Y0127146D01*
X0147109Y0128659D01*
X0145133Y0129478D01*
X0139072Y0129478D01*
X0139072Y0225883D01*
X0200448Y0287259D01*
X0201105Y0286602D01*
X0201181Y0286571D01*
X0223608Y0264143D01*
X0222258Y0264143D01*
X0220420Y0263382D01*
X0219014Y0261976D01*
X0218253Y0260138D01*
X0218253Y0258149D01*
X0219014Y0256311D01*
X0220420Y0254905D01*
X0222258Y0254143D01*
X0224247Y0254143D01*
X0224323Y0254175D01*
X0255800Y0254175D01*
X0214266Y0212640D01*
X0213719Y0211320D01*
X0213719Y0106486D01*
X0213005Y0107200D01*
X0208365Y0107200D01*
X0205085Y0103920D01*
X0205085Y0099280D01*
X0207765Y0096600D01*
X0205685Y0094520D01*
X0203005Y0097200D01*
X0198365Y0097200D01*
X0195085Y0093920D01*
X0195085Y0089280D01*
X0198365Y0086000D01*
X0203005Y0086000D01*
X0205685Y0088680D01*
X0208365Y0086000D01*
X0213005Y0086000D01*
X0216285Y0089280D01*
X0216285Y0093191D01*
X0216315Y0093179D01*
X0218304Y0093179D01*
X0220142Y0093940D01*
X0221548Y0095346D01*
X0222309Y0097184D01*
X0222309Y0099173D01*
X0221548Y0101011D01*
X0220900Y0101659D01*
X0220900Y0209119D01*
X0267385Y0255604D01*
X0268395Y0256614D01*
X0268942Y0257934D01*
X0268942Y0266791D01*
X0268395Y0268111D01*
X0217877Y0318629D01*
X0216867Y0319639D01*
X0215547Y0320186D01*
X0206969Y0320186D01*
X0207031Y0320338D01*
X0207031Y0322862D01*
X0206065Y0325195D01*
X0204280Y0326980D01*
X0201947Y0327946D01*
X0199423Y0327946D01*
X0199108Y0327816D01*
X0199108Y0367052D01*
X0199375Y0366407D01*
X0201260Y0364522D01*
X0203722Y0363502D01*
X0206388Y0363502D01*
X0208850Y0364522D01*
X0210055Y0365727D01*
X0211260Y0364522D01*
X0213722Y0363502D01*
X0216388Y0363502D01*
X0218850Y0364522D01*
X0220055Y0365727D01*
X0221260Y0364522D01*
X0223722Y0363502D01*
X0226388Y0363502D01*
X0228850Y0364522D01*
X0230055Y0365727D01*
X0231260Y0364522D01*
X0233722Y0363502D01*
X0236388Y0363502D01*
X0238320Y0364303D01*
X0272213Y0330410D01*
X0273223Y0329400D01*
X0274542Y0328854D01*
X0279993Y0328854D01*
X0279908Y0328768D01*
X0278301Y0328768D01*
X0275839Y0327748D01*
X0273954Y0325864D01*
X0272934Y0323401D01*
X0272934Y0320736D01*
X0273954Y0318273D01*
X0275839Y0316389D01*
X0278301Y0315369D01*
X0279395Y0315369D01*
X0279334Y0314986D01*
X0279334Y0314769D01*
X0284434Y0314769D01*
X0284434Y0314368D01*
X0284834Y0314368D01*
X0284834Y0309269D01*
X0285051Y0309269D01*
X0285875Y0309399D01*
X0286668Y0309657D01*
X0287412Y0310036D01*
X0288087Y0310526D01*
X0288676Y0311116D01*
X0289167Y0311791D01*
X0289546Y0312534D01*
X0289803Y0313327D01*
X0289934Y0314151D01*
X0289934Y0314368D01*
X0284834Y0314368D01*
X0284834Y0314769D01*
X0289934Y0314769D01*
X0289934Y0314986D01*
X0289873Y0315369D01*
X0290967Y0315369D01*
X0293429Y0316389D01*
X0295314Y0318273D01*
X0296334Y0320736D01*
X0296334Y0323401D01*
X0296082Y0324009D01*
X0315327Y0324009D01*
X0315327Y0322039D01*
X0316088Y0320202D01*
X0316736Y0319553D01*
X0316736Y0162578D01*
X0316088Y0161930D01*
X0315327Y0160092D01*
X0315327Y0158103D01*
X0316088Y0156265D01*
X0316729Y0155625D01*
X0266340Y0105236D01*
X0259968Y0105236D01*
X0258005Y0107200D01*
X0253365Y0107200D01*
X0250906Y0104741D01*
X0248788Y0104741D01*
X0247468Y0104194D01*
X0246458Y0103184D01*
X0233080Y0089806D01*
X0232164Y0089806D01*
X0230326Y0089045D01*
X0228919Y0087639D01*
X0228158Y0085801D01*
X0228158Y0083812D01*
X0228919Y0081974D01*
X0230326Y0080568D01*
X0232164Y0079806D01*
X0234153Y0079806D01*
X0235991Y0080568D01*
X0237397Y0081974D01*
X0238158Y0083812D01*
X0238158Y0084728D01*
X0242388Y0088958D01*
X0243945Y0087400D01*
X0245485Y0087400D01*
X0245485Y0091400D01*
X0245885Y0091400D01*
X0245885Y0087400D01*
X0247425Y0087400D01*
X0249885Y0089860D01*
X0249885Y0091400D01*
X0245885Y0091400D01*
X0245885Y0091800D01*
X0249885Y0091800D01*
X0249885Y0093340D01*
X0248327Y0094897D01*
X0250990Y0097560D01*
X0251806Y0097560D01*
X0252765Y0096600D01*
X0250085Y0093920D01*
X0250085Y0089280D01*
X0253365Y0086000D01*
X0258005Y0086000D01*
X0261285Y0089280D01*
X0261285Y0093920D01*
X0258605Y0096600D01*
X0260060Y0098055D01*
X0268542Y0098055D01*
X0269861Y0098602D01*
X0270871Y0099612D01*
X0330305Y0159045D01*
X0330851Y0160365D01*
X0330851Y0187327D01*
X0359233Y0215709D01*
X0363041Y0215709D01*
X0364254Y0216211D01*
X0365183Y0217140D01*
X0365685Y0218353D01*
X0365685Y0219665D01*
X0365183Y0220878D01*
X0364917Y0221144D01*
X0365183Y0221410D01*
X0365358Y0221834D01*
X0374809Y0231285D01*
X0374809Y0227783D01*
X0374918Y0227376D01*
X0375129Y0227011D01*
X0375427Y0226713D01*
X0375792Y0226503D01*
X0376199Y0226394D01*
X0379809Y0226394D01*
X0379809Y0231394D01*
X0381009Y0231394D01*
X0381009Y0226394D01*
X0384589Y0226394D01*
X0384589Y0207399D01*
X0384375Y0207613D01*
X0381802Y0208679D01*
X0379017Y0208679D01*
X0376444Y0207613D01*
X0374475Y0205644D01*
X0373409Y0203071D01*
X0373409Y0200286D01*
X0374475Y0197714D01*
X0376444Y0195744D01*
X0379017Y0194679D01*
X0381802Y0194679D01*
X0384375Y0195744D01*
X0384589Y0195959D01*
X0384589Y0187594D01*
X0381009Y0187594D01*
X0381009Y0182594D01*
X0379809Y0182594D01*
X0379809Y0181394D01*
X0374809Y0181394D01*
X0374809Y0177783D01*
X0374918Y0177376D01*
X0375129Y0177011D01*
X0375427Y0176713D01*
X0375792Y0176503D01*
X0376199Y0176394D01*
X0379809Y0176394D01*
X0379809Y0181394D01*
X0381009Y0181394D01*
X0381009Y0176394D01*
X0384589Y0176394D01*
X0384589Y0162566D01*
X0381732Y0159709D01*
X0381369Y0159860D01*
X0378584Y0159860D01*
X0376011Y0158794D01*
X0374042Y0156825D01*
X0372976Y0154252D01*
X0372976Y0151467D01*
X0374042Y0148895D01*
X0376011Y0146926D01*
X0378584Y0145860D01*
X0381369Y0145860D01*
X0383942Y0146926D01*
X0385911Y0148895D01*
X0386976Y0151467D01*
X0386976Y0154252D01*
X0386817Y0154638D01*
X0391201Y0159022D01*
X0391201Y0007116D01*
X0390685Y0006600D01*
X0386111Y0006600D01*
X0386873Y0007362D01*
X0387780Y0009550D01*
X0387780Y0011918D01*
X0386873Y0014106D01*
X0385199Y0015780D01*
X0383011Y0016687D01*
X0380643Y0016687D01*
X0378455Y0015780D01*
X0376780Y0014106D01*
X0375874Y0011918D01*
X0375874Y0009550D01*
X0376780Y0007362D01*
X0377542Y0006600D01*
X0052529Y0006600D01*
X0053291Y0007362D01*
X0054197Y0009550D01*
X0054197Y0011918D01*
X0053291Y0014106D01*
X0051616Y0015780D01*
X0049428Y0016687D01*
X0047060Y0016687D01*
X0044872Y0015780D01*
X0043870Y0014778D01*
X0043870Y0014784D02*
X0043875Y0014784D01*
X0043870Y0015982D02*
X0045359Y0015982D01*
X0043870Y0017181D02*
X0138018Y0017181D01*
X0138018Y0018379D02*
X0043870Y0018379D01*
X0043870Y0019578D02*
X0057703Y0019578D01*
X0056504Y0020776D02*
X0043870Y0020776D01*
X0043870Y0021975D02*
X0055819Y0021975D01*
X0055680Y0023173D02*
X0043870Y0023173D01*
X0043870Y0024372D02*
X0046655Y0024372D01*
X0045425Y0025570D02*
X0043870Y0025570D01*
X0043870Y0026769D02*
X0044700Y0026769D01*
X0044203Y0027967D02*
X0043870Y0027967D01*
X0043870Y0029166D02*
X0044185Y0029166D01*
X0044241Y0030364D02*
X0043870Y0030364D01*
X0043870Y0031563D02*
X0044738Y0031563D01*
X0045517Y0032761D02*
X0043870Y0032761D01*
X0043870Y0033960D02*
X0046877Y0033960D01*
X0045680Y0035158D02*
X0043870Y0035158D01*
X0043870Y0036357D02*
X0044805Y0036357D01*
X0044308Y0037555D02*
X0043870Y0037555D01*
X0043870Y0038754D02*
X0044185Y0038754D01*
X0044185Y0039952D02*
X0043870Y0039952D01*
X0043870Y0041151D02*
X0044632Y0041151D01*
X0045263Y0042349D02*
X0043870Y0042349D01*
X0043870Y0043548D02*
X0046462Y0043548D01*
X0045934Y0044746D02*
X0043870Y0044746D01*
X0043870Y0045945D02*
X0044910Y0045945D01*
X0044414Y0047143D02*
X0043870Y0047143D01*
X0043870Y0048342D02*
X0044185Y0048342D01*
X0044185Y0049540D02*
X0043870Y0049540D01*
X0043870Y0050739D02*
X0044527Y0050739D01*
X0045023Y0051937D02*
X0043870Y0051937D01*
X0043870Y0053136D02*
X0046207Y0053136D01*
X0048542Y0054334D02*
X0043870Y0054334D01*
X0043870Y0055533D02*
X0055949Y0055533D01*
X0056098Y0056732D02*
X0043870Y0056732D01*
X0043870Y0057930D02*
X0055680Y0057930D01*
X0055710Y0059129D02*
X0043870Y0059129D01*
X0043870Y0060327D02*
X0056242Y0060327D01*
X0057907Y0061526D02*
X0043870Y0061526D01*
X0043870Y0062724D02*
X0060680Y0062724D01*
X0060680Y0063923D02*
X0043870Y0063923D01*
X0043870Y0065121D02*
X0060680Y0065121D01*
X0060912Y0066320D02*
X0043870Y0066320D01*
X0043870Y0067518D02*
X0052022Y0067518D01*
X0050047Y0068717D02*
X0043870Y0068717D01*
X0043870Y0069915D02*
X0048848Y0069915D01*
X0048281Y0071114D02*
X0043870Y0071114D01*
X0043870Y0072312D02*
X0047784Y0072312D01*
X0047661Y0073511D02*
X0043870Y0073511D01*
X0043870Y0074709D02*
X0047661Y0074709D01*
X0047874Y0075908D02*
X0043870Y0075908D01*
X0043870Y0077106D02*
X0048371Y0077106D01*
X0049065Y0078305D02*
X0043870Y0078305D01*
X0043870Y0079503D02*
X0050264Y0079503D01*
X0052545Y0080702D02*
X0043870Y0080702D01*
X0043870Y0081900D02*
X0060680Y0081900D01*
X0060680Y0080702D02*
X0056778Y0080702D01*
X0059059Y0079503D02*
X0061033Y0079503D01*
X0060680Y0078305D02*
X0060258Y0078305D01*
X0060680Y0083099D02*
X0043870Y0083099D01*
X0043870Y0084297D02*
X0060680Y0084297D01*
X0060680Y0085496D02*
X0043870Y0085496D01*
X0043870Y0086694D02*
X0060817Y0086694D01*
X0060680Y0087893D02*
X0043870Y0087893D01*
X0043870Y0089091D02*
X0049164Y0089091D01*
X0049170Y0089069D02*
X0049381Y0088704D01*
X0049679Y0088406D01*
X0050044Y0088196D01*
X0050451Y0088087D01*
X0054061Y0088087D01*
X0054061Y0093087D01*
X0049061Y0093087D01*
X0049061Y0089476D01*
X0049170Y0089069D01*
X0049061Y0090290D02*
X0043870Y0090290D01*
X0043870Y0091488D02*
X0049061Y0091488D01*
X0049061Y0092687D02*
X0043870Y0092687D01*
X0043870Y0093885D02*
X0054061Y0093885D01*
X0054061Y0094287D02*
X0054061Y0093087D01*
X0055261Y0093087D01*
X0055261Y0088087D01*
X0058872Y0088087D01*
X0059279Y0088196D01*
X0059644Y0088406D01*
X0059942Y0088704D01*
X0060152Y0089069D01*
X0060261Y0089476D01*
X0060261Y0093087D01*
X0055261Y0093087D01*
X0055261Y0094287D01*
X0054061Y0094287D01*
X0049061Y0094287D01*
X0049061Y0097897D01*
X0049170Y0098304D01*
X0049381Y0098669D01*
X0049679Y0098967D01*
X0050044Y0099178D01*
X0050451Y0099287D01*
X0054061Y0099287D01*
X0054061Y0094287D01*
X0054061Y0095084D02*
X0055261Y0095084D01*
X0055261Y0094287D02*
X0055261Y0099287D01*
X0058872Y0099287D01*
X0059279Y0099178D01*
X0059644Y0098967D01*
X0059942Y0098669D01*
X0060152Y0098304D01*
X0060261Y0097897D01*
X0060261Y0094287D01*
X0055261Y0094287D01*
X0055261Y0093885D02*
X0060680Y0093885D01*
X0060712Y0092687D02*
X0060261Y0092687D01*
X0060261Y0091488D02*
X0060680Y0091488D01*
X0060680Y0090290D02*
X0060261Y0090290D01*
X0060158Y0089091D02*
X0060680Y0089091D01*
X0055261Y0089091D02*
X0054061Y0089091D01*
X0054061Y0090290D02*
X0055261Y0090290D01*
X0055261Y0091488D02*
X0054061Y0091488D01*
X0054061Y0092687D02*
X0055261Y0092687D01*
X0055261Y0096282D02*
X0054061Y0096282D01*
X0054061Y0097481D02*
X0055261Y0097481D01*
X0055261Y0098679D02*
X0054061Y0098679D01*
X0049391Y0098679D02*
X0043870Y0098679D01*
X0043870Y0097481D02*
X0049061Y0097481D01*
X0049061Y0096282D02*
X0043870Y0096282D01*
X0043870Y0095084D02*
X0049061Y0095084D01*
X0043870Y0099878D02*
X0060696Y0099878D01*
X0060680Y0101076D02*
X0043870Y0101076D01*
X0043870Y0102275D02*
X0060680Y0102275D01*
X0060680Y0103473D02*
X0043870Y0103473D01*
X0043870Y0104672D02*
X0060779Y0104672D01*
X0061407Y0105870D02*
X0043870Y0105870D01*
X0043870Y0107069D02*
X0062606Y0107069D01*
X0060680Y0098679D02*
X0059931Y0098679D01*
X0060261Y0097481D02*
X0060787Y0097481D01*
X0060261Y0096282D02*
X0061428Y0096282D01*
X0060804Y0095084D02*
X0060261Y0095084D01*
X0073414Y0093885D02*
X0127297Y0093885D01*
X0127046Y0095084D02*
X0073685Y0095084D01*
X0073685Y0096282D02*
X0127046Y0096282D01*
X0127046Y0097481D02*
X0073685Y0097481D01*
X0073398Y0098679D02*
X0127046Y0098679D01*
X0127046Y0099878D02*
X0073669Y0099878D01*
X0073685Y0101076D02*
X0127046Y0101076D01*
X0127046Y0102275D02*
X0073252Y0102275D01*
X0073390Y0103473D02*
X0127046Y0103473D01*
X0127046Y0104672D02*
X0073685Y0104672D01*
X0073531Y0105870D02*
X0127046Y0105870D01*
X0127046Y0107069D02*
X0072826Y0107069D01*
X0073653Y0092687D02*
X0128079Y0092687D01*
X0129277Y0091488D02*
X0073685Y0091488D01*
X0073685Y0090290D02*
X0130476Y0090290D01*
X0131674Y0089091D02*
X0073685Y0089091D01*
X0073685Y0087893D02*
X0132873Y0087893D01*
X0134071Y0086694D02*
X0073548Y0086694D01*
X0072928Y0085496D02*
X0134064Y0085496D01*
X0133929Y0084297D02*
X0073574Y0084297D01*
X0073685Y0083099D02*
X0133929Y0083099D01*
X0134397Y0081900D02*
X0073347Y0081900D01*
X0072382Y0080702D02*
X0135100Y0080702D01*
X0136351Y0079503D02*
X0071197Y0079503D01*
X0071550Y0078305D02*
X0135906Y0078305D01*
X0134731Y0077106D02*
X0072737Y0077106D01*
X0073494Y0075908D02*
X0134235Y0075908D01*
X0133929Y0074709D02*
X0073685Y0074709D01*
X0073586Y0073511D02*
X0133929Y0073511D01*
X0134227Y0072312D02*
X0073685Y0072312D01*
X0073335Y0071114D02*
X0134723Y0071114D01*
X0135886Y0069915D02*
X0073307Y0069915D01*
X0073685Y0068717D02*
X0136399Y0068717D01*
X0135120Y0067518D02*
X0073614Y0067518D01*
X0073453Y0066320D02*
X0134405Y0066320D01*
X0133929Y0065121D02*
X0073685Y0065121D01*
X0073685Y0063923D02*
X0133929Y0063923D01*
X0134056Y0062724D02*
X0073685Y0062724D01*
X0073360Y0061526D02*
X0134552Y0061526D01*
X0135474Y0060327D02*
X0072411Y0060327D01*
X0071213Y0059129D02*
X0137256Y0059129D01*
X0139535Y0057930D02*
X0068685Y0057930D01*
X0068267Y0056732D02*
X0139535Y0056732D01*
X0139535Y0055533D02*
X0068375Y0055533D01*
X0068685Y0054334D02*
X0139535Y0054334D01*
X0139535Y0053136D02*
X0135269Y0053136D01*
X0136853Y0051937D02*
X0139535Y0051937D01*
X0139535Y0050739D02*
X0138051Y0050739D01*
X0139250Y0049540D02*
X0139535Y0049540D01*
X0132388Y0042349D02*
X0068528Y0042349D01*
X0068732Y0041151D02*
X0133586Y0041151D01*
X0134785Y0039952D02*
X0068495Y0039952D01*
X0067608Y0038754D02*
X0135983Y0038754D01*
X0137182Y0037555D02*
X0067288Y0037555D01*
X0068308Y0036357D02*
X0138380Y0036357D01*
X0139579Y0035158D02*
X0068685Y0035158D01*
X0068613Y0033960D02*
X0140777Y0033960D01*
X0141976Y0032761D02*
X0068022Y0032761D01*
X0066241Y0031563D02*
X0143174Y0031563D01*
X0144373Y0030364D02*
X0068033Y0030364D01*
X0068617Y0029166D02*
X0145571Y0029166D01*
X0146770Y0027967D02*
X0068685Y0027967D01*
X0068304Y0026769D02*
X0147969Y0026769D01*
X0149167Y0025570D02*
X0068685Y0025570D01*
X0068685Y0024372D02*
X0150366Y0024372D01*
X0151564Y0023173D02*
X0068685Y0023173D01*
X0068546Y0021975D02*
X0140879Y0021975D01*
X0139274Y0020776D02*
X0067861Y0020776D01*
X0066662Y0019578D02*
X0138488Y0019578D01*
X0138214Y0015982D02*
X0051129Y0015982D01*
X0052613Y0014784D02*
X0138710Y0014784D01*
X0139811Y0013585D02*
X0053506Y0013585D01*
X0054003Y0012387D02*
X0200906Y0012387D01*
X0200114Y0012715D02*
X0201952Y0011954D01*
X0203941Y0011954D01*
X0204017Y0011985D01*
X0269811Y0011985D01*
X0271788Y0011985D01*
X0273614Y0012741D01*
X0329087Y0068215D01*
X0330261Y0067041D01*
X0331325Y0066600D01*
X0330261Y0066159D01*
X0328748Y0064646D01*
X0327929Y0062670D01*
X0327929Y0060530D01*
X0328748Y0058554D01*
X0330261Y0057041D01*
X0332237Y0056222D01*
X0339133Y0056222D01*
X0341109Y0057041D01*
X0342622Y0058554D01*
X0343441Y0060530D01*
X0343441Y0062670D01*
X0342622Y0064646D01*
X0341109Y0066159D01*
X0340045Y0066600D01*
X0341109Y0067041D01*
X0342622Y0068554D01*
X0343441Y0070530D01*
X0343441Y0072670D01*
X0342622Y0074646D01*
X0341109Y0076159D01*
X0340045Y0076600D01*
X0341109Y0077041D01*
X0342622Y0078554D01*
X0343441Y0080530D01*
X0343441Y0082670D01*
X0342622Y0084646D01*
X0341109Y0086159D01*
X0340045Y0086600D01*
X0341109Y0087041D01*
X0342622Y0088554D01*
X0343441Y0090530D01*
X0343441Y0092670D01*
X0342622Y0094646D01*
X0341109Y0096159D01*
X0339133Y0096978D01*
X0332237Y0096978D01*
X0330261Y0096159D01*
X0328748Y0094646D01*
X0327929Y0092670D01*
X0327929Y0091015D01*
X0323544Y0086630D01*
X0322787Y0084804D01*
X0322787Y0075968D01*
X0311054Y0064235D01*
X0310599Y0064690D01*
X0309947Y0065125D01*
X0309223Y0065425D01*
X0308455Y0065578D01*
X0305774Y0065578D01*
X0305774Y0061689D01*
X0305596Y0061689D01*
X0305596Y0061511D01*
X0299329Y0061511D01*
X0299329Y0061208D01*
X0299482Y0060440D01*
X0299782Y0059716D01*
X0300217Y0059064D01*
X0300771Y0058510D01*
X0301423Y0058075D01*
X0302147Y0057775D01*
X0302915Y0057622D01*
X0304441Y0057622D01*
X0268741Y0021922D01*
X0204017Y0021922D01*
X0203941Y0021954D01*
X0201952Y0021954D01*
X0200114Y0021192D01*
X0198708Y0019786D01*
X0197946Y0017948D01*
X0197946Y0015959D01*
X0198708Y0014121D01*
X0200114Y0012715D01*
X0199244Y0013585D02*
X0146225Y0013585D01*
X0145157Y0021975D02*
X0153713Y0021975D01*
X0156029Y0032761D02*
X0193370Y0032761D01*
X0192172Y0031563D02*
X0171473Y0031563D01*
X0173329Y0030364D02*
X0190973Y0030364D01*
X0189775Y0029166D02*
X0174219Y0029166D01*
X0174716Y0027967D02*
X0188576Y0027967D01*
X0187378Y0026769D02*
X0174763Y0026769D01*
X0174641Y0025570D02*
X0186179Y0025570D01*
X0184981Y0024372D02*
X0174145Y0024372D01*
X0173148Y0023173D02*
X0183782Y0023173D01*
X0182584Y0021975D02*
X0171037Y0021975D01*
X0185548Y0014784D02*
X0198433Y0014784D01*
X0197946Y0015982D02*
X0186747Y0015982D01*
X0187945Y0017181D02*
X0197946Y0017181D01*
X0198125Y0018379D02*
X0189144Y0018379D01*
X0190342Y0019578D02*
X0198621Y0019578D01*
X0199698Y0020776D02*
X0191541Y0020776D01*
X0192739Y0021975D02*
X0268794Y0021975D01*
X0269992Y0023173D02*
X0200884Y0023173D01*
X0201709Y0030945D02*
X0228207Y0057443D01*
X0237107Y0057443D01*
X0237755Y0056794D01*
X0239593Y0056033D01*
X0241582Y0056033D01*
X0243420Y0056794D01*
X0244826Y0058201D01*
X0245587Y0060038D01*
X0245587Y0060909D01*
X0268542Y0060909D01*
X0269861Y0061456D01*
X0270871Y0062466D01*
X0276744Y0068339D01*
X0279466Y0068339D01*
X0242072Y0030945D01*
X0201709Y0030945D01*
X0202327Y0031563D02*
X0242690Y0031563D01*
X0243888Y0032761D02*
X0203526Y0032761D01*
X0204724Y0033960D02*
X0245087Y0033960D01*
X0246285Y0035158D02*
X0205923Y0035158D01*
X0207121Y0036357D02*
X0247484Y0036357D01*
X0248682Y0037555D02*
X0208320Y0037555D01*
X0209518Y0038754D02*
X0249881Y0038754D01*
X0251079Y0039952D02*
X0210717Y0039952D01*
X0211915Y0041151D02*
X0252278Y0041151D01*
X0253476Y0042349D02*
X0213114Y0042349D01*
X0214312Y0043548D02*
X0254675Y0043548D01*
X0255873Y0044746D02*
X0215511Y0044746D01*
X0216709Y0045945D02*
X0257072Y0045945D01*
X0258270Y0047143D02*
X0217908Y0047143D01*
X0219106Y0048342D02*
X0259469Y0048342D01*
X0260667Y0049540D02*
X0220305Y0049540D01*
X0221503Y0050739D02*
X0261866Y0050739D01*
X0263064Y0051937D02*
X0222702Y0051937D01*
X0223900Y0053136D02*
X0264263Y0053136D01*
X0265461Y0054334D02*
X0225099Y0054334D01*
X0226297Y0055533D02*
X0266660Y0055533D01*
X0267858Y0056732D02*
X0243268Y0056732D01*
X0244555Y0057930D02*
X0269057Y0057930D01*
X0270255Y0059129D02*
X0245210Y0059129D01*
X0245587Y0060327D02*
X0271454Y0060327D01*
X0272652Y0061526D02*
X0269931Y0061526D01*
X0271129Y0062724D02*
X0273851Y0062724D01*
X0275050Y0063923D02*
X0272328Y0063923D01*
X0273526Y0065121D02*
X0276248Y0065121D01*
X0277447Y0066320D02*
X0274725Y0066320D01*
X0275923Y0067518D02*
X0278645Y0067518D01*
X0282808Y0061526D02*
X0305596Y0061526D01*
X0305596Y0061689D02*
X0299329Y0061689D01*
X0299329Y0061992D01*
X0299482Y0062760D01*
X0299782Y0063484D01*
X0300217Y0064136D01*
X0300771Y0064690D01*
X0301423Y0065125D01*
X0302147Y0065425D01*
X0302915Y0065578D01*
X0305596Y0065578D01*
X0305596Y0061689D01*
X0305596Y0062724D02*
X0305774Y0062724D01*
X0305774Y0063923D02*
X0305596Y0063923D01*
X0305596Y0065121D02*
X0305774Y0065121D01*
X0309368Y0066320D02*
X0313139Y0066320D01*
X0314337Y0067518D02*
X0311587Y0067518D01*
X0312690Y0068717D02*
X0315536Y0068717D01*
X0316734Y0069915D02*
X0313186Y0069915D01*
X0313441Y0071114D02*
X0317933Y0071114D01*
X0319131Y0072312D02*
X0313441Y0072312D01*
X0313093Y0073511D02*
X0320330Y0073511D01*
X0321528Y0074709D02*
X0312559Y0074709D01*
X0311361Y0075908D02*
X0322727Y0075908D01*
X0322787Y0077106D02*
X0311175Y0077106D01*
X0312373Y0078305D02*
X0322787Y0078305D01*
X0322787Y0079503D02*
X0313016Y0079503D01*
X0313441Y0080702D02*
X0322787Y0080702D01*
X0322787Y0081900D02*
X0313441Y0081900D01*
X0313263Y0083099D02*
X0322787Y0083099D01*
X0322787Y0084297D02*
X0312767Y0084297D01*
X0311773Y0085496D02*
X0323074Y0085496D01*
X0323608Y0086694D02*
X0310273Y0086694D01*
X0311961Y0087893D02*
X0324806Y0087893D01*
X0326005Y0089091D02*
X0312845Y0089091D01*
X0313341Y0090290D02*
X0327203Y0090290D01*
X0327929Y0091488D02*
X0313441Y0091488D01*
X0313434Y0092687D02*
X0327936Y0092687D01*
X0328433Y0093885D02*
X0312937Y0093885D01*
X0312185Y0095084D02*
X0329185Y0095084D01*
X0330558Y0096282D02*
X0310812Y0096282D01*
X0301097Y0086694D02*
X0258699Y0086694D01*
X0259897Y0087893D02*
X0299409Y0087893D01*
X0298525Y0089091D02*
X0261096Y0089091D01*
X0261285Y0090290D02*
X0298029Y0090290D01*
X0297929Y0091488D02*
X0261285Y0091488D01*
X0261285Y0092687D02*
X0297936Y0092687D01*
X0298433Y0093885D02*
X0261285Y0093885D01*
X0260121Y0095084D02*
X0299185Y0095084D01*
X0300558Y0096282D02*
X0258922Y0096282D01*
X0259486Y0097481D02*
X0375456Y0097481D01*
X0376011Y0096926D02*
X0378584Y0095860D01*
X0381369Y0095860D01*
X0383942Y0096926D01*
X0385911Y0098895D01*
X0386976Y0101467D01*
X0386976Y0104252D01*
X0385911Y0106825D01*
X0383942Y0108794D01*
X0381369Y0109860D01*
X0378584Y0109860D01*
X0376011Y0108794D01*
X0374042Y0106825D01*
X0372976Y0104252D01*
X0372976Y0101467D01*
X0374042Y0098895D01*
X0376011Y0096926D01*
X0377564Y0096282D02*
X0340812Y0096282D01*
X0342185Y0095084D02*
X0391201Y0095084D01*
X0391201Y0096282D02*
X0382389Y0096282D01*
X0384497Y0097481D02*
X0391201Y0097481D01*
X0391201Y0098679D02*
X0385695Y0098679D01*
X0386318Y0099878D02*
X0391201Y0099878D01*
X0391201Y0101076D02*
X0386814Y0101076D01*
X0386976Y0102275D02*
X0391201Y0102275D01*
X0391201Y0103473D02*
X0386976Y0103473D01*
X0386803Y0104672D02*
X0391201Y0104672D01*
X0391201Y0105870D02*
X0386306Y0105870D01*
X0385667Y0107069D02*
X0391201Y0107069D01*
X0391201Y0108268D02*
X0384468Y0108268D01*
X0382320Y0109466D02*
X0391201Y0109466D01*
X0391201Y0110665D02*
X0281924Y0110665D01*
X0283123Y0111863D02*
X0391201Y0111863D01*
X0391201Y0113062D02*
X0284321Y0113062D01*
X0285520Y0114260D02*
X0391201Y0114260D01*
X0391201Y0115459D02*
X0286718Y0115459D01*
X0287917Y0116657D02*
X0391201Y0116657D01*
X0391201Y0117856D02*
X0289115Y0117856D01*
X0290314Y0119054D02*
X0391201Y0119054D01*
X0391201Y0120253D02*
X0291512Y0120253D01*
X0292711Y0121451D02*
X0391201Y0121451D01*
X0391201Y0122650D02*
X0364237Y0122650D01*
X0364254Y0122657D02*
X0365183Y0123585D01*
X0365685Y0124798D01*
X0365685Y0130381D01*
X0365183Y0131594D01*
X0364254Y0132522D01*
X0363041Y0133025D01*
X0361729Y0133025D01*
X0360516Y0132522D01*
X0359587Y0131594D01*
X0359296Y0130890D01*
X0355323Y0130890D01*
X0354110Y0130387D01*
X0353182Y0129459D01*
X0352680Y0128246D01*
X0352680Y0126933D01*
X0353182Y0125720D01*
X0354110Y0124792D01*
X0356245Y0122657D01*
X0357458Y0122155D01*
X0358771Y0122155D01*
X0359984Y0122657D01*
X0360250Y0122923D01*
X0360516Y0122657D01*
X0361729Y0122155D01*
X0363041Y0122155D01*
X0364254Y0122657D01*
X0365292Y0123848D02*
X0391201Y0123848D01*
X0391201Y0125047D02*
X0365685Y0125047D01*
X0365685Y0126245D02*
X0391201Y0126245D01*
X0391201Y0127444D02*
X0365685Y0127444D01*
X0365685Y0128642D02*
X0374463Y0128642D01*
X0374485Y0128557D02*
X0374696Y0128192D01*
X0374994Y0127894D01*
X0375359Y0127684D01*
X0375766Y0127575D01*
X0379376Y0127575D01*
X0379376Y0132575D01*
X0374376Y0132575D01*
X0374376Y0128964D01*
X0374485Y0128557D01*
X0374376Y0129841D02*
X0365685Y0129841D01*
X0365412Y0131039D02*
X0374376Y0131039D01*
X0374376Y0132238D02*
X0364539Y0132238D01*
X0360231Y0132238D02*
X0303497Y0132238D01*
X0302299Y0131039D02*
X0359358Y0131039D01*
X0353564Y0129841D02*
X0301100Y0129841D01*
X0299902Y0128642D02*
X0352844Y0128642D01*
X0352680Y0127444D02*
X0298703Y0127444D01*
X0297505Y0126245D02*
X0352965Y0126245D01*
X0353856Y0125047D02*
X0296306Y0125047D01*
X0295108Y0123848D02*
X0355054Y0123848D01*
X0356263Y0122650D02*
X0293909Y0122650D01*
X0288548Y0127444D02*
X0220900Y0127444D01*
X0220900Y0128642D02*
X0289746Y0128642D01*
X0290945Y0129841D02*
X0220900Y0129841D01*
X0220900Y0131039D02*
X0292143Y0131039D01*
X0293342Y0132238D02*
X0220900Y0132238D01*
X0220900Y0133436D02*
X0294540Y0133436D01*
X0295739Y0134635D02*
X0220900Y0134635D01*
X0220900Y0135833D02*
X0296937Y0135833D01*
X0298136Y0137032D02*
X0220900Y0137032D01*
X0220900Y0138230D02*
X0299334Y0138230D01*
X0300533Y0139429D02*
X0220900Y0139429D01*
X0220900Y0140627D02*
X0301731Y0140627D01*
X0302930Y0141826D02*
X0220900Y0141826D01*
X0220900Y0143024D02*
X0304128Y0143024D01*
X0305327Y0144223D02*
X0220900Y0144223D01*
X0220900Y0145421D02*
X0306525Y0145421D01*
X0307724Y0146620D02*
X0220900Y0146620D01*
X0220900Y0147818D02*
X0308922Y0147818D01*
X0310121Y0149017D02*
X0220900Y0149017D01*
X0220900Y0150215D02*
X0311320Y0150215D01*
X0312518Y0151414D02*
X0220900Y0151414D01*
X0220900Y0152612D02*
X0313717Y0152612D01*
X0314915Y0153811D02*
X0220900Y0153811D01*
X0220900Y0155009D02*
X0316114Y0155009D01*
X0316145Y0156208D02*
X0220900Y0156208D01*
X0220900Y0157406D02*
X0315615Y0157406D01*
X0315327Y0158605D02*
X0220900Y0158605D01*
X0220900Y0159803D02*
X0315327Y0159803D01*
X0315704Y0161002D02*
X0220900Y0161002D01*
X0220900Y0162201D02*
X0316359Y0162201D01*
X0316736Y0163399D02*
X0220900Y0163399D01*
X0220900Y0164598D02*
X0316736Y0164598D01*
X0316736Y0165796D02*
X0220900Y0165796D01*
X0220900Y0166995D02*
X0316736Y0166995D01*
X0316736Y0168193D02*
X0220900Y0168193D01*
X0220900Y0169392D02*
X0316736Y0169392D01*
X0316736Y0170590D02*
X0220900Y0170590D01*
X0220900Y0171789D02*
X0316736Y0171789D01*
X0316736Y0172987D02*
X0220900Y0172987D01*
X0220900Y0174186D02*
X0316736Y0174186D01*
X0316736Y0175384D02*
X0220900Y0175384D01*
X0220900Y0176583D02*
X0316736Y0176583D01*
X0316736Y0177781D02*
X0220900Y0177781D01*
X0220900Y0178980D02*
X0316736Y0178980D01*
X0316736Y0180178D02*
X0220900Y0180178D01*
X0220900Y0181377D02*
X0316736Y0181377D01*
X0316736Y0182575D02*
X0220900Y0182575D01*
X0220900Y0183774D02*
X0316736Y0183774D01*
X0316736Y0184972D02*
X0220900Y0184972D01*
X0220900Y0186171D02*
X0316736Y0186171D01*
X0316736Y0187369D02*
X0220900Y0187369D01*
X0220900Y0188568D02*
X0316736Y0188568D01*
X0316736Y0189766D02*
X0220900Y0189766D01*
X0220900Y0190965D02*
X0316736Y0190965D01*
X0316736Y0192163D02*
X0220900Y0192163D01*
X0220900Y0193362D02*
X0316736Y0193362D01*
X0316736Y0194560D02*
X0220900Y0194560D01*
X0220900Y0195759D02*
X0316736Y0195759D01*
X0316736Y0196957D02*
X0220900Y0196957D01*
X0220900Y0198156D02*
X0316736Y0198156D01*
X0316736Y0199354D02*
X0220900Y0199354D01*
X0220900Y0200553D02*
X0316736Y0200553D01*
X0316736Y0201751D02*
X0220900Y0201751D01*
X0220900Y0202950D02*
X0316736Y0202950D01*
X0316736Y0204148D02*
X0220900Y0204148D01*
X0220900Y0205347D02*
X0316736Y0205347D01*
X0316736Y0206545D02*
X0220900Y0206545D01*
X0220900Y0207744D02*
X0316736Y0207744D01*
X0316736Y0208942D02*
X0220900Y0208942D01*
X0221922Y0210141D02*
X0316736Y0210141D01*
X0316736Y0211339D02*
X0223120Y0211339D01*
X0224319Y0212538D02*
X0316736Y0212538D01*
X0316736Y0213737D02*
X0225517Y0213737D01*
X0226716Y0214935D02*
X0316736Y0214935D01*
X0316736Y0216134D02*
X0227914Y0216134D01*
X0229113Y0217332D02*
X0316736Y0217332D01*
X0316736Y0218531D02*
X0230312Y0218531D01*
X0231510Y0219729D02*
X0316736Y0219729D01*
X0316736Y0220928D02*
X0232709Y0220928D01*
X0233907Y0222126D02*
X0316736Y0222126D01*
X0316736Y0223325D02*
X0235106Y0223325D01*
X0236304Y0224523D02*
X0316736Y0224523D01*
X0316736Y0225722D02*
X0237503Y0225722D01*
X0238701Y0226920D02*
X0316736Y0226920D01*
X0316736Y0228119D02*
X0239900Y0228119D01*
X0241098Y0229317D02*
X0316736Y0229317D01*
X0316736Y0230516D02*
X0242297Y0230516D01*
X0243495Y0231714D02*
X0316736Y0231714D01*
X0316736Y0232913D02*
X0244694Y0232913D01*
X0245892Y0234111D02*
X0316736Y0234111D01*
X0316736Y0235310D02*
X0247091Y0235310D01*
X0248289Y0236508D02*
X0316736Y0236508D01*
X0316736Y0237707D02*
X0249488Y0237707D01*
X0250686Y0238905D02*
X0316736Y0238905D01*
X0316736Y0240104D02*
X0251885Y0240104D01*
X0253083Y0241302D02*
X0316736Y0241302D01*
X0316736Y0242501D02*
X0254282Y0242501D01*
X0255480Y0243699D02*
X0316736Y0243699D01*
X0316736Y0244898D02*
X0256679Y0244898D01*
X0257877Y0246096D02*
X0316736Y0246096D01*
X0316736Y0247295D02*
X0259076Y0247295D01*
X0260274Y0248493D02*
X0316736Y0248493D01*
X0316736Y0249692D02*
X0261473Y0249692D01*
X0262671Y0250890D02*
X0316736Y0250890D01*
X0316736Y0252089D02*
X0263870Y0252089D01*
X0265068Y0253287D02*
X0316736Y0253287D01*
X0316736Y0254486D02*
X0266267Y0254486D01*
X0267465Y0255684D02*
X0316736Y0255684D01*
X0316736Y0256883D02*
X0268506Y0256883D01*
X0268942Y0258081D02*
X0316736Y0258081D01*
X0316736Y0259280D02*
X0268942Y0259280D01*
X0268942Y0260478D02*
X0316736Y0260478D01*
X0316736Y0261677D02*
X0268942Y0261677D01*
X0268942Y0262875D02*
X0316736Y0262875D01*
X0316736Y0264074D02*
X0268942Y0264074D01*
X0268942Y0265272D02*
X0316736Y0265272D01*
X0316736Y0266471D02*
X0268942Y0266471D01*
X0268578Y0267670D02*
X0316736Y0267670D01*
X0316736Y0268868D02*
X0267638Y0268868D01*
X0266440Y0270067D02*
X0316736Y0270067D01*
X0316736Y0271265D02*
X0265241Y0271265D01*
X0264043Y0272464D02*
X0316736Y0272464D01*
X0316736Y0273662D02*
X0262844Y0273662D01*
X0261646Y0274861D02*
X0316736Y0274861D01*
X0316736Y0276059D02*
X0260447Y0276059D01*
X0259249Y0277258D02*
X0316736Y0277258D01*
X0316736Y0278456D02*
X0258050Y0278456D01*
X0256852Y0279655D02*
X0316736Y0279655D01*
X0316736Y0280853D02*
X0255653Y0280853D01*
X0254454Y0282052D02*
X0316736Y0282052D01*
X0316736Y0283250D02*
X0253256Y0283250D01*
X0252057Y0284449D02*
X0316736Y0284449D01*
X0316736Y0285647D02*
X0250859Y0285647D01*
X0249660Y0286846D02*
X0316736Y0286846D01*
X0316736Y0288044D02*
X0248462Y0288044D01*
X0247263Y0289243D02*
X0316736Y0289243D01*
X0316736Y0290441D02*
X0246065Y0290441D01*
X0244866Y0291640D02*
X0316736Y0291640D01*
X0316736Y0292838D02*
X0243668Y0292838D01*
X0242469Y0294037D02*
X0316736Y0294037D01*
X0316736Y0295235D02*
X0241271Y0295235D01*
X0240072Y0296434D02*
X0316736Y0296434D01*
X0316736Y0297632D02*
X0238874Y0297632D01*
X0237675Y0298831D02*
X0316736Y0298831D01*
X0316736Y0300029D02*
X0236477Y0300029D01*
X0235278Y0301228D02*
X0316736Y0301228D01*
X0316736Y0302426D02*
X0234080Y0302426D01*
X0232881Y0303625D02*
X0316736Y0303625D01*
X0316736Y0304823D02*
X0231683Y0304823D01*
X0230484Y0306022D02*
X0316736Y0306022D01*
X0316736Y0307220D02*
X0229286Y0307220D01*
X0228087Y0308419D02*
X0316736Y0308419D01*
X0316736Y0309617D02*
X0286547Y0309617D01*
X0284834Y0309617D02*
X0284434Y0309617D01*
X0284434Y0309269D02*
X0284434Y0314368D01*
X0279334Y0314368D01*
X0279334Y0314151D01*
X0279464Y0313327D01*
X0279722Y0312534D01*
X0280101Y0311791D01*
X0280591Y0311116D01*
X0281181Y0310526D01*
X0281856Y0310036D01*
X0282599Y0309657D01*
X0283393Y0309399D01*
X0284217Y0309269D01*
X0284434Y0309269D01*
X0284434Y0310816D02*
X0284834Y0310816D01*
X0284834Y0312014D02*
X0284434Y0312014D01*
X0284434Y0313213D02*
X0284834Y0313213D01*
X0284834Y0314411D02*
X0316736Y0314411D01*
X0316736Y0313213D02*
X0289766Y0313213D01*
X0289281Y0312014D02*
X0316736Y0312014D01*
X0316736Y0310816D02*
X0288377Y0310816D01*
X0284434Y0314411D02*
X0244253Y0314411D01*
X0244253Y0314391D02*
X0244253Y0314608D01*
X0244192Y0314991D01*
X0245285Y0314991D01*
X0247748Y0316011D01*
X0249633Y0317895D01*
X0250653Y0320358D01*
X0250653Y0323023D01*
X0249633Y0325486D01*
X0247748Y0327371D01*
X0245285Y0328391D01*
X0242620Y0328391D01*
X0240158Y0327371D01*
X0238953Y0326166D01*
X0237748Y0327371D01*
X0235285Y0328391D01*
X0232620Y0328391D01*
X0230158Y0327371D01*
X0228273Y0325486D01*
X0227253Y0323023D01*
X0227253Y0320358D01*
X0228273Y0317895D01*
X0230158Y0316011D01*
X0232620Y0314991D01*
X0233713Y0314991D01*
X0233653Y0314608D01*
X0233653Y0314391D01*
X0238753Y0314391D01*
X0238753Y0317015D01*
X0238953Y0317215D01*
X0239153Y0317015D01*
X0239153Y0314391D01*
X0238753Y0314391D01*
X0238753Y0313991D01*
X0233653Y0313991D01*
X0233653Y0313773D01*
X0233783Y0312949D01*
X0234041Y0312156D01*
X0234420Y0311413D01*
X0234910Y0310738D01*
X0235500Y0310148D01*
X0236175Y0309658D01*
X0236918Y0309279D01*
X0237712Y0309021D01*
X0238536Y0308891D01*
X0238753Y0308891D01*
X0238753Y0313990D01*
X0239153Y0313990D01*
X0239153Y0308891D01*
X0239370Y0308891D01*
X0240194Y0309021D01*
X0240987Y0309279D01*
X0241731Y0309658D01*
X0242405Y0310148D01*
X0242995Y0310738D01*
X0243486Y0311413D01*
X0243864Y0312156D01*
X0244122Y0312949D01*
X0244253Y0313773D01*
X0244253Y0313991D01*
X0239153Y0313991D01*
X0239153Y0314391D01*
X0244253Y0314391D01*
X0244164Y0313213D02*
X0279502Y0313213D01*
X0279987Y0312014D02*
X0243792Y0312014D01*
X0243052Y0310816D02*
X0280891Y0310816D01*
X0282721Y0309617D02*
X0241652Y0309617D01*
X0239153Y0309617D02*
X0238753Y0309617D01*
X0238753Y0310816D02*
X0239153Y0310816D01*
X0239153Y0312014D02*
X0238753Y0312014D01*
X0238753Y0313213D02*
X0239153Y0313213D01*
X0239153Y0314411D02*
X0238753Y0314411D01*
X0238753Y0315610D02*
X0239153Y0315610D01*
X0239153Y0316808D02*
X0238753Y0316808D01*
X0233653Y0314411D02*
X0222095Y0314411D01*
X0223293Y0313213D02*
X0233742Y0313213D01*
X0234113Y0312014D02*
X0224492Y0312014D01*
X0225690Y0310816D02*
X0234853Y0310816D01*
X0236254Y0309617D02*
X0226889Y0309617D01*
X0222726Y0303625D02*
X0216042Y0303625D01*
X0214843Y0304823D02*
X0221527Y0304823D01*
X0220329Y0306022D02*
X0213645Y0306022D01*
X0212446Y0307220D02*
X0219130Y0307220D01*
X0217932Y0308419D02*
X0211248Y0308419D01*
X0210049Y0309617D02*
X0216733Y0309617D01*
X0215535Y0310816D02*
X0208851Y0310816D01*
X0207652Y0312014D02*
X0214336Y0312014D01*
X0213346Y0313005D02*
X0224855Y0301495D01*
X0224230Y0300870D01*
X0218797Y0300870D01*
X0206662Y0313005D01*
X0213346Y0313005D01*
X0217301Y0319205D02*
X0227730Y0319205D01*
X0227253Y0320404D02*
X0207031Y0320404D01*
X0207031Y0321603D02*
X0227253Y0321603D01*
X0227253Y0322801D02*
X0207031Y0322801D01*
X0206560Y0324000D02*
X0227657Y0324000D01*
X0228154Y0325198D02*
X0206062Y0325198D01*
X0204864Y0326397D02*
X0229184Y0326397D01*
X0230700Y0327595D02*
X0202796Y0327595D01*
X0199108Y0328794D02*
X0279933Y0328794D01*
X0275685Y0327595D02*
X0247206Y0327595D01*
X0248722Y0326397D02*
X0274487Y0326397D01*
X0273678Y0325198D02*
X0249752Y0325198D01*
X0250248Y0324000D02*
X0273182Y0324000D01*
X0272934Y0322801D02*
X0250653Y0322801D01*
X0250653Y0321603D02*
X0272934Y0321603D01*
X0273071Y0320404D02*
X0250653Y0320404D01*
X0250175Y0319205D02*
X0273568Y0319205D01*
X0274220Y0318007D02*
X0249679Y0318007D01*
X0248546Y0316808D02*
X0275419Y0316808D01*
X0277718Y0315610D02*
X0246781Y0315610D01*
X0239184Y0326397D02*
X0238722Y0326397D01*
X0237206Y0327595D02*
X0240700Y0327595D01*
X0231125Y0315610D02*
X0220896Y0315610D01*
X0219698Y0316808D02*
X0229360Y0316808D01*
X0228227Y0318007D02*
X0218499Y0318007D01*
X0217240Y0302426D02*
X0223924Y0302426D01*
X0224587Y0301228D02*
X0218439Y0301228D01*
X0214839Y0294672D02*
X0215276Y0294236D01*
X0216595Y0293689D01*
X0224230Y0293689D01*
X0224878Y0293041D01*
X0226716Y0292280D01*
X0228705Y0292280D01*
X0230543Y0293041D01*
X0231926Y0294424D01*
X0256791Y0269560D01*
X0232245Y0269560D01*
X0208503Y0293302D01*
X0210296Y0293302D01*
X0210372Y0293270D01*
X0212361Y0293270D01*
X0214198Y0294031D01*
X0214839Y0294672D01*
X0214204Y0294037D02*
X0215756Y0294037D01*
X0211363Y0290441D02*
X0235909Y0290441D01*
X0234711Y0291640D02*
X0210165Y0291640D01*
X0208966Y0292838D02*
X0225367Y0292838D01*
X0230054Y0292838D02*
X0233512Y0292838D01*
X0232314Y0294037D02*
X0231539Y0294037D01*
X0237108Y0289243D02*
X0212562Y0289243D01*
X0213760Y0288044D02*
X0238306Y0288044D01*
X0239505Y0286846D02*
X0214959Y0286846D01*
X0216157Y0285647D02*
X0240703Y0285647D01*
X0241902Y0284449D02*
X0217356Y0284449D01*
X0218554Y0283250D02*
X0243100Y0283250D01*
X0244299Y0282052D02*
X0219753Y0282052D01*
X0220951Y0280853D02*
X0245497Y0280853D01*
X0246696Y0279655D02*
X0222150Y0279655D01*
X0223348Y0278456D02*
X0247894Y0278456D01*
X0249093Y0277258D02*
X0224547Y0277258D01*
X0225745Y0276059D02*
X0250291Y0276059D01*
X0251490Y0274861D02*
X0226944Y0274861D01*
X0228142Y0273662D02*
X0252688Y0273662D01*
X0253887Y0272464D02*
X0229341Y0272464D01*
X0230539Y0271265D02*
X0255085Y0271265D01*
X0256284Y0270067D02*
X0231738Y0270067D01*
X0222479Y0265272D02*
X0178461Y0265272D01*
X0177263Y0264074D02*
X0222091Y0264074D01*
X0219914Y0262875D02*
X0176064Y0262875D01*
X0174866Y0261677D02*
X0218890Y0261677D01*
X0218394Y0260478D02*
X0173667Y0260478D01*
X0172469Y0259280D02*
X0218253Y0259280D01*
X0218281Y0258081D02*
X0171270Y0258081D01*
X0170072Y0256883D02*
X0218777Y0256883D01*
X0219641Y0255684D02*
X0168873Y0255684D01*
X0167675Y0254486D02*
X0221431Y0254486D01*
X0221280Y0266471D02*
X0179660Y0266471D01*
X0180858Y0267670D02*
X0220082Y0267670D01*
X0218883Y0268868D02*
X0182057Y0268868D01*
X0183255Y0270067D02*
X0217685Y0270067D01*
X0216486Y0271265D02*
X0184454Y0271265D01*
X0185652Y0272464D02*
X0215288Y0272464D01*
X0214089Y0273662D02*
X0186851Y0273662D01*
X0188049Y0274861D02*
X0212891Y0274861D01*
X0211692Y0276059D02*
X0189248Y0276059D01*
X0190446Y0277258D02*
X0210494Y0277258D01*
X0209295Y0278456D02*
X0191645Y0278456D01*
X0192843Y0279655D02*
X0208097Y0279655D01*
X0206898Y0280853D02*
X0194042Y0280853D01*
X0195240Y0282052D02*
X0205700Y0282052D01*
X0204501Y0283250D02*
X0196439Y0283250D01*
X0197637Y0284449D02*
X0203303Y0284449D01*
X0202104Y0285647D02*
X0198836Y0285647D01*
X0200034Y0286846D02*
X0200861Y0286846D01*
X0204480Y0303239D02*
X0204480Y0305032D01*
X0206273Y0303239D01*
X0204480Y0303239D01*
X0204480Y0303625D02*
X0205886Y0303625D01*
X0204688Y0304823D02*
X0204480Y0304823D01*
X0195972Y0313213D02*
X0133290Y0313213D01*
X0134488Y0314411D02*
X0196090Y0314411D01*
X0194892Y0315610D02*
X0172808Y0315610D01*
X0171947Y0315254D02*
X0174280Y0316220D01*
X0176065Y0318005D01*
X0177031Y0320338D01*
X0177031Y0322862D01*
X0176065Y0325195D01*
X0174280Y0326980D01*
X0171947Y0327946D01*
X0169423Y0327946D01*
X0167090Y0326980D01*
X0165305Y0325195D01*
X0164339Y0322862D01*
X0164339Y0320338D01*
X0165305Y0318005D01*
X0167090Y0316220D01*
X0169423Y0315254D01*
X0171947Y0315254D01*
X0174869Y0316808D02*
X0193693Y0316808D01*
X0192495Y0318007D02*
X0176066Y0318007D01*
X0176563Y0319205D02*
X0191986Y0319205D01*
X0191927Y0320404D02*
X0177031Y0320404D01*
X0177031Y0321603D02*
X0191927Y0321603D01*
X0191927Y0322801D02*
X0177031Y0322801D01*
X0176560Y0324000D02*
X0191927Y0324000D01*
X0191927Y0325198D02*
X0176062Y0325198D01*
X0174864Y0326397D02*
X0191927Y0326397D01*
X0191927Y0327595D02*
X0172796Y0327595D01*
X0168574Y0327595D02*
X0147672Y0327595D01*
X0146473Y0326397D02*
X0166506Y0326397D01*
X0165308Y0325198D02*
X0145275Y0325198D01*
X0144076Y0324000D02*
X0164810Y0324000D01*
X0164339Y0322801D02*
X0142878Y0322801D01*
X0141679Y0321603D02*
X0164339Y0321603D01*
X0164339Y0320404D02*
X0140481Y0320404D01*
X0139282Y0319205D02*
X0164808Y0319205D01*
X0165304Y0318007D02*
X0138084Y0318007D01*
X0136885Y0316808D02*
X0166501Y0316808D01*
X0168562Y0315610D02*
X0135687Y0315610D01*
X0132091Y0312014D02*
X0194774Y0312014D01*
X0193575Y0310816D02*
X0130893Y0310816D01*
X0129694Y0309617D02*
X0192377Y0309617D01*
X0191178Y0308419D02*
X0128496Y0308419D01*
X0127297Y0307220D02*
X0189980Y0307220D01*
X0188781Y0306022D02*
X0126099Y0306022D01*
X0124900Y0304823D02*
X0187583Y0304823D01*
X0186384Y0303625D02*
X0123702Y0303625D01*
X0122503Y0302426D02*
X0185186Y0302426D01*
X0183987Y0301228D02*
X0121305Y0301228D01*
X0120106Y0300029D02*
X0182789Y0300029D01*
X0181590Y0298831D02*
X0118908Y0298831D01*
X0117709Y0297632D02*
X0180392Y0297632D01*
X0179193Y0296434D02*
X0116511Y0296434D01*
X0115312Y0295235D02*
X0152972Y0295235D01*
X0151836Y0294037D02*
X0114114Y0294037D01*
X0112915Y0292838D02*
X0151339Y0292838D01*
X0150634Y0291640D02*
X0111717Y0291640D01*
X0110518Y0290441D02*
X0149435Y0290441D01*
X0148237Y0289243D02*
X0109320Y0289243D01*
X0108121Y0288044D02*
X0147038Y0288044D01*
X0145840Y0286846D02*
X0106923Y0286846D01*
X0105724Y0285647D02*
X0144641Y0285647D01*
X0143443Y0284449D02*
X0104526Y0284449D01*
X0103327Y0283250D02*
X0142472Y0283250D01*
X0142085Y0282052D02*
X0102129Y0282052D01*
X0100930Y0280853D02*
X0142085Y0280853D01*
X0142085Y0279655D02*
X0099732Y0279655D01*
X0098533Y0278456D02*
X0141595Y0278456D01*
X0141196Y0277258D02*
X0097334Y0277258D01*
X0096136Y0276059D02*
X0141196Y0276059D01*
X0141547Y0274861D02*
X0094937Y0274861D01*
X0093739Y0273662D02*
X0142275Y0273662D01*
X0143941Y0272464D02*
X0092540Y0272464D01*
X0091342Y0271265D02*
X0154024Y0271265D01*
X0152826Y0270067D02*
X0090143Y0270067D01*
X0088945Y0268868D02*
X0151627Y0268868D01*
X0150429Y0267670D02*
X0087746Y0267670D01*
X0086548Y0266471D02*
X0149230Y0266471D01*
X0148032Y0265272D02*
X0085349Y0265272D01*
X0084151Y0264074D02*
X0146833Y0264074D01*
X0145635Y0262875D02*
X0083685Y0262875D01*
X0083685Y0261677D02*
X0144436Y0261677D01*
X0143238Y0260478D02*
X0083685Y0260478D01*
X0083685Y0259280D02*
X0142039Y0259280D01*
X0140841Y0258081D02*
X0083685Y0258081D01*
X0083662Y0256883D02*
X0139642Y0256883D01*
X0138444Y0255684D02*
X0083685Y0255684D01*
X0083685Y0254486D02*
X0137245Y0254486D01*
X0136047Y0253287D02*
X0083685Y0253287D01*
X0083685Y0252089D02*
X0134848Y0252089D01*
X0133650Y0250890D02*
X0083539Y0250890D01*
X0082844Y0249692D02*
X0132451Y0249692D01*
X0131253Y0248493D02*
X0068570Y0248493D01*
X0067372Y0247295D02*
X0130054Y0247295D01*
X0128856Y0246096D02*
X0066173Y0246096D01*
X0064975Y0244898D02*
X0127657Y0244898D01*
X0127123Y0243699D02*
X0063776Y0243699D01*
X0062578Y0242501D02*
X0127046Y0242501D01*
X0127046Y0241302D02*
X0061379Y0241302D01*
X0060181Y0240104D02*
X0127046Y0240104D01*
X0127046Y0238905D02*
X0058982Y0238905D01*
X0057784Y0237707D02*
X0127046Y0237707D01*
X0127046Y0236508D02*
X0056585Y0236508D01*
X0055866Y0235310D02*
X0127046Y0235310D01*
X0127046Y0234111D02*
X0055866Y0234111D01*
X0055646Y0232913D02*
X0127046Y0232913D01*
X0127046Y0231714D02*
X0055150Y0231714D01*
X0054138Y0230516D02*
X0127046Y0230516D01*
X0127046Y0229317D02*
X0053568Y0229317D01*
X0054767Y0228119D02*
X0127046Y0228119D01*
X0127046Y0226920D02*
X0055410Y0226920D01*
X0055866Y0225722D02*
X0127046Y0225722D01*
X0127046Y0224523D02*
X0055866Y0224523D01*
X0056629Y0223325D02*
X0127046Y0223325D01*
X0127046Y0222126D02*
X0057827Y0222126D01*
X0059026Y0220928D02*
X0127046Y0220928D01*
X0127046Y0219729D02*
X0060224Y0219729D01*
X0061423Y0218531D02*
X0127046Y0218531D01*
X0127046Y0217332D02*
X0062621Y0217332D01*
X0063820Y0216134D02*
X0127046Y0216134D01*
X0127046Y0214935D02*
X0096891Y0214935D01*
X0098917Y0213737D02*
X0127046Y0213737D01*
X0127046Y0212538D02*
X0099878Y0212538D01*
X0100375Y0211339D02*
X0127046Y0211339D01*
X0127046Y0210141D02*
X0100472Y0210141D01*
X0100400Y0208942D02*
X0127046Y0208942D01*
X0127046Y0207744D02*
X0099903Y0207744D01*
X0098977Y0206545D02*
X0127046Y0206545D01*
X0127046Y0205347D02*
X0097036Y0205347D01*
X0093908Y0205347D02*
X0043870Y0205347D01*
X0043870Y0206545D02*
X0063990Y0206545D01*
X0062054Y0207744D02*
X0043870Y0207744D01*
X0043870Y0208942D02*
X0060855Y0208942D01*
X0059657Y0210141D02*
X0053448Y0210141D01*
X0054647Y0211339D02*
X0058458Y0211339D01*
X0057260Y0212538D02*
X0055360Y0212538D01*
X0055857Y0213737D02*
X0056061Y0213737D01*
X0065018Y0214935D02*
X0094052Y0214935D01*
X0092026Y0213737D02*
X0066217Y0213737D01*
X0059305Y0188460D02*
X0055694Y0188460D01*
X0055694Y0183460D01*
X0054494Y0183460D01*
X0054494Y0182260D01*
X0049494Y0182260D01*
X0049494Y0178649D01*
X0049604Y0178242D01*
X0049814Y0177877D01*
X0050112Y0177580D01*
X0050477Y0177369D01*
X0050884Y0177260D01*
X0054494Y0177260D01*
X0054494Y0182260D01*
X0055694Y0182260D01*
X0055694Y0177260D01*
X0059305Y0177260D01*
X0059712Y0177369D01*
X0060077Y0177580D01*
X0060375Y0177877D01*
X0060585Y0178242D01*
X0060694Y0178649D01*
X0060694Y0182260D01*
X0055695Y0182260D01*
X0055695Y0183460D01*
X0060694Y0183460D01*
X0060694Y0187070D01*
X0060585Y0187477D01*
X0060375Y0187842D01*
X0060077Y0188140D01*
X0059712Y0188351D01*
X0059305Y0188460D01*
X0060614Y0187369D02*
X0127046Y0187369D01*
X0127046Y0186171D02*
X0080807Y0186171D01*
X0080119Y0186859D02*
X0078906Y0187361D01*
X0073323Y0187361D01*
X0072110Y0186859D01*
X0071182Y0185931D01*
X0070680Y0184718D01*
X0070680Y0183405D01*
X0071182Y0182192D01*
X0071448Y0181926D01*
X0071182Y0181660D01*
X0070680Y0180447D01*
X0070680Y0179135D01*
X0071079Y0178170D01*
X0070978Y0177925D01*
X0070680Y0177205D01*
X0070680Y0173757D01*
X0071182Y0172544D01*
X0072002Y0171724D01*
X0071182Y0170904D01*
X0070680Y0169692D01*
X0070680Y0168379D01*
X0071182Y0167166D01*
X0072110Y0166238D01*
X0074245Y0164102D01*
X0075458Y0163600D01*
X0076771Y0163600D01*
X0077984Y0164102D01*
X0078250Y0164368D01*
X0078516Y0164102D01*
X0079729Y0163600D01*
X0081041Y0163600D01*
X0082254Y0164102D01*
X0083183Y0165031D01*
X0083685Y0166244D01*
X0083685Y0171827D01*
X0083506Y0172258D01*
X0083685Y0172689D01*
X0083685Y0178272D01*
X0083183Y0179485D01*
X0082897Y0179771D01*
X0083183Y0180057D01*
X0083685Y0181270D01*
X0083685Y0182583D01*
X0083483Y0183071D01*
X0083183Y0183795D01*
X0080119Y0186859D01*
X0082006Y0184972D02*
X0127046Y0184972D01*
X0127046Y0183774D02*
X0083192Y0183774D01*
X0083685Y0182575D02*
X0127046Y0182575D01*
X0127046Y0181377D02*
X0083685Y0181377D01*
X0083233Y0180178D02*
X0127046Y0180178D01*
X0127046Y0178980D02*
X0083392Y0178980D01*
X0083685Y0177781D02*
X0127046Y0177781D01*
X0127046Y0176583D02*
X0083685Y0176583D01*
X0083685Y0175384D02*
X0127046Y0175384D01*
X0127046Y0174186D02*
X0083685Y0174186D01*
X0083685Y0172987D02*
X0127046Y0172987D01*
X0127046Y0171789D02*
X0083685Y0171789D01*
X0083685Y0170590D02*
X0127046Y0170590D01*
X0127046Y0169392D02*
X0083685Y0169392D01*
X0083685Y0168193D02*
X0127046Y0168193D01*
X0127046Y0166995D02*
X0083685Y0166995D01*
X0083500Y0165796D02*
X0127046Y0165796D01*
X0127046Y0164598D02*
X0082749Y0164598D01*
X0073750Y0164598D02*
X0062082Y0164598D01*
X0062094Y0164567D02*
X0061029Y0167140D01*
X0059060Y0169109D01*
X0056487Y0170175D01*
X0053702Y0170175D01*
X0051129Y0169109D01*
X0049160Y0167140D01*
X0048094Y0164567D01*
X0048094Y0161782D01*
X0049160Y0159210D01*
X0051129Y0157240D01*
X0053702Y0156175D01*
X0056487Y0156175D01*
X0059060Y0157240D01*
X0061029Y0159210D01*
X0062094Y0161782D01*
X0062094Y0164567D01*
X0062094Y0163399D02*
X0127046Y0163399D01*
X0127046Y0162201D02*
X0062094Y0162201D01*
X0061771Y0161002D02*
X0127046Y0161002D01*
X0127046Y0159803D02*
X0061275Y0159803D01*
X0060424Y0158605D02*
X0127046Y0158605D01*
X0127046Y0157406D02*
X0059226Y0157406D01*
X0056567Y0156208D02*
X0127046Y0156208D01*
X0127046Y0155009D02*
X0043870Y0155009D01*
X0043870Y0153811D02*
X0127046Y0153811D01*
X0127046Y0152612D02*
X0043870Y0152612D01*
X0043870Y0151414D02*
X0127046Y0151414D01*
X0127046Y0150215D02*
X0043870Y0150215D01*
X0043870Y0149017D02*
X0127046Y0149017D01*
X0127046Y0147818D02*
X0043870Y0147818D01*
X0043870Y0146620D02*
X0127046Y0146620D01*
X0127046Y0145421D02*
X0043870Y0145421D01*
X0043870Y0144223D02*
X0127046Y0144223D01*
X0127046Y0143024D02*
X0043870Y0143024D01*
X0043870Y0141826D02*
X0127046Y0141826D01*
X0127046Y0140627D02*
X0043870Y0140627D01*
X0043870Y0139429D02*
X0127046Y0139429D01*
X0127046Y0138230D02*
X0043870Y0138230D01*
X0043870Y0137032D02*
X0127046Y0137032D01*
X0127046Y0135833D02*
X0043870Y0135833D01*
X0043870Y0134635D02*
X0127046Y0134635D01*
X0127046Y0133436D02*
X0043870Y0133436D01*
X0043870Y0132238D02*
X0127046Y0132238D01*
X0127046Y0131039D02*
X0043870Y0131039D01*
X0043870Y0129841D02*
X0127046Y0129841D01*
X0127046Y0128642D02*
X0043870Y0128642D01*
X0043870Y0127444D02*
X0127046Y0127444D01*
X0127046Y0126245D02*
X0043870Y0126245D01*
X0043870Y0125047D02*
X0127046Y0125047D01*
X0127046Y0123848D02*
X0043870Y0123848D01*
X0043870Y0122650D02*
X0127046Y0122650D01*
X0127046Y0121451D02*
X0043870Y0121451D01*
X0043870Y0120253D02*
X0127046Y0120253D01*
X0127046Y0119054D02*
X0043870Y0119054D01*
X0043870Y0117856D02*
X0127046Y0117856D01*
X0127046Y0116657D02*
X0043870Y0116657D01*
X0043870Y0115459D02*
X0127046Y0115459D01*
X0127046Y0114260D02*
X0043870Y0114260D01*
X0043870Y0113062D02*
X0127046Y0113062D01*
X0127046Y0111863D02*
X0043870Y0111863D01*
X0043870Y0110665D02*
X0127046Y0110665D01*
X0127046Y0109466D02*
X0043870Y0109466D01*
X0043870Y0108268D02*
X0127046Y0108268D01*
X0139072Y0129841D02*
X0213719Y0129841D01*
X0213719Y0131039D02*
X0139072Y0131039D01*
X0139072Y0132238D02*
X0213719Y0132238D01*
X0213719Y0133436D02*
X0139072Y0133436D01*
X0139072Y0134635D02*
X0213719Y0134635D01*
X0213719Y0135833D02*
X0139072Y0135833D01*
X0139072Y0137032D02*
X0213719Y0137032D01*
X0213719Y0138230D02*
X0139072Y0138230D01*
X0139072Y0139429D02*
X0213719Y0139429D01*
X0213719Y0140627D02*
X0139072Y0140627D01*
X0139072Y0141826D02*
X0213719Y0141826D01*
X0213719Y0143024D02*
X0139072Y0143024D01*
X0139072Y0144223D02*
X0213719Y0144223D01*
X0213719Y0145421D02*
X0139072Y0145421D01*
X0139072Y0146620D02*
X0213719Y0146620D01*
X0213719Y0147818D02*
X0139072Y0147818D01*
X0139072Y0149017D02*
X0213719Y0149017D01*
X0213719Y0150215D02*
X0139072Y0150215D01*
X0139072Y0151414D02*
X0213719Y0151414D01*
X0213719Y0152612D02*
X0139072Y0152612D01*
X0139072Y0153811D02*
X0213719Y0153811D01*
X0213719Y0155009D02*
X0139072Y0155009D01*
X0139072Y0156208D02*
X0213719Y0156208D01*
X0213719Y0157406D02*
X0139072Y0157406D01*
X0139072Y0158605D02*
X0213719Y0158605D01*
X0213719Y0159803D02*
X0139072Y0159803D01*
X0139072Y0161002D02*
X0213719Y0161002D01*
X0213719Y0162201D02*
X0139072Y0162201D01*
X0139072Y0163399D02*
X0213719Y0163399D01*
X0213719Y0164598D02*
X0139072Y0164598D01*
X0139072Y0165796D02*
X0213719Y0165796D01*
X0213719Y0166995D02*
X0139072Y0166995D01*
X0139072Y0168193D02*
X0213719Y0168193D01*
X0213719Y0169392D02*
X0139072Y0169392D01*
X0139072Y0170590D02*
X0213719Y0170590D01*
X0213719Y0171789D02*
X0139072Y0171789D01*
X0139072Y0172987D02*
X0213719Y0172987D01*
X0213719Y0174186D02*
X0139072Y0174186D01*
X0139072Y0175384D02*
X0213719Y0175384D01*
X0213719Y0176583D02*
X0139072Y0176583D01*
X0139072Y0177781D02*
X0213719Y0177781D01*
X0213719Y0178980D02*
X0139072Y0178980D01*
X0139072Y0180178D02*
X0213719Y0180178D01*
X0213719Y0181377D02*
X0139072Y0181377D01*
X0139072Y0182575D02*
X0213719Y0182575D01*
X0213719Y0183774D02*
X0139072Y0183774D01*
X0139072Y0184972D02*
X0213719Y0184972D01*
X0213719Y0186171D02*
X0139072Y0186171D01*
X0139072Y0187369D02*
X0213719Y0187369D01*
X0213719Y0188568D02*
X0139072Y0188568D01*
X0139072Y0189766D02*
X0213719Y0189766D01*
X0213719Y0190965D02*
X0139072Y0190965D01*
X0139072Y0192163D02*
X0213719Y0192163D01*
X0213719Y0193362D02*
X0139072Y0193362D01*
X0139072Y0194560D02*
X0213719Y0194560D01*
X0213719Y0195759D02*
X0139072Y0195759D01*
X0139072Y0196957D02*
X0213719Y0196957D01*
X0213719Y0198156D02*
X0139072Y0198156D01*
X0139072Y0199354D02*
X0213719Y0199354D01*
X0213719Y0200553D02*
X0139072Y0200553D01*
X0139072Y0201751D02*
X0213719Y0201751D01*
X0213719Y0202950D02*
X0139072Y0202950D01*
X0139072Y0204148D02*
X0213719Y0204148D01*
X0213719Y0205347D02*
X0139072Y0205347D01*
X0139072Y0206545D02*
X0213719Y0206545D01*
X0213719Y0207744D02*
X0139072Y0207744D01*
X0139072Y0208942D02*
X0213719Y0208942D01*
X0213719Y0210141D02*
X0139072Y0210141D01*
X0139072Y0211339D02*
X0213727Y0211339D01*
X0214223Y0212538D02*
X0139072Y0212538D01*
X0139072Y0213737D02*
X0215362Y0213737D01*
X0216560Y0214935D02*
X0139072Y0214935D01*
X0139072Y0216134D02*
X0217759Y0216134D01*
X0218957Y0217332D02*
X0139072Y0217332D01*
X0139072Y0218531D02*
X0220156Y0218531D01*
X0221354Y0219729D02*
X0139072Y0219729D01*
X0139072Y0220928D02*
X0222553Y0220928D01*
X0223751Y0222126D02*
X0139072Y0222126D01*
X0139072Y0223325D02*
X0224950Y0223325D01*
X0226148Y0224523D02*
X0139072Y0224523D01*
X0139072Y0225722D02*
X0227347Y0225722D01*
X0228545Y0226920D02*
X0140109Y0226920D01*
X0141307Y0228119D02*
X0229744Y0228119D01*
X0230943Y0229317D02*
X0142506Y0229317D01*
X0143704Y0230516D02*
X0232141Y0230516D01*
X0233340Y0231714D02*
X0144903Y0231714D01*
X0146101Y0232913D02*
X0234538Y0232913D01*
X0235737Y0234111D02*
X0147300Y0234111D01*
X0148498Y0235310D02*
X0236935Y0235310D01*
X0238134Y0236508D02*
X0149697Y0236508D01*
X0150895Y0237707D02*
X0239332Y0237707D01*
X0240531Y0238905D02*
X0152094Y0238905D01*
X0153292Y0240104D02*
X0241729Y0240104D01*
X0242928Y0241302D02*
X0154491Y0241302D01*
X0155689Y0242501D02*
X0244126Y0242501D01*
X0245325Y0243699D02*
X0156888Y0243699D01*
X0158087Y0244898D02*
X0246523Y0244898D01*
X0247722Y0246096D02*
X0159285Y0246096D01*
X0160484Y0247295D02*
X0248920Y0247295D01*
X0250119Y0248493D02*
X0161682Y0248493D01*
X0162881Y0249692D02*
X0251317Y0249692D01*
X0252516Y0250890D02*
X0164079Y0250890D01*
X0165278Y0252089D02*
X0253714Y0252089D01*
X0254913Y0253287D02*
X0166476Y0253287D01*
X0155223Y0272464D02*
X0147429Y0272464D01*
X0149095Y0273662D02*
X0156421Y0273662D01*
X0157576Y0274861D02*
X0149823Y0274861D01*
X0150174Y0276059D02*
X0156672Y0276059D01*
X0156196Y0277258D02*
X0150174Y0277258D01*
X0149775Y0278456D02*
X0156196Y0278456D01*
X0156470Y0279655D02*
X0149285Y0279655D01*
X0150029Y0280853D02*
X0157085Y0280853D01*
X0157085Y0282052D02*
X0151228Y0282052D01*
X0152426Y0283250D02*
X0157085Y0283250D01*
X0157085Y0284449D02*
X0153625Y0284449D01*
X0154823Y0285647D02*
X0157085Y0285647D01*
X0157085Y0286846D02*
X0156022Y0286846D01*
X0155685Y0291600D02*
X0145685Y0281600D01*
X0145685Y0276600D01*
X0160685Y0278100D02*
X0160685Y0291600D01*
X0165174Y0291640D02*
X0174399Y0291640D01*
X0175597Y0292838D02*
X0165031Y0292838D01*
X0164535Y0294037D02*
X0176796Y0294037D01*
X0177994Y0295235D02*
X0163398Y0295235D01*
X0165064Y0290441D02*
X0173200Y0290441D01*
X0172002Y0289243D02*
X0164567Y0289243D01*
X0164285Y0288044D02*
X0170803Y0288044D01*
X0169605Y0286846D02*
X0164285Y0286846D01*
X0164285Y0285647D02*
X0168406Y0285647D01*
X0167208Y0284449D02*
X0164285Y0284449D01*
X0164285Y0283250D02*
X0166009Y0283250D01*
X0164811Y0282052D02*
X0164285Y0282052D01*
X0148870Y0328794D02*
X0191927Y0328794D01*
X0191927Y0329992D02*
X0150069Y0329992D01*
X0151268Y0331191D02*
X0191927Y0331191D01*
X0191927Y0332389D02*
X0152466Y0332389D01*
X0153665Y0333588D02*
X0191927Y0333588D01*
X0191927Y0334786D02*
X0154863Y0334786D01*
X0156062Y0335985D02*
X0191927Y0335985D01*
X0191927Y0337183D02*
X0157260Y0337183D01*
X0158459Y0338382D02*
X0191927Y0338382D01*
X0191927Y0339580D02*
X0159657Y0339580D01*
X0160856Y0340779D02*
X0191927Y0340779D01*
X0191927Y0341977D02*
X0162054Y0341977D01*
X0163253Y0343176D02*
X0191927Y0343176D01*
X0191927Y0344374D02*
X0164451Y0344374D01*
X0165650Y0345573D02*
X0191927Y0345573D01*
X0191927Y0346771D02*
X0166848Y0346771D01*
X0168047Y0347970D02*
X0191927Y0347970D01*
X0191927Y0349168D02*
X0169245Y0349168D01*
X0170444Y0350367D02*
X0191927Y0350367D01*
X0191927Y0351565D02*
X0171642Y0351565D01*
X0172841Y0352764D02*
X0191927Y0352764D01*
X0191927Y0353962D02*
X0174039Y0353962D01*
X0175238Y0355161D02*
X0191927Y0355161D01*
X0191927Y0356359D02*
X0176436Y0356359D01*
X0177635Y0357558D02*
X0191927Y0357558D01*
X0191927Y0358756D02*
X0178833Y0358756D01*
X0180032Y0359955D02*
X0191927Y0359955D01*
X0191927Y0361153D02*
X0181230Y0361153D01*
X0182429Y0362352D02*
X0191927Y0362352D01*
X0191927Y0363550D02*
X0183627Y0363550D01*
X0184826Y0364749D02*
X0191927Y0364749D01*
X0191927Y0365947D02*
X0186024Y0365947D01*
X0187223Y0367146D02*
X0191927Y0367146D01*
X0191927Y0368344D02*
X0188421Y0368344D01*
X0189620Y0369543D02*
X0191927Y0369543D01*
X0191927Y0370741D02*
X0190818Y0370741D01*
X0183956Y0377933D02*
X0056348Y0377933D01*
X0056348Y0379131D02*
X0185155Y0379131D01*
X0186353Y0380330D02*
X0056348Y0380330D01*
X0056348Y0381528D02*
X0187552Y0381528D01*
X0188750Y0382727D02*
X0056348Y0382727D01*
X0056348Y0383925D02*
X0189949Y0383925D01*
X0191148Y0385124D02*
X0056348Y0385124D01*
X0056348Y0386322D02*
X0192346Y0386322D01*
X0193545Y0387521D02*
X0056348Y0387521D01*
X0056348Y0388719D02*
X0194743Y0388719D01*
X0195942Y0389918D02*
X0056348Y0389918D01*
X0056348Y0391116D02*
X0197140Y0391116D01*
X0198339Y0392315D02*
X0056348Y0392315D01*
X0056348Y0393513D02*
X0199537Y0393513D01*
X0200736Y0394712D02*
X0056348Y0394712D01*
X0056348Y0395910D02*
X0201934Y0395910D01*
X0203133Y0397109D02*
X0056348Y0397109D01*
X0056348Y0398307D02*
X0204331Y0398307D01*
X0205530Y0399506D02*
X0056348Y0399506D01*
X0056348Y0400704D02*
X0206728Y0400704D01*
X0207927Y0401903D02*
X0056348Y0401903D01*
X0056348Y0403101D02*
X0209125Y0403101D01*
X0210324Y0404300D02*
X0056348Y0404300D01*
X0056348Y0405498D02*
X0211522Y0405498D01*
X0212721Y0406697D02*
X0056348Y0406697D01*
X0056348Y0407895D02*
X0213919Y0407895D01*
X0215118Y0409094D02*
X0056348Y0409094D01*
X0056348Y0410292D02*
X0216316Y0410292D01*
X0217515Y0411491D02*
X0056348Y0411491D01*
X0056348Y0412689D02*
X0218713Y0412689D01*
X0219912Y0413888D02*
X0056348Y0413888D01*
X0056348Y0415086D02*
X0221110Y0415086D01*
X0222309Y0416285D02*
X0056348Y0416285D01*
X0056348Y0417483D02*
X0223507Y0417483D01*
X0224706Y0418682D02*
X0056348Y0418682D01*
X0056348Y0419880D02*
X0225904Y0419880D01*
X0227103Y0421079D02*
X0056348Y0421079D01*
X0056348Y0422277D02*
X0228301Y0422277D01*
X0229500Y0423476D02*
X0056348Y0423476D01*
X0056348Y0424674D02*
X0230698Y0424674D01*
X0231897Y0425873D02*
X0056348Y0425873D01*
X0056348Y0427072D02*
X0233095Y0427072D01*
X0234294Y0428270D02*
X0056348Y0428270D01*
X0056348Y0429469D02*
X0235492Y0429469D01*
X0236691Y0430667D02*
X0056348Y0430667D01*
X0056348Y0431866D02*
X0237889Y0431866D01*
X0239088Y0433064D02*
X0056348Y0433064D01*
X0056348Y0434263D02*
X0240286Y0434263D01*
X0241485Y0435461D02*
X0056348Y0435461D01*
X0056348Y0436660D02*
X0242684Y0436660D01*
X0243882Y0437858D02*
X0056348Y0437858D01*
X0056348Y0439057D02*
X0245081Y0439057D01*
X0246279Y0440255D02*
X0056348Y0440255D01*
X0056348Y0441454D02*
X0247478Y0441454D01*
X0248676Y0442652D02*
X0056348Y0442652D01*
X0056348Y0443851D02*
X0204508Y0443851D01*
X0207334Y0443851D02*
X0214508Y0443851D01*
X0217334Y0443851D02*
X0224508Y0443851D01*
X0227334Y0443851D02*
X0244508Y0443851D01*
X0247334Y0443851D02*
X0249875Y0443851D01*
X0249928Y0445049D02*
X0251073Y0445049D01*
X0256737Y0436660D02*
X0352680Y0436660D01*
X0352680Y0437858D02*
X0257935Y0437858D01*
X0255538Y0435461D02*
X0352680Y0435461D01*
X0352680Y0434420D02*
X0353182Y0433207D01*
X0354110Y0432279D01*
X0355079Y0431310D01*
X0353182Y0429413D01*
X0352970Y0428900D01*
X0352680Y0428200D01*
X0352680Y0424752D01*
X0353182Y0423539D01*
X0354110Y0422611D01*
X0355178Y0421543D01*
X0356391Y0421041D01*
X0357704Y0421041D01*
X0358916Y0421543D01*
X0359182Y0421809D01*
X0359448Y0421543D01*
X0360661Y0421041D01*
X0361974Y0421041D01*
X0363187Y0421543D01*
X0365183Y0423539D01*
X0365685Y0424752D01*
X0365685Y0428200D01*
X0365387Y0428920D01*
X0365285Y0429165D01*
X0365685Y0430130D01*
X0365685Y0432510D01*
X0365289Y0433465D01*
X0365685Y0434420D01*
X0365685Y0437868D01*
X0365387Y0438589D01*
X0365183Y0439081D01*
X0365183Y0439081D01*
X0365167Y0439096D01*
X0364363Y0439901D01*
X0365183Y0440720D01*
X0365685Y0441933D01*
X0365685Y0443246D01*
X0365483Y0443734D01*
X0365183Y0444459D01*
X0362119Y0447522D01*
X0360906Y0448025D01*
X0355323Y0448025D01*
X0354110Y0447522D01*
X0353182Y0446594D01*
X0352680Y0445381D01*
X0352680Y0444068D01*
X0353182Y0442855D01*
X0353448Y0442590D01*
X0353182Y0442324D01*
X0352680Y0441111D01*
X0352680Y0439798D01*
X0353079Y0438833D01*
X0352970Y0438568D01*
X0352680Y0437868D01*
X0352680Y0434420D01*
X0352745Y0434263D02*
X0254339Y0434263D01*
X0253141Y0433064D02*
X0353325Y0433064D01*
X0354524Y0431866D02*
X0251942Y0431866D01*
X0250744Y0430667D02*
X0354436Y0430667D01*
X0353238Y0429469D02*
X0249545Y0429469D01*
X0248347Y0428270D02*
X0352709Y0428270D01*
X0352680Y0427072D02*
X0247148Y0427072D01*
X0245950Y0425873D02*
X0352680Y0425873D01*
X0352712Y0424674D02*
X0244751Y0424674D01*
X0243553Y0423476D02*
X0353245Y0423476D01*
X0354443Y0422277D02*
X0242354Y0422277D01*
X0241156Y0421079D02*
X0356298Y0421079D01*
X0357796Y0421079D02*
X0360569Y0421079D01*
X0362066Y0421079D02*
X0391201Y0421079D01*
X0391201Y0422277D02*
X0363921Y0422277D01*
X0365120Y0423476D02*
X0391201Y0423476D01*
X0391201Y0424674D02*
X0386070Y0424674D01*
X0386202Y0424807D02*
X0386412Y0425171D01*
X0386521Y0425578D01*
X0386521Y0429189D01*
X0381521Y0429189D01*
X0381521Y0424189D01*
X0385132Y0424189D01*
X0385539Y0424298D01*
X0385904Y0424509D01*
X0386202Y0424807D01*
X0386521Y0425873D02*
X0391201Y0425873D01*
X0391201Y0427072D02*
X0386521Y0427072D01*
X0386521Y0428270D02*
X0391201Y0428270D01*
X0391201Y0429469D02*
X0381521Y0429469D01*
X0381521Y0429189D02*
X0381521Y0430389D01*
X0380321Y0430389D01*
X0380321Y0429189D01*
X0375321Y0429189D01*
X0375321Y0425578D01*
X0375430Y0425171D01*
X0375641Y0424807D01*
X0375939Y0424509D01*
X0376304Y0424298D01*
X0376711Y0424189D01*
X0380321Y0424189D01*
X0380321Y0429189D01*
X0381521Y0429189D01*
X0381521Y0428270D02*
X0380321Y0428270D01*
X0380321Y0427072D02*
X0381521Y0427072D01*
X0381521Y0425873D02*
X0380321Y0425873D01*
X0380321Y0424674D02*
X0381521Y0424674D01*
X0380321Y0429469D02*
X0365411Y0429469D01*
X0365656Y0428270D02*
X0375321Y0428270D01*
X0375321Y0427072D02*
X0365685Y0427072D01*
X0365685Y0425873D02*
X0375321Y0425873D01*
X0375773Y0424674D02*
X0365653Y0424674D01*
X0365685Y0430667D02*
X0375321Y0430667D01*
X0375321Y0430389D02*
X0375321Y0434000D01*
X0375430Y0434407D01*
X0375641Y0434771D01*
X0375939Y0435069D01*
X0376304Y0435280D01*
X0376711Y0435389D01*
X0380321Y0435389D01*
X0380321Y0430389D01*
X0375321Y0430389D01*
X0375321Y0431866D02*
X0365685Y0431866D01*
X0365456Y0433064D02*
X0375321Y0433064D01*
X0375392Y0434263D02*
X0365620Y0434263D01*
X0365685Y0435461D02*
X0391201Y0435461D01*
X0391201Y0434263D02*
X0386451Y0434263D01*
X0386412Y0434407D02*
X0386202Y0434771D01*
X0385904Y0435069D01*
X0385539Y0435280D01*
X0385132Y0435389D01*
X0381521Y0435389D01*
X0381521Y0430389D01*
X0386521Y0430389D01*
X0386521Y0434000D01*
X0386412Y0434407D01*
X0386521Y0433064D02*
X0391201Y0433064D01*
X0391201Y0431866D02*
X0386521Y0431866D01*
X0386521Y0430667D02*
X0391201Y0430667D01*
X0391201Y0436660D02*
X0365685Y0436660D01*
X0365685Y0437858D02*
X0391201Y0437858D01*
X0391201Y0439057D02*
X0365193Y0439057D01*
X0364717Y0440255D02*
X0391201Y0440255D01*
X0391201Y0441454D02*
X0365486Y0441454D01*
X0365685Y0442652D02*
X0379099Y0442652D01*
X0379529Y0442474D02*
X0376956Y0443540D01*
X0374987Y0445509D01*
X0373921Y0448082D01*
X0373921Y0450866D01*
X0374987Y0453439D01*
X0376956Y0455408D01*
X0379529Y0456474D01*
X0382314Y0456474D01*
X0384886Y0455408D01*
X0386856Y0453439D01*
X0391201Y0453439D01*
X0391201Y0454637D02*
X0385657Y0454637D01*
X0386856Y0453439D02*
X0387921Y0450866D01*
X0387921Y0448082D01*
X0386856Y0445509D01*
X0384886Y0443540D01*
X0382314Y0442474D01*
X0379529Y0442474D01*
X0376645Y0443851D02*
X0365435Y0443851D01*
X0364592Y0445049D02*
X0375447Y0445049D01*
X0374681Y0446248D02*
X0363394Y0446248D01*
X0362195Y0447446D02*
X0374184Y0447446D01*
X0373921Y0448645D02*
X0350442Y0448645D01*
X0351641Y0449843D02*
X0373921Y0449843D01*
X0373994Y0451042D02*
X0352839Y0451042D01*
X0354038Y0452240D02*
X0374490Y0452240D01*
X0374987Y0453439D02*
X0355236Y0453439D01*
X0356435Y0454637D02*
X0376185Y0454637D01*
X0377988Y0455836D02*
X0357633Y0455836D01*
X0358832Y0457034D02*
X0391201Y0457034D01*
X0391201Y0455836D02*
X0383854Y0455836D01*
X0387352Y0452240D02*
X0391201Y0452240D01*
X0391201Y0451042D02*
X0387849Y0451042D01*
X0387921Y0449843D02*
X0391201Y0449843D01*
X0391201Y0448645D02*
X0387921Y0448645D01*
X0387658Y0447446D02*
X0391201Y0447446D01*
X0391201Y0446248D02*
X0387162Y0446248D01*
X0386396Y0445049D02*
X0391201Y0445049D01*
X0391201Y0443851D02*
X0385197Y0443851D01*
X0382744Y0442652D02*
X0391201Y0442652D01*
X0381521Y0434263D02*
X0380321Y0434263D01*
X0380321Y0433064D02*
X0381521Y0433064D01*
X0381521Y0431866D02*
X0380321Y0431866D01*
X0380321Y0430667D02*
X0381521Y0430667D01*
X0391201Y0419880D02*
X0239957Y0419880D01*
X0238759Y0418682D02*
X0391201Y0418682D01*
X0391201Y0417483D02*
X0237560Y0417483D01*
X0236362Y0416285D02*
X0391201Y0416285D01*
X0391201Y0415086D02*
X0235163Y0415086D01*
X0233965Y0413888D02*
X0391201Y0413888D01*
X0391201Y0412689D02*
X0232766Y0412689D01*
X0231568Y0411491D02*
X0391201Y0411491D01*
X0391201Y0410292D02*
X0230369Y0410292D01*
X0229451Y0409094D02*
X0391201Y0409094D01*
X0391201Y0407895D02*
X0384015Y0407895D01*
X0384886Y0407534D02*
X0382314Y0408600D01*
X0379529Y0408600D01*
X0376956Y0407534D01*
X0374987Y0405565D01*
X0373921Y0402992D01*
X0373921Y0400208D01*
X0374987Y0397635D01*
X0376956Y0395666D01*
X0379529Y0394600D01*
X0382314Y0394600D01*
X0384886Y0395666D01*
X0386856Y0397635D01*
X0387921Y0400208D01*
X0387921Y0402992D01*
X0386856Y0405565D01*
X0384886Y0407534D01*
X0385724Y0406697D02*
X0391201Y0406697D01*
X0391201Y0405498D02*
X0386883Y0405498D01*
X0387380Y0404300D02*
X0391201Y0404300D01*
X0391201Y0403101D02*
X0387876Y0403101D01*
X0387921Y0401903D02*
X0391201Y0401903D01*
X0391201Y0400704D02*
X0387921Y0400704D01*
X0387631Y0399506D02*
X0391201Y0399506D01*
X0391201Y0398307D02*
X0387134Y0398307D01*
X0386329Y0397109D02*
X0391201Y0397109D01*
X0391201Y0395910D02*
X0385131Y0395910D01*
X0382583Y0394712D02*
X0391201Y0394712D01*
X0391201Y0393513D02*
X0367394Y0393513D01*
X0367394Y0392315D02*
X0391201Y0392315D01*
X0391201Y0391116D02*
X0367394Y0391116D01*
X0367394Y0389918D02*
X0391201Y0389918D01*
X0391201Y0388719D02*
X0367394Y0388719D01*
X0367394Y0387521D02*
X0391201Y0387521D01*
X0391201Y0386322D02*
X0386469Y0386322D01*
X0386521Y0386126D02*
X0386412Y0386533D01*
X0386202Y0386897D01*
X0385904Y0387195D01*
X0385539Y0387406D01*
X0385132Y0387515D01*
X0381521Y0387515D01*
X0381521Y0382515D01*
X0380321Y0382515D01*
X0380321Y0381315D01*
X0375321Y0381315D01*
X0375321Y0377704D01*
X0375430Y0377297D01*
X0375641Y0376933D01*
X0375939Y0376635D01*
X0376304Y0376424D01*
X0376711Y0376315D01*
X0380321Y0376315D01*
X0380321Y0381315D01*
X0381521Y0381315D01*
X0381521Y0376315D01*
X0385132Y0376315D01*
X0385539Y0376424D01*
X0385904Y0376635D01*
X0386202Y0376933D01*
X0386412Y0377297D01*
X0386521Y0377704D01*
X0386521Y0381315D01*
X0381521Y0381315D01*
X0381521Y0382515D01*
X0386521Y0382515D01*
X0386521Y0386126D01*
X0386521Y0385124D02*
X0391201Y0385124D01*
X0391201Y0383925D02*
X0386521Y0383925D01*
X0386521Y0382727D02*
X0391201Y0382727D01*
X0391201Y0381528D02*
X0381521Y0381528D01*
X0381521Y0380330D02*
X0380321Y0380330D01*
X0380321Y0381528D02*
X0367394Y0381528D01*
X0367394Y0380330D02*
X0375321Y0380330D01*
X0375321Y0379131D02*
X0367394Y0379131D01*
X0367394Y0377933D02*
X0375321Y0377933D01*
X0375839Y0376734D02*
X0367394Y0376734D01*
X0367394Y0375536D02*
X0391201Y0375536D01*
X0391201Y0376734D02*
X0386003Y0376734D01*
X0386521Y0377933D02*
X0391201Y0377933D01*
X0391201Y0379131D02*
X0386521Y0379131D01*
X0386521Y0380330D02*
X0391201Y0380330D01*
X0391201Y0374337D02*
X0367394Y0374337D01*
X0367394Y0373139D02*
X0391201Y0373139D01*
X0391201Y0371940D02*
X0367394Y0371940D01*
X0367394Y0370741D02*
X0391201Y0370741D01*
X0391201Y0369543D02*
X0367394Y0369543D01*
X0367394Y0368344D02*
X0391201Y0368344D01*
X0391201Y0367146D02*
X0367394Y0367146D01*
X0367394Y0365947D02*
X0391201Y0365947D01*
X0391201Y0364749D02*
X0367394Y0364749D01*
X0367394Y0363550D02*
X0391201Y0363550D01*
X0391201Y0362352D02*
X0367394Y0362352D01*
X0367394Y0361153D02*
X0391201Y0361153D01*
X0391201Y0359955D02*
X0367394Y0359955D01*
X0367394Y0358756D02*
X0377340Y0358756D01*
X0376956Y0358597D02*
X0374987Y0356628D01*
X0373921Y0354055D01*
X0373921Y0351271D01*
X0374987Y0348698D01*
X0376956Y0346729D01*
X0379529Y0345663D01*
X0382314Y0345663D01*
X0384886Y0346729D01*
X0386856Y0348698D01*
X0387921Y0351271D01*
X0387921Y0354055D01*
X0386856Y0356628D01*
X0384886Y0358597D01*
X0382314Y0359663D01*
X0379529Y0359663D01*
X0376956Y0358597D01*
X0375917Y0357558D02*
X0367394Y0357558D01*
X0367394Y0356359D02*
X0374876Y0356359D01*
X0374379Y0355161D02*
X0367394Y0355161D01*
X0367394Y0353962D02*
X0373921Y0353962D01*
X0373921Y0352764D02*
X0367394Y0352764D01*
X0367394Y0351565D02*
X0373921Y0351565D01*
X0374296Y0350367D02*
X0367394Y0350367D01*
X0367394Y0349168D02*
X0374792Y0349168D01*
X0375715Y0347970D02*
X0367394Y0347970D01*
X0367394Y0346771D02*
X0376913Y0346771D01*
X0376711Y0338578D02*
X0376304Y0338469D01*
X0375939Y0338258D01*
X0375641Y0337960D01*
X0375430Y0337596D01*
X0375321Y0337189D01*
X0375321Y0333578D01*
X0380321Y0333578D01*
X0380321Y0332378D01*
X0375321Y0332378D01*
X0375321Y0328767D01*
X0375430Y0328360D01*
X0375641Y0327996D01*
X0375939Y0327698D01*
X0376304Y0327487D01*
X0376711Y0327378D01*
X0380321Y0327378D01*
X0380321Y0332378D01*
X0381521Y0332378D01*
X0381521Y0327378D01*
X0385132Y0327378D01*
X0385539Y0327487D01*
X0385904Y0327698D01*
X0386202Y0327996D01*
X0386412Y0328360D01*
X0386521Y0328767D01*
X0386521Y0332378D01*
X0381521Y0332378D01*
X0381521Y0333578D01*
X0380321Y0333578D01*
X0380321Y0338578D01*
X0376711Y0338578D01*
X0376153Y0338382D02*
X0367394Y0338382D01*
X0367394Y0339580D02*
X0391201Y0339580D01*
X0391201Y0338382D02*
X0385690Y0338382D01*
X0385539Y0338469D02*
X0385132Y0338578D01*
X0381521Y0338578D01*
X0381521Y0333578D01*
X0386521Y0333578D01*
X0386521Y0337189D01*
X0386412Y0337596D01*
X0386202Y0337960D01*
X0385904Y0338258D01*
X0385539Y0338469D01*
X0386521Y0337183D02*
X0391201Y0337183D01*
X0391201Y0335985D02*
X0386521Y0335985D01*
X0386521Y0334786D02*
X0391201Y0334786D01*
X0391201Y0333588D02*
X0386521Y0333588D01*
X0386521Y0331191D02*
X0391201Y0331191D01*
X0391201Y0332389D02*
X0381521Y0332389D01*
X0381521Y0331191D02*
X0380321Y0331191D01*
X0380321Y0332389D02*
X0367394Y0332389D01*
X0367394Y0331191D02*
X0375321Y0331191D01*
X0375321Y0329992D02*
X0367394Y0329992D01*
X0367394Y0328794D02*
X0375321Y0328794D01*
X0376116Y0327595D02*
X0367394Y0327595D01*
X0367394Y0326397D02*
X0391201Y0326397D01*
X0391201Y0327595D02*
X0385726Y0327595D01*
X0386521Y0328794D02*
X0391201Y0328794D01*
X0391201Y0329992D02*
X0386521Y0329992D01*
X0381521Y0329992D02*
X0380321Y0329992D01*
X0380321Y0328794D02*
X0381521Y0328794D01*
X0381521Y0327595D02*
X0380321Y0327595D01*
X0380321Y0333588D02*
X0381521Y0333588D01*
X0381521Y0334786D02*
X0380321Y0334786D01*
X0380321Y0335985D02*
X0381521Y0335985D01*
X0381521Y0337183D02*
X0380321Y0337183D01*
X0380321Y0338382D02*
X0381521Y0338382D01*
X0375321Y0337183D02*
X0367394Y0337183D01*
X0367394Y0335985D02*
X0375321Y0335985D01*
X0375321Y0334786D02*
X0367394Y0334786D01*
X0367394Y0333588D02*
X0375321Y0333588D01*
X0367394Y0340779D02*
X0391201Y0340779D01*
X0391201Y0341977D02*
X0367394Y0341977D01*
X0367394Y0343176D02*
X0391201Y0343176D01*
X0391201Y0344374D02*
X0367394Y0344374D01*
X0367394Y0345573D02*
X0391201Y0345573D01*
X0391201Y0346771D02*
X0384929Y0346771D01*
X0386128Y0347970D02*
X0391201Y0347970D01*
X0391201Y0349168D02*
X0387050Y0349168D01*
X0387547Y0350367D02*
X0391201Y0350367D01*
X0391201Y0351565D02*
X0387921Y0351565D01*
X0387921Y0352764D02*
X0391201Y0352764D01*
X0391201Y0353962D02*
X0387921Y0353962D01*
X0387463Y0355161D02*
X0391201Y0355161D01*
X0391201Y0356359D02*
X0386967Y0356359D01*
X0385926Y0357558D02*
X0391201Y0357558D01*
X0391201Y0358756D02*
X0384502Y0358756D01*
X0381521Y0376734D02*
X0380321Y0376734D01*
X0380321Y0377933D02*
X0381521Y0377933D01*
X0381521Y0379131D02*
X0380321Y0379131D01*
X0380321Y0382515D02*
X0375321Y0382515D01*
X0375321Y0386126D01*
X0375430Y0386533D01*
X0375641Y0386897D01*
X0375939Y0387195D01*
X0376304Y0387406D01*
X0376711Y0387515D01*
X0380321Y0387515D01*
X0380321Y0382515D01*
X0380321Y0382727D02*
X0381521Y0382727D01*
X0381521Y0383925D02*
X0380321Y0383925D01*
X0380321Y0385124D02*
X0381521Y0385124D01*
X0381521Y0386322D02*
X0380321Y0386322D01*
X0375374Y0386322D02*
X0367394Y0386322D01*
X0367394Y0385124D02*
X0375321Y0385124D01*
X0375321Y0383925D02*
X0367394Y0383925D01*
X0367394Y0382727D02*
X0375321Y0382727D01*
X0379259Y0394712D02*
X0367394Y0394712D01*
X0367425Y0395910D02*
X0376712Y0395910D01*
X0375513Y0397109D02*
X0367311Y0397109D01*
X0366815Y0398307D02*
X0374708Y0398307D01*
X0374212Y0399506D02*
X0365830Y0399506D01*
X0363746Y0400704D02*
X0373921Y0400704D01*
X0373921Y0401903D02*
X0228958Y0401903D01*
X0230046Y0403101D02*
X0373966Y0403101D01*
X0374463Y0404300D02*
X0230543Y0404300D01*
X0230729Y0405498D02*
X0374959Y0405498D01*
X0376119Y0406697D02*
X0230729Y0406697D01*
X0230250Y0407895D02*
X0377828Y0407895D01*
X0361105Y0400704D02*
X0225766Y0400704D01*
X0224568Y0399506D02*
X0359021Y0399506D01*
X0358035Y0398307D02*
X0223369Y0398307D01*
X0222171Y0397109D02*
X0357539Y0397109D01*
X0357425Y0395910D02*
X0220972Y0395910D01*
X0219774Y0394712D02*
X0357457Y0394712D01*
X0357457Y0393513D02*
X0218575Y0393513D01*
X0217377Y0392315D02*
X0353903Y0392315D01*
X0352984Y0391116D02*
X0216178Y0391116D01*
X0214980Y0389918D02*
X0352680Y0389918D01*
X0352824Y0388719D02*
X0213781Y0388719D01*
X0212583Y0387521D02*
X0353379Y0387521D01*
X0352767Y0386322D02*
X0211384Y0386322D01*
X0210186Y0385124D02*
X0352680Y0385124D01*
X0352680Y0383925D02*
X0208987Y0383925D01*
X0207789Y0382727D02*
X0352680Y0382727D01*
X0352680Y0381528D02*
X0206590Y0381528D01*
X0205392Y0380330D02*
X0352680Y0380330D01*
X0352680Y0379131D02*
X0204193Y0379131D01*
X0202995Y0377933D02*
X0352854Y0377933D01*
X0353588Y0376734D02*
X0336794Y0376734D01*
X0339197Y0375536D02*
X0357457Y0375536D01*
X0357457Y0374337D02*
X0340396Y0374337D01*
X0341091Y0373139D02*
X0357457Y0373139D01*
X0357457Y0371940D02*
X0341587Y0371940D01*
X0341755Y0370741D02*
X0357457Y0370741D01*
X0357457Y0369543D02*
X0341755Y0369543D01*
X0341538Y0368344D02*
X0357457Y0368344D01*
X0357457Y0367146D02*
X0341041Y0367146D01*
X0340275Y0365947D02*
X0357457Y0365947D01*
X0357457Y0364749D02*
X0339077Y0364749D01*
X0336504Y0363550D02*
X0357457Y0363550D01*
X0357457Y0362352D02*
X0305402Y0362352D01*
X0306504Y0363550D02*
X0313606Y0363550D01*
X0311033Y0364749D02*
X0309077Y0364749D01*
X0306601Y0361153D02*
X0357457Y0361153D01*
X0357457Y0359955D02*
X0307799Y0359955D01*
X0308998Y0358756D02*
X0357457Y0358756D01*
X0357457Y0357558D02*
X0310196Y0357558D01*
X0311395Y0356359D02*
X0357457Y0356359D01*
X0357457Y0355161D02*
X0312593Y0355161D01*
X0313792Y0353962D02*
X0357457Y0353962D01*
X0357457Y0352764D02*
X0314990Y0352764D01*
X0316189Y0351565D02*
X0357457Y0351565D01*
X0357457Y0350367D02*
X0317387Y0350367D01*
X0318586Y0349168D02*
X0357457Y0349168D01*
X0357457Y0347970D02*
X0319784Y0347970D01*
X0320983Y0346771D02*
X0357457Y0346771D01*
X0357457Y0345573D02*
X0322181Y0345573D01*
X0323380Y0344374D02*
X0357457Y0344374D01*
X0357457Y0343176D02*
X0324578Y0343176D01*
X0325777Y0341977D02*
X0353565Y0341977D01*
X0352844Y0340779D02*
X0326975Y0340779D01*
X0328174Y0339580D02*
X0352680Y0339580D01*
X0352964Y0338382D02*
X0329372Y0338382D01*
X0330571Y0337183D02*
X0353124Y0337183D01*
X0352680Y0335985D02*
X0331770Y0335985D01*
X0332968Y0334786D02*
X0352684Y0334786D01*
X0352978Y0333588D02*
X0334167Y0333588D01*
X0335365Y0332389D02*
X0352680Y0332389D01*
X0352680Y0331191D02*
X0336564Y0331191D01*
X0337762Y0329992D02*
X0352680Y0329992D01*
X0352939Y0328794D02*
X0338961Y0328794D01*
X0340159Y0327595D02*
X0353794Y0327595D01*
X0353111Y0326397D02*
X0341358Y0326397D01*
X0342556Y0325198D02*
X0352680Y0325198D01*
X0352697Y0324000D02*
X0343755Y0324000D01*
X0344953Y0322801D02*
X0353210Y0322801D01*
X0354409Y0321603D02*
X0346152Y0321603D01*
X0347350Y0320404D02*
X0355607Y0320404D01*
X0357457Y0319205D02*
X0348549Y0319205D01*
X0349747Y0318007D02*
X0357457Y0318007D01*
X0357457Y0316808D02*
X0350946Y0316808D01*
X0352144Y0315610D02*
X0357457Y0315610D01*
X0357457Y0314411D02*
X0353343Y0314411D01*
X0354541Y0313213D02*
X0357457Y0313213D01*
X0357457Y0312014D02*
X0355740Y0312014D01*
X0356938Y0310816D02*
X0357457Y0310816D01*
X0347456Y0301228D02*
X0327384Y0301228D01*
X0327384Y0302426D02*
X0346257Y0302426D01*
X0345059Y0303625D02*
X0327384Y0303625D01*
X0327384Y0304823D02*
X0343860Y0304823D01*
X0342662Y0306022D02*
X0327384Y0306022D01*
X0327384Y0307220D02*
X0341463Y0307220D01*
X0340265Y0308419D02*
X0327384Y0308419D01*
X0327384Y0309617D02*
X0339066Y0309617D01*
X0337868Y0310816D02*
X0327384Y0310816D01*
X0327384Y0312014D02*
X0336669Y0312014D01*
X0335471Y0313213D02*
X0327482Y0313213D01*
X0327384Y0313115D02*
X0328032Y0313763D01*
X0328794Y0315601D01*
X0328794Y0317590D01*
X0328032Y0319428D01*
X0326626Y0320834D01*
X0325091Y0321470D01*
X0325327Y0322039D01*
X0325327Y0323357D01*
X0351406Y0297278D01*
X0351406Y0276259D01*
X0351952Y0274939D01*
X0353530Y0273361D01*
X0353182Y0273013D01*
X0352882Y0272289D01*
X0352680Y0271801D01*
X0352680Y0270488D01*
X0353182Y0269275D01*
X0354110Y0268347D01*
X0356245Y0266211D01*
X0357458Y0265709D01*
X0361182Y0265709D01*
X0373530Y0253362D01*
X0373409Y0253071D01*
X0373409Y0250286D01*
X0374475Y0247714D01*
X0376444Y0245744D01*
X0378331Y0244963D01*
X0365073Y0231704D01*
X0364254Y0232522D01*
X0363041Y0233025D01*
X0361729Y0233025D01*
X0360516Y0232522D01*
X0360250Y0232257D01*
X0359984Y0232522D01*
X0358771Y0233025D01*
X0356391Y0233025D01*
X0355178Y0232522D01*
X0353197Y0230542D01*
X0353182Y0230527D01*
X0353182Y0230527D01*
X0352978Y0230034D01*
X0352680Y0229314D01*
X0352680Y0225866D01*
X0353182Y0224653D01*
X0354002Y0223833D01*
X0353182Y0223013D01*
X0352882Y0222289D01*
X0352680Y0221801D01*
X0352680Y0220488D01*
X0353024Y0219656D01*
X0327384Y0194016D01*
X0327384Y0313115D01*
X0328301Y0314411D02*
X0334272Y0314411D01*
X0333074Y0315610D02*
X0328794Y0315610D01*
X0328794Y0316808D02*
X0331875Y0316808D01*
X0330677Y0318007D02*
X0328621Y0318007D01*
X0328124Y0319205D02*
X0329478Y0319205D01*
X0328280Y0320404D02*
X0327056Y0320404D01*
X0327081Y0321603D02*
X0325146Y0321603D01*
X0325327Y0322801D02*
X0325883Y0322801D01*
X0316736Y0319205D02*
X0295700Y0319205D01*
X0296196Y0320404D02*
X0316004Y0320404D01*
X0315508Y0321603D02*
X0296334Y0321603D01*
X0296334Y0322801D02*
X0315327Y0322801D01*
X0315327Y0324000D02*
X0296086Y0324000D01*
X0295048Y0318007D02*
X0316736Y0318007D01*
X0316736Y0316808D02*
X0293849Y0316808D01*
X0291550Y0315610D02*
X0316736Y0315610D01*
X0327384Y0300029D02*
X0348654Y0300029D01*
X0349853Y0298831D02*
X0327384Y0298831D01*
X0327384Y0297632D02*
X0351051Y0297632D01*
X0351406Y0296434D02*
X0327384Y0296434D01*
X0327384Y0295235D02*
X0351406Y0295235D01*
X0351406Y0294037D02*
X0327384Y0294037D01*
X0327384Y0292838D02*
X0351406Y0292838D01*
X0351406Y0291640D02*
X0327384Y0291640D01*
X0327384Y0290441D02*
X0351406Y0290441D01*
X0351406Y0289243D02*
X0327384Y0289243D01*
X0327384Y0288044D02*
X0351406Y0288044D01*
X0351406Y0286846D02*
X0327384Y0286846D01*
X0327384Y0285647D02*
X0351406Y0285647D01*
X0351406Y0284449D02*
X0327384Y0284449D01*
X0327384Y0283250D02*
X0351406Y0283250D01*
X0351406Y0282052D02*
X0327384Y0282052D01*
X0327384Y0280853D02*
X0351406Y0280853D01*
X0351406Y0279655D02*
X0327384Y0279655D01*
X0327384Y0278456D02*
X0351406Y0278456D01*
X0351406Y0277258D02*
X0327384Y0277258D01*
X0327384Y0276059D02*
X0351488Y0276059D01*
X0352031Y0274861D02*
X0327384Y0274861D01*
X0327384Y0273662D02*
X0353229Y0273662D01*
X0352954Y0272464D02*
X0327384Y0272464D01*
X0327384Y0271265D02*
X0352680Y0271265D01*
X0352854Y0270067D02*
X0327384Y0270067D01*
X0327384Y0268868D02*
X0353589Y0268868D01*
X0354787Y0267670D02*
X0327384Y0267670D01*
X0327384Y0266471D02*
X0355986Y0266471D01*
X0361619Y0265272D02*
X0327384Y0265272D01*
X0327384Y0264074D02*
X0362817Y0264074D01*
X0364016Y0262875D02*
X0327384Y0262875D01*
X0327384Y0261677D02*
X0365215Y0261677D01*
X0366413Y0260478D02*
X0327384Y0260478D01*
X0327384Y0259280D02*
X0367612Y0259280D01*
X0368810Y0258081D02*
X0327384Y0258081D01*
X0327384Y0256883D02*
X0370009Y0256883D01*
X0371207Y0255684D02*
X0327384Y0255684D01*
X0327384Y0254486D02*
X0372406Y0254486D01*
X0373499Y0253287D02*
X0327384Y0253287D01*
X0327384Y0252089D02*
X0373409Y0252089D01*
X0373409Y0250890D02*
X0327384Y0250890D01*
X0327384Y0249692D02*
X0373656Y0249692D01*
X0374152Y0248493D02*
X0327384Y0248493D01*
X0327384Y0247295D02*
X0374894Y0247295D01*
X0376092Y0246096D02*
X0327384Y0246096D01*
X0327384Y0244898D02*
X0378266Y0244898D01*
X0377068Y0243699D02*
X0327384Y0243699D01*
X0327384Y0242501D02*
X0375869Y0242501D01*
X0374671Y0241302D02*
X0327384Y0241302D01*
X0327384Y0240104D02*
X0373472Y0240104D01*
X0372274Y0238905D02*
X0327384Y0238905D01*
X0327384Y0237707D02*
X0371075Y0237707D01*
X0369877Y0236508D02*
X0327384Y0236508D01*
X0327384Y0235310D02*
X0368678Y0235310D01*
X0367480Y0234111D02*
X0327384Y0234111D01*
X0327384Y0232913D02*
X0356120Y0232913D01*
X0354370Y0231714D02*
X0327384Y0231714D01*
X0327384Y0230516D02*
X0353177Y0230516D01*
X0352681Y0229317D02*
X0327384Y0229317D01*
X0327384Y0228119D02*
X0352680Y0228119D01*
X0352680Y0226920D02*
X0327384Y0226920D01*
X0327384Y0225722D02*
X0352739Y0225722D01*
X0353312Y0224523D02*
X0327384Y0224523D01*
X0327384Y0223325D02*
X0353493Y0223325D01*
X0352814Y0222126D02*
X0327384Y0222126D01*
X0327384Y0220928D02*
X0352680Y0220928D01*
X0352994Y0219729D02*
X0327384Y0219729D01*
X0327384Y0218531D02*
X0351899Y0218531D01*
X0350701Y0217332D02*
X0327384Y0217332D01*
X0327384Y0216134D02*
X0349502Y0216134D01*
X0348304Y0214935D02*
X0327384Y0214935D01*
X0327384Y0213737D02*
X0347105Y0213737D01*
X0345907Y0212538D02*
X0327384Y0212538D01*
X0327384Y0211339D02*
X0344708Y0211339D01*
X0343510Y0210141D02*
X0327384Y0210141D01*
X0327384Y0208942D02*
X0342311Y0208942D01*
X0341113Y0207744D02*
X0327384Y0207744D01*
X0327384Y0206545D02*
X0339914Y0206545D01*
X0338716Y0205347D02*
X0327384Y0205347D01*
X0327384Y0204148D02*
X0337517Y0204148D01*
X0336319Y0202950D02*
X0327384Y0202950D01*
X0327384Y0201751D02*
X0335120Y0201751D01*
X0333922Y0200553D02*
X0327384Y0200553D01*
X0327384Y0199354D02*
X0332723Y0199354D01*
X0331525Y0198156D02*
X0327384Y0198156D01*
X0327384Y0196957D02*
X0330326Y0196957D01*
X0329127Y0195759D02*
X0327384Y0195759D01*
X0327384Y0194560D02*
X0327929Y0194560D01*
X0333291Y0189766D02*
X0384589Y0189766D01*
X0384589Y0188568D02*
X0332092Y0188568D01*
X0330894Y0187369D02*
X0375592Y0187369D01*
X0375427Y0187274D02*
X0375129Y0186976D01*
X0374918Y0186611D01*
X0374809Y0186204D01*
X0374809Y0182594D01*
X0379809Y0182594D01*
X0379809Y0187594D01*
X0376199Y0187594D01*
X0375792Y0187485D01*
X0375427Y0187274D01*
X0374809Y0186171D02*
X0330851Y0186171D01*
X0330851Y0184972D02*
X0374809Y0184972D01*
X0374809Y0183774D02*
X0330851Y0183774D01*
X0330851Y0182575D02*
X0355305Y0182575D01*
X0355178Y0182522D02*
X0353182Y0180527D01*
X0352970Y0180014D01*
X0352680Y0179314D01*
X0352680Y0175866D01*
X0353182Y0174653D01*
X0354002Y0173833D01*
X0353182Y0173013D01*
X0352882Y0172289D01*
X0352680Y0171801D01*
X0352680Y0170488D01*
X0353182Y0169275D01*
X0354110Y0168347D01*
X0356245Y0166211D01*
X0357458Y0165709D01*
X0359839Y0165709D01*
X0363041Y0165709D01*
X0364254Y0166211D01*
X0365183Y0167140D01*
X0365685Y0168353D01*
X0365685Y0169665D01*
X0365183Y0170878D01*
X0364917Y0171144D01*
X0365183Y0171410D01*
X0365685Y0172623D01*
X0365685Y0173936D01*
X0365285Y0174901D01*
X0365685Y0175866D01*
X0365685Y0179314D01*
X0365387Y0180034D01*
X0365183Y0180527D01*
X0365167Y0180542D01*
X0363187Y0182522D01*
X0361974Y0183025D01*
X0359593Y0183025D01*
X0359182Y0182854D01*
X0358771Y0183025D01*
X0356391Y0183025D01*
X0355178Y0182522D01*
X0354032Y0181377D02*
X0330851Y0181377D01*
X0330851Y0180178D02*
X0353038Y0180178D01*
X0352680Y0178980D02*
X0330851Y0178980D01*
X0330851Y0177781D02*
X0352680Y0177781D01*
X0352680Y0176583D02*
X0330851Y0176583D01*
X0330851Y0175384D02*
X0352879Y0175384D01*
X0353649Y0174186D02*
X0330851Y0174186D01*
X0330851Y0172987D02*
X0353171Y0172987D01*
X0352680Y0171789D02*
X0330851Y0171789D01*
X0330851Y0170590D02*
X0352680Y0170590D01*
X0353134Y0169392D02*
X0330851Y0169392D01*
X0330851Y0168193D02*
X0354264Y0168193D01*
X0355462Y0166995D02*
X0330851Y0166995D01*
X0330851Y0165796D02*
X0357248Y0165796D01*
X0363252Y0165796D02*
X0384589Y0165796D01*
X0384589Y0164598D02*
X0330851Y0164598D01*
X0330851Y0163399D02*
X0384589Y0163399D01*
X0384224Y0162201D02*
X0330851Y0162201D01*
X0330851Y0161002D02*
X0383025Y0161002D01*
X0381826Y0159803D02*
X0381505Y0159803D01*
X0378448Y0159803D02*
X0330619Y0159803D01*
X0329865Y0158605D02*
X0375822Y0158605D01*
X0374624Y0157406D02*
X0328666Y0157406D01*
X0327468Y0156208D02*
X0373786Y0156208D01*
X0373290Y0155009D02*
X0326269Y0155009D01*
X0325071Y0153811D02*
X0372976Y0153811D01*
X0372976Y0152612D02*
X0323872Y0152612D01*
X0322674Y0151414D02*
X0372999Y0151414D01*
X0373495Y0150215D02*
X0321475Y0150215D01*
X0320277Y0149017D02*
X0373991Y0149017D01*
X0375118Y0147818D02*
X0319078Y0147818D01*
X0317880Y0146620D02*
X0376749Y0146620D01*
X0383204Y0146620D02*
X0391201Y0146620D01*
X0391201Y0147818D02*
X0384834Y0147818D01*
X0385961Y0149017D02*
X0391201Y0149017D01*
X0391201Y0150215D02*
X0386458Y0150215D01*
X0386954Y0151414D02*
X0391201Y0151414D01*
X0391201Y0152612D02*
X0386976Y0152612D01*
X0386976Y0153811D02*
X0391201Y0153811D01*
X0391201Y0155009D02*
X0387188Y0155009D01*
X0388387Y0156208D02*
X0391201Y0156208D01*
X0391201Y0157406D02*
X0389585Y0157406D01*
X0390784Y0158605D02*
X0391201Y0158605D01*
X0384589Y0166995D02*
X0365037Y0166995D01*
X0365619Y0168193D02*
X0384589Y0168193D01*
X0384589Y0169392D02*
X0365685Y0169392D01*
X0365302Y0170590D02*
X0384589Y0170590D01*
X0384589Y0171789D02*
X0365339Y0171789D01*
X0365685Y0172987D02*
X0384589Y0172987D01*
X0384589Y0174186D02*
X0365582Y0174186D01*
X0365486Y0175384D02*
X0384589Y0175384D01*
X0381009Y0176583D02*
X0379809Y0176583D01*
X0379809Y0177781D02*
X0381009Y0177781D01*
X0381009Y0178980D02*
X0379809Y0178980D01*
X0379809Y0180178D02*
X0381009Y0180178D01*
X0381009Y0181377D02*
X0379809Y0181377D01*
X0379809Y0182575D02*
X0363059Y0182575D01*
X0364332Y0181377D02*
X0374809Y0181377D01*
X0374809Y0180178D02*
X0365327Y0180178D01*
X0365183Y0180527D02*
X0365183Y0180527D01*
X0365685Y0178980D02*
X0374809Y0178980D01*
X0374810Y0177781D02*
X0365685Y0177781D01*
X0365685Y0176583D02*
X0375653Y0176583D01*
X0379809Y0183774D02*
X0381009Y0183774D01*
X0381009Y0184972D02*
X0379809Y0184972D01*
X0379809Y0186171D02*
X0381009Y0186171D01*
X0381009Y0187369D02*
X0379809Y0187369D01*
X0384589Y0190965D02*
X0334489Y0190965D01*
X0335688Y0192163D02*
X0384589Y0192163D01*
X0384589Y0193362D02*
X0336886Y0193362D01*
X0338085Y0194560D02*
X0384589Y0194560D01*
X0384589Y0195759D02*
X0384389Y0195759D01*
X0376430Y0195759D02*
X0339283Y0195759D01*
X0340482Y0196957D02*
X0375231Y0196957D01*
X0374292Y0198156D02*
X0341680Y0198156D01*
X0342879Y0199354D02*
X0373795Y0199354D01*
X0373409Y0200553D02*
X0344077Y0200553D01*
X0345276Y0201751D02*
X0373409Y0201751D01*
X0373409Y0202950D02*
X0346474Y0202950D01*
X0347673Y0204148D02*
X0373856Y0204148D01*
X0374352Y0205347D02*
X0348871Y0205347D01*
X0350070Y0206545D02*
X0375377Y0206545D01*
X0376760Y0207744D02*
X0351268Y0207744D01*
X0352467Y0208942D02*
X0384589Y0208942D01*
X0384589Y0207744D02*
X0384059Y0207744D01*
X0384589Y0210141D02*
X0353665Y0210141D01*
X0354864Y0211339D02*
X0384589Y0211339D01*
X0384589Y0212538D02*
X0356062Y0212538D01*
X0357261Y0213737D02*
X0384589Y0213737D01*
X0384589Y0214935D02*
X0358459Y0214935D01*
X0364066Y0216134D02*
X0384589Y0216134D01*
X0384589Y0217332D02*
X0365262Y0217332D01*
X0365685Y0218531D02*
X0384589Y0218531D01*
X0384589Y0219729D02*
X0365659Y0219729D01*
X0365133Y0220928D02*
X0384589Y0220928D01*
X0384589Y0222126D02*
X0365650Y0222126D01*
X0366849Y0223325D02*
X0384589Y0223325D01*
X0384589Y0224523D02*
X0368047Y0224523D01*
X0369246Y0225722D02*
X0384589Y0225722D01*
X0381009Y0226920D02*
X0379809Y0226920D01*
X0379809Y0228119D02*
X0381009Y0228119D01*
X0381009Y0229317D02*
X0379809Y0229317D01*
X0379809Y0230516D02*
X0381009Y0230516D01*
X0375220Y0226920D02*
X0370444Y0226920D01*
X0371643Y0228119D02*
X0374809Y0228119D01*
X0374809Y0229317D02*
X0372841Y0229317D01*
X0374040Y0230516D02*
X0374809Y0230516D01*
X0366281Y0232913D02*
X0363312Y0232913D01*
X0361458Y0232913D02*
X0359042Y0232913D01*
X0365063Y0231714D02*
X0365083Y0231714D01*
X0381118Y0237594D02*
X0384589Y0237594D01*
X0384589Y0241065D01*
X0381118Y0237594D01*
X0381231Y0237707D02*
X0384589Y0237707D01*
X0384589Y0238905D02*
X0382429Y0238905D01*
X0383628Y0240104D02*
X0384589Y0240104D01*
X0390020Y0262875D02*
X0391201Y0262875D01*
X0391201Y0264074D02*
X0388822Y0264074D01*
X0387623Y0265272D02*
X0391201Y0265272D01*
X0391201Y0266471D02*
X0386425Y0266471D01*
X0385226Y0267670D02*
X0391201Y0267670D01*
X0391201Y0268868D02*
X0384028Y0268868D01*
X0382829Y0270067D02*
X0391201Y0270067D01*
X0391201Y0271265D02*
X0381631Y0271265D01*
X0380432Y0272464D02*
X0391201Y0272464D01*
X0391201Y0273662D02*
X0379234Y0273662D01*
X0378035Y0274861D02*
X0391201Y0274861D01*
X0391201Y0276059D02*
X0376837Y0276059D01*
X0374809Y0278456D02*
X0374440Y0278456D01*
X0374809Y0279655D02*
X0373241Y0279655D01*
X0372043Y0280853D02*
X0374809Y0280853D01*
X0374809Y0282594D02*
X0379809Y0282594D01*
X0379809Y0281394D01*
X0381009Y0281394D01*
X0381009Y0276394D01*
X0384620Y0276394D01*
X0385027Y0276503D01*
X0385392Y0276713D01*
X0385690Y0277011D01*
X0385900Y0277376D01*
X0386009Y0277783D01*
X0386009Y0281394D01*
X0381009Y0281394D01*
X0381009Y0282594D01*
X0379809Y0282594D01*
X0379809Y0287594D01*
X0376199Y0287594D01*
X0375792Y0287485D01*
X0375427Y0287274D01*
X0375129Y0286976D01*
X0374918Y0286611D01*
X0374809Y0286204D01*
X0374809Y0282594D01*
X0374809Y0283250D02*
X0369646Y0283250D01*
X0370844Y0282052D02*
X0379809Y0282052D01*
X0379809Y0283250D02*
X0381009Y0283250D01*
X0381009Y0282594D02*
X0381009Y0287594D01*
X0384620Y0287594D01*
X0385027Y0287485D01*
X0385392Y0287274D01*
X0385690Y0286976D01*
X0385900Y0286611D01*
X0386009Y0286204D01*
X0386009Y0282594D01*
X0381009Y0282594D01*
X0381009Y0282052D02*
X0391201Y0282052D01*
X0391201Y0283250D02*
X0386009Y0283250D01*
X0386009Y0284449D02*
X0391201Y0284449D01*
X0391201Y0285647D02*
X0386009Y0285647D01*
X0385765Y0286846D02*
X0391201Y0286846D01*
X0391201Y0288044D02*
X0364852Y0288044D01*
X0366050Y0286846D02*
X0375054Y0286846D01*
X0374809Y0285647D02*
X0367249Y0285647D01*
X0368447Y0284449D02*
X0374809Y0284449D01*
X0379017Y0294679D02*
X0381802Y0294679D01*
X0384375Y0295744D01*
X0386344Y0297714D01*
X0387409Y0300286D01*
X0387409Y0303071D01*
X0386344Y0305644D01*
X0384375Y0307613D01*
X0381802Y0308679D01*
X0379017Y0308679D01*
X0376444Y0307613D01*
X0374475Y0305644D01*
X0373409Y0303071D01*
X0373409Y0300286D01*
X0374475Y0297714D01*
X0376444Y0295744D01*
X0379017Y0294679D01*
X0377673Y0295235D02*
X0366461Y0295235D01*
X0367077Y0296434D02*
X0375755Y0296434D01*
X0374556Y0297632D02*
X0367425Y0297632D01*
X0367425Y0298831D02*
X0374012Y0298831D01*
X0373516Y0300029D02*
X0367394Y0300029D01*
X0367394Y0301228D02*
X0373409Y0301228D01*
X0373409Y0302426D02*
X0367394Y0302426D01*
X0367394Y0303625D02*
X0373639Y0303625D01*
X0374135Y0304823D02*
X0367394Y0304823D01*
X0367394Y0306022D02*
X0374853Y0306022D01*
X0376052Y0307220D02*
X0367394Y0307220D01*
X0367394Y0308419D02*
X0378390Y0308419D01*
X0382429Y0308419D02*
X0391201Y0308419D01*
X0391201Y0309617D02*
X0367394Y0309617D01*
X0367394Y0310816D02*
X0391201Y0310816D01*
X0391201Y0312014D02*
X0367394Y0312014D01*
X0367394Y0313213D02*
X0391201Y0313213D01*
X0391201Y0314411D02*
X0367394Y0314411D01*
X0367394Y0315610D02*
X0391201Y0315610D01*
X0391201Y0316808D02*
X0367394Y0316808D01*
X0367394Y0318007D02*
X0391201Y0318007D01*
X0391201Y0319205D02*
X0367394Y0319205D01*
X0367394Y0320404D02*
X0391201Y0320404D01*
X0391201Y0321603D02*
X0367394Y0321603D01*
X0367394Y0322801D02*
X0391201Y0322801D01*
X0391201Y0324000D02*
X0367394Y0324000D01*
X0367394Y0325198D02*
X0391201Y0325198D01*
X0391201Y0307220D02*
X0384767Y0307220D01*
X0385966Y0306022D02*
X0391201Y0306022D01*
X0391201Y0304823D02*
X0386684Y0304823D01*
X0387180Y0303625D02*
X0391201Y0303625D01*
X0391201Y0302426D02*
X0387409Y0302426D01*
X0387409Y0301228D02*
X0391201Y0301228D01*
X0391201Y0300029D02*
X0387303Y0300029D01*
X0386807Y0298831D02*
X0391201Y0298831D01*
X0391201Y0297632D02*
X0386262Y0297632D01*
X0385064Y0296434D02*
X0391201Y0296434D01*
X0391201Y0295235D02*
X0383145Y0295235D01*
X0381009Y0286846D02*
X0379809Y0286846D01*
X0379809Y0285647D02*
X0381009Y0285647D01*
X0381009Y0284449D02*
X0379809Y0284449D01*
X0379809Y0280853D02*
X0381009Y0280853D01*
X0381009Y0279655D02*
X0379809Y0279655D01*
X0379809Y0278456D02*
X0381009Y0278456D01*
X0381009Y0277258D02*
X0379809Y0277258D01*
X0385832Y0277258D02*
X0391201Y0277258D01*
X0391201Y0278456D02*
X0386009Y0278456D01*
X0386009Y0279655D02*
X0391201Y0279655D01*
X0391201Y0280853D02*
X0386009Y0280853D01*
X0391201Y0289243D02*
X0363653Y0289243D01*
X0362549Y0290441D02*
X0391201Y0290441D01*
X0391201Y0291640D02*
X0362549Y0291640D01*
X0362549Y0292838D02*
X0391201Y0292838D01*
X0391201Y0294037D02*
X0365263Y0294037D01*
X0333606Y0363550D02*
X0326504Y0363550D01*
X0329077Y0364749D02*
X0331033Y0364749D01*
X0323606Y0363550D02*
X0316504Y0363550D01*
X0319077Y0364749D02*
X0321033Y0364749D01*
X0320913Y0375536D02*
X0319197Y0375536D01*
X0316794Y0376734D02*
X0323316Y0376734D01*
X0326794Y0376734D02*
X0333316Y0376734D01*
X0330913Y0375536D02*
X0329197Y0375536D01*
X0313316Y0376734D02*
X0306794Y0376734D01*
X0309197Y0375536D02*
X0310913Y0375536D01*
X0303316Y0376734D02*
X0296794Y0376734D01*
X0299197Y0375536D02*
X0300913Y0375536D01*
X0293316Y0376734D02*
X0286794Y0376734D01*
X0289197Y0375536D02*
X0290913Y0375536D01*
X0283316Y0376734D02*
X0276794Y0376734D01*
X0279197Y0375536D02*
X0280913Y0375536D01*
X0280055Y0365727D02*
X0281260Y0364522D01*
X0283722Y0363502D01*
X0286388Y0363502D01*
X0287636Y0364019D01*
X0315621Y0336035D01*
X0276744Y0336035D01*
X0248430Y0364348D01*
X0248850Y0364522D01*
X0250055Y0365727D01*
X0251260Y0364522D01*
X0253722Y0363502D01*
X0256388Y0363502D01*
X0258850Y0364522D01*
X0260055Y0365727D01*
X0261260Y0364522D01*
X0263722Y0363502D01*
X0266388Y0363502D01*
X0268850Y0364522D01*
X0270055Y0365727D01*
X0271260Y0364522D01*
X0273722Y0363502D01*
X0276388Y0363502D01*
X0278850Y0364522D01*
X0280055Y0365727D01*
X0279077Y0364749D02*
X0281033Y0364749D01*
X0283606Y0363550D02*
X0276504Y0363550D01*
X0273606Y0363550D02*
X0266504Y0363550D01*
X0269077Y0364749D02*
X0271033Y0364749D01*
X0270913Y0375536D02*
X0269197Y0375536D01*
X0266794Y0376734D02*
X0273316Y0376734D01*
X0263316Y0376734D02*
X0256794Y0376734D01*
X0259197Y0375536D02*
X0260913Y0375536D01*
X0253316Y0376734D02*
X0246794Y0376734D01*
X0249197Y0375536D02*
X0250913Y0375536D01*
X0251033Y0364749D02*
X0249077Y0364749D01*
X0249228Y0363550D02*
X0253606Y0363550D01*
X0256504Y0363550D02*
X0263606Y0363550D01*
X0261033Y0364749D02*
X0259077Y0364749D01*
X0254022Y0358756D02*
X0292899Y0358756D01*
X0294097Y0357558D02*
X0255221Y0357558D01*
X0256419Y0356359D02*
X0295296Y0356359D01*
X0296494Y0355161D02*
X0257618Y0355161D01*
X0258816Y0353962D02*
X0297693Y0353962D01*
X0298891Y0352764D02*
X0260015Y0352764D01*
X0261213Y0351565D02*
X0300090Y0351565D01*
X0301288Y0350367D02*
X0262412Y0350367D01*
X0263610Y0349168D02*
X0302487Y0349168D01*
X0303685Y0347970D02*
X0264809Y0347970D01*
X0266007Y0346771D02*
X0304884Y0346771D01*
X0306083Y0345573D02*
X0267206Y0345573D01*
X0268404Y0344374D02*
X0307281Y0344374D01*
X0308480Y0343176D02*
X0269603Y0343176D01*
X0270801Y0341977D02*
X0309678Y0341977D01*
X0310877Y0340779D02*
X0272000Y0340779D01*
X0273198Y0339580D02*
X0312075Y0339580D01*
X0313274Y0338382D02*
X0274397Y0338382D01*
X0275595Y0337183D02*
X0314472Y0337183D01*
X0291700Y0359955D02*
X0252824Y0359955D01*
X0251625Y0361153D02*
X0290502Y0361153D01*
X0289303Y0362352D02*
X0250427Y0362352D01*
X0245065Y0357558D02*
X0199108Y0357558D01*
X0199108Y0358756D02*
X0243867Y0358756D01*
X0242668Y0359955D02*
X0199108Y0359955D01*
X0199108Y0361153D02*
X0241470Y0361153D01*
X0240271Y0362352D02*
X0199108Y0362352D01*
X0199108Y0363550D02*
X0203606Y0363550D01*
X0201033Y0364749D02*
X0199108Y0364749D01*
X0199108Y0365947D02*
X0199835Y0365947D01*
X0199715Y0374337D02*
X0199399Y0374337D01*
X0200598Y0375536D02*
X0200913Y0375536D01*
X0201796Y0376734D02*
X0203316Y0376734D01*
X0206794Y0376734D02*
X0213316Y0376734D01*
X0210913Y0375536D02*
X0209197Y0375536D01*
X0209077Y0364749D02*
X0211033Y0364749D01*
X0213606Y0363550D02*
X0206504Y0363550D01*
X0216504Y0363550D02*
X0223606Y0363550D01*
X0221033Y0364749D02*
X0219077Y0364749D01*
X0226504Y0363550D02*
X0233606Y0363550D01*
X0231033Y0364749D02*
X0229077Y0364749D01*
X0229197Y0375536D02*
X0230913Y0375536D01*
X0233316Y0376734D02*
X0226794Y0376734D01*
X0223316Y0376734D02*
X0216794Y0376734D01*
X0219197Y0375536D02*
X0220913Y0375536D01*
X0236794Y0376734D02*
X0243316Y0376734D01*
X0240913Y0375536D02*
X0239197Y0375536D01*
X0239073Y0363550D02*
X0236504Y0363550D01*
X0246264Y0356359D02*
X0199108Y0356359D01*
X0199108Y0355161D02*
X0247462Y0355161D01*
X0248661Y0353962D02*
X0199108Y0353962D01*
X0199108Y0352764D02*
X0249859Y0352764D01*
X0251058Y0351565D02*
X0199108Y0351565D01*
X0199108Y0350367D02*
X0252256Y0350367D01*
X0253455Y0349168D02*
X0199108Y0349168D01*
X0199108Y0347970D02*
X0254653Y0347970D01*
X0255852Y0346771D02*
X0199108Y0346771D01*
X0199108Y0345573D02*
X0257050Y0345573D01*
X0258249Y0344374D02*
X0199108Y0344374D01*
X0199108Y0343176D02*
X0259447Y0343176D01*
X0260646Y0341977D02*
X0199108Y0341977D01*
X0199108Y0340779D02*
X0261844Y0340779D01*
X0263043Y0339580D02*
X0199108Y0339580D01*
X0199108Y0338382D02*
X0264241Y0338382D01*
X0265440Y0337183D02*
X0199108Y0337183D01*
X0199108Y0335985D02*
X0266638Y0335985D01*
X0267837Y0334786D02*
X0199108Y0334786D01*
X0199108Y0333588D02*
X0269035Y0333588D01*
X0270234Y0332389D02*
X0199108Y0332389D01*
X0199108Y0331191D02*
X0271432Y0331191D01*
X0272631Y0329992D02*
X0199108Y0329992D01*
X0170773Y0364749D02*
X0078287Y0364749D01*
X0078685Y0365947D02*
X0171971Y0365947D01*
X0173170Y0367146D02*
X0078685Y0367146D01*
X0078685Y0368344D02*
X0174368Y0368344D01*
X0175567Y0369543D02*
X0078415Y0369543D01*
X0077919Y0370741D02*
X0176765Y0370741D01*
X0177964Y0371940D02*
X0077359Y0371940D01*
X0076160Y0373139D02*
X0179162Y0373139D01*
X0180361Y0374337D02*
X0074601Y0374337D01*
X0077791Y0363550D02*
X0169574Y0363550D01*
X0168376Y0362352D02*
X0077051Y0362352D01*
X0075852Y0361153D02*
X0167177Y0361153D01*
X0165979Y0359955D02*
X0073857Y0359955D01*
X0061796Y0358756D02*
X0164780Y0358756D01*
X0163582Y0357558D02*
X0061796Y0357558D01*
X0061796Y0356359D02*
X0162383Y0356359D01*
X0161185Y0355161D02*
X0061796Y0355161D01*
X0061796Y0353962D02*
X0159986Y0353962D01*
X0158788Y0352764D02*
X0061796Y0352764D01*
X0061796Y0351565D02*
X0157589Y0351565D01*
X0156391Y0350367D02*
X0061796Y0350367D01*
X0061796Y0349168D02*
X0155192Y0349168D01*
X0153994Y0347970D02*
X0061796Y0347970D01*
X0061796Y0346771D02*
X0152795Y0346771D01*
X0151597Y0345573D02*
X0061796Y0345573D01*
X0061796Y0344374D02*
X0150398Y0344374D01*
X0149200Y0343176D02*
X0061796Y0343176D01*
X0061796Y0341977D02*
X0148001Y0341977D01*
X0146803Y0340779D02*
X0061796Y0340779D01*
X0061796Y0339580D02*
X0145604Y0339580D01*
X0144406Y0338382D02*
X0061796Y0338382D01*
X0061796Y0337183D02*
X0143207Y0337183D01*
X0142009Y0335985D02*
X0061796Y0335985D01*
X0061796Y0334786D02*
X0140810Y0334786D01*
X0139612Y0333588D02*
X0061796Y0333588D01*
X0061796Y0332389D02*
X0138413Y0332389D01*
X0137215Y0331191D02*
X0061796Y0331191D01*
X0061796Y0329992D02*
X0136016Y0329992D01*
X0134817Y0328794D02*
X0061796Y0328794D01*
X0061796Y0327595D02*
X0133619Y0327595D01*
X0132420Y0326397D02*
X0061796Y0326397D01*
X0061796Y0325198D02*
X0131222Y0325198D01*
X0130023Y0324000D02*
X0061796Y0324000D01*
X0061796Y0322801D02*
X0128825Y0322801D01*
X0127626Y0321603D02*
X0061796Y0321603D01*
X0061796Y0320404D02*
X0126428Y0320404D01*
X0125229Y0319205D02*
X0061796Y0319205D01*
X0061796Y0318007D02*
X0124031Y0318007D01*
X0122832Y0316808D02*
X0061796Y0316808D01*
X0061796Y0315610D02*
X0121634Y0315610D01*
X0120435Y0314411D02*
X0061796Y0314411D01*
X0061796Y0313213D02*
X0119237Y0313213D01*
X0118038Y0312014D02*
X0061796Y0312014D01*
X0061796Y0310816D02*
X0072796Y0310816D01*
X0071196Y0309617D02*
X0061796Y0309617D01*
X0061796Y0308419D02*
X0070691Y0308419D01*
X0070680Y0307220D02*
X0061796Y0307220D01*
X0061796Y0306022D02*
X0071117Y0306022D01*
X0070971Y0304823D02*
X0061796Y0304823D01*
X0061796Y0303625D02*
X0070680Y0303625D01*
X0070837Y0302426D02*
X0061796Y0302426D01*
X0061796Y0301228D02*
X0070825Y0301228D01*
X0070680Y0300029D02*
X0061796Y0300029D01*
X0061796Y0298831D02*
X0070680Y0298831D01*
X0070680Y0297632D02*
X0061796Y0297632D01*
X0061796Y0296434D02*
X0071092Y0296434D01*
X0071840Y0295235D02*
X0061796Y0295235D01*
X0061796Y0294037D02*
X0070958Y0294037D01*
X0070680Y0292838D02*
X0061796Y0292838D01*
X0061796Y0291640D02*
X0070850Y0291640D01*
X0071580Y0290441D02*
X0061917Y0290441D01*
X0061917Y0289243D02*
X0072551Y0289243D01*
X0071146Y0288044D02*
X0061917Y0288044D01*
X0061917Y0286846D02*
X0070680Y0286846D01*
X0070680Y0285647D02*
X0061939Y0285647D01*
X0061917Y0284449D02*
X0071159Y0284449D01*
X0070879Y0283250D02*
X0061917Y0283250D01*
X0061917Y0282052D02*
X0070635Y0282052D01*
X0070834Y0280853D02*
X0061726Y0280853D01*
X0060904Y0279655D02*
X0071547Y0279655D01*
X0072477Y0278456D02*
X0043870Y0278456D01*
X0043870Y0277258D02*
X0071133Y0277258D01*
X0070680Y0276059D02*
X0043870Y0276059D01*
X0043870Y0274861D02*
X0070680Y0274861D01*
X0071172Y0273662D02*
X0043870Y0273662D01*
X0043870Y0272464D02*
X0051684Y0272464D01*
X0050952Y0272160D02*
X0048983Y0270191D01*
X0047917Y0267618D01*
X0047917Y0264834D01*
X0048983Y0262261D01*
X0050952Y0260292D01*
X0053525Y0259226D01*
X0056310Y0259226D01*
X0058882Y0260292D01*
X0060852Y0262261D01*
X0061917Y0264834D01*
X0061917Y0267618D01*
X0060852Y0270191D01*
X0058882Y0272160D01*
X0056310Y0273226D01*
X0053525Y0273226D01*
X0050952Y0272160D01*
X0050057Y0271265D02*
X0043870Y0271265D01*
X0043870Y0270067D02*
X0048931Y0270067D01*
X0048435Y0268868D02*
X0043870Y0268868D01*
X0043870Y0267670D02*
X0047939Y0267670D01*
X0047917Y0266471D02*
X0043870Y0266471D01*
X0043870Y0265272D02*
X0047917Y0265272D01*
X0048232Y0264074D02*
X0043870Y0264074D01*
X0043870Y0262875D02*
X0048728Y0262875D01*
X0049567Y0261677D02*
X0043870Y0261677D01*
X0043870Y0260478D02*
X0050765Y0260478D01*
X0053395Y0259280D02*
X0043870Y0259280D01*
X0043870Y0258081D02*
X0064105Y0258081D01*
X0062907Y0256883D02*
X0043870Y0256883D01*
X0043870Y0255684D02*
X0061708Y0255684D01*
X0060510Y0254486D02*
X0043870Y0254486D01*
X0043870Y0253287D02*
X0059311Y0253287D01*
X0058113Y0252089D02*
X0043870Y0252089D01*
X0043870Y0250890D02*
X0056914Y0250890D01*
X0055716Y0249692D02*
X0043870Y0249692D01*
X0043870Y0248493D02*
X0054517Y0248493D01*
X0053319Y0247295D02*
X0043870Y0247295D01*
X0043870Y0246096D02*
X0052120Y0246096D01*
X0050922Y0244898D02*
X0043870Y0244898D01*
X0043870Y0243699D02*
X0049723Y0243699D01*
X0048525Y0242501D02*
X0043870Y0242501D01*
X0043870Y0241302D02*
X0047326Y0241302D01*
X0046164Y0240104D02*
X0043870Y0240104D01*
X0043870Y0238905D02*
X0045667Y0238905D01*
X0045433Y0237707D02*
X0043870Y0237707D01*
X0043870Y0236508D02*
X0045067Y0236508D01*
X0044717Y0235310D02*
X0043870Y0235310D01*
X0043870Y0234111D02*
X0044717Y0234111D01*
X0044937Y0232913D02*
X0043870Y0232913D01*
X0043870Y0231714D02*
X0045433Y0231714D01*
X0046444Y0230516D02*
X0043870Y0230516D01*
X0043870Y0229317D02*
X0047014Y0229317D01*
X0045816Y0228119D02*
X0043870Y0228119D01*
X0043870Y0226920D02*
X0045173Y0226920D01*
X0044717Y0225722D02*
X0043870Y0225722D01*
X0043870Y0224523D02*
X0044717Y0224523D01*
X0044831Y0223325D02*
X0043870Y0223325D01*
X0043870Y0222126D02*
X0045328Y0222126D01*
X0046190Y0220928D02*
X0043870Y0220928D01*
X0043870Y0219729D02*
X0047460Y0219729D01*
X0046070Y0218531D02*
X0043870Y0218531D01*
X0043870Y0217332D02*
X0045278Y0217332D01*
X0044782Y0216134D02*
X0043870Y0216134D01*
X0043870Y0214935D02*
X0044717Y0214935D01*
X0044726Y0213737D02*
X0043870Y0213737D01*
X0043870Y0212538D02*
X0045222Y0212538D01*
X0045936Y0211339D02*
X0043870Y0211339D01*
X0043870Y0210141D02*
X0047135Y0210141D01*
X0043870Y0204148D02*
X0127046Y0204148D01*
X0127046Y0202950D02*
X0043870Y0202950D01*
X0043870Y0201751D02*
X0127046Y0201751D01*
X0127046Y0200553D02*
X0043870Y0200553D01*
X0043870Y0199354D02*
X0127046Y0199354D01*
X0127046Y0198156D02*
X0043870Y0198156D01*
X0043870Y0196957D02*
X0127046Y0196957D01*
X0127046Y0195759D02*
X0043870Y0195759D01*
X0043870Y0194560D02*
X0127046Y0194560D01*
X0127046Y0193362D02*
X0043870Y0193362D01*
X0043870Y0192163D02*
X0127046Y0192163D01*
X0127046Y0190965D02*
X0043870Y0190965D01*
X0043870Y0189766D02*
X0127046Y0189766D01*
X0127046Y0188568D02*
X0043870Y0188568D01*
X0043870Y0187369D02*
X0049575Y0187369D01*
X0049604Y0187477D02*
X0049494Y0187070D01*
X0049494Y0183460D01*
X0054494Y0183460D01*
X0054494Y0188460D01*
X0050884Y0188460D01*
X0050477Y0188351D01*
X0050112Y0188140D01*
X0049814Y0187842D01*
X0049604Y0187477D01*
X0049494Y0186171D02*
X0043870Y0186171D01*
X0043870Y0184972D02*
X0049494Y0184972D01*
X0049494Y0183774D02*
X0043870Y0183774D01*
X0043870Y0182575D02*
X0054494Y0182575D01*
X0054494Y0181377D02*
X0055694Y0181377D01*
X0055695Y0182575D02*
X0071023Y0182575D01*
X0071065Y0181377D02*
X0060694Y0181377D01*
X0060694Y0180178D02*
X0070680Y0180178D01*
X0070744Y0178980D02*
X0060694Y0178980D01*
X0060279Y0177781D02*
X0070918Y0177781D01*
X0070680Y0176583D02*
X0043870Y0176583D01*
X0043870Y0177781D02*
X0049910Y0177781D01*
X0049494Y0178980D02*
X0043870Y0178980D01*
X0043870Y0180178D02*
X0049494Y0180178D01*
X0049494Y0181377D02*
X0043870Y0181377D01*
X0043870Y0175384D02*
X0070680Y0175384D01*
X0070680Y0174186D02*
X0043870Y0174186D01*
X0043870Y0172987D02*
X0070998Y0172987D01*
X0071937Y0171789D02*
X0043870Y0171789D01*
X0043870Y0170590D02*
X0071052Y0170590D01*
X0070680Y0169392D02*
X0058378Y0169392D01*
X0059976Y0168193D02*
X0070756Y0168193D01*
X0071353Y0166995D02*
X0061089Y0166995D01*
X0061585Y0165796D02*
X0072552Y0165796D01*
X0070680Y0183774D02*
X0060694Y0183774D01*
X0060694Y0184972D02*
X0070785Y0184972D01*
X0071422Y0186171D02*
X0060694Y0186171D01*
X0055694Y0186171D02*
X0054494Y0186171D01*
X0054494Y0187369D02*
X0055694Y0187369D01*
X0055694Y0184972D02*
X0054494Y0184972D01*
X0054494Y0183774D02*
X0055694Y0183774D01*
X0055694Y0180178D02*
X0054494Y0180178D01*
X0054494Y0178980D02*
X0055694Y0178980D01*
X0055694Y0177781D02*
X0054494Y0177781D01*
X0051811Y0169392D02*
X0043870Y0169392D01*
X0043870Y0168193D02*
X0050213Y0168193D01*
X0049100Y0166995D02*
X0043870Y0166995D01*
X0043870Y0165796D02*
X0048604Y0165796D01*
X0048107Y0164598D02*
X0043870Y0164598D01*
X0043870Y0163399D02*
X0048094Y0163399D01*
X0048094Y0162201D02*
X0043870Y0162201D01*
X0043870Y0161002D02*
X0048418Y0161002D01*
X0048914Y0159803D02*
X0043870Y0159803D01*
X0043870Y0158605D02*
X0049765Y0158605D01*
X0050963Y0157406D02*
X0043870Y0157406D01*
X0043870Y0156208D02*
X0053622Y0156208D01*
X0060474Y0069915D02*
X0060680Y0069915D01*
X0061138Y0068717D02*
X0059276Y0068717D01*
X0057301Y0067518D02*
X0061728Y0067518D01*
X0055656Y0054334D02*
X0050977Y0054334D01*
X0053058Y0043548D02*
X0056320Y0043548D01*
X0057767Y0042349D02*
X0054257Y0042349D01*
X0054887Y0041151D02*
X0056402Y0041151D01*
X0055777Y0039952D02*
X0055335Y0039952D01*
X0055335Y0038754D02*
X0055680Y0038754D01*
X0055680Y0037555D02*
X0055211Y0037555D01*
X0055680Y0036357D02*
X0054715Y0036357D01*
X0053840Y0035158D02*
X0055680Y0035158D01*
X0055752Y0033960D02*
X0052642Y0033960D01*
X0054002Y0032761D02*
X0055680Y0032761D01*
X0055680Y0031563D02*
X0054782Y0031563D01*
X0055278Y0030364D02*
X0055680Y0030364D01*
X0055680Y0029166D02*
X0055335Y0029166D01*
X0055317Y0027967D02*
X0055680Y0027967D01*
X0056061Y0026769D02*
X0054820Y0026769D01*
X0054094Y0025570D02*
X0055680Y0025570D01*
X0055680Y0024372D02*
X0052865Y0024372D01*
X0054197Y0011188D02*
X0375874Y0011188D01*
X0375874Y0009990D02*
X0054197Y0009990D01*
X0053883Y0008791D02*
X0376188Y0008791D01*
X0376685Y0007593D02*
X0053386Y0007593D01*
X0067809Y0043548D02*
X0131189Y0043548D01*
X0149472Y0047143D02*
X0207752Y0047143D01*
X0206554Y0045945D02*
X0187960Y0045945D01*
X0189159Y0044746D02*
X0205355Y0044746D01*
X0204157Y0043548D02*
X0189770Y0043548D01*
X0190117Y0042349D02*
X0202958Y0042349D01*
X0201760Y0041151D02*
X0190117Y0041151D01*
X0189797Y0039952D02*
X0200561Y0039952D01*
X0199363Y0038754D02*
X0189224Y0038754D01*
X0188026Y0037555D02*
X0198164Y0037555D01*
X0196966Y0036357D02*
X0152433Y0036357D01*
X0153632Y0035158D02*
X0195767Y0035158D01*
X0194569Y0033960D02*
X0154830Y0033960D01*
X0149472Y0048342D02*
X0208951Y0048342D01*
X0210149Y0049540D02*
X0149472Y0049540D01*
X0149472Y0050739D02*
X0211348Y0050739D01*
X0212546Y0051937D02*
X0149472Y0051937D01*
X0149472Y0053136D02*
X0192652Y0053136D01*
X0191183Y0054334D02*
X0149472Y0054334D01*
X0149993Y0055533D02*
X0190452Y0055533D01*
X0190022Y0056732D02*
X0151191Y0056732D01*
X0152390Y0057930D02*
X0190022Y0057930D01*
X0189372Y0059129D02*
X0176114Y0059129D01*
X0177896Y0060327D02*
X0188174Y0060327D01*
X0186975Y0061526D02*
X0178818Y0061526D01*
X0179314Y0062724D02*
X0185777Y0062724D01*
X0184578Y0063923D02*
X0179441Y0063923D01*
X0179441Y0065121D02*
X0183380Y0065121D01*
X0182181Y0066320D02*
X0178965Y0066320D01*
X0178250Y0067518D02*
X0180983Y0067518D01*
X0179784Y0068717D02*
X0176971Y0068717D01*
X0177484Y0069915D02*
X0178586Y0069915D01*
X0182749Y0075908D02*
X0182994Y0075908D01*
X0183947Y0074709D02*
X0184193Y0074709D01*
X0185146Y0073511D02*
X0185391Y0073511D01*
X0186344Y0072312D02*
X0186590Y0072312D01*
X0187543Y0071114D02*
X0187788Y0071114D01*
X0188741Y0069915D02*
X0188987Y0069915D01*
X0189940Y0068717D02*
X0190185Y0068717D01*
X0191138Y0067518D02*
X0191384Y0067518D01*
X0192337Y0066320D02*
X0192582Y0066320D01*
X0193535Y0065121D02*
X0193781Y0065121D01*
X0194734Y0063923D02*
X0194979Y0063923D01*
X0195932Y0062724D02*
X0196178Y0062724D01*
X0196143Y0062514D02*
X0196561Y0062341D01*
X0178235Y0080667D01*
X0178113Y0080544D01*
X0196143Y0062514D01*
X0199290Y0060327D02*
X0220936Y0060327D01*
X0219737Y0059129D02*
X0199787Y0059129D01*
X0200022Y0057930D02*
X0218539Y0057930D01*
X0217340Y0056732D02*
X0200022Y0056732D01*
X0199592Y0055533D02*
X0216142Y0055533D01*
X0214943Y0054334D02*
X0198861Y0054334D01*
X0197392Y0053136D02*
X0213745Y0053136D01*
X0209501Y0068717D02*
X0200341Y0068717D01*
X0199142Y0069915D02*
X0208302Y0069915D01*
X0207104Y0071114D02*
X0197944Y0071114D01*
X0196745Y0072312D02*
X0205905Y0072312D01*
X0204707Y0073511D02*
X0195547Y0073511D01*
X0194348Y0074709D02*
X0203508Y0074709D01*
X0202310Y0075908D02*
X0201119Y0075908D01*
X0206473Y0081900D02*
X0228993Y0081900D01*
X0228454Y0083099D02*
X0204990Y0083099D01*
X0207671Y0080702D02*
X0230192Y0080702D01*
X0228158Y0084297D02*
X0200331Y0084297D01*
X0197671Y0086694D02*
X0182363Y0086694D01*
X0183562Y0085496D02*
X0228158Y0085496D01*
X0228528Y0086694D02*
X0213699Y0086694D01*
X0214897Y0087893D02*
X0229174Y0087893D01*
X0230438Y0089091D02*
X0216096Y0089091D01*
X0216285Y0090290D02*
X0233564Y0090290D01*
X0234763Y0091488D02*
X0216285Y0091488D01*
X0216285Y0092687D02*
X0235961Y0092687D01*
X0237160Y0093885D02*
X0220010Y0093885D01*
X0221286Y0095084D02*
X0238358Y0095084D01*
X0239557Y0096282D02*
X0221936Y0096282D01*
X0222309Y0097481D02*
X0240755Y0097481D01*
X0241954Y0098679D02*
X0222309Y0098679D01*
X0222018Y0099878D02*
X0243152Y0099878D01*
X0244351Y0101076D02*
X0221483Y0101076D01*
X0220900Y0102275D02*
X0245549Y0102275D01*
X0246748Y0103473D02*
X0220900Y0103473D01*
X0220900Y0104672D02*
X0248622Y0104672D01*
X0252036Y0105870D02*
X0220900Y0105870D01*
X0220900Y0107069D02*
X0253234Y0107069D01*
X0258136Y0107069D02*
X0268173Y0107069D01*
X0266975Y0105870D02*
X0259334Y0105870D01*
X0269372Y0108268D02*
X0220900Y0108268D01*
X0220900Y0109466D02*
X0270570Y0109466D01*
X0271769Y0110665D02*
X0220900Y0110665D01*
X0220900Y0111863D02*
X0272967Y0111863D01*
X0274166Y0113062D02*
X0220900Y0113062D01*
X0220900Y0114260D02*
X0275364Y0114260D01*
X0276563Y0115459D02*
X0220900Y0115459D01*
X0220900Y0116657D02*
X0277761Y0116657D01*
X0278960Y0117856D02*
X0220900Y0117856D01*
X0220900Y0119054D02*
X0280158Y0119054D01*
X0281357Y0120253D02*
X0220900Y0120253D01*
X0220900Y0121451D02*
X0282555Y0121451D01*
X0283754Y0122650D02*
X0220900Y0122650D01*
X0220900Y0123848D02*
X0284952Y0123848D01*
X0286151Y0125047D02*
X0220900Y0125047D01*
X0220900Y0126245D02*
X0287349Y0126245D01*
X0280726Y0109466D02*
X0377633Y0109466D01*
X0375485Y0108268D02*
X0279527Y0108268D01*
X0278329Y0107069D02*
X0374286Y0107069D01*
X0373647Y0105870D02*
X0277130Y0105870D01*
X0275932Y0104672D02*
X0373150Y0104672D01*
X0372976Y0103473D02*
X0274733Y0103473D01*
X0273535Y0102275D02*
X0372976Y0102275D01*
X0373138Y0101076D02*
X0272336Y0101076D01*
X0271138Y0099878D02*
X0373635Y0099878D01*
X0374257Y0098679D02*
X0269939Y0098679D01*
X0278377Y0083099D02*
X0237863Y0083099D01*
X0238158Y0084297D02*
X0279575Y0084297D01*
X0277178Y0081900D02*
X0237323Y0081900D01*
X0236125Y0080702D02*
X0275980Y0080702D01*
X0274781Y0079503D02*
X0208870Y0079503D01*
X0210068Y0078305D02*
X0273583Y0078305D01*
X0272384Y0077106D02*
X0211267Y0077106D01*
X0212465Y0075908D02*
X0271186Y0075908D01*
X0269987Y0074709D02*
X0213664Y0074709D01*
X0214862Y0073511D02*
X0268789Y0073511D01*
X0267590Y0072312D02*
X0266936Y0072312D01*
X0261785Y0072312D02*
X0216061Y0072312D01*
X0207671Y0086694D02*
X0203699Y0086694D01*
X0204897Y0087893D02*
X0206473Y0087893D01*
X0206249Y0095084D02*
X0205121Y0095084D01*
X0203922Y0096282D02*
X0207448Y0096282D01*
X0206885Y0097481D02*
X0176163Y0097481D01*
X0175947Y0097625D02*
X0175223Y0097925D01*
X0174455Y0098078D01*
X0171774Y0098078D01*
X0171774Y0094189D01*
X0178041Y0094189D01*
X0178041Y0094492D01*
X0177888Y0095260D01*
X0177588Y0095984D01*
X0177153Y0096636D01*
X0176599Y0097190D01*
X0175947Y0097625D01*
X0175133Y0098722D02*
X0177109Y0099541D01*
X0178622Y0101054D01*
X0179441Y0103030D01*
X0179441Y0105170D01*
X0178622Y0107146D01*
X0177109Y0108659D01*
X0176045Y0109100D01*
X0177109Y0109541D01*
X0178622Y0111054D01*
X0179441Y0113030D01*
X0179441Y0115170D01*
X0178622Y0117146D01*
X0177109Y0118659D01*
X0176045Y0119100D01*
X0177109Y0119541D01*
X0178622Y0121054D01*
X0179441Y0123030D01*
X0179441Y0125170D01*
X0178622Y0127146D01*
X0177109Y0128659D01*
X0175133Y0129478D01*
X0168237Y0129478D01*
X0166261Y0128659D01*
X0164748Y0127146D01*
X0163929Y0125170D01*
X0163929Y0123030D01*
X0164748Y0121054D01*
X0166261Y0119541D01*
X0167325Y0119100D01*
X0166261Y0118659D01*
X0164748Y0117146D01*
X0163929Y0115170D01*
X0163929Y0113030D01*
X0164748Y0111054D01*
X0166261Y0109541D01*
X0167325Y0109100D01*
X0166261Y0108659D01*
X0164748Y0107146D01*
X0163929Y0105170D01*
X0163929Y0103030D01*
X0164748Y0101054D01*
X0166261Y0099541D01*
X0168237Y0098722D01*
X0175133Y0098722D01*
X0177446Y0099878D02*
X0205085Y0099878D01*
X0205085Y0101076D02*
X0178632Y0101076D01*
X0179128Y0102275D02*
X0205085Y0102275D01*
X0205085Y0103473D02*
X0179441Y0103473D01*
X0179441Y0104672D02*
X0205837Y0104672D01*
X0207036Y0105870D02*
X0179151Y0105870D01*
X0178654Y0107069D02*
X0208234Y0107069D01*
X0213136Y0107069D02*
X0213719Y0107069D01*
X0213719Y0108268D02*
X0177501Y0108268D01*
X0176929Y0109466D02*
X0213719Y0109466D01*
X0213719Y0110665D02*
X0178233Y0110665D01*
X0178957Y0111863D02*
X0213719Y0111863D01*
X0213719Y0113062D02*
X0179441Y0113062D01*
X0179441Y0114260D02*
X0213719Y0114260D01*
X0213719Y0115459D02*
X0179321Y0115459D01*
X0178825Y0116657D02*
X0213719Y0116657D01*
X0213719Y0117856D02*
X0177913Y0117856D01*
X0176156Y0119054D02*
X0213719Y0119054D01*
X0213719Y0120253D02*
X0177821Y0120253D01*
X0178787Y0121451D02*
X0213719Y0121451D01*
X0213719Y0122650D02*
X0179283Y0122650D01*
X0179441Y0123848D02*
X0213719Y0123848D01*
X0213719Y0125047D02*
X0179441Y0125047D01*
X0178995Y0126245D02*
X0213719Y0126245D01*
X0213719Y0127444D02*
X0178325Y0127444D01*
X0177126Y0128642D02*
X0213719Y0128642D01*
X0205686Y0098679D02*
X0164435Y0098679D01*
X0165633Y0097481D02*
X0167207Y0097481D01*
X0165924Y0099878D02*
X0163236Y0099878D01*
X0162038Y0101076D02*
X0164738Y0101076D01*
X0164242Y0102275D02*
X0160839Y0102275D01*
X0159641Y0103473D02*
X0163929Y0103473D01*
X0163929Y0104672D02*
X0158442Y0104672D01*
X0157244Y0105870D02*
X0164219Y0105870D01*
X0164716Y0107069D02*
X0156045Y0107069D01*
X0154847Y0108268D02*
X0165869Y0108268D01*
X0166441Y0109466D02*
X0153648Y0109466D01*
X0152449Y0110665D02*
X0165137Y0110665D01*
X0164413Y0111863D02*
X0151561Y0111863D01*
X0151561Y0113062D02*
X0163929Y0113062D01*
X0163929Y0114260D02*
X0151561Y0114260D01*
X0151561Y0115459D02*
X0164049Y0115459D01*
X0164545Y0116657D02*
X0151561Y0116657D01*
X0151561Y0117856D02*
X0165457Y0117856D01*
X0167214Y0119054D02*
X0151416Y0119054D01*
X0150786Y0120253D02*
X0165549Y0120253D01*
X0164583Y0121451D02*
X0149587Y0121451D01*
X0149283Y0122650D02*
X0164087Y0122650D01*
X0163929Y0123848D02*
X0149441Y0123848D01*
X0149441Y0125047D02*
X0163929Y0125047D01*
X0164375Y0126245D02*
X0148995Y0126245D01*
X0148325Y0127444D02*
X0165045Y0127444D01*
X0166244Y0128642D02*
X0147126Y0128642D01*
X0151561Y0101397D02*
X0165280Y0087678D01*
X0165157Y0087556D01*
X0151561Y0101152D01*
X0151561Y0101397D01*
X0151637Y0101076D02*
X0151882Y0101076D01*
X0152835Y0099878D02*
X0153080Y0099878D01*
X0154034Y0098679D02*
X0154279Y0098679D01*
X0155232Y0097481D02*
X0155478Y0097481D01*
X0156431Y0096282D02*
X0156676Y0096282D01*
X0157629Y0095084D02*
X0157875Y0095084D01*
X0158828Y0093885D02*
X0159073Y0093885D01*
X0160026Y0092687D02*
X0160272Y0092687D01*
X0161225Y0091488D02*
X0161470Y0091488D01*
X0162423Y0090290D02*
X0162669Y0090290D01*
X0163622Y0089091D02*
X0163867Y0089091D01*
X0164820Y0087893D02*
X0165066Y0087893D01*
X0159459Y0083099D02*
X0154425Y0083099D01*
X0154425Y0084297D02*
X0158260Y0084297D01*
X0157062Y0085496D02*
X0154425Y0085496D01*
X0154425Y0086694D02*
X0155863Y0086694D01*
X0154665Y0087893D02*
X0154172Y0087893D01*
X0154425Y0081900D02*
X0160657Y0081900D01*
X0161856Y0080702D02*
X0154425Y0080702D01*
X0154425Y0079503D02*
X0163054Y0079503D01*
X0164253Y0078305D02*
X0154425Y0078305D01*
X0154425Y0077106D02*
X0164731Y0077106D01*
X0164235Y0075908D02*
X0154425Y0075908D01*
X0154425Y0074709D02*
X0163929Y0074709D01*
X0163929Y0073511D02*
X0154425Y0073511D01*
X0154425Y0072312D02*
X0164227Y0072312D01*
X0164723Y0071114D02*
X0154425Y0071114D01*
X0154425Y0069915D02*
X0165886Y0069915D01*
X0166399Y0068717D02*
X0154425Y0068717D01*
X0154425Y0067518D02*
X0165120Y0067518D01*
X0164405Y0066320D02*
X0154425Y0066320D01*
X0154425Y0065121D02*
X0163929Y0065121D01*
X0163929Y0063923D02*
X0154425Y0063923D01*
X0154425Y0062724D02*
X0164056Y0062724D01*
X0164552Y0061526D02*
X0154425Y0061526D01*
X0154132Y0060327D02*
X0165474Y0060327D01*
X0167256Y0059129D02*
X0153588Y0059129D01*
X0160685Y0051600D02*
X0190685Y0051600D01*
X0193196Y0049089D01*
X0195696Y0046600D01*
X0195104Y0023173D02*
X0193938Y0023173D01*
X0227496Y0056732D02*
X0237907Y0056732D01*
X0256441Y0035158D02*
X0281977Y0035158D01*
X0280779Y0033960D02*
X0255242Y0033960D01*
X0254044Y0032761D02*
X0279580Y0032761D01*
X0278382Y0031563D02*
X0252845Y0031563D01*
X0251647Y0030364D02*
X0277183Y0030364D01*
X0275985Y0029166D02*
X0250448Y0029166D01*
X0249250Y0027967D02*
X0274786Y0027967D01*
X0273588Y0026769D02*
X0248051Y0026769D01*
X0246853Y0025570D02*
X0272389Y0025570D01*
X0271191Y0024372D02*
X0245654Y0024372D01*
X0257639Y0036357D02*
X0283176Y0036357D01*
X0284375Y0037555D02*
X0258838Y0037555D01*
X0260036Y0038754D02*
X0285573Y0038754D01*
X0286772Y0039952D02*
X0261235Y0039952D01*
X0262433Y0041151D02*
X0287970Y0041151D01*
X0289169Y0042349D02*
X0263632Y0042349D01*
X0264830Y0043548D02*
X0290367Y0043548D01*
X0291566Y0044746D02*
X0266029Y0044746D01*
X0267227Y0045945D02*
X0292764Y0045945D01*
X0293963Y0047143D02*
X0268426Y0047143D01*
X0269624Y0048342D02*
X0295161Y0048342D01*
X0296360Y0049540D02*
X0270823Y0049540D01*
X0272021Y0050739D02*
X0297558Y0050739D01*
X0298757Y0051937D02*
X0273220Y0051937D01*
X0274419Y0053136D02*
X0299955Y0053136D01*
X0301154Y0054334D02*
X0275617Y0054334D01*
X0276816Y0055533D02*
X0302352Y0055533D01*
X0303551Y0056732D02*
X0278014Y0056732D01*
X0279213Y0057930D02*
X0301772Y0057930D01*
X0300174Y0059129D02*
X0280411Y0059129D01*
X0281610Y0060327D02*
X0299529Y0060327D01*
X0299475Y0062724D02*
X0284007Y0062724D01*
X0286773Y0063923D02*
X0300075Y0063923D01*
X0301417Y0065121D02*
X0288397Y0065121D01*
X0289191Y0066320D02*
X0302002Y0066320D01*
X0299783Y0067518D02*
X0289667Y0067518D01*
X0281341Y0075908D02*
X0300009Y0075908D01*
X0300261Y0076159D02*
X0299621Y0075520D01*
X0280953Y0075520D01*
X0283183Y0077749D01*
X0299553Y0077749D01*
X0300261Y0077041D01*
X0301325Y0076600D01*
X0300261Y0076159D01*
X0300195Y0077106D02*
X0282540Y0077106D01*
X0299597Y0085496D02*
X0238926Y0085496D01*
X0240124Y0086694D02*
X0252671Y0086694D01*
X0251473Y0087893D02*
X0247918Y0087893D01*
X0249116Y0089091D02*
X0250274Y0089091D01*
X0250085Y0090290D02*
X0249885Y0090290D01*
X0250085Y0091488D02*
X0245885Y0091488D01*
X0245885Y0090290D02*
X0245485Y0090290D01*
X0245485Y0089091D02*
X0245885Y0089091D01*
X0245885Y0087893D02*
X0245485Y0087893D01*
X0243453Y0087893D02*
X0241323Y0087893D01*
X0248514Y0095084D02*
X0251249Y0095084D01*
X0250085Y0093885D02*
X0249339Y0093885D01*
X0249885Y0092687D02*
X0250085Y0092687D01*
X0249712Y0096282D02*
X0252448Y0096282D01*
X0251885Y0097481D02*
X0250911Y0097481D01*
X0296030Y0035158D02*
X0374376Y0035158D01*
X0374376Y0033960D02*
X0294832Y0033960D01*
X0293633Y0032761D02*
X0355755Y0032761D01*
X0355178Y0032522D02*
X0353182Y0030527D01*
X0352970Y0030014D01*
X0352680Y0029314D01*
X0352680Y0025866D01*
X0353182Y0024653D01*
X0354110Y0023724D01*
X0355178Y0022657D01*
X0356391Y0022155D01*
X0357704Y0022155D01*
X0358916Y0022657D01*
X0359182Y0022923D01*
X0359448Y0022657D01*
X0360661Y0022155D01*
X0361974Y0022155D01*
X0363187Y0022657D01*
X0365183Y0024653D01*
X0365685Y0025866D01*
X0365685Y0029314D01*
X0365387Y0030034D01*
X0365183Y0030527D01*
X0365167Y0030542D01*
X0363187Y0032522D01*
X0361974Y0033025D01*
X0359593Y0033025D01*
X0359182Y0032854D01*
X0358771Y0033025D01*
X0356391Y0033025D01*
X0355178Y0032522D01*
X0354218Y0031563D02*
X0292435Y0031563D01*
X0291236Y0030364D02*
X0353115Y0030364D01*
X0352680Y0029166D02*
X0290038Y0029166D01*
X0288839Y0027967D02*
X0352680Y0027967D01*
X0352680Y0026769D02*
X0287641Y0026769D01*
X0286442Y0025570D02*
X0352802Y0025570D01*
X0353463Y0024372D02*
X0285244Y0024372D01*
X0284045Y0023173D02*
X0354662Y0023173D01*
X0363703Y0023173D02*
X0391201Y0023173D01*
X0391201Y0021975D02*
X0282847Y0021975D01*
X0281648Y0020776D02*
X0391201Y0020776D01*
X0391201Y0019578D02*
X0280450Y0019578D01*
X0279251Y0018379D02*
X0391201Y0018379D01*
X0391201Y0017181D02*
X0278053Y0017181D01*
X0276854Y0015982D02*
X0378942Y0015982D01*
X0377458Y0014784D02*
X0275656Y0014784D01*
X0274457Y0013585D02*
X0376565Y0013585D01*
X0376068Y0012387D02*
X0272757Y0012387D01*
X0297229Y0036357D02*
X0374376Y0036357D01*
X0374376Y0037385D02*
X0374376Y0033775D01*
X0379376Y0033775D01*
X0379376Y0032575D01*
X0374376Y0032575D01*
X0374376Y0028964D01*
X0374485Y0028557D01*
X0374696Y0028192D01*
X0374994Y0027894D01*
X0375359Y0027684D01*
X0375766Y0027575D01*
X0379376Y0027575D01*
X0379376Y0032575D01*
X0380576Y0032575D01*
X0380576Y0027575D01*
X0384187Y0027575D01*
X0384594Y0027684D01*
X0384959Y0027894D01*
X0385257Y0028192D01*
X0385467Y0028557D01*
X0385576Y0028964D01*
X0385576Y0032575D01*
X0380576Y0032575D01*
X0380576Y0033775D01*
X0379376Y0033775D01*
X0379376Y0038775D01*
X0375766Y0038775D01*
X0375359Y0038666D01*
X0374994Y0038455D01*
X0374696Y0038157D01*
X0374485Y0037792D01*
X0374376Y0037385D01*
X0374422Y0037555D02*
X0298428Y0037555D01*
X0299626Y0038754D02*
X0375688Y0038754D01*
X0379376Y0038754D02*
X0380576Y0038754D01*
X0380576Y0038775D02*
X0380576Y0033775D01*
X0385576Y0033775D01*
X0385576Y0037385D01*
X0385467Y0037792D01*
X0385257Y0038157D01*
X0384959Y0038455D01*
X0384594Y0038666D01*
X0384187Y0038775D01*
X0380576Y0038775D01*
X0380576Y0037555D02*
X0379376Y0037555D01*
X0379376Y0036357D02*
X0380576Y0036357D01*
X0380576Y0035158D02*
X0379376Y0035158D01*
X0379376Y0033960D02*
X0380576Y0033960D01*
X0380576Y0032761D02*
X0391201Y0032761D01*
X0391201Y0031563D02*
X0385576Y0031563D01*
X0385576Y0030364D02*
X0391201Y0030364D01*
X0391201Y0029166D02*
X0385576Y0029166D01*
X0385032Y0027967D02*
X0391201Y0027967D01*
X0391201Y0026769D02*
X0365685Y0026769D01*
X0365685Y0027967D02*
X0374921Y0027967D01*
X0374376Y0029166D02*
X0365685Y0029166D01*
X0365250Y0030364D02*
X0374376Y0030364D01*
X0374376Y0031563D02*
X0364146Y0031563D01*
X0365183Y0030527D02*
X0365183Y0030527D01*
X0362610Y0032761D02*
X0379376Y0032761D01*
X0379376Y0031563D02*
X0380576Y0031563D01*
X0380576Y0030364D02*
X0379376Y0030364D01*
X0379376Y0029166D02*
X0380576Y0029166D01*
X0380576Y0027967D02*
X0379376Y0027967D01*
X0385576Y0033960D02*
X0391201Y0033960D01*
X0391201Y0035158D02*
X0385576Y0035158D01*
X0385576Y0036357D02*
X0391201Y0036357D01*
X0391201Y0037555D02*
X0385531Y0037555D01*
X0384265Y0038754D02*
X0391201Y0038754D01*
X0391201Y0039952D02*
X0300825Y0039952D01*
X0302023Y0041151D02*
X0391201Y0041151D01*
X0391201Y0042349D02*
X0303222Y0042349D01*
X0304420Y0043548D02*
X0391201Y0043548D01*
X0391201Y0044746D02*
X0305619Y0044746D01*
X0306817Y0045945D02*
X0378379Y0045945D01*
X0378584Y0045860D02*
X0381369Y0045860D01*
X0383942Y0046926D01*
X0385911Y0048895D01*
X0386976Y0051467D01*
X0386976Y0054252D01*
X0385911Y0056825D01*
X0383942Y0058794D01*
X0381369Y0059860D01*
X0378584Y0059860D01*
X0376011Y0058794D01*
X0374042Y0056825D01*
X0372976Y0054252D01*
X0372976Y0051467D01*
X0374042Y0048895D01*
X0376011Y0046926D01*
X0378584Y0045860D01*
X0381574Y0045945D02*
X0391201Y0045945D01*
X0391201Y0047143D02*
X0384159Y0047143D01*
X0385358Y0048342D02*
X0391201Y0048342D01*
X0391201Y0049540D02*
X0386178Y0049540D01*
X0386675Y0050739D02*
X0391201Y0050739D01*
X0391201Y0051937D02*
X0386976Y0051937D01*
X0386976Y0053136D02*
X0391201Y0053136D01*
X0391201Y0054334D02*
X0386942Y0054334D01*
X0386446Y0055533D02*
X0391201Y0055533D01*
X0391201Y0056732D02*
X0385949Y0056732D01*
X0384806Y0057930D02*
X0391201Y0057930D01*
X0391201Y0059129D02*
X0383134Y0059129D01*
X0376819Y0059129D02*
X0342860Y0059129D01*
X0343357Y0060327D02*
X0391201Y0060327D01*
X0391201Y0061526D02*
X0343441Y0061526D01*
X0343418Y0062724D02*
X0391201Y0062724D01*
X0391201Y0063923D02*
X0342922Y0063923D01*
X0342147Y0065121D02*
X0391201Y0065121D01*
X0391201Y0066320D02*
X0340722Y0066320D01*
X0341587Y0067518D02*
X0391201Y0067518D01*
X0391201Y0068717D02*
X0342690Y0068717D01*
X0343186Y0069915D02*
X0391201Y0069915D01*
X0391201Y0071114D02*
X0343441Y0071114D01*
X0343441Y0072312D02*
X0356010Y0072312D01*
X0356391Y0072155D02*
X0357704Y0072155D01*
X0358916Y0072657D01*
X0359716Y0073457D01*
X0360516Y0072657D01*
X0361729Y0072155D01*
X0363041Y0072155D01*
X0364254Y0072657D01*
X0365183Y0073585D01*
X0365685Y0074798D01*
X0365685Y0076111D01*
X0365685Y0080381D01*
X0365183Y0081594D01*
X0364254Y0082522D01*
X0363041Y0083025D01*
X0361729Y0083025D01*
X0360516Y0082522D01*
X0360250Y0082257D01*
X0359984Y0082522D01*
X0358771Y0083025D01*
X0356391Y0083025D01*
X0355178Y0082522D01*
X0353197Y0080542D01*
X0353182Y0080527D01*
X0353182Y0080527D01*
X0352978Y0080034D01*
X0352680Y0079314D01*
X0352680Y0075866D01*
X0353182Y0074653D01*
X0355178Y0072657D01*
X0356391Y0072155D01*
X0358084Y0072312D02*
X0361348Y0072312D01*
X0363422Y0072312D02*
X0391201Y0072312D01*
X0391201Y0073511D02*
X0365108Y0073511D01*
X0365648Y0074709D02*
X0391201Y0074709D01*
X0391201Y0075908D02*
X0365685Y0075908D01*
X0365685Y0077106D02*
X0391201Y0077106D01*
X0391201Y0078305D02*
X0385322Y0078305D01*
X0385257Y0078192D02*
X0385467Y0078557D01*
X0385576Y0078964D01*
X0385576Y0082575D01*
X0380576Y0082575D01*
X0380576Y0077575D01*
X0384187Y0077575D01*
X0384594Y0077684D01*
X0384959Y0077894D01*
X0385257Y0078192D01*
X0385576Y0079503D02*
X0391201Y0079503D01*
X0391201Y0080702D02*
X0385576Y0080702D01*
X0385576Y0081900D02*
X0391201Y0081900D01*
X0391201Y0083099D02*
X0380576Y0083099D01*
X0380576Y0082575D02*
X0380576Y0083775D01*
X0379376Y0083775D01*
X0379376Y0082575D01*
X0374376Y0082575D01*
X0374376Y0078964D01*
X0374485Y0078557D01*
X0374696Y0078192D01*
X0374994Y0077894D01*
X0375359Y0077684D01*
X0375766Y0077575D01*
X0379376Y0077575D01*
X0379376Y0082575D01*
X0380576Y0082575D01*
X0380576Y0081900D02*
X0379376Y0081900D01*
X0379376Y0080702D02*
X0380576Y0080702D01*
X0380576Y0079503D02*
X0379376Y0079503D01*
X0379376Y0078305D02*
X0380576Y0078305D01*
X0379376Y0083099D02*
X0343263Y0083099D01*
X0343441Y0081900D02*
X0354556Y0081900D01*
X0353357Y0080702D02*
X0343441Y0080702D01*
X0343016Y0079503D02*
X0352758Y0079503D01*
X0352680Y0078305D02*
X0342373Y0078305D01*
X0341175Y0077106D02*
X0352680Y0077106D01*
X0352680Y0075908D02*
X0341361Y0075908D01*
X0342559Y0074709D02*
X0353159Y0074709D01*
X0354324Y0073511D02*
X0343093Y0073511D01*
X0342767Y0084297D02*
X0374376Y0084297D01*
X0374376Y0083775D02*
X0374376Y0087385D01*
X0374485Y0087792D01*
X0374696Y0088157D01*
X0374994Y0088455D01*
X0375359Y0088666D01*
X0375766Y0088775D01*
X0379376Y0088775D01*
X0379376Y0083775D01*
X0374376Y0083775D01*
X0374376Y0085496D02*
X0341773Y0085496D01*
X0340273Y0086694D02*
X0374376Y0086694D01*
X0374543Y0087893D02*
X0341961Y0087893D01*
X0342845Y0089091D02*
X0391201Y0089091D01*
X0391201Y0087893D02*
X0385409Y0087893D01*
X0385467Y0087792D02*
X0385257Y0088157D01*
X0384959Y0088455D01*
X0384594Y0088666D01*
X0384187Y0088775D01*
X0380576Y0088775D01*
X0380576Y0083775D01*
X0385576Y0083775D01*
X0385576Y0087385D01*
X0385467Y0087792D01*
X0385576Y0086694D02*
X0391201Y0086694D01*
X0391201Y0085496D02*
X0385576Y0085496D01*
X0385576Y0084297D02*
X0391201Y0084297D01*
X0391201Y0090290D02*
X0343341Y0090290D01*
X0343441Y0091488D02*
X0391201Y0091488D01*
X0391201Y0092687D02*
X0343434Y0092687D01*
X0342937Y0093885D02*
X0391201Y0093885D01*
X0380576Y0087893D02*
X0379376Y0087893D01*
X0379376Y0086694D02*
X0380576Y0086694D01*
X0380576Y0085496D02*
X0379376Y0085496D01*
X0379376Y0084297D02*
X0380576Y0084297D01*
X0374376Y0081900D02*
X0364876Y0081900D01*
X0365552Y0080702D02*
X0374376Y0080702D01*
X0374376Y0079503D02*
X0365685Y0079503D01*
X0365685Y0078305D02*
X0374631Y0078305D01*
X0375147Y0057930D02*
X0341999Y0057930D01*
X0340363Y0056732D02*
X0374003Y0056732D01*
X0373507Y0055533D02*
X0316405Y0055533D01*
X0315207Y0054334D02*
X0373010Y0054334D01*
X0372976Y0053136D02*
X0314008Y0053136D01*
X0312810Y0051937D02*
X0372976Y0051937D01*
X0373278Y0050739D02*
X0311611Y0050739D01*
X0310413Y0049540D02*
X0373775Y0049540D01*
X0374595Y0048342D02*
X0309214Y0048342D01*
X0308016Y0047143D02*
X0375793Y0047143D01*
X0365563Y0025570D02*
X0391201Y0025570D01*
X0391201Y0024372D02*
X0364902Y0024372D01*
X0384712Y0015982D02*
X0391201Y0015982D01*
X0391201Y0014784D02*
X0386195Y0014784D01*
X0387089Y0013585D02*
X0391201Y0013585D01*
X0391201Y0012387D02*
X0387585Y0012387D01*
X0387780Y0011188D02*
X0391201Y0011188D01*
X0391201Y0009990D02*
X0387780Y0009990D01*
X0387465Y0008791D02*
X0391201Y0008791D01*
X0391201Y0007593D02*
X0386969Y0007593D01*
X0331007Y0056732D02*
X0317604Y0056732D01*
X0318802Y0057930D02*
X0329371Y0057930D01*
X0328510Y0059129D02*
X0320001Y0059129D01*
X0321199Y0060327D02*
X0328013Y0060327D01*
X0327929Y0061526D02*
X0322398Y0061526D01*
X0323596Y0062724D02*
X0327952Y0062724D01*
X0328448Y0063923D02*
X0324795Y0063923D01*
X0325993Y0065121D02*
X0329223Y0065121D01*
X0330648Y0066320D02*
X0327192Y0066320D01*
X0328390Y0067518D02*
X0329783Y0067518D01*
X0311940Y0065121D02*
X0309953Y0065121D01*
X0304696Y0133436D02*
X0379376Y0133436D01*
X0379376Y0133775D02*
X0379376Y0132575D01*
X0380576Y0132575D01*
X0380576Y0127575D01*
X0384187Y0127575D01*
X0384594Y0127684D01*
X0384959Y0127894D01*
X0385257Y0128192D01*
X0385467Y0128557D01*
X0385576Y0128964D01*
X0385576Y0132575D01*
X0380576Y0132575D01*
X0380576Y0133775D01*
X0379376Y0133775D01*
X0374376Y0133775D01*
X0374376Y0137385D01*
X0374485Y0137792D01*
X0374696Y0138157D01*
X0374994Y0138455D01*
X0375359Y0138666D01*
X0375766Y0138775D01*
X0379376Y0138775D01*
X0379376Y0133775D01*
X0379376Y0134635D02*
X0380576Y0134635D01*
X0380576Y0133775D02*
X0380576Y0138775D01*
X0384187Y0138775D01*
X0384594Y0138666D01*
X0384959Y0138455D01*
X0385257Y0138157D01*
X0385467Y0137792D01*
X0385576Y0137385D01*
X0385576Y0133775D01*
X0380576Y0133775D01*
X0380576Y0133436D02*
X0391201Y0133436D01*
X0391201Y0132238D02*
X0385576Y0132238D01*
X0385576Y0131039D02*
X0391201Y0131039D01*
X0391201Y0129841D02*
X0385576Y0129841D01*
X0385490Y0128642D02*
X0391201Y0128642D01*
X0391201Y0134635D02*
X0385576Y0134635D01*
X0385576Y0135833D02*
X0391201Y0135833D01*
X0391201Y0137032D02*
X0385576Y0137032D01*
X0385184Y0138230D02*
X0391201Y0138230D01*
X0391201Y0139429D02*
X0310688Y0139429D01*
X0309490Y0138230D02*
X0374769Y0138230D01*
X0374376Y0137032D02*
X0308291Y0137032D01*
X0307093Y0135833D02*
X0374376Y0135833D01*
X0374376Y0134635D02*
X0305894Y0134635D01*
X0311887Y0140627D02*
X0391201Y0140627D01*
X0391201Y0141826D02*
X0313086Y0141826D01*
X0314284Y0143024D02*
X0391201Y0143024D01*
X0391201Y0144223D02*
X0315483Y0144223D01*
X0316681Y0145421D02*
X0391201Y0145421D01*
X0380576Y0138230D02*
X0379376Y0138230D01*
X0379376Y0137032D02*
X0380576Y0137032D01*
X0380576Y0135833D02*
X0379376Y0135833D01*
X0379376Y0132238D02*
X0380576Y0132238D01*
X0380576Y0131039D02*
X0379376Y0131039D01*
X0379376Y0129841D02*
X0380576Y0129841D01*
X0380576Y0128642D02*
X0379376Y0128642D01*
X0360533Y0122650D02*
X0359966Y0122650D01*
X0288105Y0363550D02*
X0286504Y0363550D01*
X0339988Y0439057D02*
X0352987Y0439057D01*
X0352680Y0440255D02*
X0342053Y0440255D01*
X0343251Y0441454D02*
X0352822Y0441454D01*
X0353385Y0442652D02*
X0344450Y0442652D01*
X0345648Y0443851D02*
X0352770Y0443851D01*
X0352680Y0445049D02*
X0346847Y0445049D01*
X0348045Y0446248D02*
X0353039Y0446248D01*
X0354034Y0447446D02*
X0349244Y0447446D01*
X0344779Y0457034D02*
X0337696Y0457034D01*
X0340078Y0455836D02*
X0343580Y0455836D01*
X0342382Y0454637D02*
X0341277Y0454637D01*
X0345977Y0458233D02*
X0078378Y0458233D01*
X0078685Y0457034D02*
X0204147Y0457034D01*
X0201765Y0455836D02*
X0078685Y0455836D01*
X0078685Y0454637D02*
X0200566Y0454637D01*
X0199879Y0453439D02*
X0078325Y0453439D01*
X0077828Y0452240D02*
X0199383Y0452240D01*
X0199221Y0451042D02*
X0077140Y0451042D01*
X0075942Y0449843D02*
X0199221Y0449843D01*
X0199445Y0448645D02*
X0074074Y0448645D01*
X0077881Y0459431D02*
X0347176Y0459431D01*
X0348374Y0460630D02*
X0077269Y0460630D01*
X0076070Y0461828D02*
X0349573Y0461828D01*
X0350771Y0463027D02*
X0074384Y0463027D01*
X0056986Y0463027D02*
X0056348Y0463027D01*
X0056348Y0464225D02*
X0351970Y0464225D01*
X0353168Y0465424D02*
X0056348Y0465424D01*
X0056348Y0466622D02*
X0354367Y0466622D01*
X0355565Y0467821D02*
X0056348Y0467821D01*
X0056348Y0469019D02*
X0356764Y0469019D01*
X0357962Y0470218D02*
X0056348Y0470218D01*
X0056348Y0471416D02*
X0359161Y0471416D01*
X0360359Y0472615D02*
X0056348Y0472615D01*
X0056348Y0473813D02*
X0360924Y0473813D01*
X0360924Y0475012D02*
X0056348Y0475012D01*
X0056348Y0476210D02*
X0360924Y0476210D01*
X0360924Y0477409D02*
X0056348Y0477409D01*
X0056348Y0478608D02*
X0360924Y0478608D01*
X0360924Y0479806D02*
X0056348Y0479806D01*
X0056348Y0481005D02*
X0360924Y0481005D01*
X0359312Y0482203D02*
X0056348Y0482203D01*
X0056348Y0483402D02*
X0357922Y0483402D01*
X0356723Y0484600D02*
X0056348Y0484600D01*
X0056348Y0485799D02*
X0356008Y0485799D01*
X0355316Y0486997D02*
X0056348Y0486997D01*
X0056348Y0488196D02*
X0354890Y0488196D01*
X0354569Y0489394D02*
X0056348Y0489394D01*
X0056348Y0490593D02*
X0354319Y0490593D01*
X0354319Y0491791D02*
X0056348Y0491791D01*
X0056348Y0492990D02*
X0354319Y0492990D01*
X0354524Y0494188D02*
X0056348Y0494188D01*
X0056348Y0495387D02*
X0354845Y0495387D01*
X0355219Y0496585D02*
X0056348Y0496585D01*
X0056348Y0497784D02*
X0355911Y0497784D01*
X0356603Y0498982D02*
X0056348Y0498982D01*
X0056348Y0500181D02*
X0357753Y0500181D01*
X0359020Y0501379D02*
X0056348Y0501379D01*
X0056348Y0502578D02*
X0361096Y0502578D01*
X0362584Y0503776D02*
X0056348Y0503776D01*
X0056348Y0504975D02*
X0360221Y0504975D01*
X0358784Y0506173D02*
X0056348Y0506173D01*
X0056348Y0507372D02*
X0357738Y0507372D01*
X0356968Y0508570D02*
X0056348Y0508570D01*
X0056348Y0509769D02*
X0356419Y0509769D01*
X0356037Y0510967D02*
X0056348Y0510967D01*
X0056348Y0512166D02*
X0355807Y0512166D01*
X0355770Y0514563D02*
X0056348Y0514563D01*
X0056348Y0515761D02*
X0355962Y0515761D01*
X0356303Y0516960D02*
X0056348Y0516960D01*
X0056348Y0518158D02*
X0356810Y0518158D01*
X0357505Y0519357D02*
X0056348Y0519357D01*
X0056348Y0520555D02*
X0358454Y0520555D01*
X0359776Y0521754D02*
X0056348Y0521754D01*
X0056348Y0522952D02*
X0361769Y0522952D01*
X0365479Y0522952D02*
X0366679Y0522952D01*
X0366679Y0521754D02*
X0365479Y0521754D01*
X0365479Y0520555D02*
X0366679Y0520555D01*
X0366679Y0519357D02*
X0365479Y0519357D01*
X0365479Y0518158D02*
X0366679Y0518158D01*
X0366679Y0516960D02*
X0365479Y0516960D01*
X0365479Y0515761D02*
X0366679Y0515761D01*
X0366679Y0514563D02*
X0365479Y0514563D01*
X0365479Y0513364D02*
X0056348Y0513364D01*
X0056348Y0524151D02*
X0391201Y0524151D01*
X0391201Y0525349D02*
X0056348Y0525349D01*
X0056348Y0526548D02*
X0391201Y0526548D01*
X0391201Y0527746D02*
X0056348Y0527746D01*
X0056348Y0528945D02*
X0391201Y0528945D01*
X0391201Y0530143D02*
X0056348Y0530143D01*
X0056348Y0531342D02*
X0391201Y0531342D01*
X0391201Y0532541D02*
X0056348Y0532541D01*
X0056348Y0533739D02*
X0391201Y0533739D01*
X0391201Y0534938D02*
X0056348Y0534938D01*
X0056348Y0536136D02*
X0391201Y0536136D01*
X0391201Y0537335D02*
X0056348Y0537335D01*
X0056348Y0538533D02*
X0391201Y0538533D01*
X0391201Y0539732D02*
X0056348Y0539732D01*
X0056348Y0540930D02*
X0391201Y0540930D01*
X0391201Y0542129D02*
X0056348Y0542129D01*
X0056348Y0543327D02*
X0391201Y0543327D01*
X0391201Y0544526D02*
X0056348Y0544526D01*
X0056348Y0545724D02*
X0391201Y0545724D01*
X0391201Y0546923D02*
X0056348Y0546923D01*
X0056348Y0548121D02*
X0391201Y0548121D01*
X0391201Y0549320D02*
X0056348Y0549320D01*
X0056348Y0550518D02*
X0391201Y0550518D01*
X0391201Y0551717D02*
X0056348Y0551717D01*
X0056348Y0552915D02*
X0391201Y0552915D01*
X0391201Y0554114D02*
X0056348Y0554114D01*
X0056348Y0555312D02*
X0391201Y0555312D01*
X0391201Y0556511D02*
X0056348Y0556511D01*
X0056348Y0557709D02*
X0391201Y0557709D01*
X0391201Y0558908D02*
X0056348Y0558908D01*
X0056348Y0560106D02*
X0391201Y0560106D01*
X0391201Y0561305D02*
X0056348Y0561305D01*
X0056348Y0562503D02*
X0391201Y0562503D01*
X0391201Y0563702D02*
X0056348Y0563702D01*
X0056348Y0564900D02*
X0391201Y0564900D01*
X0391201Y0566099D02*
X0056348Y0566099D01*
X0056348Y0567297D02*
X0391201Y0567297D01*
X0391201Y0568496D02*
X0056348Y0568496D01*
X0056348Y0569694D02*
X0391201Y0569694D01*
X0391201Y0570893D02*
X0056348Y0570893D01*
X0056348Y0572091D02*
X0391201Y0572091D01*
X0391201Y0573290D02*
X0056348Y0573290D01*
X0056348Y0574488D02*
X0391201Y0574488D01*
X0391201Y0575687D02*
X0056348Y0575687D01*
X0056348Y0576885D02*
X0391201Y0576885D01*
X0391201Y0578084D02*
X0056348Y0578084D01*
X0056348Y0579282D02*
X0391201Y0579282D01*
X0391201Y0580481D02*
X0056348Y0580481D01*
X0056348Y0581679D02*
X0391201Y0581679D01*
X0391201Y0582878D02*
X0056348Y0582878D01*
X0056348Y0584077D02*
X0391201Y0584077D01*
X0391201Y0585275D02*
X0056348Y0585275D01*
X0056348Y0586474D02*
X0391201Y0586474D01*
X0391201Y0587672D02*
X0056348Y0587672D01*
X0056348Y0588871D02*
X0391201Y0588871D01*
X0391201Y0590069D02*
X0056348Y0590069D01*
X0056348Y0591268D02*
X0391201Y0591268D01*
X0391201Y0592466D02*
X0056348Y0592466D01*
X0056348Y0593665D02*
X0391201Y0593665D01*
X0391201Y0594863D02*
X0056348Y0594863D01*
X0056348Y0596062D02*
X0391201Y0596062D01*
X0391201Y0597260D02*
X0056348Y0597260D01*
X0056348Y0598459D02*
X0391201Y0598459D01*
X0391201Y0599657D02*
X0056348Y0599657D01*
X0056348Y0600856D02*
X0391201Y0600856D01*
X0391201Y0602054D02*
X0056348Y0602054D01*
X0056348Y0603253D02*
X0391201Y0603253D01*
X0391201Y0604451D02*
X0056348Y0604451D01*
X0056348Y0605650D02*
X0391201Y0605650D01*
X0391201Y0606848D02*
X0056348Y0606848D01*
X0056974Y0608047D02*
X0391201Y0608047D01*
X0391201Y0609245D02*
X0058173Y0609245D01*
X0059371Y0610444D02*
X0391201Y0610444D01*
X0391201Y0611642D02*
X0060570Y0611642D01*
X0061769Y0612841D02*
X0391201Y0612841D01*
X0391201Y0614039D02*
X0062967Y0614039D01*
X0064166Y0615238D02*
X0391201Y0615238D01*
X0391201Y0616436D02*
X0065364Y0616436D01*
X0066563Y0617635D02*
X0391201Y0617635D01*
X0391201Y0618833D02*
X0069600Y0618833D01*
X0072263Y0620032D02*
X0391201Y0620032D01*
X0391201Y0621230D02*
X0073462Y0621230D01*
X0074660Y0622429D02*
X0391201Y0622429D01*
X0391201Y0623627D02*
X0075180Y0623627D01*
X0075676Y0624826D02*
X0391201Y0624826D01*
X0391201Y0626024D02*
X0076106Y0626024D01*
X0076106Y0627223D02*
X0391201Y0627223D01*
X0391201Y0628421D02*
X0076106Y0628421D01*
X0076073Y0629620D02*
X0391201Y0629620D01*
X0391201Y0630818D02*
X0075577Y0630818D01*
X0075080Y0632017D02*
X0391201Y0632017D01*
X0391201Y0633215D02*
X0074421Y0633215D01*
X0073222Y0634414D02*
X0391201Y0634414D01*
X0391201Y0635612D02*
X0071915Y0635612D01*
X0069022Y0636811D02*
X0391201Y0636811D01*
X0391201Y0638010D02*
X0043870Y0638010D01*
X0043870Y0639208D02*
X0391201Y0639208D01*
X0391201Y0640407D02*
X0043870Y0640407D01*
X0043870Y0641605D02*
X0391201Y0641605D01*
X0391201Y0642804D02*
X0043870Y0642804D01*
X0043870Y0644002D02*
X0391201Y0644002D01*
X0391201Y0645201D02*
X0069099Y0645201D01*
X0068704Y0645037D02*
X0072100Y0646444D01*
X0074700Y0649043D01*
X0076106Y0652439D01*
X0076106Y0656115D01*
X0074700Y0659511D01*
X0072100Y0662111D01*
X0068704Y0663517D01*
X0065028Y0663517D01*
X0061632Y0662111D01*
X0059033Y0659511D01*
X0057626Y0656115D01*
X0057626Y0652439D01*
X0059033Y0649043D01*
X0061632Y0646444D01*
X0065028Y0645037D01*
X0068704Y0645037D01*
X0071992Y0646399D02*
X0391201Y0646399D01*
X0391201Y0647598D02*
X0073254Y0647598D01*
X0074453Y0648796D02*
X0391201Y0648796D01*
X0391201Y0649995D02*
X0075094Y0649995D01*
X0075590Y0651193D02*
X0391201Y0651193D01*
X0391201Y0652392D02*
X0076087Y0652392D01*
X0076106Y0653590D02*
X0391201Y0653590D01*
X0391201Y0654789D02*
X0076106Y0654789D01*
X0076106Y0655987D02*
X0391201Y0655987D01*
X0391201Y0657186D02*
X0075663Y0657186D01*
X0075166Y0658384D02*
X0391201Y0658384D01*
X0391201Y0659583D02*
X0074628Y0659583D01*
X0073430Y0660781D02*
X0391201Y0660781D01*
X0391201Y0661980D02*
X0072231Y0661980D01*
X0069523Y0663178D02*
X0391201Y0663178D01*
X0391201Y0664377D02*
X0043870Y0664377D01*
X0043870Y0665575D02*
X0391201Y0665575D01*
X0391201Y0666774D02*
X0043870Y0666774D01*
X0043870Y0667972D02*
X0391201Y0667972D01*
X0391201Y0669171D02*
X0043870Y0669171D01*
X0043870Y0670369D02*
X0391201Y0670369D01*
X0391201Y0671568D02*
X0043870Y0671568D01*
X0043870Y0672766D02*
X0046982Y0672766D01*
X0049507Y0672766D02*
X0385564Y0672766D01*
X0388089Y0672766D02*
X0391201Y0672766D01*
X0391201Y0673965D02*
X0390523Y0673965D01*
X0383130Y0673965D02*
X0051941Y0673965D01*
X0053139Y0675163D02*
X0381932Y0675163D01*
X0381346Y0676362D02*
X0053724Y0676362D01*
X0054197Y0677560D02*
X0380874Y0677560D01*
X0380874Y0678759D02*
X0054197Y0678759D01*
X0054161Y0679957D02*
X0380910Y0679957D01*
X0381406Y0681156D02*
X0053664Y0681156D01*
X0044547Y0673965D02*
X0043870Y0673965D01*
X0043870Y0663178D02*
X0064210Y0663178D01*
X0061501Y0661980D02*
X0043870Y0661980D01*
X0043870Y0660781D02*
X0060303Y0660781D01*
X0059104Y0659583D02*
X0043870Y0659583D01*
X0043870Y0658384D02*
X0058566Y0658384D01*
X0058069Y0657186D02*
X0043870Y0657186D01*
X0043870Y0655987D02*
X0057626Y0655987D01*
X0057626Y0654789D02*
X0043870Y0654789D01*
X0043870Y0653590D02*
X0057626Y0653590D01*
X0057646Y0652392D02*
X0043870Y0652392D01*
X0043870Y0651193D02*
X0058142Y0651193D01*
X0058639Y0649995D02*
X0043870Y0649995D01*
X0043870Y0648796D02*
X0059280Y0648796D01*
X0060478Y0647598D02*
X0043870Y0647598D01*
X0043870Y0646399D02*
X0061740Y0646399D01*
X0064633Y0645201D02*
X0043870Y0645201D01*
X0043870Y0636811D02*
X0064711Y0636811D01*
X0061817Y0635612D02*
X0043870Y0635612D01*
X0043870Y0634414D02*
X0060510Y0634414D01*
X0059312Y0633215D02*
X0043870Y0633215D01*
X0043870Y0632017D02*
X0058652Y0632017D01*
X0058155Y0630818D02*
X0043870Y0630818D01*
X0043870Y0629620D02*
X0057659Y0629620D01*
X0057626Y0628421D02*
X0043870Y0628421D01*
X0043870Y0627223D02*
X0056530Y0627223D01*
X0055331Y0626024D02*
X0043870Y0626024D01*
X0043870Y0624826D02*
X0054133Y0624826D01*
X0052934Y0623627D02*
X0043870Y0623627D01*
X0043870Y0622429D02*
X0051736Y0622429D01*
X0050537Y0621230D02*
X0043870Y0621230D01*
X0043870Y0620032D02*
X0049339Y0620032D01*
X0048140Y0618833D02*
X0043870Y0618833D01*
X0043870Y0617635D02*
X0046942Y0617635D01*
X0045743Y0616436D02*
X0043870Y0616436D01*
X0043870Y0615238D02*
X0044545Y0615238D01*
X0093495Y0682354D02*
X0382076Y0682354D01*
X0383275Y0683553D02*
X0177391Y0683553D01*
X0261287Y0684751D02*
X0391201Y0684751D01*
X0391201Y0683553D02*
X0390379Y0683553D01*
X0391201Y0685950D02*
X0345182Y0685950D01*
X0370388Y0522952D02*
X0391201Y0522952D01*
X0391201Y0521754D02*
X0372381Y0521754D01*
X0373703Y0520555D02*
X0391201Y0520555D01*
X0391201Y0519357D02*
X0374652Y0519357D01*
X0375348Y0518158D02*
X0391201Y0518158D01*
X0391201Y0516960D02*
X0375854Y0516960D01*
X0376196Y0515761D02*
X0391201Y0515761D01*
X0391201Y0514563D02*
X0376388Y0514563D01*
X0376351Y0512166D02*
X0391201Y0512166D01*
X0391201Y0513364D02*
X0366679Y0513364D01*
X0366679Y0512166D02*
X0365479Y0512166D01*
X0365479Y0510967D02*
X0366679Y0510967D01*
X0366679Y0509769D02*
X0365479Y0509769D01*
X0365479Y0508570D02*
X0366679Y0508570D01*
X0366679Y0507372D02*
X0365479Y0507372D01*
X0365479Y0506173D02*
X0366679Y0506173D01*
X0366679Y0504975D02*
X0365479Y0504975D01*
X0365479Y0503776D02*
X0366679Y0503776D01*
X0369573Y0503776D02*
X0391201Y0503776D01*
X0391201Y0502578D02*
X0371062Y0502578D01*
X0373138Y0501379D02*
X0391201Y0501379D01*
X0391201Y0500181D02*
X0374405Y0500181D01*
X0375555Y0498982D02*
X0391201Y0498982D01*
X0391201Y0497784D02*
X0376247Y0497784D01*
X0376939Y0496585D02*
X0391201Y0496585D01*
X0391201Y0495387D02*
X0377313Y0495387D01*
X0377634Y0494188D02*
X0391201Y0494188D01*
X0391201Y0492990D02*
X0377839Y0492990D01*
X0377839Y0491791D02*
X0391201Y0491791D01*
X0391201Y0490593D02*
X0377839Y0490593D01*
X0377588Y0489394D02*
X0391201Y0489394D01*
X0391201Y0488196D02*
X0377267Y0488196D01*
X0376841Y0486997D02*
X0391201Y0486997D01*
X0391201Y0485799D02*
X0376149Y0485799D01*
X0375434Y0484600D02*
X0391201Y0484600D01*
X0391201Y0483402D02*
X0374236Y0483402D01*
X0372845Y0482203D02*
X0391201Y0482203D01*
X0391201Y0481005D02*
X0370861Y0481005D01*
X0370861Y0479806D02*
X0391201Y0479806D01*
X0391201Y0478608D02*
X0370861Y0478608D01*
X0370861Y0477409D02*
X0391201Y0477409D01*
X0391201Y0476210D02*
X0370861Y0476210D01*
X0370861Y0475012D02*
X0391201Y0475012D01*
X0391201Y0473813D02*
X0370861Y0473813D01*
X0370861Y0472615D02*
X0391201Y0472615D01*
X0391201Y0471416D02*
X0370861Y0471416D01*
X0370861Y0470218D02*
X0391201Y0470218D01*
X0391201Y0469019D02*
X0370399Y0469019D01*
X0369618Y0467821D02*
X0391201Y0467821D01*
X0391201Y0466622D02*
X0368420Y0466622D01*
X0367221Y0465424D02*
X0391201Y0465424D01*
X0391201Y0464225D02*
X0366023Y0464225D01*
X0364824Y0463027D02*
X0391201Y0463027D01*
X0391201Y0461828D02*
X0363626Y0461828D01*
X0362427Y0460630D02*
X0391201Y0460630D01*
X0391201Y0459431D02*
X0361229Y0459431D01*
X0360030Y0458233D02*
X0391201Y0458233D01*
X0391201Y0504975D02*
X0371937Y0504975D01*
X0373374Y0506173D02*
X0391201Y0506173D01*
X0391201Y0507372D02*
X0374419Y0507372D01*
X0375189Y0508570D02*
X0391201Y0508570D01*
X0391201Y0509769D02*
X0375739Y0509769D01*
X0376120Y0510967D02*
X0391201Y0510967D01*
X0334147Y0457034D02*
X0327696Y0457034D01*
X0330078Y0455836D02*
X0331765Y0455836D01*
X0324147Y0457034D02*
X0317696Y0457034D01*
X0320078Y0455836D02*
X0321765Y0455836D01*
X0314147Y0457034D02*
X0307696Y0457034D01*
X0310078Y0455836D02*
X0311765Y0455836D01*
X0304147Y0457034D02*
X0297696Y0457034D01*
X0300078Y0455836D02*
X0301765Y0455836D01*
X0294147Y0457034D02*
X0287696Y0457034D01*
X0290078Y0455836D02*
X0291765Y0455836D01*
X0284147Y0457034D02*
X0277696Y0457034D01*
X0280078Y0455836D02*
X0281765Y0455836D01*
X0274147Y0457034D02*
X0267696Y0457034D01*
X0270078Y0455836D02*
X0271765Y0455836D01*
X0264147Y0457034D02*
X0257696Y0457034D01*
X0260078Y0455836D02*
X0261765Y0455836D01*
X0254147Y0457034D02*
X0247696Y0457034D01*
X0250078Y0455836D02*
X0251765Y0455836D01*
X0244147Y0457034D02*
X0227696Y0457034D01*
X0230078Y0455836D02*
X0241765Y0455836D01*
X0240566Y0454637D02*
X0239268Y0454637D01*
X0236321Y0454637D02*
X0235521Y0454637D01*
X0235521Y0453439D02*
X0236321Y0453439D01*
X0236321Y0452240D02*
X0235521Y0452240D01*
X0235521Y0451042D02*
X0236321Y0451042D01*
X0236321Y0449843D02*
X0235521Y0449843D01*
X0235521Y0448645D02*
X0236321Y0448645D01*
X0236321Y0447446D02*
X0235521Y0447446D01*
X0235521Y0446248D02*
X0236321Y0446248D01*
X0239062Y0446248D02*
X0240716Y0446248D01*
X0241914Y0445049D02*
X0229928Y0445049D01*
X0231127Y0446248D02*
X0232781Y0446248D01*
X0232575Y0454637D02*
X0231277Y0454637D01*
X0224147Y0457034D02*
X0217696Y0457034D01*
X0220078Y0455836D02*
X0221765Y0455836D01*
X0214147Y0457034D02*
X0207696Y0457034D01*
X0210078Y0455836D02*
X0211765Y0455836D01*
X0211914Y0445049D02*
X0209928Y0445049D01*
X0201914Y0445049D02*
X0056348Y0445049D01*
X0056348Y0446248D02*
X0200716Y0446248D01*
X0199941Y0447446D02*
X0056348Y0447446D01*
X0056348Y0448645D02*
X0057296Y0448645D01*
X0056348Y0376734D02*
X0182758Y0376734D01*
X0181559Y0375536D02*
X0056348Y0375536D01*
X0056348Y0374337D02*
X0056769Y0374337D01*
X0043995Y0358756D02*
X0043870Y0358756D01*
X0043870Y0357558D02*
X0045194Y0357558D01*
X0046392Y0356359D02*
X0043870Y0356359D01*
X0043870Y0355161D02*
X0047591Y0355161D01*
X0047922Y0353962D02*
X0043870Y0353962D01*
X0043870Y0352764D02*
X0047922Y0352764D01*
X0047922Y0351565D02*
X0043870Y0351565D01*
X0043870Y0350367D02*
X0047922Y0350367D01*
X0047922Y0349168D02*
X0043870Y0349168D01*
X0043870Y0347970D02*
X0047922Y0347970D01*
X0047922Y0346771D02*
X0043870Y0346771D01*
X0043870Y0345573D02*
X0047922Y0345573D01*
X0047922Y0344374D02*
X0043870Y0344374D01*
X0043870Y0343176D02*
X0047922Y0343176D01*
X0047922Y0341977D02*
X0043870Y0341977D01*
X0043870Y0340779D02*
X0047922Y0340779D01*
X0047922Y0339580D02*
X0043870Y0339580D01*
X0043870Y0338382D02*
X0047922Y0338382D01*
X0047922Y0337183D02*
X0043870Y0337183D01*
X0043870Y0335985D02*
X0047922Y0335985D01*
X0047922Y0334786D02*
X0043870Y0334786D01*
X0043870Y0333588D02*
X0047922Y0333588D01*
X0047922Y0332389D02*
X0043870Y0332389D01*
X0043870Y0331191D02*
X0047922Y0331191D01*
X0047922Y0329992D02*
X0043870Y0329992D01*
X0043870Y0328794D02*
X0047922Y0328794D01*
X0047922Y0327595D02*
X0043870Y0327595D01*
X0043870Y0326397D02*
X0047922Y0326397D01*
X0047922Y0325198D02*
X0043870Y0325198D01*
X0043870Y0324000D02*
X0047922Y0324000D01*
X0047922Y0322801D02*
X0043870Y0322801D01*
X0043870Y0321603D02*
X0047922Y0321603D01*
X0047922Y0320404D02*
X0043870Y0320404D01*
X0043870Y0319205D02*
X0047922Y0319205D01*
X0047922Y0318007D02*
X0043870Y0318007D01*
X0043870Y0316808D02*
X0047922Y0316808D01*
X0047922Y0315610D02*
X0043870Y0315610D01*
X0043870Y0314411D02*
X0047922Y0314411D01*
X0047922Y0313213D02*
X0043870Y0313213D01*
X0043870Y0312014D02*
X0047922Y0312014D01*
X0047922Y0310816D02*
X0043870Y0310816D01*
X0043870Y0309617D02*
X0047922Y0309617D01*
X0047922Y0308419D02*
X0043870Y0308419D01*
X0043870Y0307220D02*
X0047922Y0307220D01*
X0047922Y0306022D02*
X0043870Y0306022D01*
X0043870Y0304823D02*
X0047922Y0304823D01*
X0047922Y0303625D02*
X0043870Y0303625D01*
X0043870Y0302426D02*
X0047922Y0302426D01*
X0047922Y0301228D02*
X0043870Y0301228D01*
X0043870Y0300029D02*
X0047922Y0300029D01*
X0047922Y0298831D02*
X0043870Y0298831D01*
X0043870Y0297632D02*
X0047922Y0297632D01*
X0047922Y0296434D02*
X0043870Y0296434D01*
X0043870Y0295235D02*
X0047922Y0295235D01*
X0047922Y0294037D02*
X0043870Y0294037D01*
X0043870Y0292838D02*
X0047922Y0292838D01*
X0047922Y0291640D02*
X0043870Y0291640D01*
X0043870Y0290441D02*
X0047917Y0290441D01*
X0047917Y0289243D02*
X0043870Y0289243D01*
X0043870Y0288044D02*
X0047917Y0288044D01*
X0047812Y0286846D02*
X0043870Y0286846D01*
X0043870Y0285647D02*
X0047917Y0285647D01*
X0047917Y0284449D02*
X0043870Y0284449D01*
X0043870Y0283250D02*
X0047917Y0283250D01*
X0047917Y0282052D02*
X0043870Y0282052D01*
X0043870Y0280853D02*
X0048108Y0280853D01*
X0048931Y0279655D02*
X0043870Y0279655D01*
X0058150Y0272464D02*
X0070916Y0272464D01*
X0070680Y0271265D02*
X0059778Y0271265D01*
X0060903Y0270067D02*
X0070892Y0270067D01*
X0070770Y0268868D02*
X0061400Y0268868D01*
X0061896Y0267670D02*
X0070680Y0267670D01*
X0070680Y0266471D02*
X0061917Y0266471D01*
X0061917Y0265272D02*
X0070680Y0265272D01*
X0070098Y0264074D02*
X0061603Y0264074D01*
X0061106Y0262875D02*
X0068899Y0262875D01*
X0067701Y0261677D02*
X0060268Y0261677D01*
X0059069Y0260478D02*
X0066502Y0260478D01*
X0065304Y0259280D02*
X0056440Y0259280D01*
X0069769Y0249692D02*
X0072588Y0249692D01*
X0071390Y0250890D02*
X0070967Y0250890D01*
X0077506Y0249692D02*
X0077926Y0249692D01*
X0083596Y0278456D02*
X0084480Y0278456D01*
X0085679Y0279655D02*
X0083036Y0279655D01*
X0081577Y0280853D02*
X0086877Y0280853D01*
X0088076Y0282052D02*
X0082976Y0282052D01*
X0083594Y0283250D02*
X0089274Y0283250D01*
X0090473Y0284449D02*
X0083685Y0284449D01*
X0083685Y0285647D02*
X0091671Y0285647D01*
X0092870Y0286846D02*
X0083685Y0286846D01*
X0083685Y0288044D02*
X0094068Y0288044D01*
X0095267Y0289243D02*
X0083607Y0289243D01*
X0083685Y0290441D02*
X0096465Y0290441D01*
X0097664Y0291640D02*
X0083685Y0291640D01*
X0083685Y0292838D02*
X0098862Y0292838D01*
X0100061Y0294037D02*
X0083685Y0294037D01*
X0083685Y0295235D02*
X0101259Y0295235D01*
X0102458Y0296434D02*
X0083298Y0296434D01*
X0083685Y0297632D02*
X0103656Y0297632D01*
X0104855Y0298831D02*
X0083685Y0298831D01*
X0083685Y0300029D02*
X0106053Y0300029D01*
X0107252Y0301228D02*
X0083540Y0301228D01*
X0082847Y0302426D02*
X0108450Y0302426D01*
X0109649Y0303625D02*
X0083078Y0303625D01*
X0083636Y0304823D02*
X0110847Y0304823D01*
X0112046Y0306022D02*
X0083685Y0306022D01*
X0083285Y0307220D02*
X0113244Y0307220D01*
X0114443Y0308419D02*
X0082232Y0308419D01*
X0081034Y0309617D02*
X0115641Y0309617D01*
X0116840Y0310816D02*
X0079433Y0310816D01*
X0171596Y0097481D02*
X0171774Y0097481D01*
X0171774Y0096282D02*
X0171596Y0096282D01*
X0171596Y0095084D02*
X0171774Y0095084D01*
X0177389Y0096282D02*
X0197448Y0096282D01*
X0196249Y0095084D02*
X0177923Y0095084D01*
X0178041Y0093885D02*
X0195085Y0093885D01*
X0195085Y0092687D02*
X0177783Y0092687D01*
X0177569Y0091488D02*
X0195085Y0091488D01*
X0195085Y0090290D02*
X0178767Y0090290D01*
X0179966Y0089091D02*
X0195274Y0089091D01*
X0196473Y0087893D02*
X0181165Y0087893D01*
X0184760Y0084297D02*
X0195656Y0084297D01*
X0194168Y0083099D02*
X0185959Y0083099D01*
X0187157Y0081900D02*
X0193430Y0081900D01*
X0192994Y0080702D02*
X0188356Y0080702D01*
X0189554Y0079503D02*
X0192994Y0079503D01*
X0193223Y0078305D02*
X0190753Y0078305D01*
X0191951Y0077106D02*
X0193720Y0077106D01*
X0193150Y0075908D02*
X0194868Y0075908D01*
X0181796Y0077106D02*
X0181550Y0077106D01*
X0180597Y0078305D02*
X0180352Y0078305D01*
X0179398Y0079503D02*
X0179153Y0079503D01*
X0219928Y0445049D02*
X0221914Y0445049D01*
D23*
X0160685Y0291600D03*
X0155685Y0291600D03*
X0160685Y0278100D03*
X0145685Y0276600D03*
X0160685Y0051600D03*
X0195685Y0046600D03*
D24*
X0185117Y0041717D02*
X0147476Y0041717D01*
X0145990Y0043203D01*
X0144504Y0044194D01*
X0144504Y0057071D01*
X0149457Y0062024D01*
X0149457Y0086292D01*
X0142028Y0093721D01*
X0141685Y0094100D01*
X0140046Y0095207D01*
X0134103Y0101150D01*
X0134103Y0227941D01*
X0204432Y0298270D01*
X0211366Y0298270D01*
X0203937Y0290841D02*
X0230187Y0264591D01*
X0261884Y0264591D01*
X0260894Y0259143D02*
X0223253Y0259143D01*
X0199480Y0304213D02*
X0134103Y0238837D01*
X0050402Y0237351D02*
X0256931Y0443881D01*
X0338652Y0443881D01*
X0365892Y0471121D01*
X0365892Y0491428D01*
X0366079Y0491876D01*
X0362425Y0395839D02*
X0362425Y0298270D01*
X0319831Y0328977D02*
X0287143Y0328977D01*
X0280705Y0322539D01*
X0279714Y0322539D01*
X0279634Y0322069D01*
X0335680Y0091740D02*
X0335685Y0091600D01*
X0335680Y0091740D02*
X0327756Y0083816D01*
X0327756Y0073910D01*
X0270799Y0016954D01*
X0202946Y0016954D01*
X0169763Y0026859D02*
X0154905Y0026859D01*
X0133113Y0048651D01*
X0049906Y0048651D01*
X0049760Y0048805D01*
X0050291Y0234553D02*
X0050402Y0234875D01*
X0050402Y0237351D01*
D25*
X0054917Y0285911D02*
X0054859Y0286383D01*
X0054859Y0357703D01*
X0049411Y0363151D01*
X0049411Y0610294D01*
X0066746Y0627628D01*
X0066866Y0627702D01*
M02*
