G75*
%MOIN*%
%OFA0B0*%
%FSLAX25Y25*%
%IPPOS*%
%LPD*%
%AMOC8*
5,1,8,0,0,1.08239X$1,22.5*
%
%ADD10C,0.00000*%
%ADD11C,0.01000*%
%ADD12C,0.00600*%
%ADD13C,0.00800*%
%ADD14C,0.00500*%
%ADD15C,0.00100*%
%ADD16C,0.02200*%
%ADD17C,0.00400*%
%ADD18R,0.00787X0.00787*%
%ADD19C,0.00200*%
%ADD20C,0.00300*%
%ADD21C,0.02500*%
%ADD22C,0.00700*%
%ADD23R,0.02000X0.07362*%
%ADD24R,0.02500X0.03346*%
%ADD25C,0.00080*%
%ADD26R,0.04500X0.02500*%
%ADD27R,0.16000X0.02500*%
%ADD28R,0.02000X0.40000*%
%ADD29R,0.00500X0.15500*%
%ADD30R,0.02000X0.19000*%
D10*
X0001000Y0002860D02*
X0001000Y0686561D01*
X0040370Y0686561D01*
X0045291Y0678687D02*
X0045293Y0678795D01*
X0045299Y0678904D01*
X0045309Y0679012D01*
X0045323Y0679119D01*
X0045341Y0679226D01*
X0045362Y0679333D01*
X0045388Y0679438D01*
X0045418Y0679543D01*
X0045451Y0679646D01*
X0045488Y0679748D01*
X0045529Y0679848D01*
X0045573Y0679947D01*
X0045622Y0680045D01*
X0045673Y0680140D01*
X0045728Y0680233D01*
X0045787Y0680325D01*
X0045849Y0680414D01*
X0045914Y0680501D01*
X0045982Y0680585D01*
X0046053Y0680667D01*
X0046127Y0680746D01*
X0046204Y0680822D01*
X0046284Y0680896D01*
X0046367Y0680966D01*
X0046452Y0681034D01*
X0046539Y0681098D01*
X0046629Y0681159D01*
X0046721Y0681217D01*
X0046815Y0681271D01*
X0046911Y0681322D01*
X0047008Y0681369D01*
X0047108Y0681413D01*
X0047209Y0681453D01*
X0047311Y0681489D01*
X0047414Y0681521D01*
X0047519Y0681550D01*
X0047625Y0681574D01*
X0047731Y0681595D01*
X0047838Y0681612D01*
X0047946Y0681625D01*
X0048054Y0681634D01*
X0048163Y0681639D01*
X0048271Y0681640D01*
X0048380Y0681637D01*
X0048488Y0681630D01*
X0048596Y0681619D01*
X0048703Y0681604D01*
X0048810Y0681585D01*
X0048916Y0681562D01*
X0049021Y0681536D01*
X0049126Y0681505D01*
X0049228Y0681471D01*
X0049330Y0681433D01*
X0049430Y0681391D01*
X0049529Y0681346D01*
X0049626Y0681297D01*
X0049720Y0681244D01*
X0049813Y0681188D01*
X0049904Y0681129D01*
X0049993Y0681066D01*
X0050079Y0681001D01*
X0050163Y0680932D01*
X0050244Y0680860D01*
X0050322Y0680785D01*
X0050398Y0680707D01*
X0050471Y0680626D01*
X0050541Y0680543D01*
X0050607Y0680458D01*
X0050671Y0680370D01*
X0050731Y0680279D01*
X0050788Y0680187D01*
X0050841Y0680092D01*
X0050891Y0679996D01*
X0050937Y0679898D01*
X0050980Y0679798D01*
X0051019Y0679697D01*
X0051054Y0679594D01*
X0051086Y0679491D01*
X0051113Y0679386D01*
X0051137Y0679280D01*
X0051157Y0679173D01*
X0051173Y0679066D01*
X0051185Y0678958D01*
X0051193Y0678850D01*
X0051197Y0678741D01*
X0051197Y0678633D01*
X0051193Y0678524D01*
X0051185Y0678416D01*
X0051173Y0678308D01*
X0051157Y0678201D01*
X0051137Y0678094D01*
X0051113Y0677988D01*
X0051086Y0677883D01*
X0051054Y0677780D01*
X0051019Y0677677D01*
X0050980Y0677576D01*
X0050937Y0677476D01*
X0050891Y0677378D01*
X0050841Y0677282D01*
X0050788Y0677187D01*
X0050731Y0677095D01*
X0050671Y0677004D01*
X0050607Y0676916D01*
X0050541Y0676831D01*
X0050471Y0676748D01*
X0050398Y0676667D01*
X0050322Y0676589D01*
X0050244Y0676514D01*
X0050163Y0676442D01*
X0050079Y0676373D01*
X0049993Y0676308D01*
X0049904Y0676245D01*
X0049813Y0676186D01*
X0049721Y0676130D01*
X0049626Y0676077D01*
X0049529Y0676028D01*
X0049430Y0675983D01*
X0049330Y0675941D01*
X0049228Y0675903D01*
X0049126Y0675869D01*
X0049021Y0675838D01*
X0048916Y0675812D01*
X0048810Y0675789D01*
X0048703Y0675770D01*
X0048596Y0675755D01*
X0048488Y0675744D01*
X0048380Y0675737D01*
X0048271Y0675734D01*
X0048163Y0675735D01*
X0048054Y0675740D01*
X0047946Y0675749D01*
X0047838Y0675762D01*
X0047731Y0675779D01*
X0047625Y0675800D01*
X0047519Y0675824D01*
X0047414Y0675853D01*
X0047311Y0675885D01*
X0047209Y0675921D01*
X0047108Y0675961D01*
X0047008Y0676005D01*
X0046911Y0676052D01*
X0046815Y0676103D01*
X0046721Y0676157D01*
X0046629Y0676215D01*
X0046539Y0676276D01*
X0046452Y0676340D01*
X0046367Y0676408D01*
X0046284Y0676478D01*
X0046204Y0676552D01*
X0046127Y0676628D01*
X0046053Y0676707D01*
X0045982Y0676789D01*
X0045914Y0676873D01*
X0045849Y0676960D01*
X0045787Y0677049D01*
X0045728Y0677141D01*
X0045673Y0677234D01*
X0045622Y0677329D01*
X0045573Y0677427D01*
X0045529Y0677526D01*
X0045488Y0677626D01*
X0045451Y0677728D01*
X0045418Y0677831D01*
X0045388Y0677936D01*
X0045362Y0678041D01*
X0045341Y0678148D01*
X0045323Y0678255D01*
X0045309Y0678362D01*
X0045299Y0678470D01*
X0045293Y0678579D01*
X0045291Y0678687D01*
X0383874Y0678687D02*
X0383876Y0678795D01*
X0383882Y0678904D01*
X0383892Y0679012D01*
X0383906Y0679119D01*
X0383924Y0679226D01*
X0383945Y0679333D01*
X0383971Y0679438D01*
X0384001Y0679543D01*
X0384034Y0679646D01*
X0384071Y0679748D01*
X0384112Y0679848D01*
X0384156Y0679947D01*
X0384205Y0680045D01*
X0384256Y0680140D01*
X0384311Y0680233D01*
X0384370Y0680325D01*
X0384432Y0680414D01*
X0384497Y0680501D01*
X0384565Y0680585D01*
X0384636Y0680667D01*
X0384710Y0680746D01*
X0384787Y0680822D01*
X0384867Y0680896D01*
X0384950Y0680966D01*
X0385035Y0681034D01*
X0385122Y0681098D01*
X0385212Y0681159D01*
X0385304Y0681217D01*
X0385398Y0681271D01*
X0385494Y0681322D01*
X0385591Y0681369D01*
X0385691Y0681413D01*
X0385792Y0681453D01*
X0385894Y0681489D01*
X0385997Y0681521D01*
X0386102Y0681550D01*
X0386208Y0681574D01*
X0386314Y0681595D01*
X0386421Y0681612D01*
X0386529Y0681625D01*
X0386637Y0681634D01*
X0386746Y0681639D01*
X0386854Y0681640D01*
X0386963Y0681637D01*
X0387071Y0681630D01*
X0387179Y0681619D01*
X0387286Y0681604D01*
X0387393Y0681585D01*
X0387499Y0681562D01*
X0387604Y0681536D01*
X0387709Y0681505D01*
X0387811Y0681471D01*
X0387913Y0681433D01*
X0388013Y0681391D01*
X0388112Y0681346D01*
X0388209Y0681297D01*
X0388303Y0681244D01*
X0388396Y0681188D01*
X0388487Y0681129D01*
X0388576Y0681066D01*
X0388662Y0681001D01*
X0388746Y0680932D01*
X0388827Y0680860D01*
X0388905Y0680785D01*
X0388981Y0680707D01*
X0389054Y0680626D01*
X0389124Y0680543D01*
X0389190Y0680458D01*
X0389254Y0680370D01*
X0389314Y0680279D01*
X0389371Y0680187D01*
X0389424Y0680092D01*
X0389474Y0679996D01*
X0389520Y0679898D01*
X0389563Y0679798D01*
X0389602Y0679697D01*
X0389637Y0679594D01*
X0389669Y0679491D01*
X0389696Y0679386D01*
X0389720Y0679280D01*
X0389740Y0679173D01*
X0389756Y0679066D01*
X0389768Y0678958D01*
X0389776Y0678850D01*
X0389780Y0678741D01*
X0389780Y0678633D01*
X0389776Y0678524D01*
X0389768Y0678416D01*
X0389756Y0678308D01*
X0389740Y0678201D01*
X0389720Y0678094D01*
X0389696Y0677988D01*
X0389669Y0677883D01*
X0389637Y0677780D01*
X0389602Y0677677D01*
X0389563Y0677576D01*
X0389520Y0677476D01*
X0389474Y0677378D01*
X0389424Y0677282D01*
X0389371Y0677187D01*
X0389314Y0677095D01*
X0389254Y0677004D01*
X0389190Y0676916D01*
X0389124Y0676831D01*
X0389054Y0676748D01*
X0388981Y0676667D01*
X0388905Y0676589D01*
X0388827Y0676514D01*
X0388746Y0676442D01*
X0388662Y0676373D01*
X0388576Y0676308D01*
X0388487Y0676245D01*
X0388396Y0676186D01*
X0388304Y0676130D01*
X0388209Y0676077D01*
X0388112Y0676028D01*
X0388013Y0675983D01*
X0387913Y0675941D01*
X0387811Y0675903D01*
X0387709Y0675869D01*
X0387604Y0675838D01*
X0387499Y0675812D01*
X0387393Y0675789D01*
X0387286Y0675770D01*
X0387179Y0675755D01*
X0387071Y0675744D01*
X0386963Y0675737D01*
X0386854Y0675734D01*
X0386746Y0675735D01*
X0386637Y0675740D01*
X0386529Y0675749D01*
X0386421Y0675762D01*
X0386314Y0675779D01*
X0386208Y0675800D01*
X0386102Y0675824D01*
X0385997Y0675853D01*
X0385894Y0675885D01*
X0385792Y0675921D01*
X0385691Y0675961D01*
X0385591Y0676005D01*
X0385494Y0676052D01*
X0385398Y0676103D01*
X0385304Y0676157D01*
X0385212Y0676215D01*
X0385122Y0676276D01*
X0385035Y0676340D01*
X0384950Y0676408D01*
X0384867Y0676478D01*
X0384787Y0676552D01*
X0384710Y0676628D01*
X0384636Y0676707D01*
X0384565Y0676789D01*
X0384497Y0676873D01*
X0384432Y0676960D01*
X0384370Y0677049D01*
X0384311Y0677141D01*
X0384256Y0677234D01*
X0384205Y0677329D01*
X0384156Y0677427D01*
X0384112Y0677526D01*
X0384071Y0677626D01*
X0384034Y0677728D01*
X0384001Y0677831D01*
X0383971Y0677936D01*
X0383945Y0678041D01*
X0383924Y0678148D01*
X0383906Y0678255D01*
X0383892Y0678362D01*
X0383882Y0678470D01*
X0383876Y0678579D01*
X0383874Y0678687D01*
X0394701Y0686561D02*
X0435134Y0686561D01*
X0435134Y0002860D01*
X0394701Y0002860D01*
X0040370Y0002860D01*
X0001000Y0002860D01*
X0045291Y0010734D02*
X0045293Y0010842D01*
X0045299Y0010951D01*
X0045309Y0011059D01*
X0045323Y0011166D01*
X0045341Y0011273D01*
X0045362Y0011380D01*
X0045388Y0011485D01*
X0045418Y0011590D01*
X0045451Y0011693D01*
X0045488Y0011795D01*
X0045529Y0011895D01*
X0045573Y0011994D01*
X0045622Y0012092D01*
X0045673Y0012187D01*
X0045728Y0012280D01*
X0045787Y0012372D01*
X0045849Y0012461D01*
X0045914Y0012548D01*
X0045982Y0012632D01*
X0046053Y0012714D01*
X0046127Y0012793D01*
X0046204Y0012869D01*
X0046284Y0012943D01*
X0046367Y0013013D01*
X0046452Y0013081D01*
X0046539Y0013145D01*
X0046629Y0013206D01*
X0046721Y0013264D01*
X0046815Y0013318D01*
X0046911Y0013369D01*
X0047008Y0013416D01*
X0047108Y0013460D01*
X0047209Y0013500D01*
X0047311Y0013536D01*
X0047414Y0013568D01*
X0047519Y0013597D01*
X0047625Y0013621D01*
X0047731Y0013642D01*
X0047838Y0013659D01*
X0047946Y0013672D01*
X0048054Y0013681D01*
X0048163Y0013686D01*
X0048271Y0013687D01*
X0048380Y0013684D01*
X0048488Y0013677D01*
X0048596Y0013666D01*
X0048703Y0013651D01*
X0048810Y0013632D01*
X0048916Y0013609D01*
X0049021Y0013583D01*
X0049126Y0013552D01*
X0049228Y0013518D01*
X0049330Y0013480D01*
X0049430Y0013438D01*
X0049529Y0013393D01*
X0049626Y0013344D01*
X0049720Y0013291D01*
X0049813Y0013235D01*
X0049904Y0013176D01*
X0049993Y0013113D01*
X0050079Y0013048D01*
X0050163Y0012979D01*
X0050244Y0012907D01*
X0050322Y0012832D01*
X0050398Y0012754D01*
X0050471Y0012673D01*
X0050541Y0012590D01*
X0050607Y0012505D01*
X0050671Y0012417D01*
X0050731Y0012326D01*
X0050788Y0012234D01*
X0050841Y0012139D01*
X0050891Y0012043D01*
X0050937Y0011945D01*
X0050980Y0011845D01*
X0051019Y0011744D01*
X0051054Y0011641D01*
X0051086Y0011538D01*
X0051113Y0011433D01*
X0051137Y0011327D01*
X0051157Y0011220D01*
X0051173Y0011113D01*
X0051185Y0011005D01*
X0051193Y0010897D01*
X0051197Y0010788D01*
X0051197Y0010680D01*
X0051193Y0010571D01*
X0051185Y0010463D01*
X0051173Y0010355D01*
X0051157Y0010248D01*
X0051137Y0010141D01*
X0051113Y0010035D01*
X0051086Y0009930D01*
X0051054Y0009827D01*
X0051019Y0009724D01*
X0050980Y0009623D01*
X0050937Y0009523D01*
X0050891Y0009425D01*
X0050841Y0009329D01*
X0050788Y0009234D01*
X0050731Y0009142D01*
X0050671Y0009051D01*
X0050607Y0008963D01*
X0050541Y0008878D01*
X0050471Y0008795D01*
X0050398Y0008714D01*
X0050322Y0008636D01*
X0050244Y0008561D01*
X0050163Y0008489D01*
X0050079Y0008420D01*
X0049993Y0008355D01*
X0049904Y0008292D01*
X0049813Y0008233D01*
X0049721Y0008177D01*
X0049626Y0008124D01*
X0049529Y0008075D01*
X0049430Y0008030D01*
X0049330Y0007988D01*
X0049228Y0007950D01*
X0049126Y0007916D01*
X0049021Y0007885D01*
X0048916Y0007859D01*
X0048810Y0007836D01*
X0048703Y0007817D01*
X0048596Y0007802D01*
X0048488Y0007791D01*
X0048380Y0007784D01*
X0048271Y0007781D01*
X0048163Y0007782D01*
X0048054Y0007787D01*
X0047946Y0007796D01*
X0047838Y0007809D01*
X0047731Y0007826D01*
X0047625Y0007847D01*
X0047519Y0007871D01*
X0047414Y0007900D01*
X0047311Y0007932D01*
X0047209Y0007968D01*
X0047108Y0008008D01*
X0047008Y0008052D01*
X0046911Y0008099D01*
X0046815Y0008150D01*
X0046721Y0008204D01*
X0046629Y0008262D01*
X0046539Y0008323D01*
X0046452Y0008387D01*
X0046367Y0008455D01*
X0046284Y0008525D01*
X0046204Y0008599D01*
X0046127Y0008675D01*
X0046053Y0008754D01*
X0045982Y0008836D01*
X0045914Y0008920D01*
X0045849Y0009007D01*
X0045787Y0009096D01*
X0045728Y0009188D01*
X0045673Y0009281D01*
X0045622Y0009376D01*
X0045573Y0009474D01*
X0045529Y0009573D01*
X0045488Y0009673D01*
X0045451Y0009775D01*
X0045418Y0009878D01*
X0045388Y0009983D01*
X0045362Y0010088D01*
X0045341Y0010195D01*
X0045323Y0010302D01*
X0045309Y0010409D01*
X0045299Y0010517D01*
X0045293Y0010626D01*
X0045291Y0010734D01*
X0378874Y0010734D02*
X0378876Y0010842D01*
X0378882Y0010951D01*
X0378892Y0011059D01*
X0378906Y0011166D01*
X0378924Y0011273D01*
X0378945Y0011380D01*
X0378971Y0011485D01*
X0379001Y0011590D01*
X0379034Y0011693D01*
X0379071Y0011795D01*
X0379112Y0011895D01*
X0379156Y0011994D01*
X0379205Y0012092D01*
X0379256Y0012187D01*
X0379311Y0012280D01*
X0379370Y0012372D01*
X0379432Y0012461D01*
X0379497Y0012548D01*
X0379565Y0012632D01*
X0379636Y0012714D01*
X0379710Y0012793D01*
X0379787Y0012869D01*
X0379867Y0012943D01*
X0379950Y0013013D01*
X0380035Y0013081D01*
X0380122Y0013145D01*
X0380212Y0013206D01*
X0380304Y0013264D01*
X0380398Y0013318D01*
X0380494Y0013369D01*
X0380591Y0013416D01*
X0380691Y0013460D01*
X0380792Y0013500D01*
X0380894Y0013536D01*
X0380997Y0013568D01*
X0381102Y0013597D01*
X0381208Y0013621D01*
X0381314Y0013642D01*
X0381421Y0013659D01*
X0381529Y0013672D01*
X0381637Y0013681D01*
X0381746Y0013686D01*
X0381854Y0013687D01*
X0381963Y0013684D01*
X0382071Y0013677D01*
X0382179Y0013666D01*
X0382286Y0013651D01*
X0382393Y0013632D01*
X0382499Y0013609D01*
X0382604Y0013583D01*
X0382709Y0013552D01*
X0382811Y0013518D01*
X0382913Y0013480D01*
X0383013Y0013438D01*
X0383112Y0013393D01*
X0383209Y0013344D01*
X0383303Y0013291D01*
X0383396Y0013235D01*
X0383487Y0013176D01*
X0383576Y0013113D01*
X0383662Y0013048D01*
X0383746Y0012979D01*
X0383827Y0012907D01*
X0383905Y0012832D01*
X0383981Y0012754D01*
X0384054Y0012673D01*
X0384124Y0012590D01*
X0384190Y0012505D01*
X0384254Y0012417D01*
X0384314Y0012326D01*
X0384371Y0012234D01*
X0384424Y0012139D01*
X0384474Y0012043D01*
X0384520Y0011945D01*
X0384563Y0011845D01*
X0384602Y0011744D01*
X0384637Y0011641D01*
X0384669Y0011538D01*
X0384696Y0011433D01*
X0384720Y0011327D01*
X0384740Y0011220D01*
X0384756Y0011113D01*
X0384768Y0011005D01*
X0384776Y0010897D01*
X0384780Y0010788D01*
X0384780Y0010680D01*
X0384776Y0010571D01*
X0384768Y0010463D01*
X0384756Y0010355D01*
X0384740Y0010248D01*
X0384720Y0010141D01*
X0384696Y0010035D01*
X0384669Y0009930D01*
X0384637Y0009827D01*
X0384602Y0009724D01*
X0384563Y0009623D01*
X0384520Y0009523D01*
X0384474Y0009425D01*
X0384424Y0009329D01*
X0384371Y0009234D01*
X0384314Y0009142D01*
X0384254Y0009051D01*
X0384190Y0008963D01*
X0384124Y0008878D01*
X0384054Y0008795D01*
X0383981Y0008714D01*
X0383905Y0008636D01*
X0383827Y0008561D01*
X0383746Y0008489D01*
X0383662Y0008420D01*
X0383576Y0008355D01*
X0383487Y0008292D01*
X0383396Y0008233D01*
X0383304Y0008177D01*
X0383209Y0008124D01*
X0383112Y0008075D01*
X0383013Y0008030D01*
X0382913Y0007988D01*
X0382811Y0007950D01*
X0382709Y0007916D01*
X0382604Y0007885D01*
X0382499Y0007859D01*
X0382393Y0007836D01*
X0382286Y0007817D01*
X0382179Y0007802D01*
X0382071Y0007791D01*
X0381963Y0007784D01*
X0381854Y0007781D01*
X0381746Y0007782D01*
X0381637Y0007787D01*
X0381529Y0007796D01*
X0381421Y0007809D01*
X0381314Y0007826D01*
X0381208Y0007847D01*
X0381102Y0007871D01*
X0380997Y0007900D01*
X0380894Y0007932D01*
X0380792Y0007968D01*
X0380691Y0008008D01*
X0380591Y0008052D01*
X0380494Y0008099D01*
X0380398Y0008150D01*
X0380304Y0008204D01*
X0380212Y0008262D01*
X0380122Y0008323D01*
X0380035Y0008387D01*
X0379950Y0008455D01*
X0379867Y0008525D01*
X0379787Y0008599D01*
X0379710Y0008675D01*
X0379636Y0008754D01*
X0379565Y0008836D01*
X0379497Y0008920D01*
X0379432Y0009007D01*
X0379370Y0009096D01*
X0379311Y0009188D01*
X0379256Y0009281D01*
X0379205Y0009376D01*
X0379156Y0009474D01*
X0379112Y0009573D01*
X0379071Y0009673D01*
X0379034Y0009775D01*
X0379001Y0009878D01*
X0378971Y0009983D01*
X0378945Y0010088D01*
X0378924Y0010195D01*
X0378906Y0010302D01*
X0378892Y0010409D01*
X0378882Y0010517D01*
X0378876Y0010626D01*
X0378874Y0010734D01*
D11*
X0394701Y0002860D02*
X0394701Y0686561D01*
X0040370Y0686561D02*
X0040370Y0002860D01*
D12*
X0060047Y0021900D02*
X0064317Y0021900D01*
X0065385Y0022968D01*
X0065385Y0025103D01*
X0064317Y0026170D01*
X0060047Y0026170D01*
X0058980Y0025103D01*
X0058980Y0022968D01*
X0060047Y0021900D01*
X0058980Y0028345D02*
X0058980Y0032616D01*
X0058980Y0034791D02*
X0058980Y0039061D01*
X0062182Y0036926D02*
X0062182Y0034791D01*
X0058980Y0034791D02*
X0065385Y0034791D01*
X0062182Y0030481D02*
X0062182Y0028345D01*
X0058980Y0028345D02*
X0065385Y0028345D01*
X0065385Y0041236D02*
X0058980Y0045507D01*
X0060047Y0047682D02*
X0064317Y0047682D01*
X0065385Y0048750D01*
X0065385Y0050885D01*
X0064317Y0051952D01*
X0060047Y0051952D01*
X0058980Y0050885D01*
X0058980Y0048750D01*
X0060047Y0047682D01*
X0058980Y0054127D02*
X0065385Y0058398D01*
X0058980Y0058398D01*
X0058980Y0054127D02*
X0065385Y0054127D01*
X0065047Y0061900D02*
X0069317Y0061900D01*
X0070385Y0062968D01*
X0070385Y0065103D01*
X0069317Y0066170D01*
X0070385Y0068345D02*
X0066115Y0068345D01*
X0063980Y0070481D01*
X0066115Y0072616D01*
X0070385Y0072616D01*
X0070385Y0074791D02*
X0063980Y0074791D01*
X0063980Y0077994D01*
X0065047Y0079061D01*
X0067182Y0079061D01*
X0068250Y0077994D01*
X0068250Y0074791D01*
X0067182Y0072616D02*
X0067182Y0068345D01*
X0065047Y0066170D02*
X0063980Y0065103D01*
X0063980Y0062968D01*
X0065047Y0061900D01*
X0078004Y0071738D02*
X0080366Y0071738D01*
X0080366Y0076462D02*
X0078004Y0076462D01*
X0070385Y0083372D02*
X0063980Y0083372D01*
X0063980Y0085507D02*
X0063980Y0081236D01*
X0063980Y0087682D02*
X0070385Y0087682D01*
X0070385Y0091952D01*
X0069317Y0094127D02*
X0070385Y0095195D01*
X0070385Y0097330D01*
X0069317Y0098398D01*
X0063980Y0098398D01*
X0063980Y0100573D02*
X0063980Y0103776D01*
X0065047Y0104843D01*
X0067182Y0104843D01*
X0068250Y0103776D01*
X0068250Y0100573D01*
X0070385Y0100573D02*
X0063980Y0100573D01*
X0068250Y0102708D02*
X0070385Y0104843D01*
X0069317Y0094127D02*
X0063980Y0094127D01*
X0063980Y0091952D02*
X0063980Y0087682D01*
X0067182Y0087682D02*
X0067182Y0089817D01*
X0096504Y0076462D02*
X0098866Y0076462D01*
X0098866Y0071738D02*
X0096504Y0071738D01*
X0104004Y0066462D02*
X0106366Y0066462D01*
X0106366Y0061738D02*
X0104004Y0061738D01*
X0103504Y0054462D02*
X0105866Y0054462D01*
X0105866Y0049738D02*
X0103504Y0049738D01*
X0103504Y0041462D02*
X0105866Y0041462D01*
X0105866Y0036738D02*
X0103504Y0036738D01*
X0104504Y0028962D02*
X0106866Y0028962D01*
X0106866Y0024238D02*
X0104504Y0024238D01*
X0104504Y0018962D02*
X0106866Y0018962D01*
X0106866Y0014238D02*
X0104504Y0014238D01*
X0134504Y0019238D02*
X0136866Y0019238D01*
X0136866Y0023962D02*
X0134504Y0023962D01*
X0139504Y0034238D02*
X0141866Y0034238D01*
X0141866Y0038962D02*
X0139504Y0038962D01*
X0149504Y0023962D02*
X0151866Y0023962D01*
X0151866Y0019238D02*
X0149504Y0019238D01*
X0154504Y0034238D02*
X0156866Y0034238D01*
X0156866Y0038962D02*
X0154504Y0038962D01*
X0164504Y0023962D02*
X0166866Y0023962D01*
X0166866Y0019238D02*
X0164504Y0019238D01*
X0169504Y0034238D02*
X0171866Y0034238D01*
X0171866Y0038962D02*
X0169504Y0038962D01*
X0179504Y0023962D02*
X0181866Y0023962D01*
X0181866Y0019238D02*
X0179504Y0019238D01*
X0184504Y0034238D02*
X0186866Y0034238D01*
X0186866Y0038962D02*
X0184504Y0038962D01*
X0194504Y0023962D02*
X0196866Y0023962D01*
X0196866Y0019238D02*
X0194504Y0019238D01*
X0209504Y0019238D02*
X0211866Y0019238D01*
X0211866Y0023962D02*
X0209504Y0023962D01*
X0219504Y0039238D02*
X0221866Y0039238D01*
X0221866Y0043962D02*
X0219504Y0043962D01*
X0224504Y0023962D02*
X0226866Y0023962D01*
X0226866Y0019238D02*
X0224504Y0019238D01*
X0239504Y0019238D02*
X0241866Y0019238D01*
X0241866Y0023962D02*
X0239504Y0023962D01*
X0239504Y0039238D02*
X0241866Y0039238D01*
X0241866Y0043962D02*
X0239504Y0043962D01*
X0259504Y0043962D02*
X0261866Y0043962D01*
X0261866Y0039238D02*
X0259504Y0039238D01*
X0299698Y0099400D02*
X0302125Y0099400D01*
X0303339Y0100613D01*
X0303339Y0106680D01*
X0305735Y0104253D02*
X0308162Y0106680D01*
X0308162Y0099400D01*
X0305735Y0099400D02*
X0310589Y0099400D01*
X0299698Y0099400D02*
X0298485Y0100613D01*
X0298485Y0106680D01*
X0355980Y0127590D02*
X0362385Y0127590D01*
X0362385Y0125455D02*
X0362385Y0129725D01*
X0358115Y0125455D02*
X0355980Y0127590D01*
X0358115Y0169009D02*
X0355980Y0171144D01*
X0358115Y0173279D01*
X0362385Y0173279D01*
X0361317Y0175454D02*
X0362385Y0176522D01*
X0362385Y0178657D01*
X0361317Y0179725D01*
X0360250Y0179725D01*
X0359182Y0178657D01*
X0359182Y0177590D01*
X0359182Y0178657D02*
X0358115Y0179725D01*
X0357047Y0179725D01*
X0355980Y0178657D01*
X0355980Y0176522D01*
X0357047Y0175454D01*
X0359182Y0173279D02*
X0359182Y0169009D01*
X0358115Y0169009D02*
X0362385Y0169009D01*
X0362385Y0219009D02*
X0358115Y0219009D01*
X0355980Y0221144D01*
X0358115Y0223279D01*
X0362385Y0223279D01*
X0362385Y0225454D02*
X0358115Y0229725D01*
X0357047Y0229725D01*
X0355980Y0228657D01*
X0355980Y0226522D01*
X0357047Y0225454D01*
X0359182Y0223279D02*
X0359182Y0219009D01*
X0362385Y0225454D02*
X0362385Y0229725D01*
X0362385Y0269009D02*
X0358115Y0269009D01*
X0355980Y0271144D01*
X0358115Y0273279D01*
X0362385Y0273279D01*
X0362385Y0275454D02*
X0362385Y0279725D01*
X0362385Y0277590D02*
X0355980Y0277590D01*
X0358115Y0275454D01*
X0359182Y0273279D02*
X0359182Y0269009D01*
X0358115Y0322563D02*
X0355980Y0324699D01*
X0362385Y0324699D01*
X0362385Y0326834D02*
X0362385Y0322563D01*
X0362385Y0329009D02*
X0358115Y0333279D01*
X0357047Y0333279D01*
X0355980Y0332212D01*
X0355980Y0330077D01*
X0357047Y0329009D01*
X0355980Y0335454D02*
X0360250Y0335454D01*
X0362385Y0337590D01*
X0360250Y0339725D01*
X0355980Y0339725D01*
X0353020Y0350439D02*
X0350657Y0350439D01*
X0350657Y0355163D02*
X0353020Y0355163D01*
X0362385Y0333279D02*
X0362385Y0329009D01*
X0361317Y0379009D02*
X0362385Y0380077D01*
X0362385Y0382212D01*
X0361317Y0383279D01*
X0359182Y0383279D01*
X0358115Y0382212D01*
X0358115Y0381144D01*
X0359182Y0379009D01*
X0355980Y0379009D01*
X0355980Y0383279D01*
X0355980Y0385454D02*
X0360250Y0385454D01*
X0362385Y0387590D01*
X0360250Y0389725D01*
X0355980Y0389725D01*
X0354209Y0398939D02*
X0351846Y0398939D01*
X0351846Y0403663D02*
X0354209Y0403663D01*
X0357047Y0424341D02*
X0355980Y0425408D01*
X0355980Y0427543D01*
X0357047Y0428611D01*
X0358115Y0428611D01*
X0359182Y0427543D01*
X0360250Y0428611D01*
X0361317Y0428611D01*
X0362385Y0427543D01*
X0362385Y0425408D01*
X0361317Y0424341D01*
X0359182Y0426476D02*
X0359182Y0427543D01*
X0361317Y0430786D02*
X0361317Y0431854D01*
X0362385Y0431854D01*
X0362385Y0430786D01*
X0361317Y0430786D01*
X0361317Y0434009D02*
X0362385Y0435077D01*
X0362385Y0437212D01*
X0361317Y0438279D01*
X0360250Y0438279D01*
X0359182Y0437212D01*
X0359182Y0436144D01*
X0359182Y0437212D02*
X0358115Y0438279D01*
X0357047Y0438279D01*
X0355980Y0437212D01*
X0355980Y0435077D01*
X0357047Y0434009D01*
X0355980Y0440454D02*
X0360250Y0440454D01*
X0362385Y0442590D01*
X0360250Y0444725D01*
X0355980Y0444725D01*
X0280685Y0276600D02*
X0250685Y0276600D01*
X0250685Y0267700D01*
X0247185Y0264400D02*
X0247183Y0264456D01*
X0247177Y0264511D01*
X0247168Y0264566D01*
X0247154Y0264621D01*
X0247137Y0264674D01*
X0247116Y0264725D01*
X0247091Y0264776D01*
X0247063Y0264824D01*
X0247032Y0264870D01*
X0246998Y0264914D01*
X0246960Y0264956D01*
X0246920Y0264995D01*
X0246878Y0265030D01*
X0246832Y0265063D01*
X0246785Y0265093D01*
X0246736Y0265119D01*
X0246685Y0265142D01*
X0246632Y0265161D01*
X0246579Y0265176D01*
X0246524Y0265188D01*
X0246469Y0265196D01*
X0246413Y0265200D01*
X0246357Y0265200D01*
X0246301Y0265196D01*
X0246246Y0265188D01*
X0246191Y0265176D01*
X0246138Y0265161D01*
X0246085Y0265142D01*
X0246034Y0265119D01*
X0245985Y0265093D01*
X0245938Y0265063D01*
X0245892Y0265030D01*
X0245850Y0264995D01*
X0245810Y0264956D01*
X0245772Y0264914D01*
X0245738Y0264870D01*
X0245707Y0264824D01*
X0245679Y0264776D01*
X0245654Y0264725D01*
X0245633Y0264674D01*
X0245616Y0264621D01*
X0245602Y0264566D01*
X0245593Y0264511D01*
X0245587Y0264456D01*
X0245585Y0264400D01*
X0245587Y0264344D01*
X0245593Y0264289D01*
X0245602Y0264234D01*
X0245616Y0264179D01*
X0245633Y0264126D01*
X0245654Y0264075D01*
X0245679Y0264024D01*
X0245707Y0263976D01*
X0245738Y0263930D01*
X0245772Y0263886D01*
X0245810Y0263844D01*
X0245850Y0263805D01*
X0245892Y0263770D01*
X0245938Y0263737D01*
X0245985Y0263707D01*
X0246034Y0263681D01*
X0246085Y0263658D01*
X0246138Y0263639D01*
X0246191Y0263624D01*
X0246246Y0263612D01*
X0246301Y0263604D01*
X0246357Y0263600D01*
X0246413Y0263600D01*
X0246469Y0263604D01*
X0246524Y0263612D01*
X0246579Y0263624D01*
X0246632Y0263639D01*
X0246685Y0263658D01*
X0246736Y0263681D01*
X0246785Y0263707D01*
X0246832Y0263737D01*
X0246878Y0263770D01*
X0246920Y0263805D01*
X0246960Y0263844D01*
X0246998Y0263886D01*
X0247032Y0263930D01*
X0247063Y0263976D01*
X0247091Y0264024D01*
X0247116Y0264075D01*
X0247137Y0264126D01*
X0247154Y0264179D01*
X0247168Y0264234D01*
X0247177Y0264289D01*
X0247183Y0264344D01*
X0247185Y0264400D01*
X0250685Y0255500D02*
X0250685Y0246600D01*
X0280685Y0246600D01*
X0280685Y0255500D01*
X0280685Y0267700D02*
X0280685Y0276600D01*
X0245780Y0294537D02*
X0243417Y0294537D01*
X0243417Y0299261D02*
X0245780Y0299261D01*
X0220531Y0299261D02*
X0218169Y0299261D01*
X0218169Y0294537D02*
X0220531Y0294537D01*
X0204366Y0294238D02*
X0202004Y0294238D01*
X0202004Y0298962D02*
X0204366Y0298962D01*
X0193882Y0317978D02*
X0193882Y0325222D01*
X0177488Y0325222D01*
X0177488Y0317978D01*
X0193882Y0317978D01*
X0188185Y0321600D02*
X0185685Y0321600D01*
X0185685Y0324100D01*
X0185685Y0321600D02*
X0181685Y0319100D01*
X0181685Y0324100D01*
X0185685Y0321600D01*
X0185685Y0319100D01*
X0185685Y0321600D02*
X0179685Y0321600D01*
X0184504Y0298962D02*
X0186866Y0298962D01*
X0186866Y0294238D02*
X0184504Y0294238D01*
X0166866Y0294238D02*
X0164504Y0294238D01*
X0164504Y0298962D02*
X0166866Y0298962D01*
X0146866Y0298962D02*
X0144504Y0298962D01*
X0144504Y0294238D02*
X0146866Y0294238D01*
X0153323Y0207781D02*
X0153323Y0205419D01*
X0158047Y0205419D02*
X0158047Y0207781D01*
X0163323Y0206781D02*
X0163323Y0204419D01*
X0168047Y0204419D02*
X0168047Y0206781D01*
X0148047Y0206781D02*
X0148047Y0204419D01*
X0143323Y0204419D02*
X0143323Y0206781D01*
X0138047Y0206781D02*
X0138047Y0204419D01*
X0133323Y0204419D02*
X0133323Y0206781D01*
X0127846Y0207557D02*
X0127846Y0205194D01*
X0123122Y0205194D02*
X0123122Y0207557D01*
X0118047Y0206781D02*
X0118047Y0204419D01*
X0113323Y0204419D02*
X0113323Y0206781D01*
X0103047Y0207281D02*
X0103047Y0204919D01*
X0098323Y0204919D02*
X0098323Y0207281D01*
X0092547Y0207281D02*
X0092547Y0204919D01*
X0087823Y0204919D02*
X0087823Y0207281D01*
X0078250Y0184061D02*
X0073980Y0184061D01*
X0078250Y0184061D02*
X0080385Y0181926D01*
X0078250Y0179791D01*
X0073980Y0179791D01*
X0075047Y0177616D02*
X0073980Y0176548D01*
X0073980Y0174413D01*
X0075047Y0173345D01*
X0075047Y0177616D02*
X0076115Y0177616D01*
X0080385Y0173345D01*
X0080385Y0177616D01*
X0080385Y0171170D02*
X0080385Y0166900D01*
X0080385Y0169035D02*
X0073980Y0169035D01*
X0076115Y0166900D01*
X0075047Y0251900D02*
X0073980Y0252968D01*
X0073980Y0255103D01*
X0075047Y0256170D01*
X0076115Y0256170D01*
X0080385Y0251900D01*
X0080385Y0256170D01*
X0080385Y0258345D02*
X0076115Y0262616D01*
X0075047Y0262616D01*
X0073980Y0261548D01*
X0073980Y0259413D01*
X0075047Y0258345D01*
X0080385Y0258345D02*
X0080385Y0262616D01*
X0079317Y0264791D02*
X0075047Y0269061D01*
X0079317Y0269061D01*
X0080385Y0267994D01*
X0080385Y0265859D01*
X0079317Y0264791D01*
X0075047Y0264791D01*
X0073980Y0265859D01*
X0073980Y0267994D01*
X0075047Y0269061D01*
X0073980Y0271236D02*
X0078250Y0271236D01*
X0080385Y0273372D01*
X0078250Y0275507D01*
X0073980Y0275507D01*
X0073980Y0281952D02*
X0080385Y0277682D01*
X0080385Y0284127D02*
X0080385Y0288398D01*
X0080385Y0286263D02*
X0073980Y0286263D01*
X0076115Y0284127D01*
X0076115Y0290573D02*
X0073980Y0292708D01*
X0080385Y0292708D01*
X0080385Y0290573D02*
X0080385Y0294843D01*
X0079317Y0297018D02*
X0075047Y0301289D01*
X0079317Y0301289D01*
X0080385Y0300221D01*
X0080385Y0298086D01*
X0079317Y0297018D01*
X0075047Y0297018D01*
X0073980Y0298086D01*
X0073980Y0300221D01*
X0075047Y0301289D01*
X0073980Y0303464D02*
X0078250Y0303464D01*
X0080385Y0305599D01*
X0078250Y0307734D01*
X0073980Y0307734D01*
X0072185Y0362100D02*
X0087185Y0362100D01*
X0087185Y0461100D01*
X0072185Y0461100D01*
X0075685Y0454100D02*
X0075685Y0434100D01*
X0080185Y0434100D01*
X0080185Y0454100D01*
X0075685Y0454100D01*
X0059185Y0461100D02*
X0044185Y0461100D01*
X0044185Y0362100D01*
X0059185Y0362100D01*
X0055685Y0369100D02*
X0055685Y0389100D01*
X0051185Y0389100D01*
X0051185Y0369100D01*
X0055685Y0369100D01*
X0073685Y0367600D02*
X0078185Y0367600D01*
X0078185Y0369100D01*
X0075685Y0369100D01*
X0075685Y0389100D01*
X0080185Y0389100D01*
X0080185Y0369100D01*
X0080185Y0366600D01*
X0073685Y0366600D01*
X0078185Y0369100D02*
X0080185Y0369100D01*
X0055685Y0434100D02*
X0051185Y0434100D01*
X0051185Y0454100D01*
X0051185Y0456600D01*
X0057685Y0456600D01*
X0057685Y0455600D02*
X0053185Y0455600D01*
X0053185Y0454100D01*
X0055685Y0454100D01*
X0055685Y0434100D01*
X0053185Y0454100D02*
X0051185Y0454100D01*
X0218039Y0460537D02*
X0220402Y0460537D01*
X0220402Y0465261D02*
X0218039Y0465261D01*
X0151412Y0139180D02*
X0151412Y0131900D01*
X0148986Y0131900D02*
X0153839Y0131900D01*
X0148986Y0136753D02*
X0151412Y0139180D01*
X0146589Y0137967D02*
X0145375Y0139180D01*
X0142949Y0139180D01*
X0141735Y0137967D01*
X0141735Y0136753D01*
X0142949Y0135540D01*
X0145375Y0135540D01*
X0146589Y0134327D01*
X0146589Y0133113D01*
X0145375Y0131900D01*
X0142949Y0131900D01*
X0141735Y0133113D01*
X0139339Y0133113D02*
X0139339Y0139180D01*
X0134485Y0139180D02*
X0134485Y0133113D01*
X0135698Y0131900D01*
X0138125Y0131900D01*
X0139339Y0133113D01*
X0144162Y0130687D02*
X0144162Y0140394D01*
X0355980Y0078657D02*
X0355980Y0076522D01*
X0357047Y0075455D01*
X0355980Y0078657D02*
X0357047Y0079725D01*
X0358115Y0079725D01*
X0362385Y0075455D01*
X0362385Y0079725D01*
X0361317Y0029725D02*
X0362385Y0028657D01*
X0362385Y0026522D01*
X0361317Y0025455D01*
X0359182Y0027590D02*
X0359182Y0028657D01*
X0360250Y0029725D01*
X0361317Y0029725D01*
X0359182Y0028657D02*
X0358115Y0029725D01*
X0357047Y0029725D01*
X0355980Y0028657D01*
X0355980Y0026522D01*
X0357047Y0025455D01*
D13*
X0363441Y0020970D02*
X0389031Y0020970D01*
X0389031Y0065065D01*
X0392969Y0065065D01*
X0392969Y0020970D01*
X0389031Y0020970D01*
X0363441Y0020970D02*
X0363441Y0065065D01*
X0389031Y0065065D01*
X0389031Y0070970D02*
X0389031Y0115065D01*
X0392969Y0115065D01*
X0392969Y0070970D01*
X0389031Y0070970D01*
X0363441Y0070970D01*
X0363441Y0115065D01*
X0389031Y0115065D01*
X0389031Y0120970D02*
X0389031Y0165065D01*
X0392969Y0165065D01*
X0392969Y0120970D01*
X0389031Y0120970D01*
X0363441Y0120970D01*
X0363441Y0165065D01*
X0389031Y0165065D01*
X0389465Y0169789D02*
X0389465Y0213883D01*
X0393402Y0213883D01*
X0393402Y0169789D01*
X0389465Y0169789D01*
X0363874Y0169789D01*
X0363874Y0213883D01*
X0389465Y0213883D01*
X0389465Y0219789D02*
X0389465Y0263883D01*
X0393402Y0263883D01*
X0393402Y0219789D01*
X0389465Y0219789D01*
X0363874Y0219789D01*
X0363874Y0263883D01*
X0389465Y0263883D01*
X0389465Y0269789D02*
X0389465Y0313883D01*
X0393402Y0313883D01*
X0393402Y0269789D01*
X0389465Y0269789D01*
X0363874Y0269789D01*
X0363874Y0313883D01*
X0389465Y0313883D01*
X0389976Y0320773D02*
X0389976Y0364868D01*
X0393913Y0364868D01*
X0393913Y0320773D01*
X0389976Y0320773D01*
X0364386Y0320773D01*
X0364386Y0364868D01*
X0389976Y0364868D01*
X0389976Y0369710D02*
X0389976Y0413805D01*
X0393913Y0413805D01*
X0393913Y0369710D01*
X0389976Y0369710D01*
X0364386Y0369710D01*
X0364386Y0413805D01*
X0389976Y0413805D01*
X0389976Y0417584D02*
X0389976Y0461679D01*
X0393913Y0461679D01*
X0393913Y0417584D01*
X0389976Y0417584D01*
X0364386Y0417584D01*
X0364386Y0461679D01*
X0389976Y0461679D01*
X0340921Y0453017D02*
X0338421Y0455517D01*
X0333421Y0455517D01*
X0330921Y0453017D01*
X0328421Y0455517D01*
X0323421Y0455517D01*
X0320921Y0453017D01*
X0318421Y0455517D01*
X0313421Y0455517D01*
X0310921Y0453017D01*
X0308421Y0455517D01*
X0303421Y0455517D01*
X0300921Y0453017D01*
X0298421Y0455517D01*
X0293421Y0455517D01*
X0290921Y0453017D01*
X0288421Y0455517D01*
X0283421Y0455517D01*
X0280921Y0453017D01*
X0278421Y0455517D01*
X0273421Y0455517D01*
X0270921Y0453017D01*
X0268421Y0455517D01*
X0263421Y0455517D01*
X0260921Y0453017D01*
X0258421Y0455517D01*
X0253421Y0455517D01*
X0250921Y0453017D01*
X0248421Y0455517D01*
X0243421Y0455517D01*
X0240921Y0453017D01*
X0238421Y0455517D01*
X0233421Y0455517D01*
X0230921Y0453017D01*
X0228421Y0455517D01*
X0223421Y0455517D01*
X0220921Y0453017D01*
X0218421Y0455517D01*
X0213421Y0455517D01*
X0210921Y0453017D01*
X0208421Y0455517D01*
X0203421Y0455517D01*
X0200921Y0453017D01*
X0200921Y0448017D01*
X0203421Y0445517D01*
X0208421Y0445517D01*
X0210921Y0448017D01*
X0213421Y0445517D01*
X0218421Y0445517D01*
X0220921Y0448017D01*
X0223421Y0445517D01*
X0228421Y0445517D01*
X0230921Y0448017D01*
X0233421Y0445517D01*
X0238421Y0445517D01*
X0240921Y0448017D01*
X0243421Y0445517D01*
X0248421Y0445517D01*
X0250921Y0448017D01*
X0253421Y0445517D01*
X0258421Y0445517D01*
X0260921Y0448017D01*
X0263421Y0445517D01*
X0268421Y0445517D01*
X0270921Y0448017D01*
X0273421Y0445517D01*
X0278421Y0445517D01*
X0280921Y0448017D01*
X0283421Y0445517D01*
X0288421Y0445517D01*
X0290921Y0448017D01*
X0293421Y0445517D01*
X0298421Y0445517D01*
X0300921Y0448017D01*
X0303421Y0445517D01*
X0308421Y0445517D01*
X0310921Y0448017D01*
X0313421Y0445517D01*
X0318421Y0445517D01*
X0320921Y0448017D01*
X0323421Y0445517D01*
X0328421Y0445517D01*
X0330921Y0448017D01*
X0333421Y0445517D01*
X0338421Y0445517D01*
X0340921Y0448017D01*
X0340921Y0453017D01*
X0337555Y0375202D02*
X0332555Y0375202D01*
X0330055Y0372702D01*
X0327555Y0375202D01*
X0322555Y0375202D01*
X0320055Y0372702D01*
X0317555Y0375202D01*
X0312555Y0375202D01*
X0310055Y0372702D01*
X0307555Y0375202D01*
X0302555Y0375202D01*
X0300055Y0372702D01*
X0297555Y0375202D01*
X0292555Y0375202D01*
X0290055Y0372702D01*
X0287555Y0375202D01*
X0282555Y0375202D01*
X0280055Y0372702D01*
X0277555Y0375202D01*
X0272555Y0375202D01*
X0270055Y0372702D01*
X0267555Y0375202D01*
X0262555Y0375202D01*
X0260055Y0372702D01*
X0257555Y0375202D01*
X0252555Y0375202D01*
X0250055Y0372702D01*
X0247555Y0375202D01*
X0242555Y0375202D01*
X0240055Y0372702D01*
X0237555Y0375202D01*
X0232555Y0375202D01*
X0230055Y0372702D01*
X0227555Y0375202D01*
X0222555Y0375202D01*
X0220055Y0372702D01*
X0217555Y0375202D01*
X0212555Y0375202D01*
X0210055Y0372702D01*
X0207555Y0375202D01*
X0202555Y0375202D01*
X0200055Y0372702D01*
X0200055Y0367702D01*
X0202555Y0365202D01*
X0207555Y0365202D01*
X0210055Y0367702D01*
X0212555Y0365202D01*
X0217555Y0365202D01*
X0220055Y0367702D01*
X0222555Y0365202D01*
X0227555Y0365202D01*
X0230055Y0367702D01*
X0232555Y0365202D01*
X0237555Y0365202D01*
X0240055Y0367702D01*
X0242555Y0365202D01*
X0247555Y0365202D01*
X0250055Y0367702D01*
X0252555Y0365202D01*
X0257555Y0365202D01*
X0260055Y0367702D01*
X0262555Y0365202D01*
X0267555Y0365202D01*
X0270055Y0367702D01*
X0272555Y0365202D01*
X0277555Y0365202D01*
X0280055Y0367702D01*
X0282555Y0365202D01*
X0287555Y0365202D01*
X0290055Y0367702D01*
X0292555Y0365202D01*
X0297555Y0365202D01*
X0300055Y0367702D01*
X0302555Y0365202D01*
X0307555Y0365202D01*
X0310055Y0367702D01*
X0312555Y0365202D01*
X0317555Y0365202D01*
X0320055Y0367702D01*
X0322555Y0365202D01*
X0327555Y0365202D01*
X0330055Y0367702D01*
X0332555Y0365202D01*
X0337555Y0365202D01*
X0340055Y0367702D01*
X0340055Y0372702D01*
X0337555Y0375202D01*
X0292880Y0328569D02*
X0276388Y0328569D01*
X0275761Y0323069D02*
X0274181Y0323069D01*
X0283507Y0323069D02*
X0285761Y0323069D01*
X0293507Y0323069D02*
X0295086Y0323069D01*
X0289975Y0285506D02*
X0285037Y0285506D01*
X0282424Y0284272D02*
X0281190Y0285506D01*
X0278721Y0285506D01*
X0277487Y0284272D01*
X0282424Y0284272D02*
X0282424Y0283038D01*
X0277487Y0278100D01*
X0282424Y0278100D01*
X0285037Y0278100D02*
X0285037Y0279334D01*
X0289975Y0284272D01*
X0289975Y0285506D01*
X0292588Y0281803D02*
X0297525Y0281803D01*
X0300138Y0281803D02*
X0305076Y0281803D01*
X0307689Y0280569D02*
X0311392Y0280569D01*
X0312626Y0281803D01*
X0312626Y0284272D01*
X0311392Y0285506D01*
X0307689Y0285506D01*
X0307689Y0278100D01*
X0310157Y0280569D02*
X0312626Y0278100D01*
X0315239Y0278100D02*
X0315239Y0279334D01*
X0320177Y0284272D01*
X0320177Y0285506D01*
X0315239Y0285506D01*
X0303841Y0285506D02*
X0303841Y0278100D01*
X0300138Y0281803D02*
X0303841Y0285506D01*
X0274874Y0278100D02*
X0269936Y0278100D01*
X0272405Y0278100D02*
X0272405Y0285506D01*
X0269936Y0283038D01*
X0267323Y0284272D02*
X0267323Y0279334D01*
X0266089Y0278100D01*
X0263620Y0278100D01*
X0262386Y0279334D01*
X0262386Y0284272D01*
X0263620Y0285506D01*
X0266089Y0285506D01*
X0267323Y0284272D01*
X0264855Y0280569D02*
X0267323Y0278100D01*
X0259773Y0278100D02*
X0257304Y0280569D01*
X0258539Y0280569D02*
X0254835Y0280569D01*
X0254835Y0278100D02*
X0254835Y0285506D01*
X0258539Y0285506D01*
X0259773Y0284272D01*
X0259773Y0281803D01*
X0258539Y0280569D01*
X0252223Y0279334D02*
X0252223Y0284272D01*
X0250988Y0285506D01*
X0247285Y0285506D01*
X0247285Y0278100D01*
X0250988Y0278100D01*
X0252223Y0279334D01*
X0249405Y0322691D02*
X0247826Y0322691D01*
X0247199Y0328191D02*
X0230707Y0328191D01*
X0230080Y0322691D02*
X0228500Y0322691D01*
X0237826Y0322691D02*
X0240080Y0322691D01*
X0221935Y0274100D02*
X0221935Y0249100D01*
X0199435Y0249100D02*
X0199435Y0274100D01*
X0117260Y0275694D02*
X0114110Y0275694D01*
X0114110Y0287506D02*
X0117260Y0287506D01*
X0080528Y0231324D02*
X0080528Y0221876D01*
X0074622Y0221876D01*
X0074622Y0231324D02*
X0080528Y0231324D01*
X0066748Y0231324D02*
X0062417Y0231324D01*
X0060843Y0229750D01*
X0060843Y0223450D01*
X0062417Y0221876D01*
X0066748Y0221876D01*
X0071630Y0195065D02*
X0046039Y0195065D01*
X0046039Y0150970D01*
X0042102Y0150970D01*
X0042102Y0195065D01*
X0046039Y0195065D01*
X0071630Y0195065D02*
X0071630Y0150970D01*
X0046039Y0150970D01*
X0045606Y0105891D02*
X0041669Y0105891D01*
X0041669Y0061797D01*
X0045606Y0061797D01*
X0045606Y0105891D01*
X0071197Y0105891D01*
X0071197Y0061797D01*
X0045606Y0061797D01*
X0070843Y0039750D02*
X0070843Y0033450D01*
X0072417Y0031876D01*
X0076748Y0031876D01*
X0070843Y0039750D02*
X0072417Y0041324D01*
X0076748Y0041324D01*
X0084622Y0041324D02*
X0090528Y0041324D01*
X0090528Y0031876D01*
X0084622Y0031876D01*
X0134185Y0059100D02*
X0179185Y0059100D01*
X0179185Y0129100D01*
X0161685Y0129100D01*
X0161683Y0128960D01*
X0161677Y0128820D01*
X0161667Y0128680D01*
X0161654Y0128540D01*
X0161636Y0128401D01*
X0161614Y0128262D01*
X0161589Y0128125D01*
X0161560Y0127987D01*
X0161527Y0127851D01*
X0161490Y0127716D01*
X0161449Y0127582D01*
X0161404Y0127449D01*
X0161356Y0127317D01*
X0161304Y0127187D01*
X0161249Y0127058D01*
X0161190Y0126931D01*
X0161127Y0126805D01*
X0161061Y0126681D01*
X0160992Y0126560D01*
X0160919Y0126440D01*
X0160842Y0126322D01*
X0160763Y0126207D01*
X0160680Y0126093D01*
X0160594Y0125983D01*
X0160505Y0125874D01*
X0160413Y0125768D01*
X0160318Y0125665D01*
X0160221Y0125564D01*
X0160120Y0125467D01*
X0160017Y0125372D01*
X0159911Y0125280D01*
X0159802Y0125191D01*
X0159692Y0125105D01*
X0159578Y0125022D01*
X0159463Y0124943D01*
X0159345Y0124866D01*
X0159225Y0124793D01*
X0159104Y0124724D01*
X0158980Y0124658D01*
X0158854Y0124595D01*
X0158727Y0124536D01*
X0158598Y0124481D01*
X0158468Y0124429D01*
X0158336Y0124381D01*
X0158203Y0124336D01*
X0158069Y0124295D01*
X0157934Y0124258D01*
X0157798Y0124225D01*
X0157660Y0124196D01*
X0157523Y0124171D01*
X0157384Y0124149D01*
X0157245Y0124131D01*
X0157105Y0124118D01*
X0156965Y0124108D01*
X0156825Y0124102D01*
X0156685Y0124100D01*
X0156545Y0124102D01*
X0156405Y0124108D01*
X0156265Y0124118D01*
X0156125Y0124131D01*
X0155986Y0124149D01*
X0155847Y0124171D01*
X0155710Y0124196D01*
X0155572Y0124225D01*
X0155436Y0124258D01*
X0155301Y0124295D01*
X0155167Y0124336D01*
X0155034Y0124381D01*
X0154902Y0124429D01*
X0154772Y0124481D01*
X0154643Y0124536D01*
X0154516Y0124595D01*
X0154390Y0124658D01*
X0154266Y0124724D01*
X0154145Y0124793D01*
X0154025Y0124866D01*
X0153907Y0124943D01*
X0153792Y0125022D01*
X0153678Y0125105D01*
X0153568Y0125191D01*
X0153459Y0125280D01*
X0153353Y0125372D01*
X0153250Y0125467D01*
X0153149Y0125564D01*
X0153052Y0125665D01*
X0152957Y0125768D01*
X0152865Y0125874D01*
X0152776Y0125983D01*
X0152690Y0126093D01*
X0152607Y0126207D01*
X0152528Y0126322D01*
X0152451Y0126440D01*
X0152378Y0126560D01*
X0152309Y0126681D01*
X0152243Y0126805D01*
X0152180Y0126931D01*
X0152121Y0127058D01*
X0152066Y0127187D01*
X0152014Y0127317D01*
X0151966Y0127449D01*
X0151921Y0127582D01*
X0151880Y0127716D01*
X0151843Y0127851D01*
X0151810Y0127987D01*
X0151781Y0128125D01*
X0151756Y0128262D01*
X0151734Y0128401D01*
X0151716Y0128540D01*
X0151703Y0128680D01*
X0151693Y0128820D01*
X0151687Y0128960D01*
X0151685Y0129100D01*
X0134185Y0129100D01*
X0134185Y0059100D01*
X0109740Y0115202D02*
X0109740Y0128096D01*
X0105409Y0128096D01*
X0095961Y0128096D02*
X0091630Y0128096D01*
X0091630Y0115202D01*
X0091630Y0150202D02*
X0091630Y0163096D01*
X0095961Y0163096D01*
X0105409Y0163096D02*
X0109740Y0163096D01*
X0109740Y0150202D01*
X0071453Y0254021D02*
X0045862Y0254021D01*
X0045862Y0298116D01*
X0071453Y0298116D01*
X0071453Y0254021D01*
X0045862Y0254021D02*
X0041925Y0254021D01*
X0041925Y0298116D01*
X0045862Y0298116D01*
X0260567Y0024651D02*
X0263717Y0024651D01*
X0263717Y0018549D01*
X0270803Y0018549D01*
X0270803Y0024651D02*
X0263717Y0024651D01*
X0263717Y0018549D02*
X0260567Y0018549D01*
X0298185Y0056600D02*
X0343185Y0056600D01*
X0343185Y0096600D01*
X0325685Y0096600D01*
X0325683Y0096460D01*
X0325677Y0096320D01*
X0325667Y0096180D01*
X0325654Y0096040D01*
X0325636Y0095901D01*
X0325614Y0095762D01*
X0325589Y0095625D01*
X0325560Y0095487D01*
X0325527Y0095351D01*
X0325490Y0095216D01*
X0325449Y0095082D01*
X0325404Y0094949D01*
X0325356Y0094817D01*
X0325304Y0094687D01*
X0325249Y0094558D01*
X0325190Y0094431D01*
X0325127Y0094305D01*
X0325061Y0094181D01*
X0324992Y0094060D01*
X0324919Y0093940D01*
X0324842Y0093822D01*
X0324763Y0093707D01*
X0324680Y0093593D01*
X0324594Y0093483D01*
X0324505Y0093374D01*
X0324413Y0093268D01*
X0324318Y0093165D01*
X0324221Y0093064D01*
X0324120Y0092967D01*
X0324017Y0092872D01*
X0323911Y0092780D01*
X0323802Y0092691D01*
X0323692Y0092605D01*
X0323578Y0092522D01*
X0323463Y0092443D01*
X0323345Y0092366D01*
X0323225Y0092293D01*
X0323104Y0092224D01*
X0322980Y0092158D01*
X0322854Y0092095D01*
X0322727Y0092036D01*
X0322598Y0091981D01*
X0322468Y0091929D01*
X0322336Y0091881D01*
X0322203Y0091836D01*
X0322069Y0091795D01*
X0321934Y0091758D01*
X0321798Y0091725D01*
X0321660Y0091696D01*
X0321523Y0091671D01*
X0321384Y0091649D01*
X0321245Y0091631D01*
X0321105Y0091618D01*
X0320965Y0091608D01*
X0320825Y0091602D01*
X0320685Y0091600D01*
X0320545Y0091602D01*
X0320405Y0091608D01*
X0320265Y0091618D01*
X0320125Y0091631D01*
X0319986Y0091649D01*
X0319847Y0091671D01*
X0319710Y0091696D01*
X0319572Y0091725D01*
X0319436Y0091758D01*
X0319301Y0091795D01*
X0319167Y0091836D01*
X0319034Y0091881D01*
X0318902Y0091929D01*
X0318772Y0091981D01*
X0318643Y0092036D01*
X0318516Y0092095D01*
X0318390Y0092158D01*
X0318266Y0092224D01*
X0318145Y0092293D01*
X0318025Y0092366D01*
X0317907Y0092443D01*
X0317792Y0092522D01*
X0317678Y0092605D01*
X0317568Y0092691D01*
X0317459Y0092780D01*
X0317353Y0092872D01*
X0317250Y0092967D01*
X0317149Y0093064D01*
X0317052Y0093165D01*
X0316957Y0093268D01*
X0316865Y0093374D01*
X0316776Y0093483D01*
X0316690Y0093593D01*
X0316607Y0093707D01*
X0316528Y0093822D01*
X0316451Y0093940D01*
X0316378Y0094060D01*
X0316309Y0094181D01*
X0316243Y0094305D01*
X0316180Y0094431D01*
X0316121Y0094558D01*
X0316066Y0094687D01*
X0316014Y0094817D01*
X0315966Y0094949D01*
X0315921Y0095082D01*
X0315880Y0095216D01*
X0315843Y0095351D01*
X0315810Y0095487D01*
X0315781Y0095625D01*
X0315756Y0095762D01*
X0315734Y0095901D01*
X0315716Y0096040D01*
X0315703Y0096180D01*
X0315693Y0096320D01*
X0315687Y0096460D01*
X0315685Y0096600D01*
X0298185Y0096600D01*
X0298185Y0056600D01*
D14*
X0271042Y0096850D02*
X0268039Y0096850D01*
X0271042Y0099853D01*
X0271042Y0100603D01*
X0270291Y0101354D01*
X0268790Y0101354D01*
X0268039Y0100603D01*
X0266438Y0100603D02*
X0266438Y0097601D01*
X0265687Y0096850D01*
X0264186Y0096850D01*
X0263435Y0097601D01*
X0263435Y0100603D01*
X0264186Y0101354D01*
X0265687Y0101354D01*
X0266438Y0100603D01*
X0264936Y0098351D02*
X0266438Y0096850D01*
X0239185Y0096600D02*
X0239188Y0096882D01*
X0239199Y0097164D01*
X0239216Y0097446D01*
X0239240Y0097727D01*
X0239271Y0098008D01*
X0239309Y0098287D01*
X0239354Y0098566D01*
X0239406Y0098844D01*
X0239464Y0099120D01*
X0239530Y0099394D01*
X0239602Y0099667D01*
X0239680Y0099938D01*
X0239765Y0100207D01*
X0239857Y0100474D01*
X0239956Y0100739D01*
X0240060Y0101001D01*
X0240172Y0101260D01*
X0240289Y0101517D01*
X0240413Y0101771D01*
X0240543Y0102021D01*
X0240679Y0102268D01*
X0240821Y0102512D01*
X0240969Y0102752D01*
X0241123Y0102989D01*
X0241283Y0103222D01*
X0241448Y0103451D01*
X0241619Y0103675D01*
X0241795Y0103896D01*
X0241977Y0104111D01*
X0242164Y0104323D01*
X0242356Y0104530D01*
X0242553Y0104732D01*
X0242755Y0104929D01*
X0242962Y0105121D01*
X0243174Y0105308D01*
X0243389Y0105490D01*
X0243610Y0105666D01*
X0243834Y0105837D01*
X0244063Y0106002D01*
X0244296Y0106162D01*
X0244533Y0106316D01*
X0244773Y0106464D01*
X0245017Y0106606D01*
X0245264Y0106742D01*
X0245514Y0106872D01*
X0245768Y0106996D01*
X0246025Y0107113D01*
X0246284Y0107225D01*
X0246546Y0107329D01*
X0246811Y0107428D01*
X0247078Y0107520D01*
X0247347Y0107605D01*
X0247618Y0107683D01*
X0247891Y0107755D01*
X0248165Y0107821D01*
X0248441Y0107879D01*
X0248719Y0107931D01*
X0248998Y0107976D01*
X0249277Y0108014D01*
X0249558Y0108045D01*
X0249839Y0108069D01*
X0250121Y0108086D01*
X0250403Y0108097D01*
X0250685Y0108100D01*
X0250967Y0108097D01*
X0251249Y0108086D01*
X0251531Y0108069D01*
X0251812Y0108045D01*
X0252093Y0108014D01*
X0252372Y0107976D01*
X0252651Y0107931D01*
X0252929Y0107879D01*
X0253205Y0107821D01*
X0253479Y0107755D01*
X0253752Y0107683D01*
X0254023Y0107605D01*
X0254292Y0107520D01*
X0254559Y0107428D01*
X0254824Y0107329D01*
X0255086Y0107225D01*
X0255345Y0107113D01*
X0255602Y0106996D01*
X0255856Y0106872D01*
X0256106Y0106742D01*
X0256353Y0106606D01*
X0256597Y0106464D01*
X0256837Y0106316D01*
X0257074Y0106162D01*
X0257307Y0106002D01*
X0257536Y0105837D01*
X0257760Y0105666D01*
X0257981Y0105490D01*
X0258196Y0105308D01*
X0258408Y0105121D01*
X0258615Y0104929D01*
X0258817Y0104732D01*
X0259014Y0104530D01*
X0259206Y0104323D01*
X0259393Y0104111D01*
X0259575Y0103896D01*
X0259751Y0103675D01*
X0259922Y0103451D01*
X0260087Y0103222D01*
X0260247Y0102989D01*
X0260401Y0102752D01*
X0260549Y0102512D01*
X0260691Y0102268D01*
X0260827Y0102021D01*
X0260957Y0101771D01*
X0261081Y0101517D01*
X0261198Y0101260D01*
X0261310Y0101001D01*
X0261414Y0100739D01*
X0261513Y0100474D01*
X0261605Y0100207D01*
X0261690Y0099938D01*
X0261768Y0099667D01*
X0261840Y0099394D01*
X0261906Y0099120D01*
X0261964Y0098844D01*
X0262016Y0098566D01*
X0262061Y0098287D01*
X0262099Y0098008D01*
X0262130Y0097727D01*
X0262154Y0097446D01*
X0262171Y0097164D01*
X0262182Y0096882D01*
X0262185Y0096600D01*
X0262182Y0096318D01*
X0262171Y0096036D01*
X0262154Y0095754D01*
X0262130Y0095473D01*
X0262099Y0095192D01*
X0262061Y0094913D01*
X0262016Y0094634D01*
X0261964Y0094356D01*
X0261906Y0094080D01*
X0261840Y0093806D01*
X0261768Y0093533D01*
X0261690Y0093262D01*
X0261605Y0092993D01*
X0261513Y0092726D01*
X0261414Y0092461D01*
X0261310Y0092199D01*
X0261198Y0091940D01*
X0261081Y0091683D01*
X0260957Y0091429D01*
X0260827Y0091179D01*
X0260691Y0090932D01*
X0260549Y0090688D01*
X0260401Y0090448D01*
X0260247Y0090211D01*
X0260087Y0089978D01*
X0259922Y0089749D01*
X0259751Y0089525D01*
X0259575Y0089304D01*
X0259393Y0089089D01*
X0259206Y0088877D01*
X0259014Y0088670D01*
X0258817Y0088468D01*
X0258615Y0088271D01*
X0258408Y0088079D01*
X0258196Y0087892D01*
X0257981Y0087710D01*
X0257760Y0087534D01*
X0257536Y0087363D01*
X0257307Y0087198D01*
X0257074Y0087038D01*
X0256837Y0086884D01*
X0256597Y0086736D01*
X0256353Y0086594D01*
X0256106Y0086458D01*
X0255856Y0086328D01*
X0255602Y0086204D01*
X0255345Y0086087D01*
X0255086Y0085975D01*
X0254824Y0085871D01*
X0254559Y0085772D01*
X0254292Y0085680D01*
X0254023Y0085595D01*
X0253752Y0085517D01*
X0253479Y0085445D01*
X0253205Y0085379D01*
X0252929Y0085321D01*
X0252651Y0085269D01*
X0252372Y0085224D01*
X0252093Y0085186D01*
X0251812Y0085155D01*
X0251531Y0085131D01*
X0251249Y0085114D01*
X0250967Y0085103D01*
X0250685Y0085100D01*
X0250403Y0085103D01*
X0250121Y0085114D01*
X0249839Y0085131D01*
X0249558Y0085155D01*
X0249277Y0085186D01*
X0248998Y0085224D01*
X0248719Y0085269D01*
X0248441Y0085321D01*
X0248165Y0085379D01*
X0247891Y0085445D01*
X0247618Y0085517D01*
X0247347Y0085595D01*
X0247078Y0085680D01*
X0246811Y0085772D01*
X0246546Y0085871D01*
X0246284Y0085975D01*
X0246025Y0086087D01*
X0245768Y0086204D01*
X0245514Y0086328D01*
X0245264Y0086458D01*
X0245017Y0086594D01*
X0244773Y0086736D01*
X0244533Y0086884D01*
X0244296Y0087038D01*
X0244063Y0087198D01*
X0243834Y0087363D01*
X0243610Y0087534D01*
X0243389Y0087710D01*
X0243174Y0087892D01*
X0242962Y0088079D01*
X0242755Y0088271D01*
X0242553Y0088468D01*
X0242356Y0088670D01*
X0242164Y0088877D01*
X0241977Y0089089D01*
X0241795Y0089304D01*
X0241619Y0089525D01*
X0241448Y0089749D01*
X0241283Y0089978D01*
X0241123Y0090211D01*
X0240969Y0090448D01*
X0240821Y0090688D01*
X0240679Y0090932D01*
X0240543Y0091179D01*
X0240413Y0091429D01*
X0240289Y0091683D01*
X0240172Y0091940D01*
X0240060Y0092199D01*
X0239956Y0092461D01*
X0239857Y0092726D01*
X0239765Y0092993D01*
X0239680Y0093262D01*
X0239602Y0093533D01*
X0239530Y0093806D01*
X0239464Y0094080D01*
X0239406Y0094356D01*
X0239354Y0094634D01*
X0239309Y0094913D01*
X0239271Y0095192D01*
X0239240Y0095473D01*
X0239216Y0095754D01*
X0239199Y0096036D01*
X0239188Y0096318D01*
X0239185Y0096600D01*
X0239360Y0098600D02*
X0235185Y0098600D01*
X0235185Y0094600D01*
X0239360Y0094600D01*
X0226042Y0096850D02*
X0223039Y0096850D01*
X0224540Y0096850D02*
X0224540Y0101354D01*
X0223039Y0099853D01*
X0221438Y0100603D02*
X0221438Y0097601D01*
X0220687Y0096850D01*
X0219186Y0096850D01*
X0218435Y0097601D01*
X0218435Y0100603D01*
X0219186Y0101354D01*
X0220687Y0101354D01*
X0221438Y0100603D01*
X0219936Y0098351D02*
X0221438Y0096850D01*
X0194185Y0096600D02*
X0194188Y0096882D01*
X0194199Y0097164D01*
X0194216Y0097446D01*
X0194240Y0097727D01*
X0194271Y0098008D01*
X0194309Y0098287D01*
X0194354Y0098566D01*
X0194406Y0098844D01*
X0194464Y0099120D01*
X0194530Y0099394D01*
X0194602Y0099667D01*
X0194680Y0099938D01*
X0194765Y0100207D01*
X0194857Y0100474D01*
X0194956Y0100739D01*
X0195060Y0101001D01*
X0195172Y0101260D01*
X0195289Y0101517D01*
X0195413Y0101771D01*
X0195543Y0102021D01*
X0195679Y0102268D01*
X0195821Y0102512D01*
X0195969Y0102752D01*
X0196123Y0102989D01*
X0196283Y0103222D01*
X0196448Y0103451D01*
X0196619Y0103675D01*
X0196795Y0103896D01*
X0196977Y0104111D01*
X0197164Y0104323D01*
X0197356Y0104530D01*
X0197553Y0104732D01*
X0197755Y0104929D01*
X0197962Y0105121D01*
X0198174Y0105308D01*
X0198389Y0105490D01*
X0198610Y0105666D01*
X0198834Y0105837D01*
X0199063Y0106002D01*
X0199296Y0106162D01*
X0199533Y0106316D01*
X0199773Y0106464D01*
X0200017Y0106606D01*
X0200264Y0106742D01*
X0200514Y0106872D01*
X0200768Y0106996D01*
X0201025Y0107113D01*
X0201284Y0107225D01*
X0201546Y0107329D01*
X0201811Y0107428D01*
X0202078Y0107520D01*
X0202347Y0107605D01*
X0202618Y0107683D01*
X0202891Y0107755D01*
X0203165Y0107821D01*
X0203441Y0107879D01*
X0203719Y0107931D01*
X0203998Y0107976D01*
X0204277Y0108014D01*
X0204558Y0108045D01*
X0204839Y0108069D01*
X0205121Y0108086D01*
X0205403Y0108097D01*
X0205685Y0108100D01*
X0205967Y0108097D01*
X0206249Y0108086D01*
X0206531Y0108069D01*
X0206812Y0108045D01*
X0207093Y0108014D01*
X0207372Y0107976D01*
X0207651Y0107931D01*
X0207929Y0107879D01*
X0208205Y0107821D01*
X0208479Y0107755D01*
X0208752Y0107683D01*
X0209023Y0107605D01*
X0209292Y0107520D01*
X0209559Y0107428D01*
X0209824Y0107329D01*
X0210086Y0107225D01*
X0210345Y0107113D01*
X0210602Y0106996D01*
X0210856Y0106872D01*
X0211106Y0106742D01*
X0211353Y0106606D01*
X0211597Y0106464D01*
X0211837Y0106316D01*
X0212074Y0106162D01*
X0212307Y0106002D01*
X0212536Y0105837D01*
X0212760Y0105666D01*
X0212981Y0105490D01*
X0213196Y0105308D01*
X0213408Y0105121D01*
X0213615Y0104929D01*
X0213817Y0104732D01*
X0214014Y0104530D01*
X0214206Y0104323D01*
X0214393Y0104111D01*
X0214575Y0103896D01*
X0214751Y0103675D01*
X0214922Y0103451D01*
X0215087Y0103222D01*
X0215247Y0102989D01*
X0215401Y0102752D01*
X0215549Y0102512D01*
X0215691Y0102268D01*
X0215827Y0102021D01*
X0215957Y0101771D01*
X0216081Y0101517D01*
X0216198Y0101260D01*
X0216310Y0101001D01*
X0216414Y0100739D01*
X0216513Y0100474D01*
X0216605Y0100207D01*
X0216690Y0099938D01*
X0216768Y0099667D01*
X0216840Y0099394D01*
X0216906Y0099120D01*
X0216964Y0098844D01*
X0217016Y0098566D01*
X0217061Y0098287D01*
X0217099Y0098008D01*
X0217130Y0097727D01*
X0217154Y0097446D01*
X0217171Y0097164D01*
X0217182Y0096882D01*
X0217185Y0096600D01*
X0217182Y0096318D01*
X0217171Y0096036D01*
X0217154Y0095754D01*
X0217130Y0095473D01*
X0217099Y0095192D01*
X0217061Y0094913D01*
X0217016Y0094634D01*
X0216964Y0094356D01*
X0216906Y0094080D01*
X0216840Y0093806D01*
X0216768Y0093533D01*
X0216690Y0093262D01*
X0216605Y0092993D01*
X0216513Y0092726D01*
X0216414Y0092461D01*
X0216310Y0092199D01*
X0216198Y0091940D01*
X0216081Y0091683D01*
X0215957Y0091429D01*
X0215827Y0091179D01*
X0215691Y0090932D01*
X0215549Y0090688D01*
X0215401Y0090448D01*
X0215247Y0090211D01*
X0215087Y0089978D01*
X0214922Y0089749D01*
X0214751Y0089525D01*
X0214575Y0089304D01*
X0214393Y0089089D01*
X0214206Y0088877D01*
X0214014Y0088670D01*
X0213817Y0088468D01*
X0213615Y0088271D01*
X0213408Y0088079D01*
X0213196Y0087892D01*
X0212981Y0087710D01*
X0212760Y0087534D01*
X0212536Y0087363D01*
X0212307Y0087198D01*
X0212074Y0087038D01*
X0211837Y0086884D01*
X0211597Y0086736D01*
X0211353Y0086594D01*
X0211106Y0086458D01*
X0210856Y0086328D01*
X0210602Y0086204D01*
X0210345Y0086087D01*
X0210086Y0085975D01*
X0209824Y0085871D01*
X0209559Y0085772D01*
X0209292Y0085680D01*
X0209023Y0085595D01*
X0208752Y0085517D01*
X0208479Y0085445D01*
X0208205Y0085379D01*
X0207929Y0085321D01*
X0207651Y0085269D01*
X0207372Y0085224D01*
X0207093Y0085186D01*
X0206812Y0085155D01*
X0206531Y0085131D01*
X0206249Y0085114D01*
X0205967Y0085103D01*
X0205685Y0085100D01*
X0205403Y0085103D01*
X0205121Y0085114D01*
X0204839Y0085131D01*
X0204558Y0085155D01*
X0204277Y0085186D01*
X0203998Y0085224D01*
X0203719Y0085269D01*
X0203441Y0085321D01*
X0203165Y0085379D01*
X0202891Y0085445D01*
X0202618Y0085517D01*
X0202347Y0085595D01*
X0202078Y0085680D01*
X0201811Y0085772D01*
X0201546Y0085871D01*
X0201284Y0085975D01*
X0201025Y0086087D01*
X0200768Y0086204D01*
X0200514Y0086328D01*
X0200264Y0086458D01*
X0200017Y0086594D01*
X0199773Y0086736D01*
X0199533Y0086884D01*
X0199296Y0087038D01*
X0199063Y0087198D01*
X0198834Y0087363D01*
X0198610Y0087534D01*
X0198389Y0087710D01*
X0198174Y0087892D01*
X0197962Y0088079D01*
X0197755Y0088271D01*
X0197553Y0088468D01*
X0197356Y0088670D01*
X0197164Y0088877D01*
X0196977Y0089089D01*
X0196795Y0089304D01*
X0196619Y0089525D01*
X0196448Y0089749D01*
X0196283Y0089978D01*
X0196123Y0090211D01*
X0195969Y0090448D01*
X0195821Y0090688D01*
X0195679Y0090932D01*
X0195543Y0091179D01*
X0195413Y0091429D01*
X0195289Y0091683D01*
X0195172Y0091940D01*
X0195060Y0092199D01*
X0194956Y0092461D01*
X0194857Y0092726D01*
X0194765Y0092993D01*
X0194680Y0093262D01*
X0194602Y0093533D01*
X0194530Y0093806D01*
X0194464Y0094080D01*
X0194406Y0094356D01*
X0194354Y0094634D01*
X0194309Y0094913D01*
X0194271Y0095192D01*
X0194240Y0095473D01*
X0194216Y0095754D01*
X0194199Y0096036D01*
X0194188Y0096318D01*
X0194185Y0096600D01*
X0194360Y0098600D02*
X0190185Y0098600D01*
X0190185Y0094600D01*
X0194360Y0094600D01*
X0152185Y0254100D02*
X0152187Y0254163D01*
X0152193Y0254225D01*
X0152203Y0254287D01*
X0152216Y0254349D01*
X0152234Y0254409D01*
X0152255Y0254468D01*
X0152280Y0254526D01*
X0152309Y0254582D01*
X0152341Y0254636D01*
X0152376Y0254688D01*
X0152414Y0254737D01*
X0152456Y0254785D01*
X0152500Y0254829D01*
X0152548Y0254871D01*
X0152597Y0254909D01*
X0152649Y0254944D01*
X0152703Y0254976D01*
X0152759Y0255005D01*
X0152817Y0255030D01*
X0152876Y0255051D01*
X0152936Y0255069D01*
X0152998Y0255082D01*
X0153060Y0255092D01*
X0153122Y0255098D01*
X0153185Y0255100D01*
X0153248Y0255098D01*
X0153310Y0255092D01*
X0153372Y0255082D01*
X0153434Y0255069D01*
X0153494Y0255051D01*
X0153553Y0255030D01*
X0153611Y0255005D01*
X0153667Y0254976D01*
X0153721Y0254944D01*
X0153773Y0254909D01*
X0153822Y0254871D01*
X0153870Y0254829D01*
X0153914Y0254785D01*
X0153956Y0254737D01*
X0153994Y0254688D01*
X0154029Y0254636D01*
X0154061Y0254582D01*
X0154090Y0254526D01*
X0154115Y0254468D01*
X0154136Y0254409D01*
X0154154Y0254349D01*
X0154167Y0254287D01*
X0154177Y0254225D01*
X0154183Y0254163D01*
X0154185Y0254100D01*
X0154183Y0254037D01*
X0154177Y0253975D01*
X0154167Y0253913D01*
X0154154Y0253851D01*
X0154136Y0253791D01*
X0154115Y0253732D01*
X0154090Y0253674D01*
X0154061Y0253618D01*
X0154029Y0253564D01*
X0153994Y0253512D01*
X0153956Y0253463D01*
X0153914Y0253415D01*
X0153870Y0253371D01*
X0153822Y0253329D01*
X0153773Y0253291D01*
X0153721Y0253256D01*
X0153667Y0253224D01*
X0153611Y0253195D01*
X0153553Y0253170D01*
X0153494Y0253149D01*
X0153434Y0253131D01*
X0153372Y0253118D01*
X0153310Y0253108D01*
X0153248Y0253102D01*
X0153185Y0253100D01*
X0153122Y0253102D01*
X0153060Y0253108D01*
X0152998Y0253118D01*
X0152936Y0253131D01*
X0152876Y0253149D01*
X0152817Y0253170D01*
X0152759Y0253195D01*
X0152703Y0253224D01*
X0152649Y0253256D01*
X0152597Y0253291D01*
X0152548Y0253329D01*
X0152500Y0253371D01*
X0152456Y0253415D01*
X0152414Y0253463D01*
X0152376Y0253512D01*
X0152341Y0253564D01*
X0152309Y0253618D01*
X0152280Y0253674D01*
X0152255Y0253732D01*
X0152234Y0253791D01*
X0152216Y0253851D01*
X0152203Y0253913D01*
X0152193Y0253975D01*
X0152187Y0254037D01*
X0152185Y0254100D01*
X0153185Y0256600D02*
X0153185Y0266600D01*
X0168185Y0266600D02*
X0168185Y0256600D01*
X0184727Y0310350D02*
X0186979Y0310350D01*
X0187730Y0311101D01*
X0187730Y0314103D01*
X0186979Y0314854D01*
X0184727Y0314854D01*
X0184727Y0310350D01*
X0189331Y0310350D02*
X0192334Y0313353D01*
X0192334Y0314103D01*
X0191583Y0314854D01*
X0190082Y0314854D01*
X0189331Y0314103D01*
X0189331Y0310350D02*
X0192334Y0310350D01*
X0299170Y0358252D02*
X0299170Y0362756D01*
X0300671Y0361255D01*
X0302172Y0362756D01*
X0302172Y0358252D01*
X0303774Y0358252D02*
X0303774Y0362756D01*
X0304524Y0360504D02*
X0306776Y0358252D01*
X0308378Y0358252D02*
X0308378Y0362756D01*
X0310629Y0362756D01*
X0311380Y0362006D01*
X0311380Y0360504D01*
X0310629Y0359754D01*
X0308378Y0359754D01*
X0309879Y0359754D02*
X0311380Y0358252D01*
X0312981Y0358252D02*
X0315984Y0358252D01*
X0314483Y0358252D02*
X0314483Y0362756D01*
X0312981Y0361255D01*
X0317585Y0362006D02*
X0318336Y0362756D01*
X0319837Y0362756D01*
X0320588Y0362006D01*
X0317585Y0359003D01*
X0318336Y0358252D01*
X0319837Y0358252D01*
X0320588Y0359003D01*
X0320588Y0362006D01*
X0322189Y0362006D02*
X0322940Y0362756D01*
X0324441Y0362756D01*
X0325192Y0362006D01*
X0322189Y0359003D01*
X0322940Y0358252D01*
X0324441Y0358252D01*
X0325192Y0359003D01*
X0325192Y0362006D01*
X0326793Y0362006D02*
X0327544Y0362756D01*
X0329045Y0362756D01*
X0329796Y0362006D01*
X0326793Y0359003D01*
X0327544Y0358252D01*
X0329045Y0358252D01*
X0329796Y0359003D01*
X0329796Y0362006D01*
X0331397Y0360504D02*
X0334400Y0360504D01*
X0336001Y0361255D02*
X0337502Y0362756D01*
X0337502Y0358252D01*
X0336001Y0358252D02*
X0339004Y0358252D01*
X0326793Y0359003D02*
X0326793Y0362006D01*
X0322189Y0362006D02*
X0322189Y0359003D01*
X0317585Y0359003D02*
X0317585Y0362006D01*
X0306776Y0362756D02*
X0303774Y0359754D01*
X0303038Y0438567D02*
X0303038Y0443071D01*
X0301537Y0441570D01*
X0300036Y0443071D01*
X0300036Y0438567D01*
X0304640Y0438567D02*
X0304640Y0443071D01*
X0305390Y0440819D02*
X0307642Y0438567D01*
X0309244Y0438567D02*
X0309244Y0443071D01*
X0311496Y0443071D01*
X0312246Y0442321D01*
X0312246Y0440819D01*
X0311496Y0440069D01*
X0309244Y0440069D01*
X0310745Y0440069D02*
X0312246Y0438567D01*
X0313848Y0438567D02*
X0316850Y0438567D01*
X0315349Y0438567D02*
X0315349Y0443071D01*
X0313848Y0441570D01*
X0307642Y0443071D02*
X0304640Y0440069D01*
X0318452Y0439318D02*
X0321454Y0442321D01*
X0321454Y0439318D01*
X0320703Y0438567D01*
X0319202Y0438567D01*
X0318452Y0439318D01*
X0318452Y0442321D01*
X0319202Y0443071D01*
X0320703Y0443071D01*
X0321454Y0442321D01*
X0323055Y0442321D02*
X0323055Y0439318D01*
X0326058Y0442321D01*
X0326058Y0439318D01*
X0325307Y0438567D01*
X0323806Y0438567D01*
X0323055Y0439318D01*
X0323055Y0442321D02*
X0323806Y0443071D01*
X0325307Y0443071D01*
X0326058Y0442321D01*
X0327659Y0442321D02*
X0327659Y0439318D01*
X0330662Y0442321D01*
X0330662Y0439318D01*
X0329911Y0438567D01*
X0328410Y0438567D01*
X0327659Y0439318D01*
X0327659Y0442321D02*
X0328410Y0443071D01*
X0329911Y0443071D01*
X0330662Y0442321D01*
X0332263Y0440819D02*
X0335266Y0440819D01*
X0336867Y0442321D02*
X0337618Y0443071D01*
X0339119Y0443071D01*
X0339870Y0442321D01*
X0339870Y0441570D01*
X0336867Y0438567D01*
X0339870Y0438567D01*
X0377102Y0469238D02*
X0386945Y0479080D01*
X0386945Y0664120D01*
X0377102Y0673962D01*
X0054268Y0673962D01*
X0044425Y0664120D01*
X0044425Y0479080D01*
X0054268Y0469238D01*
X0377102Y0469238D01*
X0079185Y0040600D02*
X0079185Y0032600D01*
X0055665Y0022033D02*
X0041886Y0022033D01*
X0041886Y0055891D01*
X0055665Y0055891D01*
X0055665Y0022033D01*
X0041886Y0032072D02*
X0033224Y0032072D01*
X0033224Y0039946D01*
X0041886Y0039946D01*
X0041886Y0045852D02*
X0033224Y0045852D01*
X0033224Y0039946D01*
X0042417Y0207781D02*
X0042417Y0241639D01*
X0056197Y0241639D01*
X0056197Y0207781D01*
X0042417Y0207781D01*
X0042417Y0217820D02*
X0033756Y0217820D01*
X0033756Y0225694D01*
X0042417Y0225694D01*
X0042417Y0231600D02*
X0033756Y0231600D01*
X0033756Y0225694D01*
X0069185Y0222600D02*
X0069185Y0230600D01*
D15*
X0078039Y0221114D02*
X0077789Y0220864D01*
X0077789Y0219863D01*
X0078039Y0219613D01*
X0078539Y0219613D01*
X0078789Y0219863D01*
X0079262Y0219613D02*
X0080263Y0219613D01*
X0079762Y0219613D02*
X0079762Y0221114D01*
X0079262Y0220614D01*
X0078789Y0220864D02*
X0078539Y0221114D01*
X0078039Y0221114D01*
X0093484Y0208427D02*
X0093484Y0207927D01*
X0093734Y0207677D01*
X0093734Y0207204D02*
X0093484Y0206954D01*
X0093484Y0206454D01*
X0093734Y0206203D01*
X0094735Y0206203D01*
X0094985Y0206454D01*
X0094985Y0206954D01*
X0094735Y0207204D01*
X0094985Y0207677D02*
X0093984Y0208678D01*
X0093734Y0208678D01*
X0093484Y0208427D01*
X0094985Y0208678D02*
X0094985Y0207677D01*
X0103984Y0207927D02*
X0103984Y0208427D01*
X0104234Y0208678D01*
X0104484Y0208678D01*
X0104734Y0208427D01*
X0104734Y0207927D01*
X0104484Y0207677D01*
X0104234Y0207677D01*
X0103984Y0207927D01*
X0104734Y0207927D02*
X0104985Y0207677D01*
X0105235Y0207677D01*
X0105485Y0207927D01*
X0105485Y0208427D01*
X0105235Y0208678D01*
X0104985Y0208678D01*
X0104734Y0208427D01*
X0104234Y0207204D02*
X0103984Y0206954D01*
X0103984Y0206454D01*
X0104234Y0206203D01*
X0105235Y0206203D01*
X0105485Y0206454D01*
X0105485Y0206954D01*
X0105235Y0207204D01*
X0110884Y0206347D02*
X0110884Y0205847D01*
X0111134Y0205597D01*
X0110884Y0206347D02*
X0111134Y0206597D01*
X0111384Y0206597D01*
X0112385Y0205597D01*
X0112385Y0206597D01*
X0112385Y0205124D02*
X0112385Y0204123D01*
X0112385Y0203651D02*
X0111885Y0203150D01*
X0111885Y0203401D02*
X0111885Y0202650D01*
X0112385Y0202650D02*
X0110884Y0202650D01*
X0110884Y0203401D01*
X0111134Y0203651D01*
X0111634Y0203651D01*
X0111885Y0203401D01*
X0111384Y0204123D02*
X0110884Y0204624D01*
X0112385Y0204624D01*
X0120683Y0204176D02*
X0120683Y0203676D01*
X0120933Y0203426D01*
X0121934Y0203426D01*
X0122184Y0203676D01*
X0122184Y0204176D01*
X0121934Y0204426D01*
X0122184Y0204899D02*
X0122184Y0205900D01*
X0122184Y0206372D02*
X0121183Y0207373D01*
X0120933Y0207373D01*
X0120683Y0207123D01*
X0120683Y0206622D01*
X0120933Y0206372D01*
X0120683Y0205399D02*
X0122184Y0205399D01*
X0122184Y0206372D02*
X0122184Y0207373D01*
X0120683Y0205399D02*
X0121183Y0204899D01*
X0120933Y0204426D02*
X0120683Y0204176D01*
X0138984Y0205703D02*
X0138984Y0206454D01*
X0139234Y0206704D01*
X0139734Y0206704D01*
X0139985Y0206454D01*
X0139985Y0205703D01*
X0140485Y0205703D02*
X0138984Y0205703D01*
X0139985Y0206204D02*
X0140485Y0206704D01*
X0140235Y0207177D02*
X0139985Y0207177D01*
X0139734Y0207427D01*
X0139734Y0207927D01*
X0139985Y0208178D01*
X0140235Y0208178D01*
X0140485Y0207927D01*
X0140485Y0207427D01*
X0140235Y0207177D01*
X0139734Y0207427D02*
X0139484Y0207177D01*
X0139234Y0207177D01*
X0138984Y0207427D01*
X0138984Y0207927D01*
X0139234Y0208178D01*
X0139484Y0208178D01*
X0139734Y0207927D01*
X0141134Y0206597D02*
X0142135Y0205597D01*
X0142385Y0205847D01*
X0142385Y0206347D01*
X0142135Y0206597D01*
X0141134Y0206597D01*
X0140884Y0206347D01*
X0140884Y0205847D01*
X0141134Y0205597D01*
X0142135Y0205597D01*
X0142385Y0205124D02*
X0142385Y0204123D01*
X0142385Y0203651D02*
X0141885Y0203150D01*
X0141885Y0203401D02*
X0141885Y0202650D01*
X0142385Y0202650D02*
X0140884Y0202650D01*
X0140884Y0203401D01*
X0141134Y0203651D01*
X0141634Y0203651D01*
X0141885Y0203401D01*
X0141384Y0204123D02*
X0140884Y0204624D01*
X0142385Y0204624D01*
X0158984Y0206954D02*
X0159234Y0206703D01*
X0160235Y0206703D01*
X0160485Y0206954D01*
X0160485Y0207454D01*
X0160235Y0207704D01*
X0160235Y0208177D02*
X0160485Y0208427D01*
X0160485Y0208927D01*
X0160235Y0209178D01*
X0159985Y0209178D01*
X0159734Y0208927D01*
X0159734Y0208677D01*
X0159734Y0208927D02*
X0159484Y0209178D01*
X0159234Y0209178D01*
X0158984Y0208927D01*
X0158984Y0208427D01*
X0159234Y0208177D01*
X0159234Y0207704D02*
X0158984Y0207454D01*
X0158984Y0206954D01*
X0160884Y0204874D02*
X0161634Y0204123D01*
X0161634Y0205124D01*
X0160884Y0204874D02*
X0162385Y0204874D01*
X0162385Y0203651D02*
X0161885Y0203150D01*
X0161885Y0203401D02*
X0161885Y0202650D01*
X0162385Y0202650D02*
X0160884Y0202650D01*
X0160884Y0203401D01*
X0161134Y0203651D01*
X0161634Y0203651D01*
X0161885Y0203401D01*
X0148263Y0291800D02*
X0147262Y0291800D01*
X0146789Y0291800D02*
X0146289Y0292300D01*
X0146539Y0292300D02*
X0145789Y0292300D01*
X0145789Y0291800D02*
X0145789Y0293301D01*
X0146539Y0293301D01*
X0146789Y0293051D01*
X0146789Y0292551D01*
X0146539Y0292300D01*
X0147262Y0292801D02*
X0147762Y0293301D01*
X0147762Y0291800D01*
X0162735Y0300150D02*
X0162985Y0299900D01*
X0163486Y0299900D01*
X0163736Y0300150D01*
X0164208Y0299900D02*
X0165209Y0299900D01*
X0164709Y0299900D02*
X0164709Y0301401D01*
X0164208Y0300901D01*
X0163736Y0301151D02*
X0163486Y0301401D01*
X0162985Y0301401D01*
X0162735Y0301151D01*
X0162735Y0300150D01*
X0165682Y0300150D02*
X0166682Y0301151D01*
X0166682Y0300150D01*
X0166432Y0299900D01*
X0165932Y0299900D01*
X0165682Y0300150D01*
X0165682Y0301151D01*
X0165932Y0301401D01*
X0166432Y0301401D01*
X0166682Y0301151D01*
X0182735Y0301401D02*
X0183486Y0301401D01*
X0183736Y0301151D01*
X0183736Y0300651D01*
X0183486Y0300400D01*
X0182735Y0300400D01*
X0182735Y0299900D02*
X0182735Y0301401D01*
X0183235Y0300400D02*
X0183736Y0299900D01*
X0184208Y0299900D02*
X0185209Y0300901D01*
X0185209Y0301151D01*
X0184959Y0301401D01*
X0184459Y0301401D01*
X0184208Y0301151D01*
X0184208Y0299900D02*
X0185209Y0299900D01*
X0203289Y0293051D02*
X0203289Y0292050D01*
X0203539Y0291800D01*
X0204039Y0291800D01*
X0204289Y0292050D01*
X0204762Y0292551D02*
X0205763Y0292551D01*
X0205512Y0293301D02*
X0204762Y0292551D01*
X0204289Y0293051D02*
X0204039Y0293301D01*
X0203539Y0293301D01*
X0203289Y0293051D01*
X0205512Y0293301D02*
X0205512Y0291800D01*
X0217981Y0292099D02*
X0217981Y0293600D01*
X0218731Y0293600D01*
X0218981Y0293350D01*
X0218981Y0292850D01*
X0218731Y0292600D01*
X0217981Y0292600D01*
X0218481Y0292600D02*
X0218981Y0292099D01*
X0219454Y0292099D02*
X0220455Y0292099D01*
X0219954Y0292099D02*
X0219954Y0293600D01*
X0219454Y0293100D01*
X0220927Y0292850D02*
X0221928Y0292850D01*
X0221678Y0293600D02*
X0220927Y0292850D01*
X0221678Y0293600D02*
X0221678Y0292099D01*
X0243229Y0292099D02*
X0243229Y0293600D01*
X0243979Y0293600D01*
X0244230Y0293350D01*
X0244230Y0292850D01*
X0243979Y0292600D01*
X0243229Y0292600D01*
X0243729Y0292600D02*
X0244230Y0292099D01*
X0244702Y0292099D02*
X0245703Y0292099D01*
X0245202Y0292099D02*
X0245202Y0293600D01*
X0244702Y0293100D01*
X0246175Y0292850D02*
X0246926Y0292850D01*
X0247176Y0292600D01*
X0247176Y0292349D01*
X0246926Y0292099D01*
X0246425Y0292099D01*
X0246175Y0292349D01*
X0246175Y0292850D01*
X0246676Y0293350D01*
X0247176Y0293600D01*
X0348889Y0356351D02*
X0349139Y0356101D01*
X0349639Y0356101D01*
X0349889Y0356351D01*
X0350362Y0356101D02*
X0351363Y0356101D01*
X0350862Y0356101D02*
X0350862Y0357602D01*
X0350362Y0357102D01*
X0349889Y0357352D02*
X0349639Y0357602D01*
X0349139Y0357602D01*
X0348889Y0357352D01*
X0348889Y0356351D01*
X0351835Y0356351D02*
X0352085Y0356101D01*
X0352586Y0356101D01*
X0352836Y0356351D01*
X0352836Y0356851D01*
X0352586Y0357102D01*
X0352336Y0357102D01*
X0351835Y0356851D01*
X0351835Y0357602D01*
X0352836Y0357602D01*
X0369370Y0377465D02*
X0369370Y0377966D01*
X0369370Y0377716D02*
X0370621Y0377716D01*
X0370871Y0377465D01*
X0370871Y0377215D01*
X0370621Y0376965D01*
X0370121Y0378438D02*
X0370121Y0379439D01*
X0370121Y0379911D02*
X0369870Y0380412D01*
X0369870Y0380662D01*
X0370121Y0380912D01*
X0370621Y0380912D01*
X0370871Y0380662D01*
X0370871Y0380162D01*
X0370621Y0379911D01*
X0370121Y0379911D02*
X0369370Y0379911D01*
X0369370Y0380912D01*
X0369370Y0381385D02*
X0370371Y0381385D01*
X0370871Y0381885D01*
X0370371Y0382386D01*
X0369370Y0382386D01*
X0370121Y0382858D02*
X0370121Y0383859D01*
X0369870Y0384331D02*
X0369370Y0384832D01*
X0370871Y0384832D01*
X0370871Y0385332D02*
X0370871Y0384331D01*
X0353775Y0404601D02*
X0354025Y0404851D01*
X0354025Y0405101D01*
X0353775Y0405351D01*
X0353024Y0405351D01*
X0353024Y0404851D01*
X0353274Y0404601D01*
X0353775Y0404601D01*
X0353024Y0405351D02*
X0353524Y0405852D01*
X0354025Y0406102D01*
X0352051Y0406102D02*
X0352051Y0404601D01*
X0351551Y0404601D02*
X0352552Y0404601D01*
X0351551Y0405602D02*
X0352051Y0406102D01*
X0351078Y0405852D02*
X0350828Y0406102D01*
X0350328Y0406102D01*
X0350078Y0405852D01*
X0350078Y0404851D01*
X0350328Y0404601D01*
X0350828Y0404601D01*
X0351078Y0404851D01*
X0369370Y0425339D02*
X0369370Y0425840D01*
X0369370Y0425590D02*
X0370621Y0425590D01*
X0370871Y0425339D01*
X0370871Y0425089D01*
X0370621Y0424839D01*
X0370121Y0426312D02*
X0370121Y0427313D01*
X0370621Y0427785D02*
X0370871Y0428036D01*
X0370871Y0428536D01*
X0370621Y0428786D01*
X0370371Y0428786D01*
X0370121Y0428536D01*
X0370121Y0428286D01*
X0370121Y0428536D02*
X0369870Y0428786D01*
X0369620Y0428786D01*
X0369370Y0428536D01*
X0369370Y0428036D01*
X0369620Y0427785D01*
X0370621Y0429259D02*
X0370621Y0429509D01*
X0370871Y0429509D01*
X0370871Y0429259D01*
X0370621Y0429259D01*
X0370621Y0429995D02*
X0370871Y0430246D01*
X0370871Y0430746D01*
X0370621Y0430996D01*
X0370371Y0430996D01*
X0370121Y0430746D01*
X0370121Y0430496D01*
X0370121Y0430746D02*
X0369870Y0430996D01*
X0369620Y0430996D01*
X0369370Y0430746D01*
X0369370Y0430246D01*
X0369620Y0429995D01*
X0369370Y0431469D02*
X0370371Y0431469D01*
X0370871Y0431969D01*
X0370371Y0432469D01*
X0369370Y0432469D01*
X0370121Y0432942D02*
X0370121Y0433943D01*
X0369870Y0434415D02*
X0369370Y0434916D01*
X0370871Y0434916D01*
X0370871Y0435416D02*
X0370871Y0434415D01*
X0370871Y0337868D02*
X0370871Y0336867D01*
X0370871Y0337368D02*
X0369370Y0337368D01*
X0369870Y0336867D01*
X0370121Y0336395D02*
X0370121Y0335394D01*
X0370371Y0334922D02*
X0369370Y0334922D01*
X0370371Y0334922D02*
X0370871Y0334421D01*
X0370371Y0333921D01*
X0369370Y0333921D01*
X0369620Y0333449D02*
X0369370Y0333198D01*
X0369370Y0332698D01*
X0369620Y0332448D01*
X0369620Y0333449D02*
X0369870Y0333449D01*
X0370871Y0332448D01*
X0370871Y0333449D01*
X0370871Y0331975D02*
X0370871Y0330974D01*
X0370871Y0331475D02*
X0369370Y0331475D01*
X0369870Y0330974D01*
X0370121Y0330502D02*
X0370121Y0329501D01*
X0370621Y0328779D02*
X0369370Y0328779D01*
X0369370Y0329029D02*
X0369370Y0328528D01*
X0370621Y0328779D02*
X0370871Y0328528D01*
X0370871Y0328278D01*
X0370621Y0328028D01*
X0370359Y0288357D02*
X0370359Y0287356D01*
X0370359Y0286884D02*
X0369359Y0286884D01*
X0368858Y0286384D01*
X0369359Y0285883D01*
X0370359Y0285883D01*
X0369609Y0285883D02*
X0369609Y0286884D01*
X0369359Y0287356D02*
X0368858Y0287857D01*
X0370359Y0287857D01*
X0369609Y0285411D02*
X0369609Y0284410D01*
X0369609Y0283938D02*
X0369859Y0283687D01*
X0369859Y0282937D01*
X0369859Y0283437D02*
X0370359Y0283938D01*
X0369609Y0283938D02*
X0369108Y0283938D01*
X0368858Y0283687D01*
X0368858Y0282937D01*
X0370359Y0282937D01*
X0370359Y0282464D02*
X0369609Y0281714D01*
X0369859Y0281463D02*
X0368858Y0282464D01*
X0368858Y0281463D02*
X0370359Y0281463D01*
X0370359Y0280991D02*
X0368858Y0280991D01*
X0369359Y0280491D01*
X0368858Y0279990D01*
X0370359Y0279990D01*
X0369609Y0279518D02*
X0369609Y0278517D01*
X0370109Y0277794D02*
X0368858Y0277794D01*
X0368858Y0277544D02*
X0368858Y0278045D01*
X0370109Y0277794D02*
X0370359Y0277544D01*
X0370359Y0277294D01*
X0370109Y0277044D01*
X0370359Y0238357D02*
X0370359Y0237356D01*
X0369359Y0238357D01*
X0369108Y0238357D01*
X0368858Y0238107D01*
X0368858Y0237607D01*
X0369108Y0237356D01*
X0369359Y0236884D02*
X0370359Y0236884D01*
X0369609Y0236884D02*
X0369609Y0235883D01*
X0369359Y0235883D02*
X0368858Y0236384D01*
X0369359Y0236884D01*
X0369359Y0235883D02*
X0370359Y0235883D01*
X0369609Y0235411D02*
X0369609Y0234410D01*
X0369609Y0233938D02*
X0369859Y0233687D01*
X0369859Y0232937D01*
X0369859Y0233437D02*
X0370359Y0233938D01*
X0369609Y0233938D02*
X0369108Y0233938D01*
X0368858Y0233687D01*
X0368858Y0232937D01*
X0370359Y0232937D01*
X0370359Y0232464D02*
X0369609Y0231714D01*
X0369859Y0231463D02*
X0368858Y0232464D01*
X0368858Y0231463D02*
X0370359Y0231463D01*
X0370359Y0230991D02*
X0368858Y0230991D01*
X0369359Y0230491D01*
X0368858Y0229990D01*
X0370359Y0229990D01*
X0369609Y0229518D02*
X0369609Y0228517D01*
X0370109Y0227794D02*
X0368858Y0227794D01*
X0368858Y0227544D02*
X0368858Y0228045D01*
X0370109Y0227794D02*
X0370359Y0227544D01*
X0370359Y0227294D01*
X0370109Y0227044D01*
X0370109Y0188357D02*
X0370359Y0188107D01*
X0370359Y0187607D01*
X0370109Y0187356D01*
X0370359Y0186884D02*
X0369359Y0186884D01*
X0368858Y0186384D01*
X0369359Y0185883D01*
X0370359Y0185883D01*
X0369609Y0185883D02*
X0369609Y0186884D01*
X0369108Y0187356D02*
X0368858Y0187607D01*
X0368858Y0188107D01*
X0369108Y0188357D01*
X0369359Y0188357D01*
X0369609Y0188107D01*
X0369859Y0188357D01*
X0370109Y0188357D01*
X0369609Y0188107D02*
X0369609Y0187857D01*
X0369609Y0185411D02*
X0369609Y0184410D01*
X0369609Y0183938D02*
X0369859Y0183687D01*
X0369859Y0182937D01*
X0369859Y0183437D02*
X0370359Y0183938D01*
X0369609Y0183938D02*
X0369108Y0183938D01*
X0368858Y0183687D01*
X0368858Y0182937D01*
X0370359Y0182937D01*
X0370359Y0182464D02*
X0369609Y0181714D01*
X0369859Y0181463D02*
X0368858Y0182464D01*
X0368858Y0181463D02*
X0370359Y0181463D01*
X0370359Y0180991D02*
X0368858Y0180991D01*
X0369359Y0180491D01*
X0368858Y0179990D01*
X0370359Y0179990D01*
X0369609Y0179518D02*
X0369609Y0178517D01*
X0370109Y0177794D02*
X0368858Y0177794D01*
X0368858Y0177544D02*
X0368858Y0178045D01*
X0370109Y0177794D02*
X0370359Y0177544D01*
X0370359Y0177294D01*
X0370109Y0177044D01*
X0369926Y0138065D02*
X0369926Y0137064D01*
X0369926Y0137565D02*
X0368425Y0137565D01*
X0368926Y0137064D01*
X0369176Y0136592D02*
X0369176Y0135591D01*
X0369176Y0135119D02*
X0369426Y0134868D01*
X0369426Y0134118D01*
X0369426Y0134618D02*
X0369926Y0135119D01*
X0369176Y0135119D02*
X0368675Y0135119D01*
X0368425Y0134868D01*
X0368425Y0134118D01*
X0369926Y0134118D01*
X0369926Y0133645D02*
X0369176Y0132895D01*
X0369426Y0132645D02*
X0368425Y0133645D01*
X0368425Y0132645D02*
X0369926Y0132645D01*
X0369926Y0132172D02*
X0368425Y0132172D01*
X0368926Y0131672D01*
X0368425Y0131171D01*
X0369926Y0131171D01*
X0369176Y0130699D02*
X0369176Y0129698D01*
X0369676Y0128975D02*
X0368425Y0128975D01*
X0368425Y0128725D02*
X0368425Y0129226D01*
X0369676Y0128975D02*
X0369926Y0128725D01*
X0369926Y0128475D01*
X0369676Y0128225D01*
X0369926Y0088065D02*
X0369926Y0087064D01*
X0368926Y0088065D01*
X0368675Y0088065D01*
X0368425Y0087815D01*
X0368425Y0087315D01*
X0368675Y0087064D01*
X0369176Y0086592D02*
X0369176Y0085591D01*
X0369176Y0085119D02*
X0369426Y0084868D01*
X0369426Y0084118D01*
X0369426Y0084618D02*
X0369926Y0085119D01*
X0369176Y0085119D02*
X0368675Y0085119D01*
X0368425Y0084868D01*
X0368425Y0084118D01*
X0369926Y0084118D01*
X0369926Y0083645D02*
X0369176Y0082895D01*
X0369426Y0082645D02*
X0368425Y0083645D01*
X0368425Y0082645D02*
X0369926Y0082645D01*
X0369926Y0082172D02*
X0368425Y0082172D01*
X0368926Y0081672D01*
X0368425Y0081171D01*
X0369926Y0081171D01*
X0369176Y0080699D02*
X0369176Y0079698D01*
X0369676Y0078975D02*
X0368425Y0078975D01*
X0368425Y0078725D02*
X0368425Y0079226D01*
X0369676Y0078975D02*
X0369926Y0078725D01*
X0369926Y0078475D01*
X0369676Y0078225D01*
X0369676Y0038065D02*
X0369926Y0037815D01*
X0369926Y0037315D01*
X0369676Y0037064D01*
X0369176Y0036592D02*
X0369176Y0035591D01*
X0369176Y0035119D02*
X0369426Y0034868D01*
X0369426Y0034118D01*
X0369426Y0034618D02*
X0369926Y0035119D01*
X0369176Y0035119D02*
X0368675Y0035119D01*
X0368425Y0034868D01*
X0368425Y0034118D01*
X0369926Y0034118D01*
X0369926Y0033645D02*
X0369176Y0032895D01*
X0369426Y0032645D02*
X0368425Y0033645D01*
X0368425Y0032645D02*
X0369926Y0032645D01*
X0369926Y0032172D02*
X0368425Y0032172D01*
X0368926Y0031672D01*
X0368425Y0031171D01*
X0369926Y0031171D01*
X0369176Y0030699D02*
X0369176Y0029698D01*
X0369676Y0028975D02*
X0368425Y0028975D01*
X0368425Y0028725D02*
X0368425Y0029226D01*
X0369676Y0028975D02*
X0369926Y0028725D01*
X0369926Y0028475D01*
X0369676Y0028225D01*
X0368675Y0037064D02*
X0368425Y0037315D01*
X0368425Y0037815D01*
X0368675Y0038065D01*
X0368926Y0038065D01*
X0369176Y0037815D01*
X0369426Y0038065D01*
X0369676Y0038065D01*
X0369176Y0037815D02*
X0369176Y0037565D01*
X0264709Y0025650D02*
X0263708Y0025650D01*
X0264209Y0025650D02*
X0264209Y0027151D01*
X0263708Y0026651D01*
X0263236Y0026901D02*
X0262986Y0027151D01*
X0262235Y0027151D01*
X0262235Y0025650D01*
X0262986Y0025650D01*
X0263236Y0025900D01*
X0263236Y0026901D01*
X0261432Y0044900D02*
X0260932Y0044900D01*
X0260682Y0045150D01*
X0260209Y0044900D02*
X0259208Y0044900D01*
X0259709Y0044900D02*
X0259709Y0046401D01*
X0259208Y0045901D01*
X0258736Y0046151D02*
X0258486Y0046401D01*
X0257985Y0046401D01*
X0257735Y0046151D01*
X0257735Y0045150D01*
X0257985Y0044900D01*
X0258486Y0044900D01*
X0258736Y0045150D01*
X0260682Y0046151D02*
X0260932Y0046401D01*
X0261432Y0046401D01*
X0261682Y0046151D01*
X0261682Y0045901D01*
X0261432Y0045651D01*
X0261682Y0045400D01*
X0261682Y0045150D01*
X0261432Y0044900D01*
X0261432Y0045651D02*
X0261182Y0045651D01*
X0241682Y0044900D02*
X0240682Y0044900D01*
X0240209Y0044900D02*
X0239208Y0044900D01*
X0239709Y0044900D02*
X0239709Y0046401D01*
X0239208Y0045901D01*
X0238736Y0046151D02*
X0238486Y0046401D01*
X0237985Y0046401D01*
X0237735Y0046151D01*
X0237735Y0045150D01*
X0237985Y0044900D01*
X0238486Y0044900D01*
X0238736Y0045150D01*
X0240682Y0045901D02*
X0241182Y0046401D01*
X0241182Y0044900D01*
X0240932Y0026401D02*
X0240682Y0026151D01*
X0240682Y0025901D01*
X0240932Y0025651D01*
X0241682Y0025651D01*
X0241682Y0026151D02*
X0241432Y0026401D01*
X0240932Y0026401D01*
X0241682Y0026151D02*
X0241682Y0025150D01*
X0241432Y0024900D01*
X0240932Y0024900D01*
X0240682Y0025150D01*
X0240209Y0024900D02*
X0239208Y0024900D01*
X0238736Y0024900D02*
X0238235Y0025400D01*
X0238486Y0025400D02*
X0237735Y0025400D01*
X0237735Y0024900D02*
X0237735Y0026401D01*
X0238486Y0026401D01*
X0238736Y0026151D01*
X0238736Y0025651D01*
X0238486Y0025400D01*
X0239208Y0025901D02*
X0239709Y0026401D01*
X0239709Y0024900D01*
X0226682Y0024900D02*
X0225682Y0024900D01*
X0225209Y0024900D02*
X0224208Y0024900D01*
X0225209Y0025901D01*
X0225209Y0026151D01*
X0224959Y0026401D01*
X0224459Y0026401D01*
X0224208Y0026151D01*
X0223736Y0026151D02*
X0223736Y0025651D01*
X0223486Y0025400D01*
X0222735Y0025400D01*
X0222735Y0024900D02*
X0222735Y0026401D01*
X0223486Y0026401D01*
X0223736Y0026151D01*
X0223235Y0025400D02*
X0223736Y0024900D01*
X0225682Y0025901D02*
X0226182Y0026401D01*
X0226182Y0024900D01*
X0211682Y0024900D02*
X0210682Y0024900D01*
X0211682Y0025901D01*
X0211682Y0026151D01*
X0211432Y0026401D01*
X0210932Y0026401D01*
X0210682Y0026151D01*
X0210209Y0026151D02*
X0209959Y0026401D01*
X0209459Y0026401D01*
X0209208Y0026151D01*
X0208736Y0026151D02*
X0208736Y0025651D01*
X0208486Y0025400D01*
X0207735Y0025400D01*
X0207735Y0024900D02*
X0207735Y0026401D01*
X0208486Y0026401D01*
X0208736Y0026151D01*
X0208235Y0025400D02*
X0208736Y0024900D01*
X0209208Y0024900D02*
X0210209Y0025901D01*
X0210209Y0026151D01*
X0210209Y0024900D02*
X0209208Y0024900D01*
X0196682Y0025150D02*
X0196432Y0024900D01*
X0195932Y0024900D01*
X0195682Y0025150D01*
X0195209Y0024900D02*
X0194208Y0024900D01*
X0195209Y0025901D01*
X0195209Y0026151D01*
X0194959Y0026401D01*
X0194459Y0026401D01*
X0194208Y0026151D01*
X0193736Y0026151D02*
X0193736Y0025651D01*
X0193486Y0025400D01*
X0192735Y0025400D01*
X0192735Y0024900D02*
X0192735Y0026401D01*
X0193486Y0026401D01*
X0193736Y0026151D01*
X0193235Y0025400D02*
X0193736Y0024900D01*
X0195682Y0026151D02*
X0195932Y0026401D01*
X0196432Y0026401D01*
X0196682Y0026151D01*
X0196682Y0025901D01*
X0196432Y0025651D01*
X0196682Y0025400D01*
X0196682Y0025150D01*
X0196432Y0025651D02*
X0196182Y0025651D01*
X0186682Y0039900D02*
X0185682Y0039900D01*
X0185209Y0039900D02*
X0184208Y0039900D01*
X0183736Y0039900D02*
X0183235Y0040400D01*
X0183486Y0040400D02*
X0182735Y0040400D01*
X0182735Y0039900D02*
X0182735Y0041401D01*
X0183486Y0041401D01*
X0183736Y0041151D01*
X0183736Y0040651D01*
X0183486Y0040400D01*
X0184208Y0040901D02*
X0184709Y0041401D01*
X0184709Y0039900D01*
X0185682Y0040901D02*
X0186182Y0041401D01*
X0186182Y0039900D01*
X0181432Y0026401D02*
X0180682Y0025651D01*
X0181682Y0025651D01*
X0181432Y0026401D02*
X0181432Y0024900D01*
X0180209Y0024900D02*
X0179208Y0024900D01*
X0180209Y0025901D01*
X0180209Y0026151D01*
X0179959Y0026401D01*
X0179459Y0026401D01*
X0179208Y0026151D01*
X0178736Y0026151D02*
X0178736Y0025651D01*
X0178486Y0025400D01*
X0177735Y0025400D01*
X0177735Y0024900D02*
X0177735Y0026401D01*
X0178486Y0026401D01*
X0178736Y0026151D01*
X0178235Y0025400D02*
X0178736Y0024900D01*
X0166682Y0025150D02*
X0166432Y0024900D01*
X0165932Y0024900D01*
X0165682Y0025150D01*
X0165682Y0025651D02*
X0166182Y0025901D01*
X0166432Y0025901D01*
X0166682Y0025651D01*
X0166682Y0025150D01*
X0165682Y0025651D02*
X0165682Y0026401D01*
X0166682Y0026401D01*
X0165209Y0026151D02*
X0164959Y0026401D01*
X0164459Y0026401D01*
X0164208Y0026151D01*
X0163736Y0026151D02*
X0163736Y0025651D01*
X0163486Y0025400D01*
X0162735Y0025400D01*
X0162735Y0024900D02*
X0162735Y0026401D01*
X0163486Y0026401D01*
X0163736Y0026151D01*
X0163235Y0025400D02*
X0163736Y0024900D01*
X0164208Y0024900D02*
X0165209Y0025901D01*
X0165209Y0026151D01*
X0165209Y0024900D02*
X0164208Y0024900D01*
X0167735Y0039900D02*
X0167735Y0041401D01*
X0168486Y0041401D01*
X0168736Y0041151D01*
X0168736Y0040651D01*
X0168486Y0040400D01*
X0167735Y0040400D01*
X0168235Y0040400D02*
X0168736Y0039900D01*
X0169208Y0039900D02*
X0170209Y0039900D01*
X0169709Y0039900D02*
X0169709Y0041401D01*
X0169208Y0040901D01*
X0170682Y0041151D02*
X0170932Y0041401D01*
X0171432Y0041401D01*
X0171682Y0041151D01*
X0171682Y0040901D01*
X0171432Y0040651D01*
X0171682Y0040400D01*
X0171682Y0040150D01*
X0171432Y0039900D01*
X0170932Y0039900D01*
X0170682Y0040150D01*
X0171182Y0040651D02*
X0171432Y0040651D01*
X0156682Y0040651D02*
X0156682Y0040150D01*
X0156432Y0039900D01*
X0155932Y0039900D01*
X0155682Y0040150D01*
X0155682Y0040651D02*
X0156182Y0040901D01*
X0156432Y0040901D01*
X0156682Y0040651D01*
X0156682Y0041401D02*
X0155682Y0041401D01*
X0155682Y0040651D01*
X0155209Y0039900D02*
X0154208Y0039900D01*
X0153736Y0039900D02*
X0153235Y0040400D01*
X0153486Y0040400D02*
X0152735Y0040400D01*
X0152735Y0039900D02*
X0152735Y0041401D01*
X0153486Y0041401D01*
X0153736Y0041151D01*
X0153736Y0040651D01*
X0153486Y0040400D01*
X0154208Y0040901D02*
X0154709Y0041401D01*
X0154709Y0039900D01*
X0151682Y0026401D02*
X0151182Y0026151D01*
X0150682Y0025651D01*
X0151432Y0025651D01*
X0151682Y0025400D01*
X0151682Y0025150D01*
X0151432Y0024900D01*
X0150932Y0024900D01*
X0150682Y0025150D01*
X0150682Y0025651D01*
X0150209Y0025901D02*
X0150209Y0026151D01*
X0149959Y0026401D01*
X0149459Y0026401D01*
X0149208Y0026151D01*
X0148736Y0026151D02*
X0148736Y0025651D01*
X0148486Y0025400D01*
X0147735Y0025400D01*
X0147735Y0024900D02*
X0147735Y0026401D01*
X0148486Y0026401D01*
X0148736Y0026151D01*
X0148235Y0025400D02*
X0148736Y0024900D01*
X0149208Y0024900D02*
X0150209Y0025901D01*
X0150209Y0024900D02*
X0149208Y0024900D01*
X0140682Y0039900D02*
X0140682Y0040150D01*
X0141682Y0041151D01*
X0141682Y0041401D01*
X0140682Y0041401D01*
X0139709Y0041401D02*
X0139709Y0039900D01*
X0140209Y0039900D02*
X0139208Y0039900D01*
X0138736Y0039900D02*
X0138235Y0040400D01*
X0138486Y0040400D02*
X0137735Y0040400D01*
X0137735Y0039900D02*
X0137735Y0041401D01*
X0138486Y0041401D01*
X0138736Y0041151D01*
X0138736Y0040651D01*
X0138486Y0040400D01*
X0139208Y0040901D02*
X0139709Y0041401D01*
X0136682Y0026401D02*
X0136682Y0026151D01*
X0135682Y0025150D01*
X0135682Y0024900D01*
X0135209Y0024900D02*
X0134208Y0024900D01*
X0135209Y0025901D01*
X0135209Y0026151D01*
X0134959Y0026401D01*
X0134459Y0026401D01*
X0134208Y0026151D01*
X0133736Y0026151D02*
X0133736Y0025651D01*
X0133486Y0025400D01*
X0132735Y0025400D01*
X0132735Y0024900D02*
X0132735Y0026401D01*
X0133486Y0026401D01*
X0133736Y0026151D01*
X0133235Y0025400D02*
X0133736Y0024900D01*
X0135682Y0026401D02*
X0136682Y0026401D01*
X0108263Y0023051D02*
X0108012Y0023301D01*
X0107512Y0023301D01*
X0107262Y0023051D01*
X0107262Y0022801D01*
X0107512Y0022551D01*
X0108263Y0022551D01*
X0108263Y0023051D02*
X0108263Y0022050D01*
X0108012Y0021800D01*
X0107512Y0021800D01*
X0107262Y0022050D01*
X0106789Y0022050D02*
X0106539Y0021800D01*
X0106039Y0021800D01*
X0105789Y0022050D01*
X0105789Y0023051D01*
X0106039Y0023301D01*
X0106539Y0023301D01*
X0106789Y0023051D01*
X0105209Y0021401D02*
X0105209Y0021151D01*
X0104208Y0020150D01*
X0104208Y0019900D01*
X0103736Y0020150D02*
X0103486Y0019900D01*
X0102985Y0019900D01*
X0102735Y0020150D01*
X0102735Y0021151D01*
X0102985Y0021401D01*
X0103486Y0021401D01*
X0103736Y0021151D01*
X0104208Y0021401D02*
X0105209Y0021401D01*
X0103959Y0042400D02*
X0104209Y0042650D01*
X0104209Y0043651D01*
X0103959Y0043901D01*
X0103459Y0043901D01*
X0103208Y0043651D01*
X0103208Y0043401D01*
X0103459Y0043151D01*
X0104209Y0043151D01*
X0103959Y0042400D02*
X0103459Y0042400D01*
X0103208Y0042650D01*
X0102736Y0042400D02*
X0102235Y0042900D01*
X0102486Y0042900D02*
X0101735Y0042900D01*
X0101735Y0042400D02*
X0101735Y0043901D01*
X0102486Y0043901D01*
X0102736Y0043651D01*
X0102736Y0043151D01*
X0102486Y0042900D01*
X0104789Y0047300D02*
X0104789Y0048801D01*
X0105539Y0048801D01*
X0105789Y0048551D01*
X0105789Y0048051D01*
X0105539Y0047800D01*
X0104789Y0047800D01*
X0105289Y0047800D02*
X0105789Y0047300D01*
X0106262Y0047300D02*
X0106262Y0047550D01*
X0107263Y0048551D01*
X0107263Y0048801D01*
X0106262Y0048801D01*
X0104459Y0067400D02*
X0103959Y0067400D01*
X0103708Y0067650D01*
X0103708Y0068151D02*
X0104209Y0068401D01*
X0104459Y0068401D01*
X0104709Y0068151D01*
X0104709Y0067650D01*
X0104459Y0067400D01*
X0103708Y0068151D02*
X0103708Y0068901D01*
X0104709Y0068901D01*
X0103236Y0068651D02*
X0103236Y0068151D01*
X0102986Y0067900D01*
X0102235Y0067900D01*
X0102235Y0067400D02*
X0102235Y0068901D01*
X0102986Y0068901D01*
X0103236Y0068651D01*
X0102735Y0067900D02*
X0103236Y0067400D01*
X0096959Y0077400D02*
X0096459Y0077400D01*
X0096208Y0077650D01*
X0095736Y0077400D02*
X0095235Y0077900D01*
X0095486Y0077900D02*
X0094735Y0077900D01*
X0094735Y0077400D02*
X0094735Y0078901D01*
X0095486Y0078901D01*
X0095736Y0078651D01*
X0095736Y0078151D01*
X0095486Y0077900D01*
X0096208Y0078651D02*
X0096459Y0078901D01*
X0096959Y0078901D01*
X0097209Y0078651D01*
X0097209Y0078401D01*
X0096959Y0078151D01*
X0097209Y0077900D01*
X0097209Y0077650D01*
X0096959Y0077400D01*
X0096959Y0078151D02*
X0096709Y0078151D01*
X0078709Y0078151D02*
X0078709Y0077650D01*
X0078459Y0077400D01*
X0077959Y0077400D01*
X0077708Y0077650D01*
X0077236Y0077650D02*
X0076986Y0077400D01*
X0076485Y0077400D01*
X0076235Y0077650D01*
X0076235Y0078651D01*
X0076485Y0078901D01*
X0076986Y0078901D01*
X0077236Y0078651D01*
X0077708Y0078901D02*
X0077708Y0078151D01*
X0078209Y0078401D01*
X0078459Y0078401D01*
X0078709Y0078151D01*
X0078709Y0078901D02*
X0077708Y0078901D01*
X0065961Y0095790D02*
X0066211Y0096040D01*
X0066211Y0096291D01*
X0065961Y0096541D01*
X0064710Y0096541D01*
X0064710Y0096291D02*
X0064710Y0096791D01*
X0065211Y0097263D02*
X0064710Y0097764D01*
X0066211Y0097764D01*
X0066211Y0098264D02*
X0066211Y0097263D01*
X0088039Y0031114D02*
X0087789Y0030864D01*
X0087789Y0029863D01*
X0088039Y0029613D01*
X0088539Y0029613D01*
X0088789Y0029863D01*
X0089262Y0029863D02*
X0089512Y0029613D01*
X0090012Y0029613D01*
X0090263Y0029863D01*
X0090263Y0030113D01*
X0090012Y0030364D01*
X0089262Y0030364D01*
X0089262Y0029863D01*
X0089262Y0030364D02*
X0089762Y0030864D01*
X0090263Y0031114D01*
X0088789Y0030864D02*
X0088539Y0031114D01*
X0088039Y0031114D01*
X0066394Y0167775D02*
X0066644Y0168026D01*
X0066644Y0168276D01*
X0066394Y0168526D01*
X0065143Y0168526D01*
X0065143Y0168276D02*
X0065143Y0168776D01*
X0065894Y0169249D02*
X0065894Y0170249D01*
X0066644Y0170722D02*
X0066644Y0171222D01*
X0066644Y0170972D02*
X0065143Y0170972D01*
X0065143Y0170722D02*
X0065143Y0171222D01*
X0065143Y0171704D02*
X0066644Y0172705D01*
X0065143Y0172705D01*
X0065143Y0173177D02*
X0065143Y0173928D01*
X0065393Y0174178D01*
X0065894Y0174178D01*
X0066144Y0173928D01*
X0066144Y0173177D01*
X0066644Y0173177D02*
X0065143Y0173177D01*
X0065143Y0171704D02*
X0066644Y0171704D01*
X0066394Y0174650D02*
X0065143Y0174650D01*
X0065143Y0175651D02*
X0066394Y0175651D01*
X0066644Y0175401D01*
X0066644Y0174901D01*
X0066394Y0174650D01*
X0065143Y0176124D02*
X0065143Y0177125D01*
X0065143Y0176624D02*
X0066644Y0176624D01*
X0065894Y0177597D02*
X0065894Y0178598D01*
X0065644Y0179070D02*
X0065143Y0179571D01*
X0066644Y0179571D01*
X0066644Y0180071D02*
X0066644Y0179070D01*
X0066644Y0180544D02*
X0065644Y0181544D01*
X0065393Y0181544D01*
X0065143Y0181294D01*
X0065143Y0180794D01*
X0065393Y0180544D01*
X0066644Y0180544D02*
X0066644Y0181544D01*
X0065894Y0182017D02*
X0065894Y0183018D01*
X0065644Y0183490D02*
X0065143Y0183990D01*
X0066644Y0183990D01*
X0066644Y0183490D02*
X0066644Y0184491D01*
X0066644Y0184963D02*
X0065644Y0185964D01*
X0065393Y0185964D01*
X0065143Y0185714D01*
X0065143Y0185213D01*
X0065393Y0184963D01*
X0066644Y0184963D02*
X0066644Y0185964D01*
X0066144Y0186437D02*
X0066644Y0186937D01*
X0066144Y0187437D01*
X0065143Y0187437D01*
X0065143Y0186437D02*
X0066144Y0186437D01*
X0066217Y0273773D02*
X0066467Y0274023D01*
X0066467Y0274273D01*
X0066217Y0274524D01*
X0064966Y0274524D01*
X0064966Y0274774D02*
X0064966Y0274273D01*
X0065717Y0275246D02*
X0065717Y0276247D01*
X0066467Y0276720D02*
X0066467Y0277220D01*
X0066467Y0276970D02*
X0064966Y0276970D01*
X0064966Y0276720D02*
X0064966Y0277220D01*
X0064966Y0277702D02*
X0066467Y0278703D01*
X0064966Y0278703D01*
X0064966Y0279175D02*
X0064966Y0279926D01*
X0065216Y0280176D01*
X0065717Y0280176D01*
X0065967Y0279926D01*
X0065967Y0279175D01*
X0066467Y0279175D02*
X0064966Y0279175D01*
X0064966Y0280648D02*
X0066217Y0280648D01*
X0066467Y0280898D01*
X0066467Y0281399D01*
X0066217Y0281649D01*
X0064966Y0281649D01*
X0064966Y0282121D02*
X0064966Y0283122D01*
X0064966Y0282622D02*
X0066467Y0282622D01*
X0065717Y0283595D02*
X0065717Y0284596D01*
X0065216Y0285068D02*
X0064966Y0285318D01*
X0064966Y0285819D01*
X0065216Y0286069D01*
X0065466Y0286069D01*
X0066467Y0285068D01*
X0066467Y0286069D01*
X0066467Y0286541D02*
X0065466Y0287542D01*
X0065216Y0287542D01*
X0064966Y0287292D01*
X0064966Y0286791D01*
X0065216Y0286541D01*
X0066467Y0286541D02*
X0066467Y0287542D01*
X0066217Y0288014D02*
X0065216Y0289015D01*
X0066217Y0289015D01*
X0066467Y0288765D01*
X0066467Y0288265D01*
X0066217Y0288014D01*
X0065216Y0288014D01*
X0064966Y0288265D01*
X0064966Y0288765D01*
X0065216Y0289015D01*
X0064966Y0289488D02*
X0065967Y0289488D01*
X0066467Y0289988D01*
X0065967Y0290489D01*
X0064966Y0290489D01*
X0064966Y0277702D02*
X0066467Y0277702D01*
X0218101Y0458099D02*
X0217851Y0458349D01*
X0217851Y0459350D01*
X0218101Y0459600D01*
X0218601Y0459600D01*
X0218852Y0459350D01*
X0219324Y0459100D02*
X0219824Y0459600D01*
X0219824Y0458099D01*
X0219324Y0458099D02*
X0220325Y0458099D01*
X0220797Y0458850D02*
X0221798Y0458850D01*
X0221548Y0459600D02*
X0220797Y0458850D01*
X0221548Y0459600D02*
X0221548Y0458099D01*
X0218852Y0458349D02*
X0218601Y0458099D01*
X0218101Y0458099D01*
X0217735Y0046401D02*
X0218486Y0046401D01*
X0218736Y0046151D01*
X0218736Y0045651D01*
X0218486Y0045400D01*
X0217735Y0045400D01*
X0217735Y0044900D02*
X0217735Y0046401D01*
X0218235Y0045400D02*
X0218736Y0044900D01*
X0219208Y0044900D02*
X0220209Y0045901D01*
X0220209Y0046151D01*
X0219959Y0046401D01*
X0219459Y0046401D01*
X0219208Y0046151D01*
X0219208Y0044900D02*
X0220209Y0044900D01*
X0220682Y0045150D02*
X0220682Y0045400D01*
X0220932Y0045651D01*
X0221432Y0045651D01*
X0221682Y0045400D01*
X0221682Y0045150D01*
X0221432Y0044900D01*
X0220932Y0044900D01*
X0220682Y0045150D01*
X0220932Y0045651D02*
X0220682Y0045901D01*
X0220682Y0046151D01*
X0220932Y0046401D01*
X0221432Y0046401D01*
X0221682Y0046151D01*
X0221682Y0045901D01*
X0221432Y0045651D01*
D16*
X0240685Y0041720D02*
X0240685Y0041480D01*
X0260685Y0041480D02*
X0260685Y0041720D01*
X0125604Y0206376D02*
X0125364Y0206376D01*
X0079185Y0074220D02*
X0079185Y0073980D01*
X0105685Y0026720D02*
X0105685Y0026480D01*
X0105685Y0016720D02*
X0105685Y0016480D01*
X0351839Y0352681D02*
X0351839Y0352921D01*
X0353028Y0401181D02*
X0353028Y0401421D01*
X0219220Y0462779D02*
X0219220Y0463019D01*
D17*
X0215118Y0578533D02*
X0215118Y0584671D01*
X0215885Y0583904D02*
X0216652Y0583137D01*
X0215885Y0583904D02*
X0214350Y0583904D01*
X0213583Y0583137D01*
X0213583Y0582369D01*
X0214350Y0581602D01*
X0215885Y0581602D01*
X0216652Y0580835D01*
X0216652Y0580067D01*
X0215885Y0579300D01*
X0214350Y0579300D01*
X0213583Y0580067D01*
X0212048Y0580067D02*
X0212048Y0583904D01*
X0208979Y0583904D02*
X0208979Y0580067D01*
X0209746Y0579300D01*
X0211281Y0579300D01*
X0212048Y0580067D01*
X0218187Y0580067D02*
X0218954Y0579300D01*
X0220489Y0579300D01*
X0221256Y0580067D01*
X0221256Y0581602D01*
X0220489Y0582369D01*
X0219722Y0582369D01*
X0218187Y0581602D01*
X0218187Y0583904D01*
X0221256Y0583904D01*
X0099695Y0625402D02*
X0099695Y0630006D01*
X0096626Y0630006D02*
X0099695Y0625402D01*
X0096626Y0625402D02*
X0096626Y0630006D01*
X0095091Y0630006D02*
X0092022Y0625402D01*
X0090487Y0626170D02*
X0089720Y0625402D01*
X0088185Y0625402D01*
X0087418Y0626170D01*
X0087418Y0629239D01*
X0088185Y0630006D01*
X0089720Y0630006D01*
X0090487Y0629239D01*
X0085883Y0628472D02*
X0085883Y0625402D01*
X0085883Y0627704D02*
X0082814Y0627704D01*
X0082814Y0628472D02*
X0084349Y0630006D01*
X0085883Y0628472D01*
X0082814Y0628472D02*
X0082814Y0625402D01*
X0082814Y0651977D02*
X0082814Y0655046D01*
X0084349Y0656581D01*
X0085883Y0655046D01*
X0085883Y0651977D01*
X0087418Y0652744D02*
X0087418Y0655814D01*
X0088185Y0656581D01*
X0089720Y0656581D01*
X0090487Y0655814D01*
X0090487Y0652744D02*
X0089720Y0651977D01*
X0088185Y0651977D01*
X0087418Y0652744D01*
X0085883Y0654279D02*
X0082814Y0654279D01*
X0092022Y0651977D02*
X0095091Y0656581D01*
X0096626Y0656581D02*
X0096626Y0651977D01*
X0099695Y0651977D01*
X0341323Y0515833D02*
X0341323Y0512764D01*
X0342857Y0511229D01*
X0344392Y0512764D01*
X0344392Y0515833D01*
X0345927Y0513531D02*
X0348996Y0513531D01*
X0344392Y0494180D02*
X0344392Y0491110D01*
X0342857Y0489576D01*
X0341323Y0491110D01*
X0341323Y0494180D01*
X0345927Y0491878D02*
X0348996Y0491878D01*
X0347461Y0493412D02*
X0347461Y0490343D01*
X0304985Y0135042D02*
X0304985Y0131973D01*
X0304985Y0133508D02*
X0300381Y0133508D01*
X0301916Y0131973D01*
X0301148Y0130439D02*
X0300381Y0129671D01*
X0300381Y0128137D01*
X0301148Y0127369D01*
X0304218Y0127369D01*
X0304985Y0128137D01*
X0304985Y0129671D01*
X0304218Y0130439D01*
X0304985Y0125835D02*
X0304985Y0124300D01*
X0304985Y0125067D02*
X0300381Y0125067D01*
X0300381Y0124300D02*
X0300381Y0125835D01*
X0293583Y0016404D02*
X0292048Y0016404D01*
X0291281Y0015637D01*
X0289746Y0015637D02*
X0288979Y0016404D01*
X0286677Y0016404D01*
X0286677Y0011800D01*
X0288979Y0011800D01*
X0289746Y0012567D01*
X0289746Y0015637D01*
X0291281Y0012567D02*
X0292048Y0011800D01*
X0293583Y0011800D01*
X0294350Y0012567D01*
X0294350Y0013335D01*
X0293583Y0014102D01*
X0292816Y0014102D01*
X0293583Y0014102D02*
X0294350Y0014869D01*
X0294350Y0015637D01*
X0293583Y0016404D01*
X0103713Y0108296D02*
X0102946Y0107528D01*
X0101411Y0107528D01*
X0100644Y0108296D01*
X0099109Y0109063D02*
X0099109Y0112132D01*
X0100644Y0111365D02*
X0101411Y0112132D01*
X0102946Y0112132D01*
X0103713Y0111365D01*
X0103713Y0110598D01*
X0102946Y0109830D01*
X0103713Y0109063D01*
X0103713Y0108296D01*
X0102946Y0109830D02*
X0102179Y0109830D01*
X0099109Y0109063D02*
X0097575Y0107528D01*
X0096040Y0109063D01*
X0096040Y0112132D01*
X0094505Y0111365D02*
X0094505Y0109830D01*
X0093738Y0109063D01*
X0091436Y0109063D01*
X0091436Y0107528D02*
X0091436Y0112132D01*
X0093738Y0112132D01*
X0094505Y0111365D01*
X0092971Y0109063D02*
X0094505Y0107528D01*
X0094505Y0142528D02*
X0092971Y0144063D01*
X0093738Y0144063D02*
X0091436Y0144063D01*
X0091436Y0142528D02*
X0091436Y0147132D01*
X0093738Y0147132D01*
X0094505Y0146365D01*
X0094505Y0144830D01*
X0093738Y0144063D01*
X0096040Y0144063D02*
X0096040Y0147132D01*
X0096040Y0144063D02*
X0097575Y0142528D01*
X0099109Y0144063D01*
X0099109Y0147132D01*
X0100644Y0145598D02*
X0102179Y0147132D01*
X0102179Y0142528D01*
X0103713Y0142528D02*
X0100644Y0142528D01*
D18*
X0290291Y0021600D03*
D19*
X0241917Y0092943D02*
X0241831Y0093157D01*
X0241750Y0093374D01*
X0241674Y0093592D01*
X0241603Y0093813D01*
X0241538Y0094035D01*
X0241478Y0094258D01*
X0241424Y0094483D01*
X0241375Y0094709D01*
X0241332Y0094936D01*
X0241294Y0095164D01*
X0241262Y0095393D01*
X0241235Y0095623D01*
X0241214Y0095853D01*
X0241199Y0096084D01*
X0241189Y0096315D01*
X0241185Y0096546D01*
X0241187Y0096777D01*
X0241194Y0097008D01*
X0241207Y0097239D01*
X0241225Y0097470D01*
X0241249Y0097700D01*
X0241278Y0097929D01*
X0241314Y0098158D01*
X0241354Y0098385D01*
X0241400Y0098612D01*
X0241452Y0098837D01*
X0241509Y0099061D01*
X0241572Y0099284D01*
X0241640Y0099505D01*
X0241713Y0099724D01*
X0241792Y0099942D01*
X0241876Y0100157D01*
X0241965Y0100370D01*
X0242060Y0100581D01*
X0242159Y0100790D01*
X0242264Y0100996D01*
X0242373Y0101200D01*
X0242487Y0101401D01*
X0242607Y0101599D01*
X0242731Y0101794D01*
X0242860Y0101986D01*
X0242993Y0102175D01*
X0243131Y0102361D01*
X0243273Y0102543D01*
X0243420Y0102722D01*
X0243571Y0102897D01*
X0243727Y0103068D01*
X0243886Y0103235D01*
X0244050Y0103399D01*
X0244217Y0103558D01*
X0244388Y0103714D01*
X0244563Y0103865D01*
X0244742Y0104012D01*
X0244924Y0104154D01*
X0245110Y0104292D01*
X0245299Y0104425D01*
X0245491Y0104554D01*
X0245686Y0104678D01*
X0245884Y0104798D01*
X0246085Y0104912D01*
X0246289Y0105021D01*
X0246495Y0105126D01*
X0246704Y0105225D01*
X0246915Y0105320D01*
X0247128Y0105409D01*
X0247343Y0105493D01*
X0247561Y0105572D01*
X0247780Y0105645D01*
X0248001Y0105713D01*
X0248224Y0105776D01*
X0248448Y0105833D01*
X0248673Y0105885D01*
X0248900Y0105931D01*
X0249127Y0105971D01*
X0249356Y0106007D01*
X0249585Y0106036D01*
X0249815Y0106060D01*
X0250046Y0106078D01*
X0250277Y0106091D01*
X0250508Y0106098D01*
X0250739Y0106100D01*
X0250970Y0106096D01*
X0251201Y0106086D01*
X0251432Y0106071D01*
X0251662Y0106050D01*
X0251892Y0106023D01*
X0252121Y0105991D01*
X0252349Y0105953D01*
X0252576Y0105910D01*
X0252802Y0105861D01*
X0253027Y0105807D01*
X0253250Y0105747D01*
X0253472Y0105682D01*
X0253693Y0105611D01*
X0253911Y0105535D01*
X0254128Y0105454D01*
X0254342Y0105368D01*
X0259453Y0100257D02*
X0259538Y0100046D01*
X0259618Y0099833D01*
X0259693Y0099618D01*
X0259762Y0099402D01*
X0259827Y0099184D01*
X0259886Y0098964D01*
X0259940Y0098743D01*
X0259989Y0098521D01*
X0260032Y0098297D01*
X0260070Y0098073D01*
X0260103Y0097848D01*
X0260130Y0097622D01*
X0260152Y0097395D01*
X0260168Y0097168D01*
X0260179Y0096941D01*
X0260184Y0096714D01*
X0260184Y0096486D01*
X0260179Y0096259D01*
X0260168Y0096032D01*
X0260152Y0095805D01*
X0260130Y0095578D01*
X0260103Y0095352D01*
X0260070Y0095127D01*
X0260032Y0094903D01*
X0259989Y0094679D01*
X0259940Y0094457D01*
X0259886Y0094236D01*
X0259827Y0094016D01*
X0259762Y0093798D01*
X0259693Y0093582D01*
X0259618Y0093367D01*
X0259538Y0093154D01*
X0259453Y0092943D01*
X0254342Y0087832D02*
X0254131Y0087747D01*
X0253918Y0087667D01*
X0253703Y0087592D01*
X0253487Y0087523D01*
X0253269Y0087458D01*
X0253049Y0087399D01*
X0252828Y0087345D01*
X0252606Y0087296D01*
X0252382Y0087253D01*
X0252158Y0087215D01*
X0251933Y0087182D01*
X0251707Y0087155D01*
X0251480Y0087133D01*
X0251253Y0087117D01*
X0251026Y0087106D01*
X0250799Y0087101D01*
X0250571Y0087101D01*
X0250344Y0087106D01*
X0250117Y0087117D01*
X0249890Y0087133D01*
X0249663Y0087155D01*
X0249437Y0087182D01*
X0249212Y0087215D01*
X0248988Y0087253D01*
X0248764Y0087296D01*
X0248542Y0087345D01*
X0248321Y0087399D01*
X0248101Y0087458D01*
X0247883Y0087523D01*
X0247667Y0087592D01*
X0247452Y0087667D01*
X0247239Y0087747D01*
X0247028Y0087832D01*
X0209342Y0105368D02*
X0209128Y0105454D01*
X0208911Y0105535D01*
X0208693Y0105611D01*
X0208472Y0105682D01*
X0208250Y0105747D01*
X0208027Y0105807D01*
X0207802Y0105861D01*
X0207576Y0105910D01*
X0207349Y0105953D01*
X0207121Y0105991D01*
X0206892Y0106023D01*
X0206662Y0106050D01*
X0206432Y0106071D01*
X0206201Y0106086D01*
X0205970Y0106096D01*
X0205739Y0106100D01*
X0205508Y0106098D01*
X0205277Y0106091D01*
X0205046Y0106078D01*
X0204815Y0106060D01*
X0204585Y0106036D01*
X0204356Y0106007D01*
X0204127Y0105971D01*
X0203900Y0105931D01*
X0203673Y0105885D01*
X0203448Y0105833D01*
X0203224Y0105776D01*
X0203001Y0105713D01*
X0202780Y0105645D01*
X0202561Y0105572D01*
X0202343Y0105493D01*
X0202128Y0105409D01*
X0201915Y0105320D01*
X0201704Y0105225D01*
X0201495Y0105126D01*
X0201289Y0105021D01*
X0201085Y0104912D01*
X0200884Y0104798D01*
X0200686Y0104678D01*
X0200491Y0104554D01*
X0200299Y0104425D01*
X0200110Y0104292D01*
X0199924Y0104154D01*
X0199742Y0104012D01*
X0199563Y0103865D01*
X0199388Y0103714D01*
X0199217Y0103558D01*
X0199050Y0103399D01*
X0198886Y0103235D01*
X0198727Y0103068D01*
X0198571Y0102897D01*
X0198420Y0102722D01*
X0198273Y0102543D01*
X0198131Y0102361D01*
X0197993Y0102175D01*
X0197860Y0101986D01*
X0197731Y0101794D01*
X0197607Y0101599D01*
X0197487Y0101401D01*
X0197373Y0101200D01*
X0197264Y0100996D01*
X0197159Y0100790D01*
X0197060Y0100581D01*
X0196965Y0100370D01*
X0196876Y0100157D01*
X0196792Y0099942D01*
X0196713Y0099724D01*
X0196640Y0099505D01*
X0196572Y0099284D01*
X0196509Y0099061D01*
X0196452Y0098837D01*
X0196400Y0098612D01*
X0196354Y0098385D01*
X0196314Y0098158D01*
X0196278Y0097929D01*
X0196249Y0097700D01*
X0196225Y0097470D01*
X0196207Y0097239D01*
X0196194Y0097008D01*
X0196187Y0096777D01*
X0196185Y0096546D01*
X0196189Y0096315D01*
X0196199Y0096084D01*
X0196214Y0095853D01*
X0196235Y0095623D01*
X0196262Y0095393D01*
X0196294Y0095164D01*
X0196332Y0094936D01*
X0196375Y0094709D01*
X0196424Y0094483D01*
X0196478Y0094258D01*
X0196538Y0094035D01*
X0196603Y0093813D01*
X0196674Y0093592D01*
X0196750Y0093374D01*
X0196831Y0093157D01*
X0196917Y0092943D01*
X0214453Y0092943D02*
X0214538Y0093154D01*
X0214618Y0093367D01*
X0214693Y0093582D01*
X0214762Y0093798D01*
X0214827Y0094016D01*
X0214886Y0094236D01*
X0214940Y0094457D01*
X0214989Y0094679D01*
X0215032Y0094903D01*
X0215070Y0095127D01*
X0215103Y0095352D01*
X0215130Y0095578D01*
X0215152Y0095805D01*
X0215168Y0096032D01*
X0215179Y0096259D01*
X0215184Y0096486D01*
X0215184Y0096714D01*
X0215179Y0096941D01*
X0215168Y0097168D01*
X0215152Y0097395D01*
X0215130Y0097622D01*
X0215103Y0097848D01*
X0215070Y0098073D01*
X0215032Y0098297D01*
X0214989Y0098521D01*
X0214940Y0098743D01*
X0214886Y0098964D01*
X0214827Y0099184D01*
X0214762Y0099402D01*
X0214693Y0099618D01*
X0214618Y0099833D01*
X0214538Y0100046D01*
X0214453Y0100257D01*
X0209342Y0087832D02*
X0209131Y0087747D01*
X0208918Y0087667D01*
X0208703Y0087592D01*
X0208487Y0087523D01*
X0208269Y0087458D01*
X0208049Y0087399D01*
X0207828Y0087345D01*
X0207606Y0087296D01*
X0207382Y0087253D01*
X0207158Y0087215D01*
X0206933Y0087182D01*
X0206707Y0087155D01*
X0206480Y0087133D01*
X0206253Y0087117D01*
X0206026Y0087106D01*
X0205799Y0087101D01*
X0205571Y0087101D01*
X0205344Y0087106D01*
X0205117Y0087117D01*
X0204890Y0087133D01*
X0204663Y0087155D01*
X0204437Y0087182D01*
X0204212Y0087215D01*
X0203988Y0087253D01*
X0203764Y0087296D01*
X0203542Y0087345D01*
X0203321Y0087399D01*
X0203101Y0087458D01*
X0202883Y0087523D01*
X0202667Y0087592D01*
X0202452Y0087667D01*
X0202239Y0087747D01*
X0202028Y0087832D01*
X0122420Y0293511D02*
X0121830Y0293511D01*
X0121535Y0293806D01*
X0121535Y0294396D01*
X0122420Y0294396D01*
X0122715Y0294101D01*
X0122715Y0293806D01*
X0122420Y0293511D01*
X0121535Y0294396D02*
X0122125Y0294986D01*
X0122715Y0295281D01*
X0120902Y0294986D02*
X0120902Y0294396D01*
X0120607Y0294101D01*
X0119722Y0294101D01*
X0119722Y0293511D02*
X0119722Y0295281D01*
X0120607Y0295281D01*
X0120902Y0294986D01*
X0120312Y0294101D02*
X0120902Y0293511D01*
X0077185Y0391600D02*
X0077185Y0431600D01*
X0065685Y0432100D02*
X0065685Y0391100D01*
X0054185Y0391600D02*
X0054185Y0431600D01*
X0216240Y0319092D02*
X0216941Y0319092D01*
X0217174Y0318858D01*
X0217174Y0318391D01*
X0216941Y0318158D01*
X0216240Y0318158D01*
X0216707Y0318158D02*
X0217174Y0317691D01*
X0217713Y0317691D02*
X0218647Y0317691D01*
X0219186Y0317924D02*
X0219420Y0317691D01*
X0219887Y0317691D01*
X0220121Y0317924D01*
X0220121Y0318391D01*
X0219654Y0318391D01*
X0220121Y0318858D02*
X0219887Y0319092D01*
X0219420Y0319092D01*
X0219186Y0318858D01*
X0219186Y0317924D01*
X0218180Y0318391D02*
X0217713Y0318391D01*
X0217713Y0317691D02*
X0217713Y0319092D01*
X0218647Y0319092D01*
X0220660Y0318391D02*
X0221594Y0318391D01*
X0222133Y0318158D02*
X0222600Y0317691D01*
X0223067Y0318158D01*
X0223067Y0319092D01*
X0223606Y0318858D02*
X0223606Y0317924D01*
X0223840Y0317691D01*
X0224307Y0317691D01*
X0224540Y0317924D01*
X0225079Y0317924D02*
X0225313Y0317691D01*
X0225780Y0317691D01*
X0226014Y0317924D01*
X0226014Y0318858D02*
X0225780Y0319092D01*
X0225313Y0319092D01*
X0225079Y0318858D01*
X0225079Y0317924D01*
X0224540Y0318858D02*
X0224307Y0319092D01*
X0223840Y0319092D01*
X0223606Y0318858D01*
X0222133Y0319092D02*
X0222133Y0318158D01*
X0216240Y0317691D02*
X0216240Y0319092D01*
X0263394Y0319470D02*
X0264095Y0319470D01*
X0264328Y0319236D01*
X0264328Y0318769D01*
X0264095Y0318536D01*
X0263394Y0318536D01*
X0263861Y0318536D02*
X0264328Y0318069D01*
X0264868Y0318069D02*
X0265802Y0318069D01*
X0266341Y0318302D02*
X0266574Y0318069D01*
X0267041Y0318069D01*
X0267275Y0318302D01*
X0267275Y0318769D01*
X0266808Y0318769D01*
X0267275Y0319236D02*
X0267041Y0319470D01*
X0266574Y0319470D01*
X0266341Y0319236D01*
X0266341Y0318302D01*
X0265335Y0318769D02*
X0264868Y0318769D01*
X0264868Y0318069D02*
X0264868Y0319470D01*
X0265802Y0319470D01*
X0267814Y0318769D02*
X0268748Y0318769D01*
X0269287Y0318769D02*
X0269754Y0319003D01*
X0269988Y0319003D01*
X0270221Y0318769D01*
X0270221Y0318302D01*
X0269988Y0318069D01*
X0269521Y0318069D01*
X0269287Y0318302D01*
X0269287Y0318769D02*
X0269287Y0319470D01*
X0270221Y0319470D01*
X0270761Y0319470D02*
X0270761Y0318536D01*
X0271228Y0318069D01*
X0271695Y0318536D01*
X0271695Y0319470D01*
X0263394Y0319470D02*
X0263394Y0318069D01*
D20*
X0176670Y0270836D02*
X0176670Y0270219D01*
X0176053Y0269602D01*
X0176670Y0268984D01*
X0176670Y0268367D01*
X0176053Y0267750D01*
X0174819Y0267750D01*
X0174201Y0268367D01*
X0172987Y0268367D02*
X0172987Y0268984D01*
X0172370Y0269602D01*
X0171135Y0269602D01*
X0170518Y0270219D01*
X0170518Y0270836D01*
X0171135Y0271453D01*
X0172370Y0271453D01*
X0172987Y0270836D01*
X0174201Y0270836D02*
X0174819Y0271453D01*
X0176053Y0271453D01*
X0176670Y0270836D01*
X0176053Y0269602D02*
X0175436Y0269602D01*
X0172987Y0268367D02*
X0172370Y0267750D01*
X0171135Y0267750D01*
X0170518Y0268367D01*
X0169304Y0268367D02*
X0169304Y0271453D01*
X0166835Y0271453D02*
X0166835Y0268367D01*
X0167452Y0267750D01*
X0168687Y0267750D01*
X0169304Y0268367D01*
X0171753Y0267133D02*
X0171753Y0272070D01*
D21*
X0203185Y0244725D03*
D22*
X0196035Y0254450D02*
X0196585Y0255000D01*
X0196585Y0256101D01*
X0196035Y0256652D01*
X0193833Y0256652D01*
X0193282Y0256101D01*
X0193282Y0255000D01*
X0193833Y0254450D01*
X0196035Y0254450D01*
X0195484Y0255551D02*
X0196585Y0256652D01*
X0196035Y0258133D02*
X0196585Y0258684D01*
X0196585Y0259785D01*
X0196035Y0260335D01*
X0195484Y0260335D01*
X0194934Y0259785D01*
X0194934Y0259234D01*
X0194934Y0259785D02*
X0194383Y0260335D01*
X0193833Y0260335D01*
X0193282Y0259785D01*
X0193282Y0258684D01*
X0193833Y0258133D01*
X0095335Y0361950D02*
X0089030Y0361950D01*
X0089030Y0366154D01*
X0091131Y0368395D02*
X0089030Y0370497D01*
X0095335Y0370497D01*
X0095335Y0368395D02*
X0095335Y0372599D01*
X0092182Y0364052D02*
X0092182Y0361950D01*
D23*
X0191185Y0321659D03*
D24*
X0195132Y0321600D03*
X0176238Y0321600D03*
D25*
X0230400Y0328382D02*
X0230965Y0327936D01*
X0230965Y0327937D02*
X0230815Y0327740D01*
X0230669Y0327539D01*
X0230529Y0327335D01*
X0230393Y0327127D01*
X0230263Y0326916D01*
X0230138Y0326702D01*
X0230018Y0326485D01*
X0229903Y0326265D01*
X0229794Y0326043D01*
X0229691Y0325818D01*
X0229593Y0325590D01*
X0229500Y0325360D01*
X0229413Y0325128D01*
X0229332Y0324894D01*
X0229257Y0324658D01*
X0229187Y0324420D01*
X0229123Y0324180D01*
X0229065Y0323939D01*
X0229013Y0323697D01*
X0228967Y0323453D01*
X0228927Y0323209D01*
X0228893Y0322963D01*
X0228865Y0322717D01*
X0228843Y0322470D01*
X0228827Y0322223D01*
X0228817Y0321975D01*
X0228813Y0321727D01*
X0228815Y0321479D01*
X0228823Y0321232D01*
X0228838Y0320984D01*
X0228858Y0320737D01*
X0228884Y0320491D01*
X0228917Y0320245D01*
X0228955Y0320000D01*
X0228999Y0319756D01*
X0229050Y0319513D01*
X0229106Y0319272D01*
X0229168Y0319032D01*
X0229236Y0318794D01*
X0229309Y0318557D01*
X0229389Y0318322D01*
X0229474Y0318089D01*
X0229565Y0317859D01*
X0229661Y0317631D01*
X0229764Y0317405D01*
X0229871Y0317181D01*
X0229984Y0316961D01*
X0230102Y0316743D01*
X0230226Y0316528D01*
X0230355Y0316316D01*
X0230489Y0316108D01*
X0230628Y0315902D01*
X0230772Y0315701D01*
X0230920Y0315503D01*
X0231074Y0315308D01*
X0231232Y0315117D01*
X0231395Y0314931D01*
X0231563Y0314748D01*
X0231735Y0314569D01*
X0231911Y0314395D01*
X0232092Y0314225D01*
X0232276Y0314060D01*
X0232465Y0313899D01*
X0232657Y0313742D01*
X0232853Y0313591D01*
X0233053Y0313444D01*
X0233256Y0313302D01*
X0233463Y0313166D01*
X0233673Y0313034D01*
X0233886Y0312908D01*
X0234102Y0312786D01*
X0234322Y0312671D01*
X0234543Y0312560D01*
X0234768Y0312455D01*
X0234995Y0312355D01*
X0235224Y0312261D01*
X0235456Y0312173D01*
X0235690Y0312090D01*
X0235925Y0312014D01*
X0235713Y0311326D01*
X0235460Y0311408D01*
X0235210Y0311496D01*
X0234962Y0311591D01*
X0234716Y0311692D01*
X0234473Y0311798D01*
X0234232Y0311911D01*
X0233995Y0312029D01*
X0233760Y0312153D01*
X0233528Y0312283D01*
X0233300Y0312418D01*
X0233075Y0312559D01*
X0232853Y0312706D01*
X0232636Y0312858D01*
X0232422Y0313015D01*
X0232211Y0313177D01*
X0232005Y0313344D01*
X0231803Y0313517D01*
X0231605Y0313694D01*
X0231412Y0313876D01*
X0231223Y0314063D01*
X0231039Y0314254D01*
X0230860Y0314450D01*
X0230685Y0314650D01*
X0230515Y0314854D01*
X0230351Y0315062D01*
X0230191Y0315275D01*
X0230037Y0315491D01*
X0229888Y0315711D01*
X0229745Y0315934D01*
X0229607Y0316161D01*
X0229474Y0316391D01*
X0229347Y0316624D01*
X0229226Y0316861D01*
X0229111Y0317100D01*
X0229002Y0317342D01*
X0228898Y0317587D01*
X0228801Y0317834D01*
X0228710Y0318083D01*
X0228625Y0318334D01*
X0228546Y0318588D01*
X0228473Y0318843D01*
X0228407Y0319100D01*
X0228346Y0319359D01*
X0228292Y0319619D01*
X0228245Y0319880D01*
X0228204Y0320143D01*
X0228169Y0320406D01*
X0228141Y0320670D01*
X0228119Y0320935D01*
X0228104Y0321200D01*
X0228095Y0321465D01*
X0228093Y0321731D01*
X0228097Y0321996D01*
X0228108Y0322262D01*
X0228125Y0322526D01*
X0228149Y0322791D01*
X0228179Y0323055D01*
X0228216Y0323318D01*
X0228259Y0323580D01*
X0228308Y0323841D01*
X0228364Y0324100D01*
X0228426Y0324359D01*
X0228494Y0324615D01*
X0228569Y0324870D01*
X0228650Y0325123D01*
X0228737Y0325374D01*
X0228830Y0325622D01*
X0228929Y0325869D01*
X0229034Y0326113D01*
X0229145Y0326354D01*
X0229262Y0326592D01*
X0229385Y0326828D01*
X0229513Y0327060D01*
X0229647Y0327289D01*
X0229787Y0327515D01*
X0229932Y0327738D01*
X0230083Y0327956D01*
X0230238Y0328171D01*
X0230399Y0328382D01*
X0230458Y0328336D01*
X0230298Y0328126D01*
X0230144Y0327913D01*
X0229994Y0327696D01*
X0229850Y0327475D01*
X0229711Y0327250D01*
X0229578Y0327023D01*
X0229451Y0326792D01*
X0229329Y0326558D01*
X0229213Y0326321D01*
X0229102Y0326082D01*
X0228998Y0325840D01*
X0228899Y0325595D01*
X0228807Y0325348D01*
X0228721Y0325099D01*
X0228640Y0324848D01*
X0228566Y0324595D01*
X0228498Y0324340D01*
X0228437Y0324084D01*
X0228381Y0323826D01*
X0228332Y0323567D01*
X0228290Y0323306D01*
X0228253Y0323045D01*
X0228223Y0322783D01*
X0228200Y0322521D01*
X0228183Y0322257D01*
X0228172Y0321994D01*
X0228168Y0321730D01*
X0228170Y0321467D01*
X0228179Y0321203D01*
X0228194Y0320940D01*
X0228216Y0320677D01*
X0228244Y0320415D01*
X0228278Y0320153D01*
X0228319Y0319893D01*
X0228366Y0319633D01*
X0228420Y0319375D01*
X0228479Y0319118D01*
X0228545Y0318863D01*
X0228618Y0318609D01*
X0228696Y0318358D01*
X0228781Y0318108D01*
X0228871Y0317860D01*
X0228968Y0317615D01*
X0229071Y0317372D01*
X0229179Y0317132D01*
X0229294Y0316894D01*
X0229414Y0316659D01*
X0229540Y0316428D01*
X0229671Y0316199D01*
X0229808Y0315974D01*
X0229951Y0315752D01*
X0230098Y0315534D01*
X0230252Y0315319D01*
X0230410Y0315108D01*
X0230574Y0314901D01*
X0230742Y0314698D01*
X0230915Y0314500D01*
X0231094Y0314305D01*
X0231277Y0314115D01*
X0231464Y0313930D01*
X0231656Y0313749D01*
X0231852Y0313573D01*
X0232053Y0313402D01*
X0232258Y0313236D01*
X0232466Y0313075D01*
X0232679Y0312919D01*
X0232895Y0312768D01*
X0233115Y0312622D01*
X0233339Y0312482D01*
X0233566Y0312348D01*
X0233796Y0312219D01*
X0234029Y0312096D01*
X0234265Y0311978D01*
X0234504Y0311867D01*
X0234745Y0311761D01*
X0234989Y0311661D01*
X0235236Y0311567D01*
X0235484Y0311479D01*
X0235735Y0311397D01*
X0235757Y0311469D01*
X0235508Y0311550D01*
X0235261Y0311637D01*
X0235017Y0311731D01*
X0234774Y0311830D01*
X0234534Y0311935D01*
X0234297Y0312046D01*
X0234063Y0312163D01*
X0233831Y0312285D01*
X0233603Y0312413D01*
X0233378Y0312547D01*
X0233156Y0312686D01*
X0232937Y0312830D01*
X0232723Y0312980D01*
X0232511Y0313135D01*
X0232304Y0313295D01*
X0232101Y0313460D01*
X0231902Y0313630D01*
X0231707Y0313805D01*
X0231516Y0313984D01*
X0231330Y0314168D01*
X0231148Y0314357D01*
X0230971Y0314550D01*
X0230799Y0314747D01*
X0230632Y0314949D01*
X0230469Y0315154D01*
X0230312Y0315363D01*
X0230160Y0315576D01*
X0230013Y0315793D01*
X0229872Y0316014D01*
X0229736Y0316237D01*
X0229605Y0316464D01*
X0229480Y0316694D01*
X0229361Y0316927D01*
X0229247Y0317163D01*
X0229139Y0317402D01*
X0229037Y0317643D01*
X0228941Y0317887D01*
X0228851Y0318133D01*
X0228767Y0318381D01*
X0228689Y0318631D01*
X0228618Y0318883D01*
X0228552Y0319136D01*
X0228493Y0319391D01*
X0228440Y0319648D01*
X0228393Y0319905D01*
X0228352Y0320164D01*
X0228318Y0320424D01*
X0228290Y0320684D01*
X0228269Y0320945D01*
X0228254Y0321206D01*
X0228245Y0321468D01*
X0228243Y0321730D01*
X0228247Y0321992D01*
X0228258Y0322253D01*
X0228275Y0322515D01*
X0228298Y0322776D01*
X0228328Y0323036D01*
X0228364Y0323295D01*
X0228406Y0323553D01*
X0228455Y0323811D01*
X0228510Y0324067D01*
X0228571Y0324321D01*
X0228638Y0324574D01*
X0228712Y0324826D01*
X0228792Y0325075D01*
X0228878Y0325323D01*
X0228969Y0325568D01*
X0229067Y0325811D01*
X0229171Y0326051D01*
X0229280Y0326289D01*
X0229396Y0326524D01*
X0229517Y0326756D01*
X0229643Y0326986D01*
X0229775Y0327212D01*
X0229913Y0327434D01*
X0230056Y0327654D01*
X0230205Y0327869D01*
X0230358Y0328081D01*
X0230517Y0328290D01*
X0230576Y0328243D01*
X0230418Y0328036D01*
X0230266Y0327826D01*
X0230118Y0327612D01*
X0229976Y0327394D01*
X0229840Y0327173D01*
X0229708Y0326948D01*
X0229583Y0326721D01*
X0229462Y0326490D01*
X0229348Y0326257D01*
X0229239Y0326020D01*
X0229136Y0325782D01*
X0229039Y0325541D01*
X0228948Y0325297D01*
X0228863Y0325051D01*
X0228784Y0324804D01*
X0228711Y0324554D01*
X0228644Y0324303D01*
X0228583Y0324050D01*
X0228528Y0323796D01*
X0228480Y0323540D01*
X0228438Y0323284D01*
X0228402Y0323026D01*
X0228373Y0322768D01*
X0228349Y0322509D01*
X0228333Y0322249D01*
X0228322Y0321990D01*
X0228318Y0321730D01*
X0228320Y0321470D01*
X0228329Y0321210D01*
X0228344Y0320950D01*
X0228365Y0320691D01*
X0228393Y0320432D01*
X0228427Y0320175D01*
X0228467Y0319918D01*
X0228513Y0319662D01*
X0228566Y0319407D01*
X0228625Y0319154D01*
X0228690Y0318902D01*
X0228761Y0318652D01*
X0228839Y0318404D01*
X0228922Y0318158D01*
X0229011Y0317914D01*
X0229107Y0317672D01*
X0229208Y0317432D01*
X0229315Y0317195D01*
X0229428Y0316961D01*
X0229546Y0316729D01*
X0229670Y0316501D01*
X0229800Y0316276D01*
X0229935Y0316053D01*
X0230076Y0315835D01*
X0230222Y0315619D01*
X0230373Y0315408D01*
X0230529Y0315200D01*
X0230690Y0314996D01*
X0230856Y0314796D01*
X0231027Y0314600D01*
X0231203Y0314408D01*
X0231383Y0314221D01*
X0231568Y0314038D01*
X0231757Y0313860D01*
X0231951Y0313686D01*
X0232149Y0313518D01*
X0232351Y0313354D01*
X0232556Y0313195D01*
X0232766Y0313041D01*
X0232979Y0312892D01*
X0233196Y0312749D01*
X0233417Y0312611D01*
X0233640Y0312478D01*
X0233867Y0312351D01*
X0234097Y0312229D01*
X0234330Y0312114D01*
X0234565Y0312003D01*
X0234803Y0311899D01*
X0235044Y0311800D01*
X0235287Y0311708D01*
X0235532Y0311621D01*
X0235779Y0311541D01*
X0235801Y0311612D01*
X0235556Y0311692D01*
X0235313Y0311778D01*
X0235071Y0311870D01*
X0234832Y0311968D01*
X0234596Y0312072D01*
X0234362Y0312181D01*
X0234131Y0312296D01*
X0233903Y0312417D01*
X0233677Y0312543D01*
X0233455Y0312675D01*
X0233237Y0312812D01*
X0233021Y0312954D01*
X0232810Y0313102D01*
X0232601Y0313255D01*
X0232397Y0313413D01*
X0232197Y0313575D01*
X0232000Y0313743D01*
X0231808Y0313915D01*
X0231620Y0314092D01*
X0231436Y0314274D01*
X0231257Y0314460D01*
X0231083Y0314650D01*
X0230913Y0314845D01*
X0230748Y0315043D01*
X0230588Y0315246D01*
X0230433Y0315452D01*
X0230283Y0315662D01*
X0230138Y0315876D01*
X0229999Y0316093D01*
X0229865Y0316314D01*
X0229736Y0316538D01*
X0229613Y0316764D01*
X0229495Y0316994D01*
X0229383Y0317227D01*
X0229277Y0317462D01*
X0229176Y0317700D01*
X0229082Y0317940D01*
X0228993Y0318183D01*
X0228910Y0318427D01*
X0228833Y0318674D01*
X0228763Y0318922D01*
X0228698Y0319172D01*
X0228639Y0319423D01*
X0228587Y0319676D01*
X0228541Y0319930D01*
X0228501Y0320185D01*
X0228467Y0320441D01*
X0228440Y0320698D01*
X0228419Y0320955D01*
X0228404Y0321213D01*
X0228395Y0321471D01*
X0228393Y0321729D01*
X0228397Y0321987D01*
X0228408Y0322245D01*
X0228424Y0322503D01*
X0228447Y0322760D01*
X0228477Y0323017D01*
X0228512Y0323272D01*
X0228554Y0323527D01*
X0228602Y0323781D01*
X0228656Y0324033D01*
X0228716Y0324284D01*
X0228783Y0324534D01*
X0228855Y0324782D01*
X0228934Y0325027D01*
X0229018Y0325271D01*
X0229109Y0325513D01*
X0229205Y0325753D01*
X0229308Y0325990D01*
X0229416Y0326224D01*
X0229529Y0326456D01*
X0229649Y0326685D01*
X0229773Y0326911D01*
X0229904Y0327134D01*
X0230040Y0327353D01*
X0230181Y0327570D01*
X0230327Y0327782D01*
X0230478Y0327991D01*
X0230635Y0328197D01*
X0230694Y0328150D01*
X0230538Y0327946D01*
X0230388Y0327739D01*
X0230243Y0327528D01*
X0230103Y0327313D01*
X0229968Y0327095D01*
X0229838Y0326874D01*
X0229715Y0326649D01*
X0229596Y0326422D01*
X0229483Y0326192D01*
X0229376Y0325959D01*
X0229275Y0325724D01*
X0229179Y0325486D01*
X0229089Y0325246D01*
X0229005Y0325004D01*
X0228927Y0324759D01*
X0228855Y0324513D01*
X0228789Y0324266D01*
X0228729Y0324016D01*
X0228675Y0323766D01*
X0228628Y0323514D01*
X0228586Y0323261D01*
X0228551Y0323007D01*
X0228522Y0322752D01*
X0228499Y0322497D01*
X0228482Y0322241D01*
X0228472Y0321985D01*
X0228468Y0321729D01*
X0228470Y0321473D01*
X0228479Y0321216D01*
X0228493Y0320960D01*
X0228514Y0320705D01*
X0228542Y0320450D01*
X0228575Y0320196D01*
X0228615Y0319943D01*
X0228661Y0319690D01*
X0228713Y0319439D01*
X0228771Y0319190D01*
X0228835Y0318942D01*
X0228905Y0318695D01*
X0228981Y0318450D01*
X0229064Y0318208D01*
X0229152Y0317967D01*
X0229246Y0317728D01*
X0229345Y0317492D01*
X0229451Y0317259D01*
X0229562Y0317028D01*
X0229679Y0316800D01*
X0229801Y0316574D01*
X0229929Y0316352D01*
X0230062Y0316133D01*
X0230201Y0315917D01*
X0230345Y0315705D01*
X0230493Y0315496D01*
X0230647Y0315292D01*
X0230806Y0315090D01*
X0230970Y0314893D01*
X0231139Y0314700D01*
X0231312Y0314511D01*
X0231490Y0314327D01*
X0231672Y0314146D01*
X0231859Y0313971D01*
X0232049Y0313799D01*
X0232244Y0313633D01*
X0232443Y0313471D01*
X0232646Y0313315D01*
X0232853Y0313163D01*
X0233063Y0313017D01*
X0233277Y0312875D01*
X0233494Y0312739D01*
X0233715Y0312608D01*
X0233938Y0312483D01*
X0234165Y0312363D01*
X0234394Y0312249D01*
X0234627Y0312140D01*
X0234861Y0312037D01*
X0235099Y0311940D01*
X0235338Y0311849D01*
X0235580Y0311763D01*
X0235824Y0311684D01*
X0235846Y0311756D01*
X0235604Y0311835D01*
X0235364Y0311919D01*
X0235126Y0312010D01*
X0234890Y0312106D01*
X0234657Y0312209D01*
X0234427Y0312316D01*
X0234199Y0312430D01*
X0233974Y0312549D01*
X0233752Y0312673D01*
X0233533Y0312803D01*
X0233318Y0312938D01*
X0233105Y0313079D01*
X0232896Y0313224D01*
X0232691Y0313375D01*
X0232490Y0313530D01*
X0232292Y0313691D01*
X0232099Y0313856D01*
X0231909Y0314026D01*
X0231724Y0314200D01*
X0231543Y0314379D01*
X0231367Y0314563D01*
X0231195Y0314750D01*
X0231027Y0314942D01*
X0230865Y0315138D01*
X0230707Y0315337D01*
X0230554Y0315541D01*
X0230406Y0315748D01*
X0230263Y0315959D01*
X0230126Y0316173D01*
X0229994Y0316390D01*
X0229867Y0316611D01*
X0229745Y0316835D01*
X0229629Y0317061D01*
X0229519Y0317290D01*
X0229414Y0317522D01*
X0229315Y0317757D01*
X0229222Y0317994D01*
X0229134Y0318233D01*
X0229053Y0318474D01*
X0228977Y0318717D01*
X0228907Y0318961D01*
X0228844Y0319208D01*
X0228786Y0319456D01*
X0228734Y0319705D01*
X0228689Y0319955D01*
X0228649Y0320207D01*
X0228616Y0320459D01*
X0228589Y0320712D01*
X0228568Y0320966D01*
X0228554Y0321220D01*
X0228545Y0321474D01*
X0228543Y0321729D01*
X0228547Y0321983D01*
X0228557Y0322237D01*
X0228574Y0322491D01*
X0228596Y0322745D01*
X0228625Y0322998D01*
X0228660Y0323250D01*
X0228702Y0323501D01*
X0228749Y0323751D01*
X0228802Y0324000D01*
X0228862Y0324247D01*
X0228927Y0324493D01*
X0228999Y0324737D01*
X0229076Y0324980D01*
X0229159Y0325220D01*
X0229249Y0325459D01*
X0229344Y0325695D01*
X0229444Y0325928D01*
X0229551Y0326159D01*
X0229663Y0326388D01*
X0229780Y0326614D01*
X0229904Y0326836D01*
X0230032Y0327056D01*
X0230166Y0327273D01*
X0230305Y0327486D01*
X0230449Y0327695D01*
X0230598Y0327901D01*
X0230753Y0328104D01*
X0230812Y0328057D01*
X0230659Y0327857D01*
X0230510Y0327652D01*
X0230367Y0327444D01*
X0230229Y0327232D01*
X0230096Y0327017D01*
X0229969Y0326799D01*
X0229846Y0326578D01*
X0229730Y0326354D01*
X0229618Y0326127D01*
X0229513Y0325898D01*
X0229413Y0325666D01*
X0229319Y0325431D01*
X0229230Y0325195D01*
X0229147Y0324956D01*
X0229070Y0324715D01*
X0228999Y0324473D01*
X0228934Y0324229D01*
X0228875Y0323983D01*
X0228822Y0323736D01*
X0228775Y0323488D01*
X0228734Y0323238D01*
X0228700Y0322988D01*
X0228671Y0322737D01*
X0228649Y0322485D01*
X0228632Y0322233D01*
X0228622Y0321981D01*
X0228618Y0321728D01*
X0228620Y0321476D01*
X0228629Y0321223D01*
X0228643Y0320971D01*
X0228664Y0320719D01*
X0228691Y0320468D01*
X0228724Y0320217D01*
X0228763Y0319968D01*
X0228808Y0319719D01*
X0228859Y0319472D01*
X0228916Y0319226D01*
X0228980Y0318981D01*
X0229049Y0318738D01*
X0229124Y0318497D01*
X0229205Y0318257D01*
X0229292Y0318020D01*
X0229384Y0317785D01*
X0229483Y0317552D01*
X0229587Y0317322D01*
X0229696Y0317094D01*
X0229812Y0316870D01*
X0229932Y0316648D01*
X0230058Y0316429D01*
X0230189Y0316213D01*
X0230326Y0316000D01*
X0230468Y0315791D01*
X0230614Y0315585D01*
X0230766Y0315383D01*
X0230923Y0315185D01*
X0231084Y0314991D01*
X0231250Y0314800D01*
X0231421Y0314614D01*
X0231596Y0314432D01*
X0231776Y0314254D01*
X0231960Y0314081D01*
X0232148Y0313913D01*
X0232340Y0313749D01*
X0232536Y0313589D01*
X0232736Y0313435D01*
X0232940Y0313285D01*
X0233147Y0313141D01*
X0233358Y0313001D01*
X0233572Y0312867D01*
X0233789Y0312738D01*
X0234010Y0312615D01*
X0234233Y0312497D01*
X0234459Y0312384D01*
X0234688Y0312277D01*
X0234919Y0312176D01*
X0235153Y0312080D01*
X0235389Y0311990D01*
X0235628Y0311906D01*
X0235868Y0311827D01*
X0235890Y0311899D01*
X0235651Y0311977D01*
X0235415Y0312060D01*
X0235181Y0312150D01*
X0234948Y0312245D01*
X0234719Y0312345D01*
X0234492Y0312452D01*
X0234267Y0312564D01*
X0234045Y0312681D01*
X0233827Y0312803D01*
X0233611Y0312931D01*
X0233398Y0313065D01*
X0233189Y0313203D01*
X0232983Y0313346D01*
X0232781Y0313495D01*
X0232583Y0313648D01*
X0232388Y0313806D01*
X0232197Y0313969D01*
X0232011Y0314137D01*
X0231828Y0314309D01*
X0231650Y0314485D01*
X0231476Y0314666D01*
X0231306Y0314850D01*
X0231141Y0315039D01*
X0230981Y0315232D01*
X0230825Y0315429D01*
X0230675Y0315630D01*
X0230529Y0315834D01*
X0230389Y0316041D01*
X0230253Y0316253D01*
X0230123Y0316467D01*
X0229998Y0316684D01*
X0229878Y0316905D01*
X0229764Y0317128D01*
X0229655Y0317354D01*
X0229552Y0317582D01*
X0229454Y0317813D01*
X0229362Y0318047D01*
X0229276Y0318282D01*
X0229195Y0318520D01*
X0229121Y0318759D01*
X0229052Y0319001D01*
X0228989Y0319243D01*
X0228932Y0319488D01*
X0228882Y0319733D01*
X0228837Y0319980D01*
X0228798Y0320228D01*
X0228765Y0320477D01*
X0228738Y0320726D01*
X0228718Y0320976D01*
X0228704Y0321226D01*
X0228695Y0321477D01*
X0228693Y0321728D01*
X0228697Y0321979D01*
X0228707Y0322229D01*
X0228723Y0322479D01*
X0228746Y0322729D01*
X0228774Y0322978D01*
X0228809Y0323227D01*
X0228849Y0323474D01*
X0228896Y0323721D01*
X0228948Y0323966D01*
X0229007Y0324210D01*
X0229072Y0324452D01*
X0229142Y0324693D01*
X0229218Y0324932D01*
X0229300Y0325169D01*
X0229388Y0325404D01*
X0229482Y0325637D01*
X0229581Y0325867D01*
X0229686Y0326095D01*
X0229797Y0326320D01*
X0229912Y0326542D01*
X0230034Y0326762D01*
X0230160Y0326978D01*
X0230292Y0327192D01*
X0230429Y0327402D01*
X0230571Y0327608D01*
X0230719Y0327812D01*
X0230871Y0328011D01*
X0230930Y0327965D01*
X0230779Y0327767D01*
X0230632Y0327565D01*
X0230491Y0327360D01*
X0230355Y0327151D01*
X0230224Y0326940D01*
X0230099Y0326725D01*
X0229978Y0326507D01*
X0229863Y0326286D01*
X0229754Y0326062D01*
X0229650Y0325836D01*
X0229551Y0325608D01*
X0229458Y0325377D01*
X0229371Y0325143D01*
X0229289Y0324908D01*
X0229214Y0324671D01*
X0229144Y0324432D01*
X0229080Y0324191D01*
X0229022Y0323949D01*
X0228969Y0323706D01*
X0228923Y0323461D01*
X0228883Y0323216D01*
X0228848Y0322969D01*
X0228820Y0322722D01*
X0228798Y0322474D01*
X0228782Y0322225D01*
X0228772Y0321976D01*
X0228768Y0321727D01*
X0228770Y0321478D01*
X0228778Y0321230D01*
X0228793Y0320981D01*
X0228813Y0320733D01*
X0228840Y0320485D01*
X0228872Y0320239D01*
X0228911Y0319993D01*
X0228955Y0319748D01*
X0229006Y0319504D01*
X0229062Y0319261D01*
X0229124Y0319020D01*
X0229193Y0318781D01*
X0229267Y0318543D01*
X0229347Y0318307D01*
X0229432Y0318073D01*
X0229523Y0317842D01*
X0229620Y0317613D01*
X0229723Y0317386D01*
X0229831Y0317161D01*
X0229944Y0316940D01*
X0230063Y0316721D01*
X0230187Y0316505D01*
X0230317Y0316292D01*
X0230451Y0316083D01*
X0230591Y0315877D01*
X0230735Y0315674D01*
X0230885Y0315475D01*
X0231039Y0315280D01*
X0231198Y0315088D01*
X0231362Y0314901D01*
X0231530Y0314717D01*
X0231703Y0314538D01*
X0231880Y0314363D01*
X0232061Y0314192D01*
X0232247Y0314026D01*
X0232436Y0313864D01*
X0232629Y0313707D01*
X0232826Y0313555D01*
X0233027Y0313408D01*
X0233231Y0313265D01*
X0233439Y0313128D01*
X0233650Y0312996D01*
X0233864Y0312869D01*
X0234081Y0312747D01*
X0234301Y0312630D01*
X0234524Y0312519D01*
X0234749Y0312414D01*
X0234978Y0312314D01*
X0235208Y0312220D01*
X0235441Y0312131D01*
X0235675Y0312048D01*
X0235912Y0311971D01*
X0242192Y0311326D02*
X0241980Y0312014D01*
X0241981Y0312014D02*
X0242216Y0312090D01*
X0242450Y0312173D01*
X0242682Y0312261D01*
X0242911Y0312355D01*
X0243138Y0312455D01*
X0243362Y0312560D01*
X0243584Y0312670D01*
X0243803Y0312786D01*
X0244020Y0312908D01*
X0244233Y0313034D01*
X0244443Y0313166D01*
X0244650Y0313302D01*
X0244853Y0313444D01*
X0245053Y0313591D01*
X0245249Y0313742D01*
X0245441Y0313899D01*
X0245630Y0314060D01*
X0245814Y0314225D01*
X0245995Y0314395D01*
X0246171Y0314569D01*
X0246343Y0314748D01*
X0246510Y0314930D01*
X0246673Y0315117D01*
X0246832Y0315308D01*
X0246985Y0315502D01*
X0247134Y0315701D01*
X0247278Y0315902D01*
X0247417Y0316108D01*
X0247551Y0316316D01*
X0247680Y0316528D01*
X0247804Y0316743D01*
X0247922Y0316961D01*
X0248035Y0317181D01*
X0248142Y0317405D01*
X0248244Y0317630D01*
X0248341Y0317859D01*
X0248432Y0318089D01*
X0248517Y0318322D01*
X0248596Y0318557D01*
X0248670Y0318794D01*
X0248738Y0319032D01*
X0248800Y0319272D01*
X0248856Y0319513D01*
X0248907Y0319756D01*
X0248951Y0320000D01*
X0248989Y0320245D01*
X0249022Y0320491D01*
X0249048Y0320737D01*
X0249068Y0320984D01*
X0249083Y0321231D01*
X0249091Y0321479D01*
X0249093Y0321727D01*
X0249089Y0321975D01*
X0249079Y0322223D01*
X0249063Y0322470D01*
X0249041Y0322717D01*
X0249013Y0322963D01*
X0248979Y0323209D01*
X0248939Y0323453D01*
X0248893Y0323697D01*
X0248841Y0323939D01*
X0248783Y0324180D01*
X0248719Y0324420D01*
X0248649Y0324657D01*
X0248574Y0324894D01*
X0248493Y0325128D01*
X0248406Y0325360D01*
X0248313Y0325590D01*
X0248215Y0325818D01*
X0248112Y0326043D01*
X0248003Y0326265D01*
X0247888Y0326485D01*
X0247768Y0326702D01*
X0247643Y0326916D01*
X0247513Y0327127D01*
X0247377Y0327334D01*
X0247237Y0327539D01*
X0247092Y0327739D01*
X0246941Y0327937D01*
X0247506Y0328382D01*
X0247507Y0328382D01*
X0247668Y0328171D01*
X0247824Y0327956D01*
X0247974Y0327737D01*
X0248119Y0327515D01*
X0248259Y0327289D01*
X0248393Y0327060D01*
X0248521Y0326828D01*
X0248644Y0326592D01*
X0248761Y0326354D01*
X0248872Y0326112D01*
X0248977Y0325869D01*
X0249076Y0325622D01*
X0249170Y0325374D01*
X0249257Y0325123D01*
X0249337Y0324870D01*
X0249412Y0324615D01*
X0249480Y0324358D01*
X0249542Y0324100D01*
X0249598Y0323841D01*
X0249648Y0323580D01*
X0249690Y0323318D01*
X0249727Y0323055D01*
X0249757Y0322791D01*
X0249781Y0322526D01*
X0249798Y0322261D01*
X0249809Y0321996D01*
X0249813Y0321731D01*
X0249811Y0321465D01*
X0249802Y0321200D01*
X0249787Y0320934D01*
X0249765Y0320670D01*
X0249737Y0320406D01*
X0249702Y0320143D01*
X0249661Y0319880D01*
X0249613Y0319619D01*
X0249560Y0319359D01*
X0249499Y0319100D01*
X0249433Y0318843D01*
X0249360Y0318588D01*
X0249281Y0318334D01*
X0249196Y0318083D01*
X0249105Y0317833D01*
X0249007Y0317586D01*
X0248904Y0317342D01*
X0248795Y0317100D01*
X0248680Y0316861D01*
X0248559Y0316624D01*
X0248432Y0316391D01*
X0248299Y0316161D01*
X0248161Y0315934D01*
X0248018Y0315710D01*
X0247869Y0315491D01*
X0247715Y0315274D01*
X0247555Y0315062D01*
X0247391Y0314854D01*
X0247221Y0314650D01*
X0247046Y0314450D01*
X0246867Y0314254D01*
X0246683Y0314063D01*
X0246494Y0313876D01*
X0246300Y0313694D01*
X0246103Y0313517D01*
X0245901Y0313344D01*
X0245695Y0313177D01*
X0245484Y0313015D01*
X0245270Y0312857D01*
X0245052Y0312706D01*
X0244831Y0312559D01*
X0244606Y0312418D01*
X0244378Y0312283D01*
X0244146Y0312153D01*
X0243911Y0312029D01*
X0243673Y0311911D01*
X0243433Y0311798D01*
X0243190Y0311691D01*
X0242944Y0311591D01*
X0242696Y0311496D01*
X0242445Y0311408D01*
X0242193Y0311326D01*
X0242171Y0311397D01*
X0242422Y0311479D01*
X0242670Y0311567D01*
X0242917Y0311661D01*
X0243161Y0311761D01*
X0243402Y0311866D01*
X0243641Y0311978D01*
X0243877Y0312096D01*
X0244110Y0312219D01*
X0244340Y0312348D01*
X0244567Y0312482D01*
X0244791Y0312622D01*
X0245010Y0312768D01*
X0245227Y0312919D01*
X0245439Y0313075D01*
X0245648Y0313236D01*
X0245853Y0313402D01*
X0246053Y0313573D01*
X0246250Y0313749D01*
X0246442Y0313930D01*
X0246629Y0314115D01*
X0246812Y0314305D01*
X0246990Y0314500D01*
X0247164Y0314698D01*
X0247332Y0314901D01*
X0247496Y0315108D01*
X0247654Y0315319D01*
X0247807Y0315533D01*
X0247955Y0315752D01*
X0248098Y0315974D01*
X0248235Y0316199D01*
X0248366Y0316428D01*
X0248492Y0316659D01*
X0248612Y0316894D01*
X0248727Y0317132D01*
X0248835Y0317372D01*
X0248938Y0317615D01*
X0249035Y0317860D01*
X0249125Y0318108D01*
X0249210Y0318357D01*
X0249288Y0318609D01*
X0249361Y0318863D01*
X0249427Y0319118D01*
X0249486Y0319375D01*
X0249540Y0319633D01*
X0249587Y0319893D01*
X0249628Y0320153D01*
X0249662Y0320415D01*
X0249690Y0320677D01*
X0249712Y0320940D01*
X0249727Y0321203D01*
X0249736Y0321466D01*
X0249738Y0321730D01*
X0249734Y0321994D01*
X0249723Y0322257D01*
X0249706Y0322520D01*
X0249683Y0322783D01*
X0249653Y0323045D01*
X0249616Y0323306D01*
X0249574Y0323566D01*
X0249525Y0323826D01*
X0249469Y0324083D01*
X0249408Y0324340D01*
X0249340Y0324595D01*
X0249266Y0324848D01*
X0249185Y0325099D01*
X0249099Y0325348D01*
X0249007Y0325595D01*
X0248908Y0325840D01*
X0248804Y0326082D01*
X0248693Y0326321D01*
X0248577Y0326558D01*
X0248455Y0326792D01*
X0248328Y0327023D01*
X0248195Y0327250D01*
X0248056Y0327475D01*
X0247912Y0327695D01*
X0247763Y0327913D01*
X0247608Y0328126D01*
X0247448Y0328336D01*
X0247389Y0328289D01*
X0247548Y0328081D01*
X0247701Y0327869D01*
X0247850Y0327653D01*
X0247993Y0327434D01*
X0248131Y0327211D01*
X0248263Y0326985D01*
X0248390Y0326756D01*
X0248511Y0326524D01*
X0248626Y0326289D01*
X0248735Y0326051D01*
X0248839Y0325811D01*
X0248937Y0325568D01*
X0249029Y0325322D01*
X0249114Y0325075D01*
X0249194Y0324826D01*
X0249268Y0324574D01*
X0249335Y0324321D01*
X0249396Y0324067D01*
X0249451Y0323811D01*
X0249500Y0323553D01*
X0249542Y0323295D01*
X0249578Y0323036D01*
X0249608Y0322775D01*
X0249631Y0322515D01*
X0249648Y0322253D01*
X0249659Y0321992D01*
X0249663Y0321730D01*
X0249661Y0321468D01*
X0249652Y0321206D01*
X0249637Y0320945D01*
X0249616Y0320684D01*
X0249588Y0320423D01*
X0249554Y0320164D01*
X0249513Y0319905D01*
X0249466Y0319647D01*
X0249413Y0319391D01*
X0249354Y0319136D01*
X0249288Y0318883D01*
X0249216Y0318631D01*
X0249139Y0318381D01*
X0249055Y0318133D01*
X0248965Y0317887D01*
X0248869Y0317643D01*
X0248767Y0317402D01*
X0248659Y0317163D01*
X0248545Y0316927D01*
X0248426Y0316694D01*
X0248301Y0316464D01*
X0248170Y0316237D01*
X0248034Y0316013D01*
X0247893Y0315793D01*
X0247746Y0315576D01*
X0247594Y0315363D01*
X0247437Y0315154D01*
X0247274Y0314948D01*
X0247107Y0314747D01*
X0246935Y0314550D01*
X0246758Y0314357D01*
X0246576Y0314168D01*
X0246390Y0313984D01*
X0246199Y0313804D01*
X0246004Y0313630D01*
X0245805Y0313460D01*
X0245602Y0313295D01*
X0245394Y0313135D01*
X0245183Y0312980D01*
X0244969Y0312830D01*
X0244750Y0312686D01*
X0244528Y0312547D01*
X0244303Y0312413D01*
X0244075Y0312285D01*
X0243843Y0312163D01*
X0243609Y0312046D01*
X0243371Y0311935D01*
X0243132Y0311830D01*
X0242889Y0311731D01*
X0242645Y0311637D01*
X0242398Y0311550D01*
X0242149Y0311469D01*
X0242127Y0311541D01*
X0242374Y0311621D01*
X0242619Y0311708D01*
X0242862Y0311800D01*
X0243103Y0311899D01*
X0243341Y0312003D01*
X0243576Y0312113D01*
X0243809Y0312229D01*
X0244039Y0312351D01*
X0244266Y0312478D01*
X0244489Y0312611D01*
X0244710Y0312749D01*
X0244927Y0312892D01*
X0245140Y0313041D01*
X0245349Y0313195D01*
X0245555Y0313354D01*
X0245757Y0313517D01*
X0245955Y0313686D01*
X0246149Y0313860D01*
X0246338Y0314038D01*
X0246523Y0314221D01*
X0246703Y0314408D01*
X0246879Y0314600D01*
X0247050Y0314796D01*
X0247216Y0314996D01*
X0247377Y0315200D01*
X0247533Y0315408D01*
X0247684Y0315619D01*
X0247830Y0315835D01*
X0247971Y0316053D01*
X0248106Y0316275D01*
X0248236Y0316501D01*
X0248360Y0316729D01*
X0248478Y0316961D01*
X0248591Y0317195D01*
X0248698Y0317432D01*
X0248799Y0317672D01*
X0248894Y0317913D01*
X0248984Y0318158D01*
X0249067Y0318404D01*
X0249145Y0318652D01*
X0249216Y0318902D01*
X0249281Y0319154D01*
X0249340Y0319407D01*
X0249393Y0319662D01*
X0249439Y0319918D01*
X0249479Y0320174D01*
X0249513Y0320432D01*
X0249541Y0320691D01*
X0249562Y0320950D01*
X0249577Y0321210D01*
X0249586Y0321469D01*
X0249588Y0321729D01*
X0249584Y0321989D01*
X0249573Y0322249D01*
X0249557Y0322509D01*
X0249533Y0322768D01*
X0249504Y0323026D01*
X0249468Y0323284D01*
X0249426Y0323540D01*
X0249378Y0323796D01*
X0249323Y0324050D01*
X0249262Y0324303D01*
X0249195Y0324554D01*
X0249122Y0324803D01*
X0249043Y0325051D01*
X0248958Y0325297D01*
X0248867Y0325540D01*
X0248770Y0325782D01*
X0248667Y0326020D01*
X0248558Y0326256D01*
X0248444Y0326490D01*
X0248324Y0326721D01*
X0248198Y0326948D01*
X0248066Y0327173D01*
X0247930Y0327394D01*
X0247788Y0327611D01*
X0247640Y0327826D01*
X0247488Y0328036D01*
X0247330Y0328243D01*
X0247271Y0328197D01*
X0247428Y0327991D01*
X0247579Y0327782D01*
X0247726Y0327569D01*
X0247867Y0327353D01*
X0248002Y0327134D01*
X0248133Y0326911D01*
X0248258Y0326685D01*
X0248377Y0326456D01*
X0248491Y0326224D01*
X0248599Y0325990D01*
X0248701Y0325753D01*
X0248797Y0325513D01*
X0248888Y0325271D01*
X0248972Y0325027D01*
X0249051Y0324781D01*
X0249123Y0324534D01*
X0249190Y0324284D01*
X0249250Y0324033D01*
X0249304Y0323781D01*
X0249352Y0323527D01*
X0249394Y0323272D01*
X0249429Y0323016D01*
X0249459Y0322760D01*
X0249482Y0322503D01*
X0249498Y0322245D01*
X0249509Y0321987D01*
X0249513Y0321729D01*
X0249511Y0321471D01*
X0249502Y0321213D01*
X0249487Y0320955D01*
X0249466Y0320698D01*
X0249439Y0320441D01*
X0249405Y0320185D01*
X0249365Y0319930D01*
X0249319Y0319676D01*
X0249267Y0319423D01*
X0249208Y0319172D01*
X0249143Y0318922D01*
X0249073Y0318674D01*
X0248996Y0318427D01*
X0248913Y0318183D01*
X0248824Y0317940D01*
X0248730Y0317700D01*
X0248629Y0317462D01*
X0248523Y0317227D01*
X0248411Y0316994D01*
X0248293Y0316764D01*
X0248170Y0316537D01*
X0248041Y0316314D01*
X0247907Y0316093D01*
X0247768Y0315876D01*
X0247623Y0315662D01*
X0247473Y0315452D01*
X0247318Y0315246D01*
X0247158Y0315043D01*
X0246993Y0314844D01*
X0246823Y0314650D01*
X0246649Y0314460D01*
X0246469Y0314274D01*
X0246286Y0314092D01*
X0246098Y0313915D01*
X0245906Y0313743D01*
X0245709Y0313575D01*
X0245509Y0313412D01*
X0245305Y0313255D01*
X0245096Y0313102D01*
X0244885Y0312954D01*
X0244669Y0312812D01*
X0244450Y0312675D01*
X0244228Y0312543D01*
X0244003Y0312417D01*
X0243775Y0312296D01*
X0243544Y0312181D01*
X0243310Y0312072D01*
X0243074Y0311968D01*
X0242835Y0311870D01*
X0242593Y0311778D01*
X0242350Y0311692D01*
X0242105Y0311612D01*
X0242082Y0311684D01*
X0242326Y0311763D01*
X0242568Y0311849D01*
X0242807Y0311940D01*
X0243045Y0312037D01*
X0243279Y0312140D01*
X0243511Y0312249D01*
X0243741Y0312363D01*
X0243968Y0312483D01*
X0244191Y0312608D01*
X0244412Y0312739D01*
X0244629Y0312875D01*
X0244843Y0313016D01*
X0245053Y0313163D01*
X0245260Y0313315D01*
X0245462Y0313471D01*
X0245661Y0313633D01*
X0245856Y0313799D01*
X0246047Y0313970D01*
X0246234Y0314146D01*
X0246416Y0314326D01*
X0246594Y0314511D01*
X0246767Y0314700D01*
X0246936Y0314893D01*
X0247100Y0315090D01*
X0247258Y0315291D01*
X0247412Y0315496D01*
X0247561Y0315705D01*
X0247705Y0315917D01*
X0247844Y0316133D01*
X0247977Y0316352D01*
X0248105Y0316574D01*
X0248227Y0316799D01*
X0248344Y0317028D01*
X0248455Y0317259D01*
X0248561Y0317492D01*
X0248660Y0317728D01*
X0248754Y0317967D01*
X0248842Y0318207D01*
X0248925Y0318450D01*
X0249001Y0318695D01*
X0249071Y0318941D01*
X0249135Y0319190D01*
X0249193Y0319439D01*
X0249245Y0319690D01*
X0249291Y0319943D01*
X0249331Y0320196D01*
X0249364Y0320450D01*
X0249392Y0320705D01*
X0249413Y0320960D01*
X0249427Y0321216D01*
X0249436Y0321472D01*
X0249438Y0321729D01*
X0249434Y0321985D01*
X0249424Y0322241D01*
X0249407Y0322497D01*
X0249384Y0322752D01*
X0249355Y0323007D01*
X0249320Y0323261D01*
X0249278Y0323514D01*
X0249231Y0323766D01*
X0249177Y0324016D01*
X0249117Y0324266D01*
X0249051Y0324513D01*
X0248979Y0324759D01*
X0248901Y0325003D01*
X0248817Y0325246D01*
X0248727Y0325486D01*
X0248632Y0325723D01*
X0248530Y0325959D01*
X0248423Y0326192D01*
X0248310Y0326422D01*
X0248192Y0326649D01*
X0248068Y0326874D01*
X0247938Y0327095D01*
X0247803Y0327313D01*
X0247663Y0327528D01*
X0247518Y0327739D01*
X0247368Y0327946D01*
X0247212Y0328150D01*
X0247153Y0328104D01*
X0247308Y0327901D01*
X0247457Y0327695D01*
X0247601Y0327486D01*
X0247740Y0327272D01*
X0247874Y0327056D01*
X0248003Y0326836D01*
X0248126Y0326614D01*
X0248243Y0326388D01*
X0248355Y0326159D01*
X0248462Y0325928D01*
X0248562Y0325694D01*
X0248657Y0325458D01*
X0248747Y0325220D01*
X0248830Y0324980D01*
X0248907Y0324737D01*
X0248979Y0324493D01*
X0249044Y0324247D01*
X0249104Y0323999D01*
X0249157Y0323751D01*
X0249205Y0323501D01*
X0249246Y0323249D01*
X0249281Y0322997D01*
X0249310Y0322745D01*
X0249332Y0322491D01*
X0249349Y0322237D01*
X0249359Y0321983D01*
X0249363Y0321728D01*
X0249361Y0321474D01*
X0249352Y0321220D01*
X0249338Y0320965D01*
X0249317Y0320712D01*
X0249290Y0320459D01*
X0249257Y0320206D01*
X0249217Y0319955D01*
X0249172Y0319705D01*
X0249120Y0319455D01*
X0249062Y0319208D01*
X0248999Y0318961D01*
X0248929Y0318716D01*
X0248853Y0318473D01*
X0248772Y0318232D01*
X0248684Y0317993D01*
X0248591Y0317757D01*
X0248492Y0317522D01*
X0248387Y0317290D01*
X0248277Y0317061D01*
X0248161Y0316834D01*
X0248039Y0316611D01*
X0247912Y0316390D01*
X0247780Y0316173D01*
X0247643Y0315959D01*
X0247500Y0315748D01*
X0247352Y0315541D01*
X0247199Y0315337D01*
X0247041Y0315138D01*
X0246879Y0314942D01*
X0246711Y0314750D01*
X0246539Y0314563D01*
X0246363Y0314379D01*
X0246182Y0314200D01*
X0245997Y0314026D01*
X0245807Y0313856D01*
X0245614Y0313691D01*
X0245416Y0313530D01*
X0245215Y0313375D01*
X0245009Y0313224D01*
X0244801Y0313079D01*
X0244588Y0312938D01*
X0244373Y0312803D01*
X0244154Y0312673D01*
X0243932Y0312549D01*
X0243707Y0312430D01*
X0243479Y0312316D01*
X0243249Y0312209D01*
X0243015Y0312106D01*
X0242780Y0312010D01*
X0242542Y0311919D01*
X0242302Y0311834D01*
X0242060Y0311756D01*
X0242038Y0311827D01*
X0242278Y0311906D01*
X0242517Y0311990D01*
X0242753Y0312080D01*
X0242986Y0312176D01*
X0243218Y0312277D01*
X0243447Y0312384D01*
X0243673Y0312497D01*
X0243896Y0312615D01*
X0244117Y0312738D01*
X0244334Y0312867D01*
X0244548Y0313001D01*
X0244759Y0313141D01*
X0244966Y0313285D01*
X0245170Y0313435D01*
X0245370Y0313589D01*
X0245566Y0313748D01*
X0245758Y0313912D01*
X0245946Y0314081D01*
X0246130Y0314254D01*
X0246310Y0314432D01*
X0246485Y0314614D01*
X0246656Y0314800D01*
X0246822Y0314991D01*
X0246983Y0315185D01*
X0247140Y0315383D01*
X0247292Y0315585D01*
X0247438Y0315791D01*
X0247580Y0316000D01*
X0247717Y0316213D01*
X0247848Y0316428D01*
X0247974Y0316647D01*
X0248094Y0316869D01*
X0248210Y0317094D01*
X0248319Y0317322D01*
X0248423Y0317552D01*
X0248521Y0317785D01*
X0248614Y0318020D01*
X0248701Y0318257D01*
X0248782Y0318497D01*
X0248857Y0318738D01*
X0248926Y0318981D01*
X0248990Y0319225D01*
X0249047Y0319471D01*
X0249098Y0319719D01*
X0249143Y0319967D01*
X0249182Y0320217D01*
X0249215Y0320468D01*
X0249242Y0320719D01*
X0249263Y0320971D01*
X0249277Y0321223D01*
X0249286Y0321475D01*
X0249288Y0321728D01*
X0249284Y0321981D01*
X0249274Y0322233D01*
X0249257Y0322485D01*
X0249235Y0322737D01*
X0249206Y0322988D01*
X0249172Y0323238D01*
X0249131Y0323487D01*
X0249084Y0323736D01*
X0249031Y0323983D01*
X0248972Y0324228D01*
X0248907Y0324473D01*
X0248836Y0324715D01*
X0248759Y0324956D01*
X0248676Y0325194D01*
X0248588Y0325431D01*
X0248493Y0325665D01*
X0248393Y0325897D01*
X0248288Y0326127D01*
X0248176Y0326354D01*
X0248060Y0326578D01*
X0247937Y0326799D01*
X0247810Y0327017D01*
X0247677Y0327232D01*
X0247539Y0327444D01*
X0247396Y0327652D01*
X0247248Y0327856D01*
X0247094Y0328057D01*
X0247036Y0328011D01*
X0247188Y0327811D01*
X0247335Y0327608D01*
X0247477Y0327402D01*
X0247614Y0327192D01*
X0247746Y0326978D01*
X0247872Y0326762D01*
X0247994Y0326542D01*
X0248110Y0326320D01*
X0248220Y0326095D01*
X0248325Y0325867D01*
X0248424Y0325636D01*
X0248518Y0325404D01*
X0248606Y0325169D01*
X0248688Y0324932D01*
X0248764Y0324693D01*
X0248834Y0324452D01*
X0248899Y0324210D01*
X0248958Y0323966D01*
X0249010Y0323721D01*
X0249057Y0323474D01*
X0249097Y0323227D01*
X0249132Y0322978D01*
X0249160Y0322729D01*
X0249183Y0322479D01*
X0249199Y0322229D01*
X0249209Y0321978D01*
X0249213Y0321728D01*
X0249211Y0321477D01*
X0249202Y0321226D01*
X0249188Y0320976D01*
X0249167Y0320726D01*
X0249141Y0320476D01*
X0249108Y0320228D01*
X0249069Y0319980D01*
X0249024Y0319733D01*
X0248974Y0319488D01*
X0248917Y0319243D01*
X0248854Y0319000D01*
X0248785Y0318759D01*
X0248711Y0318520D01*
X0248630Y0318282D01*
X0248544Y0318047D01*
X0248452Y0317813D01*
X0248354Y0317582D01*
X0248251Y0317354D01*
X0248142Y0317128D01*
X0248028Y0316904D01*
X0247908Y0316684D01*
X0247783Y0316467D01*
X0247653Y0316252D01*
X0247517Y0316041D01*
X0247377Y0315834D01*
X0247231Y0315630D01*
X0247080Y0315429D01*
X0246925Y0315232D01*
X0246765Y0315039D01*
X0246600Y0314850D01*
X0246430Y0314665D01*
X0246256Y0314485D01*
X0246078Y0314308D01*
X0245895Y0314136D01*
X0245709Y0313969D01*
X0245518Y0313806D01*
X0245323Y0313648D01*
X0245125Y0313495D01*
X0244922Y0313346D01*
X0244717Y0313203D01*
X0244508Y0313065D01*
X0244295Y0312931D01*
X0244079Y0312803D01*
X0243861Y0312681D01*
X0243639Y0312564D01*
X0243414Y0312452D01*
X0243187Y0312345D01*
X0242957Y0312245D01*
X0242725Y0312150D01*
X0242491Y0312060D01*
X0242254Y0311977D01*
X0242016Y0311899D01*
X0241994Y0311971D01*
X0242231Y0312048D01*
X0242465Y0312131D01*
X0242698Y0312220D01*
X0242928Y0312314D01*
X0243156Y0312414D01*
X0243382Y0312519D01*
X0243605Y0312630D01*
X0243825Y0312747D01*
X0244042Y0312869D01*
X0244256Y0312996D01*
X0244467Y0313128D01*
X0244675Y0313265D01*
X0244879Y0313407D01*
X0245080Y0313555D01*
X0245277Y0313707D01*
X0245470Y0313864D01*
X0245659Y0314026D01*
X0245845Y0314192D01*
X0246026Y0314362D01*
X0246203Y0314538D01*
X0246376Y0314717D01*
X0246544Y0314900D01*
X0246708Y0315088D01*
X0246867Y0315280D01*
X0247021Y0315475D01*
X0247171Y0315674D01*
X0247315Y0315877D01*
X0247455Y0316083D01*
X0247589Y0316292D01*
X0247719Y0316505D01*
X0247843Y0316721D01*
X0247962Y0316940D01*
X0248075Y0317161D01*
X0248183Y0317385D01*
X0248286Y0317612D01*
X0248383Y0317842D01*
X0248474Y0318073D01*
X0248559Y0318307D01*
X0248639Y0318543D01*
X0248713Y0318781D01*
X0248782Y0319020D01*
X0248844Y0319261D01*
X0248900Y0319504D01*
X0248951Y0319747D01*
X0248995Y0319992D01*
X0249034Y0320238D01*
X0249066Y0320485D01*
X0249093Y0320733D01*
X0249113Y0320981D01*
X0249128Y0321229D01*
X0249136Y0321478D01*
X0249138Y0321727D01*
X0249134Y0321976D01*
X0249124Y0322225D01*
X0249108Y0322473D01*
X0249086Y0322721D01*
X0249058Y0322969D01*
X0249023Y0323215D01*
X0248983Y0323461D01*
X0248937Y0323706D01*
X0248885Y0323949D01*
X0248826Y0324191D01*
X0248762Y0324432D01*
X0248692Y0324671D01*
X0248617Y0324908D01*
X0248535Y0325143D01*
X0248448Y0325376D01*
X0248355Y0325607D01*
X0248256Y0325836D01*
X0248152Y0326062D01*
X0248043Y0326286D01*
X0247928Y0326506D01*
X0247807Y0326724D01*
X0247682Y0326939D01*
X0247551Y0327151D01*
X0247415Y0327360D01*
X0247274Y0327565D01*
X0247128Y0327766D01*
X0246977Y0327964D01*
X0276081Y0328760D02*
X0276646Y0328314D01*
X0276646Y0328315D02*
X0276496Y0328118D01*
X0276350Y0327917D01*
X0276210Y0327713D01*
X0276074Y0327505D01*
X0275944Y0327294D01*
X0275819Y0327080D01*
X0275699Y0326863D01*
X0275584Y0326643D01*
X0275475Y0326421D01*
X0275372Y0326196D01*
X0275274Y0325968D01*
X0275181Y0325738D01*
X0275094Y0325506D01*
X0275013Y0325272D01*
X0274938Y0325036D01*
X0274868Y0324798D01*
X0274804Y0324558D01*
X0274746Y0324317D01*
X0274694Y0324075D01*
X0274648Y0323831D01*
X0274608Y0323587D01*
X0274574Y0323341D01*
X0274546Y0323095D01*
X0274524Y0322848D01*
X0274508Y0322601D01*
X0274498Y0322353D01*
X0274494Y0322105D01*
X0274496Y0321857D01*
X0274504Y0321610D01*
X0274519Y0321362D01*
X0274539Y0321115D01*
X0274565Y0320869D01*
X0274598Y0320623D01*
X0274636Y0320378D01*
X0274680Y0320134D01*
X0274731Y0319891D01*
X0274787Y0319650D01*
X0274849Y0319410D01*
X0274917Y0319172D01*
X0274990Y0318935D01*
X0275070Y0318700D01*
X0275155Y0318467D01*
X0275246Y0318237D01*
X0275342Y0318009D01*
X0275445Y0317783D01*
X0275552Y0317559D01*
X0275665Y0317339D01*
X0275783Y0317121D01*
X0275907Y0316906D01*
X0276036Y0316694D01*
X0276170Y0316486D01*
X0276309Y0316280D01*
X0276453Y0316079D01*
X0276601Y0315881D01*
X0276755Y0315686D01*
X0276913Y0315495D01*
X0277076Y0315309D01*
X0277244Y0315126D01*
X0277416Y0314947D01*
X0277592Y0314773D01*
X0277773Y0314603D01*
X0277957Y0314438D01*
X0278146Y0314277D01*
X0278338Y0314120D01*
X0278534Y0313969D01*
X0278734Y0313822D01*
X0278937Y0313680D01*
X0279144Y0313544D01*
X0279354Y0313412D01*
X0279567Y0313286D01*
X0279783Y0313164D01*
X0280003Y0313049D01*
X0280224Y0312938D01*
X0280449Y0312833D01*
X0280676Y0312733D01*
X0280905Y0312639D01*
X0281137Y0312551D01*
X0281371Y0312468D01*
X0281606Y0312392D01*
X0281394Y0311704D01*
X0281141Y0311786D01*
X0280891Y0311874D01*
X0280643Y0311969D01*
X0280397Y0312070D01*
X0280154Y0312176D01*
X0279913Y0312289D01*
X0279676Y0312407D01*
X0279441Y0312531D01*
X0279209Y0312661D01*
X0278981Y0312796D01*
X0278756Y0312937D01*
X0278534Y0313084D01*
X0278317Y0313236D01*
X0278103Y0313393D01*
X0277892Y0313555D01*
X0277686Y0313722D01*
X0277484Y0313895D01*
X0277286Y0314072D01*
X0277093Y0314254D01*
X0276904Y0314441D01*
X0276720Y0314632D01*
X0276541Y0314828D01*
X0276366Y0315028D01*
X0276196Y0315232D01*
X0276032Y0315440D01*
X0275872Y0315653D01*
X0275718Y0315869D01*
X0275569Y0316089D01*
X0275426Y0316312D01*
X0275288Y0316539D01*
X0275155Y0316769D01*
X0275028Y0317002D01*
X0274907Y0317239D01*
X0274792Y0317478D01*
X0274683Y0317720D01*
X0274579Y0317965D01*
X0274482Y0318212D01*
X0274391Y0318461D01*
X0274306Y0318712D01*
X0274227Y0318966D01*
X0274154Y0319221D01*
X0274088Y0319478D01*
X0274027Y0319737D01*
X0273973Y0319997D01*
X0273926Y0320258D01*
X0273885Y0320521D01*
X0273850Y0320784D01*
X0273822Y0321048D01*
X0273800Y0321313D01*
X0273785Y0321578D01*
X0273776Y0321843D01*
X0273774Y0322109D01*
X0273778Y0322374D01*
X0273789Y0322640D01*
X0273806Y0322904D01*
X0273830Y0323169D01*
X0273860Y0323433D01*
X0273897Y0323696D01*
X0273940Y0323958D01*
X0273989Y0324219D01*
X0274045Y0324478D01*
X0274107Y0324737D01*
X0274175Y0324993D01*
X0274250Y0325248D01*
X0274331Y0325501D01*
X0274418Y0325752D01*
X0274511Y0326000D01*
X0274610Y0326247D01*
X0274715Y0326491D01*
X0274826Y0326732D01*
X0274943Y0326970D01*
X0275066Y0327206D01*
X0275194Y0327438D01*
X0275328Y0327667D01*
X0275468Y0327893D01*
X0275613Y0328116D01*
X0275764Y0328334D01*
X0275919Y0328549D01*
X0276080Y0328760D01*
X0276139Y0328714D01*
X0275979Y0328504D01*
X0275825Y0328291D01*
X0275675Y0328074D01*
X0275531Y0327853D01*
X0275392Y0327628D01*
X0275259Y0327401D01*
X0275132Y0327170D01*
X0275010Y0326936D01*
X0274894Y0326699D01*
X0274783Y0326460D01*
X0274679Y0326218D01*
X0274580Y0325973D01*
X0274488Y0325726D01*
X0274402Y0325477D01*
X0274321Y0325226D01*
X0274247Y0324973D01*
X0274179Y0324718D01*
X0274118Y0324462D01*
X0274062Y0324204D01*
X0274013Y0323945D01*
X0273971Y0323684D01*
X0273934Y0323423D01*
X0273904Y0323161D01*
X0273881Y0322899D01*
X0273864Y0322635D01*
X0273853Y0322372D01*
X0273849Y0322108D01*
X0273851Y0321845D01*
X0273860Y0321581D01*
X0273875Y0321318D01*
X0273897Y0321055D01*
X0273925Y0320793D01*
X0273959Y0320531D01*
X0274000Y0320271D01*
X0274047Y0320011D01*
X0274101Y0319753D01*
X0274160Y0319496D01*
X0274226Y0319241D01*
X0274299Y0318987D01*
X0274377Y0318736D01*
X0274462Y0318486D01*
X0274552Y0318238D01*
X0274649Y0317993D01*
X0274752Y0317750D01*
X0274860Y0317510D01*
X0274975Y0317272D01*
X0275095Y0317037D01*
X0275221Y0316806D01*
X0275352Y0316577D01*
X0275489Y0316352D01*
X0275632Y0316130D01*
X0275779Y0315912D01*
X0275933Y0315697D01*
X0276091Y0315486D01*
X0276255Y0315279D01*
X0276423Y0315076D01*
X0276596Y0314878D01*
X0276775Y0314683D01*
X0276958Y0314493D01*
X0277145Y0314308D01*
X0277337Y0314127D01*
X0277533Y0313951D01*
X0277734Y0313780D01*
X0277939Y0313614D01*
X0278147Y0313453D01*
X0278360Y0313297D01*
X0278576Y0313146D01*
X0278796Y0313000D01*
X0279020Y0312860D01*
X0279247Y0312726D01*
X0279477Y0312597D01*
X0279710Y0312474D01*
X0279946Y0312356D01*
X0280185Y0312245D01*
X0280426Y0312139D01*
X0280670Y0312039D01*
X0280917Y0311945D01*
X0281165Y0311857D01*
X0281416Y0311775D01*
X0281438Y0311847D01*
X0281189Y0311928D01*
X0280942Y0312015D01*
X0280698Y0312109D01*
X0280455Y0312208D01*
X0280215Y0312313D01*
X0279978Y0312424D01*
X0279744Y0312541D01*
X0279512Y0312663D01*
X0279284Y0312791D01*
X0279059Y0312925D01*
X0278837Y0313064D01*
X0278618Y0313208D01*
X0278404Y0313358D01*
X0278192Y0313513D01*
X0277985Y0313673D01*
X0277782Y0313838D01*
X0277583Y0314008D01*
X0277388Y0314183D01*
X0277197Y0314362D01*
X0277011Y0314546D01*
X0276829Y0314735D01*
X0276652Y0314928D01*
X0276480Y0315125D01*
X0276313Y0315327D01*
X0276150Y0315532D01*
X0275993Y0315741D01*
X0275841Y0315954D01*
X0275694Y0316171D01*
X0275553Y0316392D01*
X0275417Y0316615D01*
X0275286Y0316842D01*
X0275161Y0317072D01*
X0275042Y0317305D01*
X0274928Y0317541D01*
X0274820Y0317780D01*
X0274718Y0318021D01*
X0274622Y0318265D01*
X0274532Y0318511D01*
X0274448Y0318759D01*
X0274370Y0319009D01*
X0274299Y0319261D01*
X0274233Y0319514D01*
X0274174Y0319769D01*
X0274121Y0320026D01*
X0274074Y0320283D01*
X0274033Y0320542D01*
X0273999Y0320802D01*
X0273971Y0321062D01*
X0273950Y0321323D01*
X0273935Y0321584D01*
X0273926Y0321846D01*
X0273924Y0322108D01*
X0273928Y0322370D01*
X0273939Y0322631D01*
X0273956Y0322893D01*
X0273979Y0323154D01*
X0274009Y0323414D01*
X0274045Y0323673D01*
X0274087Y0323931D01*
X0274136Y0324189D01*
X0274191Y0324445D01*
X0274252Y0324699D01*
X0274319Y0324952D01*
X0274393Y0325204D01*
X0274473Y0325453D01*
X0274559Y0325701D01*
X0274650Y0325946D01*
X0274748Y0326189D01*
X0274852Y0326429D01*
X0274961Y0326667D01*
X0275077Y0326902D01*
X0275198Y0327134D01*
X0275324Y0327364D01*
X0275456Y0327590D01*
X0275594Y0327812D01*
X0275737Y0328032D01*
X0275886Y0328247D01*
X0276039Y0328459D01*
X0276198Y0328668D01*
X0276257Y0328621D01*
X0276099Y0328414D01*
X0275947Y0328204D01*
X0275799Y0327990D01*
X0275657Y0327772D01*
X0275521Y0327551D01*
X0275389Y0327326D01*
X0275264Y0327099D01*
X0275143Y0326868D01*
X0275029Y0326635D01*
X0274920Y0326398D01*
X0274817Y0326160D01*
X0274720Y0325919D01*
X0274629Y0325675D01*
X0274544Y0325429D01*
X0274465Y0325182D01*
X0274392Y0324932D01*
X0274325Y0324681D01*
X0274264Y0324428D01*
X0274209Y0324174D01*
X0274161Y0323918D01*
X0274119Y0323662D01*
X0274083Y0323404D01*
X0274054Y0323146D01*
X0274030Y0322887D01*
X0274014Y0322627D01*
X0274003Y0322368D01*
X0273999Y0322108D01*
X0274001Y0321848D01*
X0274010Y0321588D01*
X0274025Y0321328D01*
X0274046Y0321069D01*
X0274074Y0320810D01*
X0274108Y0320553D01*
X0274148Y0320296D01*
X0274194Y0320040D01*
X0274247Y0319785D01*
X0274306Y0319532D01*
X0274371Y0319280D01*
X0274442Y0319030D01*
X0274520Y0318782D01*
X0274603Y0318536D01*
X0274692Y0318292D01*
X0274788Y0318050D01*
X0274889Y0317810D01*
X0274996Y0317573D01*
X0275109Y0317339D01*
X0275227Y0317107D01*
X0275351Y0316879D01*
X0275481Y0316654D01*
X0275616Y0316431D01*
X0275757Y0316213D01*
X0275903Y0315997D01*
X0276054Y0315786D01*
X0276210Y0315578D01*
X0276371Y0315374D01*
X0276537Y0315174D01*
X0276708Y0314978D01*
X0276884Y0314786D01*
X0277064Y0314599D01*
X0277249Y0314416D01*
X0277438Y0314238D01*
X0277632Y0314064D01*
X0277830Y0313896D01*
X0278032Y0313732D01*
X0278237Y0313573D01*
X0278447Y0313419D01*
X0278660Y0313270D01*
X0278877Y0313127D01*
X0279098Y0312989D01*
X0279321Y0312856D01*
X0279548Y0312729D01*
X0279778Y0312607D01*
X0280011Y0312492D01*
X0280246Y0312381D01*
X0280484Y0312277D01*
X0280725Y0312178D01*
X0280968Y0312086D01*
X0281213Y0311999D01*
X0281460Y0311919D01*
X0281482Y0311990D01*
X0281237Y0312070D01*
X0280994Y0312156D01*
X0280752Y0312248D01*
X0280513Y0312346D01*
X0280277Y0312450D01*
X0280043Y0312559D01*
X0279812Y0312674D01*
X0279584Y0312795D01*
X0279358Y0312921D01*
X0279136Y0313053D01*
X0278918Y0313190D01*
X0278702Y0313332D01*
X0278491Y0313480D01*
X0278282Y0313633D01*
X0278078Y0313791D01*
X0277878Y0313953D01*
X0277681Y0314121D01*
X0277489Y0314293D01*
X0277301Y0314470D01*
X0277117Y0314652D01*
X0276938Y0314838D01*
X0276764Y0315028D01*
X0276594Y0315223D01*
X0276429Y0315421D01*
X0276269Y0315624D01*
X0276114Y0315830D01*
X0275964Y0316040D01*
X0275819Y0316254D01*
X0275680Y0316471D01*
X0275546Y0316692D01*
X0275417Y0316916D01*
X0275294Y0317142D01*
X0275176Y0317372D01*
X0275064Y0317605D01*
X0274958Y0317840D01*
X0274857Y0318078D01*
X0274763Y0318318D01*
X0274674Y0318561D01*
X0274591Y0318805D01*
X0274514Y0319052D01*
X0274444Y0319300D01*
X0274379Y0319550D01*
X0274320Y0319801D01*
X0274268Y0320054D01*
X0274222Y0320308D01*
X0274182Y0320563D01*
X0274148Y0320819D01*
X0274121Y0321076D01*
X0274100Y0321333D01*
X0274085Y0321591D01*
X0274076Y0321849D01*
X0274074Y0322107D01*
X0274078Y0322365D01*
X0274089Y0322623D01*
X0274105Y0322881D01*
X0274128Y0323138D01*
X0274158Y0323395D01*
X0274193Y0323650D01*
X0274235Y0323905D01*
X0274283Y0324159D01*
X0274337Y0324411D01*
X0274397Y0324662D01*
X0274464Y0324912D01*
X0274536Y0325160D01*
X0274615Y0325405D01*
X0274699Y0325649D01*
X0274790Y0325891D01*
X0274886Y0326131D01*
X0274989Y0326368D01*
X0275097Y0326602D01*
X0275210Y0326834D01*
X0275330Y0327063D01*
X0275454Y0327289D01*
X0275585Y0327512D01*
X0275721Y0327731D01*
X0275862Y0327948D01*
X0276008Y0328160D01*
X0276159Y0328369D01*
X0276316Y0328575D01*
X0276375Y0328528D01*
X0276219Y0328324D01*
X0276069Y0328117D01*
X0275924Y0327906D01*
X0275784Y0327691D01*
X0275649Y0327473D01*
X0275519Y0327252D01*
X0275396Y0327027D01*
X0275277Y0326800D01*
X0275164Y0326570D01*
X0275057Y0326337D01*
X0274956Y0326102D01*
X0274860Y0325864D01*
X0274770Y0325624D01*
X0274686Y0325382D01*
X0274608Y0325137D01*
X0274536Y0324891D01*
X0274470Y0324644D01*
X0274410Y0324394D01*
X0274356Y0324144D01*
X0274309Y0323892D01*
X0274267Y0323639D01*
X0274232Y0323385D01*
X0274203Y0323130D01*
X0274180Y0322875D01*
X0274163Y0322619D01*
X0274153Y0322363D01*
X0274149Y0322107D01*
X0274151Y0321851D01*
X0274160Y0321594D01*
X0274174Y0321338D01*
X0274195Y0321083D01*
X0274223Y0320828D01*
X0274256Y0320574D01*
X0274296Y0320321D01*
X0274342Y0320068D01*
X0274394Y0319817D01*
X0274452Y0319568D01*
X0274516Y0319320D01*
X0274586Y0319073D01*
X0274662Y0318828D01*
X0274745Y0318586D01*
X0274833Y0318345D01*
X0274927Y0318106D01*
X0275026Y0317870D01*
X0275132Y0317637D01*
X0275243Y0317406D01*
X0275360Y0317178D01*
X0275482Y0316952D01*
X0275610Y0316730D01*
X0275743Y0316511D01*
X0275882Y0316295D01*
X0276026Y0316083D01*
X0276174Y0315874D01*
X0276328Y0315670D01*
X0276487Y0315468D01*
X0276651Y0315271D01*
X0276820Y0315078D01*
X0276993Y0314889D01*
X0277171Y0314705D01*
X0277353Y0314524D01*
X0277540Y0314349D01*
X0277730Y0314177D01*
X0277925Y0314011D01*
X0278124Y0313849D01*
X0278327Y0313693D01*
X0278534Y0313541D01*
X0278744Y0313395D01*
X0278958Y0313253D01*
X0279175Y0313117D01*
X0279396Y0312986D01*
X0279619Y0312861D01*
X0279846Y0312741D01*
X0280075Y0312627D01*
X0280308Y0312518D01*
X0280542Y0312415D01*
X0280780Y0312318D01*
X0281019Y0312227D01*
X0281261Y0312141D01*
X0281505Y0312062D01*
X0281527Y0312134D01*
X0281285Y0312213D01*
X0281045Y0312297D01*
X0280807Y0312388D01*
X0280571Y0312484D01*
X0280338Y0312587D01*
X0280108Y0312694D01*
X0279880Y0312808D01*
X0279655Y0312927D01*
X0279433Y0313051D01*
X0279214Y0313181D01*
X0278999Y0313316D01*
X0278786Y0313457D01*
X0278577Y0313602D01*
X0278372Y0313753D01*
X0278171Y0313908D01*
X0277973Y0314069D01*
X0277780Y0314234D01*
X0277590Y0314404D01*
X0277405Y0314578D01*
X0277224Y0314757D01*
X0277048Y0314941D01*
X0276876Y0315128D01*
X0276708Y0315320D01*
X0276546Y0315516D01*
X0276388Y0315715D01*
X0276235Y0315919D01*
X0276087Y0316126D01*
X0275944Y0316337D01*
X0275807Y0316551D01*
X0275675Y0316768D01*
X0275548Y0316989D01*
X0275426Y0317213D01*
X0275310Y0317439D01*
X0275200Y0317668D01*
X0275095Y0317900D01*
X0274996Y0318135D01*
X0274903Y0318372D01*
X0274815Y0318611D01*
X0274734Y0318852D01*
X0274658Y0319095D01*
X0274588Y0319339D01*
X0274525Y0319586D01*
X0274467Y0319834D01*
X0274415Y0320083D01*
X0274370Y0320333D01*
X0274330Y0320585D01*
X0274297Y0320837D01*
X0274270Y0321090D01*
X0274249Y0321344D01*
X0274235Y0321598D01*
X0274226Y0321852D01*
X0274224Y0322107D01*
X0274228Y0322361D01*
X0274238Y0322615D01*
X0274255Y0322869D01*
X0274277Y0323123D01*
X0274306Y0323376D01*
X0274341Y0323628D01*
X0274383Y0323879D01*
X0274430Y0324129D01*
X0274483Y0324378D01*
X0274543Y0324625D01*
X0274608Y0324871D01*
X0274680Y0325115D01*
X0274757Y0325358D01*
X0274840Y0325598D01*
X0274930Y0325837D01*
X0275025Y0326073D01*
X0275125Y0326306D01*
X0275232Y0326537D01*
X0275344Y0326766D01*
X0275461Y0326992D01*
X0275585Y0327214D01*
X0275713Y0327434D01*
X0275847Y0327651D01*
X0275986Y0327864D01*
X0276130Y0328073D01*
X0276279Y0328279D01*
X0276434Y0328482D01*
X0276493Y0328435D01*
X0276340Y0328235D01*
X0276191Y0328030D01*
X0276048Y0327822D01*
X0275910Y0327610D01*
X0275777Y0327395D01*
X0275650Y0327177D01*
X0275527Y0326956D01*
X0275411Y0326732D01*
X0275299Y0326505D01*
X0275194Y0326276D01*
X0275094Y0326044D01*
X0275000Y0325809D01*
X0274911Y0325573D01*
X0274828Y0325334D01*
X0274751Y0325093D01*
X0274680Y0324851D01*
X0274615Y0324607D01*
X0274556Y0324361D01*
X0274503Y0324114D01*
X0274456Y0323866D01*
X0274415Y0323616D01*
X0274381Y0323366D01*
X0274352Y0323115D01*
X0274330Y0322863D01*
X0274313Y0322611D01*
X0274303Y0322359D01*
X0274299Y0322106D01*
X0274301Y0321854D01*
X0274310Y0321601D01*
X0274324Y0321349D01*
X0274345Y0321097D01*
X0274372Y0320846D01*
X0274405Y0320595D01*
X0274444Y0320346D01*
X0274489Y0320097D01*
X0274540Y0319850D01*
X0274597Y0319604D01*
X0274661Y0319359D01*
X0274730Y0319116D01*
X0274805Y0318875D01*
X0274886Y0318635D01*
X0274973Y0318398D01*
X0275065Y0318163D01*
X0275164Y0317930D01*
X0275268Y0317700D01*
X0275377Y0317472D01*
X0275493Y0317248D01*
X0275613Y0317026D01*
X0275739Y0316807D01*
X0275870Y0316591D01*
X0276007Y0316378D01*
X0276149Y0316169D01*
X0276295Y0315963D01*
X0276447Y0315761D01*
X0276604Y0315563D01*
X0276765Y0315369D01*
X0276931Y0315178D01*
X0277102Y0314992D01*
X0277277Y0314810D01*
X0277457Y0314632D01*
X0277641Y0314459D01*
X0277829Y0314291D01*
X0278021Y0314127D01*
X0278217Y0313967D01*
X0278417Y0313813D01*
X0278621Y0313663D01*
X0278828Y0313519D01*
X0279039Y0313379D01*
X0279253Y0313245D01*
X0279470Y0313116D01*
X0279691Y0312993D01*
X0279914Y0312875D01*
X0280140Y0312762D01*
X0280369Y0312655D01*
X0280600Y0312554D01*
X0280834Y0312458D01*
X0281070Y0312368D01*
X0281309Y0312284D01*
X0281549Y0312205D01*
X0281571Y0312277D01*
X0281332Y0312355D01*
X0281096Y0312438D01*
X0280862Y0312528D01*
X0280629Y0312623D01*
X0280400Y0312723D01*
X0280173Y0312830D01*
X0279948Y0312942D01*
X0279726Y0313059D01*
X0279508Y0313181D01*
X0279292Y0313309D01*
X0279079Y0313443D01*
X0278870Y0313581D01*
X0278664Y0313724D01*
X0278462Y0313873D01*
X0278264Y0314026D01*
X0278069Y0314184D01*
X0277878Y0314347D01*
X0277692Y0314515D01*
X0277509Y0314687D01*
X0277331Y0314863D01*
X0277157Y0315044D01*
X0276987Y0315228D01*
X0276822Y0315417D01*
X0276662Y0315610D01*
X0276506Y0315807D01*
X0276356Y0316008D01*
X0276210Y0316212D01*
X0276070Y0316419D01*
X0275934Y0316631D01*
X0275804Y0316845D01*
X0275679Y0317062D01*
X0275559Y0317283D01*
X0275445Y0317506D01*
X0275336Y0317732D01*
X0275233Y0317960D01*
X0275135Y0318191D01*
X0275043Y0318425D01*
X0274957Y0318660D01*
X0274876Y0318898D01*
X0274802Y0319137D01*
X0274733Y0319379D01*
X0274670Y0319621D01*
X0274613Y0319866D01*
X0274563Y0320111D01*
X0274518Y0320358D01*
X0274479Y0320606D01*
X0274446Y0320855D01*
X0274419Y0321104D01*
X0274399Y0321354D01*
X0274385Y0321604D01*
X0274376Y0321855D01*
X0274374Y0322106D01*
X0274378Y0322357D01*
X0274388Y0322607D01*
X0274404Y0322857D01*
X0274427Y0323107D01*
X0274455Y0323356D01*
X0274490Y0323605D01*
X0274530Y0323852D01*
X0274577Y0324099D01*
X0274629Y0324344D01*
X0274688Y0324588D01*
X0274753Y0324830D01*
X0274823Y0325071D01*
X0274899Y0325310D01*
X0274981Y0325547D01*
X0275069Y0325782D01*
X0275163Y0326015D01*
X0275262Y0326245D01*
X0275367Y0326473D01*
X0275478Y0326698D01*
X0275593Y0326920D01*
X0275715Y0327140D01*
X0275841Y0327356D01*
X0275973Y0327570D01*
X0276110Y0327780D01*
X0276252Y0327986D01*
X0276400Y0328190D01*
X0276552Y0328389D01*
X0276611Y0328343D01*
X0276460Y0328145D01*
X0276313Y0327943D01*
X0276172Y0327738D01*
X0276036Y0327529D01*
X0275905Y0327318D01*
X0275780Y0327103D01*
X0275659Y0326885D01*
X0275544Y0326664D01*
X0275435Y0326440D01*
X0275331Y0326214D01*
X0275232Y0325986D01*
X0275139Y0325755D01*
X0275052Y0325521D01*
X0274970Y0325286D01*
X0274895Y0325049D01*
X0274825Y0324810D01*
X0274761Y0324569D01*
X0274703Y0324327D01*
X0274650Y0324084D01*
X0274604Y0323839D01*
X0274564Y0323594D01*
X0274529Y0323347D01*
X0274501Y0323100D01*
X0274479Y0322852D01*
X0274463Y0322603D01*
X0274453Y0322354D01*
X0274449Y0322105D01*
X0274451Y0321856D01*
X0274459Y0321608D01*
X0274474Y0321359D01*
X0274494Y0321111D01*
X0274521Y0320863D01*
X0274553Y0320617D01*
X0274592Y0320371D01*
X0274636Y0320126D01*
X0274687Y0319882D01*
X0274743Y0319639D01*
X0274805Y0319398D01*
X0274874Y0319159D01*
X0274948Y0318921D01*
X0275028Y0318685D01*
X0275113Y0318451D01*
X0275204Y0318220D01*
X0275301Y0317991D01*
X0275404Y0317764D01*
X0275512Y0317539D01*
X0275625Y0317318D01*
X0275744Y0317099D01*
X0275868Y0316883D01*
X0275998Y0316670D01*
X0276132Y0316461D01*
X0276272Y0316255D01*
X0276416Y0316052D01*
X0276566Y0315853D01*
X0276720Y0315658D01*
X0276879Y0315466D01*
X0277043Y0315279D01*
X0277211Y0315095D01*
X0277384Y0314916D01*
X0277561Y0314741D01*
X0277742Y0314570D01*
X0277928Y0314404D01*
X0278117Y0314242D01*
X0278310Y0314085D01*
X0278507Y0313933D01*
X0278708Y0313786D01*
X0278912Y0313643D01*
X0279120Y0313506D01*
X0279331Y0313374D01*
X0279545Y0313247D01*
X0279762Y0313125D01*
X0279982Y0313008D01*
X0280205Y0312897D01*
X0280430Y0312792D01*
X0280659Y0312692D01*
X0280889Y0312598D01*
X0281122Y0312509D01*
X0281356Y0312426D01*
X0281593Y0312349D01*
X0287873Y0311704D02*
X0287661Y0312392D01*
X0287662Y0312392D02*
X0287897Y0312468D01*
X0288131Y0312551D01*
X0288363Y0312639D01*
X0288592Y0312733D01*
X0288819Y0312833D01*
X0289043Y0312938D01*
X0289265Y0313048D01*
X0289484Y0313164D01*
X0289701Y0313286D01*
X0289914Y0313412D01*
X0290124Y0313544D01*
X0290331Y0313680D01*
X0290534Y0313822D01*
X0290734Y0313969D01*
X0290930Y0314120D01*
X0291122Y0314277D01*
X0291311Y0314438D01*
X0291495Y0314603D01*
X0291676Y0314773D01*
X0291852Y0314947D01*
X0292024Y0315126D01*
X0292191Y0315308D01*
X0292354Y0315495D01*
X0292513Y0315686D01*
X0292666Y0315880D01*
X0292815Y0316079D01*
X0292959Y0316280D01*
X0293098Y0316486D01*
X0293232Y0316694D01*
X0293361Y0316906D01*
X0293485Y0317121D01*
X0293603Y0317339D01*
X0293716Y0317559D01*
X0293823Y0317783D01*
X0293925Y0318008D01*
X0294022Y0318237D01*
X0294113Y0318467D01*
X0294198Y0318700D01*
X0294277Y0318935D01*
X0294351Y0319172D01*
X0294419Y0319410D01*
X0294481Y0319650D01*
X0294537Y0319891D01*
X0294588Y0320134D01*
X0294632Y0320378D01*
X0294670Y0320623D01*
X0294703Y0320869D01*
X0294729Y0321115D01*
X0294749Y0321362D01*
X0294764Y0321609D01*
X0294772Y0321857D01*
X0294774Y0322105D01*
X0294770Y0322353D01*
X0294760Y0322601D01*
X0294744Y0322848D01*
X0294722Y0323095D01*
X0294694Y0323341D01*
X0294660Y0323587D01*
X0294620Y0323831D01*
X0294574Y0324075D01*
X0294522Y0324317D01*
X0294464Y0324558D01*
X0294400Y0324798D01*
X0294330Y0325035D01*
X0294255Y0325272D01*
X0294174Y0325506D01*
X0294087Y0325738D01*
X0293994Y0325968D01*
X0293896Y0326196D01*
X0293793Y0326421D01*
X0293684Y0326643D01*
X0293569Y0326863D01*
X0293449Y0327080D01*
X0293324Y0327294D01*
X0293194Y0327505D01*
X0293058Y0327712D01*
X0292918Y0327917D01*
X0292773Y0328117D01*
X0292622Y0328315D01*
X0293187Y0328760D01*
X0293188Y0328760D01*
X0293349Y0328549D01*
X0293505Y0328334D01*
X0293655Y0328115D01*
X0293800Y0327893D01*
X0293940Y0327667D01*
X0294074Y0327438D01*
X0294202Y0327206D01*
X0294325Y0326970D01*
X0294442Y0326732D01*
X0294553Y0326490D01*
X0294658Y0326247D01*
X0294757Y0326000D01*
X0294851Y0325752D01*
X0294938Y0325501D01*
X0295018Y0325248D01*
X0295093Y0324993D01*
X0295161Y0324736D01*
X0295223Y0324478D01*
X0295279Y0324219D01*
X0295329Y0323958D01*
X0295371Y0323696D01*
X0295408Y0323433D01*
X0295438Y0323169D01*
X0295462Y0322904D01*
X0295479Y0322639D01*
X0295490Y0322374D01*
X0295494Y0322109D01*
X0295492Y0321843D01*
X0295483Y0321578D01*
X0295468Y0321312D01*
X0295446Y0321048D01*
X0295418Y0320784D01*
X0295383Y0320521D01*
X0295342Y0320258D01*
X0295294Y0319997D01*
X0295241Y0319737D01*
X0295180Y0319478D01*
X0295114Y0319221D01*
X0295041Y0318966D01*
X0294962Y0318712D01*
X0294877Y0318461D01*
X0294786Y0318211D01*
X0294688Y0317964D01*
X0294585Y0317720D01*
X0294476Y0317478D01*
X0294361Y0317239D01*
X0294240Y0317002D01*
X0294113Y0316769D01*
X0293980Y0316539D01*
X0293842Y0316312D01*
X0293699Y0316088D01*
X0293550Y0315869D01*
X0293396Y0315652D01*
X0293236Y0315440D01*
X0293072Y0315232D01*
X0292902Y0315028D01*
X0292727Y0314828D01*
X0292548Y0314632D01*
X0292364Y0314441D01*
X0292175Y0314254D01*
X0291981Y0314072D01*
X0291784Y0313895D01*
X0291582Y0313722D01*
X0291376Y0313555D01*
X0291165Y0313393D01*
X0290951Y0313235D01*
X0290733Y0313084D01*
X0290512Y0312937D01*
X0290287Y0312796D01*
X0290059Y0312661D01*
X0289827Y0312531D01*
X0289592Y0312407D01*
X0289354Y0312289D01*
X0289114Y0312176D01*
X0288871Y0312069D01*
X0288625Y0311969D01*
X0288377Y0311874D01*
X0288126Y0311786D01*
X0287874Y0311704D01*
X0287852Y0311775D01*
X0288103Y0311857D01*
X0288351Y0311945D01*
X0288598Y0312039D01*
X0288842Y0312139D01*
X0289083Y0312244D01*
X0289322Y0312356D01*
X0289558Y0312474D01*
X0289791Y0312597D01*
X0290021Y0312726D01*
X0290248Y0312860D01*
X0290472Y0313000D01*
X0290691Y0313146D01*
X0290908Y0313297D01*
X0291120Y0313453D01*
X0291329Y0313614D01*
X0291534Y0313780D01*
X0291734Y0313951D01*
X0291931Y0314127D01*
X0292123Y0314308D01*
X0292310Y0314493D01*
X0292493Y0314683D01*
X0292671Y0314878D01*
X0292845Y0315076D01*
X0293013Y0315279D01*
X0293177Y0315486D01*
X0293335Y0315697D01*
X0293488Y0315911D01*
X0293636Y0316130D01*
X0293779Y0316352D01*
X0293916Y0316577D01*
X0294047Y0316806D01*
X0294173Y0317037D01*
X0294293Y0317272D01*
X0294408Y0317510D01*
X0294516Y0317750D01*
X0294619Y0317993D01*
X0294716Y0318238D01*
X0294806Y0318486D01*
X0294891Y0318735D01*
X0294969Y0318987D01*
X0295042Y0319241D01*
X0295108Y0319496D01*
X0295167Y0319753D01*
X0295221Y0320011D01*
X0295268Y0320271D01*
X0295309Y0320531D01*
X0295343Y0320793D01*
X0295371Y0321055D01*
X0295393Y0321318D01*
X0295408Y0321581D01*
X0295417Y0321844D01*
X0295419Y0322108D01*
X0295415Y0322372D01*
X0295404Y0322635D01*
X0295387Y0322898D01*
X0295364Y0323161D01*
X0295334Y0323423D01*
X0295297Y0323684D01*
X0295255Y0323944D01*
X0295206Y0324204D01*
X0295150Y0324461D01*
X0295089Y0324718D01*
X0295021Y0324973D01*
X0294947Y0325226D01*
X0294866Y0325477D01*
X0294780Y0325726D01*
X0294688Y0325973D01*
X0294589Y0326218D01*
X0294485Y0326460D01*
X0294374Y0326699D01*
X0294258Y0326936D01*
X0294136Y0327170D01*
X0294009Y0327401D01*
X0293876Y0327628D01*
X0293737Y0327853D01*
X0293593Y0328073D01*
X0293444Y0328291D01*
X0293289Y0328504D01*
X0293129Y0328714D01*
X0293070Y0328667D01*
X0293229Y0328459D01*
X0293382Y0328247D01*
X0293531Y0328031D01*
X0293674Y0327812D01*
X0293812Y0327589D01*
X0293944Y0327363D01*
X0294071Y0327134D01*
X0294192Y0326902D01*
X0294307Y0326667D01*
X0294416Y0326429D01*
X0294520Y0326189D01*
X0294618Y0325946D01*
X0294710Y0325700D01*
X0294795Y0325453D01*
X0294875Y0325204D01*
X0294949Y0324952D01*
X0295016Y0324699D01*
X0295077Y0324445D01*
X0295132Y0324189D01*
X0295181Y0323931D01*
X0295223Y0323673D01*
X0295259Y0323414D01*
X0295289Y0323153D01*
X0295312Y0322893D01*
X0295329Y0322631D01*
X0295340Y0322370D01*
X0295344Y0322108D01*
X0295342Y0321846D01*
X0295333Y0321584D01*
X0295318Y0321323D01*
X0295297Y0321062D01*
X0295269Y0320801D01*
X0295235Y0320542D01*
X0295194Y0320283D01*
X0295147Y0320025D01*
X0295094Y0319769D01*
X0295035Y0319514D01*
X0294969Y0319261D01*
X0294897Y0319009D01*
X0294820Y0318759D01*
X0294736Y0318511D01*
X0294646Y0318265D01*
X0294550Y0318021D01*
X0294448Y0317780D01*
X0294340Y0317541D01*
X0294226Y0317305D01*
X0294107Y0317072D01*
X0293982Y0316842D01*
X0293851Y0316615D01*
X0293715Y0316391D01*
X0293574Y0316171D01*
X0293427Y0315954D01*
X0293275Y0315741D01*
X0293118Y0315532D01*
X0292955Y0315326D01*
X0292788Y0315125D01*
X0292616Y0314928D01*
X0292439Y0314735D01*
X0292257Y0314546D01*
X0292071Y0314362D01*
X0291880Y0314182D01*
X0291685Y0314008D01*
X0291486Y0313838D01*
X0291283Y0313673D01*
X0291075Y0313513D01*
X0290864Y0313358D01*
X0290650Y0313208D01*
X0290431Y0313064D01*
X0290209Y0312925D01*
X0289984Y0312791D01*
X0289756Y0312663D01*
X0289524Y0312541D01*
X0289290Y0312424D01*
X0289052Y0312313D01*
X0288813Y0312208D01*
X0288570Y0312109D01*
X0288326Y0312015D01*
X0288079Y0311928D01*
X0287830Y0311847D01*
X0287808Y0311919D01*
X0288055Y0311999D01*
X0288300Y0312086D01*
X0288543Y0312178D01*
X0288784Y0312277D01*
X0289022Y0312381D01*
X0289257Y0312491D01*
X0289490Y0312607D01*
X0289720Y0312729D01*
X0289947Y0312856D01*
X0290170Y0312989D01*
X0290391Y0313127D01*
X0290608Y0313270D01*
X0290821Y0313419D01*
X0291030Y0313573D01*
X0291236Y0313732D01*
X0291438Y0313895D01*
X0291636Y0314064D01*
X0291830Y0314238D01*
X0292019Y0314416D01*
X0292204Y0314599D01*
X0292384Y0314786D01*
X0292560Y0314978D01*
X0292731Y0315174D01*
X0292897Y0315374D01*
X0293058Y0315578D01*
X0293214Y0315786D01*
X0293365Y0315997D01*
X0293511Y0316213D01*
X0293652Y0316431D01*
X0293787Y0316653D01*
X0293917Y0316879D01*
X0294041Y0317107D01*
X0294159Y0317339D01*
X0294272Y0317573D01*
X0294379Y0317810D01*
X0294480Y0318050D01*
X0294575Y0318291D01*
X0294665Y0318536D01*
X0294748Y0318782D01*
X0294826Y0319030D01*
X0294897Y0319280D01*
X0294962Y0319532D01*
X0295021Y0319785D01*
X0295074Y0320040D01*
X0295120Y0320296D01*
X0295160Y0320552D01*
X0295194Y0320810D01*
X0295222Y0321069D01*
X0295243Y0321328D01*
X0295258Y0321588D01*
X0295267Y0321847D01*
X0295269Y0322107D01*
X0295265Y0322367D01*
X0295254Y0322627D01*
X0295238Y0322887D01*
X0295214Y0323146D01*
X0295185Y0323404D01*
X0295149Y0323662D01*
X0295107Y0323918D01*
X0295059Y0324174D01*
X0295004Y0324428D01*
X0294943Y0324681D01*
X0294876Y0324932D01*
X0294803Y0325181D01*
X0294724Y0325429D01*
X0294639Y0325675D01*
X0294548Y0325918D01*
X0294451Y0326160D01*
X0294348Y0326398D01*
X0294239Y0326634D01*
X0294125Y0326868D01*
X0294005Y0327099D01*
X0293879Y0327326D01*
X0293747Y0327551D01*
X0293611Y0327772D01*
X0293469Y0327989D01*
X0293321Y0328204D01*
X0293169Y0328414D01*
X0293011Y0328621D01*
X0292952Y0328575D01*
X0293109Y0328369D01*
X0293260Y0328160D01*
X0293407Y0327947D01*
X0293548Y0327731D01*
X0293683Y0327512D01*
X0293814Y0327289D01*
X0293939Y0327063D01*
X0294058Y0326834D01*
X0294172Y0326602D01*
X0294280Y0326368D01*
X0294382Y0326131D01*
X0294478Y0325891D01*
X0294569Y0325649D01*
X0294653Y0325405D01*
X0294732Y0325159D01*
X0294804Y0324912D01*
X0294871Y0324662D01*
X0294931Y0324411D01*
X0294985Y0324159D01*
X0295033Y0323905D01*
X0295075Y0323650D01*
X0295110Y0323394D01*
X0295140Y0323138D01*
X0295163Y0322881D01*
X0295179Y0322623D01*
X0295190Y0322365D01*
X0295194Y0322107D01*
X0295192Y0321849D01*
X0295183Y0321591D01*
X0295168Y0321333D01*
X0295147Y0321076D01*
X0295120Y0320819D01*
X0295086Y0320563D01*
X0295046Y0320308D01*
X0295000Y0320054D01*
X0294948Y0319801D01*
X0294889Y0319550D01*
X0294824Y0319300D01*
X0294754Y0319052D01*
X0294677Y0318805D01*
X0294594Y0318561D01*
X0294505Y0318318D01*
X0294411Y0318078D01*
X0294310Y0317840D01*
X0294204Y0317605D01*
X0294092Y0317372D01*
X0293974Y0317142D01*
X0293851Y0316915D01*
X0293722Y0316692D01*
X0293588Y0316471D01*
X0293449Y0316254D01*
X0293304Y0316040D01*
X0293154Y0315830D01*
X0292999Y0315624D01*
X0292839Y0315421D01*
X0292674Y0315222D01*
X0292504Y0315028D01*
X0292330Y0314838D01*
X0292150Y0314652D01*
X0291967Y0314470D01*
X0291779Y0314293D01*
X0291587Y0314121D01*
X0291390Y0313953D01*
X0291190Y0313790D01*
X0290986Y0313633D01*
X0290777Y0313480D01*
X0290566Y0313332D01*
X0290350Y0313190D01*
X0290131Y0313053D01*
X0289909Y0312921D01*
X0289684Y0312795D01*
X0289456Y0312674D01*
X0289225Y0312559D01*
X0288991Y0312450D01*
X0288755Y0312346D01*
X0288516Y0312248D01*
X0288274Y0312156D01*
X0288031Y0312070D01*
X0287786Y0311990D01*
X0287763Y0312062D01*
X0288007Y0312141D01*
X0288249Y0312227D01*
X0288488Y0312318D01*
X0288726Y0312415D01*
X0288960Y0312518D01*
X0289192Y0312627D01*
X0289422Y0312741D01*
X0289649Y0312861D01*
X0289872Y0312986D01*
X0290093Y0313117D01*
X0290310Y0313253D01*
X0290524Y0313394D01*
X0290734Y0313541D01*
X0290941Y0313693D01*
X0291143Y0313849D01*
X0291342Y0314011D01*
X0291537Y0314177D01*
X0291728Y0314348D01*
X0291915Y0314524D01*
X0292097Y0314704D01*
X0292275Y0314889D01*
X0292448Y0315078D01*
X0292617Y0315271D01*
X0292781Y0315468D01*
X0292939Y0315669D01*
X0293093Y0315874D01*
X0293242Y0316083D01*
X0293386Y0316295D01*
X0293525Y0316511D01*
X0293658Y0316730D01*
X0293786Y0316952D01*
X0293908Y0317177D01*
X0294025Y0317406D01*
X0294136Y0317637D01*
X0294242Y0317870D01*
X0294341Y0318106D01*
X0294435Y0318345D01*
X0294523Y0318585D01*
X0294606Y0318828D01*
X0294682Y0319073D01*
X0294752Y0319319D01*
X0294816Y0319568D01*
X0294874Y0319817D01*
X0294926Y0320068D01*
X0294972Y0320321D01*
X0295012Y0320574D01*
X0295045Y0320828D01*
X0295073Y0321083D01*
X0295094Y0321338D01*
X0295108Y0321594D01*
X0295117Y0321850D01*
X0295119Y0322107D01*
X0295115Y0322363D01*
X0295105Y0322619D01*
X0295088Y0322875D01*
X0295065Y0323130D01*
X0295036Y0323385D01*
X0295001Y0323639D01*
X0294959Y0323892D01*
X0294912Y0324144D01*
X0294858Y0324394D01*
X0294798Y0324644D01*
X0294732Y0324891D01*
X0294660Y0325137D01*
X0294582Y0325381D01*
X0294498Y0325624D01*
X0294408Y0325864D01*
X0294313Y0326101D01*
X0294211Y0326337D01*
X0294104Y0326570D01*
X0293991Y0326800D01*
X0293873Y0327027D01*
X0293749Y0327252D01*
X0293619Y0327473D01*
X0293484Y0327691D01*
X0293344Y0327906D01*
X0293199Y0328117D01*
X0293049Y0328324D01*
X0292893Y0328528D01*
X0292834Y0328482D01*
X0292989Y0328279D01*
X0293138Y0328073D01*
X0293282Y0327864D01*
X0293421Y0327650D01*
X0293555Y0327434D01*
X0293684Y0327214D01*
X0293807Y0326992D01*
X0293924Y0326766D01*
X0294036Y0326537D01*
X0294143Y0326306D01*
X0294243Y0326072D01*
X0294338Y0325836D01*
X0294428Y0325598D01*
X0294511Y0325358D01*
X0294588Y0325115D01*
X0294660Y0324871D01*
X0294725Y0324625D01*
X0294785Y0324377D01*
X0294838Y0324129D01*
X0294886Y0323879D01*
X0294927Y0323627D01*
X0294962Y0323375D01*
X0294991Y0323123D01*
X0295013Y0322869D01*
X0295030Y0322615D01*
X0295040Y0322361D01*
X0295044Y0322106D01*
X0295042Y0321852D01*
X0295033Y0321598D01*
X0295019Y0321343D01*
X0294998Y0321090D01*
X0294971Y0320837D01*
X0294938Y0320584D01*
X0294898Y0320333D01*
X0294853Y0320083D01*
X0294801Y0319833D01*
X0294743Y0319586D01*
X0294680Y0319339D01*
X0294610Y0319094D01*
X0294534Y0318851D01*
X0294453Y0318610D01*
X0294365Y0318371D01*
X0294272Y0318135D01*
X0294173Y0317900D01*
X0294068Y0317668D01*
X0293958Y0317439D01*
X0293842Y0317212D01*
X0293720Y0316989D01*
X0293593Y0316768D01*
X0293461Y0316551D01*
X0293324Y0316337D01*
X0293181Y0316126D01*
X0293033Y0315919D01*
X0292880Y0315715D01*
X0292722Y0315516D01*
X0292560Y0315320D01*
X0292392Y0315128D01*
X0292220Y0314941D01*
X0292044Y0314757D01*
X0291863Y0314578D01*
X0291678Y0314404D01*
X0291488Y0314234D01*
X0291295Y0314069D01*
X0291097Y0313908D01*
X0290896Y0313753D01*
X0290690Y0313602D01*
X0290482Y0313457D01*
X0290269Y0313316D01*
X0290054Y0313181D01*
X0289835Y0313051D01*
X0289613Y0312927D01*
X0289388Y0312808D01*
X0289160Y0312694D01*
X0288930Y0312587D01*
X0288696Y0312484D01*
X0288461Y0312388D01*
X0288223Y0312297D01*
X0287983Y0312212D01*
X0287741Y0312134D01*
X0287719Y0312205D01*
X0287959Y0312284D01*
X0288198Y0312368D01*
X0288434Y0312458D01*
X0288667Y0312554D01*
X0288899Y0312655D01*
X0289128Y0312762D01*
X0289354Y0312875D01*
X0289577Y0312993D01*
X0289798Y0313116D01*
X0290015Y0313245D01*
X0290229Y0313379D01*
X0290440Y0313519D01*
X0290647Y0313663D01*
X0290851Y0313813D01*
X0291051Y0313967D01*
X0291247Y0314126D01*
X0291439Y0314290D01*
X0291627Y0314459D01*
X0291811Y0314632D01*
X0291991Y0314810D01*
X0292166Y0314992D01*
X0292337Y0315178D01*
X0292503Y0315369D01*
X0292664Y0315563D01*
X0292821Y0315761D01*
X0292973Y0315963D01*
X0293119Y0316169D01*
X0293261Y0316378D01*
X0293398Y0316591D01*
X0293529Y0316806D01*
X0293655Y0317025D01*
X0293775Y0317247D01*
X0293891Y0317472D01*
X0294000Y0317700D01*
X0294104Y0317930D01*
X0294202Y0318163D01*
X0294295Y0318398D01*
X0294382Y0318635D01*
X0294463Y0318875D01*
X0294538Y0319116D01*
X0294607Y0319359D01*
X0294671Y0319603D01*
X0294728Y0319849D01*
X0294779Y0320097D01*
X0294824Y0320345D01*
X0294863Y0320595D01*
X0294896Y0320846D01*
X0294923Y0321097D01*
X0294944Y0321349D01*
X0294958Y0321601D01*
X0294967Y0321853D01*
X0294969Y0322106D01*
X0294965Y0322359D01*
X0294955Y0322611D01*
X0294938Y0322863D01*
X0294916Y0323115D01*
X0294887Y0323366D01*
X0294853Y0323616D01*
X0294812Y0323865D01*
X0294765Y0324114D01*
X0294712Y0324361D01*
X0294653Y0324606D01*
X0294588Y0324851D01*
X0294517Y0325093D01*
X0294440Y0325334D01*
X0294357Y0325572D01*
X0294269Y0325809D01*
X0294174Y0326043D01*
X0294074Y0326275D01*
X0293969Y0326505D01*
X0293857Y0326732D01*
X0293741Y0326956D01*
X0293618Y0327177D01*
X0293491Y0327395D01*
X0293358Y0327610D01*
X0293220Y0327822D01*
X0293077Y0328030D01*
X0292929Y0328234D01*
X0292775Y0328435D01*
X0292717Y0328389D01*
X0292869Y0328189D01*
X0293016Y0327986D01*
X0293158Y0327780D01*
X0293295Y0327570D01*
X0293427Y0327356D01*
X0293553Y0327140D01*
X0293675Y0326920D01*
X0293791Y0326698D01*
X0293901Y0326473D01*
X0294006Y0326245D01*
X0294105Y0326014D01*
X0294199Y0325782D01*
X0294287Y0325547D01*
X0294369Y0325310D01*
X0294445Y0325071D01*
X0294515Y0324830D01*
X0294580Y0324588D01*
X0294639Y0324344D01*
X0294691Y0324099D01*
X0294738Y0323852D01*
X0294778Y0323605D01*
X0294813Y0323356D01*
X0294841Y0323107D01*
X0294864Y0322857D01*
X0294880Y0322607D01*
X0294890Y0322356D01*
X0294894Y0322106D01*
X0294892Y0321855D01*
X0294883Y0321604D01*
X0294869Y0321354D01*
X0294848Y0321104D01*
X0294822Y0320854D01*
X0294789Y0320606D01*
X0294750Y0320358D01*
X0294705Y0320111D01*
X0294655Y0319866D01*
X0294598Y0319621D01*
X0294535Y0319378D01*
X0294466Y0319137D01*
X0294392Y0318898D01*
X0294311Y0318660D01*
X0294225Y0318425D01*
X0294133Y0318191D01*
X0294035Y0317960D01*
X0293932Y0317732D01*
X0293823Y0317506D01*
X0293709Y0317282D01*
X0293589Y0317062D01*
X0293464Y0316845D01*
X0293334Y0316630D01*
X0293198Y0316419D01*
X0293058Y0316212D01*
X0292912Y0316008D01*
X0292761Y0315807D01*
X0292606Y0315610D01*
X0292446Y0315417D01*
X0292281Y0315228D01*
X0292111Y0315043D01*
X0291937Y0314863D01*
X0291759Y0314686D01*
X0291576Y0314514D01*
X0291390Y0314347D01*
X0291199Y0314184D01*
X0291004Y0314026D01*
X0290806Y0313873D01*
X0290603Y0313724D01*
X0290398Y0313581D01*
X0290189Y0313443D01*
X0289976Y0313309D01*
X0289760Y0313181D01*
X0289542Y0313059D01*
X0289320Y0312942D01*
X0289095Y0312830D01*
X0288868Y0312723D01*
X0288638Y0312623D01*
X0288406Y0312528D01*
X0288172Y0312438D01*
X0287935Y0312355D01*
X0287697Y0312277D01*
X0287675Y0312349D01*
X0287912Y0312426D01*
X0288146Y0312509D01*
X0288379Y0312598D01*
X0288609Y0312692D01*
X0288837Y0312792D01*
X0289063Y0312897D01*
X0289286Y0313008D01*
X0289506Y0313125D01*
X0289723Y0313247D01*
X0289937Y0313374D01*
X0290148Y0313506D01*
X0290356Y0313643D01*
X0290560Y0313785D01*
X0290761Y0313933D01*
X0290958Y0314085D01*
X0291151Y0314242D01*
X0291340Y0314404D01*
X0291526Y0314570D01*
X0291707Y0314740D01*
X0291884Y0314916D01*
X0292057Y0315095D01*
X0292225Y0315278D01*
X0292389Y0315466D01*
X0292548Y0315658D01*
X0292702Y0315853D01*
X0292852Y0316052D01*
X0292996Y0316255D01*
X0293136Y0316461D01*
X0293270Y0316670D01*
X0293400Y0316883D01*
X0293524Y0317099D01*
X0293643Y0317318D01*
X0293756Y0317539D01*
X0293864Y0317763D01*
X0293967Y0317990D01*
X0294064Y0318220D01*
X0294155Y0318451D01*
X0294240Y0318685D01*
X0294320Y0318921D01*
X0294394Y0319159D01*
X0294463Y0319398D01*
X0294525Y0319639D01*
X0294581Y0319882D01*
X0294632Y0320125D01*
X0294676Y0320370D01*
X0294715Y0320616D01*
X0294747Y0320863D01*
X0294774Y0321111D01*
X0294794Y0321359D01*
X0294809Y0321607D01*
X0294817Y0321856D01*
X0294819Y0322105D01*
X0294815Y0322354D01*
X0294805Y0322603D01*
X0294789Y0322851D01*
X0294767Y0323099D01*
X0294739Y0323347D01*
X0294704Y0323593D01*
X0294664Y0323839D01*
X0294618Y0324084D01*
X0294566Y0324327D01*
X0294507Y0324569D01*
X0294443Y0324810D01*
X0294373Y0325049D01*
X0294298Y0325286D01*
X0294216Y0325521D01*
X0294129Y0325754D01*
X0294036Y0325985D01*
X0293937Y0326214D01*
X0293833Y0326440D01*
X0293724Y0326664D01*
X0293609Y0326884D01*
X0293488Y0327102D01*
X0293363Y0327317D01*
X0293232Y0327529D01*
X0293096Y0327738D01*
X0292955Y0327943D01*
X0292809Y0328144D01*
X0292658Y0328342D01*
D26*
X0075935Y0390350D03*
X0055435Y0390350D03*
X0055435Y0432850D03*
X0075935Y0432850D03*
D27*
X0065685Y0432850D03*
X0065685Y0390350D03*
D28*
X0056185Y0411600D03*
X0075185Y0411600D03*
D29*
X0073435Y0381350D03*
X0057935Y0381350D03*
X0057935Y0441850D03*
X0073435Y0441850D03*
D30*
X0074685Y0443600D03*
X0056685Y0443600D03*
X0056685Y0379600D03*
X0074685Y0379600D03*
M02*
