G75*
%MOIN*%
%OFA0B0*%
%FSLAX25Y25*%
%IPPOS*%
%LPD*%
%AMOC8*
5,1,8,0,0,1.08239X$1,22.5*
%
%ADD10C,0.06706*%
%ADD11R,0.08800X0.08800*%
%ADD12C,0.08800*%
%ADD13C,0.08200*%
%ADD14OC8,0.06000*%
%ADD15C,0.05950*%
%ADD16C,0.05556*%
%ADD17C,0.07493*%
%ADD18C,0.13280*%
%ADD19C,0.18320*%
%ADD20C,0.10800*%
%ADD21C,0.04800*%
%ADD22C,0.03778*%
D10*
X0048244Y0010734D03*
X0381827Y0010734D03*
X0386827Y0678687D03*
X0048244Y0678687D03*
D11*
X0054917Y0285911D03*
X0055094Y0182860D03*
X0054661Y0093687D03*
X0379976Y0083175D03*
X0379976Y0133175D03*
X0380409Y0181994D03*
X0380409Y0231994D03*
X0380409Y0281994D03*
X0380921Y0332978D03*
X0380921Y0381915D03*
X0380921Y0429789D03*
X0379976Y0033175D03*
D12*
X0379976Y0052860D03*
X0379976Y0102860D03*
X0379976Y0152860D03*
X0380409Y0201679D03*
X0380409Y0251679D03*
X0380409Y0301679D03*
X0380921Y0352663D03*
X0380921Y0401600D03*
X0380921Y0449474D03*
X0054917Y0266226D03*
X0055094Y0163175D03*
X0054661Y0074002D03*
D13*
X0233953Y0321691D03*
X0238953Y0314191D03*
X0243953Y0321691D03*
X0245055Y0370202D03*
X0255055Y0370202D03*
X0265055Y0370202D03*
X0275055Y0370202D03*
X0285055Y0370202D03*
X0295055Y0370202D03*
X0305055Y0370202D03*
X0315055Y0370202D03*
X0325055Y0370202D03*
X0335055Y0370202D03*
X0289634Y0322069D03*
X0284634Y0314569D03*
X0279634Y0322069D03*
X0235055Y0370202D03*
X0225055Y0370202D03*
X0215055Y0370202D03*
X0205055Y0370202D03*
X0205921Y0450517D03*
X0215921Y0450517D03*
X0225921Y0450517D03*
X0235921Y0450517D03*
X0245921Y0450517D03*
X0255921Y0450517D03*
X0265921Y0450517D03*
X0275921Y0450517D03*
X0285921Y0450517D03*
X0295921Y0450517D03*
X0305921Y0450517D03*
X0315921Y0450517D03*
X0325921Y0450517D03*
X0335921Y0450517D03*
D14*
X0255685Y0101600D03*
X0255685Y0091600D03*
X0245685Y0091600D03*
X0210685Y0091600D03*
X0210685Y0101600D03*
X0200685Y0091600D03*
D15*
X0049760Y0048805D03*
X0049760Y0038962D03*
X0049760Y0029120D03*
X0050291Y0214868D03*
X0050291Y0224710D03*
X0050291Y0234553D03*
D16*
X0139307Y0124100D02*
X0144063Y0124100D01*
X0144063Y0114100D02*
X0139307Y0114100D01*
X0139307Y0104100D02*
X0144063Y0104100D01*
X0144063Y0094100D02*
X0139307Y0094100D01*
X0139307Y0084100D02*
X0144063Y0084100D01*
X0144063Y0074100D02*
X0139307Y0074100D01*
X0139307Y0064100D02*
X0144063Y0064100D01*
X0169307Y0064100D02*
X0174063Y0064100D01*
X0174063Y0074100D02*
X0169307Y0074100D01*
X0169307Y0084100D02*
X0174063Y0084100D01*
X0174063Y0094100D02*
X0169307Y0094100D01*
X0169307Y0104100D02*
X0174063Y0104100D01*
X0174063Y0114100D02*
X0169307Y0114100D01*
X0169307Y0124100D02*
X0174063Y0124100D01*
X0303307Y0091600D02*
X0308063Y0091600D01*
X0308063Y0081600D02*
X0303307Y0081600D01*
X0303307Y0071600D02*
X0308063Y0071600D01*
X0308063Y0061600D02*
X0303307Y0061600D01*
X0333307Y0061600D02*
X0338063Y0061600D01*
X0338063Y0071600D02*
X0333307Y0071600D01*
X0333307Y0081600D02*
X0338063Y0081600D01*
X0338063Y0091600D02*
X0333307Y0091600D01*
D17*
X0200685Y0321600D03*
X0170685Y0321600D03*
D18*
X0066866Y0627702D03*
X0066866Y0654277D03*
D19*
X0366079Y0513529D03*
X0366079Y0491876D03*
D20*
X0070685Y0455900D02*
X0060685Y0455900D01*
X0060685Y0367300D02*
X0070685Y0367300D01*
D21*
X0134103Y0238837D03*
X0095472Y0210111D03*
X0095472Y0202187D03*
X0144504Y0044194D03*
X0143018Y0017449D03*
X0169763Y0026859D03*
X0185117Y0041717D03*
X0195022Y0057566D03*
X0197994Y0079854D03*
X0217309Y0098179D03*
X0233158Y0084806D03*
X0240587Y0061033D03*
X0264361Y0067967D03*
X0284667Y0068462D03*
X0320327Y0159098D03*
X0323794Y0162565D03*
X0260894Y0259143D03*
X0261884Y0264591D03*
X0248512Y0302728D03*
X0227710Y0297280D03*
X0211366Y0298270D03*
X0203937Y0290841D03*
X0199480Y0304213D03*
X0223253Y0259143D03*
X0225729Y0405745D03*
X0319831Y0328977D03*
X0320327Y0323034D03*
X0323794Y0316595D03*
X0362425Y0298270D03*
X0362425Y0395839D03*
X0197994Y0027354D03*
X0202946Y0016954D03*
D22*
X0195685Y0046600D03*
X0160685Y0051600D03*
X0145685Y0276600D03*
X0155685Y0291600D03*
X0160685Y0291600D03*
X0160685Y0278100D03*
M02*
