%
M48
M72
T01C0.02362
T02C0.02400
T03C0.03200
T04C0.04000
%
T01
X72509Y42351
X72706Y50422
X72706Y58217
X72627Y66091
X72587Y73887
X72509Y81839
X72587Y89674
X72587Y97509
X92036Y127430
X92430Y127430
X109359Y97115
X109753Y97115
X143060Y97233
X143060Y89674
X143060Y81761
X143060Y73965
X143178Y66091
X143060Y58217
X143020Y50304
X143020Y42430
X171564Y121524
X133531Y171235
X147154Y179398
X52666Y171550
X48729Y143965
X52863Y133926
T02
X19713Y141400
X106563Y166600
X167088Y76375
T03
X162863Y72115
X162863Y82115
X162863Y92115
X162863Y102115
X162863Y112115
X162863Y62115
X162863Y52115
X162863Y42115
X52863Y42115
X52863Y52115
X52863Y62115
X52863Y72115
X52863Y82115
X52863Y92115
X52863Y102115
X52863Y112115
T04
X7863Y11800
X7863Y21800
X7863Y31800
X7863Y41800
X7863Y51800
X7863Y61800
X7863Y81800
X7863Y91800
X7863Y101800
X7863Y111800
X7863Y121800
X7863Y131800
X7863Y141800
X7863Y151800
X16918Y171524
X26918Y171524
X36918Y171524
X37233Y191209
X27233Y191209
X17233Y191209
X62115Y162115
X72115Y162115
X82115Y162115
X92115Y162115
X102115Y162115
X112115Y162115
X122115Y162115
X122115Y146052
X112115Y146052
X102115Y146052
X92115Y146052
X82115Y146052
X72115Y146052
X62115Y146052
X72548Y191052
X82548Y191052
X107036Y191052
X117036Y191052
X137863Y191052
X147863Y191052
X162902Y191209
X172902Y191209
X182902Y191209
X197863Y186800
X197863Y176800
X197863Y166800
X197863Y156800
X197863Y146800
X197863Y136800
X197863Y126800
X197863Y116800
X197863Y106800
X197863Y96800
X197863Y81800
X197863Y71800
X197863Y61800
X197863Y51800
X197863Y41800
X197863Y31800
X197863Y21800
X197863Y11800
X169167Y146719
X169167Y164519
X143567Y164519
X143567Y146719
M30
