G75*
%MOIN*%
%OFA0B0*%
%FSLAX25Y25*%
%IPPOS*%
%LPD*%
%AMOC8*
5,1,8,0,0,1.08239X$1,22.5*
%
%ADD10C,0.07400*%
%ADD11OC8,0.07000*%
%ADD12R,0.07000X0.07000*%
%ADD13C,0.00500*%
%ADD14C,0.01969*%
%ADD15C,0.01600*%
%ADD16C,0.04000*%
%ADD17C,0.03962*%
%ADD18C,0.00394*%
%ADD19R,0.03962X0.03962*%
D10*
X0007863Y0011800D03*
X0007863Y0021800D03*
X0007863Y0031800D03*
X0007863Y0041800D03*
X0007863Y0051800D03*
X0007863Y0061800D03*
X0007863Y0081800D03*
X0007863Y0091800D03*
X0007863Y0101800D03*
X0007863Y0111800D03*
X0007863Y0121800D03*
X0007863Y0131800D03*
X0007863Y0141800D03*
X0007863Y0151800D03*
X0016918Y0171524D03*
X0026918Y0171524D03*
X0036918Y0171524D03*
X0037233Y0191209D03*
X0027233Y0191209D03*
X0017233Y0191209D03*
X0062115Y0162115D03*
X0072115Y0162115D03*
X0082115Y0162115D03*
X0092115Y0162115D03*
X0102115Y0162115D03*
X0112115Y0162115D03*
X0122115Y0162115D03*
X0122115Y0146052D03*
X0112115Y0146052D03*
X0102115Y0146052D03*
X0092115Y0146052D03*
X0082115Y0146052D03*
X0072115Y0146052D03*
X0062115Y0146052D03*
X0072548Y0191052D03*
X0082548Y0191052D03*
X0107036Y0191052D03*
X0117036Y0191052D03*
X0137863Y0191052D03*
X0147863Y0191052D03*
X0162902Y0191209D03*
X0172902Y0191209D03*
X0182902Y0191209D03*
X0197863Y0186800D03*
X0197863Y0176800D03*
X0197863Y0166800D03*
X0197863Y0156800D03*
X0197863Y0146800D03*
X0197863Y0136800D03*
X0197863Y0126800D03*
X0197863Y0116800D03*
X0197863Y0106800D03*
X0197863Y0096800D03*
X0197863Y0081800D03*
X0197863Y0071800D03*
X0197863Y0061800D03*
X0197863Y0051800D03*
X0197863Y0041800D03*
X0197863Y0031800D03*
X0197863Y0021800D03*
X0197863Y0011800D03*
X0169167Y0146719D03*
X0169167Y0164519D03*
X0143567Y0164519D03*
X0143567Y0146719D03*
D11*
X0162863Y0112115D03*
X0162863Y0102115D03*
X0162863Y0092115D03*
X0162863Y0082115D03*
X0162863Y0072115D03*
X0162863Y0062115D03*
X0162863Y0052115D03*
X0052863Y0052115D03*
X0052863Y0062115D03*
X0052863Y0072115D03*
X0052863Y0082115D03*
X0052863Y0092115D03*
X0052863Y0102115D03*
X0052863Y0112115D03*
D12*
X0052863Y0042115D03*
X0162863Y0042115D03*
D13*
X0162863Y0052115D02*
X0163038Y0052300D01*
X0167088Y0056350D01*
X0167088Y0076375D01*
X0163038Y0082225D02*
X0162863Y0082115D01*
X0163038Y0082225D02*
X0167088Y0086275D01*
X0167088Y0103825D01*
X0164613Y0106300D01*
X0145713Y0106300D01*
X0106113Y0145900D01*
X0102288Y0145900D01*
X0102115Y0146052D01*
X0095988Y0145900D02*
X0139638Y0102250D01*
X0162813Y0102250D01*
X0162863Y0102115D01*
X0162588Y0092350D02*
X0162813Y0092125D01*
X0162863Y0092115D01*
X0162588Y0092350D02*
X0139638Y0092350D01*
X0086088Y0145900D01*
X0082263Y0145900D01*
X0082115Y0146052D01*
X0092115Y0146052D02*
X0092163Y0145900D01*
X0095988Y0145900D01*
X0106563Y0166600D02*
X0141438Y0166600D01*
X0143463Y0164575D01*
X0143567Y0164519D01*
X0072115Y0146052D02*
X0071913Y0145900D01*
X0071913Y0101800D01*
X0062913Y0092800D01*
X0062913Y0072100D01*
X0053013Y0062200D01*
X0052863Y0062115D01*
X0052863Y0052115D02*
X0053013Y0052075D01*
X0093288Y0011800D01*
X0197863Y0011800D01*
X0062013Y0081325D02*
X0053013Y0072325D01*
X0052863Y0072115D01*
X0062013Y0081325D02*
X0062013Y0145900D01*
X0062115Y0146052D01*
X0019713Y0141400D02*
X0017463Y0141400D01*
X0007863Y0131800D01*
D14*
X0008013Y0122500D02*
X0043788Y0158275D01*
X0043788Y0184600D01*
X0044688Y0185050D01*
X0050538Y0190900D01*
X0072363Y0190900D01*
X0072548Y0191052D01*
X0052863Y0171800D02*
X0052666Y0171800D01*
X0052666Y0171550D01*
X0052666Y0171524D01*
X0052666Y0171550D02*
X0133531Y0171235D01*
X0162363Y0167050D02*
X0162363Y0112600D01*
X0162813Y0112150D01*
X0162863Y0112115D01*
X0162363Y0167050D02*
X0162813Y0167500D01*
X0162813Y0191125D01*
X0162902Y0191209D01*
X0097942Y0121918D02*
X0097942Y0102233D01*
X0103060Y0097115D01*
X0109359Y0097115D01*
X0109753Y0097509D01*
X0097942Y0121918D02*
X0092430Y0127430D01*
X0092036Y0127430D01*
X0091643Y0127036D01*
X0052863Y0133926D02*
X0052863Y0171800D01*
X0043788Y0184600D02*
X0037263Y0191125D01*
X0037233Y0191209D01*
X0036813Y0181675D02*
X0027363Y0191125D01*
X0027233Y0191209D01*
X0036813Y0181675D02*
X0036813Y0171550D01*
X0036918Y0171524D01*
X0008013Y0122500D02*
X0008013Y0121825D01*
X0007863Y0121800D01*
D15*
X0010639Y0007646D02*
X0009415Y0007139D01*
X0196310Y0007139D01*
X0195087Y0007646D01*
X0193709Y0009024D01*
X0193160Y0010350D01*
X0092687Y0010350D01*
X0057563Y0045474D01*
X0057563Y0038118D01*
X0056860Y0037415D01*
X0048866Y0037415D01*
X0048163Y0038118D01*
X0048163Y0046112D01*
X0048866Y0046815D01*
X0056222Y0046815D01*
X0055216Y0047821D01*
X0054810Y0047415D01*
X0050916Y0047415D01*
X0048163Y0050168D01*
X0048163Y0054062D01*
X0050916Y0056815D01*
X0054810Y0056815D01*
X0057563Y0054062D01*
X0057563Y0050168D01*
X0057267Y0049872D01*
X0093889Y0013250D01*
X0193160Y0013250D01*
X0193709Y0014576D01*
X0195087Y0015954D01*
X0196888Y0016700D01*
X0198838Y0016700D01*
X0198941Y0016657D01*
X0198941Y0016943D01*
X0198838Y0016900D01*
X0196888Y0016900D01*
X0195087Y0017646D01*
X0193709Y0019024D01*
X0192963Y0020825D01*
X0192963Y0022775D01*
X0193709Y0024576D01*
X0195087Y0025954D01*
X0196888Y0026700D01*
X0198838Y0026700D01*
X0198941Y0026657D01*
X0198941Y0026943D01*
X0198838Y0026900D01*
X0196888Y0026900D01*
X0195087Y0027646D01*
X0193709Y0029024D01*
X0192963Y0030825D01*
X0192963Y0032775D01*
X0193709Y0034576D01*
X0195087Y0035954D01*
X0196888Y0036700D01*
X0198838Y0036700D01*
X0198941Y0036657D01*
X0198941Y0036943D01*
X0198838Y0036900D01*
X0196888Y0036900D01*
X0195087Y0037646D01*
X0193709Y0039024D01*
X0192963Y0040825D01*
X0192963Y0042775D01*
X0193709Y0044576D01*
X0195087Y0045954D01*
X0196888Y0046700D01*
X0198838Y0046700D01*
X0198941Y0046657D01*
X0198941Y0046943D01*
X0198838Y0046900D01*
X0196888Y0046900D01*
X0195087Y0047646D01*
X0193709Y0049024D01*
X0192963Y0050825D01*
X0192963Y0052775D01*
X0193709Y0054576D01*
X0195087Y0055954D01*
X0196888Y0056700D01*
X0198838Y0056700D01*
X0198941Y0056657D01*
X0198941Y0056943D01*
X0198838Y0056900D01*
X0196888Y0056900D01*
X0195087Y0057646D01*
X0193709Y0059024D01*
X0192963Y0060825D01*
X0192963Y0062775D01*
X0193709Y0064576D01*
X0195087Y0065954D01*
X0196888Y0066700D01*
X0198838Y0066700D01*
X0198941Y0066657D01*
X0198941Y0066943D01*
X0198838Y0066900D01*
X0196888Y0066900D01*
X0195087Y0067646D01*
X0193709Y0069024D01*
X0192963Y0070825D01*
X0192963Y0072775D01*
X0193709Y0074576D01*
X0195087Y0075954D01*
X0196888Y0076700D01*
X0198838Y0076700D01*
X0198941Y0076657D01*
X0198941Y0076943D01*
X0198838Y0076900D01*
X0196888Y0076900D01*
X0195087Y0077646D01*
X0193709Y0079024D01*
X0192963Y0080825D01*
X0192963Y0082775D01*
X0193709Y0084576D01*
X0195087Y0085954D01*
X0196888Y0086700D01*
X0198838Y0086700D01*
X0198941Y0086657D01*
X0198941Y0091943D01*
X0198838Y0091900D01*
X0196888Y0091900D01*
X0195087Y0092646D01*
X0193709Y0094024D01*
X0192963Y0095825D01*
X0192963Y0097775D01*
X0193709Y0099576D01*
X0195087Y0100954D01*
X0196888Y0101700D01*
X0198838Y0101700D01*
X0198941Y0101657D01*
X0198941Y0101943D01*
X0198838Y0101900D01*
X0196888Y0101900D01*
X0195087Y0102646D01*
X0193709Y0104024D01*
X0192963Y0105825D01*
X0192963Y0107775D01*
X0193709Y0109576D01*
X0195087Y0110954D01*
X0196888Y0111700D01*
X0198838Y0111700D01*
X0198941Y0111657D01*
X0198941Y0111943D01*
X0198838Y0111900D01*
X0196888Y0111900D01*
X0195087Y0112646D01*
X0193709Y0114024D01*
X0192963Y0115825D01*
X0192963Y0117775D01*
X0193709Y0119576D01*
X0195087Y0120954D01*
X0196888Y0121700D01*
X0198838Y0121700D01*
X0198941Y0121657D01*
X0198941Y0121943D01*
X0198838Y0121900D01*
X0196888Y0121900D01*
X0195087Y0122646D01*
X0193709Y0124024D01*
X0192963Y0125825D01*
X0192963Y0127775D01*
X0193709Y0129576D01*
X0195087Y0130954D01*
X0196888Y0131700D01*
X0198838Y0131700D01*
X0198941Y0131657D01*
X0198941Y0131943D01*
X0198838Y0131900D01*
X0196888Y0131900D01*
X0195087Y0132646D01*
X0193709Y0134024D01*
X0192963Y0135825D01*
X0192963Y0137775D01*
X0193709Y0139576D01*
X0195087Y0140954D01*
X0196888Y0141700D01*
X0198838Y0141700D01*
X0198941Y0141657D01*
X0198941Y0141943D01*
X0198838Y0141900D01*
X0196888Y0141900D01*
X0195087Y0142646D01*
X0193709Y0144024D01*
X0192963Y0145825D01*
X0192963Y0147775D01*
X0193709Y0149576D01*
X0195087Y0150954D01*
X0196393Y0151495D01*
X0195752Y0151703D01*
X0194980Y0152096D01*
X0194280Y0152605D01*
X0193668Y0153217D01*
X0193159Y0153917D01*
X0192766Y0154689D01*
X0192498Y0155512D01*
X0192363Y0156367D01*
X0192363Y0156600D01*
X0197663Y0156600D01*
X0197663Y0157000D01*
X0192363Y0157000D01*
X0192363Y0157233D01*
X0192498Y0158088D01*
X0192766Y0158911D01*
X0193159Y0159683D01*
X0193668Y0160383D01*
X0194280Y0160995D01*
X0194980Y0161504D01*
X0195752Y0161897D01*
X0196393Y0162105D01*
X0195087Y0162646D01*
X0193709Y0164024D01*
X0192963Y0165825D01*
X0192963Y0167775D01*
X0193709Y0169576D01*
X0195087Y0170954D01*
X0196888Y0171700D01*
X0198838Y0171700D01*
X0198941Y0171657D01*
X0198941Y0171943D01*
X0198838Y0171900D01*
X0196888Y0171900D01*
X0195087Y0172646D01*
X0193709Y0174024D01*
X0192963Y0175825D01*
X0192963Y0177775D01*
X0193709Y0179576D01*
X0195087Y0180954D01*
X0196888Y0181700D01*
X0198838Y0181700D01*
X0198941Y0181657D01*
X0198941Y0181943D01*
X0198838Y0181900D01*
X0196888Y0181900D01*
X0195087Y0182646D01*
X0193709Y0184024D01*
X0192963Y0185825D01*
X0192963Y0187775D01*
X0193709Y0189576D01*
X0195087Y0190954D01*
X0196888Y0191700D01*
X0198224Y0191700D01*
X0195746Y0194177D01*
X0187545Y0194177D01*
X0187606Y0194092D01*
X0187999Y0193321D01*
X0188267Y0192497D01*
X0188402Y0191642D01*
X0188402Y0191409D01*
X0183102Y0191409D01*
X0183102Y0191009D01*
X0183102Y0185709D01*
X0183335Y0185709D01*
X0184190Y0185845D01*
X0185014Y0186112D01*
X0185785Y0186505D01*
X0186485Y0187014D01*
X0187098Y0187626D01*
X0187606Y0188327D01*
X0187999Y0189098D01*
X0188267Y0189922D01*
X0188402Y0190777D01*
X0188402Y0191009D01*
X0183102Y0191009D01*
X0182702Y0191009D01*
X0182702Y0185709D01*
X0182469Y0185709D01*
X0181614Y0185845D01*
X0180791Y0186112D01*
X0180020Y0186505D01*
X0179319Y0187014D01*
X0178707Y0187626D01*
X0178198Y0188327D01*
X0177805Y0189098D01*
X0177597Y0189739D01*
X0177056Y0188434D01*
X0175678Y0187055D01*
X0173877Y0186309D01*
X0171928Y0186309D01*
X0170127Y0187055D01*
X0168752Y0188430D01*
X0168386Y0187545D01*
X0166566Y0185726D01*
X0166566Y0185725D01*
X0166566Y0168745D01*
X0168192Y0169419D01*
X0170142Y0169419D01*
X0171943Y0168673D01*
X0173321Y0167295D01*
X0174067Y0165494D01*
X0174067Y0163544D01*
X0173321Y0161743D01*
X0171943Y0160365D01*
X0170142Y0159619D01*
X0168192Y0159619D01*
X0166391Y0160365D01*
X0166116Y0160640D01*
X0166116Y0150597D01*
X0166391Y0150873D01*
X0168192Y0151619D01*
X0170142Y0151619D01*
X0171943Y0150873D01*
X0173321Y0149495D01*
X0174067Y0147694D01*
X0174067Y0145744D01*
X0173321Y0143943D01*
X0171943Y0142565D01*
X0170142Y0141819D01*
X0168192Y0141819D01*
X0166391Y0142565D01*
X0166116Y0142840D01*
X0166116Y0117727D01*
X0169131Y0114711D01*
X0169131Y0109518D01*
X0166288Y0106675D01*
X0167689Y0105275D01*
X0168538Y0104426D01*
X0168538Y0085674D01*
X0167244Y0084381D01*
X0167563Y0084062D01*
X0167563Y0080168D01*
X0166970Y0079575D01*
X0167725Y0079575D01*
X0168901Y0079088D01*
X0169801Y0078188D01*
X0170288Y0077012D01*
X0170288Y0075738D01*
X0169801Y0074562D01*
X0168901Y0073662D01*
X0168538Y0073512D01*
X0168538Y0055749D01*
X0167207Y0054418D01*
X0167563Y0054062D01*
X0167563Y0050168D01*
X0164810Y0047415D01*
X0160916Y0047415D01*
X0158163Y0050168D01*
X0158163Y0054062D01*
X0160916Y0056815D01*
X0164810Y0056815D01*
X0165156Y0056469D01*
X0165638Y0056951D01*
X0165638Y0058243D01*
X0164810Y0057415D01*
X0160916Y0057415D01*
X0158163Y0060168D01*
X0158163Y0064062D01*
X0160916Y0066815D01*
X0164810Y0066815D01*
X0165638Y0065987D01*
X0165638Y0068243D01*
X0164810Y0067415D01*
X0160916Y0067415D01*
X0158163Y0070168D01*
X0158163Y0074062D01*
X0160916Y0076815D01*
X0163888Y0076815D01*
X0163888Y0077012D01*
X0164055Y0077415D01*
X0160916Y0077415D01*
X0158163Y0080168D01*
X0158163Y0084062D01*
X0160916Y0086815D01*
X0164810Y0086815D01*
X0165194Y0086431D01*
X0165638Y0086876D01*
X0165638Y0088243D01*
X0164810Y0087415D01*
X0160916Y0087415D01*
X0158163Y0090168D01*
X0158163Y0090900D01*
X0146241Y0090900D01*
X0146241Y0087196D01*
X0145538Y0086493D01*
X0140582Y0086493D01*
X0139879Y0087196D01*
X0139879Y0090900D01*
X0139037Y0090900D01*
X0138188Y0091749D01*
X0086384Y0143554D01*
X0086269Y0143276D01*
X0084891Y0141898D01*
X0083090Y0141152D01*
X0081140Y0141152D01*
X0079339Y0141898D01*
X0077961Y0143276D01*
X0077215Y0145077D01*
X0077215Y0147027D01*
X0077961Y0148828D01*
X0079339Y0150206D01*
X0081140Y0150952D01*
X0083090Y0150952D01*
X0084891Y0150206D01*
X0086269Y0148828D01*
X0087015Y0147027D01*
X0087015Y0147024D01*
X0087215Y0146824D01*
X0087215Y0147027D01*
X0087961Y0148828D01*
X0089339Y0150206D01*
X0091140Y0150952D01*
X0093090Y0150952D01*
X0094891Y0150206D01*
X0096269Y0148828D01*
X0097015Y0147027D01*
X0097015Y0146924D01*
X0097215Y0146724D01*
X0097215Y0147027D01*
X0097961Y0148828D01*
X0099339Y0150206D01*
X0101140Y0150952D01*
X0103090Y0150952D01*
X0104891Y0150206D01*
X0106269Y0148828D01*
X0106999Y0147064D01*
X0107215Y0146849D01*
X0107215Y0147027D01*
X0107961Y0148828D01*
X0109339Y0150206D01*
X0111140Y0150952D01*
X0113090Y0150952D01*
X0114891Y0150206D01*
X0116269Y0148828D01*
X0117015Y0147027D01*
X0117015Y0145077D01*
X0116269Y0143276D01*
X0114891Y0141898D01*
X0113090Y0141152D01*
X0112912Y0141152D01*
X0146314Y0107750D01*
X0158363Y0107750D01*
X0156594Y0109518D01*
X0156594Y0114711D01*
X0158610Y0116727D01*
X0158610Y0167796D01*
X0159060Y0168883D01*
X0159060Y0185904D01*
X0157419Y0187545D01*
X0156434Y0189923D01*
X0156434Y0192496D01*
X0157130Y0194177D01*
X0152391Y0194177D01*
X0152567Y0193935D01*
X0152960Y0193163D01*
X0153228Y0192340D01*
X0153363Y0191485D01*
X0153363Y0191252D01*
X0148063Y0191252D01*
X0148063Y0190852D01*
X0153363Y0190852D01*
X0153363Y0190619D01*
X0153228Y0189764D01*
X0152960Y0188941D01*
X0152567Y0188169D01*
X0152058Y0187469D01*
X0151446Y0186857D01*
X0150746Y0186348D01*
X0149974Y0185955D01*
X0149151Y0185687D01*
X0148296Y0185552D01*
X0148063Y0185552D01*
X0148063Y0190852D01*
X0147663Y0190852D01*
X0142363Y0190852D01*
X0138063Y0190852D01*
X0138063Y0191252D01*
X0147663Y0191252D01*
X0147663Y0190852D01*
X0147663Y0185552D01*
X0147430Y0185552D01*
X0146575Y0185687D01*
X0145752Y0185955D01*
X0144980Y0186348D01*
X0144280Y0186857D01*
X0143668Y0187469D01*
X0143159Y0188169D01*
X0142863Y0188750D01*
X0142567Y0188169D01*
X0142058Y0187469D01*
X0141446Y0186857D01*
X0140746Y0186348D01*
X0139974Y0185955D01*
X0139151Y0185687D01*
X0138296Y0185552D01*
X0138063Y0185552D01*
X0138063Y0190852D01*
X0137663Y0190852D01*
X0132363Y0190852D01*
X0132363Y0190619D01*
X0132498Y0189764D01*
X0132766Y0188941D01*
X0133159Y0188169D01*
X0133668Y0187469D01*
X0134280Y0186857D01*
X0134980Y0186348D01*
X0135752Y0185955D01*
X0136575Y0185687D01*
X0137430Y0185552D01*
X0137663Y0185552D01*
X0137663Y0190852D01*
X0137663Y0191252D01*
X0132363Y0191252D01*
X0132363Y0191485D01*
X0132498Y0192340D01*
X0132766Y0193163D01*
X0133159Y0193935D01*
X0133335Y0194177D01*
X0122743Y0194177D01*
X0123505Y0192339D01*
X0123505Y0189765D01*
X0122520Y0187388D01*
X0120700Y0185568D01*
X0118323Y0184583D01*
X0115750Y0184583D01*
X0113372Y0185568D01*
X0112036Y0186904D01*
X0110700Y0185568D01*
X0108323Y0184583D01*
X0105750Y0184583D01*
X0103372Y0185568D01*
X0101552Y0187388D01*
X0100568Y0189765D01*
X0100568Y0192339D01*
X0101329Y0194177D01*
X0088255Y0194177D01*
X0089017Y0192339D01*
X0089017Y0189765D01*
X0088032Y0187388D01*
X0086212Y0185568D01*
X0083835Y0184583D01*
X0081261Y0184583D01*
X0078884Y0185568D01*
X0077548Y0186904D01*
X0076212Y0185568D01*
X0073835Y0184583D01*
X0071261Y0184583D01*
X0068884Y0185568D01*
X0067305Y0187147D01*
X0052092Y0187147D01*
X0047541Y0182596D01*
X0047541Y0176248D01*
X0051269Y0179977D01*
X0052088Y0180795D01*
X0144290Y0180795D01*
X0144458Y0181200D01*
X0145352Y0182095D01*
X0146522Y0182580D01*
X0147787Y0182580D01*
X0148956Y0182095D01*
X0149851Y0181200D01*
X0150335Y0180031D01*
X0150335Y0178766D01*
X0149851Y0177596D01*
X0148956Y0176702D01*
X0147787Y0176217D01*
X0146522Y0176217D01*
X0145352Y0176702D01*
X0144458Y0177596D01*
X0144290Y0178002D01*
X0053245Y0178002D01*
X0051416Y0176173D01*
X0051721Y0176300D01*
X0053611Y0176300D01*
X0055357Y0175577D01*
X0055642Y0175291D01*
X0130579Y0174999D01*
X0130841Y0175262D01*
X0132587Y0175985D01*
X0134476Y0175985D01*
X0136222Y0175262D01*
X0137558Y0173925D01*
X0138281Y0172180D01*
X0138281Y0170290D01*
X0137558Y0168545D01*
X0137063Y0168050D01*
X0140168Y0168050D01*
X0140791Y0168673D01*
X0142592Y0169419D01*
X0144542Y0169419D01*
X0146343Y0168673D01*
X0147721Y0167295D01*
X0148467Y0165494D01*
X0148467Y0163544D01*
X0147721Y0161743D01*
X0146343Y0160365D01*
X0144542Y0159619D01*
X0142592Y0159619D01*
X0140791Y0160365D01*
X0139413Y0161743D01*
X0138667Y0163544D01*
X0138667Y0165150D01*
X0126010Y0165150D01*
X0126269Y0164891D01*
X0127015Y0163090D01*
X0127015Y0161140D01*
X0126269Y0159339D01*
X0124891Y0157961D01*
X0123090Y0157215D01*
X0121140Y0157215D01*
X0119339Y0157961D01*
X0117961Y0159339D01*
X0117215Y0161140D01*
X0117215Y0163090D01*
X0117961Y0164891D01*
X0118220Y0165150D01*
X0116010Y0165150D01*
X0116269Y0164891D01*
X0117015Y0163090D01*
X0117015Y0161140D01*
X0116269Y0159339D01*
X0114891Y0157961D01*
X0113090Y0157215D01*
X0111140Y0157215D01*
X0109339Y0157961D01*
X0107961Y0159339D01*
X0107215Y0161140D01*
X0107215Y0163090D01*
X0107373Y0163472D01*
X0107200Y0163400D01*
X0106886Y0163400D01*
X0107015Y0163090D01*
X0107015Y0161140D01*
X0106269Y0159339D01*
X0104891Y0157961D01*
X0103090Y0157215D01*
X0101140Y0157215D01*
X0099339Y0157961D01*
X0097961Y0159339D01*
X0097215Y0161140D01*
X0097215Y0163090D01*
X0097961Y0164891D01*
X0099339Y0166269D01*
X0101140Y0167015D01*
X0103090Y0167015D01*
X0103363Y0166902D01*
X0103363Y0167237D01*
X0103513Y0167599D01*
X0056616Y0167782D01*
X0056616Y0136890D01*
X0056890Y0136616D01*
X0057613Y0134871D01*
X0057613Y0132981D01*
X0056890Y0131236D01*
X0055553Y0129899D01*
X0053808Y0129176D01*
X0051918Y0129176D01*
X0050173Y0129899D01*
X0048836Y0131236D01*
X0048113Y0132981D01*
X0048113Y0134871D01*
X0048836Y0136616D01*
X0049110Y0136890D01*
X0049110Y0140784D01*
X0048096Y0140784D01*
X0046927Y0141269D01*
X0046032Y0142163D01*
X0045548Y0143333D01*
X0045548Y0144598D01*
X0046032Y0145767D01*
X0046927Y0146662D01*
X0047332Y0146830D01*
X0047332Y0157025D01*
X0046969Y0156149D01*
X0045914Y0155094D01*
X0014207Y0123387D01*
X0014331Y0123087D01*
X0014331Y0120513D01*
X0013347Y0118136D01*
X0012011Y0116800D01*
X0013347Y0115464D01*
X0014331Y0113087D01*
X0014331Y0110513D01*
X0013347Y0108136D01*
X0011527Y0106316D01*
X0011194Y0106178D01*
X0011446Y0105995D01*
X0012058Y0105383D01*
X0012567Y0104683D01*
X0012960Y0103911D01*
X0013228Y0103088D01*
X0013363Y0102233D01*
X0013363Y0102000D01*
X0008063Y0102000D01*
X0008063Y0101600D01*
X0013363Y0101600D01*
X0013363Y0101367D01*
X0013228Y0100512D01*
X0012960Y0099689D01*
X0012567Y0098917D01*
X0012058Y0098217D01*
X0011446Y0097605D01*
X0010746Y0097096D01*
X0010165Y0096800D01*
X0010746Y0096504D01*
X0011446Y0095995D01*
X0012058Y0095383D01*
X0012567Y0094683D01*
X0012960Y0093911D01*
X0013228Y0093088D01*
X0013363Y0092233D01*
X0013363Y0092000D01*
X0008063Y0092000D01*
X0008063Y0091600D01*
X0013363Y0091600D01*
X0013363Y0091367D01*
X0013228Y0090512D01*
X0012960Y0089689D01*
X0012567Y0088917D01*
X0012058Y0088217D01*
X0011446Y0087605D01*
X0010746Y0087096D01*
X0009974Y0086703D01*
X0009333Y0086495D01*
X0010639Y0085954D01*
X0012017Y0084576D01*
X0012763Y0082775D01*
X0012763Y0080825D01*
X0012017Y0079024D01*
X0010639Y0077646D01*
X0008838Y0076900D01*
X0007179Y0076900D01*
X0007179Y0066700D01*
X0008838Y0066700D01*
X0010639Y0065954D01*
X0012017Y0064576D01*
X0012763Y0062775D01*
X0012763Y0060825D01*
X0012017Y0059024D01*
X0010639Y0057646D01*
X0008838Y0056900D01*
X0007179Y0056900D01*
X0007179Y0056700D01*
X0008838Y0056700D01*
X0010639Y0055954D01*
X0012017Y0054576D01*
X0012763Y0052775D01*
X0012763Y0050825D01*
X0012017Y0049024D01*
X0010639Y0047646D01*
X0008838Y0046900D01*
X0007179Y0046900D01*
X0007179Y0046700D01*
X0008838Y0046700D01*
X0010639Y0045954D01*
X0012017Y0044576D01*
X0012763Y0042775D01*
X0012763Y0040825D01*
X0012017Y0039024D01*
X0010639Y0037646D01*
X0008838Y0036900D01*
X0007179Y0036900D01*
X0007179Y0036700D01*
X0008838Y0036700D01*
X0010639Y0035954D01*
X0012017Y0034576D01*
X0012763Y0032775D01*
X0012763Y0030825D01*
X0012017Y0029024D01*
X0010639Y0027646D01*
X0008838Y0026900D01*
X0007179Y0026900D01*
X0007179Y0026700D01*
X0008838Y0026700D01*
X0010639Y0025954D01*
X0012017Y0024576D01*
X0012763Y0022775D01*
X0012763Y0020825D01*
X0012017Y0019024D01*
X0010639Y0017646D01*
X0008838Y0016900D01*
X0007179Y0016900D01*
X0007179Y0016700D01*
X0008838Y0016700D01*
X0010639Y0015954D01*
X0012017Y0014576D01*
X0012763Y0012775D01*
X0012763Y0010825D01*
X0012017Y0009024D01*
X0010639Y0007646D01*
X0011354Y0008361D02*
X0194372Y0008361D01*
X0193321Y0009960D02*
X0012404Y0009960D01*
X0012763Y0011558D02*
X0091479Y0011558D01*
X0089881Y0013157D02*
X0012605Y0013157D01*
X0011837Y0014755D02*
X0088282Y0014755D01*
X0086684Y0016354D02*
X0009673Y0016354D01*
X0010945Y0017952D02*
X0085085Y0017952D01*
X0083487Y0019551D02*
X0012235Y0019551D01*
X0012763Y0021149D02*
X0081888Y0021149D01*
X0080289Y0022748D02*
X0012763Y0022748D01*
X0012112Y0024346D02*
X0078691Y0024346D01*
X0077092Y0025945D02*
X0010648Y0025945D01*
X0010391Y0027543D02*
X0075494Y0027543D01*
X0073895Y0029142D02*
X0012066Y0029142D01*
X0012728Y0030740D02*
X0072297Y0030740D01*
X0070698Y0032339D02*
X0012763Y0032339D01*
X0012281Y0033937D02*
X0069100Y0033937D01*
X0067501Y0035536D02*
X0011057Y0035536D01*
X0009404Y0037134D02*
X0065903Y0037134D01*
X0064304Y0038733D02*
X0057563Y0038733D01*
X0057563Y0040332D02*
X0062706Y0040332D01*
X0061107Y0041930D02*
X0057563Y0041930D01*
X0057563Y0043529D02*
X0059509Y0043529D01*
X0057910Y0045127D02*
X0057563Y0045127D01*
X0060413Y0046726D02*
X0158777Y0046726D01*
X0158866Y0046815D02*
X0158163Y0046112D01*
X0158163Y0038118D01*
X0158866Y0037415D01*
X0166860Y0037415D01*
X0167563Y0038118D01*
X0167563Y0046112D01*
X0166860Y0046815D01*
X0158866Y0046815D01*
X0158163Y0045127D02*
X0145983Y0045127D01*
X0146202Y0044908D02*
X0145499Y0045611D01*
X0140542Y0045611D01*
X0139839Y0044908D01*
X0139839Y0039952D01*
X0140542Y0039249D01*
X0145499Y0039249D01*
X0146202Y0039952D01*
X0146202Y0044908D01*
X0146202Y0043529D02*
X0158163Y0043529D01*
X0158163Y0041930D02*
X0146202Y0041930D01*
X0146202Y0040332D02*
X0158163Y0040332D01*
X0158163Y0038733D02*
X0068406Y0038733D01*
X0069328Y0039873D02*
X0070030Y0039170D01*
X0074987Y0039170D01*
X0075690Y0039873D01*
X0075690Y0044829D01*
X0074987Y0045532D01*
X0070030Y0045532D01*
X0069328Y0044829D01*
X0069328Y0039873D01*
X0069328Y0040332D02*
X0066807Y0040332D01*
X0065209Y0041930D02*
X0069328Y0041930D01*
X0069328Y0043529D02*
X0063610Y0043529D01*
X0062012Y0045127D02*
X0069625Y0045127D01*
X0070227Y0047241D02*
X0075184Y0047241D01*
X0075887Y0047944D01*
X0075887Y0052900D01*
X0075184Y0053603D01*
X0070227Y0053603D01*
X0069524Y0052900D01*
X0069524Y0047944D01*
X0070227Y0047241D01*
X0069524Y0048324D02*
X0058815Y0048324D01*
X0057317Y0049923D02*
X0069524Y0049923D01*
X0069524Y0051521D02*
X0057563Y0051521D01*
X0057563Y0053120D02*
X0069744Y0053120D01*
X0070227Y0055036D02*
X0075184Y0055036D01*
X0075887Y0055739D01*
X0075887Y0060695D01*
X0075184Y0061398D01*
X0070227Y0061398D01*
X0069524Y0060695D01*
X0069524Y0055739D01*
X0070227Y0055036D01*
X0069524Y0056317D02*
X0055308Y0056317D01*
X0054810Y0057415D02*
X0057563Y0060168D01*
X0057563Y0064062D01*
X0057244Y0064381D01*
X0064363Y0071499D01*
X0064363Y0092199D01*
X0069406Y0097243D01*
X0069406Y0095030D01*
X0070109Y0094328D01*
X0075066Y0094328D01*
X0075768Y0095030D01*
X0075768Y0099987D01*
X0075066Y0100690D01*
X0072853Y0100690D01*
X0073363Y0101199D01*
X0073363Y0141265D01*
X0074891Y0141898D01*
X0076269Y0143276D01*
X0077015Y0145077D01*
X0077015Y0147027D01*
X0076269Y0148828D01*
X0074891Y0150206D01*
X0073090Y0150952D01*
X0071140Y0150952D01*
X0069339Y0150206D01*
X0067961Y0148828D01*
X0067215Y0147027D01*
X0067215Y0145077D01*
X0067961Y0143276D01*
X0069339Y0141898D01*
X0070463Y0141433D01*
X0070463Y0102401D01*
X0063463Y0095401D01*
X0063463Y0141307D01*
X0064891Y0141898D01*
X0066269Y0143276D01*
X0067015Y0145077D01*
X0067015Y0147027D01*
X0066269Y0148828D01*
X0064891Y0150206D01*
X0063090Y0150952D01*
X0061140Y0150952D01*
X0059339Y0150206D01*
X0057961Y0148828D01*
X0057215Y0147027D01*
X0057215Y0145077D01*
X0057961Y0143276D01*
X0059339Y0141898D01*
X0060563Y0141391D01*
X0060563Y0081926D01*
X0055131Y0076494D01*
X0054810Y0076815D01*
X0050916Y0076815D01*
X0048163Y0074062D01*
X0048163Y0070168D01*
X0050916Y0067415D01*
X0054810Y0067415D01*
X0057563Y0070168D01*
X0057563Y0074062D01*
X0057182Y0074443D01*
X0061463Y0078724D01*
X0061463Y0072701D01*
X0055194Y0066431D01*
X0054810Y0066815D01*
X0050916Y0066815D01*
X0048163Y0064062D01*
X0048163Y0060168D01*
X0050916Y0057415D01*
X0054810Y0057415D01*
X0055310Y0057915D02*
X0069524Y0057915D01*
X0069524Y0059514D02*
X0056908Y0059514D01*
X0057563Y0061112D02*
X0069941Y0061112D01*
X0070149Y0062910D02*
X0075105Y0062910D01*
X0075808Y0063613D01*
X0075808Y0068569D01*
X0075105Y0069272D01*
X0070149Y0069272D01*
X0069446Y0068569D01*
X0069446Y0063613D01*
X0070149Y0062910D01*
X0069446Y0064309D02*
X0057316Y0064309D01*
X0057563Y0062711D02*
X0158163Y0062711D01*
X0158163Y0061112D02*
X0145824Y0061112D01*
X0145538Y0061398D02*
X0140582Y0061398D01*
X0139879Y0060695D01*
X0139879Y0055739D01*
X0140582Y0055036D01*
X0145538Y0055036D01*
X0146241Y0055739D01*
X0146241Y0060695D01*
X0145538Y0061398D01*
X0145656Y0062910D02*
X0146359Y0063613D01*
X0146359Y0068569D01*
X0145656Y0069272D01*
X0140700Y0069272D01*
X0139997Y0068569D01*
X0139997Y0063613D01*
X0140700Y0062910D01*
X0145656Y0062910D01*
X0146359Y0064309D02*
X0158410Y0064309D01*
X0160009Y0065908D02*
X0146359Y0065908D01*
X0146359Y0067506D02*
X0160825Y0067506D01*
X0159226Y0069105D02*
X0145824Y0069105D01*
X0145538Y0070784D02*
X0146241Y0071487D01*
X0146241Y0076444D01*
X0145538Y0077146D01*
X0140582Y0077146D01*
X0139879Y0076444D01*
X0139879Y0071487D01*
X0140582Y0070784D01*
X0145538Y0070784D01*
X0146241Y0072302D02*
X0158163Y0072302D01*
X0158163Y0073900D02*
X0146241Y0073900D01*
X0146241Y0075499D02*
X0159600Y0075499D01*
X0159635Y0078696D02*
X0145654Y0078696D01*
X0145538Y0078580D02*
X0146241Y0079282D01*
X0146241Y0084239D01*
X0145538Y0084942D01*
X0140582Y0084942D01*
X0139879Y0084239D01*
X0139879Y0079282D01*
X0140582Y0078580D01*
X0145538Y0078580D01*
X0145587Y0077097D02*
X0163924Y0077097D01*
X0167563Y0080294D02*
X0193183Y0080294D01*
X0192963Y0081893D02*
X0167563Y0081893D01*
X0167563Y0083491D02*
X0193260Y0083491D01*
X0194223Y0085090D02*
X0167953Y0085090D01*
X0168538Y0086688D02*
X0196860Y0086688D01*
X0198866Y0086688D02*
X0198941Y0086688D01*
X0198941Y0088287D02*
X0168538Y0088287D01*
X0168538Y0089885D02*
X0198941Y0089885D01*
X0198941Y0091484D02*
X0168538Y0091484D01*
X0168538Y0093082D02*
X0194651Y0093082D01*
X0193437Y0094681D02*
X0168538Y0094681D01*
X0168538Y0096279D02*
X0192963Y0096279D01*
X0193006Y0097878D02*
X0168538Y0097878D01*
X0168538Y0099476D02*
X0193668Y0099476D01*
X0195379Y0101075D02*
X0168538Y0101075D01*
X0168538Y0102673D02*
X0195060Y0102673D01*
X0193606Y0104272D02*
X0168538Y0104272D01*
X0167093Y0105870D02*
X0192963Y0105870D01*
X0192963Y0107469D02*
X0167082Y0107469D01*
X0168681Y0109068D02*
X0193499Y0109068D01*
X0194799Y0110666D02*
X0169131Y0110666D01*
X0169131Y0112265D02*
X0196008Y0112265D01*
X0193870Y0113863D02*
X0169131Y0113863D01*
X0168381Y0115462D02*
X0193114Y0115462D01*
X0192963Y0117060D02*
X0166783Y0117060D01*
X0166116Y0118659D02*
X0170170Y0118659D01*
X0169762Y0118828D02*
X0170931Y0118343D01*
X0172197Y0118343D01*
X0173366Y0118828D01*
X0174261Y0119722D01*
X0174745Y0120892D01*
X0174745Y0122157D01*
X0174261Y0123326D01*
X0173366Y0124221D01*
X0172197Y0124705D01*
X0170931Y0124705D01*
X0169762Y0124221D01*
X0168867Y0123326D01*
X0168383Y0122157D01*
X0168383Y0120892D01*
X0168867Y0119722D01*
X0169762Y0118828D01*
X0168646Y0120257D02*
X0166116Y0120257D01*
X0166116Y0121856D02*
X0168383Y0121856D01*
X0168995Y0123454D02*
X0166116Y0123454D01*
X0166116Y0125053D02*
X0193283Y0125053D01*
X0192963Y0126651D02*
X0166116Y0126651D01*
X0166116Y0128250D02*
X0193160Y0128250D01*
X0193982Y0129848D02*
X0166116Y0129848D01*
X0166116Y0131447D02*
X0196277Y0131447D01*
X0194688Y0133045D02*
X0166116Y0133045D01*
X0166116Y0134644D02*
X0193452Y0134644D01*
X0192963Y0136242D02*
X0166116Y0136242D01*
X0166116Y0137841D02*
X0192990Y0137841D01*
X0193652Y0139439D02*
X0166116Y0139439D01*
X0166116Y0141038D02*
X0195289Y0141038D01*
X0195111Y0142636D02*
X0172014Y0142636D01*
X0173442Y0144235D02*
X0193622Y0144235D01*
X0192963Y0145833D02*
X0174067Y0145833D01*
X0174067Y0147432D02*
X0192963Y0147432D01*
X0193483Y0149030D02*
X0173513Y0149030D01*
X0172187Y0150629D02*
X0194762Y0150629D01*
X0194800Y0152227D02*
X0166116Y0152227D01*
X0166116Y0150629D02*
X0166147Y0150629D01*
X0166116Y0153826D02*
X0193225Y0153826D01*
X0192527Y0155424D02*
X0166116Y0155424D01*
X0166116Y0157023D02*
X0192363Y0157023D01*
X0192672Y0158621D02*
X0166116Y0158621D01*
X0166116Y0160220D02*
X0166741Y0160220D01*
X0171592Y0160220D02*
X0193549Y0160220D01*
X0195597Y0161818D02*
X0173352Y0161818D01*
X0174014Y0163417D02*
X0194316Y0163417D01*
X0193298Y0165015D02*
X0174067Y0165015D01*
X0173603Y0166614D02*
X0192963Y0166614D01*
X0193144Y0168212D02*
X0172403Y0168212D01*
X0166566Y0169811D02*
X0193944Y0169811D01*
X0196187Y0171409D02*
X0166566Y0171409D01*
X0166566Y0173008D02*
X0194725Y0173008D01*
X0193468Y0174606D02*
X0166566Y0174606D01*
X0166566Y0176205D02*
X0192963Y0176205D01*
X0192975Y0177803D02*
X0166566Y0177803D01*
X0166566Y0179402D02*
X0193637Y0179402D01*
X0195200Y0181001D02*
X0166566Y0181001D01*
X0166566Y0182599D02*
X0195201Y0182599D01*
X0193637Y0184198D02*
X0166566Y0184198D01*
X0166637Y0185796D02*
X0181923Y0185796D01*
X0182702Y0185796D02*
X0183102Y0185796D01*
X0183882Y0185796D02*
X0192975Y0185796D01*
X0192963Y0187395D02*
X0186866Y0187395D01*
X0187946Y0188993D02*
X0193468Y0188993D01*
X0194725Y0190592D02*
X0188373Y0190592D01*
X0188316Y0192190D02*
X0197733Y0192190D01*
X0196135Y0193789D02*
X0187761Y0193789D01*
X0183102Y0190592D02*
X0182702Y0190592D01*
X0182702Y0188993D02*
X0183102Y0188993D01*
X0183102Y0187395D02*
X0182702Y0187395D01*
X0178939Y0187395D02*
X0176017Y0187395D01*
X0177288Y0188993D02*
X0177859Y0188993D01*
X0169788Y0187395D02*
X0168235Y0187395D01*
X0159060Y0185796D02*
X0149485Y0185796D01*
X0148063Y0185796D02*
X0147663Y0185796D01*
X0146241Y0185796D02*
X0139485Y0185796D01*
X0138063Y0185796D02*
X0137663Y0185796D01*
X0136241Y0185796D02*
X0120928Y0185796D01*
X0122523Y0187395D02*
X0133742Y0187395D01*
X0132749Y0188993D02*
X0123185Y0188993D01*
X0123505Y0190592D02*
X0132367Y0190592D01*
X0132475Y0192190D02*
X0123505Y0192190D01*
X0122904Y0193789D02*
X0133085Y0193789D01*
X0137663Y0190592D02*
X0138063Y0190592D01*
X0138063Y0188993D02*
X0137663Y0188993D01*
X0137663Y0187395D02*
X0138063Y0187395D01*
X0141984Y0187395D02*
X0143742Y0187395D01*
X0147663Y0187395D02*
X0148063Y0187395D01*
X0148063Y0188993D02*
X0147663Y0188993D01*
X0147663Y0190592D02*
X0148063Y0190592D01*
X0151984Y0187395D02*
X0157569Y0187395D01*
X0156819Y0188993D02*
X0152977Y0188993D01*
X0153359Y0190592D02*
X0156434Y0190592D01*
X0156434Y0192190D02*
X0153251Y0192190D01*
X0152641Y0193789D02*
X0156969Y0193789D01*
X0159060Y0184198D02*
X0049143Y0184198D01*
X0050741Y0185796D02*
X0068656Y0185796D01*
X0076440Y0185796D02*
X0078656Y0185796D01*
X0086440Y0185796D02*
X0103144Y0185796D01*
X0101550Y0187395D02*
X0088035Y0187395D01*
X0088697Y0188993D02*
X0100888Y0188993D01*
X0100568Y0190592D02*
X0089017Y0190592D01*
X0089017Y0192190D02*
X0100568Y0192190D01*
X0101168Y0193789D02*
X0088416Y0193789D01*
X0110928Y0185796D02*
X0113144Y0185796D01*
X0116144Y0165015D02*
X0118086Y0165015D01*
X0117351Y0163417D02*
X0116879Y0163417D01*
X0117015Y0161818D02*
X0117215Y0161818D01*
X0117596Y0160220D02*
X0116634Y0160220D01*
X0115551Y0158621D02*
X0118679Y0158621D01*
X0125551Y0158621D02*
X0158610Y0158621D01*
X0158610Y0157023D02*
X0056616Y0157023D01*
X0056616Y0158621D02*
X0058679Y0158621D01*
X0059339Y0157961D02*
X0061140Y0157215D01*
X0063090Y0157215D01*
X0064891Y0157961D01*
X0066269Y0159339D01*
X0067015Y0161140D01*
X0067015Y0163090D01*
X0066269Y0164891D01*
X0064891Y0166269D01*
X0063090Y0167015D01*
X0061140Y0167015D01*
X0059339Y0166269D01*
X0057961Y0164891D01*
X0057215Y0163090D01*
X0057215Y0161140D01*
X0057961Y0159339D01*
X0059339Y0157961D01*
X0057596Y0160220D02*
X0056616Y0160220D01*
X0056616Y0161818D02*
X0057215Y0161818D01*
X0057351Y0163417D02*
X0056616Y0163417D01*
X0056616Y0165015D02*
X0058086Y0165015D01*
X0056616Y0166614D02*
X0060172Y0166614D01*
X0064058Y0166614D02*
X0070172Y0166614D01*
X0069339Y0166269D02*
X0067961Y0164891D01*
X0067215Y0163090D01*
X0067215Y0161140D01*
X0067961Y0159339D01*
X0069339Y0157961D01*
X0071140Y0157215D01*
X0073090Y0157215D01*
X0074891Y0157961D01*
X0076269Y0159339D01*
X0077015Y0161140D01*
X0077015Y0163090D01*
X0076269Y0164891D01*
X0074891Y0166269D01*
X0073090Y0167015D01*
X0071140Y0167015D01*
X0069339Y0166269D01*
X0068086Y0165015D02*
X0066144Y0165015D01*
X0066879Y0163417D02*
X0067351Y0163417D01*
X0067215Y0161818D02*
X0067015Y0161818D01*
X0066634Y0160220D02*
X0067596Y0160220D01*
X0068679Y0158621D02*
X0065551Y0158621D01*
X0063870Y0150629D02*
X0070360Y0150629D01*
X0068164Y0149030D02*
X0066066Y0149030D01*
X0066847Y0147432D02*
X0067383Y0147432D01*
X0067215Y0145833D02*
X0067015Y0145833D01*
X0066666Y0144235D02*
X0067564Y0144235D01*
X0068601Y0142636D02*
X0065629Y0142636D01*
X0063463Y0141038D02*
X0070463Y0141038D01*
X0070463Y0139439D02*
X0063463Y0139439D01*
X0063463Y0137841D02*
X0070463Y0137841D01*
X0070463Y0136242D02*
X0063463Y0136242D01*
X0063463Y0134644D02*
X0070463Y0134644D01*
X0070463Y0133045D02*
X0063463Y0133045D01*
X0063463Y0131447D02*
X0070463Y0131447D01*
X0070463Y0129848D02*
X0063463Y0129848D01*
X0063463Y0128250D02*
X0070463Y0128250D01*
X0070463Y0126651D02*
X0063463Y0126651D01*
X0063463Y0125053D02*
X0070463Y0125053D01*
X0070463Y0123454D02*
X0063463Y0123454D01*
X0063463Y0121856D02*
X0070463Y0121856D01*
X0070463Y0120257D02*
X0063463Y0120257D01*
X0063463Y0118659D02*
X0070463Y0118659D01*
X0070463Y0117060D02*
X0063463Y0117060D01*
X0063463Y0115462D02*
X0070463Y0115462D01*
X0070463Y0113863D02*
X0063463Y0113863D01*
X0063463Y0112265D02*
X0070463Y0112265D01*
X0070463Y0110666D02*
X0063463Y0110666D01*
X0063463Y0109068D02*
X0070463Y0109068D01*
X0070463Y0107469D02*
X0063463Y0107469D01*
X0063463Y0105870D02*
X0070463Y0105870D01*
X0070463Y0104272D02*
X0063463Y0104272D01*
X0063463Y0102673D02*
X0070463Y0102673D01*
X0069137Y0101075D02*
X0063463Y0101075D01*
X0063463Y0099476D02*
X0067539Y0099476D01*
X0065940Y0097878D02*
X0063463Y0097878D01*
X0063463Y0096279D02*
X0064342Y0096279D01*
X0066844Y0094681D02*
X0069756Y0094681D01*
X0069406Y0096279D02*
X0068443Y0096279D01*
X0070109Y0092855D02*
X0069406Y0092152D01*
X0069406Y0087196D01*
X0070109Y0086493D01*
X0075066Y0086493D01*
X0075768Y0087196D01*
X0075768Y0092152D01*
X0075066Y0092855D01*
X0070109Y0092855D01*
X0069406Y0091484D02*
X0064363Y0091484D01*
X0064363Y0089885D02*
X0069406Y0089885D01*
X0069406Y0088287D02*
X0064363Y0088287D01*
X0064363Y0086688D02*
X0069914Y0086688D01*
X0070030Y0085020D02*
X0069328Y0084318D01*
X0069328Y0079361D01*
X0070030Y0078658D01*
X0074987Y0078658D01*
X0075690Y0079361D01*
X0075690Y0084318D01*
X0074987Y0085020D01*
X0070030Y0085020D01*
X0069328Y0083491D02*
X0064363Y0083491D01*
X0064363Y0081893D02*
X0069328Y0081893D01*
X0069328Y0080294D02*
X0064363Y0080294D01*
X0064363Y0078696D02*
X0069993Y0078696D01*
X0070109Y0077068D02*
X0069406Y0076365D01*
X0069406Y0071408D01*
X0070109Y0070706D01*
X0075066Y0070706D01*
X0075768Y0071408D01*
X0075768Y0076365D01*
X0075066Y0077068D01*
X0070109Y0077068D01*
X0069406Y0075499D02*
X0064363Y0075499D01*
X0064363Y0077097D02*
X0140533Y0077097D01*
X0140465Y0078696D02*
X0075024Y0078696D01*
X0075690Y0080294D02*
X0139879Y0080294D01*
X0139879Y0081893D02*
X0075690Y0081893D01*
X0075690Y0083491D02*
X0139879Y0083491D01*
X0140386Y0086688D02*
X0075261Y0086688D01*
X0075768Y0088287D02*
X0139879Y0088287D01*
X0139879Y0089885D02*
X0075768Y0089885D01*
X0075768Y0091484D02*
X0138453Y0091484D01*
X0136855Y0093082D02*
X0112035Y0093082D01*
X0112049Y0093088D02*
X0113386Y0094425D01*
X0114109Y0096170D01*
X0114109Y0098060D01*
X0113386Y0099805D01*
X0112049Y0101141D01*
X0110304Y0101865D01*
X0108414Y0101865D01*
X0106669Y0101141D01*
X0106395Y0100868D01*
X0104614Y0100868D01*
X0101694Y0103788D01*
X0101694Y0122665D01*
X0101123Y0124044D01*
X0100067Y0125100D01*
X0097180Y0127987D01*
X0097180Y0128375D01*
X0096456Y0130120D01*
X0095120Y0131456D01*
X0093375Y0132180D01*
X0091485Y0132180D01*
X0089739Y0131456D01*
X0088403Y0130120D01*
X0087680Y0128375D01*
X0087680Y0126485D01*
X0088403Y0124739D01*
X0089739Y0123403D01*
X0091485Y0122680D01*
X0091872Y0122680D01*
X0094189Y0120364D01*
X0094189Y0101487D01*
X0094760Y0100107D01*
X0099878Y0094989D01*
X0100934Y0093934D01*
X0102313Y0093362D01*
X0106395Y0093362D01*
X0106669Y0093088D01*
X0108414Y0092365D01*
X0110304Y0092365D01*
X0112049Y0093088D01*
X0113492Y0094681D02*
X0135256Y0094681D01*
X0133658Y0096279D02*
X0114109Y0096279D01*
X0114109Y0097878D02*
X0132059Y0097878D01*
X0130461Y0099476D02*
X0113522Y0099476D01*
X0112116Y0101075D02*
X0128862Y0101075D01*
X0127264Y0102673D02*
X0102809Y0102673D01*
X0101694Y0104272D02*
X0125665Y0104272D01*
X0124067Y0105870D02*
X0101694Y0105870D01*
X0101694Y0107469D02*
X0122468Y0107469D01*
X0120870Y0109068D02*
X0101694Y0109068D01*
X0101694Y0110666D02*
X0119271Y0110666D01*
X0117673Y0112265D02*
X0101694Y0112265D01*
X0101694Y0113863D02*
X0116074Y0113863D01*
X0114476Y0115462D02*
X0101694Y0115462D01*
X0101694Y0117060D02*
X0112877Y0117060D01*
X0111279Y0118659D02*
X0101694Y0118659D01*
X0101694Y0120257D02*
X0109680Y0120257D01*
X0108082Y0121856D02*
X0101694Y0121856D01*
X0101367Y0123454D02*
X0106483Y0123454D01*
X0104885Y0125053D02*
X0100114Y0125053D01*
X0098516Y0126651D02*
X0103286Y0126651D01*
X0101688Y0128250D02*
X0097180Y0128250D01*
X0096569Y0129848D02*
X0100089Y0129848D01*
X0098491Y0131447D02*
X0095130Y0131447D01*
X0096892Y0133045D02*
X0073363Y0133045D01*
X0073363Y0131447D02*
X0089730Y0131447D01*
X0088291Y0129848D02*
X0073363Y0129848D01*
X0073363Y0128250D02*
X0087680Y0128250D01*
X0087680Y0126651D02*
X0073363Y0126651D01*
X0073363Y0125053D02*
X0088274Y0125053D01*
X0089689Y0123454D02*
X0073363Y0123454D01*
X0073363Y0121856D02*
X0092697Y0121856D01*
X0094189Y0120257D02*
X0073363Y0120257D01*
X0073363Y0118659D02*
X0094189Y0118659D01*
X0094189Y0117060D02*
X0073363Y0117060D01*
X0073363Y0115462D02*
X0094189Y0115462D01*
X0094189Y0113863D02*
X0073363Y0113863D01*
X0073363Y0112265D02*
X0094189Y0112265D01*
X0094189Y0110666D02*
X0073363Y0110666D01*
X0073363Y0109068D02*
X0094189Y0109068D01*
X0094189Y0107469D02*
X0073363Y0107469D01*
X0073363Y0105870D02*
X0094189Y0105870D01*
X0094189Y0104272D02*
X0073363Y0104272D01*
X0073363Y0102673D02*
X0094189Y0102673D01*
X0094359Y0101075D02*
X0073239Y0101075D01*
X0075768Y0099476D02*
X0095391Y0099476D01*
X0096990Y0097878D02*
X0075768Y0097878D01*
X0075768Y0096279D02*
X0098588Y0096279D01*
X0100187Y0094681D02*
X0075419Y0094681D01*
X0065246Y0093082D02*
X0106683Y0093082D01*
X0106602Y0101075D02*
X0104407Y0101075D01*
X0129011Y0125053D02*
X0158610Y0125053D01*
X0158610Y0126651D02*
X0127412Y0126651D01*
X0125814Y0128250D02*
X0158610Y0128250D01*
X0158610Y0129848D02*
X0124215Y0129848D01*
X0122617Y0131447D02*
X0158610Y0131447D01*
X0158610Y0133045D02*
X0121018Y0133045D01*
X0119420Y0134644D02*
X0158610Y0134644D01*
X0158610Y0136242D02*
X0117821Y0136242D01*
X0116223Y0137841D02*
X0158610Y0137841D01*
X0158610Y0139439D02*
X0114624Y0139439D01*
X0113026Y0141038D02*
X0158610Y0141038D01*
X0158610Y0142636D02*
X0146414Y0142636D01*
X0146343Y0142565D02*
X0147721Y0143943D01*
X0148467Y0145744D01*
X0148467Y0147694D01*
X0147721Y0149495D01*
X0146343Y0150873D01*
X0144542Y0151619D01*
X0142592Y0151619D01*
X0140791Y0150873D01*
X0139413Y0149495D01*
X0138667Y0147694D01*
X0138667Y0145744D01*
X0139413Y0143943D01*
X0140791Y0142565D01*
X0142592Y0141819D01*
X0144542Y0141819D01*
X0146343Y0142565D01*
X0147842Y0144235D02*
X0158610Y0144235D01*
X0158610Y0145833D02*
X0148467Y0145833D01*
X0148467Y0147432D02*
X0158610Y0147432D01*
X0158610Y0149030D02*
X0147913Y0149030D01*
X0146587Y0150629D02*
X0158610Y0150629D01*
X0158610Y0152227D02*
X0056616Y0152227D01*
X0056616Y0150629D02*
X0060360Y0150629D01*
X0058164Y0149030D02*
X0056616Y0149030D01*
X0056616Y0147432D02*
X0057383Y0147432D01*
X0057215Y0145833D02*
X0056616Y0145833D01*
X0056616Y0144235D02*
X0057564Y0144235D01*
X0056616Y0142636D02*
X0058601Y0142636D01*
X0060563Y0141038D02*
X0056616Y0141038D01*
X0056616Y0139439D02*
X0060563Y0139439D01*
X0060563Y0137841D02*
X0056616Y0137841D01*
X0057045Y0136242D02*
X0060563Y0136242D01*
X0060563Y0134644D02*
X0057613Y0134644D01*
X0057613Y0133045D02*
X0060563Y0133045D01*
X0060563Y0131447D02*
X0056977Y0131447D01*
X0055430Y0129848D02*
X0060563Y0129848D01*
X0060563Y0128250D02*
X0019070Y0128250D01*
X0020668Y0129848D02*
X0050296Y0129848D01*
X0048749Y0131447D02*
X0022267Y0131447D01*
X0023865Y0133045D02*
X0048113Y0133045D01*
X0048113Y0134644D02*
X0025464Y0134644D01*
X0027062Y0136242D02*
X0048681Y0136242D01*
X0049110Y0137841D02*
X0028661Y0137841D01*
X0030259Y0139439D02*
X0049110Y0139439D01*
X0047484Y0141038D02*
X0031858Y0141038D01*
X0033456Y0142636D02*
X0045836Y0142636D01*
X0045548Y0144235D02*
X0035055Y0144235D01*
X0036653Y0145833D02*
X0046098Y0145833D01*
X0047332Y0147432D02*
X0038252Y0147432D01*
X0039850Y0149030D02*
X0047332Y0149030D01*
X0047332Y0150629D02*
X0041449Y0150629D01*
X0043047Y0152227D02*
X0047332Y0152227D01*
X0047332Y0153826D02*
X0044646Y0153826D01*
X0046245Y0155424D02*
X0047332Y0155424D01*
X0047331Y0157023D02*
X0047332Y0157023D01*
X0040035Y0159829D02*
X0040035Y0165814D01*
X0038205Y0165056D01*
X0035631Y0165056D01*
X0033254Y0166041D01*
X0031434Y0167860D01*
X0031068Y0168745D01*
X0029694Y0167370D01*
X0027893Y0166624D01*
X0025943Y0166624D01*
X0024142Y0167370D01*
X0022764Y0168749D01*
X0022223Y0170054D01*
X0022015Y0169413D01*
X0021622Y0168642D01*
X0021113Y0167941D01*
X0020501Y0167329D01*
X0019801Y0166820D01*
X0019029Y0166427D01*
X0018206Y0166160D01*
X0017351Y0166024D01*
X0017118Y0166024D01*
X0017118Y0171324D01*
X0016718Y0171324D01*
X0016718Y0166024D01*
X0016485Y0166024D01*
X0015630Y0166160D01*
X0014807Y0166427D01*
X0014035Y0166820D01*
X0013335Y0167329D01*
X0012723Y0167941D01*
X0012214Y0168642D01*
X0011821Y0169413D01*
X0011554Y0170236D01*
X0011418Y0171092D01*
X0011418Y0171324D01*
X0016718Y0171324D01*
X0016718Y0171724D01*
X0011418Y0171724D01*
X0011418Y0171957D01*
X0011554Y0172812D01*
X0011821Y0173636D01*
X0012214Y0174407D01*
X0012723Y0175107D01*
X0013335Y0175720D01*
X0014035Y0176228D01*
X0014807Y0176621D01*
X0015630Y0176889D01*
X0016485Y0177024D01*
X0016718Y0177024D01*
X0016718Y0171724D01*
X0017118Y0171724D01*
X0017118Y0177024D01*
X0017351Y0177024D01*
X0018206Y0176889D01*
X0019029Y0176621D01*
X0019801Y0176228D01*
X0020501Y0175720D01*
X0021113Y0175107D01*
X0021622Y0174407D01*
X0022015Y0173636D01*
X0022223Y0172995D01*
X0022764Y0174300D01*
X0024142Y0175678D01*
X0025943Y0176424D01*
X0027893Y0176424D01*
X0029694Y0175678D01*
X0031068Y0174304D01*
X0031434Y0175189D01*
X0033060Y0176814D01*
X0033060Y0180121D01*
X0028440Y0184741D01*
X0025946Y0184741D01*
X0023569Y0185726D01*
X0022233Y0187062D01*
X0020897Y0185726D01*
X0018520Y0184741D01*
X0015946Y0184741D01*
X0013569Y0185726D01*
X0011749Y0187545D01*
X0010765Y0189923D01*
X0010765Y0192496D01*
X0011461Y0194177D01*
X0009980Y0194177D01*
X0007179Y0191376D01*
X0007179Y0156700D01*
X0008838Y0156700D01*
X0010639Y0155954D01*
X0012017Y0154576D01*
X0012763Y0152775D01*
X0012763Y0150825D01*
X0012017Y0149024D01*
X0010639Y0147646D01*
X0008838Y0146900D01*
X0007179Y0146900D01*
X0007179Y0146700D01*
X0008838Y0146700D01*
X0010639Y0145954D01*
X0012017Y0144576D01*
X0012763Y0142775D01*
X0012763Y0140825D01*
X0012017Y0139024D01*
X0010639Y0137646D01*
X0008838Y0136900D01*
X0007179Y0136900D01*
X0007179Y0136700D01*
X0008838Y0136700D01*
X0010163Y0136151D01*
X0016841Y0142829D01*
X0017000Y0143213D01*
X0017900Y0144113D01*
X0019076Y0144600D01*
X0020350Y0144600D01*
X0021526Y0144113D01*
X0022426Y0143213D01*
X0022717Y0142511D01*
X0040035Y0159829D01*
X0040035Y0160220D02*
X0007179Y0160220D01*
X0007179Y0161818D02*
X0040035Y0161818D01*
X0040035Y0163417D02*
X0007179Y0163417D01*
X0007179Y0165015D02*
X0040035Y0165015D01*
X0038827Y0158621D02*
X0007179Y0158621D01*
X0007179Y0157023D02*
X0037229Y0157023D01*
X0035630Y0155424D02*
X0011168Y0155424D01*
X0012328Y0153826D02*
X0034032Y0153826D01*
X0032433Y0152227D02*
X0012763Y0152227D01*
X0012682Y0150629D02*
X0030835Y0150629D01*
X0029236Y0149030D02*
X0012019Y0149030D01*
X0010121Y0147432D02*
X0027638Y0147432D01*
X0026039Y0145833D02*
X0010759Y0145833D01*
X0012158Y0144235D02*
X0018195Y0144235D01*
X0016649Y0142636D02*
X0012763Y0142636D01*
X0012763Y0141038D02*
X0015050Y0141038D01*
X0013452Y0139439D02*
X0012189Y0139439D01*
X0011853Y0137841D02*
X0010833Y0137841D01*
X0010255Y0136242D02*
X0009943Y0136242D01*
X0017471Y0126651D02*
X0060563Y0126651D01*
X0060563Y0125053D02*
X0015873Y0125053D01*
X0014274Y0123454D02*
X0060563Y0123454D01*
X0060563Y0121856D02*
X0014331Y0121856D01*
X0014225Y0120257D02*
X0060563Y0120257D01*
X0060563Y0118659D02*
X0013563Y0118659D01*
X0012271Y0117060D02*
X0050313Y0117060D01*
X0050668Y0117415D02*
X0047563Y0114310D01*
X0047563Y0112115D01*
X0052863Y0112115D01*
X0052863Y0112115D01*
X0052863Y0117415D01*
X0055058Y0117415D01*
X0058163Y0114310D01*
X0058163Y0112115D01*
X0052863Y0112115D01*
X0052863Y0112115D01*
X0052863Y0117415D01*
X0050668Y0117415D01*
X0052863Y0117060D02*
X0052863Y0117060D01*
X0052863Y0115462D02*
X0052863Y0115462D01*
X0052863Y0113863D02*
X0052863Y0113863D01*
X0052863Y0112265D02*
X0052863Y0112265D01*
X0052863Y0112115D02*
X0052863Y0112115D01*
X0058163Y0112115D01*
X0058163Y0109920D01*
X0055358Y0107115D01*
X0058163Y0104310D01*
X0058163Y0102115D01*
X0052863Y0102115D01*
X0052863Y0102115D01*
X0052863Y0106815D01*
X0052863Y0112115D01*
X0052863Y0112115D01*
X0047563Y0112115D01*
X0047563Y0109920D01*
X0050368Y0107115D01*
X0047563Y0104310D01*
X0047563Y0102115D01*
X0052863Y0102115D01*
X0052863Y0102115D01*
X0052863Y0112115D01*
X0052863Y0110666D02*
X0052863Y0110666D01*
X0052863Y0109068D02*
X0052863Y0109068D01*
X0052863Y0107469D02*
X0052863Y0107469D01*
X0052863Y0105870D02*
X0052863Y0105870D01*
X0052863Y0104272D02*
X0052863Y0104272D01*
X0052863Y0102673D02*
X0052863Y0102673D01*
X0052863Y0102115D02*
X0052863Y0102115D01*
X0058163Y0102115D01*
X0058163Y0099920D01*
X0055058Y0096815D01*
X0052863Y0096815D01*
X0052863Y0102115D01*
X0052863Y0102115D01*
X0052863Y0096815D01*
X0050668Y0096815D01*
X0047563Y0099920D01*
X0047563Y0102115D01*
X0052863Y0102115D01*
X0052863Y0101075D02*
X0052863Y0101075D01*
X0052863Y0099476D02*
X0052863Y0099476D01*
X0052863Y0097878D02*
X0052863Y0097878D01*
X0054810Y0096815D02*
X0050916Y0096815D01*
X0048163Y0094062D01*
X0048163Y0090168D01*
X0050916Y0087415D01*
X0054810Y0087415D01*
X0057563Y0090168D01*
X0057563Y0094062D01*
X0054810Y0096815D01*
X0055345Y0096279D02*
X0060563Y0096279D01*
X0060563Y0094681D02*
X0056944Y0094681D01*
X0057563Y0093082D02*
X0060563Y0093082D01*
X0060563Y0091484D02*
X0057563Y0091484D01*
X0057280Y0089885D02*
X0060563Y0089885D01*
X0060563Y0088287D02*
X0055682Y0088287D01*
X0054810Y0086815D02*
X0050916Y0086815D01*
X0048163Y0084062D01*
X0048163Y0080168D01*
X0050916Y0077415D01*
X0054810Y0077415D01*
X0057563Y0080168D01*
X0057563Y0084062D01*
X0054810Y0086815D01*
X0054936Y0086688D02*
X0060563Y0086688D01*
X0060563Y0085090D02*
X0056535Y0085090D01*
X0057563Y0083491D02*
X0060563Y0083491D01*
X0060530Y0081893D02*
X0057563Y0081893D01*
X0057563Y0080294D02*
X0058932Y0080294D01*
X0057333Y0078696D02*
X0056091Y0078696D01*
X0055735Y0077097D02*
X0009314Y0077097D01*
X0007179Y0075499D02*
X0049600Y0075499D01*
X0048163Y0073900D02*
X0007179Y0073900D01*
X0007179Y0072302D02*
X0048163Y0072302D01*
X0048163Y0070703D02*
X0007179Y0070703D01*
X0007179Y0069105D02*
X0049226Y0069105D01*
X0050825Y0067506D02*
X0007179Y0067506D01*
X0010685Y0065908D02*
X0050009Y0065908D01*
X0048410Y0064309D02*
X0012127Y0064309D01*
X0012763Y0062711D02*
X0048163Y0062711D01*
X0048163Y0061112D02*
X0012763Y0061112D01*
X0012220Y0059514D02*
X0048817Y0059514D01*
X0050416Y0057915D02*
X0010908Y0057915D01*
X0009763Y0056317D02*
X0050418Y0056317D01*
X0048819Y0054718D02*
X0011874Y0054718D01*
X0012620Y0053120D02*
X0048163Y0053120D01*
X0048163Y0051521D02*
X0012763Y0051521D01*
X0012389Y0049923D02*
X0048409Y0049923D01*
X0050007Y0048324D02*
X0011317Y0048324D01*
X0011466Y0045127D02*
X0048163Y0045127D01*
X0048163Y0043529D02*
X0012451Y0043529D01*
X0012763Y0041930D02*
X0048163Y0041930D01*
X0048163Y0040332D02*
X0012558Y0040332D01*
X0011726Y0038733D02*
X0048163Y0038733D01*
X0048777Y0046726D02*
X0007179Y0046726D01*
X0011688Y0078696D02*
X0049635Y0078696D01*
X0048163Y0080294D02*
X0012543Y0080294D01*
X0012763Y0081893D02*
X0048163Y0081893D01*
X0048163Y0083491D02*
X0012466Y0083491D01*
X0011503Y0085090D02*
X0049191Y0085090D01*
X0050790Y0086688D02*
X0009929Y0086688D01*
X0012109Y0088287D02*
X0050044Y0088287D01*
X0048446Y0089885D02*
X0013024Y0089885D01*
X0013363Y0091484D02*
X0048163Y0091484D01*
X0048163Y0093082D02*
X0013228Y0093082D01*
X0012568Y0094681D02*
X0048782Y0094681D01*
X0050381Y0096279D02*
X0011055Y0096279D01*
X0011719Y0097878D02*
X0049605Y0097878D01*
X0048006Y0099476D02*
X0012852Y0099476D01*
X0013317Y0101075D02*
X0047563Y0101075D01*
X0047563Y0102673D02*
X0013293Y0102673D01*
X0012776Y0104272D02*
X0047563Y0104272D01*
X0049123Y0105870D02*
X0011571Y0105870D01*
X0012680Y0107469D02*
X0050014Y0107469D01*
X0048415Y0109068D02*
X0013733Y0109068D01*
X0014331Y0110666D02*
X0047563Y0110666D01*
X0047563Y0112265D02*
X0014331Y0112265D01*
X0014010Y0113863D02*
X0047563Y0113863D01*
X0048714Y0115462D02*
X0013348Y0115462D01*
X0008063Y0101600D02*
X0008063Y0092000D01*
X0007663Y0092000D01*
X0007663Y0097300D01*
X0007663Y0101600D01*
X0008063Y0101600D01*
X0008063Y0101075D02*
X0007663Y0101075D01*
X0007663Y0099476D02*
X0008063Y0099476D01*
X0008063Y0097878D02*
X0007663Y0097878D01*
X0007663Y0096279D02*
X0008063Y0096279D01*
X0008063Y0094681D02*
X0007663Y0094681D01*
X0007663Y0093082D02*
X0008063Y0093082D01*
X0022665Y0142636D02*
X0022842Y0142636D01*
X0024441Y0144235D02*
X0021231Y0144235D01*
X0019395Y0166614D02*
X0032681Y0166614D01*
X0031289Y0168212D02*
X0030536Y0168212D01*
X0030766Y0174606D02*
X0031193Y0174606D01*
X0032451Y0176205D02*
X0028423Y0176205D01*
X0025414Y0176205D02*
X0019833Y0176205D01*
X0021477Y0174606D02*
X0023071Y0174606D01*
X0022229Y0173008D02*
X0022219Y0173008D01*
X0022144Y0169811D02*
X0022324Y0169811D01*
X0023300Y0168212D02*
X0021310Y0168212D01*
X0017118Y0168212D02*
X0016718Y0168212D01*
X0016718Y0166614D02*
X0017118Y0166614D01*
X0014441Y0166614D02*
X0007179Y0166614D01*
X0007179Y0168212D02*
X0012526Y0168212D01*
X0011692Y0169811D02*
X0007179Y0169811D01*
X0007179Y0171409D02*
X0016718Y0171409D01*
X0016718Y0169811D02*
X0017118Y0169811D01*
X0017118Y0173008D02*
X0016718Y0173008D01*
X0016718Y0174606D02*
X0017118Y0174606D01*
X0017118Y0176205D02*
X0016718Y0176205D01*
X0014003Y0176205D02*
X0007179Y0176205D01*
X0007179Y0177803D02*
X0033060Y0177803D01*
X0033060Y0179402D02*
X0007179Y0179402D01*
X0007179Y0181001D02*
X0032180Y0181001D01*
X0030582Y0182599D02*
X0007179Y0182599D01*
X0007179Y0184198D02*
X0028983Y0184198D01*
X0023499Y0185796D02*
X0020968Y0185796D01*
X0013499Y0185796D02*
X0007179Y0185796D01*
X0007179Y0187395D02*
X0011900Y0187395D01*
X0011150Y0188993D02*
X0007179Y0188993D01*
X0007179Y0190592D02*
X0010765Y0190592D01*
X0010765Y0192190D02*
X0007992Y0192190D01*
X0009591Y0193789D02*
X0011300Y0193789D01*
X0012359Y0174606D02*
X0007179Y0174606D01*
X0007179Y0173008D02*
X0011617Y0173008D01*
X0047541Y0177803D02*
X0049096Y0177803D01*
X0047541Y0179402D02*
X0050694Y0179402D01*
X0053047Y0177803D02*
X0144372Y0177803D01*
X0144375Y0181001D02*
X0047541Y0181001D01*
X0047544Y0182599D02*
X0159060Y0182599D01*
X0159060Y0181001D02*
X0149934Y0181001D01*
X0150335Y0179402D02*
X0159060Y0179402D01*
X0159060Y0177803D02*
X0149937Y0177803D01*
X0159060Y0176205D02*
X0053839Y0176205D01*
X0051493Y0176205D02*
X0051448Y0176205D01*
X0056616Y0155424D02*
X0158610Y0155424D01*
X0158610Y0153826D02*
X0056616Y0153826D01*
X0073870Y0150629D02*
X0080360Y0150629D01*
X0078164Y0149030D02*
X0076066Y0149030D01*
X0076847Y0147432D02*
X0077383Y0147432D01*
X0077215Y0145833D02*
X0077015Y0145833D01*
X0076666Y0144235D02*
X0077564Y0144235D01*
X0078601Y0142636D02*
X0075629Y0142636D01*
X0073363Y0141038D02*
X0088900Y0141038D01*
X0090498Y0139439D02*
X0073363Y0139439D01*
X0073363Y0137841D02*
X0092097Y0137841D01*
X0093695Y0136242D02*
X0073363Y0136242D01*
X0073363Y0134644D02*
X0095294Y0134644D01*
X0087301Y0142636D02*
X0085629Y0142636D01*
X0086847Y0147432D02*
X0087383Y0147432D01*
X0088164Y0149030D02*
X0086066Y0149030D01*
X0083870Y0150629D02*
X0090360Y0150629D01*
X0093870Y0150629D02*
X0100360Y0150629D01*
X0098164Y0149030D02*
X0096066Y0149030D01*
X0096847Y0147432D02*
X0097383Y0147432D01*
X0103870Y0150629D02*
X0110360Y0150629D01*
X0108164Y0149030D02*
X0106066Y0149030D01*
X0106847Y0147432D02*
X0107383Y0147432D01*
X0113870Y0150629D02*
X0120360Y0150629D01*
X0121140Y0150952D02*
X0119339Y0150206D01*
X0117961Y0148828D01*
X0117215Y0147027D01*
X0117215Y0145077D01*
X0117961Y0143276D01*
X0119339Y0141898D01*
X0121140Y0141152D01*
X0123090Y0141152D01*
X0124891Y0141898D01*
X0126269Y0143276D01*
X0127015Y0145077D01*
X0127015Y0147027D01*
X0126269Y0148828D01*
X0124891Y0150206D01*
X0123090Y0150952D01*
X0121140Y0150952D01*
X0118164Y0149030D02*
X0116066Y0149030D01*
X0116847Y0147432D02*
X0117383Y0147432D01*
X0117215Y0145833D02*
X0117015Y0145833D01*
X0116666Y0144235D02*
X0117564Y0144235D01*
X0118601Y0142636D02*
X0115629Y0142636D01*
X0123870Y0150629D02*
X0140547Y0150629D01*
X0139221Y0149030D02*
X0126066Y0149030D01*
X0126847Y0147432D02*
X0138667Y0147432D01*
X0138667Y0145833D02*
X0127015Y0145833D01*
X0126666Y0144235D02*
X0139292Y0144235D01*
X0140720Y0142636D02*
X0125629Y0142636D01*
X0126634Y0160220D02*
X0141141Y0160220D01*
X0139382Y0161818D02*
X0127015Y0161818D01*
X0126879Y0163417D02*
X0138720Y0163417D01*
X0138667Y0165015D02*
X0126144Y0165015D01*
X0137226Y0168212D02*
X0140331Y0168212D01*
X0138082Y0169811D02*
X0159060Y0169811D01*
X0159060Y0171409D02*
X0138281Y0171409D01*
X0137938Y0173008D02*
X0159060Y0173008D01*
X0159060Y0174606D02*
X0136877Y0174606D01*
X0146803Y0168212D02*
X0158783Y0168212D01*
X0158610Y0166614D02*
X0148003Y0166614D01*
X0148467Y0165015D02*
X0158610Y0165015D01*
X0158610Y0163417D02*
X0148414Y0163417D01*
X0147752Y0161818D02*
X0158610Y0161818D01*
X0158610Y0160220D02*
X0145992Y0160220D01*
X0166116Y0142636D02*
X0166320Y0142636D01*
X0158610Y0123454D02*
X0130609Y0123454D01*
X0132208Y0121856D02*
X0158610Y0121856D01*
X0158610Y0120257D02*
X0133806Y0120257D01*
X0135405Y0118659D02*
X0158610Y0118659D01*
X0158610Y0117060D02*
X0137004Y0117060D01*
X0138602Y0115462D02*
X0157345Y0115462D01*
X0156594Y0113863D02*
X0140201Y0113863D01*
X0141799Y0112265D02*
X0156594Y0112265D01*
X0156594Y0110666D02*
X0143398Y0110666D01*
X0144996Y0109068D02*
X0157045Y0109068D01*
X0172958Y0118659D02*
X0193329Y0118659D01*
X0194390Y0120257D02*
X0174482Y0120257D01*
X0174745Y0121856D02*
X0198941Y0121856D01*
X0194279Y0123454D02*
X0174133Y0123454D01*
X0158446Y0089885D02*
X0146241Y0089885D01*
X0146241Y0088287D02*
X0160044Y0088287D01*
X0160790Y0086688D02*
X0145733Y0086688D01*
X0146241Y0083491D02*
X0158163Y0083491D01*
X0158163Y0081893D02*
X0146241Y0081893D01*
X0146241Y0080294D02*
X0158163Y0080294D01*
X0159191Y0085090D02*
X0064363Y0085090D01*
X0061463Y0078696D02*
X0061434Y0078696D01*
X0061463Y0077097D02*
X0059836Y0077097D01*
X0058237Y0075499D02*
X0061463Y0075499D01*
X0061463Y0073900D02*
X0057563Y0073900D01*
X0057563Y0072302D02*
X0061064Y0072302D01*
X0059466Y0070703D02*
X0057563Y0070703D01*
X0057867Y0069105D02*
X0056500Y0069105D01*
X0056269Y0067506D02*
X0054901Y0067506D01*
X0058771Y0065908D02*
X0069446Y0065908D01*
X0069446Y0067506D02*
X0060370Y0067506D01*
X0061968Y0069105D02*
X0069981Y0069105D01*
X0069406Y0072302D02*
X0064363Y0072302D01*
X0064363Y0073900D02*
X0069406Y0073900D01*
X0075768Y0073900D02*
X0139879Y0073900D01*
X0139879Y0072302D02*
X0075768Y0072302D01*
X0075768Y0075499D02*
X0139879Y0075499D01*
X0140532Y0069105D02*
X0075273Y0069105D01*
X0075808Y0067506D02*
X0139997Y0067506D01*
X0139997Y0065908D02*
X0075808Y0065908D01*
X0075808Y0064309D02*
X0139997Y0064309D01*
X0140295Y0061112D02*
X0075470Y0061112D01*
X0075887Y0059514D02*
X0139879Y0059514D01*
X0139879Y0057915D02*
X0075887Y0057915D01*
X0075887Y0056317D02*
X0139879Y0056317D01*
X0140542Y0053485D02*
X0139839Y0052782D01*
X0139839Y0047826D01*
X0140542Y0047123D01*
X0145499Y0047123D01*
X0146202Y0047826D01*
X0146202Y0052782D01*
X0145499Y0053485D01*
X0140542Y0053485D01*
X0140177Y0053120D02*
X0075667Y0053120D01*
X0075887Y0051521D02*
X0139839Y0051521D01*
X0139839Y0049923D02*
X0075887Y0049923D01*
X0075887Y0048324D02*
X0139839Y0048324D01*
X0140058Y0045127D02*
X0075392Y0045127D01*
X0075690Y0043529D02*
X0139839Y0043529D01*
X0139839Y0041930D02*
X0075690Y0041930D01*
X0075690Y0040332D02*
X0139839Y0040332D01*
X0146202Y0048324D02*
X0160007Y0048324D01*
X0158409Y0049923D02*
X0146202Y0049923D01*
X0146202Y0051521D02*
X0158163Y0051521D01*
X0158163Y0053120D02*
X0145864Y0053120D01*
X0146241Y0056317D02*
X0160418Y0056317D01*
X0160416Y0057915D02*
X0146241Y0057915D01*
X0146241Y0059514D02*
X0158817Y0059514D01*
X0158819Y0054718D02*
X0056907Y0054718D01*
X0063567Y0070703D02*
X0158163Y0070703D01*
X0164901Y0067506D02*
X0165638Y0067506D01*
X0168538Y0067506D02*
X0195425Y0067506D01*
X0195041Y0065908D02*
X0168538Y0065908D01*
X0168538Y0064309D02*
X0193599Y0064309D01*
X0192963Y0062711D02*
X0168538Y0062711D01*
X0168538Y0061112D02*
X0192963Y0061112D01*
X0193506Y0059514D02*
X0168538Y0059514D01*
X0168538Y0057915D02*
X0194818Y0057915D01*
X0195963Y0056317D02*
X0168538Y0056317D01*
X0167507Y0054718D02*
X0193851Y0054718D01*
X0193106Y0053120D02*
X0167563Y0053120D01*
X0167563Y0051521D02*
X0192963Y0051521D01*
X0193337Y0049923D02*
X0167317Y0049923D01*
X0165719Y0048324D02*
X0194409Y0048324D01*
X0194260Y0045127D02*
X0167563Y0045127D01*
X0167563Y0043529D02*
X0193275Y0043529D01*
X0192963Y0041930D02*
X0167563Y0041930D01*
X0167563Y0040332D02*
X0193168Y0040332D01*
X0194000Y0038733D02*
X0167563Y0038733D01*
X0166949Y0046726D02*
X0198941Y0046726D01*
X0196322Y0037134D02*
X0070004Y0037134D01*
X0071603Y0035536D02*
X0194669Y0035536D01*
X0193445Y0033937D02*
X0073201Y0033937D01*
X0074800Y0032339D02*
X0192963Y0032339D01*
X0192998Y0030740D02*
X0076398Y0030740D01*
X0077997Y0029142D02*
X0193660Y0029142D01*
X0195335Y0027543D02*
X0079595Y0027543D01*
X0081194Y0025945D02*
X0195078Y0025945D01*
X0193614Y0024346D02*
X0082792Y0024346D01*
X0084391Y0022748D02*
X0192963Y0022748D01*
X0192963Y0021149D02*
X0085989Y0021149D01*
X0087588Y0019551D02*
X0193491Y0019551D01*
X0194781Y0017952D02*
X0089186Y0017952D01*
X0090785Y0016354D02*
X0196053Y0016354D01*
X0193889Y0014755D02*
X0092383Y0014755D01*
X0165310Y0057915D02*
X0165638Y0057915D01*
X0168538Y0069105D02*
X0193676Y0069105D01*
X0193014Y0070703D02*
X0168538Y0070703D01*
X0168538Y0072302D02*
X0192963Y0072302D01*
X0193429Y0073900D02*
X0169139Y0073900D01*
X0170189Y0075499D02*
X0194632Y0075499D01*
X0196412Y0077097D02*
X0170252Y0077097D01*
X0169293Y0078696D02*
X0194038Y0078696D01*
X0165451Y0086688D02*
X0164936Y0086688D01*
X0108679Y0158621D02*
X0105551Y0158621D01*
X0106634Y0160220D02*
X0107596Y0160220D01*
X0107215Y0161818D02*
X0107015Y0161818D01*
X0107240Y0163417D02*
X0107351Y0163417D01*
X0100172Y0166614D02*
X0094058Y0166614D01*
X0094891Y0166269D02*
X0093090Y0167015D01*
X0091140Y0167015D01*
X0089339Y0166269D01*
X0087961Y0164891D01*
X0087215Y0163090D01*
X0087215Y0161140D01*
X0087961Y0159339D01*
X0089339Y0157961D01*
X0091140Y0157215D01*
X0093090Y0157215D01*
X0094891Y0157961D01*
X0096269Y0159339D01*
X0097015Y0161140D01*
X0097015Y0163090D01*
X0096269Y0164891D01*
X0094891Y0166269D01*
X0096144Y0165015D02*
X0098086Y0165015D01*
X0097351Y0163417D02*
X0096879Y0163417D01*
X0097015Y0161818D02*
X0097215Y0161818D01*
X0097596Y0160220D02*
X0096634Y0160220D01*
X0095551Y0158621D02*
X0098679Y0158621D01*
X0090172Y0166614D02*
X0084058Y0166614D01*
X0084891Y0166269D02*
X0083090Y0167015D01*
X0081140Y0167015D01*
X0079339Y0166269D01*
X0077961Y0164891D01*
X0077215Y0163090D01*
X0077215Y0161140D01*
X0077961Y0159339D01*
X0079339Y0157961D01*
X0081140Y0157215D01*
X0083090Y0157215D01*
X0084891Y0157961D01*
X0086269Y0159339D01*
X0087015Y0161140D01*
X0087015Y0163090D01*
X0086269Y0164891D01*
X0084891Y0166269D01*
X0086144Y0165015D02*
X0088086Y0165015D01*
X0087351Y0163417D02*
X0086879Y0163417D01*
X0087015Y0161818D02*
X0087215Y0161818D01*
X0087596Y0160220D02*
X0086634Y0160220D01*
X0085551Y0158621D02*
X0088679Y0158621D01*
X0080172Y0166614D02*
X0074058Y0166614D01*
X0076144Y0165015D02*
X0078086Y0165015D01*
X0077351Y0163417D02*
X0076879Y0163417D01*
X0077015Y0161818D02*
X0077215Y0161818D01*
X0077596Y0160220D02*
X0076634Y0160220D01*
X0075551Y0158621D02*
X0078679Y0158621D01*
X0060563Y0117060D02*
X0055413Y0117060D01*
X0057012Y0115462D02*
X0060563Y0115462D01*
X0060563Y0113863D02*
X0058163Y0113863D01*
X0058163Y0112265D02*
X0060563Y0112265D01*
X0060563Y0110666D02*
X0058163Y0110666D01*
X0057311Y0109068D02*
X0060563Y0109068D01*
X0060563Y0107469D02*
X0055712Y0107469D01*
X0056603Y0105870D02*
X0060563Y0105870D01*
X0060563Y0104272D02*
X0058163Y0104272D01*
X0058163Y0102673D02*
X0060563Y0102673D01*
X0060563Y0101075D02*
X0058163Y0101075D01*
X0057720Y0099476D02*
X0060563Y0099476D01*
X0060563Y0097878D02*
X0056121Y0097878D01*
D16*
X0019713Y0141400D03*
X0106563Y0166600D03*
X0167088Y0076375D03*
D17*
X0171564Y0121524D03*
X0133531Y0171235D03*
X0147154Y0179398D03*
X0092430Y0127430D03*
X0092036Y0127430D03*
X0109359Y0097115D03*
X0109753Y0097115D03*
X0052863Y0133926D03*
X0048729Y0143965D03*
X0052666Y0171550D03*
D18*
X0048729Y0175461D02*
X0052666Y0179398D01*
X0147154Y0179398D01*
X0048729Y0175461D02*
X0048729Y0143965D01*
D19*
X0072587Y0097509D03*
X0072587Y0089674D03*
X0072509Y0081839D03*
X0072587Y0073887D03*
X0072627Y0066091D03*
X0072706Y0058217D03*
X0072706Y0050422D03*
X0072509Y0042351D03*
X0143020Y0042430D03*
X0143020Y0050304D03*
X0143060Y0058217D03*
X0143178Y0066091D03*
X0143060Y0073965D03*
X0143060Y0081761D03*
X0143060Y0089674D03*
X0143060Y0097233D03*
M02*
