G75*
%MOIN*%
%OFA0B0*%
%FSLAX25Y25*%
%IPPOS*%
%LPD*%
%AMOC8*
5,1,8,0,0,1.08239X$1,22.5*
%
%ADD10C,0.08200*%
%ADD11OC8,0.07800*%
%ADD12R,0.07800X0.07800*%
%ADD13C,0.04800*%
%ADD14C,0.04762*%
%ADD15R,0.04762X0.04762*%
D10*
X0007863Y0011800D03*
X0007863Y0021800D03*
X0007863Y0031800D03*
X0007863Y0041800D03*
X0007863Y0051800D03*
X0007863Y0061800D03*
X0007863Y0081800D03*
X0007863Y0091800D03*
X0007863Y0101800D03*
X0007863Y0111800D03*
X0007863Y0121800D03*
X0007863Y0131800D03*
X0007863Y0141800D03*
X0007863Y0151800D03*
X0016918Y0171524D03*
X0026918Y0171524D03*
X0036918Y0171524D03*
X0037233Y0191209D03*
X0027233Y0191209D03*
X0017233Y0191209D03*
X0062115Y0162115D03*
X0072115Y0162115D03*
X0082115Y0162115D03*
X0092115Y0162115D03*
X0102115Y0162115D03*
X0112115Y0162115D03*
X0122115Y0162115D03*
X0122115Y0146052D03*
X0112115Y0146052D03*
X0102115Y0146052D03*
X0092115Y0146052D03*
X0082115Y0146052D03*
X0072115Y0146052D03*
X0062115Y0146052D03*
X0072548Y0191052D03*
X0082548Y0191052D03*
X0107036Y0191052D03*
X0117036Y0191052D03*
X0137863Y0191052D03*
X0147863Y0191052D03*
X0162902Y0191209D03*
X0172902Y0191209D03*
X0182902Y0191209D03*
X0197863Y0186800D03*
X0197863Y0176800D03*
X0197863Y0166800D03*
X0197863Y0156800D03*
X0197863Y0146800D03*
X0197863Y0136800D03*
X0197863Y0126800D03*
X0197863Y0116800D03*
X0197863Y0106800D03*
X0197863Y0096800D03*
X0197863Y0081800D03*
X0197863Y0071800D03*
X0197863Y0061800D03*
X0197863Y0051800D03*
X0197863Y0041800D03*
X0197863Y0031800D03*
X0197863Y0021800D03*
X0197863Y0011800D03*
X0169167Y0146719D03*
X0169167Y0164519D03*
X0143567Y0164519D03*
X0143567Y0146719D03*
D11*
X0162863Y0112115D03*
X0162863Y0102115D03*
X0162863Y0092115D03*
X0162863Y0082115D03*
X0162863Y0072115D03*
X0162863Y0062115D03*
X0162863Y0052115D03*
X0052863Y0052115D03*
X0052863Y0062115D03*
X0052863Y0072115D03*
X0052863Y0082115D03*
X0052863Y0092115D03*
X0052863Y0102115D03*
X0052863Y0112115D03*
D12*
X0052863Y0042115D03*
X0162863Y0042115D03*
D13*
X0167088Y0076375D03*
X0106563Y0166600D03*
X0019713Y0141400D03*
D14*
X0048729Y0143965D03*
X0052863Y0133926D03*
X0052666Y0171550D03*
X0092036Y0127430D03*
X0092430Y0127430D03*
X0109359Y0097115D03*
X0109753Y0097115D03*
X0171564Y0121524D03*
X0133531Y0171235D03*
X0147154Y0179398D03*
D15*
X0072587Y0097509D03*
X0072587Y0089674D03*
X0072509Y0081839D03*
X0072587Y0073887D03*
X0072627Y0066091D03*
X0072706Y0058217D03*
X0072706Y0050422D03*
X0072509Y0042351D03*
X0143020Y0042430D03*
X0143020Y0050304D03*
X0143060Y0058217D03*
X0143178Y0066091D03*
X0143060Y0073965D03*
X0143060Y0081761D03*
X0143060Y0089674D03*
X0143060Y0097233D03*
M02*
