G75*
%MOIN*%
%OFA0B0*%
%FSLAX25Y25*%
%IPPOS*%
%LPD*%
%AMOC8*
5,1,8,0,0,1.08239X$1,22.5*
%
%ADD10C,0.07400*%
%ADD11OC8,0.07000*%
%ADD12R,0.07000X0.07000*%
%ADD13R,0.03150X0.04724*%
%ADD14C,0.00669*%
%ADD15R,0.09843X0.03937*%
%ADD16C,0.00500*%
%ADD17C,0.01969*%
%ADD18C,0.01600*%
%ADD19C,0.04000*%
%ADD20C,0.00394*%
%ADD21C,0.03962*%
%ADD22R,0.03962X0.03962*%
D10*
X0007863Y0011800D03*
X0007863Y0021800D03*
X0007863Y0031800D03*
X0007863Y0041800D03*
X0007863Y0051800D03*
X0007863Y0061800D03*
X0007863Y0081800D03*
X0007863Y0091800D03*
X0007863Y0101800D03*
X0007863Y0111800D03*
X0007863Y0121800D03*
X0007863Y0131800D03*
X0007863Y0141800D03*
X0007863Y0151800D03*
X0016918Y0171524D03*
X0026918Y0171524D03*
X0036918Y0171524D03*
X0037233Y0191209D03*
X0027233Y0191209D03*
X0017233Y0191209D03*
X0062115Y0162115D03*
X0072115Y0162115D03*
X0082115Y0162115D03*
X0092115Y0162115D03*
X0102115Y0162115D03*
X0112115Y0162115D03*
X0122115Y0162115D03*
X0122115Y0146052D03*
X0112115Y0146052D03*
X0102115Y0146052D03*
X0092115Y0146052D03*
X0082115Y0146052D03*
X0072115Y0146052D03*
X0062115Y0146052D03*
X0072548Y0191052D03*
X0082548Y0191052D03*
X0107036Y0191052D03*
X0117036Y0191052D03*
X0137863Y0191052D03*
X0147863Y0191052D03*
X0162902Y0191209D03*
X0172902Y0191209D03*
X0182902Y0191209D03*
X0197863Y0186800D03*
X0197863Y0176800D03*
X0197863Y0166800D03*
X0197863Y0156800D03*
X0197863Y0146800D03*
X0197863Y0136800D03*
X0197863Y0126800D03*
X0197863Y0116800D03*
X0197863Y0106800D03*
X0197863Y0096800D03*
X0197863Y0081800D03*
X0197863Y0071800D03*
X0197863Y0061800D03*
X0197863Y0051800D03*
X0197863Y0041800D03*
X0197863Y0031800D03*
X0197863Y0021800D03*
X0197863Y0011800D03*
X0169167Y0146719D03*
X0169167Y0164519D03*
X0143567Y0164519D03*
X0143567Y0146719D03*
D11*
X0162863Y0112115D03*
X0162863Y0102115D03*
X0162863Y0092115D03*
X0162863Y0082115D03*
X0162863Y0072115D03*
X0162863Y0062115D03*
X0162863Y0052115D03*
X0052863Y0052115D03*
X0052863Y0062115D03*
X0052863Y0072115D03*
X0052863Y0082115D03*
X0052863Y0092115D03*
X0052863Y0102115D03*
X0052863Y0112115D03*
D12*
X0052863Y0042115D03*
X0162863Y0042115D03*
D13*
X0174320Y0061800D03*
X0181406Y0061800D03*
X0181406Y0081800D03*
X0174320Y0081800D03*
X0166406Y0127115D03*
X0159320Y0127115D03*
X0146406Y0127115D03*
X0139320Y0127115D03*
X0036406Y0101800D03*
X0029320Y0101800D03*
D14*
X0070914Y0044025D02*
X0080088Y0044025D01*
X0080088Y0040757D01*
X0070914Y0040757D01*
X0070914Y0044025D01*
X0070914Y0041425D02*
X0080088Y0041425D01*
X0080088Y0042093D02*
X0070914Y0042093D01*
X0070914Y0042761D02*
X0080088Y0042761D01*
X0080088Y0043429D02*
X0070914Y0043429D01*
D15*
X0075501Y0050265D03*
X0075501Y0058139D03*
X0075501Y0066013D03*
X0075501Y0073887D03*
X0075501Y0081761D03*
X0075501Y0089635D03*
X0075501Y0097135D03*
X0140068Y0097135D03*
X0140068Y0089635D03*
X0140068Y0081761D03*
X0140068Y0073887D03*
X0140068Y0066013D03*
X0140068Y0058139D03*
X0140068Y0050265D03*
X0140068Y0042391D03*
D16*
X0140088Y0042175D01*
X0140088Y0040375D01*
X0140763Y0039700D01*
X0160563Y0039700D01*
X0162813Y0041950D01*
X0162863Y0042115D01*
X0163038Y0042175D01*
X0174288Y0053425D01*
X0174288Y0061750D01*
X0174320Y0061800D01*
X0176088Y0064900D02*
X0171588Y0064900D01*
X0163038Y0056350D01*
X0146163Y0056350D01*
X0145263Y0055450D01*
X0095313Y0055450D01*
X0079563Y0071200D01*
X0059763Y0071200D01*
X0053013Y0077950D01*
X0048288Y0077950D01*
X0019713Y0106525D01*
X0019713Y0141400D01*
X0034563Y0165475D02*
X0059313Y0165475D01*
X0060438Y0166600D01*
X0106563Y0166600D01*
X0112115Y0162115D02*
X0112413Y0162100D01*
X0115788Y0162100D01*
X0120288Y0166600D01*
X0123888Y0166600D01*
X0139188Y0151300D01*
X0139188Y0144775D01*
X0152238Y0131725D01*
X0161913Y0131725D01*
X0164163Y0129475D01*
X0164163Y0119125D01*
X0169788Y0113500D01*
X0169788Y0075250D01*
X0166863Y0072325D01*
X0163038Y0072325D01*
X0162863Y0072115D01*
X0162813Y0072100D01*
X0161913Y0071200D01*
X0143238Y0071200D01*
X0140088Y0068050D01*
X0140088Y0066025D01*
X0140068Y0066013D01*
X0141888Y0061975D02*
X0162813Y0061975D01*
X0162863Y0062115D01*
X0163038Y0062200D01*
X0174288Y0073450D01*
X0174288Y0081775D01*
X0174320Y0081800D01*
X0167088Y0076375D02*
X0167088Y0103825D01*
X0164613Y0106300D01*
X0160113Y0106300D01*
X0142563Y0123850D01*
X0142563Y0128800D01*
X0125463Y0145900D01*
X0122313Y0145900D01*
X0122115Y0146052D01*
X0122088Y0146350D01*
X0122088Y0161875D01*
X0122115Y0162115D01*
X0122088Y0162100D01*
X0112188Y0162100D02*
X0112115Y0162115D01*
X0112188Y0161875D01*
X0112188Y0146350D01*
X0112115Y0146052D01*
X0112188Y0146125D01*
X0122088Y0146125D02*
X0122115Y0146052D01*
X0120738Y0127000D02*
X0075513Y0081775D01*
X0075501Y0081761D01*
X0076413Y0082900D01*
X0074838Y0084475D01*
X0072813Y0084475D01*
X0065388Y0091900D01*
X0053013Y0091900D01*
X0052863Y0092115D01*
X0052788Y0082225D02*
X0052863Y0082115D01*
X0053013Y0082000D01*
X0055938Y0079075D01*
X0072363Y0079075D01*
X0075288Y0076150D01*
X0075288Y0073900D01*
X0075501Y0073887D01*
X0079113Y0070300D02*
X0054813Y0070300D01*
X0053013Y0072100D01*
X0052863Y0072115D01*
X0052788Y0082225D02*
X0036588Y0098425D01*
X0036588Y0101800D01*
X0036406Y0101800D01*
X0052863Y0102115D02*
X0052788Y0104500D01*
X0052863Y0104500D01*
X0079113Y0070300D02*
X0081138Y0068275D01*
X0081138Y0063775D01*
X0075513Y0058150D01*
X0075501Y0058139D01*
X0073713Y0062200D02*
X0053013Y0062200D01*
X0052863Y0062115D01*
X0053913Y0053200D02*
X0053013Y0052300D01*
X0052863Y0052115D01*
X0053913Y0053200D02*
X0074838Y0053200D01*
X0075513Y0052525D01*
X0075513Y0050275D01*
X0075501Y0050265D01*
X0075501Y0042391D02*
X0075288Y0042175D01*
X0075288Y0040150D01*
X0075513Y0040150D01*
X0093738Y0021925D01*
X0197688Y0021925D01*
X0197863Y0021800D01*
X0162863Y0052115D02*
X0162813Y0052300D01*
X0162138Y0052975D01*
X0140763Y0052975D01*
X0140088Y0052300D01*
X0140088Y0050275D01*
X0140068Y0050265D01*
X0140068Y0058139D02*
X0140088Y0058150D01*
X0140088Y0060175D01*
X0141888Y0061975D01*
X0140068Y0073887D02*
X0140088Y0073900D01*
X0140088Y0075925D01*
X0143238Y0079075D01*
X0159888Y0079075D01*
X0162813Y0082000D01*
X0162863Y0082115D01*
X0157863Y0086950D02*
X0162813Y0091900D01*
X0162863Y0092115D01*
X0157863Y0086950D02*
X0143238Y0086950D01*
X0140088Y0083800D01*
X0140088Y0081775D01*
X0140068Y0081761D01*
X0140068Y0089635D02*
X0140088Y0089650D01*
X0140088Y0091675D01*
X0141213Y0092800D01*
X0153588Y0092800D01*
X0162813Y0102025D01*
X0162863Y0102115D01*
X0181263Y0082000D02*
X0181406Y0081800D01*
X0181263Y0082000D02*
X0181263Y0134650D01*
X0169338Y0146575D01*
X0169167Y0146719D01*
X0169113Y0146800D01*
X0143688Y0146800D01*
X0143567Y0146719D01*
X0143567Y0164519D02*
X0143688Y0164575D01*
X0169113Y0164575D01*
X0169167Y0164519D01*
X0139320Y0127115D02*
X0139188Y0127000D01*
X0120738Y0127000D01*
X0139320Y0127115D02*
X0139413Y0127000D01*
X0102115Y0146052D02*
X0102063Y0146350D01*
X0102063Y0161875D01*
X0102115Y0162115D01*
X0102063Y0162100D01*
X0092163Y0162100D02*
X0092115Y0162115D01*
X0092163Y0161875D01*
X0092163Y0146350D01*
X0092115Y0146052D01*
X0092163Y0146125D01*
X0102063Y0146125D02*
X0102115Y0146052D01*
X0082115Y0146052D02*
X0082038Y0146350D01*
X0082038Y0161875D01*
X0082115Y0162115D01*
X0082038Y0162100D01*
X0072138Y0162100D02*
X0072115Y0162115D01*
X0072138Y0162100D02*
X0072138Y0146125D01*
X0072115Y0146052D01*
X0062238Y0146125D02*
X0062115Y0146052D01*
X0062238Y0146125D02*
X0062238Y0162100D01*
X0062115Y0162115D01*
X0082038Y0146125D02*
X0082115Y0146052D01*
X0034563Y0165475D02*
X0028713Y0171325D01*
X0027138Y0171325D01*
X0026918Y0171524D01*
X0075501Y0066013D02*
X0075288Y0065800D01*
X0075288Y0063775D01*
X0073713Y0062200D01*
X0075288Y0040150D02*
X0074838Y0039700D01*
X0055263Y0039700D01*
X0053013Y0041950D01*
X0052863Y0042115D01*
X0176088Y0064900D02*
X0179013Y0061975D01*
X0181263Y0061975D01*
X0181406Y0061800D01*
D17*
X0143217Y0097115D02*
X0142824Y0096721D01*
X0140068Y0096721D01*
X0140068Y0097135D01*
X0140068Y0097115D01*
X0109359Y0097115D01*
X0092430Y0127430D02*
X0058572Y0127430D01*
X0052863Y0133139D01*
X0052863Y0133926D01*
X0036918Y0171524D02*
X0036918Y0171550D01*
X0052666Y0171550D01*
X0072548Y0191052D02*
X0072588Y0191125D01*
X0082488Y0191125D01*
X0082548Y0191052D01*
X0085413Y0184375D02*
X0023988Y0184375D01*
X0017913Y0190450D01*
X0017233Y0191209D01*
X0017013Y0191125D01*
X0010263Y0184375D01*
X0010263Y0168625D01*
X0014538Y0164350D01*
X0014538Y0118900D01*
X0008013Y0112375D01*
X0008013Y0111925D01*
X0007863Y0111800D01*
X0072745Y0097135D02*
X0072745Y0089241D01*
X0075501Y0089241D01*
X0075501Y0089635D01*
X0075501Y0097135D02*
X0072745Y0097135D01*
X0133531Y0171235D02*
X0133561Y0184375D01*
X0156063Y0184375D01*
X0162813Y0191125D01*
X0162902Y0191209D01*
X0117036Y0191052D02*
X0116913Y0191125D01*
X0107238Y0191125D01*
X0107036Y0191052D01*
X0106113Y0190900D01*
X0091938Y0190900D01*
X0085413Y0184375D01*
X0146406Y0127115D02*
X0146613Y0127225D01*
X0159213Y0127225D01*
X0159320Y0127115D01*
X0159888Y0126325D01*
X0159888Y0115075D01*
X0162813Y0112150D01*
X0162863Y0112115D01*
D18*
X0010639Y0007646D02*
X0009415Y0007139D01*
X0196310Y0007139D01*
X0195087Y0007646D01*
X0193709Y0009024D01*
X0192963Y0010825D01*
X0192963Y0012775D01*
X0193709Y0014576D01*
X0195087Y0015954D01*
X0196888Y0016700D01*
X0198838Y0016700D01*
X0198941Y0016657D01*
X0198941Y0016943D01*
X0198838Y0016900D01*
X0196888Y0016900D01*
X0195087Y0017646D01*
X0193709Y0019024D01*
X0193108Y0020475D01*
X0093137Y0020475D01*
X0075362Y0038250D01*
X0057563Y0038250D01*
X0057563Y0038118D01*
X0056860Y0037415D01*
X0048866Y0037415D01*
X0048163Y0038118D01*
X0048163Y0046112D01*
X0048866Y0046815D01*
X0056860Y0046815D01*
X0057563Y0046112D01*
X0057563Y0041150D01*
X0069328Y0041150D01*
X0069328Y0044829D01*
X0070030Y0045532D01*
X0070252Y0045532D01*
X0070278Y0045559D01*
X0080723Y0045559D01*
X0081622Y0044660D01*
X0081622Y0040121D01*
X0080723Y0039222D01*
X0078492Y0039222D01*
X0094339Y0023375D01*
X0193212Y0023375D01*
X0193709Y0024576D01*
X0195087Y0025954D01*
X0196888Y0026700D01*
X0198838Y0026700D01*
X0198941Y0026657D01*
X0198941Y0026943D01*
X0198838Y0026900D01*
X0196888Y0026900D01*
X0195087Y0027646D01*
X0193709Y0029024D01*
X0192963Y0030825D01*
X0192963Y0032775D01*
X0193709Y0034576D01*
X0195087Y0035954D01*
X0196888Y0036700D01*
X0198838Y0036700D01*
X0198941Y0036657D01*
X0198941Y0036943D01*
X0198838Y0036900D01*
X0196888Y0036900D01*
X0195087Y0037646D01*
X0193709Y0039024D01*
X0192963Y0040825D01*
X0192963Y0042775D01*
X0193709Y0044576D01*
X0195087Y0045954D01*
X0196888Y0046700D01*
X0198838Y0046700D01*
X0198941Y0046657D01*
X0198941Y0046943D01*
X0198838Y0046900D01*
X0196888Y0046900D01*
X0195087Y0047646D01*
X0193709Y0049024D01*
X0192963Y0050825D01*
X0192963Y0052775D01*
X0193709Y0054576D01*
X0195087Y0055954D01*
X0196888Y0056700D01*
X0198838Y0056700D01*
X0198941Y0056657D01*
X0198941Y0056943D01*
X0198838Y0056900D01*
X0196888Y0056900D01*
X0195087Y0057646D01*
X0193709Y0059024D01*
X0192963Y0060825D01*
X0192963Y0062775D01*
X0193709Y0064576D01*
X0195087Y0065954D01*
X0196888Y0066700D01*
X0198838Y0066700D01*
X0198941Y0066657D01*
X0198941Y0066943D01*
X0198838Y0066900D01*
X0196888Y0066900D01*
X0195087Y0067646D01*
X0193709Y0069024D01*
X0192963Y0070825D01*
X0192963Y0072775D01*
X0193709Y0074576D01*
X0195087Y0075954D01*
X0196888Y0076700D01*
X0198838Y0076700D01*
X0198941Y0076657D01*
X0198941Y0076943D01*
X0198838Y0076900D01*
X0196888Y0076900D01*
X0195087Y0077646D01*
X0193709Y0079024D01*
X0192963Y0080825D01*
X0192963Y0082775D01*
X0193709Y0084576D01*
X0195087Y0085954D01*
X0196888Y0086700D01*
X0198838Y0086700D01*
X0198941Y0086657D01*
X0198941Y0091943D01*
X0198838Y0091900D01*
X0196888Y0091900D01*
X0195087Y0092646D01*
X0193709Y0094024D01*
X0192963Y0095825D01*
X0192963Y0097775D01*
X0193709Y0099576D01*
X0195087Y0100954D01*
X0196888Y0101700D01*
X0198838Y0101700D01*
X0198941Y0101657D01*
X0198941Y0101943D01*
X0198838Y0101900D01*
X0196888Y0101900D01*
X0195087Y0102646D01*
X0193709Y0104024D01*
X0192963Y0105825D01*
X0192963Y0107775D01*
X0193709Y0109576D01*
X0195087Y0110954D01*
X0196888Y0111700D01*
X0198838Y0111700D01*
X0198941Y0111657D01*
X0198941Y0111943D01*
X0198838Y0111900D01*
X0196888Y0111900D01*
X0195087Y0112646D01*
X0193709Y0114024D01*
X0192963Y0115825D01*
X0192963Y0117775D01*
X0193709Y0119576D01*
X0195087Y0120954D01*
X0196888Y0121700D01*
X0198838Y0121700D01*
X0198941Y0121657D01*
X0198941Y0121943D01*
X0198838Y0121900D01*
X0196888Y0121900D01*
X0195087Y0122646D01*
X0193709Y0124024D01*
X0192963Y0125825D01*
X0192963Y0127775D01*
X0193709Y0129576D01*
X0195087Y0130954D01*
X0196888Y0131700D01*
X0198838Y0131700D01*
X0198941Y0131657D01*
X0198941Y0131943D01*
X0198838Y0131900D01*
X0196888Y0131900D01*
X0195087Y0132646D01*
X0193709Y0134024D01*
X0192963Y0135825D01*
X0192963Y0137775D01*
X0193709Y0139576D01*
X0195087Y0140954D01*
X0196888Y0141700D01*
X0198838Y0141700D01*
X0198941Y0141657D01*
X0198941Y0141943D01*
X0198838Y0141900D01*
X0196888Y0141900D01*
X0195087Y0142646D01*
X0193709Y0144024D01*
X0192963Y0145825D01*
X0192963Y0147775D01*
X0193709Y0149576D01*
X0195087Y0150954D01*
X0196393Y0151495D01*
X0195752Y0151703D01*
X0194980Y0152096D01*
X0194280Y0152605D01*
X0193668Y0153217D01*
X0193159Y0153917D01*
X0192766Y0154689D01*
X0192498Y0155512D01*
X0192363Y0156367D01*
X0192363Y0156600D01*
X0197663Y0156600D01*
X0197663Y0157000D01*
X0192363Y0157000D01*
X0192363Y0157233D01*
X0192498Y0158088D01*
X0192766Y0158911D01*
X0193159Y0159683D01*
X0193668Y0160383D01*
X0194280Y0160995D01*
X0194980Y0161504D01*
X0195752Y0161897D01*
X0196393Y0162105D01*
X0195087Y0162646D01*
X0193709Y0164024D01*
X0192963Y0165825D01*
X0192963Y0167775D01*
X0193709Y0169576D01*
X0195087Y0170954D01*
X0196888Y0171700D01*
X0198838Y0171700D01*
X0198941Y0171657D01*
X0198941Y0171943D01*
X0198838Y0171900D01*
X0196888Y0171900D01*
X0195087Y0172646D01*
X0193709Y0174024D01*
X0192963Y0175825D01*
X0192963Y0177775D01*
X0193709Y0179576D01*
X0195087Y0180954D01*
X0196888Y0181700D01*
X0198838Y0181700D01*
X0198941Y0181657D01*
X0198941Y0181943D01*
X0198838Y0181900D01*
X0196888Y0181900D01*
X0195087Y0182646D01*
X0193709Y0184024D01*
X0192963Y0185825D01*
X0192963Y0187775D01*
X0193709Y0189576D01*
X0195087Y0190954D01*
X0196888Y0191700D01*
X0198224Y0191700D01*
X0195746Y0194177D01*
X0187545Y0194177D01*
X0187606Y0194092D01*
X0187999Y0193321D01*
X0188267Y0192497D01*
X0188402Y0191642D01*
X0188402Y0191409D01*
X0183102Y0191409D01*
X0183102Y0191009D01*
X0183102Y0185709D01*
X0183335Y0185709D01*
X0184190Y0185845D01*
X0185014Y0186112D01*
X0185785Y0186505D01*
X0186485Y0187014D01*
X0187098Y0187626D01*
X0187606Y0188327D01*
X0187999Y0189098D01*
X0188267Y0189922D01*
X0188402Y0190777D01*
X0188402Y0191009D01*
X0183102Y0191009D01*
X0182702Y0191009D01*
X0182702Y0185709D01*
X0182469Y0185709D01*
X0181614Y0185845D01*
X0180791Y0186112D01*
X0180020Y0186505D01*
X0179319Y0187014D01*
X0178707Y0187626D01*
X0178198Y0188327D01*
X0177805Y0189098D01*
X0177597Y0189739D01*
X0177056Y0188434D01*
X0176110Y0187488D01*
X0176110Y0182757D01*
X0175292Y0181939D01*
X0171355Y0178002D01*
X0150019Y0178002D01*
X0149851Y0177596D01*
X0148956Y0176702D01*
X0147787Y0176217D01*
X0146522Y0176217D01*
X0145352Y0176702D01*
X0144458Y0177596D01*
X0143973Y0178766D01*
X0143973Y0180031D01*
X0144218Y0180622D01*
X0137305Y0180622D01*
X0137291Y0174193D01*
X0137558Y0173925D01*
X0138281Y0172180D01*
X0138281Y0170290D01*
X0137558Y0168545D01*
X0136222Y0167209D01*
X0134476Y0166485D01*
X0132587Y0166485D01*
X0130841Y0167209D01*
X0129505Y0168545D01*
X0128782Y0170290D01*
X0128782Y0172180D01*
X0129505Y0173925D01*
X0129785Y0174206D01*
X0129808Y0184379D01*
X0129808Y0185121D01*
X0129810Y0185126D01*
X0129810Y0185130D01*
X0130095Y0185814D01*
X0130380Y0186501D01*
X0130383Y0186504D01*
X0130384Y0186508D01*
X0130908Y0187029D01*
X0131435Y0187556D01*
X0131439Y0187558D01*
X0131442Y0187561D01*
X0132127Y0187843D01*
X0132815Y0188128D01*
X0132819Y0188128D01*
X0132823Y0188129D01*
X0133189Y0188129D01*
X0133159Y0188169D01*
X0132766Y0188941D01*
X0132498Y0189764D01*
X0132363Y0190619D01*
X0132363Y0190852D01*
X0137663Y0190852D01*
X0137663Y0191252D01*
X0132363Y0191252D01*
X0132363Y0191485D01*
X0132498Y0192340D01*
X0132766Y0193163D01*
X0133159Y0193935D01*
X0133335Y0194177D01*
X0122743Y0194177D01*
X0123505Y0192339D01*
X0123505Y0189765D01*
X0122520Y0187388D01*
X0120700Y0185568D01*
X0118323Y0184583D01*
X0115750Y0184583D01*
X0113372Y0185568D01*
X0112036Y0186904D01*
X0110700Y0185568D01*
X0108323Y0184583D01*
X0105750Y0184583D01*
X0103372Y0185568D01*
X0101793Y0187147D01*
X0093492Y0187147D01*
X0088594Y0182249D01*
X0087539Y0181194D01*
X0086159Y0180622D01*
X0023242Y0180622D01*
X0021862Y0181194D01*
X0018315Y0184741D01*
X0015946Y0184741D01*
X0015939Y0184744D01*
X0014016Y0182821D01*
X0014016Y0176214D01*
X0014035Y0176228D01*
X0014807Y0176621D01*
X0015630Y0176889D01*
X0016485Y0177024D01*
X0016718Y0177024D01*
X0016718Y0171724D01*
X0017118Y0171724D01*
X0017118Y0177024D01*
X0017351Y0177024D01*
X0018206Y0176889D01*
X0019029Y0176621D01*
X0019801Y0176228D01*
X0020501Y0175720D01*
X0021113Y0175107D01*
X0021622Y0174407D01*
X0022015Y0173636D01*
X0022223Y0172995D01*
X0022764Y0174300D01*
X0024142Y0175678D01*
X0025943Y0176424D01*
X0027893Y0176424D01*
X0029694Y0175678D01*
X0031068Y0174304D01*
X0031434Y0175189D01*
X0033254Y0177008D01*
X0035631Y0177993D01*
X0038205Y0177993D01*
X0040582Y0177008D01*
X0042288Y0175303D01*
X0049702Y0175303D01*
X0049976Y0175577D01*
X0051721Y0176300D01*
X0053611Y0176300D01*
X0055357Y0175577D01*
X0056693Y0174240D01*
X0057416Y0172495D01*
X0057416Y0170605D01*
X0056693Y0168860D01*
X0055357Y0167523D01*
X0053912Y0166925D01*
X0058712Y0166925D01*
X0058988Y0167201D01*
X0058988Y0167201D01*
X0059837Y0168050D01*
X0103700Y0168050D01*
X0103850Y0168413D01*
X0104750Y0169313D01*
X0105926Y0169800D01*
X0107200Y0169800D01*
X0108376Y0169313D01*
X0109276Y0168413D01*
X0109763Y0167237D01*
X0109763Y0166444D01*
X0111140Y0167015D01*
X0113090Y0167015D01*
X0114891Y0166269D01*
X0116269Y0164891D01*
X0116345Y0164707D01*
X0118838Y0167201D01*
X0119687Y0168050D01*
X0124489Y0168050D01*
X0139789Y0152750D01*
X0140638Y0151901D01*
X0140638Y0150720D01*
X0140791Y0150873D01*
X0142592Y0151619D01*
X0144542Y0151619D01*
X0146343Y0150873D01*
X0147721Y0149495D01*
X0148236Y0148250D01*
X0164497Y0148250D01*
X0165013Y0149495D01*
X0166391Y0150873D01*
X0168192Y0151619D01*
X0170142Y0151619D01*
X0171943Y0150873D01*
X0173321Y0149495D01*
X0174067Y0147694D01*
X0174067Y0145744D01*
X0173526Y0144438D01*
X0182713Y0135251D01*
X0182713Y0085362D01*
X0183478Y0085362D01*
X0184181Y0084659D01*
X0184181Y0078941D01*
X0183478Y0078238D01*
X0179334Y0078238D01*
X0178631Y0078941D01*
X0178631Y0084659D01*
X0179334Y0085362D01*
X0179813Y0085362D01*
X0179813Y0134049D01*
X0171486Y0142376D01*
X0170142Y0141819D01*
X0168192Y0141819D01*
X0166391Y0142565D01*
X0165013Y0143943D01*
X0164430Y0145350D01*
X0148304Y0145350D01*
X0147721Y0143943D01*
X0146343Y0142565D01*
X0144542Y0141819D01*
X0144195Y0141819D01*
X0152839Y0133175D01*
X0162514Y0133175D01*
X0164450Y0131238D01*
X0164595Y0131277D01*
X0166406Y0131277D01*
X0166406Y0127115D01*
X0166406Y0127115D01*
X0166406Y0127115D01*
X0166406Y0122953D01*
X0165613Y0122953D01*
X0165613Y0119726D01*
X0170389Y0114950D01*
X0171238Y0114101D01*
X0171238Y0074649D01*
X0168313Y0071724D01*
X0167563Y0070974D01*
X0167563Y0070168D01*
X0164810Y0067415D01*
X0160916Y0067415D01*
X0158581Y0069750D01*
X0143839Y0069750D01*
X0143361Y0069272D01*
X0145656Y0069272D01*
X0146359Y0068569D01*
X0146359Y0063613D01*
X0146171Y0063425D01*
X0158163Y0063425D01*
X0158163Y0064062D01*
X0160916Y0066815D01*
X0164810Y0066815D01*
X0165206Y0066419D01*
X0172838Y0074051D01*
X0172838Y0078238D01*
X0172248Y0078238D01*
X0171545Y0078941D01*
X0171545Y0084659D01*
X0172248Y0085362D01*
X0176392Y0085362D01*
X0177094Y0084659D01*
X0177094Y0078941D01*
X0176392Y0078238D01*
X0175738Y0078238D01*
X0175738Y0072849D01*
X0167257Y0064368D01*
X0167563Y0064062D01*
X0167563Y0062926D01*
X0170987Y0066350D01*
X0176689Y0066350D01*
X0177538Y0065501D01*
X0178631Y0064407D01*
X0178631Y0064659D01*
X0179334Y0065362D01*
X0183478Y0065362D01*
X0184181Y0064659D01*
X0184181Y0058941D01*
X0183478Y0058238D01*
X0179334Y0058238D01*
X0178631Y0058941D01*
X0178631Y0060525D01*
X0178412Y0060525D01*
X0177094Y0061843D01*
X0177094Y0058941D01*
X0176392Y0058238D01*
X0175738Y0058238D01*
X0175738Y0052824D01*
X0167563Y0044649D01*
X0167563Y0038118D01*
X0166860Y0037415D01*
X0158866Y0037415D01*
X0158163Y0038118D01*
X0158163Y0038250D01*
X0140162Y0038250D01*
X0139313Y0039099D01*
X0139313Y0039099D01*
X0139190Y0039222D01*
X0134649Y0039222D01*
X0133946Y0039925D01*
X0133946Y0044856D01*
X0134649Y0045559D01*
X0140490Y0045559D01*
X0140542Y0045611D01*
X0145499Y0045611D01*
X0146202Y0044908D01*
X0146202Y0041150D01*
X0158163Y0041150D01*
X0158163Y0046112D01*
X0158866Y0046815D01*
X0165627Y0046815D01*
X0172838Y0054026D01*
X0172838Y0058238D01*
X0172248Y0058238D01*
X0171545Y0058941D01*
X0171545Y0062806D01*
X0165182Y0056443D01*
X0167563Y0054062D01*
X0167563Y0050168D01*
X0164810Y0047415D01*
X0160916Y0047415D01*
X0158163Y0050168D01*
X0158163Y0051525D01*
X0146202Y0051525D01*
X0146202Y0047826D01*
X0146189Y0047813D01*
X0146189Y0047799D01*
X0145486Y0047096D01*
X0134649Y0047096D01*
X0133946Y0047799D01*
X0133946Y0052730D01*
X0134649Y0053433D01*
X0139170Y0053433D01*
X0139313Y0053576D01*
X0139737Y0054000D01*
X0094712Y0054000D01*
X0082588Y0066124D01*
X0082588Y0063174D01*
X0081739Y0062325D01*
X0080721Y0061307D01*
X0080919Y0061307D01*
X0081622Y0060604D01*
X0081622Y0055673D01*
X0080919Y0054970D01*
X0070082Y0054970D01*
X0069380Y0055673D01*
X0069380Y0060604D01*
X0069525Y0060750D01*
X0057563Y0060750D01*
X0057563Y0060168D01*
X0054810Y0057415D01*
X0050916Y0057415D01*
X0048163Y0060168D01*
X0048163Y0064062D01*
X0050916Y0066815D01*
X0054810Y0066815D01*
X0057563Y0064062D01*
X0057563Y0063650D01*
X0069380Y0063650D01*
X0069380Y0068478D01*
X0069446Y0068544D01*
X0069446Y0068569D01*
X0069726Y0068850D01*
X0056245Y0068850D01*
X0054810Y0067415D01*
X0050916Y0067415D01*
X0048163Y0070168D01*
X0048163Y0074062D01*
X0050601Y0076500D01*
X0047687Y0076500D01*
X0019112Y0105075D01*
X0018263Y0105924D01*
X0018263Y0118087D01*
X0017719Y0116774D01*
X0016664Y0115719D01*
X0014244Y0113299D01*
X0014331Y0113087D01*
X0014331Y0110513D01*
X0013347Y0108136D01*
X0011527Y0106316D01*
X0011194Y0106178D01*
X0011446Y0105995D01*
X0012058Y0105383D01*
X0012567Y0104683D01*
X0012960Y0103911D01*
X0013228Y0103088D01*
X0013363Y0102233D01*
X0013363Y0102000D01*
X0008063Y0102000D01*
X0008063Y0101600D01*
X0013363Y0101600D01*
X0013363Y0101367D01*
X0013228Y0100512D01*
X0012960Y0099689D01*
X0012567Y0098917D01*
X0012058Y0098217D01*
X0011446Y0097605D01*
X0010746Y0097096D01*
X0010165Y0096800D01*
X0010746Y0096504D01*
X0011446Y0095995D01*
X0012058Y0095383D01*
X0012567Y0094683D01*
X0012960Y0093911D01*
X0013228Y0093088D01*
X0013363Y0092233D01*
X0013363Y0092000D01*
X0008063Y0092000D01*
X0008063Y0091600D01*
X0013363Y0091600D01*
X0013363Y0091367D01*
X0013228Y0090512D01*
X0012960Y0089689D01*
X0012567Y0088917D01*
X0012058Y0088217D01*
X0011446Y0087605D01*
X0010746Y0087096D01*
X0009974Y0086703D01*
X0009333Y0086495D01*
X0010639Y0085954D01*
X0012017Y0084576D01*
X0012763Y0082775D01*
X0012763Y0080825D01*
X0012017Y0079024D01*
X0010639Y0077646D01*
X0008838Y0076900D01*
X0007179Y0076900D01*
X0007179Y0066700D01*
X0008838Y0066700D01*
X0010639Y0065954D01*
X0012017Y0064576D01*
X0012763Y0062775D01*
X0012763Y0060825D01*
X0012017Y0059024D01*
X0010639Y0057646D01*
X0008838Y0056900D01*
X0007179Y0056900D01*
X0007179Y0056700D01*
X0008838Y0056700D01*
X0010639Y0055954D01*
X0012017Y0054576D01*
X0012763Y0052775D01*
X0012763Y0050825D01*
X0012017Y0049024D01*
X0010639Y0047646D01*
X0008838Y0046900D01*
X0007179Y0046900D01*
X0007179Y0046700D01*
X0008838Y0046700D01*
X0010639Y0045954D01*
X0012017Y0044576D01*
X0012763Y0042775D01*
X0012763Y0040825D01*
X0012017Y0039024D01*
X0010639Y0037646D01*
X0008838Y0036900D01*
X0007179Y0036900D01*
X0007179Y0036700D01*
X0008838Y0036700D01*
X0010639Y0035954D01*
X0012017Y0034576D01*
X0012763Y0032775D01*
X0012763Y0030825D01*
X0012017Y0029024D01*
X0010639Y0027646D01*
X0008838Y0026900D01*
X0007179Y0026900D01*
X0007179Y0026700D01*
X0008838Y0026700D01*
X0010639Y0025954D01*
X0012017Y0024576D01*
X0012763Y0022775D01*
X0012763Y0020825D01*
X0012017Y0019024D01*
X0010639Y0017646D01*
X0008838Y0016900D01*
X0007179Y0016900D01*
X0007179Y0016700D01*
X0008838Y0016700D01*
X0010639Y0015954D01*
X0012017Y0014576D01*
X0012763Y0012775D01*
X0012763Y0010825D01*
X0012017Y0009024D01*
X0010639Y0007646D01*
X0011354Y0008361D02*
X0194372Y0008361D01*
X0193321Y0009960D02*
X0012404Y0009960D01*
X0012763Y0011558D02*
X0192963Y0011558D01*
X0193121Y0013157D02*
X0012605Y0013157D01*
X0011837Y0014755D02*
X0193889Y0014755D01*
X0196053Y0016354D02*
X0009673Y0016354D01*
X0010945Y0017952D02*
X0194781Y0017952D01*
X0193491Y0019551D02*
X0012235Y0019551D01*
X0012763Y0021149D02*
X0092463Y0021149D01*
X0090864Y0022748D02*
X0012763Y0022748D01*
X0012112Y0024346D02*
X0089266Y0024346D01*
X0087667Y0025945D02*
X0010648Y0025945D01*
X0010391Y0027543D02*
X0086069Y0027543D01*
X0084470Y0029142D02*
X0012066Y0029142D01*
X0012728Y0030740D02*
X0082872Y0030740D01*
X0081273Y0032339D02*
X0012763Y0032339D01*
X0012281Y0033937D02*
X0079675Y0033937D01*
X0078076Y0035536D02*
X0011057Y0035536D01*
X0009404Y0037134D02*
X0076478Y0037134D01*
X0078981Y0038733D02*
X0139679Y0038733D01*
X0133946Y0040332D02*
X0081622Y0040332D01*
X0081622Y0041930D02*
X0133946Y0041930D01*
X0133946Y0043529D02*
X0081622Y0043529D01*
X0081155Y0045127D02*
X0134217Y0045127D01*
X0133946Y0048324D02*
X0081622Y0048324D01*
X0081622Y0047799D02*
X0081622Y0052730D01*
X0080919Y0053433D01*
X0076656Y0053433D01*
X0076288Y0053801D01*
X0075439Y0054650D01*
X0056975Y0054650D01*
X0054810Y0056815D01*
X0050916Y0056815D01*
X0048163Y0054062D01*
X0048163Y0050168D01*
X0050916Y0047415D01*
X0054810Y0047415D01*
X0057563Y0050168D01*
X0057563Y0051750D01*
X0069380Y0051750D01*
X0069380Y0047799D01*
X0070082Y0047096D01*
X0080919Y0047096D01*
X0081622Y0047799D01*
X0081622Y0049923D02*
X0133946Y0049923D01*
X0133946Y0051521D02*
X0081622Y0051521D01*
X0081233Y0053120D02*
X0134336Y0053120D01*
X0146202Y0051521D02*
X0158163Y0051521D01*
X0158409Y0049923D02*
X0146202Y0049923D01*
X0146202Y0048324D02*
X0160007Y0048324D01*
X0158777Y0046726D02*
X0056949Y0046726D01*
X0057563Y0045127D02*
X0069625Y0045127D01*
X0069328Y0043529D02*
X0057563Y0043529D01*
X0057563Y0041930D02*
X0069328Y0041930D01*
X0069380Y0048324D02*
X0055719Y0048324D01*
X0057317Y0049923D02*
X0069380Y0049923D01*
X0069380Y0051521D02*
X0057563Y0051521D01*
X0056907Y0054718D02*
X0093994Y0054718D01*
X0092396Y0056317D02*
X0081622Y0056317D01*
X0081622Y0057915D02*
X0090797Y0057915D01*
X0089199Y0059514D02*
X0081622Y0059514D01*
X0081114Y0061112D02*
X0087600Y0061112D01*
X0086002Y0062711D02*
X0082124Y0062711D01*
X0082588Y0064309D02*
X0084403Y0064309D01*
X0082805Y0065908D02*
X0082588Y0065908D01*
X0069380Y0065908D02*
X0055717Y0065908D01*
X0054901Y0067506D02*
X0069380Y0067506D01*
X0069380Y0064309D02*
X0057316Y0064309D01*
X0056908Y0059514D02*
X0069380Y0059514D01*
X0069380Y0057915D02*
X0055310Y0057915D01*
X0055308Y0056317D02*
X0069380Y0056317D01*
X0080579Y0037134D02*
X0196322Y0037134D01*
X0194669Y0035536D02*
X0082178Y0035536D01*
X0083776Y0033937D02*
X0193445Y0033937D01*
X0192963Y0032339D02*
X0085375Y0032339D01*
X0086973Y0030740D02*
X0192998Y0030740D01*
X0193660Y0029142D02*
X0088572Y0029142D01*
X0090170Y0027543D02*
X0195335Y0027543D01*
X0195078Y0025945D02*
X0091769Y0025945D01*
X0093367Y0024346D02*
X0193614Y0024346D01*
X0194000Y0038733D02*
X0167563Y0038733D01*
X0167563Y0040332D02*
X0193168Y0040332D01*
X0192963Y0041930D02*
X0167563Y0041930D01*
X0167563Y0043529D02*
X0193275Y0043529D01*
X0194260Y0045127D02*
X0168041Y0045127D01*
X0169639Y0046726D02*
X0198941Y0046726D01*
X0194409Y0048324D02*
X0171238Y0048324D01*
X0172836Y0049923D02*
X0193337Y0049923D01*
X0192963Y0051521D02*
X0174435Y0051521D01*
X0175738Y0053120D02*
X0193106Y0053120D01*
X0193851Y0054718D02*
X0175738Y0054718D01*
X0175738Y0056317D02*
X0195963Y0056317D01*
X0194818Y0057915D02*
X0175738Y0057915D01*
X0177094Y0059514D02*
X0178631Y0059514D01*
X0177825Y0061112D02*
X0177094Y0061112D01*
X0177131Y0065908D02*
X0195041Y0065908D01*
X0195425Y0067506D02*
X0170395Y0067506D01*
X0170545Y0065908D02*
X0168796Y0065908D01*
X0168947Y0064309D02*
X0167316Y0064309D01*
X0169851Y0061112D02*
X0171545Y0061112D01*
X0171545Y0059514D02*
X0168252Y0059514D01*
X0166654Y0057915D02*
X0172838Y0057915D01*
X0172838Y0056317D02*
X0165308Y0056317D01*
X0166907Y0054718D02*
X0172838Y0054718D01*
X0171932Y0053120D02*
X0167563Y0053120D01*
X0167563Y0051521D02*
X0170333Y0051521D01*
X0168735Y0049923D02*
X0167317Y0049923D01*
X0167136Y0048324D02*
X0165719Y0048324D01*
X0158163Y0045127D02*
X0145983Y0045127D01*
X0146202Y0043529D02*
X0158163Y0043529D01*
X0158163Y0041930D02*
X0146202Y0041930D01*
X0146359Y0064309D02*
X0158410Y0064309D01*
X0160009Y0065908D02*
X0146359Y0065908D01*
X0146359Y0067506D02*
X0160825Y0067506D01*
X0159226Y0069105D02*
X0145824Y0069105D01*
X0164901Y0067506D02*
X0166294Y0067506D01*
X0166500Y0069105D02*
X0167892Y0069105D01*
X0167563Y0070703D02*
X0169491Y0070703D01*
X0168890Y0072302D02*
X0171089Y0072302D01*
X0170489Y0073900D02*
X0172688Y0073900D01*
X0172838Y0075499D02*
X0171238Y0075499D01*
X0171238Y0077097D02*
X0172838Y0077097D01*
X0171790Y0078696D02*
X0171238Y0078696D01*
X0171238Y0080294D02*
X0171545Y0080294D01*
X0171545Y0081893D02*
X0171238Y0081893D01*
X0171238Y0083491D02*
X0171545Y0083491D01*
X0171238Y0085090D02*
X0171975Y0085090D01*
X0171238Y0086688D02*
X0179813Y0086688D01*
X0179813Y0088287D02*
X0171238Y0088287D01*
X0171238Y0089885D02*
X0179813Y0089885D01*
X0179813Y0091484D02*
X0171238Y0091484D01*
X0171238Y0093082D02*
X0179813Y0093082D01*
X0179813Y0094681D02*
X0171238Y0094681D01*
X0171238Y0096279D02*
X0179813Y0096279D01*
X0179813Y0097878D02*
X0171238Y0097878D01*
X0171238Y0099476D02*
X0179813Y0099476D01*
X0179813Y0101075D02*
X0171238Y0101075D01*
X0171238Y0102673D02*
X0179813Y0102673D01*
X0179813Y0104272D02*
X0171238Y0104272D01*
X0171238Y0105870D02*
X0179813Y0105870D01*
X0179813Y0107469D02*
X0171238Y0107469D01*
X0171238Y0109068D02*
X0179813Y0109068D01*
X0179813Y0110666D02*
X0171238Y0110666D01*
X0171238Y0112265D02*
X0179813Y0112265D01*
X0179813Y0113863D02*
X0171238Y0113863D01*
X0169877Y0115462D02*
X0179813Y0115462D01*
X0179813Y0117060D02*
X0168279Y0117060D01*
X0166680Y0118659D02*
X0170170Y0118659D01*
X0169762Y0118828D02*
X0170931Y0118343D01*
X0172197Y0118343D01*
X0173366Y0118828D01*
X0174261Y0119722D01*
X0174745Y0120892D01*
X0174745Y0122157D01*
X0174261Y0123326D01*
X0173366Y0124221D01*
X0172197Y0124705D01*
X0170931Y0124705D01*
X0169762Y0124221D01*
X0169680Y0124140D01*
X0169781Y0124516D01*
X0169781Y0127115D01*
X0169781Y0129714D01*
X0169658Y0130172D01*
X0169421Y0130582D01*
X0169086Y0130918D01*
X0168676Y0131154D01*
X0168218Y0131277D01*
X0166406Y0131277D01*
X0166406Y0127115D01*
X0166406Y0122953D01*
X0168218Y0122953D01*
X0168676Y0123075D01*
X0168790Y0123142D01*
X0168383Y0122157D01*
X0168383Y0120892D01*
X0168867Y0119722D01*
X0169762Y0118828D01*
X0168646Y0120257D02*
X0165613Y0120257D01*
X0165613Y0121856D02*
X0168383Y0121856D01*
X0166406Y0123454D02*
X0166406Y0123454D01*
X0166406Y0125053D02*
X0166406Y0125053D01*
X0166406Y0126651D02*
X0166406Y0126651D01*
X0166406Y0127115D02*
X0166406Y0127115D01*
X0169781Y0127115D01*
X0166406Y0127115D01*
X0166406Y0128250D02*
X0166406Y0128250D01*
X0166406Y0129848D02*
X0166406Y0129848D01*
X0164242Y0131447D02*
X0179813Y0131447D01*
X0179813Y0133045D02*
X0162643Y0133045D01*
X0169745Y0129848D02*
X0179813Y0129848D01*
X0179813Y0128250D02*
X0169781Y0128250D01*
X0169781Y0126651D02*
X0179813Y0126651D01*
X0179813Y0125053D02*
X0169781Y0125053D01*
X0174133Y0123454D02*
X0179813Y0123454D01*
X0179813Y0121856D02*
X0174745Y0121856D01*
X0174482Y0120257D02*
X0179813Y0120257D01*
X0179813Y0118659D02*
X0172958Y0118659D01*
X0182713Y0118659D02*
X0193329Y0118659D01*
X0192963Y0117060D02*
X0182713Y0117060D01*
X0182713Y0115462D02*
X0193114Y0115462D01*
X0193870Y0113863D02*
X0182713Y0113863D01*
X0182713Y0112265D02*
X0196008Y0112265D01*
X0194799Y0110666D02*
X0182713Y0110666D01*
X0182713Y0109068D02*
X0193499Y0109068D01*
X0192963Y0107469D02*
X0182713Y0107469D01*
X0182713Y0105870D02*
X0192963Y0105870D01*
X0193606Y0104272D02*
X0182713Y0104272D01*
X0182713Y0102673D02*
X0195060Y0102673D01*
X0195379Y0101075D02*
X0182713Y0101075D01*
X0182713Y0099476D02*
X0193668Y0099476D01*
X0193006Y0097878D02*
X0182713Y0097878D01*
X0182713Y0096279D02*
X0192963Y0096279D01*
X0193437Y0094681D02*
X0182713Y0094681D01*
X0182713Y0093082D02*
X0194651Y0093082D01*
X0198941Y0091484D02*
X0182713Y0091484D01*
X0182713Y0089885D02*
X0198941Y0089885D01*
X0198941Y0088287D02*
X0182713Y0088287D01*
X0182713Y0086688D02*
X0196860Y0086688D01*
X0198866Y0086688D02*
X0198941Y0086688D01*
X0194223Y0085090D02*
X0183751Y0085090D01*
X0184181Y0083491D02*
X0193260Y0083491D01*
X0192963Y0081893D02*
X0184181Y0081893D01*
X0184181Y0080294D02*
X0193183Y0080294D01*
X0194038Y0078696D02*
X0183936Y0078696D01*
X0178876Y0078696D02*
X0176850Y0078696D01*
X0177094Y0080294D02*
X0178631Y0080294D01*
X0178631Y0081893D02*
X0177094Y0081893D01*
X0177094Y0083491D02*
X0178631Y0083491D01*
X0179062Y0085090D02*
X0176664Y0085090D01*
X0175738Y0077097D02*
X0196412Y0077097D01*
X0194632Y0075499D02*
X0175738Y0075499D01*
X0175738Y0073900D02*
X0193429Y0073900D01*
X0192963Y0072302D02*
X0175190Y0072302D01*
X0173592Y0070703D02*
X0193014Y0070703D01*
X0193676Y0069105D02*
X0171993Y0069105D01*
X0171545Y0062711D02*
X0171449Y0062711D01*
X0184181Y0062711D02*
X0192963Y0062711D01*
X0192963Y0061112D02*
X0184181Y0061112D01*
X0184181Y0059514D02*
X0193506Y0059514D01*
X0193599Y0064309D02*
X0184181Y0064309D01*
X0182713Y0120257D02*
X0194390Y0120257D01*
X0194279Y0123454D02*
X0182713Y0123454D01*
X0182713Y0121856D02*
X0198941Y0121856D01*
X0193283Y0125053D02*
X0182713Y0125053D01*
X0182713Y0126651D02*
X0192963Y0126651D01*
X0193160Y0128250D02*
X0182713Y0128250D01*
X0182713Y0129848D02*
X0193982Y0129848D01*
X0196277Y0131447D02*
X0182713Y0131447D01*
X0182713Y0133045D02*
X0194688Y0133045D01*
X0193452Y0134644D02*
X0182713Y0134644D01*
X0181721Y0136242D02*
X0192963Y0136242D01*
X0192990Y0137841D02*
X0180123Y0137841D01*
X0178524Y0139439D02*
X0193652Y0139439D01*
X0195289Y0141038D02*
X0176926Y0141038D01*
X0175327Y0142636D02*
X0195111Y0142636D01*
X0193622Y0144235D02*
X0173729Y0144235D01*
X0174067Y0145833D02*
X0192963Y0145833D01*
X0192963Y0147432D02*
X0174067Y0147432D01*
X0173513Y0149030D02*
X0193483Y0149030D01*
X0194762Y0150629D02*
X0172187Y0150629D01*
X0166147Y0150629D02*
X0146587Y0150629D01*
X0147913Y0149030D02*
X0164821Y0149030D01*
X0164892Y0144235D02*
X0147842Y0144235D01*
X0146414Y0142636D02*
X0166320Y0142636D01*
X0172825Y0141038D02*
X0144976Y0141038D01*
X0146574Y0139439D02*
X0174423Y0139439D01*
X0176022Y0137841D02*
X0148173Y0137841D01*
X0149771Y0136242D02*
X0177620Y0136242D01*
X0179219Y0134644D02*
X0151370Y0134644D01*
X0138635Y0130677D02*
X0137248Y0130677D01*
X0136545Y0129974D01*
X0136545Y0128450D01*
X0120137Y0128450D01*
X0082222Y0090535D01*
X0082222Y0091840D01*
X0082099Y0092298D01*
X0081862Y0092708D01*
X0081527Y0093044D01*
X0081117Y0093280D01*
X0080728Y0093385D01*
X0081117Y0093489D01*
X0081527Y0093726D01*
X0081862Y0094061D01*
X0082099Y0094471D01*
X0082222Y0094929D01*
X0082222Y0096950D01*
X0075768Y0096950D01*
X0075768Y0097319D01*
X0082222Y0097319D01*
X0082222Y0099340D01*
X0082099Y0099798D01*
X0081862Y0100208D01*
X0081527Y0100544D01*
X0081117Y0100780D01*
X0080659Y0100903D01*
X0075685Y0100903D01*
X0075685Y0100070D01*
X0075317Y0100439D01*
X0075317Y0100903D01*
X0070343Y0100903D01*
X0069885Y0100780D01*
X0069474Y0100544D01*
X0069139Y0100208D01*
X0068902Y0099798D01*
X0068780Y0099340D01*
X0068780Y0097319D01*
X0069406Y0097319D01*
X0069406Y0096950D01*
X0068780Y0096950D01*
X0068780Y0094929D01*
X0068902Y0094471D01*
X0069139Y0094061D01*
X0069474Y0093726D01*
X0069885Y0093489D01*
X0070274Y0093385D01*
X0069885Y0093280D01*
X0069474Y0093044D01*
X0069139Y0092708D01*
X0068902Y0092298D01*
X0068780Y0091840D01*
X0068780Y0090559D01*
X0065989Y0093350D01*
X0057563Y0093350D01*
X0057563Y0094062D01*
X0054810Y0096815D01*
X0050916Y0096815D01*
X0048163Y0094062D01*
X0048163Y0090168D01*
X0050916Y0087415D01*
X0054810Y0087415D01*
X0057563Y0090168D01*
X0057563Y0090450D01*
X0064787Y0090450D01*
X0070217Y0085020D01*
X0070030Y0085020D01*
X0069328Y0084318D01*
X0069328Y0080525D01*
X0057563Y0080525D01*
X0057563Y0084062D01*
X0054810Y0086815D01*
X0050916Y0086815D01*
X0050582Y0086481D01*
X0038652Y0098412D01*
X0039181Y0098941D01*
X0039181Y0104659D01*
X0038478Y0105362D01*
X0034334Y0105362D01*
X0033631Y0104659D01*
X0033631Y0098941D01*
X0034334Y0098238D01*
X0035138Y0098238D01*
X0035138Y0097824D01*
X0048532Y0084431D01*
X0048163Y0084062D01*
X0048163Y0080168D01*
X0048931Y0079400D01*
X0048889Y0079400D01*
X0030051Y0098238D01*
X0031392Y0098238D01*
X0032094Y0098941D01*
X0032094Y0104659D01*
X0031392Y0105362D01*
X0030717Y0105362D01*
X0030717Y0116103D01*
X0048113Y0133500D01*
X0048113Y0132981D01*
X0048836Y0131236D01*
X0050173Y0129899D01*
X0051235Y0129459D01*
X0055390Y0125304D01*
X0056446Y0124248D01*
X0057825Y0123677D01*
X0089466Y0123677D01*
X0089739Y0123403D01*
X0091485Y0122680D01*
X0093375Y0122680D01*
X0095120Y0123403D01*
X0096456Y0124739D01*
X0097180Y0126485D01*
X0097180Y0128375D01*
X0096456Y0130120D01*
X0095120Y0131456D01*
X0093375Y0132180D01*
X0091485Y0132180D01*
X0089739Y0131456D01*
X0089466Y0131183D01*
X0060126Y0131183D01*
X0057613Y0133696D01*
X0057613Y0134871D01*
X0056890Y0136616D01*
X0055553Y0137952D01*
X0053808Y0138676D01*
X0051918Y0138676D01*
X0050173Y0137952D01*
X0050126Y0137906D01*
X0050126Y0141101D01*
X0050531Y0141269D01*
X0051426Y0142163D01*
X0051910Y0143333D01*
X0051910Y0144598D01*
X0051426Y0145767D01*
X0050531Y0146662D01*
X0049362Y0147146D01*
X0048096Y0147146D01*
X0046927Y0146662D01*
X0046032Y0145767D01*
X0045548Y0144598D01*
X0045548Y0143333D01*
X0046032Y0142163D01*
X0046927Y0141269D01*
X0047332Y0141101D01*
X0047332Y0136670D01*
X0027923Y0117260D01*
X0027923Y0105362D01*
X0027248Y0105362D01*
X0026545Y0104659D01*
X0026545Y0101744D01*
X0021163Y0107126D01*
X0021163Y0138537D01*
X0021526Y0138687D01*
X0022426Y0139587D01*
X0022913Y0140763D01*
X0022913Y0142037D01*
X0022426Y0143213D01*
X0021526Y0144113D01*
X0020350Y0144600D01*
X0019076Y0144600D01*
X0018291Y0144275D01*
X0018291Y0165096D01*
X0017872Y0166107D01*
X0018206Y0166160D01*
X0019029Y0166427D01*
X0019801Y0166820D01*
X0020501Y0167329D01*
X0021113Y0167941D01*
X0021622Y0168642D01*
X0022015Y0169413D01*
X0022223Y0170054D01*
X0022764Y0168749D01*
X0024142Y0167370D01*
X0025943Y0166624D01*
X0027893Y0166624D01*
X0029694Y0167370D01*
X0030155Y0167832D01*
X0033113Y0164874D01*
X0033962Y0164025D01*
X0057602Y0164025D01*
X0057215Y0163090D01*
X0057215Y0161140D01*
X0057961Y0159339D01*
X0059339Y0157961D01*
X0060788Y0157361D01*
X0060788Y0150806D01*
X0059339Y0150206D01*
X0057961Y0148828D01*
X0057215Y0147027D01*
X0057215Y0145077D01*
X0057961Y0143276D01*
X0059339Y0141898D01*
X0061140Y0141152D01*
X0063090Y0141152D01*
X0064891Y0141898D01*
X0066269Y0143276D01*
X0067015Y0145077D01*
X0067015Y0147027D01*
X0066269Y0148828D01*
X0064891Y0150206D01*
X0063688Y0150704D01*
X0063688Y0157463D01*
X0064891Y0157961D01*
X0066269Y0159339D01*
X0067015Y0161140D01*
X0067015Y0163090D01*
X0066269Y0164891D01*
X0066010Y0165150D01*
X0068220Y0165150D01*
X0067961Y0164891D01*
X0067215Y0163090D01*
X0067215Y0161140D01*
X0067961Y0159339D01*
X0069339Y0157961D01*
X0070688Y0157402D01*
X0070688Y0150765D01*
X0069339Y0150206D01*
X0067961Y0148828D01*
X0067215Y0147027D01*
X0067215Y0145077D01*
X0067961Y0143276D01*
X0069339Y0141898D01*
X0071140Y0141152D01*
X0073090Y0141152D01*
X0074891Y0141898D01*
X0076269Y0143276D01*
X0077015Y0145077D01*
X0077015Y0147027D01*
X0076269Y0148828D01*
X0074891Y0150206D01*
X0073588Y0150746D01*
X0073588Y0157421D01*
X0074891Y0157961D01*
X0076269Y0159339D01*
X0077015Y0161140D01*
X0077015Y0163090D01*
X0076269Y0164891D01*
X0076010Y0165150D01*
X0078220Y0165150D01*
X0077961Y0164891D01*
X0077215Y0163090D01*
X0077215Y0161140D01*
X0077961Y0159339D01*
X0079339Y0157961D01*
X0080588Y0157444D01*
X0080588Y0150723D01*
X0079339Y0150206D01*
X0077961Y0148828D01*
X0077215Y0147027D01*
X0077215Y0145077D01*
X0077961Y0143276D01*
X0079339Y0141898D01*
X0081140Y0141152D01*
X0083090Y0141152D01*
X0084891Y0141898D01*
X0086269Y0143276D01*
X0087015Y0145077D01*
X0087015Y0147027D01*
X0086269Y0148828D01*
X0084891Y0150206D01*
X0083488Y0150787D01*
X0083488Y0157380D01*
X0084891Y0157961D01*
X0086269Y0159339D01*
X0087015Y0161140D01*
X0087015Y0163090D01*
X0086269Y0164891D01*
X0086010Y0165150D01*
X0088220Y0165150D01*
X0087961Y0164891D01*
X0087215Y0163090D01*
X0087215Y0161140D01*
X0087961Y0159339D01*
X0089339Y0157961D01*
X0090713Y0157392D01*
X0090713Y0150775D01*
X0089339Y0150206D01*
X0087961Y0148828D01*
X0087215Y0147027D01*
X0087215Y0145077D01*
X0087961Y0143276D01*
X0089339Y0141898D01*
X0091140Y0141152D01*
X0093090Y0141152D01*
X0094891Y0141898D01*
X0096269Y0143276D01*
X0097015Y0145077D01*
X0097015Y0147027D01*
X0096269Y0148828D01*
X0094891Y0150206D01*
X0093613Y0150735D01*
X0093613Y0157432D01*
X0094891Y0157961D01*
X0096269Y0159339D01*
X0097015Y0161140D01*
X0097015Y0163090D01*
X0096269Y0164891D01*
X0096010Y0165150D01*
X0098220Y0165150D01*
X0097961Y0164891D01*
X0097215Y0163090D01*
X0097215Y0161140D01*
X0097961Y0159339D01*
X0099339Y0157961D01*
X0100613Y0157433D01*
X0100613Y0150734D01*
X0099339Y0150206D01*
X0097961Y0148828D01*
X0097215Y0147027D01*
X0097215Y0145077D01*
X0097961Y0143276D01*
X0099339Y0141898D01*
X0101140Y0141152D01*
X0103090Y0141152D01*
X0104891Y0141898D01*
X0106269Y0143276D01*
X0107015Y0145077D01*
X0107015Y0147027D01*
X0106269Y0148828D01*
X0104891Y0150206D01*
X0103513Y0150777D01*
X0103513Y0157390D01*
X0104891Y0157961D01*
X0106269Y0159339D01*
X0107015Y0161140D01*
X0107015Y0163090D01*
X0106886Y0163400D01*
X0107200Y0163400D01*
X0107373Y0163472D01*
X0107215Y0163090D01*
X0107215Y0161140D01*
X0107961Y0159339D01*
X0109339Y0157961D01*
X0110738Y0157382D01*
X0110738Y0150785D01*
X0109339Y0150206D01*
X0107961Y0148828D01*
X0107215Y0147027D01*
X0107215Y0145077D01*
X0107961Y0143276D01*
X0109339Y0141898D01*
X0111140Y0141152D01*
X0113090Y0141152D01*
X0114891Y0141898D01*
X0116269Y0143276D01*
X0117015Y0145077D01*
X0117015Y0147027D01*
X0116269Y0148828D01*
X0114891Y0150206D01*
X0113638Y0150725D01*
X0113638Y0157442D01*
X0114891Y0157961D01*
X0116269Y0159339D01*
X0117015Y0161140D01*
X0117015Y0161276D01*
X0117215Y0161476D01*
X0117215Y0161140D01*
X0117961Y0159339D01*
X0119339Y0157961D01*
X0120638Y0157423D01*
X0120638Y0150744D01*
X0119339Y0150206D01*
X0117961Y0148828D01*
X0117215Y0147027D01*
X0117215Y0145077D01*
X0117961Y0143276D01*
X0119339Y0141898D01*
X0121140Y0141152D01*
X0123090Y0141152D01*
X0124891Y0141898D01*
X0126152Y0143160D01*
X0138635Y0130677D01*
X0137866Y0131447D02*
X0095130Y0131447D01*
X0096569Y0129848D02*
X0136545Y0129848D01*
X0136267Y0133045D02*
X0058264Y0133045D01*
X0057613Y0134644D02*
X0134669Y0134644D01*
X0133070Y0136242D02*
X0057045Y0136242D01*
X0055665Y0137841D02*
X0131472Y0137841D01*
X0129873Y0139439D02*
X0050126Y0139439D01*
X0050126Y0141038D02*
X0128275Y0141038D01*
X0126676Y0142636D02*
X0125629Y0142636D01*
X0120360Y0150629D02*
X0113870Y0150629D01*
X0113638Y0152227D02*
X0120638Y0152227D01*
X0120638Y0153826D02*
X0113638Y0153826D01*
X0113638Y0155424D02*
X0120638Y0155424D01*
X0120638Y0157023D02*
X0113638Y0157023D01*
X0115551Y0158621D02*
X0118679Y0158621D01*
X0117596Y0160220D02*
X0116634Y0160220D01*
X0116653Y0165015D02*
X0116144Y0165015D01*
X0114058Y0166614D02*
X0118251Y0166614D01*
X0125925Y0166614D02*
X0132276Y0166614D01*
X0134786Y0166614D02*
X0139131Y0166614D01*
X0139413Y0167295D02*
X0138667Y0165494D01*
X0138667Y0163544D01*
X0139413Y0161743D01*
X0140791Y0160365D01*
X0142592Y0159619D01*
X0144542Y0159619D01*
X0146343Y0160365D01*
X0147721Y0161743D01*
X0148293Y0163125D01*
X0164441Y0163125D01*
X0165013Y0161743D01*
X0166391Y0160365D01*
X0168192Y0159619D01*
X0170142Y0159619D01*
X0171943Y0160365D01*
X0173321Y0161743D01*
X0174067Y0163544D01*
X0174067Y0165494D01*
X0173321Y0167295D01*
X0171943Y0168673D01*
X0170142Y0169419D01*
X0168192Y0169419D01*
X0166391Y0168673D01*
X0165013Y0167295D01*
X0164487Y0166025D01*
X0148247Y0166025D01*
X0147721Y0167295D01*
X0146343Y0168673D01*
X0144542Y0169419D01*
X0142592Y0169419D01*
X0140791Y0168673D01*
X0139413Y0167295D01*
X0140331Y0168212D02*
X0137226Y0168212D01*
X0138082Y0169811D02*
X0193944Y0169811D01*
X0193144Y0168212D02*
X0172403Y0168212D01*
X0173603Y0166614D02*
X0192963Y0166614D01*
X0193298Y0165015D02*
X0174067Y0165015D01*
X0174014Y0163417D02*
X0194316Y0163417D01*
X0195597Y0161818D02*
X0173352Y0161818D01*
X0171592Y0160220D02*
X0193549Y0160220D01*
X0192672Y0158621D02*
X0133917Y0158621D01*
X0135516Y0157023D02*
X0192363Y0157023D01*
X0192527Y0155424D02*
X0137114Y0155424D01*
X0138713Y0153826D02*
X0193225Y0153826D01*
X0194800Y0152227D02*
X0140311Y0152227D01*
X0141141Y0160220D02*
X0132319Y0160220D01*
X0130720Y0161818D02*
X0139382Y0161818D01*
X0138720Y0163417D02*
X0129122Y0163417D01*
X0127523Y0165015D02*
X0138667Y0165015D01*
X0138281Y0171409D02*
X0196187Y0171409D01*
X0194725Y0173008D02*
X0137938Y0173008D01*
X0137292Y0174606D02*
X0193468Y0174606D01*
X0192963Y0176205D02*
X0137295Y0176205D01*
X0137299Y0177803D02*
X0144372Y0177803D01*
X0143973Y0179402D02*
X0137303Y0179402D01*
X0130088Y0185796D02*
X0120928Y0185796D01*
X0122523Y0187395D02*
X0131273Y0187395D01*
X0132749Y0188993D02*
X0123185Y0188993D01*
X0123505Y0190592D02*
X0132367Y0190592D01*
X0132475Y0192190D02*
X0123505Y0192190D01*
X0122904Y0193789D02*
X0133085Y0193789D01*
X0138063Y0191252D02*
X0147663Y0191252D01*
X0147663Y0190852D01*
X0142363Y0190852D01*
X0138063Y0190852D01*
X0138063Y0191252D01*
X0129808Y0184198D02*
X0090543Y0184198D01*
X0092141Y0185796D02*
X0103144Y0185796D01*
X0110928Y0185796D02*
X0113144Y0185796D01*
X0129804Y0182599D02*
X0088944Y0182599D01*
X0087073Y0181001D02*
X0129801Y0181001D01*
X0129797Y0179402D02*
X0014016Y0179402D01*
X0014016Y0177803D02*
X0035174Y0177803D01*
X0032451Y0176205D02*
X0028423Y0176205D01*
X0030766Y0174606D02*
X0031193Y0174606D01*
X0025414Y0176205D02*
X0019833Y0176205D01*
X0021477Y0174606D02*
X0023071Y0174606D01*
X0022229Y0173008D02*
X0022219Y0173008D01*
X0022144Y0169811D02*
X0022324Y0169811D01*
X0023300Y0168212D02*
X0021310Y0168212D01*
X0019395Y0166614D02*
X0031373Y0166614D01*
X0032972Y0165015D02*
X0018291Y0165015D01*
X0018291Y0163417D02*
X0057351Y0163417D01*
X0057215Y0161818D02*
X0018291Y0161818D01*
X0018291Y0160220D02*
X0057596Y0160220D01*
X0058679Y0158621D02*
X0018291Y0158621D01*
X0018291Y0157023D02*
X0060788Y0157023D01*
X0060788Y0155424D02*
X0018291Y0155424D01*
X0018291Y0153826D02*
X0060788Y0153826D01*
X0060788Y0152227D02*
X0018291Y0152227D01*
X0018291Y0150629D02*
X0060360Y0150629D01*
X0058164Y0149030D02*
X0018291Y0149030D01*
X0018291Y0147432D02*
X0057383Y0147432D01*
X0057215Y0145833D02*
X0051360Y0145833D01*
X0051910Y0144235D02*
X0057564Y0144235D01*
X0058601Y0142636D02*
X0051622Y0142636D01*
X0047332Y0141038D02*
X0022913Y0141038D01*
X0022665Y0142636D02*
X0045836Y0142636D01*
X0045548Y0144235D02*
X0021231Y0144235D01*
X0018291Y0145833D02*
X0046098Y0145833D01*
X0047332Y0139439D02*
X0022278Y0139439D01*
X0021163Y0137841D02*
X0047332Y0137841D01*
X0046905Y0136242D02*
X0021163Y0136242D01*
X0021163Y0134644D02*
X0045306Y0134644D01*
X0043708Y0133045D02*
X0021163Y0133045D01*
X0021163Y0131447D02*
X0042109Y0131447D01*
X0040511Y0129848D02*
X0021163Y0129848D01*
X0021163Y0128250D02*
X0038912Y0128250D01*
X0037313Y0126651D02*
X0021163Y0126651D01*
X0021163Y0125053D02*
X0035715Y0125053D01*
X0034116Y0123454D02*
X0021163Y0123454D01*
X0021163Y0121856D02*
X0032518Y0121856D01*
X0030919Y0120257D02*
X0021163Y0120257D01*
X0021163Y0118659D02*
X0029321Y0118659D01*
X0027923Y0117060D02*
X0021163Y0117060D01*
X0021163Y0115462D02*
X0027923Y0115462D01*
X0027923Y0113863D02*
X0021163Y0113863D01*
X0021163Y0112265D02*
X0027923Y0112265D01*
X0027923Y0110666D02*
X0021163Y0110666D01*
X0021163Y0109068D02*
X0027923Y0109068D01*
X0027923Y0107469D02*
X0021163Y0107469D01*
X0022418Y0105870D02*
X0027923Y0105870D01*
X0026545Y0104272D02*
X0024017Y0104272D01*
X0025615Y0102673D02*
X0026545Y0102673D01*
X0024711Y0099476D02*
X0012852Y0099476D01*
X0013317Y0101075D02*
X0023112Y0101075D01*
X0021514Y0102673D02*
X0013293Y0102673D01*
X0012776Y0104272D02*
X0019915Y0104272D01*
X0018317Y0105870D02*
X0011571Y0105870D01*
X0012680Y0107469D02*
X0018263Y0107469D01*
X0018263Y0109068D02*
X0013733Y0109068D01*
X0014331Y0110666D02*
X0018263Y0110666D01*
X0018263Y0112265D02*
X0014331Y0112265D01*
X0014808Y0113863D02*
X0018263Y0113863D01*
X0018263Y0115462D02*
X0016407Y0115462D01*
X0017838Y0117060D02*
X0018263Y0117060D01*
X0030717Y0115462D02*
X0048714Y0115462D01*
X0047563Y0114310D02*
X0047563Y0112115D01*
X0052863Y0112115D01*
X0052863Y0112115D01*
X0052863Y0117415D01*
X0055058Y0117415D01*
X0058163Y0114310D01*
X0058163Y0112115D01*
X0052863Y0112115D01*
X0052863Y0112115D01*
X0052863Y0117415D01*
X0050668Y0117415D01*
X0047563Y0114310D01*
X0047563Y0113863D02*
X0030717Y0113863D01*
X0030717Y0112265D02*
X0047563Y0112265D01*
X0047563Y0112115D02*
X0047563Y0109920D01*
X0050368Y0107115D01*
X0047563Y0104310D01*
X0047563Y0102115D01*
X0052863Y0102115D01*
X0052863Y0102115D01*
X0052863Y0106815D01*
X0052863Y0112115D01*
X0058163Y0112115D01*
X0058163Y0109920D01*
X0055358Y0107115D01*
X0058163Y0104310D01*
X0058163Y0102115D01*
X0052863Y0102115D01*
X0052863Y0102115D01*
X0052863Y0112115D01*
X0052863Y0112115D01*
X0052863Y0112115D01*
X0047563Y0112115D01*
X0047563Y0110666D02*
X0030717Y0110666D01*
X0030717Y0109068D02*
X0048415Y0109068D01*
X0050014Y0107469D02*
X0030717Y0107469D01*
X0030717Y0105870D02*
X0049123Y0105870D01*
X0047563Y0104272D02*
X0039181Y0104272D01*
X0039181Y0102673D02*
X0047563Y0102673D01*
X0047563Y0102115D02*
X0047563Y0099920D01*
X0050668Y0096815D01*
X0052863Y0096815D01*
X0055058Y0096815D01*
X0058163Y0099920D01*
X0058163Y0102115D01*
X0052863Y0102115D01*
X0052863Y0102115D01*
X0052863Y0096815D01*
X0052863Y0102115D01*
X0052863Y0102115D01*
X0047563Y0102115D01*
X0047563Y0101075D02*
X0039181Y0101075D01*
X0039181Y0099476D02*
X0048006Y0099476D01*
X0049605Y0097878D02*
X0039186Y0097878D01*
X0040784Y0096279D02*
X0050381Y0096279D01*
X0048782Y0094681D02*
X0042383Y0094681D01*
X0043981Y0093082D02*
X0048163Y0093082D01*
X0048163Y0091484D02*
X0045580Y0091484D01*
X0047178Y0089885D02*
X0048446Y0089885D01*
X0048777Y0088287D02*
X0050044Y0088287D01*
X0050375Y0086688D02*
X0050790Y0086688D01*
X0047873Y0085090D02*
X0043199Y0085090D01*
X0044797Y0083491D02*
X0048163Y0083491D01*
X0048163Y0081893D02*
X0046396Y0081893D01*
X0047994Y0080294D02*
X0048163Y0080294D01*
X0045492Y0078696D02*
X0011688Y0078696D01*
X0012543Y0080294D02*
X0043893Y0080294D01*
X0042295Y0081893D02*
X0012763Y0081893D01*
X0012466Y0083491D02*
X0040696Y0083491D01*
X0039098Y0085090D02*
X0011503Y0085090D01*
X0009929Y0086688D02*
X0037499Y0086688D01*
X0035901Y0088287D02*
X0012109Y0088287D01*
X0013024Y0089885D02*
X0034302Y0089885D01*
X0032703Y0091484D02*
X0013363Y0091484D01*
X0013228Y0093082D02*
X0031105Y0093082D01*
X0029506Y0094681D02*
X0012568Y0094681D01*
X0011055Y0096279D02*
X0027908Y0096279D01*
X0026309Y0097878D02*
X0011719Y0097878D01*
X0008063Y0097878D02*
X0007663Y0097878D01*
X0007663Y0097300D02*
X0007663Y0092000D01*
X0008063Y0092000D01*
X0008063Y0101600D01*
X0007663Y0101600D01*
X0007663Y0097300D01*
X0007663Y0096279D02*
X0008063Y0096279D01*
X0008063Y0094681D02*
X0007663Y0094681D01*
X0007663Y0093082D02*
X0008063Y0093082D01*
X0008063Y0099476D02*
X0007663Y0099476D01*
X0007663Y0101075D02*
X0008063Y0101075D01*
X0009314Y0077097D02*
X0047090Y0077097D01*
X0049600Y0075499D02*
X0007179Y0075499D01*
X0007179Y0073900D02*
X0048163Y0073900D01*
X0048163Y0072302D02*
X0007179Y0072302D01*
X0007179Y0070703D02*
X0048163Y0070703D01*
X0049226Y0069105D02*
X0007179Y0069105D01*
X0007179Y0067506D02*
X0050825Y0067506D01*
X0050009Y0065908D02*
X0010685Y0065908D01*
X0012127Y0064309D02*
X0048410Y0064309D01*
X0048163Y0062711D02*
X0012763Y0062711D01*
X0012763Y0061112D02*
X0048163Y0061112D01*
X0048817Y0059514D02*
X0012220Y0059514D01*
X0010908Y0057915D02*
X0050416Y0057915D01*
X0050418Y0056317D02*
X0009763Y0056317D01*
X0011874Y0054718D02*
X0048819Y0054718D01*
X0048163Y0053120D02*
X0012620Y0053120D01*
X0012763Y0051521D02*
X0048163Y0051521D01*
X0048409Y0049923D02*
X0012389Y0049923D01*
X0011317Y0048324D02*
X0050007Y0048324D01*
X0048777Y0046726D02*
X0007179Y0046726D01*
X0011466Y0045127D02*
X0048163Y0045127D01*
X0048163Y0043529D02*
X0012451Y0043529D01*
X0012763Y0041930D02*
X0048163Y0041930D01*
X0048163Y0040332D02*
X0012558Y0040332D01*
X0011726Y0038733D02*
X0048163Y0038733D01*
X0057563Y0081893D02*
X0069328Y0081893D01*
X0069328Y0083491D02*
X0057563Y0083491D01*
X0056535Y0085090D02*
X0070148Y0085090D01*
X0068549Y0086688D02*
X0054936Y0086688D01*
X0055682Y0088287D02*
X0066951Y0088287D01*
X0065352Y0089885D02*
X0057280Y0089885D01*
X0056944Y0094681D02*
X0068846Y0094681D01*
X0068780Y0096279D02*
X0055345Y0096279D01*
X0056121Y0097878D02*
X0068780Y0097878D01*
X0068816Y0099476D02*
X0057720Y0099476D01*
X0058163Y0101075D02*
X0092762Y0101075D01*
X0091164Y0099476D02*
X0082186Y0099476D01*
X0082222Y0097878D02*
X0089565Y0097878D01*
X0087967Y0096279D02*
X0082222Y0096279D01*
X0082156Y0094681D02*
X0086368Y0094681D01*
X0084770Y0093082D02*
X0081460Y0093082D01*
X0082222Y0091484D02*
X0083171Y0091484D01*
X0094361Y0102673D02*
X0058163Y0102673D01*
X0058163Y0104272D02*
X0095959Y0104272D01*
X0097558Y0105870D02*
X0056603Y0105870D01*
X0055712Y0107469D02*
X0099156Y0107469D01*
X0100755Y0109068D02*
X0057311Y0109068D01*
X0058163Y0110666D02*
X0102353Y0110666D01*
X0103952Y0112265D02*
X0058163Y0112265D01*
X0058163Y0113863D02*
X0105550Y0113863D01*
X0107149Y0115462D02*
X0057012Y0115462D01*
X0055413Y0117060D02*
X0108747Y0117060D01*
X0110346Y0118659D02*
X0033272Y0118659D01*
X0034870Y0120257D02*
X0111944Y0120257D01*
X0113543Y0121856D02*
X0036469Y0121856D01*
X0038067Y0123454D02*
X0089689Y0123454D01*
X0095171Y0123454D02*
X0115142Y0123454D01*
X0116740Y0125053D02*
X0096586Y0125053D01*
X0097180Y0126651D02*
X0118339Y0126651D01*
X0119937Y0128250D02*
X0097180Y0128250D01*
X0089730Y0131447D02*
X0059862Y0131447D01*
X0055390Y0125304D02*
X0055390Y0125304D01*
X0055642Y0125053D02*
X0039666Y0125053D01*
X0041264Y0126651D02*
X0054043Y0126651D01*
X0052445Y0128250D02*
X0042863Y0128250D01*
X0044461Y0129848D02*
X0050296Y0129848D01*
X0048749Y0131447D02*
X0046060Y0131447D01*
X0047658Y0133045D02*
X0048113Y0133045D01*
X0050313Y0117060D02*
X0031673Y0117060D01*
X0032094Y0104272D02*
X0033631Y0104272D01*
X0033631Y0102673D02*
X0032094Y0102673D01*
X0032094Y0101075D02*
X0033631Y0101075D01*
X0033631Y0099476D02*
X0032094Y0099476D01*
X0030411Y0097878D02*
X0035138Y0097878D01*
X0036683Y0096279D02*
X0032009Y0096279D01*
X0033608Y0094681D02*
X0038281Y0094681D01*
X0039880Y0093082D02*
X0035206Y0093082D01*
X0036805Y0091484D02*
X0041478Y0091484D01*
X0043077Y0089885D02*
X0038403Y0089885D01*
X0040002Y0088287D02*
X0044676Y0088287D01*
X0046274Y0086688D02*
X0041600Y0086688D01*
X0052863Y0097878D02*
X0052863Y0097878D01*
X0052863Y0099476D02*
X0052863Y0099476D01*
X0052863Y0101075D02*
X0052863Y0101075D01*
X0052863Y0102673D02*
X0052863Y0102673D01*
X0052863Y0104272D02*
X0052863Y0104272D01*
X0052863Y0105870D02*
X0052863Y0105870D01*
X0052863Y0107469D02*
X0052863Y0107469D01*
X0052863Y0109068D02*
X0052863Y0109068D01*
X0052863Y0110666D02*
X0052863Y0110666D01*
X0052863Y0112265D02*
X0052863Y0112265D01*
X0052863Y0113863D02*
X0052863Y0113863D01*
X0052863Y0115462D02*
X0052863Y0115462D01*
X0052863Y0117060D02*
X0052863Y0117060D01*
X0066256Y0093082D02*
X0069542Y0093082D01*
X0068780Y0091484D02*
X0067855Y0091484D01*
X0068601Y0142636D02*
X0065629Y0142636D01*
X0066666Y0144235D02*
X0067564Y0144235D01*
X0067215Y0145833D02*
X0067015Y0145833D01*
X0066847Y0147432D02*
X0067383Y0147432D01*
X0068164Y0149030D02*
X0066066Y0149030D01*
X0063870Y0150629D02*
X0070360Y0150629D01*
X0070688Y0152227D02*
X0063688Y0152227D01*
X0063688Y0153826D02*
X0070688Y0153826D01*
X0070688Y0155424D02*
X0063688Y0155424D01*
X0063688Y0157023D02*
X0070688Y0157023D01*
X0068679Y0158621D02*
X0065551Y0158621D01*
X0066634Y0160220D02*
X0067596Y0160220D01*
X0067215Y0161818D02*
X0067015Y0161818D01*
X0066879Y0163417D02*
X0067351Y0163417D01*
X0068086Y0165015D02*
X0066144Y0165015D01*
X0076144Y0165015D02*
X0078086Y0165015D01*
X0077351Y0163417D02*
X0076879Y0163417D01*
X0077015Y0161818D02*
X0077215Y0161818D01*
X0077596Y0160220D02*
X0076634Y0160220D01*
X0075551Y0158621D02*
X0078679Y0158621D01*
X0080588Y0157023D02*
X0073588Y0157023D01*
X0073588Y0155424D02*
X0080588Y0155424D01*
X0080588Y0153826D02*
X0073588Y0153826D01*
X0073588Y0152227D02*
X0080588Y0152227D01*
X0080360Y0150629D02*
X0073870Y0150629D01*
X0076066Y0149030D02*
X0078164Y0149030D01*
X0077383Y0147432D02*
X0076847Y0147432D01*
X0077015Y0145833D02*
X0077215Y0145833D01*
X0077564Y0144235D02*
X0076666Y0144235D01*
X0075629Y0142636D02*
X0078601Y0142636D01*
X0083870Y0150629D02*
X0090360Y0150629D01*
X0090713Y0152227D02*
X0083488Y0152227D01*
X0083488Y0153826D02*
X0090713Y0153826D01*
X0090713Y0155424D02*
X0083488Y0155424D01*
X0083488Y0157023D02*
X0090713Y0157023D01*
X0088679Y0158621D02*
X0085551Y0158621D01*
X0086634Y0160220D02*
X0087596Y0160220D01*
X0087215Y0161818D02*
X0087015Y0161818D01*
X0086879Y0163417D02*
X0087351Y0163417D01*
X0088086Y0165015D02*
X0086144Y0165015D01*
X0093613Y0157023D02*
X0100613Y0157023D01*
X0100613Y0155424D02*
X0093613Y0155424D01*
X0093613Y0153826D02*
X0100613Y0153826D01*
X0100613Y0152227D02*
X0093613Y0152227D01*
X0093870Y0150629D02*
X0100360Y0150629D01*
X0098164Y0149030D02*
X0096066Y0149030D01*
X0096847Y0147432D02*
X0097383Y0147432D01*
X0097215Y0145833D02*
X0097015Y0145833D01*
X0096666Y0144235D02*
X0097564Y0144235D01*
X0098601Y0142636D02*
X0095629Y0142636D01*
X0088601Y0142636D02*
X0085629Y0142636D01*
X0086666Y0144235D02*
X0087564Y0144235D01*
X0087215Y0145833D02*
X0087015Y0145833D01*
X0086847Y0147432D02*
X0087383Y0147432D01*
X0088164Y0149030D02*
X0086066Y0149030D01*
X0095551Y0158621D02*
X0098679Y0158621D01*
X0097596Y0160220D02*
X0096634Y0160220D01*
X0097015Y0161818D02*
X0097215Y0161818D01*
X0097351Y0163417D02*
X0096879Y0163417D01*
X0096144Y0165015D02*
X0098086Y0165015D01*
X0103767Y0168212D02*
X0056046Y0168212D01*
X0057087Y0169811D02*
X0128980Y0169811D01*
X0128782Y0171409D02*
X0057416Y0171409D01*
X0057203Y0173008D02*
X0129125Y0173008D01*
X0129786Y0174606D02*
X0056327Y0174606D01*
X0053839Y0176205D02*
X0129790Y0176205D01*
X0129793Y0177803D02*
X0038662Y0177803D01*
X0041385Y0176205D02*
X0051493Y0176205D01*
X0022328Y0181001D02*
X0014016Y0181001D01*
X0014016Y0182599D02*
X0020457Y0182599D01*
X0018858Y0184198D02*
X0015393Y0184198D01*
X0016718Y0176205D02*
X0017118Y0176205D01*
X0017118Y0174606D02*
X0016718Y0174606D01*
X0016718Y0173008D02*
X0017118Y0173008D01*
X0103513Y0157023D02*
X0110738Y0157023D01*
X0110738Y0155424D02*
X0103513Y0155424D01*
X0103513Y0153826D02*
X0110738Y0153826D01*
X0110738Y0152227D02*
X0103513Y0152227D01*
X0103870Y0150629D02*
X0110360Y0150629D01*
X0108164Y0149030D02*
X0106066Y0149030D01*
X0106847Y0147432D02*
X0107383Y0147432D01*
X0107215Y0145833D02*
X0107015Y0145833D01*
X0106666Y0144235D02*
X0107564Y0144235D01*
X0108601Y0142636D02*
X0105629Y0142636D01*
X0115629Y0142636D02*
X0118601Y0142636D01*
X0117564Y0144235D02*
X0116666Y0144235D01*
X0117015Y0145833D02*
X0117215Y0145833D01*
X0117383Y0147432D02*
X0116847Y0147432D01*
X0116066Y0149030D02*
X0118164Y0149030D01*
X0108679Y0158621D02*
X0105551Y0158621D01*
X0106634Y0160220D02*
X0107596Y0160220D01*
X0107215Y0161818D02*
X0107015Y0161818D01*
X0107240Y0163417D02*
X0107351Y0163417D01*
X0109763Y0166614D02*
X0110172Y0166614D01*
X0109359Y0168212D02*
X0129837Y0168212D01*
X0146803Y0168212D02*
X0165931Y0168212D01*
X0164731Y0166614D02*
X0148003Y0166614D01*
X0147752Y0161818D02*
X0164982Y0161818D01*
X0166741Y0160220D02*
X0145992Y0160220D01*
X0149937Y0177803D02*
X0192975Y0177803D01*
X0193637Y0179402D02*
X0172755Y0179402D01*
X0174354Y0181001D02*
X0195200Y0181001D01*
X0195201Y0182599D02*
X0175952Y0182599D01*
X0176110Y0184198D02*
X0193637Y0184198D01*
X0192975Y0185796D02*
X0183882Y0185796D01*
X0183102Y0185796D02*
X0182702Y0185796D01*
X0181923Y0185796D02*
X0176110Y0185796D01*
X0176110Y0187395D02*
X0178939Y0187395D01*
X0177859Y0188993D02*
X0177288Y0188993D01*
X0182702Y0188993D02*
X0183102Y0188993D01*
X0183102Y0187395D02*
X0182702Y0187395D01*
X0182702Y0190592D02*
X0183102Y0190592D01*
X0186866Y0187395D02*
X0192963Y0187395D01*
X0193468Y0188993D02*
X0187946Y0188993D01*
X0188373Y0190592D02*
X0194725Y0190592D01*
X0197733Y0192190D02*
X0188316Y0192190D01*
X0187761Y0193789D02*
X0196135Y0193789D01*
X0157130Y0194177D02*
X0156434Y0192496D01*
X0156434Y0190053D01*
X0154509Y0188128D01*
X0152537Y0188128D01*
X0152567Y0188169D01*
X0152960Y0188941D01*
X0153228Y0189764D01*
X0153363Y0190619D01*
X0153363Y0190852D01*
X0148063Y0190852D01*
X0148063Y0191252D01*
X0153363Y0191252D01*
X0153363Y0191485D01*
X0153228Y0192340D01*
X0152960Y0193163D01*
X0152567Y0193935D01*
X0152391Y0194177D01*
X0157130Y0194177D01*
X0156969Y0193789D02*
X0152641Y0193789D01*
X0153251Y0192190D02*
X0156434Y0192190D01*
X0156434Y0190592D02*
X0153359Y0190592D01*
X0152977Y0188993D02*
X0155374Y0188993D01*
D19*
X0106563Y0166600D03*
X0167088Y0076375D03*
X0019713Y0141400D03*
D20*
X0029320Y0116682D02*
X0048729Y0136091D01*
X0048729Y0143965D01*
X0029320Y0116682D02*
X0029320Y0101800D01*
X0147154Y0179398D02*
X0170776Y0179398D01*
X0174713Y0183335D01*
X0174713Y0189398D01*
X0172902Y0191209D01*
D21*
X0147154Y0179398D03*
X0133531Y0171235D03*
X0092430Y0127430D03*
X0092036Y0127430D03*
X0109359Y0097115D03*
X0109753Y0097115D03*
X0052863Y0133926D03*
X0048729Y0143965D03*
X0052666Y0171550D03*
X0171564Y0121524D03*
D22*
X0143060Y0097233D03*
X0143060Y0089674D03*
X0143060Y0081761D03*
X0143060Y0073965D03*
X0143178Y0066091D03*
X0143060Y0058217D03*
X0143020Y0050304D03*
X0143020Y0042430D03*
X0072509Y0042351D03*
X0072706Y0050422D03*
X0072706Y0058217D03*
X0072627Y0066091D03*
X0072587Y0073887D03*
X0072509Y0081839D03*
X0072587Y0089674D03*
X0072587Y0097509D03*
M02*
