G75*
%MOIN*%
%OFA0B0*%
%FSLAX25Y25*%
%IPPOS*%
%LPD*%
%AMOC8*
5,1,8,0,0,1.08239X$1,22.5*
%
%ADD10C,0.07400*%
%ADD11R,0.04724X0.09843*%
%ADD12C,0.01000*%
%ADD13C,0.02400*%
%ADD14C,0.01600*%
D10*
X0015512Y0015145D03*
X0015512Y0025145D03*
X0015512Y0035145D03*
X0015512Y0045145D03*
X0015512Y0055145D03*
X0015512Y0065145D03*
X0015512Y0075145D03*
X0015512Y0085145D03*
X0050831Y0065792D03*
X0068631Y0065792D03*
X0068631Y0040192D03*
X0050831Y0040192D03*
X0104864Y0045012D03*
X0104864Y0035012D03*
X0104864Y0025012D03*
X0104864Y0015012D03*
X0104864Y0055012D03*
X0104864Y0065012D03*
X0104864Y0075012D03*
X0104864Y0085012D03*
D11*
X0030204Y0101848D03*
X0020361Y0101848D03*
X0010519Y0101848D03*
D12*
X0003743Y0027854D02*
X0003676Y0004156D01*
X0116286Y0004922D01*
X0116286Y0118052D01*
X0004000Y0118202D01*
X0003994Y0116308D01*
X0005535Y0116947D01*
X0007234Y0116947D01*
X0008804Y0116296D01*
X0010006Y0115095D01*
X0010656Y0113525D01*
X0010656Y0111825D01*
X0010006Y0110255D01*
X0008804Y0109054D01*
X0008360Y0108869D01*
X0013751Y0108869D01*
X0014981Y0107639D01*
X0014981Y0096057D01*
X0013751Y0094827D01*
X0009582Y0094827D01*
X0008976Y0094221D01*
X0008976Y0031955D01*
X0011548Y0029383D01*
X0012226Y0030062D01*
X0012427Y0030145D01*
X0012226Y0030228D01*
X0010595Y0031859D01*
X0009712Y0033991D01*
X0009712Y0036298D01*
X0010595Y0038430D01*
X0012226Y0040062D01*
X0012427Y0040145D01*
X0012226Y0040228D01*
X0010595Y0041859D01*
X0009712Y0043991D01*
X0009712Y0046298D01*
X0010595Y0048430D01*
X0012226Y0050062D01*
X0012427Y0050145D01*
X0012226Y0050228D01*
X0010595Y0051859D01*
X0009712Y0053991D01*
X0009712Y0056298D01*
X0010595Y0058430D01*
X0012226Y0060062D01*
X0012427Y0060145D01*
X0012226Y0060228D01*
X0010595Y0061859D01*
X0009712Y0063991D01*
X0009712Y0066298D01*
X0010595Y0068430D01*
X0012226Y0070062D01*
X0012427Y0070145D01*
X0012226Y0070228D01*
X0010595Y0071859D01*
X0009712Y0073991D01*
X0009712Y0076298D01*
X0010595Y0078430D01*
X0012226Y0080062D01*
X0012427Y0080145D01*
X0012226Y0080228D01*
X0010595Y0081859D01*
X0009712Y0083991D01*
X0009712Y0086298D01*
X0010595Y0088430D01*
X0012226Y0090062D01*
X0014358Y0090945D01*
X0016665Y0090945D01*
X0018797Y0090062D01*
X0020429Y0088430D01*
X0021312Y0086298D01*
X0021312Y0083991D01*
X0020429Y0081859D01*
X0018797Y0080228D01*
X0018597Y0080145D01*
X0018797Y0080062D01*
X0020429Y0078430D01*
X0021312Y0076298D01*
X0021312Y0073991D01*
X0020429Y0071859D01*
X0018797Y0070228D01*
X0018597Y0070145D01*
X0018797Y0070062D01*
X0020429Y0068430D01*
X0021312Y0066298D01*
X0021312Y0063991D01*
X0020429Y0061859D01*
X0018797Y0060228D01*
X0018597Y0060145D01*
X0018797Y0060062D01*
X0020429Y0058430D01*
X0021312Y0056298D01*
X0021312Y0053991D01*
X0020429Y0051859D01*
X0018797Y0050228D01*
X0018597Y0050145D01*
X0018797Y0050062D01*
X0020429Y0048430D01*
X0021312Y0046298D01*
X0021312Y0043991D01*
X0020429Y0041859D01*
X0018797Y0040228D01*
X0018597Y0040145D01*
X0018797Y0040062D01*
X0020429Y0038430D01*
X0021312Y0036298D01*
X0021312Y0033991D01*
X0020429Y0031859D01*
X0018797Y0030228D01*
X0018597Y0030145D01*
X0018797Y0030062D01*
X0020429Y0028430D01*
X0021312Y0026298D01*
X0021312Y0023991D01*
X0020429Y0021859D01*
X0018797Y0020228D01*
X0017800Y0019815D01*
X0018237Y0019592D01*
X0018899Y0019111D01*
X0019478Y0018532D01*
X0019959Y0017870D01*
X0020331Y0017141D01*
X0020584Y0016362D01*
X0020697Y0015645D01*
X0016012Y0015645D01*
X0016012Y0014645D01*
X0020697Y0014645D01*
X0020584Y0013927D01*
X0020331Y0013149D01*
X0019959Y0012419D01*
X0019478Y0011757D01*
X0018899Y0011178D01*
X0018237Y0010697D01*
X0017508Y0010326D01*
X0016729Y0010073D01*
X0016012Y0009959D01*
X0016012Y0014645D01*
X0015012Y0014645D01*
X0015012Y0009959D01*
X0014294Y0010073D01*
X0013516Y0010326D01*
X0012786Y0010697D01*
X0012124Y0011178D01*
X0011545Y0011757D01*
X0011064Y0012419D01*
X0010693Y0013149D01*
X0010440Y0013927D01*
X0010326Y0014645D01*
X0015012Y0014645D01*
X0015012Y0015645D01*
X0010326Y0015645D01*
X0010440Y0016362D01*
X0010693Y0017141D01*
X0011064Y0017870D01*
X0011545Y0018532D01*
X0012124Y0019111D01*
X0012786Y0019592D01*
X0013223Y0019815D01*
X0012226Y0020228D01*
X0010595Y0021859D01*
X0010417Y0022288D01*
X0010020Y0022288D01*
X0008807Y0022791D01*
X0007878Y0023719D01*
X0003743Y0027854D01*
X0003742Y0027258D02*
X0004340Y0027258D01*
X0003739Y0026259D02*
X0005338Y0026259D01*
X0006337Y0025261D02*
X0003736Y0025261D01*
X0003733Y0024262D02*
X0007335Y0024262D01*
X0008334Y0023264D02*
X0003730Y0023264D01*
X0003728Y0022265D02*
X0010426Y0022265D01*
X0011187Y0021267D02*
X0003725Y0021267D01*
X0003722Y0020268D02*
X0012186Y0020268D01*
X0012343Y0019270D02*
X0003719Y0019270D01*
X0003716Y0018271D02*
X0011356Y0018271D01*
X0010760Y0017273D02*
X0003713Y0017273D01*
X0003711Y0016274D02*
X0010426Y0016274D01*
X0010384Y0014277D02*
X0003705Y0014277D01*
X0003702Y0013279D02*
X0010650Y0013279D01*
X0011165Y0012280D02*
X0003699Y0012280D01*
X0003696Y0011282D02*
X0012021Y0011282D01*
X0013646Y0010283D02*
X0003694Y0010283D01*
X0003691Y0009285D02*
X0116286Y0009285D01*
X0116286Y0010283D02*
X0107036Y0010283D01*
X0106860Y0010193D02*
X0107589Y0010565D01*
X0108251Y0011046D01*
X0108830Y0011625D01*
X0109311Y0012287D01*
X0109683Y0013016D01*
X0109936Y0013795D01*
X0110049Y0014512D01*
X0105364Y0014512D01*
X0105364Y0015512D01*
X0110049Y0015512D01*
X0109936Y0016230D01*
X0109683Y0017008D01*
X0109311Y0017738D01*
X0108830Y0018400D01*
X0108251Y0018979D01*
X0107589Y0019460D01*
X0107152Y0019682D01*
X0108149Y0020095D01*
X0109781Y0021727D01*
X0110664Y0023859D01*
X0110664Y0026166D01*
X0109781Y0028298D01*
X0108149Y0029929D01*
X0107949Y0030012D01*
X0108149Y0030095D01*
X0109781Y0031727D01*
X0110664Y0033859D01*
X0110664Y0036166D01*
X0109781Y0038298D01*
X0108149Y0039929D01*
X0107949Y0040012D01*
X0108149Y0040095D01*
X0109781Y0041727D01*
X0110664Y0043859D01*
X0110664Y0046166D01*
X0109781Y0048298D01*
X0108149Y0049929D01*
X0107949Y0050012D01*
X0108149Y0050095D01*
X0109781Y0051727D01*
X0110664Y0053859D01*
X0110664Y0056166D01*
X0109781Y0058298D01*
X0108149Y0059929D01*
X0107949Y0060012D01*
X0108149Y0060095D01*
X0109781Y0061727D01*
X0110664Y0063859D01*
X0110664Y0066166D01*
X0109781Y0068298D01*
X0108149Y0069929D01*
X0107949Y0070012D01*
X0108149Y0070095D01*
X0109781Y0071727D01*
X0110664Y0073859D01*
X0110664Y0076166D01*
X0109781Y0078298D01*
X0108149Y0079929D01*
X0107949Y0080012D01*
X0108149Y0080095D01*
X0109781Y0081727D01*
X0110664Y0083859D01*
X0110664Y0086166D01*
X0109781Y0088298D01*
X0108149Y0089929D01*
X0106017Y0090812D01*
X0103710Y0090812D01*
X0101578Y0089929D01*
X0099947Y0088298D01*
X0099064Y0086166D01*
X0099064Y0083859D01*
X0099947Y0081727D01*
X0101578Y0080095D01*
X0101779Y0080012D01*
X0101578Y0079929D01*
X0099947Y0078298D01*
X0099064Y0076166D01*
X0099064Y0073859D01*
X0099947Y0071727D01*
X0101578Y0070095D01*
X0101779Y0070012D01*
X0101578Y0069929D01*
X0100341Y0068692D01*
X0073708Y0068692D01*
X0073548Y0069077D01*
X0071917Y0070709D01*
X0069785Y0071592D01*
X0067477Y0071592D01*
X0065346Y0070709D01*
X0063714Y0069077D01*
X0062831Y0066945D01*
X0062831Y0064638D01*
X0063714Y0062506D01*
X0065346Y0060875D01*
X0067477Y0059992D01*
X0069785Y0059992D01*
X0071917Y0060875D01*
X0073548Y0062506D01*
X0073708Y0062892D01*
X0099464Y0062892D01*
X0099947Y0061727D01*
X0101578Y0060095D01*
X0101779Y0060012D01*
X0101578Y0059929D01*
X0100537Y0058888D01*
X0037043Y0058888D01*
X0033976Y0061955D01*
X0033976Y0086245D01*
X0033474Y0087458D01*
X0032545Y0088386D01*
X0024823Y0096108D01*
X0024823Y0107639D01*
X0023593Y0108869D01*
X0017129Y0108869D01*
X0015899Y0107639D01*
X0015899Y0096057D01*
X0017129Y0094827D01*
X0017235Y0094827D01*
X0017564Y0094034D01*
X0027376Y0084221D01*
X0027376Y0059932D01*
X0027878Y0058719D01*
X0032878Y0053719D01*
X0033807Y0052791D01*
X0035020Y0052288D01*
X0099714Y0052288D01*
X0099947Y0051727D01*
X0101578Y0050095D01*
X0101779Y0050012D01*
X0101578Y0049929D01*
X0099947Y0048298D01*
X0099064Y0046166D01*
X0099064Y0043859D01*
X0099947Y0041727D01*
X0101578Y0040095D01*
X0101779Y0040012D01*
X0101578Y0039929D01*
X0099947Y0038298D01*
X0099064Y0036166D01*
X0099064Y0033859D01*
X0099947Y0031727D01*
X0101578Y0030095D01*
X0101779Y0030012D01*
X0101578Y0029929D01*
X0099947Y0028298D01*
X0099064Y0026166D01*
X0099064Y0023859D01*
X0099947Y0021727D01*
X0101578Y0020095D01*
X0102575Y0019682D01*
X0102138Y0019460D01*
X0101476Y0018979D01*
X0100897Y0018400D01*
X0100416Y0017738D01*
X0100045Y0017008D01*
X0099792Y0016230D01*
X0099678Y0015512D01*
X0104364Y0015512D01*
X0104364Y0014512D01*
X0105364Y0014512D01*
X0105364Y0009827D01*
X0106081Y0009940D01*
X0106860Y0010193D01*
X0105364Y0010283D02*
X0104364Y0010283D01*
X0104364Y0009827D02*
X0104364Y0014512D01*
X0099678Y0014512D01*
X0099792Y0013795D01*
X0100045Y0013016D01*
X0100416Y0012287D01*
X0100897Y0011625D01*
X0101476Y0011046D01*
X0102138Y0010565D01*
X0102868Y0010193D01*
X0103646Y0009940D01*
X0104364Y0009827D01*
X0104364Y0011282D02*
X0105364Y0011282D01*
X0105364Y0012280D02*
X0104364Y0012280D01*
X0104364Y0013279D02*
X0105364Y0013279D01*
X0105364Y0014277D02*
X0104364Y0014277D01*
X0104364Y0015276D02*
X0016012Y0015276D01*
X0016012Y0014277D02*
X0015012Y0014277D01*
X0015012Y0013279D02*
X0016012Y0013279D01*
X0016012Y0012280D02*
X0015012Y0012280D01*
X0015012Y0011282D02*
X0016012Y0011282D01*
X0016012Y0010283D02*
X0015012Y0010283D01*
X0017377Y0010283D02*
X0102691Y0010283D01*
X0101240Y0011282D02*
X0019003Y0011282D01*
X0019858Y0012280D02*
X0100421Y0012280D01*
X0099959Y0013279D02*
X0020373Y0013279D01*
X0020639Y0014277D02*
X0099715Y0014277D01*
X0099806Y0016274D02*
X0020598Y0016274D01*
X0020263Y0017273D02*
X0100180Y0017273D01*
X0100804Y0018271D02*
X0019668Y0018271D01*
X0018681Y0019270D02*
X0101877Y0019270D01*
X0101405Y0020268D02*
X0018838Y0020268D01*
X0019836Y0021267D02*
X0100407Y0021267D01*
X0099724Y0022265D02*
X0020597Y0022265D01*
X0021010Y0023264D02*
X0099310Y0023264D01*
X0099064Y0024262D02*
X0021312Y0024262D01*
X0021312Y0025261D02*
X0099064Y0025261D01*
X0099103Y0026259D02*
X0021312Y0026259D01*
X0020914Y0027258D02*
X0099516Y0027258D01*
X0099930Y0028256D02*
X0020501Y0028256D01*
X0019604Y0029255D02*
X0100904Y0029255D01*
X0101420Y0030253D02*
X0018823Y0030253D01*
X0019821Y0031252D02*
X0100422Y0031252D01*
X0099730Y0032250D02*
X0020591Y0032250D01*
X0021004Y0033249D02*
X0099316Y0033249D01*
X0099064Y0034247D02*
X0021312Y0034247D01*
X0021312Y0035246D02*
X0049225Y0035246D01*
X0049614Y0035120D02*
X0048835Y0035373D01*
X0048106Y0035744D01*
X0047444Y0036225D01*
X0046865Y0036804D01*
X0046384Y0037466D01*
X0046012Y0038196D01*
X0045759Y0038974D01*
X0045646Y0039692D01*
X0050331Y0039692D01*
X0050331Y0040692D01*
X0050331Y0045377D01*
X0049614Y0045264D01*
X0048835Y0045011D01*
X0048106Y0044639D01*
X0047444Y0044158D01*
X0046865Y0043579D01*
X0046384Y0042917D01*
X0046012Y0042188D01*
X0045759Y0041409D01*
X0045646Y0040692D01*
X0050331Y0040692D01*
X0051331Y0040692D01*
X0051331Y0045377D01*
X0052049Y0045264D01*
X0052827Y0045011D01*
X0053557Y0044639D01*
X0054219Y0044158D01*
X0054798Y0043579D01*
X0055279Y0042917D01*
X0055650Y0042188D01*
X0055903Y0041409D01*
X0056017Y0040692D01*
X0051331Y0040692D01*
X0051331Y0039692D01*
X0056017Y0039692D01*
X0055903Y0038974D01*
X0055650Y0038196D01*
X0055279Y0037466D01*
X0054798Y0036804D01*
X0054219Y0036225D01*
X0053557Y0035744D01*
X0052827Y0035373D01*
X0052049Y0035120D01*
X0051331Y0035006D01*
X0051331Y0039692D01*
X0050331Y0039692D01*
X0050331Y0035006D01*
X0049614Y0035120D01*
X0050331Y0035246D02*
X0051331Y0035246D01*
X0051331Y0036244D02*
X0050331Y0036244D01*
X0050331Y0037243D02*
X0051331Y0037243D01*
X0051331Y0038241D02*
X0050331Y0038241D01*
X0050331Y0039240D02*
X0051331Y0039240D01*
X0051331Y0040239D02*
X0062831Y0040239D01*
X0062831Y0041237D02*
X0055930Y0041237D01*
X0055626Y0042236D02*
X0063200Y0042236D01*
X0062831Y0041345D02*
X0063714Y0043477D01*
X0065346Y0045109D01*
X0067477Y0045992D01*
X0069785Y0045992D01*
X0071917Y0045109D01*
X0073548Y0043477D01*
X0074431Y0041345D01*
X0074431Y0039038D01*
X0073548Y0036906D01*
X0071917Y0035275D01*
X0069785Y0034392D01*
X0067477Y0034392D01*
X0065346Y0035275D01*
X0063714Y0036906D01*
X0062831Y0039038D01*
X0062831Y0041345D01*
X0063613Y0043234D02*
X0055048Y0043234D01*
X0054116Y0044233D02*
X0064470Y0044233D01*
X0065641Y0045231D02*
X0052149Y0045231D01*
X0051331Y0045231D02*
X0050331Y0045231D01*
X0049513Y0045231D02*
X0021312Y0045231D01*
X0021312Y0044233D02*
X0047546Y0044233D01*
X0046614Y0043234D02*
X0020998Y0043234D01*
X0020584Y0042236D02*
X0046036Y0042236D01*
X0045732Y0041237D02*
X0019806Y0041237D01*
X0018808Y0040239D02*
X0050331Y0040239D01*
X0050331Y0041237D02*
X0051331Y0041237D01*
X0051331Y0042236D02*
X0050331Y0042236D01*
X0050331Y0043234D02*
X0051331Y0043234D01*
X0051331Y0044233D02*
X0050331Y0044233D01*
X0045717Y0039240D02*
X0019619Y0039240D01*
X0020507Y0038241D02*
X0045997Y0038241D01*
X0046546Y0037243D02*
X0020920Y0037243D01*
X0021312Y0036244D02*
X0047425Y0036244D01*
X0052437Y0035246D02*
X0065415Y0035246D01*
X0064376Y0036244D02*
X0054238Y0036244D01*
X0055116Y0037243D02*
X0063575Y0037243D01*
X0063161Y0038241D02*
X0055665Y0038241D01*
X0055945Y0039240D02*
X0062831Y0039240D01*
X0071847Y0035246D02*
X0099064Y0035246D01*
X0099096Y0036244D02*
X0072886Y0036244D01*
X0073688Y0037243D02*
X0099510Y0037243D01*
X0099924Y0038241D02*
X0074101Y0038241D01*
X0074431Y0039240D02*
X0100889Y0039240D01*
X0101435Y0040239D02*
X0074431Y0040239D01*
X0074431Y0041237D02*
X0100437Y0041237D01*
X0099736Y0042236D02*
X0074063Y0042236D01*
X0073649Y0043234D02*
X0099322Y0043234D01*
X0099064Y0044233D02*
X0072793Y0044233D01*
X0071621Y0045231D02*
X0099064Y0045231D01*
X0099090Y0046230D02*
X0021312Y0046230D01*
X0020927Y0047228D02*
X0099504Y0047228D01*
X0099917Y0048227D02*
X0020513Y0048227D01*
X0019634Y0049225D02*
X0100874Y0049225D01*
X0101450Y0050224D02*
X0018787Y0050224D01*
X0019791Y0051222D02*
X0100451Y0051222D01*
X0099742Y0052221D02*
X0020578Y0052221D01*
X0020992Y0053219D02*
X0033378Y0053219D01*
X0032380Y0054218D02*
X0021312Y0054218D01*
X0021312Y0055216D02*
X0031381Y0055216D01*
X0030383Y0056215D02*
X0021312Y0056215D01*
X0020933Y0057213D02*
X0029384Y0057213D01*
X0028386Y0058212D02*
X0020519Y0058212D01*
X0019649Y0059210D02*
X0027675Y0059210D01*
X0027376Y0060209D02*
X0018751Y0060209D01*
X0019777Y0061207D02*
X0027376Y0061207D01*
X0027376Y0062206D02*
X0020572Y0062206D01*
X0020986Y0063204D02*
X0027376Y0063204D01*
X0027376Y0064203D02*
X0021312Y0064203D01*
X0021312Y0065201D02*
X0027376Y0065201D01*
X0027376Y0066200D02*
X0021312Y0066200D01*
X0020939Y0067198D02*
X0027376Y0067198D01*
X0027376Y0068197D02*
X0020525Y0068197D01*
X0019663Y0069195D02*
X0027376Y0069195D01*
X0027376Y0070194D02*
X0018715Y0070194D01*
X0019762Y0071192D02*
X0027376Y0071192D01*
X0027376Y0072191D02*
X0020566Y0072191D01*
X0020980Y0073189D02*
X0027376Y0073189D01*
X0027376Y0074188D02*
X0021312Y0074188D01*
X0021312Y0075186D02*
X0027376Y0075186D01*
X0027376Y0076185D02*
X0021312Y0076185D01*
X0020945Y0077183D02*
X0027376Y0077183D01*
X0027376Y0078182D02*
X0020531Y0078182D01*
X0019678Y0079180D02*
X0027376Y0079180D01*
X0027376Y0080179D02*
X0018679Y0080179D01*
X0019747Y0081177D02*
X0027376Y0081177D01*
X0027376Y0082176D02*
X0020560Y0082176D01*
X0020973Y0083174D02*
X0027376Y0083174D01*
X0027376Y0084173D02*
X0021312Y0084173D01*
X0021312Y0085172D02*
X0026426Y0085172D01*
X0025427Y0086170D02*
X0021312Y0086170D01*
X0020951Y0087169D02*
X0024429Y0087169D01*
X0023430Y0088167D02*
X0020538Y0088167D01*
X0019693Y0089166D02*
X0022432Y0089166D01*
X0021433Y0090164D02*
X0018550Y0090164D01*
X0020435Y0091163D02*
X0008976Y0091163D01*
X0008976Y0092161D02*
X0019436Y0092161D01*
X0018438Y0093160D02*
X0008976Y0093160D01*
X0008976Y0094158D02*
X0017512Y0094158D01*
X0016799Y0095157D02*
X0014080Y0095157D01*
X0014981Y0096155D02*
X0015899Y0096155D01*
X0015899Y0097154D02*
X0014981Y0097154D01*
X0014981Y0098152D02*
X0015899Y0098152D01*
X0015899Y0099151D02*
X0014981Y0099151D01*
X0014981Y0100149D02*
X0015899Y0100149D01*
X0015899Y0101148D02*
X0014981Y0101148D01*
X0014981Y0102146D02*
X0015899Y0102146D01*
X0015899Y0103145D02*
X0014981Y0103145D01*
X0014981Y0104143D02*
X0015899Y0104143D01*
X0015899Y0105142D02*
X0014981Y0105142D01*
X0014981Y0106140D02*
X0015899Y0106140D01*
X0015899Y0107139D02*
X0014981Y0107139D01*
X0014483Y0108137D02*
X0016397Y0108137D01*
X0010370Y0111133D02*
X0030353Y0111133D01*
X0030066Y0111825D02*
X0030716Y0110255D01*
X0031918Y0109054D01*
X0033488Y0108403D01*
X0035187Y0108403D01*
X0036757Y0109054D01*
X0037959Y0110255D01*
X0038609Y0111825D01*
X0038609Y0113525D01*
X0037959Y0115095D01*
X0036757Y0116296D01*
X0035187Y0116947D01*
X0033488Y0116947D01*
X0031918Y0116296D01*
X0030716Y0115095D01*
X0030066Y0113525D01*
X0030066Y0111825D01*
X0030066Y0112131D02*
X0010656Y0112131D01*
X0010656Y0113130D02*
X0030066Y0113130D01*
X0030316Y0114128D02*
X0010406Y0114128D01*
X0009974Y0115127D02*
X0030748Y0115127D01*
X0031747Y0116125D02*
X0008975Y0116125D01*
X0003997Y0117124D02*
X0116286Y0117124D01*
X0116286Y0116125D02*
X0036928Y0116125D01*
X0037927Y0115127D02*
X0116286Y0115127D01*
X0116286Y0114128D02*
X0038359Y0114128D01*
X0038609Y0113130D02*
X0116286Y0113130D01*
X0116286Y0112131D02*
X0038609Y0112131D01*
X0038322Y0111133D02*
X0116286Y0111133D01*
X0116286Y0110134D02*
X0037838Y0110134D01*
X0036839Y0109136D02*
X0116286Y0109136D01*
X0116286Y0108137D02*
X0033197Y0108137D01*
X0033145Y0108167D02*
X0032763Y0108269D01*
X0030704Y0108269D01*
X0030704Y0102348D01*
X0034066Y0102348D01*
X0034066Y0106967D01*
X0033964Y0107348D01*
X0033766Y0107690D01*
X0033487Y0107970D01*
X0033145Y0108167D01*
X0034020Y0107139D02*
X0116286Y0107139D01*
X0116286Y0106140D02*
X0034066Y0106140D01*
X0034066Y0105142D02*
X0116286Y0105142D01*
X0116286Y0104143D02*
X0034066Y0104143D01*
X0034066Y0103145D02*
X0116286Y0103145D01*
X0116286Y0102146D02*
X0030704Y0102146D01*
X0030704Y0102348D02*
X0030704Y0101348D01*
X0034066Y0101348D01*
X0034066Y0096729D01*
X0033964Y0096348D01*
X0033766Y0096006D01*
X0033487Y0095727D01*
X0033145Y0095529D01*
X0032763Y0095427D01*
X0030704Y0095427D01*
X0030704Y0101348D01*
X0029704Y0101348D01*
X0029704Y0095427D01*
X0027644Y0095427D01*
X0027262Y0095529D01*
X0026920Y0095727D01*
X0026641Y0096006D01*
X0026444Y0096348D01*
X0026341Y0096729D01*
X0026341Y0101348D01*
X0029704Y0101348D01*
X0029704Y0102348D01*
X0029704Y0108269D01*
X0027644Y0108269D01*
X0027262Y0108167D01*
X0026920Y0107970D01*
X0026641Y0107690D01*
X0026444Y0107348D01*
X0026341Y0106967D01*
X0026341Y0102348D01*
X0029704Y0102348D01*
X0030704Y0102348D01*
X0030704Y0103145D02*
X0029704Y0103145D01*
X0029704Y0104143D02*
X0030704Y0104143D01*
X0030704Y0105142D02*
X0029704Y0105142D01*
X0029704Y0106140D02*
X0030704Y0106140D01*
X0030704Y0107139D02*
X0029704Y0107139D01*
X0029704Y0108137D02*
X0030704Y0108137D01*
X0031836Y0109136D02*
X0008887Y0109136D01*
X0009885Y0110134D02*
X0030837Y0110134D01*
X0027211Y0108137D02*
X0024325Y0108137D01*
X0024823Y0107139D02*
X0026387Y0107139D01*
X0026341Y0106140D02*
X0024823Y0106140D01*
X0024823Y0105142D02*
X0026341Y0105142D01*
X0026341Y0104143D02*
X0024823Y0104143D01*
X0024823Y0103145D02*
X0026341Y0103145D01*
X0024823Y0102146D02*
X0029704Y0102146D01*
X0029704Y0101148D02*
X0030704Y0101148D01*
X0030704Y0100149D02*
X0029704Y0100149D01*
X0029704Y0099151D02*
X0030704Y0099151D01*
X0030704Y0098152D02*
X0029704Y0098152D01*
X0029704Y0097154D02*
X0030704Y0097154D01*
X0030704Y0096155D02*
X0029704Y0096155D01*
X0026773Y0094158D02*
X0116286Y0094158D01*
X0116286Y0093160D02*
X0027772Y0093160D01*
X0028770Y0092161D02*
X0116286Y0092161D01*
X0116286Y0091163D02*
X0029769Y0091163D01*
X0030767Y0090164D02*
X0102145Y0090164D01*
X0100815Y0089166D02*
X0031766Y0089166D01*
X0032764Y0088167D02*
X0099893Y0088167D01*
X0099479Y0087169D02*
X0033593Y0087169D01*
X0033976Y0086170D02*
X0099066Y0086170D01*
X0099064Y0085172D02*
X0033976Y0085172D01*
X0033976Y0084173D02*
X0099064Y0084173D01*
X0099347Y0083174D02*
X0033976Y0083174D01*
X0033976Y0082176D02*
X0099761Y0082176D01*
X0100496Y0081177D02*
X0033976Y0081177D01*
X0033976Y0080179D02*
X0101495Y0080179D01*
X0100830Y0079180D02*
X0033976Y0079180D01*
X0033976Y0078182D02*
X0099899Y0078182D01*
X0099485Y0077183D02*
X0033976Y0077183D01*
X0033976Y0076185D02*
X0099072Y0076185D01*
X0099064Y0075186D02*
X0033976Y0075186D01*
X0033976Y0074188D02*
X0099064Y0074188D01*
X0099341Y0073189D02*
X0033976Y0073189D01*
X0033976Y0072191D02*
X0099755Y0072191D01*
X0100481Y0071192D02*
X0070749Y0071192D01*
X0072432Y0070194D02*
X0101480Y0070194D01*
X0100844Y0069195D02*
X0073430Y0069195D01*
X0073248Y0062206D02*
X0099748Y0062206D01*
X0100466Y0061207D02*
X0072249Y0061207D01*
X0070309Y0060209D02*
X0101465Y0060209D01*
X0100859Y0059210D02*
X0036721Y0059210D01*
X0035723Y0060209D02*
X0049154Y0060209D01*
X0049677Y0059992D02*
X0047546Y0060875D01*
X0045914Y0062506D01*
X0045031Y0064638D01*
X0045031Y0066945D01*
X0045914Y0069077D01*
X0047546Y0070709D01*
X0049677Y0071592D01*
X0051985Y0071592D01*
X0054117Y0070709D01*
X0055748Y0069077D01*
X0056631Y0066945D01*
X0056631Y0064638D01*
X0055748Y0062506D01*
X0054117Y0060875D01*
X0051985Y0059992D01*
X0049677Y0059992D01*
X0047213Y0061207D02*
X0034724Y0061207D01*
X0033976Y0062206D02*
X0046215Y0062206D01*
X0045625Y0063204D02*
X0033976Y0063204D01*
X0033976Y0064203D02*
X0045211Y0064203D01*
X0045031Y0065201D02*
X0033976Y0065201D01*
X0033976Y0066200D02*
X0045031Y0066200D01*
X0045136Y0067198D02*
X0033976Y0067198D01*
X0033976Y0068197D02*
X0045550Y0068197D01*
X0046032Y0069195D02*
X0033976Y0069195D01*
X0033976Y0070194D02*
X0047031Y0070194D01*
X0048713Y0071192D02*
X0033976Y0071192D01*
X0052949Y0071192D02*
X0066513Y0071192D01*
X0064831Y0070194D02*
X0054632Y0070194D01*
X0055630Y0069195D02*
X0063832Y0069195D01*
X0063350Y0068197D02*
X0056113Y0068197D01*
X0056526Y0067198D02*
X0062936Y0067198D01*
X0062831Y0066200D02*
X0056631Y0066200D01*
X0056631Y0065201D02*
X0062831Y0065201D01*
X0063011Y0064203D02*
X0056451Y0064203D01*
X0056037Y0063204D02*
X0063425Y0063204D01*
X0064015Y0062206D02*
X0055448Y0062206D01*
X0054449Y0061207D02*
X0065013Y0061207D01*
X0066954Y0060209D02*
X0052509Y0060209D01*
X0025775Y0095157D02*
X0116286Y0095157D01*
X0116286Y0096155D02*
X0033852Y0096155D01*
X0034066Y0097154D02*
X0116286Y0097154D01*
X0116286Y0098152D02*
X0034066Y0098152D01*
X0034066Y0099151D02*
X0116286Y0099151D01*
X0116286Y0100149D02*
X0034066Y0100149D01*
X0034066Y0101148D02*
X0116286Y0101148D01*
X0116286Y0090164D02*
X0107582Y0090164D01*
X0108913Y0089166D02*
X0116286Y0089166D01*
X0116286Y0088167D02*
X0109835Y0088167D01*
X0110248Y0087169D02*
X0116286Y0087169D01*
X0116286Y0086170D02*
X0110662Y0086170D01*
X0110664Y0085172D02*
X0116286Y0085172D01*
X0116286Y0084173D02*
X0110664Y0084173D01*
X0110380Y0083174D02*
X0116286Y0083174D01*
X0116286Y0082176D02*
X0109967Y0082176D01*
X0109231Y0081177D02*
X0116286Y0081177D01*
X0116286Y0080179D02*
X0108233Y0080179D01*
X0108898Y0079180D02*
X0116286Y0079180D01*
X0116286Y0078182D02*
X0109829Y0078182D01*
X0110242Y0077183D02*
X0116286Y0077183D01*
X0116286Y0076185D02*
X0110656Y0076185D01*
X0110664Y0075186D02*
X0116286Y0075186D01*
X0116286Y0074188D02*
X0110664Y0074188D01*
X0110387Y0073189D02*
X0116286Y0073189D01*
X0116286Y0072191D02*
X0109973Y0072191D01*
X0109246Y0071192D02*
X0116286Y0071192D01*
X0116286Y0070194D02*
X0108248Y0070194D01*
X0108883Y0069195D02*
X0116286Y0069195D01*
X0116286Y0068197D02*
X0109823Y0068197D01*
X0110236Y0067198D02*
X0116286Y0067198D01*
X0116286Y0066200D02*
X0110650Y0066200D01*
X0110664Y0065201D02*
X0116286Y0065201D01*
X0116286Y0064203D02*
X0110664Y0064203D01*
X0110393Y0063204D02*
X0116286Y0063204D01*
X0116286Y0062206D02*
X0109979Y0062206D01*
X0109261Y0061207D02*
X0116286Y0061207D01*
X0116286Y0060209D02*
X0108263Y0060209D01*
X0108868Y0059210D02*
X0116286Y0059210D01*
X0116286Y0058212D02*
X0109816Y0058212D01*
X0110230Y0057213D02*
X0116286Y0057213D01*
X0116286Y0056215D02*
X0110644Y0056215D01*
X0110664Y0055216D02*
X0116286Y0055216D01*
X0116286Y0054218D02*
X0110664Y0054218D01*
X0110399Y0053219D02*
X0116286Y0053219D01*
X0116286Y0052221D02*
X0109985Y0052221D01*
X0109276Y0051222D02*
X0116286Y0051222D01*
X0116286Y0050224D02*
X0108278Y0050224D01*
X0108853Y0049225D02*
X0116286Y0049225D01*
X0116286Y0048227D02*
X0109810Y0048227D01*
X0110224Y0047228D02*
X0116286Y0047228D01*
X0116286Y0046230D02*
X0110637Y0046230D01*
X0110664Y0045231D02*
X0116286Y0045231D01*
X0116286Y0044233D02*
X0110664Y0044233D01*
X0110405Y0043234D02*
X0116286Y0043234D01*
X0116286Y0042236D02*
X0109992Y0042236D01*
X0109291Y0041237D02*
X0116286Y0041237D01*
X0116286Y0040239D02*
X0108293Y0040239D01*
X0108838Y0039240D02*
X0116286Y0039240D01*
X0116286Y0038241D02*
X0109804Y0038241D01*
X0110218Y0037243D02*
X0116286Y0037243D01*
X0116286Y0036244D02*
X0110631Y0036244D01*
X0110664Y0035246D02*
X0116286Y0035246D01*
X0116286Y0034247D02*
X0110664Y0034247D01*
X0110411Y0033249D02*
X0116286Y0033249D01*
X0116286Y0032250D02*
X0109998Y0032250D01*
X0109306Y0031252D02*
X0116286Y0031252D01*
X0116286Y0030253D02*
X0108307Y0030253D01*
X0108824Y0029255D02*
X0116286Y0029255D01*
X0116286Y0028256D02*
X0109798Y0028256D01*
X0110212Y0027258D02*
X0116286Y0027258D01*
X0116286Y0026259D02*
X0110625Y0026259D01*
X0110664Y0025261D02*
X0116286Y0025261D01*
X0116286Y0024262D02*
X0110664Y0024262D01*
X0110417Y0023264D02*
X0116286Y0023264D01*
X0116286Y0022265D02*
X0110004Y0022265D01*
X0109321Y0021267D02*
X0116286Y0021267D01*
X0116286Y0020268D02*
X0108322Y0020268D01*
X0107851Y0019270D02*
X0116286Y0019270D01*
X0116286Y0018271D02*
X0108924Y0018271D01*
X0109548Y0017273D02*
X0116286Y0017273D01*
X0116286Y0016274D02*
X0109921Y0016274D01*
X0110012Y0014277D02*
X0116286Y0014277D01*
X0116286Y0013279D02*
X0109768Y0013279D01*
X0109306Y0012280D02*
X0116286Y0012280D01*
X0116286Y0011282D02*
X0108487Y0011282D01*
X0105364Y0015276D02*
X0116286Y0015276D01*
X0116286Y0008286D02*
X0003688Y0008286D01*
X0003685Y0007288D02*
X0116286Y0007288D01*
X0116286Y0006289D02*
X0003682Y0006289D01*
X0003679Y0005291D02*
X0116286Y0005291D01*
X0026555Y0096155D02*
X0024823Y0096155D01*
X0024823Y0097154D02*
X0026341Y0097154D01*
X0026341Y0098152D02*
X0024823Y0098152D01*
X0024823Y0099151D02*
X0026341Y0099151D01*
X0026341Y0100149D02*
X0024823Y0100149D01*
X0024823Y0101148D02*
X0026341Y0101148D01*
X0012473Y0090164D02*
X0008976Y0090164D01*
X0008976Y0089166D02*
X0011330Y0089166D01*
X0010486Y0088167D02*
X0008976Y0088167D01*
X0008976Y0087169D02*
X0010072Y0087169D01*
X0009712Y0086170D02*
X0008976Y0086170D01*
X0008976Y0085172D02*
X0009712Y0085172D01*
X0009712Y0084173D02*
X0008976Y0084173D01*
X0008976Y0083174D02*
X0010050Y0083174D01*
X0010463Y0082176D02*
X0008976Y0082176D01*
X0008976Y0081177D02*
X0011276Y0081177D01*
X0012344Y0080179D02*
X0008976Y0080179D01*
X0008976Y0079180D02*
X0011345Y0079180D01*
X0010492Y0078182D02*
X0008976Y0078182D01*
X0008976Y0077183D02*
X0010078Y0077183D01*
X0009712Y0076185D02*
X0008976Y0076185D01*
X0008976Y0075186D02*
X0009712Y0075186D01*
X0009712Y0074188D02*
X0008976Y0074188D01*
X0008976Y0073189D02*
X0010044Y0073189D01*
X0010457Y0072191D02*
X0008976Y0072191D01*
X0008976Y0071192D02*
X0011262Y0071192D01*
X0012308Y0070194D02*
X0008976Y0070194D01*
X0008976Y0069195D02*
X0011360Y0069195D01*
X0010498Y0068197D02*
X0008976Y0068197D01*
X0008976Y0067198D02*
X0010084Y0067198D01*
X0009712Y0066200D02*
X0008976Y0066200D01*
X0008976Y0065201D02*
X0009712Y0065201D01*
X0009712Y0064203D02*
X0008976Y0064203D01*
X0008976Y0063204D02*
X0010038Y0063204D01*
X0010451Y0062206D02*
X0008976Y0062206D01*
X0008976Y0061207D02*
X0011247Y0061207D01*
X0012272Y0060209D02*
X0008976Y0060209D01*
X0008976Y0059210D02*
X0011375Y0059210D01*
X0010504Y0058212D02*
X0008976Y0058212D01*
X0008976Y0057213D02*
X0010091Y0057213D01*
X0009712Y0056215D02*
X0008976Y0056215D01*
X0008976Y0055216D02*
X0009712Y0055216D01*
X0009712Y0054218D02*
X0008976Y0054218D01*
X0008976Y0053219D02*
X0010031Y0053219D01*
X0010445Y0052221D02*
X0008976Y0052221D01*
X0008976Y0051222D02*
X0011232Y0051222D01*
X0012236Y0050224D02*
X0008976Y0050224D01*
X0008976Y0049225D02*
X0011390Y0049225D01*
X0010510Y0048227D02*
X0008976Y0048227D01*
X0008976Y0047228D02*
X0010097Y0047228D01*
X0009712Y0046230D02*
X0008976Y0046230D01*
X0008976Y0045231D02*
X0009712Y0045231D01*
X0009712Y0044233D02*
X0008976Y0044233D01*
X0008976Y0043234D02*
X0010025Y0043234D01*
X0010439Y0042236D02*
X0008976Y0042236D01*
X0008976Y0041237D02*
X0011217Y0041237D01*
X0012215Y0040239D02*
X0008976Y0040239D01*
X0008976Y0039240D02*
X0011404Y0039240D01*
X0010517Y0038241D02*
X0008976Y0038241D01*
X0008976Y0037243D02*
X0010103Y0037243D01*
X0009712Y0036244D02*
X0008976Y0036244D01*
X0008976Y0035246D02*
X0009712Y0035246D01*
X0009712Y0034247D02*
X0008976Y0034247D01*
X0008976Y0033249D02*
X0010019Y0033249D01*
X0010433Y0032250D02*
X0008976Y0032250D01*
X0009679Y0031252D02*
X0011202Y0031252D01*
X0010678Y0030253D02*
X0012201Y0030253D01*
X0015012Y0015276D02*
X0003708Y0015276D01*
X0003677Y0004292D02*
X0023640Y0004292D01*
X0003944Y0098523D02*
X0003974Y0109050D01*
X0005535Y0108403D01*
X0006820Y0108403D01*
X0006056Y0107639D01*
X0006056Y0100636D01*
X0003944Y0098523D01*
X0003946Y0099151D02*
X0004572Y0099151D01*
X0003949Y0100149D02*
X0005570Y0100149D01*
X0006056Y0101148D02*
X0003951Y0101148D01*
X0003954Y0102146D02*
X0006056Y0102146D01*
X0006056Y0103145D02*
X0003957Y0103145D01*
X0003960Y0104143D02*
X0006056Y0104143D01*
X0006056Y0105142D02*
X0003963Y0105142D01*
X0003966Y0106140D02*
X0006056Y0106140D01*
X0006056Y0107139D02*
X0003968Y0107139D01*
X0003971Y0108137D02*
X0006554Y0108137D01*
X0004000Y0118122D02*
X0063741Y0118122D01*
D13*
X0030676Y0085588D02*
X0030676Y0060588D01*
X0035676Y0055588D01*
X0104288Y0055588D01*
X0104864Y0055012D01*
X0030676Y0085588D02*
X0020361Y0095903D01*
X0020361Y0101848D01*
X0010519Y0101848D02*
X0010519Y0100431D01*
X0005676Y0095588D01*
X0005676Y0030588D01*
X0010676Y0025588D01*
X0015068Y0025588D01*
X0015512Y0025145D01*
D14*
X0068631Y0065792D02*
X0104864Y0065792D01*
X0104864Y0065012D01*
M02*
