%
M48
M72
T01C0.03543
T02C0.04000
%
T01
X6385Y112675
X34338Y112675
T02
X15512Y15145
X15512Y45145
X15512Y55145
X15512Y65145
X15512Y75145
X15512Y85145
X15512Y35145
X15512Y25145
X50831Y40192
X50831Y65792
X68631Y65792
X68631Y40192
X104864Y15012
X104864Y85012
X104864Y75012
X104864Y65012
X104864Y55012
X104864Y45012
X104864Y35012
X104864Y25012
M30
