%
M48
M72
T01C0.02362
T02C0.02400
T03C0.02756
T04C0.04000
%
T01
X47000Y87276
X37000Y52276
X62000Y17276
X62000Y37276
T02
X93800Y28126
X93800Y38926
X66800Y65026
X74900Y73126
X64100Y71776
X91550Y55576
T03
X20937Y113378
X13063Y113378
T04
X16449Y16213
X16449Y36213
X16449Y46213
X16449Y56213
X16449Y86213
X16449Y76213
X16449Y66213
X107551Y36213
X107551Y46213
X16449Y26213
X107551Y16213
X107551Y26213
X107551Y86213
X107551Y76213
X107551Y56213
X107551Y66213
M30
