G75*
%MOIN*%
%OFA0B0*%
%FSLAX25Y25*%
%IPPOS*%
%LPD*%
%AMOC8*
5,1,8,0,0,1.08239X$1,22.5*
%
%ADD10C,0.00000*%
%ADD11C,0.00100*%
%ADD12C,0.00800*%
%ADD13C,0.00500*%
%ADD14C,0.00200*%
%ADD15C,0.00400*%
%ADD16R,0.00787X0.00787*%
%ADD17R,0.00591X0.00984*%
%ADD18C,0.00600*%
%ADD19C,0.01000*%
D10*
X0002000Y0002200D02*
X0002000Y0120460D01*
X0119977Y0120449D01*
X0120471Y0002576D01*
X0002000Y0002200D01*
D11*
X0035299Y0012379D02*
X0035299Y0013130D01*
X0035549Y0013380D01*
X0036049Y0013380D01*
X0036300Y0013130D01*
X0036300Y0012379D01*
X0036800Y0012379D02*
X0035299Y0012379D01*
X0036300Y0012879D02*
X0036800Y0013380D01*
X0036550Y0013852D02*
X0036800Y0014103D01*
X0036800Y0014603D01*
X0036550Y0014853D01*
X0036049Y0014853D01*
X0035799Y0014603D01*
X0035799Y0014353D01*
X0036049Y0013852D01*
X0035299Y0013852D01*
X0035299Y0014853D01*
X0049603Y0011477D02*
X0049603Y0009976D01*
X0049603Y0010476D02*
X0050354Y0010476D01*
X0050604Y0010726D01*
X0050604Y0011227D01*
X0050354Y0011477D01*
X0049603Y0011477D01*
X0050104Y0010476D02*
X0050604Y0009976D01*
X0051077Y0010226D02*
X0051327Y0009976D01*
X0051827Y0009976D01*
X0052078Y0010226D01*
X0052078Y0010476D01*
X0051827Y0010726D01*
X0051077Y0010726D01*
X0051077Y0010226D01*
X0051077Y0010726D02*
X0051577Y0011227D01*
X0052078Y0011477D01*
X0063449Y0012576D02*
X0063699Y0012326D01*
X0064700Y0012326D01*
X0064950Y0012576D01*
X0064950Y0013076D01*
X0064700Y0013326D01*
X0064950Y0013799D02*
X0064950Y0014800D01*
X0064950Y0014299D02*
X0063449Y0014299D01*
X0063949Y0013799D01*
X0063699Y0013326D02*
X0063449Y0013076D01*
X0063449Y0012576D01*
X0081550Y0030576D02*
X0081550Y0032077D01*
X0082301Y0032077D01*
X0082551Y0031827D01*
X0082551Y0031326D01*
X0082301Y0031076D01*
X0081550Y0031076D01*
X0082050Y0031076D02*
X0082551Y0030576D01*
X0083023Y0030826D02*
X0083273Y0030576D01*
X0083774Y0030576D01*
X0084024Y0030826D01*
X0084024Y0031076D01*
X0083774Y0031326D01*
X0083524Y0031326D01*
X0083774Y0031326D02*
X0084024Y0031576D01*
X0084024Y0031827D01*
X0083774Y0032077D01*
X0083273Y0032077D01*
X0083023Y0031827D01*
X0090549Y0042879D02*
X0091800Y0042879D01*
X0092050Y0043129D01*
X0092050Y0043630D01*
X0091800Y0043880D01*
X0090549Y0043880D01*
X0091049Y0044352D02*
X0090549Y0044853D01*
X0092050Y0044853D01*
X0092050Y0045353D02*
X0092050Y0044352D01*
X0089828Y0056226D02*
X0088827Y0056226D01*
X0088354Y0056226D02*
X0087854Y0056726D01*
X0088354Y0056476D02*
X0088104Y0056226D01*
X0087604Y0056226D01*
X0087353Y0056476D01*
X0087353Y0057477D01*
X0087604Y0057727D01*
X0088104Y0057727D01*
X0088354Y0057477D01*
X0088354Y0056476D01*
X0088827Y0057226D02*
X0089327Y0057727D01*
X0089327Y0056226D01*
X0066578Y0052477D02*
X0066327Y0052727D01*
X0065827Y0052727D01*
X0065577Y0052477D01*
X0065104Y0052477D02*
X0064854Y0052727D01*
X0064354Y0052727D01*
X0064103Y0052477D01*
X0064103Y0051476D01*
X0064354Y0051226D01*
X0064854Y0051226D01*
X0065104Y0051476D01*
X0065577Y0051226D02*
X0066578Y0052226D01*
X0066578Y0052477D01*
X0066578Y0051226D02*
X0065577Y0051226D01*
X0052050Y0045353D02*
X0052050Y0044352D01*
X0051049Y0045353D01*
X0050799Y0045353D01*
X0050549Y0045103D01*
X0050549Y0044603D01*
X0050799Y0044352D01*
X0050549Y0043880D02*
X0051800Y0043880D01*
X0052050Y0043630D01*
X0052050Y0043129D01*
X0051800Y0042879D01*
X0050549Y0042879D01*
X0046327Y0068726D02*
X0045827Y0068726D01*
X0045577Y0068976D01*
X0045104Y0068976D02*
X0044854Y0068726D01*
X0044354Y0068726D01*
X0044103Y0068976D01*
X0044103Y0069977D01*
X0044354Y0070227D01*
X0044854Y0070227D01*
X0045104Y0069977D01*
X0045577Y0069977D02*
X0045827Y0070227D01*
X0046327Y0070227D01*
X0046578Y0069977D01*
X0046578Y0069726D01*
X0046327Y0069476D01*
X0046578Y0069226D01*
X0046578Y0068976D01*
X0046327Y0068726D01*
X0046327Y0069476D02*
X0046077Y0069476D01*
X0039300Y0087379D02*
X0037799Y0087379D01*
X0037799Y0088130D01*
X0038049Y0088380D01*
X0038549Y0088380D01*
X0038800Y0088130D01*
X0038800Y0087379D01*
X0038800Y0087879D02*
X0039300Y0088380D01*
X0038549Y0088852D02*
X0038549Y0089853D01*
X0037799Y0089603D02*
X0038549Y0088852D01*
X0037799Y0089603D02*
X0039300Y0089603D01*
X0024389Y0097852D02*
X0023388Y0097852D01*
X0023888Y0097852D02*
X0023888Y0099353D01*
X0023388Y0098852D01*
X0022915Y0099353D02*
X0022415Y0099353D01*
X0022665Y0099353D02*
X0022665Y0098102D01*
X0022415Y0097852D01*
X0022165Y0097852D01*
X0021915Y0098102D01*
X0065299Y0084603D02*
X0065299Y0084103D01*
X0065549Y0083852D01*
X0065549Y0083380D02*
X0066049Y0083380D01*
X0066300Y0083130D01*
X0066300Y0082379D01*
X0066800Y0082379D02*
X0065299Y0082379D01*
X0065299Y0083130D01*
X0065549Y0083380D01*
X0066300Y0082879D02*
X0066800Y0083380D01*
X0066800Y0083852D02*
X0065799Y0084853D01*
X0065549Y0084853D01*
X0065299Y0084603D01*
X0066800Y0084853D02*
X0066800Y0083852D01*
X0075299Y0084353D02*
X0076800Y0084353D01*
X0076800Y0084853D02*
X0076800Y0083852D01*
X0076800Y0083380D02*
X0076300Y0082879D01*
X0076300Y0083130D02*
X0076300Y0082379D01*
X0076800Y0082379D02*
X0075299Y0082379D01*
X0075299Y0083130D01*
X0075549Y0083380D01*
X0076049Y0083380D01*
X0076300Y0083130D01*
X0075799Y0083852D02*
X0075299Y0084353D01*
X0088575Y0082236D02*
X0090076Y0082236D01*
X0090076Y0081736D02*
X0090076Y0082737D01*
X0089075Y0081736D02*
X0088575Y0082236D01*
X0088825Y0081263D02*
X0088575Y0081013D01*
X0088575Y0080263D01*
X0090076Y0080263D01*
X0090076Y0081013D01*
X0089826Y0081263D01*
X0088825Y0081263D01*
D12*
X0091567Y0081744D02*
X0091567Y0080169D01*
X0091567Y0081744D02*
X0096685Y0081744D01*
X0096685Y0087256D01*
X0096685Y0081744D02*
X0096685Y0080169D01*
X0102551Y0078713D02*
X0105051Y0081213D01*
X0102551Y0083713D01*
X0102551Y0088713D01*
X0105051Y0091213D01*
X0110051Y0091213D01*
X0112551Y0088713D01*
X0112551Y0083713D01*
X0110051Y0081213D01*
X0112551Y0078713D01*
X0112551Y0073713D01*
X0110051Y0071213D01*
X0112551Y0068713D01*
X0112551Y0063713D01*
X0110051Y0061213D01*
X0112551Y0058713D01*
X0112551Y0053713D01*
X0110051Y0051213D01*
X0112551Y0048713D01*
X0112551Y0043713D01*
X0110051Y0041213D01*
X0112551Y0038713D01*
X0112551Y0033713D01*
X0110051Y0031213D01*
X0112551Y0028713D01*
X0112551Y0023713D01*
X0110051Y0021213D01*
X0112551Y0018713D01*
X0112551Y0013713D01*
X0110051Y0011213D01*
X0105051Y0011213D01*
X0102551Y0013713D01*
X0102551Y0018713D01*
X0105051Y0021213D01*
X0102551Y0023713D01*
X0102551Y0028713D01*
X0105051Y0031213D01*
X0102551Y0033713D01*
X0102551Y0038713D01*
X0105051Y0041213D01*
X0102551Y0043713D01*
X0102551Y0048713D01*
X0105051Y0051213D01*
X0102551Y0053713D01*
X0102551Y0058713D01*
X0105051Y0061213D01*
X0102551Y0063713D01*
X0102551Y0068713D01*
X0105051Y0071213D01*
X0102551Y0073713D01*
X0102551Y0078713D01*
X0091567Y0081744D02*
X0091567Y0087256D01*
X0088339Y0098929D02*
X0083614Y0098929D01*
X0083614Y0105228D01*
X0088339Y0104441D02*
X0088339Y0098929D01*
X0088339Y0104441D02*
X0105661Y0104441D01*
X0105661Y0098929D01*
X0110386Y0098929D01*
X0110386Y0105228D01*
X0110386Y0115858D02*
X0083614Y0115858D01*
X0081488Y0065169D02*
X0081488Y0062020D01*
X0083850Y0062020D01*
X0090150Y0062020D02*
X0092512Y0062020D01*
X0092512Y0065169D01*
X0083691Y0047276D02*
X0080309Y0047276D01*
X0084791Y0043332D02*
X0084791Y0041219D01*
X0083691Y0037276D02*
X0080309Y0037276D01*
X0044791Y0041219D02*
X0044791Y0043332D01*
X0043691Y0047276D02*
X0040309Y0047276D01*
X0040309Y0037276D02*
X0043691Y0037276D01*
X0021449Y0038713D02*
X0021449Y0033713D01*
X0018949Y0031213D01*
X0021449Y0028713D01*
X0021449Y0023713D01*
X0018949Y0021213D01*
X0021449Y0018713D01*
X0021449Y0013713D01*
X0018949Y0011213D01*
X0013949Y0011213D01*
X0011449Y0013713D01*
X0011449Y0018713D01*
X0013949Y0021213D01*
X0011449Y0023713D01*
X0011449Y0028713D01*
X0013949Y0031213D01*
X0011449Y0033713D01*
X0011449Y0038713D01*
X0013949Y0041213D01*
X0011449Y0043713D01*
X0011449Y0048713D01*
X0013949Y0051213D01*
X0011449Y0053713D01*
X0011449Y0058713D01*
X0013949Y0061213D01*
X0011449Y0063713D01*
X0011449Y0068713D01*
X0013949Y0071213D01*
X0011449Y0073713D01*
X0011449Y0078713D01*
X0013949Y0081213D01*
X0011449Y0083713D01*
X0011449Y0088713D01*
X0013949Y0091213D01*
X0018949Y0091213D01*
X0021449Y0088713D01*
X0021449Y0083713D01*
X0018949Y0081213D01*
X0021449Y0078713D01*
X0021449Y0073713D01*
X0018949Y0071213D01*
X0021449Y0068713D01*
X0021449Y0063713D01*
X0018949Y0061213D01*
X0021449Y0058713D01*
X0021449Y0053713D01*
X0018949Y0051213D01*
X0021449Y0048713D01*
X0021449Y0043713D01*
X0018949Y0041213D01*
X0021449Y0038713D01*
X0028614Y0102354D02*
X0005386Y0102354D01*
X0005386Y0120071D01*
X0013063Y0120071D01*
X0013063Y0118102D01*
X0020937Y0118102D01*
X0020937Y0120071D01*
X0028614Y0120071D01*
X0028614Y0102354D01*
D13*
X0008999Y0044858D02*
X0008999Y0041855D01*
X0004495Y0041855D01*
X0005996Y0040254D02*
X0008999Y0040254D01*
X0006747Y0040254D02*
X0006747Y0037252D01*
X0005996Y0037252D02*
X0004495Y0038753D01*
X0005996Y0040254D01*
X0005996Y0037252D02*
X0008999Y0037252D01*
X0008999Y0035650D02*
X0004495Y0035650D01*
X0004495Y0032648D02*
X0008999Y0035650D01*
X0008999Y0032648D02*
X0004495Y0032648D01*
X0005246Y0031046D02*
X0004495Y0030296D01*
X0004495Y0028794D01*
X0005246Y0028044D01*
X0008248Y0028044D01*
X0008999Y0028794D01*
X0008999Y0030296D01*
X0008248Y0031046D01*
X0006747Y0031046D01*
X0006747Y0029545D01*
X0008999Y0026476D02*
X0008999Y0024974D01*
X0008999Y0025725D02*
X0004495Y0025725D01*
X0004495Y0024974D02*
X0004495Y0026476D01*
X0005246Y0023373D02*
X0004495Y0022622D01*
X0004495Y0021121D01*
X0005246Y0020370D01*
X0005996Y0020370D01*
X0006747Y0021121D01*
X0006747Y0022622D01*
X0007498Y0023373D01*
X0008248Y0023373D01*
X0008999Y0022622D01*
X0008999Y0021121D01*
X0008248Y0020370D01*
X0006747Y0018769D02*
X0006747Y0015767D01*
X0004495Y0014165D02*
X0004495Y0012664D01*
X0004495Y0013415D02*
X0008248Y0013415D01*
X0008999Y0012664D01*
X0008999Y0011913D01*
X0008248Y0011163D01*
X0095597Y0012664D02*
X0095597Y0014165D01*
X0095597Y0013415D02*
X0099351Y0013415D01*
X0100101Y0012664D01*
X0100101Y0011913D01*
X0099351Y0011163D01*
X0097849Y0015767D02*
X0097849Y0018769D01*
X0097099Y0020370D02*
X0096348Y0020370D01*
X0095597Y0021121D01*
X0095597Y0022622D01*
X0096348Y0023373D01*
X0095597Y0024974D02*
X0099351Y0024974D01*
X0100101Y0025725D01*
X0100101Y0027226D01*
X0099351Y0027977D01*
X0095597Y0027977D01*
X0095597Y0029578D02*
X0095597Y0031830D01*
X0096348Y0032581D01*
X0097849Y0032581D01*
X0098600Y0031830D01*
X0098600Y0029578D01*
X0100101Y0029578D02*
X0095597Y0029578D01*
X0095597Y0034182D02*
X0095597Y0036434D01*
X0096348Y0037185D01*
X0097849Y0037185D01*
X0098600Y0036434D01*
X0098600Y0034182D01*
X0100101Y0034182D02*
X0095597Y0034182D01*
X0095597Y0038786D02*
X0100101Y0038786D01*
X0100101Y0041789D01*
X0100101Y0044891D02*
X0097849Y0044891D01*
X0096348Y0046393D01*
X0095597Y0046393D01*
X0097849Y0044891D02*
X0096348Y0043390D01*
X0095597Y0043390D01*
X0098600Y0023373D02*
X0099351Y0023373D01*
X0100101Y0022622D01*
X0100101Y0021121D01*
X0099351Y0020370D01*
X0097849Y0021121D02*
X0097849Y0022622D01*
X0098600Y0023373D01*
X0097849Y0021121D02*
X0097099Y0020370D01*
D14*
X0098342Y0108628D02*
X0098809Y0108628D01*
X0099276Y0109095D01*
X0099276Y0111430D01*
X0098809Y0111430D02*
X0099743Y0111430D01*
X0100637Y0110963D02*
X0101104Y0111430D01*
X0102038Y0111430D01*
X0102505Y0110963D01*
X0102505Y0110496D01*
X0100637Y0108628D01*
X0102505Y0108628D01*
X0098342Y0108628D02*
X0097874Y0109095D01*
D15*
X0070665Y0092476D02*
X0067596Y0092476D01*
X0069131Y0092476D02*
X0069131Y0097080D01*
X0067596Y0095545D01*
X0066061Y0096312D02*
X0065294Y0097080D01*
X0062992Y0097080D01*
X0062992Y0092476D01*
X0065294Y0092476D01*
X0066061Y0093243D01*
X0066061Y0096312D01*
X0061457Y0097080D02*
X0058388Y0097080D01*
X0058388Y0092476D01*
X0061457Y0092476D01*
X0059923Y0094778D02*
X0058388Y0094778D01*
X0056854Y0092476D02*
X0053784Y0092476D01*
X0053784Y0097080D01*
X0054081Y0107476D02*
X0051012Y0107476D01*
X0054081Y0110545D01*
X0054081Y0111312D01*
X0053314Y0112080D01*
X0051779Y0112080D01*
X0051012Y0111312D01*
X0049477Y0111312D02*
X0048710Y0112080D01*
X0046408Y0112080D01*
X0046408Y0107476D01*
X0048710Y0107476D01*
X0049477Y0108243D01*
X0049477Y0111312D01*
X0044873Y0112080D02*
X0041804Y0112080D01*
X0041804Y0107476D01*
X0044873Y0107476D01*
X0043339Y0109778D02*
X0041804Y0109778D01*
X0040269Y0107476D02*
X0037200Y0107476D01*
X0037200Y0112080D01*
X0039835Y0104244D02*
X0039908Y0104321D01*
X0039983Y0104396D01*
X0040061Y0104467D01*
X0040142Y0104536D01*
X0040225Y0104602D01*
X0040310Y0104665D01*
X0040398Y0104724D01*
X0040487Y0104781D01*
X0040579Y0104834D01*
X0040673Y0104884D01*
X0040768Y0104930D01*
X0040865Y0104973D01*
X0040963Y0105012D01*
X0041063Y0105048D01*
X0041164Y0105080D01*
X0041266Y0105108D01*
X0041369Y0105133D01*
X0041473Y0105154D01*
X0041578Y0105171D01*
X0041683Y0105185D01*
X0041788Y0105194D01*
X0041894Y0105200D01*
X0042000Y0105202D01*
X0042106Y0105200D01*
X0042212Y0105194D01*
X0042317Y0105185D01*
X0042422Y0105171D01*
X0042527Y0105154D01*
X0042631Y0105133D01*
X0042734Y0105108D01*
X0042836Y0105080D01*
X0042937Y0105048D01*
X0043037Y0105012D01*
X0043135Y0104973D01*
X0043232Y0104930D01*
X0043327Y0104884D01*
X0043421Y0104834D01*
X0043513Y0104781D01*
X0043602Y0104724D01*
X0043690Y0104665D01*
X0043775Y0104602D01*
X0043858Y0104536D01*
X0043939Y0104467D01*
X0044017Y0104396D01*
X0044092Y0104321D01*
X0044165Y0104244D01*
X0044165Y0100308D02*
X0044092Y0100231D01*
X0044017Y0100156D01*
X0043939Y0100085D01*
X0043858Y0100016D01*
X0043775Y0099950D01*
X0043690Y0099887D01*
X0043602Y0099828D01*
X0043513Y0099771D01*
X0043421Y0099718D01*
X0043327Y0099668D01*
X0043232Y0099622D01*
X0043135Y0099579D01*
X0043037Y0099540D01*
X0042937Y0099504D01*
X0042836Y0099472D01*
X0042734Y0099444D01*
X0042631Y0099419D01*
X0042527Y0099398D01*
X0042422Y0099381D01*
X0042317Y0099367D01*
X0042212Y0099358D01*
X0042106Y0099352D01*
X0042000Y0099350D01*
X0041894Y0099352D01*
X0041788Y0099358D01*
X0041683Y0099367D01*
X0041578Y0099381D01*
X0041473Y0099398D01*
X0041369Y0099419D01*
X0041266Y0099444D01*
X0041164Y0099472D01*
X0041063Y0099504D01*
X0040963Y0099540D01*
X0040865Y0099579D01*
X0040768Y0099622D01*
X0040673Y0099668D01*
X0040579Y0099718D01*
X0040487Y0099771D01*
X0040398Y0099828D01*
X0040310Y0099887D01*
X0040225Y0099950D01*
X0040142Y0100016D01*
X0040061Y0100085D01*
X0039983Y0100156D01*
X0039908Y0100231D01*
X0039835Y0100308D01*
X0064835Y0100308D02*
X0064908Y0100231D01*
X0064983Y0100156D01*
X0065061Y0100085D01*
X0065142Y0100016D01*
X0065225Y0099950D01*
X0065310Y0099887D01*
X0065398Y0099828D01*
X0065487Y0099771D01*
X0065579Y0099718D01*
X0065673Y0099668D01*
X0065768Y0099622D01*
X0065865Y0099579D01*
X0065963Y0099540D01*
X0066063Y0099504D01*
X0066164Y0099472D01*
X0066266Y0099444D01*
X0066369Y0099419D01*
X0066473Y0099398D01*
X0066578Y0099381D01*
X0066683Y0099367D01*
X0066788Y0099358D01*
X0066894Y0099352D01*
X0067000Y0099350D01*
X0067106Y0099352D01*
X0067212Y0099358D01*
X0067317Y0099367D01*
X0067422Y0099381D01*
X0067527Y0099398D01*
X0067631Y0099419D01*
X0067734Y0099444D01*
X0067836Y0099472D01*
X0067937Y0099504D01*
X0068037Y0099540D01*
X0068135Y0099579D01*
X0068232Y0099622D01*
X0068327Y0099668D01*
X0068421Y0099718D01*
X0068513Y0099771D01*
X0068602Y0099828D01*
X0068690Y0099887D01*
X0068775Y0099950D01*
X0068858Y0100016D01*
X0068939Y0100085D01*
X0069017Y0100156D01*
X0069092Y0100231D01*
X0069165Y0100308D01*
X0069165Y0104244D02*
X0069092Y0104321D01*
X0069017Y0104396D01*
X0068939Y0104467D01*
X0068858Y0104536D01*
X0068775Y0104602D01*
X0068690Y0104665D01*
X0068602Y0104724D01*
X0068513Y0104781D01*
X0068421Y0104834D01*
X0068327Y0104884D01*
X0068232Y0104930D01*
X0068135Y0104973D01*
X0068037Y0105012D01*
X0067937Y0105048D01*
X0067836Y0105080D01*
X0067734Y0105108D01*
X0067631Y0105133D01*
X0067527Y0105154D01*
X0067422Y0105171D01*
X0067317Y0105185D01*
X0067212Y0105194D01*
X0067106Y0105200D01*
X0067000Y0105202D01*
X0066894Y0105200D01*
X0066788Y0105194D01*
X0066683Y0105185D01*
X0066578Y0105171D01*
X0066473Y0105154D01*
X0066369Y0105133D01*
X0066266Y0105108D01*
X0066164Y0105080D01*
X0066063Y0105048D01*
X0065963Y0105012D01*
X0065865Y0104973D01*
X0065768Y0104930D01*
X0065673Y0104884D01*
X0065579Y0104834D01*
X0065487Y0104781D01*
X0065398Y0104724D01*
X0065310Y0104665D01*
X0065225Y0104602D01*
X0065142Y0104536D01*
X0065061Y0104467D01*
X0064983Y0104396D01*
X0064908Y0104321D01*
X0064835Y0104244D01*
D16*
X0067000Y0102276D03*
X0042000Y0102276D03*
D17*
X0044067Y0100012D03*
X0064933Y0104539D03*
D18*
X0064362Y0083457D02*
X0064362Y0081094D01*
X0059638Y0081094D02*
X0059638Y0083457D01*
X0069638Y0083457D02*
X0069638Y0081094D01*
X0074362Y0081094D02*
X0074362Y0083457D01*
X0036862Y0086094D02*
X0036862Y0088457D01*
X0032138Y0088457D02*
X0032138Y0086094D01*
X0083319Y0029638D02*
X0085681Y0029638D01*
X0085681Y0024913D02*
X0083319Y0024913D01*
X0050681Y0017138D02*
X0048319Y0017138D01*
X0048319Y0012413D02*
X0050681Y0012413D01*
X0034362Y0013457D02*
X0034362Y0011094D01*
X0029638Y0011094D02*
X0029638Y0013457D01*
D19*
X0038000Y0048576D03*
X0078000Y0048576D03*
M02*
