G75*
%MOIN*%
%OFA0B0*%
%FSLAX25Y25*%
%IPPOS*%
%LPD*%
%AMOC8*
5,1,8,0,0,1.08239X$1,22.5*
%
%ADD10C,0.07400*%
%ADD11C,0.06299*%
%ADD12R,0.03543X0.03150*%
%ADD13R,0.03150X0.04724*%
%ADD14C,0.01600*%
%ADD15C,0.02400*%
%ADD16C,0.01181*%
D10*
X0016663Y0014577D03*
X0016663Y0024577D03*
X0016663Y0034577D03*
X0016663Y0044577D03*
X0016663Y0054577D03*
X0016663Y0064577D03*
X0016663Y0074577D03*
X0016663Y0084577D03*
X0029745Y0025161D03*
X0069745Y0025161D03*
X0110403Y0024872D03*
X0110403Y0014872D03*
X0110403Y0034872D03*
X0110403Y0044872D03*
X0110403Y0054872D03*
X0110403Y0064872D03*
X0110403Y0074872D03*
X0110403Y0084872D03*
D11*
X0062863Y0115068D03*
X0054989Y0115068D03*
D12*
X0062784Y0060894D03*
X0062784Y0053414D03*
X0054517Y0057154D03*
D13*
X0076013Y0053847D03*
X0083099Y0053847D03*
D14*
X0006600Y0006600D02*
X0006600Y0115110D01*
X0050039Y0115110D01*
X0050039Y0115068D01*
X0054989Y0115068D01*
X0054989Y0115068D01*
X0050039Y0115068D01*
X0050039Y0114678D01*
X0050161Y0113909D01*
X0050402Y0113168D01*
X0050756Y0112474D01*
X0051214Y0111843D01*
X0051765Y0111292D01*
X0052395Y0110834D01*
X0053089Y0110481D01*
X0053830Y0110240D01*
X0054599Y0110118D01*
X0054989Y0110118D01*
X0055379Y0110118D01*
X0056148Y0110240D01*
X0056889Y0110481D01*
X0057583Y0110834D01*
X0058213Y0111292D01*
X0058502Y0111581D01*
X0059184Y0110898D01*
X0059184Y0064035D01*
X0058978Y0063829D01*
X0058613Y0062947D01*
X0058613Y0059389D01*
X0058323Y0060089D01*
X0057648Y0060764D01*
X0056766Y0061129D01*
X0052267Y0061129D01*
X0051385Y0060764D01*
X0050710Y0060089D01*
X0050345Y0059207D01*
X0050345Y0055102D01*
X0050710Y0054220D01*
X0050917Y0054014D01*
X0050917Y0026517D01*
X0051465Y0025194D01*
X0053748Y0022910D01*
X0054761Y0021898D01*
X0056084Y0021350D01*
X0064929Y0021350D01*
X0066290Y0019989D01*
X0068532Y0019061D01*
X0070959Y0019061D01*
X0073201Y0019989D01*
X0074916Y0021705D01*
X0075845Y0023947D01*
X0075845Y0026374D01*
X0074916Y0028616D01*
X0073201Y0030332D01*
X0070959Y0031261D01*
X0068532Y0031261D01*
X0066290Y0030332D01*
X0064574Y0028616D01*
X0064546Y0028550D01*
X0058291Y0028550D01*
X0058117Y0028724D01*
X0058117Y0054014D01*
X0058323Y0054220D01*
X0058613Y0054920D01*
X0058613Y0051362D01*
X0058978Y0050480D01*
X0059653Y0049805D01*
X0060535Y0049439D01*
X0065033Y0049439D01*
X0065915Y0049805D01*
X0066089Y0049978D01*
X0072551Y0049978D01*
X0073078Y0049450D01*
X0073960Y0049085D01*
X0078065Y0049085D01*
X0078947Y0049450D01*
X0079556Y0050059D01*
X0080165Y0049450D01*
X0081047Y0049085D01*
X0085151Y0049085D01*
X0086034Y0049450D01*
X0086709Y0050126D01*
X0086759Y0050247D01*
X0090081Y0050247D01*
X0091404Y0050795D01*
X0092848Y0052239D01*
X0093861Y0053252D01*
X0094409Y0054575D01*
X0094409Y0070389D01*
X0106260Y0070389D01*
X0106776Y0069872D01*
X0105231Y0068328D01*
X0104303Y0066086D01*
X0104303Y0063659D01*
X0105231Y0061417D01*
X0106776Y0059872D01*
X0105231Y0058328D01*
X0104303Y0056086D01*
X0104303Y0053659D01*
X0105231Y0051417D01*
X0106776Y0049872D01*
X0105231Y0048328D01*
X0104303Y0046086D01*
X0104303Y0043659D01*
X0105231Y0041417D01*
X0106776Y0039872D01*
X0105231Y0038328D01*
X0104303Y0036086D01*
X0104303Y0033659D01*
X0105231Y0031417D01*
X0106776Y0029872D01*
X0105231Y0028328D01*
X0104303Y0026086D01*
X0104303Y0023659D01*
X0105231Y0021417D01*
X0106947Y0019701D01*
X0107421Y0019505D01*
X0106820Y0019068D01*
X0106208Y0018455D01*
X0105699Y0017755D01*
X0105306Y0016984D01*
X0105038Y0016160D01*
X0104903Y0015305D01*
X0104903Y0015072D01*
X0110203Y0015072D01*
X0110203Y0014672D01*
X0110603Y0014672D01*
X0110603Y0009372D01*
X0110836Y0009372D01*
X0111691Y0009508D01*
X0112514Y0009775D01*
X0113285Y0010168D01*
X0113986Y0010677D01*
X0114598Y0011289D01*
X0115107Y0011990D01*
X0115500Y0012761D01*
X0115767Y0013584D01*
X0115903Y0014440D01*
X0115903Y0014672D01*
X0110603Y0014672D01*
X0110603Y0015072D01*
X0115903Y0015072D01*
X0115903Y0015305D01*
X0115767Y0016160D01*
X0115500Y0016984D01*
X0115107Y0017755D01*
X0114598Y0018455D01*
X0113986Y0019068D01*
X0113384Y0019505D01*
X0113858Y0019701D01*
X0115574Y0021417D01*
X0116503Y0023659D01*
X0116503Y0026086D01*
X0115574Y0028328D01*
X0114029Y0029872D01*
X0115574Y0031417D01*
X0116503Y0033659D01*
X0116503Y0036086D01*
X0115574Y0038328D01*
X0114029Y0039872D01*
X0115574Y0041417D01*
X0116503Y0043659D01*
X0116503Y0046086D01*
X0115574Y0048328D01*
X0114029Y0049872D01*
X0115574Y0051417D01*
X0116503Y0053659D01*
X0116503Y0056086D01*
X0115574Y0058328D01*
X0114029Y0059872D01*
X0115574Y0061417D01*
X0116503Y0063659D01*
X0116503Y0066086D01*
X0115574Y0068328D01*
X0114029Y0069872D01*
X0115574Y0071417D01*
X0116503Y0073659D01*
X0116503Y0076086D01*
X0115574Y0078328D01*
X0114029Y0079872D01*
X0115574Y0081417D01*
X0116503Y0083659D01*
X0116503Y0086086D01*
X0115574Y0088328D01*
X0113858Y0090044D01*
X0111616Y0090972D01*
X0109189Y0090972D01*
X0106947Y0090044D01*
X0105231Y0088328D01*
X0104303Y0086086D01*
X0104303Y0083659D01*
X0105231Y0081417D01*
X0106776Y0079872D01*
X0105231Y0078328D01*
X0104925Y0077589D01*
X0092167Y0077589D01*
X0090844Y0077041D01*
X0089831Y0076028D01*
X0087757Y0073954D01*
X0087209Y0072631D01*
X0087209Y0057447D01*
X0086759Y0057447D01*
X0086709Y0057569D01*
X0086034Y0058244D01*
X0085151Y0058609D01*
X0081047Y0058609D01*
X0080165Y0058244D01*
X0079556Y0057635D01*
X0078947Y0058244D01*
X0078065Y0058609D01*
X0073960Y0058609D01*
X0073078Y0058244D01*
X0072403Y0057569D01*
X0072241Y0057178D01*
X0065657Y0057178D01*
X0065915Y0057285D01*
X0066591Y0057960D01*
X0066956Y0058842D01*
X0066956Y0062947D01*
X0066591Y0063829D01*
X0066384Y0064035D01*
X0066384Y0110741D01*
X0067568Y0111924D01*
X0068413Y0113964D01*
X0068413Y0115110D01*
X0119047Y0115110D01*
X0119047Y0006600D01*
X0006600Y0006600D01*
X0006600Y0007961D02*
X0119047Y0007961D01*
X0119047Y0009559D02*
X0111848Y0009559D01*
X0110603Y0009559D02*
X0110203Y0009559D01*
X0110203Y0009372D02*
X0110203Y0014672D01*
X0104903Y0014672D01*
X0104903Y0014440D01*
X0105038Y0013584D01*
X0105306Y0012761D01*
X0105699Y0011990D01*
X0106208Y0011289D01*
X0106820Y0010677D01*
X0107520Y0010168D01*
X0108291Y0009775D01*
X0109115Y0009508D01*
X0109970Y0009372D01*
X0110203Y0009372D01*
X0108957Y0009559D02*
X0018930Y0009559D01*
X0018774Y0009480D02*
X0019546Y0009873D01*
X0020246Y0010382D01*
X0020858Y0010994D01*
X0021367Y0011694D01*
X0021760Y0012466D01*
X0022028Y0013289D01*
X0022163Y0014144D01*
X0022163Y0014377D01*
X0016863Y0014377D01*
X0016863Y0009077D01*
X0017096Y0009077D01*
X0017951Y0009212D01*
X0018774Y0009480D01*
X0016863Y0009559D02*
X0016463Y0009559D01*
X0016463Y0009077D02*
X0016463Y0014377D01*
X0011163Y0014377D01*
X0011163Y0014144D01*
X0011299Y0013289D01*
X0011566Y0012466D01*
X0011959Y0011694D01*
X0012468Y0010994D01*
X0013080Y0010382D01*
X0013780Y0009873D01*
X0014552Y0009480D01*
X0015375Y0009212D01*
X0016230Y0009077D01*
X0016463Y0009077D01*
X0016463Y0011158D02*
X0016863Y0011158D01*
X0016863Y0012756D02*
X0016463Y0012756D01*
X0016463Y0014355D02*
X0016863Y0014355D01*
X0016863Y0014377D02*
X0016463Y0014377D01*
X0016463Y0014777D01*
X0011163Y0014777D01*
X0011163Y0015010D01*
X0011299Y0015865D01*
X0011566Y0016688D01*
X0011959Y0017460D01*
X0012468Y0018160D01*
X0013080Y0018772D01*
X0013682Y0019209D01*
X0013208Y0019406D01*
X0011492Y0021122D01*
X0010563Y0023364D01*
X0010563Y0025790D01*
X0011492Y0028032D01*
X0013036Y0029577D01*
X0011492Y0031122D01*
X0010563Y0033364D01*
X0010563Y0035790D01*
X0011492Y0038032D01*
X0013036Y0039577D01*
X0011492Y0041122D01*
X0010563Y0043364D01*
X0010563Y0045790D01*
X0011492Y0048032D01*
X0013036Y0049577D01*
X0011492Y0051122D01*
X0010563Y0053364D01*
X0010563Y0055790D01*
X0011492Y0058032D01*
X0013036Y0059577D01*
X0011492Y0061122D01*
X0010563Y0063364D01*
X0010563Y0065790D01*
X0011492Y0068032D01*
X0013036Y0069577D01*
X0011492Y0071122D01*
X0010563Y0073364D01*
X0010563Y0075790D01*
X0011492Y0078032D01*
X0013036Y0079577D01*
X0011492Y0081122D01*
X0010563Y0083364D01*
X0010563Y0085790D01*
X0011492Y0088032D01*
X0013208Y0089748D01*
X0015450Y0090677D01*
X0017876Y0090677D01*
X0020118Y0089748D01*
X0021834Y0088032D01*
X0022763Y0085790D01*
X0022763Y0083364D01*
X0021834Y0081122D01*
X0020290Y0079577D01*
X0021834Y0078032D01*
X0022763Y0075790D01*
X0022763Y0073364D01*
X0021834Y0071122D01*
X0020290Y0069577D01*
X0021834Y0068032D01*
X0022763Y0065790D01*
X0022763Y0063364D01*
X0021834Y0061122D01*
X0020290Y0059577D01*
X0021834Y0058032D01*
X0022763Y0055790D01*
X0022763Y0053364D01*
X0021834Y0051122D01*
X0020290Y0049577D01*
X0021834Y0048032D01*
X0022763Y0045790D01*
X0022763Y0043364D01*
X0021834Y0041122D01*
X0020290Y0039577D01*
X0021834Y0038032D01*
X0022763Y0035790D01*
X0022763Y0033364D01*
X0021834Y0031122D01*
X0020290Y0029577D01*
X0021690Y0028177D01*
X0024392Y0028177D01*
X0024574Y0028616D01*
X0026290Y0030332D01*
X0028532Y0031261D01*
X0030959Y0031261D01*
X0033201Y0030332D01*
X0034916Y0028616D01*
X0035845Y0026374D01*
X0035845Y0023947D01*
X0034916Y0021705D01*
X0033201Y0019989D01*
X0030959Y0019061D01*
X0028532Y0019061D01*
X0026290Y0019989D01*
X0025302Y0020977D01*
X0021690Y0020977D01*
X0020118Y0019406D01*
X0019644Y0019209D01*
X0020246Y0018772D01*
X0020858Y0018160D01*
X0021367Y0017460D01*
X0021760Y0016688D01*
X0022028Y0015865D01*
X0022163Y0015010D01*
X0022163Y0014777D01*
X0016863Y0014777D01*
X0016863Y0014377D01*
X0020977Y0011158D02*
X0106339Y0011158D01*
X0105308Y0012756D02*
X0021854Y0012756D01*
X0022163Y0014355D02*
X0104916Y0014355D01*
X0105005Y0015953D02*
X0021999Y0015953D01*
X0021300Y0017552D02*
X0105595Y0017552D01*
X0106933Y0019150D02*
X0071175Y0019150D01*
X0068316Y0019150D02*
X0031175Y0019150D01*
X0028316Y0019150D02*
X0019726Y0019150D01*
X0021461Y0020749D02*
X0025530Y0020749D01*
X0033960Y0020749D02*
X0065530Y0020749D01*
X0073960Y0020749D02*
X0105900Y0020749D01*
X0104846Y0022347D02*
X0075182Y0022347D01*
X0075844Y0023946D02*
X0104303Y0023946D01*
X0104303Y0025544D02*
X0075845Y0025544D01*
X0075527Y0027143D02*
X0104741Y0027143D01*
X0105645Y0028741D02*
X0074791Y0028741D01*
X0073182Y0030340D02*
X0106309Y0030340D01*
X0105016Y0031938D02*
X0058117Y0031938D01*
X0058117Y0030340D02*
X0066309Y0030340D01*
X0064699Y0028741D02*
X0058117Y0028741D01*
X0058117Y0033537D02*
X0104353Y0033537D01*
X0104303Y0035135D02*
X0058117Y0035135D01*
X0058117Y0036734D02*
X0104571Y0036734D01*
X0105236Y0038332D02*
X0058117Y0038332D01*
X0058117Y0039931D02*
X0106718Y0039931D01*
X0105185Y0041529D02*
X0058117Y0041529D01*
X0058117Y0043128D02*
X0104523Y0043128D01*
X0104303Y0044726D02*
X0058117Y0044726D01*
X0058117Y0046325D02*
X0104402Y0046325D01*
X0105064Y0047923D02*
X0058117Y0047923D01*
X0058117Y0049522D02*
X0060336Y0049522D01*
X0058713Y0051120D02*
X0058117Y0051120D01*
X0058117Y0052719D02*
X0058613Y0052719D01*
X0058613Y0054317D02*
X0058363Y0054317D01*
X0058688Y0055649D02*
X0058688Y0058660D01*
X0058978Y0057960D01*
X0059653Y0057285D01*
X0059969Y0057154D01*
X0059653Y0057024D01*
X0058978Y0056348D01*
X0058688Y0055649D01*
X0058688Y0055916D02*
X0058799Y0055916D01*
X0058688Y0057514D02*
X0059424Y0057514D01*
X0058613Y0060711D02*
X0057700Y0060711D01*
X0058613Y0062310D02*
X0022327Y0062310D01*
X0022763Y0063908D02*
X0059058Y0063908D01*
X0059184Y0065507D02*
X0022763Y0065507D01*
X0022218Y0067105D02*
X0059184Y0067105D01*
X0059184Y0068704D02*
X0021163Y0068704D01*
X0021015Y0070302D02*
X0059184Y0070302D01*
X0059184Y0071901D02*
X0022157Y0071901D01*
X0022763Y0073500D02*
X0059184Y0073500D01*
X0059184Y0075098D02*
X0022763Y0075098D01*
X0022388Y0076697D02*
X0059184Y0076697D01*
X0059184Y0078295D02*
X0021572Y0078295D01*
X0020606Y0079894D02*
X0059184Y0079894D01*
X0059184Y0081492D02*
X0021988Y0081492D01*
X0022650Y0083091D02*
X0059184Y0083091D01*
X0059184Y0084689D02*
X0022763Y0084689D01*
X0022557Y0086288D02*
X0059184Y0086288D01*
X0059184Y0087886D02*
X0021895Y0087886D01*
X0020382Y0089485D02*
X0059184Y0089485D01*
X0059184Y0091083D02*
X0006600Y0091083D01*
X0006600Y0089485D02*
X0012944Y0089485D01*
X0011431Y0087886D02*
X0006600Y0087886D01*
X0006600Y0086288D02*
X0010769Y0086288D01*
X0010563Y0084689D02*
X0006600Y0084689D01*
X0006600Y0083091D02*
X0010676Y0083091D01*
X0011338Y0081492D02*
X0006600Y0081492D01*
X0006600Y0079894D02*
X0012720Y0079894D01*
X0011754Y0078295D02*
X0006600Y0078295D01*
X0006600Y0076697D02*
X0010938Y0076697D01*
X0010563Y0075098D02*
X0006600Y0075098D01*
X0006600Y0073500D02*
X0010563Y0073500D01*
X0011169Y0071901D02*
X0006600Y0071901D01*
X0006600Y0070302D02*
X0012311Y0070302D01*
X0012163Y0068704D02*
X0006600Y0068704D01*
X0006600Y0067105D02*
X0011108Y0067105D01*
X0010563Y0065507D02*
X0006600Y0065507D01*
X0006600Y0063908D02*
X0010563Y0063908D01*
X0011000Y0062310D02*
X0006600Y0062310D01*
X0006600Y0060711D02*
X0011902Y0060711D01*
X0012572Y0059113D02*
X0006600Y0059113D01*
X0006600Y0057514D02*
X0011277Y0057514D01*
X0010615Y0055916D02*
X0006600Y0055916D01*
X0006600Y0054317D02*
X0010563Y0054317D01*
X0010830Y0052719D02*
X0006600Y0052719D01*
X0006600Y0051120D02*
X0011493Y0051120D01*
X0012981Y0049522D02*
X0006600Y0049522D01*
X0006600Y0047923D02*
X0011447Y0047923D01*
X0010784Y0046325D02*
X0006600Y0046325D01*
X0006600Y0044726D02*
X0010563Y0044726D01*
X0010661Y0043128D02*
X0006600Y0043128D01*
X0006600Y0041529D02*
X0011323Y0041529D01*
X0012683Y0039931D02*
X0006600Y0039931D01*
X0006600Y0038332D02*
X0011792Y0038332D01*
X0010954Y0036734D02*
X0006600Y0036734D01*
X0006600Y0035135D02*
X0010563Y0035135D01*
X0010563Y0033537D02*
X0006600Y0033537D01*
X0006600Y0031938D02*
X0011154Y0031938D01*
X0012274Y0030340D02*
X0006600Y0030340D01*
X0006600Y0028741D02*
X0012201Y0028741D01*
X0011123Y0027143D02*
X0006600Y0027143D01*
X0006600Y0025544D02*
X0010563Y0025544D01*
X0010563Y0023946D02*
X0006600Y0023946D01*
X0006600Y0022347D02*
X0010984Y0022347D01*
X0011865Y0020749D02*
X0006600Y0020749D01*
X0006600Y0019150D02*
X0013600Y0019150D01*
X0012026Y0017552D02*
X0006600Y0017552D01*
X0006600Y0015953D02*
X0011327Y0015953D01*
X0011163Y0014355D02*
X0006600Y0014355D01*
X0006600Y0012756D02*
X0011472Y0012756D01*
X0012349Y0011158D02*
X0006600Y0011158D01*
X0006600Y0009559D02*
X0014397Y0009559D01*
X0021126Y0028741D02*
X0024699Y0028741D01*
X0026309Y0030340D02*
X0021052Y0030340D01*
X0022173Y0031938D02*
X0050917Y0031938D01*
X0050917Y0030340D02*
X0033182Y0030340D01*
X0034791Y0028741D02*
X0050917Y0028741D01*
X0050917Y0027143D02*
X0035527Y0027143D01*
X0035845Y0025544D02*
X0051319Y0025544D01*
X0052713Y0023946D02*
X0035844Y0023946D01*
X0035182Y0022347D02*
X0054311Y0022347D01*
X0050917Y0033537D02*
X0022763Y0033537D01*
X0022763Y0035135D02*
X0050917Y0035135D01*
X0050917Y0036734D02*
X0022372Y0036734D01*
X0021535Y0038332D02*
X0050917Y0038332D01*
X0050917Y0039931D02*
X0020644Y0039931D01*
X0022003Y0041529D02*
X0050917Y0041529D01*
X0050917Y0043128D02*
X0022665Y0043128D01*
X0022763Y0044726D02*
X0050917Y0044726D01*
X0050917Y0046325D02*
X0022542Y0046325D01*
X0021880Y0047923D02*
X0050917Y0047923D01*
X0050917Y0049522D02*
X0020345Y0049522D01*
X0021833Y0051120D02*
X0050917Y0051120D01*
X0050917Y0052719D02*
X0022496Y0052719D01*
X0022763Y0054317D02*
X0050670Y0054317D01*
X0050345Y0055916D02*
X0022711Y0055916D01*
X0022049Y0057514D02*
X0050345Y0057514D01*
X0050345Y0059113D02*
X0020754Y0059113D01*
X0021424Y0060711D02*
X0051333Y0060711D01*
X0065232Y0049522D02*
X0073007Y0049522D01*
X0079018Y0049522D02*
X0080093Y0049522D01*
X0086105Y0049522D02*
X0106426Y0049522D01*
X0105528Y0051120D02*
X0091729Y0051120D01*
X0093328Y0052719D02*
X0104692Y0052719D01*
X0104303Y0054317D02*
X0094302Y0054317D01*
X0094409Y0055916D02*
X0104303Y0055916D01*
X0104895Y0057514D02*
X0094409Y0057514D01*
X0094409Y0059113D02*
X0106017Y0059113D01*
X0105937Y0060711D02*
X0094409Y0060711D01*
X0094409Y0062310D02*
X0104862Y0062310D01*
X0104303Y0063908D02*
X0094409Y0063908D01*
X0094409Y0065507D02*
X0104303Y0065507D01*
X0104725Y0067105D02*
X0094409Y0067105D01*
X0094409Y0068704D02*
X0105608Y0068704D01*
X0106346Y0070302D02*
X0094409Y0070302D01*
X0088901Y0075098D02*
X0066384Y0075098D01*
X0066384Y0073500D02*
X0087569Y0073500D01*
X0087209Y0071901D02*
X0066384Y0071901D01*
X0066384Y0070302D02*
X0087209Y0070302D01*
X0087209Y0068704D02*
X0066384Y0068704D01*
X0066384Y0067105D02*
X0087209Y0067105D01*
X0087209Y0065507D02*
X0066384Y0065507D01*
X0066511Y0063908D02*
X0087209Y0063908D01*
X0087209Y0062310D02*
X0066956Y0062310D01*
X0066956Y0060711D02*
X0087209Y0060711D01*
X0087209Y0059113D02*
X0066956Y0059113D01*
X0066145Y0057514D02*
X0072381Y0057514D01*
X0086731Y0057514D02*
X0087209Y0057514D01*
X0090499Y0076697D02*
X0066384Y0076697D01*
X0066384Y0078295D02*
X0105218Y0078295D01*
X0106755Y0079894D02*
X0066384Y0079894D01*
X0066384Y0081492D02*
X0105200Y0081492D01*
X0104538Y0083091D02*
X0066384Y0083091D01*
X0066384Y0084689D02*
X0104303Y0084689D01*
X0104386Y0086288D02*
X0066384Y0086288D01*
X0066384Y0087886D02*
X0105048Y0087886D01*
X0106388Y0089485D02*
X0066384Y0089485D01*
X0066384Y0091083D02*
X0119047Y0091083D01*
X0119047Y0089485D02*
X0114417Y0089485D01*
X0115757Y0087886D02*
X0119047Y0087886D01*
X0119047Y0086288D02*
X0116419Y0086288D01*
X0116503Y0084689D02*
X0119047Y0084689D01*
X0119047Y0083091D02*
X0116267Y0083091D01*
X0115605Y0081492D02*
X0119047Y0081492D01*
X0119047Y0079894D02*
X0114051Y0079894D01*
X0115588Y0078295D02*
X0119047Y0078295D01*
X0119047Y0076697D02*
X0116250Y0076697D01*
X0116503Y0075098D02*
X0119047Y0075098D01*
X0119047Y0073500D02*
X0116437Y0073500D01*
X0115775Y0071901D02*
X0119047Y0071901D01*
X0119047Y0070302D02*
X0114460Y0070302D01*
X0115198Y0068704D02*
X0119047Y0068704D01*
X0119047Y0067105D02*
X0116080Y0067105D01*
X0116503Y0065507D02*
X0119047Y0065507D01*
X0119047Y0063908D02*
X0116503Y0063908D01*
X0115944Y0062310D02*
X0119047Y0062310D01*
X0119047Y0060711D02*
X0114868Y0060711D01*
X0114789Y0059113D02*
X0119047Y0059113D01*
X0119047Y0057514D02*
X0115911Y0057514D01*
X0116503Y0055916D02*
X0119047Y0055916D01*
X0119047Y0054317D02*
X0116503Y0054317D01*
X0116113Y0052719D02*
X0119047Y0052719D01*
X0119047Y0051120D02*
X0115277Y0051120D01*
X0114380Y0049522D02*
X0119047Y0049522D01*
X0119047Y0047923D02*
X0115742Y0047923D01*
X0116404Y0046325D02*
X0119047Y0046325D01*
X0119047Y0044726D02*
X0116503Y0044726D01*
X0116283Y0043128D02*
X0119047Y0043128D01*
X0119047Y0041529D02*
X0115621Y0041529D01*
X0114088Y0039931D02*
X0119047Y0039931D01*
X0119047Y0038332D02*
X0115570Y0038332D01*
X0116234Y0036734D02*
X0119047Y0036734D01*
X0119047Y0035135D02*
X0116503Y0035135D01*
X0116452Y0033537D02*
X0119047Y0033537D01*
X0119047Y0031938D02*
X0115790Y0031938D01*
X0114497Y0030340D02*
X0119047Y0030340D01*
X0119047Y0028741D02*
X0115161Y0028741D01*
X0116065Y0027143D02*
X0119047Y0027143D01*
X0119047Y0025544D02*
X0116503Y0025544D01*
X0116503Y0023946D02*
X0119047Y0023946D01*
X0119047Y0022347D02*
X0115959Y0022347D01*
X0114906Y0020749D02*
X0119047Y0020749D01*
X0119047Y0019150D02*
X0113872Y0019150D01*
X0115210Y0017552D02*
X0119047Y0017552D01*
X0119047Y0015953D02*
X0115800Y0015953D01*
X0115889Y0014355D02*
X0119047Y0014355D01*
X0119047Y0012756D02*
X0115497Y0012756D01*
X0114466Y0011158D02*
X0119047Y0011158D01*
X0110603Y0011158D02*
X0110203Y0011158D01*
X0110203Y0012756D02*
X0110603Y0012756D01*
X0110603Y0014355D02*
X0110203Y0014355D01*
X0119047Y0092682D02*
X0066384Y0092682D01*
X0066384Y0094280D02*
X0119047Y0094280D01*
X0119047Y0095879D02*
X0066384Y0095879D01*
X0066384Y0097477D02*
X0119047Y0097477D01*
X0119047Y0099076D02*
X0066384Y0099076D01*
X0066384Y0100674D02*
X0119047Y0100674D01*
X0119047Y0102273D02*
X0066384Y0102273D01*
X0066384Y0103871D02*
X0119047Y0103871D01*
X0119047Y0105470D02*
X0066384Y0105470D01*
X0066384Y0107068D02*
X0119047Y0107068D01*
X0119047Y0108667D02*
X0066384Y0108667D01*
X0066384Y0110265D02*
X0119047Y0110265D01*
X0119047Y0111864D02*
X0067507Y0111864D01*
X0068205Y0113462D02*
X0119047Y0113462D01*
X0119047Y0115061D02*
X0068413Y0115061D01*
X0059184Y0110265D02*
X0056226Y0110265D01*
X0054989Y0110265D02*
X0054989Y0110265D01*
X0054989Y0110118D02*
X0054989Y0115068D01*
X0054989Y0115068D01*
X0054989Y0110118D01*
X0053752Y0110265D02*
X0006600Y0110265D01*
X0006600Y0108667D02*
X0059184Y0108667D01*
X0059184Y0107068D02*
X0006600Y0107068D01*
X0006600Y0105470D02*
X0059184Y0105470D01*
X0059184Y0103871D02*
X0006600Y0103871D01*
X0006600Y0102273D02*
X0059184Y0102273D01*
X0059184Y0100674D02*
X0006600Y0100674D01*
X0006600Y0099076D02*
X0059184Y0099076D01*
X0059184Y0097477D02*
X0006600Y0097477D01*
X0006600Y0095879D02*
X0059184Y0095879D01*
X0059184Y0094280D02*
X0006600Y0094280D01*
X0006600Y0092682D02*
X0059184Y0092682D01*
X0054989Y0111864D02*
X0054989Y0111864D01*
X0054989Y0113462D02*
X0054989Y0113462D01*
X0054989Y0115061D02*
X0054989Y0115061D01*
X0051199Y0111864D02*
X0006600Y0111864D01*
X0006600Y0113462D02*
X0050306Y0113462D01*
X0050039Y0115061D02*
X0006600Y0115061D01*
D15*
X0062784Y0114989D02*
X0062784Y0060894D01*
X0063214Y0053578D02*
X0075743Y0053578D01*
X0076013Y0053847D01*
X0083099Y0053847D02*
X0089365Y0053847D01*
X0090809Y0055291D01*
X0090809Y0071915D01*
X0092883Y0073989D01*
X0109519Y0073989D01*
X0110403Y0074872D01*
X0062863Y0115068D02*
X0062784Y0114989D01*
X0054517Y0057154D02*
X0054517Y0027233D01*
X0056800Y0024950D01*
X0069534Y0024950D01*
X0069745Y0025161D01*
X0029745Y0025161D02*
X0029162Y0024577D01*
X0016663Y0024577D01*
D16*
X0062784Y0053414D02*
X0063214Y0053578D01*
X0075596Y0053578D02*
X0076013Y0053847D01*
M02*
