G75*
%MOIN*%
%OFA0B0*%
%FSLAX25Y25*%
%IPPOS*%
%LPD*%
%AMOC8*
5,1,8,0,0,1.08239X$1,22.5*
%
%ADD10C,0.00000*%
%ADD11C,0.00800*%
%ADD12C,0.00500*%
%ADD13C,0.00100*%
%ADD14C,0.00600*%
D10*
X0001800Y0001800D02*
X0001800Y0119910D01*
X0123847Y0119910D01*
X0123847Y0001800D01*
X0001800Y0001800D01*
D11*
X0011663Y0012077D02*
X0014163Y0009577D01*
X0019163Y0009577D01*
X0021663Y0012077D01*
X0021663Y0017077D01*
X0019163Y0019577D01*
X0021663Y0022077D01*
X0021663Y0027077D01*
X0019163Y0029577D01*
X0021663Y0032077D01*
X0021663Y0037077D01*
X0019163Y0039577D01*
X0021663Y0042077D01*
X0021663Y0047077D01*
X0019163Y0049577D01*
X0021663Y0052077D01*
X0021663Y0057077D01*
X0019163Y0059577D01*
X0021663Y0062077D01*
X0021663Y0067077D01*
X0019163Y0069577D01*
X0021663Y0072077D01*
X0021663Y0077077D01*
X0019163Y0079577D01*
X0021663Y0082077D01*
X0021663Y0087077D01*
X0019163Y0089577D01*
X0014163Y0089577D01*
X0011663Y0087077D01*
X0011663Y0082077D01*
X0014163Y0079577D01*
X0011663Y0077077D01*
X0011663Y0072077D01*
X0014163Y0069577D01*
X0011663Y0067077D01*
X0011663Y0062077D01*
X0014163Y0059577D01*
X0011663Y0057077D01*
X0011663Y0052077D01*
X0014163Y0049577D01*
X0011663Y0047077D01*
X0011663Y0042077D01*
X0014163Y0039577D01*
X0011663Y0037077D01*
X0011663Y0032077D01*
X0014163Y0029577D01*
X0011663Y0027077D01*
X0011663Y0022077D01*
X0014163Y0019577D01*
X0011663Y0017077D01*
X0011663Y0012077D01*
X0037344Y0020436D02*
X0037344Y0029885D01*
X0062147Y0029885D01*
X0062147Y0020436D01*
X0037344Y0020436D01*
X0056091Y0051643D02*
X0059241Y0051643D01*
X0056091Y0051643D02*
X0056091Y0054005D01*
X0056091Y0060304D02*
X0056091Y0062666D01*
X0059241Y0062666D01*
X0070540Y0104044D02*
X0047312Y0104044D01*
X0047312Y0121761D01*
X0054989Y0121761D01*
X0054989Y0119792D01*
X0062863Y0119792D01*
X0062863Y0121761D01*
X0070540Y0121761D01*
X0070540Y0104044D01*
X0105403Y0087372D02*
X0105403Y0082372D01*
X0107903Y0079872D01*
X0105403Y0077372D01*
X0105403Y0072372D01*
X0107903Y0069872D01*
X0105403Y0067372D01*
X0105403Y0062372D01*
X0107903Y0059872D01*
X0105403Y0057372D01*
X0105403Y0052372D01*
X0107903Y0049872D01*
X0105403Y0047372D01*
X0105403Y0042372D01*
X0107903Y0039872D01*
X0105403Y0037372D01*
X0105403Y0032372D01*
X0107903Y0029872D01*
X0105403Y0027372D01*
X0105403Y0022372D01*
X0107903Y0019872D01*
X0105403Y0017372D01*
X0105403Y0012372D01*
X0107903Y0009872D01*
X0112903Y0009872D01*
X0115403Y0012372D01*
X0115403Y0017372D01*
X0112903Y0019872D01*
X0115403Y0022372D01*
X0115403Y0027372D01*
X0112903Y0029872D01*
X0115403Y0032372D01*
X0115403Y0037372D01*
X0112903Y0039872D01*
X0115403Y0042372D01*
X0115403Y0047372D01*
X0112903Y0049872D01*
X0115403Y0052372D01*
X0115403Y0057372D01*
X0112903Y0059872D01*
X0115403Y0062372D01*
X0115403Y0067372D01*
X0112903Y0069872D01*
X0115403Y0072372D01*
X0115403Y0077372D01*
X0112903Y0079872D01*
X0115403Y0082372D01*
X0115403Y0087372D01*
X0112903Y0089872D01*
X0107903Y0089872D01*
X0105403Y0087372D01*
D12*
X0102953Y0043518D02*
X0102953Y0040515D01*
X0098449Y0040515D01*
X0099950Y0038914D02*
X0102953Y0038914D01*
X0100701Y0038914D02*
X0100701Y0035911D01*
X0099950Y0035911D02*
X0098449Y0037413D01*
X0099950Y0038914D01*
X0099950Y0035911D02*
X0102953Y0035911D01*
X0102953Y0034310D02*
X0098449Y0034310D01*
X0098449Y0031307D02*
X0102953Y0034310D01*
X0102953Y0031307D02*
X0098449Y0031307D01*
X0099200Y0029706D02*
X0098449Y0028955D01*
X0098449Y0027454D01*
X0099200Y0026703D01*
X0102202Y0026703D01*
X0102953Y0027454D01*
X0102953Y0028955D01*
X0102202Y0029706D01*
X0100701Y0029706D01*
X0100701Y0028205D01*
X0102953Y0025135D02*
X0102953Y0023634D01*
X0102953Y0024385D02*
X0098449Y0024385D01*
X0098449Y0025135D02*
X0098449Y0023634D01*
X0099200Y0022033D02*
X0098449Y0021282D01*
X0098449Y0019781D01*
X0099200Y0019030D01*
X0099950Y0019030D01*
X0100701Y0019781D01*
X0100701Y0021282D01*
X0101451Y0022033D01*
X0102202Y0022033D01*
X0102953Y0021282D01*
X0102953Y0019781D01*
X0102202Y0019030D01*
X0100701Y0017429D02*
X0100701Y0014426D01*
X0098449Y0012825D02*
X0098449Y0011324D01*
X0098449Y0012074D02*
X0102202Y0012074D01*
X0102953Y0011324D01*
X0102953Y0010573D01*
X0102202Y0009822D01*
X0061350Y0014711D02*
X0059549Y0014711D01*
X0061350Y0016512D01*
X0061350Y0016963D01*
X0060900Y0017413D01*
X0059999Y0017413D01*
X0059549Y0016963D01*
X0058404Y0016963D02*
X0057953Y0017413D01*
X0056602Y0017413D01*
X0056602Y0014711D01*
X0056602Y0015611D02*
X0057953Y0015611D01*
X0058404Y0016062D01*
X0058404Y0016963D01*
X0057503Y0015611D02*
X0058404Y0014711D01*
X0057850Y0023711D02*
X0057850Y0025062D01*
X0057400Y0025512D01*
X0056949Y0025062D01*
X0056949Y0023711D01*
X0056049Y0023711D02*
X0056049Y0025512D01*
X0056499Y0025512D01*
X0056949Y0025062D01*
X0054904Y0025062D02*
X0054904Y0023711D01*
X0054904Y0025062D02*
X0054453Y0025512D01*
X0053552Y0025512D01*
X0053102Y0025062D01*
X0053102Y0026413D02*
X0053102Y0023711D01*
X0051957Y0024161D02*
X0051957Y0025963D01*
X0051507Y0026413D01*
X0050606Y0026413D01*
X0050156Y0025963D01*
X0050156Y0024161D01*
X0050606Y0023711D01*
X0051507Y0023711D01*
X0051957Y0024161D01*
X0009213Y0024089D02*
X0009213Y0025591D01*
X0008462Y0026341D01*
X0004709Y0026341D01*
X0004709Y0027943D02*
X0004709Y0030195D01*
X0005460Y0030945D01*
X0006961Y0030945D01*
X0007712Y0030195D01*
X0007712Y0027943D01*
X0009213Y0027943D02*
X0004709Y0027943D01*
X0004709Y0032547D02*
X0004709Y0034799D01*
X0005460Y0035549D01*
X0006961Y0035549D01*
X0007712Y0034799D01*
X0007712Y0032547D01*
X0009213Y0032547D02*
X0004709Y0032547D01*
X0004709Y0037151D02*
X0009213Y0037151D01*
X0009213Y0040153D01*
X0009213Y0043256D02*
X0006961Y0043256D01*
X0005460Y0044757D01*
X0004709Y0044757D01*
X0006961Y0043256D02*
X0005460Y0041754D01*
X0004709Y0041754D01*
X0009213Y0024089D02*
X0008462Y0023339D01*
X0004709Y0023339D01*
X0005460Y0021737D02*
X0004709Y0020987D01*
X0004709Y0019485D01*
X0005460Y0018735D01*
X0006211Y0018735D01*
X0006961Y0019485D01*
X0006961Y0020987D01*
X0007712Y0021737D01*
X0008462Y0021737D01*
X0009213Y0020987D01*
X0009213Y0019485D01*
X0008462Y0018735D01*
X0006961Y0017133D02*
X0006961Y0014131D01*
X0004709Y0012530D02*
X0004709Y0011028D01*
X0004709Y0011779D02*
X0008462Y0011779D01*
X0009213Y0011028D01*
X0009213Y0010278D01*
X0008462Y0009527D01*
D13*
X0050546Y0053954D02*
X0050296Y0054205D01*
X0050296Y0054705D01*
X0050546Y0054955D01*
X0051547Y0054955D01*
X0051797Y0054705D01*
X0051797Y0054205D01*
X0051547Y0053954D01*
X0050546Y0053954D01*
X0051297Y0054455D02*
X0051797Y0054955D01*
X0051797Y0055428D02*
X0050796Y0056428D01*
X0050546Y0056428D01*
X0050296Y0056178D01*
X0050296Y0055678D01*
X0050546Y0055428D01*
X0051797Y0055428D02*
X0051797Y0056428D01*
X0079659Y0050549D02*
X0079659Y0049047D01*
X0079659Y0049548D02*
X0080410Y0049548D01*
X0080660Y0049798D01*
X0080660Y0050298D01*
X0080410Y0050549D01*
X0079659Y0050549D01*
X0080160Y0049548D02*
X0080660Y0049047D01*
X0081133Y0049047D02*
X0082133Y0049047D01*
X0081633Y0049047D02*
X0081633Y0050549D01*
X0081133Y0050048D01*
X0066315Y0099541D02*
X0065314Y0099541D01*
X0065814Y0099541D02*
X0065814Y0101043D01*
X0065314Y0100542D01*
X0064841Y0101043D02*
X0064341Y0101043D01*
X0064591Y0101043D02*
X0064591Y0099792D01*
X0064341Y0099541D01*
X0064091Y0099541D01*
X0063840Y0099792D01*
D14*
X0078375Y0056209D02*
X0080737Y0056209D01*
X0080737Y0051485D02*
X0078375Y0051485D01*
M02*
