%
M48
M72
T01C0.02756
T02C0.03543
T03C0.04000
%
T01
X54989Y115068
X62863Y115068
T02
X29745Y25161
X69745Y25161
T03
X16663Y14577
X16663Y24577
X16663Y34577
X16663Y84577
X16663Y74577
X16663Y64577
X16663Y54577
X16663Y44577
X110403Y34872
X110403Y14872
X110403Y24872
X110403Y84872
X110403Y74872
X110403Y64872
X110403Y54872
X110403Y44872
M30
