%
M48
M72
T01C0.01969
T02C0.02000
T03C0.02362
%
T01
X5996Y28800
X5996Y36700
X5996Y44500
X5996Y52400
X5996Y60300
X5996Y67800
X63896Y67800
X63896Y60300
X63896Y52400
X63896Y44500
X63896Y36700
X63896Y28800
T02
X43906Y55388
X23236Y51451
T03
X28118Y53262
X24083Y59219
X24087Y63597
X24071Y67975
X28472Y43420
X28827Y33577
M30
