G75*
%MOIN*%
%OFA0B0*%
%FSLAX25Y25*%
%IPPOS*%
%LPD*%
%AMOC8*
5,1,8,0,0,1.08239X$1,22.5*
%
%ADD10C,0.01000*%
%ADD11C,0.00600*%
%ADD12C,0.00100*%
%ADD13C,0.00400*%
%ADD14C,0.00800*%
D10*
X0003551Y0023892D02*
X0065559Y0023892D01*
X0066543Y0073105D01*
X0003551Y0073105D01*
X0003551Y0023892D01*
D11*
X0013591Y0027042D02*
X0015953Y0027042D01*
X0015953Y0031766D02*
X0013591Y0031766D01*
X0013512Y0034719D02*
X0015874Y0034719D01*
X0015874Y0039444D02*
X0013512Y0039444D01*
X0013748Y0042593D02*
X0016110Y0042593D01*
X0016110Y0047318D02*
X0013748Y0047318D01*
X0013984Y0050467D02*
X0016346Y0050467D01*
X0016346Y0055192D02*
X0013984Y0055192D01*
X0013236Y0065231D02*
X0015598Y0065231D01*
X0015598Y0069955D02*
X0013236Y0069955D01*
X0055913Y0065507D02*
X0055913Y0063144D01*
X0060638Y0063144D02*
X0060638Y0065507D01*
X0060638Y0049522D02*
X0060638Y0047160D01*
X0055913Y0047160D02*
X0055913Y0049522D01*
D12*
X0054725Y0047865D02*
X0054976Y0047615D01*
X0054976Y0047115D01*
X0054725Y0046864D01*
X0054225Y0046864D02*
X0053975Y0047365D01*
X0053975Y0047615D01*
X0054225Y0047865D01*
X0054725Y0047865D01*
X0054225Y0046864D02*
X0053474Y0046864D01*
X0053474Y0047865D01*
X0053725Y0046392D02*
X0054225Y0046392D01*
X0054475Y0046142D01*
X0054475Y0045391D01*
X0054976Y0045391D02*
X0053474Y0045391D01*
X0053474Y0046142D01*
X0053725Y0046392D01*
X0054475Y0045892D02*
X0054976Y0046392D01*
X0047692Y0046395D02*
X0047692Y0047395D01*
X0047692Y0047868D02*
X0047692Y0048869D01*
X0047692Y0049341D02*
X0046190Y0049341D01*
X0047692Y0050342D01*
X0046190Y0050342D01*
X0046190Y0048869D02*
X0046190Y0047868D01*
X0047692Y0047868D01*
X0046941Y0047868D02*
X0046941Y0048368D01*
X0046190Y0047395D02*
X0046190Y0046395D01*
X0047692Y0046395D01*
X0047692Y0045922D02*
X0047191Y0045422D01*
X0047191Y0045672D02*
X0047191Y0044921D01*
X0047692Y0044921D02*
X0046190Y0044921D01*
X0046190Y0045672D01*
X0046441Y0045922D01*
X0046941Y0045922D01*
X0047191Y0045672D01*
X0046941Y0046395D02*
X0046941Y0046895D01*
X0046941Y0044449D02*
X0046941Y0043949D01*
X0046941Y0044449D02*
X0047442Y0044449D01*
X0047692Y0044199D01*
X0047692Y0043698D01*
X0047442Y0043448D01*
X0046441Y0043448D01*
X0046190Y0043698D01*
X0046190Y0044199D01*
X0046441Y0044449D01*
X0046941Y0042976D02*
X0046941Y0041975D01*
X0046441Y0041502D02*
X0047442Y0041502D01*
X0047692Y0041252D01*
X0047692Y0040752D01*
X0047442Y0040502D01*
X0046441Y0040502D01*
X0046190Y0040752D01*
X0046190Y0041252D01*
X0046441Y0041502D01*
X0047191Y0041002D02*
X0047692Y0041502D01*
X0048159Y0037192D02*
X0048159Y0036192D01*
X0049660Y0036192D01*
X0049660Y0037192D01*
X0048910Y0036692D02*
X0048910Y0036192D01*
X0049410Y0035719D02*
X0049660Y0035469D01*
X0049660Y0034968D01*
X0049410Y0034718D01*
X0048159Y0034718D01*
X0048159Y0033245D02*
X0049660Y0033245D01*
X0049660Y0034246D01*
X0049410Y0035719D02*
X0048159Y0035719D01*
X0048409Y0032773D02*
X0048659Y0032773D01*
X0048910Y0032522D01*
X0048910Y0031772D01*
X0048910Y0031299D02*
X0048910Y0030298D01*
X0049410Y0029826D02*
X0049660Y0029576D01*
X0049660Y0029075D01*
X0049410Y0028825D01*
X0048409Y0028825D01*
X0048159Y0029075D01*
X0048159Y0029576D01*
X0048409Y0029826D01*
X0049410Y0029826D01*
X0049660Y0029826D02*
X0049160Y0029326D01*
X0049660Y0031772D02*
X0048159Y0031772D01*
X0048159Y0032522D01*
X0048409Y0032773D01*
X0048910Y0032522D02*
X0049160Y0032773D01*
X0049410Y0032773D01*
X0049660Y0032522D01*
X0049660Y0031772D01*
X0045473Y0059550D02*
X0044472Y0059550D01*
X0044222Y0059801D01*
X0044222Y0060301D01*
X0044472Y0060551D01*
X0045473Y0060551D01*
X0045723Y0060301D01*
X0045723Y0059801D01*
X0045473Y0059550D01*
X0045223Y0060051D02*
X0045723Y0060551D01*
X0044973Y0061024D02*
X0044973Y0062025D01*
X0045223Y0062497D02*
X0045223Y0063248D01*
X0044973Y0063498D01*
X0044472Y0063498D01*
X0044222Y0063248D01*
X0044222Y0062497D01*
X0045723Y0062497D01*
X0045223Y0062997D02*
X0045723Y0063498D01*
X0045723Y0063970D02*
X0045723Y0064971D01*
X0045723Y0065443D02*
X0045723Y0066194D01*
X0045473Y0066444D01*
X0044472Y0066444D01*
X0044222Y0066194D01*
X0044222Y0065443D01*
X0045723Y0065443D01*
X0044973Y0064471D02*
X0044973Y0063970D01*
X0045723Y0063970D02*
X0044222Y0063970D01*
X0044222Y0064971D01*
X0053474Y0063599D02*
X0054225Y0062849D01*
X0054225Y0063850D01*
X0054976Y0063599D02*
X0053474Y0063599D01*
X0053725Y0062376D02*
X0054225Y0062376D01*
X0054475Y0062126D01*
X0054475Y0061375D01*
X0054976Y0061375D02*
X0053474Y0061375D01*
X0053474Y0062126D01*
X0053725Y0062376D01*
X0054475Y0061876D02*
X0054976Y0062376D01*
X0017349Y0026105D02*
X0016849Y0025855D01*
X0016348Y0025355D01*
X0017099Y0025355D01*
X0017349Y0025105D01*
X0017349Y0024854D01*
X0017099Y0024604D01*
X0016599Y0024604D01*
X0016348Y0024854D01*
X0016348Y0025355D01*
X0015876Y0025355D02*
X0015626Y0025105D01*
X0014875Y0025105D01*
X0015376Y0025105D02*
X0015876Y0024604D01*
X0015876Y0025355D02*
X0015876Y0025855D01*
X0015626Y0026105D01*
X0014875Y0026105D01*
X0014875Y0024604D01*
X0013967Y0040381D02*
X0013466Y0040381D01*
X0013216Y0040632D01*
X0012744Y0040381D02*
X0012243Y0040882D01*
X0012494Y0040882D02*
X0011743Y0040882D01*
X0011743Y0040381D02*
X0011743Y0041883D01*
X0012494Y0041883D01*
X0012744Y0041632D01*
X0012744Y0041132D01*
X0012494Y0040882D01*
X0013216Y0041632D02*
X0013466Y0041883D01*
X0013967Y0041883D01*
X0014217Y0041632D01*
X0014217Y0041382D01*
X0013967Y0041132D01*
X0014217Y0040882D01*
X0014217Y0040632D01*
X0013967Y0040381D01*
X0013967Y0041132D02*
X0013717Y0041132D01*
X0013452Y0048255D02*
X0014453Y0049256D01*
X0014453Y0049506D01*
X0014203Y0049757D01*
X0013703Y0049757D01*
X0013452Y0049506D01*
X0012980Y0049506D02*
X0012730Y0049757D01*
X0011979Y0049757D01*
X0011979Y0048255D01*
X0011979Y0048756D02*
X0012730Y0048756D01*
X0012980Y0049006D01*
X0012980Y0049506D01*
X0012480Y0048756D02*
X0012980Y0048255D01*
X0013452Y0048255D02*
X0014453Y0048255D01*
X0014689Y0056129D02*
X0013689Y0056129D01*
X0013216Y0056129D02*
X0012716Y0056630D01*
X0012966Y0056630D02*
X0012215Y0056630D01*
X0012215Y0056129D02*
X0012215Y0057631D01*
X0012966Y0057631D01*
X0013216Y0057380D01*
X0013216Y0056880D01*
X0012966Y0056630D01*
X0013689Y0057130D02*
X0014189Y0057631D01*
X0014189Y0056129D01*
X0013941Y0070893D02*
X0012941Y0070893D01*
X0013441Y0070893D02*
X0013441Y0072394D01*
X0012941Y0071894D01*
X0012468Y0072144D02*
X0012218Y0072394D01*
X0011718Y0072394D01*
X0011467Y0072144D01*
X0011467Y0071143D01*
X0011718Y0070893D01*
X0012218Y0070893D01*
X0012468Y0071143D01*
D13*
X0028987Y0071764D02*
X0029754Y0070997D01*
X0030521Y0070997D01*
X0031288Y0071764D01*
X0031288Y0075601D01*
X0031273Y0076142D02*
X0031273Y0079979D01*
X0032040Y0079979D02*
X0030505Y0079979D01*
X0033575Y0077677D02*
X0036644Y0077677D01*
X0038179Y0076142D02*
X0038946Y0075375D01*
X0040481Y0075375D01*
X0041248Y0076142D01*
X0041248Y0077677D01*
X0039713Y0077677D01*
X0038179Y0079212D02*
X0038179Y0076142D01*
X0038962Y0075601D02*
X0038194Y0074834D01*
X0038194Y0071764D01*
X0038962Y0070997D01*
X0040496Y0070997D01*
X0041264Y0071764D01*
X0041264Y0073299D01*
X0039729Y0073299D01*
X0041264Y0074834D02*
X0040496Y0075601D01*
X0038962Y0075601D01*
X0036660Y0073299D02*
X0033590Y0073299D01*
X0032052Y0071223D02*
X0030517Y0071223D01*
X0031285Y0071223D02*
X0031285Y0067386D01*
X0030517Y0066619D01*
X0029750Y0066619D01*
X0028983Y0067386D01*
X0033587Y0068921D02*
X0036656Y0068921D01*
X0038191Y0067386D02*
X0038958Y0066619D01*
X0040492Y0066619D01*
X0041260Y0067386D01*
X0041260Y0068921D01*
X0039725Y0068921D01*
X0038191Y0070456D02*
X0038191Y0067386D01*
X0036087Y0065266D02*
X0034553Y0065266D01*
X0035320Y0065266D02*
X0035320Y0061430D01*
X0034553Y0060662D01*
X0033785Y0060662D01*
X0033018Y0061430D01*
X0037622Y0062964D02*
X0040691Y0062964D01*
X0042226Y0063732D02*
X0042993Y0062964D01*
X0044528Y0062964D01*
X0045295Y0062197D01*
X0045295Y0061430D01*
X0044528Y0060662D01*
X0042993Y0060662D01*
X0042226Y0061430D01*
X0042226Y0063732D02*
X0042226Y0064499D01*
X0042993Y0065266D01*
X0044528Y0065266D01*
X0045295Y0064499D01*
X0046830Y0062964D02*
X0049899Y0062964D01*
X0051434Y0062197D02*
X0053736Y0062197D01*
X0054503Y0062964D01*
X0054503Y0064499D01*
X0053736Y0065266D01*
X0051434Y0065266D01*
X0051434Y0060662D01*
X0052968Y0062197D02*
X0054503Y0060662D01*
X0056038Y0060662D02*
X0059107Y0060662D01*
X0060642Y0060662D02*
X0062944Y0060662D01*
X0063711Y0061430D01*
X0063711Y0064499D01*
X0062944Y0065266D01*
X0060642Y0065266D01*
X0060642Y0060662D01*
X0057572Y0062964D02*
X0056038Y0062964D01*
X0056038Y0065266D02*
X0056038Y0060662D01*
X0056038Y0065266D02*
X0059107Y0065266D01*
X0058908Y0066619D02*
X0056606Y0066619D01*
X0056606Y0071223D01*
X0058908Y0071223D01*
X0059676Y0070456D01*
X0059676Y0069688D01*
X0058908Y0068921D01*
X0056606Y0068921D01*
X0055072Y0068921D02*
X0052002Y0068921D01*
X0050468Y0067386D02*
X0050468Y0070456D01*
X0049700Y0071223D01*
X0047398Y0071223D01*
X0047398Y0066619D01*
X0049700Y0066619D01*
X0050468Y0067386D01*
X0049704Y0070997D02*
X0047402Y0070997D01*
X0047402Y0075601D01*
X0049704Y0075601D01*
X0050472Y0074834D01*
X0050472Y0071764D01*
X0049704Y0070997D01*
X0052006Y0073299D02*
X0055075Y0073299D01*
X0056610Y0071764D02*
X0057377Y0070997D01*
X0058912Y0070997D01*
X0059679Y0071764D01*
X0059679Y0073299D01*
X0058145Y0073299D01*
X0059679Y0074834D02*
X0058912Y0075601D01*
X0057377Y0075601D01*
X0056610Y0074834D01*
X0056610Y0071764D01*
X0058908Y0068921D02*
X0059676Y0068154D01*
X0059676Y0067386D01*
X0058908Y0066619D01*
X0061210Y0066619D02*
X0064279Y0066619D01*
X0065814Y0067386D02*
X0066581Y0066619D01*
X0068116Y0066619D01*
X0068883Y0067386D01*
X0068883Y0071223D01*
X0068887Y0070997D02*
X0065818Y0070997D01*
X0065818Y0075601D01*
X0068887Y0075601D01*
X0068871Y0076142D02*
X0068871Y0079212D01*
X0068104Y0079979D01*
X0065802Y0079979D01*
X0065802Y0075375D01*
X0068104Y0075375D01*
X0068871Y0076142D01*
X0070422Y0075601D02*
X0070422Y0070997D01*
X0073491Y0070997D01*
X0073487Y0071223D02*
X0070418Y0071223D01*
X0070418Y0066619D01*
X0073487Y0066619D01*
X0071953Y0068921D02*
X0070418Y0068921D01*
X0070422Y0073299D02*
X0071956Y0073299D01*
X0073491Y0075601D02*
X0070422Y0075601D01*
X0067353Y0073299D02*
X0065818Y0073299D01*
X0064283Y0073299D02*
X0064283Y0074834D01*
X0063516Y0075601D01*
X0061214Y0075601D01*
X0061214Y0070997D01*
X0061210Y0071223D02*
X0061210Y0066619D01*
X0064283Y0070997D02*
X0062749Y0072532D01*
X0063516Y0072532D02*
X0061214Y0072532D01*
X0063516Y0072532D02*
X0064283Y0073299D01*
X0064268Y0075375D02*
X0061198Y0075375D01*
X0061198Y0079979D01*
X0064268Y0079979D01*
X0062733Y0077677D02*
X0061198Y0077677D01*
X0059664Y0077677D02*
X0059664Y0079212D01*
X0058896Y0079979D01*
X0056594Y0079979D01*
X0056594Y0075375D01*
X0056594Y0076910D02*
X0058896Y0076910D01*
X0059664Y0077677D01*
X0058129Y0076910D02*
X0059664Y0075375D01*
X0055060Y0077677D02*
X0051990Y0077677D01*
X0050456Y0076142D02*
X0050456Y0079212D01*
X0049688Y0079979D01*
X0047387Y0079979D01*
X0047387Y0075375D01*
X0049688Y0075375D01*
X0050456Y0076142D01*
X0045868Y0075601D02*
X0045868Y0070997D01*
X0042798Y0075601D01*
X0042798Y0070997D01*
X0042794Y0071223D02*
X0045864Y0066619D01*
X0045864Y0071223D01*
X0042794Y0071223D02*
X0042794Y0066619D01*
X0041260Y0070456D02*
X0040492Y0071223D01*
X0038958Y0071223D01*
X0038191Y0070456D01*
X0042783Y0075375D02*
X0042783Y0079979D01*
X0045852Y0075375D01*
X0045852Y0079979D01*
X0041248Y0079212D02*
X0040481Y0079979D01*
X0038946Y0079979D01*
X0038179Y0079212D01*
X0032056Y0075601D02*
X0030521Y0075601D01*
X0030505Y0075375D02*
X0029738Y0075375D01*
X0028971Y0076142D01*
X0030505Y0075375D02*
X0031273Y0076142D01*
X0034907Y0055424D02*
X0036442Y0055424D01*
X0035674Y0055424D02*
X0035674Y0051587D01*
X0034907Y0050820D01*
X0034140Y0050820D01*
X0033372Y0051587D01*
X0037976Y0053122D02*
X0041046Y0053122D01*
X0042580Y0053889D02*
X0043348Y0053122D01*
X0044882Y0053122D01*
X0045650Y0052355D01*
X0045650Y0051587D01*
X0044882Y0050820D01*
X0043348Y0050820D01*
X0042580Y0051587D01*
X0042580Y0053889D02*
X0042580Y0054657D01*
X0043348Y0055424D01*
X0044882Y0055424D01*
X0045650Y0054657D01*
X0047184Y0053122D02*
X0050253Y0053122D01*
X0051788Y0054657D02*
X0051788Y0051587D01*
X0052555Y0050820D01*
X0054090Y0050820D01*
X0054857Y0051587D01*
X0054857Y0053122D01*
X0053323Y0053122D01*
X0051788Y0054657D02*
X0052555Y0055424D01*
X0054090Y0055424D01*
X0054857Y0054657D01*
X0056392Y0055424D02*
X0058694Y0055424D01*
X0059461Y0054657D01*
X0059461Y0053122D01*
X0058694Y0052355D01*
X0056392Y0052355D01*
X0057927Y0052355D02*
X0059461Y0050820D01*
X0060996Y0050820D02*
X0064065Y0050820D01*
X0065600Y0050820D02*
X0068669Y0050820D01*
X0070204Y0050820D02*
X0070204Y0055424D01*
X0073273Y0050820D01*
X0073273Y0055424D01*
X0068669Y0055424D02*
X0065600Y0055424D01*
X0065600Y0050820D01*
X0065600Y0053122D02*
X0067135Y0053122D01*
X0064065Y0055424D02*
X0060996Y0055424D01*
X0060996Y0050820D01*
X0060996Y0053122D02*
X0062531Y0053122D01*
X0056392Y0050820D02*
X0056392Y0055424D01*
X0056746Y0045581D02*
X0056746Y0040977D01*
X0059816Y0040977D01*
X0061350Y0041745D02*
X0062118Y0040977D01*
X0063652Y0040977D01*
X0064420Y0041745D01*
X0064420Y0045581D01*
X0065954Y0045581D02*
X0065954Y0040977D01*
X0069024Y0040977D01*
X0067489Y0043279D02*
X0065954Y0043279D01*
X0065954Y0045581D02*
X0069024Y0045581D01*
X0061350Y0045581D02*
X0061350Y0041745D01*
X0055212Y0041745D02*
X0054444Y0040977D01*
X0052142Y0040977D01*
X0052142Y0045581D01*
X0054444Y0045581D01*
X0055212Y0044814D01*
X0055212Y0044047D01*
X0054444Y0043279D01*
X0052142Y0043279D01*
X0050608Y0043279D02*
X0047539Y0043279D01*
X0046004Y0042512D02*
X0046004Y0041745D01*
X0045237Y0040977D01*
X0043702Y0040977D01*
X0042935Y0041745D01*
X0043702Y0043279D02*
X0045237Y0043279D01*
X0046004Y0042512D01*
X0046004Y0044814D02*
X0045237Y0045581D01*
X0043702Y0045581D01*
X0042935Y0044814D01*
X0042935Y0044047D01*
X0043702Y0043279D01*
X0041400Y0043279D02*
X0038331Y0043279D01*
X0036029Y0041745D02*
X0036029Y0045581D01*
X0036796Y0045581D02*
X0035261Y0045581D01*
X0036029Y0041745D02*
X0035261Y0040977D01*
X0034494Y0040977D01*
X0033727Y0041745D01*
X0054444Y0043279D02*
X0055212Y0042512D01*
X0055212Y0041745D01*
X0065814Y0067386D02*
X0065814Y0071223D01*
X0075026Y0070997D02*
X0075026Y0075601D01*
X0078095Y0070997D01*
X0078095Y0075601D01*
D14*
X0043866Y0039877D02*
X0040717Y0039877D01*
X0041898Y0042003D02*
X0038748Y0042003D01*
X0041898Y0042003D02*
X0041898Y0044365D01*
X0043866Y0039877D02*
X0043866Y0037514D01*
X0043866Y0031215D02*
X0043866Y0028853D01*
X0040717Y0028853D01*
X0041898Y0050664D02*
X0041898Y0053026D01*
X0038748Y0053026D01*
X0039929Y0058105D02*
X0036780Y0058105D01*
X0039929Y0058105D02*
X0039929Y0060467D01*
X0039929Y0066766D02*
X0039929Y0069129D01*
X0036780Y0069129D01*
M02*
