G75*
%MOIN*%
%OFA0B0*%
%FSLAX25Y25*%
%IPPOS*%
%LPD*%
%AMOC8*
5,1,8,0,0,1.08239X$1,22.5*
%
%ADD10R,0.03950X0.05524*%
%ADD11R,0.05162X0.05162*%
%ADD12R,0.04343X0.03950*%
%ADD13R,0.05524X0.03950*%
%ADD14R,0.04769X0.04769*%
%ADD15R,0.03300X0.05800*%
%ADD16R,0.06400X0.03600*%
%ADD17C,0.04400*%
D10*
X0011228Y0029404D03*
X0018315Y0029404D03*
X0018236Y0037081D03*
X0011150Y0037081D03*
X0011386Y0044955D03*
X0018472Y0044955D03*
X0018709Y0052829D03*
X0011622Y0052829D03*
X0010874Y0067593D03*
X0017961Y0067593D03*
D11*
X0024071Y0067975D03*
X0024087Y0063597D03*
X0024083Y0059219D03*
X0028118Y0053262D03*
X0028472Y0043420D03*
X0028827Y0033577D03*
D12*
X0037173Y0030625D03*
X0037173Y0038105D03*
X0035205Y0043774D03*
X0035205Y0051255D03*
X0043472Y0047514D03*
X0033236Y0059877D03*
X0033236Y0067357D03*
X0041504Y0063617D03*
X0045441Y0034365D03*
D13*
X0058276Y0044798D03*
X0058276Y0051884D03*
X0058276Y0060782D03*
X0058276Y0067869D03*
D14*
X0005996Y0028800D03*
X0005996Y0036700D03*
X0005996Y0044500D03*
X0005996Y0052400D03*
X0005996Y0060300D03*
X0005996Y0067800D03*
X0063896Y0067800D03*
X0063896Y0060300D03*
X0063896Y0052400D03*
X0063896Y0044500D03*
X0063896Y0036700D03*
X0063896Y0028800D03*
D15*
X0052045Y0029877D03*
X0048295Y0029877D03*
X0048295Y0044640D03*
X0052045Y0044640D03*
X0052045Y0060388D03*
X0048295Y0060388D03*
D16*
X0016346Y0060310D03*
D17*
X0023236Y0051451D03*
X0043906Y0055388D03*
M02*
