G75*
%MOIN*%
%OFA0B0*%
%FSLAX25Y25*%
%IPPOS*%
%LPD*%
%AMOC8*
5,1,8,0,0,1.08239X$1,22.5*
%
%ADD10R,0.03150X0.04724*%
%ADD11R,0.04362X0.04362*%
%ADD12R,0.03543X0.03150*%
%ADD13R,0.04724X0.03150*%
%ADD14R,0.03969X0.03969*%
%ADD15R,0.02500X0.05000*%
%ADD16R,0.05600X0.02800*%
%ADD17C,0.01000*%
%ADD18C,0.03600*%
D10*
X0011228Y0029404D03*
X0018315Y0029404D03*
X0018236Y0037081D03*
X0011150Y0037081D03*
X0011386Y0044955D03*
X0018472Y0044955D03*
X0018709Y0052829D03*
X0011622Y0052829D03*
X0010874Y0067593D03*
X0017961Y0067593D03*
D11*
X0024071Y0067975D03*
X0024087Y0063597D03*
X0024083Y0059219D03*
X0028118Y0053262D03*
X0028472Y0043420D03*
X0028827Y0033577D03*
D12*
X0037173Y0030625D03*
X0037173Y0038105D03*
X0035205Y0043774D03*
X0035205Y0051255D03*
X0043472Y0047514D03*
X0033236Y0059877D03*
X0033236Y0067357D03*
X0041504Y0063617D03*
X0045441Y0034365D03*
D13*
X0058276Y0044798D03*
X0058276Y0051884D03*
X0058276Y0060782D03*
X0058276Y0067869D03*
D14*
X0063896Y0067800D03*
X0063896Y0060300D03*
X0063896Y0052400D03*
X0063896Y0044500D03*
X0063896Y0036700D03*
X0063896Y0028800D03*
X0005996Y0028800D03*
X0005996Y0036700D03*
X0005996Y0044500D03*
X0005996Y0052400D03*
X0005996Y0060300D03*
X0005996Y0067800D03*
D15*
X0048295Y0060388D03*
X0052045Y0060388D03*
X0052045Y0044640D03*
X0048295Y0044640D03*
X0048295Y0029877D03*
X0052045Y0029877D03*
D16*
X0016346Y0060310D03*
D17*
X0013703Y0032139D02*
X0013703Y0026892D01*
X0015840Y0026892D01*
X0015840Y0029309D01*
X0014782Y0030366D01*
X0013962Y0031186D01*
X0013962Y0049960D01*
X0013570Y0049567D01*
X0009674Y0049567D01*
X0009147Y0050094D01*
X0009147Y0051000D01*
X0008880Y0051000D01*
X0008880Y0050043D01*
X0008353Y0049516D01*
X0006551Y0049516D01*
X0006551Y0047384D01*
X0008353Y0047384D01*
X0008880Y0046857D01*
X0008880Y0045900D01*
X0008911Y0045900D01*
X0008911Y0047690D01*
X0009438Y0048218D01*
X0013333Y0048218D01*
X0013861Y0047690D01*
X0013861Y0042220D01*
X0013333Y0041693D01*
X0009438Y0041693D01*
X0008911Y0042220D01*
X0008911Y0043100D01*
X0008880Y0043100D01*
X0008880Y0042143D01*
X0008353Y0041616D01*
X0006551Y0041616D01*
X0006551Y0039584D01*
X0008353Y0039584D01*
X0008675Y0039263D01*
X0008675Y0039816D01*
X0009202Y0040344D01*
X0013097Y0040344D01*
X0013624Y0039816D01*
X0013624Y0034346D01*
X0013097Y0033819D01*
X0009202Y0033819D01*
X0008779Y0034242D01*
X0008353Y0033816D01*
X0006551Y0033816D01*
X0006551Y0031684D01*
X0008353Y0031684D01*
X0008754Y0031284D01*
X0008754Y0032139D01*
X0009281Y0032666D01*
X0013176Y0032666D01*
X0013703Y0032139D01*
X0013703Y0031622D02*
X0013962Y0031622D01*
X0013962Y0032621D02*
X0013221Y0032621D01*
X0013962Y0033619D02*
X0006551Y0033619D01*
X0006551Y0032621D02*
X0009235Y0032621D01*
X0008754Y0031622D02*
X0008415Y0031622D01*
X0011228Y0029404D02*
X0011228Y0028800D01*
X0005996Y0028800D01*
X0013703Y0028627D02*
X0015840Y0028627D01*
X0015840Y0027628D02*
X0013703Y0027628D01*
X0013703Y0029625D02*
X0015523Y0029625D01*
X0014525Y0030624D02*
X0013703Y0030624D01*
X0015362Y0031766D02*
X0015362Y0059325D01*
X0016346Y0060310D01*
X0015362Y0061294D01*
X0015362Y0063262D01*
X0011425Y0067199D01*
X0010874Y0067593D01*
X0010874Y0067800D01*
X0005996Y0067800D01*
X0006551Y0064916D02*
X0008353Y0064916D01*
X0008399Y0064962D01*
X0008399Y0064858D01*
X0008926Y0064331D01*
X0012314Y0064331D01*
X0013962Y0062683D01*
X0013962Y0062610D01*
X0013174Y0062610D01*
X0012646Y0062082D01*
X0012646Y0058537D01*
X0013174Y0058010D01*
X0013962Y0058010D01*
X0013962Y0055699D01*
X0013570Y0056092D01*
X0009674Y0056092D01*
X0009147Y0055564D01*
X0009147Y0053800D01*
X0008880Y0053800D01*
X0008880Y0054757D01*
X0008353Y0055284D01*
X0006551Y0055284D01*
X0006551Y0057416D01*
X0008353Y0057416D01*
X0008880Y0057943D01*
X0008880Y0062657D01*
X0008353Y0063184D01*
X0006551Y0063184D01*
X0006551Y0064916D01*
X0006551Y0064573D02*
X0008684Y0064573D01*
X0008880Y0062576D02*
X0013140Y0062576D01*
X0013070Y0063575D02*
X0006551Y0063575D01*
X0008880Y0061578D02*
X0012646Y0061578D01*
X0012646Y0060579D02*
X0008880Y0060579D01*
X0008880Y0059581D02*
X0012646Y0059581D01*
X0012646Y0058582D02*
X0008880Y0058582D01*
X0008521Y0057584D02*
X0013962Y0057584D01*
X0013962Y0056585D02*
X0006551Y0056585D01*
X0006551Y0055587D02*
X0009170Y0055587D01*
X0009147Y0054588D02*
X0008880Y0054588D01*
X0011193Y0052400D02*
X0005996Y0052400D01*
X0008880Y0050594D02*
X0009147Y0050594D01*
X0009646Y0049596D02*
X0008433Y0049596D01*
X0008911Y0047599D02*
X0006551Y0047599D01*
X0006551Y0048597D02*
X0013962Y0048597D01*
X0013962Y0047599D02*
X0013861Y0047599D01*
X0013861Y0046600D02*
X0013962Y0046600D01*
X0013962Y0045602D02*
X0013861Y0045602D01*
X0013861Y0044603D02*
X0013962Y0044603D01*
X0013962Y0043604D02*
X0013861Y0043604D01*
X0013861Y0042606D02*
X0013962Y0042606D01*
X0013962Y0041607D02*
X0006551Y0041607D01*
X0006551Y0040609D02*
X0013962Y0040609D01*
X0013962Y0039610D02*
X0013624Y0039610D01*
X0013624Y0038612D02*
X0013962Y0038612D01*
X0013962Y0037613D02*
X0013624Y0037613D01*
X0013624Y0036615D02*
X0013962Y0036615D01*
X0013962Y0035616D02*
X0013624Y0035616D01*
X0013624Y0034618D02*
X0013962Y0034618D01*
X0016762Y0033819D02*
X0016762Y0032666D01*
X0020263Y0032666D01*
X0020790Y0032139D01*
X0020790Y0029229D01*
X0034502Y0029229D01*
X0034502Y0030366D01*
X0030530Y0030366D01*
X0030400Y0030496D01*
X0026273Y0030496D01*
X0025746Y0031023D01*
X0025746Y0036131D01*
X0025886Y0036272D01*
X0020711Y0036272D01*
X0020711Y0034346D01*
X0020184Y0033819D01*
X0016762Y0033819D01*
X0016762Y0033619D02*
X0025746Y0033619D01*
X0025746Y0032621D02*
X0020308Y0032621D01*
X0020790Y0031622D02*
X0025746Y0031622D01*
X0026145Y0030624D02*
X0020790Y0030624D01*
X0020790Y0029625D02*
X0034502Y0029625D01*
X0037173Y0030625D02*
X0037016Y0031766D01*
X0031110Y0031766D01*
X0031110Y0033735D01*
X0028827Y0033577D01*
X0031908Y0034917D02*
X0031908Y0036131D01*
X0031767Y0036272D01*
X0034502Y0036272D01*
X0034502Y0036157D01*
X0035029Y0035630D01*
X0039318Y0035630D01*
X0039553Y0035865D01*
X0039553Y0032864D01*
X0039318Y0033099D01*
X0037663Y0033099D01*
X0037596Y0033166D01*
X0037486Y0033166D01*
X0037399Y0033232D01*
X0036920Y0033166D01*
X0032510Y0033166D01*
X0032510Y0033211D01*
X0032547Y0033253D01*
X0032510Y0033783D01*
X0032510Y0034315D01*
X0032471Y0034354D01*
X0032467Y0034410D01*
X0032066Y0034759D01*
X0031908Y0034917D01*
X0032228Y0034618D02*
X0039553Y0034618D01*
X0039553Y0035616D02*
X0031908Y0035616D01*
X0032522Y0033619D02*
X0039553Y0033619D01*
X0042353Y0033619D02*
X0042769Y0033619D01*
X0042769Y0032621D02*
X0042353Y0032621D01*
X0042769Y0032417D02*
X0043296Y0031890D01*
X0046145Y0031890D01*
X0046145Y0027004D01*
X0046257Y0026892D01*
X0041996Y0026892D01*
X0042353Y0027249D01*
X0042353Y0040220D01*
X0041533Y0041040D01*
X0040384Y0042189D01*
X0040384Y0050051D01*
X0055013Y0050051D01*
X0055013Y0049937D01*
X0055541Y0049410D01*
X0061011Y0049410D01*
X0061328Y0049727D01*
X0061539Y0049516D01*
X0063071Y0049516D01*
X0063028Y0047384D01*
X0061539Y0047384D01*
X0061219Y0047064D01*
X0061011Y0047273D01*
X0055541Y0047273D01*
X0055013Y0046745D01*
X0055013Y0042850D01*
X0055541Y0042323D01*
X0061011Y0042323D01*
X0061012Y0042324D01*
X0061012Y0042143D01*
X0061539Y0041616D01*
X0062913Y0041616D01*
X0062872Y0039584D01*
X0061539Y0039584D01*
X0061012Y0039057D01*
X0061012Y0034343D01*
X0061539Y0033816D01*
X0062757Y0033816D01*
X0062714Y0031684D01*
X0061539Y0031684D01*
X0061012Y0031157D01*
X0061012Y0026892D01*
X0054084Y0026892D01*
X0054195Y0027004D01*
X0054195Y0030009D01*
X0054219Y0030222D01*
X0054195Y0030251D01*
X0054195Y0032749D01*
X0053668Y0033277D01*
X0050422Y0033277D01*
X0050170Y0033024D01*
X0049918Y0033277D01*
X0049296Y0033277D01*
X0048113Y0034460D01*
X0048113Y0036312D01*
X0047585Y0036840D01*
X0043296Y0036840D01*
X0042769Y0036312D01*
X0042769Y0032417D01*
X0042353Y0031622D02*
X0046145Y0031622D01*
X0046145Y0030624D02*
X0042353Y0030624D01*
X0042353Y0029625D02*
X0046145Y0029625D01*
X0046145Y0028627D02*
X0042353Y0028627D01*
X0042353Y0027628D02*
X0046145Y0027628D01*
X0048295Y0029877D02*
X0048827Y0029798D01*
X0052764Y0029798D01*
X0052045Y0029877D01*
X0054195Y0029625D02*
X0061012Y0029625D01*
X0061012Y0028627D02*
X0054195Y0028627D01*
X0054195Y0027628D02*
X0061012Y0027628D01*
X0061012Y0030624D02*
X0054195Y0030624D01*
X0054195Y0031622D02*
X0061477Y0031622D01*
X0062733Y0032621D02*
X0054195Y0032621D01*
X0048954Y0033619D02*
X0062753Y0033619D01*
X0061012Y0034618D02*
X0048113Y0034618D01*
X0048113Y0035616D02*
X0061012Y0035616D01*
X0061012Y0036615D02*
X0047810Y0036615D01*
X0046858Y0033735D02*
X0045441Y0034365D01*
X0046858Y0033735D02*
X0048827Y0031766D01*
X0048295Y0029877D01*
X0042769Y0034618D02*
X0042353Y0034618D01*
X0042353Y0035616D02*
X0042769Y0035616D01*
X0043072Y0036615D02*
X0042353Y0036615D01*
X0042353Y0037613D02*
X0061012Y0037613D01*
X0061012Y0038612D02*
X0042353Y0038612D01*
X0042353Y0039610D02*
X0062873Y0039610D01*
X0062893Y0040609D02*
X0041964Y0040609D01*
X0040953Y0039640D02*
X0040953Y0027829D01*
X0019299Y0027829D01*
X0018315Y0029404D01*
X0017331Y0029798D01*
X0015362Y0031766D01*
X0018236Y0037081D02*
X0019299Y0037672D01*
X0037016Y0037672D01*
X0037173Y0038105D01*
X0038034Y0040580D02*
X0035029Y0040580D01*
X0034502Y0040053D01*
X0034502Y0039072D01*
X0020711Y0039072D01*
X0020711Y0039816D01*
X0020184Y0040344D01*
X0016762Y0040344D01*
X0016762Y0041693D01*
X0020420Y0041693D01*
X0020947Y0042220D01*
X0020947Y0046114D01*
X0025532Y0046114D01*
X0025391Y0045974D01*
X0025391Y0040866D01*
X0025919Y0040339D01*
X0031026Y0040339D01*
X0031554Y0040866D01*
X0031554Y0042177D01*
X0032533Y0042177D01*
X0032533Y0041827D01*
X0033060Y0041299D01*
X0037349Y0041299D01*
X0037584Y0041535D01*
X0037584Y0041029D01*
X0038034Y0040580D01*
X0038004Y0040609D02*
X0031296Y0040609D01*
X0031554Y0041607D02*
X0032752Y0041607D01*
X0034502Y0039610D02*
X0020711Y0039610D01*
X0020947Y0042606D02*
X0025391Y0042606D01*
X0025391Y0043604D02*
X0020947Y0043604D01*
X0020947Y0044603D02*
X0025391Y0044603D01*
X0025391Y0045602D02*
X0020947Y0045602D01*
X0019299Y0045546D02*
X0019299Y0047514D01*
X0031110Y0047514D01*
X0035047Y0051451D01*
X0035205Y0051255D01*
X0034355Y0048780D02*
X0037349Y0048780D01*
X0037584Y0049015D01*
X0037584Y0046014D01*
X0037349Y0046249D01*
X0033060Y0046249D01*
X0032533Y0045722D01*
X0032533Y0044977D01*
X0031554Y0044977D01*
X0031554Y0045974D01*
X0031413Y0046114D01*
X0031690Y0046114D01*
X0032510Y0046934D01*
X0034355Y0048780D01*
X0034173Y0048597D02*
X0037584Y0048597D01*
X0037584Y0047599D02*
X0033174Y0047599D01*
X0032176Y0046600D02*
X0037584Y0046600D01*
X0040384Y0046600D02*
X0040801Y0046600D01*
X0040801Y0045602D02*
X0040384Y0045602D01*
X0040801Y0045567D02*
X0041328Y0045040D01*
X0045385Y0045040D01*
X0046145Y0044279D01*
X0046145Y0041768D01*
X0046672Y0041240D01*
X0049918Y0041240D01*
X0050170Y0041493D01*
X0050422Y0041240D01*
X0053668Y0041240D01*
X0054195Y0041768D01*
X0054195Y0045098D01*
X0054221Y0045130D01*
X0054195Y0045353D01*
X0054195Y0047513D01*
X0053668Y0048040D01*
X0050422Y0048040D01*
X0050170Y0047788D01*
X0049918Y0048040D01*
X0046672Y0048040D01*
X0046508Y0047876D01*
X0046290Y0048094D01*
X0046144Y0048240D01*
X0046144Y0049462D01*
X0045617Y0049989D01*
X0041328Y0049989D01*
X0040801Y0049462D01*
X0040801Y0045567D01*
X0040384Y0044603D02*
X0045821Y0044603D01*
X0046145Y0043604D02*
X0040384Y0043604D01*
X0040384Y0042606D02*
X0046145Y0042606D01*
X0046305Y0041607D02*
X0040966Y0041607D01*
X0040953Y0039640D02*
X0038984Y0041609D01*
X0038984Y0051451D01*
X0056701Y0051451D01*
X0058276Y0051884D01*
X0058669Y0053420D01*
X0062606Y0053420D01*
X0063896Y0052400D01*
X0063186Y0055284D02*
X0061539Y0055284D01*
X0061074Y0054820D01*
X0058846Y0054820D01*
X0058455Y0054920D01*
X0058286Y0054820D01*
X0058089Y0054820D01*
X0057804Y0054535D01*
X0057508Y0054359D01*
X0055541Y0054359D01*
X0055013Y0053832D01*
X0055013Y0052851D01*
X0044836Y0052851D01*
X0045435Y0053099D01*
X0046194Y0053859D01*
X0046605Y0054851D01*
X0046605Y0055925D01*
X0046194Y0056918D01*
X0045435Y0057677D01*
X0044443Y0058088D01*
X0043368Y0058088D01*
X0042376Y0057677D01*
X0041617Y0056918D01*
X0041563Y0056788D01*
X0040548Y0056788D01*
X0038416Y0058921D01*
X0038416Y0063842D01*
X0037596Y0064662D01*
X0037596Y0064662D01*
X0035908Y0066350D01*
X0035908Y0069305D01*
X0035381Y0069832D01*
X0031092Y0069832D01*
X0030565Y0069305D01*
X0030565Y0065409D01*
X0031092Y0064882D01*
X0033416Y0064882D01*
X0035616Y0062683D01*
X0035616Y0062116D01*
X0035381Y0062351D01*
X0031092Y0062351D01*
X0030565Y0061824D01*
X0030565Y0058791D01*
X0028562Y0056788D01*
X0028117Y0056344D01*
X0027595Y0056344D01*
X0027662Y0056459D01*
X0027764Y0056841D01*
X0027764Y0059129D01*
X0024173Y0059129D01*
X0024173Y0059310D01*
X0023992Y0059310D01*
X0023992Y0059916D01*
X0023996Y0059916D01*
X0023996Y0063506D01*
X0024177Y0063506D01*
X0024177Y0062900D01*
X0024173Y0062900D01*
X0024173Y0059310D01*
X0027764Y0059310D01*
X0027764Y0061204D01*
X0027768Y0061218D01*
X0027768Y0063507D01*
X0024177Y0063507D01*
X0024177Y0063688D01*
X0023996Y0063688D01*
X0023996Y0067278D01*
X0023980Y0067278D01*
X0023980Y0067884D01*
X0024161Y0067884D01*
X0024161Y0064294D01*
X0024177Y0064294D01*
X0024177Y0063688D01*
X0027768Y0063688D01*
X0027768Y0065976D01*
X0027752Y0066034D01*
X0027752Y0067884D01*
X0024161Y0067884D01*
X0024161Y0068066D01*
X0027752Y0068066D01*
X0027752Y0070105D01*
X0054563Y0070105D01*
X0054516Y0070023D01*
X0054413Y0069641D01*
X0054413Y0068156D01*
X0057988Y0068156D01*
X0057988Y0067581D01*
X0058563Y0067581D01*
X0058563Y0064794D01*
X0060813Y0064794D01*
X0060991Y0064616D01*
X0061333Y0064418D01*
X0061714Y0064316D01*
X0063367Y0064316D01*
X0063344Y0063184D01*
X0061539Y0063184D01*
X0061311Y0062956D01*
X0061011Y0063257D01*
X0055541Y0063257D01*
X0055013Y0062730D01*
X0055013Y0058835D01*
X0055541Y0058307D01*
X0061011Y0058307D01*
X0061012Y0058309D01*
X0061012Y0057943D01*
X0061539Y0057416D01*
X0063229Y0057416D01*
X0063186Y0055284D01*
X0063192Y0055587D02*
X0046605Y0055587D01*
X0046332Y0056585D02*
X0063212Y0056585D01*
X0061371Y0057584D02*
X0054195Y0057584D01*
X0054195Y0057516D02*
X0054195Y0060846D01*
X0054221Y0060878D01*
X0054195Y0061101D01*
X0054195Y0063261D01*
X0053668Y0063788D01*
X0050422Y0063788D01*
X0050227Y0063593D01*
X0050227Y0063842D01*
X0049407Y0064662D01*
X0044176Y0064662D01*
X0044176Y0065564D01*
X0043648Y0066092D01*
X0039359Y0066092D01*
X0038832Y0065564D01*
X0038832Y0061669D01*
X0039359Y0061142D01*
X0043648Y0061142D01*
X0044176Y0061669D01*
X0044176Y0061862D01*
X0046145Y0061862D01*
X0046145Y0057516D01*
X0046672Y0056988D01*
X0049918Y0056988D01*
X0050170Y0057241D01*
X0050422Y0056988D01*
X0053668Y0056988D01*
X0054195Y0057516D01*
X0054195Y0058582D02*
X0055266Y0058582D01*
X0055013Y0059581D02*
X0054195Y0059581D01*
X0054195Y0060579D02*
X0055013Y0060579D01*
X0055013Y0061578D02*
X0054195Y0061578D01*
X0054195Y0062576D02*
X0055013Y0062576D01*
X0053882Y0063575D02*
X0063352Y0063575D01*
X0062606Y0061294D02*
X0063896Y0060300D01*
X0062606Y0061294D02*
X0058669Y0061294D01*
X0058276Y0060782D01*
X0061064Y0064573D02*
X0049496Y0064573D01*
X0048827Y0063262D02*
X0048827Y0061294D01*
X0048295Y0060388D01*
X0048827Y0061294D02*
X0052764Y0061294D01*
X0052045Y0060388D01*
X0048827Y0063262D02*
X0042921Y0063262D01*
X0041504Y0063617D01*
X0038832Y0063575D02*
X0038416Y0063575D01*
X0038416Y0062576D02*
X0038832Y0062576D01*
X0038924Y0061578D02*
X0038416Y0061578D01*
X0038416Y0060579D02*
X0046145Y0060579D01*
X0046145Y0061578D02*
X0044084Y0061578D01*
X0046145Y0059581D02*
X0038416Y0059581D01*
X0038755Y0058582D02*
X0046145Y0058582D01*
X0046145Y0057584D02*
X0045529Y0057584D01*
X0043906Y0055388D02*
X0039969Y0055388D01*
X0037016Y0058341D01*
X0037016Y0063262D01*
X0033079Y0067199D01*
X0033236Y0067357D01*
X0030565Y0067569D02*
X0027752Y0067569D01*
X0027752Y0068567D02*
X0030565Y0068567D01*
X0030826Y0069566D02*
X0027752Y0069566D01*
X0027752Y0066570D02*
X0030565Y0066570D01*
X0030565Y0065572D02*
X0027768Y0065572D01*
X0027768Y0064573D02*
X0033725Y0064573D01*
X0034724Y0063575D02*
X0024177Y0063575D01*
X0023996Y0063575D02*
X0016762Y0063575D01*
X0016762Y0063731D02*
X0017673Y0063731D01*
X0017673Y0067306D01*
X0014886Y0067306D01*
X0014886Y0065719D01*
X0013349Y0067256D01*
X0013349Y0070105D01*
X0014886Y0070105D01*
X0014886Y0067881D01*
X0017673Y0067881D01*
X0017673Y0067306D01*
X0018248Y0067306D01*
X0018248Y0063731D01*
X0019733Y0063731D01*
X0020114Y0063833D01*
X0020405Y0064001D01*
X0020405Y0063688D01*
X0023996Y0063688D01*
X0023996Y0063507D01*
X0020405Y0063507D01*
X0020405Y0061612D01*
X0020402Y0061598D01*
X0020402Y0059310D01*
X0023992Y0059310D01*
X0023992Y0059129D01*
X0020402Y0059129D01*
X0020402Y0056841D01*
X0020504Y0056459D01*
X0020701Y0056117D01*
X0020981Y0055838D01*
X0021323Y0055640D01*
X0021704Y0055538D01*
X0023992Y0055538D01*
X0023992Y0059128D01*
X0024173Y0059128D01*
X0024173Y0055538D01*
X0025037Y0055538D01*
X0025037Y0053469D01*
X0024766Y0053740D01*
X0023773Y0054151D01*
X0022699Y0054151D01*
X0021707Y0053740D01*
X0021183Y0053217D01*
X0021183Y0055564D01*
X0020656Y0056092D01*
X0016762Y0056092D01*
X0016762Y0058010D01*
X0019519Y0058010D01*
X0020046Y0058537D01*
X0020046Y0062082D01*
X0019519Y0062610D01*
X0016762Y0062610D01*
X0016762Y0063731D01*
X0017673Y0064573D02*
X0018248Y0064573D01*
X0018248Y0065572D02*
X0017673Y0065572D01*
X0017673Y0066570D02*
X0018248Y0066570D01*
X0017673Y0067569D02*
X0013349Y0067569D01*
X0013349Y0068567D02*
X0014886Y0068567D01*
X0014886Y0069566D02*
X0013349Y0069566D01*
X0014034Y0066570D02*
X0014886Y0066570D01*
X0019553Y0062576D02*
X0020405Y0062576D01*
X0020402Y0061578D02*
X0020046Y0061578D01*
X0020046Y0060579D02*
X0020402Y0060579D01*
X0020402Y0059581D02*
X0020046Y0059581D01*
X0020046Y0058582D02*
X0020402Y0058582D01*
X0020402Y0057584D02*
X0016762Y0057584D01*
X0016762Y0056585D02*
X0020470Y0056585D01*
X0021161Y0055587D02*
X0021523Y0055587D01*
X0021183Y0054588D02*
X0025037Y0054588D01*
X0025037Y0053590D02*
X0024916Y0053590D01*
X0023236Y0051451D02*
X0019299Y0051451D01*
X0018709Y0052829D01*
X0021183Y0053590D02*
X0021556Y0053590D01*
X0023992Y0055587D02*
X0024173Y0055587D01*
X0024173Y0056585D02*
X0023992Y0056585D01*
X0023992Y0057584D02*
X0024173Y0057584D01*
X0024173Y0058582D02*
X0023992Y0058582D01*
X0023992Y0059581D02*
X0024173Y0059581D01*
X0024173Y0060579D02*
X0023996Y0060579D01*
X0023996Y0061578D02*
X0024173Y0061578D01*
X0024173Y0062576D02*
X0023996Y0062576D01*
X0023996Y0064573D02*
X0024161Y0064573D01*
X0024161Y0065572D02*
X0023996Y0065572D01*
X0023996Y0066570D02*
X0024161Y0066570D01*
X0024161Y0067569D02*
X0023980Y0067569D01*
X0027768Y0062576D02*
X0035616Y0062576D01*
X0037685Y0064573D02*
X0038832Y0064573D01*
X0038840Y0065572D02*
X0036686Y0065572D01*
X0035908Y0066570D02*
X0054413Y0066570D01*
X0054413Y0066096D02*
X0054516Y0065715D01*
X0054713Y0065373D01*
X0054992Y0065094D01*
X0055334Y0064896D01*
X0055716Y0064794D01*
X0057988Y0064794D01*
X0057988Y0067581D01*
X0054413Y0067581D01*
X0054413Y0066096D01*
X0054598Y0065572D02*
X0044168Y0065572D01*
X0042282Y0057584D02*
X0039753Y0057584D01*
X0037790Y0055587D02*
X0031320Y0055587D01*
X0031199Y0055466D02*
X0033135Y0057402D01*
X0035381Y0057402D01*
X0035678Y0057699D01*
X0038569Y0054809D01*
X0039389Y0053988D01*
X0041563Y0053988D01*
X0041617Y0053859D01*
X0042376Y0053099D01*
X0042975Y0052851D01*
X0038404Y0052851D01*
X0037876Y0052323D01*
X0037876Y0053202D01*
X0037349Y0053729D01*
X0033060Y0053729D01*
X0032533Y0053202D01*
X0032533Y0050917D01*
X0030530Y0048914D01*
X0024167Y0048914D01*
X0024766Y0049162D01*
X0025525Y0049922D01*
X0025633Y0050181D01*
X0030672Y0050181D01*
X0031199Y0050709D01*
X0031199Y0055466D01*
X0031199Y0054588D02*
X0038789Y0054588D01*
X0037489Y0053590D02*
X0041886Y0053590D01*
X0045925Y0053590D02*
X0055013Y0053590D01*
X0057858Y0054588D02*
X0046496Y0054588D01*
X0046011Y0049596D02*
X0055355Y0049596D01*
X0054110Y0047599D02*
X0063033Y0047599D01*
X0063053Y0048597D02*
X0046144Y0048597D01*
X0044890Y0047514D02*
X0043472Y0047514D01*
X0044890Y0047514D02*
X0048827Y0043577D01*
X0048295Y0044640D01*
X0048827Y0045546D01*
X0052764Y0045546D01*
X0052045Y0044640D01*
X0054195Y0044603D02*
X0055013Y0044603D01*
X0055013Y0043604D02*
X0054195Y0043604D01*
X0054195Y0042606D02*
X0055258Y0042606D01*
X0054035Y0041607D02*
X0062913Y0041607D01*
X0063896Y0044500D02*
X0062606Y0045546D01*
X0058669Y0045546D01*
X0058276Y0044798D01*
X0055013Y0045602D02*
X0054195Y0045602D01*
X0054195Y0046600D02*
X0055013Y0046600D01*
X0061196Y0049596D02*
X0061459Y0049596D01*
X0058563Y0065572D02*
X0057988Y0065572D01*
X0057988Y0066570D02*
X0058563Y0066570D01*
X0058563Y0067569D02*
X0057988Y0067569D01*
X0058563Y0067581D02*
X0058563Y0068156D01*
X0060412Y0068156D01*
X0060412Y0067800D01*
X0060412Y0067581D01*
X0058563Y0067581D01*
X0060412Y0067800D02*
X0063437Y0067800D01*
X0063437Y0067800D01*
X0060412Y0067800D01*
X0054413Y0067569D02*
X0035908Y0067569D01*
X0035908Y0068567D02*
X0054413Y0068567D01*
X0054413Y0069566D02*
X0035647Y0069566D01*
X0030565Y0061578D02*
X0027768Y0061578D01*
X0027764Y0060579D02*
X0030565Y0060579D01*
X0030565Y0059581D02*
X0027764Y0059581D01*
X0027764Y0058582D02*
X0030356Y0058582D01*
X0029357Y0057584D02*
X0027764Y0057584D01*
X0027695Y0056585D02*
X0028359Y0056585D01*
X0029142Y0055388D02*
X0029142Y0053420D01*
X0028118Y0053262D01*
X0029142Y0055388D02*
X0033079Y0059325D01*
X0033236Y0059877D01*
X0035563Y0057584D02*
X0035793Y0057584D01*
X0036792Y0056585D02*
X0032318Y0056585D01*
X0032921Y0053590D02*
X0031199Y0053590D01*
X0031199Y0052591D02*
X0032533Y0052591D01*
X0032533Y0051593D02*
X0031199Y0051593D01*
X0031085Y0050594D02*
X0032210Y0050594D01*
X0031212Y0049596D02*
X0025199Y0049596D01*
X0022306Y0048914D02*
X0018719Y0048914D01*
X0018022Y0048218D01*
X0016762Y0048218D01*
X0016762Y0049567D01*
X0020656Y0049567D01*
X0020979Y0049890D01*
X0021707Y0049162D01*
X0022306Y0048914D01*
X0021274Y0049596D02*
X0020685Y0049596D01*
X0018402Y0048597D02*
X0016762Y0048597D01*
X0013962Y0049596D02*
X0013598Y0049596D01*
X0011193Y0052400D02*
X0011622Y0052829D01*
X0008911Y0046600D02*
X0008880Y0046600D01*
X0011386Y0044955D02*
X0011386Y0044500D01*
X0005996Y0044500D01*
X0008880Y0042606D02*
X0008911Y0042606D01*
X0008675Y0039610D02*
X0006551Y0039610D01*
X0005996Y0036700D02*
X0011150Y0036700D01*
X0011150Y0037081D01*
X0016762Y0040609D02*
X0025648Y0040609D01*
X0025391Y0041607D02*
X0016762Y0041607D01*
X0018472Y0044955D02*
X0019299Y0045546D01*
X0028472Y0043420D02*
X0029142Y0043577D01*
X0035047Y0043577D01*
X0035205Y0043774D01*
X0032533Y0045602D02*
X0031554Y0045602D01*
X0037876Y0052591D02*
X0038144Y0052591D01*
X0040384Y0049596D02*
X0040934Y0049596D01*
X0040801Y0048597D02*
X0040384Y0048597D01*
X0040384Y0047599D02*
X0040801Y0047599D01*
X0025746Y0035616D02*
X0020711Y0035616D01*
X0020711Y0034618D02*
X0025746Y0034618D01*
D18*
X0023236Y0051451D03*
X0043906Y0055388D03*
M02*
