G75*
%MOIN*%
%OFA0B0*%
%FSLAX25Y25*%
%IPPOS*%
%LPD*%
%AMOC8*
5,1,8,0,0,1.08239X$1,22.5*
%
%ADD10C,0.07400*%
%ADD11C,0.02400*%
%ADD12C,0.03962*%
%ADD13C,0.03200*%
%ADD14C,0.01181*%
%ADD15C,0.04000*%
%ADD16C,0.01200*%
D10*
X0058211Y0029085D03*
X0058211Y0039085D03*
X0058211Y0049085D03*
X0058211Y0059085D03*
X0058211Y0069085D03*
X0159995Y0039759D03*
X0159995Y0029759D03*
X0105866Y0161195D03*
X0095866Y0161195D03*
X0085866Y0161195D03*
X0075866Y0161195D03*
D11*
X0075759Y0002200D02*
X0002200Y0002200D01*
X0002200Y0182830D01*
X0074566Y0182830D01*
X0067705Y0180113D01*
X0067705Y0180113D01*
X0057079Y0174272D01*
X0047270Y0167145D01*
X0038431Y0158845D01*
X0030703Y0149503D01*
X0024206Y0139265D01*
X0019043Y0128294D01*
X0015296Y0116762D01*
X0013024Y0104852D01*
X0012263Y0092751D01*
X0013024Y0080650D01*
X0015296Y0068740D01*
X0019043Y0057208D01*
X0024206Y0046237D01*
X0030703Y0036000D01*
X0038431Y0026657D01*
X0038431Y0026657D01*
X0038431Y0026657D01*
X0047270Y0018357D01*
X0047270Y0018357D01*
X0057079Y0011230D01*
X0057079Y0011230D01*
X0067705Y0005389D01*
X0075759Y0002200D01*
X0002200Y0002200D01*
X0002200Y0004599D02*
X0069701Y0004599D01*
X0067705Y0005389D02*
X0067705Y0005389D01*
X0064780Y0006997D02*
X0002200Y0006997D01*
X0002200Y0009396D02*
X0060417Y0009396D01*
X0056304Y0011794D02*
X0002200Y0011794D01*
X0002200Y0014193D02*
X0053002Y0014193D01*
X0049701Y0016591D02*
X0002200Y0016591D01*
X0002200Y0018990D02*
X0046597Y0018990D01*
X0044043Y0021388D02*
X0002200Y0021388D01*
X0002200Y0023787D02*
X0041488Y0023787D01*
X0038934Y0026185D02*
X0002200Y0026185D01*
X0002200Y0028584D02*
X0036838Y0028584D01*
X0034854Y0030982D02*
X0002200Y0030982D01*
X0002200Y0033381D02*
X0032869Y0033381D01*
X0030885Y0035779D02*
X0002200Y0035779D01*
X0002200Y0038178D02*
X0029321Y0038178D01*
X0030703Y0036000D02*
X0030703Y0036000D01*
X0027798Y0040576D02*
X0002200Y0040576D01*
X0002200Y0042975D02*
X0026276Y0042975D01*
X0024754Y0045373D02*
X0002200Y0045373D01*
X0002200Y0047772D02*
X0023484Y0047772D01*
X0024206Y0046237D02*
X0024206Y0046237D01*
X0022355Y0050170D02*
X0002200Y0050170D01*
X0002200Y0052569D02*
X0021226Y0052569D01*
X0020098Y0054967D02*
X0002200Y0054967D01*
X0002200Y0057366D02*
X0018992Y0057366D01*
X0019043Y0057208D02*
X0019043Y0057208D01*
X0018213Y0059764D02*
X0002200Y0059764D01*
X0002200Y0062163D02*
X0017433Y0062163D01*
X0016654Y0064561D02*
X0002200Y0064561D01*
X0002200Y0066960D02*
X0015875Y0066960D01*
X0015296Y0068740D02*
X0015296Y0068740D01*
X0015178Y0069358D02*
X0002200Y0069358D01*
X0002200Y0071757D02*
X0014721Y0071757D01*
X0014263Y0074155D02*
X0002200Y0074155D01*
X0002200Y0076554D02*
X0013806Y0076554D01*
X0013348Y0078952D02*
X0002200Y0078952D01*
X0002200Y0081351D02*
X0012980Y0081351D01*
X0013024Y0080650D02*
X0013024Y0080650D01*
X0012829Y0083749D02*
X0002200Y0083749D01*
X0002200Y0086148D02*
X0012678Y0086148D01*
X0012528Y0088546D02*
X0002200Y0088546D01*
X0002200Y0090945D02*
X0012377Y0090945D01*
X0012263Y0092751D02*
X0012263Y0092751D01*
X0012300Y0093343D02*
X0002200Y0093343D01*
X0002200Y0095742D02*
X0012451Y0095742D01*
X0012602Y0098140D02*
X0002200Y0098140D01*
X0002200Y0100539D02*
X0012753Y0100539D01*
X0012904Y0102937D02*
X0002200Y0102937D01*
X0002200Y0105336D02*
X0013117Y0105336D01*
X0013024Y0104852D02*
X0013024Y0104852D01*
X0013574Y0107734D02*
X0002200Y0107734D01*
X0002200Y0110133D02*
X0014032Y0110133D01*
X0014489Y0112532D02*
X0002200Y0112532D01*
X0002200Y0114930D02*
X0014947Y0114930D01*
X0015296Y0116762D02*
X0015296Y0116762D01*
X0015480Y0117329D02*
X0002200Y0117329D01*
X0002200Y0119727D02*
X0016260Y0119727D01*
X0017039Y0122126D02*
X0002200Y0122126D01*
X0002200Y0124524D02*
X0017818Y0124524D01*
X0018598Y0126923D02*
X0002200Y0126923D01*
X0002200Y0129321D02*
X0019526Y0129321D01*
X0019043Y0128294D02*
X0019043Y0128294D01*
X0020655Y0131720D02*
X0002200Y0131720D01*
X0002200Y0134118D02*
X0021784Y0134118D01*
X0022912Y0136517D02*
X0002200Y0136517D01*
X0002200Y0138915D02*
X0024041Y0138915D01*
X0024206Y0139265D02*
X0024206Y0139265D01*
X0025506Y0141314D02*
X0002200Y0141314D01*
X0002200Y0143712D02*
X0027028Y0143712D01*
X0028550Y0146111D02*
X0002200Y0146111D01*
X0002200Y0148509D02*
X0030072Y0148509D01*
X0030703Y0149503D02*
X0030703Y0149503D01*
X0031865Y0150908D02*
X0002200Y0150908D01*
X0002200Y0153306D02*
X0033849Y0153306D01*
X0035834Y0155705D02*
X0002200Y0155705D01*
X0002200Y0158103D02*
X0037818Y0158103D01*
X0038431Y0158845D02*
X0038431Y0158845D01*
X0040196Y0160502D02*
X0002200Y0160502D01*
X0002200Y0162900D02*
X0042750Y0162900D01*
X0045304Y0165299D02*
X0002200Y0165299D01*
X0002200Y0167697D02*
X0048030Y0167697D01*
X0047270Y0167145D02*
X0047270Y0167145D01*
X0051331Y0170096D02*
X0002200Y0170096D01*
X0002200Y0172494D02*
X0054633Y0172494D01*
X0057079Y0174272D02*
X0057079Y0174272D01*
X0058209Y0174893D02*
X0002200Y0174893D01*
X0002200Y0177291D02*
X0062572Y0177291D01*
X0066934Y0179690D02*
X0002200Y0179690D01*
X0002200Y0182088D02*
X0072693Y0182088D01*
X0080995Y0172494D02*
X0136634Y0172494D01*
X0134942Y0173164D02*
X0144814Y0169255D01*
X0154119Y0164140D01*
X0162709Y0157899D01*
X0170449Y0150630D01*
X0177218Y0142449D01*
X0182907Y0133484D01*
X0187428Y0123877D01*
X0190709Y0113778D01*
X0192699Y0103348D01*
X0193365Y0092751D01*
X0192699Y0082154D01*
X0190709Y0071724D01*
X0187428Y0061626D01*
X0182907Y0052018D01*
X0177218Y0043053D01*
X0170449Y0034872D01*
X0165844Y0030547D01*
X0165750Y0031141D01*
X0165463Y0032024D01*
X0165041Y0032851D01*
X0164496Y0033603D01*
X0163839Y0034259D01*
X0163751Y0034323D01*
X0165506Y0036077D01*
X0166495Y0038466D01*
X0166495Y0041052D01*
X0165506Y0043441D01*
X0163677Y0045269D01*
X0161522Y0046162D01*
X0162582Y0047223D01*
X0163100Y0048473D01*
X0163100Y0050750D01*
X0163091Y0050773D01*
X0163091Y0096302D01*
X0163769Y0096981D01*
X0164500Y0098745D01*
X0164500Y0100655D01*
X0163769Y0102419D01*
X0162419Y0103769D01*
X0160655Y0104500D01*
X0158745Y0104500D01*
X0156981Y0103769D01*
X0155631Y0102419D01*
X0155591Y0102322D01*
X0155591Y0103802D01*
X0156269Y0104481D01*
X0157000Y0106245D01*
X0157000Y0108155D01*
X0156269Y0109919D01*
X0154919Y0111269D01*
X0153155Y0112000D01*
X0151245Y0112000D01*
X0149481Y0111269D01*
X0148131Y0109919D01*
X0147400Y0108155D01*
X0147400Y0106245D01*
X0148131Y0104481D01*
X0148809Y0103802D01*
X0148809Y0060598D01*
X0148131Y0059919D01*
X0147400Y0058155D01*
X0147400Y0056245D01*
X0148131Y0054481D01*
X0149481Y0053131D01*
X0151245Y0052400D01*
X0153155Y0052400D01*
X0154919Y0053131D01*
X0156269Y0054481D01*
X0156309Y0054578D01*
X0156309Y0050773D01*
X0156300Y0050750D01*
X0156300Y0050557D01*
X0150713Y0044970D01*
X0131760Y0044970D01*
X0130510Y0044452D01*
X0128472Y0042414D01*
X0127548Y0042414D01*
X0125791Y0041686D01*
X0124446Y0040341D01*
X0123718Y0038584D01*
X0123718Y0036682D01*
X0124446Y0034925D01*
X0125791Y0033580D01*
X0127548Y0032852D01*
X0129450Y0032852D01*
X0131207Y0033580D01*
X0132552Y0034925D01*
X0133280Y0036682D01*
X0133280Y0037606D01*
X0133845Y0038170D01*
X0152798Y0038170D01*
X0153498Y0038460D01*
X0154485Y0036077D01*
X0156239Y0034323D01*
X0156152Y0034259D01*
X0155495Y0033603D01*
X0154949Y0032851D01*
X0154528Y0032024D01*
X0154241Y0031141D01*
X0154095Y0030223D01*
X0154095Y0029759D01*
X0154095Y0029295D01*
X0154241Y0028377D01*
X0154528Y0027494D01*
X0154949Y0026667D01*
X0155495Y0025915D01*
X0156152Y0025259D01*
X0156903Y0024713D01*
X0157730Y0024291D01*
X0158021Y0024197D01*
X0154119Y0021362D01*
X0144814Y0016247D01*
X0134942Y0012338D01*
X0124657Y0009698D01*
X0114123Y0008367D01*
X0103505Y0008367D01*
X0092971Y0009698D01*
X0082686Y0012338D01*
X0072814Y0016247D01*
X0063509Y0021362D01*
X0060983Y0023198D01*
X0061893Y0023575D01*
X0063721Y0025403D01*
X0064097Y0026309D01*
X0102874Y0026309D01*
X0104121Y0026826D01*
X0105074Y0027779D01*
X0129695Y0052400D01*
X0129900Y0052400D01*
X0129900Y0051245D01*
X0130631Y0049481D01*
X0131981Y0048131D01*
X0133745Y0047400D01*
X0135655Y0047400D01*
X0137419Y0048131D01*
X0138769Y0049481D01*
X0139500Y0051245D01*
X0139500Y0053155D01*
X0138769Y0054919D01*
X0138091Y0055598D01*
X0138091Y0056526D01*
X0138091Y0057874D01*
X0137574Y0059121D01*
X0127592Y0069103D01*
X0127582Y0069126D01*
X0126626Y0070082D01*
X0125376Y0070600D01*
X0117475Y0070600D01*
X0117475Y0116338D01*
X0118128Y0116992D01*
X0118856Y0118749D01*
X0118856Y0120651D01*
X0118128Y0122408D01*
X0116783Y0123753D01*
X0115026Y0124481D01*
X0113124Y0124481D01*
X0111367Y0123753D01*
X0110022Y0122408D01*
X0109294Y0120651D01*
X0109294Y0118749D01*
X0110022Y0116992D01*
X0110675Y0116338D01*
X0110675Y0070591D01*
X0064623Y0070591D01*
X0063721Y0072767D01*
X0061893Y0074595D01*
X0059504Y0075585D01*
X0056918Y0075585D01*
X0054529Y0074595D01*
X0052701Y0072767D01*
X0051711Y0070378D01*
X0051711Y0067792D01*
X0052701Y0065403D01*
X0054019Y0064085D01*
X0052701Y0062767D01*
X0051711Y0060378D01*
X0051711Y0057792D01*
X0052701Y0055403D01*
X0054019Y0054085D01*
X0052701Y0052767D01*
X0051711Y0050378D01*
X0051711Y0047792D01*
X0052701Y0045403D01*
X0054019Y0044085D01*
X0052701Y0042767D01*
X0051711Y0040378D01*
X0051711Y0037792D01*
X0052701Y0035403D01*
X0054019Y0034085D01*
X0052701Y0032767D01*
X0051782Y0030549D01*
X0047179Y0034872D01*
X0040411Y0043053D01*
X0034721Y0052018D01*
X0030200Y0061626D01*
X0027138Y0071051D01*
X0027437Y0070927D01*
X0030211Y0070927D01*
X0032773Y0071989D01*
X0034734Y0073950D01*
X0035796Y0076512D01*
X0035796Y0079286D01*
X0034734Y0081848D01*
X0032773Y0083809D01*
X0030211Y0084870D01*
X0027437Y0084870D01*
X0024875Y0083809D01*
X0024828Y0083763D01*
X0024473Y0089416D01*
X0025742Y0088147D01*
X0027499Y0087419D01*
X0029401Y0087419D01*
X0029537Y0087475D01*
X0040526Y0087475D01*
X0042143Y0088145D01*
X0043381Y0089383D01*
X0043442Y0089444D01*
X0044680Y0090682D01*
X0045350Y0092299D01*
X0045350Y0126627D01*
X0066523Y0147800D01*
X0101825Y0147800D01*
X0103442Y0148470D01*
X0104680Y0149708D01*
X0109596Y0154624D01*
X0110266Y0156241D01*
X0110266Y0156403D01*
X0111377Y0157513D01*
X0112366Y0159902D01*
X0112366Y0162488D01*
X0111377Y0164877D01*
X0109548Y0166706D01*
X0107159Y0167695D01*
X0104573Y0167695D01*
X0102184Y0166706D01*
X0100430Y0164951D01*
X0100366Y0165039D01*
X0099710Y0165696D01*
X0098958Y0166241D01*
X0098131Y0166663D01*
X0097248Y0166950D01*
X0096330Y0167095D01*
X0095866Y0167095D01*
X0095402Y0167095D01*
X0094485Y0166950D01*
X0093601Y0166663D01*
X0092774Y0166241D01*
X0092023Y0165696D01*
X0091366Y0165039D01*
X0090866Y0164351D01*
X0090366Y0165039D01*
X0089710Y0165696D01*
X0088958Y0166241D01*
X0088131Y0166663D01*
X0087248Y0166950D01*
X0086330Y0167095D01*
X0085866Y0167095D01*
X0085402Y0167095D01*
X0084485Y0166950D01*
X0083601Y0166663D01*
X0082774Y0166241D01*
X0082023Y0165696D01*
X0081366Y0165039D01*
X0081302Y0164951D01*
X0079548Y0166706D01*
X0077159Y0167695D01*
X0074573Y0167695D01*
X0072184Y0166706D01*
X0070356Y0164877D01*
X0069798Y0163531D01*
X0069222Y0164922D01*
X0067700Y0166444D01*
X0072814Y0169255D01*
X0082686Y0173164D01*
X0092971Y0175805D01*
X0103505Y0177136D01*
X0114123Y0177136D01*
X0124657Y0175805D01*
X0134942Y0173164D01*
X0128209Y0174893D02*
X0089419Y0174893D01*
X0092971Y0175805D02*
X0092971Y0175805D01*
X0095866Y0167095D02*
X0095866Y0161195D01*
X0085866Y0161195D01*
X0085866Y0161195D01*
X0085866Y0167095D01*
X0085866Y0161195D01*
X0085866Y0161195D01*
X0091766Y0161195D01*
X0095866Y0161195D01*
X0095866Y0161195D01*
X0095866Y0161195D01*
X0095866Y0167095D01*
X0095866Y0165299D02*
X0095866Y0165299D01*
X0095866Y0162900D02*
X0095866Y0162900D01*
X0091626Y0165299D02*
X0090106Y0165299D01*
X0085866Y0165299D02*
X0085866Y0165299D01*
X0085866Y0162900D02*
X0085866Y0162900D01*
X0081626Y0165299D02*
X0080955Y0165299D01*
X0074937Y0170096D02*
X0142692Y0170096D01*
X0147648Y0167697D02*
X0069980Y0167697D01*
X0070777Y0165299D02*
X0068845Y0165299D01*
X0069936Y0158526D02*
X0070356Y0157513D01*
X0071269Y0156600D01*
X0069021Y0156600D01*
X0069222Y0156801D01*
X0069936Y0158526D01*
X0069762Y0158103D02*
X0070111Y0158103D01*
X0080463Y0156600D02*
X0081302Y0157439D01*
X0081366Y0157352D01*
X0082023Y0156695D01*
X0082153Y0156600D01*
X0080463Y0156600D01*
X0089579Y0156600D02*
X0089710Y0156695D01*
X0090366Y0157352D01*
X0090866Y0158040D01*
X0091366Y0157352D01*
X0092023Y0156695D01*
X0092153Y0156600D01*
X0089579Y0156600D01*
X0100106Y0165299D02*
X0100777Y0165299D01*
X0110955Y0165299D02*
X0152011Y0165299D01*
X0155825Y0162900D02*
X0112195Y0162900D01*
X0112366Y0160502D02*
X0159127Y0160502D01*
X0162428Y0158103D02*
X0111621Y0158103D01*
X0110044Y0155705D02*
X0165046Y0155705D01*
X0167600Y0153306D02*
X0108279Y0153306D01*
X0105880Y0150908D02*
X0170154Y0150908D01*
X0172204Y0148509D02*
X0103482Y0148509D01*
X0096795Y0131720D02*
X0183737Y0131720D01*
X0182505Y0134118D02*
X0052841Y0134118D01*
X0055239Y0136517D02*
X0180982Y0136517D01*
X0179460Y0138915D02*
X0057638Y0138915D01*
X0060036Y0141314D02*
X0177938Y0141314D01*
X0176173Y0143712D02*
X0062435Y0143712D01*
X0064833Y0146111D02*
X0174188Y0146111D01*
X0183779Y0153306D02*
X0222200Y0153306D01*
X0222200Y0150908D02*
X0185763Y0150908D01*
X0186926Y0149503D02*
X0179197Y0158845D01*
X0179197Y0158845D01*
X0179197Y0158845D01*
X0170358Y0167145D01*
X0160549Y0174272D01*
X0149924Y0180113D01*
X0143062Y0182830D01*
X0222200Y0182830D01*
X0222200Y0002200D01*
X0141869Y0002200D01*
X0149924Y0005389D01*
X0160549Y0011230D01*
X0170358Y0018357D01*
X0179197Y0026657D01*
X0186926Y0036000D01*
X0193423Y0046237D01*
X0198585Y0057208D01*
X0202332Y0068740D01*
X0204604Y0080650D01*
X0205365Y0092751D01*
X0204604Y0104852D01*
X0204604Y0104852D01*
X0202332Y0116762D01*
X0202332Y0116762D01*
X0198585Y0128294D01*
X0193423Y0139265D01*
X0186926Y0149503D01*
X0186926Y0149503D01*
X0187556Y0148509D02*
X0222200Y0148509D01*
X0222200Y0146111D02*
X0189078Y0146111D01*
X0190600Y0143712D02*
X0222200Y0143712D01*
X0222200Y0141314D02*
X0192123Y0141314D01*
X0193423Y0139265D02*
X0193423Y0139265D01*
X0193587Y0138915D02*
X0222200Y0138915D01*
X0222200Y0136517D02*
X0194716Y0136517D01*
X0195845Y0134118D02*
X0222200Y0134118D01*
X0222200Y0131720D02*
X0196973Y0131720D01*
X0198102Y0129321D02*
X0222200Y0129321D01*
X0222200Y0126923D02*
X0199031Y0126923D01*
X0198585Y0128294D02*
X0198585Y0128294D01*
X0199810Y0124524D02*
X0222200Y0124524D01*
X0222200Y0122126D02*
X0200589Y0122126D01*
X0201369Y0119727D02*
X0222200Y0119727D01*
X0222200Y0117329D02*
X0202148Y0117329D01*
X0202682Y0114930D02*
X0222200Y0114930D01*
X0222200Y0112532D02*
X0203139Y0112532D01*
X0203597Y0110133D02*
X0222200Y0110133D01*
X0222200Y0107734D02*
X0204054Y0107734D01*
X0204512Y0105336D02*
X0222200Y0105336D01*
X0222200Y0102937D02*
X0204724Y0102937D01*
X0204875Y0100539D02*
X0222200Y0100539D01*
X0222200Y0098140D02*
X0205026Y0098140D01*
X0205177Y0095742D02*
X0222200Y0095742D01*
X0222200Y0093343D02*
X0205328Y0093343D01*
X0205252Y0090945D02*
X0222200Y0090945D01*
X0222200Y0088546D02*
X0205101Y0088546D01*
X0204950Y0086148D02*
X0222200Y0086148D01*
X0222200Y0083749D02*
X0204799Y0083749D01*
X0204648Y0081351D02*
X0222200Y0081351D01*
X0222200Y0078952D02*
X0204280Y0078952D01*
X0203823Y0076554D02*
X0222200Y0076554D01*
X0222200Y0074155D02*
X0203365Y0074155D01*
X0202908Y0071757D02*
X0222200Y0071757D01*
X0222200Y0069358D02*
X0202450Y0069358D01*
X0201754Y0066960D02*
X0222200Y0066960D01*
X0222200Y0064561D02*
X0200974Y0064561D01*
X0200195Y0062163D02*
X0222200Y0062163D01*
X0222200Y0059764D02*
X0199416Y0059764D01*
X0198636Y0057366D02*
X0222200Y0057366D01*
X0222200Y0054967D02*
X0197531Y0054967D01*
X0196402Y0052569D02*
X0222200Y0052569D01*
X0222200Y0050170D02*
X0195273Y0050170D01*
X0194145Y0047772D02*
X0222200Y0047772D01*
X0222200Y0045373D02*
X0192874Y0045373D01*
X0191352Y0042975D02*
X0222200Y0042975D01*
X0222200Y0040576D02*
X0189830Y0040576D01*
X0188308Y0038178D02*
X0222200Y0038178D01*
X0222200Y0035779D02*
X0186743Y0035779D01*
X0184759Y0033381D02*
X0222200Y0033381D01*
X0222200Y0030982D02*
X0182775Y0030982D01*
X0180790Y0028584D02*
X0222200Y0028584D01*
X0222200Y0026185D02*
X0178694Y0026185D01*
X0176140Y0023787D02*
X0222200Y0023787D01*
X0222200Y0021388D02*
X0173586Y0021388D01*
X0171032Y0018990D02*
X0222200Y0018990D01*
X0222200Y0016591D02*
X0167927Y0016591D01*
X0170358Y0018357D02*
X0170358Y0018357D01*
X0164626Y0014193D02*
X0222200Y0014193D01*
X0222200Y0011794D02*
X0161325Y0011794D01*
X0160549Y0011230D02*
X0160549Y0011230D01*
X0157211Y0009396D02*
X0222200Y0009396D01*
X0222200Y0006997D02*
X0152849Y0006997D01*
X0149924Y0005389D02*
X0149924Y0005389D01*
X0147927Y0004599D02*
X0222200Y0004599D01*
X0222200Y0002200D02*
X0141869Y0002200D01*
X0132823Y0011794D02*
X0084806Y0011794D01*
X0078003Y0014193D02*
X0139625Y0014193D01*
X0145440Y0016591D02*
X0072188Y0016591D01*
X0067825Y0018990D02*
X0149803Y0018990D01*
X0154155Y0021388D02*
X0063474Y0021388D01*
X0062105Y0023787D02*
X0157456Y0023787D01*
X0155299Y0026185D02*
X0064045Y0026185D01*
X0063398Y0033091D02*
X0062403Y0034085D01*
X0063721Y0035403D01*
X0064711Y0037792D01*
X0064711Y0040378D01*
X0063721Y0042767D01*
X0062403Y0044085D01*
X0063721Y0045403D01*
X0064711Y0047792D01*
X0064711Y0050378D01*
X0063721Y0052767D01*
X0062403Y0054085D01*
X0063721Y0055403D01*
X0064711Y0057792D01*
X0064711Y0060378D01*
X0063721Y0062767D01*
X0062679Y0063809D01*
X0113376Y0063809D01*
X0113399Y0063800D01*
X0123305Y0063800D01*
X0126408Y0060697D01*
X0125631Y0059919D01*
X0124900Y0058155D01*
X0124900Y0057195D01*
X0100796Y0033091D01*
X0063398Y0033091D01*
X0063108Y0033381D02*
X0101086Y0033381D01*
X0103484Y0035779D02*
X0063877Y0035779D01*
X0064711Y0038178D02*
X0105883Y0038178D01*
X0108281Y0040576D02*
X0064629Y0040576D01*
X0063514Y0042975D02*
X0110680Y0042975D01*
X0113078Y0045373D02*
X0063692Y0045373D01*
X0064703Y0047772D02*
X0115477Y0047772D01*
X0117875Y0050170D02*
X0064711Y0050170D01*
X0063804Y0052569D02*
X0120274Y0052569D01*
X0122672Y0054967D02*
X0063286Y0054967D01*
X0064534Y0057366D02*
X0124900Y0057366D01*
X0125567Y0059764D02*
X0064711Y0059764D01*
X0063972Y0062163D02*
X0124942Y0062163D01*
X0129735Y0066960D02*
X0148809Y0066960D01*
X0148809Y0069358D02*
X0127350Y0069358D01*
X0132134Y0064561D02*
X0148809Y0064561D01*
X0148809Y0062163D02*
X0134532Y0062163D01*
X0136931Y0059764D02*
X0148067Y0059764D01*
X0147400Y0057366D02*
X0138091Y0057366D01*
X0138721Y0054967D02*
X0147929Y0054967D01*
X0150838Y0052569D02*
X0139500Y0052569D01*
X0139055Y0050170D02*
X0155913Y0050170D01*
X0156309Y0052569D02*
X0153562Y0052569D01*
X0153515Y0047772D02*
X0136552Y0047772D01*
X0132848Y0047772D02*
X0125067Y0047772D01*
X0122668Y0045373D02*
X0151116Y0045373D01*
X0152816Y0038178D02*
X0153615Y0038178D01*
X0154783Y0035779D02*
X0132906Y0035779D01*
X0130727Y0033381D02*
X0155334Y0033381D01*
X0154215Y0030982D02*
X0108277Y0030982D01*
X0105879Y0028584D02*
X0154208Y0028584D01*
X0154095Y0029759D02*
X0159995Y0029759D01*
X0159995Y0029759D01*
X0154095Y0029759D01*
X0164657Y0033381D02*
X0168861Y0033381D01*
X0170449Y0034872D02*
X0170449Y0034872D01*
X0171200Y0035779D02*
X0165208Y0035779D01*
X0166376Y0038178D02*
X0173184Y0038178D01*
X0175168Y0040576D02*
X0166495Y0040576D01*
X0165699Y0042975D02*
X0177153Y0042975D01*
X0178690Y0045373D02*
X0163427Y0045373D01*
X0162810Y0047772D02*
X0180212Y0047772D01*
X0181734Y0050170D02*
X0163100Y0050170D01*
X0163091Y0052569D02*
X0183166Y0052569D01*
X0184295Y0054967D02*
X0163091Y0054967D01*
X0163091Y0057366D02*
X0185423Y0057366D01*
X0186552Y0059764D02*
X0163091Y0059764D01*
X0163091Y0062163D02*
X0187602Y0062163D01*
X0188382Y0064561D02*
X0163091Y0064561D01*
X0163091Y0066960D02*
X0189161Y0066960D01*
X0189940Y0069358D02*
X0163091Y0069358D01*
X0163091Y0071757D02*
X0190715Y0071757D01*
X0191173Y0074155D02*
X0163091Y0074155D01*
X0163091Y0076554D02*
X0191630Y0076554D01*
X0192088Y0078952D02*
X0163091Y0078952D01*
X0163091Y0081351D02*
X0192545Y0081351D01*
X0192799Y0083749D02*
X0163091Y0083749D01*
X0163091Y0086148D02*
X0192950Y0086148D01*
X0193101Y0088546D02*
X0163091Y0088546D01*
X0163091Y0090945D02*
X0193252Y0090945D01*
X0193328Y0093343D02*
X0163091Y0093343D01*
X0163091Y0095742D02*
X0193177Y0095742D01*
X0193026Y0098140D02*
X0164249Y0098140D01*
X0164500Y0100539D02*
X0192875Y0100539D01*
X0192724Y0102937D02*
X0163251Y0102937D01*
X0156623Y0105336D02*
X0192319Y0105336D01*
X0191862Y0107734D02*
X0157000Y0107734D01*
X0156055Y0110133D02*
X0191404Y0110133D01*
X0190947Y0112532D02*
X0117475Y0112532D01*
X0117475Y0110133D02*
X0148345Y0110133D01*
X0147400Y0107734D02*
X0117475Y0107734D01*
X0117475Y0105336D02*
X0147777Y0105336D01*
X0148809Y0102937D02*
X0117475Y0102937D01*
X0117475Y0100539D02*
X0148809Y0100539D01*
X0148809Y0098140D02*
X0117475Y0098140D01*
X0117475Y0095742D02*
X0148809Y0095742D01*
X0148809Y0093343D02*
X0117475Y0093343D01*
X0117475Y0090945D02*
X0148809Y0090945D01*
X0148809Y0088546D02*
X0117475Y0088546D01*
X0117475Y0086148D02*
X0148809Y0086148D01*
X0148809Y0083749D02*
X0117475Y0083749D01*
X0117475Y0081351D02*
X0148809Y0081351D01*
X0148809Y0078952D02*
X0117475Y0078952D01*
X0117475Y0076554D02*
X0148809Y0076554D01*
X0148809Y0074155D02*
X0117475Y0074155D01*
X0117475Y0071757D02*
X0148809Y0071757D01*
X0155591Y0071757D02*
X0156309Y0071757D01*
X0156309Y0069358D02*
X0155591Y0069358D01*
X0155591Y0066960D02*
X0156309Y0066960D01*
X0156309Y0064561D02*
X0155591Y0064561D01*
X0155591Y0062163D02*
X0156309Y0062163D01*
X0155591Y0060598D02*
X0155591Y0097078D01*
X0155631Y0096981D01*
X0156309Y0096302D01*
X0156309Y0059822D01*
X0156269Y0059919D01*
X0155591Y0060598D01*
X0155591Y0074155D02*
X0156309Y0074155D01*
X0156309Y0076554D02*
X0155591Y0076554D01*
X0155591Y0078952D02*
X0156309Y0078952D01*
X0156309Y0081351D02*
X0155591Y0081351D01*
X0155591Y0083749D02*
X0156309Y0083749D01*
X0156309Y0086148D02*
X0155591Y0086148D01*
X0155591Y0088546D02*
X0156309Y0088546D01*
X0156309Y0090945D02*
X0155591Y0090945D01*
X0155591Y0093343D02*
X0156309Y0093343D01*
X0156309Y0095742D02*
X0155591Y0095742D01*
X0155591Y0102937D02*
X0156149Y0102937D01*
X0185995Y0126923D02*
X0101825Y0126923D01*
X0101567Y0127180D02*
X0097192Y0131555D01*
X0095575Y0132225D01*
X0070321Y0132225D01*
X0069401Y0132606D01*
X0067499Y0132606D01*
X0065742Y0131878D01*
X0064397Y0130533D01*
X0063669Y0128776D01*
X0063669Y0126874D01*
X0064397Y0125117D01*
X0065742Y0123772D01*
X0067499Y0123044D01*
X0069401Y0123044D01*
X0070321Y0123425D01*
X0092877Y0123425D01*
X0094675Y0121627D01*
X0094675Y0115946D01*
X0094294Y0115026D01*
X0094294Y0113124D01*
X0095022Y0111367D01*
X0096367Y0110022D01*
X0098124Y0109294D01*
X0100026Y0109294D01*
X0101783Y0110022D01*
X0103128Y0111367D01*
X0103856Y0113124D01*
X0103856Y0115026D01*
X0103475Y0115946D01*
X0103475Y0124325D01*
X0102805Y0125942D01*
X0101567Y0127180D01*
X0099426Y0129321D02*
X0184866Y0129321D01*
X0187123Y0124524D02*
X0103393Y0124524D01*
X0103475Y0122126D02*
X0109905Y0122126D01*
X0109294Y0119727D02*
X0103475Y0119727D01*
X0103475Y0117329D02*
X0109882Y0117329D01*
X0110675Y0114930D02*
X0103856Y0114930D01*
X0103611Y0112532D02*
X0110675Y0112532D01*
X0110675Y0110133D02*
X0101895Y0110133D01*
X0096255Y0110133D02*
X0045350Y0110133D01*
X0045350Y0107734D02*
X0110675Y0107734D01*
X0110675Y0105336D02*
X0045350Y0105336D01*
X0045350Y0102937D02*
X0110675Y0102937D01*
X0110675Y0100539D02*
X0045350Y0100539D01*
X0045350Y0098140D02*
X0110675Y0098140D01*
X0110675Y0095742D02*
X0045350Y0095742D01*
X0045350Y0093343D02*
X0110675Y0093343D01*
X0110675Y0090945D02*
X0044789Y0090945D01*
X0043442Y0089444D02*
X0043442Y0089444D01*
X0043381Y0089383D02*
X0043381Y0089383D01*
X0042545Y0088546D02*
X0110675Y0088546D01*
X0110675Y0086148D02*
X0024678Y0086148D01*
X0024528Y0088546D02*
X0025342Y0088546D01*
X0032833Y0083749D02*
X0110675Y0083749D01*
X0110675Y0081351D02*
X0034940Y0081351D01*
X0035796Y0078952D02*
X0110675Y0078952D01*
X0110675Y0076554D02*
X0035796Y0076554D01*
X0034819Y0074155D02*
X0054089Y0074155D01*
X0052282Y0071757D02*
X0032214Y0071757D01*
X0027688Y0069358D02*
X0051711Y0069358D01*
X0052056Y0066960D02*
X0028467Y0066960D01*
X0029247Y0064561D02*
X0053542Y0064561D01*
X0052450Y0062163D02*
X0030026Y0062163D01*
X0031076Y0059764D02*
X0051711Y0059764D01*
X0051888Y0057366D02*
X0032205Y0057366D01*
X0033334Y0054967D02*
X0053136Y0054967D01*
X0052618Y0052569D02*
X0034462Y0052569D01*
X0035894Y0050170D02*
X0051711Y0050170D01*
X0051719Y0047772D02*
X0037416Y0047772D01*
X0038939Y0045373D02*
X0052730Y0045373D01*
X0052908Y0042975D02*
X0040476Y0042975D01*
X0042460Y0040576D02*
X0051793Y0040576D01*
X0051711Y0038178D02*
X0044444Y0038178D01*
X0046428Y0035779D02*
X0052545Y0035779D01*
X0053314Y0033381D02*
X0048767Y0033381D01*
X0051321Y0030982D02*
X0051961Y0030982D01*
X0095362Y0009396D02*
X0122266Y0009396D01*
X0126272Y0033381D02*
X0110676Y0033381D01*
X0113074Y0035779D02*
X0124092Y0035779D01*
X0123718Y0038178D02*
X0115473Y0038178D01*
X0117871Y0040576D02*
X0124681Y0040576D01*
X0129033Y0042975D02*
X0120270Y0042975D01*
X0127465Y0050170D02*
X0130345Y0050170D01*
X0110675Y0071757D02*
X0064140Y0071757D01*
X0062333Y0074155D02*
X0110675Y0074155D01*
X0094539Y0112532D02*
X0045350Y0112532D01*
X0045350Y0114930D02*
X0094294Y0114930D01*
X0094675Y0117329D02*
X0045350Y0117329D01*
X0045350Y0119727D02*
X0094675Y0119727D01*
X0094177Y0122126D02*
X0045350Y0122126D01*
X0045350Y0124524D02*
X0064989Y0124524D01*
X0063669Y0126923D02*
X0045645Y0126923D01*
X0048044Y0129321D02*
X0063895Y0129321D01*
X0065583Y0131720D02*
X0050442Y0131720D01*
X0042794Y0136517D02*
X0036646Y0136517D01*
X0035124Y0134118D02*
X0040396Y0134118D01*
X0038458Y0132180D02*
X0037220Y0130942D01*
X0036550Y0129325D01*
X0036550Y0096275D01*
X0031105Y0096275D01*
X0029401Y0096981D01*
X0027499Y0096981D01*
X0025742Y0096253D01*
X0024399Y0094910D01*
X0024725Y0100091D01*
X0024875Y0099941D01*
X0027437Y0098880D01*
X0030211Y0098880D01*
X0032773Y0099941D01*
X0034734Y0101902D01*
X0035796Y0104465D01*
X0035796Y0107238D01*
X0034734Y0109801D01*
X0032773Y0111762D01*
X0030211Y0112823D01*
X0027437Y0112823D01*
X0026677Y0112508D01*
X0026919Y0113778D01*
X0030200Y0123877D01*
X0034721Y0133484D01*
X0040411Y0142449D01*
X0047179Y0150630D01*
X0054919Y0157899D01*
X0056221Y0158845D01*
X0057068Y0156801D01*
X0059084Y0154784D01*
X0060483Y0154205D01*
X0038458Y0132180D01*
X0037997Y0131720D02*
X0033891Y0131720D01*
X0032762Y0129321D02*
X0036550Y0129321D01*
X0036550Y0126923D02*
X0031634Y0126923D01*
X0030505Y0124524D02*
X0036550Y0124524D01*
X0036550Y0122126D02*
X0029632Y0122126D01*
X0028852Y0119727D02*
X0036550Y0119727D01*
X0036550Y0117329D02*
X0028073Y0117329D01*
X0027294Y0114930D02*
X0036550Y0114930D01*
X0036550Y0112532D02*
X0030915Y0112532D01*
X0026733Y0112532D02*
X0026681Y0112532D01*
X0034402Y0110133D02*
X0036550Y0110133D01*
X0036550Y0107734D02*
X0035590Y0107734D01*
X0035796Y0105336D02*
X0036550Y0105336D01*
X0036550Y0102937D02*
X0035163Y0102937D01*
X0036550Y0100539D02*
X0033371Y0100539D01*
X0036550Y0098140D02*
X0024602Y0098140D01*
X0024451Y0095742D02*
X0025230Y0095742D01*
X0038168Y0138915D02*
X0045193Y0138915D01*
X0047591Y0141314D02*
X0039690Y0141314D01*
X0041456Y0143712D02*
X0049990Y0143712D01*
X0052388Y0146111D02*
X0043440Y0146111D01*
X0045424Y0148509D02*
X0054787Y0148509D01*
X0057185Y0150908D02*
X0047474Y0150908D01*
X0050028Y0153306D02*
X0059584Y0153306D01*
X0058164Y0155705D02*
X0052583Y0155705D01*
X0055200Y0158103D02*
X0056528Y0158103D01*
X0118245Y0122126D02*
X0187997Y0122126D01*
X0188776Y0119727D02*
X0118856Y0119727D01*
X0118268Y0117329D02*
X0189555Y0117329D01*
X0190335Y0114930D02*
X0117475Y0114930D01*
X0174879Y0162900D02*
X0222200Y0162900D01*
X0222200Y0165299D02*
X0172324Y0165299D01*
X0169598Y0167697D02*
X0222200Y0167697D01*
X0222200Y0170096D02*
X0166297Y0170096D01*
X0162996Y0172494D02*
X0222200Y0172494D01*
X0222200Y0174893D02*
X0159420Y0174893D01*
X0155057Y0177291D02*
X0222200Y0177291D01*
X0222200Y0179690D02*
X0150694Y0179690D01*
X0144935Y0182088D02*
X0222200Y0182088D01*
X0222200Y0160502D02*
X0177433Y0160502D01*
X0179811Y0158103D02*
X0222200Y0158103D01*
X0222200Y0155705D02*
X0181795Y0155705D01*
X0166307Y0030982D02*
X0165775Y0030982D01*
D12*
X0128499Y0037633D03*
X0099075Y0114075D03*
X0114075Y0119700D03*
X0068450Y0127825D03*
X0028450Y0092200D03*
D13*
X0028775Y0091875D01*
X0039651Y0091875D01*
X0040950Y0093174D01*
X0040950Y0128450D01*
X0064700Y0152200D01*
X0100950Y0152200D01*
X0105866Y0157116D01*
X0105866Y0161195D01*
X0094700Y0127825D02*
X0068450Y0127825D01*
X0094700Y0127825D02*
X0099075Y0123450D01*
X0099075Y0114075D01*
D14*
X0152200Y0107200D02*
X0152200Y0057200D01*
X0159700Y0050074D02*
X0159700Y0099700D01*
X0124700Y0067200D02*
X0134700Y0057200D01*
X0134700Y0052200D01*
X0129700Y0057200D02*
X0102200Y0029700D01*
X0059700Y0029700D01*
X0058211Y0029085D01*
X0059700Y0067200D02*
X0058211Y0069085D01*
X0059700Y0067200D02*
X0114075Y0067200D01*
D15*
X0129700Y0057200D03*
X0134700Y0052200D03*
X0152200Y0057200D03*
X0159700Y0099700D03*
X0152200Y0107200D03*
D16*
X0114075Y0119700D02*
X0114075Y0067200D01*
X0124700Y0067200D01*
X0132436Y0041570D02*
X0128499Y0037633D01*
X0132436Y0041570D02*
X0152121Y0041570D01*
X0159700Y0049149D01*
X0159700Y0050074D01*
M02*
