%
M48
M72
T01C0.02362
T02C0.02400
T03C0.03543
T04C0.03937
T05C0.04000
%
T01
X28450Y92200
X68450Y127825
X99075Y114075
X114075Y119700
X128499Y37633
T02
X134700Y52200
X129700Y57200
X152200Y57200
X159700Y99700
X152200Y107200
T03
X28824Y105852
X28824Y77899
T04
X63145Y160861
T05
X58211Y29085
X58211Y39085
X58211Y49085
X58211Y59085
X58211Y69085
X159995Y39759
X159995Y29759
X105866Y161195
X95866Y161195
X85866Y161195
X75866Y161195
M30
