G75*
%MOIN*%
%OFA0B0*%
%FSLAX25Y25*%
%IPPOS*%
%LPD*%
%AMOC8*
5,1,8,0,0,1.08239X$1,22.5*
%
%ADD10C,0.00400*%
%ADD11C,0.01600*%
%ADD12C,0.00600*%
%ADD13C,0.00100*%
%ADD14C,0.00500*%
%ADD15C,0.00300*%
%ADD16R,0.11811X0.11811*%
%ADD17C,0.00800*%
%ADD18C,0.00200*%
%ADD19C,0.00000*%
D10*
X0047400Y0027400D02*
X0048935Y0028935D01*
X0050469Y0027400D01*
X0050469Y0032004D01*
X0047400Y0032004D02*
X0047400Y0027400D01*
X0047400Y0037400D02*
X0049702Y0037400D01*
X0050469Y0038167D01*
X0050469Y0038935D01*
X0049702Y0039702D01*
X0047400Y0039702D01*
X0047400Y0037400D02*
X0047400Y0042004D01*
X0049702Y0042004D01*
X0050469Y0041237D01*
X0050469Y0040469D01*
X0049702Y0039702D01*
X0049702Y0047400D02*
X0048167Y0047400D01*
X0047400Y0048167D01*
X0047400Y0051237D01*
X0048167Y0052004D01*
X0049702Y0052004D01*
X0050469Y0051237D01*
X0050469Y0049702D02*
X0048935Y0049702D01*
X0050469Y0049702D02*
X0050469Y0048167D01*
X0049702Y0047400D01*
X0050469Y0057400D02*
X0048935Y0058935D01*
X0049702Y0058935D02*
X0047400Y0058935D01*
X0047400Y0057400D02*
X0047400Y0062004D01*
X0049702Y0062004D01*
X0050469Y0061237D01*
X0050469Y0059702D01*
X0049702Y0058935D01*
X0049504Y0066150D02*
X0049504Y0070754D01*
X0051806Y0070754D01*
X0052573Y0069987D01*
X0052573Y0068452D01*
X0051806Y0067685D01*
X0049504Y0067685D01*
X0047969Y0067685D02*
X0047969Y0066917D01*
X0047202Y0066150D01*
X0044900Y0066150D01*
X0044900Y0070754D01*
X0047202Y0070754D01*
X0047969Y0069987D01*
X0047969Y0069219D01*
X0047202Y0068452D01*
X0044900Y0068452D01*
X0047202Y0068452D02*
X0047969Y0067685D01*
X0087121Y0110688D02*
X0087121Y0116826D01*
X0086354Y0116059D02*
X0087889Y0116059D01*
X0088656Y0115292D01*
X0090191Y0114524D02*
X0091725Y0116059D01*
X0091725Y0111455D01*
X0090191Y0111455D02*
X0093260Y0111455D01*
X0088656Y0112222D02*
X0088656Y0112990D01*
X0087889Y0113757D01*
X0086354Y0113757D01*
X0085587Y0114524D01*
X0085587Y0115292D01*
X0086354Y0116059D01*
X0084052Y0116059D02*
X0084052Y0112222D01*
X0083285Y0111455D01*
X0081750Y0111455D01*
X0080983Y0112222D01*
X0080983Y0116059D01*
X0085587Y0112222D02*
X0086354Y0111455D01*
X0087889Y0111455D01*
X0088656Y0112222D01*
X0088541Y0160776D02*
X0087774Y0161543D01*
X0088541Y0160776D02*
X0090076Y0160776D01*
X0090843Y0161543D01*
X0090843Y0163078D01*
X0090076Y0163845D01*
X0089309Y0163845D01*
X0087774Y0163078D01*
X0087774Y0165380D01*
X0090843Y0165380D01*
X0092378Y0165380D02*
X0092378Y0162311D01*
X0093913Y0160776D01*
X0095447Y0162311D01*
X0095447Y0165380D01*
X0099024Y0164613D02*
X0099024Y0161543D01*
X0099791Y0160776D01*
X0101326Y0160776D01*
X0102093Y0161543D01*
X0102093Y0163078D01*
X0100559Y0163078D01*
X0102093Y0164613D02*
X0101326Y0165380D01*
X0099791Y0165380D01*
X0099024Y0164613D01*
X0103628Y0165380D02*
X0103628Y0160776D01*
X0106697Y0160776D02*
X0106697Y0165380D01*
X0108232Y0165380D02*
X0110534Y0165380D01*
X0111301Y0164613D01*
X0111301Y0161543D01*
X0110534Y0160776D01*
X0108232Y0160776D01*
X0108232Y0165380D01*
X0103628Y0165380D02*
X0106697Y0160776D01*
X0117774Y0160776D02*
X0120076Y0160776D01*
X0120843Y0161543D01*
X0120843Y0162311D01*
X0120076Y0163078D01*
X0117774Y0163078D01*
X0117774Y0165380D02*
X0120076Y0165380D01*
X0120843Y0164613D01*
X0120843Y0163845D01*
X0120076Y0163078D01*
X0122378Y0163078D02*
X0125447Y0163078D01*
X0125447Y0163845D02*
X0125447Y0160776D01*
X0122378Y0160776D02*
X0122378Y0163845D01*
X0123913Y0165380D01*
X0125447Y0163845D01*
X0126982Y0165380D02*
X0130051Y0165380D01*
X0128516Y0165380D02*
X0128516Y0160776D01*
X0117774Y0160776D02*
X0117774Y0165380D01*
D11*
X0018263Y0092751D02*
X0018290Y0094973D01*
X0018372Y0097194D01*
X0018508Y0099412D01*
X0018699Y0101627D01*
X0018944Y0103835D01*
X0019243Y0106038D01*
X0019596Y0108232D01*
X0020003Y0110417D01*
X0020463Y0112591D01*
X0020977Y0114753D01*
X0021543Y0116902D01*
X0022162Y0119037D01*
X0022833Y0121155D01*
X0023556Y0123257D01*
X0024331Y0125340D01*
X0025156Y0127403D01*
X0026031Y0129446D01*
X0026957Y0131467D01*
X0027932Y0133464D01*
X0028955Y0135436D01*
X0030027Y0137383D01*
X0031146Y0139304D01*
X0032312Y0141196D01*
X0033524Y0143058D01*
X0034781Y0144891D01*
X0036083Y0146692D01*
X0037428Y0148461D01*
X0038817Y0150196D01*
X0040248Y0151896D01*
X0041720Y0153561D01*
X0043233Y0155190D01*
X0044785Y0156780D01*
X0046375Y0158332D01*
X0048004Y0159845D01*
X0049669Y0161317D01*
X0051369Y0162748D01*
X0053104Y0164137D01*
X0054873Y0165482D01*
X0056674Y0166784D01*
X0058507Y0168041D01*
X0060369Y0169253D01*
X0062261Y0170419D01*
X0064182Y0171538D01*
X0066129Y0172610D01*
X0068101Y0173633D01*
X0070098Y0174608D01*
X0072119Y0175534D01*
X0074162Y0176409D01*
X0076225Y0177234D01*
X0078308Y0178009D01*
X0080410Y0178732D01*
X0082528Y0179403D01*
X0084663Y0180022D01*
X0086812Y0180588D01*
X0088974Y0181102D01*
X0091148Y0181562D01*
X0093333Y0181969D01*
X0095527Y0182322D01*
X0097730Y0182621D01*
X0099938Y0182866D01*
X0102153Y0183057D01*
X0104371Y0183193D01*
X0106592Y0183275D01*
X0108814Y0183302D01*
X0111036Y0183275D01*
X0113257Y0183193D01*
X0115475Y0183057D01*
X0117690Y0182866D01*
X0119898Y0182621D01*
X0122101Y0182322D01*
X0124295Y0181969D01*
X0126480Y0181562D01*
X0128654Y0181102D01*
X0130816Y0180588D01*
X0132965Y0180022D01*
X0135100Y0179403D01*
X0137218Y0178732D01*
X0139320Y0178009D01*
X0141403Y0177234D01*
X0143466Y0176409D01*
X0145509Y0175534D01*
X0147530Y0174608D01*
X0149527Y0173633D01*
X0151499Y0172610D01*
X0153446Y0171538D01*
X0155367Y0170419D01*
X0157259Y0169253D01*
X0159121Y0168041D01*
X0160954Y0166784D01*
X0162755Y0165482D01*
X0164524Y0164137D01*
X0166259Y0162748D01*
X0167959Y0161317D01*
X0169624Y0159845D01*
X0171253Y0158332D01*
X0172843Y0156780D01*
X0174395Y0155190D01*
X0175908Y0153561D01*
X0177380Y0151896D01*
X0178811Y0150196D01*
X0180200Y0148461D01*
X0181545Y0146692D01*
X0182847Y0144891D01*
X0184104Y0143058D01*
X0185316Y0141196D01*
X0186482Y0139304D01*
X0187601Y0137383D01*
X0188673Y0135436D01*
X0189696Y0133464D01*
X0190671Y0131467D01*
X0191597Y0129446D01*
X0192472Y0127403D01*
X0193297Y0125340D01*
X0194072Y0123257D01*
X0194795Y0121155D01*
X0195466Y0119037D01*
X0196085Y0116902D01*
X0196651Y0114753D01*
X0197165Y0112591D01*
X0197625Y0110417D01*
X0198032Y0108232D01*
X0198385Y0106038D01*
X0198684Y0103835D01*
X0198929Y0101627D01*
X0199120Y0099412D01*
X0199256Y0097194D01*
X0199338Y0094973D01*
X0199365Y0092751D01*
X0199338Y0090529D01*
X0199256Y0088308D01*
X0199120Y0086090D01*
X0198929Y0083875D01*
X0198684Y0081667D01*
X0198385Y0079464D01*
X0198032Y0077270D01*
X0197625Y0075085D01*
X0197165Y0072911D01*
X0196651Y0070749D01*
X0196085Y0068600D01*
X0195466Y0066465D01*
X0194795Y0064347D01*
X0194072Y0062245D01*
X0193297Y0060162D01*
X0192472Y0058099D01*
X0191597Y0056056D01*
X0190671Y0054035D01*
X0189696Y0052038D01*
X0188673Y0050066D01*
X0187601Y0048119D01*
X0186482Y0046198D01*
X0185316Y0044306D01*
X0184104Y0042444D01*
X0182847Y0040611D01*
X0181545Y0038810D01*
X0180200Y0037041D01*
X0178811Y0035306D01*
X0177380Y0033606D01*
X0175908Y0031941D01*
X0174395Y0030312D01*
X0172843Y0028722D01*
X0171253Y0027170D01*
X0169624Y0025657D01*
X0167959Y0024185D01*
X0166259Y0022754D01*
X0164524Y0021365D01*
X0162755Y0020020D01*
X0160954Y0018718D01*
X0159121Y0017461D01*
X0157259Y0016249D01*
X0155367Y0015083D01*
X0153446Y0013964D01*
X0151499Y0012892D01*
X0149527Y0011869D01*
X0147530Y0010894D01*
X0145509Y0009968D01*
X0143466Y0009093D01*
X0141403Y0008268D01*
X0139320Y0007493D01*
X0137218Y0006770D01*
X0135100Y0006099D01*
X0132965Y0005480D01*
X0130816Y0004914D01*
X0128654Y0004400D01*
X0126480Y0003940D01*
X0124295Y0003533D01*
X0122101Y0003180D01*
X0119898Y0002881D01*
X0117690Y0002636D01*
X0115475Y0002445D01*
X0113257Y0002309D01*
X0111036Y0002227D01*
X0108814Y0002200D01*
X0106592Y0002227D01*
X0104371Y0002309D01*
X0102153Y0002445D01*
X0099938Y0002636D01*
X0097730Y0002881D01*
X0095527Y0003180D01*
X0093333Y0003533D01*
X0091148Y0003940D01*
X0088974Y0004400D01*
X0086812Y0004914D01*
X0084663Y0005480D01*
X0082528Y0006099D01*
X0080410Y0006770D01*
X0078308Y0007493D01*
X0076225Y0008268D01*
X0074162Y0009093D01*
X0072119Y0009968D01*
X0070098Y0010894D01*
X0068101Y0011869D01*
X0066129Y0012892D01*
X0064182Y0013964D01*
X0062261Y0015083D01*
X0060369Y0016249D01*
X0058507Y0017461D01*
X0056674Y0018718D01*
X0054873Y0020020D01*
X0053104Y0021365D01*
X0051369Y0022754D01*
X0049669Y0024185D01*
X0048004Y0025657D01*
X0046375Y0027170D01*
X0044785Y0028722D01*
X0043233Y0030312D01*
X0041720Y0031941D01*
X0040248Y0033606D01*
X0038817Y0035306D01*
X0037428Y0037041D01*
X0036083Y0038810D01*
X0034781Y0040611D01*
X0033524Y0042444D01*
X0032312Y0044306D01*
X0031146Y0046198D01*
X0030027Y0048119D01*
X0028955Y0050066D01*
X0027932Y0052038D01*
X0026957Y0054035D01*
X0026031Y0056056D01*
X0025156Y0058099D01*
X0024331Y0060162D01*
X0023556Y0062245D01*
X0022833Y0064347D01*
X0022162Y0066465D01*
X0021543Y0068600D01*
X0020977Y0070749D01*
X0020463Y0072911D01*
X0020003Y0075085D01*
X0019596Y0077270D01*
X0019243Y0079464D01*
X0018944Y0081667D01*
X0018699Y0083875D01*
X0018508Y0086090D01*
X0018372Y0088308D01*
X0018290Y0090529D01*
X0018263Y0092751D01*
D12*
X0057592Y0098783D02*
X0059954Y0098783D01*
X0059954Y0103508D02*
X0057592Y0103508D01*
X0057691Y0111730D02*
X0060054Y0111730D01*
X0060054Y0116454D02*
X0057691Y0116454D01*
X0057699Y0124065D02*
X0060061Y0124065D01*
X0060061Y0128789D02*
X0057699Y0128789D01*
X0057704Y0136110D02*
X0060066Y0136110D01*
X0060066Y0140835D02*
X0057704Y0140835D01*
X0159051Y0142185D02*
X0161414Y0142185D01*
X0161414Y0137461D02*
X0159051Y0137461D01*
X0159072Y0129923D02*
X0161434Y0129923D01*
X0161434Y0125199D02*
X0159072Y0125199D01*
X0158914Y0117397D02*
X0161277Y0117397D01*
X0161277Y0112673D02*
X0158914Y0112673D01*
X0114142Y0016130D02*
X0111780Y0016130D01*
X0111780Y0011405D02*
X0114142Y0011405D01*
D13*
X0114056Y0010469D02*
X0113556Y0010469D01*
X0113806Y0010469D02*
X0113806Y0008967D01*
X0113556Y0008967D02*
X0114056Y0008967D01*
X0114538Y0008967D02*
X0114538Y0010469D01*
X0115038Y0009968D01*
X0115539Y0010469D01*
X0115539Y0008967D01*
X0113083Y0008967D02*
X0112083Y0008967D01*
X0112083Y0010469D01*
X0111610Y0009968D02*
X0111610Y0008967D01*
X0111610Y0009718D02*
X0110609Y0009718D01*
X0110609Y0009968D02*
X0111110Y0010469D01*
X0111610Y0009968D01*
X0110609Y0009968D02*
X0110609Y0008967D01*
X0110137Y0009718D02*
X0109136Y0009718D01*
X0108664Y0009218D02*
X0108414Y0008967D01*
X0107913Y0008967D01*
X0107663Y0009218D01*
X0107663Y0010218D01*
X0107913Y0010469D01*
X0108414Y0010469D01*
X0108664Y0010218D01*
X0061350Y0096345D02*
X0060349Y0097847D01*
X0060349Y0096345D01*
X0059877Y0096345D02*
X0058876Y0096345D01*
X0058876Y0097847D01*
X0059877Y0097847D01*
X0059377Y0097096D02*
X0058876Y0097096D01*
X0058404Y0097096D02*
X0057403Y0097096D01*
X0056930Y0097096D02*
X0056680Y0096846D01*
X0055930Y0096846D01*
X0056430Y0096846D02*
X0056930Y0096345D01*
X0056930Y0097096D02*
X0056930Y0097596D01*
X0056680Y0097847D01*
X0055930Y0097847D01*
X0055930Y0096345D01*
X0061350Y0096345D02*
X0061350Y0097847D01*
X0061093Y0117392D02*
X0061343Y0117642D01*
X0061343Y0118143D01*
X0060843Y0118143D01*
X0061343Y0118643D02*
X0061093Y0118893D01*
X0060592Y0118893D01*
X0060342Y0118643D01*
X0060342Y0117642D01*
X0060592Y0117392D01*
X0061093Y0117392D01*
X0061815Y0117392D02*
X0061815Y0118893D01*
X0062816Y0117392D01*
X0062816Y0118893D01*
X0063289Y0118893D02*
X0063289Y0117392D01*
X0064039Y0117392D01*
X0064290Y0117642D01*
X0064290Y0118643D01*
X0064039Y0118893D01*
X0063289Y0118893D01*
X0061208Y0121627D02*
X0061458Y0121877D01*
X0061208Y0121627D02*
X0060707Y0121627D01*
X0060457Y0121877D01*
X0060457Y0122878D01*
X0060707Y0123128D01*
X0061208Y0123128D01*
X0061458Y0122878D01*
X0059985Y0122878D02*
X0059734Y0123128D01*
X0059234Y0123128D01*
X0058984Y0122878D01*
X0058984Y0121877D01*
X0059234Y0121627D01*
X0059734Y0121627D01*
X0059985Y0121877D01*
X0058511Y0122128D02*
X0058511Y0123128D01*
X0058511Y0122128D02*
X0058011Y0121627D01*
X0057511Y0122128D01*
X0057511Y0123128D01*
X0057038Y0122878D02*
X0057038Y0122378D01*
X0056788Y0122128D01*
X0056037Y0122128D01*
X0056037Y0121627D02*
X0056037Y0123128D01*
X0056788Y0123128D01*
X0057038Y0122878D01*
X0055565Y0122378D02*
X0054564Y0122378D01*
X0054092Y0122378D02*
X0053841Y0122128D01*
X0053091Y0122128D01*
X0053591Y0122128D02*
X0054092Y0121627D01*
X0054092Y0122378D02*
X0054092Y0122878D01*
X0053841Y0123128D01*
X0053091Y0123128D01*
X0053091Y0121627D01*
X0055922Y0118893D02*
X0056673Y0118893D01*
X0056923Y0118643D01*
X0056923Y0118143D01*
X0056673Y0117893D01*
X0055922Y0117893D01*
X0056423Y0117893D02*
X0056923Y0117392D01*
X0057396Y0118143D02*
X0058397Y0118143D01*
X0058869Y0117893D02*
X0059620Y0117893D01*
X0059870Y0118143D01*
X0059870Y0118643D01*
X0059620Y0118893D01*
X0058869Y0118893D01*
X0058869Y0117392D01*
X0055922Y0117392D02*
X0055922Y0118893D01*
X0056042Y0133673D02*
X0057043Y0133673D01*
X0057515Y0133923D02*
X0057765Y0133673D01*
X0058266Y0133673D01*
X0058516Y0133923D01*
X0058516Y0134173D01*
X0058266Y0134423D01*
X0057765Y0134423D01*
X0057515Y0134674D01*
X0057515Y0134924D01*
X0057765Y0135174D01*
X0058266Y0135174D01*
X0058516Y0134924D01*
X0058988Y0135174D02*
X0058988Y0133673D01*
X0059989Y0133673D01*
X0059489Y0134423D02*
X0058988Y0134423D01*
X0058988Y0135174D02*
X0059989Y0135174D01*
X0060461Y0135174D02*
X0061462Y0135174D01*
X0060962Y0135174D02*
X0060962Y0133673D01*
X0057043Y0135174D02*
X0056042Y0135174D01*
X0056042Y0133673D01*
X0055569Y0133673D02*
X0055069Y0134173D01*
X0055319Y0134173D02*
X0054568Y0134173D01*
X0054568Y0133673D02*
X0054568Y0135174D01*
X0055319Y0135174D01*
X0055569Y0134924D01*
X0055569Y0134423D01*
X0055319Y0134173D01*
X0056042Y0134423D02*
X0056542Y0134423D01*
X0054096Y0134423D02*
X0053095Y0134423D01*
X0052623Y0134423D02*
X0052373Y0134173D01*
X0051622Y0134173D01*
X0051622Y0133673D02*
X0051622Y0135174D01*
X0052373Y0135174D01*
X0052623Y0134924D01*
X0052623Y0134423D01*
X0052122Y0134173D02*
X0052623Y0133673D01*
X0155779Y0111736D02*
X0155779Y0110235D01*
X0155779Y0110735D02*
X0156530Y0110735D01*
X0156780Y0110986D01*
X0156780Y0111486D01*
X0156530Y0111736D01*
X0155779Y0111736D01*
X0156280Y0110735D02*
X0156780Y0110235D01*
X0157252Y0110986D02*
X0158253Y0110986D01*
X0158726Y0111486D02*
X0158726Y0110485D01*
X0158976Y0110235D01*
X0159476Y0110235D01*
X0159727Y0110485D01*
X0159727Y0110986D01*
X0159226Y0110986D01*
X0158726Y0111486D02*
X0158976Y0111736D01*
X0159476Y0111736D01*
X0159727Y0111486D01*
X0160199Y0111236D02*
X0160699Y0111736D01*
X0160699Y0110235D01*
X0160199Y0110235D02*
X0161200Y0110235D01*
X0161672Y0110485D02*
X0161922Y0110235D01*
X0162423Y0110235D01*
X0162673Y0110485D01*
X0162673Y0110986D01*
X0162423Y0111236D01*
X0162173Y0111236D01*
X0161672Y0110986D01*
X0161672Y0111736D01*
X0162673Y0111736D01*
X0162474Y0130861D02*
X0161973Y0130861D01*
X0161723Y0131111D01*
X0162724Y0132112D01*
X0162724Y0131111D01*
X0162474Y0130861D01*
X0161723Y0131111D02*
X0161723Y0132112D01*
X0161973Y0132362D01*
X0162474Y0132362D01*
X0162724Y0132112D01*
X0161251Y0132112D02*
X0161001Y0132362D01*
X0160500Y0132362D01*
X0160250Y0132112D01*
X0160250Y0131111D01*
X0160500Y0130861D01*
X0161001Y0130861D01*
X0161251Y0131111D01*
X0161251Y0131612D01*
X0160750Y0131612D01*
X0159777Y0131612D02*
X0158777Y0131612D01*
X0158304Y0131612D02*
X0158054Y0131361D01*
X0157303Y0131361D01*
X0157303Y0130861D02*
X0157303Y0132362D01*
X0158054Y0132362D01*
X0158304Y0132112D01*
X0158304Y0131612D01*
X0157804Y0131361D02*
X0158304Y0130861D01*
X0158283Y0143123D02*
X0157783Y0143623D01*
X0158033Y0143623D02*
X0157282Y0143623D01*
X0157282Y0143123D02*
X0157282Y0144624D01*
X0158033Y0144624D01*
X0158283Y0144374D01*
X0158283Y0143874D01*
X0158033Y0143623D01*
X0158756Y0143874D02*
X0159757Y0143874D01*
X0160229Y0144374D02*
X0160229Y0143373D01*
X0160479Y0143123D01*
X0160980Y0143123D01*
X0161230Y0143373D01*
X0161230Y0143874D01*
X0160729Y0143874D01*
X0160229Y0144374D02*
X0160479Y0144624D01*
X0160980Y0144624D01*
X0161230Y0144374D01*
X0161702Y0144624D02*
X0161702Y0143874D01*
X0162203Y0144124D01*
X0162453Y0144124D01*
X0162703Y0143874D01*
X0162703Y0143373D01*
X0162453Y0143123D01*
X0161952Y0143123D01*
X0161702Y0143373D01*
X0161702Y0144624D02*
X0162703Y0144624D01*
D14*
X0121626Y0145124D02*
X0121626Y0143623D01*
X0120875Y0142873D01*
X0118623Y0142873D01*
X0120124Y0142873D02*
X0121626Y0141371D01*
X0118623Y0141371D02*
X0118623Y0145875D01*
X0120875Y0145875D01*
X0121626Y0145124D01*
X0117022Y0145875D02*
X0114019Y0145875D01*
X0114019Y0141371D01*
X0117022Y0141371D01*
X0115521Y0143623D02*
X0114019Y0143623D01*
X0112418Y0143623D02*
X0110917Y0143623D01*
X0112418Y0143623D02*
X0112418Y0142122D01*
X0111667Y0141371D01*
X0110166Y0141371D01*
X0109415Y0142122D01*
X0109415Y0145124D01*
X0110166Y0145875D01*
X0111667Y0145875D01*
X0112418Y0145124D01*
X0107814Y0145124D02*
X0107814Y0143623D01*
X0107063Y0142873D01*
X0104811Y0142873D01*
X0106313Y0142873D02*
X0107814Y0141371D01*
X0104811Y0141371D02*
X0104811Y0145875D01*
X0107063Y0145875D01*
X0107814Y0145124D01*
X0103210Y0144374D02*
X0103210Y0141371D01*
X0103210Y0143623D02*
X0100207Y0143623D01*
X0100207Y0144374D02*
X0101709Y0145875D01*
X0103210Y0144374D01*
X0100207Y0144374D02*
X0100207Y0141371D01*
X0098606Y0141371D02*
X0098606Y0145875D01*
X0098606Y0143623D02*
X0095604Y0143623D01*
X0094002Y0142122D02*
X0093252Y0141371D01*
X0091750Y0141371D01*
X0091000Y0142122D01*
X0091000Y0145124D01*
X0091750Y0145875D01*
X0093252Y0145875D01*
X0094002Y0145124D01*
X0095604Y0145875D02*
X0095604Y0141371D01*
X0081176Y0108893D02*
X0136294Y0108893D01*
X0136294Y0101019D01*
X0144169Y0101019D01*
X0144169Y0108893D01*
X0136294Y0108893D01*
X0139837Y0104956D02*
X0139839Y0104995D01*
X0139845Y0105034D01*
X0139855Y0105072D01*
X0139868Y0105109D01*
X0139885Y0105144D01*
X0139905Y0105178D01*
X0139929Y0105209D01*
X0139956Y0105238D01*
X0139985Y0105264D01*
X0140017Y0105287D01*
X0140051Y0105307D01*
X0140087Y0105323D01*
X0140124Y0105335D01*
X0140163Y0105344D01*
X0140202Y0105349D01*
X0140241Y0105350D01*
X0140280Y0105347D01*
X0140319Y0105340D01*
X0140356Y0105329D01*
X0140393Y0105315D01*
X0140428Y0105297D01*
X0140461Y0105276D01*
X0140492Y0105251D01*
X0140520Y0105224D01*
X0140545Y0105194D01*
X0140567Y0105161D01*
X0140586Y0105127D01*
X0140601Y0105091D01*
X0140613Y0105053D01*
X0140621Y0105015D01*
X0140625Y0104976D01*
X0140625Y0104936D01*
X0140621Y0104897D01*
X0140613Y0104859D01*
X0140601Y0104821D01*
X0140586Y0104785D01*
X0140567Y0104751D01*
X0140545Y0104718D01*
X0140520Y0104688D01*
X0140492Y0104661D01*
X0140461Y0104636D01*
X0140428Y0104615D01*
X0140393Y0104597D01*
X0140356Y0104583D01*
X0140319Y0104572D01*
X0140280Y0104565D01*
X0140241Y0104562D01*
X0140202Y0104563D01*
X0140163Y0104568D01*
X0140124Y0104577D01*
X0140087Y0104589D01*
X0140051Y0104605D01*
X0140017Y0104625D01*
X0139985Y0104648D01*
X0139956Y0104674D01*
X0139929Y0104703D01*
X0139905Y0104734D01*
X0139885Y0104768D01*
X0139868Y0104803D01*
X0139855Y0104840D01*
X0139845Y0104878D01*
X0139839Y0104917D01*
X0139837Y0104956D01*
X0137057Y0104956D02*
X0137059Y0105068D01*
X0137065Y0105180D01*
X0137075Y0105291D01*
X0137089Y0105403D01*
X0137106Y0105513D01*
X0137128Y0105623D01*
X0137153Y0105732D01*
X0137183Y0105840D01*
X0137216Y0105947D01*
X0137253Y0106053D01*
X0137293Y0106158D01*
X0137338Y0106261D01*
X0137385Y0106362D01*
X0137437Y0106461D01*
X0137492Y0106559D01*
X0137550Y0106655D01*
X0137612Y0106748D01*
X0137676Y0106840D01*
X0137744Y0106929D01*
X0137816Y0107015D01*
X0137890Y0107099D01*
X0137967Y0107180D01*
X0138047Y0107259D01*
X0138129Y0107335D01*
X0138215Y0107407D01*
X0138302Y0107477D01*
X0138393Y0107543D01*
X0138485Y0107607D01*
X0138580Y0107667D01*
X0138676Y0107723D01*
X0138775Y0107776D01*
X0138876Y0107826D01*
X0138978Y0107872D01*
X0139081Y0107914D01*
X0139186Y0107953D01*
X0139293Y0107988D01*
X0139400Y0108019D01*
X0139509Y0108047D01*
X0139619Y0108070D01*
X0139729Y0108090D01*
X0139840Y0108106D01*
X0139951Y0108118D01*
X0140063Y0108126D01*
X0140175Y0108130D01*
X0140287Y0108130D01*
X0140399Y0108126D01*
X0140511Y0108118D01*
X0140622Y0108106D01*
X0140733Y0108090D01*
X0140843Y0108070D01*
X0140953Y0108047D01*
X0141062Y0108019D01*
X0141169Y0107988D01*
X0141276Y0107953D01*
X0141381Y0107914D01*
X0141484Y0107872D01*
X0141586Y0107826D01*
X0141687Y0107776D01*
X0141786Y0107723D01*
X0141882Y0107667D01*
X0141977Y0107607D01*
X0142069Y0107543D01*
X0142160Y0107477D01*
X0142247Y0107407D01*
X0142333Y0107335D01*
X0142415Y0107259D01*
X0142495Y0107180D01*
X0142572Y0107099D01*
X0142646Y0107015D01*
X0142718Y0106929D01*
X0142786Y0106840D01*
X0142850Y0106748D01*
X0142912Y0106655D01*
X0142970Y0106559D01*
X0143025Y0106461D01*
X0143077Y0106362D01*
X0143124Y0106261D01*
X0143169Y0106158D01*
X0143209Y0106053D01*
X0143246Y0105947D01*
X0143279Y0105840D01*
X0143309Y0105732D01*
X0143334Y0105623D01*
X0143356Y0105513D01*
X0143373Y0105403D01*
X0143387Y0105291D01*
X0143397Y0105180D01*
X0143403Y0105068D01*
X0143405Y0104956D01*
X0143403Y0104844D01*
X0143397Y0104732D01*
X0143387Y0104621D01*
X0143373Y0104509D01*
X0143356Y0104399D01*
X0143334Y0104289D01*
X0143309Y0104180D01*
X0143279Y0104072D01*
X0143246Y0103965D01*
X0143209Y0103859D01*
X0143169Y0103754D01*
X0143124Y0103651D01*
X0143077Y0103550D01*
X0143025Y0103451D01*
X0142970Y0103353D01*
X0142912Y0103257D01*
X0142850Y0103164D01*
X0142786Y0103072D01*
X0142718Y0102983D01*
X0142646Y0102897D01*
X0142572Y0102813D01*
X0142495Y0102732D01*
X0142415Y0102653D01*
X0142333Y0102577D01*
X0142247Y0102505D01*
X0142160Y0102435D01*
X0142069Y0102369D01*
X0141977Y0102305D01*
X0141882Y0102245D01*
X0141786Y0102189D01*
X0141687Y0102136D01*
X0141586Y0102086D01*
X0141484Y0102040D01*
X0141381Y0101998D01*
X0141276Y0101959D01*
X0141169Y0101924D01*
X0141062Y0101893D01*
X0140953Y0101865D01*
X0140843Y0101842D01*
X0140733Y0101822D01*
X0140622Y0101806D01*
X0140511Y0101794D01*
X0140399Y0101786D01*
X0140287Y0101782D01*
X0140175Y0101782D01*
X0140063Y0101786D01*
X0139951Y0101794D01*
X0139840Y0101806D01*
X0139729Y0101822D01*
X0139619Y0101842D01*
X0139509Y0101865D01*
X0139400Y0101893D01*
X0139293Y0101924D01*
X0139186Y0101959D01*
X0139081Y0101998D01*
X0138978Y0102040D01*
X0138876Y0102086D01*
X0138775Y0102136D01*
X0138676Y0102189D01*
X0138580Y0102245D01*
X0138485Y0102305D01*
X0138393Y0102369D01*
X0138302Y0102435D01*
X0138215Y0102505D01*
X0138129Y0102577D01*
X0138047Y0102653D01*
X0137967Y0102732D01*
X0137890Y0102813D01*
X0137816Y0102897D01*
X0137744Y0102983D01*
X0137676Y0103072D01*
X0137612Y0103164D01*
X0137550Y0103257D01*
X0137492Y0103353D01*
X0137437Y0103451D01*
X0137385Y0103550D01*
X0137338Y0103651D01*
X0137293Y0103754D01*
X0137253Y0103859D01*
X0137216Y0103965D01*
X0137183Y0104072D01*
X0137153Y0104180D01*
X0137128Y0104289D01*
X0137106Y0104399D01*
X0137089Y0104509D01*
X0137075Y0104621D01*
X0137065Y0104732D01*
X0137059Y0104844D01*
X0137057Y0104956D01*
X0144169Y0101019D02*
X0144169Y0085271D01*
X0144169Y0022279D01*
X0081176Y0022279D01*
X0081176Y0085271D01*
X0081176Y0108893D01*
X0148041Y0066479D02*
X0148792Y0066479D01*
X0150293Y0064978D01*
X0152545Y0064978D01*
X0150293Y0064978D02*
X0148792Y0063477D01*
X0148041Y0063477D01*
X0152545Y0061875D02*
X0152545Y0058873D01*
X0148041Y0058873D01*
X0148792Y0057271D02*
X0148041Y0056521D01*
X0148041Y0054269D01*
X0152545Y0054269D01*
X0151044Y0054269D02*
X0151044Y0056521D01*
X0150293Y0057271D01*
X0148792Y0057271D01*
X0148792Y0052667D02*
X0148041Y0051917D01*
X0148041Y0049665D01*
X0152545Y0049665D01*
X0151044Y0049665D02*
X0151044Y0051917D01*
X0150293Y0052667D01*
X0148792Y0052667D01*
X0148041Y0048064D02*
X0151795Y0048064D01*
X0152545Y0047313D01*
X0152545Y0045812D01*
X0151795Y0045061D01*
X0148041Y0045061D01*
X0148792Y0043460D02*
X0148041Y0042709D01*
X0148041Y0041208D01*
X0148792Y0040457D01*
X0149543Y0040457D01*
X0150293Y0041208D01*
X0150293Y0042709D01*
X0151044Y0043460D01*
X0151795Y0043460D01*
X0152545Y0042709D01*
X0152545Y0041208D01*
X0151795Y0040457D01*
X0050761Y0040534D02*
X0046257Y0040534D01*
X0046257Y0041284D02*
X0046257Y0039783D01*
X0050761Y0039783D02*
X0050761Y0041284D01*
X0050761Y0042852D02*
X0046257Y0045855D01*
X0047008Y0047456D02*
X0050010Y0047456D01*
X0050761Y0048207D01*
X0050761Y0049708D01*
X0050010Y0050459D01*
X0047008Y0050459D01*
X0046257Y0049708D01*
X0046257Y0048207D01*
X0047008Y0047456D01*
D15*
X0097468Y0094476D02*
X0099937Y0094476D01*
X0101151Y0095093D02*
X0101768Y0094476D01*
X0103003Y0094476D01*
X0103620Y0095093D01*
X0103620Y0095710D01*
X0103003Y0096328D01*
X0101768Y0096328D01*
X0101151Y0096945D01*
X0101151Y0097562D01*
X0101768Y0098179D01*
X0103003Y0098179D01*
X0103620Y0097562D01*
X0104834Y0098179D02*
X0104834Y0094476D01*
X0104834Y0095710D02*
X0106686Y0095710D01*
X0107303Y0096328D01*
X0107303Y0097562D01*
X0106686Y0098179D01*
X0104834Y0098179D01*
X0108518Y0096328D02*
X0110986Y0096328D01*
X0112201Y0097562D02*
X0112201Y0095093D01*
X0114669Y0097562D01*
X0114669Y0095093D01*
X0114052Y0094476D01*
X0112818Y0094476D01*
X0112201Y0095093D01*
X0112201Y0097562D02*
X0112818Y0098179D01*
X0114052Y0098179D01*
X0114669Y0097562D01*
X0115884Y0098179D02*
X0118353Y0098179D01*
X0118353Y0097562D01*
X0115884Y0095093D01*
X0115884Y0094476D01*
X0099937Y0098179D02*
X0097468Y0098179D01*
X0097468Y0094476D01*
X0097468Y0096328D02*
X0098702Y0096328D01*
D16*
X0090625Y0097476D03*
X0126058Y0097476D03*
D17*
X0035714Y0107623D02*
X0035714Y0109592D01*
X0021934Y0109592D01*
X0021934Y0074159D01*
X0035714Y0074159D01*
X0035714Y0076127D01*
D18*
X0025857Y0086975D02*
X0026224Y0087342D01*
X0026224Y0088076D01*
X0025857Y0088443D01*
X0025490Y0088443D01*
X0025123Y0088076D01*
X0025123Y0087342D01*
X0024756Y0086975D01*
X0024389Y0086975D01*
X0024022Y0087342D01*
X0024022Y0088076D01*
X0024389Y0088443D01*
X0024756Y0089185D02*
X0024022Y0089919D01*
X0026224Y0089919D01*
X0026224Y0089185D02*
X0026224Y0090653D01*
D19*
X0027052Y0077899D02*
X0027054Y0077983D01*
X0027060Y0078066D01*
X0027070Y0078149D01*
X0027084Y0078232D01*
X0027101Y0078314D01*
X0027123Y0078395D01*
X0027148Y0078474D01*
X0027177Y0078553D01*
X0027210Y0078630D01*
X0027246Y0078705D01*
X0027286Y0078779D01*
X0027329Y0078851D01*
X0027376Y0078920D01*
X0027426Y0078987D01*
X0027479Y0079052D01*
X0027535Y0079114D01*
X0027593Y0079174D01*
X0027655Y0079231D01*
X0027719Y0079284D01*
X0027786Y0079335D01*
X0027855Y0079382D01*
X0027926Y0079427D01*
X0027999Y0079467D01*
X0028074Y0079504D01*
X0028151Y0079538D01*
X0028229Y0079568D01*
X0028308Y0079594D01*
X0028389Y0079617D01*
X0028471Y0079635D01*
X0028553Y0079650D01*
X0028636Y0079661D01*
X0028719Y0079668D01*
X0028803Y0079671D01*
X0028887Y0079670D01*
X0028970Y0079665D01*
X0029054Y0079656D01*
X0029136Y0079643D01*
X0029218Y0079627D01*
X0029299Y0079606D01*
X0029380Y0079582D01*
X0029458Y0079554D01*
X0029536Y0079522D01*
X0029612Y0079486D01*
X0029686Y0079447D01*
X0029758Y0079405D01*
X0029828Y0079359D01*
X0029896Y0079310D01*
X0029961Y0079258D01*
X0030024Y0079203D01*
X0030084Y0079145D01*
X0030142Y0079084D01*
X0030196Y0079020D01*
X0030248Y0078954D01*
X0030296Y0078886D01*
X0030341Y0078815D01*
X0030382Y0078742D01*
X0030421Y0078668D01*
X0030455Y0078592D01*
X0030486Y0078514D01*
X0030513Y0078435D01*
X0030537Y0078354D01*
X0030556Y0078273D01*
X0030572Y0078191D01*
X0030584Y0078108D01*
X0030592Y0078024D01*
X0030596Y0077941D01*
X0030596Y0077857D01*
X0030592Y0077774D01*
X0030584Y0077690D01*
X0030572Y0077607D01*
X0030556Y0077525D01*
X0030537Y0077444D01*
X0030513Y0077363D01*
X0030486Y0077284D01*
X0030455Y0077206D01*
X0030421Y0077130D01*
X0030382Y0077056D01*
X0030341Y0076983D01*
X0030296Y0076912D01*
X0030248Y0076844D01*
X0030196Y0076778D01*
X0030142Y0076714D01*
X0030084Y0076653D01*
X0030024Y0076595D01*
X0029961Y0076540D01*
X0029896Y0076488D01*
X0029828Y0076439D01*
X0029758Y0076393D01*
X0029686Y0076351D01*
X0029612Y0076312D01*
X0029536Y0076276D01*
X0029458Y0076244D01*
X0029380Y0076216D01*
X0029299Y0076192D01*
X0029218Y0076171D01*
X0029136Y0076155D01*
X0029054Y0076142D01*
X0028970Y0076133D01*
X0028887Y0076128D01*
X0028803Y0076127D01*
X0028719Y0076130D01*
X0028636Y0076137D01*
X0028553Y0076148D01*
X0028471Y0076163D01*
X0028389Y0076181D01*
X0028308Y0076204D01*
X0028229Y0076230D01*
X0028151Y0076260D01*
X0028074Y0076294D01*
X0027999Y0076331D01*
X0027926Y0076371D01*
X0027855Y0076416D01*
X0027786Y0076463D01*
X0027719Y0076514D01*
X0027655Y0076567D01*
X0027593Y0076624D01*
X0027535Y0076684D01*
X0027479Y0076746D01*
X0027426Y0076811D01*
X0027376Y0076878D01*
X0027329Y0076947D01*
X0027286Y0077019D01*
X0027246Y0077093D01*
X0027210Y0077168D01*
X0027177Y0077245D01*
X0027148Y0077324D01*
X0027123Y0077403D01*
X0027101Y0077484D01*
X0027084Y0077566D01*
X0027070Y0077649D01*
X0027060Y0077732D01*
X0027054Y0077815D01*
X0027052Y0077899D01*
X0027052Y0105852D02*
X0027054Y0105936D01*
X0027060Y0106019D01*
X0027070Y0106102D01*
X0027084Y0106185D01*
X0027101Y0106267D01*
X0027123Y0106348D01*
X0027148Y0106427D01*
X0027177Y0106506D01*
X0027210Y0106583D01*
X0027246Y0106658D01*
X0027286Y0106732D01*
X0027329Y0106804D01*
X0027376Y0106873D01*
X0027426Y0106940D01*
X0027479Y0107005D01*
X0027535Y0107067D01*
X0027593Y0107127D01*
X0027655Y0107184D01*
X0027719Y0107237D01*
X0027786Y0107288D01*
X0027855Y0107335D01*
X0027926Y0107380D01*
X0027999Y0107420D01*
X0028074Y0107457D01*
X0028151Y0107491D01*
X0028229Y0107521D01*
X0028308Y0107547D01*
X0028389Y0107570D01*
X0028471Y0107588D01*
X0028553Y0107603D01*
X0028636Y0107614D01*
X0028719Y0107621D01*
X0028803Y0107624D01*
X0028887Y0107623D01*
X0028970Y0107618D01*
X0029054Y0107609D01*
X0029136Y0107596D01*
X0029218Y0107580D01*
X0029299Y0107559D01*
X0029380Y0107535D01*
X0029458Y0107507D01*
X0029536Y0107475D01*
X0029612Y0107439D01*
X0029686Y0107400D01*
X0029758Y0107358D01*
X0029828Y0107312D01*
X0029896Y0107263D01*
X0029961Y0107211D01*
X0030024Y0107156D01*
X0030084Y0107098D01*
X0030142Y0107037D01*
X0030196Y0106973D01*
X0030248Y0106907D01*
X0030296Y0106839D01*
X0030341Y0106768D01*
X0030382Y0106695D01*
X0030421Y0106621D01*
X0030455Y0106545D01*
X0030486Y0106467D01*
X0030513Y0106388D01*
X0030537Y0106307D01*
X0030556Y0106226D01*
X0030572Y0106144D01*
X0030584Y0106061D01*
X0030592Y0105977D01*
X0030596Y0105894D01*
X0030596Y0105810D01*
X0030592Y0105727D01*
X0030584Y0105643D01*
X0030572Y0105560D01*
X0030556Y0105478D01*
X0030537Y0105397D01*
X0030513Y0105316D01*
X0030486Y0105237D01*
X0030455Y0105159D01*
X0030421Y0105083D01*
X0030382Y0105009D01*
X0030341Y0104936D01*
X0030296Y0104865D01*
X0030248Y0104797D01*
X0030196Y0104731D01*
X0030142Y0104667D01*
X0030084Y0104606D01*
X0030024Y0104548D01*
X0029961Y0104493D01*
X0029896Y0104441D01*
X0029828Y0104392D01*
X0029758Y0104346D01*
X0029686Y0104304D01*
X0029612Y0104265D01*
X0029536Y0104229D01*
X0029458Y0104197D01*
X0029380Y0104169D01*
X0029299Y0104145D01*
X0029218Y0104124D01*
X0029136Y0104108D01*
X0029054Y0104095D01*
X0028970Y0104086D01*
X0028887Y0104081D01*
X0028803Y0104080D01*
X0028719Y0104083D01*
X0028636Y0104090D01*
X0028553Y0104101D01*
X0028471Y0104116D01*
X0028389Y0104134D01*
X0028308Y0104157D01*
X0028229Y0104183D01*
X0028151Y0104213D01*
X0028074Y0104247D01*
X0027999Y0104284D01*
X0027926Y0104324D01*
X0027855Y0104369D01*
X0027786Y0104416D01*
X0027719Y0104467D01*
X0027655Y0104520D01*
X0027593Y0104577D01*
X0027535Y0104637D01*
X0027479Y0104699D01*
X0027426Y0104764D01*
X0027376Y0104831D01*
X0027329Y0104900D01*
X0027286Y0104972D01*
X0027246Y0105046D01*
X0027210Y0105121D01*
X0027177Y0105198D01*
X0027148Y0105277D01*
X0027123Y0105356D01*
X0027101Y0105437D01*
X0027084Y0105519D01*
X0027070Y0105602D01*
X0027060Y0105685D01*
X0027054Y0105768D01*
X0027052Y0105852D01*
M02*
