G75*
%MOIN*%
%OFA0B0*%
%FSLAX25Y25*%
%IPPOS*%
%LPD*%
%AMOC8*
5,1,8,0,0,1.08239X$1,22.5*
%
%ADD10R,0.03150X0.04724*%
%ADD11C,0.00669*%
%ADD12R,0.09843X0.03937*%
%ADD13R,0.09843X0.04724*%
%ADD14C,0.07400*%
%ADD15C,0.01600*%
%ADD16C,0.02400*%
%ADD17C,0.03200*%
%ADD18C,0.03962*%
%ADD19C,0.01181*%
%ADD20C,0.04000*%
%ADD21C,0.01200*%
D10*
X0055229Y0081145D03*
X0062316Y0081145D03*
X0062416Y0094092D03*
X0055329Y0094092D03*
X0055337Y0106427D03*
X0062424Y0106427D03*
X0062428Y0118473D03*
X0055341Y0118473D03*
X0156689Y0119823D03*
X0163776Y0119823D03*
X0163797Y0107561D03*
X0156710Y0107561D03*
X0156552Y0095035D03*
X0163639Y0095035D03*
X0116505Y0013767D03*
X0109418Y0013767D03*
D11*
X0139975Y0081275D02*
X0149149Y0081275D01*
X0139975Y0081275D02*
X0139975Y0084543D01*
X0149149Y0084543D01*
X0149149Y0081275D01*
X0149149Y0081943D02*
X0139975Y0081943D01*
X0139975Y0082611D02*
X0149149Y0082611D01*
X0149149Y0083279D02*
X0139975Y0083279D01*
X0139975Y0083947D02*
X0149149Y0083947D01*
D12*
X0144562Y0075035D03*
X0144562Y0067161D03*
X0144562Y0059287D03*
X0144562Y0051413D03*
X0144562Y0043539D03*
X0144562Y0035665D03*
X0144562Y0028165D03*
X0079995Y0028165D03*
X0079995Y0035665D03*
X0079995Y0043539D03*
X0079995Y0051413D03*
X0079995Y0059287D03*
X0079995Y0067161D03*
X0079995Y0075035D03*
X0079995Y0082909D03*
D13*
X0039651Y0082033D03*
X0039651Y0091875D03*
X0039651Y0101718D03*
D14*
X0058211Y0069085D03*
X0058211Y0059085D03*
X0058211Y0049085D03*
X0058211Y0039085D03*
X0058211Y0029085D03*
X0159995Y0029759D03*
X0159995Y0039759D03*
X0105866Y0161195D03*
X0095866Y0161195D03*
X0085866Y0161195D03*
X0075866Y0161195D03*
D15*
X0076844Y0002200D02*
X0002200Y0002200D01*
X0002200Y0182830D01*
X0075651Y0182830D01*
X0067875Y0179751D01*
X0057294Y0173934D01*
X0057294Y0173934D01*
X0047525Y0166837D01*
X0038723Y0158571D01*
X0031026Y0149267D01*
X0024556Y0139072D01*
X0019415Y0128147D01*
X0019415Y0128147D01*
X0015684Y0116663D01*
X0013421Y0104802D01*
X0012663Y0092751D01*
X0013421Y0080700D01*
X0015684Y0068839D01*
X0019415Y0057356D01*
X0019415Y0057356D01*
X0024556Y0046430D01*
X0031026Y0036235D01*
X0038723Y0026931D01*
X0047525Y0018665D01*
X0047525Y0018665D01*
X0057294Y0011568D01*
X0067875Y0005751D01*
X0076844Y0002200D01*
X0002200Y0002200D01*
X0002200Y0003799D02*
X0072806Y0003799D01*
X0068769Y0005397D02*
X0002200Y0005397D01*
X0002200Y0006996D02*
X0065611Y0006996D01*
X0067875Y0005751D02*
X0067875Y0005751D01*
X0062703Y0008594D02*
X0002200Y0008594D01*
X0002200Y0010193D02*
X0059796Y0010193D01*
X0057294Y0011568D02*
X0057294Y0011568D01*
X0056987Y0011791D02*
X0002200Y0011791D01*
X0002200Y0013390D02*
X0054787Y0013390D01*
X0052587Y0014988D02*
X0002200Y0014988D01*
X0002200Y0016587D02*
X0050386Y0016587D01*
X0048186Y0018185D02*
X0002200Y0018185D01*
X0002200Y0019784D02*
X0046334Y0019784D01*
X0044632Y0021382D02*
X0002200Y0021382D01*
X0002200Y0022981D02*
X0042930Y0022981D01*
X0041228Y0024579D02*
X0002200Y0024579D01*
X0002200Y0026178D02*
X0039525Y0026178D01*
X0038723Y0026931D02*
X0038723Y0026931D01*
X0038723Y0026931D01*
X0038024Y0027776D02*
X0002200Y0027776D01*
X0002200Y0029375D02*
X0036702Y0029375D01*
X0035379Y0030973D02*
X0002200Y0030973D01*
X0002200Y0032572D02*
X0034057Y0032572D01*
X0032734Y0034170D02*
X0002200Y0034170D01*
X0002200Y0035769D02*
X0031412Y0035769D01*
X0031026Y0036235D02*
X0031026Y0036235D01*
X0030308Y0037367D02*
X0002200Y0037367D01*
X0002200Y0038966D02*
X0029293Y0038966D01*
X0028279Y0040564D02*
X0002200Y0040564D01*
X0002200Y0042163D02*
X0027264Y0042163D01*
X0026250Y0043761D02*
X0002200Y0043761D01*
X0002200Y0045360D02*
X0025235Y0045360D01*
X0024556Y0046430D02*
X0024556Y0046430D01*
X0024308Y0046958D02*
X0002200Y0046958D01*
X0002200Y0048557D02*
X0023555Y0048557D01*
X0022803Y0050155D02*
X0002200Y0050155D01*
X0002200Y0051754D02*
X0022051Y0051754D01*
X0021299Y0053352D02*
X0002200Y0053352D01*
X0002200Y0054951D02*
X0020547Y0054951D01*
X0019794Y0056549D02*
X0002200Y0056549D01*
X0002200Y0058148D02*
X0019158Y0058148D01*
X0018638Y0059746D02*
X0002200Y0059746D01*
X0002200Y0061345D02*
X0018119Y0061345D01*
X0017599Y0062943D02*
X0002200Y0062943D01*
X0002200Y0064542D02*
X0017080Y0064542D01*
X0016561Y0066140D02*
X0002200Y0066140D01*
X0002200Y0067739D02*
X0016041Y0067739D01*
X0015684Y0068839D02*
X0015684Y0068839D01*
X0015589Y0069337D02*
X0002200Y0069337D01*
X0002200Y0070936D02*
X0015284Y0070936D01*
X0014979Y0072534D02*
X0002200Y0072534D01*
X0002200Y0074133D02*
X0014674Y0074133D01*
X0014369Y0075732D02*
X0002200Y0075732D01*
X0002200Y0077330D02*
X0014064Y0077330D01*
X0013759Y0078929D02*
X0002200Y0078929D01*
X0002200Y0080527D02*
X0013454Y0080527D01*
X0013421Y0080700D02*
X0013421Y0080700D01*
X0013331Y0082126D02*
X0002200Y0082126D01*
X0002200Y0083724D02*
X0013231Y0083724D01*
X0013130Y0085323D02*
X0002200Y0085323D01*
X0002200Y0086921D02*
X0013030Y0086921D01*
X0012929Y0088520D02*
X0002200Y0088520D01*
X0002200Y0090118D02*
X0012829Y0090118D01*
X0012728Y0091717D02*
X0002200Y0091717D01*
X0002200Y0093315D02*
X0012698Y0093315D01*
X0012663Y0092751D02*
X0012663Y0092751D01*
X0012799Y0094914D02*
X0002200Y0094914D01*
X0002200Y0096512D02*
X0012900Y0096512D01*
X0013000Y0098111D02*
X0002200Y0098111D01*
X0002200Y0099709D02*
X0013101Y0099709D01*
X0013201Y0101308D02*
X0002200Y0101308D01*
X0002200Y0102906D02*
X0013302Y0102906D01*
X0013402Y0104505D02*
X0002200Y0104505D01*
X0002200Y0106103D02*
X0013669Y0106103D01*
X0013421Y0104802D02*
X0013421Y0104802D01*
X0013974Y0107702D02*
X0002200Y0107702D01*
X0002200Y0109300D02*
X0014279Y0109300D01*
X0014584Y0110899D02*
X0002200Y0110899D01*
X0002200Y0112497D02*
X0014889Y0112497D01*
X0015194Y0114096D02*
X0002200Y0114096D01*
X0002200Y0115694D02*
X0015499Y0115694D01*
X0015684Y0116663D02*
X0015684Y0116663D01*
X0015888Y0117293D02*
X0002200Y0117293D01*
X0002200Y0118891D02*
X0016408Y0118891D01*
X0016927Y0120490D02*
X0002200Y0120490D01*
X0002200Y0122088D02*
X0017447Y0122088D01*
X0017966Y0123687D02*
X0002200Y0123687D01*
X0002200Y0125285D02*
X0018485Y0125285D01*
X0019005Y0126884D02*
X0002200Y0126884D01*
X0002200Y0128482D02*
X0019573Y0128482D01*
X0020325Y0130081D02*
X0002200Y0130081D01*
X0002200Y0131679D02*
X0021077Y0131679D01*
X0021830Y0133278D02*
X0002200Y0133278D01*
X0002200Y0134876D02*
X0022582Y0134876D01*
X0023334Y0136475D02*
X0002200Y0136475D01*
X0002200Y0138073D02*
X0024086Y0138073D01*
X0024556Y0139072D02*
X0024556Y0139072D01*
X0024937Y0139672D02*
X0002200Y0139672D01*
X0002200Y0141270D02*
X0025951Y0141270D01*
X0026966Y0142869D02*
X0002200Y0142869D01*
X0002200Y0144468D02*
X0027980Y0144468D01*
X0028995Y0146066D02*
X0002200Y0146066D01*
X0002200Y0147665D02*
X0030009Y0147665D01*
X0031023Y0149263D02*
X0002200Y0149263D01*
X0002200Y0150862D02*
X0032345Y0150862D01*
X0031026Y0149267D02*
X0031026Y0149267D01*
X0033667Y0152460D02*
X0002200Y0152460D01*
X0002200Y0154059D02*
X0034990Y0154059D01*
X0036312Y0155657D02*
X0002200Y0155657D01*
X0002200Y0157256D02*
X0037635Y0157256D01*
X0038723Y0158571D02*
X0038723Y0158571D01*
X0039024Y0158854D02*
X0002200Y0158854D01*
X0002200Y0160453D02*
X0040727Y0160453D01*
X0042429Y0162051D02*
X0002200Y0162051D01*
X0002200Y0163650D02*
X0044131Y0163650D01*
X0045833Y0165248D02*
X0002200Y0165248D01*
X0002200Y0166847D02*
X0047539Y0166847D01*
X0047525Y0166837D02*
X0047525Y0166837D01*
X0049739Y0168445D02*
X0002200Y0168445D01*
X0002200Y0170044D02*
X0051939Y0170044D01*
X0054139Y0171642D02*
X0002200Y0171642D01*
X0002200Y0173241D02*
X0056339Y0173241D01*
X0058940Y0174839D02*
X0002200Y0174839D01*
X0002200Y0176438D02*
X0061848Y0176438D01*
X0064755Y0178036D02*
X0002200Y0178036D01*
X0002200Y0179635D02*
X0067663Y0179635D01*
X0067875Y0179751D02*
X0067875Y0179751D01*
X0071618Y0181233D02*
X0002200Y0181233D01*
X0044207Y0147665D02*
X0173421Y0147665D01*
X0172099Y0149263D02*
X0045530Y0149263D01*
X0046852Y0150862D02*
X0170776Y0150862D01*
X0170741Y0150904D02*
X0177541Y0142684D01*
X0183257Y0133677D01*
X0187800Y0124024D01*
X0191096Y0113878D01*
X0193095Y0103398D01*
X0193765Y0092751D01*
X0193095Y0082104D01*
X0191096Y0071625D01*
X0187800Y0061479D01*
X0183257Y0051826D01*
X0177541Y0042818D01*
X0170741Y0034598D01*
X0165375Y0029559D01*
X0160195Y0029559D01*
X0160195Y0029959D01*
X0165495Y0029959D01*
X0165495Y0030192D01*
X0165360Y0031047D01*
X0165092Y0031870D01*
X0164699Y0032642D01*
X0164190Y0033342D01*
X0163578Y0033954D01*
X0162878Y0034463D01*
X0162297Y0034759D01*
X0163111Y0035096D01*
X0164658Y0036644D01*
X0165495Y0038665D01*
X0165495Y0040853D01*
X0164658Y0042875D01*
X0163111Y0044422D01*
X0161089Y0045259D01*
X0159304Y0045259D01*
X0158717Y0045845D01*
X0157468Y0046363D01*
X0151173Y0046363D01*
X0150229Y0047307D01*
X0144766Y0047307D01*
X0144796Y0047309D01*
X0145176Y0047309D01*
X0145267Y0047347D01*
X0145366Y0047355D01*
X0145703Y0047528D01*
X0145983Y0047644D01*
X0150229Y0047644D01*
X0151283Y0048698D01*
X0151283Y0052903D01*
X0151781Y0053400D01*
X0152956Y0053400D01*
X0154353Y0053979D01*
X0155421Y0055047D01*
X0156000Y0056444D01*
X0156000Y0057956D01*
X0155421Y0059353D01*
X0154353Y0060421D01*
X0152956Y0061000D01*
X0151444Y0061000D01*
X0151283Y0060933D01*
X0151283Y0062001D01*
X0150229Y0063055D01*
X0138936Y0063055D01*
X0139273Y0063392D01*
X0150229Y0063392D01*
X0151283Y0064447D01*
X0151283Y0069875D01*
X0150229Y0070929D01*
X0138895Y0070929D01*
X0137841Y0069875D01*
X0137841Y0068722D01*
X0130119Y0061000D01*
X0128944Y0061000D01*
X0127547Y0060421D01*
X0126479Y0059353D01*
X0125900Y0057956D01*
X0125900Y0056444D01*
X0126479Y0055047D01*
X0127547Y0053979D01*
X0128944Y0053400D01*
X0130456Y0053400D01*
X0131214Y0053714D01*
X0130900Y0052956D01*
X0130900Y0051444D01*
X0131479Y0050047D01*
X0132547Y0048979D01*
X0133944Y0048400D01*
X0135456Y0048400D01*
X0136853Y0048979D01*
X0137841Y0049967D01*
X0137841Y0048698D01*
X0138895Y0047644D01*
X0143417Y0047644D01*
X0143437Y0047635D01*
X0143513Y0047571D01*
X0143874Y0047455D01*
X0144224Y0047309D01*
X0144323Y0047309D01*
X0144331Y0047307D01*
X0138895Y0047307D01*
X0138438Y0046850D01*
X0113100Y0046850D01*
X0113100Y0110675D01*
X0150660Y0110675D01*
X0150047Y0110421D01*
X0148979Y0109353D01*
X0148400Y0107956D01*
X0148400Y0106444D01*
X0148979Y0105047D01*
X0150047Y0103979D01*
X0151444Y0103400D01*
X0152956Y0103400D01*
X0153969Y0103820D01*
X0154390Y0103399D01*
X0158700Y0103399D01*
X0157547Y0102921D01*
X0156479Y0101853D01*
X0155900Y0100456D01*
X0155900Y0099281D01*
X0155816Y0099197D01*
X0154232Y0099197D01*
X0153177Y0098143D01*
X0153177Y0091927D01*
X0154232Y0090873D01*
X0158873Y0090873D01*
X0159927Y0091927D01*
X0159927Y0095900D01*
X0160264Y0095900D01*
X0160264Y0095035D01*
X0163639Y0095035D01*
X0167014Y0095035D01*
X0167014Y0097634D01*
X0166891Y0098092D01*
X0166654Y0098502D01*
X0166319Y0098837D01*
X0165908Y0099074D01*
X0165451Y0099197D01*
X0163639Y0099197D01*
X0163639Y0095035D01*
X0163639Y0095035D01*
X0163639Y0095035D01*
X0167014Y0095035D01*
X0167014Y0092436D01*
X0166891Y0091978D01*
X0166654Y0091567D01*
X0166319Y0091232D01*
X0165908Y0090995D01*
X0165451Y0090873D01*
X0163639Y0090873D01*
X0163639Y0095035D01*
X0163639Y0095035D01*
X0163639Y0099197D01*
X0163500Y0099197D01*
X0163500Y0100456D01*
X0162921Y0101853D01*
X0161853Y0102921D01*
X0160456Y0103500D01*
X0159132Y0103500D01*
X0160085Y0104453D01*
X0160085Y0110669D01*
X0160079Y0110675D01*
X0160376Y0110675D01*
X0160376Y0106906D01*
X0160422Y0106794D01*
X0160422Y0104453D01*
X0161476Y0103399D01*
X0166117Y0103399D01*
X0167171Y0104453D01*
X0167171Y0106824D01*
X0167197Y0106885D01*
X0167197Y0108237D01*
X0167176Y0108288D01*
X0167176Y0120499D01*
X0167151Y0120560D01*
X0167151Y0122931D01*
X0166096Y0123985D01*
X0161455Y0123985D01*
X0160401Y0122931D01*
X0160401Y0120560D01*
X0160376Y0120499D01*
X0160376Y0117475D01*
X0160064Y0117475D01*
X0160064Y0122931D01*
X0159010Y0123985D01*
X0154369Y0123985D01*
X0153314Y0122931D01*
X0153314Y0122100D01*
X0117022Y0122100D01*
X0116217Y0122905D01*
X0114827Y0123481D01*
X0113323Y0123481D01*
X0111933Y0122905D01*
X0110870Y0121842D01*
X0110294Y0120452D01*
X0110294Y0118948D01*
X0110870Y0117558D01*
X0110953Y0117475D01*
X0100747Y0117475D01*
X0099827Y0117856D01*
X0098323Y0117856D01*
X0096933Y0117280D01*
X0095870Y0116217D01*
X0095294Y0114827D01*
X0095294Y0113323D01*
X0095870Y0111933D01*
X0096933Y0110870D01*
X0098323Y0110294D01*
X0099827Y0110294D01*
X0100747Y0110675D01*
X0106300Y0110675D01*
X0106300Y0043275D01*
X0106018Y0042594D01*
X0106018Y0016767D01*
X0095635Y0016767D01*
X0086717Y0025686D01*
X0086717Y0030879D01*
X0085681Y0031915D01*
X0086717Y0032950D01*
X0086717Y0038379D01*
X0085662Y0039433D01*
X0074328Y0039433D01*
X0073274Y0038379D01*
X0073274Y0038350D01*
X0065694Y0038350D01*
X0063602Y0040442D01*
X0062874Y0042201D01*
X0061327Y0043748D01*
X0060512Y0044085D01*
X0061327Y0044422D01*
X0062874Y0045970D01*
X0063141Y0046615D01*
X0067665Y0042091D01*
X0068341Y0041415D01*
X0069223Y0041050D01*
X0073274Y0041050D01*
X0073274Y0040824D01*
X0074328Y0039770D01*
X0085662Y0039770D01*
X0086717Y0040824D01*
X0086717Y0046253D01*
X0085662Y0047307D01*
X0074328Y0047307D01*
X0073274Y0046253D01*
X0073274Y0045850D01*
X0070694Y0045850D01*
X0065424Y0051120D01*
X0064542Y0051485D01*
X0063170Y0051485D01*
X0062874Y0052201D01*
X0061327Y0053748D01*
X0060512Y0054085D01*
X0061327Y0054422D01*
X0062874Y0055970D01*
X0063141Y0056615D01*
X0070165Y0049591D01*
X0070841Y0048915D01*
X0071723Y0048550D01*
X0073423Y0048550D01*
X0074328Y0047644D01*
X0085662Y0047644D01*
X0086717Y0048698D01*
X0086717Y0054127D01*
X0085662Y0055181D01*
X0074328Y0055181D01*
X0073274Y0054127D01*
X0073274Y0053350D01*
X0073194Y0053350D01*
X0065424Y0061120D01*
X0064542Y0061485D01*
X0063170Y0061485D01*
X0062874Y0062201D01*
X0061327Y0063748D01*
X0060512Y0064085D01*
X0061327Y0064422D01*
X0062874Y0065970D01*
X0063711Y0067991D01*
X0063711Y0069170D01*
X0068341Y0064540D01*
X0069223Y0064175D01*
X0073546Y0064175D01*
X0074328Y0063392D01*
X0085662Y0063392D01*
X0086717Y0064447D01*
X0086717Y0069875D01*
X0085662Y0070929D01*
X0074328Y0070929D01*
X0073274Y0069875D01*
X0073274Y0068975D01*
X0070694Y0068975D01*
X0064716Y0074953D01*
X0064716Y0077063D01*
X0065691Y0078038D01*
X0065691Y0084253D01*
X0064636Y0085308D01*
X0059996Y0085308D01*
X0058941Y0084253D01*
X0058941Y0078038D01*
X0059916Y0077063D01*
X0059916Y0074332D01*
X0059305Y0074585D01*
X0057117Y0074585D01*
X0055096Y0073748D01*
X0053548Y0072201D01*
X0052711Y0070179D01*
X0052711Y0067991D01*
X0053548Y0065970D01*
X0055096Y0064422D01*
X0055910Y0064085D01*
X0055096Y0063748D01*
X0053548Y0062201D01*
X0052711Y0060179D01*
X0052711Y0057991D01*
X0053548Y0055970D01*
X0055096Y0054422D01*
X0055910Y0054085D01*
X0055096Y0053748D01*
X0053548Y0052201D01*
X0052711Y0050179D01*
X0052711Y0047991D01*
X0053548Y0045970D01*
X0055096Y0044422D01*
X0055910Y0044085D01*
X0055096Y0043748D01*
X0053548Y0042201D01*
X0052711Y0040179D01*
X0052711Y0037991D01*
X0053548Y0035970D01*
X0055096Y0034422D01*
X0055910Y0034085D01*
X0055096Y0033748D01*
X0053548Y0032201D01*
X0052711Y0030179D01*
X0052711Y0029129D01*
X0046887Y0034598D01*
X0040087Y0042818D01*
X0034371Y0051826D01*
X0029829Y0061479D01*
X0026532Y0071625D01*
X0026509Y0071745D01*
X0027517Y0071327D01*
X0030131Y0071327D01*
X0032547Y0072328D01*
X0034395Y0074176D01*
X0035396Y0076592D01*
X0035396Y0077870D01*
X0045318Y0077870D01*
X0046372Y0078925D01*
X0046372Y0079470D01*
X0047149Y0078693D01*
X0047579Y0078263D01*
X0048828Y0077745D01*
X0052147Y0077745D01*
X0052909Y0076983D01*
X0057550Y0076983D01*
X0058604Y0078038D01*
X0058604Y0080408D01*
X0058629Y0080469D01*
X0058629Y0081822D01*
X0058604Y0081883D01*
X0058604Y0084253D01*
X0057550Y0085308D01*
X0052909Y0085308D01*
X0052475Y0084874D01*
X0052475Y0090464D01*
X0052649Y0090290D01*
X0053060Y0090053D01*
X0053517Y0089930D01*
X0055329Y0089930D01*
X0055329Y0094092D01*
X0055329Y0094092D01*
X0055329Y0089930D01*
X0057141Y0089930D01*
X0057599Y0090053D01*
X0058009Y0090290D01*
X0058344Y0090625D01*
X0058581Y0091035D01*
X0058704Y0091493D01*
X0058704Y0094092D01*
X0055329Y0094092D01*
X0055329Y0098254D01*
X0053517Y0098254D01*
X0053060Y0098132D01*
X0052649Y0097895D01*
X0052475Y0097721D01*
X0052475Y0098318D01*
X0054894Y0098318D01*
X0056144Y0098835D01*
X0057263Y0099955D01*
X0058219Y0100911D01*
X0058737Y0102161D01*
X0058737Y0117786D01*
X0058741Y0117796D01*
X0058741Y0124425D01*
X0066778Y0124425D01*
X0067698Y0124044D01*
X0069202Y0124044D01*
X0070592Y0124620D01*
X0071655Y0125683D01*
X0072231Y0127073D01*
X0072231Y0128577D01*
X0071655Y0129967D01*
X0070592Y0131030D01*
X0069202Y0131606D01*
X0067698Y0131606D01*
X0066778Y0131225D01*
X0056524Y0131225D01*
X0055274Y0130707D01*
X0054318Y0129751D01*
X0052443Y0127876D01*
X0051925Y0126626D01*
X0051925Y0125274D01*
X0051941Y0125234D01*
X0051941Y0119172D01*
X0051925Y0119133D01*
X0051925Y0117780D01*
X0051937Y0117751D01*
X0051937Y0105118D01*
X0046080Y0105118D01*
X0045318Y0105880D01*
X0035396Y0105880D01*
X0035396Y0107159D01*
X0034395Y0109574D01*
X0032547Y0111423D01*
X0030131Y0112423D01*
X0027517Y0112423D01*
X0026146Y0111855D01*
X0026532Y0113878D01*
X0029829Y0124024D01*
X0034371Y0133677D01*
X0040087Y0142684D01*
X0046887Y0150904D01*
X0054664Y0158207D01*
X0056397Y0159466D01*
X0057407Y0157027D01*
X0059311Y0155123D01*
X0061799Y0154093D01*
X0064491Y0154093D01*
X0066979Y0155123D01*
X0068883Y0157027D01*
X0069913Y0159515D01*
X0069913Y0162208D01*
X0068883Y0164695D01*
X0067041Y0166537D01*
X0072644Y0169617D01*
X0082563Y0173545D01*
X0092896Y0176198D01*
X0103480Y0177535D01*
X0114148Y0177535D01*
X0124732Y0176198D01*
X0135066Y0173545D01*
X0144985Y0169617D01*
X0154333Y0164478D01*
X0162964Y0158207D01*
X0170741Y0150904D01*
X0169084Y0152460D02*
X0048544Y0152460D01*
X0050246Y0154059D02*
X0167382Y0154059D01*
X0165680Y0155657D02*
X0067513Y0155657D01*
X0068977Y0157256D02*
X0072028Y0157256D01*
X0072751Y0156533D02*
X0074772Y0155695D01*
X0076960Y0155695D01*
X0078982Y0156533D01*
X0080529Y0158080D01*
X0080866Y0158894D01*
X0081162Y0158313D01*
X0081671Y0157612D01*
X0082283Y0157000D01*
X0082984Y0156491D01*
X0083755Y0156098D01*
X0084578Y0155831D01*
X0085433Y0155695D01*
X0085666Y0155695D01*
X0085666Y0160995D01*
X0086066Y0160995D01*
X0086066Y0155695D01*
X0086299Y0155695D01*
X0087154Y0155831D01*
X0087977Y0156098D01*
X0088749Y0156491D01*
X0089449Y0157000D01*
X0090061Y0157612D01*
X0090570Y0158313D01*
X0090866Y0158894D01*
X0091162Y0158313D01*
X0091671Y0157612D01*
X0092283Y0157000D01*
X0092984Y0156491D01*
X0093755Y0156098D01*
X0094578Y0155831D01*
X0095433Y0155695D01*
X0095666Y0155695D01*
X0095666Y0160995D01*
X0096066Y0160995D01*
X0096066Y0155695D01*
X0096299Y0155695D01*
X0097154Y0155831D01*
X0097977Y0156098D01*
X0098749Y0156491D01*
X0099449Y0157000D01*
X0100061Y0157612D01*
X0100570Y0158313D01*
X0100866Y0158894D01*
X0101203Y0158080D01*
X0102751Y0156533D01*
X0104772Y0155695D01*
X0106960Y0155695D01*
X0108982Y0156533D01*
X0110529Y0158080D01*
X0111366Y0160101D01*
X0111366Y0162289D01*
X0110529Y0164311D01*
X0108982Y0165858D01*
X0106960Y0166695D01*
X0104772Y0166695D01*
X0102751Y0165858D01*
X0101203Y0164311D01*
X0100866Y0163497D01*
X0100570Y0164078D01*
X0100061Y0164778D01*
X0099449Y0165390D01*
X0098749Y0165899D01*
X0097977Y0166292D01*
X0097154Y0166560D01*
X0096299Y0166695D01*
X0096066Y0166695D01*
X0096066Y0161395D01*
X0095666Y0161395D01*
X0095666Y0160995D01*
X0086066Y0160995D01*
X0086066Y0161395D01*
X0090366Y0161395D01*
X0095666Y0161395D01*
X0095666Y0166695D01*
X0095433Y0166695D01*
X0094578Y0166560D01*
X0093755Y0166292D01*
X0092984Y0165899D01*
X0092283Y0165390D01*
X0091671Y0164778D01*
X0091162Y0164078D01*
X0090866Y0163497D01*
X0090570Y0164078D01*
X0090061Y0164778D01*
X0089449Y0165390D01*
X0088749Y0165899D01*
X0087977Y0166292D01*
X0087154Y0166560D01*
X0086299Y0166695D01*
X0086066Y0166695D01*
X0086066Y0161395D01*
X0085666Y0161395D01*
X0085666Y0166695D01*
X0085433Y0166695D01*
X0084578Y0166560D01*
X0083755Y0166292D01*
X0082984Y0165899D01*
X0082283Y0165390D01*
X0081671Y0164778D01*
X0081162Y0164078D01*
X0080866Y0163497D01*
X0080529Y0164311D01*
X0078982Y0165858D01*
X0076960Y0166695D01*
X0074772Y0166695D01*
X0072751Y0165858D01*
X0071203Y0164311D01*
X0070366Y0162289D01*
X0070366Y0160101D01*
X0071203Y0158080D01*
X0072751Y0156533D01*
X0070883Y0158854D02*
X0069640Y0158854D01*
X0069913Y0160453D02*
X0070366Y0160453D01*
X0070366Y0162051D02*
X0069913Y0162051D01*
X0069316Y0163650D02*
X0070930Y0163650D01*
X0072141Y0165248D02*
X0068330Y0165248D01*
X0067604Y0166847D02*
X0150024Y0166847D01*
X0147117Y0168445D02*
X0070512Y0168445D01*
X0073721Y0170044D02*
X0143908Y0170044D01*
X0139870Y0171642D02*
X0077758Y0171642D01*
X0081795Y0173241D02*
X0135833Y0173241D01*
X0130023Y0174839D02*
X0087605Y0174839D01*
X0092896Y0176198D02*
X0092896Y0176198D01*
X0094796Y0176438D02*
X0122832Y0176438D01*
X0109591Y0165248D02*
X0152932Y0165248D01*
X0155473Y0163650D02*
X0110803Y0163650D01*
X0111366Y0162051D02*
X0157673Y0162051D01*
X0159874Y0160453D02*
X0111366Y0160453D01*
X0110850Y0158854D02*
X0162074Y0158854D01*
X0163977Y0157256D02*
X0109705Y0157256D01*
X0102028Y0157256D02*
X0099705Y0157256D01*
X0100846Y0158854D02*
X0100883Y0158854D01*
X0096066Y0158854D02*
X0095666Y0158854D01*
X0095666Y0157256D02*
X0096066Y0157256D01*
X0092028Y0157256D02*
X0089705Y0157256D01*
X0090846Y0158854D02*
X0090886Y0158854D01*
X0086066Y0158854D02*
X0085666Y0158854D01*
X0085666Y0157256D02*
X0086066Y0157256D01*
X0086066Y0160453D02*
X0085666Y0160453D01*
X0085666Y0162051D02*
X0086066Y0162051D01*
X0086066Y0163650D02*
X0085666Y0163650D01*
X0085666Y0165248D02*
X0086066Y0165248D01*
X0089591Y0165248D02*
X0092141Y0165248D01*
X0090944Y0163650D02*
X0090788Y0163650D01*
X0095666Y0163650D02*
X0096066Y0163650D01*
X0096066Y0165248D02*
X0095666Y0165248D01*
X0095666Y0162051D02*
X0096066Y0162051D01*
X0096066Y0160453D02*
X0095666Y0160453D01*
X0100788Y0163650D02*
X0100930Y0163650D01*
X0102141Y0165248D02*
X0099591Y0165248D01*
X0082141Y0165248D02*
X0079591Y0165248D01*
X0080803Y0163650D02*
X0080944Y0163650D01*
X0080850Y0158854D02*
X0080886Y0158854D01*
X0082028Y0157256D02*
X0079705Y0157256D01*
X0058777Y0155657D02*
X0051949Y0155657D01*
X0053651Y0157256D02*
X0057312Y0157256D01*
X0056650Y0158854D02*
X0055555Y0158854D01*
X0042885Y0146066D02*
X0174743Y0146066D01*
X0176066Y0144468D02*
X0041562Y0144468D01*
X0040240Y0142869D02*
X0177388Y0142869D01*
X0178438Y0141270D02*
X0039190Y0141270D01*
X0038176Y0139672D02*
X0179453Y0139672D01*
X0180467Y0138073D02*
X0037161Y0138073D01*
X0036147Y0136475D02*
X0181482Y0136475D01*
X0182496Y0134876D02*
X0035132Y0134876D01*
X0034183Y0133278D02*
X0183445Y0133278D01*
X0184197Y0131679D02*
X0033431Y0131679D01*
X0032679Y0130081D02*
X0054648Y0130081D01*
X0053049Y0128482D02*
X0031927Y0128482D01*
X0031174Y0126884D02*
X0052032Y0126884D01*
X0051925Y0125285D02*
X0030422Y0125285D01*
X0029719Y0123687D02*
X0051941Y0123687D01*
X0051941Y0122088D02*
X0029200Y0122088D01*
X0028680Y0120490D02*
X0051941Y0120490D01*
X0051925Y0118891D02*
X0028161Y0118891D01*
X0027642Y0117293D02*
X0051937Y0117293D01*
X0051937Y0115694D02*
X0027122Y0115694D01*
X0026603Y0114096D02*
X0051937Y0114096D01*
X0051937Y0112497D02*
X0026269Y0112497D01*
X0033071Y0110899D02*
X0051937Y0110899D01*
X0051937Y0109300D02*
X0034509Y0109300D01*
X0035171Y0107702D02*
X0051937Y0107702D01*
X0051937Y0106103D02*
X0035396Y0106103D01*
X0032930Y0100663D02*
X0032930Y0098610D01*
X0033984Y0097556D01*
X0045318Y0097556D01*
X0045675Y0097913D01*
X0045675Y0095680D01*
X0045318Y0096037D01*
X0033984Y0096037D01*
X0033222Y0095275D01*
X0030722Y0095275D01*
X0030592Y0095405D01*
X0029202Y0095981D01*
X0027698Y0095981D01*
X0026308Y0095405D01*
X0025245Y0094342D01*
X0024669Y0092952D01*
X0024669Y0091448D01*
X0025245Y0090058D01*
X0026308Y0088995D01*
X0027698Y0088419D01*
X0029202Y0088419D01*
X0029338Y0088475D01*
X0033222Y0088475D01*
X0033984Y0087713D01*
X0045318Y0087713D01*
X0045675Y0088070D01*
X0045675Y0085837D01*
X0045318Y0086195D01*
X0033984Y0086195D01*
X0032930Y0085140D01*
X0032930Y0083087D01*
X0032547Y0083470D01*
X0030131Y0084470D01*
X0027517Y0084470D01*
X0025101Y0083470D01*
X0024486Y0082854D01*
X0023863Y0092751D01*
X0024382Y0101000D01*
X0025101Y0100280D01*
X0027517Y0099280D01*
X0030131Y0099280D01*
X0032547Y0100280D01*
X0032930Y0100663D01*
X0032930Y0099709D02*
X0031168Y0099709D01*
X0033429Y0098111D02*
X0024200Y0098111D01*
X0024301Y0099709D02*
X0026480Y0099709D01*
X0024100Y0096512D02*
X0045675Y0096512D01*
X0052475Y0098111D02*
X0053023Y0098111D01*
X0055329Y0098111D02*
X0055329Y0098111D01*
X0055329Y0098254D02*
X0055329Y0094092D01*
X0055329Y0094092D01*
X0055329Y0094092D01*
X0058704Y0094092D01*
X0058704Y0096691D01*
X0058581Y0097149D01*
X0058344Y0097560D01*
X0058009Y0097895D01*
X0057599Y0098132D01*
X0057141Y0098254D01*
X0055329Y0098254D01*
X0055329Y0096512D02*
X0055329Y0096512D01*
X0055329Y0094914D02*
X0055329Y0094914D01*
X0055329Y0093315D02*
X0055329Y0093315D01*
X0055329Y0091717D02*
X0055329Y0091717D01*
X0055329Y0090118D02*
X0055329Y0090118D01*
X0052946Y0090118D02*
X0052475Y0090118D01*
X0052475Y0088520D02*
X0068550Y0088520D01*
X0068550Y0090118D02*
X0064924Y0090118D01*
X0064736Y0089930D02*
X0065791Y0090984D01*
X0065791Y0091050D01*
X0068081Y0091050D01*
X0068550Y0090581D01*
X0068550Y0076723D01*
X0068915Y0075841D01*
X0069591Y0075165D01*
X0071756Y0073000D01*
X0072638Y0072635D01*
X0073274Y0072635D01*
X0073274Y0072321D01*
X0074328Y0071266D01*
X0085662Y0071266D01*
X0086717Y0072321D01*
X0086717Y0077749D01*
X0085662Y0078803D01*
X0074328Y0078803D01*
X0073535Y0078009D01*
X0073350Y0078194D01*
X0073350Y0080119D01*
X0074328Y0079140D01*
X0085662Y0079140D01*
X0086717Y0080195D01*
X0086717Y0085623D01*
X0085662Y0086677D01*
X0080225Y0086677D01*
X0080225Y0118302D01*
X0079860Y0119184D01*
X0079184Y0119860D01*
X0078537Y0120507D01*
X0077655Y0120873D01*
X0065803Y0120873D01*
X0065803Y0121580D01*
X0064748Y0122635D01*
X0060108Y0122635D01*
X0059053Y0121580D01*
X0059053Y0115365D01*
X0060108Y0114310D01*
X0064748Y0114310D01*
X0065803Y0115365D01*
X0065803Y0116073D01*
X0075425Y0116073D01*
X0075425Y0086677D01*
X0074328Y0086677D01*
X0073350Y0085699D01*
X0073350Y0092052D01*
X0072985Y0092934D01*
X0071110Y0094809D01*
X0070434Y0095485D01*
X0069552Y0095850D01*
X0065791Y0095850D01*
X0065791Y0097200D01*
X0064816Y0098175D01*
X0064816Y0102337D01*
X0065798Y0103319D01*
X0065798Y0109535D01*
X0064744Y0110589D01*
X0060103Y0110589D01*
X0059049Y0109535D01*
X0059049Y0103319D01*
X0060015Y0102353D01*
X0060015Y0102010D01*
X0060016Y0102007D01*
X0060016Y0098175D01*
X0059041Y0097200D01*
X0059041Y0090984D01*
X0060095Y0089930D01*
X0064736Y0089930D01*
X0059907Y0090118D02*
X0057712Y0090118D01*
X0058704Y0091717D02*
X0059041Y0091717D01*
X0059041Y0093315D02*
X0058704Y0093315D01*
X0058704Y0094914D02*
X0059041Y0094914D01*
X0059041Y0096512D02*
X0058704Y0096512D01*
X0057635Y0098111D02*
X0059952Y0098111D01*
X0060016Y0099709D02*
X0057018Y0099709D01*
X0058384Y0101308D02*
X0060016Y0101308D01*
X0059462Y0102906D02*
X0058737Y0102906D01*
X0058737Y0104505D02*
X0059049Y0104505D01*
X0059049Y0106103D02*
X0058737Y0106103D01*
X0058737Y0107702D02*
X0059049Y0107702D01*
X0059049Y0109300D02*
X0058737Y0109300D01*
X0058737Y0110899D02*
X0075425Y0110899D01*
X0075425Y0112497D02*
X0058737Y0112497D01*
X0058737Y0114096D02*
X0075425Y0114096D01*
X0075425Y0115694D02*
X0065803Y0115694D01*
X0065798Y0109300D02*
X0075425Y0109300D01*
X0075425Y0107702D02*
X0065798Y0107702D01*
X0065798Y0106103D02*
X0075425Y0106103D01*
X0075425Y0104505D02*
X0065798Y0104505D01*
X0065385Y0102906D02*
X0075425Y0102906D01*
X0075425Y0101308D02*
X0064816Y0101308D01*
X0064816Y0099709D02*
X0075425Y0099709D01*
X0075425Y0098111D02*
X0064880Y0098111D01*
X0065791Y0096512D02*
X0075425Y0096512D01*
X0075425Y0094914D02*
X0071005Y0094914D01*
X0072604Y0093315D02*
X0075425Y0093315D01*
X0075425Y0091717D02*
X0073350Y0091717D01*
X0073350Y0090118D02*
X0075425Y0090118D01*
X0075425Y0088520D02*
X0073350Y0088520D01*
X0073350Y0086921D02*
X0075425Y0086921D01*
X0080225Y0086921D02*
X0106300Y0086921D01*
X0106300Y0085323D02*
X0086717Y0085323D01*
X0086717Y0083724D02*
X0106300Y0083724D01*
X0106300Y0082126D02*
X0086717Y0082126D01*
X0086717Y0080527D02*
X0106300Y0080527D01*
X0106300Y0078929D02*
X0073350Y0078929D01*
X0068550Y0078929D02*
X0065691Y0078929D01*
X0065691Y0080527D02*
X0068550Y0080527D01*
X0068550Y0082126D02*
X0065691Y0082126D01*
X0065691Y0083724D02*
X0068550Y0083724D01*
X0068550Y0085323D02*
X0052475Y0085323D01*
X0052475Y0086921D02*
X0068550Y0086921D01*
X0058941Y0083724D02*
X0058604Y0083724D01*
X0058604Y0082126D02*
X0058941Y0082126D01*
X0058941Y0080527D02*
X0058629Y0080527D01*
X0058604Y0078929D02*
X0058941Y0078929D01*
X0059649Y0077330D02*
X0057897Y0077330D01*
X0059916Y0075732D02*
X0035039Y0075732D01*
X0035396Y0077330D02*
X0052562Y0077330D01*
X0056026Y0074133D02*
X0034352Y0074133D01*
X0032753Y0072534D02*
X0053882Y0072534D01*
X0053025Y0070936D02*
X0026756Y0070936D01*
X0027275Y0069337D02*
X0052711Y0069337D01*
X0052815Y0067739D02*
X0027794Y0067739D01*
X0028314Y0066140D02*
X0053478Y0066140D01*
X0054976Y0064542D02*
X0028833Y0064542D01*
X0029353Y0062943D02*
X0054291Y0062943D01*
X0053194Y0061345D02*
X0029891Y0061345D01*
X0030644Y0059746D02*
X0052711Y0059746D01*
X0052711Y0058148D02*
X0031396Y0058148D01*
X0032148Y0056549D02*
X0053308Y0056549D01*
X0054567Y0054951D02*
X0032900Y0054951D01*
X0033652Y0053352D02*
X0054700Y0053352D01*
X0053363Y0051754D02*
X0034416Y0051754D01*
X0035431Y0050155D02*
X0052711Y0050155D01*
X0052711Y0048557D02*
X0036445Y0048557D01*
X0037460Y0046958D02*
X0053139Y0046958D01*
X0054158Y0045360D02*
X0038474Y0045360D01*
X0039489Y0043761D02*
X0055128Y0043761D01*
X0053533Y0042163D02*
X0040629Y0042163D01*
X0041952Y0040564D02*
X0052871Y0040564D01*
X0052711Y0038966D02*
X0043274Y0038966D01*
X0044597Y0037367D02*
X0052969Y0037367D01*
X0053749Y0035769D02*
X0045919Y0035769D01*
X0047343Y0034170D02*
X0055704Y0034170D01*
X0053920Y0032572D02*
X0049045Y0032572D01*
X0050748Y0030973D02*
X0053040Y0030973D01*
X0052711Y0029375D02*
X0052450Y0029375D01*
X0059602Y0023708D02*
X0061327Y0024422D01*
X0062874Y0025970D01*
X0063711Y0027991D01*
X0063711Y0030179D01*
X0062874Y0032201D01*
X0061327Y0033748D01*
X0060512Y0034085D01*
X0061327Y0034422D01*
X0062080Y0035176D01*
X0062665Y0034591D01*
X0063341Y0033915D01*
X0064223Y0033550D01*
X0073274Y0033550D01*
X0073274Y0032950D01*
X0074310Y0031915D01*
X0073274Y0030879D01*
X0073274Y0025450D01*
X0074328Y0024396D01*
X0079521Y0024396D01*
X0092693Y0011224D01*
X0093796Y0010767D01*
X0106043Y0010767D01*
X0106043Y0010660D01*
X0107098Y0009605D01*
X0111738Y0009605D01*
X0112793Y0010660D01*
X0112793Y0013030D01*
X0112818Y0013091D01*
X0112818Y0040050D01*
X0125569Y0040050D01*
X0125294Y0039775D01*
X0124718Y0038385D01*
X0124718Y0036881D01*
X0125294Y0035491D01*
X0126357Y0034428D01*
X0127747Y0033852D01*
X0128886Y0033852D01*
X0129108Y0033630D01*
X0129990Y0033265D01*
X0137841Y0033265D01*
X0137841Y0032950D01*
X0138895Y0031896D01*
X0139266Y0031896D01*
X0138946Y0031810D01*
X0138536Y0031573D01*
X0138201Y0031238D01*
X0137964Y0030828D01*
X0137841Y0030370D01*
X0137841Y0028349D01*
X0144378Y0028349D01*
X0144378Y0027980D01*
X0144746Y0027980D01*
X0144746Y0024396D01*
X0149720Y0024396D01*
X0150178Y0024519D01*
X0150589Y0024756D01*
X0150924Y0025091D01*
X0151161Y0025501D01*
X0151283Y0025959D01*
X0151283Y0027980D01*
X0144747Y0027980D01*
X0144747Y0028349D01*
X0151283Y0028349D01*
X0151283Y0030370D01*
X0151161Y0030828D01*
X0150924Y0031238D01*
X0150589Y0031573D01*
X0150178Y0031810D01*
X0149858Y0031896D01*
X0150229Y0031896D01*
X0151283Y0032950D01*
X0151283Y0038379D01*
X0150229Y0039433D01*
X0138895Y0039433D01*
X0137841Y0038379D01*
X0137841Y0038065D01*
X0132280Y0038065D01*
X0132280Y0038385D01*
X0131705Y0039775D01*
X0131430Y0040050D01*
X0138615Y0040050D01*
X0138895Y0039770D01*
X0143385Y0039770D01*
X0143886Y0039563D01*
X0154495Y0039563D01*
X0154495Y0038665D01*
X0155333Y0036644D01*
X0156880Y0035096D01*
X0157694Y0034759D01*
X0157113Y0034463D01*
X0156412Y0033954D01*
X0155800Y0033342D01*
X0155291Y0032642D01*
X0154898Y0031870D01*
X0154631Y0031047D01*
X0154495Y0030192D01*
X0154495Y0029959D01*
X0159795Y0029959D01*
X0159795Y0029559D01*
X0154495Y0029559D01*
X0154495Y0029326D01*
X0154631Y0028471D01*
X0154898Y0027648D01*
X0155291Y0026876D01*
X0155800Y0026176D01*
X0156412Y0025564D01*
X0157113Y0025055D01*
X0157884Y0024662D01*
X0158707Y0024394D01*
X0158924Y0024360D01*
X0154333Y0021025D01*
X0144985Y0015885D01*
X0135066Y0011958D01*
X0124732Y0009305D01*
X0114148Y0007968D01*
X0103480Y0007968D01*
X0092896Y0009305D01*
X0082563Y0011958D01*
X0072644Y0015885D01*
X0063295Y0021025D01*
X0059602Y0023708D01*
X0060603Y0022981D02*
X0080937Y0022981D01*
X0082535Y0021382D02*
X0062803Y0021382D01*
X0065552Y0019784D02*
X0084134Y0019784D01*
X0085732Y0018185D02*
X0068460Y0018185D01*
X0071368Y0016587D02*
X0087331Y0016587D01*
X0088929Y0014988D02*
X0074909Y0014988D01*
X0078947Y0013390D02*
X0090528Y0013390D01*
X0092126Y0011791D02*
X0083212Y0011791D01*
X0089438Y0010193D02*
X0106510Y0010193D01*
X0112326Y0010193D02*
X0113597Y0010193D01*
X0113489Y0010300D02*
X0113825Y0009965D01*
X0114235Y0009728D01*
X0114693Y0009605D01*
X0116505Y0009605D01*
X0118316Y0009605D01*
X0118774Y0009728D01*
X0119185Y0009965D01*
X0119520Y0010300D01*
X0119757Y0010710D01*
X0119879Y0011168D01*
X0119879Y0013767D01*
X0116505Y0013767D01*
X0116505Y0013767D01*
X0116505Y0009605D01*
X0116505Y0013767D01*
X0116505Y0013767D01*
X0119879Y0013767D01*
X0119879Y0016367D01*
X0119757Y0016824D01*
X0119520Y0017235D01*
X0119185Y0017570D01*
X0118774Y0017807D01*
X0118316Y0017930D01*
X0116505Y0017930D01*
X0116505Y0013768D01*
X0116505Y0013768D01*
X0116505Y0017930D01*
X0114693Y0017930D01*
X0114235Y0017807D01*
X0113825Y0017570D01*
X0113489Y0017235D01*
X0113253Y0016824D01*
X0113130Y0016367D01*
X0113130Y0013767D01*
X0113130Y0011168D01*
X0113253Y0010710D01*
X0113489Y0010300D01*
X0113130Y0011791D02*
X0112793Y0011791D01*
X0112818Y0013390D02*
X0113130Y0013390D01*
X0113130Y0013767D02*
X0116505Y0013767D01*
X0116505Y0013767D01*
X0113130Y0013767D01*
X0113130Y0014988D02*
X0112818Y0014988D01*
X0112818Y0016587D02*
X0113189Y0016587D01*
X0112818Y0018185D02*
X0149168Y0018185D01*
X0146261Y0016587D02*
X0119820Y0016587D01*
X0119879Y0014988D02*
X0142719Y0014988D01*
X0138682Y0013390D02*
X0119879Y0013390D01*
X0119879Y0011791D02*
X0134416Y0011791D01*
X0128190Y0010193D02*
X0119412Y0010193D01*
X0119107Y0008594D02*
X0098521Y0008594D01*
X0094217Y0018185D02*
X0106018Y0018185D01*
X0106018Y0019784D02*
X0092619Y0019784D01*
X0091020Y0021382D02*
X0106018Y0021382D01*
X0106018Y0022981D02*
X0089422Y0022981D01*
X0087823Y0024579D02*
X0106018Y0024579D01*
X0106018Y0026178D02*
X0086717Y0026178D01*
X0086717Y0027776D02*
X0106018Y0027776D01*
X0106018Y0029375D02*
X0086717Y0029375D01*
X0086622Y0030973D02*
X0106018Y0030973D01*
X0106018Y0032572D02*
X0086338Y0032572D01*
X0086717Y0034170D02*
X0106018Y0034170D01*
X0106018Y0035769D02*
X0086717Y0035769D01*
X0086717Y0037367D02*
X0106018Y0037367D01*
X0106018Y0038966D02*
X0086129Y0038966D01*
X0086456Y0040564D02*
X0106018Y0040564D01*
X0106018Y0042163D02*
X0086717Y0042163D01*
X0086717Y0043761D02*
X0106300Y0043761D01*
X0106300Y0045360D02*
X0086717Y0045360D01*
X0086011Y0046958D02*
X0106300Y0046958D01*
X0106300Y0048557D02*
X0086575Y0048557D01*
X0086717Y0050155D02*
X0106300Y0050155D01*
X0106300Y0051754D02*
X0086717Y0051754D01*
X0086717Y0053352D02*
X0106300Y0053352D01*
X0106300Y0054951D02*
X0085892Y0054951D01*
X0085662Y0055518D02*
X0086717Y0056573D01*
X0086717Y0062001D01*
X0085662Y0063055D01*
X0074328Y0063055D01*
X0073274Y0062001D01*
X0073274Y0056573D01*
X0074328Y0055518D01*
X0085662Y0055518D01*
X0086693Y0056549D02*
X0106300Y0056549D01*
X0106300Y0058148D02*
X0086717Y0058148D01*
X0086717Y0059746D02*
X0106300Y0059746D01*
X0106300Y0061345D02*
X0086717Y0061345D01*
X0085774Y0062943D02*
X0106300Y0062943D01*
X0106300Y0064542D02*
X0086717Y0064542D01*
X0086717Y0066140D02*
X0106300Y0066140D01*
X0106300Y0067739D02*
X0086717Y0067739D01*
X0086717Y0069337D02*
X0106300Y0069337D01*
X0106300Y0070936D02*
X0068733Y0070936D01*
X0067135Y0072534D02*
X0073274Y0072534D01*
X0070623Y0074133D02*
X0065536Y0074133D01*
X0064716Y0075732D02*
X0069024Y0075732D01*
X0068550Y0077330D02*
X0064983Y0077330D01*
X0070332Y0069337D02*
X0073274Y0069337D01*
X0074217Y0062943D02*
X0062131Y0062943D01*
X0061446Y0064542D02*
X0068339Y0064542D01*
X0066740Y0066140D02*
X0062944Y0066140D01*
X0063607Y0067739D02*
X0065142Y0067739D01*
X0064881Y0061345D02*
X0073274Y0061345D01*
X0073274Y0059746D02*
X0066798Y0059746D01*
X0068396Y0058148D02*
X0073274Y0058148D01*
X0073297Y0056549D02*
X0069995Y0056549D01*
X0071593Y0054951D02*
X0074098Y0054951D01*
X0073274Y0053352D02*
X0073192Y0053352D01*
X0069601Y0050155D02*
X0066389Y0050155D01*
X0067987Y0048557D02*
X0071706Y0048557D01*
X0069586Y0046958D02*
X0073980Y0046958D01*
X0068002Y0051754D02*
X0063059Y0051754D01*
X0061722Y0053352D02*
X0066404Y0053352D01*
X0064805Y0054951D02*
X0061855Y0054951D01*
X0063114Y0056549D02*
X0063206Y0056549D01*
X0062264Y0045360D02*
X0064396Y0045360D01*
X0065995Y0043761D02*
X0061294Y0043761D01*
X0062889Y0042163D02*
X0067593Y0042163D01*
X0065078Y0038966D02*
X0073861Y0038966D01*
X0073534Y0040564D02*
X0063551Y0040564D01*
X0063086Y0034170D02*
X0060718Y0034170D01*
X0062502Y0032572D02*
X0073653Y0032572D01*
X0073369Y0030973D02*
X0063382Y0030973D01*
X0063711Y0029375D02*
X0073274Y0029375D01*
X0073274Y0027776D02*
X0063622Y0027776D01*
X0062960Y0026178D02*
X0073274Y0026178D01*
X0074145Y0024579D02*
X0061483Y0024579D01*
X0112818Y0024579D02*
X0138841Y0024579D01*
X0138946Y0024519D02*
X0139404Y0024396D01*
X0144378Y0024396D01*
X0144378Y0027980D01*
X0137841Y0027980D01*
X0137841Y0025959D01*
X0137964Y0025501D01*
X0138201Y0025091D01*
X0138536Y0024756D01*
X0138946Y0024519D01*
X0137841Y0026178D02*
X0112818Y0026178D01*
X0112818Y0027776D02*
X0137841Y0027776D01*
X0137841Y0029375D02*
X0112818Y0029375D01*
X0112818Y0030973D02*
X0138048Y0030973D01*
X0138220Y0032572D02*
X0112818Y0032572D01*
X0112818Y0034170D02*
X0126979Y0034170D01*
X0125179Y0035769D02*
X0112818Y0035769D01*
X0112818Y0037367D02*
X0124718Y0037367D01*
X0124959Y0038966D02*
X0112818Y0038966D01*
X0113100Y0046958D02*
X0138547Y0046958D01*
X0137983Y0048557D02*
X0135834Y0048557D01*
X0133566Y0048557D02*
X0113100Y0048557D01*
X0113100Y0050155D02*
X0131434Y0050155D01*
X0130900Y0051754D02*
X0113100Y0051754D01*
X0113100Y0053352D02*
X0131064Y0053352D01*
X0133186Y0055686D02*
X0133500Y0056444D01*
X0133500Y0057619D01*
X0137841Y0061960D01*
X0137841Y0058722D01*
X0135119Y0056000D01*
X0133944Y0056000D01*
X0133186Y0055686D01*
X0133500Y0056549D02*
X0135669Y0056549D01*
X0137267Y0058148D02*
X0134029Y0058148D01*
X0135627Y0059746D02*
X0137841Y0059746D01*
X0137841Y0061345D02*
X0137226Y0061345D01*
X0133661Y0064542D02*
X0113100Y0064542D01*
X0113100Y0066140D02*
X0135260Y0066140D01*
X0136858Y0067739D02*
X0113100Y0067739D01*
X0113100Y0069337D02*
X0137841Y0069337D01*
X0138895Y0071266D02*
X0150229Y0071266D01*
X0151283Y0072321D01*
X0151283Y0077749D01*
X0150229Y0078803D01*
X0138895Y0078803D01*
X0137841Y0077749D01*
X0137841Y0072321D01*
X0138895Y0071266D01*
X0137841Y0072534D02*
X0113100Y0072534D01*
X0113100Y0070936D02*
X0190873Y0070936D01*
X0191270Y0072534D02*
X0151283Y0072534D01*
X0151283Y0074133D02*
X0191575Y0074133D01*
X0191880Y0075732D02*
X0151283Y0075732D01*
X0151283Y0077330D02*
X0192185Y0077330D01*
X0192490Y0078929D02*
X0113100Y0078929D01*
X0113100Y0080527D02*
X0137841Y0080527D01*
X0137841Y0080391D02*
X0139091Y0079140D01*
X0150033Y0079140D01*
X0151283Y0080391D01*
X0151283Y0085427D01*
X0150033Y0086677D01*
X0139091Y0086677D01*
X0137841Y0085427D01*
X0137841Y0080391D01*
X0137841Y0082126D02*
X0113100Y0082126D01*
X0113100Y0083724D02*
X0137841Y0083724D01*
X0137841Y0085323D02*
X0113100Y0085323D01*
X0113100Y0086921D02*
X0193399Y0086921D01*
X0193298Y0085323D02*
X0151283Y0085323D01*
X0151283Y0083724D02*
X0193197Y0083724D01*
X0193097Y0082126D02*
X0151283Y0082126D01*
X0151283Y0080527D02*
X0192795Y0080527D01*
X0193499Y0088520D02*
X0113100Y0088520D01*
X0113100Y0090118D02*
X0193600Y0090118D01*
X0193700Y0091717D02*
X0166740Y0091717D01*
X0167014Y0093315D02*
X0193730Y0093315D01*
X0193629Y0094914D02*
X0167014Y0094914D01*
X0167014Y0096512D02*
X0193529Y0096512D01*
X0193428Y0098111D02*
X0166880Y0098111D01*
X0163639Y0098111D02*
X0163639Y0098111D01*
X0163639Y0096512D02*
X0163639Y0096512D01*
X0163639Y0095035D02*
X0163639Y0095035D01*
X0163639Y0090873D01*
X0161827Y0090873D01*
X0161369Y0090995D01*
X0160959Y0091232D01*
X0160624Y0091567D01*
X0160387Y0091978D01*
X0160264Y0092436D01*
X0160264Y0095035D01*
X0163639Y0095035D01*
X0163639Y0094914D02*
X0163639Y0094914D01*
X0163639Y0093315D02*
X0163639Y0093315D01*
X0163639Y0091717D02*
X0163639Y0091717D01*
X0160537Y0091717D02*
X0159716Y0091717D01*
X0159927Y0093315D02*
X0160264Y0093315D01*
X0160264Y0094914D02*
X0159927Y0094914D01*
X0163500Y0099709D02*
X0193328Y0099709D01*
X0193227Y0101308D02*
X0163147Y0101308D01*
X0161868Y0102906D02*
X0193126Y0102906D01*
X0192884Y0104505D02*
X0167171Y0104505D01*
X0167171Y0106103D02*
X0192580Y0106103D01*
X0192275Y0107702D02*
X0167197Y0107702D01*
X0167176Y0109300D02*
X0191970Y0109300D01*
X0191665Y0110899D02*
X0167176Y0110899D01*
X0167176Y0112497D02*
X0191360Y0112497D01*
X0191026Y0114096D02*
X0167176Y0114096D01*
X0167176Y0115694D02*
X0190506Y0115694D01*
X0189987Y0117293D02*
X0167176Y0117293D01*
X0167176Y0118891D02*
X0189467Y0118891D01*
X0188948Y0120490D02*
X0167176Y0120490D01*
X0167151Y0122088D02*
X0188429Y0122088D01*
X0187909Y0123687D02*
X0166394Y0123687D01*
X0161157Y0123687D02*
X0159308Y0123687D01*
X0160064Y0122088D02*
X0160401Y0122088D01*
X0160376Y0120490D02*
X0160064Y0120490D01*
X0160064Y0118891D02*
X0160376Y0118891D01*
X0154070Y0123687D02*
X0058741Y0123687D01*
X0058741Y0122088D02*
X0059561Y0122088D01*
X0059053Y0120490D02*
X0058741Y0120490D01*
X0058741Y0118891D02*
X0059053Y0118891D01*
X0059053Y0117293D02*
X0058737Y0117293D01*
X0058737Y0115694D02*
X0059053Y0115694D01*
X0065295Y0122088D02*
X0111116Y0122088D01*
X0110310Y0120490D02*
X0078554Y0120490D01*
X0079981Y0118891D02*
X0110317Y0118891D01*
X0113100Y0109300D02*
X0148957Y0109300D01*
X0148400Y0107702D02*
X0113100Y0107702D01*
X0113100Y0106103D02*
X0148541Y0106103D01*
X0149521Y0104505D02*
X0113100Y0104505D01*
X0113100Y0102906D02*
X0157532Y0102906D01*
X0156253Y0101308D02*
X0113100Y0101308D01*
X0113100Y0099709D02*
X0155900Y0099709D01*
X0153177Y0098111D02*
X0113100Y0098111D01*
X0113100Y0096512D02*
X0153177Y0096512D01*
X0153177Y0094914D02*
X0113100Y0094914D01*
X0113100Y0093315D02*
X0153177Y0093315D01*
X0153388Y0091717D02*
X0113100Y0091717D01*
X0106300Y0091717D02*
X0080225Y0091717D01*
X0080225Y0093315D02*
X0106300Y0093315D01*
X0106300Y0094914D02*
X0080225Y0094914D01*
X0080225Y0096512D02*
X0106300Y0096512D01*
X0106300Y0098111D02*
X0080225Y0098111D01*
X0080225Y0099709D02*
X0106300Y0099709D01*
X0106300Y0101308D02*
X0080225Y0101308D01*
X0080225Y0102906D02*
X0106300Y0102906D01*
X0106300Y0104505D02*
X0080225Y0104505D01*
X0080225Y0106103D02*
X0106300Y0106103D01*
X0106300Y0107702D02*
X0080225Y0107702D01*
X0080225Y0109300D02*
X0106300Y0109300D01*
X0096904Y0110899D02*
X0080225Y0110899D01*
X0080225Y0112497D02*
X0095636Y0112497D01*
X0095294Y0114096D02*
X0080225Y0114096D01*
X0080225Y0115694D02*
X0095653Y0115694D01*
X0096963Y0117293D02*
X0080225Y0117293D01*
X0071258Y0125285D02*
X0187206Y0125285D01*
X0186454Y0126884D02*
X0072153Y0126884D01*
X0072231Y0128482D02*
X0185702Y0128482D01*
X0184950Y0130081D02*
X0071541Y0130081D01*
X0025816Y0094914D02*
X0023999Y0094914D01*
X0023898Y0093315D02*
X0024819Y0093315D01*
X0024669Y0091717D02*
X0023928Y0091717D01*
X0024029Y0090118D02*
X0025220Y0090118D01*
X0024129Y0088520D02*
X0027455Y0088520D01*
X0024230Y0086921D02*
X0045675Y0086921D01*
X0046372Y0078929D02*
X0046913Y0078929D01*
X0032930Y0083724D02*
X0031933Y0083724D01*
X0033112Y0085323D02*
X0024330Y0085323D01*
X0024431Y0083724D02*
X0025715Y0083724D01*
X0080225Y0088520D02*
X0106300Y0088520D01*
X0106300Y0090118D02*
X0080225Y0090118D01*
X0086717Y0077330D02*
X0106300Y0077330D01*
X0106300Y0075732D02*
X0086717Y0075732D01*
X0086717Y0074133D02*
X0106300Y0074133D01*
X0106300Y0072534D02*
X0086717Y0072534D01*
X0113100Y0074133D02*
X0137841Y0074133D01*
X0137841Y0075732D02*
X0113100Y0075732D01*
X0113100Y0077330D02*
X0137841Y0077330D01*
X0151283Y0069337D02*
X0190353Y0069337D01*
X0189834Y0067739D02*
X0151283Y0067739D01*
X0151283Y0066140D02*
X0189315Y0066140D01*
X0188795Y0064542D02*
X0151283Y0064542D01*
X0150341Y0062943D02*
X0188276Y0062943D01*
X0187737Y0061345D02*
X0151283Y0061345D01*
X0155028Y0059746D02*
X0186985Y0059746D01*
X0186232Y0058148D02*
X0155920Y0058148D01*
X0156000Y0056549D02*
X0185480Y0056549D01*
X0184728Y0054951D02*
X0155325Y0054951D01*
X0151733Y0053352D02*
X0183976Y0053352D01*
X0183212Y0051754D02*
X0151283Y0051754D01*
X0151283Y0050155D02*
X0182197Y0050155D01*
X0181183Y0048557D02*
X0151142Y0048557D01*
X0150578Y0046958D02*
X0180169Y0046958D01*
X0179154Y0045360D02*
X0159203Y0045360D01*
X0163771Y0043761D02*
X0178140Y0043761D01*
X0176999Y0042163D02*
X0164953Y0042163D01*
X0165495Y0040564D02*
X0175677Y0040564D01*
X0174354Y0038966D02*
X0165495Y0038966D01*
X0164958Y0037367D02*
X0173032Y0037367D01*
X0171709Y0035769D02*
X0163783Y0035769D01*
X0163281Y0034170D02*
X0170285Y0034170D01*
X0168583Y0032572D02*
X0164735Y0032572D01*
X0165372Y0030973D02*
X0166881Y0030973D01*
X0158139Y0024579D02*
X0150283Y0024579D01*
X0151283Y0026178D02*
X0155799Y0026178D01*
X0154857Y0027776D02*
X0151283Y0027776D01*
X0151283Y0029375D02*
X0154495Y0029375D01*
X0154619Y0030973D02*
X0151077Y0030973D01*
X0150905Y0032572D02*
X0155256Y0032572D01*
X0156710Y0034170D02*
X0151283Y0034170D01*
X0151283Y0035769D02*
X0156207Y0035769D01*
X0155033Y0037367D02*
X0151283Y0037367D01*
X0150696Y0038966D02*
X0154495Y0038966D01*
X0144746Y0027776D02*
X0144378Y0027776D01*
X0144378Y0026178D02*
X0144746Y0026178D01*
X0144746Y0024579D02*
X0144378Y0024579D01*
X0152076Y0019784D02*
X0112818Y0019784D01*
X0112818Y0021382D02*
X0154826Y0021382D01*
X0157026Y0022981D02*
X0112818Y0022981D01*
X0116505Y0016587D02*
X0116505Y0016587D01*
X0116505Y0014988D02*
X0116505Y0014988D01*
X0116505Y0013390D02*
X0116505Y0013390D01*
X0116505Y0011791D02*
X0116505Y0011791D01*
X0116505Y0010193D02*
X0116505Y0010193D01*
X0140785Y0002200D02*
X0222200Y0002200D01*
X0140785Y0002200D01*
X0149753Y0005751D01*
X0149753Y0005751D01*
X0160335Y0011568D01*
X0170103Y0018665D01*
X0170103Y0018665D01*
X0178905Y0026931D01*
X0178905Y0026931D01*
X0186602Y0036235D01*
X0193072Y0046430D01*
X0198213Y0057356D01*
X0201945Y0068839D01*
X0204207Y0080700D01*
X0204965Y0092751D01*
X0204207Y0104802D01*
X0201945Y0116663D01*
X0198213Y0128147D01*
X0193072Y0139072D01*
X0193072Y0139072D01*
X0186602Y0149267D01*
X0186602Y0149267D01*
X0178905Y0158571D01*
X0170103Y0166837D01*
X0160335Y0173934D01*
X0149753Y0179751D01*
X0141978Y0182830D01*
X0222200Y0182830D01*
X0222200Y0002200D01*
X0222200Y0003799D02*
X0144822Y0003799D01*
X0148859Y0005397D02*
X0222200Y0005397D01*
X0222200Y0006996D02*
X0152017Y0006996D01*
X0154925Y0008594D02*
X0222200Y0008594D01*
X0222200Y0010193D02*
X0157833Y0010193D01*
X0160335Y0011568D02*
X0160335Y0011568D01*
X0160641Y0011791D02*
X0222200Y0011791D01*
X0222200Y0013390D02*
X0162842Y0013390D01*
X0165042Y0014988D02*
X0222200Y0014988D01*
X0222200Y0016587D02*
X0167242Y0016587D01*
X0169442Y0018185D02*
X0222200Y0018185D01*
X0222200Y0019784D02*
X0171294Y0019784D01*
X0172996Y0021382D02*
X0222200Y0021382D01*
X0222200Y0022981D02*
X0174698Y0022981D01*
X0176401Y0024579D02*
X0222200Y0024579D01*
X0222200Y0026178D02*
X0178103Y0026178D01*
X0179604Y0027776D02*
X0222200Y0027776D01*
X0222200Y0029375D02*
X0180927Y0029375D01*
X0182249Y0030973D02*
X0222200Y0030973D01*
X0222200Y0032572D02*
X0183572Y0032572D01*
X0184894Y0034170D02*
X0222200Y0034170D01*
X0222200Y0035769D02*
X0186216Y0035769D01*
X0187321Y0037367D02*
X0222200Y0037367D01*
X0222200Y0038966D02*
X0188335Y0038966D01*
X0189350Y0040564D02*
X0222200Y0040564D01*
X0222200Y0042163D02*
X0190364Y0042163D01*
X0191378Y0043761D02*
X0222200Y0043761D01*
X0222200Y0045360D02*
X0192393Y0045360D01*
X0193321Y0046958D02*
X0222200Y0046958D01*
X0222200Y0048557D02*
X0194073Y0048557D01*
X0194825Y0050155D02*
X0222200Y0050155D01*
X0222200Y0051754D02*
X0195577Y0051754D01*
X0196330Y0053352D02*
X0222200Y0053352D01*
X0222200Y0054951D02*
X0197082Y0054951D01*
X0197834Y0056549D02*
X0222200Y0056549D01*
X0222200Y0058148D02*
X0198471Y0058148D01*
X0198990Y0059746D02*
X0222200Y0059746D01*
X0222200Y0061345D02*
X0199509Y0061345D01*
X0200029Y0062943D02*
X0222200Y0062943D01*
X0222200Y0064542D02*
X0200548Y0064542D01*
X0201068Y0066140D02*
X0222200Y0066140D01*
X0222200Y0067739D02*
X0201587Y0067739D01*
X0202040Y0069337D02*
X0222200Y0069337D01*
X0222200Y0070936D02*
X0202345Y0070936D01*
X0202649Y0072534D02*
X0222200Y0072534D01*
X0222200Y0074133D02*
X0202954Y0074133D01*
X0203259Y0075732D02*
X0222200Y0075732D01*
X0222200Y0077330D02*
X0203564Y0077330D01*
X0203869Y0078929D02*
X0222200Y0078929D01*
X0222200Y0080527D02*
X0204174Y0080527D01*
X0204297Y0082126D02*
X0222200Y0082126D01*
X0222200Y0083724D02*
X0204397Y0083724D01*
X0204498Y0085323D02*
X0222200Y0085323D01*
X0222200Y0086921D02*
X0204599Y0086921D01*
X0204699Y0088520D02*
X0222200Y0088520D01*
X0222200Y0090118D02*
X0204800Y0090118D01*
X0204900Y0091717D02*
X0222200Y0091717D01*
X0222200Y0093315D02*
X0204930Y0093315D01*
X0204829Y0094914D02*
X0222200Y0094914D01*
X0222200Y0096512D02*
X0204729Y0096512D01*
X0204628Y0098111D02*
X0222200Y0098111D01*
X0222200Y0099709D02*
X0204528Y0099709D01*
X0204427Y0101308D02*
X0222200Y0101308D01*
X0222200Y0102906D02*
X0204326Y0102906D01*
X0204226Y0104505D02*
X0222200Y0104505D01*
X0222200Y0106103D02*
X0203959Y0106103D01*
X0204207Y0104802D02*
X0204207Y0104802D01*
X0203654Y0107702D02*
X0222200Y0107702D01*
X0222200Y0109300D02*
X0203349Y0109300D01*
X0203044Y0110899D02*
X0222200Y0110899D01*
X0222200Y0112497D02*
X0202739Y0112497D01*
X0202434Y0114096D02*
X0222200Y0114096D01*
X0222200Y0115694D02*
X0202129Y0115694D01*
X0201945Y0116663D02*
X0201945Y0116663D01*
X0201740Y0117293D02*
X0222200Y0117293D01*
X0222200Y0118891D02*
X0201221Y0118891D01*
X0200701Y0120490D02*
X0222200Y0120490D01*
X0222200Y0122088D02*
X0200182Y0122088D01*
X0199662Y0123687D02*
X0222200Y0123687D01*
X0222200Y0125285D02*
X0199143Y0125285D01*
X0198624Y0126884D02*
X0222200Y0126884D01*
X0222200Y0128482D02*
X0198055Y0128482D01*
X0198213Y0128147D02*
X0198213Y0128147D01*
X0197303Y0130081D02*
X0222200Y0130081D01*
X0222200Y0131679D02*
X0196551Y0131679D01*
X0195799Y0133278D02*
X0222200Y0133278D01*
X0222200Y0134876D02*
X0195047Y0134876D01*
X0194294Y0136475D02*
X0222200Y0136475D01*
X0222200Y0138073D02*
X0193542Y0138073D01*
X0192692Y0139672D02*
X0222200Y0139672D01*
X0222200Y0141270D02*
X0191677Y0141270D01*
X0190663Y0142869D02*
X0222200Y0142869D01*
X0222200Y0144468D02*
X0189648Y0144468D01*
X0188634Y0146066D02*
X0222200Y0146066D01*
X0222200Y0147665D02*
X0187619Y0147665D01*
X0186605Y0149263D02*
X0222200Y0149263D01*
X0222200Y0150862D02*
X0185283Y0150862D01*
X0183961Y0152460D02*
X0222200Y0152460D01*
X0222200Y0154059D02*
X0182639Y0154059D01*
X0181316Y0155657D02*
X0222200Y0155657D01*
X0222200Y0157256D02*
X0179994Y0157256D01*
X0178905Y0158571D02*
X0178905Y0158571D01*
X0178905Y0158571D01*
X0178604Y0158854D02*
X0222200Y0158854D01*
X0222200Y0160453D02*
X0176902Y0160453D01*
X0175200Y0162051D02*
X0222200Y0162051D01*
X0222200Y0163650D02*
X0173497Y0163650D01*
X0171795Y0165248D02*
X0222200Y0165248D01*
X0222200Y0166847D02*
X0170090Y0166847D01*
X0167890Y0168445D02*
X0222200Y0168445D01*
X0222200Y0170044D02*
X0165690Y0170044D01*
X0163489Y0171642D02*
X0222200Y0171642D01*
X0222200Y0173241D02*
X0161289Y0173241D01*
X0158688Y0174839D02*
X0222200Y0174839D01*
X0222200Y0176438D02*
X0155781Y0176438D01*
X0152873Y0178036D02*
X0222200Y0178036D01*
X0222200Y0179635D02*
X0149965Y0179635D01*
X0146010Y0181233D02*
X0222200Y0181233D01*
X0160376Y0109300D02*
X0160085Y0109300D01*
X0160085Y0107702D02*
X0160376Y0107702D01*
X0160422Y0106103D02*
X0160085Y0106103D01*
X0160085Y0104505D02*
X0160422Y0104505D01*
X0132063Y0062943D02*
X0113100Y0062943D01*
X0113100Y0061345D02*
X0130464Y0061345D01*
X0126872Y0059746D02*
X0113100Y0059746D01*
X0113100Y0058148D02*
X0125980Y0058148D01*
X0125900Y0056549D02*
X0113100Y0056549D01*
X0113100Y0054951D02*
X0126575Y0054951D01*
X0141062Y0055181D02*
X0141399Y0055518D01*
X0147137Y0055518D01*
X0146800Y0055181D01*
X0141062Y0055181D01*
X0138428Y0038966D02*
X0132040Y0038966D01*
D16*
X0109418Y0013767D02*
X0094392Y0013767D01*
X0079995Y0028165D01*
D17*
X0109418Y0041575D02*
X0109418Y0013767D01*
X0109418Y0041575D02*
X0109700Y0041857D01*
X0109700Y0114075D01*
X0099075Y0114075D01*
X0109700Y0114075D02*
X0163450Y0114075D01*
X0163776Y0113749D01*
X0163776Y0107582D01*
X0163797Y0107561D01*
X0163776Y0113749D02*
X0163776Y0119823D01*
X0156792Y0042963D02*
X0144562Y0042963D01*
X0144562Y0043539D01*
X0144474Y0043450D01*
X0110950Y0043450D01*
X0109418Y0041918D01*
X0109418Y0041575D01*
X0156792Y0042963D02*
X0159995Y0039759D01*
X0055229Y0081145D02*
X0049505Y0081145D01*
X0049075Y0081575D01*
X0049075Y0101093D01*
X0049700Y0101718D01*
X0054218Y0101718D01*
X0055337Y0102837D01*
X0055337Y0106427D01*
X0055337Y0118468D01*
X0055341Y0118473D01*
X0055341Y0125934D01*
X0055325Y0125950D01*
X0057200Y0127825D01*
X0068450Y0127825D01*
X0055341Y0118473D02*
X0055325Y0118456D01*
X0049700Y0101718D02*
X0039651Y0101718D01*
X0039651Y0091875D02*
X0028450Y0091875D01*
X0028450Y0092200D01*
D18*
X0028450Y0092200D03*
X0068450Y0127825D03*
X0099075Y0114075D03*
X0114075Y0119700D03*
X0128499Y0037633D03*
D19*
X0144700Y0049700D02*
X0144562Y0051413D01*
X0144700Y0049700D02*
X0152200Y0057200D01*
X0144562Y0059287D02*
X0142200Y0059700D01*
X0134700Y0052200D01*
X0129700Y0057200D02*
X0139700Y0067200D01*
X0142200Y0067200D01*
X0144562Y0067161D01*
X0156552Y0095035D02*
X0157200Y0097200D01*
X0159700Y0099700D01*
X0157200Y0107200D02*
X0152200Y0107200D01*
X0156710Y0107561D02*
X0157200Y0107200D01*
D20*
X0152200Y0107200D03*
X0159700Y0099700D03*
X0152200Y0057200D03*
X0134700Y0052200D03*
X0129700Y0057200D03*
D21*
X0128499Y0037633D02*
X0130468Y0035665D01*
X0144562Y0035665D01*
X0079995Y0035665D02*
X0079710Y0035950D01*
X0064700Y0035950D01*
X0061565Y0039085D01*
X0058211Y0039085D01*
X0058211Y0049085D02*
X0064065Y0049085D01*
X0069700Y0043450D01*
X0079907Y0043450D01*
X0079995Y0043539D01*
X0079533Y0050950D02*
X0072200Y0050950D01*
X0064065Y0059085D01*
X0058211Y0059085D01*
X0069700Y0066575D02*
X0079410Y0066575D01*
X0079995Y0067161D01*
X0079995Y0075035D02*
X0073115Y0075035D01*
X0070950Y0077200D01*
X0070950Y0091575D01*
X0069075Y0093450D01*
X0063058Y0093450D01*
X0062416Y0094092D01*
X0062416Y0102482D01*
X0062424Y0106427D01*
X0062428Y0118473D02*
X0077177Y0118473D01*
X0077825Y0117825D01*
X0077825Y0082825D01*
X0079912Y0082825D01*
X0079995Y0082909D01*
X0062316Y0081145D02*
X0062316Y0073959D01*
X0069700Y0066575D01*
X0079995Y0051413D02*
X0079533Y0050950D01*
X0114075Y0119700D02*
X0156566Y0119700D01*
X0156689Y0119823D01*
M02*
