G75*
%MOIN*%
%OFA0B0*%
%FSLAX25Y25*%
%IPPOS*%
%LPD*%
%AMOC8*
5,1,8,0,0,1.08239X$1,22.5*
%
%ADD10C,0.59855*%
%ADD11R,0.04343X0.03950*%
%ADD12R,0.03950X0.04343*%
%ADD13R,0.05524X0.03950*%
%ADD14R,0.03950X0.05524*%
%ADD15R,0.04737X0.05367*%
%ADD16R,0.08674X0.05918*%
%ADD17R,0.22847X0.11981*%
%ADD18C,0.08200*%
%ADD19C,0.04800*%
D10*
X0079937Y0127181D03*
D11*
X0052673Y0060941D03*
X0052673Y0053461D03*
X0060941Y0057201D03*
D12*
X0076197Y0040567D03*
X0083677Y0040567D03*
X0079937Y0048835D03*
X0118933Y0068618D03*
X0126413Y0068618D03*
X0122673Y0060350D03*
D13*
X0111433Y0072457D03*
X0111433Y0079543D03*
X0135055Y0079543D03*
X0135055Y0072457D03*
X0091748Y0032299D03*
X0091748Y0025213D03*
X0076000Y0025213D03*
X0076000Y0032299D03*
X0052378Y0072457D03*
X0052378Y0079543D03*
X0036630Y0079543D03*
X0036630Y0072457D03*
D14*
X0037024Y0091748D03*
X0044110Y0091748D03*
X0103953Y0040567D03*
X0111039Y0040567D03*
X0123638Y0091748D03*
X0130724Y0091748D03*
D15*
X0088818Y0093356D03*
X0082847Y0093356D03*
X0077027Y0093356D03*
X0071116Y0093402D03*
X0071131Y0058681D03*
X0077027Y0058681D03*
X0082885Y0058681D03*
X0088780Y0058644D03*
D16*
X0094812Y0076000D03*
X0065107Y0076000D03*
D17*
X0079937Y0076000D03*
D18*
X0032693Y0032693D03*
X0032693Y0042693D03*
X0032693Y0052693D03*
X0032693Y0062693D03*
X0036630Y0111433D03*
X0036630Y0121433D03*
X0127181Y0042693D03*
X0127181Y0032693D03*
D19*
X0111433Y0091748D03*
M02*
