G75*
%MOIN*%
%OFA0B0*%
%FSLAX25Y25*%
%IPPOS*%
%LPD*%
%AMOC8*
5,1,8,0,0,1.08239X$1,22.5*
%
%ADD10C,0.00394*%
%ADD11C,0.00000*%
%ADD12C,0.00800*%
%ADD13C,0.00100*%
%ADD14C,0.00600*%
%ADD15C,0.00400*%
%ADD16C,0.00500*%
%ADD17C,0.00200*%
D10*
X0008962Y0079937D02*
X0008983Y0081679D01*
X0009047Y0083420D01*
X0009154Y0085158D01*
X0009304Y0086894D01*
X0009496Y0088625D01*
X0009730Y0090351D01*
X0010007Y0092071D01*
X0010326Y0093784D01*
X0010687Y0095488D01*
X0011089Y0097183D01*
X0011533Y0098867D01*
X0012018Y0100540D01*
X0012544Y0102201D01*
X0013111Y0103848D01*
X0013718Y0105481D01*
X0014365Y0107098D01*
X0015051Y0108699D01*
X0015776Y0110283D01*
X0016540Y0111848D01*
X0017343Y0113394D01*
X0018183Y0114920D01*
X0019060Y0116425D01*
X0019974Y0117908D01*
X0020923Y0119369D01*
X0021909Y0120805D01*
X0022929Y0122217D01*
X0023984Y0123603D01*
X0025073Y0124963D01*
X0026194Y0126296D01*
X0027348Y0127601D01*
X0028534Y0128877D01*
X0029750Y0130124D01*
X0030997Y0131340D01*
X0032273Y0132526D01*
X0033578Y0133680D01*
X0034911Y0134801D01*
X0036271Y0135890D01*
X0037657Y0136945D01*
X0039069Y0137965D01*
X0040505Y0138951D01*
X0041966Y0139900D01*
X0043449Y0140814D01*
X0044954Y0141691D01*
X0046480Y0142531D01*
X0048026Y0143334D01*
X0049591Y0144098D01*
X0051175Y0144823D01*
X0052776Y0145509D01*
X0054393Y0146156D01*
X0056026Y0146763D01*
X0057673Y0147330D01*
X0059334Y0147856D01*
X0061007Y0148341D01*
X0062691Y0148785D01*
X0064386Y0149187D01*
X0066090Y0149548D01*
X0067803Y0149867D01*
X0069523Y0150144D01*
X0071249Y0150378D01*
X0072980Y0150570D01*
X0074716Y0150720D01*
X0076454Y0150827D01*
X0078195Y0150891D01*
X0079937Y0150912D01*
X0081679Y0150891D01*
X0083420Y0150827D01*
X0085158Y0150720D01*
X0086894Y0150570D01*
X0088625Y0150378D01*
X0090351Y0150144D01*
X0092071Y0149867D01*
X0093784Y0149548D01*
X0095488Y0149187D01*
X0097183Y0148785D01*
X0098867Y0148341D01*
X0100540Y0147856D01*
X0102201Y0147330D01*
X0103848Y0146763D01*
X0105481Y0146156D01*
X0107098Y0145509D01*
X0108699Y0144823D01*
X0110283Y0144098D01*
X0111848Y0143334D01*
X0113394Y0142531D01*
X0114920Y0141691D01*
X0116425Y0140814D01*
X0117908Y0139900D01*
X0119369Y0138951D01*
X0120805Y0137965D01*
X0122217Y0136945D01*
X0123603Y0135890D01*
X0124963Y0134801D01*
X0126296Y0133680D01*
X0127601Y0132526D01*
X0128877Y0131340D01*
X0130124Y0130124D01*
X0131340Y0128877D01*
X0132526Y0127601D01*
X0133680Y0126296D01*
X0134801Y0124963D01*
X0135890Y0123603D01*
X0136945Y0122217D01*
X0137965Y0120805D01*
X0138951Y0119369D01*
X0139900Y0117908D01*
X0140814Y0116425D01*
X0141691Y0114920D01*
X0142531Y0113394D01*
X0143334Y0111848D01*
X0144098Y0110283D01*
X0144823Y0108699D01*
X0145509Y0107098D01*
X0146156Y0105481D01*
X0146763Y0103848D01*
X0147330Y0102201D01*
X0147856Y0100540D01*
X0148341Y0098867D01*
X0148785Y0097183D01*
X0149187Y0095488D01*
X0149548Y0093784D01*
X0149867Y0092071D01*
X0150144Y0090351D01*
X0150378Y0088625D01*
X0150570Y0086894D01*
X0150720Y0085158D01*
X0150827Y0083420D01*
X0150891Y0081679D01*
X0150912Y0079937D01*
X0150891Y0078195D01*
X0150827Y0076454D01*
X0150720Y0074716D01*
X0150570Y0072980D01*
X0150378Y0071249D01*
X0150144Y0069523D01*
X0149867Y0067803D01*
X0149548Y0066090D01*
X0149187Y0064386D01*
X0148785Y0062691D01*
X0148341Y0061007D01*
X0147856Y0059334D01*
X0147330Y0057673D01*
X0146763Y0056026D01*
X0146156Y0054393D01*
X0145509Y0052776D01*
X0144823Y0051175D01*
X0144098Y0049591D01*
X0143334Y0048026D01*
X0142531Y0046480D01*
X0141691Y0044954D01*
X0140814Y0043449D01*
X0139900Y0041966D01*
X0138951Y0040505D01*
X0137965Y0039069D01*
X0136945Y0037657D01*
X0135890Y0036271D01*
X0134801Y0034911D01*
X0133680Y0033578D01*
X0132526Y0032273D01*
X0131340Y0030997D01*
X0130124Y0029750D01*
X0128877Y0028534D01*
X0127601Y0027348D01*
X0126296Y0026194D01*
X0124963Y0025073D01*
X0123603Y0023984D01*
X0122217Y0022929D01*
X0120805Y0021909D01*
X0119369Y0020923D01*
X0117908Y0019974D01*
X0116425Y0019060D01*
X0114920Y0018183D01*
X0113394Y0017343D01*
X0111848Y0016540D01*
X0110283Y0015776D01*
X0108699Y0015051D01*
X0107098Y0014365D01*
X0105481Y0013718D01*
X0103848Y0013111D01*
X0102201Y0012544D01*
X0100540Y0012018D01*
X0098867Y0011533D01*
X0097183Y0011089D01*
X0095488Y0010687D01*
X0093784Y0010326D01*
X0092071Y0010007D01*
X0090351Y0009730D01*
X0088625Y0009496D01*
X0086894Y0009304D01*
X0085158Y0009154D01*
X0083420Y0009047D01*
X0081679Y0008983D01*
X0079937Y0008962D01*
X0078195Y0008983D01*
X0076454Y0009047D01*
X0074716Y0009154D01*
X0072980Y0009304D01*
X0071249Y0009496D01*
X0069523Y0009730D01*
X0067803Y0010007D01*
X0066090Y0010326D01*
X0064386Y0010687D01*
X0062691Y0011089D01*
X0061007Y0011533D01*
X0059334Y0012018D01*
X0057673Y0012544D01*
X0056026Y0013111D01*
X0054393Y0013718D01*
X0052776Y0014365D01*
X0051175Y0015051D01*
X0049591Y0015776D01*
X0048026Y0016540D01*
X0046480Y0017343D01*
X0044954Y0018183D01*
X0043449Y0019060D01*
X0041966Y0019974D01*
X0040505Y0020923D01*
X0039069Y0021909D01*
X0037657Y0022929D01*
X0036271Y0023984D01*
X0034911Y0025073D01*
X0033578Y0026194D01*
X0032273Y0027348D01*
X0030997Y0028534D01*
X0029750Y0029750D01*
X0028534Y0030997D01*
X0027348Y0032273D01*
X0026194Y0033578D01*
X0025073Y0034911D01*
X0023984Y0036271D01*
X0022929Y0037657D01*
X0021909Y0039069D01*
X0020923Y0040505D01*
X0019974Y0041966D01*
X0019060Y0043449D01*
X0018183Y0044954D01*
X0017343Y0046480D01*
X0016540Y0048026D01*
X0015776Y0049591D01*
X0015051Y0051175D01*
X0014365Y0052776D01*
X0013718Y0054393D01*
X0013111Y0056026D01*
X0012544Y0057673D01*
X0012018Y0059334D01*
X0011533Y0061007D01*
X0011089Y0062691D01*
X0010687Y0064386D01*
X0010326Y0066090D01*
X0010007Y0067803D01*
X0009730Y0069523D01*
X0009496Y0071249D01*
X0009304Y0072980D01*
X0009154Y0074716D01*
X0009047Y0076454D01*
X0008983Y0078195D01*
X0008962Y0079937D01*
D11*
X0069937Y0076000D02*
X0089937Y0076000D01*
X0079937Y0086000D02*
X0079937Y0066000D01*
X0050409Y0127181D02*
X0050418Y0127906D01*
X0050445Y0128630D01*
X0050489Y0129353D01*
X0050551Y0130075D01*
X0050631Y0130796D01*
X0050729Y0131514D01*
X0050844Y0132229D01*
X0050976Y0132942D01*
X0051126Y0133651D01*
X0051294Y0134356D01*
X0051479Y0135056D01*
X0051680Y0135753D01*
X0051899Y0136443D01*
X0052135Y0137129D01*
X0052388Y0137808D01*
X0052657Y0138481D01*
X0052942Y0139147D01*
X0053244Y0139806D01*
X0053562Y0140457D01*
X0053896Y0141100D01*
X0054245Y0141735D01*
X0054610Y0142361D01*
X0054990Y0142978D01*
X0055385Y0143586D01*
X0055795Y0144183D01*
X0056220Y0144771D01*
X0056659Y0145348D01*
X0057112Y0145913D01*
X0057578Y0146468D01*
X0058058Y0147011D01*
X0058551Y0147542D01*
X0059058Y0148060D01*
X0059576Y0148567D01*
X0060107Y0149060D01*
X0060650Y0149540D01*
X0061205Y0150006D01*
X0061770Y0150459D01*
X0062347Y0150898D01*
X0062935Y0151323D01*
X0063532Y0151733D01*
X0064140Y0152128D01*
X0064757Y0152508D01*
X0065383Y0152873D01*
X0066018Y0153222D01*
X0066661Y0153556D01*
X0067312Y0153874D01*
X0067971Y0154176D01*
X0068637Y0154461D01*
X0069310Y0154730D01*
X0069989Y0154983D01*
X0070675Y0155219D01*
X0071365Y0155438D01*
X0072062Y0155639D01*
X0072762Y0155824D01*
X0073467Y0155992D01*
X0074176Y0156142D01*
X0074889Y0156274D01*
X0075604Y0156389D01*
X0076322Y0156487D01*
X0077043Y0156567D01*
X0077765Y0156629D01*
X0078488Y0156673D01*
X0079212Y0156700D01*
X0079937Y0156709D01*
X0080662Y0156700D01*
X0081386Y0156673D01*
X0082109Y0156629D01*
X0082831Y0156567D01*
X0083552Y0156487D01*
X0084270Y0156389D01*
X0084985Y0156274D01*
X0085698Y0156142D01*
X0086407Y0155992D01*
X0087112Y0155824D01*
X0087812Y0155639D01*
X0088509Y0155438D01*
X0089199Y0155219D01*
X0089885Y0154983D01*
X0090564Y0154730D01*
X0091237Y0154461D01*
X0091903Y0154176D01*
X0092562Y0153874D01*
X0093213Y0153556D01*
X0093856Y0153222D01*
X0094491Y0152873D01*
X0095117Y0152508D01*
X0095734Y0152128D01*
X0096342Y0151733D01*
X0096939Y0151323D01*
X0097527Y0150898D01*
X0098104Y0150459D01*
X0098669Y0150006D01*
X0099224Y0149540D01*
X0099767Y0149060D01*
X0100298Y0148567D01*
X0100816Y0148060D01*
X0101323Y0147542D01*
X0101816Y0147011D01*
X0102296Y0146468D01*
X0102762Y0145913D01*
X0103215Y0145348D01*
X0103654Y0144771D01*
X0104079Y0144183D01*
X0104489Y0143586D01*
X0104884Y0142978D01*
X0105264Y0142361D01*
X0105629Y0141735D01*
X0105978Y0141100D01*
X0106312Y0140457D01*
X0106630Y0139806D01*
X0106932Y0139147D01*
X0107217Y0138481D01*
X0107486Y0137808D01*
X0107739Y0137129D01*
X0107975Y0136443D01*
X0108194Y0135753D01*
X0108395Y0135056D01*
X0108580Y0134356D01*
X0108748Y0133651D01*
X0108898Y0132942D01*
X0109030Y0132229D01*
X0109145Y0131514D01*
X0109243Y0130796D01*
X0109323Y0130075D01*
X0109385Y0129353D01*
X0109429Y0128630D01*
X0109456Y0127906D01*
X0109465Y0127181D01*
X0109456Y0126456D01*
X0109429Y0125732D01*
X0109385Y0125009D01*
X0109323Y0124287D01*
X0109243Y0123566D01*
X0109145Y0122848D01*
X0109030Y0122133D01*
X0108898Y0121420D01*
X0108748Y0120711D01*
X0108580Y0120006D01*
X0108395Y0119306D01*
X0108194Y0118609D01*
X0107975Y0117919D01*
X0107739Y0117233D01*
X0107486Y0116554D01*
X0107217Y0115881D01*
X0106932Y0115215D01*
X0106630Y0114556D01*
X0106312Y0113905D01*
X0105978Y0113262D01*
X0105629Y0112627D01*
X0105264Y0112001D01*
X0104884Y0111384D01*
X0104489Y0110776D01*
X0104079Y0110179D01*
X0103654Y0109591D01*
X0103215Y0109014D01*
X0102762Y0108449D01*
X0102296Y0107894D01*
X0101816Y0107351D01*
X0101323Y0106820D01*
X0100816Y0106302D01*
X0100298Y0105795D01*
X0099767Y0105302D01*
X0099224Y0104822D01*
X0098669Y0104356D01*
X0098104Y0103903D01*
X0097527Y0103464D01*
X0096939Y0103039D01*
X0096342Y0102629D01*
X0095734Y0102234D01*
X0095117Y0101854D01*
X0094491Y0101489D01*
X0093856Y0101140D01*
X0093213Y0100806D01*
X0092562Y0100488D01*
X0091903Y0100186D01*
X0091237Y0099901D01*
X0090564Y0099632D01*
X0089885Y0099379D01*
X0089199Y0099143D01*
X0088509Y0098924D01*
X0087812Y0098723D01*
X0087112Y0098538D01*
X0086407Y0098370D01*
X0085698Y0098220D01*
X0084985Y0098088D01*
X0084270Y0097973D01*
X0083552Y0097875D01*
X0082831Y0097795D01*
X0082109Y0097733D01*
X0081386Y0097689D01*
X0080662Y0097662D01*
X0079937Y0097653D01*
X0079212Y0097662D01*
X0078488Y0097689D01*
X0077765Y0097733D01*
X0077043Y0097795D01*
X0076322Y0097875D01*
X0075604Y0097973D01*
X0074889Y0098088D01*
X0074176Y0098220D01*
X0073467Y0098370D01*
X0072762Y0098538D01*
X0072062Y0098723D01*
X0071365Y0098924D01*
X0070675Y0099143D01*
X0069989Y0099379D01*
X0069310Y0099632D01*
X0068637Y0099901D01*
X0067971Y0100186D01*
X0067312Y0100488D01*
X0066661Y0100806D01*
X0066018Y0101140D01*
X0065383Y0101489D01*
X0064757Y0101854D01*
X0064140Y0102234D01*
X0063532Y0102629D01*
X0062935Y0103039D01*
X0062347Y0103464D01*
X0061770Y0103903D01*
X0061205Y0104356D01*
X0060650Y0104822D01*
X0060107Y0105302D01*
X0059576Y0105795D01*
X0059058Y0106302D01*
X0058551Y0106820D01*
X0058058Y0107351D01*
X0057578Y0107894D01*
X0057112Y0108449D01*
X0056659Y0109014D01*
X0056220Y0109591D01*
X0055795Y0110179D01*
X0055385Y0110776D01*
X0054990Y0111384D01*
X0054610Y0112001D01*
X0054245Y0112627D01*
X0053896Y0113262D01*
X0053562Y0113905D01*
X0053244Y0114556D01*
X0052942Y0115215D01*
X0052657Y0115881D01*
X0052388Y0116554D01*
X0052135Y0117233D01*
X0051899Y0117919D01*
X0051680Y0118609D01*
X0051479Y0119306D01*
X0051294Y0120006D01*
X0051126Y0120711D01*
X0050976Y0121420D01*
X0050844Y0122133D01*
X0050729Y0122848D01*
X0050631Y0123566D01*
X0050551Y0124287D01*
X0050489Y0125009D01*
X0050445Y0125732D01*
X0050418Y0126456D01*
X0050409Y0127181D01*
D12*
X0056217Y0062713D02*
X0059366Y0062713D01*
X0059366Y0060350D01*
X0059366Y0054051D02*
X0059366Y0051689D01*
X0056217Y0051689D01*
X0074425Y0047260D02*
X0074425Y0044110D01*
X0074425Y0047260D02*
X0076787Y0047260D01*
X0083087Y0047260D02*
X0085449Y0047260D01*
X0085449Y0044110D01*
X0117161Y0061925D02*
X0117161Y0065075D01*
X0117161Y0061925D02*
X0119524Y0061925D01*
X0125823Y0061925D02*
X0128185Y0061925D01*
X0128185Y0065075D01*
D13*
X0125251Y0057632D02*
X0125501Y0057382D01*
X0125501Y0057132D01*
X0125251Y0056882D01*
X0125501Y0056632D01*
X0125501Y0056381D01*
X0125251Y0056131D01*
X0124750Y0056131D01*
X0124500Y0056381D01*
X0124028Y0056381D02*
X0123777Y0056131D01*
X0123277Y0056131D01*
X0123027Y0056381D01*
X0123027Y0057382D01*
X0123277Y0057632D01*
X0123777Y0057632D01*
X0124028Y0057382D01*
X0124028Y0056381D01*
X0124028Y0056131D02*
X0123527Y0056632D01*
X0124500Y0057382D02*
X0124750Y0057632D01*
X0125251Y0057632D01*
X0125251Y0056882D02*
X0125000Y0056882D01*
X0116233Y0070210D02*
X0114732Y0070210D01*
X0114732Y0070961D01*
X0114982Y0071211D01*
X0115482Y0071211D01*
X0115733Y0070961D01*
X0115733Y0070210D01*
X0115733Y0070711D02*
X0116233Y0071211D01*
X0116483Y0071684D02*
X0116483Y0072685D01*
X0116233Y0073157D02*
X0116233Y0073908D01*
X0115983Y0074158D01*
X0115733Y0074158D01*
X0115482Y0073908D01*
X0115482Y0073157D01*
X0114732Y0073157D02*
X0116233Y0073157D01*
X0115482Y0073908D02*
X0115232Y0074158D01*
X0114982Y0074158D01*
X0114732Y0073908D01*
X0114732Y0073157D01*
X0114732Y0074630D02*
X0116233Y0074630D01*
X0116233Y0075631D01*
X0115983Y0076103D02*
X0116233Y0076354D01*
X0116233Y0076854D01*
X0115983Y0077104D01*
X0114732Y0077104D01*
X0114732Y0077577D02*
X0116233Y0077577D01*
X0116233Y0078578D01*
X0115482Y0078077D02*
X0115482Y0077577D01*
X0114732Y0077577D02*
X0114732Y0078578D01*
X0114732Y0076103D02*
X0115983Y0076103D01*
X0124231Y0095048D02*
X0124231Y0096549D01*
X0124982Y0096549D01*
X0125232Y0096299D01*
X0125232Y0095799D01*
X0124982Y0095548D01*
X0124231Y0095548D01*
X0124732Y0095548D02*
X0125232Y0095048D01*
X0125704Y0095048D02*
X0125704Y0096549D01*
X0126455Y0096549D01*
X0126705Y0096299D01*
X0126705Y0095799D01*
X0126455Y0095548D01*
X0125704Y0095548D01*
X0127178Y0095048D02*
X0127178Y0096549D01*
X0127928Y0096549D01*
X0128178Y0096299D01*
X0128178Y0095298D01*
X0127928Y0095048D01*
X0127178Y0095048D01*
X0128651Y0094798D02*
X0129652Y0094798D01*
X0130124Y0095048D02*
X0130875Y0095048D01*
X0131125Y0095298D01*
X0131125Y0095548D01*
X0130875Y0095799D01*
X0130124Y0095799D01*
X0130124Y0096549D02*
X0130124Y0095048D01*
X0130875Y0095799D02*
X0131125Y0096049D01*
X0131125Y0096299D01*
X0130875Y0096549D01*
X0130124Y0096549D01*
X0138604Y0078578D02*
X0138854Y0078578D01*
X0139104Y0078327D01*
X0139104Y0077577D01*
X0139104Y0077104D02*
X0139104Y0076604D01*
X0139104Y0077104D02*
X0139605Y0077104D01*
X0139855Y0076854D01*
X0139855Y0076354D01*
X0139605Y0076103D01*
X0138604Y0076103D01*
X0138354Y0076354D01*
X0138354Y0076854D01*
X0138604Y0077104D01*
X0138354Y0077577D02*
X0138354Y0078327D01*
X0138604Y0078578D01*
X0139104Y0078327D02*
X0139355Y0078578D01*
X0139605Y0078578D01*
X0139855Y0078327D01*
X0139855Y0077577D01*
X0138354Y0077577D01*
X0138604Y0075631D02*
X0139104Y0075631D01*
X0139355Y0075381D01*
X0139355Y0074630D01*
X0139855Y0074630D02*
X0138354Y0074630D01*
X0138354Y0075381D01*
X0138604Y0075631D01*
X0139355Y0075131D02*
X0139855Y0075631D01*
X0110074Y0037268D02*
X0110074Y0035767D01*
X0109073Y0037268D01*
X0109073Y0035767D01*
X0108600Y0035767D02*
X0107600Y0035767D01*
X0107600Y0037268D01*
X0108600Y0037268D01*
X0108100Y0036518D02*
X0107600Y0036518D01*
X0107127Y0037268D02*
X0106126Y0037268D01*
X0106126Y0035767D01*
X0107127Y0035767D01*
X0106627Y0036518D02*
X0106126Y0036518D01*
X0105654Y0036518D02*
X0105404Y0036267D01*
X0104653Y0036267D01*
X0104653Y0035767D02*
X0104653Y0037268D01*
X0105404Y0037268D01*
X0105654Y0037018D01*
X0105654Y0036518D01*
X0105153Y0036267D02*
X0105654Y0035767D01*
X0104181Y0036017D02*
X0104181Y0036518D01*
X0103680Y0036518D01*
X0103180Y0037018D02*
X0103180Y0036017D01*
X0103430Y0035767D01*
X0103930Y0035767D01*
X0104181Y0036017D01*
X0104181Y0037018D02*
X0103930Y0037268D01*
X0103430Y0037268D01*
X0103180Y0037018D01*
X0102707Y0035517D02*
X0101707Y0035517D01*
X0101234Y0035767D02*
X0100734Y0036267D01*
X0100984Y0036267D02*
X0100233Y0036267D01*
X0100233Y0035767D02*
X0100233Y0037268D01*
X0100984Y0037268D01*
X0101234Y0037018D01*
X0101234Y0036518D01*
X0100984Y0036267D01*
X0096298Y0031333D02*
X0095797Y0031333D01*
X0095797Y0030833D01*
X0095297Y0030333D02*
X0095047Y0030583D01*
X0095047Y0031083D01*
X0095297Y0031333D01*
X0095297Y0030333D02*
X0096298Y0030333D01*
X0096548Y0030583D01*
X0096548Y0031083D01*
X0096298Y0031333D01*
X0096798Y0029860D02*
X0096798Y0028859D01*
X0096298Y0028387D02*
X0095297Y0028387D01*
X0095047Y0028137D01*
X0095047Y0027386D01*
X0096548Y0027386D01*
X0096548Y0028137D01*
X0096298Y0028387D01*
X0095797Y0026914D02*
X0096048Y0026664D01*
X0096048Y0025913D01*
X0096548Y0025913D02*
X0095047Y0025913D01*
X0095047Y0026664D01*
X0095297Y0026914D01*
X0095797Y0026914D01*
X0095797Y0025440D02*
X0096048Y0025190D01*
X0096048Y0024440D01*
X0096048Y0024940D02*
X0096548Y0025440D01*
X0095797Y0025440D02*
X0095297Y0025440D01*
X0095047Y0025190D01*
X0095047Y0024440D01*
X0096548Y0024440D01*
X0072700Y0025806D02*
X0071199Y0025806D01*
X0071199Y0026557D01*
X0071449Y0026807D01*
X0071949Y0026807D01*
X0072200Y0026557D01*
X0072200Y0025806D01*
X0072200Y0026306D02*
X0072700Y0026807D01*
X0072450Y0027279D02*
X0071449Y0027279D01*
X0071199Y0027529D01*
X0071199Y0028030D01*
X0071449Y0028280D01*
X0071449Y0028752D02*
X0072450Y0028752D01*
X0072700Y0029003D01*
X0072700Y0029503D01*
X0072450Y0029753D01*
X0071949Y0029753D01*
X0071949Y0029253D01*
X0071449Y0029753D02*
X0071199Y0029503D01*
X0071199Y0029003D01*
X0071449Y0028752D01*
X0071949Y0028280D02*
X0071949Y0027780D01*
X0071949Y0028280D02*
X0072450Y0028280D01*
X0072700Y0028030D01*
X0072700Y0027529D01*
X0072450Y0027279D01*
X0076987Y0051554D02*
X0076737Y0051804D01*
X0076737Y0052805D01*
X0076987Y0053055D01*
X0077488Y0053055D01*
X0077738Y0052805D01*
X0077738Y0051804D01*
X0077488Y0051554D01*
X0076987Y0051554D01*
X0077237Y0052054D02*
X0077738Y0051554D01*
X0078210Y0051554D02*
X0079211Y0052555D01*
X0079211Y0052805D01*
X0078961Y0053055D01*
X0078460Y0053055D01*
X0078210Y0052805D01*
X0078210Y0051554D02*
X0079211Y0051554D01*
X0065160Y0057804D02*
X0064910Y0057554D01*
X0063909Y0057554D01*
X0063659Y0057804D01*
X0063659Y0058305D01*
X0063909Y0058555D01*
X0064910Y0058555D01*
X0065160Y0058305D01*
X0065160Y0057804D01*
X0064660Y0058055D02*
X0065160Y0058555D01*
X0065160Y0059028D02*
X0065160Y0060028D01*
X0065160Y0059528D02*
X0063659Y0059528D01*
X0064159Y0059028D01*
X0049078Y0073050D02*
X0047577Y0073050D01*
X0047577Y0073801D01*
X0047827Y0074051D01*
X0048327Y0074051D01*
X0048578Y0073801D01*
X0048578Y0073050D01*
X0048578Y0073550D02*
X0049078Y0074051D01*
X0048828Y0074523D02*
X0049078Y0074773D01*
X0049078Y0075274D01*
X0048828Y0075524D01*
X0048327Y0075524D01*
X0048327Y0075024D01*
X0047827Y0075524D02*
X0047577Y0075274D01*
X0047577Y0074773D01*
X0047827Y0074523D01*
X0048828Y0074523D01*
X0049078Y0075997D02*
X0047577Y0075997D01*
X0047577Y0076747D01*
X0047827Y0076997D01*
X0048327Y0076997D01*
X0048578Y0076747D01*
X0048578Y0075997D01*
X0048578Y0076497D02*
X0049078Y0076997D01*
X0041680Y0074158D02*
X0041680Y0073157D01*
X0041430Y0072685D02*
X0040930Y0072184D01*
X0040930Y0072434D02*
X0040930Y0071684D01*
X0041430Y0071684D02*
X0039929Y0071684D01*
X0039929Y0072434D01*
X0040179Y0072685D01*
X0040679Y0072685D01*
X0040930Y0072434D01*
X0040930Y0074630D02*
X0040930Y0075381D01*
X0040679Y0075631D01*
X0040179Y0075631D01*
X0039929Y0075381D01*
X0039929Y0074630D01*
X0041430Y0074630D01*
X0040930Y0075131D02*
X0041430Y0075631D01*
X0041430Y0076103D02*
X0041430Y0077104D01*
X0041430Y0077577D02*
X0041430Y0078327D01*
X0041180Y0078578D01*
X0040179Y0078578D01*
X0039929Y0078327D01*
X0039929Y0077577D01*
X0041430Y0077577D01*
X0040679Y0076604D02*
X0040679Y0076103D01*
X0039929Y0076103D02*
X0041430Y0076103D01*
X0039929Y0076103D02*
X0039929Y0077104D01*
X0042037Y0094798D02*
X0043038Y0094798D01*
X0043510Y0095048D02*
X0043510Y0096549D01*
X0044261Y0096549D01*
X0044511Y0096299D01*
X0044511Y0095799D01*
X0044261Y0095548D01*
X0043510Y0095548D01*
X0044010Y0095548D02*
X0044511Y0095048D01*
X0041564Y0095298D02*
X0041564Y0096299D01*
X0041314Y0096549D01*
X0040563Y0096549D01*
X0040563Y0095048D01*
X0041314Y0095048D01*
X0041564Y0095298D01*
X0040091Y0095799D02*
X0039841Y0095548D01*
X0039090Y0095548D01*
X0039090Y0095048D02*
X0039090Y0096549D01*
X0039841Y0096549D01*
X0040091Y0096299D01*
X0040091Y0095799D01*
X0038618Y0095799D02*
X0038618Y0096299D01*
X0038368Y0096549D01*
X0037617Y0096549D01*
X0037617Y0095048D01*
X0037617Y0095548D02*
X0038368Y0095548D01*
X0038618Y0095799D01*
X0038117Y0095548D02*
X0038618Y0095048D01*
D14*
X0039386Y0094110D02*
X0041748Y0094110D01*
X0041748Y0089386D02*
X0039386Y0089386D01*
X0038992Y0077181D02*
X0038992Y0074819D01*
X0034268Y0074819D02*
X0034268Y0077181D01*
X0050016Y0077181D02*
X0050016Y0074819D01*
X0054740Y0074819D02*
X0054740Y0077181D01*
X0073638Y0029937D02*
X0073638Y0027575D01*
X0078362Y0027575D02*
X0078362Y0029937D01*
X0089386Y0029937D02*
X0089386Y0027575D01*
X0094110Y0027575D02*
X0094110Y0029937D01*
X0106315Y0038205D02*
X0108677Y0038205D01*
X0108677Y0042929D02*
X0106315Y0042929D01*
X0109071Y0074819D02*
X0109071Y0077181D01*
X0113795Y0077181D02*
X0113795Y0074819D01*
X0126000Y0089386D02*
X0128362Y0089386D01*
X0128362Y0094110D02*
X0126000Y0094110D01*
X0132693Y0077181D02*
X0132693Y0074819D01*
X0137417Y0074819D02*
X0137417Y0077181D01*
D15*
X0103912Y0101577D02*
X0100842Y0101577D01*
X0102377Y0101577D02*
X0102377Y0106181D01*
X0100842Y0104646D01*
X0099308Y0105414D02*
X0099308Y0102344D01*
X0098540Y0101577D01*
X0096238Y0101577D01*
X0096238Y0106181D01*
X0098540Y0106181D01*
X0099308Y0105414D01*
X0094704Y0106181D02*
X0091635Y0106181D01*
X0091635Y0101577D01*
X0094704Y0101577D01*
X0093169Y0103879D02*
X0091635Y0103879D01*
X0090100Y0101577D02*
X0087031Y0101577D01*
X0087031Y0106181D01*
X0085496Y0100810D02*
X0082427Y0100810D01*
X0080892Y0101577D02*
X0077823Y0101577D01*
X0077823Y0106181D01*
X0080892Y0106181D01*
X0079357Y0103879D02*
X0077823Y0103879D01*
X0076288Y0101577D02*
X0073219Y0101577D01*
X0073219Y0106181D01*
X0076288Y0106181D01*
X0074754Y0103879D02*
X0073219Y0103879D01*
X0071684Y0103879D02*
X0071684Y0105414D01*
X0070917Y0106181D01*
X0068615Y0106181D01*
X0068615Y0101577D01*
X0068615Y0103112D02*
X0070917Y0103112D01*
X0071684Y0103879D01*
X0070150Y0103112D02*
X0071684Y0101577D01*
X0067080Y0102344D02*
X0066313Y0101577D01*
X0064778Y0101577D01*
X0064011Y0102344D01*
X0064011Y0105414D01*
X0064778Y0106181D01*
X0066313Y0106181D01*
X0067080Y0105414D01*
D16*
X0025243Y0028394D02*
X0024492Y0027643D01*
X0025243Y0028394D02*
X0025243Y0029144D01*
X0024492Y0029895D01*
X0020739Y0029895D01*
X0020739Y0030645D02*
X0020739Y0029144D01*
X0022240Y0032247D02*
X0020739Y0033748D01*
X0025243Y0033748D01*
X0025243Y0032247D02*
X0025243Y0035249D01*
X0066347Y0061459D02*
X0066347Y0089016D01*
X0067914Y0090584D01*
X0093570Y0090584D01*
X0093570Y0061459D01*
X0066347Y0061459D01*
X0067386Y0076000D02*
X0067390Y0076308D01*
X0067401Y0076616D01*
X0067420Y0076923D01*
X0067446Y0077230D01*
X0067480Y0077536D01*
X0067522Y0077842D01*
X0067571Y0078146D01*
X0067627Y0078449D01*
X0067691Y0078750D01*
X0067762Y0079050D01*
X0067841Y0079348D01*
X0067926Y0079643D01*
X0068019Y0079937D01*
X0068120Y0080228D01*
X0068227Y0080517D01*
X0068341Y0080803D01*
X0068463Y0081086D01*
X0068591Y0081366D01*
X0068726Y0081643D01*
X0068868Y0081917D01*
X0069017Y0082186D01*
X0069172Y0082453D01*
X0069333Y0082715D01*
X0069501Y0082973D01*
X0069675Y0083227D01*
X0069856Y0083477D01*
X0070042Y0083722D01*
X0070235Y0083962D01*
X0070433Y0084198D01*
X0070637Y0084429D01*
X0070847Y0084654D01*
X0071062Y0084875D01*
X0071283Y0085090D01*
X0071508Y0085300D01*
X0071739Y0085504D01*
X0071975Y0085702D01*
X0072215Y0085895D01*
X0072460Y0086081D01*
X0072710Y0086262D01*
X0072964Y0086436D01*
X0073222Y0086604D01*
X0073484Y0086765D01*
X0073751Y0086920D01*
X0074020Y0087069D01*
X0074294Y0087211D01*
X0074571Y0087346D01*
X0074851Y0087474D01*
X0075134Y0087596D01*
X0075420Y0087710D01*
X0075709Y0087817D01*
X0076000Y0087918D01*
X0076294Y0088011D01*
X0076589Y0088096D01*
X0076887Y0088175D01*
X0077187Y0088246D01*
X0077488Y0088310D01*
X0077791Y0088366D01*
X0078095Y0088415D01*
X0078401Y0088457D01*
X0078707Y0088491D01*
X0079014Y0088517D01*
X0079321Y0088536D01*
X0079629Y0088547D01*
X0079937Y0088551D01*
X0080245Y0088547D01*
X0080553Y0088536D01*
X0080860Y0088517D01*
X0081167Y0088491D01*
X0081473Y0088457D01*
X0081779Y0088415D01*
X0082083Y0088366D01*
X0082386Y0088310D01*
X0082687Y0088246D01*
X0082987Y0088175D01*
X0083285Y0088096D01*
X0083580Y0088011D01*
X0083874Y0087918D01*
X0084165Y0087817D01*
X0084454Y0087710D01*
X0084740Y0087596D01*
X0085023Y0087474D01*
X0085303Y0087346D01*
X0085580Y0087211D01*
X0085854Y0087069D01*
X0086123Y0086920D01*
X0086390Y0086765D01*
X0086652Y0086604D01*
X0086910Y0086436D01*
X0087164Y0086262D01*
X0087414Y0086081D01*
X0087659Y0085895D01*
X0087899Y0085702D01*
X0088135Y0085504D01*
X0088366Y0085300D01*
X0088591Y0085090D01*
X0088812Y0084875D01*
X0089027Y0084654D01*
X0089237Y0084429D01*
X0089441Y0084198D01*
X0089639Y0083962D01*
X0089832Y0083722D01*
X0090018Y0083477D01*
X0090199Y0083227D01*
X0090373Y0082973D01*
X0090541Y0082715D01*
X0090702Y0082453D01*
X0090857Y0082186D01*
X0091006Y0081917D01*
X0091148Y0081643D01*
X0091283Y0081366D01*
X0091411Y0081086D01*
X0091533Y0080803D01*
X0091647Y0080517D01*
X0091754Y0080228D01*
X0091855Y0079937D01*
X0091948Y0079643D01*
X0092033Y0079348D01*
X0092112Y0079050D01*
X0092183Y0078750D01*
X0092247Y0078449D01*
X0092303Y0078146D01*
X0092352Y0077842D01*
X0092394Y0077536D01*
X0092428Y0077230D01*
X0092454Y0076923D01*
X0092473Y0076616D01*
X0092484Y0076308D01*
X0092488Y0076000D01*
X0092484Y0075692D01*
X0092473Y0075384D01*
X0092454Y0075077D01*
X0092428Y0074770D01*
X0092394Y0074464D01*
X0092352Y0074158D01*
X0092303Y0073854D01*
X0092247Y0073551D01*
X0092183Y0073250D01*
X0092112Y0072950D01*
X0092033Y0072652D01*
X0091948Y0072357D01*
X0091855Y0072063D01*
X0091754Y0071772D01*
X0091647Y0071483D01*
X0091533Y0071197D01*
X0091411Y0070914D01*
X0091283Y0070634D01*
X0091148Y0070357D01*
X0091006Y0070083D01*
X0090857Y0069814D01*
X0090702Y0069547D01*
X0090541Y0069285D01*
X0090373Y0069027D01*
X0090199Y0068773D01*
X0090018Y0068523D01*
X0089832Y0068278D01*
X0089639Y0068038D01*
X0089441Y0067802D01*
X0089237Y0067571D01*
X0089027Y0067346D01*
X0088812Y0067125D01*
X0088591Y0066910D01*
X0088366Y0066700D01*
X0088135Y0066496D01*
X0087899Y0066298D01*
X0087659Y0066105D01*
X0087414Y0065919D01*
X0087164Y0065738D01*
X0086910Y0065564D01*
X0086652Y0065396D01*
X0086390Y0065235D01*
X0086123Y0065080D01*
X0085854Y0064931D01*
X0085580Y0064789D01*
X0085303Y0064654D01*
X0085023Y0064526D01*
X0084740Y0064404D01*
X0084454Y0064290D01*
X0084165Y0064183D01*
X0083874Y0064082D01*
X0083580Y0063989D01*
X0083285Y0063904D01*
X0082987Y0063825D01*
X0082687Y0063754D01*
X0082386Y0063690D01*
X0082083Y0063634D01*
X0081779Y0063585D01*
X0081473Y0063543D01*
X0081167Y0063509D01*
X0080860Y0063483D01*
X0080553Y0063464D01*
X0080245Y0063453D01*
X0079937Y0063449D01*
X0079629Y0063453D01*
X0079321Y0063464D01*
X0079014Y0063483D01*
X0078707Y0063509D01*
X0078401Y0063543D01*
X0078095Y0063585D01*
X0077791Y0063634D01*
X0077488Y0063690D01*
X0077187Y0063754D01*
X0076887Y0063825D01*
X0076589Y0063904D01*
X0076294Y0063989D01*
X0076000Y0064082D01*
X0075709Y0064183D01*
X0075420Y0064290D01*
X0075134Y0064404D01*
X0074851Y0064526D01*
X0074571Y0064654D01*
X0074294Y0064789D01*
X0074020Y0064931D01*
X0073751Y0065080D01*
X0073484Y0065235D01*
X0073222Y0065396D01*
X0072964Y0065564D01*
X0072710Y0065738D01*
X0072460Y0065919D01*
X0072215Y0066105D01*
X0071975Y0066298D01*
X0071739Y0066496D01*
X0071508Y0066700D01*
X0071283Y0066910D01*
X0071062Y0067125D01*
X0070847Y0067346D01*
X0070637Y0067571D01*
X0070433Y0067802D01*
X0070235Y0068038D01*
X0070042Y0068278D01*
X0069856Y0068523D01*
X0069675Y0068773D01*
X0069501Y0069027D01*
X0069333Y0069285D01*
X0069172Y0069547D01*
X0069017Y0069814D01*
X0068868Y0070083D01*
X0068726Y0070357D01*
X0068591Y0070634D01*
X0068463Y0070914D01*
X0068341Y0071197D01*
X0068227Y0071483D01*
X0068120Y0071772D01*
X0068019Y0072063D01*
X0067926Y0072357D01*
X0067841Y0072652D01*
X0067762Y0072950D01*
X0067691Y0073250D01*
X0067627Y0073551D01*
X0067571Y0073854D01*
X0067522Y0074158D01*
X0067480Y0074464D01*
X0067446Y0074770D01*
X0067420Y0075077D01*
X0067401Y0075384D01*
X0067390Y0075692D01*
X0067386Y0076000D01*
X0066466Y0076049D02*
X0066470Y0076378D01*
X0066482Y0076708D01*
X0066502Y0077036D01*
X0066531Y0077365D01*
X0066567Y0077692D01*
X0066611Y0078018D01*
X0066664Y0078344D01*
X0066724Y0078668D01*
X0066792Y0078990D01*
X0066868Y0079310D01*
X0066952Y0079629D01*
X0067044Y0079945D01*
X0067143Y0080259D01*
X0067251Y0080571D01*
X0067365Y0080880D01*
X0067488Y0081185D01*
X0067617Y0081488D01*
X0067755Y0081788D01*
X0067899Y0082084D01*
X0068051Y0082376D01*
X0068210Y0082665D01*
X0068376Y0082949D01*
X0068548Y0083230D01*
X0068728Y0083506D01*
X0068914Y0083777D01*
X0069107Y0084044D01*
X0069307Y0084307D01*
X0069513Y0084564D01*
X0069725Y0084816D01*
X0069943Y0085063D01*
X0070167Y0085304D01*
X0070397Y0085540D01*
X0070633Y0085770D01*
X0070874Y0085994D01*
X0071121Y0086212D01*
X0071373Y0086424D01*
X0071630Y0086630D01*
X0071893Y0086830D01*
X0072160Y0087023D01*
X0072431Y0087209D01*
X0072707Y0087389D01*
X0072988Y0087561D01*
X0073272Y0087727D01*
X0073561Y0087886D01*
X0073853Y0088038D01*
X0074149Y0088182D01*
X0074449Y0088320D01*
X0074752Y0088449D01*
X0075057Y0088572D01*
X0075366Y0088686D01*
X0075678Y0088794D01*
X0075992Y0088893D01*
X0076308Y0088985D01*
X0076627Y0089069D01*
X0076947Y0089145D01*
X0077269Y0089213D01*
X0077593Y0089273D01*
X0077919Y0089326D01*
X0078245Y0089370D01*
X0078572Y0089406D01*
X0078901Y0089435D01*
X0079229Y0089455D01*
X0079559Y0089467D01*
X0079888Y0089471D01*
X0080217Y0089467D01*
X0080547Y0089455D01*
X0080875Y0089435D01*
X0081204Y0089406D01*
X0081531Y0089370D01*
X0081857Y0089326D01*
X0082183Y0089273D01*
X0082507Y0089213D01*
X0082829Y0089145D01*
X0083149Y0089069D01*
X0083468Y0088985D01*
X0083784Y0088893D01*
X0084098Y0088794D01*
X0084410Y0088686D01*
X0084719Y0088572D01*
X0085024Y0088449D01*
X0085327Y0088320D01*
X0085627Y0088182D01*
X0085923Y0088038D01*
X0086215Y0087886D01*
X0086504Y0087727D01*
X0086788Y0087561D01*
X0087069Y0087389D01*
X0087345Y0087209D01*
X0087616Y0087023D01*
X0087883Y0086830D01*
X0088146Y0086630D01*
X0088403Y0086424D01*
X0088655Y0086212D01*
X0088902Y0085994D01*
X0089143Y0085770D01*
X0089379Y0085540D01*
X0089609Y0085304D01*
X0089833Y0085063D01*
X0090051Y0084816D01*
X0090263Y0084564D01*
X0090469Y0084307D01*
X0090669Y0084044D01*
X0090862Y0083777D01*
X0091048Y0083506D01*
X0091228Y0083230D01*
X0091400Y0082949D01*
X0091566Y0082665D01*
X0091725Y0082376D01*
X0091877Y0082084D01*
X0092021Y0081788D01*
X0092159Y0081488D01*
X0092288Y0081185D01*
X0092411Y0080880D01*
X0092525Y0080571D01*
X0092633Y0080259D01*
X0092732Y0079945D01*
X0092824Y0079629D01*
X0092908Y0079310D01*
X0092984Y0078990D01*
X0093052Y0078668D01*
X0093112Y0078344D01*
X0093165Y0078018D01*
X0093209Y0077692D01*
X0093245Y0077365D01*
X0093274Y0077036D01*
X0093294Y0076708D01*
X0093306Y0076378D01*
X0093310Y0076049D01*
X0093306Y0075720D01*
X0093294Y0075390D01*
X0093274Y0075062D01*
X0093245Y0074733D01*
X0093209Y0074406D01*
X0093165Y0074080D01*
X0093112Y0073754D01*
X0093052Y0073430D01*
X0092984Y0073108D01*
X0092908Y0072788D01*
X0092824Y0072469D01*
X0092732Y0072153D01*
X0092633Y0071839D01*
X0092525Y0071527D01*
X0092411Y0071218D01*
X0092288Y0070913D01*
X0092159Y0070610D01*
X0092021Y0070310D01*
X0091877Y0070014D01*
X0091725Y0069722D01*
X0091566Y0069433D01*
X0091400Y0069149D01*
X0091228Y0068868D01*
X0091048Y0068592D01*
X0090862Y0068321D01*
X0090669Y0068054D01*
X0090469Y0067791D01*
X0090263Y0067534D01*
X0090051Y0067282D01*
X0089833Y0067035D01*
X0089609Y0066794D01*
X0089379Y0066558D01*
X0089143Y0066328D01*
X0088902Y0066104D01*
X0088655Y0065886D01*
X0088403Y0065674D01*
X0088146Y0065468D01*
X0087883Y0065268D01*
X0087616Y0065075D01*
X0087345Y0064889D01*
X0087069Y0064709D01*
X0086788Y0064537D01*
X0086504Y0064371D01*
X0086215Y0064212D01*
X0085923Y0064060D01*
X0085627Y0063916D01*
X0085327Y0063778D01*
X0085024Y0063649D01*
X0084719Y0063526D01*
X0084410Y0063412D01*
X0084098Y0063304D01*
X0083784Y0063205D01*
X0083468Y0063113D01*
X0083149Y0063029D01*
X0082829Y0062953D01*
X0082507Y0062885D01*
X0082183Y0062825D01*
X0081857Y0062772D01*
X0081531Y0062728D01*
X0081204Y0062692D01*
X0080875Y0062663D01*
X0080547Y0062643D01*
X0080217Y0062631D01*
X0079888Y0062627D01*
X0079559Y0062631D01*
X0079229Y0062643D01*
X0078901Y0062663D01*
X0078572Y0062692D01*
X0078245Y0062728D01*
X0077919Y0062772D01*
X0077593Y0062825D01*
X0077269Y0062885D01*
X0076947Y0062953D01*
X0076627Y0063029D01*
X0076308Y0063113D01*
X0075992Y0063205D01*
X0075678Y0063304D01*
X0075366Y0063412D01*
X0075057Y0063526D01*
X0074752Y0063649D01*
X0074449Y0063778D01*
X0074149Y0063916D01*
X0073853Y0064060D01*
X0073561Y0064212D01*
X0073272Y0064371D01*
X0072988Y0064537D01*
X0072707Y0064709D01*
X0072431Y0064889D01*
X0072160Y0065075D01*
X0071893Y0065268D01*
X0071630Y0065468D01*
X0071373Y0065674D01*
X0071121Y0065886D01*
X0070874Y0066104D01*
X0070633Y0066328D01*
X0070397Y0066558D01*
X0070167Y0066794D01*
X0069943Y0067035D01*
X0069725Y0067282D01*
X0069513Y0067534D01*
X0069307Y0067791D01*
X0069107Y0068054D01*
X0068914Y0068321D01*
X0068728Y0068592D01*
X0068548Y0068868D01*
X0068376Y0069149D01*
X0068210Y0069433D01*
X0068051Y0069722D01*
X0067899Y0070014D01*
X0067755Y0070310D01*
X0067617Y0070610D01*
X0067488Y0070913D01*
X0067365Y0071218D01*
X0067251Y0071527D01*
X0067143Y0071839D01*
X0067044Y0072153D01*
X0066952Y0072469D01*
X0066868Y0072788D01*
X0066792Y0073108D01*
X0066724Y0073430D01*
X0066664Y0073754D01*
X0066611Y0074080D01*
X0066567Y0074406D01*
X0066531Y0074733D01*
X0066502Y0075062D01*
X0066482Y0075390D01*
X0066470Y0075720D01*
X0066466Y0076049D01*
X0093945Y0071267D02*
X0093945Y0080918D01*
X0115978Y0035249D02*
X0115227Y0034499D01*
X0115227Y0032997D01*
X0115978Y0032247D01*
X0115227Y0030645D02*
X0115227Y0029144D01*
X0115227Y0029895D02*
X0118980Y0029895D01*
X0119731Y0029144D01*
X0119731Y0028394D01*
X0118980Y0027643D01*
X0119731Y0032247D02*
X0116729Y0035249D01*
X0115978Y0035249D01*
X0119731Y0035249D02*
X0119731Y0032247D01*
X0029180Y0107134D02*
X0029180Y0107884D01*
X0028429Y0108635D01*
X0024676Y0108635D01*
X0024676Y0107884D02*
X0024676Y0109386D01*
X0025427Y0110987D02*
X0024676Y0111738D01*
X0024676Y0113239D01*
X0025427Y0113990D01*
X0026177Y0113990D01*
X0026928Y0113239D01*
X0027679Y0113990D01*
X0028429Y0113990D01*
X0029180Y0113239D01*
X0029180Y0111738D01*
X0028429Y0110987D01*
X0026928Y0112488D02*
X0026928Y0113239D01*
X0029180Y0107134D02*
X0028429Y0106383D01*
D17*
X0067732Y0088115D02*
X0067734Y0088187D01*
X0067740Y0088259D01*
X0067750Y0088331D01*
X0067764Y0088401D01*
X0067781Y0088471D01*
X0067803Y0088540D01*
X0067828Y0088608D01*
X0067857Y0088674D01*
X0067890Y0088738D01*
X0067926Y0088801D01*
X0067965Y0088861D01*
X0068008Y0088920D01*
X0068054Y0088975D01*
X0068103Y0089028D01*
X0068155Y0089079D01*
X0068209Y0089126D01*
X0068266Y0089171D01*
X0068325Y0089212D01*
X0068387Y0089249D01*
X0068450Y0089284D01*
X0068516Y0089315D01*
X0068583Y0089342D01*
X0068651Y0089365D01*
X0068720Y0089385D01*
X0068791Y0089401D01*
X0068862Y0089413D01*
X0068934Y0089421D01*
X0069006Y0089425D01*
X0069078Y0089425D01*
X0069150Y0089421D01*
X0069222Y0089413D01*
X0069293Y0089401D01*
X0069364Y0089385D01*
X0069433Y0089365D01*
X0069501Y0089342D01*
X0069568Y0089315D01*
X0069634Y0089284D01*
X0069697Y0089249D01*
X0069759Y0089212D01*
X0069818Y0089171D01*
X0069875Y0089126D01*
X0069929Y0089079D01*
X0069981Y0089028D01*
X0070030Y0088975D01*
X0070076Y0088920D01*
X0070119Y0088861D01*
X0070158Y0088801D01*
X0070194Y0088738D01*
X0070227Y0088674D01*
X0070256Y0088608D01*
X0070281Y0088540D01*
X0070303Y0088471D01*
X0070320Y0088401D01*
X0070334Y0088331D01*
X0070344Y0088259D01*
X0070350Y0088187D01*
X0070352Y0088115D01*
X0070350Y0088043D01*
X0070344Y0087971D01*
X0070334Y0087899D01*
X0070320Y0087829D01*
X0070303Y0087759D01*
X0070281Y0087690D01*
X0070256Y0087622D01*
X0070227Y0087556D01*
X0070194Y0087492D01*
X0070158Y0087429D01*
X0070119Y0087369D01*
X0070076Y0087310D01*
X0070030Y0087255D01*
X0069981Y0087202D01*
X0069929Y0087151D01*
X0069875Y0087104D01*
X0069818Y0087059D01*
X0069759Y0087018D01*
X0069697Y0086981D01*
X0069634Y0086946D01*
X0069568Y0086915D01*
X0069501Y0086888D01*
X0069433Y0086865D01*
X0069364Y0086845D01*
X0069293Y0086829D01*
X0069222Y0086817D01*
X0069150Y0086809D01*
X0069078Y0086805D01*
X0069006Y0086805D01*
X0068934Y0086809D01*
X0068862Y0086817D01*
X0068791Y0086829D01*
X0068720Y0086845D01*
X0068651Y0086865D01*
X0068583Y0086888D01*
X0068516Y0086915D01*
X0068450Y0086946D01*
X0068387Y0086981D01*
X0068325Y0087018D01*
X0068266Y0087059D01*
X0068209Y0087104D01*
X0068155Y0087151D01*
X0068103Y0087202D01*
X0068054Y0087255D01*
X0068008Y0087310D01*
X0067965Y0087369D01*
X0067926Y0087429D01*
X0067890Y0087492D01*
X0067857Y0087556D01*
X0067828Y0087622D01*
X0067803Y0087690D01*
X0067781Y0087759D01*
X0067764Y0087829D01*
X0067750Y0087899D01*
X0067740Y0087971D01*
X0067734Y0088043D01*
X0067732Y0088115D01*
X0075793Y0080231D02*
X0075836Y0080231D01*
X0075836Y0076387D01*
X0079679Y0076387D01*
X0079679Y0080231D01*
X0075836Y0080231D01*
X0076296Y0079252D02*
X0077181Y0079252D01*
X0077476Y0078957D01*
X0077476Y0077777D01*
X0077181Y0077482D01*
X0076296Y0077482D01*
X0076296Y0079252D01*
X0078108Y0078957D02*
X0078403Y0079252D01*
X0078993Y0079252D01*
X0079288Y0078957D01*
X0079288Y0078662D01*
X0078108Y0077482D01*
X0079288Y0077482D01*
X0080705Y0077482D02*
X0080705Y0079252D01*
X0081590Y0079252D01*
X0081885Y0078957D01*
X0081885Y0077777D01*
X0081590Y0077482D01*
X0080705Y0077482D01*
X0080238Y0076365D02*
X0080238Y0080231D01*
X0080259Y0080253D02*
X0084124Y0080253D01*
X0084124Y0076365D01*
X0080238Y0076365D01*
X0080241Y0075678D02*
X0080259Y0075678D01*
X0080259Y0071813D01*
X0084087Y0071813D01*
X0084087Y0075678D01*
X0080259Y0075678D01*
X0079651Y0075696D02*
X0079651Y0071830D01*
X0075822Y0071830D01*
X0075822Y0075696D01*
X0079651Y0075696D01*
X0078743Y0074570D02*
X0078153Y0073980D01*
X0077520Y0074275D02*
X0077225Y0074570D01*
X0076340Y0074570D01*
X0076340Y0072800D01*
X0077225Y0072800D01*
X0077520Y0073095D01*
X0077520Y0074275D01*
X0078743Y0074570D02*
X0078743Y0072800D01*
X0078153Y0072800D02*
X0079333Y0072800D01*
X0080750Y0072845D02*
X0080750Y0074615D01*
X0081635Y0074615D01*
X0081930Y0074320D01*
X0081930Y0073140D01*
X0081635Y0072845D01*
X0080750Y0072845D01*
X0082562Y0073730D02*
X0083742Y0073730D01*
X0083447Y0072845D02*
X0083447Y0074615D01*
X0082562Y0073730D01*
X0082813Y0077482D02*
X0082518Y0077777D01*
X0082813Y0077482D02*
X0083403Y0077482D01*
X0083698Y0077777D01*
X0083698Y0078072D01*
X0083403Y0078367D01*
X0083108Y0078367D01*
X0083403Y0078367D02*
X0083698Y0078662D01*
X0083698Y0078957D01*
X0083403Y0079252D01*
X0082813Y0079252D01*
X0082518Y0078957D01*
X0075822Y0075696D02*
X0075804Y0075696D01*
X0067703Y0063913D02*
X0067705Y0063985D01*
X0067711Y0064057D01*
X0067721Y0064129D01*
X0067735Y0064199D01*
X0067752Y0064269D01*
X0067774Y0064338D01*
X0067799Y0064406D01*
X0067828Y0064472D01*
X0067861Y0064536D01*
X0067897Y0064599D01*
X0067936Y0064659D01*
X0067979Y0064718D01*
X0068025Y0064773D01*
X0068074Y0064826D01*
X0068126Y0064877D01*
X0068180Y0064924D01*
X0068237Y0064969D01*
X0068296Y0065010D01*
X0068358Y0065047D01*
X0068421Y0065082D01*
X0068487Y0065113D01*
X0068554Y0065140D01*
X0068622Y0065163D01*
X0068691Y0065183D01*
X0068762Y0065199D01*
X0068833Y0065211D01*
X0068905Y0065219D01*
X0068977Y0065223D01*
X0069049Y0065223D01*
X0069121Y0065219D01*
X0069193Y0065211D01*
X0069264Y0065199D01*
X0069335Y0065183D01*
X0069404Y0065163D01*
X0069472Y0065140D01*
X0069539Y0065113D01*
X0069605Y0065082D01*
X0069668Y0065047D01*
X0069730Y0065010D01*
X0069789Y0064969D01*
X0069846Y0064924D01*
X0069900Y0064877D01*
X0069952Y0064826D01*
X0070001Y0064773D01*
X0070047Y0064718D01*
X0070090Y0064659D01*
X0070129Y0064599D01*
X0070165Y0064536D01*
X0070198Y0064472D01*
X0070227Y0064406D01*
X0070252Y0064338D01*
X0070274Y0064269D01*
X0070291Y0064199D01*
X0070305Y0064129D01*
X0070315Y0064057D01*
X0070321Y0063985D01*
X0070323Y0063913D01*
X0070321Y0063841D01*
X0070315Y0063769D01*
X0070305Y0063697D01*
X0070291Y0063627D01*
X0070274Y0063557D01*
X0070252Y0063488D01*
X0070227Y0063420D01*
X0070198Y0063354D01*
X0070165Y0063290D01*
X0070129Y0063227D01*
X0070090Y0063167D01*
X0070047Y0063108D01*
X0070001Y0063053D01*
X0069952Y0063000D01*
X0069900Y0062949D01*
X0069846Y0062902D01*
X0069789Y0062857D01*
X0069730Y0062816D01*
X0069668Y0062779D01*
X0069605Y0062744D01*
X0069539Y0062713D01*
X0069472Y0062686D01*
X0069404Y0062663D01*
X0069335Y0062643D01*
X0069264Y0062627D01*
X0069193Y0062615D01*
X0069121Y0062607D01*
X0069049Y0062603D01*
X0068977Y0062603D01*
X0068905Y0062607D01*
X0068833Y0062615D01*
X0068762Y0062627D01*
X0068691Y0062643D01*
X0068622Y0062663D01*
X0068554Y0062686D01*
X0068487Y0062713D01*
X0068421Y0062744D01*
X0068358Y0062779D01*
X0068296Y0062816D01*
X0068237Y0062857D01*
X0068180Y0062902D01*
X0068126Y0062949D01*
X0068074Y0063000D01*
X0068025Y0063053D01*
X0067979Y0063108D01*
X0067936Y0063167D01*
X0067897Y0063227D01*
X0067861Y0063290D01*
X0067828Y0063354D01*
X0067799Y0063420D01*
X0067774Y0063488D01*
X0067752Y0063557D01*
X0067735Y0063627D01*
X0067721Y0063697D01*
X0067711Y0063769D01*
X0067705Y0063841D01*
X0067703Y0063913D01*
X0089579Y0063916D02*
X0089581Y0063988D01*
X0089587Y0064060D01*
X0089597Y0064132D01*
X0089611Y0064202D01*
X0089628Y0064272D01*
X0089650Y0064341D01*
X0089675Y0064409D01*
X0089704Y0064475D01*
X0089737Y0064539D01*
X0089773Y0064602D01*
X0089812Y0064662D01*
X0089855Y0064721D01*
X0089901Y0064776D01*
X0089950Y0064829D01*
X0090002Y0064880D01*
X0090056Y0064927D01*
X0090113Y0064972D01*
X0090172Y0065013D01*
X0090234Y0065050D01*
X0090297Y0065085D01*
X0090363Y0065116D01*
X0090430Y0065143D01*
X0090498Y0065166D01*
X0090567Y0065186D01*
X0090638Y0065202D01*
X0090709Y0065214D01*
X0090781Y0065222D01*
X0090853Y0065226D01*
X0090925Y0065226D01*
X0090997Y0065222D01*
X0091069Y0065214D01*
X0091140Y0065202D01*
X0091211Y0065186D01*
X0091280Y0065166D01*
X0091348Y0065143D01*
X0091415Y0065116D01*
X0091481Y0065085D01*
X0091544Y0065050D01*
X0091606Y0065013D01*
X0091665Y0064972D01*
X0091722Y0064927D01*
X0091776Y0064880D01*
X0091828Y0064829D01*
X0091877Y0064776D01*
X0091923Y0064721D01*
X0091966Y0064662D01*
X0092005Y0064602D01*
X0092041Y0064539D01*
X0092074Y0064475D01*
X0092103Y0064409D01*
X0092128Y0064341D01*
X0092150Y0064272D01*
X0092167Y0064202D01*
X0092181Y0064132D01*
X0092191Y0064060D01*
X0092197Y0063988D01*
X0092199Y0063916D01*
X0092197Y0063844D01*
X0092191Y0063772D01*
X0092181Y0063700D01*
X0092167Y0063630D01*
X0092150Y0063560D01*
X0092128Y0063491D01*
X0092103Y0063423D01*
X0092074Y0063357D01*
X0092041Y0063293D01*
X0092005Y0063230D01*
X0091966Y0063170D01*
X0091923Y0063111D01*
X0091877Y0063056D01*
X0091828Y0063003D01*
X0091776Y0062952D01*
X0091722Y0062905D01*
X0091665Y0062860D01*
X0091606Y0062819D01*
X0091544Y0062782D01*
X0091481Y0062747D01*
X0091415Y0062716D01*
X0091348Y0062689D01*
X0091280Y0062666D01*
X0091211Y0062646D01*
X0091140Y0062630D01*
X0091069Y0062618D01*
X0090997Y0062610D01*
X0090925Y0062606D01*
X0090853Y0062606D01*
X0090781Y0062610D01*
X0090709Y0062618D01*
X0090638Y0062630D01*
X0090567Y0062646D01*
X0090498Y0062666D01*
X0090430Y0062689D01*
X0090363Y0062716D01*
X0090297Y0062747D01*
X0090234Y0062782D01*
X0090172Y0062819D01*
X0090113Y0062860D01*
X0090056Y0062905D01*
X0090002Y0062952D01*
X0089950Y0063003D01*
X0089901Y0063056D01*
X0089855Y0063111D01*
X0089812Y0063170D01*
X0089773Y0063230D01*
X0089737Y0063293D01*
X0089704Y0063357D01*
X0089675Y0063423D01*
X0089650Y0063491D01*
X0089628Y0063560D01*
X0089611Y0063630D01*
X0089597Y0063700D01*
X0089587Y0063772D01*
X0089581Y0063844D01*
X0089579Y0063916D01*
X0089583Y0088094D02*
X0089585Y0088166D01*
X0089591Y0088238D01*
X0089601Y0088310D01*
X0089615Y0088380D01*
X0089632Y0088450D01*
X0089654Y0088519D01*
X0089679Y0088587D01*
X0089708Y0088653D01*
X0089741Y0088717D01*
X0089777Y0088780D01*
X0089816Y0088840D01*
X0089859Y0088899D01*
X0089905Y0088954D01*
X0089954Y0089007D01*
X0090006Y0089058D01*
X0090060Y0089105D01*
X0090117Y0089150D01*
X0090176Y0089191D01*
X0090238Y0089228D01*
X0090301Y0089263D01*
X0090367Y0089294D01*
X0090434Y0089321D01*
X0090502Y0089344D01*
X0090571Y0089364D01*
X0090642Y0089380D01*
X0090713Y0089392D01*
X0090785Y0089400D01*
X0090857Y0089404D01*
X0090929Y0089404D01*
X0091001Y0089400D01*
X0091073Y0089392D01*
X0091144Y0089380D01*
X0091215Y0089364D01*
X0091284Y0089344D01*
X0091352Y0089321D01*
X0091419Y0089294D01*
X0091485Y0089263D01*
X0091548Y0089228D01*
X0091610Y0089191D01*
X0091669Y0089150D01*
X0091726Y0089105D01*
X0091780Y0089058D01*
X0091832Y0089007D01*
X0091881Y0088954D01*
X0091927Y0088899D01*
X0091970Y0088840D01*
X0092009Y0088780D01*
X0092045Y0088717D01*
X0092078Y0088653D01*
X0092107Y0088587D01*
X0092132Y0088519D01*
X0092154Y0088450D01*
X0092171Y0088380D01*
X0092185Y0088310D01*
X0092195Y0088238D01*
X0092201Y0088166D01*
X0092203Y0088094D01*
X0092201Y0088022D01*
X0092195Y0087950D01*
X0092185Y0087878D01*
X0092171Y0087808D01*
X0092154Y0087738D01*
X0092132Y0087669D01*
X0092107Y0087601D01*
X0092078Y0087535D01*
X0092045Y0087471D01*
X0092009Y0087408D01*
X0091970Y0087348D01*
X0091927Y0087289D01*
X0091881Y0087234D01*
X0091832Y0087181D01*
X0091780Y0087130D01*
X0091726Y0087083D01*
X0091669Y0087038D01*
X0091610Y0086997D01*
X0091548Y0086960D01*
X0091485Y0086925D01*
X0091419Y0086894D01*
X0091352Y0086867D01*
X0091284Y0086844D01*
X0091215Y0086824D01*
X0091144Y0086808D01*
X0091073Y0086796D01*
X0091001Y0086788D01*
X0090929Y0086784D01*
X0090857Y0086784D01*
X0090785Y0086788D01*
X0090713Y0086796D01*
X0090642Y0086808D01*
X0090571Y0086824D01*
X0090502Y0086844D01*
X0090434Y0086867D01*
X0090367Y0086894D01*
X0090301Y0086925D01*
X0090238Y0086960D01*
X0090176Y0086997D01*
X0090117Y0087038D01*
X0090060Y0087083D01*
X0090006Y0087130D01*
X0089954Y0087181D01*
X0089905Y0087234D01*
X0089859Y0087289D01*
X0089816Y0087348D01*
X0089777Y0087408D01*
X0089741Y0087471D01*
X0089708Y0087535D01*
X0089679Y0087601D01*
X0089654Y0087669D01*
X0089632Y0087738D01*
X0089615Y0087808D01*
X0089601Y0087878D01*
X0089591Y0087950D01*
X0089585Y0088022D01*
X0089583Y0088094D01*
M02*
