G75*
%MOIN*%
%OFA0B0*%
%FSLAX25Y25*%
%IPPOS*%
%LPD*%
%AMOC8*
5,1,8,0,0,1.08239X$1,22.5*
%
%ADD10C,0.00394*%
%ADD11C,0.00000*%
%ADD12C,0.00500*%
%ADD13C,0.00800*%
%ADD14C,0.00100*%
%ADD15C,0.00600*%
%ADD16C,0.00400*%
D10*
X0008962Y0079937D02*
X0008983Y0081679D01*
X0009047Y0083420D01*
X0009154Y0085158D01*
X0009304Y0086894D01*
X0009496Y0088625D01*
X0009730Y0090351D01*
X0010007Y0092071D01*
X0010326Y0093784D01*
X0010687Y0095488D01*
X0011089Y0097183D01*
X0011533Y0098867D01*
X0012018Y0100540D01*
X0012544Y0102201D01*
X0013111Y0103848D01*
X0013718Y0105481D01*
X0014365Y0107098D01*
X0015051Y0108699D01*
X0015776Y0110283D01*
X0016540Y0111848D01*
X0017343Y0113394D01*
X0018183Y0114920D01*
X0019060Y0116425D01*
X0019974Y0117908D01*
X0020923Y0119369D01*
X0021909Y0120805D01*
X0022929Y0122217D01*
X0023984Y0123603D01*
X0025073Y0124963D01*
X0026194Y0126296D01*
X0027348Y0127601D01*
X0028534Y0128877D01*
X0029750Y0130124D01*
X0030997Y0131340D01*
X0032273Y0132526D01*
X0033578Y0133680D01*
X0034911Y0134801D01*
X0036271Y0135890D01*
X0037657Y0136945D01*
X0039069Y0137965D01*
X0040505Y0138951D01*
X0041966Y0139900D01*
X0043449Y0140814D01*
X0044954Y0141691D01*
X0046480Y0142531D01*
X0048026Y0143334D01*
X0049591Y0144098D01*
X0051175Y0144823D01*
X0052776Y0145509D01*
X0054393Y0146156D01*
X0056026Y0146763D01*
X0057673Y0147330D01*
X0059334Y0147856D01*
X0061007Y0148341D01*
X0062691Y0148785D01*
X0064386Y0149187D01*
X0066090Y0149548D01*
X0067803Y0149867D01*
X0069523Y0150144D01*
X0071249Y0150378D01*
X0072980Y0150570D01*
X0074716Y0150720D01*
X0076454Y0150827D01*
X0078195Y0150891D01*
X0079937Y0150912D01*
X0081679Y0150891D01*
X0083420Y0150827D01*
X0085158Y0150720D01*
X0086894Y0150570D01*
X0088625Y0150378D01*
X0090351Y0150144D01*
X0092071Y0149867D01*
X0093784Y0149548D01*
X0095488Y0149187D01*
X0097183Y0148785D01*
X0098867Y0148341D01*
X0100540Y0147856D01*
X0102201Y0147330D01*
X0103848Y0146763D01*
X0105481Y0146156D01*
X0107098Y0145509D01*
X0108699Y0144823D01*
X0110283Y0144098D01*
X0111848Y0143334D01*
X0113394Y0142531D01*
X0114920Y0141691D01*
X0116425Y0140814D01*
X0117908Y0139900D01*
X0119369Y0138951D01*
X0120805Y0137965D01*
X0122217Y0136945D01*
X0123603Y0135890D01*
X0124963Y0134801D01*
X0126296Y0133680D01*
X0127601Y0132526D01*
X0128877Y0131340D01*
X0130124Y0130124D01*
X0131340Y0128877D01*
X0132526Y0127601D01*
X0133680Y0126296D01*
X0134801Y0124963D01*
X0135890Y0123603D01*
X0136945Y0122217D01*
X0137965Y0120805D01*
X0138951Y0119369D01*
X0139900Y0117908D01*
X0140814Y0116425D01*
X0141691Y0114920D01*
X0142531Y0113394D01*
X0143334Y0111848D01*
X0144098Y0110283D01*
X0144823Y0108699D01*
X0145509Y0107098D01*
X0146156Y0105481D01*
X0146763Y0103848D01*
X0147330Y0102201D01*
X0147856Y0100540D01*
X0148341Y0098867D01*
X0148785Y0097183D01*
X0149187Y0095488D01*
X0149548Y0093784D01*
X0149867Y0092071D01*
X0150144Y0090351D01*
X0150378Y0088625D01*
X0150570Y0086894D01*
X0150720Y0085158D01*
X0150827Y0083420D01*
X0150891Y0081679D01*
X0150912Y0079937D01*
X0150891Y0078195D01*
X0150827Y0076454D01*
X0150720Y0074716D01*
X0150570Y0072980D01*
X0150378Y0071249D01*
X0150144Y0069523D01*
X0149867Y0067803D01*
X0149548Y0066090D01*
X0149187Y0064386D01*
X0148785Y0062691D01*
X0148341Y0061007D01*
X0147856Y0059334D01*
X0147330Y0057673D01*
X0146763Y0056026D01*
X0146156Y0054393D01*
X0145509Y0052776D01*
X0144823Y0051175D01*
X0144098Y0049591D01*
X0143334Y0048026D01*
X0142531Y0046480D01*
X0141691Y0044954D01*
X0140814Y0043449D01*
X0139900Y0041966D01*
X0138951Y0040505D01*
X0137965Y0039069D01*
X0136945Y0037657D01*
X0135890Y0036271D01*
X0134801Y0034911D01*
X0133680Y0033578D01*
X0132526Y0032273D01*
X0131340Y0030997D01*
X0130124Y0029750D01*
X0128877Y0028534D01*
X0127601Y0027348D01*
X0126296Y0026194D01*
X0124963Y0025073D01*
X0123603Y0023984D01*
X0122217Y0022929D01*
X0120805Y0021909D01*
X0119369Y0020923D01*
X0117908Y0019974D01*
X0116425Y0019060D01*
X0114920Y0018183D01*
X0113394Y0017343D01*
X0111848Y0016540D01*
X0110283Y0015776D01*
X0108699Y0015051D01*
X0107098Y0014365D01*
X0105481Y0013718D01*
X0103848Y0013111D01*
X0102201Y0012544D01*
X0100540Y0012018D01*
X0098867Y0011533D01*
X0097183Y0011089D01*
X0095488Y0010687D01*
X0093784Y0010326D01*
X0092071Y0010007D01*
X0090351Y0009730D01*
X0088625Y0009496D01*
X0086894Y0009304D01*
X0085158Y0009154D01*
X0083420Y0009047D01*
X0081679Y0008983D01*
X0079937Y0008962D01*
X0078195Y0008983D01*
X0076454Y0009047D01*
X0074716Y0009154D01*
X0072980Y0009304D01*
X0071249Y0009496D01*
X0069523Y0009730D01*
X0067803Y0010007D01*
X0066090Y0010326D01*
X0064386Y0010687D01*
X0062691Y0011089D01*
X0061007Y0011533D01*
X0059334Y0012018D01*
X0057673Y0012544D01*
X0056026Y0013111D01*
X0054393Y0013718D01*
X0052776Y0014365D01*
X0051175Y0015051D01*
X0049591Y0015776D01*
X0048026Y0016540D01*
X0046480Y0017343D01*
X0044954Y0018183D01*
X0043449Y0019060D01*
X0041966Y0019974D01*
X0040505Y0020923D01*
X0039069Y0021909D01*
X0037657Y0022929D01*
X0036271Y0023984D01*
X0034911Y0025073D01*
X0033578Y0026194D01*
X0032273Y0027348D01*
X0030997Y0028534D01*
X0029750Y0029750D01*
X0028534Y0030997D01*
X0027348Y0032273D01*
X0026194Y0033578D01*
X0025073Y0034911D01*
X0023984Y0036271D01*
X0022929Y0037657D01*
X0021909Y0039069D01*
X0020923Y0040505D01*
X0019974Y0041966D01*
X0019060Y0043449D01*
X0018183Y0044954D01*
X0017343Y0046480D01*
X0016540Y0048026D01*
X0015776Y0049591D01*
X0015051Y0051175D01*
X0014365Y0052776D01*
X0013718Y0054393D01*
X0013111Y0056026D01*
X0012544Y0057673D01*
X0012018Y0059334D01*
X0011533Y0061007D01*
X0011089Y0062691D01*
X0010687Y0064386D01*
X0010326Y0066090D01*
X0010007Y0067803D01*
X0009730Y0069523D01*
X0009496Y0071249D01*
X0009304Y0072980D01*
X0009154Y0074716D01*
X0009047Y0076454D01*
X0008983Y0078195D01*
X0008962Y0079937D01*
D11*
X0050409Y0127181D02*
X0050418Y0127906D01*
X0050445Y0128630D01*
X0050489Y0129353D01*
X0050551Y0130075D01*
X0050631Y0130796D01*
X0050729Y0131514D01*
X0050844Y0132229D01*
X0050976Y0132942D01*
X0051126Y0133651D01*
X0051294Y0134356D01*
X0051479Y0135056D01*
X0051680Y0135753D01*
X0051899Y0136443D01*
X0052135Y0137129D01*
X0052388Y0137808D01*
X0052657Y0138481D01*
X0052942Y0139147D01*
X0053244Y0139806D01*
X0053562Y0140457D01*
X0053896Y0141100D01*
X0054245Y0141735D01*
X0054610Y0142361D01*
X0054990Y0142978D01*
X0055385Y0143586D01*
X0055795Y0144183D01*
X0056220Y0144771D01*
X0056659Y0145348D01*
X0057112Y0145913D01*
X0057578Y0146468D01*
X0058058Y0147011D01*
X0058551Y0147542D01*
X0059058Y0148060D01*
X0059576Y0148567D01*
X0060107Y0149060D01*
X0060650Y0149540D01*
X0061205Y0150006D01*
X0061770Y0150459D01*
X0062347Y0150898D01*
X0062935Y0151323D01*
X0063532Y0151733D01*
X0064140Y0152128D01*
X0064757Y0152508D01*
X0065383Y0152873D01*
X0066018Y0153222D01*
X0066661Y0153556D01*
X0067312Y0153874D01*
X0067971Y0154176D01*
X0068637Y0154461D01*
X0069310Y0154730D01*
X0069989Y0154983D01*
X0070675Y0155219D01*
X0071365Y0155438D01*
X0072062Y0155639D01*
X0072762Y0155824D01*
X0073467Y0155992D01*
X0074176Y0156142D01*
X0074889Y0156274D01*
X0075604Y0156389D01*
X0076322Y0156487D01*
X0077043Y0156567D01*
X0077765Y0156629D01*
X0078488Y0156673D01*
X0079212Y0156700D01*
X0079937Y0156709D01*
X0080662Y0156700D01*
X0081386Y0156673D01*
X0082109Y0156629D01*
X0082831Y0156567D01*
X0083552Y0156487D01*
X0084270Y0156389D01*
X0084985Y0156274D01*
X0085698Y0156142D01*
X0086407Y0155992D01*
X0087112Y0155824D01*
X0087812Y0155639D01*
X0088509Y0155438D01*
X0089199Y0155219D01*
X0089885Y0154983D01*
X0090564Y0154730D01*
X0091237Y0154461D01*
X0091903Y0154176D01*
X0092562Y0153874D01*
X0093213Y0153556D01*
X0093856Y0153222D01*
X0094491Y0152873D01*
X0095117Y0152508D01*
X0095734Y0152128D01*
X0096342Y0151733D01*
X0096939Y0151323D01*
X0097527Y0150898D01*
X0098104Y0150459D01*
X0098669Y0150006D01*
X0099224Y0149540D01*
X0099767Y0149060D01*
X0100298Y0148567D01*
X0100816Y0148060D01*
X0101323Y0147542D01*
X0101816Y0147011D01*
X0102296Y0146468D01*
X0102762Y0145913D01*
X0103215Y0145348D01*
X0103654Y0144771D01*
X0104079Y0144183D01*
X0104489Y0143586D01*
X0104884Y0142978D01*
X0105264Y0142361D01*
X0105629Y0141735D01*
X0105978Y0141100D01*
X0106312Y0140457D01*
X0106630Y0139806D01*
X0106932Y0139147D01*
X0107217Y0138481D01*
X0107486Y0137808D01*
X0107739Y0137129D01*
X0107975Y0136443D01*
X0108194Y0135753D01*
X0108395Y0135056D01*
X0108580Y0134356D01*
X0108748Y0133651D01*
X0108898Y0132942D01*
X0109030Y0132229D01*
X0109145Y0131514D01*
X0109243Y0130796D01*
X0109323Y0130075D01*
X0109385Y0129353D01*
X0109429Y0128630D01*
X0109456Y0127906D01*
X0109465Y0127181D01*
X0109456Y0126456D01*
X0109429Y0125732D01*
X0109385Y0125009D01*
X0109323Y0124287D01*
X0109243Y0123566D01*
X0109145Y0122848D01*
X0109030Y0122133D01*
X0108898Y0121420D01*
X0108748Y0120711D01*
X0108580Y0120006D01*
X0108395Y0119306D01*
X0108194Y0118609D01*
X0107975Y0117919D01*
X0107739Y0117233D01*
X0107486Y0116554D01*
X0107217Y0115881D01*
X0106932Y0115215D01*
X0106630Y0114556D01*
X0106312Y0113905D01*
X0105978Y0113262D01*
X0105629Y0112627D01*
X0105264Y0112001D01*
X0104884Y0111384D01*
X0104489Y0110776D01*
X0104079Y0110179D01*
X0103654Y0109591D01*
X0103215Y0109014D01*
X0102762Y0108449D01*
X0102296Y0107894D01*
X0101816Y0107351D01*
X0101323Y0106820D01*
X0100816Y0106302D01*
X0100298Y0105795D01*
X0099767Y0105302D01*
X0099224Y0104822D01*
X0098669Y0104356D01*
X0098104Y0103903D01*
X0097527Y0103464D01*
X0096939Y0103039D01*
X0096342Y0102629D01*
X0095734Y0102234D01*
X0095117Y0101854D01*
X0094491Y0101489D01*
X0093856Y0101140D01*
X0093213Y0100806D01*
X0092562Y0100488D01*
X0091903Y0100186D01*
X0091237Y0099901D01*
X0090564Y0099632D01*
X0089885Y0099379D01*
X0089199Y0099143D01*
X0088509Y0098924D01*
X0087812Y0098723D01*
X0087112Y0098538D01*
X0086407Y0098370D01*
X0085698Y0098220D01*
X0084985Y0098088D01*
X0084270Y0097973D01*
X0083552Y0097875D01*
X0082831Y0097795D01*
X0082109Y0097733D01*
X0081386Y0097689D01*
X0080662Y0097662D01*
X0079937Y0097653D01*
X0079212Y0097662D01*
X0078488Y0097689D01*
X0077765Y0097733D01*
X0077043Y0097795D01*
X0076322Y0097875D01*
X0075604Y0097973D01*
X0074889Y0098088D01*
X0074176Y0098220D01*
X0073467Y0098370D01*
X0072762Y0098538D01*
X0072062Y0098723D01*
X0071365Y0098924D01*
X0070675Y0099143D01*
X0069989Y0099379D01*
X0069310Y0099632D01*
X0068637Y0099901D01*
X0067971Y0100186D01*
X0067312Y0100488D01*
X0066661Y0100806D01*
X0066018Y0101140D01*
X0065383Y0101489D01*
X0064757Y0101854D01*
X0064140Y0102234D01*
X0063532Y0102629D01*
X0062935Y0103039D01*
X0062347Y0103464D01*
X0061770Y0103903D01*
X0061205Y0104356D01*
X0060650Y0104822D01*
X0060107Y0105302D01*
X0059576Y0105795D01*
X0059058Y0106302D01*
X0058551Y0106820D01*
X0058058Y0107351D01*
X0057578Y0107894D01*
X0057112Y0108449D01*
X0056659Y0109014D01*
X0056220Y0109591D01*
X0055795Y0110179D01*
X0055385Y0110776D01*
X0054990Y0111384D01*
X0054610Y0112001D01*
X0054245Y0112627D01*
X0053896Y0113262D01*
X0053562Y0113905D01*
X0053244Y0114556D01*
X0052942Y0115215D01*
X0052657Y0115881D01*
X0052388Y0116554D01*
X0052135Y0117233D01*
X0051899Y0117919D01*
X0051680Y0118609D01*
X0051479Y0119306D01*
X0051294Y0120006D01*
X0051126Y0120711D01*
X0050976Y0121420D01*
X0050844Y0122133D01*
X0050729Y0122848D01*
X0050631Y0123566D01*
X0050551Y0124287D01*
X0050489Y0125009D01*
X0050445Y0125732D01*
X0050418Y0126456D01*
X0050409Y0127181D01*
D12*
X0020420Y0028496D02*
X0021170Y0027745D01*
X0021921Y0027745D01*
X0022672Y0028496D01*
X0022672Y0029997D01*
X0023422Y0030748D01*
X0024173Y0030748D01*
X0024923Y0029997D01*
X0024923Y0028496D01*
X0024173Y0027745D01*
X0021170Y0030748D02*
X0020420Y0029997D01*
X0020420Y0028496D01*
X0020420Y0032349D02*
X0024173Y0032349D01*
X0024923Y0033100D01*
X0024923Y0034601D01*
X0024173Y0035352D01*
X0020420Y0035352D01*
X0020420Y0036953D02*
X0020420Y0039205D01*
X0021170Y0039956D01*
X0022672Y0039956D01*
X0023422Y0039205D01*
X0023422Y0036953D01*
X0024923Y0036953D02*
X0020420Y0036953D01*
X0020420Y0041557D02*
X0020420Y0043809D01*
X0021170Y0044560D01*
X0022672Y0044560D01*
X0023422Y0043809D01*
X0023422Y0041557D01*
X0024923Y0041557D02*
X0020420Y0041557D01*
X0020420Y0046161D02*
X0024923Y0046161D01*
X0024923Y0049164D01*
X0024923Y0052266D02*
X0022672Y0052266D01*
X0021170Y0053767D01*
X0020420Y0053767D01*
X0022672Y0052266D02*
X0021170Y0050765D01*
X0020420Y0050765D01*
X0115248Y0037533D02*
X0115248Y0036031D01*
X0115999Y0035281D01*
X0119001Y0035281D01*
X0119752Y0036031D01*
X0119752Y0037533D01*
X0119001Y0038283D01*
X0115999Y0038283D01*
X0115248Y0037533D01*
X0115248Y0033679D02*
X0119752Y0030677D01*
X0119752Y0029109D02*
X0119752Y0027607D01*
X0119752Y0028358D02*
X0115248Y0028358D01*
X0115248Y0027607D02*
X0115248Y0029109D01*
D13*
X0092142Y0050803D02*
X0088992Y0050803D01*
X0088992Y0053165D01*
X0088992Y0059465D02*
X0088992Y0061827D01*
X0092142Y0061827D01*
X0089386Y0069307D02*
X0086433Y0069307D01*
X0089386Y0072260D01*
X0089386Y0085252D01*
X0086433Y0088205D01*
X0064488Y0088205D01*
X0064488Y0069307D01*
X0086433Y0069307D01*
X0089386Y0069307D02*
X0089386Y0072260D01*
X0084580Y0074819D02*
X0083596Y0071866D01*
X0080643Y0070882D01*
X0072769Y0070882D01*
X0069816Y0071965D01*
X0068832Y0074819D01*
X0068832Y0082693D01*
X0069816Y0085646D01*
X0072769Y0086630D01*
X0080643Y0086630D01*
X0083596Y0085547D01*
X0084580Y0082693D01*
X0084580Y0074819D01*
X0089386Y0085252D02*
X0089386Y0088205D01*
X0086433Y0088205D01*
X0059071Y0063264D02*
X0059071Y0060902D01*
X0059071Y0063264D02*
X0055921Y0063264D01*
X0059071Y0054602D02*
X0059071Y0052240D01*
X0055921Y0052240D01*
X0074425Y0047260D02*
X0074425Y0044110D01*
X0074425Y0047260D02*
X0076787Y0047260D01*
X0083087Y0047260D02*
X0085449Y0047260D01*
X0085449Y0044110D01*
D14*
X0079211Y0051554D02*
X0078210Y0051554D01*
X0079211Y0052555D01*
X0079211Y0052805D01*
X0078961Y0053055D01*
X0078460Y0053055D01*
X0078210Y0052805D01*
X0077738Y0052805D02*
X0077738Y0051804D01*
X0077488Y0051554D01*
X0076987Y0051554D01*
X0076737Y0051804D01*
X0076737Y0052805D01*
X0076987Y0053055D01*
X0077488Y0053055D01*
X0077738Y0052805D01*
X0077237Y0052054D02*
X0077738Y0051554D01*
X0083197Y0053365D02*
X0083197Y0053866D01*
X0083447Y0054116D01*
X0084448Y0054116D01*
X0084698Y0053866D01*
X0084698Y0053365D01*
X0084448Y0053115D01*
X0083447Y0053115D01*
X0083197Y0053365D01*
X0084198Y0053615D02*
X0084698Y0054116D01*
X0084698Y0054588D02*
X0084698Y0055589D01*
X0084698Y0055089D02*
X0083197Y0055089D01*
X0083697Y0054588D01*
X0100233Y0037268D02*
X0100984Y0037268D01*
X0101234Y0037018D01*
X0101234Y0036518D01*
X0100984Y0036267D01*
X0100233Y0036267D01*
X0100233Y0035767D02*
X0100233Y0037268D01*
X0100734Y0036267D02*
X0101234Y0035767D01*
X0101707Y0035517D02*
X0102707Y0035517D01*
X0103180Y0036017D02*
X0103430Y0035767D01*
X0103930Y0035767D01*
X0104181Y0036017D01*
X0104181Y0036518D01*
X0103680Y0036518D01*
X0103180Y0037018D02*
X0103180Y0036017D01*
X0103180Y0037018D02*
X0103430Y0037268D01*
X0103930Y0037268D01*
X0104181Y0037018D01*
X0104653Y0037268D02*
X0105404Y0037268D01*
X0105654Y0037018D01*
X0105654Y0036518D01*
X0105404Y0036267D01*
X0104653Y0036267D01*
X0104653Y0035767D02*
X0104653Y0037268D01*
X0105153Y0036267D02*
X0105654Y0035767D01*
X0106126Y0035767D02*
X0107127Y0035767D01*
X0107600Y0035767D02*
X0108600Y0035767D01*
X0109073Y0035767D02*
X0109073Y0037268D01*
X0110074Y0035767D01*
X0110074Y0037268D01*
X0108600Y0037268D02*
X0107600Y0037268D01*
X0107600Y0035767D01*
X0107600Y0036518D02*
X0108100Y0036518D01*
X0107127Y0037268D02*
X0106126Y0037268D01*
X0106126Y0035767D01*
X0106126Y0036518D02*
X0106627Y0036518D01*
X0096548Y0031083D02*
X0096298Y0031333D01*
X0095797Y0031333D01*
X0095797Y0030833D01*
X0095297Y0030333D02*
X0095047Y0030583D01*
X0095047Y0031083D01*
X0095297Y0031333D01*
X0095297Y0030333D02*
X0096298Y0030333D01*
X0096548Y0030583D01*
X0096548Y0031083D01*
X0096798Y0029860D02*
X0096798Y0028859D01*
X0096298Y0028387D02*
X0095297Y0028387D01*
X0095047Y0028137D01*
X0095047Y0027386D01*
X0096548Y0027386D01*
X0096548Y0028137D01*
X0096298Y0028387D01*
X0095797Y0026914D02*
X0096048Y0026664D01*
X0096048Y0025913D01*
X0096548Y0025913D02*
X0095047Y0025913D01*
X0095047Y0026664D01*
X0095297Y0026914D01*
X0095797Y0026914D01*
X0095797Y0025440D02*
X0096048Y0025190D01*
X0096048Y0024440D01*
X0096048Y0024940D02*
X0096548Y0025440D01*
X0095797Y0025440D02*
X0095297Y0025440D01*
X0095047Y0025190D01*
X0095047Y0024440D01*
X0096548Y0024440D01*
X0106126Y0047578D02*
X0106126Y0049079D01*
X0106877Y0049079D01*
X0107127Y0048829D01*
X0107127Y0048329D01*
X0106877Y0048078D01*
X0106126Y0048078D01*
X0106627Y0048078D02*
X0107127Y0047578D01*
X0107600Y0047828D02*
X0107850Y0047578D01*
X0108350Y0047578D01*
X0108600Y0047828D01*
X0108600Y0048329D01*
X0108100Y0048329D01*
X0108600Y0048829D02*
X0108350Y0049079D01*
X0107850Y0049079D01*
X0107600Y0048829D01*
X0107600Y0047828D01*
X0109073Y0047578D02*
X0109073Y0049079D01*
X0109823Y0049079D01*
X0110074Y0048829D01*
X0110074Y0048329D01*
X0109823Y0048078D01*
X0109073Y0048078D01*
X0109573Y0048078D02*
X0110074Y0047578D01*
X0109823Y0055452D02*
X0110074Y0055702D01*
X0110074Y0056703D01*
X0109823Y0056953D01*
X0109073Y0056953D01*
X0109073Y0055452D01*
X0109823Y0055452D01*
X0108600Y0055452D02*
X0107600Y0055452D01*
X0107600Y0056953D01*
X0108600Y0056953D01*
X0108100Y0056203D02*
X0107600Y0056203D01*
X0107127Y0056203D02*
X0106877Y0055952D01*
X0106126Y0055952D01*
X0106126Y0055452D02*
X0106126Y0056953D01*
X0106877Y0056953D01*
X0107127Y0056703D01*
X0107127Y0056203D01*
X0106627Y0055952D02*
X0107127Y0055452D01*
X0105654Y0055202D02*
X0104653Y0055202D01*
X0104181Y0055452D02*
X0103680Y0055952D01*
X0103930Y0055952D02*
X0103180Y0055952D01*
X0103180Y0055452D02*
X0103180Y0056953D01*
X0103930Y0056953D01*
X0104181Y0056703D01*
X0104181Y0056203D01*
X0103930Y0055952D01*
X0072700Y0029503D02*
X0072450Y0029753D01*
X0071949Y0029753D01*
X0071949Y0029253D01*
X0071449Y0029753D02*
X0071199Y0029503D01*
X0071199Y0029003D01*
X0071449Y0028752D01*
X0072450Y0028752D01*
X0072700Y0029003D01*
X0072700Y0029503D01*
X0072450Y0028280D02*
X0071949Y0028280D01*
X0071949Y0027780D01*
X0071449Y0028280D02*
X0071199Y0028030D01*
X0071199Y0027529D01*
X0071449Y0027279D01*
X0072450Y0027279D01*
X0072700Y0027529D01*
X0072700Y0028030D01*
X0072450Y0028280D01*
X0072700Y0026807D02*
X0072200Y0026306D01*
X0072200Y0026557D02*
X0072200Y0025806D01*
X0072700Y0025806D02*
X0071199Y0025806D01*
X0071199Y0026557D01*
X0071449Y0026807D01*
X0071949Y0026807D01*
X0072200Y0026557D01*
X0049078Y0037617D02*
X0047577Y0037617D01*
X0047577Y0038368D01*
X0047827Y0038618D01*
X0048327Y0038618D01*
X0048578Y0038368D01*
X0048578Y0037617D01*
X0048578Y0038117D02*
X0049078Y0038618D01*
X0049078Y0039090D02*
X0047577Y0039090D01*
X0047577Y0039841D01*
X0047827Y0040091D01*
X0048327Y0040091D01*
X0048578Y0039841D01*
X0048578Y0039090D01*
X0049078Y0040563D02*
X0047577Y0040563D01*
X0047577Y0041314D01*
X0047827Y0041564D01*
X0048828Y0041564D01*
X0049078Y0041314D01*
X0049078Y0040563D01*
X0049328Y0042037D02*
X0049328Y0043038D01*
X0049078Y0043510D02*
X0047577Y0043510D01*
X0047577Y0044261D01*
X0047827Y0044511D01*
X0048327Y0044511D01*
X0048578Y0044261D01*
X0048578Y0043510D01*
X0048578Y0044010D02*
X0049078Y0044511D01*
X0041204Y0049428D02*
X0039703Y0049428D01*
X0039703Y0050179D01*
X0039953Y0050429D01*
X0040453Y0050429D01*
X0040704Y0050179D01*
X0040704Y0049428D01*
X0040704Y0049928D02*
X0041204Y0050429D01*
X0041454Y0050901D02*
X0041454Y0051902D01*
X0041204Y0052374D02*
X0041204Y0053125D01*
X0040954Y0053375D01*
X0040704Y0053375D01*
X0040453Y0053125D01*
X0040453Y0052374D01*
X0039703Y0052374D02*
X0041204Y0052374D01*
X0040453Y0053125D02*
X0040203Y0053375D01*
X0039953Y0053375D01*
X0039703Y0053125D01*
X0039703Y0052374D01*
X0039703Y0053848D02*
X0041204Y0053848D01*
X0041204Y0054849D01*
X0040954Y0055321D02*
X0041204Y0055571D01*
X0041204Y0056072D01*
X0040954Y0056322D01*
X0039703Y0056322D01*
X0039703Y0056794D02*
X0041204Y0056794D01*
X0041204Y0057795D01*
X0040453Y0057295D02*
X0040453Y0056794D01*
X0039703Y0056794D02*
X0039703Y0057795D01*
X0039703Y0055321D02*
X0040954Y0055321D01*
X0055677Y0074630D02*
X0055677Y0075381D01*
X0055927Y0075631D01*
X0056427Y0075631D01*
X0056678Y0075381D01*
X0056678Y0074630D01*
X0057178Y0074630D02*
X0055677Y0074630D01*
X0056678Y0075131D02*
X0057178Y0075631D01*
X0056928Y0076103D02*
X0057178Y0076354D01*
X0057178Y0076854D01*
X0056928Y0077104D01*
X0056427Y0077104D01*
X0056427Y0076604D01*
X0055927Y0077104D02*
X0055677Y0076854D01*
X0055677Y0076354D01*
X0055927Y0076103D01*
X0056928Y0076103D01*
X0057178Y0077577D02*
X0055677Y0077577D01*
X0055677Y0078327D01*
X0055927Y0078578D01*
X0056177Y0078578D01*
X0056427Y0078327D01*
X0056427Y0077577D01*
X0056427Y0078327D02*
X0056678Y0078578D01*
X0056928Y0078578D01*
X0057178Y0078327D01*
X0057178Y0077577D01*
X0057178Y0087432D02*
X0055677Y0087432D01*
X0055677Y0088182D01*
X0055927Y0088433D01*
X0056427Y0088433D01*
X0056678Y0088182D01*
X0056678Y0087432D01*
X0056678Y0087932D02*
X0057178Y0088433D01*
X0057178Y0088905D02*
X0055677Y0088905D01*
X0055677Y0089656D01*
X0055927Y0089906D01*
X0056427Y0089906D01*
X0056678Y0089656D01*
X0056678Y0088905D01*
X0057178Y0090378D02*
X0055677Y0090378D01*
X0055677Y0091129D01*
X0055927Y0091379D01*
X0056928Y0091379D01*
X0057178Y0091129D01*
X0057178Y0090378D01*
X0057428Y0091852D02*
X0057428Y0092852D01*
X0057178Y0093325D02*
X0057178Y0094075D01*
X0056928Y0094326D01*
X0056678Y0094326D01*
X0056427Y0094075D01*
X0056427Y0093325D01*
X0055677Y0093325D02*
X0057178Y0093325D01*
X0056427Y0094075D02*
X0056177Y0094326D01*
X0055927Y0094326D01*
X0055677Y0094075D01*
X0055677Y0093325D01*
X0063614Y0060580D02*
X0063864Y0060580D01*
X0064114Y0060329D01*
X0064365Y0060580D01*
X0064615Y0060580D01*
X0064865Y0060329D01*
X0064865Y0059829D01*
X0064615Y0059579D01*
X0064615Y0059106D02*
X0063614Y0059106D01*
X0063364Y0058856D01*
X0063364Y0058356D01*
X0063614Y0058105D01*
X0064615Y0058105D01*
X0064865Y0058356D01*
X0064865Y0058856D01*
X0064615Y0059106D01*
X0064865Y0059106D02*
X0064365Y0058606D01*
X0063614Y0059579D02*
X0063364Y0059829D01*
X0063364Y0060329D01*
X0063614Y0060580D01*
X0064114Y0060329D02*
X0064114Y0060079D01*
D15*
X0054740Y0074819D02*
X0054740Y0077181D01*
X0050016Y0077181D02*
X0050016Y0074819D01*
X0050016Y0090567D02*
X0050016Y0092929D01*
X0054740Y0092929D02*
X0054740Y0090567D01*
X0046866Y0053559D02*
X0046866Y0051197D01*
X0042142Y0051197D02*
X0042142Y0053559D01*
X0050016Y0041748D02*
X0050016Y0039386D01*
X0054740Y0039386D02*
X0054740Y0041748D01*
X0073638Y0029937D02*
X0073638Y0027575D01*
X0078362Y0027575D02*
X0078362Y0029937D01*
X0089386Y0029937D02*
X0089386Y0027575D01*
X0094110Y0027575D02*
X0094110Y0029937D01*
X0106315Y0038205D02*
X0108677Y0038205D01*
X0108677Y0042929D02*
X0106315Y0042929D01*
X0106315Y0050016D02*
X0108677Y0050016D01*
X0108677Y0054740D02*
X0106315Y0054740D01*
X0106315Y0057890D02*
X0108677Y0057890D01*
X0108677Y0062614D02*
X0106315Y0062614D01*
D16*
X0094347Y0081270D02*
X0090510Y0081270D01*
X0090510Y0084339D02*
X0094347Y0084339D01*
X0095114Y0083572D01*
X0095114Y0082037D01*
X0094347Y0081270D01*
X0094347Y0085874D02*
X0095114Y0086641D01*
X0095114Y0088176D01*
X0094347Y0088943D01*
X0093580Y0088943D01*
X0092812Y0088176D01*
X0092812Y0086641D01*
X0092045Y0085874D01*
X0091278Y0085874D01*
X0090510Y0086641D01*
X0090510Y0088176D01*
X0091278Y0088943D01*
X0092045Y0090478D02*
X0090510Y0092013D01*
X0095114Y0092013D01*
X0095114Y0093547D02*
X0095114Y0090478D01*
X0095881Y0087409D02*
X0089743Y0087409D01*
M02*
