G75*
%MOIN*%
%OFA0B0*%
%FSLAX25Y25*%
%IPPOS*%
%LPD*%
%AMOC8*
5,1,8,0,0,1.08239X$1,22.5*
%
%ADD10C,0.07400*%
%ADD11R,0.03543X0.03150*%
%ADD12R,0.03150X0.03543*%
%ADD13R,0.04724X0.03150*%
%ADD14R,0.03150X0.04724*%
%ADD15R,0.04331X0.05118*%
%ADD16R,0.12598X0.10630*%
%ADD17C,0.00394*%
%ADD18C,0.01181*%
%ADD19C,0.04000*%
%ADD20C,0.01969*%
D10*
X0032373Y0032795D03*
X0032373Y0042795D03*
X0032373Y0052795D03*
X0032373Y0062795D03*
X0032373Y0072795D03*
X0127202Y0072657D03*
X0127202Y0062657D03*
X0127202Y0052657D03*
X0127202Y0042657D03*
X0127202Y0032657D03*
X0127202Y0082657D03*
D11*
X0095685Y0060055D03*
X0095685Y0052575D03*
X0087417Y0056315D03*
X0060646Y0057752D03*
X0052378Y0061492D03*
X0052378Y0054012D03*
D12*
X0076197Y0040567D03*
X0083677Y0040567D03*
X0079937Y0048835D03*
D13*
X0076000Y0032299D03*
X0076000Y0025213D03*
X0091748Y0025213D03*
X0091748Y0032299D03*
X0052378Y0037024D03*
X0052378Y0044110D03*
X0044504Y0048835D03*
X0044504Y0055921D03*
X0052378Y0072457D03*
X0052378Y0079543D03*
X0052378Y0088205D03*
X0052378Y0095291D03*
D14*
X0103953Y0060252D03*
X0111039Y0060252D03*
X0111039Y0052378D03*
X0103953Y0052378D03*
X0103953Y0040567D03*
X0111039Y0040567D03*
D15*
X0086236Y0065665D03*
X0079937Y0065665D03*
X0073638Y0065665D03*
X0067338Y0065646D03*
X0067338Y0091846D03*
X0073638Y0091846D03*
X0079937Y0091846D03*
X0086236Y0091846D03*
D16*
X0076706Y0078756D03*
D17*
X0001197Y0001197D02*
X0001197Y0158677D01*
X0067849Y0158677D01*
X0063962Y0157067D01*
X0058439Y0153377D01*
X0056490Y0151428D01*
X0048628Y0148495D01*
X0048628Y0148495D01*
X0039189Y0143342D01*
X0030581Y0136897D01*
X0030581Y0136897D01*
X0022977Y0129293D01*
X0016532Y0120685D01*
X0011379Y0111246D01*
X0007621Y0101171D01*
X0005335Y0090663D01*
X0004568Y0079937D01*
X0005335Y0069211D01*
X0005335Y0069211D01*
X0007621Y0058703D01*
X0011379Y0048628D01*
X0011379Y0048628D01*
X0016532Y0039189D01*
X0022977Y0030581D01*
X0022977Y0030581D01*
X0030581Y0022977D01*
X0039189Y0016532D01*
X0048628Y0011379D01*
X0058703Y0007621D01*
X0069211Y0005335D01*
X0079937Y0004568D01*
X0090663Y0005335D01*
X0090663Y0005335D01*
X0101171Y0007621D01*
X0111246Y0011379D01*
X0120685Y0016532D01*
X0129293Y0022977D01*
X0136897Y0030581D01*
X0143342Y0039189D01*
X0148495Y0048628D01*
X0152253Y0058703D01*
X0154539Y0069211D01*
X0155306Y0079937D01*
X0155306Y0079937D01*
X0154539Y0090663D01*
X0152253Y0101171D01*
X0148495Y0111246D01*
X0143342Y0120685D01*
X0136897Y0129293D01*
X0129293Y0136897D01*
X0120685Y0143342D01*
X0111246Y0148495D01*
X0103384Y0151428D01*
X0101435Y0153377D01*
X0095912Y0157067D01*
X0092025Y0158677D01*
X0158677Y0158677D01*
X0158677Y0001197D01*
X0001197Y0001197D01*
X0001197Y0001286D02*
X0158677Y0001286D01*
X0158677Y0001678D02*
X0001197Y0001678D01*
X0001197Y0002071D02*
X0158677Y0002071D01*
X0158677Y0002463D02*
X0001197Y0002463D01*
X0001197Y0002855D02*
X0158677Y0002855D01*
X0158677Y0003247D02*
X0001197Y0003247D01*
X0001197Y0003639D02*
X0158677Y0003639D01*
X0158677Y0004032D02*
X0001197Y0004032D01*
X0001197Y0004424D02*
X0158677Y0004424D01*
X0158677Y0004816D02*
X0083407Y0004816D01*
X0079937Y0004568D02*
X0079937Y0004568D01*
X0076467Y0004816D02*
X0001197Y0004816D01*
X0001197Y0005208D02*
X0070983Y0005208D01*
X0069211Y0005335D02*
X0069211Y0005335D01*
X0067991Y0005601D02*
X0001197Y0005601D01*
X0001197Y0005993D02*
X0066188Y0005993D01*
X0064385Y0006385D02*
X0001197Y0006385D01*
X0001197Y0006777D02*
X0062582Y0006777D01*
X0060779Y0007169D02*
X0001197Y0007169D01*
X0001197Y0007562D02*
X0058976Y0007562D01*
X0058703Y0007621D02*
X0058703Y0007621D01*
X0057810Y0007954D02*
X0001197Y0007954D01*
X0001197Y0008346D02*
X0056759Y0008346D01*
X0055707Y0008738D02*
X0001197Y0008738D01*
X0001197Y0009130D02*
X0054656Y0009130D01*
X0053604Y0009523D02*
X0001197Y0009523D01*
X0001197Y0009915D02*
X0052553Y0009915D01*
X0051501Y0010307D02*
X0001197Y0010307D01*
X0001197Y0010699D02*
X0050450Y0010699D01*
X0049398Y0011091D02*
X0001197Y0011091D01*
X0001197Y0011484D02*
X0048436Y0011484D01*
X0048628Y0011379D02*
X0048628Y0011379D01*
X0047717Y0011876D02*
X0001197Y0011876D01*
X0001197Y0012268D02*
X0046999Y0012268D01*
X0046281Y0012660D02*
X0001197Y0012660D01*
X0001197Y0013053D02*
X0045562Y0013053D01*
X0044844Y0013445D02*
X0001197Y0013445D01*
X0001197Y0013837D02*
X0044126Y0013837D01*
X0043408Y0014229D02*
X0001197Y0014229D01*
X0001197Y0014621D02*
X0042689Y0014621D01*
X0041971Y0015014D02*
X0001197Y0015014D01*
X0001197Y0015406D02*
X0041253Y0015406D01*
X0040534Y0015798D02*
X0001197Y0015798D01*
X0001197Y0016190D02*
X0039816Y0016190D01*
X0039189Y0016532D02*
X0039189Y0016532D01*
X0039123Y0016582D02*
X0001197Y0016582D01*
X0001197Y0016975D02*
X0038599Y0016975D01*
X0038075Y0017367D02*
X0001197Y0017367D01*
X0001197Y0017759D02*
X0037551Y0017759D01*
X0037027Y0018151D02*
X0001197Y0018151D01*
X0001197Y0018544D02*
X0036503Y0018544D01*
X0035979Y0018936D02*
X0001197Y0018936D01*
X0001197Y0019328D02*
X0035455Y0019328D01*
X0034931Y0019720D02*
X0001197Y0019720D01*
X0001197Y0020112D02*
X0034407Y0020112D01*
X0033883Y0020505D02*
X0001197Y0020505D01*
X0001197Y0020897D02*
X0033359Y0020897D01*
X0032835Y0021289D02*
X0001197Y0021289D01*
X0001197Y0021681D02*
X0032311Y0021681D01*
X0031788Y0022073D02*
X0001197Y0022073D01*
X0001197Y0022466D02*
X0031264Y0022466D01*
X0030740Y0022858D02*
X0001197Y0022858D01*
X0001197Y0023250D02*
X0030307Y0023250D01*
X0030581Y0022977D02*
X0030581Y0022977D01*
X0029915Y0023642D02*
X0001197Y0023642D01*
X0001197Y0024034D02*
X0029523Y0024034D01*
X0029131Y0024427D02*
X0001197Y0024427D01*
X0001197Y0024819D02*
X0028739Y0024819D01*
X0028346Y0025211D02*
X0001197Y0025211D01*
X0001197Y0025603D02*
X0027954Y0025603D01*
X0027562Y0025996D02*
X0001197Y0025996D01*
X0001197Y0026388D02*
X0027170Y0026388D01*
X0026778Y0026780D02*
X0001197Y0026780D01*
X0001197Y0027172D02*
X0026385Y0027172D01*
X0025993Y0027564D02*
X0001197Y0027564D01*
X0001197Y0027957D02*
X0025601Y0027957D01*
X0025209Y0028349D02*
X0001197Y0028349D01*
X0001197Y0028741D02*
X0024817Y0028741D01*
X0024424Y0029133D02*
X0001197Y0029133D01*
X0001197Y0029525D02*
X0024032Y0029525D01*
X0023640Y0029918D02*
X0001197Y0029918D01*
X0001197Y0030310D02*
X0023248Y0030310D01*
X0022886Y0030702D02*
X0001197Y0030702D01*
X0001197Y0031094D02*
X0022592Y0031094D01*
X0022299Y0031487D02*
X0001197Y0031487D01*
X0001197Y0031879D02*
X0022005Y0031879D01*
X0021712Y0032271D02*
X0001197Y0032271D01*
X0001197Y0032663D02*
X0021418Y0032663D01*
X0021124Y0033055D02*
X0001197Y0033055D01*
X0001197Y0033448D02*
X0020831Y0033448D01*
X0020537Y0033840D02*
X0001197Y0033840D01*
X0001197Y0034232D02*
X0020244Y0034232D01*
X0019950Y0034624D02*
X0001197Y0034624D01*
X0001197Y0035016D02*
X0019656Y0035016D01*
X0019363Y0035409D02*
X0001197Y0035409D01*
X0001197Y0035801D02*
X0019069Y0035801D01*
X0018775Y0036193D02*
X0001197Y0036193D01*
X0001197Y0036585D02*
X0018482Y0036585D01*
X0018188Y0036977D02*
X0001197Y0036977D01*
X0001197Y0037370D02*
X0017895Y0037370D01*
X0017601Y0037762D02*
X0001197Y0037762D01*
X0001197Y0038154D02*
X0017307Y0038154D01*
X0017014Y0038546D02*
X0001197Y0038546D01*
X0001197Y0038939D02*
X0016720Y0038939D01*
X0016532Y0039189D02*
X0016532Y0039189D01*
X0016455Y0039331D02*
X0001197Y0039331D01*
X0001197Y0039723D02*
X0016241Y0039723D01*
X0016027Y0040115D02*
X0001197Y0040115D01*
X0001197Y0040507D02*
X0015813Y0040507D01*
X0015599Y0040900D02*
X0001197Y0040900D01*
X0001197Y0041292D02*
X0015384Y0041292D01*
X0015170Y0041684D02*
X0001197Y0041684D01*
X0001197Y0042076D02*
X0014956Y0042076D01*
X0014742Y0042468D02*
X0001197Y0042468D01*
X0001197Y0042861D02*
X0014528Y0042861D01*
X0014314Y0043253D02*
X0001197Y0043253D01*
X0001197Y0043645D02*
X0014099Y0043645D01*
X0013885Y0044037D02*
X0001197Y0044037D01*
X0001197Y0044430D02*
X0013671Y0044430D01*
X0013457Y0044822D02*
X0001197Y0044822D01*
X0001197Y0045214D02*
X0013243Y0045214D01*
X0013029Y0045606D02*
X0001197Y0045606D01*
X0001197Y0045998D02*
X0012814Y0045998D01*
X0012600Y0046391D02*
X0001197Y0046391D01*
X0001197Y0046783D02*
X0012386Y0046783D01*
X0012172Y0047175D02*
X0001197Y0047175D01*
X0001197Y0047567D02*
X0011958Y0047567D01*
X0011744Y0047959D02*
X0001197Y0047959D01*
X0001197Y0048352D02*
X0011529Y0048352D01*
X0011335Y0048744D02*
X0001197Y0048744D01*
X0001197Y0049136D02*
X0011189Y0049136D01*
X0011043Y0049528D02*
X0001197Y0049528D01*
X0001197Y0049920D02*
X0010897Y0049920D01*
X0010750Y0050313D02*
X0001197Y0050313D01*
X0001197Y0050705D02*
X0010604Y0050705D01*
X0010458Y0051097D02*
X0001197Y0051097D01*
X0001197Y0051489D02*
X0010311Y0051489D01*
X0010165Y0051882D02*
X0001197Y0051882D01*
X0001197Y0052274D02*
X0010019Y0052274D01*
X0009873Y0052666D02*
X0001197Y0052666D01*
X0001197Y0053058D02*
X0009726Y0053058D01*
X0009580Y0053450D02*
X0001197Y0053450D01*
X0001197Y0053843D02*
X0009434Y0053843D01*
X0009287Y0054235D02*
X0001197Y0054235D01*
X0001197Y0054627D02*
X0009141Y0054627D01*
X0008995Y0055019D02*
X0001197Y0055019D01*
X0001197Y0055411D02*
X0008849Y0055411D01*
X0008702Y0055804D02*
X0001197Y0055804D01*
X0001197Y0056196D02*
X0008556Y0056196D01*
X0008410Y0056588D02*
X0001197Y0056588D01*
X0001197Y0056980D02*
X0008263Y0056980D01*
X0008117Y0057373D02*
X0001197Y0057373D01*
X0001197Y0057765D02*
X0007971Y0057765D01*
X0007825Y0058157D02*
X0001197Y0058157D01*
X0001197Y0058549D02*
X0007678Y0058549D01*
X0007621Y0058703D02*
X0007621Y0058703D01*
X0007569Y0058941D02*
X0001197Y0058941D01*
X0001197Y0059334D02*
X0007484Y0059334D01*
X0007398Y0059726D02*
X0001197Y0059726D01*
X0001197Y0060118D02*
X0007313Y0060118D01*
X0007228Y0060510D02*
X0001197Y0060510D01*
X0001197Y0060902D02*
X0007142Y0060902D01*
X0007057Y0061295D02*
X0001197Y0061295D01*
X0001197Y0061687D02*
X0006972Y0061687D01*
X0006886Y0062079D02*
X0001197Y0062079D01*
X0001197Y0062471D02*
X0006801Y0062471D01*
X0006716Y0062863D02*
X0001197Y0062863D01*
X0001197Y0063256D02*
X0006630Y0063256D01*
X0006545Y0063648D02*
X0001197Y0063648D01*
X0001197Y0064040D02*
X0006460Y0064040D01*
X0006375Y0064432D02*
X0001197Y0064432D01*
X0001197Y0064825D02*
X0006289Y0064825D01*
X0006204Y0065217D02*
X0001197Y0065217D01*
X0001197Y0065609D02*
X0006119Y0065609D01*
X0006033Y0066001D02*
X0001197Y0066001D01*
X0001197Y0066393D02*
X0005948Y0066393D01*
X0005863Y0066786D02*
X0001197Y0066786D01*
X0001197Y0067178D02*
X0005777Y0067178D01*
X0005692Y0067570D02*
X0001197Y0067570D01*
X0001197Y0067962D02*
X0005607Y0067962D01*
X0005521Y0068354D02*
X0001197Y0068354D01*
X0001197Y0068747D02*
X0005436Y0068747D01*
X0005351Y0069139D02*
X0001197Y0069139D01*
X0001197Y0069531D02*
X0005312Y0069531D01*
X0005284Y0069923D02*
X0001197Y0069923D01*
X0001197Y0070316D02*
X0005256Y0070316D01*
X0005228Y0070708D02*
X0001197Y0070708D01*
X0001197Y0071100D02*
X0005200Y0071100D01*
X0005172Y0071492D02*
X0001197Y0071492D01*
X0001197Y0071884D02*
X0005144Y0071884D01*
X0005116Y0072277D02*
X0001197Y0072277D01*
X0001197Y0072669D02*
X0005088Y0072669D01*
X0005060Y0073061D02*
X0001197Y0073061D01*
X0001197Y0073453D02*
X0005032Y0073453D01*
X0005004Y0073845D02*
X0001197Y0073845D01*
X0001197Y0074238D02*
X0004976Y0074238D01*
X0004947Y0074630D02*
X0001197Y0074630D01*
X0001197Y0075022D02*
X0004919Y0075022D01*
X0004891Y0075414D02*
X0001197Y0075414D01*
X0001197Y0075806D02*
X0004863Y0075806D01*
X0004835Y0076199D02*
X0001197Y0076199D01*
X0001197Y0076591D02*
X0004807Y0076591D01*
X0004779Y0076983D02*
X0001197Y0076983D01*
X0001197Y0077375D02*
X0004751Y0077375D01*
X0004723Y0077768D02*
X0001197Y0077768D01*
X0001197Y0078160D02*
X0004695Y0078160D01*
X0004667Y0078552D02*
X0001197Y0078552D01*
X0001197Y0078944D02*
X0004639Y0078944D01*
X0004611Y0079336D02*
X0001197Y0079336D01*
X0001197Y0079729D02*
X0004583Y0079729D01*
X0004568Y0079937D02*
X0004568Y0079937D01*
X0004581Y0080121D02*
X0001197Y0080121D01*
X0001197Y0080513D02*
X0004609Y0080513D01*
X0004637Y0080905D02*
X0001197Y0080905D01*
X0001197Y0081297D02*
X0004665Y0081297D01*
X0004693Y0081690D02*
X0001197Y0081690D01*
X0001197Y0082082D02*
X0004721Y0082082D01*
X0004749Y0082474D02*
X0001197Y0082474D01*
X0001197Y0082866D02*
X0004777Y0082866D01*
X0004805Y0083259D02*
X0001197Y0083259D01*
X0001197Y0083651D02*
X0004834Y0083651D01*
X0004862Y0084043D02*
X0001197Y0084043D01*
X0001197Y0084435D02*
X0004890Y0084435D01*
X0004918Y0084827D02*
X0001197Y0084827D01*
X0001197Y0085220D02*
X0004946Y0085220D01*
X0004974Y0085612D02*
X0001197Y0085612D01*
X0001197Y0086004D02*
X0005002Y0086004D01*
X0005030Y0086396D02*
X0001197Y0086396D01*
X0001197Y0086788D02*
X0005058Y0086788D01*
X0005086Y0087181D02*
X0001197Y0087181D01*
X0001197Y0087573D02*
X0005114Y0087573D01*
X0005142Y0087965D02*
X0001197Y0087965D01*
X0001197Y0088357D02*
X0005170Y0088357D01*
X0005198Y0088749D02*
X0001197Y0088749D01*
X0001197Y0089142D02*
X0005226Y0089142D01*
X0005254Y0089534D02*
X0001197Y0089534D01*
X0001197Y0089926D02*
X0005282Y0089926D01*
X0005310Y0090318D02*
X0001197Y0090318D01*
X0001197Y0090711D02*
X0005345Y0090711D01*
X0005335Y0090663D02*
X0005335Y0090663D01*
X0005431Y0091103D02*
X0001197Y0091103D01*
X0001197Y0091495D02*
X0005516Y0091495D01*
X0005601Y0091887D02*
X0001197Y0091887D01*
X0001197Y0092279D02*
X0005687Y0092279D01*
X0005772Y0092672D02*
X0001197Y0092672D01*
X0001197Y0093064D02*
X0005857Y0093064D01*
X0005943Y0093456D02*
X0001197Y0093456D01*
X0001197Y0093848D02*
X0006028Y0093848D01*
X0006113Y0094240D02*
X0001197Y0094240D01*
X0001197Y0094633D02*
X0006199Y0094633D01*
X0006284Y0095025D02*
X0001197Y0095025D01*
X0001197Y0095417D02*
X0006369Y0095417D01*
X0006455Y0095809D02*
X0001197Y0095809D01*
X0001197Y0096202D02*
X0006540Y0096202D01*
X0006625Y0096594D02*
X0001197Y0096594D01*
X0001197Y0096986D02*
X0006710Y0096986D01*
X0006796Y0097378D02*
X0001197Y0097378D01*
X0001197Y0097770D02*
X0006881Y0097770D01*
X0006966Y0098163D02*
X0001197Y0098163D01*
X0001197Y0098555D02*
X0007052Y0098555D01*
X0007137Y0098947D02*
X0001197Y0098947D01*
X0001197Y0099339D02*
X0007222Y0099339D01*
X0007308Y0099731D02*
X0001197Y0099731D01*
X0001197Y0100124D02*
X0007393Y0100124D01*
X0007478Y0100516D02*
X0001197Y0100516D01*
X0001197Y0100908D02*
X0007564Y0100908D01*
X0007621Y0101171D02*
X0007621Y0101171D01*
X0007669Y0101300D02*
X0001197Y0101300D01*
X0001197Y0101692D02*
X0007815Y0101692D01*
X0007962Y0102085D02*
X0001197Y0102085D01*
X0001197Y0102477D02*
X0008108Y0102477D01*
X0008254Y0102869D02*
X0001197Y0102869D01*
X0001197Y0103261D02*
X0008401Y0103261D01*
X0008547Y0103654D02*
X0001197Y0103654D01*
X0001197Y0104046D02*
X0008693Y0104046D01*
X0008839Y0104438D02*
X0001197Y0104438D01*
X0001197Y0104830D02*
X0008986Y0104830D01*
X0009132Y0105222D02*
X0001197Y0105222D01*
X0001197Y0105615D02*
X0009278Y0105615D01*
X0009425Y0106007D02*
X0001197Y0106007D01*
X0001197Y0106399D02*
X0009571Y0106399D01*
X0009717Y0106791D02*
X0001197Y0106791D01*
X0001197Y0107183D02*
X0009863Y0107183D01*
X0010010Y0107576D02*
X0001197Y0107576D01*
X0001197Y0107968D02*
X0010156Y0107968D01*
X0010302Y0108360D02*
X0001197Y0108360D01*
X0001197Y0108752D02*
X0010449Y0108752D01*
X0010595Y0109145D02*
X0001197Y0109145D01*
X0001197Y0109537D02*
X0010741Y0109537D01*
X0010887Y0109929D02*
X0001197Y0109929D01*
X0001197Y0110321D02*
X0011034Y0110321D01*
X0011180Y0110713D02*
X0001197Y0110713D01*
X0001197Y0111106D02*
X0011326Y0111106D01*
X0011379Y0111246D02*
X0011379Y0111246D01*
X0011516Y0111498D02*
X0001197Y0111498D01*
X0001197Y0111890D02*
X0011730Y0111890D01*
X0011944Y0112282D02*
X0001197Y0112282D01*
X0001197Y0112674D02*
X0012159Y0112674D01*
X0012373Y0113067D02*
X0001197Y0113067D01*
X0001197Y0113459D02*
X0012587Y0113459D01*
X0012801Y0113851D02*
X0001197Y0113851D01*
X0001197Y0114243D02*
X0013015Y0114243D01*
X0013229Y0114635D02*
X0001197Y0114635D01*
X0001197Y0115028D02*
X0013444Y0115028D01*
X0013658Y0115420D02*
X0001197Y0115420D01*
X0001197Y0115812D02*
X0013872Y0115812D01*
X0014086Y0116204D02*
X0001197Y0116204D01*
X0001197Y0116597D02*
X0014300Y0116597D01*
X0014514Y0116989D02*
X0001197Y0116989D01*
X0001197Y0117381D02*
X0014729Y0117381D01*
X0014943Y0117773D02*
X0001197Y0117773D01*
X0001197Y0118165D02*
X0015157Y0118165D01*
X0015371Y0118558D02*
X0001197Y0118558D01*
X0001197Y0118950D02*
X0015585Y0118950D01*
X0015799Y0119342D02*
X0001197Y0119342D01*
X0001197Y0119734D02*
X0016014Y0119734D01*
X0016228Y0120126D02*
X0001197Y0120126D01*
X0001197Y0120519D02*
X0016442Y0120519D01*
X0016532Y0120685D02*
X0016532Y0120685D01*
X0016702Y0120911D02*
X0001197Y0120911D01*
X0001197Y0121303D02*
X0016995Y0121303D01*
X0017289Y0121695D02*
X0001197Y0121695D01*
X0001197Y0122087D02*
X0017583Y0122087D01*
X0017876Y0122480D02*
X0001197Y0122480D01*
X0001197Y0122872D02*
X0018170Y0122872D01*
X0018463Y0123264D02*
X0001197Y0123264D01*
X0001197Y0123656D02*
X0018757Y0123656D01*
X0019051Y0124049D02*
X0001197Y0124049D01*
X0001197Y0124441D02*
X0019344Y0124441D01*
X0019638Y0124833D02*
X0001197Y0124833D01*
X0001197Y0125225D02*
X0019932Y0125225D01*
X0020225Y0125617D02*
X0001197Y0125617D01*
X0001197Y0126010D02*
X0020519Y0126010D01*
X0020812Y0126402D02*
X0001197Y0126402D01*
X0001197Y0126794D02*
X0021106Y0126794D01*
X0021400Y0127186D02*
X0001197Y0127186D01*
X0001197Y0127578D02*
X0021693Y0127578D01*
X0021987Y0127971D02*
X0001197Y0127971D01*
X0001197Y0128363D02*
X0022280Y0128363D01*
X0022574Y0128755D02*
X0001197Y0128755D01*
X0001197Y0129147D02*
X0022868Y0129147D01*
X0022977Y0129293D02*
X0022977Y0129293D01*
X0023223Y0129540D02*
X0001197Y0129540D01*
X0001197Y0129932D02*
X0023615Y0129932D01*
X0024007Y0130324D02*
X0001197Y0130324D01*
X0001197Y0130716D02*
X0024400Y0130716D01*
X0024792Y0131108D02*
X0001197Y0131108D01*
X0001197Y0131501D02*
X0025184Y0131501D01*
X0025576Y0131893D02*
X0001197Y0131893D01*
X0001197Y0132285D02*
X0025969Y0132285D01*
X0026361Y0132677D02*
X0001197Y0132677D01*
X0001197Y0133069D02*
X0026753Y0133069D01*
X0027145Y0133462D02*
X0001197Y0133462D01*
X0001197Y0133854D02*
X0027537Y0133854D01*
X0027930Y0134246D02*
X0001197Y0134246D01*
X0001197Y0134638D02*
X0028322Y0134638D01*
X0028714Y0135030D02*
X0001197Y0135030D01*
X0001197Y0135423D02*
X0029106Y0135423D01*
X0029498Y0135815D02*
X0001197Y0135815D01*
X0001197Y0136207D02*
X0029891Y0136207D01*
X0030283Y0136599D02*
X0001197Y0136599D01*
X0001197Y0136992D02*
X0030707Y0136992D01*
X0031231Y0137384D02*
X0001197Y0137384D01*
X0001197Y0137776D02*
X0031755Y0137776D01*
X0032279Y0138168D02*
X0001197Y0138168D01*
X0001197Y0138560D02*
X0032803Y0138560D01*
X0033326Y0138953D02*
X0001197Y0138953D01*
X0001197Y0139345D02*
X0033850Y0139345D01*
X0034374Y0139737D02*
X0001197Y0139737D01*
X0001197Y0140129D02*
X0034898Y0140129D01*
X0035422Y0140521D02*
X0001197Y0140521D01*
X0001197Y0140914D02*
X0035946Y0140914D01*
X0036470Y0141306D02*
X0001197Y0141306D01*
X0001197Y0141698D02*
X0036994Y0141698D01*
X0037518Y0142090D02*
X0001197Y0142090D01*
X0001197Y0142483D02*
X0038042Y0142483D01*
X0038566Y0142875D02*
X0001197Y0142875D01*
X0001197Y0143267D02*
X0039090Y0143267D01*
X0039189Y0143342D02*
X0039189Y0143342D01*
X0039771Y0143659D02*
X0001197Y0143659D01*
X0001197Y0144051D02*
X0040489Y0144051D01*
X0041208Y0144444D02*
X0001197Y0144444D01*
X0001197Y0144836D02*
X0041926Y0144836D01*
X0042644Y0145228D02*
X0001197Y0145228D01*
X0001197Y0145620D02*
X0043362Y0145620D01*
X0044081Y0146012D02*
X0001197Y0146012D01*
X0001197Y0146405D02*
X0044799Y0146405D01*
X0045517Y0146797D02*
X0001197Y0146797D01*
X0001197Y0147189D02*
X0046236Y0147189D01*
X0046954Y0147581D02*
X0001197Y0147581D01*
X0001197Y0147973D02*
X0047672Y0147973D01*
X0048390Y0148366D02*
X0001197Y0148366D01*
X0001197Y0148758D02*
X0049332Y0148758D01*
X0050384Y0149150D02*
X0001197Y0149150D01*
X0001197Y0149542D02*
X0051435Y0149542D01*
X0052487Y0149935D02*
X0001197Y0149935D01*
X0001197Y0150327D02*
X0053538Y0150327D01*
X0054590Y0150719D02*
X0001197Y0150719D01*
X0001197Y0151111D02*
X0055641Y0151111D01*
X0056566Y0151503D02*
X0001197Y0151503D01*
X0001197Y0151896D02*
X0056958Y0151896D01*
X0057350Y0152288D02*
X0001197Y0152288D01*
X0001197Y0152680D02*
X0057742Y0152680D01*
X0058135Y0153072D02*
X0001197Y0153072D01*
X0001197Y0153464D02*
X0058571Y0153464D01*
X0059158Y0153857D02*
X0001197Y0153857D01*
X0001197Y0154249D02*
X0059745Y0154249D01*
X0060331Y0154641D02*
X0001197Y0154641D01*
X0001197Y0155033D02*
X0060918Y0155033D01*
X0061505Y0155426D02*
X0001197Y0155426D01*
X0001197Y0155818D02*
X0062092Y0155818D01*
X0062679Y0156210D02*
X0001197Y0156210D01*
X0001197Y0156602D02*
X0063266Y0156602D01*
X0063853Y0156994D02*
X0001197Y0156994D01*
X0001197Y0157387D02*
X0064733Y0157387D01*
X0065680Y0157779D02*
X0001197Y0157779D01*
X0001197Y0158171D02*
X0066627Y0158171D01*
X0067574Y0158563D02*
X0001197Y0158563D01*
X0032873Y0126794D02*
X0046213Y0126794D01*
X0046213Y0126402D02*
X0032481Y0126402D01*
X0032089Y0126010D02*
X0046213Y0126010D01*
X0046213Y0125617D02*
X0031697Y0125617D01*
X0031304Y0125225D02*
X0046213Y0125225D01*
X0046213Y0124833D02*
X0030912Y0124833D01*
X0030520Y0124441D02*
X0046213Y0124441D01*
X0046213Y0124049D02*
X0030128Y0124049D01*
X0029735Y0123656D02*
X0046253Y0123656D01*
X0046213Y0123860D02*
X0047509Y0117344D01*
X0050051Y0111207D01*
X0053742Y0105683D01*
X0058439Y0100986D01*
X0063962Y0097295D01*
X0068049Y0095602D01*
X0064677Y0095602D01*
X0063976Y0094901D01*
X0063976Y0089290D01*
X0063386Y0088700D01*
X0063386Y0068811D01*
X0063976Y0068222D01*
X0063976Y0062592D01*
X0064677Y0061891D01*
X0069999Y0061891D01*
X0070497Y0062389D01*
X0070977Y0061909D01*
X0071850Y0061909D01*
X0071850Y0060465D01*
X0062972Y0060465D01*
X0062913Y0060524D01*
X0062612Y0060524D01*
X0062379Y0060639D01*
X0062037Y0060524D01*
X0058378Y0060524D01*
X0057677Y0059823D01*
X0057677Y0055681D01*
X0058378Y0054980D01*
X0062913Y0054980D01*
X0063614Y0055681D01*
X0063614Y0056102D01*
X0074935Y0056102D01*
X0076213Y0057380D01*
X0076213Y0061909D01*
X0076299Y0061909D01*
X0076787Y0062398D01*
X0077276Y0061909D01*
X0077756Y0061909D01*
X0077756Y0051693D01*
X0077165Y0051102D01*
X0077165Y0046567D01*
X0077866Y0045866D01*
X0082008Y0045866D01*
X0082709Y0046567D01*
X0082709Y0051102D01*
X0082118Y0051693D01*
X0082118Y0061909D01*
X0082598Y0061909D01*
X0083087Y0062398D01*
X0083575Y0061909D01*
X0084962Y0061909D01*
X0084962Y0058899D01*
X0084449Y0058386D01*
X0084449Y0054244D01*
X0085150Y0053543D01*
X0089685Y0053543D01*
X0090386Y0054244D01*
X0090386Y0058386D01*
X0089685Y0059087D01*
X0089324Y0059087D01*
X0089324Y0062337D01*
X0089598Y0062611D01*
X0089598Y0068110D01*
X0089882Y0068110D01*
X0090583Y0068811D01*
X0090583Y0088700D01*
X0089882Y0089402D01*
X0089598Y0089402D01*
X0089598Y0089567D01*
X0090520Y0089567D01*
X0090520Y0089144D01*
X0091006Y0087969D01*
X0091906Y0087069D01*
X0093081Y0086583D01*
X0094352Y0086583D01*
X0095527Y0087069D01*
X0096427Y0087969D01*
X0096913Y0089144D01*
X0096913Y0090415D01*
X0096427Y0091590D01*
X0095898Y0092119D01*
X0095898Y0092651D01*
X0094620Y0093929D01*
X0089598Y0093929D01*
X0089598Y0094718D01*
X0089774Y0094753D01*
X0095912Y0097295D01*
X0101435Y0100986D01*
X0106132Y0105683D01*
X0109823Y0111207D01*
X0112365Y0117344D01*
X0113661Y0123860D01*
X0113661Y0130503D01*
X0112365Y0137018D01*
X0111895Y0138155D01*
X0115934Y0135949D01*
X0123539Y0130256D01*
X0130256Y0123539D01*
X0135949Y0115934D01*
X0140502Y0107596D01*
X0143822Y0098695D01*
X0145841Y0089413D01*
X0146519Y0079937D01*
X0145841Y0070461D01*
X0143822Y0061179D01*
X0140502Y0052278D01*
X0135949Y0043940D01*
X0130339Y0036446D01*
X0129976Y0036809D01*
X0128176Y0037554D01*
X0126228Y0037554D01*
X0124428Y0036809D01*
X0123051Y0035431D01*
X0122305Y0033632D01*
X0122305Y0031683D01*
X0123051Y0029884D01*
X0123412Y0029523D01*
X0115934Y0023925D01*
X0107596Y0019372D01*
X0098695Y0016052D01*
X0089413Y0014033D01*
X0079937Y0013355D01*
X0070461Y0014033D01*
X0061179Y0016052D01*
X0052278Y0019372D01*
X0043940Y0023925D01*
X0036335Y0029618D01*
X0036209Y0029744D01*
X0036562Y0030229D01*
X0036912Y0030916D01*
X0037150Y0031649D01*
X0037270Y0032410D01*
X0037270Y0032598D01*
X0033355Y0032598D01*
X0032961Y0032992D01*
X0037270Y0032992D01*
X0037270Y0033181D01*
X0037150Y0033942D01*
X0036912Y0034675D01*
X0036562Y0035362D01*
X0036109Y0035985D01*
X0035564Y0036530D01*
X0034940Y0036983D01*
X0034253Y0037333D01*
X0033520Y0037572D01*
X0032759Y0037692D01*
X0032570Y0037692D01*
X0032570Y0033383D01*
X0032177Y0033777D01*
X0032177Y0037692D01*
X0031988Y0037692D01*
X0031227Y0037572D01*
X0030494Y0037333D01*
X0029807Y0036983D01*
X0029370Y0036666D01*
X0023925Y0043940D01*
X0019372Y0052278D01*
X0016052Y0061179D01*
X0014033Y0070461D01*
X0013355Y0079937D01*
X0014033Y0089413D01*
X0016052Y0098695D01*
X0019372Y0107596D01*
X0023925Y0115934D01*
X0029618Y0123539D01*
X0036335Y0130256D01*
X0043940Y0135949D01*
X0047979Y0138155D01*
X0047509Y0137018D01*
X0046213Y0130503D01*
X0046213Y0123860D01*
X0046331Y0123264D02*
X0029412Y0123264D01*
X0029119Y0122872D02*
X0046409Y0122872D01*
X0046487Y0122480D02*
X0028825Y0122480D01*
X0028531Y0122087D02*
X0046565Y0122087D01*
X0046643Y0121695D02*
X0028238Y0121695D01*
X0027944Y0121303D02*
X0046721Y0121303D01*
X0046799Y0120911D02*
X0027651Y0120911D01*
X0027357Y0120519D02*
X0046877Y0120519D01*
X0046955Y0120126D02*
X0027063Y0120126D01*
X0026770Y0119734D02*
X0047033Y0119734D01*
X0047111Y0119342D02*
X0026476Y0119342D01*
X0026183Y0118950D02*
X0047189Y0118950D01*
X0047267Y0118558D02*
X0025889Y0118558D01*
X0025595Y0118165D02*
X0047345Y0118165D01*
X0047423Y0117773D02*
X0025302Y0117773D01*
X0025008Y0117381D02*
X0047501Y0117381D01*
X0047656Y0116989D02*
X0024715Y0116989D01*
X0024421Y0116597D02*
X0047818Y0116597D01*
X0047981Y0116204D02*
X0024127Y0116204D01*
X0023858Y0115812D02*
X0048143Y0115812D01*
X0048306Y0115420D02*
X0023644Y0115420D01*
X0023430Y0115028D02*
X0048468Y0115028D01*
X0048631Y0114635D02*
X0023216Y0114635D01*
X0023002Y0114243D02*
X0048793Y0114243D01*
X0048955Y0113851D02*
X0022788Y0113851D01*
X0022573Y0113459D02*
X0049118Y0113459D01*
X0049280Y0113067D02*
X0022359Y0113067D01*
X0022145Y0112674D02*
X0049443Y0112674D01*
X0049605Y0112282D02*
X0021931Y0112282D01*
X0021717Y0111890D02*
X0049768Y0111890D01*
X0049930Y0111498D02*
X0021503Y0111498D01*
X0021288Y0111106D02*
X0050118Y0111106D01*
X0050380Y0110713D02*
X0021074Y0110713D01*
X0020860Y0110321D02*
X0050642Y0110321D01*
X0050905Y0109929D02*
X0020646Y0109929D01*
X0020432Y0109537D02*
X0051167Y0109537D01*
X0051429Y0109145D02*
X0020218Y0109145D01*
X0020003Y0108752D02*
X0051691Y0108752D01*
X0051953Y0108360D02*
X0019789Y0108360D01*
X0019575Y0107968D02*
X0052215Y0107968D01*
X0052477Y0107576D02*
X0019365Y0107576D01*
X0019218Y0107183D02*
X0052739Y0107183D01*
X0053001Y0106791D02*
X0019072Y0106791D01*
X0018926Y0106399D02*
X0053263Y0106399D01*
X0053525Y0106007D02*
X0018779Y0106007D01*
X0018633Y0105615D02*
X0053810Y0105615D01*
X0054202Y0105222D02*
X0018487Y0105222D01*
X0018341Y0104830D02*
X0054594Y0104830D01*
X0054987Y0104438D02*
X0018194Y0104438D01*
X0018048Y0104046D02*
X0055379Y0104046D01*
X0055771Y0103654D02*
X0017902Y0103654D01*
X0017755Y0103261D02*
X0056163Y0103261D01*
X0056555Y0102869D02*
X0017609Y0102869D01*
X0017463Y0102477D02*
X0056948Y0102477D01*
X0057340Y0102085D02*
X0017316Y0102085D01*
X0017170Y0101692D02*
X0057732Y0101692D01*
X0058124Y0101300D02*
X0017024Y0101300D01*
X0016878Y0100908D02*
X0058555Y0100908D01*
X0059142Y0100516D02*
X0016731Y0100516D01*
X0016585Y0100124D02*
X0059729Y0100124D01*
X0060316Y0099731D02*
X0016439Y0099731D01*
X0016292Y0099339D02*
X0060903Y0099339D01*
X0061490Y0098947D02*
X0016146Y0098947D01*
X0016022Y0098555D02*
X0062077Y0098555D01*
X0062664Y0098163D02*
X0015936Y0098163D01*
X0015851Y0097770D02*
X0049227Y0097770D01*
X0049281Y0097824D02*
X0049058Y0097601D01*
X0048900Y0097328D01*
X0048819Y0097024D01*
X0048819Y0095488D01*
X0052181Y0095488D01*
X0052181Y0095095D01*
X0048819Y0095095D01*
X0048819Y0093559D01*
X0048900Y0093255D01*
X0049058Y0092982D01*
X0049281Y0092759D01*
X0049554Y0092601D01*
X0049858Y0092520D01*
X0052181Y0092520D01*
X0052181Y0095094D01*
X0052575Y0095094D01*
X0052575Y0092520D01*
X0054898Y0092520D01*
X0055202Y0092601D01*
X0055475Y0092759D01*
X0055698Y0092982D01*
X0055855Y0093255D01*
X0055937Y0093559D01*
X0055937Y0095095D01*
X0052575Y0095095D01*
X0052575Y0095488D01*
X0055937Y0095488D01*
X0055937Y0097024D01*
X0055855Y0097328D01*
X0055698Y0097601D01*
X0055475Y0097824D01*
X0055202Y0097981D01*
X0054898Y0098063D01*
X0052575Y0098063D01*
X0052575Y0095488D01*
X0052181Y0095488D01*
X0052181Y0098063D01*
X0049858Y0098063D01*
X0049554Y0097981D01*
X0049281Y0097824D01*
X0048929Y0097378D02*
X0015766Y0097378D01*
X0015680Y0096986D02*
X0048819Y0096986D01*
X0048819Y0096594D02*
X0015595Y0096594D01*
X0015510Y0096202D02*
X0048819Y0096202D01*
X0048819Y0095809D02*
X0015424Y0095809D01*
X0015339Y0095417D02*
X0052181Y0095417D01*
X0052181Y0095025D02*
X0052575Y0095025D01*
X0052575Y0095417D02*
X0064491Y0095417D01*
X0064099Y0095025D02*
X0055937Y0095025D01*
X0055937Y0094633D02*
X0063976Y0094633D01*
X0063976Y0094240D02*
X0055937Y0094240D01*
X0055937Y0093848D02*
X0063976Y0093848D01*
X0063976Y0093456D02*
X0055909Y0093456D01*
X0055745Y0093064D02*
X0063976Y0093064D01*
X0063976Y0092672D02*
X0055324Y0092672D01*
X0055236Y0090976D02*
X0049520Y0090976D01*
X0048819Y0090275D01*
X0048819Y0086134D01*
X0049520Y0085433D01*
X0050591Y0085433D01*
X0050591Y0082315D01*
X0049520Y0082315D01*
X0048819Y0081614D01*
X0048819Y0077473D01*
X0049520Y0076772D01*
X0055236Y0076772D01*
X0055937Y0077473D01*
X0055937Y0077762D01*
X0056473Y0077227D01*
X0057648Y0076740D01*
X0058919Y0076740D01*
X0060094Y0077227D01*
X0060994Y0078126D01*
X0061480Y0079301D01*
X0061480Y0080573D01*
X0060994Y0081748D01*
X0060094Y0082647D01*
X0058919Y0083134D01*
X0057648Y0083134D01*
X0056473Y0082647D01*
X0055688Y0081863D01*
X0055236Y0082315D01*
X0054165Y0082315D01*
X0054165Y0085433D01*
X0055236Y0085433D01*
X0055937Y0086134D01*
X0055937Y0090275D01*
X0055236Y0090976D01*
X0055502Y0090711D02*
X0063976Y0090711D01*
X0063976Y0091103D02*
X0014401Y0091103D01*
X0014486Y0091495D02*
X0063976Y0091495D01*
X0063976Y0091887D02*
X0014571Y0091887D01*
X0014657Y0092279D02*
X0063976Y0092279D01*
X0063976Y0090318D02*
X0055894Y0090318D01*
X0055937Y0089926D02*
X0063976Y0089926D01*
X0063976Y0089534D02*
X0055937Y0089534D01*
X0055937Y0089142D02*
X0063827Y0089142D01*
X0063435Y0088749D02*
X0055937Y0088749D01*
X0055937Y0088357D02*
X0063386Y0088357D01*
X0063386Y0087965D02*
X0055937Y0087965D01*
X0055937Y0087573D02*
X0063386Y0087573D01*
X0063386Y0087181D02*
X0055937Y0087181D01*
X0055937Y0086788D02*
X0063386Y0086788D01*
X0063386Y0086396D02*
X0055937Y0086396D01*
X0055807Y0086004D02*
X0063386Y0086004D01*
X0063386Y0085612D02*
X0055415Y0085612D01*
X0054165Y0085220D02*
X0063386Y0085220D01*
X0063386Y0084827D02*
X0054165Y0084827D01*
X0054165Y0084435D02*
X0063386Y0084435D01*
X0063386Y0084043D02*
X0054165Y0084043D01*
X0054165Y0083651D02*
X0063386Y0083651D01*
X0063386Y0083259D02*
X0054165Y0083259D01*
X0054165Y0082866D02*
X0057002Y0082866D01*
X0056300Y0082474D02*
X0054165Y0082474D01*
X0055469Y0082082D02*
X0055907Y0082082D01*
X0059565Y0082866D02*
X0063386Y0082866D01*
X0063386Y0082474D02*
X0060267Y0082474D01*
X0060660Y0082082D02*
X0063386Y0082082D01*
X0063386Y0081690D02*
X0061018Y0081690D01*
X0061180Y0081297D02*
X0063386Y0081297D01*
X0063386Y0080905D02*
X0061343Y0080905D01*
X0061480Y0080513D02*
X0063386Y0080513D01*
X0063386Y0080121D02*
X0061480Y0080121D01*
X0061480Y0079729D02*
X0063386Y0079729D01*
X0063386Y0079336D02*
X0061480Y0079336D01*
X0061332Y0078944D02*
X0063386Y0078944D01*
X0063386Y0078552D02*
X0061170Y0078552D01*
X0061008Y0078160D02*
X0063386Y0078160D01*
X0063386Y0077768D02*
X0060635Y0077768D01*
X0060243Y0077375D02*
X0063386Y0077375D01*
X0063386Y0076983D02*
X0059506Y0076983D01*
X0057061Y0076983D02*
X0055447Y0076983D01*
X0055840Y0077375D02*
X0056324Y0077375D01*
X0055236Y0075228D02*
X0049520Y0075228D01*
X0048819Y0074527D01*
X0048819Y0070386D01*
X0049520Y0069685D01*
X0050591Y0069685D01*
X0050591Y0064264D01*
X0050111Y0064264D01*
X0049409Y0063563D01*
X0049409Y0059422D01*
X0050111Y0058720D01*
X0054645Y0058720D01*
X0055346Y0059422D01*
X0055346Y0063563D01*
X0054645Y0064264D01*
X0054165Y0064264D01*
X0054165Y0069685D01*
X0055236Y0069685D01*
X0055937Y0070386D01*
X0055937Y0074527D01*
X0055236Y0075228D01*
X0055442Y0075022D02*
X0063386Y0075022D01*
X0063386Y0074630D02*
X0055834Y0074630D01*
X0055937Y0074238D02*
X0063386Y0074238D01*
X0063386Y0073845D02*
X0055937Y0073845D01*
X0055937Y0073453D02*
X0063386Y0073453D01*
X0063386Y0073061D02*
X0055937Y0073061D01*
X0055937Y0072669D02*
X0063386Y0072669D01*
X0063386Y0072277D02*
X0055937Y0072277D01*
X0055937Y0071884D02*
X0063386Y0071884D01*
X0063386Y0071492D02*
X0055937Y0071492D01*
X0055937Y0071100D02*
X0063386Y0071100D01*
X0063386Y0070708D02*
X0055937Y0070708D01*
X0055866Y0070316D02*
X0063386Y0070316D01*
X0063386Y0069923D02*
X0055474Y0069923D01*
X0054165Y0069531D02*
X0063386Y0069531D01*
X0063386Y0069139D02*
X0054165Y0069139D01*
X0054165Y0068747D02*
X0063451Y0068747D01*
X0063843Y0068354D02*
X0054165Y0068354D01*
X0054165Y0067962D02*
X0063976Y0067962D01*
X0063976Y0067570D02*
X0054165Y0067570D01*
X0054165Y0067178D02*
X0063976Y0067178D01*
X0063976Y0066786D02*
X0054165Y0066786D01*
X0054165Y0066393D02*
X0063976Y0066393D01*
X0063976Y0066001D02*
X0054165Y0066001D01*
X0054165Y0065609D02*
X0063976Y0065609D01*
X0063976Y0065217D02*
X0054165Y0065217D01*
X0054165Y0064825D02*
X0063976Y0064825D01*
X0063976Y0064432D02*
X0054165Y0064432D01*
X0054869Y0064040D02*
X0063976Y0064040D01*
X0063976Y0063648D02*
X0055261Y0063648D01*
X0055346Y0063256D02*
X0063976Y0063256D01*
X0063976Y0062863D02*
X0055346Y0062863D01*
X0055346Y0062471D02*
X0064096Y0062471D01*
X0064488Y0062079D02*
X0055346Y0062079D01*
X0055346Y0061687D02*
X0071850Y0061687D01*
X0071850Y0061295D02*
X0055346Y0061295D01*
X0055346Y0060902D02*
X0071850Y0060902D01*
X0071850Y0060510D02*
X0062926Y0060510D01*
X0058365Y0060510D02*
X0055346Y0060510D01*
X0055346Y0060118D02*
X0057973Y0060118D01*
X0057677Y0059726D02*
X0055346Y0059726D01*
X0055258Y0059334D02*
X0057677Y0059334D01*
X0057677Y0058941D02*
X0054866Y0058941D01*
X0054645Y0056783D02*
X0050111Y0056783D01*
X0049855Y0056528D01*
X0048063Y0056528D01*
X0048063Y0057992D01*
X0047362Y0058693D01*
X0041646Y0058693D01*
X0040945Y0057992D01*
X0040945Y0053851D01*
X0041646Y0053150D01*
X0042616Y0053150D01*
X0043600Y0052165D01*
X0049409Y0052165D01*
X0049409Y0051941D01*
X0050111Y0051240D01*
X0050782Y0051240D01*
X0050567Y0051151D01*
X0049668Y0050252D01*
X0049181Y0049077D01*
X0049181Y0047805D01*
X0049563Y0046882D01*
X0049520Y0046882D01*
X0048819Y0046181D01*
X0048819Y0042040D01*
X0049520Y0041339D01*
X0055236Y0041339D01*
X0055937Y0042040D01*
X0055937Y0046181D01*
X0055236Y0046882D01*
X0055192Y0046882D01*
X0055575Y0047805D01*
X0055575Y0049077D01*
X0055088Y0050252D01*
X0054189Y0051151D01*
X0053974Y0051240D01*
X0054645Y0051240D01*
X0055346Y0051941D01*
X0055346Y0056082D01*
X0054645Y0056783D01*
X0054841Y0056588D02*
X0057677Y0056588D01*
X0057677Y0056196D02*
X0055233Y0056196D01*
X0055346Y0055804D02*
X0057677Y0055804D01*
X0057947Y0055411D02*
X0055346Y0055411D01*
X0055346Y0055019D02*
X0058339Y0055019D01*
X0057677Y0056980D02*
X0048063Y0056980D01*
X0048063Y0056588D02*
X0049915Y0056588D01*
X0048063Y0057373D02*
X0057677Y0057373D01*
X0057677Y0057765D02*
X0048063Y0057765D01*
X0047898Y0058157D02*
X0057677Y0058157D01*
X0057677Y0058549D02*
X0047506Y0058549D01*
X0049497Y0059334D02*
X0035837Y0059334D01*
X0036229Y0059726D02*
X0049409Y0059726D01*
X0049409Y0060118D02*
X0036565Y0060118D01*
X0036525Y0060021D02*
X0037270Y0061821D01*
X0037270Y0063769D01*
X0036525Y0065569D01*
X0035147Y0066947D01*
X0033348Y0067692D01*
X0031399Y0067692D01*
X0029600Y0066947D01*
X0028222Y0065569D01*
X0027477Y0063769D01*
X0027477Y0061821D01*
X0028222Y0060021D01*
X0029600Y0058644D01*
X0031399Y0057898D01*
X0033348Y0057898D01*
X0035147Y0058644D01*
X0036525Y0060021D01*
X0036727Y0060510D02*
X0049409Y0060510D01*
X0049409Y0060902D02*
X0036890Y0060902D01*
X0037052Y0061295D02*
X0049409Y0061295D01*
X0049409Y0061687D02*
X0037215Y0061687D01*
X0037270Y0062079D02*
X0049409Y0062079D01*
X0049409Y0062471D02*
X0037270Y0062471D01*
X0037270Y0062863D02*
X0049409Y0062863D01*
X0049409Y0063256D02*
X0037270Y0063256D01*
X0037270Y0063648D02*
X0049495Y0063648D01*
X0049887Y0064040D02*
X0037158Y0064040D01*
X0036996Y0064432D02*
X0050591Y0064432D01*
X0050591Y0064825D02*
X0036833Y0064825D01*
X0036671Y0065217D02*
X0050591Y0065217D01*
X0050591Y0065609D02*
X0036485Y0065609D01*
X0036093Y0066001D02*
X0050591Y0066001D01*
X0050591Y0066393D02*
X0035701Y0066393D01*
X0035308Y0066786D02*
X0050591Y0066786D01*
X0050591Y0067178D02*
X0034589Y0067178D01*
X0033642Y0067570D02*
X0050591Y0067570D01*
X0050591Y0067962D02*
X0033502Y0067962D01*
X0033348Y0067898D02*
X0035147Y0068644D01*
X0036525Y0070021D01*
X0037270Y0071821D01*
X0037270Y0073769D01*
X0036525Y0075569D01*
X0035147Y0076947D01*
X0033348Y0077692D01*
X0031399Y0077692D01*
X0029600Y0076947D01*
X0028222Y0075569D01*
X0027477Y0073769D01*
X0027477Y0071821D01*
X0028222Y0070021D01*
X0029600Y0068644D01*
X0031399Y0067898D01*
X0033348Y0067898D01*
X0034448Y0068354D02*
X0050591Y0068354D01*
X0050591Y0068747D02*
X0035250Y0068747D01*
X0035642Y0069139D02*
X0050591Y0069139D01*
X0050591Y0069531D02*
X0036034Y0069531D01*
X0036427Y0069923D02*
X0049282Y0069923D01*
X0048890Y0070316D02*
X0036647Y0070316D01*
X0036809Y0070708D02*
X0048819Y0070708D01*
X0048819Y0071100D02*
X0036972Y0071100D01*
X0037134Y0071492D02*
X0048819Y0071492D01*
X0048819Y0071884D02*
X0037270Y0071884D01*
X0037270Y0072277D02*
X0048819Y0072277D01*
X0048819Y0072669D02*
X0037270Y0072669D01*
X0037270Y0073061D02*
X0048819Y0073061D01*
X0048819Y0073453D02*
X0037270Y0073453D01*
X0037239Y0073845D02*
X0048819Y0073845D01*
X0048819Y0074238D02*
X0037076Y0074238D01*
X0036914Y0074630D02*
X0048921Y0074630D01*
X0049314Y0075022D02*
X0036751Y0075022D01*
X0036589Y0075414D02*
X0063386Y0075414D01*
X0063386Y0075806D02*
X0036287Y0075806D01*
X0035895Y0076199D02*
X0063386Y0076199D01*
X0063386Y0076591D02*
X0035503Y0076591D01*
X0035059Y0076983D02*
X0049309Y0076983D01*
X0048916Y0077375D02*
X0034112Y0077375D01*
X0030635Y0077375D02*
X0013538Y0077375D01*
X0013567Y0076983D02*
X0029688Y0076983D01*
X0029244Y0076591D02*
X0013595Y0076591D01*
X0013623Y0076199D02*
X0028852Y0076199D01*
X0028459Y0075806D02*
X0013651Y0075806D01*
X0013679Y0075414D02*
X0028158Y0075414D01*
X0027996Y0075022D02*
X0013707Y0075022D01*
X0013735Y0074630D02*
X0027833Y0074630D01*
X0027671Y0074238D02*
X0013763Y0074238D01*
X0013791Y0073845D02*
X0027508Y0073845D01*
X0027477Y0073453D02*
X0013819Y0073453D01*
X0013847Y0073061D02*
X0027477Y0073061D01*
X0027477Y0072669D02*
X0013875Y0072669D01*
X0013903Y0072277D02*
X0027477Y0072277D01*
X0027477Y0071884D02*
X0013931Y0071884D01*
X0013959Y0071492D02*
X0027613Y0071492D01*
X0027775Y0071100D02*
X0013987Y0071100D01*
X0014015Y0070708D02*
X0027938Y0070708D01*
X0028100Y0070316D02*
X0014065Y0070316D01*
X0014150Y0069923D02*
X0028320Y0069923D01*
X0028712Y0069531D02*
X0014235Y0069531D01*
X0014321Y0069139D02*
X0029105Y0069139D01*
X0029497Y0068747D02*
X0014406Y0068747D01*
X0014491Y0068354D02*
X0030298Y0068354D01*
X0031245Y0067962D02*
X0014577Y0067962D01*
X0014662Y0067570D02*
X0031105Y0067570D01*
X0030158Y0067178D02*
X0014747Y0067178D01*
X0014833Y0066786D02*
X0029439Y0066786D01*
X0029046Y0066393D02*
X0014918Y0066393D01*
X0015003Y0066001D02*
X0028654Y0066001D01*
X0028262Y0065609D02*
X0015089Y0065609D01*
X0015174Y0065217D02*
X0028076Y0065217D01*
X0027914Y0064825D02*
X0015259Y0064825D01*
X0015345Y0064432D02*
X0027751Y0064432D01*
X0027589Y0064040D02*
X0015430Y0064040D01*
X0015515Y0063648D02*
X0027477Y0063648D01*
X0027477Y0063256D02*
X0015601Y0063256D01*
X0015686Y0062863D02*
X0027477Y0062863D01*
X0027477Y0062471D02*
X0015771Y0062471D01*
X0015856Y0062079D02*
X0027477Y0062079D01*
X0027532Y0061687D02*
X0015942Y0061687D01*
X0016027Y0061295D02*
X0027695Y0061295D01*
X0027857Y0060902D02*
X0016155Y0060902D01*
X0016302Y0060510D02*
X0028020Y0060510D01*
X0028182Y0060118D02*
X0016448Y0060118D01*
X0016594Y0059726D02*
X0028518Y0059726D01*
X0028910Y0059334D02*
X0016741Y0059334D01*
X0016887Y0058941D02*
X0029302Y0058941D01*
X0029828Y0058549D02*
X0017033Y0058549D01*
X0017179Y0058157D02*
X0030775Y0058157D01*
X0031399Y0057692D02*
X0029600Y0056947D01*
X0028222Y0055569D01*
X0027477Y0053769D01*
X0027477Y0051821D01*
X0028222Y0050021D01*
X0029600Y0048644D01*
X0031399Y0047898D01*
X0033348Y0047898D01*
X0035147Y0048644D01*
X0036525Y0050021D01*
X0037270Y0051821D01*
X0037270Y0053769D01*
X0036525Y0055569D01*
X0035147Y0056947D01*
X0033348Y0057692D01*
X0031399Y0057692D01*
X0030628Y0057373D02*
X0017472Y0057373D01*
X0017326Y0057765D02*
X0040945Y0057765D01*
X0040945Y0057373D02*
X0034119Y0057373D01*
X0033972Y0058157D02*
X0041110Y0058157D01*
X0041502Y0058549D02*
X0034918Y0058549D01*
X0035445Y0058941D02*
X0049890Y0058941D01*
X0055346Y0054627D02*
X0077756Y0054627D01*
X0077756Y0054235D02*
X0055346Y0054235D01*
X0055346Y0053843D02*
X0077756Y0053843D01*
X0077756Y0053450D02*
X0055346Y0053450D01*
X0055346Y0053058D02*
X0077756Y0053058D01*
X0077756Y0052666D02*
X0055346Y0052666D01*
X0055346Y0052274D02*
X0077756Y0052274D01*
X0077756Y0051882D02*
X0055287Y0051882D01*
X0054895Y0051489D02*
X0077553Y0051489D01*
X0077165Y0051097D02*
X0054243Y0051097D01*
X0054635Y0050705D02*
X0077165Y0050705D01*
X0077165Y0050313D02*
X0055027Y0050313D01*
X0055225Y0049920D02*
X0077165Y0049920D01*
X0077165Y0049528D02*
X0055388Y0049528D01*
X0055550Y0049136D02*
X0077165Y0049136D01*
X0077165Y0048744D02*
X0055575Y0048744D01*
X0055575Y0048352D02*
X0077165Y0048352D01*
X0077165Y0047959D02*
X0055575Y0047959D01*
X0055476Y0047567D02*
X0077165Y0047567D01*
X0077165Y0047175D02*
X0055314Y0047175D01*
X0055335Y0046783D02*
X0077165Y0046783D01*
X0077342Y0046391D02*
X0055727Y0046391D01*
X0055937Y0045998D02*
X0077734Y0045998D01*
X0078267Y0043535D02*
X0074126Y0043535D01*
X0073425Y0042834D01*
X0073425Y0038300D01*
X0074126Y0037598D01*
X0074213Y0037598D01*
X0074213Y0035071D01*
X0073142Y0035071D01*
X0072441Y0034370D01*
X0072441Y0030229D01*
X0073142Y0029528D01*
X0078858Y0029528D01*
X0079559Y0030229D01*
X0079559Y0034370D01*
X0078858Y0035071D01*
X0077787Y0035071D01*
X0077787Y0037598D01*
X0078267Y0037598D01*
X0078968Y0038300D01*
X0078968Y0042834D01*
X0078267Y0043535D01*
X0078550Y0043253D02*
X0081324Y0043253D01*
X0081607Y0043535D02*
X0080906Y0042834D01*
X0080906Y0038300D01*
X0081607Y0037598D01*
X0085748Y0037598D01*
X0086449Y0038300D01*
X0086449Y0038386D01*
X0101181Y0038386D01*
X0101181Y0037709D01*
X0101882Y0037008D01*
X0106023Y0037008D01*
X0106724Y0037709D01*
X0106724Y0043425D01*
X0106023Y0044126D01*
X0101882Y0044126D01*
X0101181Y0043425D01*
X0101181Y0042748D01*
X0086449Y0042748D01*
X0086449Y0042834D01*
X0085748Y0043535D01*
X0081607Y0043535D01*
X0080932Y0042861D02*
X0078942Y0042861D01*
X0078968Y0042468D02*
X0080906Y0042468D01*
X0080906Y0042076D02*
X0078968Y0042076D01*
X0078968Y0041684D02*
X0080906Y0041684D01*
X0080906Y0041292D02*
X0078968Y0041292D01*
X0078968Y0040900D02*
X0080906Y0040900D01*
X0080906Y0040507D02*
X0078968Y0040507D01*
X0078968Y0040115D02*
X0080906Y0040115D01*
X0080906Y0039723D02*
X0078968Y0039723D01*
X0078968Y0039331D02*
X0080906Y0039331D01*
X0080906Y0038939D02*
X0078968Y0038939D01*
X0078968Y0038546D02*
X0080906Y0038546D01*
X0081051Y0038154D02*
X0078823Y0038154D01*
X0078431Y0037762D02*
X0081443Y0037762D01*
X0077787Y0037370D02*
X0101520Y0037370D01*
X0101181Y0037762D02*
X0085911Y0037762D01*
X0086303Y0038154D02*
X0101181Y0038154D01*
X0101181Y0042861D02*
X0086422Y0042861D01*
X0086030Y0043253D02*
X0101181Y0043253D01*
X0101401Y0043645D02*
X0055937Y0043645D01*
X0055937Y0043253D02*
X0073844Y0043253D01*
X0073452Y0042861D02*
X0055937Y0042861D01*
X0055937Y0042468D02*
X0073425Y0042468D01*
X0073425Y0042076D02*
X0055937Y0042076D01*
X0055581Y0041684D02*
X0073425Y0041684D01*
X0073425Y0041292D02*
X0037051Y0041292D01*
X0037213Y0041684D02*
X0049175Y0041684D01*
X0048819Y0042076D02*
X0037270Y0042076D01*
X0037270Y0041821D02*
X0036525Y0040021D01*
X0035147Y0038644D01*
X0033348Y0037898D01*
X0031399Y0037898D01*
X0029600Y0038644D01*
X0028222Y0040021D01*
X0027477Y0041821D01*
X0027477Y0043769D01*
X0028222Y0045569D01*
X0029600Y0046947D01*
X0031399Y0047692D01*
X0033348Y0047692D01*
X0035147Y0046947D01*
X0036525Y0045569D01*
X0037270Y0043769D01*
X0037270Y0041821D01*
X0037270Y0042468D02*
X0048819Y0042468D01*
X0048819Y0042861D02*
X0037270Y0042861D01*
X0037270Y0043253D02*
X0048819Y0043253D01*
X0048819Y0043645D02*
X0037270Y0043645D01*
X0037159Y0044037D02*
X0048819Y0044037D01*
X0048819Y0044430D02*
X0036997Y0044430D01*
X0036834Y0044822D02*
X0048819Y0044822D01*
X0048819Y0045214D02*
X0036672Y0045214D01*
X0036488Y0045606D02*
X0048819Y0045606D01*
X0048819Y0045998D02*
X0036096Y0045998D01*
X0035703Y0046391D02*
X0041318Y0046391D01*
X0041407Y0046302D02*
X0041184Y0046525D01*
X0041026Y0046798D01*
X0040945Y0047102D01*
X0040945Y0048638D01*
X0044307Y0048638D01*
X0044307Y0049031D01*
X0040945Y0049031D01*
X0040945Y0050567D01*
X0041026Y0050871D01*
X0041184Y0051144D01*
X0041407Y0051367D01*
X0041680Y0051525D01*
X0041984Y0051606D01*
X0044307Y0051606D01*
X0044307Y0049032D01*
X0044701Y0049032D01*
X0044701Y0051606D01*
X0047024Y0051606D01*
X0047328Y0051525D01*
X0047601Y0051367D01*
X0047824Y0051144D01*
X0047981Y0050871D01*
X0048063Y0050567D01*
X0048063Y0049031D01*
X0044701Y0049031D01*
X0044701Y0048638D01*
X0048063Y0048638D01*
X0048063Y0047102D01*
X0047981Y0046798D01*
X0047824Y0046525D01*
X0047601Y0046302D01*
X0047328Y0046145D01*
X0047024Y0046063D01*
X0044701Y0046063D01*
X0044701Y0048638D01*
X0044307Y0048638D01*
X0044307Y0046063D01*
X0041984Y0046063D01*
X0041680Y0046145D01*
X0041407Y0046302D01*
X0041035Y0046783D02*
X0035311Y0046783D01*
X0034596Y0047175D02*
X0040945Y0047175D01*
X0040945Y0047567D02*
X0033649Y0047567D01*
X0033495Y0047959D02*
X0040945Y0047959D01*
X0040945Y0048352D02*
X0034442Y0048352D01*
X0035247Y0048744D02*
X0044307Y0048744D01*
X0044307Y0049136D02*
X0044701Y0049136D01*
X0044701Y0048744D02*
X0049181Y0048744D01*
X0049181Y0048352D02*
X0048063Y0048352D01*
X0048063Y0047959D02*
X0049181Y0047959D01*
X0049280Y0047567D02*
X0048063Y0047567D01*
X0048063Y0047175D02*
X0049442Y0047175D01*
X0049421Y0046783D02*
X0047973Y0046783D01*
X0047689Y0046391D02*
X0049029Y0046391D01*
X0049206Y0049136D02*
X0048063Y0049136D01*
X0048063Y0049528D02*
X0049368Y0049528D01*
X0049531Y0049920D02*
X0048063Y0049920D01*
X0048063Y0050313D02*
X0049729Y0050313D01*
X0050121Y0050705D02*
X0048026Y0050705D01*
X0047851Y0051097D02*
X0050513Y0051097D01*
X0049861Y0051489D02*
X0047389Y0051489D01*
X0049469Y0051882D02*
X0037270Y0051882D01*
X0037270Y0052274D02*
X0043492Y0052274D01*
X0043100Y0052666D02*
X0037270Y0052666D01*
X0037270Y0053058D02*
X0042708Y0053058D01*
X0041345Y0053450D02*
X0037270Y0053450D01*
X0037240Y0053843D02*
X0040953Y0053843D01*
X0040945Y0054235D02*
X0037078Y0054235D01*
X0036915Y0054627D02*
X0040945Y0054627D01*
X0040945Y0055019D02*
X0036753Y0055019D01*
X0036590Y0055411D02*
X0040945Y0055411D01*
X0040945Y0055804D02*
X0036290Y0055804D01*
X0035898Y0056196D02*
X0040945Y0056196D01*
X0040945Y0056588D02*
X0035506Y0056588D01*
X0035066Y0056980D02*
X0040945Y0056980D01*
X0041618Y0051489D02*
X0037133Y0051489D01*
X0036970Y0051097D02*
X0041157Y0051097D01*
X0040982Y0050705D02*
X0036808Y0050705D01*
X0036645Y0050313D02*
X0040945Y0050313D01*
X0040945Y0049920D02*
X0036424Y0049920D01*
X0036032Y0049528D02*
X0040945Y0049528D01*
X0040945Y0049136D02*
X0035639Y0049136D01*
X0031252Y0047959D02*
X0021730Y0047959D01*
X0021944Y0047567D02*
X0031098Y0047567D01*
X0030151Y0047175D02*
X0022159Y0047175D01*
X0022373Y0046783D02*
X0029436Y0046783D01*
X0029044Y0046391D02*
X0022587Y0046391D01*
X0022801Y0045998D02*
X0028651Y0045998D01*
X0028259Y0045606D02*
X0023015Y0045606D01*
X0023229Y0045214D02*
X0028075Y0045214D01*
X0027913Y0044822D02*
X0023444Y0044822D01*
X0023658Y0044430D02*
X0027750Y0044430D01*
X0027588Y0044037D02*
X0023872Y0044037D01*
X0024146Y0043645D02*
X0027477Y0043645D01*
X0027477Y0043253D02*
X0024439Y0043253D01*
X0024733Y0042861D02*
X0027477Y0042861D01*
X0027477Y0042468D02*
X0025027Y0042468D01*
X0025320Y0042076D02*
X0027477Y0042076D01*
X0027533Y0041684D02*
X0025614Y0041684D01*
X0025907Y0041292D02*
X0027696Y0041292D01*
X0027858Y0040900D02*
X0026201Y0040900D01*
X0026495Y0040507D02*
X0028021Y0040507D01*
X0028183Y0040115D02*
X0026788Y0040115D01*
X0027082Y0039723D02*
X0028521Y0039723D01*
X0028913Y0039331D02*
X0027375Y0039331D01*
X0027669Y0038939D02*
X0029305Y0038939D01*
X0029835Y0038546D02*
X0027963Y0038546D01*
X0028256Y0038154D02*
X0030782Y0038154D01*
X0030606Y0037370D02*
X0028844Y0037370D01*
X0029137Y0036977D02*
X0029799Y0036977D01*
X0028550Y0037762D02*
X0048819Y0037762D01*
X0048819Y0038154D02*
X0033965Y0038154D01*
X0034141Y0037370D02*
X0048819Y0037370D01*
X0048819Y0037220D02*
X0048819Y0038756D01*
X0048900Y0039060D01*
X0049058Y0039333D01*
X0049281Y0039556D01*
X0049554Y0039714D01*
X0049858Y0039795D01*
X0052181Y0039795D01*
X0052181Y0037221D01*
X0052575Y0037221D01*
X0052575Y0039795D01*
X0054898Y0039795D01*
X0055202Y0039714D01*
X0055475Y0039556D01*
X0055698Y0039333D01*
X0055855Y0039060D01*
X0055937Y0038756D01*
X0055937Y0037220D01*
X0052575Y0037220D01*
X0052575Y0036827D01*
X0055937Y0036827D01*
X0055937Y0035291D01*
X0055855Y0034987D01*
X0055698Y0034714D01*
X0055475Y0034491D01*
X0055202Y0034334D01*
X0054898Y0034252D01*
X0052575Y0034252D01*
X0052575Y0036827D01*
X0052181Y0036827D01*
X0048819Y0036827D01*
X0048819Y0035291D01*
X0048900Y0034987D01*
X0049058Y0034714D01*
X0049281Y0034491D01*
X0049554Y0034334D01*
X0049858Y0034252D01*
X0052181Y0034252D01*
X0052181Y0036827D01*
X0052181Y0037220D01*
X0048819Y0037220D01*
X0048819Y0036585D02*
X0035488Y0036585D01*
X0035901Y0036193D02*
X0048819Y0036193D01*
X0048819Y0035801D02*
X0036243Y0035801D01*
X0036528Y0035409D02*
X0048819Y0035409D01*
X0048893Y0035016D02*
X0036738Y0035016D01*
X0036928Y0034624D02*
X0049148Y0034624D01*
X0052181Y0034624D02*
X0052575Y0034624D01*
X0052575Y0035016D02*
X0052181Y0035016D01*
X0052181Y0035409D02*
X0052575Y0035409D01*
X0052575Y0035801D02*
X0052181Y0035801D01*
X0052181Y0036193D02*
X0052575Y0036193D01*
X0052575Y0036585D02*
X0052181Y0036585D01*
X0052181Y0036977D02*
X0034948Y0036977D01*
X0034912Y0038546D02*
X0048819Y0038546D01*
X0048868Y0038939D02*
X0035442Y0038939D01*
X0035834Y0039331D02*
X0049057Y0039331D01*
X0049588Y0039723D02*
X0036226Y0039723D01*
X0036564Y0040115D02*
X0073425Y0040115D01*
X0073425Y0039723D02*
X0055168Y0039723D01*
X0055699Y0039331D02*
X0073425Y0039331D01*
X0073425Y0038939D02*
X0055888Y0038939D01*
X0055937Y0038546D02*
X0073425Y0038546D01*
X0073571Y0038154D02*
X0055937Y0038154D01*
X0055937Y0037762D02*
X0073963Y0037762D01*
X0074213Y0037370D02*
X0055937Y0037370D01*
X0055937Y0036585D02*
X0074213Y0036585D01*
X0074213Y0036193D02*
X0055937Y0036193D01*
X0055937Y0035801D02*
X0074213Y0035801D01*
X0074213Y0035409D02*
X0055937Y0035409D01*
X0055863Y0035016D02*
X0073088Y0035016D01*
X0072695Y0034624D02*
X0055608Y0034624D01*
X0052575Y0036977D02*
X0074213Y0036977D01*
X0072441Y0034232D02*
X0037056Y0034232D01*
X0037166Y0033840D02*
X0072441Y0033840D01*
X0072441Y0033448D02*
X0037228Y0033448D01*
X0037270Y0033055D02*
X0072441Y0033055D01*
X0072441Y0032663D02*
X0033290Y0032663D01*
X0032570Y0033448D02*
X0032506Y0033448D01*
X0032570Y0033840D02*
X0032177Y0033840D01*
X0032177Y0034232D02*
X0032570Y0034232D01*
X0032570Y0034624D02*
X0032177Y0034624D01*
X0032177Y0035016D02*
X0032570Y0035016D01*
X0032570Y0035409D02*
X0032177Y0035409D01*
X0032177Y0035801D02*
X0032570Y0035801D01*
X0032570Y0036193D02*
X0032177Y0036193D01*
X0032177Y0036585D02*
X0032570Y0036585D01*
X0032570Y0036977D02*
X0032177Y0036977D01*
X0032177Y0037370D02*
X0032570Y0037370D01*
X0036726Y0040507D02*
X0073425Y0040507D01*
X0073425Y0040900D02*
X0036889Y0040900D01*
X0044307Y0046391D02*
X0044701Y0046391D01*
X0044701Y0046783D02*
X0044307Y0046783D01*
X0044307Y0047175D02*
X0044701Y0047175D01*
X0044701Y0047567D02*
X0044307Y0047567D01*
X0044307Y0047959D02*
X0044701Y0047959D01*
X0044701Y0048352D02*
X0044307Y0048352D01*
X0044307Y0049528D02*
X0044701Y0049528D01*
X0044701Y0049920D02*
X0044307Y0049920D01*
X0044307Y0050313D02*
X0044701Y0050313D01*
X0044701Y0050705D02*
X0044307Y0050705D01*
X0044307Y0051097D02*
X0044701Y0051097D01*
X0044701Y0051489D02*
X0044307Y0051489D01*
X0055937Y0045606D02*
X0121648Y0045606D01*
X0122047Y0045214D02*
X0055937Y0045214D01*
X0055937Y0044822D02*
X0122447Y0044822D01*
X0122697Y0044576D02*
X0122305Y0043632D01*
X0122305Y0041683D01*
X0123051Y0039884D01*
X0124428Y0038506D01*
X0126228Y0037761D01*
X0128176Y0037761D01*
X0129976Y0038506D01*
X0131353Y0039884D01*
X0132099Y0041683D01*
X0132099Y0043632D01*
X0131353Y0045431D01*
X0129976Y0046809D01*
X0128176Y0047554D01*
X0126228Y0047554D01*
X0125200Y0047128D01*
X0120867Y0051383D01*
X0120769Y0051677D01*
X0120358Y0051882D01*
X0120031Y0052204D01*
X0119721Y0052201D01*
X0116429Y0053847D01*
X0116110Y0054165D01*
X0115792Y0054165D01*
X0115507Y0054308D01*
X0115080Y0054165D01*
X0113811Y0054165D01*
X0113811Y0055236D01*
X0113110Y0055937D01*
X0108969Y0055937D01*
X0108268Y0055236D01*
X0108268Y0049520D01*
X0108969Y0048819D01*
X0113110Y0048819D01*
X0113811Y0049520D01*
X0113811Y0050591D01*
X0114948Y0050591D01*
X0118256Y0048937D01*
X0122697Y0044576D01*
X0122636Y0044430D02*
X0055937Y0044430D01*
X0055937Y0044037D02*
X0101794Y0044037D01*
X0106112Y0044037D02*
X0108990Y0044037D01*
X0109003Y0044044D02*
X0108730Y0043887D01*
X0108507Y0043664D01*
X0108349Y0043391D01*
X0108268Y0043087D01*
X0108268Y0040764D01*
X0110842Y0040764D01*
X0110842Y0040370D01*
X0108268Y0040370D01*
X0108268Y0038047D01*
X0108349Y0037743D01*
X0108507Y0037470D01*
X0108730Y0037247D01*
X0109003Y0037089D01*
X0109307Y0037008D01*
X0110843Y0037008D01*
X0110843Y0040370D01*
X0111236Y0040370D01*
X0111236Y0037008D01*
X0112772Y0037008D01*
X0113076Y0037089D01*
X0113349Y0037247D01*
X0113572Y0037470D01*
X0113729Y0037743D01*
X0113811Y0038047D01*
X0113811Y0040370D01*
X0111236Y0040370D01*
X0111236Y0040764D01*
X0110843Y0040764D01*
X0110843Y0044126D01*
X0109307Y0044126D01*
X0109003Y0044044D01*
X0108496Y0043645D02*
X0106504Y0043645D01*
X0106724Y0043253D02*
X0108312Y0043253D01*
X0108268Y0042861D02*
X0106724Y0042861D01*
X0106724Y0042468D02*
X0108268Y0042468D01*
X0108268Y0042076D02*
X0106724Y0042076D01*
X0106724Y0041684D02*
X0108268Y0041684D01*
X0108268Y0041292D02*
X0106724Y0041292D01*
X0106724Y0040900D02*
X0108268Y0040900D01*
X0108268Y0040115D02*
X0106724Y0040115D01*
X0106724Y0039723D02*
X0108268Y0039723D01*
X0108268Y0039331D02*
X0106724Y0039331D01*
X0106724Y0038939D02*
X0108268Y0038939D01*
X0108268Y0038546D02*
X0106724Y0038546D01*
X0106724Y0038154D02*
X0108268Y0038154D01*
X0108344Y0037762D02*
X0106724Y0037762D01*
X0106385Y0037370D02*
X0108607Y0037370D01*
X0110843Y0037370D02*
X0111236Y0037370D01*
X0111236Y0037762D02*
X0110843Y0037762D01*
X0110843Y0038154D02*
X0111236Y0038154D01*
X0111236Y0038546D02*
X0110843Y0038546D01*
X0110843Y0038939D02*
X0111236Y0038939D01*
X0111236Y0039331D02*
X0110843Y0039331D01*
X0110843Y0039723D02*
X0111236Y0039723D01*
X0111236Y0040115D02*
X0110843Y0040115D01*
X0110842Y0040507D02*
X0106724Y0040507D01*
X0110843Y0040900D02*
X0111236Y0040900D01*
X0111236Y0040764D02*
X0111236Y0044126D01*
X0112772Y0044126D01*
X0113076Y0044044D01*
X0113349Y0043887D01*
X0113572Y0043664D01*
X0113729Y0043391D01*
X0113811Y0043087D01*
X0113811Y0040764D01*
X0111236Y0040764D01*
X0111236Y0040507D02*
X0122792Y0040507D01*
X0122955Y0040115D02*
X0113811Y0040115D01*
X0113811Y0039723D02*
X0123211Y0039723D01*
X0123604Y0039331D02*
X0113811Y0039331D01*
X0113811Y0038939D02*
X0123996Y0038939D01*
X0124388Y0038546D02*
X0113811Y0038546D01*
X0113811Y0038154D02*
X0125278Y0038154D01*
X0125782Y0037370D02*
X0113472Y0037370D01*
X0113735Y0037762D02*
X0126225Y0037762D01*
X0124835Y0036977D02*
X0077787Y0036977D01*
X0077787Y0036585D02*
X0124205Y0036585D01*
X0123812Y0036193D02*
X0077787Y0036193D01*
X0077787Y0035801D02*
X0123420Y0035801D01*
X0123041Y0035409D02*
X0077787Y0035409D01*
X0078912Y0035016D02*
X0089025Y0035016D01*
X0088924Y0034989D02*
X0088651Y0034832D01*
X0088428Y0034609D01*
X0088271Y0034336D01*
X0088189Y0034032D01*
X0088189Y0032496D01*
X0091551Y0032496D01*
X0091551Y0032102D01*
X0091945Y0032102D01*
X0091945Y0029528D01*
X0094268Y0029528D01*
X0094572Y0029609D01*
X0094845Y0029767D01*
X0095068Y0029990D01*
X0095226Y0030262D01*
X0095307Y0030567D01*
X0095307Y0032102D01*
X0091945Y0032102D01*
X0091945Y0032496D01*
X0095307Y0032496D01*
X0095307Y0034032D01*
X0095226Y0034336D01*
X0095068Y0034609D01*
X0094845Y0034832D01*
X0094572Y0034989D01*
X0094268Y0035071D01*
X0091945Y0035071D01*
X0091945Y0032496D01*
X0091551Y0032496D01*
X0091551Y0035071D01*
X0089228Y0035071D01*
X0088924Y0034989D01*
X0088443Y0034624D02*
X0079305Y0034624D01*
X0079559Y0034232D02*
X0088243Y0034232D01*
X0088189Y0033840D02*
X0079559Y0033840D01*
X0079559Y0033448D02*
X0088189Y0033448D01*
X0088189Y0033055D02*
X0079559Y0033055D01*
X0079559Y0032663D02*
X0088189Y0032663D01*
X0088189Y0032102D02*
X0088189Y0030567D01*
X0088271Y0030262D01*
X0088428Y0029990D01*
X0088651Y0029767D01*
X0088924Y0029609D01*
X0089228Y0029528D01*
X0091551Y0029528D01*
X0091551Y0032102D01*
X0088189Y0032102D01*
X0088189Y0031879D02*
X0079559Y0031879D01*
X0079559Y0032271D02*
X0091551Y0032271D01*
X0091551Y0032663D02*
X0091945Y0032663D01*
X0091945Y0032271D02*
X0122305Y0032271D01*
X0122305Y0032663D02*
X0095307Y0032663D01*
X0095307Y0033055D02*
X0122305Y0033055D01*
X0122305Y0033448D02*
X0095307Y0033448D01*
X0095307Y0033840D02*
X0122392Y0033840D01*
X0122554Y0034232D02*
X0095253Y0034232D01*
X0095053Y0034624D02*
X0122716Y0034624D01*
X0122879Y0035016D02*
X0094471Y0035016D01*
X0091945Y0035016D02*
X0091551Y0035016D01*
X0091551Y0034624D02*
X0091945Y0034624D01*
X0091945Y0034232D02*
X0091551Y0034232D01*
X0091551Y0033840D02*
X0091945Y0033840D01*
X0091945Y0033448D02*
X0091551Y0033448D01*
X0091551Y0033055D02*
X0091945Y0033055D01*
X0091945Y0031879D02*
X0091551Y0031879D01*
X0091551Y0031487D02*
X0091945Y0031487D01*
X0091945Y0031094D02*
X0091551Y0031094D01*
X0091551Y0030702D02*
X0091945Y0030702D01*
X0091945Y0030310D02*
X0091551Y0030310D01*
X0091551Y0029918D02*
X0091945Y0029918D01*
X0094996Y0029918D02*
X0123037Y0029918D01*
X0122874Y0030310D02*
X0095238Y0030310D01*
X0095307Y0030702D02*
X0122712Y0030702D01*
X0122549Y0031094D02*
X0095307Y0031094D01*
X0095307Y0031487D02*
X0122387Y0031487D01*
X0122305Y0031879D02*
X0095307Y0031879D01*
X0094606Y0027984D02*
X0088890Y0027984D01*
X0088189Y0027283D01*
X0088189Y0026606D01*
X0086594Y0026606D01*
X0086584Y0026630D01*
X0085685Y0027529D01*
X0084510Y0028016D01*
X0083238Y0028016D01*
X0082063Y0027529D01*
X0081164Y0026630D01*
X0081154Y0026606D01*
X0079559Y0026606D01*
X0079559Y0027283D01*
X0078858Y0027984D01*
X0073142Y0027984D01*
X0072441Y0027283D01*
X0072441Y0023142D01*
X0073142Y0022441D01*
X0078858Y0022441D01*
X0079448Y0023031D01*
X0081154Y0023031D01*
X0081164Y0023008D01*
X0082063Y0022109D01*
X0083238Y0021622D01*
X0084510Y0021622D01*
X0085685Y0022109D01*
X0086584Y0023008D01*
X0086594Y0023031D01*
X0088300Y0023031D01*
X0088890Y0022441D01*
X0094606Y0022441D01*
X0095307Y0023142D01*
X0095307Y0027283D01*
X0094606Y0027984D01*
X0094634Y0027957D02*
X0121320Y0027957D01*
X0121843Y0028349D02*
X0038031Y0028349D01*
X0038554Y0027957D02*
X0073114Y0027957D01*
X0072722Y0027564D02*
X0039078Y0027564D01*
X0039602Y0027172D02*
X0072441Y0027172D01*
X0072441Y0026780D02*
X0040126Y0026780D01*
X0040650Y0026388D02*
X0072441Y0026388D01*
X0072441Y0025996D02*
X0041174Y0025996D01*
X0041698Y0025603D02*
X0072441Y0025603D01*
X0072441Y0025211D02*
X0042222Y0025211D01*
X0042746Y0024819D02*
X0072441Y0024819D01*
X0072441Y0024427D02*
X0043270Y0024427D01*
X0043794Y0024034D02*
X0072441Y0024034D01*
X0072441Y0023642D02*
X0044458Y0023642D01*
X0045176Y0023250D02*
X0072441Y0023250D01*
X0072725Y0022858D02*
X0045894Y0022858D01*
X0046613Y0022466D02*
X0073117Y0022466D01*
X0078883Y0022466D02*
X0081706Y0022466D01*
X0081314Y0022858D02*
X0079275Y0022858D01*
X0082148Y0022073D02*
X0047331Y0022073D01*
X0048049Y0021681D02*
X0083095Y0021681D01*
X0084653Y0021681D02*
X0111825Y0021681D01*
X0112543Y0022073D02*
X0085600Y0022073D01*
X0086042Y0022466D02*
X0088865Y0022466D01*
X0088473Y0022858D02*
X0086434Y0022858D01*
X0086434Y0026780D02*
X0088189Y0026780D01*
X0088189Y0027172D02*
X0086042Y0027172D01*
X0085600Y0027564D02*
X0088470Y0027564D01*
X0088862Y0027957D02*
X0084653Y0027957D01*
X0083095Y0027957D02*
X0078886Y0027957D01*
X0079278Y0027564D02*
X0082148Y0027564D01*
X0081706Y0027172D02*
X0079559Y0027172D01*
X0079559Y0026780D02*
X0081314Y0026780D01*
X0079248Y0029918D02*
X0088500Y0029918D01*
X0088258Y0030310D02*
X0079559Y0030310D01*
X0079559Y0030702D02*
X0088189Y0030702D01*
X0088189Y0031094D02*
X0079559Y0031094D01*
X0079559Y0031487D02*
X0088189Y0031487D01*
X0095026Y0027564D02*
X0120796Y0027564D01*
X0120272Y0027172D02*
X0095307Y0027172D01*
X0095307Y0026780D02*
X0119748Y0026780D01*
X0119224Y0026388D02*
X0095307Y0026388D01*
X0095307Y0025996D02*
X0118700Y0025996D01*
X0118176Y0025603D02*
X0095307Y0025603D01*
X0095307Y0025211D02*
X0117652Y0025211D01*
X0117128Y0024819D02*
X0095307Y0024819D01*
X0095307Y0024427D02*
X0116604Y0024427D01*
X0116080Y0024034D02*
X0095307Y0024034D01*
X0095307Y0023642D02*
X0115416Y0023642D01*
X0114698Y0023250D02*
X0095307Y0023250D01*
X0095023Y0022858D02*
X0113980Y0022858D01*
X0113261Y0022466D02*
X0094631Y0022466D01*
X0099065Y0016190D02*
X0060809Y0016190D01*
X0059757Y0016582D02*
X0100117Y0016582D01*
X0101168Y0016975D02*
X0058706Y0016975D01*
X0057654Y0017367D02*
X0102220Y0017367D01*
X0103271Y0017759D02*
X0056603Y0017759D01*
X0055551Y0018151D02*
X0104323Y0018151D01*
X0105374Y0018544D02*
X0054500Y0018544D01*
X0053448Y0018936D02*
X0106426Y0018936D01*
X0107478Y0019328D02*
X0052396Y0019328D01*
X0051641Y0019720D02*
X0108233Y0019720D01*
X0108952Y0020112D02*
X0050922Y0020112D01*
X0050204Y0020505D02*
X0109670Y0020505D01*
X0110388Y0020897D02*
X0049486Y0020897D01*
X0048768Y0021289D02*
X0111107Y0021289D01*
X0117185Y0014621D02*
X0158677Y0014621D01*
X0158677Y0014229D02*
X0116466Y0014229D01*
X0115748Y0013837D02*
X0158677Y0013837D01*
X0158677Y0013445D02*
X0115030Y0013445D01*
X0114312Y0013053D02*
X0158677Y0013053D01*
X0158677Y0012660D02*
X0113593Y0012660D01*
X0112875Y0012268D02*
X0158677Y0012268D01*
X0158677Y0011876D02*
X0112157Y0011876D01*
X0111438Y0011484D02*
X0158677Y0011484D01*
X0158677Y0011091D02*
X0110476Y0011091D01*
X0109424Y0010699D02*
X0158677Y0010699D01*
X0158677Y0010307D02*
X0108373Y0010307D01*
X0107321Y0009915D02*
X0158677Y0009915D01*
X0158677Y0009523D02*
X0106270Y0009523D01*
X0105218Y0009130D02*
X0158677Y0009130D01*
X0158677Y0008738D02*
X0104167Y0008738D01*
X0103115Y0008346D02*
X0158677Y0008346D01*
X0158677Y0007954D02*
X0102064Y0007954D01*
X0101171Y0007621D02*
X0101171Y0007621D01*
X0100898Y0007562D02*
X0158677Y0007562D01*
X0158677Y0007169D02*
X0099095Y0007169D01*
X0097292Y0006777D02*
X0158677Y0006777D01*
X0158677Y0006385D02*
X0095489Y0006385D01*
X0093686Y0005993D02*
X0158677Y0005993D01*
X0158677Y0005601D02*
X0091883Y0005601D01*
X0088891Y0005208D02*
X0158677Y0005208D01*
X0158677Y0015014D02*
X0117903Y0015014D01*
X0118621Y0015406D02*
X0158677Y0015406D01*
X0158677Y0015798D02*
X0119340Y0015798D01*
X0120058Y0016190D02*
X0158677Y0016190D01*
X0158677Y0016582D02*
X0120751Y0016582D01*
X0121275Y0016975D02*
X0158677Y0016975D01*
X0158677Y0017367D02*
X0121799Y0017367D01*
X0122323Y0017759D02*
X0158677Y0017759D01*
X0158677Y0018151D02*
X0122847Y0018151D01*
X0123371Y0018544D02*
X0158677Y0018544D01*
X0158677Y0018936D02*
X0123895Y0018936D01*
X0124419Y0019328D02*
X0158677Y0019328D01*
X0158677Y0019720D02*
X0124943Y0019720D01*
X0125467Y0020112D02*
X0158677Y0020112D01*
X0158677Y0020505D02*
X0125991Y0020505D01*
X0126515Y0020897D02*
X0158677Y0020897D01*
X0158677Y0021289D02*
X0127039Y0021289D01*
X0127563Y0021681D02*
X0158677Y0021681D01*
X0158677Y0022073D02*
X0128086Y0022073D01*
X0128610Y0022466D02*
X0158677Y0022466D01*
X0158677Y0022858D02*
X0129134Y0022858D01*
X0129293Y0022977D02*
X0129293Y0022977D01*
X0129566Y0023250D02*
X0158677Y0023250D01*
X0158677Y0023642D02*
X0129959Y0023642D01*
X0130351Y0024034D02*
X0158677Y0024034D01*
X0158677Y0024427D02*
X0130743Y0024427D01*
X0131135Y0024819D02*
X0158677Y0024819D01*
X0158677Y0025211D02*
X0131528Y0025211D01*
X0131920Y0025603D02*
X0158677Y0025603D01*
X0158677Y0025996D02*
X0132312Y0025996D01*
X0132704Y0026388D02*
X0158677Y0026388D01*
X0158677Y0026780D02*
X0133096Y0026780D01*
X0133489Y0027172D02*
X0158677Y0027172D01*
X0158677Y0027564D02*
X0133881Y0027564D01*
X0134273Y0027957D02*
X0158677Y0027957D01*
X0158677Y0028349D02*
X0134665Y0028349D01*
X0135057Y0028741D02*
X0158677Y0028741D01*
X0158677Y0029133D02*
X0135450Y0029133D01*
X0135842Y0029525D02*
X0158677Y0029525D01*
X0158677Y0029918D02*
X0136234Y0029918D01*
X0136626Y0030310D02*
X0158677Y0030310D01*
X0158677Y0030702D02*
X0136988Y0030702D01*
X0137282Y0031094D02*
X0158677Y0031094D01*
X0158677Y0031487D02*
X0137575Y0031487D01*
X0137869Y0031879D02*
X0158677Y0031879D01*
X0158677Y0032271D02*
X0138162Y0032271D01*
X0138456Y0032663D02*
X0158677Y0032663D01*
X0158677Y0033055D02*
X0138750Y0033055D01*
X0139043Y0033448D02*
X0158677Y0033448D01*
X0158677Y0033840D02*
X0139337Y0033840D01*
X0139630Y0034232D02*
X0158677Y0034232D01*
X0158677Y0034624D02*
X0139924Y0034624D01*
X0140218Y0035016D02*
X0158677Y0035016D01*
X0158677Y0035409D02*
X0140511Y0035409D01*
X0140805Y0035801D02*
X0158677Y0035801D01*
X0158677Y0036193D02*
X0141098Y0036193D01*
X0141392Y0036585D02*
X0158677Y0036585D01*
X0158677Y0036977D02*
X0141686Y0036977D01*
X0141979Y0037370D02*
X0158677Y0037370D01*
X0158677Y0037762D02*
X0142273Y0037762D01*
X0142567Y0038154D02*
X0158677Y0038154D01*
X0158677Y0038546D02*
X0142860Y0038546D01*
X0143154Y0038939D02*
X0158677Y0038939D01*
X0158677Y0039331D02*
X0143419Y0039331D01*
X0143633Y0039723D02*
X0158677Y0039723D01*
X0158677Y0040115D02*
X0143847Y0040115D01*
X0144061Y0040507D02*
X0158677Y0040507D01*
X0158677Y0040900D02*
X0144275Y0040900D01*
X0144490Y0041292D02*
X0158677Y0041292D01*
X0158677Y0041684D02*
X0144704Y0041684D01*
X0144918Y0042076D02*
X0158677Y0042076D01*
X0158677Y0042468D02*
X0145132Y0042468D01*
X0145346Y0042861D02*
X0158677Y0042861D01*
X0158677Y0043253D02*
X0145560Y0043253D01*
X0145775Y0043645D02*
X0158677Y0043645D01*
X0158677Y0044037D02*
X0145989Y0044037D01*
X0146203Y0044430D02*
X0158677Y0044430D01*
X0158677Y0044822D02*
X0146417Y0044822D01*
X0146631Y0045214D02*
X0158677Y0045214D01*
X0158677Y0045606D02*
X0146845Y0045606D01*
X0147060Y0045998D02*
X0158677Y0045998D01*
X0158677Y0046391D02*
X0147274Y0046391D01*
X0147488Y0046783D02*
X0158677Y0046783D01*
X0158677Y0047175D02*
X0147702Y0047175D01*
X0147916Y0047567D02*
X0158677Y0047567D01*
X0158677Y0047959D02*
X0148130Y0047959D01*
X0148344Y0048352D02*
X0158677Y0048352D01*
X0158677Y0048744D02*
X0148539Y0048744D01*
X0148685Y0049136D02*
X0158677Y0049136D01*
X0158677Y0049528D02*
X0148831Y0049528D01*
X0148977Y0049920D02*
X0158677Y0049920D01*
X0158677Y0050313D02*
X0149124Y0050313D01*
X0149270Y0050705D02*
X0158677Y0050705D01*
X0158677Y0051097D02*
X0149416Y0051097D01*
X0149563Y0051489D02*
X0158677Y0051489D01*
X0158677Y0051882D02*
X0149709Y0051882D01*
X0149855Y0052274D02*
X0158677Y0052274D01*
X0158677Y0052666D02*
X0150001Y0052666D01*
X0150148Y0053058D02*
X0158677Y0053058D01*
X0158677Y0053450D02*
X0150294Y0053450D01*
X0150440Y0053843D02*
X0158677Y0053843D01*
X0158677Y0054235D02*
X0150587Y0054235D01*
X0150733Y0054627D02*
X0158677Y0054627D01*
X0158677Y0055019D02*
X0150879Y0055019D01*
X0151025Y0055411D02*
X0158677Y0055411D01*
X0158677Y0055804D02*
X0151172Y0055804D01*
X0151318Y0056196D02*
X0158677Y0056196D01*
X0158677Y0056588D02*
X0151464Y0056588D01*
X0151611Y0056980D02*
X0158677Y0056980D01*
X0158677Y0057373D02*
X0151757Y0057373D01*
X0151903Y0057765D02*
X0158677Y0057765D01*
X0158677Y0058157D02*
X0152049Y0058157D01*
X0152196Y0058549D02*
X0158677Y0058549D01*
X0158677Y0058941D02*
X0152305Y0058941D01*
X0152390Y0059334D02*
X0158677Y0059334D01*
X0158677Y0059726D02*
X0152476Y0059726D01*
X0152561Y0060118D02*
X0158677Y0060118D01*
X0158677Y0060510D02*
X0152646Y0060510D01*
X0152732Y0060902D02*
X0158677Y0060902D01*
X0158677Y0061295D02*
X0152817Y0061295D01*
X0152902Y0061687D02*
X0158677Y0061687D01*
X0158677Y0062079D02*
X0152988Y0062079D01*
X0153073Y0062471D02*
X0158677Y0062471D01*
X0158677Y0062863D02*
X0153158Y0062863D01*
X0153243Y0063256D02*
X0158677Y0063256D01*
X0158677Y0063648D02*
X0153329Y0063648D01*
X0153414Y0064040D02*
X0158677Y0064040D01*
X0158677Y0064432D02*
X0153499Y0064432D01*
X0153585Y0064825D02*
X0158677Y0064825D01*
X0158677Y0065217D02*
X0153670Y0065217D01*
X0153755Y0065609D02*
X0158677Y0065609D01*
X0158677Y0066001D02*
X0153841Y0066001D01*
X0153926Y0066393D02*
X0158677Y0066393D01*
X0158677Y0066786D02*
X0154011Y0066786D01*
X0154097Y0067178D02*
X0158677Y0067178D01*
X0158677Y0067570D02*
X0154182Y0067570D01*
X0154267Y0067962D02*
X0158677Y0067962D01*
X0158677Y0068354D02*
X0154353Y0068354D01*
X0154438Y0068747D02*
X0158677Y0068747D01*
X0158677Y0069139D02*
X0154523Y0069139D01*
X0154562Y0069531D02*
X0158677Y0069531D01*
X0158677Y0069923D02*
X0154590Y0069923D01*
X0154618Y0070316D02*
X0158677Y0070316D01*
X0158677Y0070708D02*
X0154646Y0070708D01*
X0154674Y0071100D02*
X0158677Y0071100D01*
X0158677Y0071492D02*
X0154702Y0071492D01*
X0154730Y0071884D02*
X0158677Y0071884D01*
X0158677Y0072277D02*
X0154758Y0072277D01*
X0154786Y0072669D02*
X0158677Y0072669D01*
X0158677Y0073061D02*
X0154814Y0073061D01*
X0154842Y0073453D02*
X0158677Y0073453D01*
X0158677Y0073845D02*
X0154870Y0073845D01*
X0154898Y0074238D02*
X0158677Y0074238D01*
X0158677Y0074630D02*
X0154927Y0074630D01*
X0154955Y0075022D02*
X0158677Y0075022D01*
X0158677Y0075414D02*
X0154983Y0075414D01*
X0155011Y0075806D02*
X0158677Y0075806D01*
X0158677Y0076199D02*
X0155039Y0076199D01*
X0155067Y0076591D02*
X0158677Y0076591D01*
X0158677Y0076983D02*
X0155095Y0076983D01*
X0155123Y0077375D02*
X0158677Y0077375D01*
X0158677Y0077768D02*
X0155151Y0077768D01*
X0155179Y0078160D02*
X0158677Y0078160D01*
X0158677Y0078552D02*
X0155207Y0078552D01*
X0155235Y0078944D02*
X0158677Y0078944D01*
X0158677Y0079336D02*
X0155263Y0079336D01*
X0155291Y0079729D02*
X0158677Y0079729D01*
X0158677Y0080121D02*
X0155293Y0080121D01*
X0155265Y0080513D02*
X0158677Y0080513D01*
X0158677Y0080905D02*
X0155237Y0080905D01*
X0155209Y0081297D02*
X0158677Y0081297D01*
X0158677Y0081690D02*
X0155181Y0081690D01*
X0155153Y0082082D02*
X0158677Y0082082D01*
X0158677Y0082474D02*
X0155125Y0082474D01*
X0155097Y0082866D02*
X0158677Y0082866D01*
X0158677Y0083259D02*
X0155069Y0083259D01*
X0155041Y0083651D02*
X0158677Y0083651D01*
X0158677Y0084043D02*
X0155012Y0084043D01*
X0154984Y0084435D02*
X0158677Y0084435D01*
X0158677Y0084827D02*
X0154956Y0084827D01*
X0154928Y0085220D02*
X0158677Y0085220D01*
X0158677Y0085612D02*
X0154900Y0085612D01*
X0154872Y0086004D02*
X0158677Y0086004D01*
X0158677Y0086396D02*
X0154844Y0086396D01*
X0154816Y0086788D02*
X0158677Y0086788D01*
X0158677Y0087181D02*
X0154788Y0087181D01*
X0154760Y0087573D02*
X0158677Y0087573D01*
X0158677Y0087965D02*
X0154732Y0087965D01*
X0154704Y0088357D02*
X0158677Y0088357D01*
X0158677Y0088749D02*
X0154676Y0088749D01*
X0154648Y0089142D02*
X0158677Y0089142D01*
X0158677Y0089534D02*
X0154620Y0089534D01*
X0154592Y0089926D02*
X0158677Y0089926D01*
X0158677Y0090318D02*
X0154564Y0090318D01*
X0154529Y0090711D02*
X0158677Y0090711D01*
X0158677Y0091103D02*
X0154443Y0091103D01*
X0154358Y0091495D02*
X0158677Y0091495D01*
X0158677Y0091887D02*
X0154273Y0091887D01*
X0154187Y0092279D02*
X0158677Y0092279D01*
X0158677Y0092672D02*
X0154102Y0092672D01*
X0154017Y0093064D02*
X0158677Y0093064D01*
X0158677Y0093456D02*
X0153931Y0093456D01*
X0153846Y0093848D02*
X0158677Y0093848D01*
X0158677Y0094240D02*
X0153761Y0094240D01*
X0153675Y0094633D02*
X0158677Y0094633D01*
X0158677Y0095025D02*
X0153590Y0095025D01*
X0153505Y0095417D02*
X0158677Y0095417D01*
X0158677Y0095809D02*
X0153420Y0095809D01*
X0153334Y0096202D02*
X0158677Y0096202D01*
X0158677Y0096594D02*
X0153249Y0096594D01*
X0153164Y0096986D02*
X0158677Y0096986D01*
X0158677Y0097378D02*
X0153078Y0097378D01*
X0152993Y0097770D02*
X0158677Y0097770D01*
X0158677Y0098163D02*
X0152908Y0098163D01*
X0152822Y0098555D02*
X0158677Y0098555D01*
X0158677Y0098947D02*
X0152737Y0098947D01*
X0152652Y0099339D02*
X0158677Y0099339D01*
X0158677Y0099731D02*
X0152566Y0099731D01*
X0152481Y0100124D02*
X0158677Y0100124D01*
X0158677Y0100516D02*
X0152396Y0100516D01*
X0152310Y0100908D02*
X0158677Y0100908D01*
X0158677Y0101300D02*
X0152205Y0101300D01*
X0152059Y0101692D02*
X0158677Y0101692D01*
X0158677Y0102085D02*
X0151912Y0102085D01*
X0151766Y0102477D02*
X0158677Y0102477D01*
X0158677Y0102869D02*
X0151620Y0102869D01*
X0151473Y0103261D02*
X0158677Y0103261D01*
X0158677Y0103654D02*
X0151327Y0103654D01*
X0151181Y0104046D02*
X0158677Y0104046D01*
X0158677Y0104438D02*
X0151035Y0104438D01*
X0150888Y0104830D02*
X0158677Y0104830D01*
X0158677Y0105222D02*
X0150742Y0105222D01*
X0150596Y0105615D02*
X0158677Y0105615D01*
X0158677Y0106007D02*
X0150449Y0106007D01*
X0150303Y0106399D02*
X0158677Y0106399D01*
X0158677Y0106791D02*
X0150157Y0106791D01*
X0150011Y0107183D02*
X0158677Y0107183D01*
X0158677Y0107576D02*
X0149864Y0107576D01*
X0149718Y0107968D02*
X0158677Y0107968D01*
X0158677Y0108360D02*
X0149572Y0108360D01*
X0149425Y0108752D02*
X0158677Y0108752D01*
X0158677Y0109145D02*
X0149279Y0109145D01*
X0149133Y0109537D02*
X0158677Y0109537D01*
X0158677Y0109929D02*
X0148987Y0109929D01*
X0148840Y0110321D02*
X0158677Y0110321D01*
X0158677Y0110713D02*
X0148694Y0110713D01*
X0148548Y0111106D02*
X0158677Y0111106D01*
X0158677Y0111498D02*
X0148358Y0111498D01*
X0148144Y0111890D02*
X0158677Y0111890D01*
X0158677Y0112282D02*
X0147930Y0112282D01*
X0147715Y0112674D02*
X0158677Y0112674D01*
X0158677Y0113067D02*
X0147501Y0113067D01*
X0147287Y0113459D02*
X0158677Y0113459D01*
X0158677Y0113851D02*
X0147073Y0113851D01*
X0146859Y0114243D02*
X0158677Y0114243D01*
X0158677Y0114635D02*
X0146645Y0114635D01*
X0146430Y0115028D02*
X0158677Y0115028D01*
X0158677Y0115420D02*
X0146216Y0115420D01*
X0146002Y0115812D02*
X0158677Y0115812D01*
X0158677Y0116204D02*
X0145788Y0116204D01*
X0145574Y0116597D02*
X0158677Y0116597D01*
X0158677Y0116989D02*
X0145360Y0116989D01*
X0145145Y0117381D02*
X0158677Y0117381D01*
X0158677Y0117773D02*
X0144931Y0117773D01*
X0144717Y0118165D02*
X0158677Y0118165D01*
X0158677Y0118558D02*
X0144503Y0118558D01*
X0144289Y0118950D02*
X0158677Y0118950D01*
X0158677Y0119342D02*
X0144075Y0119342D01*
X0143860Y0119734D02*
X0158677Y0119734D01*
X0158677Y0120126D02*
X0143646Y0120126D01*
X0143432Y0120519D02*
X0158677Y0120519D01*
X0158677Y0120911D02*
X0143172Y0120911D01*
X0142879Y0121303D02*
X0158677Y0121303D01*
X0158677Y0121695D02*
X0142585Y0121695D01*
X0142291Y0122087D02*
X0158677Y0122087D01*
X0158677Y0122480D02*
X0141998Y0122480D01*
X0141704Y0122872D02*
X0158677Y0122872D01*
X0158677Y0123264D02*
X0141411Y0123264D01*
X0141117Y0123656D02*
X0158677Y0123656D01*
X0158677Y0124049D02*
X0140823Y0124049D01*
X0140530Y0124441D02*
X0158677Y0124441D01*
X0158677Y0124833D02*
X0140236Y0124833D01*
X0139943Y0125225D02*
X0158677Y0125225D01*
X0158677Y0125617D02*
X0139649Y0125617D01*
X0139355Y0126010D02*
X0158677Y0126010D01*
X0158677Y0126402D02*
X0139062Y0126402D01*
X0138768Y0126794D02*
X0158677Y0126794D01*
X0158677Y0127186D02*
X0138474Y0127186D01*
X0138181Y0127578D02*
X0158677Y0127578D01*
X0158677Y0127971D02*
X0137887Y0127971D01*
X0137594Y0128363D02*
X0158677Y0128363D01*
X0158677Y0128755D02*
X0137300Y0128755D01*
X0137006Y0129147D02*
X0158677Y0129147D01*
X0158677Y0129540D02*
X0136651Y0129540D01*
X0136897Y0129293D02*
X0136897Y0129293D01*
X0136259Y0129932D02*
X0158677Y0129932D01*
X0158677Y0130324D02*
X0135866Y0130324D01*
X0135474Y0130716D02*
X0158677Y0130716D01*
X0158677Y0131108D02*
X0135082Y0131108D01*
X0134690Y0131501D02*
X0158677Y0131501D01*
X0158677Y0131893D02*
X0134298Y0131893D01*
X0133905Y0132285D02*
X0158677Y0132285D01*
X0158677Y0132677D02*
X0133513Y0132677D01*
X0133121Y0133069D02*
X0158677Y0133069D01*
X0158677Y0133462D02*
X0132729Y0133462D01*
X0132337Y0133854D02*
X0158677Y0133854D01*
X0158677Y0134246D02*
X0131944Y0134246D01*
X0131552Y0134638D02*
X0158677Y0134638D01*
X0158677Y0135030D02*
X0131160Y0135030D01*
X0130768Y0135423D02*
X0158677Y0135423D01*
X0158677Y0135815D02*
X0130376Y0135815D01*
X0129983Y0136207D02*
X0158677Y0136207D01*
X0158677Y0136599D02*
X0129591Y0136599D01*
X0129167Y0136992D02*
X0158677Y0136992D01*
X0158677Y0137384D02*
X0128643Y0137384D01*
X0128119Y0137776D02*
X0158677Y0137776D01*
X0158677Y0138168D02*
X0127595Y0138168D01*
X0127071Y0138560D02*
X0158677Y0138560D01*
X0158677Y0138953D02*
X0126548Y0138953D01*
X0126024Y0139345D02*
X0158677Y0139345D01*
X0158677Y0139737D02*
X0125500Y0139737D01*
X0124976Y0140129D02*
X0158677Y0140129D01*
X0158677Y0140521D02*
X0124452Y0140521D01*
X0123928Y0140914D02*
X0158677Y0140914D01*
X0158677Y0141306D02*
X0123404Y0141306D01*
X0122880Y0141698D02*
X0158677Y0141698D01*
X0158677Y0142090D02*
X0122356Y0142090D01*
X0121832Y0142483D02*
X0158677Y0142483D01*
X0158677Y0142875D02*
X0121308Y0142875D01*
X0120784Y0143267D02*
X0158677Y0143267D01*
X0158677Y0143659D02*
X0120103Y0143659D01*
X0120685Y0143342D02*
X0120685Y0143342D01*
X0119385Y0144051D02*
X0158677Y0144051D01*
X0158677Y0144444D02*
X0118666Y0144444D01*
X0117948Y0144836D02*
X0158677Y0144836D01*
X0158677Y0145228D02*
X0117230Y0145228D01*
X0116512Y0145620D02*
X0158677Y0145620D01*
X0158677Y0146012D02*
X0115793Y0146012D01*
X0115075Y0146405D02*
X0158677Y0146405D01*
X0158677Y0146797D02*
X0114357Y0146797D01*
X0113638Y0147189D02*
X0158677Y0147189D01*
X0158677Y0147581D02*
X0112920Y0147581D01*
X0112202Y0147973D02*
X0158677Y0147973D01*
X0158677Y0148366D02*
X0111484Y0148366D01*
X0111246Y0148495D02*
X0111246Y0148495D01*
X0110542Y0148758D02*
X0158677Y0148758D01*
X0158677Y0149150D02*
X0109490Y0149150D01*
X0108439Y0149542D02*
X0158677Y0149542D01*
X0158677Y0149935D02*
X0107387Y0149935D01*
X0106336Y0150327D02*
X0158677Y0150327D01*
X0158677Y0150719D02*
X0105284Y0150719D01*
X0104233Y0151111D02*
X0158677Y0151111D01*
X0158677Y0151503D02*
X0103308Y0151503D01*
X0102916Y0151896D02*
X0158677Y0151896D01*
X0158677Y0152288D02*
X0102524Y0152288D01*
X0102132Y0152680D02*
X0158677Y0152680D01*
X0158677Y0153072D02*
X0101739Y0153072D01*
X0101303Y0153464D02*
X0158677Y0153464D01*
X0158677Y0153857D02*
X0100716Y0153857D01*
X0100130Y0154249D02*
X0158677Y0154249D01*
X0158677Y0154641D02*
X0099543Y0154641D01*
X0098956Y0155033D02*
X0158677Y0155033D01*
X0158677Y0155426D02*
X0098369Y0155426D01*
X0097782Y0155818D02*
X0158677Y0155818D01*
X0158677Y0156210D02*
X0097195Y0156210D01*
X0096608Y0156602D02*
X0158677Y0156602D01*
X0158677Y0156994D02*
X0096021Y0156994D01*
X0095141Y0157387D02*
X0158677Y0157387D01*
X0158677Y0157779D02*
X0094194Y0157779D01*
X0093247Y0158171D02*
X0158677Y0158171D01*
X0158677Y0158563D02*
X0092300Y0158563D01*
X0112051Y0137776D02*
X0112588Y0137776D01*
X0112214Y0137384D02*
X0113306Y0137384D01*
X0114025Y0136992D02*
X0112371Y0136992D01*
X0112449Y0136599D02*
X0114743Y0136599D01*
X0115461Y0136207D02*
X0112527Y0136207D01*
X0112605Y0135815D02*
X0116113Y0135815D01*
X0116637Y0135423D02*
X0112683Y0135423D01*
X0112761Y0135030D02*
X0117161Y0135030D01*
X0117685Y0134638D02*
X0112839Y0134638D01*
X0112917Y0134246D02*
X0118209Y0134246D01*
X0118733Y0133854D02*
X0112995Y0133854D01*
X0113073Y0133462D02*
X0119257Y0133462D01*
X0119781Y0133069D02*
X0113151Y0133069D01*
X0113229Y0132677D02*
X0120305Y0132677D01*
X0120828Y0132285D02*
X0113307Y0132285D01*
X0113385Y0131893D02*
X0121352Y0131893D01*
X0121876Y0131501D02*
X0113463Y0131501D01*
X0113541Y0131108D02*
X0122400Y0131108D01*
X0122924Y0130716D02*
X0113619Y0130716D01*
X0113661Y0130324D02*
X0123448Y0130324D01*
X0123539Y0130256D02*
X0123539Y0130256D01*
X0123863Y0129932D02*
X0113661Y0129932D01*
X0113661Y0129540D02*
X0124255Y0129540D01*
X0124648Y0129147D02*
X0113661Y0129147D01*
X0113661Y0128755D02*
X0125040Y0128755D01*
X0125432Y0128363D02*
X0113661Y0128363D01*
X0113661Y0127971D02*
X0125824Y0127971D01*
X0126216Y0127578D02*
X0113661Y0127578D01*
X0113661Y0127186D02*
X0126609Y0127186D01*
X0127001Y0126794D02*
X0113661Y0126794D01*
X0113661Y0126402D02*
X0127393Y0126402D01*
X0127785Y0126010D02*
X0113661Y0126010D01*
X0113661Y0125617D02*
X0128177Y0125617D01*
X0128570Y0125225D02*
X0113661Y0125225D01*
X0113661Y0124833D02*
X0128962Y0124833D01*
X0129354Y0124441D02*
X0113661Y0124441D01*
X0113661Y0124049D02*
X0129746Y0124049D01*
X0130139Y0123656D02*
X0113621Y0123656D01*
X0113543Y0123264D02*
X0130462Y0123264D01*
X0130755Y0122872D02*
X0113465Y0122872D01*
X0113387Y0122480D02*
X0131049Y0122480D01*
X0131343Y0122087D02*
X0113309Y0122087D01*
X0113231Y0121695D02*
X0131636Y0121695D01*
X0131930Y0121303D02*
X0113153Y0121303D01*
X0113075Y0120911D02*
X0132223Y0120911D01*
X0132517Y0120519D02*
X0112997Y0120519D01*
X0112919Y0120126D02*
X0132811Y0120126D01*
X0133104Y0119734D02*
X0112841Y0119734D01*
X0112763Y0119342D02*
X0133398Y0119342D01*
X0133691Y0118950D02*
X0112685Y0118950D01*
X0112607Y0118558D02*
X0133985Y0118558D01*
X0134279Y0118165D02*
X0112529Y0118165D01*
X0112451Y0117773D02*
X0134572Y0117773D01*
X0134866Y0117381D02*
X0112373Y0117381D01*
X0112218Y0116989D02*
X0135159Y0116989D01*
X0135453Y0116597D02*
X0112056Y0116597D01*
X0111893Y0116204D02*
X0135747Y0116204D01*
X0136016Y0115812D02*
X0111731Y0115812D01*
X0111568Y0115420D02*
X0136230Y0115420D01*
X0136444Y0115028D02*
X0111406Y0115028D01*
X0111243Y0114635D02*
X0136658Y0114635D01*
X0136872Y0114243D02*
X0111081Y0114243D01*
X0110919Y0113851D02*
X0137086Y0113851D01*
X0137301Y0113459D02*
X0110756Y0113459D01*
X0110594Y0113067D02*
X0137515Y0113067D01*
X0137729Y0112674D02*
X0110431Y0112674D01*
X0110269Y0112282D02*
X0137943Y0112282D01*
X0138157Y0111890D02*
X0110106Y0111890D01*
X0109944Y0111498D02*
X0138371Y0111498D01*
X0138586Y0111106D02*
X0109756Y0111106D01*
X0109494Y0110713D02*
X0138800Y0110713D01*
X0139014Y0110321D02*
X0109232Y0110321D01*
X0108969Y0109929D02*
X0139228Y0109929D01*
X0139442Y0109537D02*
X0108707Y0109537D01*
X0108445Y0109145D02*
X0139656Y0109145D01*
X0139871Y0108752D02*
X0108183Y0108752D01*
X0107921Y0108360D02*
X0140085Y0108360D01*
X0140299Y0107968D02*
X0107659Y0107968D01*
X0107397Y0107576D02*
X0140509Y0107576D01*
X0140656Y0107183D02*
X0107135Y0107183D01*
X0106873Y0106791D02*
X0140802Y0106791D01*
X0140948Y0106399D02*
X0106611Y0106399D01*
X0106349Y0106007D02*
X0141095Y0106007D01*
X0141241Y0105615D02*
X0106064Y0105615D01*
X0105672Y0105222D02*
X0141387Y0105222D01*
X0141533Y0104830D02*
X0105280Y0104830D01*
X0104887Y0104438D02*
X0141680Y0104438D01*
X0141826Y0104046D02*
X0104495Y0104046D01*
X0104103Y0103654D02*
X0141972Y0103654D01*
X0142119Y0103261D02*
X0103711Y0103261D01*
X0103319Y0102869D02*
X0142265Y0102869D01*
X0142411Y0102477D02*
X0102926Y0102477D01*
X0102534Y0102085D02*
X0142558Y0102085D01*
X0142704Y0101692D02*
X0102142Y0101692D01*
X0101750Y0101300D02*
X0142850Y0101300D01*
X0142996Y0100908D02*
X0101319Y0100908D01*
X0100732Y0100516D02*
X0143143Y0100516D01*
X0143289Y0100124D02*
X0100145Y0100124D01*
X0099558Y0099731D02*
X0143435Y0099731D01*
X0143582Y0099339D02*
X0098971Y0099339D01*
X0098384Y0098947D02*
X0143728Y0098947D01*
X0143852Y0098555D02*
X0097797Y0098555D01*
X0097210Y0098163D02*
X0143938Y0098163D01*
X0144023Y0097770D02*
X0096623Y0097770D01*
X0096036Y0097378D02*
X0144108Y0097378D01*
X0144194Y0096986D02*
X0095166Y0096986D01*
X0094219Y0096594D02*
X0144279Y0096594D01*
X0144364Y0096202D02*
X0093272Y0096202D01*
X0092325Y0095809D02*
X0144449Y0095809D01*
X0144535Y0095417D02*
X0091378Y0095417D01*
X0090431Y0095025D02*
X0144620Y0095025D01*
X0144705Y0094633D02*
X0089598Y0094633D01*
X0089598Y0094240D02*
X0144791Y0094240D01*
X0144876Y0093848D02*
X0094701Y0093848D01*
X0095093Y0093456D02*
X0144961Y0093456D01*
X0145047Y0093064D02*
X0095485Y0093064D01*
X0095877Y0092672D02*
X0145132Y0092672D01*
X0145217Y0092279D02*
X0095898Y0092279D01*
X0096130Y0091887D02*
X0145303Y0091887D01*
X0145388Y0091495D02*
X0096466Y0091495D01*
X0096629Y0091103D02*
X0145473Y0091103D01*
X0145559Y0090711D02*
X0096791Y0090711D01*
X0096913Y0090318D02*
X0145644Y0090318D01*
X0145729Y0089926D02*
X0096913Y0089926D01*
X0096913Y0089534D02*
X0145815Y0089534D01*
X0145860Y0089142D02*
X0096913Y0089142D01*
X0096750Y0088749D02*
X0145888Y0088749D01*
X0145916Y0088357D02*
X0096588Y0088357D01*
X0096423Y0087965D02*
X0145945Y0087965D01*
X0145973Y0087573D02*
X0096031Y0087573D01*
X0095639Y0087181D02*
X0125326Y0087181D01*
X0124428Y0086809D02*
X0126228Y0087554D01*
X0128176Y0087554D01*
X0129976Y0086809D01*
X0131353Y0085431D01*
X0132099Y0083632D01*
X0132099Y0081683D01*
X0131353Y0079884D01*
X0129976Y0078506D01*
X0128176Y0077761D01*
X0126228Y0077761D01*
X0124428Y0078506D01*
X0123051Y0079884D01*
X0122305Y0081683D01*
X0122305Y0083632D01*
X0123051Y0085431D01*
X0124428Y0086809D01*
X0124408Y0086788D02*
X0094849Y0086788D01*
X0092584Y0086788D02*
X0090583Y0086788D01*
X0090583Y0086396D02*
X0124016Y0086396D01*
X0123623Y0086004D02*
X0090583Y0086004D01*
X0090583Y0085612D02*
X0123231Y0085612D01*
X0122963Y0085220D02*
X0090583Y0085220D01*
X0090583Y0084827D02*
X0122801Y0084827D01*
X0122638Y0084435D02*
X0090583Y0084435D01*
X0090583Y0084043D02*
X0122476Y0084043D01*
X0122313Y0083651D02*
X0090583Y0083651D01*
X0090583Y0083259D02*
X0122305Y0083259D01*
X0122305Y0082866D02*
X0090583Y0082866D01*
X0090583Y0082474D02*
X0122305Y0082474D01*
X0122305Y0082082D02*
X0090583Y0082082D01*
X0090583Y0081690D02*
X0122305Y0081690D01*
X0122465Y0081297D02*
X0090583Y0081297D01*
X0090583Y0080905D02*
X0122628Y0080905D01*
X0122790Y0080513D02*
X0090583Y0080513D01*
X0090583Y0080121D02*
X0122952Y0080121D01*
X0123206Y0079729D02*
X0090583Y0079729D01*
X0090583Y0079336D02*
X0123598Y0079336D01*
X0123990Y0078944D02*
X0090583Y0078944D01*
X0090583Y0078552D02*
X0124382Y0078552D01*
X0125264Y0078160D02*
X0090583Y0078160D01*
X0090583Y0077768D02*
X0126211Y0077768D01*
X0126228Y0077554D02*
X0124428Y0076809D01*
X0123051Y0075431D01*
X0122305Y0073632D01*
X0122305Y0071683D01*
X0123051Y0069884D01*
X0124428Y0068506D01*
X0126228Y0067761D01*
X0128176Y0067761D01*
X0129976Y0068506D01*
X0131353Y0069884D01*
X0132099Y0071683D01*
X0132099Y0073632D01*
X0131353Y0075431D01*
X0129976Y0076809D01*
X0128176Y0077554D01*
X0126228Y0077554D01*
X0125796Y0077375D02*
X0090583Y0077375D01*
X0090583Y0076983D02*
X0124849Y0076983D01*
X0124210Y0076591D02*
X0090583Y0076591D01*
X0090583Y0076199D02*
X0123818Y0076199D01*
X0123426Y0075806D02*
X0090583Y0075806D01*
X0090583Y0075414D02*
X0123044Y0075414D01*
X0122881Y0075022D02*
X0090583Y0075022D01*
X0090583Y0074630D02*
X0122719Y0074630D01*
X0122556Y0074238D02*
X0090583Y0074238D01*
X0090583Y0073845D02*
X0122394Y0073845D01*
X0122305Y0073453D02*
X0090583Y0073453D01*
X0090583Y0073061D02*
X0122305Y0073061D01*
X0122305Y0072669D02*
X0090583Y0072669D01*
X0090583Y0072277D02*
X0122305Y0072277D01*
X0122305Y0071884D02*
X0090583Y0071884D01*
X0090583Y0071492D02*
X0122384Y0071492D01*
X0122547Y0071100D02*
X0090583Y0071100D01*
X0090583Y0070708D02*
X0122709Y0070708D01*
X0122872Y0070316D02*
X0090583Y0070316D01*
X0090583Y0069923D02*
X0123034Y0069923D01*
X0123403Y0069531D02*
X0090583Y0069531D01*
X0090583Y0069139D02*
X0123796Y0069139D01*
X0124188Y0068747D02*
X0090518Y0068747D01*
X0090126Y0068354D02*
X0124794Y0068354D01*
X0125741Y0067962D02*
X0089598Y0067962D01*
X0089598Y0067570D02*
X0145212Y0067570D01*
X0145127Y0067178D02*
X0129085Y0067178D01*
X0128663Y0067962D02*
X0145297Y0067962D01*
X0145383Y0068354D02*
X0129610Y0068354D01*
X0130216Y0068747D02*
X0145468Y0068747D01*
X0145553Y0069139D02*
X0130609Y0069139D01*
X0131001Y0069531D02*
X0145639Y0069531D01*
X0145724Y0069923D02*
X0131370Y0069923D01*
X0131532Y0070316D02*
X0145809Y0070316D01*
X0145841Y0070461D02*
X0145841Y0070461D01*
X0145859Y0070708D02*
X0131695Y0070708D01*
X0131857Y0071100D02*
X0145887Y0071100D01*
X0145915Y0071492D02*
X0132020Y0071492D01*
X0132099Y0071884D02*
X0145943Y0071884D01*
X0145971Y0072277D02*
X0132099Y0072277D01*
X0132099Y0072669D02*
X0145999Y0072669D01*
X0146027Y0073061D02*
X0132099Y0073061D01*
X0132099Y0073453D02*
X0146055Y0073453D01*
X0146083Y0073845D02*
X0132010Y0073845D01*
X0131848Y0074238D02*
X0146111Y0074238D01*
X0146139Y0074630D02*
X0131685Y0074630D01*
X0131523Y0075022D02*
X0146167Y0075022D01*
X0146195Y0075414D02*
X0131361Y0075414D01*
X0130978Y0075806D02*
X0146223Y0075806D01*
X0146251Y0076199D02*
X0130586Y0076199D01*
X0130194Y0076591D02*
X0146279Y0076591D01*
X0146307Y0076983D02*
X0129555Y0076983D01*
X0128608Y0077375D02*
X0146336Y0077375D01*
X0146364Y0077768D02*
X0128193Y0077768D01*
X0129140Y0078160D02*
X0146392Y0078160D01*
X0146420Y0078552D02*
X0130022Y0078552D01*
X0130414Y0078944D02*
X0146448Y0078944D01*
X0146476Y0079336D02*
X0130806Y0079336D01*
X0131198Y0079729D02*
X0146504Y0079729D01*
X0146506Y0080121D02*
X0131452Y0080121D01*
X0131614Y0080513D02*
X0146478Y0080513D01*
X0146449Y0080905D02*
X0131777Y0080905D01*
X0131939Y0081297D02*
X0146421Y0081297D01*
X0146393Y0081690D02*
X0132099Y0081690D01*
X0132099Y0082082D02*
X0146365Y0082082D01*
X0146337Y0082474D02*
X0132099Y0082474D01*
X0132099Y0082866D02*
X0146309Y0082866D01*
X0146281Y0083259D02*
X0132099Y0083259D01*
X0132091Y0083651D02*
X0146253Y0083651D01*
X0146225Y0084043D02*
X0131929Y0084043D01*
X0131766Y0084435D02*
X0146197Y0084435D01*
X0146169Y0084827D02*
X0131604Y0084827D01*
X0131441Y0085220D02*
X0146141Y0085220D01*
X0146113Y0085612D02*
X0131173Y0085612D01*
X0130781Y0086004D02*
X0146085Y0086004D01*
X0146057Y0086396D02*
X0130389Y0086396D01*
X0129996Y0086788D02*
X0146029Y0086788D01*
X0146001Y0087181D02*
X0129078Y0087181D01*
X0128176Y0067554D02*
X0126228Y0067554D01*
X0124428Y0066809D01*
X0123051Y0065431D01*
X0122305Y0063632D01*
X0122305Y0061683D01*
X0123051Y0059884D01*
X0124428Y0058506D01*
X0126228Y0057761D01*
X0128176Y0057761D01*
X0129976Y0058506D01*
X0131353Y0059884D01*
X0132099Y0061683D01*
X0132099Y0063632D01*
X0131353Y0065431D01*
X0129976Y0066809D01*
X0128176Y0067554D01*
X0129999Y0066786D02*
X0145041Y0066786D01*
X0144956Y0066393D02*
X0130391Y0066393D01*
X0130784Y0066001D02*
X0144871Y0066001D01*
X0144785Y0065609D02*
X0131176Y0065609D01*
X0131442Y0065217D02*
X0144700Y0065217D01*
X0144615Y0064825D02*
X0131605Y0064825D01*
X0131767Y0064432D02*
X0144529Y0064432D01*
X0144444Y0064040D02*
X0131930Y0064040D01*
X0132092Y0063648D02*
X0144359Y0063648D01*
X0144274Y0063256D02*
X0132099Y0063256D01*
X0132099Y0062863D02*
X0144188Y0062863D01*
X0144103Y0062471D02*
X0132099Y0062471D01*
X0132099Y0062079D02*
X0144018Y0062079D01*
X0143932Y0061687D02*
X0132099Y0061687D01*
X0131938Y0061295D02*
X0143847Y0061295D01*
X0143719Y0060902D02*
X0131775Y0060902D01*
X0131613Y0060510D02*
X0143572Y0060510D01*
X0143426Y0060118D02*
X0131450Y0060118D01*
X0131196Y0059726D02*
X0143280Y0059726D01*
X0143133Y0059334D02*
X0130803Y0059334D01*
X0130411Y0058941D02*
X0142987Y0058941D01*
X0142841Y0058549D02*
X0130019Y0058549D01*
X0129133Y0058157D02*
X0142695Y0058157D01*
X0142548Y0057765D02*
X0128186Y0057765D01*
X0128176Y0057554D02*
X0126228Y0057554D01*
X0124428Y0056809D01*
X0123051Y0055431D01*
X0122305Y0053632D01*
X0122305Y0051683D01*
X0123051Y0049884D01*
X0124428Y0048506D01*
X0126228Y0047761D01*
X0128176Y0047761D01*
X0129976Y0048506D01*
X0131353Y0049884D01*
X0132099Y0051683D01*
X0132099Y0053632D01*
X0131353Y0055431D01*
X0129976Y0056809D01*
X0128176Y0057554D01*
X0128615Y0057373D02*
X0142402Y0057373D01*
X0142256Y0056980D02*
X0129562Y0056980D01*
X0130197Y0056588D02*
X0142109Y0056588D01*
X0141963Y0056196D02*
X0130589Y0056196D01*
X0130981Y0055804D02*
X0141817Y0055804D01*
X0141671Y0055411D02*
X0131362Y0055411D01*
X0131524Y0055019D02*
X0141524Y0055019D01*
X0141378Y0054627D02*
X0131687Y0054627D01*
X0131849Y0054235D02*
X0141232Y0054235D01*
X0141085Y0053843D02*
X0132012Y0053843D01*
X0132099Y0053450D02*
X0140939Y0053450D01*
X0140793Y0053058D02*
X0132099Y0053058D01*
X0132099Y0052666D02*
X0140647Y0052666D01*
X0140500Y0052274D02*
X0132099Y0052274D01*
X0132099Y0051882D02*
X0140285Y0051882D01*
X0140071Y0051489D02*
X0132019Y0051489D01*
X0131856Y0051097D02*
X0139857Y0051097D01*
X0139643Y0050705D02*
X0131694Y0050705D01*
X0131531Y0050313D02*
X0139429Y0050313D01*
X0139215Y0049920D02*
X0131369Y0049920D01*
X0130998Y0049528D02*
X0139000Y0049528D01*
X0138786Y0049136D02*
X0130606Y0049136D01*
X0130214Y0048744D02*
X0138572Y0048744D01*
X0138358Y0048352D02*
X0129603Y0048352D01*
X0128656Y0047959D02*
X0138144Y0047959D01*
X0137930Y0047567D02*
X0124753Y0047567D01*
X0125152Y0047175D02*
X0125312Y0047175D01*
X0125748Y0047959D02*
X0124354Y0047959D01*
X0123954Y0048352D02*
X0124801Y0048352D01*
X0124191Y0048744D02*
X0123555Y0048744D01*
X0123798Y0049136D02*
X0123155Y0049136D01*
X0123406Y0049528D02*
X0122756Y0049528D01*
X0123035Y0049920D02*
X0122356Y0049920D01*
X0121957Y0050313D02*
X0122873Y0050313D01*
X0122711Y0050705D02*
X0121557Y0050705D01*
X0121158Y0051097D02*
X0122548Y0051097D01*
X0122386Y0051489D02*
X0120831Y0051489D01*
X0120360Y0051882D02*
X0122305Y0051882D01*
X0122305Y0052274D02*
X0119575Y0052274D01*
X0118791Y0052666D02*
X0122305Y0052666D01*
X0122305Y0053058D02*
X0118006Y0053058D01*
X0117222Y0053450D02*
X0122305Y0053450D01*
X0122393Y0053843D02*
X0116438Y0053843D01*
X0115653Y0054235D02*
X0122555Y0054235D01*
X0122718Y0054627D02*
X0113811Y0054627D01*
X0113811Y0054235D02*
X0115288Y0054235D01*
X0113811Y0055019D02*
X0122880Y0055019D01*
X0123043Y0055411D02*
X0113635Y0055411D01*
X0113243Y0055804D02*
X0123423Y0055804D01*
X0123815Y0056196D02*
X0090386Y0056196D01*
X0090386Y0056588D02*
X0124208Y0056588D01*
X0124842Y0056980D02*
X0113397Y0056980D01*
X0113349Y0056932D02*
X0113572Y0057155D01*
X0113729Y0057428D01*
X0113811Y0057732D01*
X0113811Y0060055D01*
X0111236Y0060055D01*
X0111236Y0056693D01*
X0112772Y0056693D01*
X0113076Y0056774D01*
X0113349Y0056932D01*
X0113698Y0057373D02*
X0125789Y0057373D01*
X0126218Y0057765D02*
X0113811Y0057765D01*
X0113811Y0058157D02*
X0125271Y0058157D01*
X0124385Y0058549D02*
X0113811Y0058549D01*
X0113811Y0058941D02*
X0123993Y0058941D01*
X0123601Y0059334D02*
X0113811Y0059334D01*
X0113811Y0059726D02*
X0123209Y0059726D01*
X0122954Y0060118D02*
X0111236Y0060118D01*
X0111236Y0060055D02*
X0111236Y0060449D01*
X0110843Y0060449D01*
X0110843Y0063811D01*
X0109307Y0063811D01*
X0109003Y0063729D01*
X0108730Y0063572D01*
X0108507Y0063349D01*
X0108349Y0063076D01*
X0108268Y0062772D01*
X0108268Y0060449D01*
X0110842Y0060449D01*
X0110842Y0060055D01*
X0108268Y0060055D01*
X0108268Y0057732D01*
X0108349Y0057428D01*
X0108507Y0057155D01*
X0108730Y0056932D01*
X0109003Y0056774D01*
X0109307Y0056693D01*
X0110843Y0056693D01*
X0110843Y0060055D01*
X0111236Y0060055D01*
X0111236Y0059726D02*
X0110843Y0059726D01*
X0110842Y0060118D02*
X0106724Y0060118D01*
X0106724Y0060510D02*
X0108268Y0060510D01*
X0108268Y0060902D02*
X0106724Y0060902D01*
X0106724Y0061295D02*
X0108268Y0061295D01*
X0108268Y0061687D02*
X0106724Y0061687D01*
X0106724Y0062079D02*
X0108268Y0062079D01*
X0108268Y0062471D02*
X0106724Y0062471D01*
X0106724Y0062863D02*
X0108292Y0062863D01*
X0108453Y0063256D02*
X0106579Y0063256D01*
X0106724Y0063110D02*
X0106023Y0063811D01*
X0101882Y0063811D01*
X0101181Y0063110D01*
X0101181Y0062433D01*
X0098346Y0062433D01*
X0097952Y0062827D01*
X0093418Y0062827D01*
X0092717Y0062126D01*
X0092717Y0057985D01*
X0093418Y0057283D01*
X0097952Y0057283D01*
X0098654Y0057985D01*
X0098654Y0058071D01*
X0101181Y0058071D01*
X0101181Y0057394D01*
X0101882Y0056693D01*
X0106023Y0056693D01*
X0106724Y0057394D01*
X0106724Y0063110D01*
X0106186Y0063648D02*
X0108861Y0063648D01*
X0110843Y0063648D02*
X0111236Y0063648D01*
X0111236Y0063811D02*
X0111236Y0060449D01*
X0113811Y0060449D01*
X0113811Y0062772D01*
X0113729Y0063076D01*
X0113572Y0063349D01*
X0113349Y0063572D01*
X0113076Y0063729D01*
X0112772Y0063811D01*
X0111236Y0063811D01*
X0111236Y0063256D02*
X0110843Y0063256D01*
X0110843Y0062863D02*
X0111236Y0062863D01*
X0111236Y0062471D02*
X0110843Y0062471D01*
X0110843Y0062079D02*
X0111236Y0062079D01*
X0111236Y0061687D02*
X0110843Y0061687D01*
X0110843Y0061295D02*
X0111236Y0061295D01*
X0111236Y0060902D02*
X0110843Y0060902D01*
X0110843Y0060510D02*
X0111236Y0060510D01*
X0111236Y0059334D02*
X0110843Y0059334D01*
X0110843Y0058941D02*
X0111236Y0058941D01*
X0111236Y0058549D02*
X0110843Y0058549D01*
X0110843Y0058157D02*
X0111236Y0058157D01*
X0111236Y0057765D02*
X0110843Y0057765D01*
X0110843Y0057373D02*
X0111236Y0057373D01*
X0111236Y0056980D02*
X0110843Y0056980D01*
X0108835Y0055804D02*
X0106157Y0055804D01*
X0106023Y0055937D02*
X0101882Y0055937D01*
X0101181Y0055236D01*
X0101181Y0054165D01*
X0098654Y0054165D01*
X0098654Y0054645D01*
X0097952Y0055346D01*
X0093418Y0055346D01*
X0092717Y0054645D01*
X0092717Y0050504D01*
X0093418Y0049803D01*
X0097952Y0049803D01*
X0098654Y0050504D01*
X0098654Y0050591D01*
X0101181Y0050591D01*
X0101181Y0049520D01*
X0101882Y0048819D01*
X0106023Y0048819D01*
X0106724Y0049520D01*
X0106724Y0055236D01*
X0106023Y0055937D01*
X0106549Y0055411D02*
X0108443Y0055411D01*
X0108268Y0055019D02*
X0106724Y0055019D01*
X0106724Y0054627D02*
X0108268Y0054627D01*
X0108268Y0054235D02*
X0106724Y0054235D01*
X0106724Y0053843D02*
X0108268Y0053843D01*
X0108268Y0053450D02*
X0106724Y0053450D01*
X0106724Y0053058D02*
X0108268Y0053058D01*
X0108268Y0052666D02*
X0106724Y0052666D01*
X0106724Y0052274D02*
X0108268Y0052274D01*
X0108268Y0051882D02*
X0106724Y0051882D01*
X0106724Y0051489D02*
X0108268Y0051489D01*
X0108268Y0051097D02*
X0106724Y0051097D01*
X0106724Y0050705D02*
X0108268Y0050705D01*
X0108268Y0050313D02*
X0106724Y0050313D01*
X0106724Y0049920D02*
X0108268Y0049920D01*
X0108268Y0049528D02*
X0106724Y0049528D01*
X0106340Y0049136D02*
X0108652Y0049136D01*
X0113427Y0049136D02*
X0117857Y0049136D01*
X0118452Y0048744D02*
X0082709Y0048744D01*
X0082709Y0049136D02*
X0101565Y0049136D01*
X0101181Y0049528D02*
X0082709Y0049528D01*
X0082709Y0049920D02*
X0093300Y0049920D01*
X0092908Y0050313D02*
X0082709Y0050313D01*
X0082709Y0050705D02*
X0092717Y0050705D01*
X0092717Y0051097D02*
X0082709Y0051097D01*
X0082321Y0051489D02*
X0092717Y0051489D01*
X0092717Y0051882D02*
X0082118Y0051882D01*
X0082118Y0052274D02*
X0092717Y0052274D01*
X0092717Y0052666D02*
X0082118Y0052666D01*
X0082118Y0053058D02*
X0092717Y0053058D01*
X0092717Y0053450D02*
X0082118Y0053450D01*
X0082118Y0053843D02*
X0084851Y0053843D01*
X0084458Y0054235D02*
X0082118Y0054235D01*
X0082118Y0054627D02*
X0084449Y0054627D01*
X0084449Y0055019D02*
X0082118Y0055019D01*
X0082118Y0055411D02*
X0084449Y0055411D01*
X0084449Y0055804D02*
X0082118Y0055804D01*
X0082118Y0056196D02*
X0084449Y0056196D01*
X0084449Y0056588D02*
X0082118Y0056588D01*
X0082118Y0056980D02*
X0084449Y0056980D01*
X0084449Y0057373D02*
X0082118Y0057373D01*
X0082118Y0057765D02*
X0084449Y0057765D01*
X0084449Y0058157D02*
X0082118Y0058157D01*
X0082118Y0058549D02*
X0084612Y0058549D01*
X0084962Y0058941D02*
X0082118Y0058941D01*
X0082118Y0059334D02*
X0084962Y0059334D01*
X0084962Y0059726D02*
X0082118Y0059726D01*
X0082118Y0060118D02*
X0084962Y0060118D01*
X0084962Y0060510D02*
X0082118Y0060510D01*
X0082118Y0060902D02*
X0084962Y0060902D01*
X0084962Y0061295D02*
X0082118Y0061295D01*
X0082118Y0061687D02*
X0084962Y0061687D01*
X0083406Y0062079D02*
X0082768Y0062079D01*
X0077756Y0061687D02*
X0076213Y0061687D01*
X0076213Y0061295D02*
X0077756Y0061295D01*
X0077756Y0060902D02*
X0076213Y0060902D01*
X0076213Y0060510D02*
X0077756Y0060510D01*
X0077756Y0060118D02*
X0076213Y0060118D01*
X0076213Y0059726D02*
X0077756Y0059726D01*
X0077756Y0059334D02*
X0076213Y0059334D01*
X0076213Y0058941D02*
X0077756Y0058941D01*
X0077756Y0058549D02*
X0076213Y0058549D01*
X0076213Y0058157D02*
X0077756Y0058157D01*
X0077756Y0057765D02*
X0076213Y0057765D01*
X0076205Y0057373D02*
X0077756Y0057373D01*
X0077756Y0056980D02*
X0075813Y0056980D01*
X0075421Y0056588D02*
X0077756Y0056588D01*
X0077756Y0056196D02*
X0075028Y0056196D01*
X0077756Y0055804D02*
X0063614Y0055804D01*
X0063344Y0055411D02*
X0077756Y0055411D01*
X0077756Y0055019D02*
X0062952Y0055019D01*
X0070187Y0062079D02*
X0070807Y0062079D01*
X0076468Y0062079D02*
X0077106Y0062079D01*
X0089324Y0062079D02*
X0092717Y0062079D01*
X0092717Y0061687D02*
X0089324Y0061687D01*
X0089324Y0061295D02*
X0092717Y0061295D01*
X0092717Y0060902D02*
X0089324Y0060902D01*
X0089324Y0060510D02*
X0092717Y0060510D01*
X0092717Y0060118D02*
X0089324Y0060118D01*
X0089324Y0059726D02*
X0092717Y0059726D01*
X0092717Y0059334D02*
X0089324Y0059334D01*
X0089830Y0058941D02*
X0092717Y0058941D01*
X0092717Y0058549D02*
X0090222Y0058549D01*
X0090386Y0058157D02*
X0092717Y0058157D01*
X0092936Y0057765D02*
X0090386Y0057765D01*
X0090386Y0057373D02*
X0093329Y0057373D01*
X0093090Y0055019D02*
X0090386Y0055019D01*
X0090386Y0054627D02*
X0092717Y0054627D01*
X0092717Y0054235D02*
X0090376Y0054235D01*
X0089984Y0053843D02*
X0092717Y0053843D01*
X0090386Y0055411D02*
X0101357Y0055411D01*
X0101181Y0055019D02*
X0098280Y0055019D01*
X0098654Y0054627D02*
X0101181Y0054627D01*
X0101181Y0054235D02*
X0098654Y0054235D01*
X0098041Y0057373D02*
X0101203Y0057373D01*
X0101181Y0057765D02*
X0098434Y0057765D01*
X0101595Y0056980D02*
X0090386Y0056980D01*
X0090386Y0055804D02*
X0101749Y0055804D01*
X0106311Y0056980D02*
X0108681Y0056980D01*
X0108381Y0057373D02*
X0106703Y0057373D01*
X0106724Y0057765D02*
X0108268Y0057765D01*
X0108268Y0058157D02*
X0106724Y0058157D01*
X0106724Y0058549D02*
X0108268Y0058549D01*
X0108268Y0058941D02*
X0106724Y0058941D01*
X0106724Y0059334D02*
X0108268Y0059334D01*
X0108268Y0059726D02*
X0106724Y0059726D01*
X0101181Y0062471D02*
X0098308Y0062471D01*
X0101181Y0062863D02*
X0089598Y0062863D01*
X0089598Y0063256D02*
X0101327Y0063256D01*
X0101719Y0063648D02*
X0089598Y0063648D01*
X0089598Y0064040D02*
X0122474Y0064040D01*
X0122312Y0063648D02*
X0113217Y0063648D01*
X0113626Y0063256D02*
X0122305Y0063256D01*
X0122305Y0062863D02*
X0113786Y0062863D01*
X0113811Y0062471D02*
X0122305Y0062471D01*
X0122305Y0062079D02*
X0113811Y0062079D01*
X0113811Y0061687D02*
X0122305Y0061687D01*
X0122466Y0061295D02*
X0113811Y0061295D01*
X0113811Y0060902D02*
X0122629Y0060902D01*
X0122791Y0060510D02*
X0113811Y0060510D01*
X0122637Y0064432D02*
X0089598Y0064432D01*
X0089598Y0064825D02*
X0122799Y0064825D01*
X0122962Y0065217D02*
X0089598Y0065217D01*
X0089598Y0065609D02*
X0123228Y0065609D01*
X0123621Y0066001D02*
X0089598Y0066001D01*
X0089598Y0066393D02*
X0124013Y0066393D01*
X0124405Y0066786D02*
X0089598Y0066786D01*
X0089598Y0067178D02*
X0125319Y0067178D01*
X0116288Y0049920D02*
X0113811Y0049920D01*
X0113811Y0049528D02*
X0117073Y0049528D01*
X0115504Y0050313D02*
X0113811Y0050313D01*
X0118852Y0048352D02*
X0082709Y0048352D01*
X0082709Y0047959D02*
X0119251Y0047959D01*
X0119651Y0047567D02*
X0082709Y0047567D01*
X0082709Y0047175D02*
X0120050Y0047175D01*
X0120449Y0046783D02*
X0082709Y0046783D01*
X0082532Y0046391D02*
X0120849Y0046391D01*
X0121248Y0045998D02*
X0082140Y0045998D01*
X0072441Y0032271D02*
X0037248Y0032271D01*
X0037186Y0031879D02*
X0072441Y0031879D01*
X0072441Y0031487D02*
X0037097Y0031487D01*
X0036970Y0031094D02*
X0072441Y0031094D01*
X0072441Y0030702D02*
X0036803Y0030702D01*
X0036603Y0030310D02*
X0072441Y0030310D01*
X0072752Y0029918D02*
X0036336Y0029918D01*
X0036459Y0029525D02*
X0123409Y0029525D01*
X0122891Y0029133D02*
X0036983Y0029133D01*
X0037507Y0028741D02*
X0122367Y0028741D01*
X0130199Y0036585D02*
X0130443Y0036585D01*
X0130737Y0036977D02*
X0129569Y0036977D01*
X0128622Y0037370D02*
X0131030Y0037370D01*
X0131324Y0037762D02*
X0128179Y0037762D01*
X0129126Y0038154D02*
X0131618Y0038154D01*
X0131911Y0038546D02*
X0130016Y0038546D01*
X0130408Y0038939D02*
X0132205Y0038939D01*
X0132499Y0039331D02*
X0130801Y0039331D01*
X0131193Y0039723D02*
X0132792Y0039723D01*
X0133086Y0040115D02*
X0131449Y0040115D01*
X0131612Y0040507D02*
X0133379Y0040507D01*
X0133673Y0040900D02*
X0131774Y0040900D01*
X0131937Y0041292D02*
X0133967Y0041292D01*
X0134260Y0041684D02*
X0132099Y0041684D01*
X0132099Y0042076D02*
X0134554Y0042076D01*
X0134847Y0042468D02*
X0132099Y0042468D01*
X0132099Y0042861D02*
X0135141Y0042861D01*
X0135435Y0043253D02*
X0132099Y0043253D01*
X0132093Y0043645D02*
X0135728Y0043645D01*
X0136002Y0044037D02*
X0131931Y0044037D01*
X0131768Y0044430D02*
X0136216Y0044430D01*
X0136430Y0044822D02*
X0131606Y0044822D01*
X0131443Y0045214D02*
X0136645Y0045214D01*
X0136859Y0045606D02*
X0131179Y0045606D01*
X0130786Y0045998D02*
X0137073Y0045998D01*
X0137287Y0046391D02*
X0130394Y0046391D01*
X0130002Y0046783D02*
X0137501Y0046783D01*
X0137715Y0047175D02*
X0129092Y0047175D01*
X0122473Y0044037D02*
X0113088Y0044037D01*
X0113583Y0043645D02*
X0122311Y0043645D01*
X0122305Y0043253D02*
X0113766Y0043253D01*
X0113811Y0042861D02*
X0122305Y0042861D01*
X0122305Y0042468D02*
X0113811Y0042468D01*
X0113811Y0042076D02*
X0122305Y0042076D01*
X0122305Y0041684D02*
X0113811Y0041684D01*
X0113811Y0041292D02*
X0122467Y0041292D01*
X0122630Y0040900D02*
X0113811Y0040900D01*
X0111236Y0041292D02*
X0110843Y0041292D01*
X0110843Y0041684D02*
X0111236Y0041684D01*
X0111236Y0042076D02*
X0110843Y0042076D01*
X0110843Y0042468D02*
X0111236Y0042468D01*
X0111236Y0042861D02*
X0110843Y0042861D01*
X0110843Y0043253D02*
X0111236Y0043253D01*
X0111236Y0043645D02*
X0110843Y0043645D01*
X0110843Y0044037D02*
X0111236Y0044037D01*
X0101181Y0049920D02*
X0098070Y0049920D01*
X0098462Y0050313D02*
X0101181Y0050313D01*
X0093062Y0062471D02*
X0089459Y0062471D01*
X0090583Y0087181D02*
X0091794Y0087181D01*
X0091402Y0087573D02*
X0090583Y0087573D01*
X0090583Y0087965D02*
X0091010Y0087965D01*
X0090845Y0088357D02*
X0090583Y0088357D01*
X0090534Y0088749D02*
X0090683Y0088749D01*
X0090520Y0089142D02*
X0090141Y0089142D01*
X0090520Y0089534D02*
X0089598Y0089534D01*
X0067549Y0095809D02*
X0055937Y0095809D01*
X0055937Y0096202D02*
X0066602Y0096202D01*
X0065655Y0096594D02*
X0055937Y0096594D01*
X0055937Y0096986D02*
X0064708Y0096986D01*
X0063838Y0097378D02*
X0055827Y0097378D01*
X0055529Y0097770D02*
X0063251Y0097770D01*
X0052575Y0097770D02*
X0052181Y0097770D01*
X0052181Y0097378D02*
X0052575Y0097378D01*
X0052575Y0096986D02*
X0052181Y0096986D01*
X0052181Y0096594D02*
X0052575Y0096594D01*
X0052575Y0096202D02*
X0052181Y0096202D01*
X0052181Y0095809D02*
X0052575Y0095809D01*
X0052575Y0094633D02*
X0052181Y0094633D01*
X0052181Y0094240D02*
X0052575Y0094240D01*
X0052575Y0093848D02*
X0052181Y0093848D01*
X0052181Y0093456D02*
X0052575Y0093456D01*
X0052575Y0093064D02*
X0052181Y0093064D01*
X0052181Y0092672D02*
X0052575Y0092672D01*
X0049432Y0092672D02*
X0014742Y0092672D01*
X0014827Y0093064D02*
X0049011Y0093064D01*
X0048846Y0093456D02*
X0014913Y0093456D01*
X0014998Y0093848D02*
X0048819Y0093848D01*
X0048819Y0094240D02*
X0015083Y0094240D01*
X0015169Y0094633D02*
X0048819Y0094633D01*
X0048819Y0095025D02*
X0015254Y0095025D01*
X0014315Y0090711D02*
X0049254Y0090711D01*
X0048862Y0090318D02*
X0014230Y0090318D01*
X0014145Y0089926D02*
X0048819Y0089926D01*
X0048819Y0089534D02*
X0014059Y0089534D01*
X0014014Y0089142D02*
X0048819Y0089142D01*
X0048819Y0088749D02*
X0013986Y0088749D01*
X0013958Y0088357D02*
X0048819Y0088357D01*
X0048819Y0087965D02*
X0013929Y0087965D01*
X0013901Y0087573D02*
X0048819Y0087573D01*
X0048819Y0087181D02*
X0013873Y0087181D01*
X0013845Y0086788D02*
X0048819Y0086788D01*
X0048819Y0086396D02*
X0013817Y0086396D01*
X0013789Y0086004D02*
X0048949Y0086004D01*
X0049341Y0085612D02*
X0013761Y0085612D01*
X0013733Y0085220D02*
X0050591Y0085220D01*
X0050591Y0084827D02*
X0013705Y0084827D01*
X0013677Y0084435D02*
X0050591Y0084435D01*
X0050591Y0084043D02*
X0013649Y0084043D01*
X0013621Y0083651D02*
X0050591Y0083651D01*
X0050591Y0083259D02*
X0013593Y0083259D01*
X0013565Y0082866D02*
X0050591Y0082866D01*
X0050591Y0082474D02*
X0013537Y0082474D01*
X0013509Y0082082D02*
X0049287Y0082082D01*
X0048895Y0081690D02*
X0013481Y0081690D01*
X0013453Y0081297D02*
X0048819Y0081297D01*
X0048819Y0080905D02*
X0013425Y0080905D01*
X0013396Y0080513D02*
X0048819Y0080513D01*
X0048819Y0080121D02*
X0013368Y0080121D01*
X0013370Y0079729D02*
X0048819Y0079729D01*
X0048819Y0079336D02*
X0013398Y0079336D01*
X0013426Y0078944D02*
X0048819Y0078944D01*
X0048819Y0078552D02*
X0013454Y0078552D01*
X0013482Y0078160D02*
X0048819Y0078160D01*
X0048819Y0077768D02*
X0013510Y0077768D01*
X0017618Y0056980D02*
X0029681Y0056980D01*
X0029241Y0056588D02*
X0017765Y0056588D01*
X0017911Y0056196D02*
X0028849Y0056196D01*
X0028457Y0055804D02*
X0018057Y0055804D01*
X0018203Y0055411D02*
X0028157Y0055411D01*
X0027994Y0055019D02*
X0018350Y0055019D01*
X0018496Y0054627D02*
X0027832Y0054627D01*
X0027669Y0054235D02*
X0018642Y0054235D01*
X0018789Y0053843D02*
X0027507Y0053843D01*
X0027477Y0053450D02*
X0018935Y0053450D01*
X0019081Y0053058D02*
X0027477Y0053058D01*
X0027477Y0052666D02*
X0019227Y0052666D01*
X0019374Y0052274D02*
X0027477Y0052274D01*
X0027477Y0051882D02*
X0019589Y0051882D01*
X0019803Y0051489D02*
X0027614Y0051489D01*
X0027777Y0051097D02*
X0020017Y0051097D01*
X0020231Y0050705D02*
X0027939Y0050705D01*
X0028101Y0050313D02*
X0020445Y0050313D01*
X0020659Y0049920D02*
X0028323Y0049920D01*
X0028715Y0049528D02*
X0020874Y0049528D01*
X0021088Y0049136D02*
X0029108Y0049136D01*
X0029500Y0048744D02*
X0021302Y0048744D01*
X0021516Y0048352D02*
X0030305Y0048352D01*
X0052181Y0039723D02*
X0052575Y0039723D01*
X0052575Y0039331D02*
X0052181Y0039331D01*
X0052181Y0038939D02*
X0052575Y0038939D01*
X0052575Y0038546D02*
X0052181Y0038546D01*
X0052181Y0038154D02*
X0052575Y0038154D01*
X0052575Y0037762D02*
X0052181Y0037762D01*
X0052181Y0037370D02*
X0052575Y0037370D01*
X0062348Y0015798D02*
X0097526Y0015798D01*
X0095723Y0015406D02*
X0064151Y0015406D01*
X0065954Y0015014D02*
X0093920Y0015014D01*
X0092117Y0014621D02*
X0067757Y0014621D01*
X0069560Y0014229D02*
X0090314Y0014229D01*
X0086672Y0013837D02*
X0073202Y0013837D01*
X0078686Y0013445D02*
X0081188Y0013445D01*
X0046213Y0127186D02*
X0033265Y0127186D01*
X0033658Y0127578D02*
X0046213Y0127578D01*
X0046213Y0127971D02*
X0034050Y0127971D01*
X0034442Y0128363D02*
X0046213Y0128363D01*
X0046213Y0128755D02*
X0034834Y0128755D01*
X0035226Y0129147D02*
X0046213Y0129147D01*
X0046213Y0129540D02*
X0035619Y0129540D01*
X0036011Y0129932D02*
X0046213Y0129932D01*
X0046213Y0130324D02*
X0036426Y0130324D01*
X0036950Y0130716D02*
X0046255Y0130716D01*
X0046333Y0131108D02*
X0037474Y0131108D01*
X0037998Y0131501D02*
X0046411Y0131501D01*
X0046489Y0131893D02*
X0038522Y0131893D01*
X0039046Y0132285D02*
X0046567Y0132285D01*
X0046645Y0132677D02*
X0039569Y0132677D01*
X0040093Y0133069D02*
X0046723Y0133069D01*
X0046801Y0133462D02*
X0040617Y0133462D01*
X0041141Y0133854D02*
X0046879Y0133854D01*
X0046957Y0134246D02*
X0041665Y0134246D01*
X0042189Y0134638D02*
X0047035Y0134638D01*
X0047113Y0135030D02*
X0042713Y0135030D01*
X0043237Y0135423D02*
X0047191Y0135423D01*
X0047269Y0135815D02*
X0043761Y0135815D01*
X0044413Y0136207D02*
X0047347Y0136207D01*
X0047425Y0136599D02*
X0045131Y0136599D01*
X0045849Y0136992D02*
X0047503Y0136992D01*
X0047660Y0137384D02*
X0046568Y0137384D01*
X0047286Y0137776D02*
X0047823Y0137776D01*
D18*
X0052378Y0088205D02*
X0052378Y0079937D01*
X0052378Y0079543D01*
X0052378Y0079937D02*
X0058283Y0079937D01*
X0052378Y0072457D02*
X0052378Y0061492D01*
X0052378Y0048441D02*
X0052378Y0044110D01*
X0076000Y0040567D02*
X0076000Y0032299D01*
X0076000Y0025213D02*
X0076000Y0024819D01*
X0083874Y0024819D01*
X0091748Y0024819D01*
X0091748Y0025213D01*
X0076197Y0040567D02*
X0076000Y0040567D01*
X0095685Y0052378D02*
X0095685Y0052575D01*
X0095685Y0052378D02*
X0103953Y0052378D01*
X0111039Y0052378D02*
X0115370Y0052378D01*
X0119307Y0050409D01*
X0127202Y0042657D01*
D19*
X0083874Y0024819D03*
X0052378Y0048441D03*
X0058283Y0079937D03*
X0093717Y0089780D03*
D20*
X0093717Y0091748D01*
X0087811Y0091748D01*
X0086236Y0091846D01*
X0085843Y0091748D01*
X0079937Y0091748D01*
X0079937Y0091846D01*
X0079937Y0091748D02*
X0074031Y0091748D01*
X0073638Y0091846D01*
X0073638Y0065665D02*
X0074031Y0064189D01*
X0074031Y0058283D01*
X0062220Y0058283D01*
X0060646Y0057752D01*
X0052378Y0054346D02*
X0052378Y0054012D01*
X0052378Y0054346D02*
X0044504Y0054346D01*
X0044504Y0055921D01*
X0044504Y0056315D01*
X0079937Y0048835D02*
X0079937Y0065665D01*
X0086236Y0065665D02*
X0086353Y0066718D01*
X0087143Y0065928D01*
X0087143Y0056441D01*
X0087417Y0056315D01*
X0095685Y0060055D02*
X0095685Y0060252D01*
X0103953Y0060252D01*
X0103953Y0040567D02*
X0083677Y0040567D01*
M02*
