G75*
%MOIN*%
%OFA0B0*%
%FSLAX25Y25*%
%IPPOS*%
%LPD*%
%AMOC8*
5,1,8,0,0,1.08239X$1,22.5*
%
%ADD10C,0.59855*%
%ADD11C,0.08200*%
%ADD12R,0.04343X0.03950*%
%ADD13R,0.03950X0.04343*%
%ADD14R,0.05524X0.03950*%
%ADD15R,0.03950X0.05524*%
%ADD16R,0.05131X0.05918*%
%ADD17R,0.13398X0.11430*%
%ADD18C,0.04800*%
D10*
X0079937Y0127181D03*
D11*
X0032373Y0032795D03*
X0032373Y0042795D03*
X0032373Y0052795D03*
X0032373Y0062795D03*
X0032373Y0072795D03*
X0127202Y0072657D03*
X0127202Y0062657D03*
X0127202Y0052657D03*
X0127202Y0042657D03*
X0127202Y0032657D03*
X0127202Y0082657D03*
D12*
X0095685Y0060055D03*
X0095685Y0052575D03*
X0087417Y0056315D03*
X0060646Y0057752D03*
X0052378Y0061492D03*
X0052378Y0054012D03*
D13*
X0076197Y0040567D03*
X0083677Y0040567D03*
X0079937Y0048835D03*
D14*
X0076000Y0032299D03*
X0076000Y0025213D03*
X0091748Y0025213D03*
X0091748Y0032299D03*
X0052378Y0037024D03*
X0052378Y0044110D03*
X0044504Y0048835D03*
X0044504Y0055921D03*
X0052378Y0072457D03*
X0052378Y0079543D03*
X0052378Y0088205D03*
X0052378Y0095291D03*
D15*
X0103953Y0060252D03*
X0111039Y0060252D03*
X0111039Y0052378D03*
X0103953Y0052378D03*
X0103953Y0040567D03*
X0111039Y0040567D03*
D16*
X0086236Y0065665D03*
X0079937Y0065665D03*
X0073638Y0065665D03*
X0067338Y0065646D03*
X0067338Y0091846D03*
X0073638Y0091846D03*
X0079937Y0091846D03*
X0086236Y0091846D03*
D17*
X0076706Y0078756D03*
D18*
X0058283Y0079937D03*
X0052378Y0048441D03*
X0083874Y0024819D03*
X0093717Y0089780D03*
M02*
